<?xml version="1.0"?><svg fill="#3498db" stroke="#ecf0f1" stroke-width="1" width="800" height="664" viewBox="0 0 800 664" xmlns="http://www.w3.org/2000/svg"><path d="M304.01561578038434,0 424.74798897836234,82.69156564641139 427.84139367228374,129.05760250744942 427.84139367228374,155.93528975712798 404.675860024394,164.89365903821508 374.8916013334751,173.85159491588473 351.7260676855865,196.24455480961234 336.8339383401264,225.3513787560721 331.86989655908536,261.16892486843426 310.3590421707224,258.9305295007996 280.574785480971,254.45366084498104 242.51712248762237,245.49959557894343 211.07818253613536,236.54510291228206 191.22201140963483,216.3959181081236 177.9845633248691,178.33040271850498 166.40179650092512,162.65410709820029 143.23626285290914,158.17492245857818 118.41604794432564,158.17492245857818 100.03539639190004,142.54606582612237 134.3003922347445,23.830150360527455 204.67011917926428,27.49006619458721 269.9805826006404,2.492181988277366 304.01561578038434,0Z" name="Ordino" name_en="Ordino" gn_name="Parroquia d'Ordino" admin="Andorra" adm0_a3="AND" iso_3166_2="AD-05" iso_a2="AD" wikidataid="Q24272"/><path d="M424.74798897836234,82.69156564641139 449.12442856417647,94.13468140460373 702.0874956874325,119.04243255227435 682.7703173998508,180.20796514185918 718.645077712649,202.92592358191953 770.3875220975111,218.9513122830663 789.119669555566,246.14324102560363 797.9834958480609,259.00875272268013 742.1016526192271,264.21947804387094 701.397597734534,303.7229156740786 691.1813589260811,329.6762874476912 676.0435427590035,314.8823455228965 654.5326903716818,301.4554414957276 631.3671567237926,290.2656140121892 623.0937504201954,252.21518484757723 614.8203461176389,225.3513787560721 583.3814081671932,238.7837643747058 540.3597013916359,238.7837643747058 494.02863409573075,245.49959557894343 441.07884175692266,256.6921072577232 398.05713498149106,256.6921072577232 366.61819703091913,256.6921072577232 331.86989655908536,261.16892486843426 336.8339383401264,225.3513787560721 351.7260676855865,196.24455480961234 374.8916013334751,173.85159491588473 404.675860024394,164.89365903821508 427.84139367228374,155.93528975712798 427.84139367228374,129.05760250744942 424.74798897836234,82.69156564641139Z" name="Canillo" name_en="Canillo" gn_name="Canillo" admin="Andorra" adm0_a3="AND" iso_3166_2="AD-02" iso_a2="AD" wikidataid="Q24260"/><path d="M691.1813589260811,329.6762874476912 676.7911891977876,366.2270043312121 668.7423649111056,441.2975191392745 647.5854528150405,466.3143129956276 622.7490775522103,477.8892727103791 595.8430062050777,478.20000342238313 569.3968683099866,468.5672160756232 563.6477068340707,459.24469089061955 557.4386141307708,456.75860533971263 550.2877869548862,420.02634075194374 522.1582115258292,395.42348133273697 495.6833153564251,382.00237365318003 449.3522460594786,377.52845564491804 414.60394558764483,384.2392924272565 384.81968689672533,368.5803004645453 378.20096385498994,341.7332539762745 361.65415324883674,332.7833815549768 333.52457781977915,335.02089059726376 333.52457781977915,292.5036332276057 331.86989655908536,261.16892486843426 366.61819703091913,256.6921072577232 398.05713498149106,256.6921072577232 441.07884175692266,256.6921072577232 494.02863409573075,245.49959557894343 540.3597013916359,238.7837643747058 583.3814081671932,238.7837643747058 614.8203461176389,225.3513787560721 623.0937504201954,252.21518484757723 631.3671567237926,290.2656140121892 654.5326903716818,301.4554414957276 676.0435427590035,314.8823455228965 691.1813589260811,329.6762874476912Z" name="Encamp" name_en="Encamp" gn_name="Parroquia d'Encamp" admin="Andorra" adm0_a3="AND" iso_3166_2="AD-03" iso_a2="AD" wikidataid="Q24269"/><path d="M50.82257970575288,162.6229854227238 100.03539639190004,142.54606582612237 118.41604794432564,158.17492245857818 143.23626285290914,158.17492245857818 166.40179650092512,162.65410709820029 177.9845633248691,178.33040271850498 191.22201140963483,216.3959181081236 211.07818253613536,236.54510291228206 242.51712248762237,245.49959557894343 280.574785480971,254.45366084498104 310.3590421707224,258.9305295007996 331.86989655908536,261.16892486843426 333.52457781977915,292.5036332276057 333.52457781977915,335.02089059726376 305.39500038968134,335.02089059726376 278.9201042202767,346.20803050771525 247.48116426879022,352.91999403783916 214.387545057524,375.29145640864766 179.63924458556343,395.42348133273697 148.20030463407699,404.37035197006236 118.41604794432564,420.02634075194374 96.81586483942115,437.4126252016432 89.22697400509716,389.854934417137 50.132681752664745,355.0337817364548 0,361.71870223884673 7.358926333403672,327.51425469747403 44.15355577551207,263.7528498859346 44.3835202765592,252.16459582641883 25.756239941813245,239.56446801352368 28.515838429468687,211.17216900657382 40.93402606091523,180.7526076113316 50.82257970575288,162.6229854227238Z" name="La Massana" name_en="La Massana" gn_name="Parroquia de la Massana" admin="Andorra" adm0_a3="AND" iso_3166_2="AD-04" iso_a2="AD" wikidataid="Q24276"/><path d="M226.9768626805864,664 92.21653699361009,646.072493583251 66.69026377769111,627.134211444838 66.69026377769111,589.4847953999259 2.5296317615081203,489.46351779973133 40.244123657499316,472.29609459044605 52.89227801509318,469.0333292116009 96.81586483942115,437.4126252016432 118.41604794432564,420.02634075194374 148.20030463407699,404.37035197006236 179.63924458556343,395.42348133273697 182.94860710707835,422.26280374641277 184.60328636673128,440.15354023173865 192.8766926703286,469.2223289507361 206.1141407549675,482.637166165257 244.1718037483167,491.5798572831826 273.9560604381943,502.75761615992707 315.3230859529316,496.0510395145459 351.7260676855865,491.5798572831826 374.8916013334751,496.0510395145459 359.9994719881424,522.8758981961697 363.30883450953047,554.1666949731433 369.8243556356173,590.7086094259988 307.00517876883384,598.8784522197984 294.5869911374501,613.0068674658263 284.92840199365907,630.2389803303674 270.9004495049138,647.3142826755529 245.14420956303772,661.5166382950332 226.9768626805864,664Z" name="Sant Julià de Lòria" name_en="Sant Julià de Lòria" gn_name="Parroquia de Sant Julia de Loria" admin="Andorra" adm0_a3="AND" iso_3166_2="AD-06" iso_a2="AD" wikidataid="Q24282"/><path d="M557.4386141307708,456.75860533971263 550.7695879754932,460.0992739299827 542.7207636890008,469.4994411836734 518.5742886044228,550.5853693028363 447.28469698079385,580.6341425970342 369.8243556356173,590.7086094259988 363.30883450953047,554.1666949731433 359.9994719881424,522.8758981961697 374.8916013334751,496.0510395145459 351.7260676855865,491.5798572831826 315.3230859529316,496.0510395145459 273.9560604381943,502.75761615992707 244.1718037483167,491.5798572831826 206.1141407549675,482.637166165257 224.31563062077424,471.4582025481551 250.7905267901789,455.80652765195515 268.99201865702645,424.49923993962216 282.22946674166536,399.8969702746565 293.81223356573616,384.2392924272565 318.6324484743197,359.63171336607263 333.52457781977915,335.02089059726376 361.65415324883674,332.7833815549768 378.20096385498994,341.7332539762745 384.81968689672533,368.5803004645453 414.60394558764483,384.2392924272565 449.3522460594786,377.52845564491804 495.6833153564251,382.00237365318003 522.1582115258292,395.42348133273697 550.2877869548862,420.02634075194374 557.4386141307708,456.75860533971263Z" name="Escaldes-Engordany" name_en="Escaldes-Engordany" gn_name="Parroquia d'Escaldes-Engordany" admin="Andorra" adm0_a3="AND" iso_3166_2="AD-08" iso_a2="AD" wikidataid="Q24286"/><path d="M333.52457781977915,335.02089059726376 318.6324484743197,359.63171336607263 293.81223356573616,384.2392924272565 282.22946674166536,399.8969702746565 268.99201865702645,424.49923993962216 250.7905267901789,455.80652765195515 224.31563062077424,471.4582025481551 206.1141407549675,482.637166165257 192.8766926703286,469.2223289507361 184.60328636673128,440.15354023173865 182.94860710707835,422.26280374641277 179.63924458556343,395.42348133273697 214.387545057524,375.29145640864766 247.48116426879022,352.91999403783916 278.9201042202767,346.20803050771525 305.39500038968134,335.02089059726376 333.52457781977915,335.02089059726376Z" name="Andorra la Vella" name_en="Andorra la Vella" gn_name="Parroquia d'Andorra la Vella" admin="Andorra" adm0_a3="AND" iso_3166_2="AD-07" iso_a2="AD" wikidataid="Q2522163"/></svg>