<?xml version="1.0"?><svg fill="#3498db" stroke="#ecf0f1" stroke-width="1" width="800" height="624" viewBox="0 0 800 624" xmlns="http://www.w3.org/2000/svg"><path d="M772.2208223399507,157.6675631863675 774.9402462680508,156.49251271571285 779.8317884766612,152.98578767118676 781.7160940059917,151.3598690956869 785.5679108244218,149.99362698845707 790.1931481336545,147.59640419599438 790.9787830004309,142.59177765584926 792.1633975276059,140.95255787379 796.3708078358577,137.69737520513493 796.5825787984651,137.63081027050433 796.6903162086134,139.05319257518232 796.5287101927148,141.09770453126785 795.8284179536099,144.66773397866837 795.3031986915361,150.1031309432999 793.7679422851784,158.0242467543899 793.1484528057871,183.64832205074075 792.2403623702793,183.4747350155327 783.4578205245762,181.47476448961623 782.0211438085486,181.4465945304287 780.4561924043236,181.79871569276574 780.3792275616488,182.56397291423588 780.6614317863684,183.2775629535774 781.2258406822618,184.24462839481146 781.764594432176,185.5026888140372 782.1750734938967,186.95781824058946 782.4572777186164,189.54864955355254 782.7394820921509,190.65623084567244 783.2782359908797,191.5995081563134 783.8169897407951,192.31749861760568 783.9709194261433,193.53755887411484 783.7913348924467,195.1704570504152 783.1243063055315,197.582045593974 782.2263831905838,198.97070067911977 781.2514955306102,199.82918378894456 779.9174386544179,204.86213128415739 777.9676628879987,207.09446060485106 775.1883777292647,200.22323024309645 763.3785527661445,187.61963567552934 762.3780099601846,186.83577882802163 760.3512696487272,186.35230839382893 759.6329310674788,183.79865694522988 759.1198323147348,182.62969915309588 758.6494918409913,181.17897885477075 758.4442521613084,179.58260613457756 758.5981818466663,177.41323167158822 760.5308541824252,165.90539265507206 760.5821640279368,163.89442421242637 760.4538893397518,161.84097904489641 759.5987246526262,158.05781276609486 759.7013443436492,156.8075792579761 760.6847838677733,156.11192980223186 765.3539832320903,155.66538643613333 767.4136795199305,154.84330038695649 767.5630074258831,155.91034998471613 769.6040183138573,156.92493857889198 772.2208223399507,157.6675631863675Z" name="Fujayrah" name_en="Fujairah" gn_name="Al Fujayrah" admin="United Arab Emirates" adm0_a3="ARE" iso_3166_2="AE-FU" iso_a2="AE" postal="FU" type="Emirate" type_en="Emirate" wikidataid="Q4091"/><path d="M776.3336846069295,135.84639040968952 771.8656037902543,139.22366722138128 767.2267940070116,140.0682499501657 765.8414271364927,139.41910756571744 765.6618424539716,138.96281468403924 765.6874974511348,138.39831540189286 765.9697018246791,137.8243929114966 766.123631361204,137.31631764732018 765.9440468275062,136.9117310394652 765.4309479259405,136.61534283630527 760.1203751207044,135.17568600462684 759.444794967278,135.1145218482118 758.162047787774,135.59441942331043 756.8536457599203,136.54006907310236 754.6216659176142,138.9063652985773 754.493391229428,139.76720083717225 754.9295252883202,140.15291930060965 756.0583426336433,140.01180358857343 756.9049556054318,140.08236147681183 757.5463291951852,140.37399874246725 758.3929423157969,141.44173406214978 758.7008015376797,141.73805670120132 759.2224521545811,141.98263736344038 759.7355510561481,142.08140952114448 760.3512696487272,142.13314724100786 762.5832493422198,141.99204416910345 762.762834173564,142.09081644794597 762.8911088617502,142.18958811615946 762.968073704425,142.35891002970644 762.9167637100903,142.58937383904836 762.1471154321521,144.08027450841718 761.2491924660287,145.0208534866186 760.0434102780213,146.08836158709866 757.3923995098371,147.92228477764422 756.6997160745722,149.25765990039528 756.4431666982009,150.45190533760243 756.6227512318987,151.45332869532476 756.6227512318987,152.38418793152914 756.314892158839,153.1598739202349 755.801793257272,153.70988901292102 754.8782152939856,154.31630001003938 754.4420812350933,154.81927917236794 753.9802923278609,155.61838145329156 752.9540946735527,156.1683345958847 751.2095587356395,156.398652866151 746.249603133632,155.36925255724358 744.6846517294167,155.3316480048189 743.0940453280285,155.91921212276696 741.6573686119995,156.29524513653845 739.6220765852175,156.24354076135356 737.1078922205429,155.50086814552452 730.9164995821892,155.09191717794076 731.361185207583,151.26056997766617 731.3269784950952,150.23562958624626 729.4541678689874,144.77160397130345 733.6444750442348,141.26299791769142 734.3628134766615,139.37206745978972 734.2345386396521,138.67115855380476 734.0036442604522,138.03608728119318 733.6701300413979,137.5280171125527 733.233995982514,137.1469567591902 732.7208970809484,136.83645813569177 730.4034008294453,135.7214493804505 733.4135805162022,126.76637776412474 734.6706726985443,127.81595396043957 735.3120462882963,128.6254580341545 735.9790748752115,129.6796507377914 736.8256876981769,130.62085101946803 737.9031953468212,131.23260937359416 745.9930537572593,133.6559449317668 747.7375898439957,133.86767994590312 749.2255764055459,133.60889255439662 750.5168753003759,132.9077983435943 751.5430728058624,131.98081365379952 752.6975452971815,130.56908597430652 753.5698132661332,130.25849361072827 754.519046077768,130.282023512665 755.2886943557063,129.73612386261678 755.801793257272,128.34307621215743 755.5195887349145,124.61058720080672 754.7499406057992,123.41963311653863 753.5698132661332,122.93005207354346 752.2614112382892,123.24074905117992 751.1582487413048,123.25016395244324 750.2603257751815,123.00066531600042 749.6446070337682,122.56285905738719 749.3795060908941,122.03088876815329 749.2255764055459,121.46124263498204 749.0459918718494,121.05165294670745 748.81509749264,120.6985524586644 748.6355126612958,120.47256505061996 748.3789632849246,120.0959140940083 748.507238121934,119.6768822296884 748.9690268803515,118.98475571894188 752.9797495218913,114.53013572711227 753.9546373306894,112.89120836720879 754.3651163924198,111.30867808345619 754.0059473250241,109.8155304908341 753.4671935751197,108.74153103941447 751.312178426653,105.82073707203759 750.5852882789015,105.08576588848501 750.53397843339,105.03393995655145 750.4826685878784,104.98682539521938 750.3116356206931,104.90201899223729 749.8156400009633,104.72298225358449 749.0716467201881,104.68057857720594 748.4046182820961,104.83134684550167 748.0711040630514,104.95855674042488 747.9171743776936,105.03393995655145 745.7108493837263,106.72528318853506 744.7872714204399,107.17754200851017 743.7354189177805,107.43193334555663 740.1864851834716,107.26233934326343 735.1324617545998,107.75227397028993 734.542398010358,107.67218929888932 733.4135805162022,107.17283099019264 732.926136611808,107.01265707000755 731.3269784950952,106.7111498356275 730.6856050541663,106.37194955238068 730.3264359867705,105.86784982022492 730.1725061525992,105.14230299323076 729.7620270908702,102.1833273349699 728.402315366339,96.24059604121604 728.402315366339,94.82654157396172 727.5300472485628,91.07413565260454 727.6070119424145,89.70217627226171 728.1970756866549,88.4904423675963 729.5311327116705,87.42952976453475 731.2585655165695,87.19376427454188 732.5669673955905,87.39180733440844 733.5931651987232,87.42952976453475 735.0298419147522,87.01929613146584 736.8769976925116,85.96774267990979 740.9048236158984,81.61008648679757 742.9144606455088,80.01583210982118 743.8123837604552,79.45451329130151 744.5820320383922,79.19507537075935 745.58257469554,79.605457646289 747.0192514115703,79.78941957303729 749.3025412482207,79.6809295095456 756.2122721701683,77.76103442637519 758.4400928327066,76.24341881765388 759.0854920929712,76.61924683526412 762.967940087848,77.31744722215683 764.4559266811928,78.53452627976674 766.0978427965671,82.21364971399348 767.2608668633244,83.5813689241682 769.8605677379016,84.29820762228603 772.5115783980038,83.7983093394889 779.383671715637,81.81443629656995 782.8999433010833,83.87510222333086 786.6976826061425,85.3975557596814 789.4719178057906,85.9916549825783 790.7916996897694,88.08572385863403 794.427833144421,100.37871630208079 793.4043288735094,117.23311681972498 793.6062877876577,119.07162327780912 792.8304261145211,119.43205093540163 786.1515894229487,125.55200670905127 779.9944034970912,129.260803455063 778.2926256893567,130.7196746613514 777.3519442954085,132.70546497797375 776.8816036728418,134.52639780001647 776.3336846069295,135.84639040968952Z" name="Fujayrah" name_en="Fujairah" gn_name="Al Fujayrah" admin="United Arab Emirates" adm0_a3="ARE" iso_3166_2="AE-FU" iso_a2="AE" postal="FU" type="Emirate" type_en="Emirate" wikidataid="Q4091"/><path d="M785.2124258447154,212.02836945765878 785.0996033283297,213.27894097317622 784.2273351541622,215.07445675410673 779.592342369606,218.37445083511918 778.6601025498131,219.287737084363 778.6346914749139,219.21826692531275 777.9163531913102,217.2543419265943 775.0601028922553,215.14023273712323 776.1119553949133,211.45998326599468 778.8142760086104,211.66628080671546 783.9452644289814,212.6555453515179 785.1767017629738,212.0460511655049 785.2124258447154,212.02836945765878Z" name="Fujayrah" name_en="Fujairah" gn_name="Al Fujayrah" admin="United Arab Emirates" adm0_a3="ARE" iso_3166_2="AE-FU" iso_a2="AE" postal="FU" type="Emirate" type_en="Emirate" wikidataid="Q4091"/><path d="M790.9787830004309,142.59177765584926 784.4000810884921,141.26231132960356 781.3087675391474,136.4895782234656 776.3336846069295,135.84639040968952 776.8816036728418,134.52639780001647 777.3519442954085,132.70546497797375 778.2926256893567,130.7196746613514 779.9944034970912,129.260803455063 786.1515894229487,125.55200670905127 792.8304261145211,119.43205093540163 793.6062877876577,119.07162327780912 794.1584899500709,123.96528371659436 793.9295481355832,125.32184469283159 792.650167796959,127.59000364385908 792.811773812856,129.25761669086697 794.427833144421,132.16266431207922 795.2089284742185,134.00035152960623 795.949622424162,135.20069257432954 796.5017759394705,136.61582439560527 796.5825787984651,137.63081027050433 796.3708078358577,137.69737520513493 792.1633975276059,140.95255787379 790.9787830004309,142.59177765584926Z" name="Sharjah" name_en="Sharjah Emirate" gn_name="Ash Shariqah" admin="United Arab Emirates" adm0_a3="ARE" iso_3166_2="AE-SH" iso_a2="AE" postal="SH" type="Emirate" type_en="Emirate" wikidataid="Q188810"/><path d="M796.6364475366407,200.00282663582982 787.6479940864184,201.0064648469041 786.895942771446,201.86879383774772 786.0402844395591,202.84988123292004 785.5062676856205,208.77097327358814 785.4760094183455,208.768559873664 784.5353280243987,208.69353282313912 782.3290031792545,207.82601526658553 779.9174386544179,204.86213128415739 781.2514955306102,199.82918378894456 782.2263831905838,198.97070067911977 783.1243063055315,197.582045593974 783.7913348924467,195.1704570504152 783.9709194261433,193.53755887411484 783.8169897407951,192.31749861760568 783.2782359908797,191.5995081563134 782.7394820921509,190.65623084567244 782.4572777186164,189.54864955355254 782.1750734938967,186.95781824058946 781.764594432176,185.5026888140372 781.2258406822618,184.24462839481146 780.6614317863684,183.2775629535774 780.3792275616488,182.56397291423588 780.4561924043236,181.79871569276574 782.0211438085486,181.4465945304287 783.4578205245762,181.47476448961623 792.2403623702793,183.4747350155327 793.1484528057871,183.64832205074075 793.1080514259247,185.64432531966517 796.6364475366407,200.00282663582982Z" name="Sharjah" name_en="Sharjah Emirate" gn_name="Ash Shariqah" admin="United Arab Emirates" adm0_a3="ARE" iso_3166_2="AE-SH" iso_a2="AE" postal="SH" type="Emirate" type_en="Emirate" wikidataid="Q188810"/><path d="M729.2117041885251,201.11107843585148 722.5186483337218,200.0917357097254 716.1562226832841,201.74760253984343 710.3924124659792,205.4060184986088 709.6767232202984,206.0597591419656 704.9706680922507,210.35798677882585 699.9594026646266,216.71982776239565 698.2319699642459,222.32536013483858 699.6173368210583,236.25806856348004 699.6173368210583,239.6673011520426 698.8989984998952,246.4186636892333 699.2410643434621,249.74677303691092 700.0963627939554,251.67989702763 698.4116882680568,252.0870648406988 691.6558868826245,252.11514515635136 678.7428994225213,248.82951548125646 679.6408223886446,246.7464940383875 679.9999916048621,245.34209999384308 680.3078508267449,243.35239041455952 680.4617805120944,240.98323398783043 680.4104706665828,237.9067003186613 679.5895125431426,232.23015193679828 677.6653919227084,224.65447939630155 677.0753281784597,219.28857134877896 677.1266381727944,215.0277246932311 676.89574364477,213.66820626788663 676.3056799005213,211.37558818185644 674.4243175590972,206.2550186643084 671.5509641270281,200.32643159976223 670.2425620991855,196.16984372581854 670.3195269418588,196.01032044233168 670.3195269418588,195.96809343537043 671.2687596046705,194.03025626032502 671.8331683517492,193.27478238038265 672.6541266240125,192.35973228632588 674.7321769298031,190.53421175070963 675.6386513136061,189.52049008407587 676.3056799005213,188.38469046529852 676.6135392712273,187.26760759677464 676.5622292768926,186.09414009001756 671.7562035090648,166.1731946190511 669.78077304313,162.4189703849722 667.1383141390935,159.63695271529798 655.319937460639,151.70720341444795 654.0885002754683,150.23562958624626 652.7800982476257,149.01786265527977 651.4973510681203,148.10096643116026 646.1269167020397,145.0114479857426 644.7415498315125,143.74165623085196 642.971358747613,141.1312967243837 641.9964710876382,140.27051500287635 640.4828293801029,140.571557335497 634.98412017701,142.54704393067647 630.263610967194,142.8386481011966 621.7889283433738,140.48218580088366 621.4896206880021,140.22818059687208 621.4725307728579,140.21367726516732 623.8797050750278,137.601176220954 625.334158390686,136.99367145121803 627.8390503959923,137.12702765094556 627.0714221928142,134.8450428668026 627.1926266633664,132.65915153839947 628.2026638076517,130.83617273223982 630.1015334601847,129.67264724721983 631.771461463714,131.11037036585088 635.1113173052871,128.25706415653826 637.9673332893641,124.29089938014693 637.9857484460886,124.29990962850236 638.0627132887633,124.33756786658614 641.8168864051185,126.81815185234525 646.8196001373032,128.61133892357603 652.6005137139291,129.8914242416165 666.591008525029,130.64908646167365 667.7027227373393,130.41379042813938 668.6263007006341,129.64200190653833 670.1655972565108,126.98759322337781 672.3462672533149,120.89628945178008 671.6279289697015,120.01116688482072 669.909047731315,119.32375940416043 659.946378694769,117.52509714956146 658.0735677710232,116.78110453272956 655.5764868370103,115.15647480207724 653.9089157417718,114.35588791627974 651.266456540089,113.79545947855965 649.3166810713161,112.43906868193021 649.1713029524695,112.34016173673957 649.1555146501543,112.3294202121471 649.7366543800769,111.24062306107051 651.554721107404,109.65322501364665 649.4942454389711,108.57016696381979 650.5446839631104,106.34453573932288 652.6724954301311,103.45087345158107 652.9712905501501,102.64901231998776 652.9938894938114,102.65924082628969 653.4727816828891,102.87598995312108 664.3077188372017,109.58942977201633 669.267674141563,113.85197388114263 671.2944146018338,115.19885800141975 682.9503098796044,119.94054360299049 686.0631094061979,122.12504381926387 693.7339370395906,128.9501924292465 695.8205390607087,131.3267244553602 697.1289410885528,133.48185028408034 698.2064485883725,138.21955432396956 699.8996748295973,142.1049266668595 701.2080768574414,144.0379474904284 702.3112393544243,144.9409058634497 703.8761909074724,145.55226286344794 705.9627926309429,145.6839373927495 708.3230474590828,145.59928949033096 710.5806822985617,145.10550363069729 711.8377743320793,144.61170677120157 713.7191368223266,143.64289142053792 716.1307013471634,142.90919701510495 717.3621386811558,142.39183367354832 718.2600614984559,141.67220739162536 718.7731604000229,140.63740963865789 718.9270900853711,139.2591709882082 718.7218504056882,137.65503580528463 718.3370264899538,136.11664890349434 717.5417232148536,133.82533310765268 717.7982727400495,133.18541560332443 718.2857164956191,132.77604667797755 721.3129996130459,132.83721723417918 723.9896653784031,136.7847080171309 726.2216450718873,131.96199107141135 726.9656385014856,127.79242139306352 727.5300472485628,126.09801146966487 728.7871394308967,125.35431204738784 729.864647079541,125.18015084340657 733.4135805162022,126.76637776412474 730.4034008294453,135.7214493804505 729.0949988016026,136.62475212030097 728.4792802090125,137.1751837470897 727.7352867794225,138.01727025446613 727.4787374030526,139.2591709882082 727.376117563205,140.31755317181432 729.4541678689874,144.77160397130345 731.3269784950952,150.23562958624626 731.361185207583,151.26056997766617 730.9164995821892,155.09191717794076 729.1463084982897,157.68181002361075 726.734743973453,159.51946113575332 725.2467574119124,162.06653834287258 725.2724122602511,162.91236569107622 725.451996793949,163.79575065634597 726.0933705325241,164.77307102203105 728.2227306838181,167.06584411136944 729.0693436556066,168.34367928340592 729.6850622481954,169.6496251719959 729.6594073998567,170.39651597233106 728.6845195910587,171.94188884160968 725.0415178810528,180.76581115573936 724.682348813657,183.14141932413375 724.682348813657,185.34778234956144 724.9388981900296,188.12654630561875 725.5033067882837,189.95226624146756 728.351005372003,195.46136288578035 729.3515481779739,199.313159585917 729.2147217744532,201.07228298120995 729.2117041885251,201.11107843585148Z" name="Sharjah" name_en="Sharjah Emirate" gn_name="Ash Shariqah" admin="United Arab Emirates" adm0_a3="ARE" iso_3166_2="AE-SH" iso_a2="AE" postal="SH" type="Emirate" type_en="Emirate" wikidataid="Q188810"/><path d="M778.5159502532113,144.90985760718752 780.9181598033842,146.61395349946469 780.03299277627,149.60760451386477 776.7311248889592,150.74548178979134 776.1605420295367,145.87583203525628 777.0702292223582,144.93057872559993 778.5159502532113,144.90985760718752Z" name="Sharjah" name_en="Sharjah Emirate" gn_name="Ash Shariqah" admin="United Arab Emirates" adm0_a3="ARE" iso_3166_2="AE-SH" iso_a2="AE" postal="SH" type="Emirate" type_en="Emirate" wikidataid="Q188810"/><path d="M760.3512696487272,186.35230839382893 762.3780099601846,186.83577882802163 763.3785527661445,187.61963567552934 775.1883777292647,200.22323024309645 777.9676628879987,207.09446060485106 778.1729025676815,208.78262734590777 778.8142760086104,211.66628080671546 776.1119553949133,211.45998326599468 775.0601028922553,215.14023273712323 766.9958996278117,214.08544686369575 765.4052930776018,213.49474456097622 764.0199262070734,212.12106668971356 763.1733130864616,210.1143123994801 763.429862462833,206.43791653947665 764.0455810554217,204.67453029348462 764.5586799569887,203.55827155395454 764.5073701114771,202.10892728661128 763.8403416733768,199.86202104427156 761.6340166794081,194.83262587400563 758.3929423157969,189.54864955355254 758.2903224759604,188.32367495882733 758.4699071584813,187.43658180274198 760.3512696487272,186.35230839382893Z" name="Sharjah" name_en="Sharjah Emirate" gn_name="Ash Shariqah" admin="United Arab Emirates" adm0_a3="ARE" iso_3166_2="AE-SH" iso_a2="AE" postal="SH" type="Emirate" type_en="Emirate" wikidataid="Q188810"/><path d="M771.8656037902543,139.22366722138128 772.2037190229423,142.180034443391 772.7353688462472,144.0074986810606 773.7293861004027,145.51077207032418 772.1141080210333,147.42387964998184 767.6872594585452,149.62623688365215 767.3145030296024,154.13458806083244 767.4136795199305,154.84330038695649 765.3539832320903,155.66538643613333 760.6847838677733,156.11192980223186 759.7013443436492,156.8075792579761 759.5987246526262,158.05781276609486 760.4538893397518,161.84097904489641 760.5821640279368,163.89442421242637 760.5308541824252,165.90539265507206 758.5981818466663,177.41323167158822 758.4442521613084,179.58260613457756 758.6494918409913,181.17897885477075 759.1198323147348,182.62969915309588 759.6329310674788,183.79865694522988 760.3512696487272,186.35230839382893 758.4699071584813,187.43658180274198 758.2903224759604,188.32367495882733 758.3929423157969,189.54864955355254 761.6340166794081,194.83262587400563 763.8403416733768,199.86202104427156 764.5073701114771,202.10892728661128 764.5586799569887,203.55827155395454 764.0455810554217,204.67453029348462 763.429862462833,206.43791653947665 763.1733130864616,210.1143123994801 764.0199262070734,212.12106668971356 765.4052930776018,213.49474456097622 766.9958996278117,214.08544686369575 775.0601028922553,215.14023273712323 777.9163531913102,217.2543419265943 778.6346914749139,219.21826692531275 778.6601025498131,219.287737084363 773.1957102506602,224.640275504355 770.2197368984978,226.0834607611081 764.028344252589,226.85187194077832 761.5628193491892,227.97137027450606 761.48008699406,227.97647430864595 750.6964598340738,228.64175077049885 741.6317136148266,220.32904968032338 737.38321522735,217.3624833981694 736.01314774126,209.3686195166646 734.1317853533382,204.00369735464918 729.6336189393145,201.17533385471913 729.2117041885251,201.11107843585148 729.2147217744532,201.07228298120995 729.3515481779739,199.313159585917 728.351005372003,195.46136288578035 725.5033067882837,189.95226624146756 724.9388981900296,188.12654630561875 724.682348813657,185.34778234956144 724.682348813657,183.14141932413375 725.0415178810528,180.76581115573936 728.6845195910587,171.94188884160968 729.6594073998567,170.39651597233106 729.6850622481954,169.6496251719959 729.0693436556066,168.34367928340592 728.2227306838181,167.06584411136944 726.0933705325241,164.77307102203105 725.451996793949,163.79575065634597 725.2724122602511,162.91236569107622 725.2467574119124,162.06653834287258 726.734743973453,159.51946113575332 729.1463084982897,157.68181002361075 730.9164995821892,155.09191717794076 737.1078922205429,155.50086814552452 739.6220765852175,156.24354076135356 741.6573686119995,156.29524513653845 743.0940453280285,155.91921212276696 744.6846517294167,155.3316480048189 746.249603133632,155.36925255724358 751.2095587356395,156.398652866151 752.9540946735527,156.1683345958847 753.9802923278609,155.61838145329156 754.4420812350933,154.81927917236794 754.8782152939856,154.31630001003938 755.801793257272,153.70988901292102 756.314892158839,153.1598739202349 756.6227512318987,152.38418793152914 756.6227512318987,151.45332869532476 756.4431666982009,150.45190533760243 756.6997160745722,149.25765990039528 757.3923995098371,147.92228477764422 760.0434102780213,146.08836158709866 761.2491924660287,145.0208534866186 762.1471154321521,144.08027450841718 762.9167637100903,142.58937383904836 762.968073704425,142.35891002970644 762.8911088617502,142.18958811615946 762.762834173564,142.09081644794597 762.5832493422198,141.99204416910345 760.3512696487272,142.13314724100786 759.7355510561481,142.08140952114448 759.2224521545811,141.98263736344038 758.7008015376797,141.73805670120132 758.3929423157969,141.44173406214978 757.5463291951852,140.37399874246725 756.9049556054318,140.08236147681183 756.0583426336433,140.01180358857343 754.9295252883202,140.15291930060965 754.493391229428,139.76720083717225 754.6216659176142,138.9063652985773 756.8536457599203,136.54006907310236 758.162047787774,135.59441942331043 759.444794967278,135.1145218482118 760.1203751207044,135.17568600462684 765.4309479259405,136.61534283630527 765.9440468275062,136.9117310394652 766.123631361204,137.31631764732018 765.9697018246791,137.8243929114966 765.6874974511348,138.39831540189286 765.6618424539716,138.96281468403924 765.8414271364927,139.41910756571744 767.2267940070116,140.0682499501657 771.8656037902543,139.22366722138128Z" name="Ras Al Khaymah" name_en="Ras al-Khaimah" gn_name="Ra's al Khaymah" admin="United Arab Emirates" adm0_a3="ARE" iso_3166_2="AE-RK" iso_a2="AE" postal="RK" type="Emirate" type_en="Emirate" wikidataid="Q170024"/><path d="M758.2474307182936,0 760.1287931062056,0.2272587634605993 762.7284938153101,7.290002573508451 763.5665553554896,11.038173122597637 763.2073861949019,14.388251413687227 762.1127752306696,19.82863943187235 761.428643543504,36.24546316916602 760.3169292622715,38.873252660283754 757.1186132855365,43.36243397784609 756.3147583793559,46.0932856799339 757.0502000175193,49.21113335979032 760.8984413783874,54.36875841371599 761.6680896505579,56.6448980202712 760.4879622668018,59.034112818954185 758.3500504548175,60.68657618909039 756.5713079689023,62.59383267606781 756.4344814328787,65.72816421428739 757.2212330220494,73.89227448460713 758.1619142987614,76.0814283437954 758.4400928327066,76.24341881765388 756.2122721701683,77.76103442637519 749.3025412482207,79.6809295095456 747.0192514115703,79.78941957303729 745.58257469554,79.605457646289 744.5820320383922,79.19507537075935 743.8123837604552,79.45451329130151 742.9144606455088,80.01583210982118 740.9048236158984,81.61008648679757 736.8769976925116,85.96774267990979 735.0298419147522,87.01929613146584 733.5931651987232,87.42952976453475 732.5669673955905,87.39180733440844 731.2585655165695,87.19376427454188 729.5311327116705,87.42952976453475 728.1970756866549,88.4904423675963 727.6070119424145,89.70217627226171 727.5300472485628,91.07413565260454 728.402315366339,94.82654157396172 728.402315366339,96.24059604121604 729.7620270908702,102.1833273349699 730.1725061525992,105.14230299323076 730.3264359867705,105.86784982022492 730.6856050541663,106.37194955238068 731.3269784950952,106.7111498356275 732.926136611808,107.01265707000755 733.4135805162022,107.17283099019264 734.542398010358,107.67218929888932 735.1324617545998,107.75227397028993 740.1864851834716,107.26233934326343 743.7354189177805,107.43193334555663 744.7872714204399,107.17754200851017 745.7108493837263,106.72528318853506 747.9171743776936,105.03393995655145 748.0711040630514,104.95855674042488 748.4046182820961,104.83134684550167 749.0716467201881,104.68057857720594 749.8156400009633,104.72298225358449 750.3116356206931,104.90201899223729 750.4826685878784,104.98682539521938 750.53397843339,105.03393995655145 750.5852882789015,105.08576588848501 751.312178426653,105.82073707203759 753.4671935751197,108.74153103941447 754.0059473250241,109.8155304908341 754.3651163924198,111.30867808345619 753.9546373306894,112.89120836720879 752.9797495218913,114.53013572711227 748.9690268803515,118.98475571894188 748.507238121934,119.6768822296884 748.3789632849246,120.0959140940083 748.6355126612958,120.47256505061996 748.81509749264,120.6985524586644 749.0459918718494,121.05165294670745 749.2255764055459,121.46124263498204 749.3795060908941,122.03088876815329 749.6446070337682,122.56285905738719 750.2603257751815,123.00066531600042 751.1582487413048,123.25016395244324 752.2614112382892,123.24074905117992 753.5698132661332,122.93005207354346 754.7499406057992,123.41963311653863 755.5195887349145,124.61058720080672 755.801793257272,128.34307621215743 755.2886943557063,129.73612386261678 754.519046077768,130.282023512665 753.5698132661332,130.25849361072827 752.6975452971815,130.56908597430652 751.5430728058624,131.98081365379952 750.5168753003759,132.9077983435943 749.2255764055459,133.60889255439662 747.7375898439957,133.86767994590312 745.9930537572593,133.6559449317668 737.9031953468212,131.23260937359416 736.8256876981769,130.62085101946803 735.9790748752115,129.6796507377914 735.3120462882963,128.6254580341545 734.6706726985443,127.81595396043957 733.4135805162022,126.76637776412474 729.864647079541,125.18015084340657 728.7871394308967,125.35431204738784 727.5300472485628,126.09801146966487 726.9656385014856,127.79242139306352 726.2216450718873,131.96199107141135 723.9896653784031,136.7847080171309 721.3129996130459,132.83721723417918 717.7982727400495,128.51250571214973 713.4369324487922,124.44112731649885 713.2316930667556,122.93005207354346 713.8730665076845,121.53186064807737 714.6940246311343,120.12416319953685 714.7709894738077,118.30673313522784 713.6934818251634,116.63983722863463 707.4764343384697,109.89560724642214 706.3219618471521,107.6392132295911 705.834518091581,105.86313851721779 705.7575532488966,105.24595405077216 705.834518091581,103.47910697051711 705.5779687152084,100.5905902692273 704.8852852799462,96.76377262503316 700.438428579503,82.03928863813009 699.5405057622029,80.61015368616988 698.3090684282091,79.97337993003424 696.6671520324973,79.53941961076929 695.3844051506395,79.34130429040336 691.3736825090887,75.6522549168546 691.185546111243,75.46825783293518 691.1686112432382,75.45169536734825 693.4106577122027,72.27864781240623 695.2287244395271,70.91132575528368 696.7235794660335,70.68095319920559 698.8244565143274,70.01954724692312 700.6829247869981,69.03854805088511 701.4909543700303,67.80480384856462 702.2316483199738,67.37371972039439 707.1336949866329,66.0432510778841 713.0323115054769,61.24842079594635 722.0283750902818,49.82572113161719 726.5398740920484,45.96472220430926 725.5567713664818,47.62377228455414 724.5063326768516,51.372901057154856 722.8094704200794,54.55617043210201 723.4828284059497,55.64938051643616 724.6814058193764,55.96915264023819 725.3143624253761,55.38909755805712 725.6645085449347,52.65221561943229 727.1997649512924,47.482423242092246 727.5768454895684,44.03768202021901 728.6272840137146,42.46020729371621 735.5898063488149,35.87373763839802 737.0442596644746,33.975564828858225 738.2967057498724,31.846432943869186 739.3067427286655,29.24056322966192 739.9935680066461,25.867350612100253 738.8623263918004,25.867350612100253 738.2697713311455,27.56519312105065 737.2866686055886,28.99485042208342 736.0072882669533,30.08936701569112 734.4585647339693,30.744561170537384 738.7815234665917,23.506529270802865 742.3637884147643,15.759411261488706 745.3265637180616,4.118535296911667 746.0123103311752,2.5182563820185537 749.8497129923943,2.1872635442263952 758.2474307182936,0Z" name="Ras Al Khaymah" name_en="Ras al-Khaimah" gn_name="Ra's al Khaymah" admin="United Arab Emirates" adm0_a3="ARE" iso_3166_2="AE-RK" iso_a2="AE" postal="RK" type="Emirate" type_en="Emirate" wikidataid="Q170024"/><path d="M761.5628193491892,227.97137027450606 761.5312631145345,227.9856983951677 758.8289426689267,234.74528849409282 755.2714573661214,239.0725961690327 754.2623629868858,242.1770616363241 752.7743765590333,244.04046965673632 749.6102670508229,244.9299815317407 746.1040915335522,245.06574593707666 745.8257843761359,245.0269099888696 745.8305725054,244.97694310394664 745.9673989089207,243.54902854270662 745.7621592292364,241.0956108173241 746.8396668778724,237.4852241293958 750.6964598340738,228.64175077049885 761.48008699406,227.97647430864595 761.5628193491892,227.97137027450606Z" name="Dubay" name_en="Dubai" gn_name="Dubayy" admin="United Arab Emirates" adm0_a3="ARE" iso_3166_2="AE-DU" iso_a2="AE" postal="DU" type="Emirate" type_en="Emirate" wikidataid="Q613"/><path d="M570.6978858571503,200.3130976182739 571.3981782617489,199.89201441062374 575.990480188713,197.2471328948251 575.1016475149813,193.5230753260149 580.569314989069,192.37026326139002 581.3369431922484,192.99101567896633 593.6863299107273,178.47265613817228 610.5876170108447,156.9213845994872 611.4360481392218,154.02703260905537 611.3013765420502,151.52470118297632 614.4526922799743,148.65925411131101 617.0922558824523,149.0591063766873 619.570213469022,152.62043195130087 620.4051774707908,155.10043026411043 619.7183521928102,157.50613042468004 617.5501393459353,160.85146480969505 622.1424412729093,159.43050022682812 623.031273946641,156.20338415460918 621.7518936080071,152.20583758537202 618.4255047275568,146.04522401568525 617.9810883906916,144.59367291748566 618.8968554831516,143.00870571143963 621.4725307728579,140.21367726516732 621.4896206880021,140.22818059687208 621.7889283433738,140.48218580088366 630.263610967194,142.8386481011966 634.98412017701,142.54704393067647 640.4828293801029,140.571557335497 641.9964710876382,140.27051500287635 642.971358747613,141.1312967243837 644.7415498315125,143.74165623085196 646.1269167020397,145.0114479857426 651.4973510681203,148.10096643116026 652.7800982476257,149.01786265527977 654.0885002754683,150.23562958624626 655.319937460639,151.70720341444795 667.1383141390935,159.63695271529798 669.78077304313,162.4189703849722 671.7562035090648,166.1731946190511 676.5622292768926,186.09414009001756 676.6135392712273,187.26760759677464 676.3056799005213,188.38469046529852 675.6386513136061,189.52049008407587 674.7321769298031,190.53421175070963 672.6541266240125,192.35973228632588 671.8331683517492,193.27478238038265 671.2687596046705,194.03025626032502 670.3195269418588,195.96809343537043 670.3195269418588,196.01032044233168 670.2425620991855,196.16984372581854 671.5509641270281,200.32643159976223 674.4243175590972,206.2550186643084 676.3056799005213,211.37558818185644 676.89574364477,213.66820626788663 677.1266381727944,215.0277246932311 677.0753281784597,219.28857134877896 677.6653919227084,224.65447939630155 679.5895125431426,232.23015193679828 680.4104706665828,237.9067003186613 680.4617805120944,240.98323398783043 680.3078508267449,243.35239041455952 679.9999916048621,245.34209999384308 679.6408223886446,246.7464940383875 678.7428994225213,248.82951548125646 674.9374163118398,251.32888459555744 656.7053043311661,258.797241965509 645.5625079549624,265.20606056102395 640.5597942227763,267.0581946430543 635.9590079858192,268.04967833684566 600.905805743328,269.4526463022058 597.4936984125301,269.03176507238095 594.2611757642532,268.0262947713146 592.2258837374711,265.3884745009709 590.5326574962478,261.8802533041082 570.1455305159318,203.36127894259343 568.6895293222971,201.51039117438722 569.4993084437236,201.02227222563192 570.0379949979076,200.70462400146994 570.3342724454924,200.5273298438566 570.6978858571503,200.3130976182739Z" name="Dubay" name_en="Dubai" gn_name="Dubayy" admin="United Arab Emirates" adm0_a3="ARE" iso_3166_2="AE-DU" iso_a2="AE" postal="DU" type="Emirate" type_en="Emirate" wikidataid="Q613"/><path d="M785.5062676856205,208.77097327358814 785.2124258447154,212.02836945765878 785.1767017629738,212.0460511655049 783.9452644289814,212.6555453515179 778.8142760086104,211.66628080671546 778.1729025676815,208.78262734590777 777.9676628879987,207.09446060485106 779.9174386544179,204.86213128415739 782.3290031792545,207.82601526658553 784.5353280243987,208.69353282313912 785.4760094183455,208.768559873664 785.5062676856205,208.77097327358814Z" name="Neutral Zone" admin="United Arab Emirates" adm0_a3="ARE" iso_3166_2="AE-X01~" iso_a2="AE" postal="FU" type="Emirate" type_en="Emirate"/><path d="M738.0484398167217,221.2427967821697 737.38321522735,217.3624833981694 741.6317136148266,220.32904968032338 750.6964598340738,228.64175077049885 746.8396668778724,237.4852241293958 745.7621592292364,241.0956108173241 745.9673989089207,243.54902854270662 745.8305725054,244.97694310394664 745.8257843761359,245.0269099888696 743.4872875074573,244.70058446699764 738.4247122943166,240.64595411108746 733.5502732372238,228.16373194415976 727.3759839083235,222.569046942212 726.1958565245674,219.88365949626467 726.726058689684,217.6010587366613 729.6336189393145,216.71982776239565 731.9425635903465,217.28231974766237 734.0804754023308,218.37445083511918 738.0484398167217,221.2427967821697Z" name="Neutral Zone" admin="United Arab Emirates" adm0_a3="ARE" iso_3166_2="AE-X02~" iso_a2="AE" type="Emirate" type_en="Emirate"/><path d="M700.0963627939554,251.67989702763 702.576206856222,257.20630151863884 703.1235123383292,260.71057766198527 698.4885193882902,264.96737085855005 697.4623216920642,271.03774800351306 695.1362737240431,273.558014834051 693.4601508091582,276.0686482951216 693.6824935992037,279.88315157433516 695.7519923086836,287.51488755794384 695.3757198310971,297.30663602401614 695.905921996204,300.05279350465145 696.9663261609466,301.323011772132 700.2843651912141,303.5643989391891 701.5329058429792,305.1612514734192 701.9091783205644,306.67862375677225 701.3276663699326,315.430704349942 700.2672620396978,318.05333517684295 693.8364232867434,329.4829659650742 692.5194696979303,332.640260603228 692.7760189565101,335.3728083085846 694.7600012464566,336.35663140010706 705.1245977797821,338.6318507488159 707.9124348104059,338.7856997376551 717.1824203795102,335.0277606971332 722.1423758561268,337.107292530112 724.75917988223,343.5824639186297 726.7089555381581,351.23002374803025 732.8490382330498,362.25644874467935 731.018985796127,365.1204918833311 720.5517693607754,367.6861834225253 701.2763564189333,375.55375223644273 698.1977633302275,375.17672931128715 693.8877330722697,371.8297962957592 690.9117598855885,372.34653138131 688.1923361229709,373.3706566368522 685.6439451994012,373.4358265044036 680.2564072941918,372.52808410610174 674.7662498179396,372.3930834899867 670.0457404483866,373.2729009474115 665.5304707173615,375.0976003578134 660.6731349772591,377.75991085153044 657.4577156835336,379.523754279148 650.4282616629472,382.194857381633 643.3132910573364,383.5349453521396 642.6462625216872,386.1637102252296 644.1000426465072,389.40621470349095 646.8707763601418,391.92267834229386 652.8740326845118,395.51781338209054 655.5250433446043,399.4657685607402 656.2775882997664,404.64498072062946 656.8077904648927,418.2848285650295 656.1065552952361,420.67271661573113 648.3758661049945,432.08843620522964 646.8707763601418,435.12487001454815 641.4148251869333,457.4124100066225 639.1229838528903,460.8814647106803 632.9486945239915,467.63722134964894 632.9144878899925,467.6557658989998 629.8187914843073,472.2913909300391 627.9716357303747,478.26999208697356 624.5167703295939,496.1503554392674 620.8566651247819,507.11272592710355 605.1045310172108,534.6535950400886 599.956439219054,551.8538794577734 599.3749272684222,557.147328812013 599.3749272684222,557.1658028631242 600.4182281161742,583.2325382221485 598.6394854647666,609.2663903537477 587.6420671952649,623.5578457867396 585.1449860572103,624 562.517327451092,621.0060900623515 539.4962928849058,617.947313683646 516.4752583187085,614.9065806814884 493.47132706952243,611.8654651019342 470.48449913732406,608.8055324197295 447.46346473662044,605.7544302822109 424.45953332195046,602.7121618137164 401.45560223824555,599.655678295713 378.41746435505087,596.5988072133213 355.413533105844,593.5461595195279 332.4096020221405,590.4977365970185 309.3885674559529,587.4443146601016 286.38463620676686,584.3905043048101 263.38070495757944,581.3409195420127 240.35967055685637,578.2909471472957 217.3557391421864,575.2359717280227 194.3518080584815,572.1806069365997 167.7561848724814,568.6493746040082 163.68560072156646,567.3152179984659 160.37611326707642,564.4250592111564 151.49950349254914,553.0595588774102 142.8623396596043,541.9659289562481 134.23372756790982,530.8671211892482 125.59656356947274,519.7631178286823 116.98505496025959,508.66778443543575 108.34789112732444,497.55797211270425 99.72783061138809,486.4336497543502 91.09066694391471,475.3086897102057 82.47060642797973,464.19235410744517 73.83344276052576,453.0614496158908 65.21338207908747,441.91594497745024 56.576218411634855,430.78366915876717 47.93905457868033,419.6367565678892 39.301890911236036,408.49376734914836 30.681830395281676,397.3267956192954 22.044666562345142,386.1590580287817 13.424606211891327,374.99054275380126 4.000690955248592,362.78737167062513 1.5207131342038411,358.5489592880456 0.6313418085090706,353.8625020169958 0.9734076520870095,342.3006287565769 1.0247176030861394,337.6481261380819 0,330.70922776962095 3.5283962762096404,325.61160472949314 3.6900021266241705,317.63233148022067 0.767628203178154,311.1572076751449 4.040148411665435,307.45945508689607 5.467667474087589,310.53238139382825 9.009530876913862,315.69219365717214 9.696355989393897,319.2342896140314 9.696355989393897,329.65160186921486 10.77372893226841,335.9966184197139 13.13048221377687,337.4944888699103 15.487235329794478,334.9245526133659 17.089827534741417,326.75756790379904 18.20760185746998,328.9758707323451 19.850595442280667,334.5867679255195 20.954902803872375,336.4518640555133 21.73599813367824,336.8924155257903 23.244320121309045,337.03926411821476 24.644904930496548,336.67948336339754 25.53373743873602,335.8350775407825 25.735744999989077,334.9686111781984 25.075853975252837,334.5867679255195 28.254103966421216,326.85306234145696 31.351551032372633,324.50966232807065 34.772209964646734,329.65160186921486 35.23009342812992,333.5586968837467 33.53323117135769,345.1144776755049 33.77564011247173,349.2831029379295 35.79571423554864,358.20492188566965 35.984254504691435,360.14143488642156 35.79571423554864,366.2139796736971 36.1458605205899,368.14981444270376 37.6945840535753,371.8157192714813 38.031263046504925,373.5898064113615 39.72812530327853,376.77841934289285 43.67400349762506,377.81187462778325 51.713898610099406,378.0024358059812 53.653169807978735,378.63274210105016 55.13455754237351,379.48289521884084 57.97612854060118,382.2383474135715 59.47098340161397,383.24957394536705 60.736896613632666,383.24957394536705 61.194780077114466,382.45085524766716 60.238611604793505,381.02188541924056 59.91539973848052,379.0651514854775 63.47073026792481,378.5374642387782 72.92467748170522,379.08713813056346 74.06938605767674,378.75733552052293 75.22756192575021,379.08713813056346 77.28803759419141,381.02188541924056 82.41902590984606,383.48405503031506 83.7926764657989,383.4181074897624 90.78213305413394,382.1430847044203 93.70450697757026,382.9271588129001 95.34750056237125,381.94522995569525 97.0039614392922,382.9271588129001 99.5761892431698,381.69607706487943 102.41776024140717,381.53485915294544 105.40746996343273,381.74004547162036 108.39717968545,381.57882786857243 111.1444806318607,380.567527533572 117.44711194221654,376.65381534961875 120.23481426848129,376.2286902793356 125.51394147342607,376.2067007128728 127.70908873903745,375.54700769155437 129.6079583915622,373.9563361843098 131.62803268014102,371.87436900797627 133.83664707236073,370.0561582159142 136.19340018837835,369.2789756975302 138.9272340081627,368.75106299131784 142.1054839993311,367.41656289863425 144.7719818550437,365.6053312471776 145.88975617777086,363.69128269443866 146.81899039685717,361.645053343484 151.85570866068792,359.4886136422798 154.3067318285391,357.53003774962707 156.48841196752278,355.30718060058183 159.38385163772446,353.1428048959011 162.29275843454278,351.4771961287467 164.5417743721074,350.8167890170374 166.34637397281514,349.48857883994333 166.85812610827094,346.4356035267466 166.91199461475134,343.1106237827743 167.36987824371704,340.9597712910493 170.60199690684973,339.124412049029 173.60517375550162,340.18159706248866 176.20433581262358,342.6701927529861 182.15682100343176,350.8167890170374 184.01528927610246,351.52122266148035 184.6886472619728,351.0442647196121 185.22733381614717,350.1196717745026 186.68178713181504,349.47390208988037 190.42565793040075,349.5913160060424 197.1996399963597,351.5579112235325 200.7953720711489,352.0495335217012 202.89624911943307,351.68998991878635 206.45157964887736,349.9875839806673 208.22924499635187,349.47390208988037 210.14158177550152,349.50325558054755 211.56910083792508,349.9362162584847 212.71380957938882,350.46456403182935 213.9123869928072,350.8167890170374 227.99903734793162,352.0495335217012 229.58816242625224,351.7340160406193 235.4598446918615,349.47390208988037 236.24094002165765,348.79875956536216 236.46988183614536,347.8153641141018 236.71229061175885,347.03742422094444 237.7223277560524,347.0080675532213 238.57075888443921,347.5585000397143 239.2037154904389,348.3437610620922 239.66159895393176,349.07762518320465 239.98481082024475,349.47390208988037 244.83298881494238,353.48031434115336 247.8765672089295,354.93301510817156 254.4889432589803,352.0495335217012 257.88266793801836,353.34824601473923 260.9935821305975,355.03572792824605 263.79475158348026,354.40477103608674 261.5188013926713,353.06943263215067 260.87237766004534,351.35245397458203 260.8050418614547,349.3124566743471 260.32022397924464,347.0080675532213 264.10449632317665,346.2007421981596 268.4543893090351,348.16763004763635 272.42720192210993,351.38914298855707 275.10716690444053,354.40477103608674 277.3965843873597,358.13156589639254 278.7433003590921,359.09984594349214 287.90096995978445,359.6426517752874 309.07134728604535,355.30718060058183 310.5258006017035,355.30718060058183 311.98025408286367,356.2829168241845 314.2427371470546,358.8211028193773 315.9800009491745,360.01674008470826 318.3367540651921,360.56685893859867 320.78777739852586,360.40549217707695 322.6866470510492,359.44460247905255 325.689824065185,361.7110636076232 327.4674892471659,362.70852881240086 328.98927852690696,363.1339050714624 329.6761036393856,363.82329103220985 331.80391510640635,367.1012576407751 332.9486238478715,368.15714681965363 334.32227423832245,368.42111154579396 336.2211440563477,368.3991144814518 338.03921078367347,368.0764903637669 340.86731465528453,366.6246249917442 342.56417691205814,367.03526293770557 344.1398346982685,367.82718662961963 345.47308370887504,368.15714681965363 350.57713777129504,365.7153290696087 351.6949120940333,364.92333225325785 353.05509535786484,364.19731108701916 354.64422043619516,364.49798929087154 356.30068114761417,365.17266763962385 357.90327335256245,365.5979980522232 378.0366792812938,365.7299953819279 382.19803199801913,365.2166675924861 384.0026315987186,363.69128269443866 394.1568710516054,358.20492188566965 404.6073881175497,356.4883296703024 407.8933752871614,354.7789451913921 411.3679028913984,354.1186336858076 415.73126316937686,352.0495335217012 420.7814485598339,351.34511620076995 422.51871236195103,350.8167890170374 424.6465238289635,349.4959172114278 427.6631678042348,347.1108159050874 430.3835343319089,344.2557048268981 431.54171019999205,341.5323730449711 433.1847039502839,340.1962798040874 444.0661700609956,337.03926411821476 452.8602262500398,330.5990608060073 454.35508111104286,330.3346576228324 455.68833012165084,328.0944518206986 458.82617856746464,328.2560479627029 465.5462919614496,330.99565962542306 466.79873804685025,328.96118073685636 472.9397635067985,324.21580202259076 476.0372105727499,319.8809194515636 482.5957179508475,306.84187871744615 481.6664838972534,302.3124694511667 482.1917031593258,300.1945116148649 484.8582010150398,298.82655819812715 483.3229446086724,297.79686096462257 482.5957179508475,297.5909158734555 482.5957179508475,296.24487136401996 485.1679457547265,296.487606566686 489.23502841962517,298.3705551611386 491.6456502076154,298.82655819812715 490.59521168346777,296.55380665558306 487.7671078118581,293.4569058201968 487.2014870044297,291.3013292970772 489.66597746438146,292.44903395842783 492.3055410668594,293.2435644388159 494.67576147498585,294.302894868047 496.25141926119625,296.24487136401996 497.28839065872586,296.24487136401996 496.77663852327004,291.47790297011613 493.6657243306923,289.97698187015936 489.28889709158807,289.7562497520749 484.8582010150398,288.83650919474854 475.1618450256459,282.33103011517534 471.2967697565052,281.41834622745677 471.2967697565052,280.3068826758362 473.2899096263475,279.7327276872561 475.32345104154297,278.3856140786476 477.0203132983166,276.4273702792238 477.30312361927497,277.5758348341355 477.8687444267034,279.0775842137024 479.20199343730167,280.3068826758362 478.75757710043507,278.4518674693931 479.3231977423616,276.82492237408906 481.46447650149395,274.01245849527743 482.5957179508475,274.01245849527743 483.90203254271745,279.00397139485426 487.1072169526044,283.89133923662547 491.1742996175045,286.9380457442419 495.1201778118524,286.3640601586519 494.1101406675588,285.82685515488896 491.6456502076154,283.7883033778369 493.54451986013873,283.8839795610107 497.099850389583,285.0320627163664 498.51390232538853,285.12773378638263 499.0660560061892,284.4948260638729 500.4935750686225,281.9850978307853 501.3420061970093,281.41834622745677 507.55036745553844,268.96091794314225 504.8030666746186,267.7825522057741 503.537153462611,266.1695636454611 504.15664294199263,264.733243244446 506.9847466481197,264.1292244687414 508.70854332362023,263.03163667818023 509.19336104034915,260.55634153932095 510.1495295126618,257.9923542029439 513.2065751987606,256.59972052049034 513.2065751987606,255.47228686232637 511.7655888442267,254.41849022941113 511.07876373174673,252.56132906908863 510.59394584952696,250.27651412932138 509.8263176463488,247.94723611689116 510.7151503200888,246.635067284485 509.51657290666213,245.8683711271144 508.2237254414102,244.54870751295186 508.6950761970036,241.63632393714252 510.216865311251,239.9477043768928 516.6945699296225,235.56701998073123 517.5025995126643,234.35001019039024 518.29716196908,232.6460845709378 519.239863314783,231.62809255724292 524.3304502505849,233.98120604532932 524.5997934449266,234.2172414316299 527.0373496516438,233.70828730192193 529.421037020896,232.070703413247 530.2560010226648,229.6583671345941 528.0069852505827,226.79568347199012 546.0125795467997,216.2566458167084 554.1063433312453,210.40930456291358 559.1295944684676,205.77167799811775 562.4425160568062,203.5559081060559 566.5365331404249,202.2189527788354 566.8866792599836,202.10076511470297 567.6139059178169,201.8643875268559 568.2737967770609,201.6501682669983 568.6895293222971,201.51039117438722 570.1455305159318,203.36127894259343 590.5326574962478,261.8802533041082 592.2258837374711,265.3884745009709 594.2611757642532,268.0262947713146 597.4936984125301,269.03176507238095 600.905805743328,269.4526463022058 635.9590079858192,268.04967833684566 640.5597942227763,267.0581946430543 645.5625079549624,265.20606056102395 656.7053043311661,258.797241965509 674.9374163118398,251.32888459555744 678.7428994225213,248.82951548125646 691.6558868826245,252.11514515635136 698.4116882680568,252.0870648406988 700.0963627939554,251.67989702763Z" name="Abu Dhabi" name_en="Abu Dhabi Emirate" gn_name="Abu Zaby" admin="United Arab Emirates" adm0_a3="ARE" iso_3166_2="AE-AZ" iso_a2="AE" postal="AZ" type="Emirate" type_en="Emirate" wikidataid="Q187712"/><path d="M345.47308370887504,348.3510998022632 342.57764403867475,347.9768199571544 340.70570863938605,347.30163324931743 340.6383728407968,345.907162311662 343.2106006446841,343.3234957431254 345.0825360439728,342.1783679747511 345.324944819596,342.0315525639737 345.324944819596,342.01687100688 349.3920274844864,340.51195717746185 351.1292912866035,339.630985966632 354.28060702453723,336.8189908737719 355.209841078123,336.20955698027893 356.36801694620476,335.4532490305928 357.0817764774214,335.2256172588804 359.0345149673999,334.5867679255195 360.58323850038533,334.6308271454477 363.0073274149922,335.6661926831177 363.37094082665004,335.7469638664536 364.2193719550369,335.93053362069304 365.35061340438205,335.4532490305928 369.30995889083886,332.22947875218216 373.8753263990762,330.2979348151711 375.69339312640193,329.2329446554926 377.1074450622075,327.30114564513315 377.99627773594887,329.5340849581068 377.79427034018806,330.0629067171023 377.1074450622075,330.99565962542306 378.8043073189797,333.7716582958451 379.5719355221592,334.5867679255195 383.80062420295775,337.2448505898012 384.4201135168555,337.6266491811806 390.0897883867039,338.7940315965025 391.3018329267486,339.2859295541685 394.7224918590227,340.66612379354325 396.4193541157963,345.789729225154 394.1299366328771,349.91420156224694 389.0662841157923,351.6973275816027 383.1407331782298,351.45518292065844 378.2386866770546,349.47390208988037 378.5888327966022,347.8006862862328 377.3094524579669,345.49614403970594 375.3297798802363,344.91630215935794 373.6059832047358,348.3510998022632 374.84496199801515,349.47390208988037 370.34693028835875,352.3943965854989 364.9465986128701,353.4509657900918 359.4519968855479,352.84197695215147 354.5095488390153,350.8167890170374 351.65451054867873,349.2170567123805 351.6275762954427,349.2097182510988 349.984582710632,348.6519868357286 345.47308370887504,348.3510998022632Z" name="Abu Dhabi" name_en="Abu Dhabi Emirate" gn_name="Abu Zaby" admin="United Arab Emirates" adm0_a3="ARE" iso_3166_2="AE-AZ" iso_a2="AE" postal="AZ" type="Emirate" type_en="Emirate" wikidataid="Q187712"/><path d="M433.804193264183,335.93053362069304 432.16119967937374,332.7141750524315 428.60586914992945,331.13520204996837 424.4310491411035,329.94539193585916 420.86225148504116,327.91081869826303 419.0441847577154,323.216648412878 419.0441847577154,323.2019546859618 421.30666782190633,319.4547336662552 424.9023998966969,317.94097435445985 425.7508310250837,318.69786666181335 427.12448141554296,319.91031120430586 431.33970280423125,324.57578038987265 433.40017847266273,326.8604080230004 435.1509094013979,331.2600551091544 435.1374422747813,331.26739936413196 433.804193264183,335.93053362069304Z" name="Abu Dhabi" name_en="Abu Dhabi Emirate" gn_name="Abu Zaby" admin="United Arab Emirates" adm0_a3="ARE" iso_3166_2="AE-AZ" iso_a2="AE" postal="AZ" type="Emirate" type_en="Emirate" wikidataid="Q187712"/><path d="M166.3329068461985,314.86170521191497 168.4337838944924,311.8702235763607 172.39312921544723,309.5693801605531 176.25993313542472,310.7683699216884 178.06595904682305,313.63714404537706 178.97283068677896,318.3005839830107 178.62842489271438,321.07860555423105 175.05962723665206,325.7585263124089 171.98911442393668,328.52782032742493 169.2587964873121,331.2151857929064 167.09270333108452,328.888244714244 165.28469375727911,325.84315290126534 163.29309322402355,321.5425603110129 163.646408702256,317.95496986822195 166.3329068461985,314.86170521191497Z" name="Abu Dhabi" name_en="Abu Dhabi Emirate" gn_name="Abu Zaby" admin="United Arab Emirates" adm0_a3="ARE" iso_3166_2="AE-AZ" iso_a2="AE" postal="AZ" type="Emirate" type_en="Emirate" wikidataid="Q187712"/><path d="M290.162566854613,329.5324143692036 287.8304408072808,326.65632969841016 285.4868334470233,326.46787865537937 282.42597384022423,324.84314555071705 280.79337218402486,327.5252960820132 274.4816339320057,326.60680534024164 272.13772869969995,326.24063137831075 268.6429295781779,326.9485561964924 268.0503745175135,327.15423405603167 267.61942530726634,327.1395428808822 267.2154105157447,326.18459355561004 267.29621344095335,325.14144915795583 267.8079655764091,323.83377796595823 268.4005206370722,322.7317491300195 268.9122727725183,322.2615339973703 275.10716690444053,323.5986830521995 276.7770949079684,323.194607818929 281.03271784201127,321.3063791372848 281.8811489703981,320.5275308259013 282.7699816441298,319.8809194515636 288.2242283272427,317.69620939848244 291.29570988607776,316.2748948350034 292.73881361447127,316.28118574033925 294.350282241201,319.1561214948071 295.9694422553853,320.0592539930798 297.4357200987735,319.3224674563371 297.79933334493916,317.35307947020567 297.59732594917836,315.41291788540525 296.5872889703867,313.62694006586486 302.79565022891586,304.4743464213135 305.71802415236186,302.4154205841713 305.8661628761501,303.4596135530468 306.6068568260936,305.24639496408895 306.8492656017071,306.2242854590976 310.6874066176103,308.3563811586579 310.72780799746437,308.37843621142065 309.63696792797185,315.34677306646535 307.51741148853233,317.6034220467816 301.0151529456209,320.6197971472403 297.942627676203,322.57696810584355 293.9742884394782,323.0974442401696 291.6238075160489,324.87984288711766 291.6159377363252,326.85076656725863 290.162566854613,329.5324143692036Z" name="Abu Dhabi" name_en="Abu Dhabi Emirate" gn_name="Abu Zaby" admin="United Arab Emirates" adm0_a3="ARE" iso_3166_2="AE-AZ" iso_a2="AE" postal="AZ" type="Emirate" type_en="Emirate" wikidataid="Q187712"/><path d="M465.5462919614496,297.5909158734555 457.6410684461468,295.11942814981825 457.6410684461468,292.265110968271 464.34771471351513,286.0034719816841 466.6775335762967,282.5518351366708 467.8087750256419,282.55919524859075 466.6775335762967,286.3640601586519 467.87611082423115,289.6458829714758 470.7984849131597,291.970830733292 476.93951037310933,295.11942814981825 479.96962147498755,298.1425502740171 480.1042930721674,300.2092203035239 477.81487575473216,300.9740608830115 473.4649827688723,300.1724485639048 465.5462919614496,297.5909158734555Z" name="Abu Dhabi" name_en="Abu Dhabi Emirate" gn_name="Abu Zaby" admin="United Arab Emirates" adm0_a3="ARE" iso_3166_2="AE-AZ" iso_a2="AE" postal="AZ" type="Emirate" type_en="Emirate" wikidataid="Q187712"/><path d="M446.3151859985699,323.78969777639037 444.82033113755716,325.00921632166774 443.2446731858449,325.83198674686275 441.8306212500393,326.1919394536942 440.0125545227136,326.1552099395282 439.0025175439219,325.59691255494135 436.1744136723109,322.2688811669331 434.0735364585234,320.79204839763196 432.5382802176579,320.08666146147675 431.932257864886,318.92566419081476 432.7806889932728,316.1037519545914 433.9927335333175,314.45747402436723 435.95893914992234,313.0903843485716 438.3156922659496,312.32595402834363 440.69937980069415,312.3994580563548 442.1538331163523,315.4349660552109 443.7968268666456,317.9997630392398 447.48682899326974,322.2688811669331 446.3151859985699,323.78969777639037Z" name="Abu Dhabi" name_en="Abu Dhabi Emirate" gn_name="Abu Zaby" admin="United Arab Emirates" adm0_a3="ARE" iso_3166_2="AE-AZ" iso_a2="AE" postal="AZ" type="Emirate" type_en="Emirate" wikidataid="Q187712"/><path d="M456.15968071175206,309.6061365964418 457.7218713713541,311.23806625485093 457.8565429685256,313.70778981384973 456.0923449131711,318.95505736411 453.35851125886927,320.2924016023102 448.8335451304846,312.41415879714845 448.41606304685547,311.1572076751449 449.5877060415539,310.958735290981 451.4192400609899,311.44388687111075 453.02183226593826,312.4582611428353 453.7625260503895,312.8110762696959 453.97800057276834,311.98783234935274 453.5201171092838,311.0248929460063 451.0825610680589,309.2091630212724 450.55734164049426,307.5329749455341 452.685153107515,307.2756543029696 456.15968071175206,309.6061365964418Z" name="Abu Dhabi" name_en="Abu Dhabi Emirate" gn_name="Abu Zaby" admin="United Arab Emirates" adm0_a3="ARE" iso_3166_2="AE-AZ" iso_a2="AE" postal="AZ" type="Emirate" type_en="Emirate" wikidataid="Q187712"/><path d="M122.5242317514005,279.51189495037886 126.30075429185493,282.059302688652 127.40515266991623,286.3752102197664 125.25141028203429,290.1557692428401 123.26625619651989,291.0590164433181 120.85430374787262,289.74889199559703 119.9924054928678,288.64519838166626 119.18437574433504,288.17427277623847 118.13393722019711,287.1955986912761 117.98894336337635,284.774540510713 119.42699402330753,282.7918952762185 120.68360154680099,280.629648598878 122.5242317514005,279.51189495037886Z" name="Abu Dhabi" name_en="Abu Dhabi Emirate" gn_name="Abu Zaby" admin="United Arab Emirates" adm0_a3="ARE" iso_3166_2="AE-AZ" iso_a2="AE" postal="AZ" type="Emirate" type_en="Emirate" wikidataid="Q187712"/><path d="M72.04931193459153,331.31146502461553 74.0155173857152,330.4595150854212 75.46997086687394,332.5966738143995 75.36223352293977,333.2796409638446 75.05248878323373,333.837749375006 75.36223352293977,334.5720815600576 74.23099207359458,337.156742381231 72.57453119667365,338.88947525122705 72.00891038926461,338.36085894130275 70.90460319312638,337.8836252042867 70.32551525910903,337.3843546300844 71.03927479030627,336.0994166941708 71.03927479030627,334.17554520072343 72.04931193459153,331.31146502461553Z" name="Abu Dhabi" name_en="Abu Dhabi Emirate" gn_name="Abu Zaby" admin="United Arab Emirates" adm0_a3="ARE" iso_3166_2="AE-AZ" iso_a2="AE" postal="AZ" type="Emirate" type_en="Emirate" wikidataid="Q187712"/><path d="M25.614540529454903,267.22280677765286 27.47300863660566,268.6589676939383 28.159833914605624,270.242320250095 27.85008917490096,271.36164626646683 27.769286249693693,271.89183371323537 27.068993845113095,273.467595011401 26.62457750823824,274.85917973616927 25.776146379861128,274.18180540915205 25.587606110718323,271.7151060179297 26.005088194329453,270.603161687837 25.385598714957503,270.9124496730533 25.304795789750237,270.2865052982851 25.291328663132223,269.5500774798633 25.15665706595234,269.77837261776006 24.914248124836924,269.7857369208062 24.67183918372289,269.7341867486283 24.73917498234121,270.0434867266698 24.55063471319841,270.0803079630612 24.725707855723194,270.7725341739306 23.742605130148206,269.9035658023558 23.55406486100402,268.1728927886489 24.873846579493403,267.1638853639029 25.614540529454903,267.22280677765286Z" name="Abu Dhabi" name_en="Abu Dhabi Emirate" gn_name="Abu Zaby" admin="United Arab Emirates" adm0_a3="ARE" iso_3166_2="AE-AZ" iso_a2="AE" postal="AZ" type="Emirate" type_en="Emirate" wikidataid="Q187712"/><path d="M246.81266155816525,215.370784313474 249.88317420539946,215.82848380918387 250.5026636847991,218.93616163693937 249.88317420539946,222.6338045361383 248.81926855464351,221.63011413863998 248.5768596135281,220.77398937536378 247.20320922306885,219.04687854141017 246.3817123479264,216.68479955191444 246.81266155816525,215.370784313474Z" name="Abu Dhabi" name_en="Abu Dhabi Emirate" gn_name="Abu Zaby" admin="United Arab Emirates" adm0_a3="ARE" iso_3166_2="AE-AZ" iso_a2="AE" postal="AZ" type="Emirate" type_en="Emirate" wikidataid="Q187712"/><path d="M437.1709835244859,150.71027128977937 440.483905278307,151.7912353607701 441.92489146737483,158.12786844013397 439.79708000033474,157.1138343834489 437.696202786568,157.1138343834489 434.98930355097366,153.87897364039657 437.1709835244859,150.71027128977937Z" name="Abu Dhabi" name_en="Abu Dhabi Emirate" gn_name="Abu Zaby" admin="United Arab Emirates" adm0_a3="ARE" iso_3166_2="AE-AZ" iso_a2="AE" postal="AZ" type="Emirate" type_en="Emirate" wikidataid="Q187712"/><path d="M652.9712905501501,102.64901231998776 653.8172041715949,100.37871630208079 654.5444308294282,97.29127880223578 656.3624975567457,93.68376224534029 658.9077911073969,90.72901029087855 661.7358948135158,89.62273023589425 660.3218428777102,92.6073290269393 658.5037761503858,95.05706490450933 657.4533376262478,97.30612326797392 658.4364403518049,99.68853423801269 661.0086681556921,100.73493075773179 664.25425394544,100.1709218140822 667.8634531468473,99.05770328218964 671.3649150043301,98.44169762403828 672.4018864018486,97.00923128813952 674.9741142057359,89.8974493673701 676.4285676868863,87.23920978397362 680.8188620526182,82.53079776299447 683.4718929471953,80.48818584747627 689.1685020702784,78.2819476695037 691.1686112432382,75.45169536734825 691.185546111243,75.46825783293518 691.3736825090887,75.6522549168546 695.3844051506395,79.34130429040336 696.6671520324973,79.53941961076929 698.3090684282091,79.97337993003424 699.5405057622029,80.61015368616988 700.438428579503,82.03928863813009 704.8852852799462,96.76377262503316 705.5779687152084,100.5905902692273 705.834518091581,103.47910697051711 705.7575532488966,105.24595405077216 705.834518091581,105.86313851721779 706.3219618471521,107.6392132295911 707.4764343384697,109.89560724642214 713.6934818251634,116.63983722863463 714.7709894738077,118.30673313522784 714.6940246311343,120.12416319953685 713.8730665076845,121.53186064807737 713.2316930667556,122.93005207354346 713.4369324487922,124.44112731649885 717.7982727400495,128.51250571214973 721.3129996130459,132.83721723417918 718.2857164956191,132.77604667797755 717.7982727400495,133.18541560332443 717.5417232148536,133.82533310765268 718.3370264899538,136.11664890349434 718.7218504056882,137.65503580528463 718.9270900853711,139.2591709882082 718.7731604000229,140.63740963865789 718.2600614984559,141.67220739162536 717.3621386811558,142.39183367354832 716.1307013471634,142.90919701510495 713.7191368223266,143.64289142053792 711.8377743320793,144.61170677120157 710.5806822985617,145.10550363069729 708.3230474590828,145.59928949033096 705.9627926309429,145.6839373927495 703.8761909074724,145.55226286344794 702.3112393544243,144.9409058634497 701.2080768574414,144.0379474904284 699.8996748295973,142.1049266668595 698.2064485883725,138.21955432396956 697.1289410885528,133.48185028408034 695.8205390607087,131.3267244553602 693.7339370395906,128.9501924292465 686.0631094061979,122.12504381926387 682.9503098796044,119.94054360299049 671.2944146018338,115.19885800141975 669.267674141563,113.85197388114263 664.3077188372017,109.58942977201633 653.4727816828891,102.87598995312108 652.9938894938114,102.65924082628969 652.9712905501501,102.64901231998776Z" name="Umm Al Qaywayn" name_en="Umm al-Quwain" gn_name="Umm al Qaywayn" admin="United Arab Emirates" adm0_a3="ARE" iso_3166_2="AE-UQ" iso_a2="AE" postal="UQ" type="Emirate" type_en="Emirate" wikidataid="Q175021"/><path d="M637.9673332893641,124.29089938014693 640.3635102569973,120.9627575227725 641.3870143624166,120.9627575227725 642.1142411857325,123.17947745740432 643.0704096580548,123.31291809947092 644.0400452569937,121.948818001833 644.7807390414464,119.71714362440498 645.9119804907999,120.9627575227725 648.1609964283646,114.19257790142173 649.1555146501543,112.3294202121471 649.1713029524695,112.34016173673957 649.3166810713161,112.43906868193021 651.266456540089,113.79545947855965 653.9089157417718,114.35588791627974 655.5764868370103,115.15647480207724 658.0735677710232,116.78110453272956 659.946378694769,117.52509714956146 669.909047731315,119.32375940416043 671.6279289697015,120.01116688482072 672.3462672533149,120.89628945178008 670.1655972565108,126.98759322337781 668.6263007006341,129.64200190653833 667.7027227373393,130.41379042813938 666.591008525029,130.64908646167365 652.6005137139291,129.8914242416165 646.8196001373032,128.61133892357603 641.8168864051185,126.81815185234525 638.0627132887633,124.33756786658614 637.9857484460886,124.29990962850236 637.9673332893641,124.29089938014693Z" name="Ajman" name_en="Ajman Emirate" gn_name="`Ajman" admin="United Arab Emirates" adm0_a3="ARE" iso_3166_2="AE-AJ" iso_a2="AE" postal="AJ" type="Emirate" type_en="Emirate" wikidataid="Q159477"/><path d="M730.4034008294453,135.7214493804505 732.7208970809484,136.83645813569177 733.233995982514,137.1469567591902 733.6701300413979,137.5280171125527 734.0036442604522,138.03608728119318 734.2345386396521,138.67115855380476 734.3628134766615,139.37206745978972 733.6444750442348,141.26299791769142 729.4541678689874,144.77160397130345 727.376117563205,140.31755317181432 727.4787374030526,139.2591709882082 727.7352867794225,138.01727025446613 728.4792802090125,137.1751837470897 729.0949988016026,136.62475212030097 730.4034008294453,135.7214493804505Z" name="Ajman" name_en="Ajman Emirate" gn_name="`Ajman" admin="United Arab Emirates" adm0_a3="ARE" iso_3166_2="AE-AJ" iso_a2="AE" postal="AJ" type="Emirate" type_en="Emirate" wikidataid="Q159477"/></svg>