<?xml version="1.0"?><svg fill="#3498db" stroke="#ecf0f1" stroke-width="1" width="800" height="976" viewBox="0 0 800 976" xmlns="http://www.w3.org/2000/svg"><path d="M731.0860454964476,843.6319670319424 721.9517182861834,848.0563677142358 721.5213048944937,859.141845286807 727.068854232067,889.2140564963328 718.269293254316,903.7765168020251 698.9963413115304,894.5321963545761 679.9146836871864,877.2353578115609 671.5933596807971,867.989953308896 663.6546254865043,869.9782441673984 639.599302605882,881.7088048103585 631.5149071791691,861.9713805382751 635.1129172203687,848.2582309037426 626.7175604575795,832.0507068213276 636.3122539007587,822.0762673674237 662.6976587554346,814.5951473219238 674.6910245023925,817.0888815953307 704.674439398268,817.0888815953307 722.6644874902039,812.1013854520194 731.0860454964476,843.6319670319424Z" name="Saint Paul" name_en="Saint Paul Parish" gn_name="Parish of Saint Paul" admin="Antigua and Barbuda" adm0_a3="ATG" iso_3166_2="AG-06" iso_a2="AG" type="Parish" type_en="Parish" wikidataid="Q386093"/><path d="M744.4766818224404,776.9074361361729 759.9715616208589,776.4598877943833 775.896853588969,767.807104803252 784.6485909871365,767.807104803252 790.6743784713631,773.824304610785 794.691568560452,779.8910714713339 800.0000000000001,793.6152842255996 792.0134410508124,793.018597042945 775.8490300093658,794.2119698267588 767.8624722354897,793.6152842255996 778.766276592273,807.2392176619063 788.8570777452505,813.752559662194 794.5959214012065,820.3154312770156 791.965617471229,834.5840453552117 778.7184518373881,855.7615779875547 765.4234637992457,856.6563597301152 750.215525525152,848.9014684339107 731.0860454964476,843.6319670319424 722.6644874902039,812.1013854520194 728.6611708921836,788.4092727790719 744.4766818224404,776.9074361361729Z" name="Saint Philip" name_en="Saint Philip Parish" gn_name="Parish of Saint Philip" admin="Antigua and Barbuda" adm0_a3="ATG" iso_3166_2="AG-08" iso_a2="AG" type="Parish" type_en="Parish" wikidataid="Q1996895"/><path d="M695.6008574388612,751.1470727564492 696.7486271936494,740.3049555135987 699.9049916745915,733.1429030796915 711.0000903498069,717.7238205730303 717.695409123827,728.1691216363657 726.8297351587304,734.2371211862514 738.307423646052,736.2265932120092 751.7937083532296,734.4360686932213 746.054863521913,740.9017825996789 742.7550283022207,745.4774070888245 737.781363095107,748.7598626801235 727.068854232067,751.1470728758703 732.4251092512673,768.6525066167643 744.4766818224404,776.9074361361729 728.6611708921836,788.4092727790719 722.6644874902039,812.1013854520194 704.674439398268,817.0888815953307 674.6910245023925,817.0888815953307 674.6910245023925,803.3730026282465 683.0863802081998,785.9152209154711 696.279082635528,780.9270353624564 695.0797459551576,768.4560848269533 689.0830636101696,758.4788275152729 695.6008574388612,751.1470727564492Z" name="Saint Peter" name_en="Saint Peter Parish" gn_name="Parish of Saint Peter" admin="Antigua and Barbuda" adm0_a3="ATG" iso_3166_2="AG-07" iso_a2="AG" type="Parish" type_en="Parish" wikidataid="Q1952603"/><path d="M652.1769369214729,689.0713549450943 667.0979314450549,710.8097580377013 676.0887879164706,736.027646069298 695.6008574388612,751.1470727564492 689.0830636101696,758.4788275152729 695.0797459551576,768.4560848269533 696.279082635528,780.9270353624564 683.0863802081998,785.9152209154711 674.6910245023925,803.3730026282465 666.2956677396523,799.632163119504 649.5049563280868,788.4092727790719 651.9036286319342,774.6916465242429 648.3056196477164,748.501127288587 638.7109262045373,739.7702751082624 637.5115905811488,714.8231143306265 654.3023019926945,713.5756833728022 652.1769369214729,689.0713549450943Z" name="Saint George" name_en="Saint George Parish" gn_name="Parish of Saint George" admin="Antigua and Barbuda" adm0_a3="ATG" iso_3166_2="AG-03" iso_a2="AG" type="Parish" type_en="Parish" wikidataid="Q1770796"/><path d="M566.5725097279271,784.5156282387484 558.1555385622727,781.2336946364585 533.71762709403,767.807104803252 546.677850074951,755.6230231757293 567.5289836705816,746.671033408863 594.5971990688017,738.6139366188715 585.0802832217329,722.4491361010585 587.0410546866841,707.9744347662576 597.7535635497242,695.2896491216075 614.6831542154522,684.3950838697714 652.1769369214729,689.0713549450943 654.3023019926945,713.5756833728022 637.5115905811488,714.8231143306265 638.7109262045373,739.7702751082624 648.3056196477164,748.501127288587 651.9036286319342,774.6916465242429 649.5049563280868,788.4092727790719 666.2956677396523,799.632163119504 674.6910245023925,803.3730026282465 674.6910245023925,817.0888815953307 662.6976587554346,814.5951473219238 636.3122539007587,822.0762673674237 626.7175604575795,832.0507068213276 620.7208781126013,818.3357383844573 602.7308289637327,838.2845070465985 607.5281756852535,807.1137800061015 613.5248580302513,793.3972936005977 612.3255213498612,789.6562883469641 591.936799897165,784.668184618779 581.1427708305775,774.6916465242429 566.5725097279271,784.5156282387484Z" name="Saint John" name_en="Saint John Parish" gn_name="Parish of Saint John" admin="Antigua and Barbuda" adm0_a3="ATG" iso_3166_2="AG-04" iso_a2="AG" type="Parish" type_en="Parish" wikidataid="Q548816"/><path d="M639.599302605882,881.7088048103585 623.3870680340266,884.5916471087163 598.9013329861219,884.7407582094149 583.5977475528318,881.3111694599158 546.0561423648295,858.5453314926165 538.1652317501889,847.4101127343619 546.1039659444031,830.7559692847091 551.2689254698896,816.7854250259647 547.0604398871164,804.8526026173911 547.4908532788259,794.3611406744916 566.5725097279271,784.5156282387484 581.1427708305775,774.6916465242429 591.936799897165,784.668184618779 612.3255213498612,789.6562883469641 613.5248580302513,793.3972936005977 607.5281756852535,807.1137800061015 602.7308289637327,838.2845070465985 620.7208781126013,818.3357383844573 626.7175604575795,832.0507068213276 635.1129172203687,848.2582309037426 631.5149071791691,861.9713805382751 639.599302605882,881.7088048103585Z" name="Saint Mary" name_en="Saint Mary Parish" gn_name="Parish of Saint Mary" admin="Antigua and Barbuda" adm0_a3="ATG" iso_3166_2="AG-05" iso_a2="AG" type="Parish" type_en="Parish" wikidataid="Q1999872"/><path d="M598.6143903331921,164.71642809685116 583.5021003936553,172.99386504283723 577.0459006929422,155.34160491715448 574.6068922567081,105.31912444924679 569.2506372374978,82.82272732518153 562.4118477246981,64.01575373530578 557.5816544317444,44.80801670073211 558.5381283744578,20.908230814084213 562.8422611164665,24.949923468890272 564.6595618425594,28.94164628313862 566.5725097279271,38.421692640958874 573.7460654732499,53.28956449574121 592.3973097058844,75.68923852389342 598.6143903331921,88.60916192457351 598.2796241006691,105.76803123296158 593.6407251261571,120.28218347885135 593.6407251261571,131.80304153312395 607.4139513109529,139.58301645570626 613.2484433014461,116.74101923822762 614.9700968683624,85.51643201210375 607.7008939638728,57.87943987417838 586.5628177153225,46.05532307797036 578.0501982152587,32.63392302436018 583.6455723077365,9.082103856679003 599.9534540880119,0 623.3870680340266,30.039356628004402 615.4961574193171,34.7295129273316 607.4139513109529,38.421692640958874 622.9566546422582,43.95984349566862 647.5858616042442,35.42803759073642 662.8416222826295,38.421692640958874 681.7798079928922,52.790659140422235 698.1355145280722,72.2471222342303 711.0479139294,93.59734516058406 719.7040041683124,113.7484411908386 728.120975333957,150.4545683133912 729.2687447703448,170.700148802201 727.068854232067,189.84695386714296 719.1301200377742,212.88073554676723 711.0479139294,217.06843613377245 698.9485177319372,215.9716643513279 678.8625625852965,223.2501333526201 671.4498889419486,201.36414735356948 650.5509305914234,185.80831332921434 598.6143903331921,164.71642809685116Z" name="Barbuda" name_en="Barbuda" gn_name="Barbuda" admin="Antigua and Barbuda" adm0_a3="ATG" iso_3166_2="AG-10" iso_a2="AG" type="Dependency" type_en="Dependency" wikidataid="Q238752"/><path d="M3.139453242541243,964.9665839451393 4.296093910836596,963.421553358606 6.113672103880579,962.8207052895007 6.278906485072653,965.9107641251032 6.113672103880579,969.9449442835584 4.46132829202867,973.0349061254019 1.4044922400932969,973.7215586006836 0,971.6615949439831 1.156640668305186,967.1124423092318 3.139453242541243,964.9665839451393Z" name="Redonda" name_en="Redonda" gn_name="Redonda" admin="Antigua and Barbuda" adm0_a3="ATG" iso_3166_2="AG-11" iso_a2="AG" type="Dependency" type_en="Dependency" wikidataid="Q457261"/></svg>