<?xml version="1.0"?><svg fill="#3498db" stroke="#ecf0f1" stroke-width="1" width="800" height="1808" viewBox="0 0 800 1808" xmlns="http://www.w3.org/2000/svg"><path d="M573.6342854989731,760.2327222857142 574.1428607465302,761.5950856854143 574.0492758055997,769.7353094447785 570.8673918878433,779.7684256766202 566.5624900368804,787.9669415447564 560.6666464534003,795.4186356604586 554.1625021119562,799.3922875221493 547.6583573177714,797.3434242790436 546.0438266747145,809.1243148812752 545.9040069578242,808.9216722254703 535.7968471938483,794.2704115554005 533.3402453053009,788.1537364474772 532.1470387435153,780.2037246194701 532.0066620278639,774.271208912541 533.0594910596743,769.0212631499414 528.8481741181126,769.751327562823 522.4376139572263,771.8482450080558 516.6821478504654,770.6367071197832 511.20743558214195,768.8037943492121 508.4700798551288,769.0989303219174 506.7153643949518,770.1241209058792 505.38178111751654,771.5220653899277 503.69725442233846,771.9103741224748 501.6617843093701,769.2076643177745 499.69650336856535,768.8193279912701 497.21650549647785,769.922192028547 492.79462266712756,775.6534725417993 489.9168898173001,778.0606689057093 486.61802478473464,779.2409166273504 482.9682171487537,779.986318486023 476.44067584862165,779.7689111346273 471.4338877301487,777.6879518116068 467.2927599607241,777.1288689172858 463.15163137700233,777.470531583172 459.4316353831795,778.9303287441599 456.13277035061407,780.980164458797 449.39466316269346,786.3837579344251 447.96749513671347,788.2468912031869 446.2829684415354,789.4578805232377 444.6686301041461,790.2651853890371 441.7908968471843,790.9948502591005 440.1765589169824,791.6624034722132 438.9833523551968,792.3765184124468 436.31618539318634,795.419121064191 402.0407449787595,783.3715026243829 395.84075111282453,778.6507972536288 378.6445407431624,760.1351209831234 365.9170055770973,760.2283430334597 363.4604036885499,763.7550716834668 358.6173894907568,768.4620553537425 355.52909075316734,768.9591294085154 352.7215458540189,767.4212866487065 348.7909835652467,760.9585729627374 345.53891090695265,757.4005130358055 337.8883522171721,752.7698864485309 329.60609586402575,745.6830237728174 328.13213505663623,743.1805545799469 327.3600602704297,740.8644607404887 326.8687397298763,738.7814127263813 324.2717611256774,735.128035562516 323.5698751044717,733.371182107508 323.0551585803517,730.8212717164188 321.93214078354043,726.8405881513191 312.4566778686085,712.5938521640126 303.6831013820697,702.8856501277207 298.348766236534,698.4041196891534 294.5351850870093,696.1320350828629 289.34122787863805,695.9141568066719 271.48992386201695,681.7805810091736 255.4167312891377,661.6609030354953 251.76692324596937,646.4240270725583 252.1178662565722,642.0917939556653 250.64390544915807,637.5096947204671 248.46805862056473,634.1429085104214 241.70655544907558,626.53538382558 240.7941031329204,624.0096037756912 241.42580120347355,621.8578827569357 242.75938448088604,620.2674032370492 244.51409994106308,612.7195302720662 243.25070461430317,587.1331085581625 245.14579719729636,577.0186721407675 246.68994676968293,577.455770752373 250.36315120355795,579.3133837562721 255.55710841192735,582.9815159661739 265.45370310246295,585.4787679136135 271.91105563759413,584.6047481539176 280.0061420865204,582.0450048594242 287.095191877883,578.3299525664955 288.4989643274572,579.2353345178282 291.23632046160475,584.5579247294464 293.06122468678257,586.4151956367274 296.1495234243721,588.475257574189 305.3676280772459,591.3778842154575 308.2453609270468,590.4103666342191 309.78951090659615,587.975858707457 309.92988762224957,585.6972698943383 310.35101939782675,584.1052991645367 311.8249802052409,582.7786071383742 317.3698808313759,578.6577661123428 320.31780244617767,577.986526302203 325.0438363190202,578.048967619294 340.7660854741604,580.9211610729307 344.83702488574505,579.7036270353069 347.8083428912516,577.1123367013553 349.5396619606992,573.9276204962971 351.3879621694191,566.6048988093585 353.2830547524123,564.0283433687607 356.65210854995206,561.6077865539446 400.07546403795476,543.9252992167873 403.6550833161223,538.4720822472467 403.93583756174894,534.8465931191333 403.6550833161223,526.4066339095856 401.54942484534047,522.2015933812006 382.08378289851754,505.3924731582319 381.38189687730994,503.29668161616826 382.43472590911847,501.79514962771844 385.38264752392024,500.85666216332055 390.015096241061,500.43433516992695 395.6301852250341,499.2924647731712 401.1984822418985,496.9147637416942 405.1992328885107,491.626980064444 410.95469940243436,485.57173100798235 415.9380907230417,481.97255320156023 423.5184610549842,469.34146357834067 423.3780839321699,460.66790318039415 426.7003449482774,464.9109906315447 426.91091083606597,466.6018320045989 426.91091083606597,468.87182694741404 426.63015659046397,470.9381874769166 426.98109919390595,473.9436055835546 428.31468328564205,477.04269649099825 431.75392503385905,479.9850356926075 436.66712799662645,480.6110364475211 444.8791959919612,478.73300414000585 449.6754178154582,475.66535360761543 453.39541421644003,471.78348512900243 455.992392820637,467.6820533438931 458.87012607760073,464.2690779367464 465.4678557355708,461.38816481251087 474.56897924917047,462.2649881360221 473.8904896186942,464.1594821739447 476.60444936213884,475.72796057890486 489.28519215393436,494.8810870472681 492.16292500373345,503.64077513329903 491.50783135679916,508.2388130122509 502.6444249833671,506.65927692768867 508.9614003957106,504.3602320147724 513.5938487056867,501.5136056839029 515.418752523679,498.7919081504149 514.15535760408,496.8678335763886 512.8217739195047,495.17832309368634 512.7515855616667,493.2540682511917 517.734976882274,492.2371459987956 527.0700622672308,491.939886671896 555.1221120178589,497.10248274130436 562.5621048198244,495.66328286765037 570.3530410395535,493.2227785022056 574.2602069376229,493.566961618268 574.4208723923389,493.5811149014135 574.2832377052532,496.86734515200914 577.886253404545,512.1477884057151 578.6540794070388,520.6998913805744 579.0092713377534,524.6554035196317 576.0613497723515,529.954279599343 565.5330570446139,540.2998353494767 561.0877782349772,546.1746240342787 557.4379705179023,554.219754957266 556.1277831555246,560.5921808021989 559.7307988548013,604.2961184283513 562.0236267390143,617.1793282352121 571.6160705099759,645.161320996806 571.6518684904037,649.2025934094909 571.6628629804582,650.4436675728476 569.2296576848721,656.7067538150185 565.3926800859268,660.6323504330105 559.3096670732792,664.3083410781818 552.7587298085988,667.0806788087251 530.6727127190343,671.9084340560009 532.3572393924895,680.4723218050502 531.0470515773729,696.7229256361338 534.2289354951295,705.6858569665167 539.2825155155106,707.9884964775656 542.7451542560641,711.5977653748838 547.6232858151604,720.9317019636716 548.5006204281315,722.6101769174496 549.9979776724175,727.2444089807154 550.9338257237175,737.0708780661224 551.8228813045599,740.3354506990798 555.0515576927986,743.0712624625038 562.5851354792632,744.2836619708015 566.0009812966334,746.5529244716472 571.3821086103469,754.1990492492189 573.6342854989731,760.2327222857142Z" name="Dibër" name_en="Dibër County" gn_name="Qarku i Dibres" admin="Albania" adm0_a3="ALB" iso_3166_2="AL-DI" iso_a2="AL" postal="DB" type="Qark|Region" type_en="County" wikidataid="Q192866"/><path d="M586.3556796950353,476.43179940738474 574.8447464454624,483.4587220792326 574.4208723923389,493.5811149014135 574.2602069376229,493.566961618268 570.3530410395535,493.2227785022056 562.5621048198244,495.66328286765037 555.1221120178589,497.10248274130436 527.0700622672308,491.939886671896 517.734976882274,492.2371459987956 512.7515855616667,493.2540682511917 512.8217739195047,495.17832309368634 514.15535760408,496.8678335763886 515.418752523679,498.7919081504149 513.5938487056867,501.5136056839029 508.9614003957106,504.3602320147724 502.6444249833671,506.65927692768867 491.50783135679916,508.2388130122509 492.16292500373345,503.64077513329903 489.28519215393436,494.8810870472681 476.60444936213884,475.72796057890486 473.8904896186942,464.1594821739447 474.56897924917047,462.2649881360221 465.4678557355708,461.38816481251087 458.87012607760073,464.2690779367464 455.992392820637,467.6820533438931 453.39541421644003,471.78348512900243 449.6754178154582,475.66535360761543 444.8791959919612,478.73300414000585 436.66712799662645,480.6110364475211 431.75392503385905,479.9850356926075 428.31468328564205,477.04269649099825 426.98109919390595,473.9436055835546 426.63015659046397,470.9381874769166 426.91091083606597,468.87182694741404 426.91091083606597,466.6018320045989 426.7003449482774,464.9109906315447 423.3780839321699,460.66790318039415 429.2973235524763,449.7057290875269 430.56071847207346,447.9358277031571 432.0346792794876,446.80806006601335 433.4384517290618,446.00920497785694 434.7018470558217,444.7404009363102 435.8950532104464,443.00160134757056 437.7901457934112,440.99640026547706 446.42334515716226,433.63265627123064 447.6867404839487,431.75232537308057 448.31843774015545,428.7436038601039 447.8973063717373,422.78814691774176 447.96749513671347,418.13284347029577 448.45881527013063,413.8689047687488 449.8157949382725,410.67063992326587 450.7048504565639,407.3937095341378 450.5644737409105,403.724469125792 446.63391104497737,392.71464110654256 444.6686301041461,388.82437347407057 439.1939182429854,384.745442625578 425.85808139709656,382.4077058797823 415.3063930596494,372.5845155402362 411.51620789369144,366.5732377121453 408.4279091560754,364.28148438684303 405.83093014471564,364.68961436218314 402.7426314071261,366.5732377121453 399.23320048677203,367.9858945689921 394.0860356526475,368.3312021578388 394.22641318262265,367.16969888134474 400.8241428405947,357.9549044692233 403.37432907049373,349.8685469575594 402.5320655193375,345.78546559629825 400.26263353501395,340.9480203180387 401.6898023753175,336.18850886706355 413.8324322522618,318.6690328827276 417.13129728482727,315.21132713247295 421.2022366964138,312.0676872246233 426.91091083606597,308.51506305465983 434.8422237714751,302.03774767178703 439.5448612535901,292.8544295930603 436.24599622104927,282.5992125808628 422.60600914598797,276.7783092302552 418.6052580922149,275.7398932453032 416.2890341408073,273.3325464456228 414.44073352492467,270.56312306464184 411.7969629536171,268.47018679594487 408.52149390461824,267.7777610659745 397.73584369581584,268.47018679594487 346.3109861002954,243.5034706388743 340.39174607282814,241.61377337849797 329.7464729868381,240.14919323584402 322.0491215156518,247.66047607051226 295.2370715153778,246.43231720670755 292.359338258416,247.44004008444486 289.41141623645336,249.53412971776498 282.8838753434841,256.2879659926471 280.14651920930817,258.2399013469306 277.76010649292624,259.1843495671454 275.86501390993305,259.5621234080496 274.25067597973305,260.16025621595287 273.03407343440546,260.85281902045443 270.7178490758351,263.95346040180186 259.27710481293565,262.69434713475243 252.88994104275412,259.1056468522024 249.87183066297615,256.91763293480005 248.95937875398187,254.44612877445778 250.43333956136948,250.19539701845426 251.48616859317994,245.1726257711359 251.76692324596937,242.9680659543185 251.69673448096853,240.35392283744085 252.04767789873225,238.54281485902925 253.0303181655665,236.66862134489003 252.88994104275412,231.40778854449965 251.27560311255033,223.12129266048822 245.35636308508495,202.34987621114254 243.67183638990684,192.70102778449476 243.3910821442802,185.54164312256916 244.02277980767246,180.65230316522175 243.5314588599298,165.12843085989581 242.54881859309558,160.0155255250813 241.28542367349843,156.32244566158542 234.12618511713498,147.35655284781737 233.42429909592929,145.24105204588062 234.19637347497493,143.45699342735116 238.4076904165347,139.43071254790777 239.88165122392425,136.90420134841239 241.846932164729,130.93465103725086 243.04013872651458,128.4707541435199 244.65447706387735,126.25942794224835 246.36240014978296,124.44288658286972 248.0937192192571,122.12074490326582 249.38051052956092,120.130225224719 252.19222762627308,113.97048686784755 255.11221491621473,113.03568192348581 272.2382364736371,102.88999599973734 276.40276136591666,98.87522256376862 276.4963458541063,98.74876656162037 287.7265242808291,90.92345471098136 309.81254137043345,91.58748250921131 321.3234737144755,88.2514130206956 337.60723216157936,66.53608013534014 347.34005334400297,59.47947997852032 358.9913630994729,66.21966839983531 368.3498449708169,76.4700534487788 390.95057878293625,88.94711084260518 398.5777415103294,98.68553809682284 398.671326451258,98.68553809682284 398.671326451258,98.74876656162037 398.71811873757775,98.8752227166689 411.4456536872333,129.6390519674596 413.9256519060954,133.09783327820386 420.00866491870516,138.98809173808624 422.2547003324208,143.6933270356145 422.11432337373554,148.74528019333988 417.43508221169316,155.9115878944068 416.8735734714443,159.82565266164636 418.97923192647465,163.64463505305176 426.0448854608686,169.70372093104515 428.6652606383781,173.4112791114599 429.7414861011287,178.12803422162847 428.9460150085139,186.3770069158628 429.6011086897027,190.71370459025724 433.5316712295879,200.7098823774764 437.22827141709587,204.85579180138532 442.6093982780326,205.65969990642427 473.5391809692295,204.91884467633358 480.5112500154338,206.10105303900662 536.4749713615461,247.18761982001737 544.0319382115526,255.3368206357564 547.6583573177714,259.24682069344664 556.3149530374329,271.11338481866306 573.440974594895,308.3102073055403 578.3073851860671,324.5144968483442 579.4771951370604,335.2611788020371 579.5707800601922,354.7200752249176 582.3315322141837,366.0704570528808 596.5564246767394,403.3946711624589 598.662083131732,415.4831241688255 600.9081185454476,423.4616101500274 600.9081185454476,431.15637858845696 596.1352928951643,442.24917301881726 592.438692707645,447.01119836822176 589.1632243017008,449.4703016024783 586.4024721655195,452.80628621083537 584.2500212400049,460.11938002422943 584.3436057282324,464.5190924068107 586.6364340651464,471.986490624244 586.3556796950353,476.43179940738474Z" name="Kukës" name_en="Kukës County" gn_name="Qarku i Kukesit" admin="Albania" adm0_a3="ALB" iso_3166_2="AL-07" iso_a2="AL" postal="KK" type="Qark|Region" type_en="County" wikidataid="Q231896"/><path d="M600.061194886354,950.1874768005686 603.6220782111334,951.8535707548411 609.7986761647228,952.5029110898371 615.5073503190431,952.2246236123187 616.6810986917268,952.3993134277695 620.7013077508522,952.997639416929 625.6145103598053,956.7697364838626 630.2469590513655,966.4147522314524 638.997139711967,1005.4650803632244 647.7473203725684,1039.8181108202725 654.2982576372488,1053.606396030881 660.3455717703476,1058.7405802770656 665.0137193414565,1062.703388228924 676.4310671972976,1065.2316688542821 684.3857767652975,1062.055876205599 699.4529323382134,1049.4118169424114 708.3236095073206,1047.2264069456783 708.7178297213563,1047.1292827795005 732.6287504430748,1050.5838768041085 755.1358993142144,1057.2762849165717 762.71626957111,1064.6150299593487 766.4128697586691,1075.8363354820822 766.6000396405509,1091.6763344745873 767.3955102804136,1119.9197516867855 764.6347581442323,1132.5718741124488 756.8204259876698,1141.804426737441 761.2657047973064,1145.4353026328026 762.9502314707769,1149.9272777215683 763.8392875043714,1154.7263551748729 765.804568547938,1159.1865098250137 778.7192736481161,1171.426265432302 790.7449227146636,1186.059764719681 795.3773709535076,1194.4193198121695 798.3252929716105,1204.8048228449106 798.9335941823038,1216.47755972517 797.3426524497752,1227.379227347818 792.5230343290608,1248.0380547040077 791.7275632364857,1254.8810131748314 791.5403933545642,1259.820707793917 790.8385076555923,1264.453025800132 788.4520948305018,1270.4343527835792 785.3637954009729,1273.8080352451955 781.1992709613962,1276.2001085516279 777.0347469746475,1279.5732967821045 773.946447545094,1285.6443114472352 768.097396432098,1287.2385639850754 763.2777787641112,1290.5801541271496 760.5638190983742,1295.8525465931627 760.8913654862288,1303.2081971470225 759.581178123851,1306.6403654504822 758.0838208795632,1309.581986001222 753.732127010857,1315.7402952202378 742.455156113688,1323.429174043646 732.3479960729635,1320.9480658297682 722.0068736798353,1316.0160180144649 709.887639672308,1316.2611029977325 703.8514191301446,1320.304790161956 701.4182133818177,1325.2975598953863 699.6401022201217,1330.9634371197578 695.9435015798634,1337.0265563400508 691.9193545517487,1339.2923320192535 682.5140802099585,1341.5273621355138 678.4899331818438,1345.690916575713 677.7412545597264,1351.2620463125863 679.7065360560338,1367.3894088495617 679.9404979556475,1373.5693121848926 678.3963482409152,1380.8799326708656 676.3842742741124,1385.7733172476383 671.4242791946598,1395.0385079265288 664.4111082197519,1412.4635212794863 663.0952303156334,1415.732114182616 659.5390075395401,1418.910085488639 654.5790120073467,1421.476723352099 649.6658093984295,1424.9291992393678 646.1095861696351,1430.6724766599439 644.050719732348,1444.141475595484 644.986568236387,1455.957443237641 644.8929832954585,1468.0750789376502 639.8394032750641,1482.1720570589075 637.3594055089939,1484.1549966674156 630.6680908329008,1486.1988463064351 628.5624323779101,1489.4321848132647 628.3284704782434,1493.0617516109298 629.8258272697905,1499.5880369441918 629.9662046812543,1502.576351926731 632.1186556067045,1513.521425181163 631.4635619255156,1516.2038810154409 624.6786627612196,1535.3720740748715 622.7601737353585,1539.4848714507216 619.4379128589188,1541.8000369823758 608.184253205032,1547.1608446974667 608.020930420767,1546.9482267811425 607.9507420629535,1546.8568533733846 599.2239575434987,1538.1144622243055 592.5560391205544,1528.699775543017 571.1251154185992,1505.900302882945 568.1070054459859,1501.723047212421 565.6504039646013,1490.362959947018 554.1394713438638,1461.9408928007435 553.3673965576819,1458.3084815321224 552.946265189239,1454.6299439304107 553.2270194348675,1451.4243017242525 554.5606027123047,1448.600069420667 556.876827070875,1445.4550115717682 561.5794641458292,1440.7522268583666 562.772670707613,1438.8129298713084 561.6496529108282,1437.8050679565135 559.2632397872588,1437.2095015384175 555.2624891406732,1436.8888083066022 548.8519289797869,1435.3463897919523 547.7990995408175,1433.9413628659458 539.3764664720159,1407.8782409149744 538.6043916858358,1403.384974678646 542.8157082202101,1386.8747230748288 542.4647652096072,1377.8523256813332 541.2013702900064,1373.1109193279547 538.4640141558588,1368.766681721449 530.8134554660801,1359.5259406778873 529.3394942515297,1355.0883946480305 529.4798717815067,1350.1453000486083 530.8836438239182,1346.0281337891365 532.1470387435153,1343.1810687855525 533.6911887230665,1341.0226733014788 537.9726940224416,1336.7973880344098 529.9711919148955,1335.1898245097243 524.2625181824061,1323.1233513264226 524.1221406524309,1319.141219623724 525.9470448775822,1295.4852067193378 525.1983664821051,1289.568988785066 523.4202546312233,1285.4301743164085 518.9983718018731,1280.8003186038636 518.1561086578531,1278.853164771673 517.8051656472502,1276.0779202357703 518.0157315350388,1273.8391828917966 519.0685609740101,1268.839900463253 519.9810124758435,1267.3062512324132 522.2972368344385,1264.269449501494 525.0579889521546,1256.1701679587654 525.0579889521546,1254.2985070717775 524.1221406524309,1252.457441639591 524.3327065402195,1250.6162902139793 523.7711976418261,1249.2967458007513 520.8232760270243,1246.2585569625012 518.4368633106425,1245.322501468436 513.3130940528972,1244.5398806991839 511.4881906420695,1243.9567418229888 509.3825321712877,1242.7290528516307 507.4172504161594,1242.4528174149182 505.1712152297261,1242.6523209207614 502.6444249833671,1242.5755888404994 500.3048046412282,1241.010223709218 496.865562485875,1236.9890973954616 494.8300927800675,1230.6956722432815 492.09273664591996,1226.9191342363017 490.96971884911056,1222.9886942588846 483.81048029277366,1211.1028670296237 479.95010676897573,1199.1673599092874 470.1704928105496,1176.1463369519615 467.8542684519546,1171.826472587908 462.3093682329805,1165.1535783989582 465.8889875111499,1158.6333434116723 483.3893485171681,1153.6809327832416 517.8051656472502,1149.5278090554034 524.9644042036117,1146.3896016636513 530.9538325888925,1141.4664191880556 534.8142065198513,1135.2038540384563 541.6926904234253,1121.3056997588349 529.4798717815067,1094.8194010834557 524.2625181824061,1086.6080959673536 510.0142294275191,1068.130221998737 507.3470620583459,1062.8888723129933 502.22329320776345,1046.7750347640188 513.3832832250589,1041.0834920599862 514.6466781446599,1037.5972065442334 516.1206389520456,1031.3643116324424 517.1734683910188,1021.8587776778741 518.2964857806654,1016.8581865050538 521.0338419148148,1008.8620854744184 523.9115747646405,1005.5118817256702 526.882892770147,1003.520149488763 542.8858969852109,998.0848293913676 545.6232527121957,997.5134595471183 549.2028719903916,996.2008211478561 567.2647418948031,985.3428358812654 570.7741728151573,983.8135170241002 572.809642928101,983.7671738107593 575.3364323601609,984.0915794510796 591.994530222161,990.2084511300835 596.7673560621141,990.702702121977 599.0835804206845,988.8183368644246 600.6979183508864,985.3582833605743 602.3122566882491,974.4200260025572 602.171879158274,971.0514146492823 600.5575412280721,961.7785060198328 600.2767865753092,952.0395808472256 600.061194886354,950.1874768005686Z" name="Korçë" name_en="Korçë County" gn_name="Qarku i Korces" admin="Albania" adm0_a3="ALB" iso_3166_2="AL-06" iso_a2="AL" postal="KE" type="Qark|Region" type_en="County" wikidataid="Q193464"/><path d="M561.6960794456686,875.9918934446408 578.447762144792,899.6855076487383 585.6070006201656,913.5852470261108 587.8998289570665,927.10874293295 587.6190745869307,937.7200105551901 590.8009585046719,945.8543913588563 600.061194886354,950.1874768005686 600.2767865753092,952.0395808472256 600.5575412280721,961.7785060198328 602.171879158274,971.0514146492823 602.3122566882491,974.4200260025572 600.6979183508864,985.3582833605743 599.0835804206845,988.8183368644246 596.7673560621141,990.702702121977 591.994530222161,990.2084511300835 575.3364323601609,984.0915794510796 572.809642928101,983.7671738107593 570.7741728151573,983.8135170241002 567.2647418948031,985.3428358812654 549.2028719903916,996.2008211478561 545.6232527121957,997.5134595471183 542.8858969852109,998.0848293913676 526.882892770147,1003.520149488763 523.9115747646405,1005.5118817256702 521.0338419148148,1008.8620854744184 518.2964857806654,1016.8581865050538 517.1734683910188,1021.8587776778741 516.1206389520456,1031.3643116324424 514.6466781446599,1037.5972065442334 513.3832832250589,1041.0834920599862 502.22329320776345,1046.7750347640188 507.3470620583459,1062.8888723129933 510.0142294275191,1068.130221998737 524.2625181824061,1086.6080959673536 529.4798717815067,1094.8194010834557 541.6926904234253,1121.3056997588349 534.8142065198513,1135.2038540384563 530.9538325888925,1141.4664191880556 524.9644042036117,1146.3896016636513 517.8051656472502,1149.5278090554034 483.3893485171681,1153.6809327832416 465.8889875111499,1158.6333434116723 462.3093682329805,1165.1535783989582 444.6686301041461,1171.0270151150514 430.06939833865636,1171.3191266671095 426.4663830769468,1169.7970490807413 425.48374199578893,1168.1057818036252 423.6588385849593,1163.7235249846747 420.2897847874176,1161.4014999429248 416.35922249862074,1160.6633439700342 409.5509269528867,1160.6018298557497 405.5501758991136,1159.5253263675356 395.20905344945504,1154.8806423005897 399.4203703910186,1147.9741201871761 396.12150576561396,1145.4973204081025 390.99773650789524,1142.6972723977294 380.68001085610234,1140.0201161244888 375.6966191283606,1137.0042513330602 371.6724716838847,1132.9416988873297 360.6528596037252,1114.4702511598903 356.58191978497587,1110.990488910847 351.1773962816305,1108.8963237730034 343.9245729767507,1108.1109826889435 337.6777863293835,1106.0782635194075 335.50193950078824,1104.1532427591642 335.50193950078824,1101.565864967363 336.9759003081759,1096.0825259632077 337.0460886659893,1093.4329972098567 336.7653344203873,1090.5367965852727 335.3615619708131,1085.0827300835863 335.29137361297506,1082.956363408656 335.50193950078824,1081.3075789762247 337.11627783815294,1077.1930205696642 335.642316623576,1074.4805659195574 334.37892170397885,1073.8024234545233 330.5185481801809,1072.415275968477 326.6581738420612,1073.6945356688072 315.5449770133835,1081.1072546918783 279.30425565815193,1076.8231517384313 269.45445374904864,1080.3675868843716 251.20541434757791,1075.0816378680645 248.51485099483617,1073.0009666910935 244.58428829890303,1068.9626074169691 240.44316012231567,1060.715047069055 239.3903310905052,1057.153414207165 239.0393876727415,1053.6994005634383 239.1095768449051,1050.460985636976 241.07485778570984,1039.8957218478124 241.1450461435214,1036.887570254133 240.02202875389938,1022.6304165955258 240.37297135733948,1020.6241231016099 243.88240227769543,1013.5858484404156 244.44391117608876,1002.0841866006447 238.4076904165347,999.644473503502 236.5125978335453,1000.138604637117 233.07335567816367,1000.3393432227626 229.84467981776177,998.5480962660835 225.14204274278106,994.8109200377443 220.6265747577252,993.8842916556636 204.34281629705924,995.1506781475135 193.29980782619685,991.9691911832645 186.77226693320105,988.1078153364423 182.98208176724307,983.2573862326051 180.87642329646317,977.9119493113575 180.03415974527854,973.971924921559 179.82359385748995,971.5459080895598 180.59566905083275,967.9297812463445 190.14132032360652,969.6606184435441 191.61528113099223,968.1306859379464 193.08924193838175,965.6115750764358 193.2296194683569,960.2946357346816 193.65075124396057,955.7344743069438 195.07791926991592,949.5967389755987 198.79791607805856,945.8858006676535 209.39639678977713,940.6434990349353 212.27413004676546,937.9060872152667 213.74809085415308,935.354091041298 214.66054276314927,928.9346935444111 229.1427933893914,927.820859008464 243.1103274914889,929.0584513922321 252.04767789873225,927.2639303480012 257.8031440055234,924.9123644661616 259.9088024763014,922.4368782774479 260.1193683640919,921.1062398520768 258.64540755670424,920.1469139830726 255.97823978036826,919.2494592201032 254.7148448607711,917.5473317157852 254.29371308516744,916.0617784501588 265.1729484496735,906.6519596955302 286.744249274441,897.7662615788637 296.52386282570626,895.5987101565489 316.52761728021966,885.1927867158188 319.75629395494707,882.2811073431841 333.4664693878199,866.4799042656277 339.0815587789577,857.4610480054757 345.6792884369278,849.5252054299002 349.2589077150953,847.0449220772628 352.0898481906267,846.8588940715425 354.12531830359313,848.7191303118927 357.0732399183949,850.1297498614077 360.93361384935184,850.8892937500804 363.8113471063155,850.0832469017123 366.3381373526745,848.2850829855367 373.497375909036,840.9985692904888 376.46869391454254,838.9053815186144 383.97887548150885,838.1766159262822 391.4188682834724,823.784570988813 401.47923648752896,815.2057415570968 406.0414960325307,812.8939427702497 430.3501525842849,806.1594628730641 432.45581105506665,804.2040727054043 433.5788292590123,802.2020232565594 436.31618539318634,795.419121064191 438.9833523551968,792.3765184124468 440.1765589169824,791.6624034722132 441.7908968471843,790.9948502591005 444.6686301041461,790.2651853890371 446.2829684415354,789.4578805232377 447.96749513671347,788.2468912031869 449.39466316269346,786.3837579344251 456.13277035061407,780.980164458797 459.4316353831795,778.9303287441599 463.15163137700233,777.470531583172 467.2927599607241,777.1288689172858 471.4338877301487,777.6879518116068 476.44067584862165,779.7689111346273 482.9682171487537,779.986318486023 486.61802478473464,779.2409166273504 489.9168898173001,778.0606689057093 492.79462266712756,775.6534725417993 497.21650549647785,769.922192028547 499.69650336856535,768.8193279912701 501.6617843093701,769.2076643177745 503.69725442233846,771.9103741224748 505.38178111751654,771.5220653899277 506.7153643949518,770.1241209058792 508.4700798551288,769.0989303219174 511.20743558214195,768.8037943492121 516.6821478504654,770.6367071197832 522.4376139572263,771.8482450080558 528.8481741181126,769.751327562823 533.0594910596743,769.0212631499414 532.0066620278639,774.271208912541 532.1470387435153,780.2037246194701 533.3402453053009,788.1537364474772 535.7968471938483,794.2704115554005 545.9040069578242,808.9216722254703 546.0438266747145,809.1243148812752 545.8802452506353,810.3177345399696 548.3134509989621,828.4062507925061 553.8912118135661,851.9373933930816 555.9874057440986,860.7770186608515 561.6960794456686,875.9918934446408Z" name="Elbasan" name_en="Elbasan County" gn_name="Qarku i Elbasanit" admin="Albania" adm0_a3="ALB" iso_3166_2="AL-EL" iso_a2="AL" postal="EB" type="Qark|Region" type_en="County" wikidataid="Q193790"/><path d="M608.184253205032,1547.1608446974667 591.1752973630126,1555.2618842310167 579.8983269185957,1556.358123557905 555.893821255909,1552.7952346806012 547.6583573177714,1554.9573674609496 540.545910860143,1559.0681424212137 525.5255473049723,1557.302083884382 516.915744055795,1561.1994880071616 510.8795235136315,1568.2321201226766 505.73235855230854,1577.5461633934974 501.94217342384746,1588.0142549394868 500.0236843979864,1598.570854258079 492.53689908201926,1600.1525826316622 469.93616526993964,1600.852172562628 464.4614534680327,1602.5858876226189 466.7542813521567,1607.1783468729132 473.5391809692295,1642.8963301546323 475.87880132387556,1646.4207995551212 486.6410554985391,1657.0834627731663 507.51046971395357,1691.6340374416027 509.33537379884814,1701.8295589986624 505.685566081813,1713.539066205938 497.8244410020274,1721.6669702264812 490.10369378643134,1720.787538121521 482.1021922007014,1715.965479125365 465.2145861875178,1709.4795414180098 465.1637055064003,1709.3232988928464 464.2746495809461,1706.593121397707 459.36144621101784,1699.2358833113162 460.6950303027786,1684.8664072109868 459.36144621101784,1680.5560758351405 456.8346563718198,1677.0346153073817 453.39541421644003,1674.818364625706 450.1433419653333,1673.7860961637537 443.8965553179661,1673.7860961637537 438.14108880401596,1672.6930775759422 437.43920278280837,1662.8241931741966 435.47392143484086,1658.3292479641552 431.33279366544275,1653.621161909627 426.98109919390595,1647.4542489082887 425.29657249870326,1642.9271896138673 422.39544325817286,1630.9994259618538 420.14940766460523,1627.9143420347027 411.7969629536171,1621.3786475359727 401.7599907331291,1610.5087851113444 399.13961614539005,1608.7906199405143 396.542637541193,1608.7602090276582 391.4188682834724,1606.7378471779807 383.76830959371836,1600.8982729627674 348.27626704110014,1565.6754184683673 343.43325243617085,1563.3920863256626 340.2747653407433,1562.99629488142 328.90420984281815,1559.6471370130075 326.1668537086706,1559.4035511037032 323.3359132331146,1559.9516178348845 314.49214798157493,1562.844066926453 308.52611557983624,1562.8592893772452 305.01668506664305,1560.7128091777256 302.1389514025185,1556.4195012291227 292.640092504018,1531.5335560169851 288.28839843966864,1521.111562541329 281.8310459045109,1511.3575160328844 279.58501071807757,1506.799727819459 279.0235014125234,1501.052206067416 270.7880374336485,1480.8911965100897 255.83786306471677,1467.8008897667214 254.64465650293116,1466.0002535589656 253.59182706395984,1463.4517558520224 256.2589948402958,1460.8725709532196 257.0310692193415,1458.613738767937 257.1714467493166,1455.347362123416 255.27635416632532,1448.050465521914 253.0303181655665,1443.04261323924 249.16994464177233,1437.0567911280493 247.95334168928196,1434.4606172832227 247.5322099136783,1432.6890134494604 248.374473464861,1431.8031815899 251.97748913375793,1428.901180237227 253.31107281835781,1427.0376786659692 253.45144994114747,1426.3044734950918 252.88994104275412,1425.6018055292398 247.48541794659425,1424.0131197466899 245.66051372141638,1422.7146270319706 243.67183638990684,1420.6063959558053 235.6001459245491,1409.03968228404 222.40468660863354,1395.3753047621485 220.57978238345567,1392.378905172194 220.29902813785176,1390.4983956489798 223.45751604760486,1388.1132304566715 229.98505653341326,1380.849824671267 233.70505334155592,1375.5275778773787 236.44240947570535,1370.2658033931275 237.63561603748906,1364.9880307380286 237.21448426191188,1361.5150244295212 235.45976839457208,1356.8022649971092 228.37071860320947,1345.1097478291015 234.75788237336639,1346.3342573474697 235.74052345449965,1345.0179079001275 237.3548609775653,1342.5075395873278 250.29296203139435,1316.1084035613903 253.31107281835781,1312.3706738590774 266.99785226766403,1301.2932738943207 270.01596305462743,1297.6920667646302 272.9872810601321,1293.5234505970586 275.72463678711875,1288.1894323673564 278.0408607385283,1285.4301743164085 280.216707974309,1284.1271240881126 286.53368338665246,1283.2532899702462 301.08612237070804,1292.3586113343113 310.49139692780375,1294.0905311024785 320.73893422175485,1294.1671624881885 338.73061536119206,1303.315935719496 348.41664416391444,1301.4618332706839 351.7389055871847,1301.9521830982276 356.3713538971873,1304.9707635438137 358.68757825575767,1306.0586220654486 360.37210495093575,1305.8441175740459 361.00380261432804,1304.6183521462035 361.5653111055586,1302.6570498067747 361.70568863553376,1301.0174482959405 362.337386298926,1297.4775162815488 371.1811515504675,1300.4198197333817 375.46265684984076,1304.87883080993 378.57435238532435,1310.56295632777 381.7328398879147,1313.0906737732462 386.224911075103,1314.6531820972189 393.3139608664656,1315.0055039651754 396.75320342898164,1315.6795014960571 398.9992386154149,1317.7626960221621 409.4807385950467,1332.096992957546 410.6739447496714,1334.3171189514474 442.14183985778715,1375.0687306271063 447.4761745961336,1379.9016606319508 451.54711400772015,1382.3790734374431 461.3267279661462,1384.810457663967 464.41502670376224,1385.192737017588 466.029365041125,1378.3417284270342 467.4331374906992,1375.6805266660335 467.64370256416606,1374.3804487135183 468.4157777575335,1372.7285238192253 470.59162458612866,1370.7553004835208 476.0663364472875,1367.389886704883 489.14481503111824,1364.421966637159 493.42632033049335,1362.5860279019687 497.28669426145404,1359.2046184668477 498.620277946052,1353.2520232259706 498.4097120582388,1348.4158357649976 497.5674485070807,1343.1504538287402 498.1289578126349,1339.0937948724304 502.22329320776345,1337.2719897309717 510.22479531530774,1337.7159665642514 529.9711919148955,1335.1898245097243 537.9726940224416,1336.7973880344098 533.6911887230665,1341.0226733014788 532.1470387435153,1343.1810687855525 530.8836438239182,1346.0281337891365 529.4798717815067,1350.1453000486083 529.3394942515297,1355.0883946480305 530.8134554660801,1359.5259406778873 538.4640141558588,1368.766681721449 541.2013702900064,1373.1109193279547 542.4647652096072,1377.8523256813332 542.8157082202101,1386.8747230748288 538.6043916858358,1403.384974678646 539.3764664720159,1407.8782409149744 547.7990995408175,1433.9413628659458 548.8519289797869,1435.3463897919523 555.2624891406732,1436.8888083066022 559.2632397872588,1437.2095015384175 561.6496529108282,1437.8050679565135 562.772670707613,1438.8129298713084 561.5794641458292,1440.7522268583666 556.876827070875,1445.4550115717682 554.5606027123047,1448.600069420667 553.2270194348675,1451.4243017242525 552.946265189239,1454.6299439304107 553.3673965576819,1458.3084815321224 554.1394713438638,1461.9408928007435 565.6504039646013,1490.362959947018 568.1070054459859,1501.723047212421 571.1251154185992,1505.900302882945 592.5560391205544,1528.699775543017 599.2239575434987,1538.1144622243055 607.9507420629535,1546.8568533733846 608.020930420767,1546.9482267811425 608.184253205032,1547.1608446974667Z" name="Gjirokastër" name_en="Gjirokastër County" gn_name="Qarku i Gjirokastres" admin="Albania" adm0_a3="ALB" iso_3166_2="AL-GJ" iso_a2="AL" postal="GK" type="Qark|Region" type_en="County" wikidataid="Q193454"/><path d="M465.2145861875178,1709.4795414180098 464.64862334994285,1709.2621564989568 460.15655161703194,1708.5644605133386 456.36636648856893,1710.111508300613 453.18448302356654,1714.5096490141498 454.30750095677485,1716.9056742854905 456.9746681520144,1719.3925366828953 458.4720249435633,1724.001921080953 457.77013924468037,1727.034122345343 454.9158021675193,1734.067944493341 454.4010854450043,1735.8868355997802 455.5241033782107,1737.8268952920334 458.84636425465425,1741.979518823216 459.64183534730506,1743.7374350705345 461.37315449121996,1748.8591982340952 463.80635978680596,1751.4652880203328 465.1633400724067,1754.5560122498393 463.80635978680596,1760.9185184010942 457.58296936275883,1768.5219046340019 449.16033554275276,1773.3982181640274 442.32864390793463,1779.9999852205196 440.97166407505955,1792.8370099366862 436.9943095174802,1790.4152436238144 433.0637469775685,1789.1740317443755 429.2267693786251,1789.1740317443755 425.57696166160133,1790.4152436238144 422.0207384327559,1794.3505392123602 421.50602216299114,1798.8605196696085 421.6931915921605,1803.1278863821242 420.1022498596849,1806.2146360220527 412.943010931559,1808 403.72490647163914,1803.7331502045338 390.81020137145913,1792.0802236154195 370.0343716442722,1781.1809202166519 352.01929405326854,1775.3667489601855 336.8585539921498,1770.278656791811 329.514168495924,1774.9050851316501 328.15092539991565,1775.4535439822607 327.70879217353337,1778.8872044234724 324.61386139981306,1778.8872044234724 322.14528546419285,1770.3025027522701 323.6927510774215,1760.5709528620464 330.80372339999445,1742.8191057443853 323.0663957865825,1739.597161849479 320.81888623778303,1737.4967918098805 327.70879217353337,1722.4568397976166 335.99878598037037,1693.1007320696515 336.95674107781184,1686.0033073242219 334.00918759349645,1673.8845913821913 329.2562577867639,1670.5136447617704 322.21897410889625,1669.939838637629 312.2341373994484,1666.3055399959892 311.57093778624346,1664.8469459226312 311.46040436646365,1662.4796054633568 310.944582495378,1659.9686370163968 309.13920617298726,1657.9358332747183 302.94934417280587,1654.300443121094 298.4174812056349,1652.5783005345402 290.6801535922229,1652.2912697508925 287.21677823679534,1649.9231860892141 287.21677823679534,1646.2631440459504 293.9224621080624,1637.8653096701742 298.34379210819253,1633.414459782681 302.94934417280587,1630.1836934009057 295.101483592353,1622.6442215840723 273.8054104942858,1581.714748917159 270.9315461073862,1574.4297376388438 267.7629262362236,1568.174109733419 264.04164017166056,1565.513372891907 249.561784364644,1565.0818851817705 242.37712339739417,1563.7394492178482 237.47681584851776,1561.1263635933606 241.08756849332374,1557.5061186665198 228.78153359040138,1549.0655931690899 226.86562384820627,1552.9263964661636 226.20242423500136,1554.6528454161883 225.6866023639403,1557.5061186665198 224.21282584812744,1552.2070205983243 222.0390053967968,1549.6171591624711 219.27567397693815,1547.818545955657 216.10705410577364,1545.036530152722 215.51754359001106,1542.686054452263 212.27523507414503,1535.7297535428681 208.55394900958385,1529.923909659153 206.89594997657346,1531.1235335072658 202.40093133173994,1526.516780242813 172.55695371767936,1516.869662595218 147.50275023268694,1501.9384150526976 132.9860501033291,1488.874976607629 107.41602520001831,1480.2276916942972 92.45719184425359,1468.8872881652383 49.386069004903696,1420.7025113825596 44.33838371390807,1412.545701990116 42.12771848747451,1407.6123036105537 36.01154558473355,1381.1780765562755 32.69554797145171,1373.9043654743184 16.852449068398368,1358.2203929885388 11.252097584004176,1350.6773441806686 10.478365003760253,1348.315327276234 10.478365003760253,1347.6404393061378 7.9360999707223385,1346.6280860507743 7.9360999707223385,1342.5784126451392 19.98422416448457,1336.3102436275447 27.389951971294064,1335.6592618926659 34.464079971503,1340.5534209841849 50.60193435879288,1360.2444808790722 54.875887069518065,1366.822050722576 60.88152700524274,1380.840914450636 63.35010248809752,1389.4376582171246 64.38174623024238,1397.5270068703283 68.61885416591578,1400.1268036942568 78.12471377937901,1397.8881002450712 87.63057339284413,1393.3380862218078 91.86768132848911,1389.2691123891573 94.88892345750979,1335.5387081699714 93.5993690062048,1326.7614298875314 81.99337758608593,1320.0083506646513 66.44503371455862,1304.254718028553 54.028465391854546,1286.5153122995914 51.780955843056965,1273.7669794096444 54.875887069518065,1277.461522537818 56.12859719851018,1281.8800314571192 57.307618230035345,1287.0222635925506 60.99205997228365,1285.935932266467 64.38174623024238,1285.935932266467 73.1507175858257,1295.929051001506 78.78791339258392,1292.8396614654691 81.7723111992633,1281.7351705274434 82.65657719928893,1267.4878771617462 77.01938139253262,1256.0863359719299 65.0449458434473,1249.9010695435236 54.13899835889735,1252.9696632310222 51.780955843056965,1269.347561632722 48.53864732721745,1260.193203364005 17.11035977758501,1213.7364914689342 14.7827761271902,1208.8105302284205 14.903747984940514,1208.7989967994774 26.180718734320877,1207.723811279165 33.48033441347396,1205.1893288074475 40.07806407144407,1205.7269603940272 46.488624232328476,1207.2937286330912 56.10446427005003,1211.1028670296237 63.12332570359919,1215.5566331557534 67.61539689078941,1214.8502075233719 78.37765111602324,1210.0584623467612 80.76406383243167,1209.9355895115 81.81689286424213,1210.9185619885802 81.81689286424213,1212.5926313139628 81.67651614859062,1213.8980481287356 81.81689286424213,1215.5412766182942 83.57160832441917,1217.7065475436789 86.44934158138287,1219.979185881802 91.50292166696451,1223.1115263627528 93.25763712714155,1225.2303217194135 93.6787689027206,1227.3950594042094 93.25763712714155,1229.590381853014 94.19348542684062,1232.5991558973822 96.50970978543751,1233.7964611862094 100.65083755483559,1234.103456475141 105.07272038418584,1235.4388590790231 115.81157862587955,1240.9641822398248 118.47874558789191,1242.913209089744 119.88251803746608,1244.693337594867 119.9761031931717,1246.16648623323 119.83572566319467,1247.977157208573 120.11647990882321,1249.5422461657183 121.23949811276884,1251.7516774382198 123.27496781857442,1252.4881264743728 126.22288943337429,1252.6262092703894 129.66213158872944,1251.5061913684763 131.90816718232549,1251.5215338921155 133.94363729529192,1252.1199036762266 134.78590003212452,1252.8870314250976 135.06665468491582,1253.7308542254848 134.71571167431296,1254.9735422660376 135.69835234830808,1257.2133508361355 137.1021243907214,1262.9810386691702 138.6462743702461,1264.1467456233302 140.9624983216537,1264.8829636992295 145.19721165394478,1264.530194108401 148.5662650443256,1266.3246840402826 154.602485396715,1267.5056289997012 163.02511927983832,1267.4289452801952 175.82284280371877,1276.5379189067185 178.91114235565655,1278.0098788244227 180.59566905083275,1278.1172074092433 182.42057286884975,1277.9178832720875 184.24547668684212,1278.163204979859 186.49151268759715,1279.3591272613153 189.3692455373981,1281.6895383714148 191.61528113099223,1282.9773382775234 192.87867645775404,1283.2532899702462 194.07188301953963,1282.7013846549323 195.21829679989105,1282.3947675516645 197.04320102504428,1282.7933690544824 198.79791607805856,1283.9431607591923 201.60546057004794,1287.4383200335733 203.2197989074107,1290.4886662744088 203.92168492861643,1295.9296539698953 203.64093027585352,1298.7954499931318 203.00923301962212,1300.7416213039924 202.2371582334402,1301.4311859709455 201.74583769286033,1302.1207391283674 201.81602645783653,1302.9941551295105 202.5179128862031,1303.8675528777649 209.25601925982662,1305.2005955086952 210.94054595500472,1306.2731259249556 211.92318662899984,1308.0503981878007 211.92318662899984,1311.7272586663676 211.221301014955,1317.7626960221621 210.6597917094027,1319.6007168018737 210.87035759719126,1321.6683882389377 212.20394128176463,1328.146391574162 212.06356415897687,1331.055787745872 211.4318664955827,1333.934347669566 210.6597917094027,1336.2003004902565 210.6597917094027,1338.5885970904285 211.57224361839698,1340.8389742424529 214.37978851754534,1343.3035273102573 217.8190302657396,1344.4056380314623 222.31110145292982,1343.6402865639675 228.37071860320947,1345.1097478291015 235.45976839457208,1356.8022649971092 237.21448426191188,1361.5150244295212 237.63561603748906,1364.9880307380286 236.44240947570535,1370.2658033931275 233.70505334155592,1375.5275778773787 229.98505653341326,1380.849824671267 223.45751604760486,1388.1132304566715 220.29902813785176,1390.4983956489798 220.57978238345567,1392.378905172194 222.40468660863354,1395.3753047621485 235.6001459245491,1409.03968228404 243.67183638990684,1420.6063959558053 245.66051372141638,1422.7146270319706 247.48541794659425,1424.0131197466899 252.88994104275412,1425.6018055292398 253.45144994114747,1426.3044734950918 253.31107281835781,1427.0376786659692 251.97748913375793,1428.901180237227 248.374473464861,1431.8031815899 247.5322099136783,1432.6890134494604 247.95334168928196,1434.4606172832227 249.16994464177233,1437.0567911280493 253.0303181655665,1443.04261323924 255.27635416632532,1448.050465521914 257.1714467493166,1455.347362123416 257.0310692193415,1458.613738767937 256.2589948402958,1460.8725709532196 253.59182706395984,1463.4517558520224 254.64465650293116,1466.0002535589656 255.83786306471677,1467.8008897667214 270.7880374336485,1480.8911965100897 279.0235014125234,1501.052206067416 279.58501071807757,1506.799727819459 281.8310459045109,1511.3575160328844 288.28839843966864,1521.111562541329 292.640092504018,1531.5335560169851 302.1389514025185,1556.4195012291227 305.01668506664305,1560.7128091777256 308.52611557983624,1562.8592893772452 314.49214798157493,1562.844066926453 323.3359132331146,1559.9516178348845 326.1668537086706,1559.4035511037032 328.90420984281815,1559.6471370130075 340.2747653407433,1562.99629488142 343.43325243617085,1563.3920863256626 348.27626704110014,1565.6754184683673 383.76830959371836,1600.8982729627674 391.4188682834724,1606.7378471779807 396.542637541193,1608.7602090276582 399.13961614539005,1608.7906199405143 401.7599907331291,1610.5087851113444 411.7969629536171,1621.3786475359727 420.14940766460523,1627.9143420347027 422.39544325817286,1630.9994259618538 425.29657249870326,1642.9271896138673 426.98109919390595,1647.4542489082887 431.33279366544275,1653.621161909627 435.47392143484086,1658.3292479641552 437.43920278280837,1662.8241931741966 438.14108880401596,1672.6930775759422 443.8965553179661,1673.7860961637537 450.1433419653333,1673.7860961637537 453.39541421644003,1674.818364625706 456.8346563718198,1677.0346153073817 459.36144621101784,1680.5560758351405 460.6950303027786,1684.8664072109868 459.36144621101784,1699.2358833113162 464.2746495809461,1706.593121397707 465.1637055064003,1709.3232988928464 465.2145861875178,1709.4795414180098Z" name="Vlorë" name_en="Vlorë County" gn_name="Qarku i Vlores" admin="Albania" adm0_a3="ALB" iso_3166_2="AL-VL" iso_a2="AL" postal="VR" type="Qark|Region" type_en="County" wikidataid="Q192849"/><path d="M214.98654980831014,40.38934867217163 215.38545954668436,46.533695536898705 214.5899889068103,45.90053687992647 212.48433045181778,49.287814656396286 209.11527710489386,56.52038104824002 208.3198055595382,60.8402725102442 207.47754244918,70.09552532708787 207.7582968192912,74.2398809075143 209.30244653406322,79.91786318434652 217.11677869062385,98.87522256376862 231.9967648343306,110.39679949782908 239.67072003225906,114.33135341762897 247.90618397035686,115.34257849439041 252.19222762627308,113.97048686784755 249.38051052956092,120.130225224719 248.0937192192571,122.12074490326582 246.36240014978296,124.44288658286972 244.65447706387735,126.25942794224835 243.04013872651458,128.4707541435199 241.846932164729,130.93465103725086 239.88165122392425,136.90420134841239 238.4076904165347,139.43071254790777 234.19637347497493,143.45699342735116 233.42429909592929,145.24105204588062 234.12618511713498,147.35655284781737 241.28542367349843,156.32244566158542 242.54881859309558,160.0155255250813 243.5314588599298,165.12843085989581 244.02277980767246,180.65230316522175 243.3910821442802,185.54164312256916 243.67183638990684,192.70102778449476 245.35636308508495,202.34987621114254 251.27560311255033,223.12129266048822 252.88994104275412,231.40778854449965 253.0303181655665,236.66862134489003 252.04767789873225,238.54281485902925 251.69673448096853,240.35392283744085 251.76692324596937,242.9680659543185 251.48616859317994,245.1726257711359 250.43333956136948,250.19539701845426 248.95937875398187,254.44612877445778 249.87183066297615,256.91763293480005 252.88994104275412,259.1056468522024 259.27710481293565,262.69434713475243 270.7178490758351,263.95346040180186 273.03407343440546,260.85281902045443 274.25067597973305,260.16025621595287 275.86501390993305,259.5621234080496 277.76010649292624,259.1843495671454 280.14651920930817,258.2399013469306 282.8838753434841,256.2879659926471 289.41141623645336,249.53412971776498 292.359338258416,247.44004008444486 295.2370715153778,246.43231720670755 322.0491215156518,247.66047607051226 329.7464729868381,240.14919323584402 340.39174607282814,241.61377337849797 346.3109861002954,243.5034706388743 397.73584369581584,268.47018679594487 408.52149390461824,267.7777610659745 411.7969629536171,268.47018679594487 414.44073352492467,270.56312306464184 416.2890341408073,273.3325464456228 418.6052580922149,275.7398932453032 422.60600914598797,276.7783092302552 436.24599622104927,282.5992125808628 439.5448612535901,292.8544295930603 434.8422237714751,302.03774767178703 426.91091083606597,308.51506305465983 421.2022366964138,312.0676872246233 417.13129728482727,315.21132713247295 413.8324322522618,318.6690328827276 401.6898023753175,336.18850886706355 400.26263353501395,340.9480203180387 402.5320655193375,345.78546559629825 403.37432907049373,349.8685469575594 400.8241428405947,357.9549044692233 394.22641318262265,367.16969888134474 394.0860356526475,368.3312021578388 399.23320048677203,367.9858945689921 402.7426314071261,366.5732377121453 405.83093014471564,364.68961436218314 408.4279091560754,364.28148438684303 411.51620789369144,366.5732377121453 415.3063930596494,372.5845155402362 425.85808139709656,382.4077058797823 407.5856460120554,399.5843918203046 378.71472910097583,414.0727067224857 373.4505831276037,417.615552901298 369.4966248552648,421.91042257458287 365.7064396893068,434.1340625404244 361.4249343899071,440.43241865767817 357.28380580618347,443.9728321878693 350.40532149544856,448.04546976997557 340.2747653407433,458.06858546731377 337.11627783815294,462.46853275701926 331.8521314576199,472.2843935423728 329.3955299762353,474.24100356393353 325.81591069806586,475.18014149133865 308.385738457022,474.6166615978879 304.38498740327543,473.22357874208103 301.9985746868651,471.04776445017643 300.10348210387565,468.27694502338915 299.6823503282966,465.7564208923539 300.31404799166427,463.3923009002638 304.1042331576469,459.7597280305875 305.01668506664305,458.0999033061764 304.94649630166685,455.8136121570543 303.89366726985827,453.15132113196887 295.0966939854027,442.07734203693065 293.201601402436,439.085096750798 289.83254801203054,430.15397123547115 288.5691530924334,423.7912363336436 287.7268895412753,420.9386326999136 285.0597225792383,418.39932383456244 282.1819893222765,418.21122033646566 277.4091630751606,419.55927584384165 272.14501750895124,422.75679971227567 267.84011581884675,427.834672682667 263.2778558666822,431.9403624994713 260.1895567219318,435.7635875425541 257.8031440055234,437.6750569894186 254.36390225732913,438.74042466299534 250.5737170913465,438.5837551535214 243.67183638990684,436.1396215718766 240.1624054695509,433.49163459480974 237.0039183741233,431.9873720461957 234.19637347497493,432.128399249988 225.49298534622307,436.57832382866945 211.57224361839698,437.2990374566767 216.83638959176912,448.734643254029 217.3277101323225,451.1153270844032 216.83638959176912,453.1826429807036 215.2220516615407,455.43777021846324 211.92318662899984,458.6009901600789 208.20319022801806,461.38816481251087 204.1322508164069,463.03219083274547 198.2364071796671,460.66790318039415 190.07113196576654,453.9970097132164 186.49151268759715,451.8670913446341 182.6311387566402,451.4442256568837 166.11341842461712,454.0283314173157 162.463610381445,453.8717242765278 158.3926705626995,451.64782817539174 156.7783326324957,450.4261968717616 156.07644661129189,448.5153621978932 156.35720085689204,446.00920497785694 158.04172755209663,443.1269222562189 159.4455000016708,441.12172881056017 160.00700890006226,439.74309721771624 159.4455000016708,438.5837551535214 158.04172755209663,438.1137411525937 152.98814787367584,438.0510722933676 150.1806029745275,437.4557127550552 147.58362437032858,436.07694948947983 145.89909767515238,434.63546225932953 144.54211759984963,433.773677429464 142.92777966964584,433.49163459480974 135.34740933770524,434.66679976289845 130.43420637493784,436.70366625386106 132.4696760807169,439.335764821399 134.8326928135587,446.1345171601026 136.33005001167572,458.47571865067897 131.06590363114273,464.25342126264286 124.67873986098773,466.3043748924882 116.79421929987657,462.9382482127921 101.28253521822975,453.4958638789181 95.22291847510907,451.03701738143604 91.08179029852171,451.74179786898225 87.57235937816763,456.47132656347196 86.16858733575432,463.3923009002638 87.9233023887705,470.7190331377961 115.25006932032535,492.3779521889468 116.56025661419582,498.9796179876973 116.58892044569758,499.1232675100354 87.59372907047822,487.1683972821747 81.10911158606028,482.8805735167373 72.85596210156075,479.2084364510472 42.12771848747451,489.04108987871024 41.73882933629347,482.69192640741494 42.06637617692672,466.85183168356957 38.463360477610344,460.4012273353407 34.252043567574155,456.32989915488326 33.17581810486137,453.9182170888899 33.456572927713374,451.4124131359457 33.22261057530766,447.34013187772126 33.784119315554676,444.3169670491419 35.515438912208474,441.16823706054396 36.59166437501027,436.8441864043821 33.69053482736502,422.8660241885393 36.03015518202245,420.6716800183975 39.726755369492494,420.170097927203 42.44071503522757,417.9128976617131 44.82712831310808,407.69113352080643 41.5048674366797,403.48875986505664 41.364489572501526,403.3946711624589 37.19996558567706,394.25132564699766 35.56223138274378,382.6425650009298 36.076947652468746,370.6222237776739 38.27619104844098,360.1837499159164 46.55844745702297,342.0312962463716 45.48222199429693,336.2037268748387 44.35325047494904,334.8334242332092 37.574304444015795,326.6043655532051 11.651310208246716,307.36697216509685 4.538863750578531,299.5214981598828 4.492655772842534,299.4216090082513 0,289.70845897171813 1.3101878151165993,283.259415562303 5.127304608850762,279.1367267152759 14.739608732282646,268.75295602321046 58.11617227158705,201.21435123838546 58.537304053124245,198.06130791600776 58.25654968301305,189.704480829328 59.14560526385353,185.2730415544844 63.40371464433602,175.2728110071529 65.74333499901996,171.78630864537578 88.90557755130871,144.9090141973933 94.94179809347406,134.89816966981246 103.87914863603494,129.00727696158344 111.27234901102238,120.50888577957788 117.54253190559155,110.27038184095149 123.017243707508,98.87522256376862 123.017243707508,98.78038044870851 125.54403394403583,89.57955229203932 130.9719532754965,84.8992370841545 137.47609806967944,81.16722150501808 143.0911877357627,74.73021388081247 145.6179775195895,67.40619712052325 148.14476775614384,51.34535909773991 150.76514248089921,42.89288643240532 158.34551273784797,30.543191798974096 170.18399237522428,16.542004300799945 174.76136563334586,12.388485488546374 182.9115275934941,4.991883122286535 193.43981986853248,0 203.78094226166073,5.356344074979829 210.75301130786502,18.648849118197155 214.5899889068103,34.28019004415635 214.98654980831014,40.38934867217163Z" name="Shkodër" name_en="Shkodër County" gn_name="Qarku i Shkodres" admin="Albania" adm0_a3="ALB" iso_3166_2="AL-10" iso_a2="AL" postal="SD" type="Qark|Region" type_en="County" wikidataid="Q193438"/><path d="M14.7827761271902,1208.8105302284205 14.641783841964802,1208.5121226396202 16.889293390764276,1201.4484480429508 23.042311068581657,1195.5933456543746 30.337505455611325,1190.1245701115458 36.01154558473355,1184.1225610078318 40.064431455895296,1174.8273200387118 41.86980777831438,1164.8760718244196 42.34878532703416,1129.4815096921075 43.82256184282239,1119.8339274838643 47.875447714012545,1113.3847230472693 56.23913016555109,1110.959936223008 60.99205997228365,1108.7532494249297 59.776194165653656,1103.6604220975985 56.460197005110736,1098.057548258831 54.875887069518065,1094.3461130954313 56.86548545639198,1089.54255821437 60.10779397225611,1084.7141493036922 63.09219177893739,1081.1227858958725 64.38174623024238,1080.079287918486 60.77099358546102,1073.2351922043886 53.91793197207472,1064.3263683660007 49.4229133272412,1056.5568032653478 53.32842145628562,1053.2542712900545 60.18148306967382,1050.6557599041794 69.06098739229805,1037.830672516059 76.46671519910754,1032.461348304528 70.16631977914443,1039.5069168533669 73.96129448840902,1053.4971139934323 70.27685319892615,1065.4431168132744 70.27685319892615,1078.0407458898455 73.66653945688488,1078.0407458898455 75.06662732799622,1069.5214057683647 74.99293823055389,1071.3662064617981 75.6561378437588,1073.3808233411567 76.46671519910754,1078.0407458898455 82.43551035972739,1069.9583401617435 106.20015939339021,1058.4507767999673 113.82695358702044,1049.1742879406518 114.60068616726626,1034.4779678385235 109.84775636053558,1022.7412401339078 103.87896119991385,1011.9490911417469 101.15247410239269,1000.2055989935075 99.60500848916404,1015.5468048517156 94.00465745748225,1029.3025778194099 82.32497739268649,1047.182713546173 82.14075532820326,1044.5595094596356 79.56164597282974,1041.0130460105186 84.42510919934212,1036.0571760764312 89.62017177971805,1027.625896290418 92.89932507063587,1016.713559923479 91.86768132848911,1004.290692190687 89.62017177971805,1001.3484954374892 82.28813307032436,998.2844852356193 79.67214714262352,996.2078024470192 79.71123480062312,996.1081618950052 84.62443735622962,983.5817971815466 85.53688967238668,982.60855732796 86.94066171479999,981.4962540564759 88.27424580653421,981.681640044851 90.66065852294264,980.5384116270246 90.94141276857307,978.7771563218 90.45009263515406,976.8613151472483 88.6251884099762,973.8328579307104 88.97613182774181,973.6010777950352 90.02896085955038,973.5238181612094 92.41537357595881,972.9366360767473 93.91273077407773,973.2147759461827 95.59725746925393,974.7290581424829 99.24706591958504,979.9358859107928 101.9142328815955,981.1872749162825 103.8093254645887,980.213975940517 105.49385215978953,978.0664521417232 108.02064240614847,974.0182797580785 110.12630087693026,972.5039705384502 112.44252482833976,972.2103729325729 114.40780617630537,973.0911585905193 116.30289875929668,973.6474341473458 123.27496781857442,973.8792129322625 127.76703900576463,973.276585015066 131.48703540674643,970.989602596194 139.2779716264775,964.6687980854609 143.7700428136412,961.8712456700123 147.16249259475143,960.3255505096334 148.7768309321142,960.5728656760256 152.0756955575188,962.3040290465217 155.58512647787288,962.8604583044659 156.07644661129189,963.169581944276 156.4975779797063,963.7878229567992 157.1994640009139,964.344231067082 161.69153559526498,964.344231067082 163.02511927983832,964.9933634814992 163.79719406604676,965.98249754992 166.18360678242868,966.5079639909602 168.64020867097608,965.4879336481426 176.45454046711103,960.758351560566 178.84095359065572,959.7536280515224 180.03415974527854,959.6608822943427 180.87642329646317,960.0473188055366 181.57830972482975,960.8820074305893 181.78887561261834,962.3658553894852 181.71868644048317,963.5714398236707 180.59566905083275,967.9297812463445 179.82359385748995,971.5459080895598 180.03415974527854,973.971924921559 180.87642329646317,977.9119493113575 182.98208176724307,983.2573862326051 186.77226693320105,988.1078153364423 193.29980782619685,991.9691911832645 204.34281629705924,995.1506781475135 220.6265747577252,993.8842916556636 225.14204274278106,994.8109200377443 229.84467981776177,998.5480962660835 233.07335567816367,1000.3393432227626 236.5125978335453,1000.138604637117 238.4076904165347,999.644473503502 244.44391117608876,1002.0841866006447 243.88240227769543,1013.5858484404156 240.37297135733948,1020.6241231016099 240.02202875389938,1022.6304165955258 241.1450461435214,1036.887570254133 241.07485778570984,1039.8957218478124 239.1095768449051,1050.460985636976 239.0393876727415,1053.6994005634383 239.3903310905052,1057.153414207165 240.44316012231567,1060.715047069055 244.58428829890303,1068.9626074169691 248.51485099483617,1073.0009666910935 251.20541434757791,1075.0816378680645 269.45445374904864,1080.3675868843716 271.7706781076436,1083.295357183909 272.28539463176554,1084.6821190789021 272.84690353015884,1086.9932804187385 271.48992386201695,1089.6586502166062 270.36690565806947,1091.18383859725 255.76767429974245,1090.752478621228 251.1352255825771,1091.9541127324928 248.88918998898103,1089.3659309254256 246.92390864101353,1086.192093366676 245.70730650284867,1085.2059946381764 244.65447706387735,1084.990282083614 239.67108533613566,1087.5171245552156 232.79260143256164,1089.9359616083104 229.4235480421827,1091.6151943635052 227.38807792921438,1093.0170664882041 226.19487136742876,1096.0671221221319 224.15940206881058,1099.9948745630018 224.01902453883542,1101.7352825933963 224.3699675494383,1103.2908022817044 224.5103450794134,1104.553654340396 222.96619550702687,1107.418021774145 222.8258183842107,1109.4506725933584 223.15336500411067,1111.6371940957906 223.01298747413554,1113.638831912226 221.00091415905936,1114.3470790894135 218.7314821747339,1113.9159737976613 208.20319022801806,1113.9775600220278 207.50130420681046,1120.2281179582935 207.6416813296001,1122.8604442602368 208.83488748422295,1127.308828848208 211.08092348497985,1132.3261239163971 219.57374572591664,1143.6819278338687 221.2816684046614,1147.8049031020814 220.72015991343082,1153.5425023633604 218.52091628694532,1159.310021916832 218.2401620413433,1161.2784749995242 218.2401620413433,1163.6773940708827 218.66129381692045,1167.8597735007454 219.22280230815102,1170.78102455885 221.1880840632794,1173.2101109752514 227.0371349186115,1176.2539429552635 230.827320084596,1177.5451946994865 234.6175052505521,1180.0353459849946 236.86354084414626,1182.0642416344865 239.7412736939472,1194.54272199036 252.1178662565722,1208.8604350391333 254.43409061514257,1213.46803347347 253.59182706395984,1218.627903105287 249.80164189800183,1222.482007646833 246.36240014978296,1225.245675012991 243.32089337930398,1226.79631454231 242.47862982812126,1227.5946397145294 242.8997616037003,1228.1166121922333 245.0756088394545,1228.4850599109873 247.3918331980514,1230.1737334091808 249.59107601018675,1233.8885597569788 256.2589948402958,1252.181274381461 261.17219739590234,1258.7473931922505 272.0514323532457,1266.2786726621773 278.32161539131766,1268.5025027173922 282.3925552100651,1271.2782797223751 284.006893140267,1272.6737629208492 286.53368338665246,1283.2532899702462 280.216707974309,1284.1271240881126 278.0408607385283,1285.4301743164085 275.72463678711875,1288.1894323673564 272.9872810601321,1293.5234505970586 270.01596305462743,1297.6920667646302 266.99785226766403,1301.2932738943207 253.31107281835781,1312.3706738590774 250.29296203139435,1316.1084035613903 237.3548609775653,1342.5075395873278 235.74052345449965,1345.0179079001275 234.75788237336639,1346.3342573474697 228.37071860320947,1345.1097478291015 222.31110145292982,1343.6402865639675 217.8190302657396,1344.4056380314623 214.37978851754534,1343.3035273102573 211.57224361839698,1340.8389742424529 210.6597917094027,1338.5885970904285 210.6597917094027,1336.2003004902565 211.4318664955827,1333.934347669566 212.06356415897687,1331.055787745872 212.20394128176463,1328.146391574162 210.87035759719126,1321.6683882389377 210.6597917094027,1319.6007168018737 211.221301014955,1317.7626960221621 211.92318662899984,1311.7272586663676 211.92318662899984,1308.0503981878007 210.94054595500472,1306.2731259249556 209.25601925982662,1305.2005955086952 202.5179128862031,1303.8675528777649 201.81602645783653,1302.9941551295105 201.74583769286033,1302.1207391283674 202.2371582334402,1301.4311859709455 203.00923301962212,1300.7416213039924 203.64093027585352,1298.7954499931318 203.92168492861643,1295.9296539698953 203.2197989074107,1290.4886662744088 201.60546057004794,1287.4383200335733 198.79791607805856,1283.9431607591923 197.04320102504428,1282.7933690544824 195.21829679989105,1282.3947675516645 194.07188301953963,1282.7013846549323 192.87867645775404,1283.2532899702462 191.61528113099223,1282.9773382775234 189.3692455373981,1281.6895383714148 186.49151268759715,1279.3591272613153 184.24547668684212,1278.163204979859 182.42057286884975,1277.9178832720875 180.59566905083275,1278.1172074092433 178.91114235565655,1278.0098788244227 175.82284280371877,1276.5379189067185 163.02511927983832,1267.4289452801952 154.602485396715,1267.5056289997012 148.5662650443256,1266.3246840402826 145.19721165394478,1264.530194108401 140.9624983216537,1264.8829636992295 138.6462743702461,1264.1467456233302 137.1021243907214,1262.9810386691702 135.69835234830808,1257.2133508361355 134.71571167431296,1254.9735422660376 135.06665468491582,1253.7308542254848 134.78590003212452,1252.8870314250976 133.94363729529192,1252.1199036762266 131.90816718232549,1251.5215338921155 129.66213158872944,1251.5061913684763 126.22288943337429,1252.6262092703894 123.27496781857442,1252.4881264743728 121.23949811276884,1251.7516774382198 120.11647990882321,1249.5422461657183 119.83572566319467,1247.977157208573 119.9761031931717,1246.16648623323 119.88251803746608,1244.693337594867 118.47874558789191,1242.913209089744 115.81157862587955,1240.9641822398248 105.07272038418584,1235.4388590790231 100.65083755483559,1234.103456475141 96.50970978543751,1233.7964611862094 94.19348542684062,1232.5991558973822 93.25763712714155,1229.590381853014 93.6787689027206,1227.3950594042094 93.25763712714155,1225.2303217194135 91.50292166696451,1223.1115263627528 86.44934158138287,1219.979185881802 83.57160832441917,1217.7065475436789 81.81689286424213,1215.5412766182942 81.67651614859062,1213.8980481287356 81.81689286424213,1212.5926313139628 81.81689286424213,1210.9185619885802 80.76406383243167,1209.9355895115 78.37765111602324,1210.0584623467612 67.61539689078941,1214.8502075233719 63.12332570359919,1215.5566331557534 56.10446427005003,1211.1028670296237 46.488624232328476,1207.2937286330912 40.07806407144407,1205.7269603940272 33.48033441347396,1205.1893288074475 26.180718734320877,1207.723811279165 14.903747984940514,1208.7989967994774 14.7827761271902,1208.8105302284205Z" name="Fier" name_en="Fier County" gn_name="Qarku i Fierit" admin="Albania" adm0_a3="ALB" iso_3166_2="AL-04" iso_a2="AL" postal="FI" type="Qark|Region" type_en="County" wikidataid="Q231900"/><path d="M79.67214714262352,996.2078024470192 79.56164597282974,996.1200794095053 76.31933745696371,989.431550352781 76.61409248848784,986.2206502469708 78.53000223065835,983.423059639826 83.46715410187416,937.9767205224275 81.10911158606028,928.3792424935561 78.53000223065835,924.3349278420973 76.57724816614845,919.6079078780022 76.9088479727509,915.7089030672715 86.783151715156,911.2489383880758 88.33061732838654,904.4483376868222 88.33061732838654,896.3543194255047 89.06750558629297,889.5267317445813 107.52655816705922,859.7151655334766 110.73202236056123,848.2430947052266 110.438063841934,845.8181306360909 110.54743224534656,845.8047210823169 121.80100660402593,844.4249509860093 134.22439154089395,849.7112196039081 142.71721378183074,855.6942235464829 151.72475254691594,839.1069525917156 163.51643941325736,828.8410042242874 166.25379554742952,824.3740049163433 167.587378824842,817.8276827249585 167.93832224260572,810.7837249737502 167.51719046702854,803.3349788667736 168.4296427831856,793.0595723509488 168.3594540182113,788.4953020716647 167.3768129370515,785.7316397296674 162.9549309220268,783.7907481048077 160.4983290334794,781.2907364773573 157.90135042928048,775.3894489966362 157.55040741867762,768.30671830405 158.4628593276738,734.241844772614 170.2779425847446,731.5676043888739 179.54283961186331,734.0241808050989 182.28019574603738,732.6559799156764 184.4560425746307,729.8572367492836 185.78962666639143,726.6539831589015 188.10585021063818,723.8081518677368 189.86056607797798,725.1922163807826 191.19414935541508,728.6443859240162 192.66811056996545,738.6725933730858 193.58056247895976,741.5017886062744 195.1247120513482,744.2841480356637 197.1835777406958,746.0249635692967 198.44697266029485,747.3926925937352 199.569990864267,749.1799930922077 200.6228203032383,752.2415248454192 202.44772371406793,755.970983003897 205.25526820605353,757.4937422007641 210.6597917094027,757.6491220218015 214.52016523317224,756.4682166302348 219.22280230815102,754.0752199557753 232.44165842195878,744.7659888375828 251.1352255825771,737.1801873232677 253.31107281835781,735.6721768764394 254.29371308516744,733.3089912071945 254.78503362574543,730.9767590332167 255.83786306471677,729.2352668487588 257.8031440055234,730.1371207588404 262.15483806989744,733.8220638261125 265.66426858309063,734.2884872401697 269.66501963686375,732.6248841746316 277.4793522472977,725.0367053050986 281.1291598833052,720.3244451293389 287.02500352006956,708.9224465509759 288.28839843966864,705.7330187836745 288.7797189802466,702.3410469009032 289.34122787863805,695.9141568066719 294.5351850870093,696.1320350828629 298.348766236534,698.4041196891534 303.6831013820697,702.8856501277207 312.4566778686085,712.5938521640126 321.93214078354043,726.8405881513191 323.0551585803517,730.8212717164188 323.5698751044717,733.371182107508 324.2717611256774,735.128035562516 326.8687397298763,738.7814127263813 327.3600602704297,740.8644607404887 328.13213505663623,743.1805545799469 329.60609586402575,745.6830237728174 337.8883522171721,752.7698864485309 345.53891090695265,757.4005130358055 348.7909835652467,760.9585729627374 352.7215458540189,767.4212866487065 355.52909075316734,768.9591294085154 358.6173894907568,768.4620553537425 363.4604036885499,763.7550716834668 365.9170055770973,760.2283430334597 378.6445407431624,760.1351209831234 395.84075111282453,778.6507972536288 402.0407449787595,783.3715026243829 436.31618539318634,795.419121064191 433.5788292590123,802.2020232565594 432.45581105506665,804.2040727054043 430.3501525842849,806.1594628730641 406.0414960325307,812.8939427702497 401.47923648752896,815.2057415570968 391.4188682834724,823.784570988813 383.97887548150885,838.1766159262822 376.46869391454254,838.9053815186144 373.497375909036,840.9985692904888 366.3381373526745,848.2850829855367 363.8113471063155,850.0832469017123 360.93361384935184,850.8892937500804 357.0732399183949,850.1297498614077 354.12531830359313,848.7191303118927 352.0898481906267,846.8588940715425 349.2589077150953,847.0449220772628 345.6792884369278,849.5252054299002 339.0815587789577,857.4610480054757 333.4664693878199,866.4799042656277 319.75629395494707,882.2811073431841 316.52761728021966,885.1927867158188 296.52386282570626,895.5987101565489 286.744249274441,897.7662615788637 265.1729484496735,906.6519596955302 254.29371308516744,916.0617784501588 254.7148448607711,917.5473317157852 255.97823978036826,919.2494592201032 258.64540755670424,920.1469139830726 260.1193683640919,921.1062398520768 259.9088024763014,922.4368782774479 257.8031440055234,924.9123644661616 252.04767789873225,927.2639303480012 243.1103274914889,929.0584513922321 229.1427933893914,927.820859008464 214.66054276314927,928.9346935444111 213.74809085415308,935.354091041298 212.27413004676546,937.9060872152667 209.39639678977713,940.6434990349353 198.79791607805856,945.8858006676535 195.07791926991592,949.5967389755987 193.65075124396057,955.7344743069438 193.2296194683569,960.2946357346816 193.08924193838175,965.6115750764358 191.61528113099223,968.1306859379464 190.14132032360652,969.6606184435441 180.59566905083275,967.9297812463445 181.71868644048317,963.5714398236707 181.78887561261834,962.3658553894852 181.57830972482975,960.8820074305893 180.87642329646317,960.0473188055366 180.03415974527854,959.6608822943427 178.84095359065572,959.7536280515224 176.45454046711103,960.758351560566 168.64020867097608,965.4879336481426 166.18360678242868,966.5079639909602 163.79719406604676,965.98249754992 163.02511927983832,964.9933634814992 161.69153559526498,964.344231067082 157.1994640009139,964.344231067082 156.4975779797063,963.7878229567992 156.07644661129189,963.169581944276 155.58512647787288,962.8604583044659 152.0756955575188,962.3040290465217 148.7768309321142,960.5728656760256 147.16249259475143,960.3255505096334 143.7700428136412,961.8712456700123 139.2779716264775,964.6687980854609 131.48703540674643,970.989602596194 127.76703900576463,973.276585015066 123.27496781857442,973.8792129322625 116.30289875929668,973.6474341473458 114.40780617630537,973.0911585905193 112.44252482833976,972.2103729325729 110.12630087693026,972.5039705384502 108.02064240614847,974.0182797580785 105.49385215978953,978.0664521417232 103.8093254645887,980.213975940517 101.9142328815955,981.1872749162825 99.24706591958504,979.9358859107928 95.59725746925393,974.7290581424829 93.91273077407773,973.2147759461827 92.41537357595881,972.9366360767473 90.02896085955038,973.5238181612094 88.97613182774181,973.6010777950352 88.6251884099762,973.8328579307104 90.45009263515406,976.8613151472483 90.94141276857307,978.7771563218 90.66065852294264,980.5384116270246 88.27424580653421,981.681640044851 86.94066171479999,981.4962540564759 85.53688967238668,982.60855732796 84.62443735622962,983.5817971815466 79.71123480062312,996.1081618950052 79.67214714262352,996.2078024470192Z" name="Durrës" name_en="Durrës County" gn_name="Qarku i Tiranes" admin="Albania" adm0_a3="ALB" iso_3166_2="AL-DR" iso_a2="AL" postal="DU" type="Qark|Region" type_en="County" wikidataid="Q192853"/><path d="M110.438063841934,845.8181306360909 109.25824584474648,836.0838879090245 104.54216036037793,825.6063405487965 97.79963216677335,818.2044128844775 90.50443777974368,815.4191639216385 80.59328971497459,815.4191639216385 72.26645158579817,813.8554277053775 66.51872235926014,808.5284793150662 64.38174623024238,797.1635106267385 64.38174623024238,772.344542191118 62.834281069750745,767.0118947792251 56.12859719851018,760.773233808089 54.875887069518065,753.8728404658783 60.84468223013791,761.7763801295231 70.94005235939214,761.2136428519425 78.38262448853914,752.869489065738 76.46671519910754,737.424397325309 87.18844016646185,731.4013461790646 98.35229836019654,722.2180642388628 107.12126971575336,709.7253057097154 110.73202236056123,693.7482981459164 109.62668997371296,683.7715756538373 106.45807010255034,679.9714104189518 101.55776300643747,678.4757593220334 95.25736758647436,675.4107193985544 88.73590577969051,669.1327591521033 81.47755571500024,656.7700460086468 76.46671519910754,650.3663724109883 115.92708539367608,655.6905735837014 128.74894216768413,651.7649664622514 130.08326295717222,652.8279859350049 144.40174047703536,660.6951448439796 146.03947479796665,657.0655462403026 146.9285307233943,656.2087239107703 148.49607627934938,655.4765150950071 155.3745605900843,654.6196580815802 165.48172076122296,650.4908974808332 168.07869936542187,650.6934507116287 175.75265444590534,655.4609359179866 177.71793538671008,657.2369081017364 181.57830972482975,662.2216551699889 184.03491079905353,664.5891855085486 187.33377583161712,666.8164002336823 193.0190535805664,667.4549488736382 200.13149976265842,666.6295056101352 214.2394109875702,662.0970444079251 219.85450037870606,657.9535048566199 222.8258183842107,654.1834328756656 223.45751604760486,651.752942994535 224.5103450794134,649.5716042986915 227.17751204142579,647.608293757581 229.4235480421827,647.7329517825848 231.88014911637805,649.3223007935748 235.95108893515197,654.3703865959344 240.1624054695509,658.3273760093456 243.5314588599298,660.8197601249065 255.4167312891377,661.6609030354953 271.48992386201695,681.7805810091736 289.34122787863805,695.9141568066719 288.7797189802466,702.3410469009032 288.28839843966864,705.7330187836745 287.02500352006956,708.9224465509759 281.1291598833052,720.3244451293389 277.4793522472977,725.0367053050986 269.66501963686375,732.6248841746316 265.66426858309063,734.2884872401697 262.15483806989744,733.8220638261125 257.8031440055234,730.1371207588404 255.83786306471677,729.2352668487588 254.78503362574543,730.9767590332167 254.29371308516744,733.3089912071945 253.31107281835781,735.6721768764394 251.1352255825771,737.1801873232677 232.44165842195878,744.7659888375828 219.22280230815102,754.0752199557753 214.52016523317224,756.4682166302348 210.6597917094027,757.6491220218015 205.25526820605353,757.4937422007641 202.44772371406793,755.970983003897 200.6228203032383,752.2415248454192 199.569990864267,749.1799930922077 198.44697266029485,747.3926925937352 197.1835777406958,746.0249635692967 195.1247120513482,744.2841480356637 193.58056247895976,741.5017886062744 192.66811056996545,738.6725933730858 191.19414935541508,728.6443859240162 189.86056607797798,725.1922163807826 188.10585021063818,723.8081518677368 185.78962666639143,726.6539831589015 184.4560425746307,729.8572367492836 182.28019574603738,732.6559799156764 179.54283961186331,734.0241808050989 170.2779425847446,731.5676043888739 158.4628593276738,734.241844772614 157.55040741867762,768.30671830405 157.90135042928048,775.3894489966362 160.4983290334794,781.2907364773573 162.9549309220268,783.7907481048077 167.3768129370515,785.7316397296674 168.3594540182113,788.4953020716647 168.4296427831856,793.0595723509488 167.51719046702854,803.3349788667736 167.93832224260572,810.7837249737502 167.587378824842,817.8276827249585 166.25379554742952,824.3740049163433 163.51643941325736,828.8410042242874 151.72475254691594,839.1069525917156 142.71721378183074,855.6942235464829 134.22439154089395,849.7112196039081 121.80100660402593,844.4249509860093 110.54743224534656,845.8047210823169 110.438063841934,845.8181306360909Z" name="Durrës" gn_name="Qarku i Durresit" admin="Albania" adm0_a3="ALB" iso_3166_2="AL-02" iso_a2="AL" postal="DU" type="Qark|Region" type_en="County"/><path d="M128.74894216768413,651.7649664622514 132.72813939416898,650.5381318571377 141.6076437167686,629.7496403857966 144.70257449048887,629.7496403857966 144.99732997475382,636.3776469383662 146.6921733301036,639.912118827817 149.86079320126623,640.5011663392459 154.35581184607324,638.3658275070715 150.74505920129187,622.1628590161889 148.5343939748564,617.9637079271075 144.70257449048887,621.868196805466 142.63928745891346,617.0059428993105 129.3016083611073,605.0195908772156 138.5864015877498,588.65515774913 137.77582423240105,569.7512473966442 135.4177817165853,549.534209618957 135.49147036128872,538.6342517621847 143.74461984576172,541.4887149158745 148.0185721037726,533.6138205387196 148.38701623271257,520.8875394686125 144.70257449048887,509.36379429219585 141.79186578125183,509.51155668249373 116.58892044569758,499.1232675100354 116.56025661419582,498.9796179876973 115.25006932032535,492.3779521889468 87.9233023887705,470.7190331377961 86.16858733575432,463.3923009002638 87.57235937816763,456.47132656347196 91.08179029852171,451.74179786898225 95.22291847510907,451.03701738143604 101.28253521822975,453.4958638789181 116.79421929987657,462.9382482127921 124.67873986098773,466.3043748924882 131.06590363114273,464.25342126264286 136.33005001167572,458.47571865067897 134.8326928135587,446.1345171601026 132.4696760807169,439.335764821399 130.43420637493784,436.70366625386106 135.34740933770524,434.66679976289845 142.92777966964584,433.49163459480974 144.54211759984963,433.773677429464 145.89909767515238,434.63546225932953 147.58362437032858,436.07694948947983 150.1806029745275,437.4557127550552 152.98814787367584,438.0510722933676 158.04172755209663,438.1137411525937 159.4455000016708,438.5837551535214 160.00700890006226,439.74309721771624 159.4455000016708,441.12172881056017 158.04172755209663,443.1269222562189 156.35720085689204,446.00920497785694 156.07644661129189,448.5153621978932 156.7783326324957,450.4261968717616 158.3926705626995,451.64782817539174 162.463610381445,453.8717242765278 166.11341842461712,454.0283314173157 182.6311387566402,451.4442256568837 186.49151268759715,451.8670913446341 190.07113196576654,453.9970097132164 198.2364071796671,460.66790318039415 204.1322508164069,463.03219083274547 208.20319022801806,461.38816481251087 211.92318662899984,458.6009901600789 215.2220516615407,455.43777021846324 216.83638959176912,453.1826429807036 217.3277101323225,451.1153270844032 216.83638959176912,448.734643254029 211.57224361839698,437.2990374566767 225.49298534622307,436.57832382866945 234.19637347497493,432.128399249988 237.0039183741233,431.9873720461957 240.1624054695509,433.49163459480974 243.67183638990684,436.1396215718766 250.5737170913465,438.5837551535214 254.36390225732913,438.74042466299534 257.8031440055234,437.6750569894186 260.1895567219318,435.7635875425541 263.2778558666822,431.9403624994713 267.84011581884675,427.834672682667 272.14501750895124,422.75679971227567 277.4091630751606,419.55927584384165 282.1819893222765,418.21122033646566 285.0597225792383,418.39932383456244 287.7268895412753,420.9386326999136 288.5691530924334,423.7912363336436 289.83254801203054,430.15397123547115 293.201601402436,439.085096750798 295.0966939854027,442.07734203693065 303.89366726985827,453.15132113196887 304.94649630166685,455.8136121570543 305.01668506664305,458.0999033061764 304.1042331576469,459.7597280305875 300.31404799166427,463.3923009002638 299.6823503282966,465.7564208923539 300.10348210387565,468.27694502338915 301.9985746868651,471.04776445017643 304.38498740327543,473.22357874208103 308.385738457022,474.6166615978879 325.81591069806586,475.18014149133865 329.3955299762353,474.24100356393353 331.8521314576199,472.2843935423728 337.11627783815294,462.46853275701926 340.2747653407433,458.06858546731377 350.40532149544856,448.04546976997557 357.28380580618347,443.9728321878693 361.4249343899071,440.43241865767817 365.7064396893068,434.1340625404244 369.4966248552648,421.91042257458287 373.4505831276037,417.615552901298 378.71472910097583,414.0727067224857 407.5856460120554,399.5843918203046 425.85808139709656,382.4077058797823 439.1939182429854,384.745442625578 444.6686301041461,388.82437347407057 446.63391104497737,392.71464110654256 450.5644737409105,403.724469125792 450.7048504565639,407.3937095341378 449.8157949382725,410.67063992326587 448.45881527013063,413.8689047687488 447.96749513671347,418.13284347029577 447.8973063717373,422.78814691774176 448.31843774015545,428.7436038601039 447.6867404839487,431.75232537308057 446.42334515716226,433.63265627123064 437.7901457934112,440.99640026547706 435.8950532104464,443.00160134757056 434.7018470558217,444.7404009363102 433.4384517290618,446.00920497785694 432.0346792794876,446.80806006601335 430.56071847207346,447.9358277031571 429.2973235524763,449.7057290875269 423.3780839321699,460.66790318039415 423.5184610549842,469.34146357834067 415.9380907230417,481.97255320156023 410.95469940243436,485.57173100798235 405.1992328885107,491.626980064444 401.1984822418985,496.9147637416942 395.6301852250341,499.2924647731712 390.015096241061,500.43433516992695 385.38264752392024,500.85666216332055 382.43472590911847,501.79514962771844 381.38189687730994,503.29668161616826 382.08378289851754,505.3924731582319 401.54942484534047,522.2015933812006 403.6550833161223,526.4066339095856 403.93583756174894,534.8465931191333 403.6550833161223,538.4720822472467 400.07546403795476,543.9252992167873 356.65210854995206,561.6077865539446 353.2830547524123,564.0283433687607 351.3879621694191,566.6048988093585 349.5396619606992,573.9276204962971 347.8083428912516,577.1123367013553 344.83702488574505,579.7036270353069 340.7660854741604,580.9211610729307 325.0438363190202,578.048967619294 320.31780244617767,577.986526302203 317.3698808313759,578.6577661123428 311.8249802052409,582.7786071383742 310.35101939782675,584.1052991645367 309.92988762224957,585.6972698943383 309.78951090659615,587.975858707457 308.2453609270468,590.4103666342191 305.3676280772459,591.3778842154575 296.1495234243721,588.475257574189 293.06122468678257,586.4151956367274 291.23632046160475,584.5579247294464 288.4989643274572,579.2353345178282 287.095191877883,578.3299525664955 280.0061420865204,582.0450048594242 271.91105563759413,584.6047481539176 265.45370310246295,585.4787679136135 255.55710841192735,582.9815159661739 250.36315120355795,579.3133837562721 246.68994676968293,577.455770752373 245.14579719729636,577.0186721407675 243.25070461430317,587.1331085581625 244.51409994106308,612.7195302720662 242.75938448088604,620.2674032370492 241.42580120347355,621.8578827569357 240.7941031329204,624.0096037756912 241.70655544907558,626.53538382558 248.46805862056473,634.1429085104214 250.64390544915807,637.5096947204671 252.1178662565722,642.0917939556653 251.76692324596937,646.4240270725583 255.4167312891377,661.6609030354953 243.5314588599298,660.8197601249065 240.1624054695509,658.3273760093456 235.95108893515197,654.3703865959344 231.88014911637805,649.3223007935748 229.4235480421827,647.7329517825848 227.17751204142579,647.608293757581 224.5103450794134,649.5716042986915 223.45751604760486,651.752942994535 222.8258183842107,654.1834328756656 219.85450037870606,657.9535048566199 214.2394109875702,662.0970444079251 200.13149976265842,666.6295056101352 193.0190535805664,667.4549488736382 187.33377583161712,666.8164002336823 184.03491079905353,664.5891855085486 181.57830972482975,662.2216551699889 177.71793538671008,657.2369081017364 175.75265444590534,655.4609359179866 168.07869936542187,650.6934507116287 165.48172076122296,650.4908974808332 155.3745605900843,654.6196580815802 148.49607627934938,655.4765150950071 146.9285307233943,656.2087239107703 146.03947479796665,657.0655462403026 144.40174047703536,660.6951448439796 130.08326295717222,652.8279859350049 128.74894216768413,651.7649664622514Z" name="Lezhë" name_en="Lezhë County" gn_name="Qarku i Lezhes" admin="Albania" adm0_a3="ALB" iso_3166_2="AL-LE" iso_a2="AL" postal="LZ" type="Qark|Region" type_en="County" wikidataid="Q193436"/><path d="M330.5185481801809,1072.415275968477 334.37892170397885,1073.8024234545233 335.642316623576,1074.4805659195574 337.11627783815294,1077.1930205696642 335.50193950078824,1081.3075789762247 335.29137361297506,1082.956363408656 335.3615619708131,1085.0827300835863 336.7653344203873,1090.5367965852727 337.0460886659893,1093.4329972098567 336.9759003081759,1096.0825259632077 335.50193950078824,1101.565864967363 335.50193950078824,1104.1532427591642 337.6777863293835,1106.0782635194075 343.9245729767507,1108.1109826889435 351.1773962816305,1108.8963237730034 356.58191978497587,1110.990488910847 360.6528596037252,1114.4702511598903 371.6724716838847,1132.9416988873297 375.6966191283606,1137.0042513330602 380.68001085610234,1140.0201161244888 390.99773650789524,1142.6972723977294 396.12150576561396,1145.4973204081025 399.4203703910186,1147.9741201871761 395.20905344945504,1154.8806423005897 405.5501758991136,1159.5253263675356 409.5509269528867,1160.6018298557497 416.35922249862074,1160.6633439700342 420.2897847874176,1161.4014999429248 423.6588385849593,1163.7235249846747 425.48374199578893,1168.1057818036252 426.4663830769468,1169.7970490807413 430.06939833865636,1171.3191266671095 444.6686301041461,1171.0270151150514 462.3093682329805,1165.1535783989582 467.8542684519546,1171.826472587908 470.1704928105496,1176.1463369519615 479.95010676897573,1199.1673599092874 483.81048029277366,1211.1028670296237 490.96971884911056,1222.9886942588846 492.09273664591996,1226.9191342363017 494.8300927800675,1230.6956722432815 496.865562485875,1236.9890973954616 500.3048046412282,1241.010223709218 502.6444249833671,1242.5755888404994 505.1712152297261,1242.6523209207614 507.4172504161594,1242.4528174149182 509.3825321712877,1242.7290528516307 511.4881906420695,1243.9567418229888 513.3130940528972,1244.5398806991839 518.4368633106425,1245.322501468436 520.8232760270243,1246.2585569625012 523.7711976418261,1249.2967458007513 524.3327065402195,1250.6162902139793 524.1221406524309,1252.457441639591 525.0579889521546,1254.2985070717775 525.0579889521546,1256.1701679587654 522.2972368344385,1264.269449501494 519.9810124758435,1267.3062512324132 519.0685609740101,1268.839900463253 518.0157315350388,1273.8391828917966 517.8051656472502,1276.0779202357703 518.1561086578531,1278.853164771673 518.9983718018731,1280.8003186038636 523.4202546312233,1285.4301743164085 525.1983664821051,1289.568988785066 525.9470448775822,1295.4852067193378 524.1221406524309,1319.141219623724 524.2625181824061,1323.1233513264226 529.9711919148955,1335.1898245097243 510.22479531530774,1337.7159665642514 502.22329320776345,1337.2719897309717 498.1289578126349,1339.0937948724304 497.5674485070807,1343.1504538287402 498.4097120582388,1348.4158357649976 498.620277946052,1353.2520232259706 497.28669426145404,1359.2046184668477 493.42632033049335,1362.5860279019687 489.14481503111824,1364.421966637159 476.0663364472875,1367.389886704883 470.59162458612866,1370.7553004835208 468.4157777575335,1372.7285238192253 467.64370256416606,1374.3804487135183 467.4331374906992,1375.6805266660335 466.029365041125,1378.3417284270342 464.41502670376224,1385.192737017588 461.3267279661462,1384.810457663967 451.54711400772015,1382.3790734374431 447.4761745961336,1379.9016606319508 442.14183985778715,1375.0687306271063 410.6739447496714,1334.3171189514474 409.4807385950467,1332.096992957546 398.9992386154149,1317.7626960221621 396.75320342898164,1315.6795014960571 393.3139608664656,1315.0055039651754 386.224911075103,1314.6531820972189 381.7328398879147,1313.0906737732462 378.57435238532435,1310.56295632777 375.46265684984076,1304.87883080993 371.1811515504675,1300.4198197333817 362.337386298926,1297.4775162815488 361.70568863553376,1301.0174482959405 361.5653111055586,1302.6570498067747 361.00380261432804,1304.6183521462035 360.37210495093575,1305.8441175740459 358.68757825575767,1306.0586220654486 356.3713538971873,1304.9707635438137 351.7389055871847,1301.9521830982276 348.41664416391444,1301.4618332706839 338.73061536119206,1303.315935719496 320.73893422175485,1294.1671624881885 310.49139692780375,1294.0905311024785 301.08612237070804,1292.3586113343113 286.53368338665246,1283.2532899702462 284.006893140267,1272.6737629208492 282.3925552100651,1271.2782797223751 278.32161539131766,1268.5025027173922 272.0514323532457,1266.2786726621773 261.17219739590234,1258.7473931922505 256.2589948402958,1252.181274381461 249.59107601018675,1233.8885597569788 247.3918331980514,1230.1737334091808 245.0756088394545,1228.4850599109873 242.8997616037003,1228.1166121922333 242.47862982812126,1227.5946397145294 243.32089337930398,1226.79631454231 246.36240014978296,1225.245675012991 249.80164189800183,1222.482007646833 253.59182706395984,1218.627903105287 254.43409061514257,1213.46803347347 252.1178662565722,1208.8604350391333 239.7412736939472,1194.54272199036 236.86354084414626,1182.0642416344865 234.6175052505521,1180.0353459849946 230.827320084596,1177.5451946994865 227.0371349186115,1176.2539429552635 221.1880840632794,1173.2101109752514 219.22280230815102,1170.78102455885 218.66129381692045,1167.8597735007454 218.2401620413433,1163.6773940708827 218.2401620413433,1161.2784749995242 218.52091628694532,1159.310021916832 220.72015991343082,1153.5425023633604 221.2816684046614,1147.8049031020814 219.57374572591664,1143.6819278338687 211.08092348497985,1132.3261239163971 208.83488748422295,1127.308828848208 207.6416813296001,1122.8604442602368 207.50130420681046,1120.2281179582935 208.20319022801806,1113.9775600220278 218.7314821747339,1113.9159737976613 221.00091415905936,1114.3470790894135 223.01298747413554,1113.638831912226 223.15336500411067,1111.6371940957906 222.8258183842107,1109.4506725933584 222.96619550702687,1107.418021774145 224.5103450794134,1104.553654340396 224.3699675494383,1103.2908022817044 224.01902453883542,1101.7352825933963 224.15940206881058,1099.9948745630018 226.19487136742876,1096.0671221221319 227.38807792921438,1093.0170664882041 229.4235480421827,1091.6151943635052 232.79260143256164,1089.9359616083104 239.67108533613566,1087.5171245552156 244.65447706387735,1084.990282083614 245.70730650284867,1085.2059946381764 246.92390864101353,1086.192093366676 248.88918998898103,1089.3659309254256 251.1352255825771,1091.9541127324928 255.76767429974245,1090.752478621228 270.36690565806947,1091.18383859725 271.48992386201695,1089.6586502166062 272.84690353015884,1086.9932804187385 272.28539463176554,1084.6821190789021 271.7706781076436,1083.295357183909 269.45445374904864,1080.3675868843716 279.30425565815193,1076.8231517384313 315.5449770133835,1081.1072546918783 326.6581738420612,1073.6945356688072 330.5185481801809,1072.415275968477Z" name="Berat" name_en="Berat County" gn_name="Qarku i Beratit" admin="Albania" adm0_a3="ALB" iso_3166_2="AL-BR" iso_a2="AL" postal="BE" type="Qark|Region" type_en="County" wikidataid="Q189296"/></svg>