<?xml version="1.0"?><svg fill="#3498db" stroke="#ecf0f1" stroke-width="1" width="800" height="800" viewBox="0 0 800 800" xmlns="http://www.w3.org/2000/svg"><path d="M374.1741741976876,9.605484145933502 383.7576706594895,9.294021577746715 386.83901286540504,7.182880080286584 392.55777501791255,2.0079841732044366 395.6913436840932,0 405.03982221168116,19.846649477797897 402.49379800203195,26.90193984828859 403.8908471604128,31.05104047811468 408.2256168327973,32.91787738165342 424.729076958655,32.935161679185065 429.05078995278365,34.33518326095872 442.27705946787955,44.702904164922074 445.5542498259849,49.45312480561499 445.88066324448954,54.77214065039437 437.211124152394,61.10836159594472 412.22091666107565,60.05533015339455 409.5312702542016,70.79041225054009 412.7823475084836,76.36297403912859 418.2530355538785,80.05422767535524 423.1361796480969,80.55439593878646 424.67685075103356,76.58722701030892 425.40801664680583,70.51433493845006 429.58610794903524,72.75736152575584 437.8378378856496,81.34774273152183 443.00822561632305,84.55533020932023 446.92518613319885,88.77965782542992 451.07716407897374,92.26195722614497 462.9847237471082,93.65816866447042 474.05666535692404,98.20816343713552 479.8145970388141,99.13872717794949 491.587702760257,93.26279167520337 494.0070503838964,92.05510354653974 500.9792400029023,91.29662304501866 502.51991110583896,99.19042424060908 500.3003003147261,109.97515094868925 503.40775537174943,113.35074319362715 506.97335362070635,114.28928266141084 509.49210072483015,114.95224511351877 516.1770464546718,120.44467589607535 526.9878572791467,134.35036330459766 530.9831571074251,138.4274579706962 536.1274314816441,140.07872295019496 542.0812115683677,140.50871985114688 546.4682071957025,142.8305547826438 546.9251858805345,150.1900031341307 542.185663730914,163.88780499157923 535.5268311048852,171.46346047637348 515.9408227482653,180.9001933993192 505.73181883073835,185.81738264434136 495.84802180158397,193.93452076921167 489.48948923759264,205.10140303091484 489.4747728165889,213.063721272969 489.41135443536876,213.0402532519763 484.5934929407913,211.25732247423122 481.4207549665071,208.11969898166748 479.13586115044575,204.99877610279103 476.27648023194615,202.28904369185702 474.63135671164014,201.17418335850962 473.06457256888814,200.38517099058987 468.5992375916459,199.15871513047517 467.1891319767724,198.56690394705006 465.844308873574,197.55478477071372 460.04720743179337,190.3313563188609 458.55876243937854,189.00994934394006 456.20858611164425,188.22049972522942 447.46070796236467,187.36236951212504 442.44699870556843,185.88630764448484 440.88021456282064,185.68033745114565 439.11758220340573,186.24675045466924 431.74063998020245,192.0301908899501 429.62548133069447,193.26562475186822 419.8983630069738,197.34892440156744 418.5274268536658,198.3953616850265 417.31316900102587,199.78481649911336 416.3730985153713,201.46576763698386 413.35703884176996,209.31993581150493 412.4561382721208,210.84585640202684 411.39855894735945,212.10594681113656 410.10596194438654,213.14311014155734 408.60446031329695,214.0345169403949 404.8833480594757,215.4572644810282 394.2944981732271,217.59121304865292 392.3751877403694,217.41124954284766 390.45587685307805,216.98275880238813 387.59649570735525,215.69723703466337 386.0688812533771,214.63448196516885 382.93531296787734,211.64306500946248 381.1726808356877,210.280077928365 377.4385117159812,208.24829875213837 373.7173994621599,207.12516718477443 343.68736933994273,213.4688205969984 337.60302411971026,208.4626305266959 337.83804179793657,189.1300802958982 335.8403919875185,182.6935541647343 334.8611518130922,180.76222796837237 333.52938512134756,176.40968215832004 332.78516285235594,174.43486926585064 332.39346687347216,172.7861936926328 332.4326363350355,171.15456983987272 334.1560990056639,168.95597884048848 336.0362399769604,167.42714118472585 340.7888187326545,165.12509422285348 349.4061316313883,162.8142144313249 351.2079334523518,161.93790613413574 352.77471759509956,160.60619405088113 354.15871015986136,158.7158833861066 355.56881600194106,156.10354869380714 360.8958820872839,138.84915503974284 361.95346141204527,136.56990437697246 363.0893801143501,134.84955785374783 364.30363773978166,133.78287486869718 365.41344316475164,133.1634865934179 366.2229483998478,132.45805132603374 368.31199399926095,130.04047105629652 369.87877814200874,128.7928606166061 371.17137514498376,127.38168425637797 371.75891911330734,125.6864316589194 370.38798318722036,123.0357218116731 367.4894323527238,120.45355230289712 366.53630522840916,119.41199105449685 365.41344316475164,117.01879431067303 364.57782487955654,116.2525714433245 361.56176566038465,114.80614496786637 360.817543164172,114.31537139245756 359.955811601642,113.86763855140791 359.05491103198017,113.6782103319456 355.56881600194106,113.71265192138007 351.8868732096684,113.29934926269097 350.2286932779234,112.81715234043502 346.97761615331683,110.99159716089379 340.6713098935477,105.3589689442095 338.2819641042627,102.58518381679235 337.34189361860814,101.01723600178501 337.1329889905083,99.23377418708988 337.57691106959857,97.2175109685267 345.8025279894507,87.71961167861463 347.36931235942166,86.57303353996343 348.9752659637222,86.107488307223 350.7378980959119,86.24542883859984 352.43524771644127,87.07305279838518 355.68632484104785,89.38333574385487 357.68397465144903,90.07292515624522 359.87747267853007,89.89190982897264 362.5801750691385,88.71096520313655 378.92695670839805,76.06998663671436 379.5928398270546,73.90493653917392 379.122804925061,71.29969009791193 376.18508462900104,66.7699607400702 373.5998906230531,64.69891349930727 370.8971880052089,63.31810568710252 368.82119881724736,62.74849729581553 366.92800120729294,60.91874424949236 365.726799993313,57.63861352959499 364.69533371866333,50.645105246465164 365.1261996135378,46.10243755608745 365.75291304342477,43.71845318124593 366.8496622841789,42.75960294028217 370.46632211033443,40.71218706063606 373.9915866019369,38.10296358714863 375.1666747658051,36.824157140421626 375.7933884228983,35.234184367629354 375.9500669507895,33.55767489098327 375.40169244401665,31.52667750558683 372.8164984380687,28.786691048571267 364.2252985894445,23.06358631439232 358.1801230579985,22.415103145415674 358.15135150883447,22.41201688686723 356.4433999618281,19.985010378691793 346.96435566257037,15.418630055308903 344.8753101377976,10.6955676008604 349.7845670831281,5.729187673859495 374.1741741976876,9.605484145933502 M399.0599295264723,89.33134636069035 402.663533050428,81.64092912946491 399.85637805542524,72.08447806930711 389.89424196750775,69.70333778315532 385.9772817032757,72.46405589937979 385.15471981787044,77.08747519270847 386.7345604502023,82.12381538296341 389.89424196750775,86.19343192466228 399.0599295264723,89.33134636069035 M448.12638713940044,107.7531750576747 450.78992018982,104.06660789854847 443.55660003815916,97.81180042579707 442.5120771494372,97.62223272961594 441.519780468324,97.77733366414597 440.6319362023839,98.27709554462153 439.84854409901766,99.13872717794949 442.27705946787955,106.80575217629507 448.12638713940044,107.7531750576747Z" name="Tavush" name_en="Tavush Region" gn_name="Tavushi Marz" admin="Armenia" adm0_a3="ARM" iso_3166_2="AM-TV" iso_a2="AM" postal="TV" type="Marz" type_en="Province" wikidataid="Q201140"/><path d="M349.993471660875,28.1986187448065 356.62619118313535,27.299596333460514 359.1330461160584,23.806886169059272 358.15135150883447,22.41201688686723 358.1801230579985,22.415103145415674 364.2252985894445,23.06358631439232 372.8164984380687,28.786691048571267 375.40169244401665,31.52667750558683 375.9500669507895,33.55767489098327 375.7933884228983,35.234184367629354 375.1666747658051,36.824157140421626 373.9915866019369,38.10296358714863 370.46632211033443,40.71218706063606 366.8496622841789,42.75960294028217 365.75291304342477,43.71845318124593 365.1261996135378,46.10243755608745 364.69533371866333,50.645105246465164 365.726799993313,57.63861352959499 366.92800120729294,60.91874424949236 368.82119881724736,62.74849729581553 370.8971880052089,63.31810568710252 373.5998906230531,64.69891349930727 376.18508462900104,66.7699607400702 379.122804925061,71.29969009791193 379.5928398270546,73.90493653917392 378.92695670839805,76.06998663671436 362.5801750691385,88.71096520313655 359.87747267853007,89.89190982897264 357.68397465144903,90.07292515624522 355.68632484104785,89.38333574385487 352.43524771644127,87.07305279838518 350.7378980959119,86.24542883859984 348.9752659637222,86.107488307223 347.36931235942166,86.57303353996343 345.8025279894507,87.71961167861463 337.57691106959857,97.2175109685267 337.1329889905083,99.23377418708988 337.34189361860814,101.01723600178501 338.2819641042627,102.58518381679235 340.6713098935477,105.3589689442095 346.97761615331683,110.99159716089379 350.2286932779234,112.81715234043502 351.8868732096684,113.29934926269097 355.56881600194106,113.71265192138007 359.05491103198017,113.6782103319456 359.955811601642,113.86763855140791 360.817543164172,114.31537139245756 361.56176566038465,114.80614496786637 364.57782487955654,116.2525714433245 365.41344316475164,117.01879431067303 366.53630522840916,119.41199105449685 367.4894323527238,120.45355230289712 370.38798318722036,123.0357218116731 371.75891911330734,125.6864316589194 371.17137514498376,127.38168425637797 369.87877814200874,128.7928606166061 368.31199399926095,130.04047105629652 366.2229483998478,132.45805132603374 365.41344316475164,133.1634865934179 364.30363773978166,133.78287486869718 363.0893801143501,134.84955785374783 361.95346141204527,136.56990437697246 360.8958820872839,138.84915503974284 355.56881600194106,156.10354869380714 354.15871015986136,158.7158833861066 352.77471759509956,160.60619405088113 351.2079334523518,161.93790613413574 349.4061316313883,162.8142144313249 340.7888187326545,165.12509422285348 336.0362399769604,167.42714118472585 334.1560990056639,168.95597884048848 332.4326363350355,171.15456983987272 332.39346687347216,172.7861936926328 332.78516285235594,174.43486926585064 333.52938512134756,176.40968215832004 334.8611518130922,180.76222796837237 335.8403919875185,182.6935541647343 337.83804179793657,189.1300802958982 337.60302411971026,208.4626305266959 330.199968846408,209.61141222926318 327.53643591734607,209.67999394989738 315.49831072745445,208.54836265077884 305.1444787466427,205.2903098852597 292.5188095884296,198.6526747245094 290.87368606812356,198.21524049365723 289.03271478561146,198.3267444047851 284.0973446791355,200.5481216214795 282.0605251799626,200.90832364096383 279.65812275200494,199.80196955041208 275.506144603305,197.0058188977617 269.2390080323076,197.50331941164788 248.13964763735606,202.9579330133032 246.8862205503907,197.84641713735942 245.08441850219137,195.47893566400995 243.36095605878612,193.59163025391504 237.00242347155773,189.679243263532 223.7239278333587,184.21274483221498 219.7155715738794,183.20854571309226 216.26864623261199,183.03688330719453 215.05438860719312,183.24287833174125 214.15348781032506,183.69777686900144 213.37009562533854,184.47880664581243 211.48995465402726,187.31946209024886 209.57064399395907,189.07859576810546 206.8548847374548,190.5801836688768 202.46788913775174,191.46392751626317 199.80435598146875,191.12073027080788 197.76753648228106,190.22839248273894 196.51410916809255,188.88981743537445 194.03336758979978,185.68033745114565 192.11405692971678,183.77502286436504 190.54727278696691,182.9510517496427 188.8238101163406,182.6592209846764 187.60955249092385,182.71072088396625 184.31930567753287,183.44028805328145 173.76962570727707,183.8522685876062 172.04616303665077,183.29437656142548 170.00934353746305,182.36738663417543 169.22595135247656,180.9768281033442 167.50248868183755,176.7788661833836 165.7659698269785,174.34041738711858 163.96416800601713,173.23272221658277 155.0334982787346,171.94463454749854 153.1141876186664,170.6564705555983 151.80853420424185,168.80997088880122 151.1818203199276,166.64550289914098 150.2417498342709,164.11142970257862 149.0666616704027,161.6200208249423 147.02984239843607,158.14875827138553 146.28561990223605,155.897298632739 146.28561990223605,153.80031089938748 148.16576087353255,150.36219193680026 148.51828739085084,149.46819225001298 150.5551066628175,140.44018940751528 151.1818203199276,138.634141913643 151.92604304334864,137.07738091806445 152.20023018312352,136.75913454850016 152.5919261620052,136.39787593543733 153.2186398191005,136.14843191688522 154.00203177686387,136.10542402953118 154.994328589965,136.39787593543733 159.06796736110454,138.59113891498689 160.83059949329632,138.95236099648886 162.74991015337721,138.84055477083137 164.78672942533117,138.1869070730993 166.2751746449818,137.1203868937064 167.26747145806814,135.52050938061066 167.5808280593937,131.97627737628147 167.9986373156081,129.72212193054398 168.91259452392995,127.86355949062391 171.81114535842445,125.09263184866063 172.7903853056297,123.39720104574978 174.67052650414723,112.73104458377617 174.23966083649594,111.5255015317477 173.49543834028114,110.95715127893179 167.7636196373945,111.26716255985933 162.08402703472066,110.54379585677428 160.36056436407745,109.91513698640894 158.83294968289303,108.9850323354558 157.42284406801957,107.34002847906828 157.03114808915268,106.01359986731327 157.30533522891488,104.73877443558693 157.97121857479246,103.87736345121728 160.20388606342416,102.30950878500697 161.18312601062732,101.25846586856991 161.96651819561384,99.7765822288515 162.20153587382745,97.31229659454573 161.96651819561384,95.89908435569318 161.4573131504043,94.83049702098266 160.75226034296122,94.26171177478543 156.1694167538332,91.28827302521773 154.21093640497847,89.40057557995411 152.0827213440167,86.83166568476436 147.4215381500967,79.26110263004291 145.85475423456785,77.26886608126476 144.60132692037936,76.29424217925676 138.72588632826364,73.90493653917392 136.95019755739915,72.96466813180196 134.75669953033292,70.91146470953889 134.01247726133917,69.47928376406732 133.85579873346273,67.54655256121322 136.7543493407362,42.6041097116025 136.8052715962634,42.13916140071766 136.91419305037851,42.112506532525344 142.70792530160224,40.69463836992886 152.86590928905312,36.11532678161303 157.90573175339705,35.579570848614274 168.61209016267136,38.58654679824459 173.93915651616692,37.61882986206919 178.90063966909133,34.94010276944765 182.8698263935738,30.981895203815366 184.1624233894105,27.714534325406273 184.3321581851205,24.87896584993345 184.98498502217203,22.3888932919418 187.98798791668287,20.261730205173798 190.6776343235421,20.227140419690386 197.53231510174598,23.06331620114777 209.7532315101737,31.5523363006675 214.4274710266304,33.33270810044622 220.36819418247146,32.3474717954803 222.7053138143716,30.757171709983787 224.5201723808901,28.665404363506788 226.58310480187959,26.81549188127234 229.57305127081855,25.847250612072408 232.69356325874142,26.210345810717367 246.16790713362323,34.38703406868315 251.69082113397042,36.409122772778126 257.3704140097834,36.806605657648184 263.50698531779955,35.02651841992377 268.599033737081,29.339632106788777 270.24415725524784,28.077598651157626 272.9599165132487,27.99115536219471 274.29168303846586,30.515159348844637 275.20564040819977,33.93765551143582 276.589633141013,36.47825078220344 281.7730772972689,37.9644478077692 285.49418991463665,34.646286586392954 288.5755321205374,29.339632106788777 291.839665800387,25.000003763809215 297.27118406375763,22.54453123245024 302.38934583949356,23.23624165887204 312.95208230418257,27.43790976648662 349.993471660875,28.1986187448065Z" name="Lori" name_en="Lori Region" gn_name="Lorru Marz" admin="Armenia" adm0_a3="ARM" iso_3166_2="AM-LO" iso_a2="AM" postal="LO" type="Marz" type_en="Province" wikidataid="Q200350"/><path d="M74.13500466833511,61.470869180722154 80.31074550570423,60.95299978391692 85.25917223307582,58.86413462265314 97.03616663486804,48.503163600330865 107.87309056313892,43.99460081840333 131.2704009965704,43.493591511876005 136.8052715962634,42.13916140071766 136.7543493407362,42.6041097116025 133.85579873346273,67.54655256121322 134.01247726133917,69.47928376406732 134.75669953033292,70.91146470953889 136.95019755739915,72.96466813180196 138.72588632826364,73.90493653917392 144.60132692037936,76.29424217925676 145.85475423456785,77.26886608126476 147.4215381500967,79.26110263004291 152.0827213440167,86.83166568476436 154.21093640497847,89.40057557995411 156.1694167538332,91.28827302521773 160.75226034296122,94.26171177478543 161.4573131504043,94.83049702098266 161.96651819561384,95.89908435569318 162.20153587382745,97.31229659454573 161.96651819561384,99.7765822288515 161.18312601062732,101.25846586856991 160.20388606342416,102.30950878500697 157.97121857479246,103.87736345121728 157.30533522891488,104.73877443558693 157.03114808915268,106.01359986731327 157.42284406801957,107.34002847906828 158.83294968289303,108.9850323354558 160.36056436407745,109.91513698640894 162.08402703472066,110.54379585677428 167.7636196373945,111.26716255985933 173.49543834028114,110.95715127893179 174.23966083649594,111.5255015317477 174.67052650414723,112.73104458377617 172.7903853056297,123.39720104574978 171.81114535842445,125.09263184866063 168.91259452392995,127.86355949062391 167.9986373156081,129.72212193054398 167.5808280593937,131.97627737628147 167.26747145806814,135.52050938061066 166.2751746449818,137.1203868937064 164.78672942533117,138.1869070730993 162.74991015337721,138.84055477083137 160.83059949329632,138.95236099648886 159.06796736110454,138.59113891498689 154.994328589965,136.39787593543733 154.00203177686387,136.10542402953118 153.2186398191005,136.14843191688522 152.5919261620052,136.39787593543733 152.20023018312352,136.75913454850016 151.92604304334864,137.07738091806445 151.1818203199276,138.634141913643 150.5551066628175,140.44018940751528 148.51828739085084,149.46819225001298 148.16576087353255,150.36219193680026 146.28561990223605,153.80031089938748 146.28561990223605,155.897298632739 147.02984239843607,158.14875827138553 149.0666616704027,161.6200208249423 150.2417498342709,164.11142970257862 151.1818203199276,166.64550289914098 151.80853420424185,168.80997088880122 153.1141876186664,170.6564705555983 155.0334982787346,171.94463454749854 163.96416800601713,173.23272221658277 165.7659698269785,174.34041738711858 167.50248868183755,176.7788661833836 169.22595135247656,180.9768281033442 170.00934353746305,182.36738663417543 172.04616303665077,183.29437656142548 173.76962570727707,183.8522685876062 184.31930567753287,183.44028805328145 175.92395381835053,199.88773550143554 171.73280598088311,205.60756242579862 163.1807758210327,213.92309306874535 162.47572301360233,215.4572644810282 162.6324013142725,216.64853034883706 166.51019209597015,219.70781688622804 168.71674676171122,221.90989657096242 170.479378893903,224.23169499629367 172.08533249820144,227.02438237949812 172.75121584408114,228.54907405670423 173.33876003962578,230.26208495847283 174.08298230860473,234.03880200439926 174.51384797627082,235.19481020444564 175.2972399340363,235.89694843845078 176.35481925879768,236.11101045322738 179.99759258950488,235.9825736135619 188.07958784734686,234.5954061075042 189.5680326125406,234.70672523785166 190.89979930430002,235.58869528663655 191.13481698251152,236.92442764793947 190.8606296155283,238.72240027151364 188.31460529835212,247.19658003212453 187.49204365180225,251.67202672782906 187.49204365180225,253.9906866037072 187.9229090922494,255.68460805324446 188.62796212690083,256.57429272862197 189.41135431188522,257.2329781308491 192.0748874681661,258.78123936300193 192.85827942593158,259.3628782663105 192.62326174772008,259.7392247720117 190.7431207764067,260.88533147731596 189.7638806019825,261.72349085420905 188.47128382623066,263.43392153816836 187.60955249092385,264.1351599949804 185.29854585195918,265.3665484229036 184.08428799931923,266.55511558323764 183.02670867455785,267.29900611884824 181.65577252124987,267.83766994125455 177.3732291219936,268.36777032686757 176.1981409581254,268.73541322653705 175.17973154937155,269.2398437191264 171.34111000200144,272.49698889990884 164.512542285569,275.15535176537884 157.65786151902483,279.57385006760234 156.01273822593987,280.25748487255044 154.5634629222968,280.47966118300445 153.34920529688003,280.30875641305516 152.2393996446742,279.73621526368385 151.2209900086972,278.85601135441965 150.20258037272234,277.5911906850116 146.16811106313136,270.6675755647349 144.64049638192793,268.5302180703014 144.1312917911626,267.98302105173815 143.6220867459552,267.5726148181684 133.15074592603446,267.01684382233134 131.58396155606354,267.3503078041072 130.83973905984874,268.2053216836579 130.44804330818812,269.419384176608 130.05634710208327,271.1890593127997 129.19461576676377,272.1208602165897 127.78450992468407,272.6850508350449 117.31316933198651,272.97568906839183 113.1220214945022,272.5995682549968 111.82942449152931,272.20634465291954 110.4454316995613,271.4198761079436 105.23587445332527,267.47856238762455 103.78659914968219,266.8116323667557 102.18064531816059,266.42685592295106 99.08624649420939,266.22163927091 97.7936494912365,265.8368525252181 93.78529345897824,263.4595771929973 92.06183101556032,263.2970920651469 90.14252012826896,263.86150861106665 82.452221076517,268.68411476537375 80.21955358788742,269.64166972651594 73.16902505913932,271.52246047528126 69.76126940664363,273.15519850547446 68.11614611355655,274.7365312442733 67.12384952769338,276.6510738916432 66.65381394403241,278.5483588688881 66.02710051414547,280.3429374729913 64.69533382240085,282.8380138684873 62.893532228660504,284.49554524329386 57.72314444397305,287.4856225803975 55.96051208456022,289.15134676906905 54.06731470181208,291.75645825848886 52.97056568827897,292.76425499064464 51.912986363517575,293.1912737556663 47.54266455175711,292.58944838572216 47.76080419152172,291.8586810049219 47.76080419152172,289.6037934445935 37.537537318263354,280.8724703293826 32.17130168807124,274.873022780154 31.12677905199089,270.5134253459469 39.77020504027573,260.21793482649144 45.22783640747188,256.437153124497 51.207729597978776,255.71856020976375 50.5287896571419,253.34019247788797 50.11098050166283,252.34770409172825 49.3145319727268,250.99579450809333 50.85520307566343,251.5605262612411 51.97806502313156,251.8172176037866 53.10092722325823,252.2621423737787 54.62854164796869,253.45997252792415 54.367410862627786,245.51885524304816 57.73599670502161,238.67076417220474 68.44235536695236,226.11610171842923 66.50998821231991,218.61071105455372 68.05065931525442,216.55399214410735 73.29938635736218,207.1934891851224 74.04360867870213,204.50117755315165 72.72489883172592,181.50875939016822 71.83705456578797,176.01446524571188 69.48687825565953,169.78020767675557 58.98942417147784,152.99213283395892 56.404230432462974,146.39022343942318 55.046350550806125,138.82308495536046 54.48491970339816,132.14807158412015 53.4012272853253,125.78082468914077 50.502676553360764,119.23955834126735 42.590416713504666,109.30341462416769 32.6282803729181,101.0341976006408 21.752186915279438,95.58858560451786 10.941376343473605,94.03737131585125 6.1104584568639355,89.45202634622855 2.0890457774439537,79.91624797303331 0,69.30645575837826 1.0445226360782351,61.50539341364676 3.5774904201280764,62.14408067810321 6.0712886748545145,62.195865572542154 8.55203025132307,61.64348946386434 22.19610917456923,56.08442515483367 32.92858068762468,55.670027877735045 74.13500466833511,61.470869180722154Z" name="Shirak" name_en="Shirak Region" gn_name="Shiraki Marz" admin="Armenia" adm0_a3="ARM" iso_3166_2="AM-SH" iso_a2="AM" postal="SH" type="Marz" type_en="Province" wikidataid="Q201063"/><path d="M489.4747728165889,213.063721272969 489.4633763864383,219.2276893214995 493.0669799103919,226.92132269232832 497.92401090077215,231.70064287671124 503.02911599829457,235.7254296863097 507.4291680511863,241.22192737161845 508.42146498495384,244.4917777460461 508.99595225793155,251.8172176037866 510.15798398743874,255.37636472430665 512.4951036193389,257.9940240112464 517.7307742358473,261.4495424861742 519.8589892900005,265.2978727662501 528.0323801678687,282.7010375276836 542.9951689381058,296.6922480302011 601.8540278432246,330.02018001704977 602.051313374564,330.2375598666585 612.7954039340417,342.0727579059292 617.8613395021837,342.34544189623614 619.5738891902784,341.8444016780777 623.1622924992142,340.79450686598653 628.6982631778003,340.4536277202523 632.3802060131311,342.3965696674374 636.0099228935244,345.92410771281874 642.4990207238706,354.4935134236973 642.9690560869458,356.4011607917341 643.1387908826558,358.34270403180466 642.9690560869458,360.30110687445665 638.3862120548049,381.4748631893633 635.3048698489042,389.5373636303234 630.4870086405355,395.99885809743233 624.8857553287836,400.89473857711164 623.9456848552644,403.39326201343295 620.9687948118951,418.5143811988584 619.2453322350096,422.01286085162224 615.8506330361465,424.86558281758903 598.1981981117066,426.5974140659749 556.6784173907325,419.7202301178956 540.6841624099868,430.0776479451659 541.0168432773605,433.3320544871663 540.9846665772005,433.32846917480856 540.0707091416576,433.22663105714736 537.7988721914774,431.7244681074555 536.5062751885044,429.99303583993844 535.9056745815082,429.3140059026726 535.1222826237426,428.65193190195316 534.182212138103,428.38030598830846 533.0462934357854,428.48216598359534 531.4795092930356,429.9421092097435 530.6177779577139,430.94364271828385 527.9934144902174,435.068127950545 524.4289805370495,438.24159425322205 515.5244238598807,442.9415668571945 511.25493687207614,444.28181052307536 494.0464241247202,447.2504175760695 487.727061226291,447.22497414593016 479.9192533354323,448.65824692391305 461.3398044347684,447.64054810817333 459.0287977958185,448.1154801632735 451.06431160428957,451.2022919913925 447.93074309156873,452.93207656452915 444.7971748060838,455.1025970145494 434.7175299650469,464.40969848896225 422.75774415269865,472.1202926172627 420.60341581440207,467.1722617467063 420.2508895243069,464.9351200259583 419.7416847063184,457.86631296783656 419.11497082198935,454.9330325573332 417.58735614080285,451.1598935803883 416.6864555711537,448.3190192476449 416.17725052592937,445.3675184806419 416.3730985153713,437.97008560471943 416.0989113756091,435.8488087079777 415.08050151239837,434.7286932537595 412.2994595170086,433.48122518251995 411.63357639834993,432.97203461119625 411.04603243002634,432.1827660035028 410.4976579232682,431.01154161407464 409.5575874376137,428.0916999891036 398.8120592506949,401.9743327105838 398.3420238942571,398.8126865292621 398.53787211092003,394.66446882128304 401.3580835678711,383.8057306209421 402.6115108820744,374.3457113821999 398.8120592506949,368.6098865155761 381.60354650335375,348.43761472271046 380.6895890678109,346.31628781327555 380.50679748982066,344.1777163134412 381.1335113741349,340.47945996674923 382.50444730022394,338.357370406772 384.81545393917384,335.61284051795474 384.3454188099719,331.776746644279 372.54231129829174,287.97253932829443 371.68058019019327,285.7257974071349 369.60459100223386,283.4959148974205 362.14930962870824,278.42871504349256 361.28757806616557,277.15532329919415 360.8567126257353,275.5912586860197 361.28757806616557,273.2150349572065 362.34515739092694,269.1115999798705 362.7760232858014,266.8116323667557 362.4626662300338,263.98978290651155 361.3659174437217,260.9879645987256 358.66321482587534,256.5144110711794 356.8614130049161,254.281571240552 355.37296801249914,252.99822765849657 354.00203185919116,252.72443787479537 348.2702129290687,252.99822765849657 346.6642593247702,252.72443787479537 345.3716623217973,251.1500810672652 344.31408299703594,248.65141424989937 341.57221091764103,230.93868743124057 341.53304100164826,227.88096346461788 342.00307635807127,225.1226523906102 343.68736933994273,221.7299684301191 344.4315918361406,219.89633041335958 343.68736933994273,213.4688205969984 373.7173994621599,207.12516718477443 377.4385117159812,208.24829875213837 381.1726808356877,210.280077928365 382.93531296787734,211.64306500946248 386.0688812533771,214.63448196516885 387.59649570735525,215.69723703466337 390.45587685307805,216.98275880238813 392.3751877403694,217.41124954284766 394.2944981732271,217.59121304865292 404.8833480594757,215.4572644810282 408.60446031329695,214.0345169403949 410.10596194438654,213.14311014155734 411.39855894735945,212.10594681113656 412.4561382721208,210.84585640202684 413.35703884176996,209.31993581150493 416.3730985153713,201.46576763698386 417.31316900102587,199.78481649911336 418.5274268536658,198.3953616850265 419.8983630069738,197.34892440156744 429.62548133069447,193.26562475186822 431.74063998020245,192.0301908899501 439.11758220340573,186.24675045466924 440.88021456282064,185.68033745114565 442.44699870556843,185.88630764448484 447.46070796236467,187.36236951212504 456.20858611164425,188.22049972522942 458.55876243937854,189.00994934394006 460.04720743179337,190.3313563188609 465.844308873574,197.55478477071372 467.1891319767724,198.56690394705006 468.5992375916459,199.15871513047517 473.06457256888814,200.38517099058987 474.63135671164014,201.17418335850962 476.27648023194615,202.28904369185702 479.13586115044575,204.99877610279103 481.4207549665071,208.11969898166748 484.5934929407913,211.25732247423122 489.41135443536876,213.0402532519763 489.4747728165889,213.063721272969Z" name="Gegharkunik" name_en="Gegharkunik Province" gn_name="Geghark'unik'i Marz" admin="Armenia" adm0_a3="ARM" iso_3166_2="AM-GR" iso_a2="AM" postal="GR" type="Marz" type_en="Province" wikidataid="Q199905"/><path d="M541.0168432773605,433.3320544871663 541.4806109389525,437.86800375848395 549.4973231939796,441.482210979674 575.8454105669844,444.1967221708578 582.7523175527971,447.60635905542506 588.2230053455481,453.6609943972554 599.5171121404526,476.8893594681698 595.0778902133051,479.42171809051763 591.2653821704888,484.04528397931796 577.8693774659619,506.77659896225214 575.7019927162305,511.66512758540983 575.1144485206859,515.2335862682236 579.9061969651517,524.1099848816829 580.0237058042585,529.1637327863801 579.044465402609,536.1086634345431 572.2550673749483,562.4831693099045 572.4900850531745,564.2212440799257 572.8034421089422,565.5626758785783 574.0176997343611,568.8695112364177 574.2004910851408,569.3165712187295 574.2370770309535,569.4060493785892 543.2562997234468,576.9234026657448 536.4930146821878,579.7227050746134 516.1770464546718,592.6523058790411 513.4874003004542,593.7982483076378 510.6671888798817,595.2305937526623 507.7947509990714,595.8035065877247 504.94842647470085,595.365397912855 502.2326672167,593.7813964538785 502.19670054483686,593.7447283719135 494.2159549616454,585.6068483563727 489.8028462305423,583.2972108238905 477.8430603548012,582.1844541515338 474.16111751946823,580.7006926612396 471.6150933098212,577.0245884760268 468.6251468408822,570.2441400600591 462.34063083916095,561.4078069528763 460.76511295597845,559.1920074601148 454.001827914749,561.4703731109826 446.8207337180088,568.135374426095 437.51142421446104,570.3453559631254 432.562997739748,567.17371142799 431.5707010586348,562.4154047260698 434.05144263508856,550.6502954530994 434.46925179059724,543.017398396052 433.3725026942538,536.9700287589313 430.77425227701275,531.5124819626197 414.0341851347229,510.10962829355094 414.76714468384966,502.952991107579 414.76714468384966,492.0538132062847 414.96299290051263,490.88572867344476 416.76479449425295,485.56086037471357 422.75774415269865,472.1202926172627 434.7175299650469,464.40969848896225 444.7971748060838,455.1025970145494 447.93074309156873,452.93207656452915 451.06431160428957,451.2022919913925 459.0287977958185,448.1154801632735 461.3398044347684,447.64054810817333 479.9192533354323,448.65824692391305 487.727061226291,447.22497414593016 494.0464241247202,447.2504175760695 511.25493687207614,444.28181052307536 515.5244238598807,442.9415668571945 524.4289805370495,438.24159425322205 527.9934144902174,435.068127950545 530.6177779577139,430.94364271828385 531.4795092930356,429.9421092097435 533.0462934357854,428.48216598359534 534.182212138103,428.38030598830846 535.1222826237426,428.65193190195316 535.9056745815082,429.3140059026726 536.5062751885044,429.99303583993844 537.7988721914774,431.7244681074555 540.0707091416576,433.22663105714736 540.9846665772005,433.32846917480856 541.0168432773605,433.3320544871663Z" name="Vayots Dzor" name_en="Vayots Dzor Region" gn_name="Vayots' Dzori Marz" admin="Armenia" adm0_a3="ARM" iso_3166_2="AM-VD" iso_a2="AM" postal="VD" type="Marz" type_en="Province" wikidataid="Q200124"/><path d="M599.5171121404526,476.8893594681698 601.4623317915563,480.84419119381346 612.8476301416379,492.1889747450191 618.2306084709811,494.9406052702386 626.5569916980772,499.19615685838227 642.4990207238706,504.0017463397597 649.4059274570142,510.7346028281947 659.1461025416128,530.4816502461631 667.0844754852649,536.8348735183909 676.6679721997253,539.605396152042 681.0157982976626,542.0546584595052 684.6585716036404,546.5302048016104 690.5862380812405,557.7573617784195 694.2942942730533,561.3016129866832 699.9086040103601,563.039779048651 708.6825955176563,561.2172326119962 725.9433346430717,552.3892871103833 734.5867606313692,553.0139404683817 738.1642510514972,555.9343862781733 744.1180308855645,563.984745246038 747.9044261360959,566.7181727486284 752.8920223928332,567.578627338757 768.8471078441984,566.0601557535861 772.920746731225,566.9543792402391 777.1118944590262,569.687445254754 780.2062930905093,573.9044871067639 780.963572090065,579.2842832426479 778.6917350913412,583.4320868746809 775.0097922559977,585.7079950767505 772.0590153164413,588.4050695014128 771.9806762577058,593.7982483076378 773.717195260161,597.2357243508391 773.6257995231865,600.2852026993976 771.902336946301,602.677321526068 768.8471078441984,604.1596338154003 768.7560450779591,604.1767107919123 750.2546021935531,607.6460519223696 742.2378899385112,612.5968477383706 738.9215300510824,620.9804080321907 742.3945685613058,631.211531244159 750.6724116017056,637.6204450679738 768.8471078441984,645.7257012589052 772.8815769491881,649.0544030265132 774.7486617233153,653.7776267988705 776.080427995874,658.9535491066139 778.5350567211882,663.7419006894518 784.6455149254084,670.1751759696992 795.4302126460748,677.7399097493976 797.1014490153811,679.2676622290667 798.7987987411399,681.2149769878786 799.1230283664217,682.0554662741359 800,684.3286535237116 797.7803889562159,685.4195978090129 792.4663792809444,685.6209974252242 780.7546675123328,693.960712867021 777.6472122026213,694.4136880049057 762.2927273806863,686.6279669911812 753.440396814684,685.4867312136095 747.6171822469443,690.923868457255 747.865256354059,700.9053343033963 754.328241333251,707.3280521654074 762.7366493873217,712.097796000378 768.8471078441984,717.0173763183325 772.0329024653145,727.674202460866 773.4430080492673,736.8692309909972 772.7118421534929,745.9433664831566 769.3954822660345,756.2269104137808 769.2126907920856,757.2474804670179 768.8471078441984,758.1759915916975 767.9592633256145,762.1071064721541 767.5283979972221,766.112798529192 767.7764721043221,770.050902420072 768.8471078441984,773.8295028524846 777.6210990988106,792.3289024713924 773.0774251013801,791.0676775707019 746.7554510848445,779.3374450284288 743.3085259310291,778.5769431547153 740.6188797768115,778.9279472763023 734.4953648943799,780.9168665717448 724.6899071766154,781.3096161034816 721.3474341853463,782.0616700986402 716.4512336655708,784.4430111395072 703.3163598874366,793.9491822742084 698.9032509036772,796.0871065718613 682.0733776119713,798.299981037871 667.3456062706057,770.2348308969698 654.1846193886884,733.5534208671711 649.0664576129398,723.2847329060775 642.4990207238706,713.883048208317 637.1588979448053,705.0979154842577 634.8609478422857,696.5693892288585 636.4016189452223,688.3061504514715 642.4990207238706,680.2833084932339 644.2094266225321,678.0924774248675 644.7316881932118,675.7503194485927 644.1572006675946,673.2987690624757 642.4990207238706,670.7461877159436 637.3416894187416,665.8249371425001 622.9302703471702,658.7739631907822 619.2453322350096,656.970705858367 613.213213342209,652.2985739953955 608.4084083067388,647.0875021744579 603.2119074722398,642.8505182626234 588.8758324352434,639.1677314059085 588.2103893052694,637.6227129128149 586.76067380666,634.2564128409954 588.3666272901314,627.7455853786249 596.8664315864894,613.7586119681529 597.9892935339449,608.622825458945 595.7044001096662,593.7308411429364 595.7044001096662,593.6971376478677 596.5269617424002,585.4045538765288 596.4747355347914,579.8744645477913 594.2028985360698,575.7597348855946 588.484136130889,571.6442511006245 581.5119465118979,568.9620344252953 575.6495626674615,569.0632557807958 574.2370770309535,569.4060493785892 574.2004910851408,569.3165712187295 574.0176997343611,568.8695112364177 572.8034421089422,565.5626758785783 572.4900850531745,564.2212440799257 572.2550673749483,562.4831693099045 579.044465402609,536.1086634345431 580.0237058042585,529.1637327863801 579.9061969651517,524.1099848816829 575.1144485206859,515.2335862682236 575.7019927162305,511.66512758540983 577.8693774659619,506.77659896225214 591.2653821704888,484.04528397931796 595.0778902133051,479.42171809051763 599.5171121404526,476.8893594681698Z" name="Syunik" name_en="Syunik Province" gn_name="Syunik'i Marz" admin="Armenia" adm0_a3="ARM" iso_3166_2="AM-SU" iso_a2="AM" postal="SU" type="Marz" type_en="Province" wikidataid="Q2523428"/><path d="M414.0341851347229,510.10962829355094 412.1425773496858,507.68984330138613 403.5513773163258,503.37572453646976 394.0723330170659,506.62407932071477 384.74996734063234,513.8127714893167 383.26431988980113,514.6441402912126 376.68102887796687,518.327780497125 368.0637157408236,520.3905153491611 357.01788748746014,520.2214459858144 345.2931190406351,522.351628164141 338.1250815221358,525.4958120540427 334.22117768346084,518.851936229283 318.7230706643305,498.5023067715987 317.27379555099725,495.9636475846976 316.04648118832426,494.86347244441555 314.84527992946414,494.592651760965 312.0250685089191,495.03273358237396 310.7455281912959,494.86347244441555 306.0712884221658,492.0027635329563 296.93171421965366,481.4539082979359 293.5631281246161,483.52004730168073 292.6230576510969,481.62327106018176 292.5447185923486,477.9308693509759 291.76132648896754,474.72916425236735 287.94881838730925,471.9336495686171 285.8075466549024,469.7478209535909 284.86747618138105,466.90084013296337 283.69238802631895,461.9177490074555 280.84606350197583,457.13700333603634 274.3569656716275,449.8961204783596 259.74670317104926,437.1722442672484 238.6700159866512,424.84966615521734 238.67366004197333,424.78095088783385 238.68671645342712,424.5347474177931 238.50392510264524,419.07511979084495 237.90332449566375,415.7800147655349 235.67065700703205,409.5451560369281 231.1661525682264,400.7930177426253 231.4403397080013,399.31416052821936 232.6937672494256,397.25719596043035 236.06235298591585,394.16289013978957 239.83569156718363,387.97298483066754 241.55915423780993,386.0170242784025 243.94850002710757,384.5031625828087 250.88152017119518,381.7133041240362 253.15335712137335,380.420323737898 253.71478826680627,377.62995193325327 256.7700171747499,376.89827179171243 257.8667661882978,377.3747178213423 259.6293985477085,378.94010928664886 260.2169425160321,380.1225873709665 260.4519601942436,381.6282418697813 260.3344513551389,383.1082770400883 259.6293985477085,387.0885718482594 259.511889708589,388.9849142970695 259.6293985477085,390.13284556237716 259.94275514903404,391.5272895371618 260.53029911735763,392.93865019396804 261.3136913023442,394.2649070152966 262.25376178798393,395.32755590202396 262.8804754450919,395.9311175068645 263.5071891021851,396.32214896538693 272.37257654502844,398.3537007315514 274.8794311734202,399.52664624705477 276.6028936168382,401.047982798884 278.8355611054677,406.3760905572203 279.38393561222796,407.1832677545589 280.16732779721235,407.9989124424839 282.7264082986065,410.0548830561675 283.6273093227125,410.2927515277362 285.0374151647922,410.22478966266624 288.13181376150544,409.44320928977805 294.9603814779379,404.87211295579493 306.0453795435128,390.05631863793616 308.43472556003366,391.2722151765385 310.876297449542,397.0616893213278 312.6389298089548,398.80418710307237 315.69415871689847,400.4530589942913 317.4176213875248,400.6910305459462 330.0041210841872,398.46419851330836 340.3187833762167,395.0980280329782 359.2899284829833,384.4011005499507 366.5101921782996,381.3985723323738 375.67587958379147,378.7529486867091 385.4813370578304,374.7030874615667 393.15857969813067,373.8011268709083 402.6115108820744,374.3457113821999 401.3580835678711,383.8057306209421 398.53787211092003,394.66446882128304 398.3420238942571,398.8126865292621 398.8120592506949,401.9743327105838 409.5575874376137,428.0916999891036 410.4976579232682,431.01154161407464 411.04603243002634,432.1827660035028 411.63357639834993,432.97203461119625 412.2994595170086,433.48122518251995 415.08050151239837,434.7286932537595 416.0989113756091,435.8488087079777 416.3730985153713,437.97008560471943 416.17725052592937,445.3675184806419 416.6864555711537,448.3190192476449 417.58735614080285,451.1598935803883 419.11497082198935,454.9330325573332 419.7416847063184,457.86631296783656 420.2508895243069,464.9351200259583 420.60341581440207,467.1722617467063 422.75774415269865,472.1202926172627 416.76479449425295,485.56086037471357 414.96299290051263,490.88572867344476 414.76714468384966,492.0538132062847 414.76714468384966,502.952991107579 414.0341851347229,510.10962829355094Z" name="Ararat" name_en="Ararat Province" gn_name="Ararati Marz" admin="Armenia" adm0_a3="ARM" iso_3166_2="AM-AR" iso_a2="AM" postal="AR" type="Marz" type_en="Province" wikidataid="Q199880"/><path d="M64.18902336004338,348.9385633609295 60.55620837825268,340.52180410126766 49.3145319727268,325.8931781551522 42.48596429830405,319.462388085866 39.90077030663276,314.2925189553997 41.62423288351828,308.88248325860764 43.77856129414075,305.1953905985939 47.54266455175711,292.58944838572216 51.912986363517575,293.1912737556663 52.97056568827897,292.76425499064464 54.06731470181208,291.75645825848886 55.96051208456022,289.15134676906905 57.72314444397305,287.4856225803975 62.893532228660504,284.49554524329386 64.69533382240085,282.8380138684873 66.02710051414547,280.3429374729913 66.65381394403241,278.5483588688881 67.12384952769338,276.6510738916432 68.11614611355655,274.7365312442733 69.76126940664363,273.15519850547446 73.16902505913932,271.52246047528126 80.21955358788742,269.64166972651594 82.452221076517,268.68411476537375 90.14252012826896,263.86150861106665 92.06183101556032,263.2970920651469 93.78529345897824,263.4595771929973 97.7936494912365,265.8368525252181 99.08624649420939,266.22163927091 102.18064531816059,266.42685592295106 103.78659914968219,266.8116323667557 105.23587445332527,267.47856238762455 110.4454316995613,271.4198761079436 111.82942449152931,272.20634465291954 113.1220214945022,272.5995682549968 117.31316933198651,272.97568906839183 127.78450992468407,272.6850508350449 129.19461576676377,272.1208602165897 130.05634710208327,271.1890593127997 130.44804330818812,269.419384176608 130.83973905984874,268.2053216836579 131.58396155606354,267.3503078041072 133.15074592603446,267.01684382233134 143.6220867459552,267.5726148181684 144.1312917911626,267.98302105173815 144.64049638192793,268.5302180703014 146.16811106313136,270.6675755647349 150.20258037272234,277.5911906850116 151.2209900086972,278.85601135441965 152.2393996446742,279.73621526368385 153.34920529688003,280.30875641305516 154.5634629222968,280.47966118300445 156.01273822593987,280.25748487255044 157.65786151902483,279.57385006760234 164.512542285569,275.15535176537884 171.34111000200144,272.49698889990884 175.17973154937155,269.2398437191264 176.1981409581254,268.73541322653705 177.3732291219936,268.36777032686757 181.65577252124987,267.83766994125455 183.02670867455785,267.29900611884824 184.08428799931923,266.55511558323764 185.29854585195918,265.3665484229036 187.60955249092385,264.1351599949804 188.47128382623066,263.43392153816836 189.7638806019825,261.72349085420905 190.7431207764067,260.88533147731596 192.62326174772008,259.7392247720117 192.85827942593158,259.3628782663105 192.0748874681661,258.78123936300193 189.41135431188522,257.2329781308491 188.62796212690083,256.57429272862197 187.9229090922494,255.68460805324446 187.49204365180225,253.9906866037072 187.49204365180225,251.67202672782906 188.31460529835212,247.19658003212453 190.8606296155283,238.72240027151364 191.13481698251152,236.92442764793947 190.89979930430002,235.58869528663655 189.5680326125406,234.70672523785166 188.07958784734686,234.5954061075042 179.99759258950488,235.9825736135619 176.35481925879768,236.11101045322738 175.2972399340363,235.89694843845078 174.51384797627082,235.19481020444564 174.08298230860473,234.03880200439926 173.33876003962578,230.26208495847283 172.75121584408114,228.54907405670423 172.08533249820144,227.02438237949812 170.479378893903,224.23169499629367 168.71674676171122,221.90989657096242 166.51019209597015,219.70781688622804 162.6324013142725,216.64853034883706 162.47572301360233,215.4572644810282 163.1807758210327,213.92309306874535 171.73280598088311,205.60756242579862 175.92395381835053,199.88773550143554 184.31930567753287,183.44028805328145 187.60955249092385,182.71072088396625 188.8238101163406,182.6592209846764 190.54727278696691,182.9510517496427 192.11405692971678,183.77502286436504 194.03336758979978,185.68033745114565 196.51410916809255,188.88981743537445 197.76753648228106,190.22839248273894 199.80435598146875,191.12073027080788 202.46788913775174,191.46392751626317 206.8548847374548,190.5801836688768 209.57064399395907,189.07859576810546 211.48995465402726,187.31946209024886 213.37009562533854,184.47880664581243 214.15348781032506,183.69777686900144 215.05438860719312,183.24287833174125 216.26864623261199,183.03688330719453 219.7155715738794,183.20854571309226 223.7239278333587,184.21274483221498 237.00242347155773,189.679243263532 243.36095605878612,193.59163025391504 245.08441850219137,195.47893566400995 246.8862205503907,197.84641713735942 248.13964763735606,202.9579330133032 249.9414496855533,214.3430724964612 249.9414496855533,217.37697062692237 248.80553098323577,221.98700822300307 248.96220928390383,223.32356680855227 250.72484164331877,225.62808303611837 266.9671710821273,237.6436342122662 269.1998383435211,238.65390880837353 278.75722195513265,240.22915970941682 280.4937408099917,240.90545566365554 282.217203480618,241.93270099219905 282.0213554911761,247.04253312530474 280.1281578812196,255.53062082188433 267.94641102933264,290.88527504453987 268.37727669698813,293.8061656226249 270.4140961961758,298.28069972165804 270.60994418561563,300.5090890840651 269.90489137818736,302.8567660128167 267.5938845120016,304.9822649497094 263.82054593073383,307.3636057386789 254.45901053580002,324.0513931517025 252.21328663573144,326.3027685011054 250.05895852466008,327.5818565107165 248.17881732614256,328.0593637596172 246.49452434428588,328.7756054544576 245.5936235474009,330.3785384123841 245.75030184807108,332.39056645226697 247.7087821969237,335.7151271688679 249.39307517878038,337.34312716529996 252.26551273595484,339.46531396000506 252.84000029282674,340.7095538920179 252.7355478651589,342.1156313744215 251.62574266740785,343.81132713297586 250.25480628687882,344.93603827106983 247.08206831259466,346.9893412749075 246.41618519395078,348.30982986433855 246.41618519395078,350.635401806305 246.84705063438315,354.34047949502855 250.05895852466008,362.00419075678786 248.13964763735606,365.80100375424877 233.3204809065188,362.5490647653924 227.79756660451304,359.96079325783074 223.20166637671227,356.4184583123134 222.02657821284407,355.80530455652325 220.6556420595361,355.30284648947213 216.50366391082352,352.94369529333113 215.05438860719312,351.0698224737197 213.68345245388514,349.6132025483746 211.80331148258867,348.8720782008768 209.04838253729787,348.95726622343597 203.91716444139482,350.22652770463276 201.0186136068876,351.83642592752113 198.86428549581416,353.3695535500449 197.4150101921838,354.1190437142856 195.7568302604409,354.0849765430646 193.95502821224366,352.9096263147269 191.8007001011702,350.1754178000648 190.8214599267439,349.22986551592874 189.5680326125406,348.6846635757642 188.11875730891023,348.36094377756524 186.55197316616244,348.1905631138845 185.02435848496114,348.39501975299817 183.49674403099777,349.68986915874586 183.30089581433484,351.6575541908512 183.69259202043966,353.89760601678285 185.02435848496114,358.7942697308987 185.22020670162408,361.9786495469803 182.3085994556779,364.9327318736089 176.90319399277683,367.15441899917846 146.91233355932926,366.94162343410613 144.99302289926317,366.2861998231693 143.03454255040845,365.0348829230007 139.14369513003598,361.7998593652517 135.22673488677285,357.23597075568006 132.83738909747308,355.7712399779482 123.1886096968812,352.36451523497203 119.62417574373015,350.30319219214005 113.2003606448394,344.93603827106983 112.18195100886241,344.32256628109127 110.34097949911451,343.66647352418954 103.74742946091047,342.362750769683 101.47559228349436,341.4424294501733 100.10465635740742,340.47945996674923 96.9710878447014,335.55317286408246 95.82211295816806,334.3853626416736 94.45117680485797,334.2660211469001 92.72771413421687,335.050255041845 90.22085950582509,338.0761144851868 88.73241428617445,340.283452407665 87.08729122032743,341.9537235976271 85.36382854968633,342.17528104412673 82.68723875472851,340.7351196372105 80.80709778343204,339.25225226745437 78.69193913392405,338.8516906502854 76.65511963473425,339.72098564000555 70.81884873140503,345.1064439760975 64.49948583295895,348.90615368640647 64.18902336004338,348.9385633609295Z" name="Aragatsotn" name_en="Aragatsotn Region" gn_name="Aragatsotni Marz" admin="Armenia" adm0_a3="ARM" iso_3166_2="AM-AG" iso_a2="AM" postal="AG" type="Marz" type_en="Province" wikidataid="Q17915"/><path d="M57.89267532781832,391.8501144987532 54.62854164796869,382.3594997741784 58.127693009375974,379.09297376277533 69.56521731442261,376.60873083896075 72.03290246530872,372.35424375578407 70.40083562539765,368.6436651865582 62.51468863669797,358.9387581572267 59.82504248248036,353.1308075934698 64.44705579133041,349.5362695747304 64.18902336004338,348.9385633609295 64.49948583295895,348.90615368640647 70.81884873140503,345.1064439760975 76.65511963473425,339.72098564000555 78.69193913392405,338.8516906502854 80.80709778343204,339.25225226745437 82.68723875472851,340.7351196372105 85.36382854968633,342.17528104412673 87.08729122032743,341.9537235976271 88.73241428617445,340.283452407665 90.22085950582509,338.0761144851868 92.72771413421687,335.050255041845 94.45117680485797,334.2660211469001 95.82211295816806,334.3853626416736 96.9710878447014,335.55317286408246 100.10465635740742,340.47945996674923 101.47559228349436,341.4424294501733 103.74742946091047,342.362750769683 110.34097949911451,343.66647352418954 112.18195100886241,344.32256628109127 113.2003606448394,344.93603827106983 119.62417574373015,350.30319219214005 123.1886096968812,352.36451523497203 132.83738909747308,355.7712399779482 135.22673488677285,357.23597075568006 139.14369513003598,361.7998593652517 143.03454255040845,365.0348829230007 144.99302289926317,366.2861998231693 146.91233355932926,366.94162343410613 176.90319399277683,367.15441899917846 182.3085994556779,364.9327318736089 185.22020670162408,361.9786495469803 185.02435848496114,358.7942697308987 183.69259202043966,353.89760601678285 183.30089581433484,351.6575541908512 183.49674403099777,349.68986915874586 185.02435848496114,348.39501975299817 186.55197316616244,348.1905631138845 188.11875730891023,348.36094377756524 189.5680326125406,348.6846635757642 190.8214599267439,349.22986551592874 191.8007001011702,350.1754178000648 193.95502821224366,352.9096263147269 195.7568302604409,354.0849765430646 197.4150101921838,354.1190437142856 198.86428549581416,353.3695535500449 201.0186136068876,351.83642592752113 203.91716444139482,350.22652770463276 209.04838253729787,348.95726622343597 211.80331148258867,348.8720782008768 213.68345245388514,349.6132025483746 215.05438860719312,351.0698224737197 216.50366391082352,352.94369529333113 220.6556420595361,355.30284648947213 222.02657821284407,355.80530455652325 223.20166637671227,356.4184583123134 227.79756660451304,359.96079325783074 233.3204809065188,362.5490647653924 248.13964763735606,365.80100375424877 250.45065450354178,369.0950208297194 250.88152017119518,373.47777369503257 251.23404668852618,374.84773806147916 253.71478826680627,377.62995193325327 253.15335712137335,380.420323737898 250.88152017119518,381.7133041240362 243.94850002710757,384.5031625828087 241.55915423780993,386.0170242784025 239.83569156718363,387.97298483066754 236.06235298591585,394.16289013978957 232.6937672494256,397.25719596043035 231.4403397080013,399.31416052821936 231.1661525682264,400.7930177426253 235.67065700703205,409.5451560369281 237.90332449566375,415.7800147655349 238.50392510264524,419.07511979084495 238.68671645342712,424.5347474177931 238.67366004197333,424.78095088783385 238.6700159866512,424.84966615521734 224.7029638548559,416.6800068343297 215.4589372371262,413.80924751819134 206.91996341138767,413.80924751819134 191.6960438557948,417.95389408971994 184.46272345147756,418.854063651956 179.29233572078928,420.382570012087 176.65491577416776,420.73920635207014 174.51364404178625,420.0259276260084 171.3017365695454,416.9178049366758 168.82099499307472,416.2553618637238 163.42864600641335,417.6821376104084 154.6415980735474,423.84679555244014 150.62018539411474,425.23912628645957 120.22457223789195,420.07687707616196 92.59694479995208,404.82086338857385 69.46076515187629,398.2429369740427 57.89267532781832,391.8501144987532Z" name="Armavir" name_en="Armavir Region" gn_name="Armaviri Marz" admin="Armenia" adm0_a3="ARM" iso_3166_2="AM-AV" iso_a2="AM" postal="AV" type="Marz" type_en="Province" wikidataid="Q201147"/><path d="M337.60302411971026,208.4626305266959 343.68736933994273,213.4688205969984 344.4315918361406,219.89633041335958 343.68736933994273,221.7299684301191 342.00307635807127,225.1226523906102 341.53304100164826,227.88096346461788 341.57221091764103,230.93868743124057 344.31408299703594,248.65141424989937 345.3716623217973,251.1500810672652 346.6642593247702,252.72443787479537 348.2702129290687,252.99822765849657 354.00203185919116,252.72443787479537 355.37296801249914,252.99822765849657 356.8614130049161,254.281571240552 358.66321482587534,256.5144110711794 361.3659174437217,260.9879645987256 362.4626662300338,263.98978290651155 362.7760232858014,266.8116323667557 362.34515739092694,269.1115999798705 361.28757806616557,273.2150349572065 360.8567126257353,275.5912586860197 361.28757806616557,277.15532329919415 362.14930962870824,278.42871504349256 369.60459100223386,283.4959148974205 371.68058019019327,285.7257974071349 372.54231129829174,287.97253932829443 384.3454188099719,331.776746644279 384.81545393917384,335.61284051795474 382.50444730022394,338.357370406772 381.1335113741349,340.47945996674923 380.50679748982066,344.1777163134412 380.6895890678109,346.31628781327555 381.60354650335375,348.43761472271046 398.8120592506949,368.6098865155761 402.6115108820744,374.3457113821999 393.15857969813067,373.8011268709083 385.4813370578304,374.7030874615667 375.67587958379147,378.7529486867091 366.5101921782996,381.3985723323738 359.2899284829833,384.4011005499507 340.3187833762167,395.0980280329782 330.0041210841872,398.46419851330836 317.4176213875248,400.6910305459462 315.69415871689847,400.4530589942913 312.6389298089548,398.80418710307237 310.876297449542,397.0616893213278 308.43472556003366,391.2722151765385 306.0453795435128,390.05631863793616 304.08689942188124,385.0985138057023 302.44177590159006,383.94181648258274 300.7966526085051,383.3464342338514 295.8482258633691,384.0268701664566 291.5787388755666,383.70366567718617 289.8552764321466,382.4618371932196 289.1893930862668,380.5819504800158 289.6202589811561,378.3701152024133 290.3253117885844,376.0644677299565 291.1087037463498,374.0138566295141 292.00960477044106,372.2779216173855 292.79299695542545,371.10353535958046 296.8796921380188,366.6947777357067 297.9372714627823,365.307284506729 298.6031548086451,363.89416543690044 298.2897979800985,363.0598720034324 297.07554012746067,361.5614707068665 294.9081553777272,359.5861502732157 291.2653822742263,354.73224443182323 288.91520594648983,353.3099340232697 286.9175561360887,352.65410715691866 284.05817476314485,353.4632410960223 276.95541990693545,356.9975327048187 275.38863576418555,357.4147974619877 265.5440086013749,358.3344550834262 262.4496100046469,357.5254993101664 261.66621781966035,357.5595608956653 260.9611650122321,357.90017713135205 259.3552111807105,358.92199442755395 258.5718192229471,359.22853045915093 257.24005230396665,359.43288526055295 255.82994691632905,359.34773750743955 253.28392259915285,358.85387450311947 252.42219126383125,358.9475391600021 251.82159065685187,359.22853045915093 251.31238561164022,359.66278238208355 250.95985932153027,360.1481128198617 250.72484164331877,360.52274660183 250.05895852466008,362.00419075678786 246.84705063438315,354.34047949502855 246.41618519395078,350.635401806305 246.41618519395078,348.30982986433855 247.08206831259466,346.9893412749075 250.25480628687882,344.93603827106983 251.62574266740785,343.81132713297586 252.7355478651589,342.1156313744215 252.84000029282674,340.7095538920179 252.26551273595484,339.46531396000506 249.39307517878038,337.34312716529996 247.7087821969237,335.7151271688679 245.75030184807108,332.39056645226697 245.5936235474009,330.3785384123841 246.49452434428588,328.7756054544576 248.17881732614256,328.0593637596172 250.05895852466008,327.5818565107165 252.21328663573144,326.3027685011054 254.45901053580002,324.0513931517025 263.82054593073383,307.3636057386789 267.5938845120016,304.9822649497094 269.90489137818736,302.8567660128167 270.60994418561563,300.5090890840651 270.4140961961758,298.28069972165804 268.37727669698813,293.8061656226249 267.94641102933264,290.88527504453987 280.1281578812196,255.53062082188433 282.0213554911761,247.04253312530474 282.217203480618,241.93270099219905 280.4937408099917,240.90545566365554 278.75722195513265,240.22915970941682 269.1998383435211,238.65390880837353 266.9671710821273,237.6436342122662 250.72484164331877,225.62808303611837 248.96220928390383,223.32356680855227 248.80553098323577,221.98700822300307 249.9414496855533,217.37697062692237 249.9414496855533,214.3430724964612 248.13964763735606,202.9579330133032 269.2390080323076,197.50331941164788 275.506144603305,197.0058188977617 279.65812275200494,199.80196955041208 282.0605251799626,200.90832364096383 284.0973446791355,200.5481216214795 289.03271478561146,198.3267444047851 290.87368606812356,198.21524049365723 292.5188095884296,198.6526747245094 305.1444787466427,205.2903098852597 315.49831072745445,208.54836265077884 327.53643591734607,209.67999394989738 330.199968846408,209.61141222926318 337.60302411971026,208.4626305266959Z" name="Kotayk" name_en="Kotayk Region" gn_name="Kotayk'i Marz" admin="Armenia" adm0_a3="ARM" iso_3166_2="AM-KT" iso_a2="AM" postal="KT" type="Marz" type_en="Province" wikidataid="Q4511"/><path d="M286.9175561360887,352.65410715691866 288.91520594648983,353.3099340232697 291.2653822742263,354.73224443182323 294.9081553777272,359.5861502732157 297.07554012746067,361.5614707068665 298.2897979800985,363.0598720034324 298.6031548086451,363.89416543690044 297.9372714627823,365.307284506729 296.8796921380188,366.6947777357067 292.79299695542545,371.10353535958046 292.00960477044106,372.2779216173855 291.1087037463498,374.0138566295141 290.3253117885844,376.0644677299565 289.6202589811561,378.3701152024133 289.1893930862668,380.5819504800158 289.8552764321466,382.4618371932196 291.5787388755666,383.70366567718617 295.8482258633691,384.0268701664566 300.7966526085051,383.3464342338514 302.44177590159006,383.94181648258274 304.08689942188124,385.0985138057023 306.0453795435128,390.05631863793616 294.9603814779379,404.87211295579493 288.13181376150544,409.44320928977805 285.0374151647922,410.22478966266624 283.6273093227125,410.2927515277362 282.7264082986065,410.0548830561675 280.16732779721235,407.9989124424839 279.38393561222796,407.1832677545589 278.8355611054677,406.3760905572203 276.6028936168382,401.047982798884 274.8794311734202,399.52664624705477 272.37257654502844,398.3537007315514 263.5071891021851,396.32214896538693 262.8804754450919,395.9311175068645 262.25376178798393,395.32755590202396 261.3136913023442,394.2649070152966 260.53029911735763,392.93865019396804 259.94275514903404,391.5272895371618 259.6293985477085,390.13284556237716 259.511889708589,388.9849142970695 259.6293985477085,387.0885718482594 260.3344513551389,383.1082770400883 260.4519601942436,381.6282418697813 260.2169425160321,380.1225873709665 259.6293985477085,378.94010928664886 257.8667661882978,377.3747178213423 256.7700171747499,376.89827179171243 253.71478826680627,377.62995193325327 251.23404668852618,374.84773806147916 250.88152017119518,373.47777369503257 250.45065450354178,369.0950208297194 248.13964763735606,365.80100375424877 250.05895852466008,362.00419075678786 250.72484164331877,360.52274660183 250.95985932153027,360.1481128198617 251.31238561164022,359.66278238208355 251.82159065685187,359.22853045915093 252.42219126383125,358.9475391600021 253.28392259915285,358.85387450311947 255.82994691632905,359.34773750743955 257.24005230396665,359.43288526055295 258.5718192229471,359.22853045915093 259.3552111807105,358.92199442755395 260.9611650122321,357.90017713135205 261.66621781966035,357.5595608956653 262.4496100046469,357.5254993101664 265.5440086013749,358.3344550834262 275.38863576418555,357.4147974619877 276.95541990693545,356.9975327048187 284.05817476314485,353.4632410960223 286.9175561360887,352.65410715691866Z" name="Erevan" name_en="Yerevan" gn_name="Yerevan" admin="Armenia" adm0_a3="ARM" iso_3166_2="AM-ER" iso_a2="AM" postal="ER" type="Kaghak" type_en="City" wikidataid="Q1953"/></svg>