<?xml version="1.0"?><svg fill="#3498db" stroke="#ecf0f1" stroke-width="1" width="800" height="408" viewBox="0 0 800 408" xmlns="http://www.w3.org/2000/svg"><path d="M573.8335793610555,0 579.6530963181254,1.997610083546675 587.7982566869179,2.6633675509285903 588.5662598157899,4.906802536601859 589.0097545567618,7.067456553871874 588.966486820549,9.227518215264134 588.2742022038892,11.493714708025076 590.3510559492332,11.534763119592538 598.3339621240638,9.383545505557551 598.8748094023427,9.038639084389246 600.3242801876728,7.297453250787095 600.6704224960057,6.459575623343702 600.9300292272538,4.323406497961942 601.3518900477926,3.6742248375887256 602.1523440573169,3.666007075822767 602.6823744800445,4.323406497961942 603.1150522608032,5.112213249343803 603.63426561864,5.473723321267114 608.534342213099,5.531234754486488 610.8708024803788,6.19669371393162 615.900682492806,8.759418130985036 620.551969316236,10.327854432137837 622.8018940064221,11.61685898387595 627.9723942923604,16.097999134500206 630.3725675887873,17.031049714722087 636.6043171383346,19.453083632805647 644.7278436913441,24.036332950964827 647.0751209188376,24.59368454283427 649.4872999076329,24.59368454283427 651.2504621206375,24.036332950964827 654.9714916212516,22.06889551386986 655.8801150236344,21.84752804302357 659.0819310617462,21.839329199076513 659.687679996677,22.298455151248067 660.1095410265284,24.24944254349925 660.6287543843716,25.06084582051551 661.3426728168231,25.364076131038058 663.3438078406397,25.511589402454355 664.4904040538376,26.34744567079783 665.2692241429318,26.69979000793468 666.1453967693244,26.642432713686947 665.0745191729885,28.0598553247514 666.3941865403591,27.748535663926358 667.5732337388715,27.79769210736757 668.352053827966,28.510427737817082 668.4602233254834,30.18141698860958 670.2342024987046,29.722749242654874 670.7858667372032,30.40255091721043 670.7858667372032,31.49993856892708 670.9373039709336,32.286033083486416 681.4621924478598,39.94635800196372 687.0112858181244,42.35095449823186 696.6816354844409,41.7703195847803 711.3169635065389,43.93726042496699 711.4359499642673,43.830971609587 713.6101560375969,43.50391972658934 714.9947251662634,44.63219123487896 715.5788402854234,44.82022083824947 717.2230160406876,44.3378751581253 718.3696123585479,43.26679866124921 723.6807328133317,34.16906613210013 725.4979798274278,32.957426737493165 728.5159077511566,33.39953301493754 729.5976023077121,33.35041110570437 731.4905679386612,32.54804704756994 732.4532761421475,32.417041231034325 733.4159842409653,32.744552015953076 735.2007804790592,33.89073293412484 741.4529752168903,35.707907878561116 743.389208479402,35.937071244860356 745.3903435032216,36.74727480139353 746.2124315378378,38.653789775338026 746.6018415823837,40.92791425439636 747.3590277510481,42.80071264173549 748.7327799195007,43.7655624099587 750.3985895952068,44.05989978545425 754.3792258270605,43.89638026824026 755.9801337414618,44.44415716113402 759.7660648987218,46.953634895204125 761.6914812010137,47.672817214457154 763.7034331850441,47.427648761702955 767.7273371531223,45.99734797114049 769.4472316299111,46.128129079410186 771.9243122753609,49.60938100016855 773.3737829560228,60.0684361831426 776.9866430637815,64.26939667269373 777.960168122807,71.64627589201164 777.4065521342868,73.62673247450525 777.1813480337246,74.43221657263891 775.4614536615863,76.24825321374846 773.7307422245751,77.64460852596342 772.9519221354838,79.13025616848854 772.4002577923351,81.22597087859349 769.6635705202872,85.1717374818287 768.6035097795116,87.29025222876886 768.1708319987623,89.53826893055613 767.2405745712696,97.93120353682835 766.9701508798106,98.92184612779867 766.7105442532127,99.38870455478457 766.5266561388297,100.10314765310878 766.4617544821839,101.82810115301056 766.7862628700781,102.7736228563236 767.597533839825,103.26460043731652 769.7068382565,103.48776207443743 770.3017703358703,103.83669305599224 771.4050988128558,104.74546502344772 772.4759765138506,105.94212663065115 772.9519221354838,107.18727511980013 772.7139493246657,107.88479749704331 772.3029053596869,108.79310720102677 772.1082002850846,109.58779301585032 772.5625120909352,109.91213174662963 772.8437526379661,110.24456531868721 773.2007119065095,111.0309991286493 773.5360371499728,111.9308435142662 773.6658404632701,112.6441613661788 774.011982771606,113.56813716099468 774.8124367811304,114.08276134442863 775.7643281290473,114.52036850138774 776.9217413024677,115.57376829895368 777.5707580782705,115.79658503914408 777.960168122807,116.33942150802326 778.0575206601143,117.01994027454934 777.9169003865944,118.81412468852876 777.960168122807,119.56326965600508 779.5935269178608,125.18972744437353 780.0911064599242,128.0216921999517 780.1019234201466,131.41467953999242 780.8482927332387,133.85237140373593 783.4876275726384,136.74591087436323 784.9262813977401,137.62669636031646 786.602908033666,137.88525715823232 787.7062365106509,138.59221652799215 789.2747782081012,141.4478210943903 787.9767447095392,142.80452209706684 787.2466008783599,143.1840340219693 786.3379773352358,143.43434073773972 785.1048455586601,143.17595956273067 784.2124474695679,142.56227100440535 783.1037105267943,142.00910331863608 782.3411157875635,142.32405015423268 780.9619551129774,143.78152710889097 780.5563197035018,146.09840797457144 780.6212213313653,147.19606814421388 780.9457297530687,148.39847856796402 780.7997009491871,149.67332014256866 780.0533317580994,151.1254233319781 778.787749073466,151.89573775927093 777.1273478232124,151.0366913932752 773.930940156513,148.52758574772093 772.292172876333,147.79326115363065 770.1450091347082,148.05149284947913 767.7274217553947,149.18922713920367 763.487178867908,152.2949813652466 759.068456268482,154.3916914405118 757.8353244919066,154.20220362244262 756.6184181693565,154.44007052638995 754.390127251714,155.46805755264748 751.8102855203581,157.6163253722792 750.3337724039741,161.54056279290498 749.2737117291667,163.48182460362696 747.8134239726858,164.83479072429256 744.1951556307249,167.38708606888514 742.1615696908071,169.45569993096788 738.0727640291324,171.54791713526953 730.7280576830655,169.12169926838925 727.0611129790213,169.3591229292227 724.0540020563626,170.25241637176757 718.9862628017755,174.1785067721346 717.3474955215955,175.95587766406175 715.7574044152586,179.01910749589265 715.546473983508,185.04566831130686 715.1408384799095,186.8527534114609 714.52427254456,188.24192420751734 713.2370559839705,189.72317366317108 712.0039241132716,190.73460139794918 708.4018811312138,191.16401834610093 708.3532048632534,200.64546492932615 709.1807012303532,202.5612499467028 710.7870176024754,205.301871454431 714.329567566835,209.4590999086964 717.4123971494646,214.23045306493015 713.9671999092725,220.92638585736157 713.3019576118335,221.92189973411965 712.2959816269175,223.78865637937182 711.6956411455941,225.56307267310356 711.3711327238906,228.95096176810736 711.6956411455941,231.1555200936822 712.2797562670088,232.99219107452527 712.2148546391454,234.88432296604643 712.0363749272003,236.43282607659927 706.563000263144,242.2889044994263 704.8593312609772,243.63663647595803 702.2416302937622,245.04792480162834 699.5806615746399,245.54221609207167 693.5556226030916,245.4306045325328 689.9535796210395,242.29289209718954 688.8448426782659,240.05547994231813 688.195825928982,238.3720261827216 688.0660224850035,237.68577807417924 687.9686700431995,236.600429634704 687.660387075528,235.4590598299117 687.3521040137271,234.74861511402892 686.9951448722119,234.29357847881573 686.4921569268155,234.08600932965953 684.0367101233903,235.32735298007532 683.0145087785654,235.68255751695276 682.2681394933604,235.64264776457858 681.4406431262606,235.3034059856792 680.4671179552729,234.38139459671672 677.8980932560183,232.9682372775341 669.3581143692351,231.50691567223217 668.0763062305699,227.96830109763306 666.805315029889,225.5151207914373 664.0632192288657,223.44491794069492 661.5320539537222,223.44491794069492 660.7370083064337,223.27304307680123 660.0663576811935,222.89330682156304 659.8067509814764,221.89391527323008 659.9365543313377,221.19826530343093 660.407091556923,219.73480551267897 660.5206694527524,218.60704004046377 660.4882185446949,217.59111597771908 660.309739021002,216.71907884847707 660.1474847630883,216.20701293940485 659.5146933737074,214.99872828933084 658.979254520253,214.37451018256525 658.1679837013019,213.91832010767314 656.8212738406503,214.15842346863604 653.311174878466,216.1029957221509 652.1916209977203,216.1710072121675 651.2018703727069,215.49486717906535 650.4068248195354,213.45410020496655 650.0336402239942,211.68901913612015 649.4116658667145,207.20453090081332 648.9140863432426,206.09503470997726 648.1785339960159,205.39401064786242 646.8155987754556,205.14162690425064 645.9556515944212,205.30988352135262 644.9334501554731,205.30988352135262 643.7327691928322,205.04547872351415 641.7316341609661,203.99578531768202 640.255121044582,202.98602728458286 639.0057637198514,201.24670179365708 636.8585998841043,198.94572493708884 629.795134207828,198.33629644395953 625.7550048141198,195.40879158528102 617.1122649694852,191.1880971688413 612.7097679182083,187.1257887110937 611.0223242759445,186.43113678255492 608.9130198643084,186.23437467573078 602.4985708431932,187.81235092710034 601.7954693098951,187.8364396738163 597.4632824966642,187.17397053643714 594.5859748297316,190.85901427420828 594.0180850682195,192.02278315268214 592.9958838175181,193.2104560004157 591.8763298426489,193.8964976673176 587.8470173869129,194.79508327682152 582.5196714326148,196.86064659998138 579.290813046104,197.81503812884458 578.2794286392572,197.82305766873935 576.5270833691303,197.49825689367 574.9532177168192,197.57043601041676 572.8385046950008,198.13581640686374 568.6361212316252,199.94797368038164 566.0508711724675,201.51924779810153 563.3899023592222,202.15248058339378 561.2102878036633,201.8559094386354 558.0463310450156,199.23438532126067 557.0728058740281,198.1839321616834 556.4886908467365,197.85513616691617 545.5906175983258,197.9112729162599 541.9507153804149,194.99965788097444 543.7192860104446,191.18007085606794 543.9031741443142,189.29367971333465 544.0005265861123,185.68823420651682 545.4121380746329,179.9354368706484 547.27806124059,177.2424160613297 547.3267375085503,174.32730627632634 546.5965936773713,173.1448765253882 545.4770397025022,171.81342869797547 543.286608114842,170.10756470914814 541.025866477388,168.83597676283122 537.7266979469539,167.8137311494282 532.2425063449195,165.10052506272504 515.3680704870505,152.3433732848616 513.4642879911112,150.09687753066228 513.5940912468437,149.3747995533621 514.4053622540408,149.14081611318338 514.8975332614594,148.8382411858966 515.3680704870505,148.35409757638834 516.8445836034342,145.6302423845436 516.9743868591667,145.10554139974064 516.9581614992641,144.2982417695765 517.0555140351848,143.8864874651507 517.1853173850407,143.5796763163172 518.4022238017135,142.19080498644487 518.9701134691022,141.2257200154453 518.9863389231343,140.63207420371407 518.8078593053119,140.19589837214488 518.5320271515691,139.75162035930154 518.3535475337528,139.1295899300346 517.883010402291,134.70935354172175 518.0777153800097,133.82016171473038 518.6131542334639,132.54278581975683 518.888986387207,131.17625206798914 519.5055523225566,124.9187416094585 519.7056658163349,123.9353765676479 519.8679200742481,123.59541977814317 520.0626250519673,123.29592193196443 520.3546825656189,122.95593772081556 521.1172772107267,122.33664340419122 521.7662939600108,121.96828223553649 523.1779054485314,120.77807578403646 527.8940939835336,120.86714500865232 529.7005239435457,121.50679471884004 531.2635726578786,122.58355744348157 532.6319163944861,124.12153737004328 535.4875900913335,128.25237722253456 537.2669776593473,129.8822766371406 539.4520008250771,130.5373778649679 554.4388795469099,126.9174720219555 555.8883503654129,125.7239585497979 557.4135396556401,123.4901919507361 558.9711799480425,122.00066629605331 560.8749624439814,121.1667341582682 566.0454626564201,120.90763072909242 567.202875867154,121.21531522764639 568.4900925218668,121.9844744231417 570.0639581741716,123.85443568295283 570.1288598020411,120.36510543263304 570.8427782733112,106.84672908700796 569.6258718566443,99.07218249210342 569.0904330031843,97.66740883964403 567.1379742392845,96.14055249814297 566.5538591178698,91.07464886612244 563.9740174806368,90.1358628260597 561.5726554612261,86.81874353568531 561.1021183297642,85.2247326425784 561.1129352677422,83.83377794672685 561.296823401606,82.89413544381068 561.3076403395843,81.47429173571983 561.4049928755112,80.91279333800811 561.6051063692838,80.61575284229656 561.9945164188564,80.53030079299462 564.3796529842357,80.70934205211773 564.7041613118158,80.44891706716982 564.8015138477426,79.79781664637186 564.6392596839528,78.15355058842128 563.6170582449988,76.4275184401747 562.1405451286148,75.19789880505303 560.3990167964662,74.5830173587094 556.6022688366893,74.06990107991864 553.238198584269,72.29817286083312 549.81463512591,70.83976383015658 543.2325234249508,69.34033770496053 541.3341493509365,67.52271806232405 541.0924570546836,67.05128199897987 541.566629208928,66.57693762072857 542.0966595269934,62.47508403896056 542.0425748305611,57.64881400997991 542.4211680195467,53.38309256304305 544.4006691229243,50.17310148074612 549.906494652323,45.3352354952178 550.4365250750385,42.31006598188419 551.4857687509414,40.453510636486314 551.9076296761306,38.53106652976268 552.5241955712837,37.025507404226666 554.1034697745614,36.41992988864568 559.566027463079,37.17280306138587 564.9745005598237,39.39008876446228 567.094621936718,39.193748978180366 568.2953029510137,36.41992988864568 568.0681469957559,36.13349194711063 567.6030184390129,35.11041446768538 567.1487066331534,33.85798732851161 566.9431845983374,32.85917759096632 567.1162558571601,31.753790210485867 567.8734420258122,29.755512153163927 570.0909159400143,19.822137772264707 570.1017329002277,15.433375435629134 569.6690551194665,10.574177323880082 569.7123228556792,6.048818766177997 571.1401598252384,2.696243048284724 571.042807287931,1.8332168048160373 571.042807287931,1.0934048293030632 571.205061377222,0.5590529893172287 571.5403867253353,0.2959741165842449 573.8335793610555,0 M728.5863023633658,113.92485733705001 728.2780193956942,113.49532231708909 725.4007117287678,108.49317879321721 724.8003712474443,107.72271517665486 721.5552875010244,107.39828724938282 721.1821028113606,108.6310431768174 720.3383810843517,109.33654804379111 718.5481764842426,109.8392834323147 714.8487809662633,111.62292674457335 707.8123575878686,116.19371516465372 707.2444678263565,117.09297623752252 706.0275614096837,118.18653531423985 705.1676142286492,118.77780465268184 703.8371298220236,119.14226402123074 702.4255184276318,119.30424059466382 699.8889445423116,118.07313610502425 699.1101244431723,118.91549134124672 698.4286568799536,119.95211381362972 698.1528247262105,120.49466709346379 697.812090850481,121.66872322459356 697.7796401306696,123.08950460107678 698.639587217581,124.51003270472489 699.4346327707524,125.38407790430051 699.8889445423116,126.41176781842529 700.1647766019316,127.354374630261 699.2723786069621,131.82316105802911 700.1161004280939,133.36744431118188 700.7813426314038,134.0545947644597 701.1869780408795,135.0528782372086 702.4255184276318,135.75200644259561 708.8075165406894,136.3096485911859 711.614514157822,135.78433456751117 714.3782437406727,135.75200644259561 715.806080683219,136.7621992139598 717.6882293032077,137.61066230132167 718.6942051940008,137.85306385784415 721.0360741015962,137.92578287496195 722.1231770742903,137.16220028366442 722.6586159277447,136.58441455545722 722.99934980348,135.76008855642567 723.3238581310603,135.23473834698348 724.1675799521862,134.4911065400868 725.7252201504712,134.0465107819897 730.6307051471387,133.80399368849413 737.8780590514076,135.13774675743755 735.6173173198305,130.39989194946233 734.9196243025859,128.15934558927952 735.4063868880796,123.89085915462707 736.2014324412511,120.60803183588723 736.2825595231459,120.11407392108171 736.1527561732908,119.72536418758953 735.8769240195477,119.15036285060232 735.0818784663762,118.36068084558173 734.6924684168093,116.34764990094573 734.3517346351971,115.19711784093622 733.2646315683861,113.99374287400171 732.7129673550228,112.70913191314457 731.6204557721582,111.68777892426125 729.6409546162486,112.02013840516241 728.9594870530299,113.17112933414114 728.6674295393842,113.87623191819608 728.5863023633658,113.92485733705001Z" name="Niederösterreich" name_en="Lower Austria" gn_name="Niederoesterreich" admin="Austria" adm0_a3="AUT" iso_3166_2="AT-3" iso_a2="AT" postal="NO" type="Bundesländ|Länd" type_en="State" wikidataid="Q42497"/><path d="M539.4681417524722,68.6759718064291 541.0924570546836,67.05128199897987 541.3341493509365,67.52271806232405 543.2325234249508,69.34033770496053 549.81463512591,70.83976383015658 553.238198584269,72.29817286083312 556.6022688366893,74.06990107991864 560.3990167964662,74.5830173587094 562.1405451286148,75.19789880505303 563.6170582449988,76.4275184401747 564.6392596839528,78.15355058842128 564.8015138477426,79.79781664637186 564.7041613118158,80.44891706716982 564.3796529842357,80.70934205211773 561.9945164188564,80.53030079299462 561.6051063692838,80.61575284229656 561.4049928755112,80.91279333800811 561.3076403395843,81.47429173571983 561.296823401606,82.89413544381068 561.1129352677422,83.83377794672685 561.1021183297642,85.2247326425784 561.5726554612261,86.81874353568531 563.9740174806368,90.1358628260597 566.5538591178698,91.07464886612244 567.1379742392845,96.14055249814297 569.0904330031843,97.66740883964403 569.6258718566443,99.07218249210342 570.8427782733112,106.84672908700796 570.1288598020411,120.36510543263304 570.0639581741716,123.85443568295283 568.4900925218668,121.9844744231417 567.202875867154,121.21531522764639 566.0454626564201,120.90763072909242 560.8749624439814,121.1667341582682 558.9711799480425,122.00066629605331 557.4135396556401,123.4901919507361 555.8883503654129,125.7239585497979 554.4388795469099,126.9174720219555 539.4520008250771,130.5373778649679 537.2669776593473,129.8822766371406 535.4875900913335,128.25237722253456 532.6319163944861,124.12153737004328 531.2635726578786,122.58355744348157 529.7005239435457,121.50679471884004 527.8940939835336,120.86714500865232 523.1779054485314,120.77807578403646 521.7662939600108,121.96828223553649 521.1172772107267,122.33664340419122 520.3546825656189,122.95593772081556 520.0626250519673,123.29592193196443 519.8679200742481,123.59541977814317 519.7056658163349,123.9353765676479 519.5055523225566,124.9187416094585 518.888986387207,131.17625206798914 518.6131542334639,132.54278581975683 518.0777153800097,133.82016171473038 517.883010402291,134.70935354172175 518.3535475337528,139.1295899300346 518.5320271515691,139.75162035930154 518.8078593053119,140.19589837214488 518.9863389231343,140.63207420371407 518.9701134691022,141.2257200154453 518.4022238017135,142.19080498644487 517.1853173850407,143.5796763163172 517.0555140351848,143.8864874651507 516.9581614992641,144.2982417695765 516.9743868591667,145.10554139974064 516.8445836034342,145.6302423845436 515.3680704870505,148.35409757638834 514.8975332614594,148.8382411858966 514.4053622540408,149.14081611318338 513.5940912468437,149.3747995533621 513.4642879911112,150.09687753066228 515.3680704870505,152.3433732848616 532.2425063449195,165.10052506272504 537.7266979469539,167.8137311494282 541.025866477388,168.83597676283122 543.286608114842,170.10756470914814 545.4770397025022,171.81342869797547 546.5965936773713,173.1448765253882 547.3267375085503,174.32730627632634 547.27806124059,177.2424160613297 545.4121380746329,179.9354368706484 544.0005265861123,185.68823420651682 543.9031741443142,189.29367971333465 543.7192860104446,191.18007085606794 541.9507153804149,194.99965788097444 535.2766596595826,200.37288926631487 520.203245245684,206.3994606478776 519.0674660050291,207.96947340344008 518.6780558613334,209.0546855984197 517.5260511666529,210.16377312387218 515.7250296285592,211.11658558728786 512.4258611922544,212.07729016820102 509.7973432870609,213.63018666575067 505.1027886280213,217.20711141388202 502.53917235069673,217.99910094087818 499.4671598001687,218.00310072241328 497.34162984037755,217.37511567507264 495.0646627488917,216.3590359937861 489.16942712720476,212.24540163864492 488.1959019562175,212.02925769369566 486.7680651077938,212.38949446641053 482.86855600191933,214.218448084171 477.76836602752104,215.59089044465983 475.65906152175603,217.10310685163964 475.010044772472,217.1511090280102 474.4908313730495,215.65890640483897 474.32857720925944,214.4625438869428 473.1603469664239,211.51689302291106 468.4171161335407,205.91077162449736 463.8036885563899,206.54365832338573 462.2135975441762,206.18315928207844 459.46609332122847,205.12560228737414 456.31836192248943,204.54468788982277 454.9013421061671,203.94770465279515 452.35395118874584,202.44102571639715 451.4128769258159,202.28072422206958 450.2608722311355,202.51316041474533 439.0869669231051,208.08961478958537 437.32921313693043,209.5431834666649 436.0149541843306,211.2767108979901 435.4308392511621,213.47010822439427 435.17123245732796,215.3988427668937 434.99275293362894,218.43106251532112 435.0576545614983,219.94674379164755 435.41461370301306,221.5580917857951 436.2583355241392,223.14113677415133 437.4103403129486,224.68390634701797 438.7462331414988,226.17044077043306 439.5575040545731,227.4409703131368 440.5310292255606,229.52612210393943 441.01779181105434,232.0539440699824 441.06646807901467,234.11794337160524 440.6770580294419,235.76237656762336 440.33632424783565,236.45277909037858 439.8982379303025,236.94360706344975 437.28053686896396,239.20182929213348 436.9398030873577,239.80019193512652 435.6579950428217,240.10733430929585 434.684469871834,240.62187121375797 424.98707777431684,238.7390650488387 418.9620388027686,234.90827120594184 415.2626432847896,231.1155877700096 414.44596376154465,229.0228589349969 414.24044184584176,226.68986384746597 414.82455696725646,224.65992768404863 416.43087343350203,221.94988437598045 417.0149885549167,220.72646853252775 417.3232714284711,219.1269514974573 417.0149885549167,217.7831115939237 415.27886873882164,214.75865015796623 419.108067606656,202.9780127599805 418.5888541131045,201.65551726197825 417.81003401396487,200.20052067985614 415.2139670168292,199.87581593581254 413.03435236714716,198.94973407356997 412.04460174213375,198.34030602434026 411.4767121688679,197.83508717291147 411.13597838725593,197.3017660254116 410.63299044185914,196.14678388518013 410.8276954195841,195.41681366924604 411.54161379673127,194.8392077342668 415.65205333436234,194.65468602987912 417.3394969766204,194.34179147316928 418.6213050211623,192.72898817420685 416.1712667337849,190.4978103648806 397.2524280921429,186.2825617177851 395.6082522959211,185.1500888924271 394.65095257895933,183.85678581679772 394.2128662614262,182.4748900018451 392.8823819489296,176.80019191892606 392.59032434115466,174.77368848222818 392.4929718993568,172.72253788104112 392.75257850494495,168.34901768502925 393.0121852046621,166.4854216829893 393.3529189862684,165.16494426857008 393.7261036759322,164.39993360209002 394.26154252939244,163.95699949183168 395.00791181459743,163.8361950112938 397.8203177595317,164.65762959561025 399.345507143882,164.8025799272288 400.82202026026624,164.41603996747253 401.7793200713507,163.27241655538856 401.87667260727187,162.07224151827856 400.9842744240563,160.97259433928286 400.0432001611264,160.32401342592505 398.97232245421793,159.7841607777452 395.8029572736399,157.49542522343296 388.6583644213455,160.78326241831007 382.6333255439263,161.5002827634688 378.63646390212483,161.04510308573037 374.51520752064437,159.59882987470397 374.02844493515084,159.35708727046344 373.50382311379786,159.00251836256876 370.45344425097977,155.76231982194454 367.85737725384394,154.22639384561083 365.2234508326028,153.8595017476427 360.78850306152015,154.10947391915724 358.84145271954543,154.71018195346505 357.5596445808802,155.7220105353994 356.76459902771484,158.07573002403225 356.47254151406895,158.76075787147616 355.1853249534793,159.5665978468422 350.3014737386391,160.94842437737344 348.2145251030676,161.79116770814068 347.93788657589704,160.11439681390644 346.36942943750086,156.6328239502428 339.00308915780283,148.92283730927574 338.02956399410306,147.3815608400012 337.0993066712815,145.50096235335312 336.56927624856263,143.4422887132673 336.77479828338755,141.33462612892458 337.41299809896174,140.21192714586064 338.0836486905385,139.98171404004967 338.76511634698477,140.01402510131763 339.40331616256793,139.72322131011038 340.8960546841017,137.38428802301476 341.3179156092909,136.86712558209663 345.48243985088,133.94937852431997 346.84537505913136,132.38095175255233 348.75997450585436,129.36450120913253 349.7118657491208,128.3210127042692 351.29113984773943,127.47560588556313 357.0890228843703,126.34690893842415 356.9484026108595,125.97468705690805 358.57094455035286,124.66368034135775 361.9458316379631,122.78176590769691 365.83993229274404,119.0409004228881 367.5273758888891,117.83810620371133 378.37677275371834,113.52761417869746 392.7957617807629,111.01073120450046 396.3112693512145,109.04449594416837 406.5441002162433,100.10314765310878 408.0043879617838,97.65510078106402 408.599319936492,94.32080952110053 408.80484197131693,93.508346374493 409.2807875929503,92.69579998868463 409.7459162543522,91.6149847628068 409.96225524939655,89.97722860898601 409.76755017479405,85.53367348788532 409.96225524939655,84.06956087502736 410.4598346868006,82.62551867643239 411.86603773590895,79.64304525365361 412.1580952431594,78.108648947951 411.93093939255476,76.72458858438443 410.95741422886704,75.20591532023728 410.5355533036658,72.36321963599444 410.2218618759853,71.65442327606607 410.15696021933974,71.08408144369778 410.73025837827134,69.98809513386334 411.6713326613064,69.1160870435097 415.0894876944599,67.83234914976703 418.5941780953736,67.359555041985 429.4435749602026,70.39146825466041 431.2716389345181,71.3774053143484 432.9698993862145,72.64020316119857 434.5708074052662,75.1000451503983 438.85972653236206,77.03398781045945 439.0868823829667,77.27417096434905 440.0171398104419,73.06787952641102 440.9041293970628,71.27148402221111 441.26108856094703,71.35296196780571 443.43529473893585,71.00260073500678 444.2681995244536,70.64407544799656 445.1335552952946,69.78436347298478 445.6311347326986,69.03866098372316 447.42674782635265,65.15009220385608 448.07576449748734,63.07867087065378 448.40027299004936,60.802745284035154 448.4759916069146,58.15075247950124 447.924327368416,53.04826877480053 448.1947509552244,51.16155817820804 449.59013693946014,49.82997200296017 448.2812865323121,49.200862645824174 447.76207317446597,48.7187838512993 446.64792773725844,46.52045927304008 446.10708045898235,46.71661723131658 446.3450532697976,45.212616067341116 449.4711505863822,38.62106374170371 453.67894266884315,39.750032189679196 455.66926073244053,40.837943300948744 457.57304321896163,42.32642138213725 459.8662357500199,44.23159141040095 466.90806764181804,48.10592958582832 467.8275081090796,49.10281498841707 469.5690364016511,51.774175840880815 470.2396869932274,53.072768664569296 470.7697173112841,53.570914325531426 471.49445280860243,53.86488716498011 472.12183566396624,54.30582619233325 472.3922592507746,55.26927393041009 472.1975542808314,56.25709447325313 471.72160865919807,56.40403231394301 471.2132121569151,56.30607400381144 470.8995207292408,56.534641561579065 470.1964192570149,58.01200847151838 469.6014871776414,58.23236560571043 469.4067821030479,58.68938293832852 469.8935446848916,60.843538211846976 470.3478564907453,61.708299418792095 472.1542864399596,63.95949890957562 473.030459066358,64.7423750061572 476.5892343730133,66.23451802877535 491.4192673650487,67.8975598245383 501.80353556847274,71.56480080272922 502.8095115081628,71.4507345865623 503.6315995427792,71.12482148403791 505.74090395945746,69.43393275618826 511.18182772754193,67.09053903455685 512.8368205476849,65.39063560758794 515.1840978798374,59.1626945396071 516.7092871773734,58.109945679953746 519.218818703467,61.06381642349914 523.3941599052724,63.24995079461206 524.6272916955584,63.55172044380099 526.1957488339574,63.20101402876167 529.3326632154235,61.69198402251732 530.9443881946946,61.561459800380504 531.6150388909215,62.15288036353403 531.7448422042189,63.160233238584055 531.7556592691004,64.21231117410238 532.0909845125547,64.87692401155323 532.9022554823015,64.96662213189988 534.50316350135,64.40803112629706 535.1846311578081,64.55889533606113 536.3095935552262,66.0469964901099 536.9261593457175,67.5307424649474 537.7482472756744,68.56186370364559 539.4681417524722,68.6759718064291Z" name="Oberösterreich" name_en="Upper Austria" gn_name="Oberoesterreich" admin="Austria" adm0_a3="AUT" iso_3166_2="AT-4" iso_a2="AT" postal="OO" type="Bundesländ|Länd" type_en="State" wikidataid="Q41967"/><path d="M798.2635758682386,158.19649558596998 791.6976895980677,163.69915513238743 792.8010180750617,164.97961201364723 792.7577503388491,165.94585888943672 792.2493538365632,166.9200396359349 791.9572963293248,168.2563262057413 791.7517743991594,168.5179224477589 790.7782492354625,169.181936124885 790.4970085837725,169.6245811550883 790.605178081302,170.30057389649454 791.1243914391363,170.61440823948453 791.6760556776348,170.79143747810343 791.89239467267,171.1012294215756 791.4597167872588,173.87273000341455 790.8539678523368,175.91152359440866 789.815540927326,177.48349344783568 788.0956465551968,178.84213439188645 784.4719696965486,179.64997446013686 783.1631191847388,180.33717720630642 783.1955700653913,182.03282889877968 783.8554036967453,182.73187934094327 786.051243795167,183.7482060306727 786.8733316204742,184.36677676295417 787.8793076648144,187.27020747884598 788.5607752166105,188.25384254645854 786.9923180782115,189.999999592876 787.1329383517225,192.67268960736874 787.8360399286106,195.81777912159356 788.0307448985538,200.88583982332264 788.5499582563881,202.44891548152972 789.436947843,203.63103996263436 790.626812001732,204.3762899927255 788.4742397441851,205.37786127232428 780.8482927332387,206.3993354987181 772.5516951307246,208.47793464118106 768.5818758590817,207.7490844459421 767.0566865615548,203.68713645563304 765.6721174328703,204.86106621919538 763.6168977126275,208.1335410502904 762.4594844345479,209.27478865938178 761.5400439672744,209.49501062217504 755.6448084980076,208.56603282318545 754.5198461005803,207.87723858780907 753.3516158622813,206.66369583148793 753.0969005267679,206.15385128370832 752.5511618527543,205.06137825289343 752.1617518082084,203.42668512822152 751.5992706094905,202.03212511389768 750.279603242129,201.1062920219835 741.8964700625214,197.83897170461952 737.5047899703364,197.28560049789513 733.6647740119909,199.02578399481652 733.03739115663,200.52508690545977 733.2212792710221,202.56913955414663 732.6479811120906,203.90350503963205 731.7609915254814,204.76090817421655 727.5856503236729,206.96809996708967 726.3417015731678,208.08948955428156 725.6494170611583,208.51797941726565 725.1626544793145,208.4178671028957 724.6434411214713,207.9333054403179 724.0376920818871,207.1683596301137 723.2696889530156,207.94531977031843 721.6795977895151,210.5239685406387 720.760157426913,211.68489127642104 722.6531229532119,212.77760669369238 728.5159077511566,215.15064914402998 731.4148493218078,214.50243388075066 736.4527481904116,216.5618501663427 738.3052438752105,217.31898958229564 741.7558497890103,216.7269546321652 744.038225359858,217.77498684893212 745.8662892295054,220.2305274440018 746.7532788161142,223.35685747642825 746.1691636969659,226.35411566884494 747.9431428701959,227.3529535892728 749.3926136555169,228.82701225145883 750.2038845205926,230.76405030493055 750.0848981675234,233.1437726690492 748.9707527303187,235.1156944699569 745.9203740305963,236.40077650186066 744.7305098718647,237.6896435939569 745.1523706924035,243.90762594128464 743.6973965198962,245.0447047335482 739.7655316207538,248.11669970187978 728.5159077511566,253.25548840009216 727.2611420404294,251.21629869773395 725.8657560561938,250.24431619899306 724.5569054397334,250.6028479320567 723.4968448036112,252.5545750683397 723.7564515348683,258.46264333520315 723.5292955796014,258.91631896369813 723.0100822217672,259.18692037757756 722.5557704159138,259.6007636849279 722.4908688639212,260.51194016710207 722.7829263711626,261.10076832123656 723.2588719927929,261.35538322556533 723.7240006542066,261.53440465819574 724.005241305897,261.84072084926646 727.1854234235639,268.50917261727426 727.607284244103,271.0367359515756 726.9149997321051,273.0947653724849 725.4330780661229,274.45325463981635 722.1771773315787,276.2125961643904 722.1771773315787,276.22450919086305 722.5233196399143,278.9084518575495 720.9115946606436,282.2740333488395 721.2793707847562,284.8092019240025 721.9067537447702,285.34866569273146 722.7396585302879,285.2772682477711 723.6158312613483,285.3605654359708 724.318932628918,286.3521319841427 724.3513836142298,287.7004676609339 723.4968448036112,290.3171847773058 723.4643940276179,291.1654542404838 724.8705969720759,292.09289955073217 728.4077383582983,290.396465998605 730.1276327304278,290.5629542840811 731.404032256926,292.4258025505698 730.9064529241813,294.22086634565136 728.5159077511566,297.3781042805915 726.3092507971743,298.7483670746403 725.6277831407282,300.9854371668919 726.4066033344727,303.00816789030426 728.5159077511566,303.71264067109115 729.7490395414426,304.33790787913324 730.1168157702084,305.1332730858761 729.6949548450071,305.9720813873239 728.5159077511566,306.727725894566 723.8321700470622,308.63037260206545 722.5233196399143,309.80891975214234 725.5196137478698,310.17668616222073 727.0123522694037,310.67492410734695 728.5159077511566,312.058757758119 728.9810364125675,313.7150941460235 727.001535309181,314.1933527897402 724.2756648927054,314.2249722465943 722.5341366001339,314.5490642011724 722.5341366001339,314.5648732527218 722.0798248989424,314.9838013744561 721.5714283966568,315.1102658520877 721.0305810137214,314.96008893189514 720.4680999196715,314.5411595873722 718.6616699704484,313.1814665570434 716.4441959515932,312.90871000127083 712.182319172709,313.426544425489 708.2774016623708,312.6398974442954 706.849564797483,312.83360153520795 705.8544058180123,314.5253504896615 705.400094012162,316.8450036350805 704.5563722664245,317.544326144247 703.5179454460824,317.7734696657121 702.457884705298,318.68207840770435 702.1874611184895,319.61428436295483 702.2739966955774,320.4634468133664 702.2199118944916,321.39149945388647 701.5168104222628,322.50502294857864 700.7920750295948,323.0656756779413 698.6070519960545,323.99737913669304 695.9460832362187,325.94729429310644 694.7345852617157,327.20225542306224 690.9378372488954,332.38579839057945 689.5965358564329,333.6752539860546 687.9199092205159,334.45986855500695 683.6183972396412,337.00980511892476 681.4297416718694,338.3069339986781 681.0547839644877,338.3996952162725 681.0512330766876,338.33070148871633 681.0187821686301,337.70016132942476 680.8727533647485,336.0211103619382 680.6942737469266,335.658452927647 680.2724128834253,335.0198212228688 678.9743793848572,333.98292353944765 678.4659829234071,333.2455813855615 678.3902642634423,332.3031055329765 678.8445760350016,329.7511693809507 678.9257031168967,328.19279325889545 679.2826622584116,326.75250925250185 680.02903163774,325.2882880369796 683.7771034236791,322.0234279489367 688.8448426782659,315.3000826375536 691.5923469012138,311.29977895485996 692.3387161864188,309.6824960936362 692.4522941763715,308.64236164467565 692.1764620226285,307.34892881374014 688.3743054526751,302.52541536457124 687.449456549654,300.7955330645981 687.0275956861467,298.66137103425 686.9140176961937,297.1168221581654 688.0173462170427,292.33873882839544 688.0173462170427,288.192281634134 685.145447066164,277.0584977602742 684.9994182622765,274.65991278292717 684.1881473492024,268.83522202530156 683.1929883022644,264.5414954219196 682.0247581535519,260.73089081525063 680.1750604416272,256.32139341654994 680.02903163774,254.99170425677198 680.3859908733779,253.7016169100358 681.9760819797148,251.50719855292755 683.0469594983772,250.43167579089598 684.317950699064,250.28029447194612 684.8858403664527,251.1367570310564 685.2103487881562,252.18032309872726 685.5835333836972,252.85737417282834 687.5143582716403,251.77406522131952 693.5556226030916,245.4306045325328 699.5806615746399,245.54221609207167 702.2416302937622,245.04792480162834 704.8593312609772,243.63663647595803 706.563000263144,242.2889044994263 712.0363749272003,236.43282607659927 712.2148546391454,234.88432296604643 712.2797562670088,232.99219107452527 711.6956411455941,231.1555200936822 711.3711327238906,228.95096176810736 711.6956411455941,225.56307267310356 712.2959816269175,223.78865637937182 713.3019576118335,221.92189973411965 713.9671999092725,220.92638585736157 717.4123971494646,214.23045306493015 714.329567566835,209.4590999086964 710.7870176024754,205.301871454431 709.1807012303532,202.5612499467028 708.3532048632534,200.64546492932615 708.4018811312138,191.16401834610093 712.0039241132716,190.73460139794918 713.2370559839705,189.72317366317108 714.52427254456,188.24192420751734 715.1408384799095,186.8527534114609 715.546473983508,185.04566831130686 715.7574044152586,179.01910749589265 717.3474955215955,175.95587766406175 718.9862628017755,174.1785067721346 724.0540020563626,170.25241637176757 727.0611129790213,169.3591229292227 730.7280576830655,169.12169926838925 738.0727640291324,171.54791713526953 742.1615696908071,169.45569993096788 744.1951556307249,167.38708606888514 747.8134239726858,164.83479072429256 749.2737117291667,163.48182460362696 750.3337724039741,161.54056279290498 751.8102855203581,157.6163253722792 754.390127251714,155.46805755264748 756.6184181693565,154.44007052638995 757.8353244919066,154.20220362244262 759.068456268482,154.3916914405118 763.487178867908,152.2949813652466 767.7274217553947,149.18922713920367 770.1450091347082,148.05149284947913 772.292172876333,147.79326115363065 773.930940156513,148.52758574772093 777.1273478232124,151.0366913932752 778.787749073466,151.89573775927093 780.0533317580994,151.1254233319781 780.7997009491871,149.67332014256866 780.9457297530687,148.39847856796402 780.6212213313653,147.19606814421388 780.5563197035018,146.09840797457144 780.9619551129774,143.78152710889097 782.3411157875635,142.32405015423268 783.1037105267943,142.00910331863608 784.2124474695679,142.56227100440535 785.1048455586601,143.17595956273067 786.3379773352358,143.43434073773972 787.2466008783599,143.1840340219693 787.9767447095392,142.80452209706684 789.2747782081012,141.4478210943903 789.7722731911133,142.35218786915968 791.1352083993587,143.80965961115504 790.0643306983637,145.12963301079466 789.5234834200845,146.71169878766153 788.9285513407141,149.61671821703476 789.339595410364,149.87489090074493 790.5943611210798,150.91959882633319 790.0318799223705,153.4803706960534 792.4332419509464,154.79471587131596 795.8189461034412,156.0000143840252 798.2635758682386,158.19649558596998Z" name="Burgenland" name_en="Burgenland" gn_name="Burgenland" admin="Austria" adm0_a3="AUT" iso_3166_2="AT-1" iso_a2="AT" postal="BU" type="Bundesländ|Länd" type_en="State" wikidataid="Q43210"/><path d="M35.52285088667168,313.24866608789836 35.07935604103168,312.8691793323338 35.25242729985432,311.12568442899067 15.479049872488321,304.89190184131144 13.726704619697415,304.62678077952023 8.242513010749626,305.30737257346004 6.284645723133975,304.78902004214626 7.022513694677857,303.853835760482 8.788939249551019,301.61460512812994 9.172770333574473,301.1279552858032 9.897505726233478,297.1444236117822 9.733957180189032,296.5412724099358 9.247125473091753,294.74561861776493 8.837444985452168,293.2342249141901 6.349547379788557,289.76219420145765 4.810129123314419,288.85317242081356 3.234266918764458,287.922524950583 3.223449958544851,286.5900897474017 4.261876778884321,284.2816030871924 4.370046276402007,283.18662666621526 3.4722397295794885,281.05575911344346 2.4770807501121,279.71822424885744 2.011951984039023,278.3685584825913 2.3001542079462793,277.4914061146515 2.7150535609183737,276.2284801445644 1.3633810960584785,274.9772046039868 0.9518913479168338,274.59624027295337 0,273.1901055200802 3.3640703367150118,267.4915654380979 6.933662498939808,263.1891701767744 7.333889503698962,262.13111391557845 7.874736781974848,259.41772018020305 8.36149936382758,258.03680186901613 12.417854107887377,252.91300434947698 13.434647112458793,250.570979041691 13.521182689543613,244.0352059201335 10.52488858159725,241.39548427895818 6.630788031469757,239.61657408049936 3.537141386225314,234.95604259200022 3.339058983267307,234.03041448461482 2.7553769924182028,231.30228104182612 3.0071110681596225,231.458874184466 3.4526428088647125,231.581072497421 9.572997338330563,233.25954655283866 16.279503882015607,233.1437726690492 19.13517761179159,231.78629915723684 20.649550053764404,229.4221519893037 21.947583605355053,226.60982988995724 24.229959176202456,223.95639846962072 25.744331618166296,223.1490062415113 27.312788861227514,222.9731279743981 28.794710527207194,223.50874536298411 30.017025357273287,224.84363706007343 30.363167665606007,226.6737572921521 30.157645630793084,228.55539040058136 30.55787274021158,230.1889783821578 32.68881097266637,231.29116358999994 33.532532823065516,231.2272729874238 34.81974941444269,230.39664794973078 35.34977983716159,230.25287737609665 38.497511074179044,231.4189434293554 41.61279153521233,231.66651101289156 43.192065633822,231.35505368579277 44.45764830475996,230.34073758769344 44.749705812007335,232.89625032778687 45.84221743344418,234.34135342700472 47.1510678405951,235.650505036831 48.10295918850908,237.7295431304741 48.10295918850908,238.19635524220845 48.135409964502436,238.66712963103026 48.29766415845226,239.56870569689866 49.44426047631226,240.25479332331074 50.36370094357684,239.8559123526412 51.29395826640146,239.0421336354066 52.48382221581224,238.49956900139014 57.63268858130844,246.03635245888847 58.5521289439196,247.84572711043924 58.065366466729266,249.46744266736638 55.68563835858335,251.31986377315624 56.83223457178138,252.6581228199915 57.11347522347155,254.25896300663635 57.21082776077861,255.91521940305458 57.773308854828464,257.3880469512232 58.79010175472894,258.37508893770195 59.49320333161726,258.3432508656897 60.29365734114148,257.7502416219847 61.667409509606316,257.09350296074604 62.186622867443425,257.1611693184601 63.268317528657825,257.81790263146064 63.80916480693393,257.8218826369444 64.25265965257393,257.47959222361135 65.49660829841092,256.1063041630535 70.09381042541776,255.27027527888404 72.01922683236911,256.3093266602514 71.94350832016609,259.08345616075206 70.05054268920502,264.7799712908863 70.28851539536093,265.7899675377463 70.34260019645524,266.7123734920604 70.08299356985727,267.7380289981032 69.57459706758043,268.2388831831128 68.19002793889621,268.65226337465765 67.76816701369827,268.94241182489833 66.80545891488008,270.6791099385358 66.3835978850228,271.6406909395816 66.84872665109282,271.9108665420857 68.42651486610755,271.71793950711725 70.15338809823565,276.1372709361447 71.4027454229601,283.03598135249996 71.48387250485534,284.5514810092487 71.27294207310469,288.8266765000082 69.71530178070229,292.63596546651866 65.65353860516083,298.7920500812366 64.58266089824625,301.65458252924174 63.36575448157368,307.76427361828246 63.17104940973153,310.160992234048 63.28462739967843,312.01539290899825 63.60913572725899,314.14604701616247 63.65781199522527,315.7901030378052 63.3819799356053,318.4530840396104 62.71673773229557,320.349036988675 61.5755499755873,321.9128655485951 60.2937418369282,323.0657989192177 58.947032070399786,324.7554197593914 58.6062982887876,326.053978433243 58.84967953447291,327.5575212517795 61.21859073994918,331.4472903721899 63.10614778186243,336.42316823997015 63.203500317783394,336.8409719080822 63.218266546432844,336.90434184273937 61.764762046904615,336.84873170296635 57.243278536760144,335.3981524494825 54.88518424439694,334.0340568658893 50.839646460547996,330.18891592438126 39.6441073920362,326.5787454458995 37.04804028885796,324.5895079920687 35.717555856614844,322.7024403040581 35.54448480710476,321.26908164562616 35.87981015521809,319.6221838904962 36.139416781804016,316.0349786108556 36.57209466722462,314.5727776904884 36.57209466722462,313.67161459387535 36.17186766245671,313.19727827038275 35.52285088667168,313.24866608789836Z" name="Vorarlberg" name_en="Vorarlberg" gn_name="Vorarlberg" admin="Austria" adm0_a3="AUT" iso_3166_2="AT-8" iso_a2="AT" postal="VO" type="Bundesländ|Länd" type_en="State" wikidataid="Q38981"/><path d="M63.928151160011886,336.931501443459 63.218266546432844,336.90434184273937 63.203500317783394,336.8409719080822 63.10614778186243,336.42316823997015 61.21859073994918,331.4472903721899 58.84967953447291,327.5575212517795 58.6062982887876,326.053978433243 58.947032070399786,324.7554197593914 60.2937418369282,323.0657989192177 61.5755499755873,321.9128655485951 62.71673773229557,320.349036988675 63.3819799356053,318.4530840396104 63.65781199522527,315.7901030378052 63.60913572725899,314.14604701616247 63.28462739967843,312.01539290899825 63.17104940973153,310.160992234048 63.36575448157368,307.76427361828246 64.58266089824625,301.65458252924174 65.65353860516083,298.7920500812366 69.71530178070229,292.63596546651866 71.27294207310469,288.8266765000082 71.48387250485534,284.5514810092487 71.4027454229601,283.03598135249996 70.15338809823565,276.1372709361447 68.42651486610755,271.71793950711725 75.16695817404874,270.8936875363847 77.44933374489638,270.0075249749153 82.13307134431973,267.13378258720564 84.17747420900815,265.26510328583953 86.05962277509072,262.7357344356466 88.3852661868102,258.0606813793305 89.0126491468331,257.09350296074604 90.09434370338838,256.3650574302253 92.30100065735874,255.59673511359287 93.19880720419307,254.99157979840717 94.94033549676175,252.6780358569312 96.46552489894782,249.5590776478596 97.41741614221145,246.09215436367248 97.39578222177245,242.78324021348857 96.96310444101141,240.87301989841967 96.40062324230222,239.51285878716024 95.50281669547073,238.5155273287246 94.03171209437875,237.71358324691062 95.09177273049197,231.55470722003093 95.22157614844274,230.12507903580405 94.52929153178299,228.395608443009 93.62066802473211,226.68973890875952 93.4692308956608,225.35515365387286 95.03768803406881,224.73573486256933 96.79003328685074,224.42001280346645 97.59048729637496,224.10427835985618 97.95826352514973,224.39203691217276 98.42339208189253,225.8346707492213 98.29358876860417,226.44201843062854 97.78519226631813,227.1851574638595 97.39578222177245,228.16791380276297 97.57967033615557,229.4940450895979 98.13133457465106,230.2049531781606 98.98587338526983,230.81197117616497 100.61923218032365,231.56269334499856 105.07581392915114,232.24147745866148 106.30894582409596,232.02586979287875 107.6394301516769,230.95573177014953 109.75955163323361,227.99613990920975 111.20902241856366,226.9853957224748 113.7401877604398,227.01735799601155 127.5534278525629,232.24147745866148 127.97528877777003,232.7285698113087 128.32143098144363,233.52701796026733 128.84064433928074,234.26152044336172 129.73845088611225,234.53295010206148 132.83209753135668,234.1577360575981 137.0507064693781,232.22550685571056 138.53262803068947,231.80227078552613 139.98209892067865,231.90209255169492 141.0962442532181,232.5329378731873 143.4976063864621,234.34135342700472 142.62143376007268,235.40305984831016 139.24654656778822,237.7056033704866 139.96046489557747,238.93043228712332 145.34730407188914,241.42738943916925 150.57188905425977,247.05666650395867 150.88558048194284,247.7580574862656 150.91803125793314,248.7940916779025 150.6800584471181,249.86186467992076 150.3447332036639,250.570979041691 150.09594343262643,250.58691350260068 151.16682102896186,252.67405331512546 152.62710877451153,253.5262795746055 163.54140729598635,253.68556413093322 165.585810160675,253.0603538049164 172.4221200176484,248.32789278490964 175.06145496171033,247.606625989748 177.30056269168304,248.52314183507858 177.07340684107842,252.7138789530409 179.58293826253066,253.00061799250182 181.86531393802844,251.95715776829002 183.3580524595712,250.35586112541074 184.74262158824646,248.4912647303689 186.7653904278368,246.61029491077383 188.7124407552302,245.98852216794882 193.2555581858047,245.8809027449486 194.9538186374923,245.15144462078544 195.8516251843238,243.62056372537478 195.45139817956772,242.47221236057865 194.31561882191792,241.72649375204102 193.02840223054994,241.3755435283135 197.96092960099872,235.69839685108255 200.34065781381275,235.13964192474825 202.91509089190183,235.49086375479447 205.28400214448422,236.2411500823869 210.19489559451523,235.42700629463002 212.46645430979953,234.5249669209855 214.3702367963119,232.40916826872282 214.90026711437758,230.97969174848123 215.72235504433468,227.40089476337766 216.43627347678327,225.7627449671278 219.35684896786725,223.2289496237408 219.71380813176046,222.78125620735565 221.65004149893429,222.84521402287277 226.21479274527968,223.756556434115 234.73854619839815,223.7925283697874 240.63378177233346,225.00348952601598 241.71547643354765,224.6438170520988 242.7647202141008,222.01372385393356 243.94376720330095,221.31008814982923 252.72712749231792,219.51873770102745 276.7731985541467,220.56640628992218 277.60610333966406,220.3944699393758 280.59158048739977,216.56293722033755 280.97017357171705,215.57476173233218 281.0783430692437,214.12628506455528 280.9052719150743,209.98748554777177 280.61321440783286,209.13464411341576 280.08318408976737,208.77826575309305 279.2286452791486,207.92930071132398 278.4606421502828,206.91202637942357 278.12531680216046,206.05485280484203 277.91979487200666,204.78895260229493 279.57478758749033,204.1158610102233 282.0951359691442,202.01609425929132 283.0037594761892,201.44697888642506 284.5289488783844,200.7776156031469 284.78855550497036,200.7255071078449 284.4640472217386,201.43495498876464 284.1936235302711,203.09008937893367 283.8258473014933,204.31619178194063 283.1551967099286,205.24566119172448 282.80905440158364,206.3272356883247 283.3823525605242,208.03742862357697 284.4207793808665,208.96246315617935 285.5565587385043,208.79027866493607 287.8930191104344,207.56886398374235 290.17539468128183,207.24045189320688 296.2220675936098,208.5299927181968 297.99604666217135,208.24166621441907 302.1064861026751,206.66369583148793 303.8263805794639,207.00014173078094 304.31314316130766,207.8932577505879 305.4056546780823,211.196523444588 305.97895283701394,212.46541742180673 306.82267468741026,213.47798721413363 309.9379550437752,215.98284893611174 311.40905974953813,216.70695270295317 313.5616320070854,216.76295801035263 315.76828906572973,216.33090698939856 317.4016478607805,215.60676936274268 318.3997922764711,214.71586534895658 321.1011278780592,219.39489294666976 323.25910865178474,221.36618623815033 326.94768732590865,223.87658712647746 327.9049869487471,224.94766636890972 328.26194627850236,225.69893538936716 328.1483682885555,226.41816984548862 327.6940565169905,227.61675107869914 327.7914090529174,228.8870524356026 328.21327001054203,230.68430639239284 330.2414473402889,235.84219510550395 330.4848285859742,236.8159147822187 330.25767270019173,237.43440528482498 329.75468475479516,238.57150568031182 329.04076637764797,239.80816986846526 326.99636359386903,242.41651011982114 325.90385191688125,244.23467011924518 323.68096960940943,249.04125092207997 322.95082568411317,250.16476473103572 322.1071039571044,251.1447236212463 321.1984804139801,251.94931635301919 320.1221942851471,252.65028227789892 318.92151332250023,253.14410811129295 313.7726470801414,253.68568862942638 312.7342201871676,253.97637511578768 311.955399993905,254.3466863514953 311.35505951258136,255.14299724766417 310.5924647733448,256.54033314388744 309.635165150512,259.3780518426167 308.5913298356077,261.0451944822136 307.3095216969425,262.32217590551534 305.97903738444023,263.03815201977727 303.9670854146019,263.78190441368713 300.55433889422113,264.2790269015525 298.9804732419102,264.19153568505715 297.56886175338957,263.7540647022103 295.2107675800144,262.44946522476175 293.9776357093157,262.1988624955486 292.45244641908846,262.41764297910134 288.78009319899644,264.668749788761 277.0707490375121,268.851120466675 273.85811601090376,268.73188132521346 272.3924199266211,269.0577974982034 269.48806986768454,270.56002195583574 269.71522575346705,273.6669128610482 268.2549379969858,279.7143788937473 267.9953313913977,281.98051843269786 268.00614832937595,284.7894919271185 268.2549379969858,286.46330371414484 268.79037685043994,288.0574663736546 269.4231682398214,289.02491460560304 271.1592880559164,290.4362302083594 271.9543336090877,291.272596428342 272.8142807901224,293.4007785395157 273.1766485418082,294.93811181800936 273.4687060554541,300.67676318235726 273.38217045751134,301.3458102482199 273.37191976561763,301.4250592012357 271.6026983728704,301.7732142936783 261.0020912790701,307.29737997321376 253.53839835741445,307.6533934159913 248.91956251929605,309.2513063113475 244.47379773067897,311.6554934626417 240.8609376229291,314.5253504896615 236.11229836685095,315.2841515622391 234.95488508877156,316.0270754426335 232.89966536851958,317.7063075497798 231.6881673940166,317.9868043619024 229.73030021107212,317.244059493679 226.34459605857722,314.73086620730936 224.35427799497108,314.5253504896615 223.56464094566624,314.63601352755984 222.77500389635244,314.5648732527218 222.6452005830551,314.5253504896615 222.59111578196953,314.5253504896615 217.2042767103172,313.426544425489 214.71637910465665,313.6597566189804 211.67681726048573,314.5490642011724 211.6660003002751,314.5490642011724 211.64436637983326,314.5648732527218 211.63354941962285,314.5648732527218 210.64920740036587,315.09445786179515 209.6648652764467,315.27624781657886 208.71297403320082,315.1023619372612 207.8368014068024,314.5648732527218 207.28513716830383,313.82181548785223 206.6793881287228,313.24866608789836 205.99792057693566,312.84941392572887 204.15903974706606,312.41060908368144 203.10979596650412,312.65175706115224 202.17953853902037,313.3593462132407 201.37908463415528,314.5490642011724 201.36826767393566,314.5648732527218 197.80949247193945,318.0065572742412 194.60767632915937,317.84458185336047 191.35177569928337,316.2562617531669 187.61992923845554,315.4422262371941 180.2860398394098,316.6672001289567 173.0386860174519,319.02179287063996 171.16735430693268,320.14354016715623 164.3959461066051,326.8786675488671 163.53059033577287,328.75687598919 162.42726196343796,334.12474083454276 160.45857771561145,338.8270944059818 160.37204213852684,339.41026497872315 160.4910284916048,340.99407166217344 160.30714048188102,341.7582859851595 159.85282867603038,342.2506542369976 158.69541550261013,342.77450142800905 158.2627377218517,343.18410288495966 155.91546038969912,347.2002563418848 154.45517264415867,348.73925726500795 152.96243412262484,348.9478463793481 151.18845494940393,348.3535504615283 147.54314417032003,347.9953774338855 145.74753107665728,348.2472810204056 142.2536575312979,349.4279743804528 141.21523071096414,349.506681303875 140.14435300996934,349.0619777006517 138.35955698118815,347.5309101941421 137.41848259348174,347.0427974994367 136.34760499714912,347.02705141744633 134.35728693354298,347.59389044672764 133.32967707342004,347.55452776970986 130.3225660052543,345.84600994005035 129.11106813541065,345.44047981821626 126.90441107676605,346.1373493619994 125.77944867933891,346.09797995546853 125.15206582397799,344.7632384542017 125.63882840583094,344.01111977196587 127.96447171287927,342.1246107847766 128.47286821517406,341.0689204068523 127.45607531526461,339.52847006620465 119.4515352199922,334.7358456321037 117.83981024071234,334.31004837858086 115.99011255528531,334.5150647188866 105.34623762061887,337.4438674739664 101.0086422248691,336.9630327770425 97.61212121681702,334.20753842477876 97.36333144577932,330.95020078581535 98.66136489270778,325.7617961994313 98.09888379866078,323.1841184074527 97.16862637117703,322.07068792313066 93.60985116917162,319.2429946978883 91.42482803096908,315.72675287137935 90.3431333697547,314.5648732527218 90.3431333697547,314.5411595873722 90.33231651419464,314.5411595873722 89.78065227570507,314.1814955764155 89.19653715655687,314.0668740375456 88.62323910228764,314.1814955764155 85.58367725812546,315.9243347797076 82.94434241872574,318.95069098291685 81.11627844441904,322.4576420149612 81.06219374798405,325.31184696255207 78.45530968458316,325.4342040746102 76.42172388477344,324.90134536569315 74.72346343307707,325.2171175228417 73.13337226957664,327.89674193767047 72.6357927275135,329.82994332864604 72.54925715042562,331.11585972328487 72.26801660339784,332.283264200239 71.19713900706502,333.84085731563937 66.63238765605743,336.1628921724041 63.928151160011886,336.931501443459Z" name="Tirol" name_en="Tyrol" gn_name="Tirol" admin="Austria" adm0_a3="AUT" iso_3166_2="AT-7" iso_a2="AT" postal="TR" type="Bundesländ|Länd" type_en="State" wikidataid="Q42880"/><path d="M308.5886328250782,362.9401258754425 306.07630537431817,362.49863367044605 301.8252455556471,360.7618041564182 298.2015685923372,357.5622413373208 296.2220675936098,352.6779340997864 295.3026271263454,349.34533148352705 293.5610988337767,348.223665299362 291.38689265579666,347.9245283333952 289.2018695175941,347.0821623428502 288.1958935779073,346.37356302688386 287.60096149853365,345.7751420030328 287.35217172750794,344.7435503793885 287.3738057526004,342.77450142800905 287.65504629962817,341.00982925349217 288.0444563441767,339.9539943913706 288.3365138514153,338.85073722299137 288.304063075425,336.97485682404164 287.3413547672855,333.63976710905246 285.6863620518019,332.5001619897458 281.2838649994004,332.346362304654 279.8560281345093,331.8178999806514 279.21782831893495,331.07641748315586 278.6445301600066,330.1179116057238 277.4546661059336,328.902853173542 276.2864359722937,328.31498363743043 273.8201722870632,327.873067282291 272.7168437054188,327.42323497512166 274.2528501724838,325.8999334116405 274.2636671326944,324.50266523053324 273.5389316353761,323.05777934293167 272.8574640835889,321.3559589503307 272.2192641633526,317.8287791817734 271.7649525668114,316.0823969999426 271.07266795014556,314.5648732527218 272.1759964271398,311.8848029888303 278.5147268467092,308.3495526485718 280.7430177211302,305.331112914486 280.77670955943705,303.23573298426993 283.6636776764432,301.6941679116334 292.9878851784197,297.43367660599444 299.2076291276927,291.41132178735876 300.97619985184576,290.61064556395434 303.1179551715454,290.2697395158794 305.62207814880804,290.29352416908534 309.26198046084227,289.62752886857584 312.0527525298258,289.679066165027 315.0923143605425,290.705779479737 317.88308642952643,290.9396458501195 319.8950384934877,291.39943104075064 321.7014684535057,292.4021481789103 325.7740486611487,296.3365149096734 326.08233153469723,299.27910836897246 326.9314617777596,300.48672794666595 328.3106225464689,301.60707976031597 337.3373639246225,304.61107612259804 338.2189450757367,305.81790242432805 338.0891417258811,307.4161764261023 336.78569971125967,310.6196893137013 336.5098675575227,311.75841171719765 336.36383875363504,312.8495373171655 336.3476133937322,313.50572363899795 336.4287404756274,314.2290481749606 336.76947435135685,315.71106941734854 337.48339272850404,317.03082884389516 338.5110025893826,318.381977177359 339.40340058435197,320.11206720865704 341.5127051842401,322.0826570797977 342.58358270290233,322.8604941287765 343.8870248116471,324.28962466365624 344.71452117874713,325.88821645059375 345.21750912414365,327.98367194689223 345.46089036982875,330.02336141001115 346.174808841105,332.44507542269355 347.2781373619483,333.94743800420514 352.08626991681786,339.07940449241784 358.3709154939545,347.81444005288915 358.98748152342677,349.00306736027505 358.9225797073173,349.5225454281139 358.8252273596365,349.8452349223564 358.63052219367165,350.24661126636795 358.30601386609106,350.56927183441576 357.93282917642114,350.6558371818713 357.0891074494183,350.506314690695 353.35185260145715,347.71209994307367 352.24852408060815,347.3027259705101 351.0316176639413,347.46017991025803 346.80760023048026,349.3100356361219 337.46716727447813,350.71092376760646 335.24428487288316,351.8243793756794 334.90355118540026,354.46380299344065 334.43301395980933,356.2806146755293 333.65419386066947,358.4744065926113 330.1765457124257,365.28005778788514 329.7168254248128,366.45043545840724 329.7023483120442,366.4872891348747 329.5166273965479,366.4031864858013 324.34612731993093,365.8769271996028 318.2561865667312,366.6780847801742 316.72018030899335,366.5288555296625 314.9894688719734,365.6962629976953 311.7552020578711,363.4965541411261 308.5886328250782,362.9401258754425Z" name="Tirol" name_en="Tyrol" gn_name="Tirol" admin="Austria" adm0_a3="AUT" iso_3166_2="AT-7" iso_a2="AT" postal="TR" type="Bundesländ|Länd" type_en="State" wikidataid="Q42880"/><path d="M280.77670955943705,303.23573298426993 280.80791948243535,301.29422336232415 278.3416556925457,300.4470131277229 273.37191976561763,301.4250592012357 273.38217045751134,301.3458102482199 273.4687060554541,300.67676318235726 273.1766485418082,294.93811181800936 272.8142807901224,293.4007785395157 271.9543336090877,291.272596428342 271.1592880559164,290.4362302083594 269.4231682398214,289.02491460560304 268.79037685043994,288.0574663736546 268.2549379969858,286.46330371414484 268.00614832937595,284.7894919271185 267.9953313913977,281.98051843269786 268.2549379969858,279.7143788937473 269.71522575346705,273.6669128610482 269.48806986768454,270.56002195583574 272.3924199266211,269.0577974982034 273.85811601090376,268.73188132521346 277.0707490375121,268.851120466675 288.78009319899644,264.668749788761 292.45244641908846,262.41764297910134 293.9776357093157,262.1988624955486 295.2107675800144,262.44946522476175 297.56886175338957,263.7540647022103 298.9804732419102,264.19153568505715 300.55433889422113,264.2790269015525 303.9670854146019,263.78190441368713 305.97903738444023,263.03815201977727 307.3095216969425,262.32217590551534 308.5913298356077,261.0451944822136 309.635165150512,259.3780518426167 310.5924647733448,256.54033314388744 311.35505951258136,255.14299724766417 311.955399993905,254.3466863514953 312.7342201871676,253.97637511578768 313.7726470801414,253.68568862942638 318.92151332250023,253.14410811129295 320.1221942851471,252.65028227789892 321.1984804139801,251.94931635301919 322.1071039571044,251.1447236212463 322.95082568411317,250.16476473103572 323.68096960940943,249.04125092207997 325.90385191688125,244.23467011924518 326.99636359386903,242.41651011982114 329.04076637764797,239.80816986846526 329.75468475479516,238.57150568031182 330.25767270019173,237.43440528482498 330.4848285859742,236.8159147822187 330.2414473402889,235.84219510550395 328.21327001054203,230.68430639239284 327.7914090529174,228.8870524356026 327.6940565169905,227.61675107869914 328.1483682885555,226.41816984548862 328.26194627850236,225.69893538936716 327.9049869487471,224.94766636890972 326.94768732590865,223.87658712647746 323.25910865178474,221.36618623815033 321.1011278780592,219.39489294666976 318.3997922764711,214.71586534895658 322.06375153977075,211.44471412641806 324.05406970803017,210.4438987763837 327.78591606419883,209.54706226639675 331.5177624203645,209.54706226639675 337.3913641785199,211.06041572862614 339.18697716752354,210.82822664962248 338.1052826109683,213.5340148591039 339.7494584708949,215.5507558484901 342.46451182250075,217.34299018885127 344.54136556784493,219.350778160582 341.68569173340654,220.76632740715556 340.4092921022578,224.35207094145912 340.96095634074754,228.16791380276297 343.54620648371514,230.25287737609665 345.15793135832695,230.5324291274782 346.142273482243,230.88385171662298 347.02926306884615,231.59463730212175 351.8103532055766,236.85968455698878 356.9375856506399,240.72943611978462 358.0841819685091,241.196074398806 358.9711715551179,240.88897352806413 359.8365272212882,240.41832887715097 360.92903873805386,240.3864197236201 361.9350146777527,240.92486904075787 362.51912979689473,241.53905635133654 363.16814657268856,241.9378540619919 364.29310897011567,241.88601143331476 365.0178443627865,241.25589783437397 368.0033214058513,237.71358324691062 367.970870629861,236.42871071139652 367.7004469383904,235.49086375479447 367.3651215902769,234.7005930692607 367.12714888412097,233.85435873226703 367.04061330703615,232.89625032778687 367.04061330703615,230.2049531781606 367.30022003828446,229.8015803798212 368.2953790177521,227.29702209063743 368.414365475492,227.0732914374511 368.18720962489635,227.16118634750302 368.1006739431496,223.65263657132246 368.38191459483977,223.756556434115 370.0693581909759,221.54197496879567 370.13425984761864,221.1141785579181 371.3782085981268,218.0469729239639 371.6378153293749,217.71098871597334 371.86497117997953,215.838820486423 371.9298729412845,213.95821271980395 371.6378153293749,211.97309444665484 370.8049105438573,209.72323453704868 368.7605076791658,206.22309034105308 367.47329108779456,204.6647553940126 366.17525764086633,203.68713645563304 364.552715701364,203.42668512822152 361.90256390175034,204.59264001481074 360.3341067633544,204.86106621919538 354.5037727414117,203.77528718518562 352.79469532949287,202.0401404516386 354.741745552218,199.03380248920143 354.76337957731914,199.0177658027572 355.4340301688867,197.91114775895196 355.6179182832786,196.88458299084564 355.65036916392205,195.88997335228214 355.8558910940938,194.90326275570587 356.4291892530134,193.68374572696865 363.178963532911,182.85239905864398 362.69220095106704,182.36227399132682 360.43145919599925,178.98682801579972 356.8835009542137,170.7512039110468 355.1203387412034,169.0209681277828 354.2766169954662,168.56621626840433 352.1673124741289,166.38868307752486 349.65778094803545,164.88298093959247 348.8140592022895,163.64680517853026 348.25157800358033,162.01572716576322 348.2145251030676,161.79116770814068 350.3014737386391,160.94842437737344 355.1853249534793,159.5665978468422 356.47254151406895,158.76075787147616 356.76459902771484,158.07573002403225 357.5596445808802,155.7220105353994 358.84145271954543,154.71018195346505 360.78850306152015,154.10947391915724 365.2234508326028,153.8595017476427 367.85737725384394,154.22639384561083 370.45344425097977,155.76231982194454 373.50382311379786,159.00251836256876 374.02844493515084,159.35708727046344 374.51520752064437,159.59882987470397 378.63646390212483,161.04510308573037 382.6333255439263,161.5002827634688 388.6583644213455,160.78326241831007 395.8029572736399,157.49542522343296 398.97232245421793,159.7841607777452 400.0432001611264,160.32401342592505 400.9842744240563,160.97259433928286 401.87667260727187,162.07224151827856 401.7793200713507,163.27241655538856 400.82202026026624,164.41603996747253 399.345507143882,164.8025799272288 397.8203177595317,164.65762959561025 395.00791181459743,163.8361950112938 394.26154252939244,163.95699949183168 393.7261036759322,164.39993360209002 393.3529189862684,165.16494426857008 393.0121852046621,166.4854216829893 392.75257850494495,168.34901768502925 392.4929718993568,172.72253788104112 392.59032434115466,174.77368848222818 392.8823819489296,176.80019191892606 394.2128662614262,182.4748900018451 394.65095257895933,183.85678581679772 395.6082522959211,185.1500888924271 397.2524280921429,186.2825617177851 416.1712667337849,190.4978103648806 418.6213050211623,192.72898817420685 417.3394969766204,194.34179147316928 415.65205333436234,194.65468602987912 411.54161379673127,194.8392077342668 410.8276954195841,195.41681366924604 410.63299044185914,196.14678388518013 411.13597838725593,197.3017660254116 411.4767121688679,197.83508717291147 412.04460174213375,198.34030602434026 413.03435236714716,198.94973407356997 415.2139670168292,199.87581593581254 417.81003401396487,200.20052067985614 418.5888541131045,201.65551726197825 419.108067606656,202.9780127599805 415.27886873882164,214.75865015796623 417.0149885549167,217.7831115939237 417.3232714284711,219.1269514974573 417.0149885549167,220.72646853252775 416.43087343350203,221.94988437598045 414.82455696725646,224.65992768404863 414.24044184584176,226.68986384746597 414.44596376154465,229.0228589349969 415.2626432847896,231.1155877700096 418.9620388027686,234.90827120594184 424.98707777431684,238.7390650488387 424.14335595318494,241.02869109154742 423.3969867620972,243.87585525471658 423.25095795821585,245.06387014134089 424.2569338490147,250.547201988258 427.361397495841,260.9218615807926 430.10349329686414,266.6011785959777 433.402661733169,269.68574522537915 435.18745791135365,270.9732832566066 436.74509810963275,271.3944703652876 438.18916041208826,270.90175886653384 439.65485659049386,269.7334355774596 441.39097640659526,268.9942051706674 444.3331857013849,268.6682862959587 445.8908259937932,267.64274884811636 447.48091710013006,267.1418577206689 448.8600776805929,268.0482094790583 450.56915519880715,271.50969705767943 452.8731646822971,275.1007655842636 453.40860353575147,276.534364381222 453.6844356894943,277.82875340773256 454.1874236348909,279.4563718672798 455.01492000199113,280.87729333425784 458.47634279033815,285.3091244303031 461.6078486409281,287.53404454112547 462.408302616024,288.85046525150307 462.1811467302415,290.4283022299846 460.14756088444693,292.99658576802966 457.0647313018175,295.9839658431493 456.18855866675693,297.35842472499064 456.01007895481166,299.2870276969694 456.22100938656234,302.3591727145515 455.6801621111836,304.0847644507613 454.4957065084455,307.0166373932573 449.9796315613388,315.35540888615026 445.971953075688,320.4991144825431 442.9161658850628,316.4618570865695 433.9218752267205,309.49662636965314 430.2170711926879,307.5664930414541 427.53987701954003,306.72784960240983 422.8939987225775,306.35597043831797 412.3853356178631,304.09267922692925 410.1137769483078,303.93438347661714 400.465061118751,301.3933142714116 396.35462158112585,300.14227774305374 394.407571333274,300.2610551754843 392.80125477291125,300.6569680329273 390.1835538998192,303.19826782962184 387.7659664263821,305.08987127902236 382.2601409483853,307.75636255932017 378.1821522246889,308.64236164467565 370.3236409952473,309.08927981437097 367.18672653448056,308.7531046460495 365.2234508326028,308.20728474701264 363.48733101650157,307.2500339301814 355.13664868551285,301.8643825243486 350.0743179469797,300.23729988326187 346.7102476945593,299.88096091111004 340.2795732194123,298.2891220988139 335.4876661185685,295.9205846410539 331.3447758611318,293.25416187516015 329.9980660004805,292.6716319361796 329.04076637764797,292.58840997548117 328.5540037921542,292.8380732941702 328.22949537045054,293.25416187516015 328.0834665665633,293.6464544907902 328.002339484668,294.1615572244625 327.87253622893553,294.58153990966076 327.5155768991743,295.10450678540207 327.14239230363336,295.47690193933136 325.7740486611487,296.3365149096734 321.7014684535057,292.4021481789103 319.8950384934877,291.39943104075064 317.88308642952643,290.9396458501195 315.0923143605425,290.705779479737 312.0527525298258,289.679066165027 309.26198046084227,289.62752886857584 305.62207814880804,290.29352416908534 303.1179551715454,290.2697395158794 300.97619985184576,290.61064556395434 299.2076291276927,291.41132178735876 292.9878851784197,297.43367660599444 283.6636776764432,301.6941679116334 280.77670955943705,303.23573298426993Z" name="Salzburg" name_en="Salzburg" gn_name="Salzburg" admin="Austria" adm0_a3="AUT" iso_3166_2="AT-5" iso_a2="AT" postal="SZ" type="Bundesländ|Länd" type_en="State" wikidataid="Q43325"/><path d="M333.3890941308925,368.72382183528526 332.4263860320776,368.29979562161276 330.5226034408971,366.85872711546676 329.7023483120442,366.4872891348747 329.7168254248128,366.45043545840724 330.1765457124257,365.28005778788514 333.65419386066947,358.4744065926113 334.43301395980933,356.2806146755293 334.90355118540026,354.46380299344065 335.24428487288316,351.8243793756794 337.46716727447813,350.71092376760646 346.80760023048026,349.3100356361219 351.0316176639413,347.46017991025803 352.24852408060815,347.3027259705101 353.35185260145715,347.71209994307367 357.0891074494183,350.506314690695 357.93282917642114,350.6558371818713 358.30601386609106,350.56927183441576 358.63052219367165,350.24661126636795 358.8252273596365,349.8452349223564 358.9225797073173,349.5225454281139 358.98748152342677,349.00306736027505 358.3709154939545,347.81444005288915 352.08626991681786,339.07940449241784 347.2781373619483,333.94743800420514 346.174808841105,332.44507542269355 345.46089036982875,330.02336141001115 345.21750912414365,327.98367194689223 344.71452117874713,325.88821645059375 343.8870248116471,324.28962466365624 342.58358270290233,322.8604941287765 341.5127051842401,322.0826570797977 339.40340058435197,320.11206720865704 338.5110025893826,318.381977177359 337.48339272850404,317.03082884389516 336.76947435135685,315.71106941734854 336.4287404756274,314.2290481749606 336.3476133937322,313.50572363899795 336.36383875363504,312.8495373171655 336.5098675575227,311.75841171719765 336.78569971125967,310.6196893137013 338.0891417258811,307.4161764261023 338.2189450757367,305.81790242432805 337.3373639246225,304.61107612259804 328.3106225464689,301.60707976031597 326.9314617777596,300.48672794666595 326.08233153469723,299.27910836897246 325.7740486611487,296.3365149096734 327.14239230363336,295.47690193933136 327.5155768991743,295.10450678540207 327.87253622893553,294.58153990966076 328.002339484668,294.1615572244625 328.0834665665633,293.6464544907902 328.22949537045054,293.25416187516015 328.5540037921542,292.8380732941702 329.04076637764797,292.58840997548117 329.9980660004805,292.6716319361796 331.3447758611318,293.25416187516015 335.4876661185685,295.9205846410539 340.2795732194123,298.2891220988139 346.7102476945593,299.88096091111004 350.0743179469797,300.23729988326187 355.13664868551285,301.8643825243486 363.48733101650157,307.2500339301814 365.2234508326028,308.20728474701264 367.18672653448056,308.7531046460495 370.3236409952473,309.08927981437097 378.1821522246889,308.64236164467565 382.2601409483853,307.75636255932017 387.7659664263821,305.08987127902236 390.1835538998192,303.19826782962184 392.80125477291125,300.6569680329273 394.407571333274,300.2610551754843 396.35462158112585,300.14227774305374 400.465061118751,301.3933142714116 410.1137769483078,303.93438347661714 412.3853356178631,304.09267922692925 422.8939987225775,306.35597043831797 427.53987701954003,306.72784960240983 430.2170711926879,307.5664930414541 433.9218752267205,309.49662636965314 442.9161658850628,316.4618570865695 445.971953075688,320.4991144825431 450.00126543729505,323.8435419273166 451.46155319377624,324.88173248206783 452.41885291073805,325.31197017572225 454.3334523446552,325.0948805899162 456.18855866675693,324.5264729918404 462.6354585018006,319.5156621741672 466.54578454565944,317.6234653113228 468.12505861989496,314.90488342377205 468.59559565723373,313.8061285949173 469.0336819747669,313.06695435573863 469.9423055178851,312.02725334075177 471.54862198413065,310.80948758443134 482.98213399187233,305.31145285885646 486.0541466365176,304.7535305715309 489.75354224861945,304.81288576210335 492.4523702036068,306.0473768617109 496.6763877311848,309.0180909372055 504.12926355115695,311.3709476938443 505.9302849951211,312.22492543306726 507.0011627020298,313.08671926499926 507.2607694017469,313.50572363899795 508.1748013667956,313.6954543411463 510.0569498926552,313.77450743515266 520.7278671611597,309.97908784385857 523.567315498104,310.2163536369112 530.4036254768437,309.76554288123157 533.2322568758098,310.9241550914809 546.1098310918775,309.9237248233151 557.7055972634091,307.17091729354723 559.311913729649,307.43991098748296 560.3827914365631,308.1281774390631 561.929614602741,309.39380284291644 566.0508711724675,314.4701420418217 574.2879755135035,327.0603173611053 574.0770450817529,331.63265887140165 573.4604791464033,333.5137136203679 572.7736030671371,334.8778962323297 572.2057134938717,336.72272788880684 572.043459235958,337.59769396266915 572.238164213683,338.94937161405085 572.762786129159,340.97055802802373 574.320426421561,344.67279592175345 575.5373328382339,350.04199053848055 575.7807141780426,355.1245086733651 577.0462968626757,358.7574334815316 583.5743236854973,366.2540750411802 584.4234539285538,367.3614856309785 584.4690403151203,367.4209338154132 582.3895505105667,367.19714079231943 579.9018859845038,366.9294121724607 573.8768470972683,368.86123309949227 569.9827464424876,374.41856075864905 567.9707944584604,371.53047790429747 566.4672390813661,371.2478931852925 564.9933550155927,372.17717066384995 562.7137588047558,373.6142379212656 562.3303723518691,373.66569314764274 560.5503695869892,373.90458793843635 559.0792648812262,373.72410144641367 557.7595975138647,374.285166265971 556.007252261074,376.82713215535847 554.8173881023417,379.3839917887273 554.0053316567379,381.8433098449083 553.2381141083824,384.1661538173265 552.1364323228197,386.68678961424274 551.2910636763388,388.6204577758789 550.7069486618472,389.13350681831315 548.3921222103502,390.19083494218927 545.7095195300752,390.63722139883 544.7792622072596,389.9754643625874 543.037733914688,390.76251833264934 542.4103510593271,391.4829393364911 541.8911377014898,392.51256149678784 540.6688227667556,393.98825795459726 539.9224534536637,395.85891824855594 539.1463399457435,395.7196242913888 538.5270673647689,395.6084780234614 538.0511217431358,395.73369909282616 535.95263428668,397.924757882704 534.8709396254654,398.6289024078195 533.8108789893524,398.94183606300794 531.5393202740651,399.1452366761149 530.5225273741559,399.55984515140824 528.9757040515303,401.7850736129747 528.0995314251378,404.7133206051575 527.5878987204535,406.01973821369955 527.1260062614414,407.1989688882639 525.3087593520077,408 523.9241902233293,406.550271691601 522.7451431294791,403.95887894734085 521.3173062645908,401.9923136535569 517.7044462615004,402.85249969307 515.952101008709,402.5788139642965 514.5091818172305,401.91245440412314 512.7178341946071,401.08511069892336 512.1337190754559,400.38117729439324 511.79839372734256,399.52855448597404 511.3008141852792,398.81666400434756 510.18666885273365,398.56631430360494 506.66034442671895,399.3408091960869 494.1190940959041,398.98313037560104 484.4423372345553,398.7071369038592 484.24019007708665,398.65201067180556 483.1226697625257,398.34725179654737 477.2382511488102,393.27197170397926 475.70224478640426,392.50081743407395 473.9931673744944,391.9918943489109 472.1542864399596,391.9449150106966 470.3191637478568,392.27496060292543 468.62796201395366,392.5791104634899 466.90806764181804,392.3677175362293 457.33507040814663,387.8410316119888 454.1765222109096,387.3161500674202 447.3834800901399,388.43246218012416 445.95564322525195,388.4481286572638 439.0436146467542,386.76773030801087 437.45893201569487,386.63453718722667 435.82557322064105,386.955764286703 434.24629901736324,386.79123486736364 421.5796552431004,382.6769276214596 417.1338904544923,382.5123123113871 416.3334363402969,381.9518114848589 414.85151488364465,380.2661582295505 414.12677938632345,379.98779590038174 407.74478123053564,380.45434135608616 403.1692130239678,379.6506121515869 392.5037042735217,381.9282931739323 388.28509533550334,381.71662487819526 386.0784383815299,380.8306947745301 379.4260165342713,376.74084377023513 370.84817828007004,374.7559604550005 346.347795517059,372.9942669030438 340.3984752466975,369.1124933392453 337.77489604385914,368.2297680288933 336.87215082068565,367.9267914413127 336.0500628907283,368.03673114956143 334.37343625480264,368.69241334773983 333.3890941308925,368.72382183528526Z" name="Kärnten" name_en="Carinthia" gn_name="Kaernten" admin="Austria" adm0_a3="AUT" iso_3166_2="AT-2" iso_a2="AT" postal="KA" type="Bundesländ|Länd" type_en="State" wikidataid="Q37985"/><path d="M681.0547839644877,338.3996952162725 676.7784548484365,339.45754715857976 676.1618889532951,339.81215536882934 675.1450959487233,340.8877062087394 675.2424484860309,341.2225555825991 675.7075771474325,341.5613304743344 675.7941127245202,342.6405887197787 675.0693773318584,347.37345773852894 675.0413901100864,347.8344731464321 674.9071231379173,350.04580250408867 674.9936588196551,352.7133381590944 676.1943397292853,356.43777268350357 678.4226306037008,357.8610250605034 679.60167769756,360.2155302378962 679.8283357835704,363.7167193782073 679.8147801762167,363.7067413609347 677.8601494049916,361.24909683888274 676.7135530871316,360.4474064069365 674.6871685568686,360.087712348 672.4624932684579,359.69280236890813 665.36657668023,356.10747960074775 662.4568182540278,355.5333671046587 659.5470597231571,355.7850379773232 655.5353446992667,357.40332609017867 652.4511431349298,358.6472458862067 649.6820049822383,358.8044808716068 641.6666479267554,357.6133498950357 639.9792043306073,356.58718650011485 639.6546959427162,358.88309738052675 639.6655130075859,360.83647183683877 639.0381301522252,362.168586069456 638.4898760616281,362.5788278415817 637.9564354910196,362.9779652642353 636.6043171383346,363.3629813604702 635.0250431443753,362.9151036577159 632.796752165292,362.94653436941957 630.557644330669,363.53583998036305 628.9567364162677,364.7575312523937 627.9291265561477,366.92155822300816 627.8734310962938,367.2085383155035 627.5938012080344,368.64922623328897 627.206882079604,369.5144450941621 626.9231505117984,370.1488600504459 624.9761001844114,371.67961583262513 621.8391858029453,372.23297245802155 619.470274759675,370.7533465656721 618.9849147310622,370.3272381920936 617.1229974275315,368.69241334773983 614.0401678471477,367.534136918466 608.2470630765066,367.8377711555372 594.8617224991465,368.53929461500894 591.4776524078425,368.17515021937004 584.4690403151203,367.4209338154132 584.4234539285538,367.3614856309785 583.5743236854973,366.2540750411802 577.0462968626757,358.7574334815316 575.7807141780426,355.1245086733651 575.5373328382339,350.04199053848055 574.320426421561,344.67279592175345 572.762786129159,340.97055802802373 572.238164213683,338.94937161405085 572.043459235958,337.59769396266915 572.2057134938717,336.72272788880684 572.7736030671371,334.8778962323297 573.4604791464033,333.5137136203679 574.0770450817529,331.63265887140165 574.2879755135035,327.0603173611053 566.0508711724675,314.4701420418217 561.929614602741,309.39380284291644 560.3827914365631,308.1281774390631 559.311913729649,307.43991098748296 557.7055972634091,307.17091729354723 546.1098310918775,309.9237248233151 533.2322568758098,310.9241550914809 530.4036254768437,309.76554288123157 523.567315498104,310.2163536369112 520.7278671611597,309.97908784385857 510.0569498926552,313.77450743515266 508.1748013667956,313.6954543411463 507.2607694017469,313.50572363899795 507.0011627020298,313.08671926499926 505.9302849951211,312.22492543306726 504.12926355115695,311.3709476938443 496.6763877311848,309.0180909372055 492.4523702036068,306.0473768617109 489.75354224861945,304.81288576210335 486.0541466365176,304.7535305715309 482.98213399187233,305.31145285885646 471.54862198413065,310.80948758443134 469.9423055178851,312.02725334075177 469.0336819747669,313.06695435573863 468.59559565723373,313.8061285949173 468.12505861989496,314.90488342377205 466.54578454565944,317.6234653113228 462.6354585018006,319.5156621741672 456.18855866675693,324.5264729918404 454.3334523446552,325.0948805899162 452.41885291073805,325.31197017572225 451.46155319377624,324.88173248206783 450.00126543729505,323.8435419273166 445.971953075688,320.4991144825431 449.9796315613388,315.35540888615026 454.4957065084455,307.0166373932573 455.6801621111836,304.0847644507613 456.22100938656234,302.3591727145515 456.01007895481166,299.2870276969694 456.18855866675693,297.35842472499064 457.0647313018175,295.9839658431493 460.14756088444693,292.99658576802966 462.1811467302415,290.4283022299846 462.408302616024,288.85046525150307 461.6078486409281,287.53404454112547 458.47634279033815,285.3091244303031 455.01492000199113,280.87729333425784 454.1874236348909,279.4563718672798 453.6844356894943,277.82875340773256 453.40860353575147,276.534364381222 452.8731646822971,275.1007655842636 450.56915519880715,271.50969705767943 448.8600776805929,268.0482094790583 447.48091710013006,267.1418577206689 445.8908259937932,267.64274884811636 444.3331857013849,268.6682862959587 441.39097640659526,268.9942051706674 439.65485659049386,269.7334355774596 438.18916041208826,270.90175886653384 436.74509810963275,271.3944703652876 435.18745791135365,270.9732832566066 433.402661733169,269.68574522537915 430.10349329686414,266.6011785959777 427.361397495841,260.9218615807926 424.2569338490147,250.547201988258 423.25095795821585,245.06387014134089 423.3969867620972,243.87585525471658 424.14335595318494,241.02869109154742 424.98707777431684,238.7390650488387 434.684469871834,240.62187121375797 435.6579950428217,240.10733430929585 436.9398030873577,239.80019193512652 437.28053686896396,239.20182929213348 439.8982379303025,236.94360706344975 440.33632424783565,236.45277909037858 440.6770580294419,235.76237656762336 441.06646807901467,234.11794337160524 441.01779181105434,232.0539440699824 440.5310292255606,229.52612210393943 439.5575040545731,227.4409703131368 438.7462331414988,226.17044077043306 437.4103403129486,224.68390634701797 436.2583355241392,223.14113677415133 435.41461370301306,221.5580917857951 435.0576545614983,219.94674379164755 434.99275293362894,218.43106251532112 435.17123245732796,215.3988427668937 435.4308392511621,213.47010822439427 436.0149541843306,211.2767108979901 437.32921313693043,209.5431834666649 439.0869669231051,208.08961478958537 450.2608722311355,202.51316041474533 451.4128769258159,202.28072422206958 452.35395118874584,202.44102571639715 454.9013421061671,203.94770465279515 456.31836192248943,204.54468788982277 459.46609332122847,205.12560228737414 462.2135975441762,206.18315928207844 463.8036885563899,206.54365832338573 468.4171161335407,205.91077162449736 473.1603469664239,211.51689302291106 474.32857720925944,214.4625438869428 474.4908313730495,215.65890640483897 475.010044772472,217.1511090280102 475.65906152175603,217.10310685163964 477.76836602752104,215.59089044465983 482.86855600191933,214.218448084171 486.7680651077938,212.38949446641053 488.1959019562175,212.02925769369566 489.16942712720476,212.24540163864492 495.0646627488917,216.3590359937861 497.34162984037755,217.37511567507264 499.4671598001687,218.00310072241328 502.53917235069673,217.99910094087818 505.1027886280213,217.20711141388202 509.7973432870609,213.63018666575067 512.4258611922544,212.07729016820102 515.7250296285592,211.11658558728786 517.5260511666529,210.16377312387218 518.6780558613334,209.0546855984197 519.0674660050291,207.96947340344008 520.203245245684,206.3994606478776 535.2766596595826,200.37288926631487 541.9507153804149,194.99965788097444 545.5906175983258,197.9112729162599 556.4886908467365,197.85513616691617 557.0728058740281,198.1839321616834 558.0463310450156,199.23438532126067 561.2102878036633,201.8559094386354 563.3899023592222,202.15248058339378 566.0508711724675,201.51924779810153 568.6361212316252,199.94797368038164 572.8385046950008,198.13581640686374 574.9532177168192,197.57043601041676 576.5270833691303,197.49825689367 578.2794286392572,197.82305766873935 579.290813046104,197.81503812884458 582.5196714326148,196.86064659998138 587.8470173869129,194.79508327682152 591.8763298426489,193.8964976673176 592.9958838175181,193.2104560004157 594.0180850682195,192.02278315268214 594.5859748297316,190.85901427420828 597.4632824966642,187.17397053643714 601.7954693098951,187.8364396738163 602.4985708431932,187.81235092710034 608.9130198643084,186.23437467573078 611.0223242759445,186.43113678255492 612.7097679182083,187.1257887110937 617.1122649694852,191.1880971688413 625.7550048141198,195.40879158528102 629.795134207828,198.33629644395953 636.8585998841043,198.94572493708884 639.0057637198514,201.24670179365708 640.255121044582,202.98602728458286 641.7316341609661,203.99578531768202 643.7327691928322,205.04547872351415 644.9334501554731,205.30988352135262 645.9556515944212,205.30988352135262 646.8155987754556,205.14162690425064 648.1785339960159,205.39401064786242 648.9140863432426,206.09503470997726 649.4116658667145,207.20453090081332 650.0336402239942,211.68901913612015 650.4068248195354,213.45410020496655 651.2018703727069,215.49486717906535 652.1916209977203,216.1710072121675 653.311174878466,216.1029957221509 656.8212738406503,214.15842346863604 658.1679837013019,213.91832010767314 658.979254520253,214.37451018256525 659.5146933737074,214.99872828933084 660.1474847630883,216.20701293940485 660.309739021002,216.71907884847707 660.4882185446949,217.59111597771908 660.5206694527524,218.60704004046377 660.407091556923,219.73480551267897 659.9365543313377,221.19826530343093 659.8067509814764,221.89391527323008 660.0663576811935,222.89330682156304 660.7370083064337,223.27304307680123 661.5320539537222,223.44491794069492 664.0632192288657,223.44491794069492 666.805315029889,225.5151207914373 668.0763062305699,227.96830109763306 669.3581143692351,231.50691567223217 677.8980932560183,232.9682372775341 680.4671179552729,234.38139459671672 681.4406431262606,235.3034059856792 682.2681394933604,235.64264776457858 683.0145087785654,235.68255751695276 684.0367101233903,235.32735298007532 686.4921569268155,234.08600932965953 686.9951448722119,234.29357847881573 687.3521040137271,234.74861511402892 687.660387075528,235.4590598299117 687.9686700431995,236.600429634704 688.0660224850035,237.68577807417924 688.195825928982,238.3720261827216 688.8448426782659,240.05547994231813 689.9535796210395,242.29289209718954 693.5556226030916,245.4306045325328 687.5143582716403,251.77406522131952 685.5835333836972,252.85737417282834 685.2103487881562,252.18032309872726 684.8858403664527,251.1367570310564 684.317950699064,250.28029447194612 683.0469594983772,250.43167579089598 681.9760819797148,251.50719855292755 680.3859908733779,253.7016169100358 680.02903163774,254.99170425677198 680.1750604416272,256.32139341654994 682.0247581535519,260.73089081525063 683.1929883022644,264.5414954219196 684.1881473492024,268.83522202530156 684.9994182622765,274.65991278292717 685.145447066164,277.0584977602742 688.0173462170427,288.192281634134 688.0173462170427,292.33873882839544 686.9140176961937,297.1168221581654 687.0275956861467,298.66137103425 687.449456549654,300.7955330645981 688.3743054526751,302.52541536457124 692.1764620226285,307.34892881374014 692.4522941763715,308.64236164467565 692.3387161864188,309.6824960936362 691.5923469012138,311.29977895485996 688.8448426782659,315.3000826375536 683.7771034236791,322.0234279489367 680.02903163774,325.2882880369796 679.2826622584116,326.75250925250185 678.9257031168967,328.19279325889545 678.8445760350016,329.7511693809507 678.3902642634423,332.3031055329765 678.4659829234071,333.2455813855615 678.9743793848572,333.98292353944765 680.2724128834253,335.0198212228688 680.6942737469266,335.658452927647 680.8727533647485,336.0211103619382 681.0187821686301,337.70016132942476 681.0512330766876,338.33070148871633 681.0547839644877,338.3996952162725Z" name="Steiermark" name_en="Styria" gn_name="Steiermark" admin="Austria" adm0_a3="AUT" iso_3166_2="AT-6" iso_a2="AT" postal="ST" type="Bundesländ|Länd" type_en="State" wikidataid="Q41358"/><path d="M721.5552875010244,107.39828724938282 724.8003712474443,107.72271517665486 725.4007117287678,108.49317879321721 728.2780193956942,113.49532231708909 728.5863023633658,113.92485733705001 728.6674295393842,113.87623191819608 728.9594870530299,113.17112933414114 729.6409546162486,112.02013840516241 731.6204557721582,111.68777892426125 732.7129673550228,112.70913191314457 733.2646315683861,113.99374287400171 734.3517346351971,115.19711784093622 734.6924684168093,116.34764990094573 735.0818784663762,118.36068084558173 735.8769240195477,119.15036285060232 736.1527561732908,119.72536418758953 736.2825595231459,120.11407392108171 736.2014324412511,120.60803183588723 735.4063868880796,123.89085915462707 734.9196243025859,128.15934558927952 735.6173173198305,130.39989194946233 737.8780590514076,135.13774675743755 730.6307051471387,133.80399368849413 725.7252201504712,134.0465107819897 724.1675799521862,134.4911065400868 723.3238581310603,135.23473834698348 722.99934980348,135.76008855642567 722.6586159277447,136.58441455545722 722.1231770742903,137.16220028366442 721.0360741015962,137.92578287496195 718.6942051940008,137.85306385784415 717.6882293032077,137.61066230132167 715.806080683219,136.7621992139598 714.3782437406727,135.75200644259561 711.614514157822,135.78433456751117 708.8075165406894,136.3096485911859 702.4255184276318,135.75200644259561 701.1869780408795,135.0528782372086 700.7813426314038,134.0545947644597 700.1161004280939,133.36744431118188 699.2723786069621,131.82316105802911 700.1647766019316,127.354374630261 699.8889445423116,126.41176781842529 699.4346327707524,125.38407790430051 698.639587217581,124.51003270472489 697.7796401306696,123.08950460107678 697.812090850481,121.66872322459356 698.1528247262105,120.49466709346379 698.4286568799536,119.95211381362972 699.1101244431723,118.91549134124672 699.8889445423116,118.07313610502425 702.4255184276318,119.30424059466382 703.8371298220236,119.14226402123074 705.1676142286492,118.77780465268184 706.0275614096837,118.18653531423985 707.2444678263565,117.09297623752252 707.8123575878686,116.19371516465372 714.8487809662633,111.62292674457335 718.5481764842426,109.8392834323147 720.3383810843517,109.33654804379111 721.1821028113606,108.6310431768174 721.5552875010244,107.39828724938282Z" name="Wien" name_en="Vienna" gn_name="Wien" admin="Austria" adm0_a3="AUT" iso_3166_2="AT-9" iso_a2="AT" postal="WI" type="Bundesländ|Länd" type_en="State" wikidataid="Q1741"/></svg>