<?xml version="1.0"?><svg fill="#3498db" stroke="#ecf0f1" stroke-width="1" width="800" height="776" viewBox="0 0 800 776" xmlns="http://www.w3.org/2000/svg"><path d="M424.44785778887336,677.9413543909588 420.0836819796319,677.1776952161138 411.50362799043006,673.7984536492255 406.99115516685316,672.8904834076324 402.4574969969379,673.9569832122887 399.6822203175263,676.8895132516327 397.0998618256673,680.855049191302 396.999773757679,680.7869899468698 377.2490514940709,668.6340332710793 380.8355424759552,668.7702487456336 386.3904332214882,671.2900403777841 389.84347330939863,672.2547266046383 386.79078569841937,669.2469947588486 382.2034134217185,666.5906694838151 393.2418832328098,664.2695670466003 399.02547540124533,660.0007445390195 398.3263597923306,652.2679931298194 398.3051746509776,652.253563195384 398.28398930466335,652.203057770152 398.2628039583143,652.1958424977317 391.99194943926636,637.4129967665152 385.7633298700456,630.0527007548184 392.2145608503485,620.9984668359433 397.17192556987953,609.0820668775177 399.34342067079086,597.9824653950888 396.96007235783435,590.887655412871 396.5999218420451,589.8159365066374 390.36084565968264,582.7756671008467 385.7000755476265,581.7613957603012 385.2128132152209,581.6599652397 383.08368871985243,575.2541266269284 382.5010924328095,573.4855727420044 383.03072537075764,568.657351951993 385.2022204716574,566.4095119920285 390.0854363549805,566.801092916776 394.7250211642772,568.657351951993 399.00445545777393,569.2953940192955 404.74567693285366,570.1509124287727 416.3552315152865,570.8613949558226 416.9590131051009,570.8903938468762 416.98019840787236,570.8903938468762 416.98019840787236,565.2927326657052 414.82988842540107,559.185402170286 414.5121086994981,558.2567792211811 414.02484636708095,557.2990832309129 412.09698252454973,553.4387292740349 409.63948537538437,547.4868346874038 409.5971149541844,546.6011300508495 409.3428909522533,541.1406806998871 409.14163048375826,539.7389778820782 408.5696269402672,535.9036740155325 407.75399232273907,531.0647200551343 399.06801155043087,529.6040429394039 395.82665783005984,527.3510098607436 395.24406154300533,527.3510098607436 393.083159001314,522.5096064518864 392.00270782264585,518.801287225646 387.37371575691174,515.8194991790963 383.61332147345803,509.11218865532175 380.6050064522582,504.2655530762815 377.4483939429726,504.5566813679853 376.2514235068841,504.6585752102553 376.1243115059243,504.5857939209332 373.2748861633212,503.1446611200522 373.2748861633212,501.29575503873184 373.56088802724463,497.553648112728 373.94222384580456,497.33521159087644 375.4463812642325,496.44687355389414 377.8826929262839,496.44687355389414 382.2256833124379,496.44687355389414 385.2128132152209,496.44687355389414 386.02844801709205,495.55120714349806 386.5686735142606,494.96135179035474 386.5686735142606,490.4530114837946 386.5686735142606,484.8796482398683 385.2128132152209,482.6352121192469 385.2022204716574,482.6206365096601 383.32731997823214,480.02604309925164 383.32731997823214,477.3727310958132 383.32731997823214,472.188819274403 381.7172356772608,469.59991155694695 380.31900458833474,467.3242611085527 379.9800395596723,467.30237844178725 375.456973823441,466.93036723162726 373.0312549049527,467.5430869735796 371.929618607844,467.8202622858991 371.929618607844,466.1936151970197 368.9318957771671,463.20980469245706 366.5061768586677,460.94788432212226 363.8050488198193,456.0873751828555 357.5341944067799,448.23169243217825 354.30343342997185,442.6370269903372 348.59399000122613,441.1175275434172 345.5962675392348,441.1175275434172 343.4247722539813,441.1175275434172 343.4247722539813,438.1219576273297 343.4247722539813,434.78236376561915 341.26386971228914,430.63800649262066 341.26386971228914,426.9094035445893 341.26386971228914,421.3076322943552 341.40157445681234,419.28146616935277 341.7829100910297,413.77227638555905 343.0963999688695,410.727910962004 343.7107741179039,409.30799412107086 348.8588065623777,408.92737741212835 352.6509785234568,411.18167382898895 358.6252385133656,413.42103190750004 358.6358310725741,413.4356671135335 357.5341944067799,409.300674591626 357.33293393829683,408.4296349161651 357.32234119473424,408.4003555008279 360.9344381744452,409.249438305634 365.15031655963946,411.68665316748627 370.8067966392904,415.07474495272965 376.06075559760995,414.40157165781716 380.2766339828034,413.04050850378104 385.4882223355804,412.01597944067385 394.88391102722846,414.40157165781716 403.0720367235676,419.2009997762588 410.0102286347246,421.5855709356747 417.96531563191525,420.5688780370756 419.5118438402296,419.2448907459678 423.14512612271193,416.1283532564831 429.59605551711996,414.41620600862655 439.5107847718391,414.41620600862655 445.7074903486586,415.10401272211465 446.9680168773929,416.8453542766717 447.6883175402842,417.84764138965295 449.9127761746329,423.5017602776225 450.90848614222676,426.0612137345236 456.6179295709725,432.22423934380487 457.3276376746433,432.39235670353526 463.8103451153858,433.93457143730706 469.5727517088825,432.67011194544 471.2463919181682,435.30125042251615 473.2695897153363,443.367506700356 473.4708501838304,444.20021490839855 473.60855492835367,444.799155136491 475.22923178853335,452.021276189221 476.70161134498187,455.8100065722459 480.1971890672849,459.19651135959487 486.76463771910124,460.69978403279697 487.85568182567584,460.94788432212226 489.2539127302581,460.6341101059007 494.0523872181519,459.5759909485403 498.3212291367832,460.1962758527684 498.7661206793029,460.2619514883395 500.2490929793144,461.6994592253437 505.43949602931957,466.71153365635865 505.46068133209144,466.7407113937797 508.4372184913105,474.6023436450015 508.6067010978252,478.84522497423615 508.68084974969105,480.7403248486568 510.9159009432482,482.44573277715983 516.614751628442,484.50073865110903 521.0848538312245,487.7212010940001 521.8263399812301,488.2457429023507 522.5572335720155,488.4351570554612 524.548653507193,488.93053686152246 526.9425945637125,489.20736079367805 527.525190666412,489.2729236641174 528.5209006340067,485.50628834723017 530.2475041923868,481.4254240616533 534.1561954108857,482.7663887407381 534.2197515035432,482.79553868057667 538.9334847803627,484.83592846425074 544.6323354655565,484.83592846425074 546.5707920516392,485.30226875089227 546.6131626571821,485.3168415342847 545.2063250926572,486.72716750721827 544.9626941223327,486.96759873131737 544.1046887234121,494.2517687571589 545.2486957853205,505.1139056847593 547.0176698464861,514.3543211250135 549.0726457756296,523.6478428073773 548.1934550303835,527.6312926563523 541.1493367026851,527.6312926563523 520.9067648305682,525.6687611145288 503.0263556919177,526.453801192344 488.3555229349172,526.453801192344 474.2990637865876,525.6687611145288 473.31394671964597,529.6590025458229 472.816091593376,531.6864689391002 477.81393869248615,539.7327611732625 478.6844247371769,549.0008650196643 479.2987991657606,567.0227127003836 479.8708026967148,592.3254087020676 477.52982510459503,595.5254088377977 474.2990637865876,599.5571296943089 469.6171083973469,601.9670187267168 466.37575471364363,606.7713031667333 465.80375118268944,611.1402857512605 466.37504855592977,614.3327971829858 470.33740935260465,614.712757482382 471.0577101028732,614.785066929171 472.1275687601081,615.1827636677159 476.3328545743717,616.7806876045414 479.5615205820426,619.9740129760928 479.23524312678336,625.989321505821 478.98101917581675,630.5845453735077 476.92604345165137,638.5798769992633 475.4748491754516,640.2261458630227 473.4092806756346,642.5797446126356 471.35430454152464,646.9756271690617 471.12126593688356,657.1272953834526 471.0577101028732,659.7598255118529 471.14245148818793,660.2934943234186 473.14446394901563,672.1164641126181 476.3430999081345,682.489730979019 479.93435853072555,688.8996571962838 480.14621178902917,689.28842845989 480.26273109135485,689.3604223839768 486.30054680079564,693.6363032697858 499.212998477261,705.2060498382524 503.90554664215375,709.8231278106409 509.76315192816867,715.567431685622 511.5322612764459,719.3050854011449 512.4095604619408,721.1336679876679 523.2795203396989,732.6456917683204 533.2472127711005,742.2083253902696 539.1155461198796,748.1428027643158 544.6748515297585,749.7564929676564 544.9309160003428,755.8681799536688 543.9584486880696,768.871362194484 539.82310261951,762.7973021648463 537.5774587783952,761.0695966342959 532.0269054195544,761.4280561224093 520.8622424579522,757.6351758927342 514.1041257932361,753.9777296065304 478.2797522968828,729.8980047987548 467.19983051559416,722.7572994737495 462.3907632533598,718.7186809857706 453.577670864519,708.7474044206027 448.57793548532845,704.921262195359 441.39611250898963,702.8999654639533 439.1504686678577,701.4611746260526 432.73131713447395,691.3934437185317 432.3076110278126,688.2114115223926 432.54064922248466,681.4926410746316 431.947460345205,678.7842217173595 429.5747046310898,675.5782228617867 427.7103968189141,675.6430692663508 426.07912720141,677.0480141015846 424.44785778887336,677.9413543909588Z" name="Herzegovina-Neretva" name_en="Herzegovina-Neretva Canton" gn_name="Hercegovacko-Neretvanski Kanton" admin="Bosnia and Herzegovina" adm0_a3="BIH" iso_3166_2="BA-BIH" iso_a2="BA" postal="BF" type="Županija|kanton" type_en="Canton" wikidataid="Q18273"/><path d="M557.8094380798445,773.081079429616 554.4621578694732,771.8559490227896 547.1320374688484,771.053477126466 544.1025370434483,769.0829626438338 543.9584486880696,768.871362194484 544.9309160003428,755.8681799536688 544.6748515297585,749.7564929676564 539.1155461198796,748.1428027643158 533.2472127711005,742.2083253902696 523.2795203396989,732.6456917683204 512.4095604619408,721.1336679876679 511.5322612764459,719.3050854011449 509.76315192816867,715.567431685622 503.90554664215375,709.8231278106409 499.212998477261,705.2060498382524 486.30054680079564,693.6363032697858 480.26273109135485,689.3604223839768 480.14621178902917,689.28842845989 479.93435853072555,688.8996571962838 476.3430999081345,682.489730979019 473.14446394901563,672.1164641126181 471.14245148818793,660.2934943234186 471.0577101028732,659.7598255118529 471.12126593688356,657.1272953834526 471.35430454152464,646.9756271690617 473.4092806756346,642.5797446126356 475.4748491754516,640.2261458630227 476.92604345165137,638.5798769992633 478.98101917581675,630.5845453735077 479.23524312678336,625.989321505821 479.5615205820426,619.9740129760928 476.3328545743717,616.7806876045414 472.1275687601081,615.1827636677159 471.0577101028732,614.785066929171 470.33740935260465,614.712757482382 466.37504855592977,614.3327971829858 465.80375118268944,611.1402857512605 466.37575471364363,606.7713031667333 469.6171083973469,601.9670187267168 474.2990637865876,599.5571296943089 477.52982510459503,595.5254088377977 479.8708026967148,592.3254087020676 479.2987991657606,567.0227127003836 478.6844247371769,549.0008650196643 477.81393869248615,539.7327611732625 472.816091593376,531.6864689391002 473.31394671964597,529.6590025458229 474.2990637865876,525.6687611145288 488.3555229349172,526.453801192344 503.0263556919177,526.453801192344 520.9067648305682,525.6687611145288 541.1493367026851,527.6312926563523 542.9650224766376,541.043433500734 539.6397692574028,553.5778661363659 545.4589624832411,560.4109193679114 552.1094692904082,556.9947374232855 560.42260252285,562.687991158041 572.0609891588686,560.4109193679114 588.6872558080944,575.2064193014872 597.8317024375106,580.8935589187008 604.3323975335315,585.1804704047211 609.2685768737332,587.6213714784686 600.4342991385435,600.0304955406373 597.1082040695203,607.1142528822551 595.4793226794555,615.5978479755004 595.3710079253536,616.161826205696 595.4769344520047,623.4701372619564 599.1419944473538,644.7699326941116 590.8161644091014,643.5933253381461 578.6346062585741,643.7521360618668 567.1733488583145,646.3362103283401 560.9660505832112,652.2679931298194 557.0255812905756,663.209671949833 557.1315080222282,668.0399520733876 559.1652984000382,673.6255107546033 564.0167363549483,683.4300498031855 565.1819289681542,688.765790445409 563.6777712236386,691.4798255780544 561.1143478025307,693.4736825798141 559.1017425660561,696.589968203191 559.2924102730442,701.4323972566341 561.1990889828674,708.0929933223638 563.9743656622794,714.7581846091683 571.0926328046125,726.3711275088344 575.2661404968867,730.6952229888361 578.7829034778936,735.2623507895352 580.9014354460207,742.8715263467161 580.8166940607056,750.9651297760336 579.4302748423343,754.4334970528463 578.528679526927,756.6886174449975 574.1856894739796,760.9405493746708 572.0439163742133,762.1868609308195 567.9148349549141,764.5893443625051 569.355436660446,767.3630564849902 569.8003283184062,769.8496986930699 569.0376568754691,771.5406965196236 566.91912511232,771.8416196151283 564.609925437206,770.3512831794804 562.2371695181067,770.1649822389256 559.9279700479714,771.1394578932444 557.8094380798445,773.081079429616Z" name="Trebinje" admin="Bosnia and Herzegovina" adm0_a3="BIH" iso_3166_2="BA-X07~" iso_a2="BA" type="Region"/><path d="M684.4129017061052,508.3261147617453 680.9596949690598,507.1108911444264 678.2691594699852,503.7267244465968 676.065886321521,499.57018464919224 673.1846829104571,496.72334657019945 668.5239128675603,497.1893580915074 665.4944124421603,499.42457808905726 660.6217891409534,504.8766894694593 656.850802413976,506.7761438568867 654.9017530115007,508.1660303910013 653.6941899106095,510.4798283935469 653.8001166422389,512.851506378568 655.7703511860673,514.3281804545946 658.9269634844549,515.2010305107169 660.4099358826502,516.1392940214896 663.1428418693924,520.4008271941585 663.0369153427418,522.233101212599 662.1471320268223,524.5449729311924 662.1259466804904,525.9915497834651 666.6384197090467,524.8212134209389 668.0790212096001,525.8970535331408 675.1761030056023,535.2568800245715 681.2562894077167,552.1974874973392 687.4212171951295,563.958075608552 685.9594301432662,565.2054812147471 680.5783591450992,565.5028143948927 678.2056034310016,566.7936147186837 677.7599855272387,567.4058059479174 676.6590751988015,568.9181453515412 675.3667709175908,571.3976358763542 673.7355013000699,573.7462923193663 671.5957841906074,575.6670193583667 670.9895921170704,574.2884851963533 670.8754832353433,574.0289789036447 666.7019755430515,568.6208720978577 664.8376675258977,565.4665545577508 664.3504051752686,563.1167501826561 664.51988774092,561.107553959219 664.3927756629535,559.1779208489338 662.9521741624052,557.15374632305 657.4439912912558,553.2861019860619 652.4654414633803,551.8636316415999 640.2626979665159,553.010326299744 636.4917112395377,554.8173014945767 637.190826643486,555.9347718547709 638.356019256692,558.5322430302261 639.0127641729557,559.6567226754288 633.6105078284739,561.3759441374664 607.4466395492309,580.6091734830837 604.3323975335315,585.1804704047211 597.8317024375106,580.8935589187008 588.6872558080944,575.2064193014872 572.0609891588686,560.4109193679114 560.42260252285,562.687991158041 552.1094692904082,556.9947374232855 545.4589624832411,560.4109193679114 539.6397692574028,553.5778661363659 542.9650224766376,541.043433500734 541.1493367026851,527.6312926563523 548.1934550303835,527.6312926563523 549.0726457756296,523.6478428073773 547.0176698464861,514.3543211250135 545.2486957853205,505.1139056847593 544.1046887234121,494.2517687571589 544.9626941223327,486.96759873131737 545.2063250926572,486.72716750721827 546.6131626571821,485.3168415342847 548.1828624597096,483.75427923800623 556.1829045669288,485.4381196946958 564.163512440583,478.1170029226927 573.4742217493988,478.1170029226927 581.4548298073843,477.2016395289106 587.6597174684164,471.6710695196031 588.0642247559915,471.85018727489546 601.2626780954439,482.340516413544 610.3511797815999,486.77816821975836 624.1322294276594,488.8035063558804 630.5831590830442,487.18616977507565 641.4300420547252,485.5686777254641 649.649945771276,484.3591004364951 656.3868770896478,481.13070740401196 665.4753787758042,477.09981322320226 672.2229026648503,471.85018727489546 677.2120450634052,466.5989241194263 683.6629747187905,465.38798384329573 684.8387599026754,461.3460227529394 682.4859377191752,453.25760635182775 678.9704265538973,448.8199920423201 672.2229026648503,446.7971411915951 667.5303544999691,446.7971411915951 662.8378065400549,441.93984585918275 673.4812156638305,434.6968881713271 687.613542306453,430.1077422814513 702.5771823460615,433.5497191594622 709.2276889688866,438.1379250849289 718.3721355983014,439.2847809062426 722.5287022145221,432.4024720634594 718.3721355983014,420.9256870969929 719.2034489952873,410.58986779972673 717.5408222013274,395.649098696158 719.2535096723499,391.10014677149337 722.546475287535,382.3504551029832 729.6011863908683,387.7673745377207 735.8508553586402,395.8565062205055 746.824850408277,413.5744735971073 767.7771304600121,436.2364386050249 771.8870821132979,445.54391991445794 776.8020761071729,461.2468308961074 777.1410412384593,468.7171763557483 771.8870821132979,473.8729907088644 771.0184841437153,477.24128472770576 770.6371483197539,481.3085857543162 770.8913722707098,485.2218896771927 771.8870821132979,488.2018042892859 773.3700545114983,489.59322170327465 773.9420582474249,490.8825484443997 773.4971663844807,492.05524012249765 771.8870821132979,493.07490560643714 764.1332556060164,489.96473267352064 761.654573365245,490.16869627069514 759.0911499441371,496.33742091871545 757.332768453633,498.73292920210474 755.7226841824672,496.22819546798377 754.027858730947,491.4871139540657 751.1254699735512,486.0962468285824 747.629892338893,481.58553465973245 744.1766853968874,479.5374625172474 741.9734122484059,480.19345572014504 737.2279010251896,483.9612784176434 734.812774618399,485.33118673105963 732.4188337629485,485.43319701362043 727.1860601891029,484.58066562364843 724.9404161429917,485.2364628278623 722.1015836295758,489.8918883565972 720.1737195734382,496.1990684301801 717.71622267898,500.97522434115626 713.1825645090656,500.97522434115626 703.4161325603268,499.468260132691 698.3104708594458,500.0870780140833 692.8234733346333,506.5796584591816 688.798262656677,508.17330692223703 684.4129017061052,508.3261147617453Z" name="Foča" admin="Bosnia and Herzegovina" adm0_a3="BIH" iso_3166_2="BA-X06~" iso_a2="BA" type="Region"/><path d="M247.67755964997505,0 249.37238489649934,1.6654889744116657 251.0248398603293,7.770832273397986 251.32143429896914,10.0653725139476 251.19432242598668,12.569503982013833 252.3807003855417,14.173746019087018 256.61776391182104,13.70898158987296 256.06694552220904,11.69984913437088 255.21953289893534,9.750454964489029 258.24903332434053,10.845143209179463 260.7489009114442,13.933869316512432 262.90980357221633,15.418049939981056 264.8800381160627,11.714843449670527 265.6427095589826,13.948861876555123 265.96048954893195,15.65790490564446 265.7486362906288,17.42672663053208 264.8800381160627,19.83981076566092 266.1299719096053,18.7906874267712 269.37132559330854,16.707228901936375 270.6212593868747,15.687886565617138 274.60409937215564,24.395224810055954 283.35363592700884,31.001321920894522 288.7261773918955,33.49334290842532 301.53063929932034,39.43108919918653 303.7339124477842,38.15866660088002 313.50034439652296,37.45504949791284 314.3689423661286,36.152529668492015 318.30941165874657,27.55629725074182 326.2750914243475,32.81341341126391 330.10963398533045,34.40070156888165 336.8465653037091,38.81734469655074 338.73205866720116,40.43398798511927 341.57089138559604,42.02053818274586 345.3418781125734,41.61643160517339 352.1635506112711,39.43108919918653 352.58725712789504,38.45806912003784 353.1168899661915,36.661572588513664 354.0490439747808,35.52368963210258 355.6591282459465,36.55677089204153 356.84550600052387,38.48800910030669 357.07854460514733,40.134621534178784 356.44298503521543,41.7361681398083 354.9600128420163,43.56203940401971 357.5446216094386,44.44497006994603 360.00211850389,44.01099336403709 364.89592715142834,41.42185830672027 363.0104337879423,47.45256294302305 361.95116790636536,49.322678983724266 363.4765107922339,48.78410736808162 373.77257578425366,47.4226396087982 378.2638632615171,47.88644892110198 380.50950689764824,47.58721842984897 384.74657062892277,44.92382781563977 392.30972942922216,36.88614527289161 396.7374610724633,34.56541138667131 403.5379482248467,34.96969173781407 409.6393199732763,38.42812908510965 415.1475028444258,43.8613433126013 420.14099847612283,50.31063492467253 414.8462553589599,61.506494120469235 415.38020045899503,75.46246311772849 419.6226737056112,88.44742944203166 419.54258587634024,102.82933476993888 413.48156445545123,108.6242093544414 411.2178152259928,118.44714126338691 411.43452810017146,135.48819219173956 418.1551241320066,153.5331997258824 423.03440096439925,163.26555767476333 430.6422800153562,167.15766173174575 445.2539920962687,163.1673405311606 437.92387190061595,178.1809460760663 434.4071091245992,186.38737192823064 434.4071091245992,192.95802286563395 438.803062645862,201.17240741486384 445.83658840288604,208.145115651858 450.8241317488009,213.069346183092 451.9909234146414,220.8603434223777 451.9909234146414,227.82477542384532 451.12232544504775,234.78628478404335 446.13318284152587,240.51753501980056 438.803062645862,246.24680746931259 430.2971572663238,251.15392814569475 420.0328703962815,256.886919465409 413.39112380811014,261.90177736422316 412.9887518636055,262.2044218948929 404.1968448210799,261.79089944366893 386.30584331673344,265.0618762688044 373.4039842109424,265.0618762688044 366.07386401529004,264.6558079842546 362.55710123927327,260.1588617340047 358.4577419516598,256.47326467882493 353.17200511447703,247.47372364561406 346.7210754590923,242.97951621547801 339.39095505844983,242.56551491497825 329.70926449501377,242.56551491497825 317.9831907780987,241.95188679237296 312.41145207293755,239.9038311895063 309.7738800421668,237.44878922461743 299.21299852850666,237.0346496730237 294.22385612995214,238.26224681942185 292.7620690780999,246.45376323465706 293.6412598233464,263.6369023923999 294.52045056860356,276.3023379998927 297.7512114766428,286.0974129304946 301.26702519309663,295.4862458293106 306.257116856193,303.23967102166415 317.10240692465277,317.09478835835904 319.15897616696304,328.10365125860034 317.9831907780987,336.2437394763808 316.224809287595,342.75589319015484 314.2119074443797,349.5382259761337 314.1698335634412,349.66952145334443 295.1136394458832,346.42245598155694 289.541900740723,345.2028071445962 286.60767687678185,341.53425326854347 286.31113942271514,332.5749408668665 285.13397451528954,325.24927672499825 280.4533990545666,324.02843983756014 275.75025831901195,320.76166680991855 272.53008977665655,314.6531457015465 266.36516219421617,312.209110800595 256.694064201454,306.5025134725945 246.13318289276077,300.79396162915464 237.923871951862,294.6781172137419 233.23132378696926,290.1819077163064 229.41796657231265,289.7764520780294 222.0878463766599,287.3287651025121 218.27448895702435,280.3892373145655 215.6369167212751,275.07754810509266 213.29593912914376,271.4026375205459 210.06517801611486,270.5760397714128 205.0866281882454,270.5760397714128 199.51488927810624,266.0880772709337 186.89903224525958,257.49999635865447 178.10712499774303,250.13419401336748 172.23879164896488,244.40626321583895 165.96431491274146,239.04298731530818 163.1490196988578,236.63174396453638 161.39190847231683,231.72387637478118 162.27109921756286,225.98218680386046 166.37045830018585,225.5677612075446 174.29376778308642,225.5677612075446 186.60243760164124,229.25282584568666 200.97667632995845,234.57918293268577 212.7027502518641,239.09045375913055 224.14282210081288,238.26224681942185 232.9453219190029,237.86291815627783 234.70370340950697,232.9444692470187 236.74808676796496,227.21060196079125 238.80306269710846,222.296395590334 239.0996571357483,205.885419773598 239.0996571357483,191.51988373821456 238.21851907605938,179.6170552945083 236.4620851049887,176.32540301146886 231.1748580597851,176.73684855609886 230.01115544959188,173.44518769726824 230.01115544959188,168.51499517581706 230.01115544959188,157.0005348602662 227.9548272643036,149.5954287916299 220.03287044751642,138.47140744265442 210.94436876136047,129.4074607584681 202.4490559524953,124.04711893416174 191.59158020516267,121.16521432596481 183.97545834652206,119.51924988120497 172.8319807312342,117.86567158414908 160.79871980001525,117.03882063714313 154.34779014463044,116.21192790629202 139.98414419195365,115.3924436545682 126.48909641386139,114.15569030689102 120.03816675847618,112.08429307841818 114.16806504319842,105.07442442712941 112.12545025621809,100.5303574582959 112.12545025621809,95.57831870403209 115.3456187985731,90.20695327670681 125.02730936200916,86.90866267903174 129.7198573219118,84.83383344849979 130.88504993513536,81.95252139904802 131.01142920792947,79.65428157679052 129.8202663893097,77.74115998596766 129.12653172266104,76.62685311818109 131.3701606057715,68.35581536457246 135.54366829806366,60.55385093899816 136.49700765296643,58.20655819087231 136.9207139646123,54.812107722196245 136.49700765296643,52.92766072913518 136.45463716529915,51.29728989274586 137.97998005115014,48.619540550656716 139.8866585559896,47.28798277140156 145.26772955415666,45.59719767604995 147.47100270262007,43.98106317336607 150.26746472836314,39.565810542325686 156.98321070040987,24.66491361658035 166.62253077616708,18.071249607385724 178.52867983438603,18.475937323050957 219.37397385128367,30.656851743125813 224.58556228377617,29.967890250990127 227.14898570490132,27.691116202097305 227.46676569485714,25.578825689491957 227.31846827054156,23.06169841777523 228.48366088376508,19.60001731724137 230.53863681290858,17.561628954433147 232.82665114169149,16.572319541127406 234.83925658316682,15.178191751768038 235.98326364507523,11.939758272922836 237.63571860890988,10.905124099186486 239.77543571839047,8.505720284244388 241.4490758235618,6.090965313423812 242.06345004717292,4.7559473289285625 247.67755964997505,0Z" name="Banja Luka" admin="Bosnia and Herzegovina" adm0_a3="BIH" iso_3166_2="BA-X02~" iso_a2="BA" type="Region"/><path d="M123.02314501622672,82.05260117353775 128.02288019042206,80.69388821637838 129.12653172266104,76.62685311818109 129.8202663893097,77.74115998596766 131.01142920792947,79.65428157679052 130.88504993513536,81.95252139904802 129.7198573219118,84.83383344849979 125.02730936200916,86.90866267903174 115.3456187985731,90.20695327670681 112.12545025621809,95.57831870403209 112.12545025621809,100.5303574582959 114.16806504319842,105.07442442712941 120.03816675847618,112.08429307841818 126.48909641386139,114.15569030689102 139.98414419195365,115.3924436545682 154.34779014463044,116.21192790629202 160.79871980001525,117.03882063714313 172.8319807312342,117.86567158414908 183.97545834652206,119.51924988120497 191.59158020516267,121.16521432596481 202.4490559524953,124.04711893416174 210.94436876136047,129.4074607584681 220.03287044751642,138.47140744265442 227.9548272643036,149.5954287916299 230.01115544959188,157.0005348602662 230.01115544959188,168.51499517581706 230.01115544959188,173.44518769726824 231.1748580597851,176.73684855609886 236.4620851049887,176.32540301146886 238.21851907605938,179.6170552945083 239.0996571357483,191.51988373821456 239.0996571357483,205.885419773598 238.80306269710846,222.296395590334 236.74808676796496,227.21060196079125 234.70370340950697,232.9444692470187 232.9453219190029,237.86291815627783 224.14282210081288,238.26224681942185 212.7027502518641,239.09045375913055 200.97667632995845,234.57918293268577 186.60243760164124,229.25282584568666 174.29376778308642,225.5677612075446 166.37045830018585,225.5677612075446 162.27109921756286,225.98218680386046 161.39190847231683,231.72387637478118 163.1490196988578,236.63174396453638 165.96431491274146,239.04298731530818 164.3452744693948,240.09191913348434 159.73746770643257,248.79985495247902 156.47492868330164,252.9674036839563 146.44368017116173,255.2354707592335 139.6537855637363,257.8873123012747 132.59907439517133,258.64068327039695 127.99126763220866,260.1547077107437 120.67174027117852,259.77806093940546 115.77793164429285,260.1547077107437 112.79080174152149,264.31202647693095 111.43494144248176,266.9624206281735 108.99862959608744,268.09184739372336 103.84000459240518,267.33890491221695 101.58376828042043,268.3723466450587 100.35224469164456,268.99023046773675 99.78285043073106,266.3494625151984 97.57957728226724,264.1641290303891 93.32132840965645,261.4025203769687 89.59271237532491,260.4424951192677 87.30469804652442,260.35387480099513 86.54202660359336,261.2548276388021 86.64795313026148,259.0245107454025 88.00381345047866,257.8279921980384 89.7410095946444,256.690481181636 90.96975804187312,254.65162996363512 90.92738734920418,250.24803970862496 89.55034168267827,244.82322167170372 84.50823581582041,230.72814812997126 83.42778458791204,225.11932818139545 82.07192426770045,220.08605426759914 79.69916855357965,216.9616949374886 75.35617809067519,216.23604894751173 67.89894602202843,219.55302979342778 63.66188229075344,219.01998846798054 59.44600390579836,214.48844373916668 61.05608838197731,209.89639901045783 64.44573908000525,205.54018719826226 65.35670794724032,201.7609123195184 67.0515333987607,200.8863688352947 67.36931318373244,200.61955003144217 66.62782708711526,196.7650175833866 65.61093169322879,193.17653117784616 64.00084742204507,190.4772392820047 61.479794488621515,189.2609310957231 56.48005931441504,188.54890418531784 53.916635893307046,187.70333241620312 51.84047461783209,186.30878668474105 49.107568426087774,182.3025221604906 47.5610403988894,175.14818509309004 45.357767250425574,172.0301818056922 43.81123901824312,171.88169059792727 42.11641336175581,172.8468583146419 40.37921721756649,173.3071494128766 38.81150384403022,171.68865046475597 38.112388235121486,169.19377273314706 37.561569845509524,166.20833521512992 36.79889840257803,163.51949440953413 35.40066738969749,161.88517830020655 32.837243763605414,161.72173773978767 31.39664226307474,163.51949440953413 30.29500568883404,165.98551957639748 28.769662802965478,167.82737085259103 27.01128131247941,168.4214725196934 23.346221112152207,168.7036633090177 21.37598656832432,169.35713940744773 18.367671284277204,169.81752768547645 16.58810465243818,167.91648730603353 15.2534294735804,165.00509559015117 13.685715895042897,162.36063211111207 8.855463286487812,159.032166607563 7.711456019601747,157.5608898307941 2.5422382797550305,148.98326391551996 0.2542239509721255,143.98626633397177 0,139.16629983030754 2.987130142698869,135.19323163772373 7.203008527636376,133.88354663296624 10.783327137646758,132.2165238342362 11.757851838905014,127.12510792120484 9.82998778274398,121.64486862687168 6.546263611373008,116.46079133606804 3.728616239298463,110.66401518201695 3.0295006303841587,103.41890246095622 3.696678554804798,101.33919483028696 4.660770042903267,98.33349357852119 9.745246602430905,89.47128462410735 10.529103391676292,84.36663418964959 8.092791843556318,75.60144808129118 8.177533228871052,70.20861113651102 12.986600286134166,57.72808753793374 13.87638380703133,53.22679386789584 13.113712364100264,36.03275236276418 13.304380071087467,33.80174288153799 15.6347652975354,27.481397418548575 17.72971726003252,25.54706521900268 22.286955230581306,21.338442189612103 33.366876806903484,19.52508110854652 52.984481884723735,20.064614334672324 57.6876226202908,19.15039434326559 59.93326625642148,19.255307686991475 62.39076335585744,20.484239100974666 64.19151533401121,23.06169841777523 64.08558880736024,25.608789199629538 63.322917364428314,27.73605550949963 63.195805286461784,29.069201621931505 64.97537212329689,30.40223902612456 69.46665980552771,31.360760917453923 72.03008322663571,33.33753512404747 75.16551038366441,38.547888607175175 79.52968598792783,49.861232635716185 83.11000480294031,54.60273540546149 101.8590119111901,73.31605739220738 107.6426036696643,76.93071206372925 115.45998642091226,80.33552770797733 123.02314501622672,82.05260117353775Z" name="Una-Sana" name_en="Una-Sana Canton" gn_name="Unsko-Sanski Kanton" admin="Bosnia and Herzegovina" adm0_a3="BIH" iso_3166_2="BA-BIH" iso_a2="BA" postal="BF" type="Županija|kanton" type_en="Canton" wikidataid="Q18248"/><path d="M420.14099847612283,50.31063492467253 426.6511309373372,58.71491742234725 430.3585616253368,62.12350954028351 434.48969862496,63.782699629624325 436.5234894127673,63.54354712015973 442.5824902635494,61.017289684378994 448.19659986635196,59.92594560308358 449.9549811518595,58.96909113618246 453.3446322598612,55.79911288496749 465.801599502714,40.8081880033727 468.87347062078305,39.206551071584606 472.07245381680144,39.176612402997456 475.33499284683575,40.94289803603385 486.6691381691344,51.17762339851541 491.2027965440277,53.31653254396503 495.1856363243306,54.109204420061744 497.61554264278067,54.15798336052386 497.6240997573984,54.27815629783832 497.973657459364,55.83346062468046 501.1185715224389,63.82916716469594 503.6407301205129,67.82230411662786 507.42230962314864,68.27059485665868 511.20388892080626,71.37840760237036 515.6104350127434,76.26305966050477 520.6525408796012,85.13985023149482 525.059087176528,86.02801187547402 531.6689064169226,86.02801187547402 536.0754527138494,86.02801187547402 537.0181997030628,83.37084694142273 538.5965056472726,79.81733741813011 540.1642194307769,75.81498690481843 545.8418846626003,73.60431588836445 552.7694838929501,70.93020164880636 557.8009971891349,68.27059485665868 559.061523553357,61.604744595855024 560.7765457304089,57.84501509524778 563.6989565699706,61.00234009291695 566.9010202124659,63.06321237988833 566.6140895779985,66.49230281589234 567.2495003321106,75.81280416142968 570.0778892956564,78.92137344211102 576.3805215267492,86.47580639548107 584.5686469163436,92.6839671579402 592.7461799402417,95.7871694128034 601.5698653097362,95.7871694128034 610.3829576985996,100.66457876849698 615.7305174649249,105.98608288261622 616.3674155573156,112.18476512352767 620.4565768616543,113.06786683173128 625.8164622635353,113.51492626088294 621.4934900331281,127.14356689632689 613.5713483239554,121.36629381088377 601.2626780954439,118.07424039009757 589.8226060415051,117.24739962117151 582.4924858458519,120.54706614767102 577.5033432423313,121.78333960856197 571.9316045371706,121.36629381088377 569.5906269450393,118.48217683115702 569.5906269450393,115.1838411862517 569.5886406843116,108.58111687600548 562.5571009830484,106.52450769155817 549.6446495115619,105.89835503189498 544.6660994787028,107.96307701129822 539.3803626415196,111.6819050301606 536.456788537804,119.1021464959209 532.0502422408772,131.87858687154997 527.0716924130081,139.70633814389106 518.8517889014248,141.76682966997956 502.7297614582559,141.76682966997956 493.93785421075137,142.59244218541994 485.71795049418984,143.82706451237087 484.2561636473157,148.76463017709472 484.2561636473157,156.9986372236311 487.47633218967155,160.7008943914902 495.98223756920936,165.23233444343342 505.0707390503872,168.93085131221127 513.576644429937,172.62854045860928 523.8409312999793,176.32540301146886 532.346836679529,179.20511672645242 541.4353383656734,182.0843291039039 547.0054495259191,188.6478125422483 548.1828624597096,196.04288812236166 547.0070770708337,202.61016641094045 536.456788537804,205.07037218549456 527.0716924130081,204.65542337862647 527.0273355904553,204.65542327944462 511.2356668378061,204.65542337862647 501.85057071301026,204.24787419185816 496.27883200785004,203.4253353529727 492.1671554439195,196.45432624500754 485.13508853289807,181.2528145998474 478.3878305035152,169.74768124291194 471.35430454152464,163.1673405311606 462.84839916197444,161.93416348822728 452.28751785329274,161.11694722711937 445.2539920962687,163.1673405311606 430.6422800153562,167.15766173174575 423.03440096439925,163.26555767476333 418.1551241320066,153.5331997258824 411.43452810017146,135.48819219173956 411.2178152259928,118.44714126338691 413.48156445545123,108.6242093544414 419.54258587634024,102.82933476993888 419.6226737056112,88.44742944203166 415.38020045899503,75.46246311772849 414.8462553589599,61.506494120469235 420.14099847612283,50.31063492467253Z" name="Doboj" admin="Bosnia and Herzegovina" adm0_a3="BIH" iso_3166_2="BA-X01~" iso_a2="BA" type="Region"/><path d="M566.9010202124659,63.06321237988833 568.7622477831663,64.26099362404709 574.1433185763326,66.2636980025556 579.0794979165338,66.42808835721313 578.6981622975574,62.362682438487724 577.7024522499908,58.834528986808365 577.7843599199166,56.84588473029222 577.8083787766593,56.26268555865257 580.8166940607056,55.00652260644307 582.4691488195566,55.111206523679115 585.7740585422487,55.93369991373666 587.4265135060787,55.993515791752834 588.8035591726273,55.455163307453525 591.6635770323751,53.70539514649244 593.0194375575703,53.46609639619438 594.5659657897709,54.169027235666796 595.4769344520047,55.48507229015514 596.8751654648852,59.26811421899578 598.0403580780911,61.60030677234649 599.459774437286,63.51365310086818 601.1334145424917,64.29088657241834 603.061278393651,63.244602454098015 603.696838168561,61.854435830204814 604.1205444802068,60.10534982552327 604.692548011155,58.415884265151256 605.7729992390579,57.2944622152104 607.1712302519204,57.144933237219554 608.3787935577961,57.89256335235757 609.3956887467217,59.20830998020932 617.0435887273513,74.85462321076858 619.5010858267697,77.81185052265442 621.9162122335358,78.87214059812662 627.6362481580109,79.42465942188888 629.0556645172057,79.96222703689321 629.881891794142,80.75361430470794 630.4538953251074,81.96301932630892 631.0470844073716,83.72470945031988 631.1530109340225,84.33677773362557 631.1530109340225,85.87431285986024 631.2801230120066,86.72512006135976 631.7250144649879,87.54603262273248 632.7630952052062,88.96387558697852 633.0808749901771,89.96375502621235 632.4665005615875,92.81382307291257 628.0175837769874,96.20043525159673 626.5346113788097,99.01959354596114 628.7378845272735,107.31019266017442 635.7925958355835,114.8665087672908 640.7803453918469,118.12624070255896 640.4025540901537,119.11704338161385 639.3538807792559,122.81101497971905 633.3690283331408,128.127092805518 628.3269226712611,128.127092805518 628.3269226712611,125.02997834515239 628.9624822411921,119.26600976832133 628.0185084438829,115.28715519962324 625.8164622635353,113.51492626088294 620.4565768616543,113.06786683173128 616.3674155573156,112.18476512352767 615.7305174649249,105.98608288261622 610.3829576985996,100.66457876849698 601.5698653097362,95.7871694128034 592.7461799402417,95.7871694128034 584.5686469163436,92.6839671579402 576.3805215267492,86.47580639548107 570.0778892956564,78.92137344211102 567.2495003321106,75.81280416142968 566.6140895779985,66.49230281589234 566.9010202124659,63.06321237988833Z" name="Posavina" name_en="Posavina Canton" gn_name="Posavski Kanton" admin="Bosnia and Herzegovina" adm0_a3="BIH" iso_3166_2="BA-SRP" iso_a2="BA" postal="SR" type="Županija|kanton" type_en="Canton" wikidataid="Q18249"/><path d="M516.9217731653171,36.85620265775918 521.8579525055012,38.81734469655074 531.1794927963034,45.52238019955825 534.2301785680173,46.86904345017363 548.6997510473511,48.095907221055384 552.6190349936488,49.89115181311345 556.1569833209936,52.85287637560532 560.7765457304089,57.84501509524778 559.061523553357,61.604744595855024 557.8009971891349,68.27059485665868 552.7694838929501,70.93020164880636 545.8418846626003,73.60431588836445 540.1642194307769,75.81498690481843 538.5965056472726,79.81733741813011 537.0181997030628,83.37084694142273 536.0754527138494,86.02801187547402 531.6689064169226,86.02801187547402 525.059087176528,86.02801187547402 520.6525408796012,85.13985023149482 515.6104350127434,76.26305966050477 511.20388892080626,71.37840760237036 507.42230962314864,68.27059485665868 503.6407301205129,67.82230411662786 501.1185715224389,63.82916716469594 497.973657459364,55.83346062468046 497.6240997573984,54.27815629783832 497.61554264278067,54.15798336052386 499.65573866022305,54.19893827227871 504.0199142645045,53.271663267252194 507.6214184258304,51.02803869192943 509.01964943871053,47.99117826051624 509.16794645303435,44.34021780347457 509.63402366231054,40.733348972319654 511.8796672984588,37.91914099767338 516.9217731653171,36.85620265775918Z" name="Posavina" name_en="Posavina Canton" gn_name="Posavski Kanton" admin="Bosnia and Herzegovina" adm0_a3="BIH" iso_3166_2="BA-SRP" iso_a2="BA" postal="SR" type="Županija|kanton" type_en="Canton" wikidataid="Q18249"/><path d="M640.7803453918469,118.12624070255896 644.1819819128197,120.3490021129742 650.5163920609058,122.46404201343523 667.9989716329331,122.01249965184748 668.0999747190132,127.55176985136585 664.9710111544541,129.82159382166284 660.3280329618824,131.94927006387115 657.1990693973241,136.9127807644518 654.5747773754357,144.7095673591654 649.8308648743292,148.25234390469166 639.6364997123792,149.1024971442934 636.5075361478201,151.36935843795177 632.9329783026923,155.9748629648936 627.0651738035209,155.5546784611672 625.6046090501961,150.62327079314377 624.4288238662991,139.09632362516157 621.4934900331281,127.14356689632689 625.8164622635353,113.51492626088294 628.0185084438829,115.28715519962324 628.9624822411921,119.26600976832133 628.3269226712611,125.02997834515239 628.3269226712611,128.127092805518 633.3690283331408,128.127092805518 639.3538807792559,122.81101497971905 640.4025540901537,119.11704338161385 640.7803453918469,118.12624070255896Z" name="Brčko Distrikt" name_en="Brčko District" gn_name="Brcko District of Bosnia and Herzegovina" admin="Bosnia and Herzegovina" adm0_a3="BIH" iso_3166_2="BA-BRC" iso_a2="BA" type="Condominium" wikidataid="Q194483"/><path d="M667.9989716329331,122.01249965184748 674.1592076117154,121.85338932032332 676.3836661064927,121.18313492789486 682.929929512882,119.14241420818298 687.1669932441574,118.53163871057512 690.4719029668436,117.33981592805473 708.8607593924754,103.94077633854995 711.4453683648994,103.32943687153968 712.7376728511055,105.05902205231246 713.5003442940425,107.47417327168093 714.5172394829444,108.86048918187548 716.5722154120944,108.86048918187548 720.1949049197522,107.31019266017442 722.2286955025642,106.9076879511178 731.3171971887257,108.86048918187548 733.2026905522174,108.56236652509696 734.8975160037197,107.7126875311973 736.7194533282235,107.7126875311973 740.8294051865156,111.64767374489325 742.8631957693216,112.36302486981296 744.9393568398004,112.13948085432862 745.4901754343973,111.82651465493838 745.5325459220651,111.55825285010597 746.3151191236423,112.46393586781247 747.5027806708714,113.83833837107316 748.7103437717627,114.9857129619715 749.5577563950364,116.62468087753591 750.1509452723169,119.02324037037046 750.3416131842994,121.94275464773077 749.6213124340201,122.73212632132878 748.5408612061293,123.01509934341416 747.6934485828607,124.355432185648 740.448069362555,159.0916091675166 738.3295375994123,164.41087108843388 736.359303055584,167.38178051494228 732.2281658509771,170.8570664890158 730.0460780488507,173.20321387978578 728.4995498166447,175.86078906186285 725.5547905715822,184.46899299669963 715.915470495831,200.90119215142133 714.9833164872425,201.83502399304558 712.7588579924592,203.1393359693291 711.7419628035393,204.4435455234494 711.3182562869321,206.37003009322652 711.5301095452361,210.96305207598257 711.1275885799217,212.99246568419937 709.9623961717002,215.27340788341007 707.6621862888366,210.520348403578 703.3037103151685,204.72849745848973 696.7659962624946,200.154552506945 693.497139051815,199.23961179751043 688.4848915991373,201.0694424085977 682.8188728517936,205.03338224879155 679.5104587894907,206.8783859572625 679.2670211975272,192.5506439793722 677.7939659593691,188.03395101630372 670.4645211743591,186.38737192823064 663.1344009786948,188.03410287552106 660.4968289479348,192.5506439793722 656.6834715282885,201.58003200007136 650.8151381795094,211.84146106194999 646.1225902196064,214.30029680823316 642.0232311369838,214.30029680823316 638.792469818976,211.42668181168784 627.6489924086542,198.29651402050044 619.7350536078566,190.49305670696657 617.6812999772526,184.74789639388948 617.977894620871,178.1809460760663 620.3188722130019,174.8853583579234 626.1872053568028,171.18817375271217 631.7589442669412,167.4901620507564 633.2207311138153,160.9089224066108 632.9329783026923,155.9748629648936 636.5075361478201,151.36935843795177 639.6364997123792,149.1024971442934 649.8308648743292,148.25234390469166 654.5747773754357,144.7095673591654 657.1990693973241,136.9127807644518 660.3280329618824,131.94927006387115 664.9710111544541,129.82159382166284 668.0999747190132,127.55176985136585 667.9989716329331,122.01249965184748Z" name="Bijeljina" admin="Bosnia and Herzegovina" adm0_a3="BIH" iso_3166_2="BA-X03~" iso_a2="BA" type="Region"/><path d="M135.67078017105212,352.52969461478614 133.46750702260584,352.30936336902994 131.45490178610817,351.1635932730771 129.1457021109938,349.3713341395117 125.20523281835865,345.4188696813682 122.19691753431196,340.4071522816061 117.64207401806567,329.276055979385 114.67612942668278,324.0829265292617 105.77829565250926,314.5015543873366 102.4310154421383,309.61308125115596 98.59647267617127,297.3561478519375 96.64742327369635,288.4376872130612 96.45675556669114,284.10203260609825 97.04994444397124,280.9896926203919 99.1261057194462,276.371737064671 99.8464064697139,273.9811095745111 100.39722485932671,269.19882355515114 100.35224469164456,268.99023046773675 101.58376828042043,268.3723466450587 103.84000459240518,267.33890491221695 108.99862959608744,268.09184739372336 111.43494144248176,266.9624206281735 112.79080174152149,264.31202647693095 115.77793164429285,260.1547077107437 120.67174027117852,259.77806093940546 127.99126763220866,260.1547077107437 132.59907439517133,258.64068327039695 139.6537855637363,257.8873123012747 146.44368017116173,255.2354707592335 156.47492868330164,252.9674036839563 159.73746770643257,248.79985495247902 164.3452744693948,240.09191913348434 165.96431491274146,239.04298731530818 172.23879164896488,244.40626321583895 178.10712499774303,250.13419401336748 186.89903224525958,257.49999635865447 199.51488927810624,266.0880772709337 205.0866281882454,270.5760397714128 210.06517801611486,270.5760397714128 213.29593912914376,271.4026375205459 215.6369167212751,275.07754810509266 218.27448895702435,280.3892373145655 222.0878463766599,287.3287651025121 229.41796657231265,289.7764520780294 233.23132378696926,290.1819077163064 237.923871951862,294.6781172137419 246.13318289276077,300.79396162915464 256.694064201454,306.5025134725945 266.36516219421617,312.209110800595 272.53008977665655,314.6531457015465 275.75025831901195,320.76166680991855 280.4533990545666,324.02843983756014 285.13397451528954,325.24927672499825 286.31113942271514,332.5749408668665 286.60767687678185,341.53425326854347 289.541900740723,345.2028071445962 295.1136394458832,346.42245598155694 314.1698335634412,349.66952145334443 314.2119074443797,349.5382259761337 315.48133706874336,353.3377808118333 319.008692653037,359.74050198444206 322.800864798471,363.8730666492093 324.15672509749965,366.88926742265323 324.43213421785964,370.6459158015684 326.879038439131,375.14984694496343 327.41926412064214,376.279307112726 329.31535010118233,378.5306663869226 330.4063940234131,384.5352551699349 332.5778893086674,386.7928336493524 336.10524489295034,390.9260534596519 339.6220075493384,394.29636408225537 344.78063273736365,394.67731332782495 350.47948342255745,395.0582536592087 356.1783341077513,404.05179139495823 357.3117486355258,408.4296349161651 357.33293393829683,408.4296349161651 357.5341944067799,409.300674591626 358.6358310725741,413.4356671135335 358.6252385133656,413.42103190750004 352.6509785234568,411.18167382898895 348.8588065623777,408.92737741212835 343.7107741179039,409.30799412107086 343.0963999688695,410.727910962004 341.7829100910297,413.77227638555905 341.40157445681234,419.28146616935277 341.26386971228914,421.3076322943552 341.26386971228914,426.9094035445893 341.26386971228914,430.63800649262066 343.4247722539813,434.78236376561915 343.4247722539813,438.1219576273297 343.4247722539813,441.1175275434172 345.5962675392348,441.1175275434172 348.59399000122613,441.1175275434172 354.30343342997185,442.6370269903372 357.5341944067799,448.23169243217825 363.8050488198193,456.0873751828555 366.5061768586677,460.94788432212226 368.9318957771671,463.20980469245706 371.929618607844,466.1936151970197 371.929618607844,467.8202622858991 371.91902567995004,470.6938648413947 371.10339106242185,476.6655965643756 368.11626115963895,480.4050535642305 365.4045401928846,485.63015624647807 360.78614087071395,487.12378628531195 353.73142988647993,488.60999864914834 348.04317176050614,488.60999864914834 343.4247722539813,489.3603403436012 336.6454703901185,493.0969824771385 331.76225432245366,496.0755054421573 324.43213421785964,499.4320857524137 319.008692653037,499.4320857524137 316.5617884317665,496.82551528805993 315.2059281327259,493.46113343809674 310.3227118807177,491.9753483905616 307.0707657854808,494.5826684575455 297.84455933166186,497.1968671409264 287.26249276314536,497.1968671409264 285.2181094788624,497.95410768081996 275.9529497703199,502.39769270240686 269.4348818372759,496.5558708254948 259.47778197654776,484.9377136817758 227.06424452456508,451.73631154625826 204.26884180200685,433.58352013119384 201.3240825569434,428.8978663173758 199.58688641277166,422.88720468927033 198.84540011119398,418.1254090211172 197.29887208397204,414.00620700973536 188.84592996777627,406.15277729020136 182.17255448340282,396.89667287804923 172.13071344233808,386.5727240768945 166.31550891746895,377.95135530528614 164.0802922914104,374.63620131374086 160.90249464670842,370.8951215993908 157.30099048538162,368.10710659088716 148.3184155308547,364.84894244730907 146.6447752207053,361.50205899224454 145.71262121211686,357.31751276424984 143.06445640569325,352.9703489619496 141.00948047654978,352.1330962243929 135.67078017105212,352.52969461478614Z" name="West Bosnia" gn_name="Hercegovacko-Bosanski Kanton" admin="Bosnia and Herzegovina" adm0_a3="BIH" iso_3166_2="BA-BIH" iso_a2="BA" postal="BF" type="Županija|kanton" type_en="Canton"/><path d="M355.60819612001114,608.9997546007364 353.79482022879273,607.8014877154031 350.65939307174045,604.0828532908398 348.28663756262085,598.6915573941185 346.57062676476346,592.9582618834329 345.2147662395909,589.9822654956655 343.05386357879524,588.005220296882 338.90154143783667,585.3543147016919 330.5545258482743,577.5585418519443 322.61003142899926,565.4738064752568 318.0340023614597,551.4644475064696 321.8897304737526,527.8377541096651 318.6271914437183,520.5680665329733 312.27159594929424,516.2920297838733 292.44213761315325,513.2152312375667 280.5148032086024,506.48505353175614 275.9529497703199,502.39769270240686 285.2181094788624,497.95410768081996 287.26249276314536,497.1968671409264 297.84455933166186,497.1968671409264 307.0707657854808,494.5826684575455 310.3227118807177,491.9753483905616 315.2059281327259,493.46113343809674 316.5617884317665,496.82551528805993 319.008692653037,499.4320857524137 324.43213421785964,499.4320857524137 331.76225432245366,496.0755054421573 336.6454703901185,493.0969824771385 343.4247722539813,489.3603403436012 348.04317176050614,488.60999864914834 353.73142988647993,488.60999864914834 360.78614087071395,487.12378628531195 365.4045401928846,485.63015624647807 368.11626115963895,480.4050535642305 371.10339106242185,476.6655965643756 371.91902567995004,470.6938648413947 371.929618607844,467.8202622858991 373.0312549049527,467.5430869735796 375.456973823441,466.93036723162726 379.9800395596723,467.30237844178725 380.31900458833474,467.3242611085527 381.7172356772608,469.59991155694695 383.32731997823214,472.188819274403 383.32731997823214,477.3727310958132 383.32731997823214,480.02604309925164 385.2022204716574,482.6206365096601 385.2128132152209,482.6352121192469 386.5686735142606,484.8796482398683 386.5686735142606,490.4530114837946 386.5686735142606,494.96135179035474 386.02844801709205,495.55120714349806 385.2128132152209,496.44687355389414 382.2256833124379,496.44687355389414 377.8826929262839,496.44687355389414 375.4463812642325,496.44687355389414 373.94222384580456,497.33521159087644 373.56088802724463,497.553648112728 373.2748861633212,501.29575503873184 373.2748861633212,503.1446611200522 376.1243115059243,504.5857939209332 376.2514235068841,504.6585752102553 377.4483939429726,504.5566813679853 380.6050064522582,504.2655530762815 383.61332147345803,509.11218865532175 387.37371575691174,515.8194991790963 392.00270782264585,518.801287225646 393.083159001314,522.5096064518864 395.24406154300533,527.3510098607436 395.82665783005984,527.3510098607436 399.06801155043087,529.6040429394039 407.75399232273907,531.0647200551343 408.5696269402672,535.9036740155325 409.14163048375826,539.7389778820782 409.3428909522533,541.1406806998871 409.5971149541844,546.6011300508495 409.63948537538437,547.4868346874038 412.09698252454973,553.4387292740349 414.02484636708095,557.2990832309129 414.5121086994981,558.2567792211811 414.82988842540107,559.185402170286 416.98019840787236,565.2927326657052 416.98019840787236,570.8903938468762 416.9590131051009,570.8903938468762 416.3552315152865,570.8613949558226 404.74567693285366,570.1509124287727 399.00445545777393,569.2953940192955 394.7250211642772,568.657351951993 390.0854363549805,566.801092916776 385.2022204716574,566.4095119920285 383.03072537075764,568.657351951993 382.5010924328095,573.4855727420044 383.08368871985243,575.2541266269284 385.2128132152209,581.6599652397 385.7000755476265,581.7613957603012 390.36084565968264,582.7756671008467 396.5999218420451,589.8159365066374 396.96007235783435,590.887655412871 399.34342067079086,597.9824653950888 397.17192556987953,609.0820668775177 392.2145608503485,620.9984668359433 385.7633298700456,630.0527007548184 383.5813780156992,627.4735573086812 355.60819612001114,608.9997546007364Z" name="West Herzegovina" name_en="West Herzegovina Canton" gn_name="Zapadno-Hercegovacki Kanton" admin="Bosnia and Herzegovina" adm0_a3="BIH" iso_3166_2="BA-BIH" iso_a2="BA" postal="BF" type="Županija|kanton" type_en="Canton" wikidataid="Q18275"/><path d="M709.9623961717002,215.27340788341007 708.6277209928356,217.22825097989568 707.0176367216527,218.59058133988233 699.7722579113151,220.9891951908432 699.2426246630562,225.5041626571136 702.5263492444064,238.19869691180483 702.1238280741139,246.03546001871572 699.7087018723323,250.2332607184819 696.8698691539195,253.82419877900665 695.1114878684115,259.7926008587395 695.4716381410569,265.2420658893556 697.0605370659027,270.9406795344767 701.6153805821378,280.7536620463484 705.3228112701323,285.2524182577001 709.4539484747563,287.1400585844407 718.2458555172768,289.0569745605841 722.4829194535363,291.20955528116417 724.2836714317073,291.76977026650826 727.1860601891029,291.9319343499093 733.795879429498,290.3249667182851 736.1474497972808,290.78201017180373 739.6218420856183,293.7008937806849 743.1597902079614,298.8740218502517 745.7020284877165,305.0030569053359 746.1257347993447,310.79115775541703 747.4180392855567,314.4426652892473 751.2737671928887,318.46134466426753 760.2351570060275,325.09814097883856 762.417244808177,327.29020566312937 763.8578465136914,328.1139946231856 765.0654096145817,327.7609471095166 767.3746092897196,325.4071073641473 768.6033577369247,325.3776822270542 770.3405538811141,327.62855240198724 770.7854457440412,332.71763657431137 772.0777500252863,334.5263877635569 775.2555478749667,337.4964328692864 778.9494820340145,342.91101070608454 780.1493565225055,344.6694122897223 786.8227318019005,348.57797746281244 790.1700120122774,352.6618920818652 792.076690722101,354.18943106984517 792.8181770236791,353.39630306881884 794.0681108172222,351.6924198035905 795.9112334880449,351.04607408871664 798.4746571141318,353.33755157054003 800,358.68311161979193 798.2628038558287,363.3517350647426 794.7672262211755,367.2412598725004 786.3354694512774,373.5359706562075 781.4840314964024,375.29630493860617 776.4631109758641,375.73635993856584 764.7900005222798,374.56285489110326 753.9007468579413,375.3403111295259 750.8500608812433,376.24974243903193 747.884116289848,376.4110880542474 745.2359514834252,374.7535551485149 739.9396218705789,369.79464495731395 734.7492187844002,366.1258662773343 732.0374979389939,365.12781910426327 729.0503680012787,365.30394960334826 724.8133044749821,366.6982484760776 723.0549229844789,368.2538557155575 721.9321010639244,370.95381173743436 721.9532862052773,372.9784929099432 722.9278109065124,376.54309663673007 722.4829194535363,378.5524361662884 720.1525342271004,380.84014952767166 722.546475287535,382.3504551029832 719.2535096723499,391.10014677149337 709.2276889688866,379.5441299631298 699.251928942484,369.1827504021386 674.3125290608165,355.35758853201935 654.3610090080124,342.6744723609322 636.9034291461435,338.0600420687123 619.1430868241267,334.6189798979052 621.7912518355396,329.3245498484103 624.5751351055425,326.51074105349824 625.0114201729049,326.06616980592145 629.4179664698318,317.50897389144905 630.5831590830442,307.72499422568046 628.5281829489226,298.7605084642088 625.6046090501961,291.00016078269107 622.3738481421453,283.6491846220148 620.9014683146296,271.8085410786992 622.6704425807852,266.9001339631248 627.3629907456672,266.0880772709337 633.5173255524551,262.4111792626908 637.3306829720898,257.0937432830334 639.9682552078399,250.13419401336748 649.0567566890173,247.68066412135366 657.2660676299166,247.2741711218054 662.5518046720886,243.999689765057 668.4095452452152,239.09045375913055 671.9369007968847,237.65585469591497 677.2120450634052,233.14419410870735 678.9704265538973,229.0530541317647 679.5530228605035,209.38226070232582 679.5104587894907,206.8783859572625 682.8188728517936,205.03338224879155 688.4848915991373,201.0694424085977 693.497139051815,199.23961179751043 696.7659962624946,200.154552506945 703.3037103151685,204.72849745848973 707.6621862888366,210.520348403578 709.9623961717002,215.27340788341007Z" name="Vlasenica" admin="Bosnia and Herzegovina" adm0_a3="BIH" iso_3166_2="BA-X04~" iso_a2="BA" type="Region"/><path d="M314.2119074443797,349.5382259761337 316.224809287595,342.75589319015484 317.9831907780987,336.2437394763808 319.15897616696304,328.10365125860034 317.10240692465277,317.09478835835904 306.257116856193,303.23967102166415 301.26702519309663,295.4862458293106 297.7512114766428,286.0974129304946 294.52045056860356,276.3023379998927 293.6412598233464,263.6369023923999 292.7620690780999,246.45376323465706 294.22385612995214,238.26224681942185 299.21299852850666,237.0346496730237 309.7738800421668,237.44878922461743 312.41145207293755,239.9038311895063 317.9831907780987,241.95188679237296 329.70926449501377,242.56551491497825 339.39095505844983,242.56551491497825 346.7210754590923,242.97951621547801 353.17200511447703,247.47372364561406 358.4577419516598,256.47326467882493 362.55710123927327,260.1588617340047 366.07386401529004,264.6558079842546 373.4039842109424,265.0618762688044 386.30584331673344,265.0618762688044 404.1968448210799,261.79089944366893 412.9887518636055,262.2044218948929 413.39112380811014,261.90177736422316 415.2112242439494,266.1282196146706 417.43568287829765,272.69734290262437 421.4079300051119,276.8441496142297 425.6238083903062,282.0225175147924 426.36529454029994,287.1992746172518 425.3801771319261,299.2721183803526 425.8674396486863,314.1042810562328 428.3461217319371,320.99299223715644 435.29490638665726,327.54051845652305 440.50649455509,332.68845392464823 446.44897649865277,331.67370071576687 449.9233689181839,332.35020987925924 449.9233689181839,336.4822018757383 451.660564851441,343.02365669295096 452.89990607740384,347.4909533760433 456.8615606450096,349.9004468898121 460.3359526958547,349.9004468898121 462.5604113302034,349.9004468898121 465.04968634134866,352.6474329442624 466.03480356539154,358.83751413719904 467.52836842459993,367.43227285129296 470.74853684219994,367.43227285129296 476.70161134498187,367.0800552808744 478.43880746258196,368.7970460642143 478.9366627228932,372.9200389654408 478.43880746258196,375.6705814528859 480.66326591258724,378.75798552851177 480.66326591258724,381.5002376407706 483.1419481801815,381.5002376407706 484.87914429777,381.5002376407706 486.6163405997126,383.56762790081865 491.57370495055767,391.8053301937372 493.31090106814617,395.92266286776334 495.7895833357404,395.92266286776334 498.1941169514684,395.3366275976102 500.0054617209343,397.28511648191943 501.7426578385228,406.19693100042537 501.98628909690245,410.99138755432085 501.0011718728716,413.7356886984855 498.2682656033462,416.47954132480174 493.8087561441148,418.1914780855122 487.35782656536423,422.98250919942353 480.9174897301762,425.3811681266704 472.9835880357678,426.0612137345236 470.5049055838194,429.1466645428423 469.5091958005801,432.5677815208038 469.5515665904656,432.6262563072195 469.5727517088825,432.67011194544 463.8103451153858,433.93457143730706 457.3276376746433,432.39235670353526 456.6179295709725,432.22423934380487 450.90848614222676,426.0612137345236 449.9127761746329,423.5017602776225 447.6883175402842,417.84764138965295 446.9680168773929,416.8453542766717 445.7074903486586,415.10401272211465 439.5107847718391,414.41620600862655 429.59605551711996,414.41620600862655 423.14512612271193,416.1283532564831 419.5118438402296,419.2448907459678 417.96531563191525,420.5688780370756 410.0102286347246,421.5855709356747 403.0720367235676,419.2009997762588 394.88391102722846,414.40157165781716 385.4882223355804,412.01597944067385 380.2766339828034,413.04050850378104 376.06075559760995,414.40157165781716 370.8067966392904,415.07474495272965 365.15031655963946,411.68665316748627 360.9344381744452,409.249438305634 357.32234119473424,408.4003555008279 357.33293393829683,408.4296349161651 357.3117486355258,408.4296349161651 356.1783341077513,404.05179139495823 350.47948342255745,395.0582536592087 344.78063273736365,394.67731332782495 339.6220075493384,394.29636408225537 336.10524489295034,390.9260534596519 332.5778893086674,386.7928336493524 330.4063940234131,384.5352551699349 329.31535010118233,378.5306663869226 327.41926412064214,376.279307112726 326.879038439131,375.14984694496343 324.43213421785964,370.6459158015684 324.15672509749965,366.88926742265323 322.800864798471,363.8730666492093 319.008692653037,359.74050198444206 315.48133706874336,353.3377808118333 314.2119074443797,349.5382259761337Z" name="Central Bosnia" name_en="Central Bosnia Canton" gn_name="Srednjobosanski Kanton" admin="Bosnia and Herzegovina" adm0_a3="BIH" iso_3166_2="BA-BIH" iso_a2="BA" postal="BF" type="Canton" type_en="Canton" wikidataid="Q18262"/><path d="M413.39112380811014,261.90177736422316 420.0328703962815,256.886919465409 430.2971572663238,251.15392814569475 438.803062645862,246.24680746931259 446.13318284152587,240.51753501980056 451.12232544504775,234.78628478404335 451.9909234146414,227.82477542384532 451.9909234146414,220.8603434223777 450.8241317488009,213.069346183092 445.83658840288604,208.145115651858 438.803062645862,201.17240741486384 434.4071091245992,192.95802286563395 434.4071091245992,186.38737192823064 437.92387190061595,178.1809460760663 445.2539920962687,163.1673405311606 452.28751785329274,161.11694722711937 462.84839916197444,161.93416348822728 471.35430454152464,163.1673405311606 478.3878305035152,169.74768124291194 485.13508853289807,181.2528145998474 492.1671554439195,196.45432624500754 496.27883200785004,203.4253353529727 501.85057071301026,204.24787419185816 511.2356668378061,204.65542337862647 527.0273355904553,204.65542327944462 527.0273355904553,208.31133937816608 526.7837045164183,213.86660161722918 526.7837045164183,218.0207206277324 528.5209006340067,222.86957879224795 528.7645318923865,229.8109712792822 528.7645318923865,235.68446539769388 528.7645318923865,241.5706681431006 530.755951643232,247.4547845636176 533.9761202451634,249.8787889013196 544.1450731331397,249.5314685958298 547.1110177331508,251.60789274911545 548.6045827767022,257.14129372443983 548.6045827767022,262.33318370253744 551.083265044308,268.2025714896496 556.2842606535215,274.07726699607485 561.2416250043782,275.11766893492876 568.1904096590979,278.5704514044173 572.1520642266917,282.0225175147924 573.8892605286227,292.0279879752123 576.865797687843,302.0348172345095 576.865797687843,310.3054413479707 577.861507655437,311.68961479587324 582.3210172990114,312.72030780723236 588.0198677998502,312.72030780723236 590.0112879193817,318.5793234939751 594.2271663045757,320.3013058551298 608.3577735758031,319.6095907915857 619.7554749461792,319.6095907915857 624.5751351055425,326.51074105349824 621.7912518355396,329.3245498484103 619.1430868241267,334.6189798979052 612.4061557107437,340.7201991292475 603.3176540245873,350.0808695730494 595.987533828935,354.546280465522 588.4435744082964,354.86525816739606 587.2783816498564,352.6474329442624 582.3210172990114,351.6192022148092 578.8466248794798,349.20995677107436 576.865797687843,345.43379420694725 573.6456292702551,340.61317140240715 570.4148681090916,337.8642055636697 566.1989897239093,337.17321801654646 562.7351900479296,337.17321801654646 558.5193116627469,337.17321801654646 557.7778255127415,338.202338182874 555.5427745035278,340.9512481154734 552.8098682339904,346.1170931737828 549.3460687423653,348.87204713915827 545.3738216155507,348.87204713915827 540.172826006326,348.87204713915827 537.6941435543887,350.9287833605875 537.4399197368006,355.0561829916655 537.6941435543887,364.33543917639867 535.2154612867945,367.43227285129296 529.5060178580496,370.5138604155387 521.3284850896041,370.8660057106835 514.3797004348849,370.5138604155387 508.1935876016284,372.5826078197335 506.7000225580654,378.06868591556906 506.7000225580654,385.6201037388701 504.96282644046534,388.36856097021075 501.98628909690245,389.7389564648389 499.7618306468972,389.7389564648389 497.2831483793034,392.1423742287137 497.77041071172016,394.88243623835336 498.1941169514684,395.3366275976102 495.7895833357404,395.92266286776334 493.31090106814617,395.92266286776334 491.57370495055767,391.8053301937372 486.6163405997126,383.56762790081865 484.87914429777,381.5002376407706 483.1419481801815,381.5002376407706 480.66326591258724,381.5002376407706 480.66326591258724,378.75798552851177 478.43880746258196,375.6705814528859 478.9366627228932,372.9200389654408 478.43880746258196,368.7970460642143 476.70161134498187,367.0800552808744 470.74853684219994,367.43227285129296 467.52836842459993,367.43227285129296 466.03480356539154,358.83751413719904 465.04968634134866,352.6474329442624 462.5604113302034,349.9004468898121 460.3359526958547,349.9004468898121 456.8615606450096,349.9004468898121 452.89990607740384,347.4909533760433 451.660564851441,343.02365669295096 449.9233689181839,336.4822018757383 449.9233689181839,332.35020987925924 446.44897649865277,331.67370071576687 440.50649455509,332.68845392464823 435.29490638665726,327.54051845652305 428.3461217319371,320.99299223715644 425.8674396486863,314.1042810562328 425.3801771319261,299.2721183803526 426.36529454029994,287.1992746172518 425.6238083903062,282.0225175147924 421.4079300051119,276.8441496142297 417.43568287829765,272.69734290262437 415.2112242439494,266.1282196146706 413.39112380811014,261.90177736422316Z" name="Zenica-Doboj" name_en="Zenica-Doboj Canton" gn_name="Zenicko-Dobojski Kanton" admin="Bosnia and Herzegovina" adm0_a3="BIH" iso_3166_2="BA-BIH" iso_a2="BA" postal="BF" type="Canton" type_en="Canton" wikidataid="Q18253"/><path d="M527.0273355904553,204.65542327944462 527.0716924130081,204.65542337862647 536.456788537804,205.07037218549456 547.0070770708337,202.61016641094045 548.1828624597096,196.04288812236166 547.0054495259191,188.6478125422483 541.4353383656734,182.0843291039039 532.346836679529,179.20511672645242 523.8409312999793,176.32540301146886 513.576644429937,172.62854045860928 505.0707390503872,168.93085131221127 495.98223756920936,165.23233444343342 487.47633218967155,160.7008943914902 484.2561636473157,156.9986372236311 484.2561636473157,148.76463017709472 485.71795049418984,143.82706451237087 493.93785421075137,142.59244218541994 502.7297614582559,141.76682966997956 518.8517889014248,141.76682966997956 527.0716924130081,139.70633814389106 532.0502422408772,131.87858687154997 536.456788537804,119.1021464959209 539.3803626415196,111.6819050301606 544.6660994787028,107.96307701129822 549.6446495115619,105.89835503189498 562.5571009830484,106.52450769155817 569.5886406843116,108.58111687600548 569.5906269450393,115.1838411862517 569.5906269450393,118.48217683115702 571.9316045371706,121.36629381088377 577.5033432423313,121.78333960856197 582.4924858458519,120.54706614767102 589.8226060415051,117.24739962117151 601.2626780954439,118.07424039009757 613.5713483239554,121.36629381088377 621.4934900331281,127.14356689632689 624.4288238662991,139.09632362516157 625.6046090501961,150.62327079314377 627.0651738035209,155.5546784611672 632.9329783026923,155.9748629648936 633.2207311138153,160.9089224066108 631.7589442669412,167.4901620507564 626.1872053568028,171.18817375271217 620.3188722130019,174.8853583579234 617.977894620871,178.1809460760663 617.6812999772526,184.74789639388948 619.7350536078566,190.49305670696657 627.6489924086542,198.29651402050044 638.792469818976,211.42668181168784 642.0232311369838,214.30029680823316 646.1225902196064,214.30029680823316 650.8151381795094,211.84146106194999 656.6834715282885,201.58003200007136 660.4968289479348,192.5506439793722 663.1344009786948,188.03410287552106 670.4645211743591,186.38737192823064 677.7939659593691,188.03395101630372 679.2670211975272,192.5506439793722 679.5104587894907,206.8783859572625 679.5530228605035,209.38226070232582 678.9704265538973,229.0530541317647 677.2120450634052,233.14419410870735 671.9369007968847,237.65585469591497 668.4095452452152,239.09045375913055 662.5518046720886,243.999689765057 657.2660676299166,247.2741711218054 649.0567566890173,247.68066412135366 639.9682552078399,250.13419401336748 637.3306829720898,257.0937432830334 633.5173255524551,262.4111792626908 627.3629907456672,266.0880772709337 622.6704425807852,266.9001339631248 620.9014683146296,271.8085410786992 622.3738481421453,283.6491846220148 625.6046090501961,291.00016078269107 628.5281829489226,298.7605084642088 630.5831590830442,307.72499422568046 629.4179664698318,317.50897389144905 625.0114201729049,326.06616980592145 624.5751351055425,326.51074105349824 619.7554749461792,319.6095907915857 608.3577735758031,319.6095907915857 594.2271663045757,320.3013058551298 590.0112879193817,318.5793234939751 588.0198677998502,312.72030780723236 582.3210172990114,312.72030780723236 577.861507655437,311.68961479587324 576.865797687843,310.3054413479707 576.865797687843,302.0348172345095 573.8892605286227,292.0279879752123 572.1520642266917,282.0225175147924 568.1904096590979,278.5704514044173 561.2416250043782,275.11766893492876 556.2842606535215,274.07726699607485 551.083265044308,268.2025714896496 548.6045827767022,262.33318370253744 548.6045827767022,257.14129372443983 547.1110177331508,251.60789274911545 544.1450731331397,249.5314685958298 533.9761202451634,249.8787889013196 530.755951643232,247.4547845636176 528.7645318923865,241.5706681431006 528.7645318923865,235.68446539769388 528.7645318923865,229.8109712792822 528.5209006340067,222.86957879224795 526.7837045164183,218.0207206277324 526.7837045164183,213.86660161722918 527.0273355904553,208.31133937816608 527.0273355904553,204.65542327944462Z" name="Tuzla" name_en="Tuzla Canton" gn_name="Tuzlanski Kanton" admin="Bosnia and Herzegovina" adm0_a3="BIH" iso_3166_2="BA-BIH" iso_a2="BA" postal="BF" type="Županija|kanton" type_en="Canton" wikidataid="Q18250"/><path d="M588.4435744082964,354.86525816739606 595.987533828935,354.546280465522 603.3176540245873,350.0808695730494 612.4061557107437,340.7201991292475 619.1430868241267,334.6189798979052 636.9034291461435,338.0600420687123 654.3610090080124,342.6744723609322 674.3125290608165,355.35758853201935 699.251928942484,369.1827504021386 709.2276889688866,379.5441299631298 719.2535096723499,391.10014677149337 717.5408222013274,395.649098696158 719.2034489952873,410.58986779972673 718.3721355983014,420.9256870969929 722.5287022145221,432.4024720634594 718.3721355983014,439.2847809062426 709.2276889688866,438.1379250849289 702.5771823460615,433.5497191594622 687.613542306453,430.1077422814513 673.4812156638305,434.6968881713271 662.8378065400549,441.93984585918275 657.8592565072074,435.87538686074754 648.1775659437714,434.25295565741635 628.8247773875739,433.8509774504507 619.7362759063961,435.06419055982246 615.6263240481092,440.32530597686247 613.5713483239554,449.62322265244967 610.0545853429604,456.500226436176 606.2412279233249,460.13470449038846 598.6145132890207,459.7260470936712 593.6359634611517,458.9232990295912 592.9440305728034,458.4098963764823 582.7890802844926,450.8352976925272 574.283174904954,447.19880989134185 567.8322454545472,443.9705852129953 559.0297456363577,443.5615351703982 553.4580067262184,443.152475174215 550.8204346954473,438.30143290901924 545.2486262969427,428.5943724638447 544.6660994787028,422.11629332116854 544.0729106014227,416.4397586854958 546.7104826321938,414.8227653721924 555.2163882167225,415.63494011316743 560.7881269218711,416.84946976043534 566.9530547092896,416.03735408252004 570.1732232516566,413.2056165080855 571.9316045371706,409.5609714480733 571.9316045371706,400.63629826049623 571.3490082305649,392.11718772676716 570.1732232516566,381.9735789181747 570.4698174853069,375.0659596089785 572.5247934144503,371.0168574239852 578.6791286311952,366.13022330400673 584.844056213636,360.84576930024673 586.3058430605093,354.9575083026918 588.4435744082964,354.86525816739606Z" name="Sarajevo-romanija" admin="Bosnia and Herzegovina" adm0_a3="BIH" iso_3166_2="BA-X05~" iso_a2="BA" type="Region"/><path d="M548.1828624597096,483.75427923800623 549.6446495115619,475.07306845412 550.5238402568075,463.36712448605937 552.8754104196126,456.500226436176 559.0297456363577,456.500226436176 563.1396972896545,456.500226436176 568.9974378627816,460.5433516811174 573.9865804663141,465.38798384329573 580.7341043553606,468.61210196079173 587.6597174684164,471.6710695196031 581.4548298073843,477.2016395289106 573.4742217493988,478.1170029226927 564.163512440583,478.1170029226927 556.1829045669288,485.4381196946958 548.1828624597096,483.75427923800623Z" name="Sarajevo-romanija" admin="Bosnia and Herzegovina" adm0_a3="BIH" iso_3166_2="BA-X05~" iso_a2="BA" type="Region"/><path d="M588.4435744082964,354.86525816739606 586.3058430605093,354.9575083026918 584.844056213636,360.84576930024673 578.6791286311952,366.13022330400673 572.5247934144503,371.0168574239852 570.4698174853069,375.0659596089785 570.1732232516566,381.9735789181747 571.3490082305649,392.11718772676716 571.9316045371706,400.63629826049623 571.9316045371706,409.5609714480733 570.1732232516566,413.2056165080855 566.9530547092896,416.03735408252004 560.7881269218711,416.84946976043534 555.2163882167225,415.63494011316743 546.7104826321938,414.8227653721924 544.0729106014227,416.4397586854958 544.6660994787028,422.11629332116854 545.2486262969427,428.5943724638447 550.8204346954473,438.30143290901924 553.4580067262184,443.152475174215 559.0297456363577,443.5615351703982 567.8322454545472,443.9705852129953 574.283174904954,447.19880989134185 582.7890802844926,450.8352976925272 592.9440305728034,458.4098963764823 592.3734507452248,459.03595970696375 589.894768661973,461.76512924900646 588.2317210119078,465.8799387560982 587.5749760729875,469.29359176903824 587.6597174684164,471.6710695196031 580.7341043553606,468.61210196079173 573.9865804663141,465.38798384329573 568.9974378627816,460.5433516811174 563.1396972896545,456.500226436176 559.0297456363577,456.500226436176 552.8754104196126,456.500226436176 550.5238402568075,463.36712448605937 549.6446495115619,475.07306845412 548.1828624597096,483.75427923800623 546.6131626571821,485.3168415342847 546.5707920516392,485.30226875089227 544.6323354655565,484.83592846425074 538.9334847803627,484.83592846425074 534.2197515035432,482.79553868057667 534.1561954108857,482.7663887407381 530.2475041923868,481.4254240616533 528.5209006340067,485.50628834723017 527.525190666412,489.2729236641174 526.9425945637125,489.20736079367805 524.548653507193,488.93053686152246 522.5572335720155,488.4351570554612 521.8263399812301,488.2457429023507 521.0848538312245,487.7212010940001 516.614751628442,484.50073865110903 510.9159009432482,482.44573277715983 508.68084974969105,480.7403248486568 508.6067010978252,478.84522497423615 508.4372184913105,474.6023436450015 505.46068133209144,466.7407113937797 505.43949602931957,466.71153365635865 500.2490929793144,461.6994592253437 498.7661206793029,460.2619514883395 498.3212291367832,460.1962758527684 494.0523872181519,459.5759909485403 489.2539127302581,460.6341101059007 487.85568182567584,460.94788432212226 486.76463771910124,460.69978403279697 480.1971890672849,459.19651135959487 476.70161134498187,455.8100065722459 475.22923178853335,452.021276189221 473.60855492835367,444.799155136491 473.4708501838304,444.20021490839855 473.2695897153363,443.367506700356 471.2463919181682,435.30125042251615 469.5727517088825,432.67011194544 469.5515665904656,432.6262563072195 469.5091958005801,432.5677815208038 470.5049055838194,429.1466645428423 472.9835880357678,426.0612137345236 480.9174897301762,425.3811681266704 487.35782656536423,422.98250919942353 493.8087561441148,418.1914780855122 498.2682656033462,416.47954132480174 501.0011718728716,413.7356886984855 501.98628909690245,410.99138755432085 501.7426578385228,406.19693100042537 500.0054617209343,397.28511648191943 498.1941169514684,395.3366275976102 497.77041071172016,394.88243623835336 497.2831483793034,392.1423742287137 499.7618306468972,389.7389564648389 501.98628909690245,389.7389564648389 504.96282644046534,388.36856097021075 506.7000225580654,385.6201037388701 506.7000225580654,378.06868591556906 508.1935876016284,372.5826078197335 514.3797004348849,370.5138604155387 521.3284850896041,370.8660057106835 529.5060178580496,370.5138604155387 535.2154612867945,367.43227285129296 537.6941435543887,364.33543917639867 537.4399197368006,355.0561829916655 537.6941435543887,350.9287833605875 540.172826006326,348.87204713915827 545.3738216155507,348.87204713915827 549.3460687423653,348.87204713915827 552.8098682339904,346.1170931737828 555.5427745035278,340.9512481154734 557.7778255127415,338.202338182874 558.5193116627469,337.17321801654646 562.7351900479296,337.17321801654646 566.1989897239093,337.17321801654646 570.4148681090916,337.8642055636697 573.6456292702551,340.61317140240715 576.865797687843,345.43379420694725 578.8466248794798,349.20995677107436 582.3210172990114,351.6192022148092 587.2783816498564,352.6474329442624 588.4435744082964,354.86525816739606Z" name="Sarajevo" name_en="Sarajevo Canton" gn_name="Kanton Sarajevo" admin="Bosnia and Herzegovina" adm0_a3="BIH" iso_3166_2="BA-BIH" iso_a2="BA" postal="BF" type="Županija|kanton" type_en="Canton" wikidataid="Q18276"/><path d="M592.9440305728034,458.4098963764823 593.6359634611517,458.9232990295912 598.6145132890207,459.7260470936712 606.2412279233249,460.13470449038846 610.0545853429604,456.500226436176 613.5713483239554,449.62322265244967 615.6263240481092,440.32530597686247 619.7362759063961,435.06419055982246 628.8247773875739,433.8509774504507 648.1775659437714,434.25295565741635 657.8592565072074,435.87538686074754 662.8378065400549,441.93984585918275 667.5303544999691,446.7971411915951 672.2229026648503,446.7971411915951 678.9704265538973,448.8199920423201 682.4859377191752,453.25760635182775 684.8387599026754,461.3460227529394 683.6629747187905,465.38798384329573 677.2120450634052,466.5989241194263 672.2229026648503,471.85018727489546 665.4753787758042,477.09981322320226 656.3868770896478,481.13070740401196 649.649945771276,484.3591004364951 641.4300420547252,485.5686777254641 630.5831590830442,487.18616977507565 624.1322294276594,488.8035063558804 610.3511797815999,486.77816821975836 601.2626780954439,482.340516413544 588.0642247559915,471.85018727489546 587.6597174684164,471.6710695196031 587.5749760729875,469.29359176903824 588.2317210119078,465.8799387560982 589.894768661973,461.76512924900646 592.3734507452248,459.03595970696375 592.9440305728034,458.4098963764823Z" name="Bosnian Podrinje" name_en="Bosnian Podrinje Canton" gn_name="Bosansko-Podrinjski Kanton" admin="Bosnia and Herzegovina" adm0_a3="BIH" iso_3166_2="BA-BIH" iso_a2="BA" postal="BF" type="Županija|kanton" type_en="Canton" wikidataid="Q18256"/></svg>