<?xml version="1.0"?><svg fill="#3498db" stroke="#ecf0f1" stroke-width="1" width="800" height="1056" viewBox="0 0 800 1056" xmlns="http://www.w3.org/2000/svg"><path d="M381.4836982505861,362.0229361004619 413.8918721643046,406.6421744690323 479.1979963371641,456.4905318771632 470.88292594571845,460.1157566907599 413.13498107668613,513.7658204144306 411.58897356251543,514.1370892964117 410.13390841147634,514.3227252928754 407.0418933828994,514.3227252928754 405.3140011420827,521.0055397630443 404.49552620324016,526.0176192165482 401.22162644825283,582.2622907392094 398.8571439951807,582.447908920225 351.6584341321989,590.9863830751505 321.738634016168,530.844037265601 312.2807042040562,519.5204750527533 307.3698545713543,515.0652591898236 257.7157198921983,484.0637716671393 294.0014316267105,399.77866149694387 305.0053721182822,382.14086829682304 307.0060882835872,381.58388156481914 308.46115659994496,381.39821708707615 309.73434018986285,381.58388156481914 310.6437543265183,382.14086829682304 311.55317162849246,382.8835220995282 312.7354128551316,384.74014573621736 313.73576935509533,385.66845444305255 318.10097113870273,387.7107384884845 328.74114217742425,384.9258062648576 373.2116032994195,363.9457201831116 381.4836982505861,362.0229361004619Z" name="Saint Joseph" name_en="Saint Joseph" gn_name="Saint Andrew" admin="Barbados" adm0_a3="BRB" iso_3166_2="BB-06" iso_a2="BB" postal="JS" type="Parish" type_en="Parish" wikidataid="Q550249"/><path d="M300.0142978434926,197.23040301762254 367.4901527277617,342.7560550539823 381.4836982505861,362.0229361004619 373.2116032994195,363.9457201831116 328.74114217742425,384.9258062648576 318.10097113870273,387.7107384884845 313.73576935509533,385.66845444305255 312.7354128551316,384.74014573621736 311.55317162849246,382.8835220995282 310.6437543265183,382.14086829682304 309.73434018986285,381.58388156481914 308.46115659994496,381.39821708707615 307.0060882835872,381.58388156481914 305.0053721182822,382.14086829682304 294.0014316267105,399.77866149694387 257.7157198921983,484.0637716671393 241.61905137185715,462.9004403303216 229.0691033658497,458.2592916457518 187.14500625804777,460.67269284326414 169.50232705824672,368.2160438037753 171.59398558677162,246.96772357530895 176.23200812957816,237.68307657201782 179.5968502478738,222.08464226169082 181.68850877645758,221.34185647662306 182.87075000306726,220.59906358738118 183.87110966834962,220.22766851832816 184.78052697032373,220.59906358738118 185.87182266830652,220.970458496188 186.96312469692657,222.08464226169082 189.14572242329385,223.19882781752963 191.6011472396448,224.12731037087502 194.51128070710058,225.0557951547402 196.23917294788777,225.0557951547402 198.05800438651735,224.4987037582338 199.51307270287512,224.12731037087502 201.15002258038353,223.94161523290066 203.87826815587468,224.31300546869952 204.87862465583842,224.31300546869952 206.06086904776674,224.12731037087502 206.97028318445166,223.94161523290066 208.2434667741929,224.31300546869952 210.244182939439,225.79858096860636 215.518798859908,225.2414932839915 223.88542980874786,221.8989466834075 238.89079946575814,207.4144292342445 246.89366412700753,202.77190342332005 251.98639532083058,201.28629465927693 253.71429072696588,202.21480084133813 255.53312216577214,202.77190342332005 256.80630259022416,202.95760959006466 257.98854698197584,203.8861139694519 259.6254968596609,204.07181343235078 261.7171522227199,203.8861139694519 267.5374159920773,198.68646426592252 268.264948567641,198.68646426592252 268.62871802066786,199.05786862692827 273.5395676533403,200.1720807482033 294.0014316267105,199.42927605938553 300.0142978434926,197.23040301762254Z" name="Saint Andrew" name_en="Saint Andrew" gn_name="Saint Andrew" admin="Barbados" adm0_a3="BRB" iso_3166_2="BB-02" iso_a2="BB" postal="AN" type="Parish" type_en="Parish" wikidataid="Q1647439"/><path d="M275.5391886233095,144.3279882550504 300.0142978434926,197.23040301762254 294.0014316267105,199.42927605938553 273.5395676533403,200.1720807482033 268.62871802066786,199.05786862692827 268.264948567641,198.68646426592252 267.5374159920773,198.68646426592252 261.7171522227199,203.8861139694519 259.6254968596609,204.07181343235078 257.98854698197584,203.8861139694519 256.80630259022416,202.95760959006466 255.53312216577214,202.77190342332005 253.71429072696588,202.21480084133813 251.98639532083058,201.28629465927693 246.89366412700753,202.77190342332005 238.89079946575814,207.4144292342445 223.88542980874786,221.8989466834075 215.518798859908,225.2414932839915 210.244182939439,225.79858096860636 208.2434667741929,224.31300546869952 206.97028318445166,223.94161523290066 206.06086904776674,224.12731037087502 204.87862465583842,224.31300546869952 203.87826815587468,224.31300546869952 201.15002258038353,223.94161523290066 199.51307270287512,224.12731037087502 198.05800438651735,224.4987037582338 196.23917294788777,225.0557951547402 194.51128070710058,225.0557951547402 191.6011472396448,224.12731037087502 189.14572242329385,223.19882781752963 186.96312469692657,222.08464226169082 185.87182266830652,220.970458496188 184.78052697032373,220.59906358738118 183.87110966834962,220.22766851832816 182.87075000306726,220.59906358738118 181.68850877645758,221.34185647662306 179.5968502478738,222.08464226169082 176.23200812957816,237.68307657201782 171.59398558677162,246.96772357530895 169.50232705824672,368.2160438037753 93.20229201801767,358.00436102680953 34.181169889851965,385.66845444305255 11.963711293016365,379.88201302645905 4.517940298015483,254.04630376615913 18.3573221286805,251.05293694952886 83.47153828124084,207.60013116787047 272.35732326147087,146.31680572868422 275.5391886233095,144.3279882550504Z" name="Saint Peter" name_en="Saint Peter" gn_name="Saint Peter" admin="Barbados" adm0_a3="BRB" iso_3166_2="BB-09" iso_a2="BB" postal="PE" type="Parish" type_en="Parish" wikidataid="Q932723"/><path d="M4.517940298015483,254.04630376615913 0,177.68283533018158 7.017543489130244,121.96896245222328 31.93698449629881,74.87988048230459 81.91908484426601,23.693169843574427 145.50662420865734,0 210.23988560560687,35.10075825823849 258.64661595917954,107.93025202593711 275.5391886233095,144.3279882550504 272.35732326147087,146.31680572868422 83.47153828124084,207.60013116787047 18.3573221286805,251.05293694952886 4.517940298015483,254.04630376615913Z" name="Saint Lucy" name_en="Saint Lucy" gn_name="Saint Lucy" admin="Barbados" adm0_a3="BRB" iso_3166_2="BB-07" iso_a2="BB" postal="LU" type="Parish" type_en="Parish" wikidataid="Q1647447"/><path d="M47.859291950545405,729.0975402118329 28.64303673263714,661.7010750490722 11.963711293016365,379.88201302645905 34.181169889851965,385.66845444305255 93.20229201801767,358.00436102680953 169.50232705824672,368.2160438037753 187.14500625804777,460.67269284326414 168.13820427048643,486.1058201879153 162.95453071332565,491.11810156670856 162.40888286443735,490.746822818434 161.6813502888736,490.56118176937144 161.31758083581727,490.746822818434 160.59004826031244,491.48938015581905 159.68063095833833,492.23193685655525 159.13498310921443,492.41757754750057 158.0436810808299,492.23193685655525 157.49803323173546,492.23193685655525 156.58861592976135,492.04629935626707 155.31543550533874,492.04629935626707 154.49696056646675,492.23193685655525 153.67848562762424,492.7888555795038 151.31400000929236,494.2739661159204 150.76835216040402,494.64524335204453 149.58611093379434,495.2021605231197 149.04045991958736,495.3878005775855 148.49480890538038,495.3878005775855 144.67526130126916,498.7292856760378 143.4020777115868,499.47183616950156 142.5836027727148,499.8431111775573 141.9470125604888,499.8431111775573 141.40136471139434,500.21438925700573 140.0372355930556,500.21438925700573 139.3097061830461,500.21438925700573 138.67311280532476,500.4000250063864 137.0361629277869,501.5138483594232 130.48836658292473,503.92713222350983 128.39670805451763,510.23875648579656 119.12066296887508,550.7063222309548 114.20981333611432,562.5863509716237 110.57214412810006,569.6400417456176 106.93448125063479,570.7537761304974 105.66130082597661,571.681885410295 104.75188035874274,572.9812406104247 103.47869676900147,576.3224298363367 102.7511673587564,578.1786387181679 101.75080769347403,578.9211211588192 103.47869676900147,580.7773277107424 108.02578011373008,583.3760089199957 131.30684152176727,609.7336080557519 151.76870866036774,698.081418740221 114.39169489747107,727.0337871406049 111.29967986892355,730.3743840344704 104.93376508518257,735.1996665865357 87.56391297510017,742.8087113974398 80.37952325287,747.0771729568264 80.19763852625348,747.8195111187819 75.83243990793527,745.2213247827918 57.82599442036709,728.3329068076717 47.859291950545405,729.0975402118329Z" name="Saint James" name_en="Saint James" gn_name="Saint James" admin="Barbados" adm0_a3="BRB" iso_3166_2="BB-04" iso_a2="BB" postal="JM" type="Parish" type_en="Parish" wikidataid="Q592141"/><path d="M189.83570815706702,935.5826654429031 162.11958488018158,933.6327261496351 114.85857655901985,900.1755363198022 74.18546376494591,821.4218834346376 47.859291950545405,729.0975402118329 57.82599442036709,728.3329068076717 75.83243990793527,745.2213247827918 80.19763852625348,747.8195111187819 80.37952325287,747.0771729568264 87.56391297510017,742.8087113974398 104.93376508518257,735.1996665865357 111.29967986892355,730.3743840344704 114.39169489747107,727.0337871406049 151.76870866036774,698.081418740221 208.15252441106134,686.574438619739 213.15431640686532,684.3472622346256 236.16255072497776,658.3631344358046 294.7289673675339,849.1428124557186 300.00358328779686,872.8945548942513 300.4582919388722,877.7190485452877 298.9122812592062,877.9046069515007 189.83570815706702,935.5826654429031Z" name="Saint Michael" name_en="Saint Michael" gn_name="Saint Michael" admin="Barbados" adm0_a3="BRB" iso_3166_2="BB-08" iso_a2="BB" postal="MI" type="Parish" type_en="Parish" wikidataid="Q819170"/><path d="M627.9985683094537,927.0582721996199 586.6093814450408,955.5472250966748 511.5646252756546,1031.8053959726892 483.92409576132525,1035.165279747821 461.43931363322895,1034.8731173893552 439.67060557567777,1038.6712276260835 415.61045345312806,1053.863514668038 380.95238044949184,994.5536728155919 315.9326894245716,957.4464544179658 236.87790790159895,938.8922565745061 189.83570815706702,935.5826654429031 298.9122812592062,877.9046069515007 300.4582919388722,877.7190485452877 300.00358328779686,872.8945548942513 294.7289673675339,849.1428124557186 496.61940900461127,772.8730707483865 529.540281786117,783.079870757782 534.723952177753,788.2760130400145 540.7261038390455,797.9259098211961 546.4554252450946,837.0811268807681 547.4557849103769,839.864609075771 568.0995367754467,875.1212460945766 572.5556745917545,885.1412926702768 572.4647353939122,886.6257365069583 575.8295743469774,889.2235014972002 581.7407804794369,891.0790431873314 601.8388844955889,898.8722816894658 610.8421056568609,903.3255323784747 627.9985683094537,927.0582721996199Z" name="Christ Church" name_en="Christ Church" gn_name="Christ Church" admin="Barbados" adm0_a3="BRB" iso_3166_2="BB-01" iso_a2="BB" postal="CC" type="Parish" type_en="Parish" wikidataid="Q1626524"/><path d="M656.4993883753515,567.769125715367 693.7343369245343,579.8565351782863 758.7540279496607,609.6722269795018 800,661.7010750490722 788.9724311570181,785.4762980554416 698.6036511629459,878.4057558096686 627.9985683094537,927.0582721996199 610.8421056568609,903.3255323784747 601.8388844955889,898.8722816894658 581.7407804794369,891.0790431873314 575.8295743469774,889.2235014972002 572.4647353939122,886.6257365069583 572.5556745917545,885.1412926702768 568.0995367754467,875.1212460945766 547.4557849103769,839.864609075771 546.4554252450946,837.0811268807681 540.7261038390455,797.9259098211961 534.723952177753,788.2760130400145 529.540281786117,783.079870757782 496.61940900461127,772.8730707483865 512.0794873127558,714.2280479869573 559.0963124490917,652.4237941182587 584.2871476590666,642.4010697114171 608.0229177180025,627.5523731955864 612.5699978976186,623.0977186134924 651.1292528871544,576.3224298363367 656.4993883753515,567.769125715367Z" name="Saint Philip" name_en="Saint Philip" gn_name="Saint Philip" admin="Barbados" adm0_a3="BRB" iso_3166_2="BB-10" iso_a2="BB" postal="PH" type="Parish" type_en="Parish" wikidataid="Q1647436"/><path d="M479.1979963371641,456.4905318771632 571.5717872482369,526.7996122095824 624.8478353598657,557.4940957198186 656.4993883753515,567.769125715367 651.1292528871544,576.3224298363367 612.5699978976186,623.0977186134924 608.0229177180025,627.5523731955864 584.2871476590666,642.4010697114171 559.0963124490917,652.4237941182587 512.0794873127558,714.2280479869573 482.06874483338714,657.9919272590008 475.0662398373907,650.1965334554503 401.22162644825283,582.2622907392094 404.49552620324016,526.0176192165482 405.3140011420827,521.0055397630443 407.0418933828994,514.3227252928754 410.13390841147634,514.3227252928754 411.58897356251543,514.1370892964117 413.13498107668613,513.7658204144306 470.88292594571845,460.1157566907599 479.1979963371641,456.4905318771632Z" name="Saint John" name_en="Saint John" gn_name="Saint John" admin="Barbados" adm0_a3="BRB" iso_3166_2="BB-05" iso_a2="BB" postal="JN" type="Parish" type_en="Parish" wikidataid="Q1626540"/><path d="M401.22162644825283,582.2622907392094 475.0662398373907,650.1965334554503 482.06874483338714,657.9919272590008 512.0794873127558,714.2280479869573 496.61940900461127,772.8730707483865 294.7289673675339,849.1428124557186 236.16255072497776,658.3631344358046 319.1922668366855,625.696269896574 326.28571736110274,621.4272156385653 351.6584341321989,590.9863830751505 398.8571439951807,582.447908920225 401.22162644825283,582.2622907392094Z" name="Saint George" name_en="Saint George" gn_name="Saint George" admin="Barbados" adm0_a3="BRB" iso_3166_2="BB-03" iso_a2="BB" postal="GE" type="Parish" type_en="Parish" wikidataid="Q1647443"/><path d="M229.0691033658497,458.2592916457518 241.61905137185715,462.9004403303216 257.7157198921983,484.0637716671393 307.3698545713543,515.0652591898236 312.2807042040562,519.5204750527533 321.738634016168,530.844037265601 351.6584341321989,590.9863830751505 326.28571736110274,621.4272156385653 319.1922668366855,625.696269896574 236.16255072497776,658.3631344358046 213.15431640686532,684.3472622346256 208.15252441106134,686.574438619739 151.76870866036774,698.081418740221 131.30684152176727,609.7336080557519 108.02578011373008,583.3760089199957 103.47869676900147,580.7773277107424 101.75080769347403,578.9211211588192 102.7511673587564,578.1786387181679 103.47869676900147,576.3224298363367 104.75188035874274,572.9812406104247 105.66130082597661,571.681885410295 106.93448125063479,570.7537761304974 110.57214412810006,569.6400417456176 114.20981333611432,562.5863509716237 119.12066296887508,550.7063222309548 128.39670805451763,510.23875648579656 130.48836658292473,503.92713222350983 137.0361629277869,501.5138483594232 138.67311280532476,500.4000250063864 139.3097061830461,500.21438925700573 140.0372355930556,500.21438925700573 141.40136471139434,500.21438925700573 141.9470125604888,499.8431111775573 142.5836027727148,499.8431111775573 143.4020777115868,499.47183616950156 144.67526130126916,498.7292856760378 148.49480890538038,495.3878005775855 149.04045991958736,495.3878005775855 149.58611093379434,495.2021605231197 150.76835216040402,494.64524335204453 151.31400000929236,494.2739661159204 153.67848562762424,492.7888555795038 154.49696056646675,492.23193685655525 155.31543550533874,492.04629935626707 156.58861592976135,492.04629935626707 157.49803323173546,492.23193685655525 158.0436810808299,492.23193685655525 159.13498310921443,492.41757754750057 159.68063095833833,492.23193685655525 160.59004826031244,491.48938015581905 161.31758083581727,490.746822818434 161.6813502888736,490.56118176937144 162.40888286443735,490.746822818434 162.95453071332565,491.11810156670856 168.13820427048643,486.1058201879153 187.14500625804777,460.67269284326414 229.0691033658497,458.2592916457518Z" name="Saint Thomas" name_en="Saint Thomas" gn_name="Saint Thomas" admin="Barbados" adm0_a3="BRB" iso_3166_2="BB-11" iso_a2="BB" postal="TH" type="Parish" type_en="Parish" wikidataid="Q1647432"/></svg>