<?xml version="1.0"?><svg fill="#3498db" stroke="#ecf0f1" stroke-width="1" width="800" height="648" viewBox="0 0 800 648" xmlns="http://www.w3.org/2000/svg"><path d="M26.60403409057815,224.62397852987726 24.91779218443236,224.5565983962702 21.88682556077194,223.9164697297049 20.37134235219086,223.24262081360146 19.282755784245914,221.3893824848232 17.51113442606578,217.2608998196044 16.57196169270042,216.199108007887 14.074616024736859,214.91811671899802 13.412926097480854,213.805589139546 13.626374521068515,212.30523343310773 15.227236975168188,208.68016453897798 15.462030261776286,206.5553021183732 11.385166796205752,192.22999087040665 12.580477472654307,189.2417319016335 17.34037572849524,184.47955690289825 18.5570312679584,182.52021261205667 17.895341340702398,176.01539564087665 14.650926499964239,171.11381408993108 7.265613604600387,162.91278614623744 5.216509440304955,156.59411292545238 3.146060412995131,142.1366555026605 0,134.61916344181301 4.172375692803634,131.55992338160868 12.00441751090232,128.95727906740547 40.038421436699345,107.71893603008546 82.9801958168632,82.40758060185631 124.543799762522,55.01484537620423 170.83015864344753,40.01079593861093 170.92221212134717,39.98628196672502 172.70942995674514,52.68885823712249 171.85563646892192,60.864918181648854 171.70622284086983,68.54295998599564 174.63046535602655,76.8124751856245 179.64650155496838,82.31445929462093 181.12114684803785,82.99606282177739 181.3755999072737,83.66652773852019 174.54525258666212,87.96768351955119 178.077822659291,96.49835718685944 173.0724589526114,100.04854882714177 178.6861506544184,101.8997519976153 183.49941098897338,110.47346087248313 176.09275318050265,124.5882312118787 167.05321550168622,130.48808840252528 190.4151374003591,147.14950383856697 185.94339454328622,150.3746277027273 192.11205191381444,160.99319773961562 186.71180858898913,169.05155809996523 190.244378847349,173.83549699968273 183.862273099839,176.72541189844603 193.80896605580764,181.709639250237 189.65739567134787,181.63362099298865 192.79508649729317,184.75850006743073 191.36498250149492,186.23625851610234 186.47701520715012,185.51850804043866 188.09922276080388,189.27576476193536 185.32439441718626,192.0107980611037 187.01063624247607,196.5005828132048 191.7918794412013,193.5553667718068 195.0149493579206,194.89724118720088 196.65850173070055,201.0227774198845 191.7918794412013,206.01587029923635 204.57743556964004,217.04206897255204 201.90933113591095,220.39554247931216 206.66922932977897,226.9318384983783 206.15695329931032,229.29802339106166 193.2666737747669,238.87319211017171 184.00301550133503,245.74636905490874 174.64330535895678,255.5417789809818 173.82152926888958,258.02956167934775 171.79376996760865,257.3824413889817 170.58778675638314,257.2899934720262 165.4970436401663,253.54117073265542 165.79375547208426,249.08206814294428 161.39883531157534,242.81071748303282 152.62610797265629,244.1398223494408 144.13086364636237,239.2770880727868 134.91550048157413,244.01770238114227 132.38399720881205,244.92146320704168 128.95251819679294,238.7503909624212 125.45196520642635,235.43464505444746 120.09441181886523,233.80175270040033 103.67843172060577,238.95549228160607 103.50196367025681,237.86248061853746 101.73863858301908,226.9440896544985 98.51695128268801,224.83111877449056 86.49980910301905,229.6984910104555 86.30770554243995,231.14661121455012 90.54117916732326,236.17614866262718 82.74311796304758,239.37806016202123 81.8466351622328,242.39009074852473 75.96613314720082,243.55099296579507 73.03121809728476,240.84208278934133 71.66514872326567,241.24592638070703 66.16885362288197,244.62769208505233 70.36311393828402,258.06317761827194 71.23544831435585,261.1400928975646 54.71518191548661,253.56980543423268 50.89445639301698,250.35819941285374 49.80586982508964,248.35690704338447 47.03104135102827,241.77937214883903 45.85707533105492,239.62549231125362 38.17293476657888,232.26970348180413 36.80686518603809,229.82820654943114 36.16652032831827,227.62210195270865 35.120623279886466,225.73571153035215 32.409829188335024,224.30391916578793 30.44610447609165,224.084927436834 26.60403409057815,224.62397852987726Z" name="West Flanders" name_en="West Flanders" gn_name="Provincie West-Vlaanderen" admin="Belgium" adm0_a3="BEL" iso_3166_2="BE-VWV" iso_a2="BE" type="Province" type_en="Province" wikidataid="Q1113"/><path d="M75.39832711903765,262.2595895043731 72.17525693476885,261.57063932220217 71.23544831435585,261.1400928975646 70.36311393828402,258.06317761827194 66.16885362288197,244.62769208505233 71.66514872326567,241.24592638070703 73.03121809728476,240.84208278934133 75.96613314720082,243.55099296579507 81.8466351622328,242.39009074852473 82.74311796304758,239.37806016202123 90.54117916732326,236.17614866262718 86.30770554243995,231.14661121455012 86.49980910301905,229.6984910104555 98.51695128268801,224.83111877449056 101.73863858301908,226.9440896544985 103.50196367025681,237.86248061853746 103.67843172060577,238.95549228160607 92.85840213829634,242.35144515706534 88.09850388243187,245.3292405085783 84.34181294899386,249.38281271668797 78.13046586705833,260.15903417921135 75.39832711903765,262.2595895043731Z" name="Hainaut" name_en="Hainaut" gn_name="Province du Hainaut" admin="Belgium" adm0_a3="BEL" iso_3166_2="BE-WHT" iso_a2="BE" type="Province" type_en="Province" wikidataid="Q1129"/><path d="M173.32843015798986,329.3745642964511 169.72115305908434,328.35404875157207 160.6922879836038,323.6521006152331 157.98149389205247,321.5098056934054 154.73707905130837,317.3415084642999 153.66983713986207,313.6577243644156 153.34966460774726,303.32161901726977 147.88538690513718,285.0613019819631 146.2204896554666,275.66268427094656 149.10204244460618,270.23904811968094 146.75411061119854,262.4948335720337 145.11055822454247,259.48679512331677 142.3357297504811,258.5792247910325 139.43283209834473,258.1758429825711 137.78927991821033,256.2596320456809 135.24924452422945,250.07231681628193 132.38399720881205,244.92146320704168 134.91550048157413,244.01770238114227 144.13086364636237,239.2770880727868 152.62610797265629,244.1398223494408 161.39883531157534,242.81071748303282 165.79375547208426,249.08206814294428 165.4970436401663,253.54117073265542 170.58778675638314,257.2899934720262 171.79376996760865,257.3824413889817 173.82152926888958,258.02956167934775 174.64330535895678,255.5417789809818 184.00301550133503,245.74636905490874 193.2666737747669,238.87319211017171 200.81207312809707,242.0115163805857 209.03918357148234,239.55515552764794 210.39528197237132,249.80353216338293 224.04592626038823,250.0436758341154 229.83037649511894,254.0623628337329 238.22956904112314,237.76242306148214 244.15276078217246,234.44646092697306 246.32993391801529,238.83111893272672 255.26240768793903,235.027372464874 258.74032875844335,245.236938474787 267.0130789150152,244.28282010968383 269.76656273259556,247.01634587328732 281.4100267917754,244.45108309824536 283.596196494223,250.05582828016756 282.1465671704143,255.4577248575137 283.1382025465269,259.0851371119008 286.0633442666578,262.90308898072175 290.46038047089417,264.4824481203919 302.9791262084978,264.8352611519883 307.14136912611445,261.5000098310798 311.0688185506131,262.7854705685134 315.914096258512,260.24805124341947 317.36554508457726,262.4662160417462 320.3004597214498,256.9706229244745 325.8821342738796,258.85312992148744 328.5055477203873,258.9324377881504 324.7381844516504,260.04165729212815 323.9164080795294,264.22570819298124 324.1512014613685,276.23374274355365 326.16828844743696,281.9573073839386 329.7862377965709,283.48434537430984 334.5781533119996,282.7544067928572 341.0776556575753,273.81610544622487 343.35088065887817,272.909392233016 347.34236462130025,278.16421842131115 346.29646774123677,284.9608955728083 357.3210750845607,287.7458151830324 356.1897989279922,294.5214384540371 362.892076962396,295.92146891107666 368.0895444126622,303.9921817995744 374.18349482338874,303.3805334275245 373.60718414981045,311.6315242537897 378.7726342785158,305.8521123868205 390.48027639106107,304.5954272444301 392.6361046085789,306.84063108104397 401.9531251217557,306.7736152174506 402.9456600468867,308.4405554282355 402.36934937329653,316.43765097533947 409.1783518747938,312.88762722312816 408.9328861762511,315.901851553057 411.96385290657685,317.2664285740971 424.39721905511067,311.99999166861824 420.71523506286707,327.9695080344164 428.1218928713378,326.1122812967161 426.5103578201069,329.10715616524345 429.06106565578193,332.59485676463754 426.3075819455479,340.16133779730274 423.51140859707306,340.6544917415395 425.5071505782841,342.9361650209683 423.5540982353255,344.9083248266555 432.49758413521397,350.2719755480853 429.42392776663587,357.0281542798065 426.1261508901151,358.02170289828075 430.40579037506336,363.02185871810434 425.3897541659611,371.32400130228734 426.69178887553966,383.43951429863023 412.73226676654883,385.71478945182037 408.9542309953774,380.87212957762137 403.2124703788128,381.40564785719306 398.99686553697427,388.6813050206315 387.5453616254059,387.0731249530985 385.8591194286424,393.0966777247879 382.1451183005808,392.9134235066065 379.4770138668517,397.76058936102055 372.55061476731225,398.2269020643072 364.3435257773086,404.2377300509049 367.7480269351918,408.86495454172723 375.2827538441393,413.31608554204496 376.8729440762324,413.2328986451237 380.69366948565624,408.8233490217289 385.0480159304179,409.7802461369353 388.0042753294682,412.04327771024913 385.50692963448034,422.35579135772446 387.1824993288093,426.96921821441197 379.6477726055927,432.7610451708572 387.5560339420977,446.5545339222008 384.8665846892542,452.04023522837747 385.0373434279835,464.89612123992015 385.94449889087844,470.13490636988683 389.2849655913827,471.3034418194767 390.9391902808545,487.9764274317622 396.9797785509059,500.2562782290197 394.20495020728833,507.03742244415145 393.61796703127544,508.35195558389694 393.60380946331657,508.3836599282599 362.6144273089053,499.8755249427138 349.88132326914126,501.7145548616725 346.81924953928194,502.1583506312406 344.044420858699,501.3643628229935 332.4755201826982,495.12682031470206 332.6201500980111,495.1399265437131 334.1190725693426,495.2757567825803 333.8629346262593,490.57528680102934 332.73165833232076,485.67467021908334 331.7497958729382,485.2606952454578 332.60358936077904,481.484724569203 333.64948620267154,479.0828553127406 335.1436247547599,477.24392844627465 338.92166055123585,473.7145582866916 343.7029034635754,470.3004029953764 348.6549052800073,467.83046605849614 348.71893986902126,465.7249032309572 347.2888359059646,463.17131229005173 346.0508355034871,460.1528826511983 342.5716273761349,446.2969543280193 340.5225232118632,445.25102756620686 338.3026603499796,445.59967744831505 334.1831071583918,447.4756116300692 331.25886464323514,445.9981253189262 331.7497958729382,440.18640120723455 335.71993522996377,427.2930930389152 336.82986666091153,421.44099336029905 337.7690393942769,418.8134694695568 339.9675573931284,415.6698246210655 344.83417975751405,411.85999090142457 346.8619390587892,409.5303664244249 347.3528702884922,406.1684251090653 346.09352502299436,404.07099712009756 343.53214497252657,401.8234329243595 340.7573164984477,400.0750988528615 338.9003156882214,399.40901385815846 336.3175907747334,400.50803828333244 336.2108664596668,402.5726575525225 336.4670044027676,404.78681850849034 334.9515211941866,406.28494009589184 331.15214053469623,404.50382321022823 325.49575927151295,392.3633875175238 321.22679224536915,388.54773039165644 316.82975624765436,385.99787258120267 309.97806410148314,378.3957675645719 305.9652352249444,376.4779711897835 301.58954388373417,376.94493507991285 288.462470479645,382.4807032335186 283.78795167585014,382.53071565335426 280.09529512489866,380.7634961270982 276.55205261504256,378.2790390424824 272.2830855888811,376.11106077089573 263.70246181054694,375.0603144231877 254.6949413915415,375.74414152047837 251.89876805446565,376.7781639962691 250.23387080480683,378.67924730517734 246.5198695973801,384.9978123671934 245.62338659004365,387.6811597988474 245.0684207713149,388.6477159271599 244.12924824448288,389.2976075442009 243.78773064281438,388.9976611072444 243.4889029737022,389.18096212187913 242.67779941841766,391.2637762256982 235.42055549458965,384.46441988767754 233.60624441037467,371.2736908348464 233.58489954737777,356.2012787383564 231.83462305217694,343.70474242623163 228.48348410289404,337.6031071773152 224.38527556778158,333.67336259126944 219.8601705985427,331.41539068365597 215.1856515882086,330.4284678815589 201.8451299670711,330.34482747903263 199.28374971008165,328.43770042384165 201.29016414834237,324.84027438491034 201.61033668046883,322.22951693892765 200.26561196294256,320.53897939077297 197.29868013481786,319.6350503727869 194.35309275664676,319.8694074279416 192.2399540033197,321.25873593398654 190.19084983902428,323.3173868439197 187.3946765019484,325.4761605488808 178.34446635693158,328.7723012180774 173.32843015798986,329.3745642964511Z" name="Hainaut" name_en="Hainaut" gn_name="Province du Hainaut" admin="Belgium" adm0_a3="BEL" iso_3166_2="BE-WHT" iso_a2="BE" type="Province" type_en="Province" wikidataid="Q1129"/><path d="M476.9800535947656,441.09981849557795 474.6534664178509,440.1199689695278 473.7142938910071,435.3360722370133 468.1432918733482,437.89431428080024 446.1154221587985,460.20264203673935 444.9201112758283,462.72356079957973 444.3651456636152,465.8907059803866 444.85607689331823,467.8138877731398 445.62449092911305,469.4218805318889 445.8379393527008,471.62637892481257 444.25842134857226,481.8656761165625 442.8069725225012,486.94964387247705 440.9072823992834,490.6083937873119 438.6660746744029,492.0815801763755 430.0641060330485,493.45532317976733 401.26992383091897,507.73164868020626 395.14395599452536,508.80638406952664 393.60380946331657,508.3836599282599 393.61796703127544,508.35195558389694 394.20495020728833,507.03742244415145 396.9797785509059,500.2562782290197 390.9391902808545,487.9764274317622 389.2849655913827,471.3034418194767 385.94449889087844,470.13490636988683 385.0373434279835,464.89612123992015 384.8665846892542,452.04023522837747 387.5560339420977,446.5545339222008 379.6477726055927,432.7610451708572 387.1824993288093,426.96921821441197 385.50692963448034,422.35579135772446 388.0042753294682,412.04327771024913 385.0480159304179,409.7802461369353 380.69366948565624,408.8233490217289 376.8729440762324,413.2328986451237 375.2827538441393,413.31608554204496 367.7480269351918,408.86495454172723 364.3435257773086,404.2377300509049 372.55061476731225,398.2269020643072 379.4770138668517,397.76058936102055 382.1451183005808,392.9134235066065 385.8591194286424,393.0966777247879 387.5453616254059,387.0731249530985 398.99686553697427,388.6813050206315 403.2124703788128,381.40564785719306 408.9542309953774,380.87212957762137 412.73226676654883,385.71478945182037 426.69178887553966,383.43951429863023 425.3897541659611,371.32400130228734 430.40579037506336,363.02185871810434 426.1261508901151,358.02170289828075 429.42392776663587,357.0281542798065 432.49758413521397,350.2719755480853 423.5540982353255,344.9083248266555 425.5071505782841,342.9361650209683 423.51140859707306,340.6544917415395 426.3075819455479,340.16133779730274 429.06106565578193,332.59485676463754 426.5103578201069,329.10715616524345 428.1218928713378,326.1122812967161 420.71523506286707,327.9695080344164 424.39721905511067,311.99999166861824 423.66082251668774,306.4887928238191 427.1613752677676,303.73244365368555 430.81134212418146,303.2297121810211 438.32472421400297,305.9023774327958 442.95655330739413,304.8635288066286 440.5659317080256,294.76456665667087 442.8498292117628,290.8992039195593 444.84557119297386,290.8824324655822 450.61934913109917,294.9322389615801 451.5585219155433,291.35203055405736 456.89473059725873,289.8677155568877 458.20743799499115,296.39091123969456 466.52125126634513,293.12966358591734 468.83716590590046,296.5837135150235 468.03673435290574,292.80266156210854 469.10397605210727,291.81322876203245 491.2385702010031,285.96755181194777 491.45201857799657,283.9709516970369 496.9269686768922,284.44915299622306 501.6548497349306,278.0802897251748 508.2077140354623,279.5741495592345 507.49266194469186,287.39353440695953 517.5354068653312,296.91901641034053 522.828926094525,312.4856855069956 518.944166042003,315.4162671347852 530.4703769133728,316.0525471127908 533.5653779153345,323.6858328476941 536.3935687711012,324.2046236490621 541.3028806988528,321.8950330581922 538.5067075360973,324.5895211239533 539.9474836628563,329.70940630255257 544.0350195899492,329.10715616524345 542.9997952123082,331.9341787070581 545.2836925303144,335.79748406503035 552.2741259015017,332.98790498947 556.7458687585745,337.5030472730299 560.5665943537294,346.111551060133 557.3435244370102,352.46033696800686 559.8835595845197,356.619027443348 570.1290803797181,359.39920523657537 569.894287369341,365.3752872396263 572.7544951751944,369.33857332006494 584.0779301720053,361.728152689955 592.8506573331646,364.7243750889362 594.664968258943,368.88806234258016 590.3319668190502,374.6769513373552 593.2668817704365,378.5127555123834 582.0394983668107,386.873132346394 583.6296885989154,388.5479906753513 586.2017412537049,384.83972384256737 590.9829842666993,384.50635197531034 593.1067953483989,389.6477976551895 592.9040194738398,394.5376456399321 587.2262933146541,400.45834451528384 572.626426260437,409.8800927620262 570.4599255404966,407.0508498278113 568.1973728558856,407.2755444929668 563.5868883958897,410.39595702336374 564.1098371145239,414.18951972949145 558.1653004376692,413.8068783718899 554.3232300233882,416.4934826668304 562.2741811838882,420.9091331037742 560.0329733184036,424.10157649127643 562.5196466966997,424.11820189745026 562.2101467265096,427.40139581536863 569.542097575167,435.9344005719418 567.6210623680266,441.7311343032903 561.7405603342934,443.6241474601462 567.0020622419264,448.5216453060377 565.956165176132,451.95725886076883 560.4171804341265,451.40960406425154 554.8248339228959,455.34232594912976 550.4277976541625,456.2548381260561 531.0787049085119,457.6069156222679 526.6923411422014,456.08063547023 525.4863580258312,447.0857618942714 522.4447189788136,459.4316160184904 524.2376852711968,461.26439120783544 522.0605118630909,466.68679349515554 515.3155440047036,473.7065313137815 513.3198020234923,474.3942427267888 511.43078413790084,472.4221683950344 509.97933532298805,477.3932979112527 506.0625579489054,477.2938909231759 511.0892666604305,482.19718934320036 513.7573710941596,492.65286747058764 515.9452168189689,493.7534858437798 524.7286162968082,491.99080357653594 526.6283064990915,496.31025638723946 532.6582226381822,499.42910389931063 531.8898085924676,506.55787901282423 536.361551449552,511.0302785501075 525.9986340562999,515.154311814803 520.7371321486548,520.1281229785158 524.1843229447906,523.5642333669911 508.69864524680474,534.6932698698033 507.8128344173049,537.482520144149 509.5737835738699,543.6038904035341 506.90567914015264,544.3791997219151 505.97717867240044,549.821760102116 505.3048165913561,551.9322950615933 505.2753521490168,552.0247759412457 501.48392411426465,552.2123209776773 492.519093421288,555.3775223197601 487.8872641369652,556.1192718576136 482.48702102341036,555.3445547929663 480.6300204196823,552.9212509204891 480.67270993919544,540.98048696994 480.160433846478,539.0829638511842 478.13267454519706,535.7328506926117 477.7057781110709,534.131799573821 478.08998502570745,532.1839040211995 479.9256407663975,530.0376312419717 480.608675556668,528.3699353602291 481.71860698760986,524.4559168038897 482.76450382950213,521.779937285933 483.29812478522246,519.0208772112834 482.93526273360044,514.8565654129658 479.7121925493315,508.97172119135047 469.93625788802115,504.9535218297658 467.1827742769626,500.47107757653635 468.0792574908266,495.35849856810205 476.0195359983975,475.57047896217625 476.2116395589709,472.14016366665464 475.891467026856,469.47160914717256 476.1262601069187,466.57047898727296 480.0110202184436,458.02967450363076 481.27036548394153,457.73107464004903 483.4902283457898,460.1528826511983 483.9598147124784,454.5290551127116 485.0697461434203,447.8906098873362 485.34722894951204,442.2622708097464 483.44753861977847,439.7545850554895 476.9800535947656,441.09981849557795Z" name="Namur" name_en="Namur" gn_name="Province de Namur" admin="Belgium" adm0_a3="BEL" iso_3166_2="BE-WNA" iso_a2="BE" type="Province" type_en="Province" wikidataid="Q1125"/><path d="M551.5589072711955,588.4083631784124 546.7990090153545,587.0101891046935 543.0423180818929,584.2134607246766 539.9686619387019,581.2352086004789 531.1745897367801,568.492968898521 528.7199335883059,566.1376260594045 521.3559657625018,564.0125671697369 517.2364123643573,561.6730148679472 509.5522717998988,554.0752526595269 505.8169257294577,551.9979867989308 505.2753521490168,552.0247759412457 505.3048165913561,551.9322950615933 505.97717867240044,549.821760102116 506.90567914015264,544.3791997219151 509.5737835738699,543.6038904035341 507.8128344173049,537.482520144149 508.69864524680474,534.6932698698033 524.1843229447906,523.5642333669911 520.7371321486548,520.1281229785158 525.9986340562999,515.154311814803 536.361551449552,511.0302785501075 531.8898085924676,506.55787901282423 532.6582226381822,499.42910389931063 526.6283064990915,496.31025638723946 524.7286162968082,491.99080357653594 515.9452168189689,493.7534858437798 513.7573710941596,492.65286747058764 511.0892666604305,482.19718934320036 506.0625579489054,477.2938909231759 509.97933532298805,477.3932979112527 511.43078413790084,472.4221683950344 513.3198020234923,474.3942427267888 515.3155440047036,473.7065313137815 522.0605118630909,466.68679349515554 524.2376852711968,461.26439120783544 522.4447189788136,459.4316160184904 525.4863580258312,447.0857618942714 526.6923411422014,456.08063547023 531.0787049085119,457.6069156222679 550.4277976541625,456.2548381260561 554.8248339228959,455.34232594912976 560.4171804341265,451.40960406425154 565.956165176132,451.95725886076883 567.0020622419264,448.5216453060377 561.7405603342934,443.6241474601462 567.6210623680266,441.7311343032903 569.542097575167,435.9344005719418 562.2101467265096,427.40139581536863 562.5196466966997,424.11820189745026 560.0329733184036,424.10157649127643 562.2741811838882,420.9091331037742 554.3232300233882,416.4934826668304 558.1653004376692,413.8068783718899 564.1098371145239,414.18951972949145 563.5868883958897,410.39595702336374 568.1973728558856,407.2755444929668 570.4599255404966,407.0508498278113 572.626426260437,409.8800927620262 587.2262933146541,400.45834451528384 592.9040194738398,394.5376456399321 593.1067953483989,389.6477976551895 590.9829842666993,384.50635197531034 586.2017412537049,384.83972384256737 583.6296885989154,388.5479906753513 582.0394983668107,386.873132346394 593.2668817704365,378.5127555123834 590.3319668190502,374.6769513373552 594.664968258943,368.88806234258016 592.8506573331646,364.7243750889362 599.7343667944633,358.22207472791445 595.5934687266953,350.85668306090776 596.8528139837524,348.61796692080145 599.5956251915401,348.467593563717 608.560455910555,355.48343347881865 616.8529243627829,350.02137949135044 618.7419424341055,356.38523578688137 622.2318228684818,357.08660028119994 621.5914777375245,359.99191002173006 622.7334263965278,361.0270015925543 626.1592725592682,361.5528680135674 633.181723066285,358.22207472791445 644.3664166459273,368.67114482429787 651.2181087856653,368.23730052437253 650.2362463629687,372.0914082063336 660.6631983993307,372.1247725318331 657.0772660002838,380.1635221572237 657.3013866939691,383.7145657409729 660.6311810777698,389.36452141073516 666.2021829556052,390.7475250495479 660.6525258968961,402.58956704524104 673.0752199144692,400.67481035150695 676.4583762532261,401.74044370515986 677.8351181083374,404.8370181386568 679.1798428276303,401.6904936997925 692.2642266095443,399.87553657213266 693.6089511431064,396.71133359740827 686.4157418973602,395.66200567240446 691.0262261716133,384.41467366621464 687.2055007621894,381.16389989021786 689.0198116879677,375.2440436710487 714.0573030952388,380.730410728163 714.4201653918352,383.49785880910605 721.0157193306078,386.89813149314233 719.8737706716164,416.8677399219502 720.7915986369342,420.435197603639 725.3167036346825,421.34148218278057 722.4351510097024,424.60864801336436 723.299616834345,428.0911924715574 723.4810478897779,428.8141991765256 723.0754961406597,438.6918604020827 723.0745418523086,438.71509427030367 721.2503459930147,437.8278717597072 719.9910005210068,435.4689783344776 719.3079659372581,432.3952256996593 717.9845860827285,430.94951733482225 714.8042056245121,433.49187848289137 710.4071696267973,433.9571017048292 708.6568931316141,436.9308707415085 707.803099850295,441.33231628681517 706.1595474636506,445.948320023369 703.0858913204653,449.1521362707002 695.4017505494793,452.91949674959716 691.9865770111647,456.03889939951137 691.2395078383669,458.0794404739667 690.8339558542116,463.2873938356019 690.3216797614883,465.47619573875596 689.0623344960081,467.29995779515474 686.0527127353505,469.91916326392135 684.8147123328671,471.90813394163234 685.0495056194693,475.62018792932236 685.0495056194693,478.6355693193319 684.5372295267692,481.1700184010318 683.0430911811909,482.7600467057456 678.859503400554,484.6148714966115 677.5788132720593,486.32044928731636 677.3440201919788,490.74082069672824 678.7954690180499,492.52847403908896 679.6279174363547,494.2993692041461 677.3653648484714,498.7008954742987 675.6577780793054,500.3056484326423 672.6054667991345,501.0169806042277 671.1540179730812,501.99294001597235 669.5318104494394,504.14314009025173 668.7633964136447,505.8134721590348 668.272465390481,507.43401625123767 667.4400165591094,509.46772218056356 660.2894969503535,521.8790560917872 659.4570483255211,524.9183847720723 661.8903596109806,526.0910079815587 666.4581543062485,529.5753178397313 668.3791892924804,532.4810566786568 662.9576013158878,531.9197638512915 662.9789461789021,533.7686511947529 662.6801185097901,534.7260237302322 662.2959113886318,535.4687712626629 661.9330491304879,536.6240850342682 663.9181189122734,538.472406577962 661.4634627638053,540.1225054337871 660.5456350999763,543.1747210852383 660.8444627690881,546.9850146586193 662.1038078280584,550.992225634797 664.2809811704174,554.6192522642257 666.3727748542199,555.6412593499701 668.5926377160683,556.0203738391181 671.2180525621128,557.6356262110222 672.584121936132,559.6626929333337 677.4507443005177,569.2834922427526 677.7709168326325,570.7820815363496 678.2191583363185,575.227586481089 678.1337788842663,575.9683788934932 679.4571589453059,577.0383495678017 682.3387115279,577.9107321630441 683.5767119303837,578.6020193273891 684.7293330873424,578.8159825872698 686.0527127353505,578.3715935122251 687.3974374528767,578.4703481741778 688.5927481293253,580.3630145312076 688.6751302747006,581.0861138800635 688.8702311419448,582.798451512979 688.1018168996223,584.11474355971 687.0986097837647,585.2499546290456 686.7784372516381,587.0101891046935 686.6717131430931,589.082730718948 686.0527127353505,590.102450308036 685.7538850662381,591.2372200805783 686.4796095825258,593.5722799172744 687.8883686825623,594.6410271838698 692.0292665306602,595.117829111784 693.5234050827428,596.3837482954287 694.6760262397017,600.9040390431429 693.5234050827428,603.6648726825813 691.474300918465,605.5708738366452 689.8307485318087,607.5094951336432 687.1839892358108,614.8346237935408 685.5404368491547,618.0198037690915 683.2138498787673,620.2194921541585 686.7144026626063,622.1398586764691 684.7506779503569,627.0955969198353 680.012124557513,632.1645552044247 675.1028124670922,634.509819554765 672.6908462511807,633.9194370613717 668.1657410754203,631.1312136140157 665.9458782135486,630.8031540461543 663.7260155582103,631.9841353816092 661.0579109861484,635.5101388008602 658.4965309356805,636.6251719575235 654.035460348946,635.8544958936611 649.595734625214,633.6570374810445 644.9425604779119,632.59099340717 639.798455307411,635.2149696850641 637.3437993654644,638.5762864233654 636.8742129987818,640.8550065804241 636.1911782085054,642.1335655288918 633.1388669283349,642.5433373550472 631.3672455701548,642.068000899757 624.8997605451476,639.0517308029764 621.0150004336227,640.7894365168735 615.8282055371106,644.8706365157127 610.4688987089324,648 606.0095815628146,646.8207081315586 604.7288914343143,644.0020377959237 604.9423396513978,641.1664604174277 605.6040295786538,638.182804369991 605.6467190981433,634.8705979944652 604.7929258168417,631.9677336191254 594.846232664465,613.9643312155372 592.5925748537567,611.9414417523759 591.0041624855024,610.5155187810046 584.6007118429997,608.1665997481094 582.2527800095919,606.7537903908802 580.9720898810914,606.5402151462333 580.2036758452965,607.3944993094248 579.3285377009569,609.1357773957377 578.2399509265255,610.7454636110501 576.7671574439677,611.2053429742191 573.3306390426326,610.5319433893458 572.3274317202474,609.2836127526789 571.836500697072,606.3594950737042 572.4768455547858,601.8572399831888 574.1417428044622,600.7889935652017 575.0809155378337,599.6384911874349 573.6508115747592,594.8712091810705 569.6593273547131,589.9708772191605 565.3476706025405,585.6941450655903 560.8866002223157,585.8093034206131 551.5589072711955,588.4083631784124Z" name="Luxembourg" name_en="Luxembourg District" gn_name="Province du Luxembourg" admin="Belgium" adm0_a3="BEL" iso_3166_2="BE-WLX" iso_a2="BE" type="Province" type_en="Province" wikidataid="Q2032"/><path d="M726.3090717114638,439.48884590187384 723.9824847410764,439.15666570446405 723.0745418523086,438.71509427030367 723.0754961406597,438.6918604020827 723.4810478897779,428.8141991765256 723.299616834345,428.0911924715574 722.4351510097024,424.60864801336436 725.3167036346825,421.34148218278057 720.7915986369342,420.435197603639 719.8737706716164,416.8677399219502 721.0157193306078,386.89813149314233 714.4201653918352,383.49785880910605 714.0573030952388,380.730410728163 689.0198116879677,375.2440436710487 687.2055007621894,381.16389989021786 691.0262261716133,384.41467366621464 686.4157418973602,395.66200567240446 693.6089511431064,396.71133359740827 692.2642266095443,399.87553657213266 679.1798428276303,401.6904936997925 677.8351181083374,404.8370181386568 676.4583762532261,401.74044370515986 673.0752199144692,400.67481035150695 660.6525258968961,402.58956704524104 666.2021829556052,390.7475250495479 660.6311810777698,389.36452141073516 657.3013866939691,383.7145657409729 657.0772660002838,380.1635221572237 660.6631983993307,372.1247725318331 650.2362463629687,372.0914082063336 651.2181087856653,368.23730052437253 644.3664166459273,368.67114482429787 633.181723066285,358.22207472791445 626.1592725592682,361.5528680135674 622.7334263965278,361.0270015925543 621.5914777375245,359.99191002173006 622.2318228684818,357.08660028119994 618.7419424341055,356.38523578688137 616.8529243627829,350.02137949135044 608.560455910555,355.48343347881865 599.5956251915401,348.467593563717 596.8528139837524,348.61796692080145 595.5934687266953,350.85668306090776 599.7343667944633,358.22207472791445 592.8506573331646,364.7243750889362 584.0779301720053,361.728152689955 572.7544951751944,369.33857332006494 569.894287369341,365.3752872396263 570.1290803797181,359.39920523657537 559.8835595845197,356.619027443348 557.3435244370102,352.46033696800686 560.5665943537294,346.111551060133 556.7458687585745,337.5030472730299 552.2741259015017,332.98790498947 545.2836925303144,335.79748406503035 542.9997952123082,331.9341787070581 544.0350195899492,329.10715616524345 539.9474836628563,329.70940630255257 538.5067075360973,324.5895211239533 541.3028806988528,321.8950330581922 536.3935687711012,324.2046236490621 533.5653779153345,323.6858328476941 530.4703769133728,316.0525471127908 518.944166042003,315.4162671347852 522.828926094525,312.4856855069956 517.5354068653312,296.91901641034053 507.49266194469186,287.39353440695953 508.2077140354623,279.5741495592345 512.1778533644894,272.17054900179517 511.96440480177654,262.53710382608557 515.2301647281985,260.2097135997033 510.1500940617173,252.93116407960875 515.0807509943265,250.27437932828823 515.7527906280345,244.27255945188878 520.8011015535061,247.23379496205973 520.6964435099093,253.003147002956 524.1009447199862,257.4076541820125 527.2386356587247,258.9203580741136 532.6876675616735,257.99672107312364 546.4489871731727,262.0629375956471 549.0723863460983,258.8400173625388 546.7905043617801,253.50754476817067 559.0851295540745,255.07107145021007 560.5792183339106,251.98599636789825 562.0714781382229,255.67989637319917 568.7223225025563,251.59074411874056 575.2858593078587,255.18874970267427 576.2997387519716,251.5066684160113 580.3979472870842,247.8405118480124 589.9177435922677,244.62769208505233 592.7137802105342,245.83882846587028 595.2627576756639,252.22502781980407 600.8142818062357,254.38179463524853 605.414093899283,253.92786347678958 607.0469737511623,248.16848446737032 611.1131648885012,252.58280298545463 614.4109417835115,251.78411659594084 619.9926163359531,246.93224447279454 619.5977368865397,241.63293255600982 637.4740362182205,236.29810285510598 647.5829939473233,226.12580310234884 648.784630863402,226.9652602151557 653.245701243609,229.10410056783775 656.468771427878,230.06395445536057 656.1059093762559,233.90276128289744 653.9714257599144,241.37554277218695 657.7281166933582,243.529174251787 659.9693244182445,243.98341654661706 662.1251526910613,243.54599815061002 663.143450713679,242.01988000945911 663.6641486438593,242.82754250495103 666.7591498565806,245.92299485095052 672.0633411898636,244.50993182878358 680.8040513375306,256.0965226248026 688.2107090958973,255.0374488781378 693.1733832405725,257.5925483431543 694.9770217900223,256.8277447832397 699.7768330582725,249.46835099920784 695.87967139403,244.4959005438186 698.1338895040275,245.21148570256594 713.1179637183428,245.69932127245798 717.2802066359831,244.9255060295359 716.9386890343145,245.53110371554075 716.8106202693002,246.1198561839082 716.831964925793,246.70858578599905 717.1307925949053,247.3141125667655 720.5673112027383,249.1137294472496 720.6740353112831,252.24152743014994 719.9056212754825,255.67127320188766 720.7167248307727,258.3943426583987 723.4488637853561,258.7136832265676 731.6239355795175,256.46135010197065 735.0604541873743,256.780731049172 739.0305935444057,260.7472189541053 751.6027011297545,279.95991704907277 748.8492175186959,281.72210247734745 751.2611839411527,286.38671019097865 755.5088061042994,288.61783257885844 769.7671558023096,288.97008504645856 770.2367421689922,290.9157134719358 768.7852933429212,293.80015204976286 766.4373617160412,296.650512794106 766.4373617160412,297.82403548538775 761.8268770882111,300.5730760610482 755.3167025437263,305.9858907415934 751.51732188423,311.9494848837084 754.9538404920866,316.28669791777276 753.3316327619408,318.78129050859695 753.6091157745602,320.25441479552563 755.2740128176914,320.9574464920309 757.6859792401306,321.1415685629516 756.0424268534922,323.93660131879454 757.7073241031453,325.4761605488808 759.4789454613252,329.17381290997787 761.1224978479873,330.49538000200903 763.171601805755,330.5957473071557 770.1513629234681,328.43770042384165 770.5996044271362,327.9859772884325 771.1118805198537,327.8186691631908 771.5814668865188,327.9859772884325 772.0510532532072,328.43770042384165 775.2100888484446,329.9433470163304 784.1535746784007,332.000822973235 787.9102656118388,332.2182636536856 785.6050235044661,334.4761164251862 785.0927474117661,337.0680529466863 785.6904027499903,339.97718479962543 786.821679043935,343.25347227478915 788.5933004021326,346.1781328933626 790.0660940912006,346.4622127497394 790.8558529899924,347.5650613695649 790.7064389489321,352.9611829450654 789.2336454663682,360.5759839038288 787.8035415033175,364.8993623334316 788.0810243094152,368.7209423425117 795.2528889877128,381.1969840142445 795.4473423770495,383.24731972768086 795.6797856283666,385.69786124167507 793.097060508357,388.4477438781932 787.6114379427264,389.4475785507826 784.8366094686711,388.9476692459828 782.4886774287418,388.0311268336979 780.1834353213516,387.83114670031046 777.3872619842757,389.4475785507826 775.3381578199802,391.94687740971875 773.9720884459612,395.0454396193525 773.5451918052898,398.29325704317546 774.4630194691366,401.19072571778463 770.6636390161678,404.620351226691 761.7841875687217,407.11716662268697 757.4938756795397,409.1476087316133 755.4661163782646,412.27595790309624 750.7915975744698,415.58665068081797 748.65711416465,418.3810485436296 751.4105977757085,421.44099336029905 752.5632187261458,425.0988183652208 752.4351499611084,428.72252698437364 751.1971493521033,431.76378356765923 749.6603212805077,432.7607855859475 745.5407680889259,433.0931048164193 743.7691467307222,434.1897075229041 743.3849396095817,435.2530049774964 742.7019050258328,438.8576970977048 742.253663522147,440.4355205718923 744.3454572059499,442.12942344327405 745.0711817222374,444.1054061754771 744.473526384013,446.2637513574751 742.5951809172765,448.47158884884516 739.5215245675813,447.0938027079597 739.0519382008985,444.55370298737245 739.2867314875007,441.51499016024036 738.3902482736427,438.5587226435456 735.72214411463,435.9839789881447 734.1212812474813,436.1999420162132 732.797901599491,437.6285427849161 731.0049355848006,438.74142998497985 726.3090717114638,439.48884590187384Z" name="Liege" name_en="Liège" gn_name="Province de Liege" admin="Belgium" adm0_a3="BEL" iso_3166_2="BE-WLG" iso_a2="BE" type="Province" type_en="Province" wikidataid="Q1127"/><path d="M181.12114684803785,82.99606282177739 185.90053815638765,85.20495917519364 192.4960921529422,85.97849856915627 202.27202660772485,84.44838173653852 202.86968194594914,81.33666461041098 202.33606119677418,77.16969715109548 202.7202681114107,73.36739607625718 204.98282049274866,71.03620401493696 208.0137873229718,70.27891400611648 211.32223654621998,70.08320403369464 219.5399980664161,68.23659428889775 224.64141371740408,67.93873302519428 229.9135880659508,68.79826007799264 255.16452775822424,77.1952128224201 259.07063273276935,79.76355734373121 260.1378744376764,84.07432969942303 259.79635704254696,87.72944160727175 260.1378744376764,91.16273840568644 263.2115305808617,94.81613071311045 265.7729108378569,95.94595368003039 290.21274697482835,95.64014516362532 294.84457605261184,94.1534878229788 304.2576484557725,86.76899829043204 329.8501057497204,73.87782792052552 340.0956263646701,65.81949127756768 348.2280086393359,54.70773654404225 349.38062958976735,51.42798708048247 350.9174576613629,43.74972349847542 351.02689631982645,42.36942104980933 351.16880445685536,42.454336472156626 355.0680183489391,46.132324017566766 356.71510002224994,49.40685517787833 358.1773054383046,55.41725224918149 361.5891175938734,59.574826855048265 365.33706884960054,62.846431961996544 367.85811251371257,66.07711416777506 368.6144254890332,68.16797424455794 368.9169507617702,70.17814284502019 368.36232116392637,72.49620372284063 366.9620685079414,74.80927100447401 366.21119902950505,75.36675421491705 364.88781912933814,78.66680259869102 369.27418270990603,92.79439527289242 367.47054428656213,93.94985764525933 372.4759078074989,101.1694877913217 373.56449451155777,105.31284231544377 374.0660982253347,107.65571029167073 373.1375977575824,114.8518105856754 370.5442002836667,119.97524039554162 362.32643879124026,122.67197620090148 353.95926356493015,122.67197620090148 349.8610551354146,123.46903196650527 346.1683988264792,126.06341188960957 343.56432885012885,129.1320037276808 342.8706217642275,130.57284003407244 343.148104598588,131.96269248539718 343.4042426138224,134.89452253102968 344.0125704232305,137.94437694177836 345.2078812229089,141.65420171853177 345.84822635386604,145.44778288385277 344.8130017904943,148.6902000148515 344.3434153982663,148.93568094529468 346.8514334099579,151.11944029211986 349.12465859699154,152.1434974626438 353.1695045143698,148.8002440194839 354.91978116850044,150.83167622786863 350.11719333637996,166.53219686908636 345.3786399616382,168.69650589675663 338.68703405820685,166.38000720010606 335.53867091556987,172.92277757786562 338.4735856812251,182.05593954572802 338.3668615855937,186.21937052962892 333.5856185725995,189.59656578468835 324.1298566422423,185.59450676594943 325.965512387147,191.90950913414596 320.4905622882512,195.97740550223415 323.4788391945933,198.62685740409148 323.27606332003427,202.06876446517052 313.62819783180964,216.081389426625 318.91104455858084,217.06734939072587 320.74670030348545,221.86140084234248 317.74775108045156,231.01559139807017 311.5577487050661,236.2765366927027 308.03585094912904,237.69036746099002 305.1329535050229,234.980409595211 301.600383246663,239.41539876494974 296.25350206251306,235.20766047185208 293.7134665435416,236.64683844052405 291.06670711466967,242.43583437987695 295.37836392117885,248.32353262838805 295.0902085843837,250.07257936260567 288.40927499764405,251.7877946316711 283.596196494223,250.05582828016756 281.4100267917754,244.45108309824536 269.76656273259556,247.01634587328732 267.0130789150152,244.28282010968383 258.74032875844335,245.236938474787 255.26240768793903,235.027372464874 246.32993391801529,238.83111893272672 244.15276078217246,234.44646092697306 238.22956904112314,237.76242306148214 229.83037649511894,254.0623628337329 224.04592626038823,250.0436758341154 210.39528197237132,249.80353216338293 209.03918357148234,239.55515552764794 200.81207312809707,242.0115163805857 193.2666737747669,238.87319211017171 206.15695329931032,229.29802339106166 206.66922932977897,226.9318384983783 201.90933113591095,220.39554247931216 204.57743556964004,217.04206897255204 191.7918794412013,206.01587029923635 196.65850173070055,201.0227774198845 195.0149493579206,194.89724118720088 191.7918794412013,193.5553667718068 187.01063624247607,196.5005828132048 185.32439441718626,192.0107980611037 188.09922276080388,189.27576476193536 186.47701520715012,185.51850804043866 191.36498250149492,186.23625851610234 192.79508649729317,184.75850006743073 189.65739567134787,181.63362099298865 193.80896605580764,181.709639250237 183.862273099839,176.72541189844603 190.244378847349,173.83549699968273 186.71180858898913,169.05155809996523 192.11205191381444,160.99319773961562 185.94339454328622,150.3746277027273 190.4151374003591,147.14950383856697 167.05321550168622,130.48808840252528 176.09275318050265,124.5882312118787 183.49941098897338,110.47346087248313 178.6861506544184,101.8997519976153 173.0724589526114,100.04854882714177 178.077822659291,96.49835718685944 174.54525258666212,87.96768351955119 181.3755999072737,83.66652773852019 181.12114684803785,82.99606282177739Z" name="East Flanders" name_en="East Flanders" gn_name="Provincie Oost-Vlaanderen" admin="Belgium" adm0_a3="BEL" iso_3166_2="BE-VOV" iso_a2="BE" type="Province" type_en="Province" wikidataid="Q1114"/><path d="M463.10591081139205,0 466.0941877090353,0.29066247614707935 469.8508786424967,1.7267948843448062 473.3087419068461,4.008936742210251 475.4432253166484,6.8119924706785495 475.891467026856,11.801502733900692 474.6107768983436,16.541709752080795 473.6929488214828,21.545061020886635 475.1870873735474,27.289175145024835 466.1795669545597,23.081592057944654 463.8529799841725,23.423022160321832 462.6790139642168,27.391576397543773 467.05470530540333,29.285871179912 481.505158564022,29.78073748840663 485.30453922348306,30.804547448570332 493.2875074570888,34.48115618999935 497.74857804381753,33.25287658167265 502.9567178033327,28.176628483560435 507.71661605919127,21.724331225276345 510.93968603692076,16.379457170892433 512.3697902065167,12.31402972425637 513.0741696532623,9.238605239319876 514.3121702622674,7.24778635872753 517.4925505139797,6.427457844998443 518.0688611957113,7.213606857884179 524.2588632080989,11.33167092462207 528.3143818106727,19.077746368568068 527.588657500889,24.575290996133358 525.2834153935163,29.857525672427716 524.5576908772109,37.00563795744277 525.8810707317407,40.211800552241804 532.9889008209949,48.0878703989525 534.0774873889163,50.95087303228333 536.1906259357218,58.22521812588516 537.1938332581246,60.379588843488165 540.7584208375172,62.35486693807445 548.7413890711051,61.65673816223185 552.5621143870767,62.03986184518077 556.1907365555006,66.6536062307795 556.2974606640219,78.37738645020329 559.9260826259475,79.30434931123929 561.2608745772635,78.97069941721445 558.7736280613466,81.03082513306256 556.5217480648893,93.59303335539002 564.9209406127484,101.4836753233098 565.5933030652664,114.75848678630256 560.4171804341265,119.36459194024926 553.7362470331177,117.40526070958664 549.0617283014858,124.2321313037633 538.7094834106565,124.7747562950957 530.3636528177532,135.38592939401863 513.832078053961,138.68980316775884 513.8107332348347,143.17852302593076 507.86619655799194,151.50875936171468 505.00598875213836,148.0807124529876 501.1319012020274,148.32620358940542 493.1596054081435,151.54261270660677 487.6099481637154,156.46746927570334 485.0805853328974,155.2152525952845 474.3334608239343,159.67368597360382 471.68670120933143,157.88877877854105 468.16480345339426,150.17149077978485 461.4198355950069,155.3167874744054 456.85204095900633,154.34371599170356 448.8050380195781,163.36971952467226 451.1422974782596,158.19332773975088 445.5926404195624,155.16448475245627 430.533859289821,159.20844649246115 427.8337377202738,165.88115279769914 424.66402957276784,165.82196568875872 418.07914813642975,161.9489257497273 414.3331295010764,165.44992607153887 407.36404094901553,160.1135362342709 403.618022313662,165.78814433749338 399.0075378536777,161.06931990700653 386.4674472380506,164.13080388801708 385.46423999622766,159.27611829670627 381.6008249485513,158.08335246717218 383.5752221106363,153.11671074546757 377.13975440817023,157.4319438207311 375.79502987460813,156.77204690142105 377.1931163631145,154.4537185024949 367.01163021103775,149.8667796810974 361.9955940019238,148.99493456811504 354.91978116850044,150.83167622786863 353.1695045143698,148.8002440194839 349.12465859699154,152.1434974626438 346.8514334099579,151.11944029211986 344.3434153982663,148.93568094529468 344.8130017904943,148.6902000148515 345.84822635386604,145.44778288385277 345.2078812229089,141.65420171853177 344.0125704232305,137.94437694177836 343.4042426138224,134.89452253102968 343.148104598588,131.96269248539718 342.8706217642275,130.57284003407244 343.56432885012885,129.1320037276808 346.1683988264792,126.06341188960957 349.8610551354146,123.46903196650527 353.95926356493015,122.67197620090148 362.32643879124026,122.67197620090148 370.5442002836667,119.97524039554162 373.1375977575824,114.8518105856754 374.0660982253347,107.65571029167073 373.56449451155777,105.31284231544377 372.4759078074989,101.1694877913217 367.47054428656213,93.94985764525933 369.27418270990603,92.79439527289242 364.88781912933814,78.66680259869102 366.21119902950505,75.36675421491705 366.9620685079414,74.80927100447401 366.5639766477254,75.47030214676423 368.9673715028786,74.26465751635061 370.63126029641006,72.41581440153165 373.6060916631058,66.07711416777506 366.6480116292867,63.08775174958445 365.0345437833853,61.77385302198432 364.2278098604347,58.85068676309312 364.3790722902814,51.714702607925176 363.74040791739804,48.279638057457895 362.2109750530579,45.635713950987395 359.20031117287175,41.91454399414027 363.3424869505433,42.05733121490765 365.197152428915,42.1215300178612 372.66784477632496,46.18742189418598 376.65932899637096,47.55099659600876 386.28584941007597,48.173086956215194 390.21329904109047,46.08514898643792 391.2378512265137,40.399374076699736 389.9785059610334,37.15914009651503 385.3466768832499,31.63207616641998 383.7458140161011,28.662998735487736 383.89522805717877,25.317817506104 385.23995256818336,22.740154523075017 385.6668492088549,20.38402233310897 383.1695035408911,17.64327329516644 393.969989974552,11.33167092462207 405.0479594208732,7.24778635872753 411.15258218771885,6.239459516263277 413.75665217074885,6.717995843896945 415.40020435086564,9.47782750061319 415.12272154476796,15.00450928094569 413.3724450495848,19.120436895947897 412.98823813494823,22.347491496306155 416.93703262898293,25.18126382470149 419.66917158354886,25.437301082713574 425.62438030933424,24.344844235527194 432.2199345124105,26.009102395035853 435.421659833659,25.795746109292914 438.1964883077203,24.73745537231791 440.33097171753434,23.14987876552235 456.2969085977598,3.5132202064900118 463.10591081139205,0Z" name="Antwerp" name_en="Antwerp" gn_name="Provincie Antwerpen" admin="Belgium" adm0_a3="BEL" iso_3166_2="BE-VAN" iso_a2="BE" type="Province" type_en="Province" wikidataid="Q1116"/><path d="M625.6861372023023,92.18382967995629 629.1900722278018,95.18142107610393 640.8870418753382,98.71493658495969 643.6832152124143,100.68519098665352 645.6682849941998,102.96934446904939 647.9094927190623,104.57398878906157 651.4527352289361,104.54002978926277 660.0973933897803,102.75707694190008 662.7441530988217,103.03726914385024 666.1166369111249,105.05789548149102 670.4282934567761,111.01631567691967 673.1817774808839,113.3328434850849 679.52119332781,111.72064593079045 683.0430911811909,112.0006715248947 684.8787469218987,116.18346539789945 685.3910230145984,117.76125685891677 682.4881253624561,120.63648382504691 681.8264354352003,124.38448151086203 686.5222993085373,129.41991688254186 684.6226087722937,130.69970084153752 682.530815088491,131.54718017570548 680.310952226625,131.8861586441267 678.0483996387421,131.64040018605093 678.5606757314418,134.0130738806977 678.8808482635743,135.01287484487915 679.4571589453059,136.33454347499918 677.9203308737278,140.83243354424644 676.7890543732617,143.16132261423408 675.2308814386517,145.28664895870574 672.8189150161949,143.22059856401538 671.1326731100668,144.2621264607284 670.0867762681742,147.4370734510092 669.5958450384712,151.77931967928959 672.3920183755469,155.58727951983332 669.1262586717884,163.57241459099458 660.9938766036444,176.57306101093587 665.6043608184249,175.3225098018832 667.5894306002104,175.37320973917215 669.5958450384712,176.57306101093587 667.2265683420493,180.56061434160102 663.661980762651,188.16108605606343 660.9938766036444,192.1793471051332 660.0120141442559,192.97274323576679 657.6213925848194,193.8336151021593 655.2307710253946,194.79570816442344 640.3320762631312,211.44541193513686 640.780317560272,218.74391271259097 644.1314569226041,223.71431833354808 647.5829939473233,226.12580310234884 637.4740362182205,236.29810285510598 619.5977368865397,241.63293255600982 619.9926163359531,246.93224447279454 614.4109417835115,251.78411659594084 611.1131648885012,252.58280298545463 607.0469737511623,248.16848446737032 605.414093899283,253.92786347678958 600.8142818062357,254.38179463524853 595.2627576756639,252.22502781980407 592.7137802105342,245.83882846587028 589.9177435922677,244.62769208505233 580.3979472870842,247.8405118480124 576.2997387519716,251.5066684160113 575.2858593078587,255.18874970267427 568.7223225025563,251.59074411874056 562.0714781382229,255.67989637319917 560.5792183339106,251.98599636789825 559.0851295540745,255.07107145021007 546.7905043617801,253.50754476817067 549.0723863460983,258.8400173625388 546.4489871731727,262.0629375956471 532.6876675616735,257.99672107312364 536.6817241078963,249.45034545303122 532.6902397740002,247.07889538261966 535.4650683033487,240.4839782289962 533.7788262923281,234.49222892292323 543.1171916246312,224.82638103459925 538.5493969886188,223.20919102328517 540.0008458035433,212.22963228400775 543.4480367853981,202.64233966877111 547.4715380693813,204.00871027360625 548.4640729945004,202.97129169656452 550.2677114178559,193.93515468414955 547.2580896923992,191.3186451061191 540.0221906226695,191.22579304221586 539.3071387176302,188.63414200487045 531.3348427380153,192.40750556321768 527.8769794394569,188.61725699021943 524.4511334624477,190.1030802153168 523.0957364264627,189.0562653576138 520.3742700377893,181.912352538037 528.6774108067207,174.53690138017927 528.8695143645764,167.3100313655015 537.4928276061208,163.35280596591323 536.1694478916849,155.65523243520346 538.1972071944567,155.13063952724283 539.2644488936465,157.73650199477856 544.4939336654736,155.60446607160063 538.9015869685237,148.41085480005313 534.3017748252313,146.31136655363173 528.5066522537225,147.0733114629431 528.5386693895406,155.2829425905562 524.8566853972967,157.5842236755293 520.5877184147829,154.92756658284742 516.4468203470148,156.53515365798884 513.1170259632023,150.06992099872608 507.86619655799194,151.50875936171468 513.8107332348347,143.17852302593076 513.832078053961,138.68980316775884 530.3636528177532,135.38592939401863 538.7094834106565,124.7747562950957 549.0617283014858,124.2321313037633 553.7362470331177,117.40526070958664 560.4171804341265,119.36459194024926 565.5933030652664,114.75848678630256 564.9209406127484,101.4836753233098 556.5217480648893,93.59303335539002 558.7736280613466,81.03082513306256 561.2608745772635,78.97069941721445 567.7169472989624,77.3568103015417 592.1567834359339,78.38589055751089 596.4684399815849,76.79546420060264 605.1344432119712,70.67883609522607 609.2113066775592,68.71316030907197 613.6723772642937,69.2237503852904 618.5176547656592,72.28692473526036 622.3383800816308,77.28876969439852 623.8111737706986,83.66626194333668 624.4728636979546,91.1457439563401 625.6861372023023,92.18382967995629Z" name="Limburg" name_en="Limburg" gn_name="Provincie Limburg" admin="Belgium" adm0_a3="BEL" iso_3166_2="BE-VLI" iso_a2="BE" type="Province" type_en="Province" wikidataid="Q1095"/><path d="M667.205223685574,237.26933538193353 669.2756725063444,238.06037161757934 673.5019498064712,242.72159798311455 675.6150885598158,244.20212117364545 693.5234050827428,243.74788543328359 695.87967139403,244.4959005438186 699.7768330582725,249.46835099920784 694.9770217900223,256.8277447832397 693.1733832405725,257.5925483431543 688.2107090958973,255.0374488781378 680.8040513375306,256.0965226248026 672.0633411898636,244.50993182878358 666.7591498565806,245.92299485095052 663.6641486438593,242.82754250495103 663.143450713679,242.01988000945911 665.369567738327,238.6830733056724 667.205223685574,237.26933538193353Z" name="Limburg" name_en="Limburg" gn_name="Provincie Limburg" admin="Belgium" adm0_a3="BEL" iso_3166_2="BE-VLI" iso_a2="BE" type="Province" type_en="Province" wikidataid="Q1095"/><path d="M404.3625351492445,230.10768441358582 387.5687074197968,239.10879954517262 383.1930162851023,240.1353310156192 378.6572387810808,239.31915991267056 372.94749546363107,235.4648921857877 367.4938900892645,223.9214706946001 363.7371989492813,225.87546197806356 355.9996965370606,221.5628700499809 358.454352479007,216.574904164121 363.6945094297858,215.69846999310607 365.0050083896424,210.21573114297772 362.89407799620545,206.5097133328634 366.8108555055158,198.78346873676733 374.3882717549312,194.96950052573064 383.214361148111,196.45470009125575 388.57191474218786,191.15457035723082 392.1258295802933,193.92302250347024 395.36820148678413,199.4886468467051 395.26352051903206,202.6302144821302 392.02977780000384,205.95315048381062 400.33229445054286,211.26455988466086 403.60935080424235,221.5965669781632 399.23365987608116,222.1694026324331 397.49405570913547,225.03325526386467 404.3625351492445,230.10768441358582Z" name="Brussels" name_en="Brussels-Capital Region" gn_name="(Bruxelles-Capitale)" admin="Belgium" adm0_a3="BEL" iso_3166_2="BE-BRU" iso_a2="BE" type="Hoofdstedelijk Gewest|Région Capitale" type_en="Capital Region" wikidataid="Q240"/><path d="M325.8821342738796,258.85312992148744 320.3004597214498,256.9706229244745 317.36554508457726,262.4662160417462 315.914096258512,260.24805124341947 311.0688185506131,262.7854705685134 307.14136912611445,261.5000098310798 302.9791262084978,264.8352611519883 290.46038047089417,264.4824481203919 286.0633442666578,262.90308898072175 283.1382025465269,259.0851371119008 282.1465671704143,255.4577248575137 283.596196494223,250.05582828016756 288.40927499764405,251.7877946316711 295.0902085843837,250.07257936260567 295.37836392117885,248.32353262838805 291.06670711466967,242.43583437987695 293.7134665435416,236.64683844052405 296.25350206251306,235.20766047185208 301.600383246663,239.41539876494974 305.1329535050229,234.980409595211 308.03585094912904,237.69036746099002 311.5577487050661,236.2765366927027 317.74775108045156,231.01559139807017 320.74670030348545,221.86140084234248 318.91104455858084,217.06734939072587 313.62819783180964,216.081389426625 323.27606332003427,202.06876446517052 323.4788391945933,198.62685740409148 320.4905622882512,195.97740550223415 325.965512387147,191.90950913414596 324.1298566422423,185.59450676594943 333.5856185725995,189.59656578468835 338.3668615855937,186.21937052962892 338.4735856812251,182.05593954572802 335.53867091556987,172.92277757786562 338.68703405820685,166.38000720010606 345.3786399616382,168.69650589675663 350.11719333637996,166.53219686908636 354.91978116850044,150.83167622786863 361.9955940019238,148.99493456811504 367.01163021103775,149.8667796810974 377.1931163631145,154.4537185024949 375.79502987460813,156.77204690142105 377.13975440817023,157.4319438207311 383.5752221106363,153.11671074546757 381.6008249485513,158.08335246717218 385.46423999622766,159.27611829670627 386.4674472380506,164.13080388801708 399.0075378536777,161.06931990700653 403.618022313662,165.78814433749338 407.36404094901553,160.1135362342709 414.3331295010764,165.44992607153887 418.07914813642975,161.9489257497273 424.66402957276784,165.82196568875872 427.8337377202738,165.88115279769914 430.533859289821,159.20844649246115 445.5926404195624,155.16448475245627 451.1422974782596,158.19332773975088 448.8050380195781,163.36971952467226 456.85204095900633,154.34371599170356 461.4198355950069,155.3167874744054 468.16480345339426,150.17149077978485 471.68670120933143,157.88877877854105 474.3334608239343,159.67368597360382 485.0805853328974,155.2152525952845 487.6099481637154,156.46746927570334 493.1596054081435,151.54261270660677 501.1319012020274,148.32620358940542 505.00598875213836,148.0807124529876 507.86619655799194,151.50875936171468 513.1170259632023,150.06992099872608 516.4468203470148,156.53515365798884 520.5877184147829,154.92756658284742 524.8566853972967,157.5842236755293 528.5386693895406,155.2829425905562 528.5066522537225,147.0733114629431 534.3017748252313,146.31136655363173 538.9015869685237,148.41085480005313 544.4939336654736,155.60446607160063 539.2644488936465,157.73650199477856 538.1972071944567,155.13063952724283 536.1694478916849,155.65523243520346 537.4928276061208,163.35280596591323 528.8695143645764,167.3100313655015 528.6774108067207,174.53690138017927 520.3742700377893,181.912352538037 523.0957364264627,189.0562653576138 524.4511334624477,190.1030802153168 527.8769794394569,188.61725699021943 531.3348427380153,192.40750556321768 539.3071387176302,188.63414200487045 540.0221906226695,191.22579304221586 547.2580896923992,191.3186451061191 550.2677114178559,193.93515468414955 548.4640729945004,202.97129169656452 547.4715380693813,204.00871027360625 543.4480367853981,202.64233966877111 540.0008458035433,212.22963228400775 538.5493969886188,223.20919102328517 543.1171916246312,224.82638103459925 533.7788262923281,234.49222892292323 535.4650683033487,240.4839782289962 532.6902397740002,247.07889538261966 536.6817241078963,249.45034545303122 532.6876675616735,257.99672107312364 527.2386356587247,258.9203580741136 524.1009447199862,257.4076541820125 520.6964435099093,253.003147002956 520.8011015535061,247.23379496205973 515.7527906280345,244.27255945188878 507.9749218834828,238.0821982064837 497.83612517054456,246.10802911431037 494.70910697310455,246.59583550672295 492.0943646618309,244.39217065762574 492.8174688030812,238.52845937009312 477.2383596255907,240.1353310156192 478.1210544788399,236.6007913348949 473.1721684882519,236.14661335489288 468.7537874210188,228.7891355476941 460.09845693193114,225.79124315339857 454.57014464028356,227.77867608551313 452.775419042106,231.93267138861307 451.9657146861263,229.49662076532607 448.3374526953453,231.55071297143638 437.55831112468735,228.75545461903354 436.7045176368463,237.0891901195554 440.47973809971614,242.1675736349938 436.4697245567599,246.83132269705715 429.57460498125175,247.19656814516875 428.485665050974,240.1196925619838 423.60946142402696,245.43516647967627 414.5699238137693,247.56299181367368 414.1110097753302,251.59074411874056 407.536800641796,247.8068735632629 406.5229209911496,246.17531347467647 407.4163778040111,242.42329988335504 404.42045477258773,241.98627797022667 399.8740047338011,243.41639999438547 392.38196772991,249.27849076651106 382.4566194405595,250.817229871931 381.26130876411094,255.7266958921713 377.3658763243428,255.4409141721016 373.4170818303138,250.01004178666648 371.9122709499761,251.725264533711 374.1076068288138,254.97390076737724 369.59635630782645,255.05426001082793 369.0520630238629,260.01277200236444 367.62195906080626,261.726863816822 364.6016647653658,262.7182598700475 358.8919216544377,260.819427841669 354.8470753801074,263.7599959728616 348.1234522054897,258.2144482587875 342.5097606683176,258.33210212216187 338.0380177533337,252.11200326535942 336.06362050632515,251.28806947205828 334.0145161355021,252.07837445667445 332.509705461698,255.65945358076635 327.4829967279852,255.57540043485204 325.8821342738796,258.85312992148744 M404.3625351492445,230.10768441358582 397.49405570913547,225.03325526386467 399.23365987608116,222.1694026324331 403.60935080424235,221.5965669781632 400.33229445054286,211.26455988466086 392.02977780000384,205.95315048381062 395.26352051903206,202.6302144821302 395.36820148678413,199.4886468467051 392.1258295802933,193.92302250347024 388.57191474218786,191.15457035723082 383.214361148111,196.45470009125575 374.3882717549312,194.96950052573064 366.8108555055158,198.78346873676733 362.89407799620545,206.5097133328634 365.0050083896424,210.21573114297772 363.6945094297858,215.69846999310607 358.454352479007,216.574904164121 355.9996965370606,221.5628700499809 363.7371989492813,225.87546197806356 367.4938900892645,223.9214706946001 372.94749546363107,235.4648921857877 378.6572387810808,239.31915991267056 383.1930162851023,240.1353310156192 387.5687074197968,239.10879954517262 404.3625351492445,230.10768441358582Z" name="Flemish Brabant" name_en="Flemish Brabant" gn_name="Provincie Vlaams-Brabant" admin="Belgium" adm0_a3="BEL" iso_3166_2="BE-VBR" iso_a2="BE" type="Province" type_en="Province" wikidataid="Q1118"/><path d="M325.8821342738796,258.85312992148744 327.4829967279852,255.57540043485204 332.509705461698,255.65945358076635 334.0145161355021,252.07837445667445 336.06362050632515,251.28806947205828 338.0380177533337,252.11200326535942 342.5097606683176,258.33210212216187 348.1234522054897,258.2144482587875 354.8470753801074,263.7599959728616 358.8919216544377,260.819427841669 364.6016647653658,262.7182598700475 367.62195906080626,261.726863816822 369.0520630238629,260.01277200236444 369.59635630782645,255.05426001082793 374.1076068288138,254.97390076737724 371.9122709499761,251.725264533711 373.4170818303138,250.01004178666648 377.3658763243428,255.4409141721016 381.26130876411094,255.7266958921713 382.4566194405595,250.817229871931 392.38196772991,249.27849076651106 399.8740047338011,243.41639999438547 404.42045477258773,241.98627797022667 407.4163778040111,242.42329988335504 406.5229209911496,246.17531347467647 407.536800641796,247.8068735632629 414.1110097753302,251.59074411874056 414.5699238137693,247.56299181367368 423.60946142402696,245.43516647967627 428.485665050974,240.1196925619838 429.57460498125175,247.19656814516875 436.4697245567599,246.83132269705715 440.47973809971614,242.1675736349938 436.7045176368463,237.0891901195554 437.55831112468735,228.75545461903354 448.3374526953453,231.55071297143638 451.9657146861263,229.49662076532607 452.775419042106,231.93267138861307 454.57014464028356,227.77867608551313 460.09845693193114,225.79124315339857 468.7537874210188,228.7891355476941 473.1721684882519,236.14661335489288 478.1210544788399,236.6007913348949 477.2383596255907,240.1353310156192 492.8174688030812,238.52845937009312 492.0943646618309,244.39217065762574 494.70910697310455,246.59583550672295 497.83612517054456,246.10802911431037 507.9749218834828,238.0821982064837 515.7527906280345,244.27255945188878 515.0807509943265,250.27437932828823 510.1500940617173,252.93116407960875 515.2301647281985,260.2097135997033 511.96440480177654,262.53710382608557 512.1778533644894,272.17054900179517 508.2077140354623,279.5741495592345 501.6548497349306,278.0802897251748 496.9269686768922,284.44915299622306 491.45201857799657,283.9709516970369 491.2385702010031,285.96755181194777 469.10397605210727,291.81322876203245 468.03673435290574,292.80266156210854 468.83716590590046,296.5837135150235 466.52125126634513,293.12966358591734 458.20743799499115,296.39091123969456 456.89473059725873,289.8677155568877 451.5585219155433,291.35203055405736 450.61934913109917,294.9322389615801 444.84557119297386,290.8824324655822 442.8498292117628,290.8992039195593 440.5659317080256,294.76456665667087 442.95655330739413,304.8635288066286 438.32472421400297,305.9023774327958 430.81134212418146,303.2297121810211 427.1613752677676,303.73244365368555 423.66082251668774,306.4887928238191 424.39721905511067,311.99999166861824 411.96385290657685,317.2664285740971 408.9328861762511,315.901851553057 409.1783518747938,312.88762722312816 402.36934937329653,316.43765097533947 402.9456600468867,308.4405554282355 401.9531251217557,306.7736152174506 392.6361046085789,306.84063108104397 390.48027639106107,304.5954272444301 378.7726342785158,305.8521123868205 373.60718414981045,311.6315242537897 374.18349482338874,303.3805334275245 368.0895444126622,303.9921817995744 362.892076962396,295.92146891107666 356.1897989279922,294.5214384540371 357.3210750845607,287.7458151830324 346.29646774123677,284.9608955728083 347.34236462130025,278.16421842131115 343.35088065887817,272.909392233016 341.0776556575753,273.81610544622487 334.5781533119996,282.7544067928572 329.7862377965709,283.48434537430984 326.16828844743696,281.9573073839386 324.1512014613685,276.23374274355365 323.9164080795294,264.22570819298124 324.7381844516504,260.04165729212815 328.5055477203873,258.9324377881504 325.8821342738796,258.85312992148744Z" name="Walloon Brabant" name_en="Walloon Brabant" gn_name="Province du Brabant Wallon" admin="Belgium" adm0_a3="BEL" iso_3166_2="BE-WBR" iso_a2="BE" type="Province" type_en="Province" wikidataid="Q1122"/></svg>