<?xml version="1.0"?><svg fill="#3498db" stroke="#ecf0f1" stroke-width="1" width="800" height="1424" viewBox="0 0 800 1424" xmlns="http://www.w3.org/2000/svg"><path d="M224.53620366938202,91.68877367507278 247.19443755312122,96.36899189240553 276.3687644725666,109.67014726489622 300.0636487352523,120.50756409946706 300.2117413866319,120.42546457272195 375.14681584734916,90.70345106081643 387.1423515399065,98.58590271772351 394.6950949545592,124.94090753444951 408.0234681485834,143.1659823289578 412.0219806526794,151.45709611425843 416.02049133692293,159.66583031755567 405.8020729195497,181.17133493765468 388.62328169255505,185.93182649290233 336.79072088927904,178.70897366356374 311.3187187502218,188.06580831095104 281.2039098663496,149.27285018484096 221.08913746654278,143.94122647242523 224.53620366938202,91.68877367507278Z" name="Al Manāmah" name_en="Capital Governorate" gn_name="Capital Governorate" admin="Bahrain" adm0_a3="BHR" iso_3166_2="BH-13" iso_a2="BH" type="Muhafazah" type_en="Governorate" wikidataid="Q528953"/><path d="M200.84131891151753,482.8596946193206 190.47480651807578,407.02320965858985 162.78140975129412,332.4744668947414 131.82996555667975,278.1676313830888 124.425314793224,253.88132193958108 125.61005964329601,220.89383070605322 146.78736337438667,125.51559445189028 160.115734748467,102.0343923849319 183.6625263598644,90.53923089098367 183.9587134822782,90.62134099045473 185.73582893760982,90.62134099045473 224.53620366938202,91.68877367507278 221.08913746654278,143.94122647242523 281.2039098663496,149.27285018484096 311.3187187502218,188.06580831095104 257.1580015610525,199.91716850405788 235.5166827770582,221.23779162961605 261.9671838767101,319.8202664958223 273.9901380293435,370.4274871165561 288.4176833398893,466.2847497398773 245.13504740838871,484.9190920252926 200.84131891151753,482.8596946193206Z" name="Ash Shamālīyah" name_en="Northern Governorate" gn_name="Northern Governorate" admin="Bahrain" adm0_a3="BHR" iso_3166_2="BH-17" iso_a2="BH" type="Muhafazah" type_en="Governorate" wikidataid="Q840445"/><path d="M31.253465216673394,227.41407110085328 50.78688097709617,233.9083455724308 70.32029673751894,244.73173346067682 70.32029673751894,279.3631918897133 74.2269798895974,307.497458693782 78.13366304167587,337.7920997133024 44.92685624896325,329.136889952042 9.766707880211387,331.3007225330098 0,298.8411232576934 3.906683152078465,257.71913432033205 31.253465216673394,227.41407110085328Z" name="Ash Shamālīyah" name_en="Northern Governorate" gn_name="Northern Governorate" admin="Bahrain" adm0_a3="BHR" iso_3166_2="BH-17" iso_a2="BH" type="Muhafazah" type_en="Governorate" wikidataid="Q840445"/><path d="M429.0278219121029,386.2788647605274 436.9016097654523,472.8588894083606 432.90309726134103,650.5144603247727 405.8020729195497,872.2310570828107 389.3637467689402,916.172907180491 336.49453376686523,1002.6415832602124 336.1983484642887,1002.9687451587879 324.05472012045834,942.1904744261032 303.32169616306976,875.5044757046827 274.59164719748907,810.5185824818867 238.16076216587615,754.6032377192289 158.7828972470915,664.9307701419001 145.45452587302643,609.1445604108166 180.99685317698118,541.5443375426235 190.9190862917931,512.2038593739823 200.84131891151753,482.8596946193206 245.13504740838871,484.9190920252926 288.4176833398893,466.2847497398773 273.9901380293435,370.4274871165561 261.9671838767101,319.8202664958223 343.7232750604808,346.4570166111686 365.3645938444598,333.1390212682877 429.0278219121029,386.2788647605274Z" name="Al Janūbīyah" name_en="Southern Governorate" gn_name="Southern Governorate" admin="Bahrain" adm0_a3="BHR" iso_3166_2="BH-14" iso_a2="BH" type="Muhafazah" type_en="Governorate" wikidataid="Q838532"/><path d="M716.5895668209198,1139.3922605775429 731.560716324481,1141.9349153519966 746.531865828042,1130.49275345297 764.9578959862512,1120.3214777772384 764.9578959862512,1133.0355039696708 760.3513884466951,1150.8339916869113 746.531865828042,1171.1734798797743 732.7123432093738,1188.9690972055478 741.9253582884859,1197.8664038810164 755.744880907139,1213.1181513047168 748.8351195978124,1223.2854369059537 726.9542087849248,1218.2018486970514 716.5895668209198,1225.8271900712248 701.6184173173739,1239.8063447141246 694.7086560080475,1247.430990312575 702.7700442022667,1274.1153171299486 716.5895668209198,1293.1737106950357 720.0444474755831,1305.878455048793 707.3765517418228,1310.9601621483364 700.466790432481,1323.6639534203039 698.1635366627106,1340.1778647625792 708.5281786267157,1347.799282252097 716.5895668209198,1359.23094945813 705.0732979720372,1370.6620659781358 694.7086560080475,1388.4427086055982 685.4956409289352,1406.2220197375543 690.1021484684914,1418.9207128343878 684.3440140440424,1424 663.6147301160476,1413.841317062872 649.7952074973946,1392.2526730598806 656.704968806721,1373.2022393259385 670.5244914253741,1341.4481180145428 669.3728645404965,1322.393604919308 669.3728645404965,1294.4442157737544 653.2500881520577,1276.656524835815 654.4017150369506,1258.8674984634786 656.704968806721,1234.7231112500926 663.6147301160476,1208.0343447143953 682.040760274272,1178.8003369611456 706.22492485693,1149.5627155777754 716.5895668209198,1139.3922605775429Z" name="Al Janūbīyah" name_en="Southern Governorate" gn_name="Southern Governorate" admin="Bahrain" adm0_a3="BHR" iso_3166_2="BH-14" iso_a2="BH" type="Muhafazah" type_en="Governorate" wikidataid="Q838532"/><path d="M718.8928205907055,1077.0886698351912 732.7123432093738,1070.7302363614274 745.3802389431492,1072.0019367563657 747.6834927129348,1084.7185639761722 728.1058356698177,1092.3482115883924 718.8928205907055,1077.0886698351912Z" name="Al Janūbīyah" name_en="Southern Governorate" gn_name="Southern Governorate" admin="Bahrain" adm0_a3="BHR" iso_3166_2="BH-14" iso_a2="BH" type="Muhafazah" type_en="Governorate" wikidataid="Q838532"/><path d="M771.8676572955777,1224.5563168999981 799.506702532899,1225.8271900712248 793.7485681084653,1244.889469057031 778.7774186049195,1255.0553904378444 770.7160304106849,1243.618698200608 767.2611497560216,1233.452285832197 771.8676572955777,1224.5563168999981Z" name="Al Janūbīyah" name_en="Southern Governorate" gn_name="Southern Governorate" admin="Bahrain" adm0_a3="BHR" iso_3166_2="BH-14" iso_a2="BH" type="Muhafazah" type_en="Governorate" wikidataid="Q838532"/><path d="M751.1383733675981,1279.1977052878844 762.6546422164655,1280.4682852943042 784.5355530293683,1284.2799844380565 793.7485681084653,1294.4442157737544 791.4453143386796,1309.6897455849567 784.5355530293683,1319.852887501448 777.6257917200267,1317.3121428609259 768.4127766409144,1314.7713709958764 755.744880907139,1317.3121428609259 746.531865828042,1322.393604919308 738.4704776338075,1305.878455048793 741.9253582884859,1295.7147140422305 736.1672238640218,1286.8210831398128 739.6221045187003,1277.9271184684515 751.1383733675981,1279.1977052878844Z" name="Al Janūbīyah" name_en="Southern Governorate" gn_name="Southern Governorate" admin="Bahrain" adm0_a3="BHR" iso_3166_2="BH-14" iso_a2="BH" type="Muhafazah" type_en="Governorate" wikidataid="Q838532"/><path d="M311.3187187502218,188.06580831095104 389.80802472278975,256.5069924029817 408.2483893928238,227.41407110085328 435.5951714574187,205.76517966777246 447.3152209136541,236.07306343682882 459.03527036991994,283.69176190587 482.4753692824212,285.85601673413237 463.9987366490361,308.7743148416624 462.9419535219984,346.44698801654056 426.2389115742552,355.604351253439 429.0278219121029,386.2788647605274 365.3645938444598,333.1390212682877 343.7232750604808,346.4570166111686 261.9671838767101,319.8202664958223 235.5166827770582,221.23779162961605 257.1580015610525,199.91716850405788 311.3187187502218,188.06580831095104Z" name="Al Wusţá" name_en="Central Governorate" gn_name="Central Governorate" admin="Bahrain" adm0_a3="BHR" iso_3166_2="BH-16" iso_a2="BH" type="Muhafazah" type_en="Governorate" wikidataid="Q856539"/><path d="M402.38836466469087,17.33463395635232 459.03527036991994,0 500.0554434667895,21.668089826877317 502.00878504284395,52.00001261558544 502.00878504284395,82.3279681067906 529.3555671074389,121.31522927619174 552.7956660199401,132.1438619838175 543.028958139744,160.29594408023996 533.2622502595326,171.12275953202308 503.9621266188832,153.7996126063342 496.14876031471107,125.64674296577985 486.3820524345149,97.49045909387338 460.9886119459592,90.99236999780433 437.54851303345794,86.6602094984223 421.92178042511364,93.15841991574204 398.4816815126124,49.83357830771289 402.38836466469087,17.33463395635232Z" name="Al Muḩarraq" name_en="Muharraq Governorate" gn_name="Muharraq Governorate" admin="Bahrain" adm0_a3="BHR" iso_3166_2="BH-15" iso_a2="BH" type="Muhafazah" type_en="Governorate" wikidataid="Q375630"/></svg>