<?xml version="1.0"?><svg fill="#3498db" stroke="#ecf0f1" stroke-width="1" width="800" height="928" viewBox="0 0 800 928" xmlns="http://www.w3.org/2000/svg"><path d="M600.7666108947324,0 602.8635272364008,1.0644697595757486 616.5157930528554,4.3022444399587885 617.9880959794089,3.7700064619312257 620.040397447177,6.120728544640621 622.2711597056909,12.152812317523782 624.7473059292397,15.523708825367203 648.1926185915012,34.640605980544315 662.5587284342246,41.338321045340734 676.7463766228709,41.870592932032544 662.4471899544134,59.74634862551868 656.6695154328681,68.8396892336906 640.2957198596282,108.45289752830999 636.7711150335839,122.07198523761978 634.8972747882389,126.59697049859295 630.7480565470813,131.96489414952222 620.4419347659688,141.68053049004902 616.9173303716019,147.00424278981097 615.2442583539408,157.5630986203899 620.040397447177,162.17711956659377 628.4280641090189,162.26585125619383 637.5295743655225,159.29335177976898 653.0110651216993,152.28364404933507 662.9156500157194,148.64573159219864 660.1271970846501,156.7645220478165 635.2988121070088,182.67451875328396 631.8188225865657,188.30922928795994 630.4134424025755,194.96447995779323 630.2572890487899,205.8792810250576 620.8434716530396,218.52477599089224 615.8911796377422,228.06457448246508 616.8280997603778,235.47468497310587 627.6249894714808,249.36340016911592 634.1834307618996,255.48698595153215 642.0357141881767,257.6169474057099 640.0726433316056,262.3206451308428 642.5710974237414,265.73751162467033 646.3187779144588,269.42065485602075 648.1370450485216,274.7600416227356 647.9475828623123,274.87920577793255 643.3968279413814,277.74146016174484 636.6599255995702,287.43775366575323 634.2953177113556,289.54567030188076 630.2353301430583,290.14476422047125 627.0230324148149,291.7645399194902 624.8815002077599,294.1387421982196 622.7399683889485,300.7954489531034 619.7061315161818,302.1268015497086 616.6722946434404,303.85756619990286 615.2892226251223,308.7170544597139 615.6907591617622,317.7261056307291 614.4415323968536,320.8549063946061 603.1538747458933,323.89496711961476 599.8523465898982,328.9100026222874 597.5769691294589,345.50883560007486 596.9077401449105,345.9304715813602 591.9554479109031,357.4923328056131 589.1000722818837,359.66715021781823 583.3000902078279,361.46471152783806 580.3554837628366,359.6893420784349 576.161650552915,357.89178798068315 570.2724376629125,356.2052011398214 564.7847624742028,357.958364457501 559.4309329271227,359.15673309654454 555.0140232596285,356.9597260793135 546.001743457351,350.32438748650014 542.5663692715116,346.13019412871097 544.0832880961104,339.87226434993636 546.3140503426755,333.6809950235147 555.3263301449783,316.9938366033959 561.8401564174334,299.3087759251722 561.7063103875892,282.1790980514643 554.4786403049261,266.9137982826359 536.6771567697255,258.9263369385767 517.9833681806002,255.35421020793666 517.537215653648,249.2306263025402 518.0725989965686,243.17367901417347 511.8264643955604,243.08493316848384 506.29417321656535,239.97883648961326 498.977273094367,239.0691977540024 492.8203685328924,245.4810782580484 482.91578367669035,254.11173768692967 472.9219687809528,248.9643850904502 482.4696315379562,235.43065944197883 488.7603813528169,222.0304226241467 481.8004029416242,210.64938224484752 471.0481282453699,205.1253451495023 488.3142288258646,201.97511863911268 499.1557339498473,196.2293341068526 501.8326487233864,186.97853619531213 508.30185939377606,179.2585751801185 517.9833681806002,175.2655376376647 529.3602562593106,173.09156375509605 538.2833056338363,166.54751400901958 547.7863531769638,161.13487127353787 552.1140320284896,159.4933432681582 555.5494062143309,160.5803002330524 558.2263213760883,162.17746592513294 589.1893027096122,135.00413096798292 594.1415953318359,129.56963188438098 598.8261958943674,123.22575574748797 608.1061673681171,122.16105669643413 616.7615254594087,117.3699370609381 620.0630536154058,109.05212167213105 621.3122803803161,100.06902415204213 618.1892134680411,91.30787361381094 614.8430697099535,84.07725648343965 621.0445890970623,65.97894430524791 616.7615254594087,58.105473147969626 610.3369300028968,52.13945078320415 607.7938604827673,46.86101372901793 607.4369387717868,40.56243826517985 604.9384848537478,35.43935139770964 601.6815719116286,31.846564266932383 597.309277457985,15.52405552693687 587.8250339638203,8.27795777770341 589.6127987387866,5.9433154384377245 593.828939722482,2.0402360726857816 600.7666108947324,0Z" name="Muyinga" name_en="Muyinga Province" gn_name="Muyinga Province" admin="Burundi" adm0_a3="BDI" iso_3166_2="BI-MY" iso_a2="BI" postal="MY" type="Province" type_en="Province" wikidataid="Q822571"/><path d="M550.7529189262791,23.729261439313444 557.7128971037453,23.418779018886156 565.966717848814,21.733305691188463 574.086693108659,19.116396211895115 580.2882119542352,15.967249454361664 585.842810811084,10.866554120716078 587.8250339638203,8.27795777770341 597.309277457985,15.52405552693687 601.6815719116286,31.846564266932383 604.9384848537478,35.43935139770964 607.4369387717868,40.56243826517985 607.7938604827673,46.86101372901793 610.3369300028968,52.13945078320415 616.7615254594087,58.105473147969626 621.0445890970623,65.97894430524791 614.8430697099535,84.07725648343965 618.1892134680411,91.30787361381094 621.3122803803161,100.06902415204213 620.0630536154058,109.05212167213105 616.7615254594087,117.3699370609381 608.1061673681171,122.16105669643413 598.8261958943674,123.22575574748797 594.1415953318359,129.56963188438098 589.1893027096122,135.00413096798292 558.2263213760883,162.17746592513294 555.5494062143309,160.5803002330524 552.1140320284896,159.4933432681582 547.7863531769638,161.13487127353787 538.2833056338363,166.54751400901958 529.3602562593106,173.09156375509605 517.9833681806002,175.2655376376647 508.30185939377606,179.2585751801185 501.8326487233864,186.97853619531213 499.1557339498473,196.2293341068526 488.3142288258646,201.97511863911268 471.0481282453699,205.1253451495023 455.74509862820827,185.02635100057907 446.8666644675585,177.52825487928766 440.97745196574897,166.70279566141437 428.03902984858723,150.88649687265925 407.06986418723926,145.31874147111884 395.77783985661296,143.7302123196091 397.58877508194604,99.71379320994552 406.93566973511156,67.28715734419913 403.8349096647739,34.28576227482253 406.64567046447894,12.330227266581273 406.6010551589048,8.338399164723885 407.8502819891348,5.9433154384377245 412.2671916322405,5.810255321379337 415.7248732840441,7.761804090639483 418.68074464622003,10.28882668406481 419.43126757651584,10.930462428179554 427.03483836205453,17.430935581217494 430.3809815340001,17.91883147351629 434.0171244082052,17.56399786238792 438.16634264936266,17.697060173440608 443.0963272277487,19.426876799370362 448.36092638231264,23.463134130835186 461.7455007967974,39.209237530016615 468.8393248911124,45.37472934610047 477.851604968091,51.318503399031265 487.7561898621093,55.13319702517077 497.3930829224821,54.822697371734606 504.7545988504643,49.766019300772854 524.2514619309533,25.459095309255915 525.1437671796903,22.442978558590003 525.3668432760606,18.406728196682007 526.9060689452007,15.523708825367203 531.9252845664812,16.01160357836794 545.3990887287919,22.53168735154045 550.7529189262791,23.729261439313444Z" name="Kirundo" name_en="Kirundo Province" gn_name="Kirundo Province" admin="Burundi" adm0_a3="BDI" iso_3166_2="BI-KI" iso_a2="BI" postal="KI" type="Province" type_en="Province" wikidataid="Q600840"/><path d="M352.4604528179298,199.26825502753542 361.18273362425407,197.6266048059201 369.30270845247395,192.8791585355853 378.1365273070349,183.96117981347268 383.89189439159117,176.19689723781215 389.1564935461804,167.3235758426742 393.26109605004115,157.96238693686502 395.5810893514295,148.51263754017512 395.77783985661296,143.7302123196091 407.06986418723926,145.31874147111884 428.03902984858723,150.88649687265925 440.97745196574897,166.70279566141437 446.8666644675585,177.52825487928766 455.74509862820827,185.02635100057907 471.0481282453699,205.1253451495023 481.8004029416242,210.64938224484752 488.7603813528169,222.0304226241467 482.4696315379562,235.43065944197883 472.9219687809528,248.9643850904502 482.91578367669035,254.11173768692967 492.8203685328924,245.4810782580484 498.977273094367,239.0691977540024 506.29417321656535,239.97883648961326 511.8264643955604,243.08493316848384 518.0725989965686,243.17367901417347 517.537215653648,249.2306263025402 517.9833681806002,255.35421020793666 505.40186855085545,270.8188278846165 477.2942628463781,290.18914153547706 460.7866212899421,290.8104247749532 443.7882119927013,298.132754862977 434.4636253050757,312.7999525846048 427.05749475512727,319.94511081577565 418.2236758083535,324.60505711389305 414.65445559266794,332.32735919199456 397.4329706142657,336.4992327877014 396.0498978195111,328.37742948579455 388.8668429507223,324.9822928627167 384.6730093525824,324.272202665033 382.6653239518299,316.88288668931904 383.0668604884734,309.16084598446395 384.6283945269482,303.45815836750893 380.1668696455528,300.3516658632338 373.5191977314682,298.4655907390207 367.45152437418017,294.4715752110077 351.88080308556994,292.62990191038836 347.8208155172762,273.03760904921955 343.0915993526504,258.4604059875903 334.0793195503729,254.51110325528649 325.51319188683124,254.8882827319983 316.7239885421245,259.103834875693 300.93019079591994,255.1767136606771 296.2455898451701,251.91523125967473 291.2486820090958,252.04835247023388 286.07331370571063,252.8470812799672 276.88257265971106,244.30519093783084 272.06412567914225,245.6807576156967 266.8441417736647,243.0183736018526 282.7271699476447,231.45935866306493 280.6302533426839,212.33544573803255 280.67486855656165,209.73979739381704 280.6755104761183,209.70246465694532 298.6321567528015,215.596317324881 306.77443988135803,216.83869171590968 316.4336408104154,215.64068784647375 320.627473925475,213.1115774580002 322.50131417082014,209.11827189776002 323.92900222347146,200.11126715002538 327.14129991029614,196.11806543470934 332.0935923573161,196.07369664760603 341.73048584938806,198.95767251305216 352.4604528179298,199.26825502753542Z" name="Ngozi" name_en="Ngozi Province" gn_name="Ngozi Province" admin="Burundi" adm0_a3="BDI" iso_3166_2="BI-NG" iso_a2="BI" postal="NG" type="Province" type_en="Province" wikidataid="Q720852"/><path d="M54.631370702628494,125.13300040875681 61.65827205438939,126.15334268464672 87.86972934741061,137.51032691359242 97.50662283948074,140.43833923414917 115.73195122112737,142.70090454131488 124.85576977792071,144.87475123729806 132.75266807809462,149.35556624809252 138.01726723266216,153.25967362520956 138.32957394023143,155.2561034980391 137.77188369937866,160.31375973805922 139.25477570848878,166.12909814272766 139.3557246741399,166.52498466328328 148.72492633259168,175.26519135795863 151.35722590984835,180.5892478736937 150.420306218865,185.4696824955359 144.4418630379582,192.74605347037036 142.96955967968213,197.22728509517708 143.95109510799116,202.1966185615819 147.96646743230156,211.1149206688512 148.47954279928288,216.48372722470697 152.2941464642083,224.64797421651915 162.9125753845658,223.6718071369701 181.53944108495529,215.64068784647375 189.280186031396,214.7532790276383 197.61527852440187,216.2969215123163 205.3197164197188,223.1840709102605 206.4350971547849,235.29754241504244 211.83354230395915,248.38753008587784 219.2842884559783,260.9675642998176 208.8443206450702,270.8853913149747 194.52282650958855,274.16919162869465 184.39516519578675,281.6909561726056 180.37979322958537,278.0299053449731 166.14752913363733,278.0964697916157 159.72293367712538,293.5396435298943 132.68609388205286,304.5898146615996 130.49994684936368,308.3398321355817 133.17686162290642,314.59732668912187 138.79838284143506,321.564991643812 142.36760266890235,330.26362783315244 129.51841136768547,343.3118959217158 109.9259575439261,343.9045054593566 106.9427476721948,319.1681114042906 102.94968278479574,312.8217955542572 96.97124003558989,308.2507275428162 89.60972410762038,305.45485373090173 81.62359476453584,304.52289970661514 73.32515914561726,301.2388859914681 69.62209309713909,293.5614851808318 67.92671407422787,284.6860357454974 65.40595254508143,277.85205407596067 58.914433997234866,273.50320815073366 51.01753569706097,270.88504477927233 44.41447866937977,267.4237664418745 41.603718301325074,260.5456595619059 40.93448958059795,253.6232773337619 39.14987951476165,249.36340016911592 32.72528414118819,240.00067612676514 28.754527122453766,228.5082906763932 26.83607113981009,225.09168732214715 20.366860460575786,222.25193147830797 11.332272946655173,221.4088818266821 3.4576816517801863,219.1459669037822 0,211.91358259332793 0.8253820744747374,202.7734192741207 3.725373485402158,195.45253489738084 9.213048736340077,190.7494778368727 18.002252285287096,189.64027241491115 12.291500938014932,179.25822886780833 19.719939608534958,136.3125086712686 29.51298602270415,126.77442146963706 54.631370702628494,125.13300040875681Z" name="Cibitoke" name_en="Cibitoke Province" gn_name="Cibitoke Province" admin="Burundi" adm0_a3="BDI" iso_3166_2="BI-CI" iso_a2="BI" postal="CI" type="Province" type_en="Province" wikidataid="Q505596"/><path d="M272.97838970068364,208.00902632633654 276.05684190231153,208.1865052972511 280.6755104761183,209.70246465694532 280.67486855656165,209.73979739381704 280.6302533426839,212.33544573803255 282.7271699476447,231.45935866306493 266.8441417736647,243.0183736018526 272.06412567914225,245.6807576156967 276.88257265971106,244.30519093783084 286.07331370571063,252.8470812799672 291.2486820090958,252.04835247023388 296.2455898451701,251.91523125967473 300.93019079591994,255.1767136606771 316.7239885421245,259.103834875693 325.51319188683124,254.8882827319983 334.0793195503729,254.51110325528649 343.0915993526504,258.4604059875903 347.8208155172762,273.03760904921955 351.88080308556994,292.62990191038836 367.45152437418017,294.4715752110077 373.5191977314682,298.4655907390207 380.1668696455528,300.3516658632338 384.6283945269482,303.45815836750893 383.0668604884734,309.16084598446395 382.6653239518299,316.88288668931904 384.6730093525824,324.272202665033 365.3546077692447,345.4866444469039 368.56690549748623,368.743800017627 364.0161501883642,374.0700389571448 357.3684782742814,376.1783594272114 347.0623564931941,378.9080950966152 336.5777730801918,380.63915603000794 331.4916352045838,383.8127845150458 325.0670393598789,385.1887709010469 317.2593711086123,380.99424559886995 312.88707704320865,373.2489063112907 313.5563056395425,366.74647711698924 311.0132365076258,362.2414378077307 300.1271161697455,366.67990008773086 290.40099255726176,367.81171520337097 289.3748418617058,350.2356207642781 283.93178149867913,346.37429954263894 277.32872479847043,348.4381049111366 272.86720030529506,345.9526631427345 268.807212737023,341.22592287131346 258.27801449833953,340.98182026390646 246.8565112057785,338.1413636324318 245.83036051022256,323.53992234540107 240.56576139089256,309.64901750410337 236.23808253936667,301.7939634273347 230.21502400773633,275.74453660399877 219.2842884559783,260.9675642998176 211.83354230395915,248.38753008587784 206.4350971547849,235.29754241504244 205.3197164197188,223.1840709102605 197.61527852440187,216.2969215123163 213.23857406061174,219.19033774385213 223.27700487142653,224.82545958242983 231.4862098791968,222.07444704047867 239.5615698334676,216.97180319741423 249.02000210314174,215.72942847235902 253.48152705181974,215.90691020108758 256.9169008349913,214.57579771211905 260.1291985218159,212.6235052862639 272.97838970068364,208.00902632633654Z" name="Kayanza" name_en="Kayanza Province" gn_name="Kayanza Province" admin="Burundi" adm0_a3="BDI" iso_3166_2="BI-KY" iso_a2="BI" postal="KY" type="Province" type_en="Province" wikidataid="Q720848"/><path d="M648.1370450485216,274.7600416227356 648.1926185915012,274.9232347427244 650.2672274962331,273.94696581436506 658.8110470801596,262.2318959961243 663.9418007496242,258.01631628666553 669.9648592361306,255.79760468691524 673.4671561935102,256.3744685253396 701.5078388579527,273.0594509037314 707.218590205261,275.45574619130787 709.0924308822799,276.6982745261987 710.2078117956881,279.3164701396903 711.4124233203206,286.3279812581275 712.5724204026994,288.1918181429788 718.3277870555584,289.4343801961972 722.8339268782144,288.32494981747266 727.1392984731556,286.638620223066 732.4708203703098,286.2836042186213 737.780034830475,288.2361953635825 747.662312287553,294.6709284554835 753.3507561978524,296.35728711572494 763.4338018826398,295.4697293212442 783.5998936838686,289.87815334357833 793.682939368609,289.9669076801628 790.8023962111158,295.0844271225985 789.5114136905347,297.3779808703254 776.1491475763867,312.6886568322107 773.2937714710351,319.5231522547453 775.4353031183483,325.82518093026715 786.0537320387058,335.766586203932 790.3144878963502,341.71378187030444 790.3814110706126,343.97728742609377 788.3291096028444,349.7026764391343 787.9721875896738,352.1881392359782 789.5114136905347,355.4281385580298 795.1106274213109,359.5114593245044 796.8952374871075,362.5739746187378 797.3413896797995,367.98890827894843 796.5829303478608,373.3595230329642 792.8352498571471,383.6126985262678 786.7229607594437,392.26816475138486 786.9460368557907,395.41968497218693 788.8644928384091,403.05444982204875 789.0875689347578,405.5402167287976 782.5737429499601,417.0814654145777 772.1783901259747,424.1395373643962 760.1991967588533,425.4712623277364 748.7776932009613,419.8336553975756 747.4615436281464,424.938572010026 744.6953981340408,428.8005931340966 740.4792571503201,431.15333614135955 735.1700431218522,431.8192091862697 723.3693096821305,436.25838996131114 713.8439546698933,442.11817987820194 705.7016719730358,449.6650014276401 697.7601579355868,459.1653122580979 700.7695229568502,460.7979079459797 700.682805259795,460.8304557491396 693.0535978640286,463.693921785267 692.5182149093262,454.0381275492456 689.8413001357872,442.9397919564383 686.5397719797919,438.1010103451712 681.9444014567921,434.5496464803359 677.4382617497606,432.7073883813102 673.3782737932487,430.17707069553717 670.1659764532218,427.0030983960057 665.7936819996035,425.20526418651065 660.3952372386475,427.44700892370867 655.8890971433979,430.5100066371869 643.9322112843255,427.75774657137725 634.3399329252297,419.98936860594654 633.4922430851775,414.2408602381331 633.8937803982774,408.2926785046258 631.2614808386143,402.9882136527761 627.2907236980706,398.43841063860503 620.9999738831864,395.59758280024636 613.9061498303658,395.064930028281 606.9461710309586,392.4460615340042 601.1015737430249,387.98514373097936 595.8369746236949,385.45509151213787 585.932389767491,387.4081126463924 582.3631695518291,385.5216717869747 578.4816432272572,384.01252422888797 562.063232486786,378.68616451647523 579.9093312358625,363.37324152552685 583.3000902078279,361.46471152783806 589.1000722818837,359.66715021781823 591.9554479109031,357.4923328056131 596.9077401449105,345.9304715813602 597.5769691294589,345.50883560007486 599.8523465898982,328.9100026222874 603.1538747458933,323.89496711961476 614.4415323968536,320.8549063946061 615.6907591617622,317.7261056307291 615.2892226251223,308.7170544597139 616.6722946434404,303.85756619990286 619.7061315161818,302.1268015497086 622.7399683889485,300.7954489531034 624.8815002077599,294.1387421982196 627.0230324148149,291.7645399194902 630.2353301430583,290.14476422047125 634.2953177113556,289.54567030188076 636.6599255995702,287.43775366575323 643.3968279413814,277.74146016174484 647.9475828623123,274.87920577793255 648.1370450485216,274.7600416227356Z" name="Cankuzo" name_en="Cankuzo Province" gn_name="Cankuzo Province" admin="Burundi" adm0_a3="BDI" iso_3166_2="BI-CA" iso_a2="BI" postal="CA" type="Province" type_en="Province" wikidataid="Q645033"/><path d="M700.7695229568502,460.7979079459797 713.799339364292,467.86672426931614 713.2416486917654,479.3209053627665 701.9093761767443,490.2426345748744 681.6540537643185,499.61069438272176 676.0325325965588,506.2705858367118 672.5971588133872,509.24537319562404 669.6302450915957,510.310974165059 658.1418183594685,512.9305884089715 657.4725900704298,513.9961988218603 656.7364381754277,517.7258590870022 656.2679781141253,518.6582795292492 648.0141578007556,519.3242955366217 647.7910812727096,518.5250767199758 646.9433917612711,518.436274585644 639.7603370557121,519.5019002236852 638.6449557106299,520.8339357703068 637.0388064355302,525.8957135328783 635.9680403960494,527.6273888910964 623.9442317233772,536.1970761563157 621.6019314166502,541.3478588251468 622.6280817188867,549.9622508247126 622.4719283651011,557.8219410138811 619.237322809639,565.8150097836751 601.4358396154233,593.6588390405894 598.4020027193695,601.3861972616616 598.3831633904059,601.7049953786453 598.1569676862555,601.6974181669124 593.5169819493798,601.5419810251852 583.3447050334855,592.0826464206822 571.8785865270486,588.7075419957198 561.617079571619,582.8899988385655 535.8294673178915,573.475537435697 512.228001320442,586.9755924364384 507.0526326288675,582.1350568087659 502.10034039486027,575.2518329553046 492.37421639415834,572.3431531263507 482.02347901097863,572.276542639106 483.00501449265863,560.1091769650646 482.20193986648417,548.031003350948 477.69580015945274,538.2621681207007 472.6096618956283,522.676939956322 469.3973637791396,517.148994384529 469.174287709787,505.71593734735177 472.8773535670751,481.5854892587701 469.48659459511157,476.4132805326529 465.560452668442,471.5741064154645 464.48968675903717,465.18115645180285 453.7820276648753,448.0005963581918 457.9758608747968,446.26926177047613 467.92506094487845,445.02625644205114 470.06659276368987,443.42811213338774 471.98504812492865,441.4970301730656 476.22349693694804,439.87670338908566 495.98805143547804,437.81246054681344 504.86648559615304,435.4818766426131 513.3433824437263,429.59998335869165 556.3970960543832,386.98643694160916 562.063232486786,378.68616451647523 578.4816432272572,384.01252422888797 582.3631695518291,385.5216717869747 585.932389767491,387.4081126463924 595.8369746236949,385.45509151213787 601.1015737430249,387.98514373097936 606.9461710309586,392.4460615340042 613.9061498303658,395.064930028281 620.9999738831864,395.59758280024636 627.2907236980706,398.43841063860503 631.2614808386143,402.9882136527761 633.8937803982774,408.2926785046258 633.4922430851775,414.2408602381331 634.3399329252297,419.98936860594654 643.9322112843255,427.75774657137725 655.8890971433979,430.5100066371869 660.3952372386475,427.44700892370867 665.7936819996035,425.20526418651065 670.1659764532218,427.0030983960057 673.3782737932487,430.17707069553717 677.4382617497606,432.7073883813102 681.9444014567921,434.5496464803359 686.5397719797919,438.1010103451712 689.8413001357872,442.9397919564383 692.5182149093262,454.0381275492456 693.0535978640286,463.693921785267 700.682805259795,460.8304557491396 700.7695229568502,460.7979079459797Z" name="Ruyigi" name_en="Ruyigi Province" gn_name="Ruyigi Province" admin="Burundi" adm0_a3="BDI" iso_3166_2="BI-RY" iso_a2="BI" postal="RY" type="Province" type_en="Province" wikidataid="Q822578"/><path d="M598.3831633904059,601.7049953786453 597.9112347893808,609.6910645698289 599.7404601608239,616.9302171086448 602.1942989473837,623.5477248872364 603.5327559571406,630.2541790841739 602.0604525988646,637.8046384801905 582.8089739150573,631.5421879922787 571.9005457240708,638.4708629086987 555.3036736228336,666.9864085614228 532.6391285927933,690.0847640460429 527.4637596177525,698.8803003032118 519.9683982046712,729.844113047764 513.2491539474471,745.9632311763908 513.0310759466201,745.90496739455 509.37262569139915,744.9275430519998 503.66187365690035,749.3704033167785 491.5265265541061,755.7682227293217 454.85279318606183,757.2121914753569 435.3113155333444,768.4309271928379 424.11288831013593,782.338230188685 417.10829429682923,787.0259644789904 406.35601998881486,772.7407966612799 398.59296656320595,767.2757133108933 390.56222263082486,762.8770511423725 386.23454339105905,754.3464742452658 389.93760924837244,741.6398632372011 390.9637595556848,721.4701886926008 393.9083656124561,711.6301211812332 391.81144939573704,701.0351425497965 406.1329435312169,683.2220779852546 403.0544918328196,673.7606378518329 398.3252752799756,667.1422198811939 397.4329706142657,658.9026816214027 406.400635202689,651.5960781776331 410.99600572568875,656.2376420209714 416.43906570049717,656.5485624595452 417.9113689230055,650.4856650011146 418.0452145646315,644.0009190978715 437.40823175008694,624.4807503758713 438.5236128733713,614.7765682257747 443.87744280866957,606.8490830762108 458.243552158029,601.3199283532576 472.4312006519063,594.0144629885286 480.2388689031494,584.1112314864181 482.02347901097863,572.276542639106 492.37421639415834,572.3431531263507 502.10034039486027,575.2518329553046 507.0526326288675,582.1350568087659 512.228001320442,586.9755924364384 535.8294673178915,573.475537435697 561.617079571619,582.8899988385655 571.8785865270486,588.7075419957198 583.3447050334855,592.0826464206822 593.5169819493798,601.5419810251852 598.1569676862555,601.6974181669124 598.3831633904059,601.7049953786453Z" name="Rutana" name_en="Rutana Province" gn_name="Rutana Province" admin="Burundi" adm0_a3="BDI" iso_3166_2="BI-RT" iso_a2="BI" postal="RT" type="Province" type_en="Province" wikidataid="Q822566"/><path d="M513.2491539474471,745.9632311763908 512.1161143467473,748.6814090627779 501.98845335633337,766.0979407395802 488.96080138671647,781.8713350691668 459.5593538438596,806.2215745281178 455.0978288951816,812.6204721425848 444.07786265603244,838.8394732831109 438.63480227902016,845.6834220005974 429.0425245242215,851.0609109921835 424.6702301867406,854.5718820916821 409.8579681512765,862.927256680558 394.37647739514847,877.3719003180571 371.4442400997907,888.0835794359394 367.6519443034757,889.3725609302733 360.42427429236415,888.1724746623299 355.7396732472887,885.8167625614082 351.14430281343925,885.2389487388024 344.13970933032493,889.5059038895753 343.3589425614244,891.0171311583589 342.44432987572543,898.0399865595573 340.213567185489,901.7292700492261 332.8520516892295,905.1518973620601 330.1305215007233,907.6855546679858 328.52437265732453,913.7753042996912 328.3012961293273,919.3317492432379 326.9851465565124,924.1770492904435 322.0105462408278,928 320.0474758159829,927.2442962190773 302.4244534124641,925.8662542307147 281.18759557175457,920.887571269386 180.13406090096495,922.1766868732024 166.57102569573095,818.2640471285681 164.18132136626824,810.0442964715392 169.6721337472052,809.5102285077605 235.25654705768665,805.1776688611008 250.0241937201441,792.7801925658695 261.3118513711026,791.7137649047146 281.96871053534613,782.1382808346142 297.1825101129724,765.2763144047608 310.74554522437194,756.19030518161 326.6285733983302,751.7029274790092 342.86852289507596,737.1971030051606 350.7208067484132,717.1387475616052 352.505416468026,707.3432259042955 358.4838597857804,704.1447468435316 359.15308838211064,710.275190029301 358.6177054274082,718.1160936366875 364.0161501883642,731.9102924900925 363.7484589051086,748.6373270256448 366.7376805639975,758.944962020306 373.1176608066082,762.2550227987018 380.1668696455528,758.8338869894354 386.23454339105905,754.3464742452658 390.56222263082486,762.8770511423725 398.59296656320595,767.2757133108933 406.35601998881486,772.7407966612799 417.10829429682923,787.0259644789904 424.11288831013593,782.338230188685 435.3113155333444,768.4309271928379 454.85279318606183,757.2121914753569 491.5265265541061,755.7682227293217 503.66187365690035,749.3704033167785 509.37262569139915,744.9275430519998 513.0310759466201,745.90496739455 513.2491539474471,745.9632311763908Z" name="Makamba" name_en="Makamba Province" gn_name="Makamba Province" admin="Burundi" adm0_a3="BDI" iso_3166_2="BI-MA" iso_a2="BI" postal="MA" type="Province" type_en="Province" wikidataid="Q823740"/><path d="M107.5852157567677,415.41688472534514 109.64196999203993,413.5302786341909 102.2804544957551,407.67088513892753 99.29123247363057,399.28143846078456 98.08662094897286,370.6520145742215 99.55892430724894,361.9525926330255 102.79352986270932,354.7179996162456 108.3035129822595,351.655539020046 110.26658340715316,346.72901569632467 109.9259575439261,343.9045054593566 129.51841136768547,343.3118959217158 142.36760266890235,330.26362783315244 138.79838284143506,321.564991643812 133.17686162290642,314.59732668912187 130.49994684936368,308.3398321355817 132.68609388205286,304.5898146615996 159.72293367712538,293.5396435298943 166.14752913363733,278.0964697916157 180.37979322958537,278.0299053449731 184.39516519578675,281.6909561726056 194.52282650958855,274.16919162869465 208.8443206450702,270.8853913149747 219.2842884559783,260.9675642998176 230.21502400773633,275.74453660399877 236.23808253936667,301.7939634273347 240.56576139089256,309.64901750410337 245.83036051022256,323.53992234540107 246.8565112057785,338.1413636324318 242.39498632438128,347.2619564015375 241.19037477334683,357.1150693359788 246.81189599190077,367.9892549421089 245.47343879923852,379.90678294587326 239.49499548148594,389.8715956970502 236.23808253936667,401.63436453014043 238.78115128306155,404.71937103520537 240.0749936500643,408.3814570437125 236.6842350663172,414.5959783030838 231.46425116086314,419.41229480999476 218.88275153111834,410.88944922814613 201.30434406529918,411.7994322885099 192.91667764545244,413.7303785150635 185.19823982196303,411.2001751211632 177.3905715707199,409.60215948258866 169.18136639459337,410.2901929538455 157.7152474999165,412.82039132893436 147.00758840577805,417.5479072321179 132.5076330265744,432.7517800150548 117.51690951830075,427.7799427057945 107.5852157567677,415.41688472534514Z" name="Bubanza" name_en="Bubanza Province" gn_name="Bubanza Province" admin="Burundi" adm0_a3="BDI" iso_3166_2="BI-BB" iso_a2="BI" postal="BB" type="Province" type_en="Province" wikidataid="Q460538"/><path d="M97.14722981931438,473.88516680895674 94.87432326220058,442.8284635919122 95.76662851093398,430.26550676966644 97.6404687562809,424.5390544982073 107.5852157567677,415.41688472534514 117.51690951830075,427.7799427057945 132.5076330265744,432.7517800150548 147.00758840577805,417.5479072321179 157.7152474999165,412.82039132893436 169.18136639459337,410.2901929538455 177.3905715707199,409.60215948258866 185.19823982196303,411.2001751211632 192.91667764545244,413.7303785150635 201.30434406529918,411.7994322885099 218.88275153111834,410.88944922814613 231.46425116086314,419.41229480999476 237.93346183122756,438.18979437400793 237.57653973202892,446.8019789804091 241.90421897177126,454.8372193664717 245.38420798327022,464.11567416227797 249.71188722301434,471.840481288836 252.43341721043123,468.7105849757895 257.16263376327345,465.53631782955387 261.4456974009487,470.57520122081064 260.6426227747724,478.4111215770617 266.4872200626807,498.3234752871995 261.17800534125837,513.8855445449789 261.5795426543348,524.2753964478397 257.74263154363354,533.8218693530833 249.31034990993615,537.7737327431188 241.3688356288506,542.5249025214979 235.39039308753271,553.8036128313805 225.12888613212834,582.2460780673844 222.49658657246337,586.7979567646126 221.24735980752953,591.8605993284064 221.4704358769074,597.2563847377876 220.89043770832725,602.5856313094381 216.4289128269589,607.1377560285276 209.60278005736873,606.9379054398913 199.92127127054454,608.225832857073 190.6859150106727,611.3124358731751 139.5122266516412,612.5115550556669 110.06616336626173,605.761009866318 99.38587366359188,603.8220889097142 102.03507053077247,585.6651859916351 102.8604526052454,551.9604619473236 102.3109664852496,544.4506678521 138.4174548742549,545.0406001507386 154.0830738016398,539.843485099066 160.8715086313593,533.6070384898869 168.70431790094264,524.7722423235252 170.79306716889042,510.7409130379511 173.40400346268723,493.59218197640166 177.05931458456794,480.08157586623264 180.71462570644866,468.1302601194779 183.17951931547557,457.91761354349785 183.70170634129929,446.48652957292444 181.61295746154445,438.6927887296045 174.30233521778663,432.45790102078723 167.45100785574493,432.1251593758151 157.52944931821017,433.68387137129616 149.69664004862503,439.3991985448822 142.1629716282946,446.2578748508094 120.87799502304354,459.3207689780728 97.14722981931438,473.88516680895674Z" name="Bujumbura Rural" name_en="Bujumbura Rural Province" gn_name="Bujumbura Rural Province" admin="Burundi" adm0_a3="BDI" iso_3166_2="BI-BL" iso_a2="BI" postal="BU" type="Province" type_en="Province" wikidataid="Q645043"/><path d="M102.3109664852496,544.4506678521 97.14722981931438,473.88516680895674 120.87799502304354,459.3207689780728 142.1629716282946,446.2578748508094 149.69664004862503,439.3991985448822 157.52944931821017,433.68387137129616 167.45100785574493,432.1251593758151 174.30233521778663,432.45790102078723 181.61295746154445,438.6927887296045 183.70170634129929,446.48652957292444 183.17951931547557,457.91761354349785 180.71462570644866,468.1302601194779 177.05931458456794,480.08157586623264 173.40400346268723,493.59218197640166 170.79306716889042,510.7409130379511 168.70431790094264,524.7722423235252 160.8715086313593,533.6070384898869 154.0830738016398,539.843485099066 138.4174548742549,545.0406001507386 102.3109664852496,544.4506678521Z" name="Bujumbura Mairie" name_en="Bujumbura Mairie Province" gn_name="Bujumbura Mairie Province" admin="Burundi" adm0_a3="BDI" iso_3166_2="BI-BM" iso_a2="BI" postal="BM" type="Province" type_en="Province" wikidataid="Q1816580"/><path d="M164.18132136626824,810.0442964715392 152.20491585301122,768.8526779314309 125.54730550394855,724.0243061066852 109.17350993070862,706.4321974676476 102.59276120330087,697.1922510893585 98.4881582677681,685.731497796002 94.82970795657585,635.0509239837703 99.38587366359188,603.8220889097142 110.06616336626173,605.761009866318 139.5122266516412,612.5115550556669 190.6859150106727,611.3124358731751 199.92127127054454,608.225832857073 209.60278005736873,606.9379054398913 216.4289128269589,607.1377560285276 220.89043770832725,602.5856313094381 221.4704358769074,597.2563847377876 221.24735980752953,591.8605993284064 222.49658657246337,586.7979567646126 225.12888613212834,582.2460780673844 235.39039308753271,553.8036128313805 241.3688356288506,542.5249025214979 249.31034990993615,537.7737327431188 257.74263154363354,533.8218693530833 264.7472251687256,546.654471415176 283.0394768329692,569.6343262121047 294.37174969780546,576.7172831860288 297.4055861823286,588.5299058976718 297.04866408312813,606.6714380256888 308.782474261039,591.993827181668 310.5670839806518,585.8875770408956 315.1178396780155,580.2477092616933 319.08859643034276,574.2082584376624 331.5362504184616,575.3850557519484 343.1808297804005,578.493594189095 343.8500583767325,588.0192023869951 341.35160484691175,597.7671007500604 336.3993122246899,629.7881792978899 336.8454647516639,634.8069906598699 334.61470211685884,639.0930202338806 331.84855730378246,643.4457234527437 339.2100726398568,651.1741204855074 350.8100371761651,643.9342958387555 359.5546256951852,633.4079348152386 365.1315316998632,617.7077816347035 368.92382720847024,611.6455244058219 380.3899457149325,627.2121794029138 374.1438111139225,637.916022501989 388.1529991405161,643.6678017642126 399.7083480747302,644.0009190978715 406.400635202689,651.5960781776331 397.4329706142657,658.9026816214027 398.3252752799756,667.1422198811939 403.0544918328196,673.7606378518329 406.1329435312169,683.2220779852546 391.81144939573704,701.0351425497965 393.9083656124561,711.6301211812332 390.9637595556848,721.4701886926008 389.93760924837244,741.6398632372011 386.23454339105905,754.3464742452658 380.1668696455528,758.8338869894354 373.1176608066082,762.2550227987018 366.7376805639975,758.944962020306 363.7484589051086,748.6373270256448 364.0161501883642,731.9102924900925 358.6177054274082,718.1160936366875 359.15308838211064,710.275190029301 358.4838597857804,704.1447468435316 352.505416468026,707.3432259042955 350.7208067484132,717.1387475616052 342.86852289507596,737.1971030051606 326.6285733983302,751.7029274790092 310.74554522437194,756.19030518161 297.1825101129724,765.2763144047608 281.96871053534613,782.1382808346142 261.3118513711026,791.7137649047146 250.0241937201441,792.7801925658695 235.25654705768665,805.1776688611008 169.6721337472052,809.5102285077605 164.18132136626824,810.0442964715392Z" name="Bururi" name_en="Bururi Province" gn_name="Bururi Province" admin="Burundi" adm0_a3="BDI" iso_3166_2="BI-BR" iso_a2="BI" postal="BR" type="Province" type_en="Province" wikidataid="Q431385"/><path d="M384.6730093525824,324.272202665033 388.8668429507223,324.9822928627167 396.0498978195111,328.37742948579455 397.4329706142657,336.4992327877014 393.4175982598443,354.29670165345834 390.3391461732306,363.306664619612 390.42837660098064,367.6563677976682 393.4175982598443,372.161462158984 399.0837346922759,375.357222825324 401.84987989356694,372.89382226491176 403.72372042914986,368.58845266885305 406.66832687413756,366.30262877183424 416.5282961282509,366.50236049109327 420.36520723897377,368.05583216948924 425.85288320409103,380.9498597248764 431.0728671095469,386.7866958597531 437.94361509300757,392.02438014892107 443.9220580225455,398.72693364805326 446.4651271544586,408.936321496396 446.24205108507897,414.6181729747311 445.2605156034242,418.74644107975155 443.02975296861734,422.40864819927293 439.1036110419514,426.6701652276564 430.18056166742576,441.3638521167789 428.7974892608894,442.8066134393676 431.3405583928007,451.4632871942397 438.6128436893414,458.0779956548657 446.1974354829866,460.3421150557209 449.677424882702,455.99146548648116 450.7928060060098,451.1969255124411 453.7820276648753,448.0005963581918 464.48968675903717,465.18115645180285 465.560452668442,471.5741064154645 469.48659459511157,476.4132805326529 472.8773535670751,481.5854892587701 469.174287709787,505.71593734735177 469.3973637791396,517.148994384529 472.6096618956283,522.676939956322 477.69580015945274,538.2621681207007 482.20193986648417,548.031003350948 483.00501449265863,560.1091769650646 482.02347901097863,572.276542639106 480.2388689031494,584.1112314864181 472.4312006519063,594.0144629885286 458.243552158029,601.3199283532576 443.87744280866957,606.8490830762108 438.5236128733713,614.7765682257747 437.40823175008694,624.4807503758713 418.0452145646315,644.0009190978715 417.9113689230055,650.4856650011146 416.43906570049717,656.5485624595452 410.99600572568875,656.2376420209714 406.400635202689,651.5960781776331 399.7083480747302,644.0009190978715 388.1529991405161,643.6678017642126 374.1438111139225,637.916022501989 380.3899457149325,627.2121794029138 368.92382720847024,611.6455244058219 365.1315316998632,617.7077816347035 359.5546256951852,633.4079348152386 350.8100371761651,643.9342958387555 339.2100726398568,651.1741204855074 331.84855730378246,643.4457234527437 334.61470211685884,639.0930202338806 336.8454647516639,634.8069906598699 336.3993122246899,629.7881792978899 341.35160484691175,597.7671007500604 343.8500583767325,588.0192023869951 343.1808297804005,578.493594189095 331.5362504184616,575.3850557519484 319.08859643034276,574.2082584376624 334.7039329328272,563.0399668236455 354.87002474446064,565.4601057297095 353.66541319340274,556.689949850447 350.14080819161484,548.2752277794325 344.6977482167847,539.7274779168397 338.00546108882236,533.0004195913718 361.69615751402193,518.4810221948252 380.8360982418848,503.76236035622054 382.84378441909195,495.23777246920815 383.15609130444176,486.66896861138247 384.9853166261469,479.4322441046899 388.6437664931261,472.4398255820845 382.5760931358616,460.2089309444861 369.7269018346447,452.1069962646125 367.6746004435599,434.30549131341047 349.7392712667332,423.60719542040493 360.8484676739715,408.51462392131174 379.40841023325424,399.28178559858964 372.31458618043376,395.9526854001566 365.93460593782305,391.1366328559592 362.1423100409995,382.96944049732167 357.3684782742814,376.1783594272114 364.0161501883642,374.0700389571448 368.56690549748623,368.743800017627 365.3546077692447,345.4866444469039 384.6730093525824,324.272202665033Z" name="Gitega" name_en="Gitega Province" gn_name="Gitega Province" admin="Burundi" adm0_a3="BDI" iso_3166_2="BI-GI" iso_a2="BI" postal="GI" type="Province" type_en="Province" wikidataid="Q720843"/><path d="M246.8565112057785,338.1413636324318 258.27801449833953,340.98182026390646 268.807212737023,341.22592287131346 272.86720030529506,345.9526631427345 277.32872479847043,348.4381049111366 283.93178149867913,346.37429954263894 289.3748418617058,350.2356207642781 290.40099255726176,367.81171520337097 300.1271161697455,366.67990008773086 311.0132365076258,362.2414378077307 313.5563056395425,366.74647711698924 312.88707704320865,373.2489063112907 317.2593711086123,380.99424559886995 325.0670393598789,385.1887709010469 331.4916352045838,383.8127845150458 336.5777730801918,380.63915603000794 347.0623564931941,378.9080950966152 357.3684782742814,376.1783594272114 362.1423100409995,382.96944049732167 365.93460593782305,391.1366328559592 372.31458618043376,395.9526854001566 379.40841023325424,399.28178559858964 360.8484676739715,408.51462392131174 349.7392712667332,423.60719542040493 367.6746004435599,434.30549131341047 369.7269018346447,452.1069962646125 359.2886938173864,456.33026823845483 327.71540417001387,462.1303421971063 310.7209356769138,461.7987642792215 297.97370564680233,464.34387404432465 292.2561710500257,467.44714876321115 289.5698897331054,469.9582857583754 285.9415128099788,470.34725399109044 283.51279843076577,466.4804517122736 277.19814057893353,463.0970293911289 268.45476795967176,465.51375655399437 261.4456974009487,470.57520122081064 257.16263376327345,465.53631782955387 252.43341721043123,468.7105849757895 249.71188722301434,471.840481288836 245.38420798327022,464.11567416227797 241.90421897177126,454.8372193664717 237.57653973202892,446.8019789804091 237.93346183122756,438.18979437400793 231.46425116086314,419.41229480999476 236.6842350663172,414.5959783030838 240.0749936500643,408.3814570437125 238.78115128306155,404.71937103520537 236.23808253936667,401.63436453014043 239.49499548148594,389.8715956970502 245.47343879923852,379.90678294587326 246.81189599190077,367.9892549421089 241.19037477334683,357.1150693359788 242.39498632438128,347.2619564015375 246.8565112057785,338.1413636324318Z" name="Muramvya" name_en="Muramvya Province" gn_name="Muramvya Province" admin="Burundi" adm0_a3="BDI" iso_3166_2="BI-MU" iso_a2="BI" postal="MV" type="Province" type_en="Province" wikidataid="Q671086"/><path d="M369.7269018346447,452.1069962646125 382.5760931358616,460.2089309444861 388.6437664931261,472.4398255820845 384.9853166261469,479.4322441046899 383.15609130444176,486.66896861138247 382.84378441909195,495.23777246920815 380.8360982418848,503.76236035622054 361.69615751402193,518.4810221948252 338.00546108882236,533.0004195913718 344.6977482167847,539.7274779168397 350.14080819161484,548.2752277794325 353.66541319340274,556.689949850447 354.87002474446064,565.4601057297095 334.7039329328272,563.0399668236455 319.08859643034276,574.2082584376624 315.1178396780155,580.2477092616933 310.5670839806518,585.8875770408956 308.782474261039,591.993827181668 297.04866408312813,606.6714380256888 297.4055861823286,588.5299058976718 294.37174969780546,576.7172831860288 283.0394768329692,569.6343262121047 264.7472251687256,546.654471415176 257.74263154363354,533.8218693530833 261.5795426543348,524.2753964478397 261.17800534125837,513.8855445449789 266.4872200626807,498.3234752871995 260.6426227747724,478.4111215770617 261.4456974009487,470.57520122081064 268.45476795967176,465.51375655399437 277.19814057893353,463.0970293911289 283.51279843076577,466.4804517122736 285.9415128099788,470.34725399109044 289.5698897331054,469.9582857583754 292.2561710500257,467.44714876321115 297.97370564680233,464.34387404432465 310.7209356769138,461.7987642792215 327.71540417001387,462.1303421971063 359.2886938173864,456.33026823845483 369.7269018346447,452.1069962646125Z" name="Mwaro" name_en="Mwaro Province" gn_name="Province de Mwaro" admin="Burundi" adm0_a3="BDI" iso_3166_2="BI-MW" iso_a2="BI" postal="MV" type="Province" type_en="Province" wikidataid="Q847718"/><path d="M397.4329706142657,336.4992327877014 414.65445559266794,332.32735919199456 418.2236758083535,324.60505711389305 427.05749475512727,319.94511081577565 434.4636253050757,312.7999525846048 443.7882119927013,298.132754862977 460.7866212899421,290.8104247749532 477.2942628463781,290.18914153547706 505.40186855085545,270.8188278846165 517.9833681806002,255.35421020793666 536.6771567697255,258.9263369385767 554.4786403049261,266.9137982826359 561.7063103875892,282.1790980514643 561.8401564174334,299.3087759251722 555.3263301449783,316.9938366033959 546.3140503426755,333.6809950235147 544.0832880961104,339.87226434993636 542.5663692715116,346.13019412871097 546.001743457351,350.32438748650014 555.0140232596285,356.9597260793135 559.4309329271227,359.15673309654454 564.7847624742028,357.958364457501 570.2724376629125,356.2052011398214 576.161650552915,357.89178798068315 580.3554837628366,359.6893420784349 583.3000902078279,361.46471152783806 579.9093312358625,363.37324152552685 562.063232486786,378.68616451647523 556.3970960543832,386.98643694160916 513.3433824437263,429.59998335869165 504.86648559615304,435.4818766426131 495.98805143547804,437.81246054681344 476.22349693694804,439.87670338908566 471.98504812492865,441.4970301730656 470.06659276368987,443.42811213338774 467.92506094487845,445.02625644205114 457.9758608747968,446.26926177047613 453.7820276648753,448.0005963581918 450.7928060060098,451.1969255124411 449.677424882702,455.99146548648116 446.1974354829866,460.3421150557209 438.6128436893414,458.0779956548657 431.3405583928007,451.4632871942397 428.7974892608894,442.8066134393676 430.18056166742576,441.3638521167789 439.1036110419514,426.6701652276564 443.02975296861734,422.40864819927293 445.2605156034242,418.74644107975155 446.24205108507897,414.6181729747311 446.4651271544586,408.936321496396 443.9220580225455,398.72693364805326 437.94361509300757,392.02438014892107 431.0728671095469,386.7866958597531 425.85288320409103,380.9498597248764 420.36520723897377,368.05583216948924 416.5282961282509,366.50236049109327 406.66832687413756,366.30262877183424 403.72372042914986,368.58845266885305 401.84987989356694,372.89382226491176 399.0837346922759,375.357222825324 393.4175982598443,372.161462158984 390.42837660098064,367.6563677976682 390.3391461732306,363.306664619612 393.4175982598443,354.29670165345834 397.4329706142657,336.4992327877014Z" name="Karuzi" name_en="Karuzi Province" gn_name="Karuzi Province" admin="Burundi" adm0_a3="BDI" iso_3166_2="BI-KR" iso_a2="BI" postal="KR" type="Province" type_en="Province" wikidataid="Q735463"/></svg>