<?xml version="1.0"?><svg fill="#3498db" stroke="#ecf0f1" stroke-width="1" width="800" height="1616" viewBox="0 0 800 1616" xmlns="http://www.w3.org/2000/svg"><path d="M735.7397412802663,185.3829194584685 730.029682480755,191.36675744575408 712.014848957296,222.0125575682504 708.9319534502134,233.8649622359257 707.296678315829,237.86743243443024 702.0959673771835,252.0136302724279 702.5516995918373,258.05992482333494 706.412021190852,265.2061404087262 752.896725501858,330.67883868563825 759.169747808432,336.63053413625215 761.3143710630973,336.9901995520397 763.7538795937661,336.54910008578895 764.0597888293186,336.5654481506832 766.1665808201119,336.67803735750704 768.3380116384863,338.76814376497094 765.6840405229628,348.9667645851009 765.6840405229628,354.65242622271467 766.7295443271894,359.8966990161406 768.6597049970001,364.7132422689552 771.3136758531451,369.19710256482927 771.3136758531451,369.2649352650125 776.6484256479159,392.6432141783654 776.3535401125116,400.37337017505735 770.7239045229506,414.1907935720893 770.4022111644367,418.7327845809665 771.7157926809731,421.8645697896077 773.8068002894191,424.04725490409635 776.0854621408386,425.95874868640954 778.0424308931298,428.2090995074284 779.329204586549,431.0219470665354 781.7687133766037,439.62930915226184 784.2082219072948,442.53662152962545 787.5323875629409,443.5463620539615 791.2050546595964,444.2375863497855 794.5024124921256,446.13503366081284 796.888305635976,451.203703251438 798.175079588781,458.83319707706823 798.2105385523735,465.1839687145517 798.1082694155663,465.19527318279603 699.8577264948631,476.05465276393414 637.3821764295126,488.7276950203448 574.7591839901462,493.9561762343456 536.8529715969762,486.16751032556397 522.6850556018322,485.74080479500674 481.0659648930657,491.40970459898585 440.2108959218553,488.341640463924 427.00806050734224,490.6782563675625 413.885648163514,491.531612024628 400.3209075312606,494.70791165874147 387.80167055033775,494.7485456514967 390.7103155930356,493.12316391724073 389.4101377959348,409.61485014710667 389.8926778529836,405.3028476723459 390.8309506656108,402.0822490013971 393.4849215625381,397.5053776760717 398.6320167484457,391.59911737606706 414.04649477144625,378.74753587808067 405.6020417903785,370.6217840541164 402.57276167510554,368.50542004613715 401.8891630082487,368.3019202002316 400.68281251573444,368.1798203630494 399.39603871925374,367.61001728321133 398.10926492277315,366.85705721625817 395.81719924360084,365.7716961943667 392.60026451914007,365.1611736461525 390.133947998134,365.07977034942525 377.34663333732374,346.80929916079765 326.86756842725316,256.2734746975283 325.66548112633853,254.87725918042753 359.7873226083412,220.12306258790937 378.74042864358864,204.6518226589663 392.6268628557608,196.88776706989586 396.2191064830801,193.40658865190636 397.15737899487596,190.90438760878365 396.94291666942183,188.02130913166397 397.1037636080499,183.42446443569688 399.891773579728,175.97096620636037 409.8642708060449,164.83007808716593 413.510129820205,157.98688928284074 422.8660476338615,132.5266245464113 422.3567000323668,129.8317374318411 419.3274199121251,125.271972232133 418.97891847113783,122.38623746311077 420.4533466669015,118.99670915087499 422.65158530838534,118.42496546574431 425.0910940984622,118.76528972232298 427.34294812677206,118.12547867499045 429.08545455360934,116.15155761823024 431.122846515851,112.33969090464073 432.9189680701286,110.44729459158548 435.5193237988335,110.20223228729787 438.2269103011757,111.19609066220616 440.1302631478767,110.78765745532586 440.2911100865047,106.2675048870935 439.75495414315833,102.98612703524734 438.06606362192605,101.74706049331628 435.5997470087617,101.1615601243887 432.83854486017094,99.90884482705074 430.1577659215599,97.71653937386044 428.3080287210631,95.57863452197937 426.8604080890087,92.96403843501461 418.12106916927763,68.25670760267882 415.57432934615565,53.56979285292434 415.35986702070903,47.57423628777422 417.6385291315143,42.99545993812476 423.91155143808083,40.106313436987975 427.4769872423126,39.65657666111677 433.42831619036525,39.901887946664225 436.752482105412,39.574806213831934 437.3690612586938,38.893380629108854 439.51368399459477,35.93591564614388 440.8540735936043,34.95460884434626 442.78423426340015,35.40437641225891 444.2586627185645,36.93083727373662 445.5722442350784,37.36696312944965 447.0466724308642,34.61387397173636 448.2530229143331,31.356363723581467 450.07595255109857,30.60670575367916 452.51546134115347,30.97472061403623 455.5715492845269,31.083761870005162 456.295359470854,31.683484622376046 456.6974760393034,33.12825040688719 457.5017099543229,34.31402606355264 459.45867844725063,34.17773115060711 460.9331066430068,33.291806824888674 463.2921919637697,31.02924099994642 464.471734624129,30.265949012649713 473.69361384102405,27.75792971408891 474.7123098221337,27.94876049455275 476.9373560273561,29.257300319642873 478.2241299801391,29.393605014932398 479.8057894683483,28.61666403851023 482.91549279852563,26.31305068003547 484.7116146121817,25.972272838298256 493.85307035976996,28.412204574785477 496.21215568050343,27.0491250911995 499.83120713093234,21.323894371932496 500.689056173414,19.27905291540759 501.19840429367287,17.206884416715987 501.9490223031094,15.311885880129683 503.34302728893755,13.757675182797984 506.1578448243469,12.666979694142688 508.89223940918447,14.507517930077453 511.59982591152664,13.839476739975188 513.9857190553769,11.903482599819567 518.1409261897885,6.940542618978136 521.009359630788,5.058893718297059 523.5024838076762,4.568020398487967 528.7568103925189,4.758915779562493 531.4107812486639,4.227133909785716 537.5765725222075,4.008965406750632 540.6594682097432,0 553.0982818687711,11.126342957235357 558.3794160173154,13.962178759842839 560.9797714866419,16.7842635037847 562.9903556257665,20.02883526669521 564.6524383239115,25.958641541618007 566.7702534960888,28.166852201573988 569.6386869370809,29.652583294344517 572.6947746210318,30.783898262381634 581.3000746846301,31.751634591169587 583.4715057623829,32.433131080946104 584.4365860972955,33.809733216689665 586.9833259204103,38.716209059993695 597.4919785713312,54.19657098651647 642.1001378587457,94.85690700164993 642.9043715143868,96.25950330288332 646.416191672392,98.91482645272214 647.2204253280553,100.33095805753408 647.8638123044466,105.9543507153906 649.1505862572296,111.93126434560249 651.0539391039529,116.72331976869128 656.9784602289179,126.70118419892503 660.6779348892824,130.98864602158488 662.8761737901522,133.04381322320492 666.0663003302577,135.19418941046317 669.6585439575991,136.11964747562095 673.1435562924873,134.50008759183973 676.7894155660331,132.3224701634259 679.8455035093846,132.92132145449514 682.6335134810629,134.5545275111794 685.528754485764,135.49360353713118 697.1633344102406,142.67916637393049 706.6532913394155,146.0539517865345 709.5485326035174,148.06786067776426 711.639539693199,150.05449837353044 720.3252632261115,162.44932128009714 722.0677693935703,163.98661928207554 723.5153897662392,164.85728657562288 724.6681248628673,165.93200147399008 725.6332051977727,167.9997625615857 726.9467867143088,172.16231062150314 727.9118670491995,174.1754823771078 728.421215169451,176.5014415015554 729.3326798581592,178.51449167153643 731.5041109359194,179.69781205599207 733.9168119028793,183.87328143939044 735.7397412802663,185.3829194584685Z" name="Alibori" name_en="Alibori Department" gn_name="Alibori" admin="Benin" adm0_a3="BEN" iso_3166_2="BJ-AL" iso_a2="BJ" postal="AL" type="Département" type_en="Department" wikidataid="Q29165"/><path d="M798.2105385523735,465.1839687145517 798.2555027986872,473.23642948426436 796.2985343057816,480.267723604204 789.6770108176064,493.3532164856318 787.3447330605818,500.34210359989623 787.0766553482872,513.8711802776605 785.3609567445594,518.718883185013 781.420212194995,523.6272241775141 777.3722360936436,524.2500540903591 760.7514072966413,515.5706180196926 755.2826186457083,514.602416680527 750.1891389994938,516.2476746091361 745.1224669170325,521.2644876940789 743.4067685726685,523.7220027190849 742.6829583863413,525.387383610524 742.4148804146681,530.545784790121 741.3961846929147,533.6596210961652 734.855084414675,543.7178483201556 729.5203346198969,555.5681732488871 729.761604509082,560.4675188924551 733.4610791694683,566.4424290569564 751.1006039475805,584.6148498217775 753.4328814452043,587.9092707888981 754.1834991952626,592.0017468002665 753.4891663831465,596.6907126961555 753.2720347659622,598.1569907681193 750.9129491858431,603.8992183201647 747.6692069995108,606.3136760457646 743.8893088698325,608.1194012475186 739.8681405915535,611.9674263912716 738.1792498109353,616.2007250467501 736.5707827590169,638.5538604417696 733.9436194666105,643.7525121067191 725.5527819878445,653.7635776454958 718.7167959148146,666.2132324239102 714.132664129473,670.4911133668705 698.5305315729812,668.7948544586086 688.4239954904875,671.4777661051061 669.7657752500226,679.1273176374157 665.5837600331084,682.2288400189977 663.3050981816889,687.4586043017199 662.715326851502,693.3771769349762 663.6267915402028,698.5184377549845 666.8169183396943,706.5708868630642 668.8811181250454,714.5212685426368 667.0581884882799,721.370035702576 658.6137353633096,726.0909130229301 654.0296035779902,725.8207697503836 648.9629314955067,724.875261173563 644.7809167973568,726.1584487101275 642.8239480450728,732.6011169062306 643.1456414035645,734.3636506441401 644.5128388256835,737.6927843758157 644.2179530309008,739.0433094927455 628.4013581489403,759.7037537386512 626.471197479122,761.3914840184949 622.2891825216159,762.8024022219809 620.4126374980244,764.1930456164492 615.4263888848549,772.2596971125312 614.407692903745,779.4954331936215 616.1501990711745,786.7845722866067 619.4475571631116,794.9908902851371 620.3322140286882,799.3501904050322 620.3054062055934,816.3062617102707 618.6969388942964,821.7304513838615 613.3621890994963,831.8763223266361 604.7300814721889,858.6522164490642 600.7625288401366,866.8115758272205 594.3822755005176,871.234860269934 576.6623275124699,875.8264911016036 573.6330473922281,875.8534603952851 571.032691922909,874.5993816187703 568.5127599229261,872.8800523923546 565.6711343050214,871.5315365397757 562.856316769634,871.1944044360109 554.8944034230486,871.4506251141011 552.1063934513705,871.9765488971905 549.3451915621802,873.7565774198443 547.1469526613106,876.0624719593028 544.6538287438009,877.9098434867946 541.1688161495267,878.3952778661458 521.1702063100304,876.7569262799697 522.001247788803,883.6742141551817 521.438284022325,900.2102452295176 520.0174714727879,907.3549535787547 519.1864299940153,908.9388485523647 516.2643811661749,913.3264340360181 515.6209941897833,913.8656011216596 516.0767266638377,916.0020194475466 517.175845854883,916.5748680507152 518.4626198076882,917.033144110816 519.4545079656883,918.8527482701973 519.3472766732574,922.8355373018584 516.1035342275468,930.2615412697866 515.1384538926635,934.2842783882551 515.4601475105411,936.5954222731585 516.8005368501648,940.6044154997722 516.4788432322651,942.9154054531773 515.0848385058227,944.2898454380307 510.7151690459574,946.2908325217749 509.2407405907859,948.2580920434265 509.1603173808577,951.0270083237081 509.1829268601835,951.3112368728754 509.0801032009702,951.3101693566298 372.14592238217216,949.888671667816 374.34416099003937,940.6922155182006 372.81611704840844,939.1088530731731 372.02528730959705,938.623732907294 370.41681983073346,937.9566882258357 344.4936890587413,930.7132233827049 339.3063821042247,928.226734326794 336.933892887805,926.7105505836544 334.8830968872496,925.0528283376651 333.1137830337203,923.1255211737572 331.53212355611214,921.0431767418255 330.5670432087627,919.1831796464351 329.72259793397365,917.0198759213554 328.5564589768164,911.6552075398406 328.1945539923427,907.4225646902104 328.75751758662426,894.5280005603656 329.28026941228217,891.5956376022043 329.28026941228217,891.5551902478803 330.6072547441051,882.6294484344645 332.2291259903372,876.3526009941236 334.40055683020086,870.9855926139062 334.7624618146745,869.5089366009981 334.8428853519073,867.7895122844723 334.4809801341671,865.9621679554339 333.35505317888544,863.9392348899702 332.5106079040964,862.9479813924914 331.6527586287019,862.2601668289757 324.0125391537993,858.638939847048 322.0421664571956,857.3374208978679 320.79560442933877,856.244940188776 319.1871371837416,854.4848053539175 317.64568924147574,852.4616196440379 316.3589154450098,850.2090870776537 315.8361636193374,848.8534944284996 314.71023666405574,843.2623052759745 313.9462146932476,834.9996680858897 314.0668497658229,820.1115350011299 315.3134117936797,811.3205178164029 319.10671387977544,800.031944374922 321.5194146315378,798.2302298759714 323.44957555951777,797.0965480215353 324.69613758738944,796.6511690995994 328.9183641945419,795.9223625572977 335.0037319598248,795.5174674970453 344.77517073924884,795.7604046119628 346.2227913769135,795.4769775614816 347.5631807093716,795.0518358906639 348.68910789791977,794.4242414996922 349.69439978062627,793.6751714501298 351.22244372225725,792.2175037284047 352.30815914219653,790.7328177542028 353.2732394895606,787.2909510812793 363.5004105580299,720.2085612126338 363.4601990226874,716.4937638588759 361.12792157489145,711.8466662743126 356.8118676631377,708.0166759613363 351.5039254027646,702.3760819507692 348.0859325350292,696.9445503174084 347.5631807093716,695.762268613739 342.56352836402783,681.2560368126956 342.2820464502537,677.8503987197772 342.4831048267951,673.3633986002469 344.6947474352827,659.58331739305 346.7053316672289,652.1550684706992 346.7053316672289,647.0650910686093 344.41326575478996,634.2542937297662 346.62490812999613,630.2923543034993 346.7991589718301,630.1706537544055 347.16106395628896,629.8258340637466 347.4827574054053,628.6290952864097 347.7240275505705,627.4120556056426 345.49898117471446,622.1109658406955 344.3730539861662,617.2220356581615 344.29263068220007,616.1874120726878 344.7349592039063,614.6591209314163 345.57940424541397,612.7318113815717 347.6033924779953,610.2769631781387 349.01080134703625,608.9108730298987 350.41820998282543,607.9978795563505 352.8711229697446,606.8819850698728 355.4848820980482,606.1109946225479 369.65279809319196,605.644339099907 373.83481316500183,604.7515993554874 384.1424075374522,601.0723286147388 386.434473449891,599.7534322597753 388.40484591322826,598.1301471524865 390.18756353411135,596.222746358139 391.0722208107759,595.0458173245421 391.59497240316705,591.8531445118193 391.8362425483173,586.6106704723961 389.8122545490173,567.9447574126054 386.11278000077465,555.9135140665417 385.26833449273386,551.7921690108152 381.3275895660739,541.7281729130996 380.12123907355965,539.7382372824104 378.5127718279626,537.6670280328111 371.86444046839813,531.4463134118297 370.37660829539095,529.4155088447288 369.4115279480269,527.4185010819758 369.17025780287656,526.7076898359821 368.9289876577114,525.36728583469 368.8083525851363,521.3662509909519 369.331104410794,517.6222937687523 371.01999519362386,513.3906679205103 374.15650638085185,507.76395287394996 380.68420290109304,499.23849080816916 381.40801310329203,498.7102750838708 382.252458378081,497.93826137354466 387.80167055033775,494.7485456514967 400.3209075312606,494.70791165874147 413.885648163514,491.531612024628 427.00806050734224,490.6782563675625 440.2108959218553,488.341640463924 481.0659648930657,491.40970459898585 522.6850556018322,485.74080479500674 536.8529715969762,486.16751032556397 574.7591839901462,493.9561762343456 637.3821764295126,488.7276950203448 699.8577264948631,476.05465276393414 798.1082694155663,465.19527318279603 798.2105385523735,465.1839687145517Z" name="Borgou" name_en="Borgou Department" gn_name="Borgou Department" admin="Benin" adm0_a3="BEN" iso_3166_2="BJ-BO" iso_a2="BJ" postal="BO" type="Département" type_en="Department" wikidataid="Q29136"/><path d="M507.8061823949872,1241.001015395992 507.2033488879522,1249.5181123565935 508.5705457912848,1259.7144626796266 513.7712567299229,1269.3860189809902 521.438284022325,1278.5060616258788 527.1751509043096,1288.0282551449989 526.4781482816913,1298.892505116022 525.8615691284169,1301.2156263772138 525.6739146260578,1302.679302402902 524.8428731473072,1303.2029984334392 519.2400453808559,1302.0884629837133 516.5324591378701,1302.0616065375248 514.5486825624765,1303.2029984334392 513.905295586063,1306.076568979104 519.3472766732574,1369.9746931980346 519.07919896097,1373.5712689208322 518.2213496591024,1376.0270761223244 516.1571498737734,1378.7109597685921 513.7712567299229,1383.6357263346727 512.6453297157681,1385.3667262351041 512.377251744095,1387.16479218691 513.3691399020951,1390.5461554116525 515.5941863666958,1393.337048996265 522.4033643572303,1398.9052219746359 523.9046006355114,1401.3605016181612 522.8859046543796,1404.1645572740726 520.2319335388561,1405.5732685107632 516.9077681425885,1406.552648156646 513.8784880223318,1407.9881628327623 507.1497332417256,1417.3252957194495 508.00758228420733,1426.7421845402937 511.5194027016131,1436.69484875277 512.8061763950175,1447.57209568427 510.0449742464489,1458.4550772332382 509.34797188321676,1464.0738850721543 510.66155339975296,1469.1895927352523 512.6453297157681,1471.8244685672057 514.8435683572372,1473.400003501953 517.4975394727828,1474.1911154454847 520.7144738359979,1474.4928094671334 522.2425179373665,1475.6660567769998 522.7518655388611,1478.3007944485832 523.6097148407213,1490.267029511116 522.1620944680525,1493.1964036003608 518.971967668539,1495.294516982751 514.2806045908035,1499.4571238594483 511.3049403761444,1505.0338625555548 511.2245169068083,1510.348961952787 513.4495633714091,1521.2867738060718 512.9134076874412,1526.7754310983028 508.10759422024796,1540.7094948708352 508.0345997829212,1540.5867131365153 497.9280635537457,1523.5856802660362 493.9471068584623,1519.3367438013522 481.3474465735731,1508.7539947997493 476.3477942282295,1500.6169399695077 470.999640432514,1470.202191359349 458.6010385241661,1440.222558141425 456.1079142351712,1427.0710330815714 456.55024275686276,1413.8644117955766 461.4962797995104,1414.2266240260728 463.3996324929686,1414.1863779655212 464.9276764345994,1413.9247805767866 466.0536036231478,1413.3546300215457 466.6567787527716,1412.5899528208056 466.8578373625796,1412.2076127373032 466.9382606665457,1412.066750022786 466.9382606665457,1412.0466266308852 465.6916984054075,1400.488623320372 459.92802408925576,1371.5786137449384 460.2497175383723,1367.2035855191216 460.129082465797,1365.7541534291556 458.6412502927752,1364.0631267469682 446.3632834570026,1355.721710479779 442.42253853034276,1347.1313707196225 438.36115876437447,1331.7745445500777 437.5167132563189,1328.7136724537186 437.48990572159676,1324.659233853793 436.3103629970711,1322.1620572417924 434.8627423594063,1320.2354349484328 433.96468154865477,1317.905990743949 433.96468154865477,1306.298336132247 432.5572724463323,1301.4374030734286 430.6941312882166,1294.984929078604 430.02393662199495,1288.7469613662533 433.0800242719901,1283.0727280761344 441.2161880378283,1271.5554969000768 443.78973586405607,1269.8429206410099 447.52942194764137,1268.660891635216 448.1325973105319,1265.7863593434902 446.3632834570026,1259.029571835408 446.96645858662646,1251.6678289291604 450.8803955120309,1240.8661308348626 454.33860038165653,1240.698185645231 507.71290610052336,1241.0004869878892 507.8061823949872,1241.001015395992Z" name="Plateau" name_en="Plateau Department" gn_name="Plateau Department" admin="Benin" adm0_a3="BEN" iso_3166_2="BJ-PL" iso_a2="BJ" postal="PL" type="Département" type_en="Department" wikidataid="Q32108"/><path d="M495.8884902468698,1179.9147985481936 496.0245011781442,1180.9130657862938 498.11550878659034,1184.0990304003565 501.03755761440124,1191.5594600409945 507.2569642747706,1198.4817345868846 509.5624339493071,1202.2182325335514 510.2862443950125,1205.954600330683 507.8061823949872,1241.001015395992 507.71290610052336,1241.0004869878892 454.33860038165653,1240.698185645231 450.8803955120309,1240.8661308348626 446.96645858662646,1251.6678289291604 446.3632834570026,1259.029571835408 448.1325973105319,1265.7863593434902 447.52942194764137,1268.660891635216 443.78973586405607,1269.8429206410099 441.2161880378283,1271.5554969000768 433.0800242719901,1283.0727280761344 430.02393662199495,1288.7469613662533 430.6941312882166,1294.984929078604 432.5572724463323,1301.4374030734286 386.0323564635419,1280.245576337733 367.72263716519706,1274.476889954626 352.62985282457953,1273.1270144929972 338.94447688648455,1273.4695219161397 326.6665098174453,1271.4144624732942 316.8414559685771,1264.6781672962863 307.1504404931193,1256.107771032839 292.9825244979756,1250.216916325012 281.38815609579297,1247.7986863684093 228.9387189556518,1250.84161717858 223.83923888909592,1250.3836105103424 223.81822201020378,1245.8101139166497 223.60375968473505,1194.2612166456279 223.44291300548548,1153.082206349244 224.08629998187692,1111.617961865796 224.5420321965529,1081.783768068917 221.78083004798427,1059.4444209204075 220.46724853144804,1057.0419730999658 218.93433065769483,1056.5234411007102 218.1885866800287,1055.4403088639224 219.4753603734553,1049.0872373366437 219.4753603734553,1044.5644655511896 219.87747720126103,1042.3568475600603 228.40235353615952,1028.3023242543823 229.36743413045073,1023.6978221082402 228.26831493938326,1021.1531370080121 221.56636798189396,1012.6771104351307 220.2527862059793,1009.7618347723625 219.87747720126103,1006.6916121484845 219.77969360895608,998.9096858652523 224.4752224366009,999.2447860837935 238.4018680533277,999.7498019984428 243.30769332733684,999.3053881408945 244.6748904277836,999.3457893351346 247.5433239351391,999.0629796867457 270.07526960736976,993.0362438720293 274.35111175051435,992.3089701528544 277.48762293774223,992.0665442937685 279.0960901833392,992.4705869004414 281.87069638610836,993.6220993374259 284.08233876132925,995.0160170387909 286.0527114579184,996.6321289245654 293.06294780194173,1004.1736295433294 294.10845145327204,1004.9277477347649 295.3148019457716,1005.6145285992036 296.6819990462184,1006.1599099841252 298.1296196838831,1006.5638944880774 299.7380869294802,1006.7860850556011 307.63298078343473,1006.7052885652296 309.161024491799,1006.9476778363447 310.4075865196706,1007.432455047605 311.5335137082188,1008.1798151366734 312.45838228695914,1009.0483616049553 316.3187039096528,1014.0440369393411 318.22205683637753,1015.8416099960797 320.4739109802221,1017.3361962129685 322.92682373386015,1018.6085964141255 330.52683144013895,1020.8975287736041 331.6527586287019,1021.5236096775536 334.64182697536603,1023.9673076849997 335.88838923648933,1024.492391829008 337.2957978722785,1024.7549328534794 343.609032015358,1024.7347374869441 346.7053316672289,1025.2800128078156 353.8764148524511,1027.8919078737679 355.44467056269104,1028.2150238536697 357.012926039679,1028.3563870556995 363.138505573571,1028.1342451919948 367.56179055727944,1026.8754310871877 370.65808997588357,1025.4011847444563 372.90994435299496,1023.9673076849997 376.58261113324915,1021.1870078099704 378.59319536519536,1018.0632839560915 377.1455747275159,1016.5687087859873 375.2690295687798,1010.2804720274739 378.7540419731128,987.9384787510611 374.505007597957,964.6550491801593 372.62846267248756,961.0849202226739 370.2157616874587,957.9592639183072 372.14592238217216,949.888671667816 509.0801032009702,951.3101693566298 509.1829268601835,951.3112368728754 514.238194989705,1014.8407399459077 514.8435683572372,1022.445683900944 512.8061763950175,1031.243976918266 510.7419768690448,1034.313434580501 505.56807375353833,1040.1357189061307 504.2008763314193,1043.3933573989066 504.1472609445786,1045.701908004924 504.79064792099217,1050.5140216698858 504.79064792099217,1052.9300864261224 502.80687160496956,1063.7175409879037 502.4851782464558,1068.7037392787697 503.42345075825153,1074.90754418851 505.4340346379977,1080.653461858179 510.52751428421243,1091.4917706576537 512.2968285341445,1097.0349407890276 512.1627896780046,1102.7459747967846 510.125397715763,1107.5284681671098 507.41781095402024,1111.8735497642576 505.40722707426664,1116.278979208359 504.7102244516782,1121.0406663855497 504.1472609445786,1136.6020517037668 500.87671093515894,1153.082206349244 499.8848225177508,1169.4858235567588 498.97335782907203,1171.7982591601492 496.31938671354857,1176.7590699028985 495.7296153833615,1178.748706433859 495.8884902468698,1179.9147985481936Z" name="Collines" name_en="Collines Department" gn_name="Collines Department" admin="Benin" adm0_a3="BEN" iso_3166_2="BJ-CO" iso_a2="BJ" postal="CL" type="Département" type_en="Department" wikidataid="Q29141"/><path d="M506.32233935755505,1548.5541608435456 504.3349154469598,1560.1580289815718 504.2267611056926,1575.9604405247167 504.085938824126,1575.9704947698638 447.19167249056187,1581.2544146588004 446.61221992913937,1576.8413402007218 445.33761288398017,1576.0573185170902 444.0630060721022,1575.8613121902688 442.10207230003147,1574.1952478821095 442.94529058926713,1568.8341606622243 447.04688212385923,1558.811576186612 448.09238577517465,1552.4599670280995 446.96645858662646,1540.6470202496498 443.91037093663135,1538.4960494480742 442.7844435148163,1537.8929671838882 441.25639980643746,1537.309984666367 439.8087791687726,1536.9682352642371 436.95374966205213,1531.8954936875261 435.1040125045567,1508.2714163160708 434.8225308240641,1500.4962879601123 433.77702693946713,1472.6627309928833 432.95938919941494,1457.704305157856 430.3858416064538,1447.1297234492072 421.4990601036945,1432.7114082767134 421.9413883921341,1427.4533260728958 424.7964178988546,1422.4029366543768 429.01864450602193,1416.6815885328137 433.20065934456534,1414.4882209886282 440.4521660670055,1413.763797248214 456.55024275686276,1413.8644117955766 456.1079142351712,1427.0710330815714 458.6010385241661,1440.222558141425 470.999640432514,1470.202191359349 476.3477942282295,1500.6169399695077 481.3474465735731,1508.7539947997493 493.9471068584623,1519.3367438013522 497.9280635537457,1523.5856802660362 508.0345997829212,1540.5867131365153 508.10759422024796,1540.7094948708352 507.2301564516611,1543.2533905527978 506.32233935755505,1548.5541608435456Z" name="Ouémé" name_en="Ouémé Department" gn_name="Departement de l' Oueme" admin="Benin" adm0_a3="BEN" iso_3166_2="BJ-OU" iso_a2="BJ" postal="OU" type="Département" type_en="Department" wikidataid="Q29169"/><path d="M317.3505943986792,259.5000922635121 324.4546579246401,256.11021901808044 325.66548112633853,254.87725918042753 326.86756842725316,256.2734746975283 377.34663333732374,346.80929916079765 390.133947998134,365.07977034942525 392.60026451914007,365.1611736461525 395.81719924360084,365.7716961943667 398.10926492277315,366.85705721625817 399.39603871925374,367.61001728321133 400.68281251573444,368.1798203630494 401.8891630082487,368.3019202002316 402.57276167510554,368.50542004613715 405.6020417903785,370.6217840541164 414.04649477144625,378.74753587808067 398.6320167484457,391.59911737606706 393.4849215625381,397.5053776760717 390.8309506656108,402.0822490013971 389.8926778529836,405.3028476723459 389.4101377959348,409.61485014710667 390.7103155930356,493.12316391724073 387.80167055033775,494.7485456514967 382.252458378081,497.93826137354466 381.40801310329203,498.7102750838708 380.68420290109304,499.23849080816916 374.15650638085185,507.76395287394996 371.01999519362386,513.3906679205103 369.331104410794,517.6222937687523 368.8083525851363,521.3662509909519 368.9289876577114,525.36728583469 369.17025780287656,526.7076898359821 369.4115279480269,527.4185010819758 370.37660829539095,529.4155088447288 371.86444046839813,531.4463134118297 378.5127718279626,537.6670280328111 380.12123907355965,539.7382372824104 381.3275895660739,541.7281729130996 385.26833449273386,551.7921690108152 386.11278000077465,555.9135140665417 389.8122545490173,567.9447574126054 391.8362425483173,586.6106704723961 391.59497240316705,591.8531445118193 391.0722208107759,595.0458173245421 390.18756353411135,596.222746358139 388.40484591322826,598.1301471524865 386.434473449891,599.7534322597753 384.1424075374522,601.0723286147388 373.83481316500183,604.7515993554874 369.65279809319196,605.644339099907 355.4848820980482,606.1109946225479 352.8711229697446,606.8819850698728 350.41820998282543,607.9978795563505 349.01080134703625,608.9108730298987 347.6033924779953,610.2769631781387 345.57940424541397,612.7318113815717 344.7349592039063,614.6591209314163 344.29263068220007,616.1874120726878 344.3730539861662,617.2220356581615 345.49898117471446,622.1109658406955 271.844583460899,619.7781094582072 262.1133564500841,623.4295079851537 253.01211257016308,628.6696632932317 244.4738322845089,635.6132096788928 233.45583124396148,641.0959749699582 220.41384243736596,644.2597265867884 204.03428383373472,642.4547802597821 193.0028792590855,639.9196781152 180.40321874092982,638.4188614850558 169.4522374702467,638.0875967799561 154.76156964944525,640.9945708452608 151.494398964407,642.200756040173 151.4640021215841,640.1898813092313 148.13983646593798,631.2860261430674 120.76908486942907,613.0764904246735 83.61349080836305,588.3692617430769 61.52408284142469,573.689087176322 46.5919356034149,563.7358420025431 21.928770768670823,547.3252400085645 2.305469674514245,534.2485288658849 0.2144625848324156,530.3020881518023 0,524.2771335882957 3.6190517098146855,497.2879269954544 7.4257574032242335,482.6858571520494 7.613411905583379,472.43707127869726 5.549212379632713,448.81171116005487 9.275494863106733,440.04270974148034 23.376391400725442,426.6094593372942 26.727364879481136,421.78322646397714 27.531598275758473,419.08528614698696 27.933715103571604,413.0925409487229 28.44306322382307,410.2858248276033 32.491039065796265,402.5498796324356 32.115730320456365,399.7088784520037 29.9442992426963,394.3791762554043 29.32772034880025,391.55143663550535 30.078338098858403,386.33645976550116 36.72666966952911,370.1738846991986 44.63496711050943,374.54211773611723 48.119979704783546,375.01691062275256 52.75772687695845,375.05760694390784 53.85684606802591,373.6535686072681 54.5002330444174,370.5876565551872 54.258963155217536,367.50805434599454 52.75772687695845,366.0970941589807 50.693527091629356,365.1202601508641 49.78206240292108,362.73239071847024 49.648023546788444,359.78815355049176 49.94290908217064,357.13552925600715 50.85437403025734,356.5249375126737 53.052612671748605,353.1937351073678 54.580656513731356,350.0252253010904 56.29635485808068,347.6911637847215 57.44908995472364,347.2297711976114 58.65544043819257,347.6572379624955 64.33869141457207,348.5596602987279 66.08119732267463,349.7945364532609 67.39477909856714,351.02260797231685 68.78878408439526,351.5925348214582 69.53940209383184,352.16245713220655 70.90659951595086,354.72705634817237 71.36233173060474,355.33087783091554 72.99760686501847,355.2494638629582 75.81242465980635,353.8247070214986 76.83112064091611,353.5465373520868 84.81984129183199,354.4217514231483 87.44700458426806,355.33087783091554 88.14400694750023,356.6199190056949 89.9937444073606,359.2318565302624 91.8970972540617,361.00249588798175 92.7549465559293,359.8152901939503 93.049832350712,355.60225656962194 90.10097544040575,352.56954236734697 88.4657005653778,349.78096660733155 88.03677591445508,346.92443613164414 87.9831602682285,343.9524445400325 87.44700458426806,340.83104952295497 86.96446428711879,340.8446212337268 84.49814767393231,339.71817329922436 83.74752992388149,339.20244441603717 83.5866829852535,337.9945397991051 84.04241545928582,334.7303860520619 83.74752992388149,333.65813850015707 81.30802113382671,333.0948630798677 79.67274599942034,334.567513767361 78.70766566450763,334.92718926587304 78.43958769283442,330.963879243464 79.7799770324655,330.38022372519123 88.3316617092157,328.45277067654473 89.83289746873261,327.39400776043203 91.6022117186574,322.6090286173917 92.7549465559293,321.2651073281668 95.51614896387636,321.29225726270136 100.69005182001918,323.75609377350776 103.37083075865964,324.69273771907086 102.03044115965017,320.16551754593496 101.01174517854042,311.2120854305678 96.15953568088939,303.24202004429617 97.44630963369441,299.9491981975286 100.12708831291962,297.3895231223226 102.83467481528383,293.26805781015787 105.32779925156518,295.25073486793445 107.28476748510701,298.2450210935369 106.93626630348354,299.5893553823771 109.2149284142814,299.62330288195403 110.58212557704407,298.9579284454146 111.92251491664562,298.13638682410993 114.17436920434126,297.62037267259916 119.08019434819673,297.86480098410766 123.28901686943419,299.0665615188923 131.89431693303248,303.1605500716037 135.19167476556163,297.0636163649259 135.59379185277538,295.0198779815101 135.00402052258835,292.4396631231865 132.4572806994884,289.92047212097907 131.89431693303248,287.8357945872494 133.1810908858375,284.6781091322142 136.07633189053882,286.12454937562353 139.10561201078065,289.5673712437562 140.74088714518703,292.3989222493359 142.51020113576288,290.23282952611964 144.33313077252845,289.4994673299178 146.18286797301033,290.23282952611964 147.97898978666626,292.3989222493359 152.50950592580344,288.5488015602148 152.00015806495253,285.1738407119904 149.48022580553956,281.5746187220193 147.97898978666626,277.0719501396033 150.23084381499825,272.09356792175896 155.40474718991265,268.73144262735167 161.27565266865133,266.1571054344068 165.5380908360932,263.5283364980688 163.07177422295095,257.92405831819013 163.39346810020697,255.71619541940106 165.5380908360932,252.58431323289813 168.9158721379585,250.07735239175813 172.05652711601715,249.05115674658813 172.15961458369117,249.01747324670626 174.8135854398363,247.56351174497468 176.3148217180879,243.78579469576655 180.5504520624128,246.1706711560092 185.56350849869932,247.20341412843464 209.95859562114862,249.1669443631586 209.42243993718077,250.9062214218475 208.83266860699374,254.6020487689385 208.37693613296142,256.34119722486565 212.8806444489816,256.06945814464825 218.32262553618338,266.1571054344068 223.3892973592663,264.42498130593896 227.81258220597252,262.07466174740074 239.79566357144347,259.54085150057705 244.75510436149602,257.15640897118345 248.80308046284756,255.8792398233077 260.2768137080597,256.6944569497074 265.18263885188566,256.34119722486565 275.36959840369326,252.24462160975847 280.32903893437475,251.22553758163681 284.8327475097734,252.58431323289813 287.3258716866689,250.9266034241653 290.4891906630655,251.38859168148844 297.2179454436717,254.54769964320926 308.1823305686471,258.78680538163536 317.3505943986792,259.5000922635121Z" name="Atakora" name_en="Atakora Department" gn_name="Atakora Department" admin="Benin" adm0_a3="BEN" iso_3166_2="BJ-AK" iso_a2="BJ" postal="AK" type="Département" type_en="Department" wikidataid="Q29154"/><path d="M153.3941630507806,765.657923182661 149.56064927487563,761.7492788932278 146.9334859824469,755.3627624453659 146.10244450369638,750.0425620916794 147.1747561310326,746.6463778736493 151.78569548009798,739.570008700289 153.3941630507806,736.2544518869962 153.71585640929445,733.5870598782205 153.63543293995838,728.3398246624575 154.25201209326235,725.739726448378 154.62732109798065,722.5587213566822 152.58992939513956,710.3536574401086 152.26823577724724,690.04634086712 151.78569548009798,661.4687911793791 151.494398964407,642.200756040173 154.76156964944525,640.9945708452608 169.4522374702467,638.0875967799561 180.40321874092982,638.4188614850558 193.0028792590855,639.9196781152 204.03428383373472,642.4547802597821 220.41384243736596,644.2597265867884 233.45583124396148,641.0959749699582 244.4738322845089,635.6132096788928 253.01211257016308,628.6696632932317 262.1133564500841,623.4295079851537 271.844583460899,619.7781094582072 345.49898117471446,622.1109658406955 347.7240275505705,627.4120556056426 347.4827574054053,628.6290952864097 347.16106395628896,629.8258340637466 346.7991589718301,630.1706537544055 346.62490812999613,630.2923543034993 344.41326575478996,634.2542937297662 346.7053316672289,647.0650910686093 346.7053316672289,652.1550684706992 344.6947474352827,659.58331739305 342.4831048267951,673.3633986002469 342.2820464502537,677.8503987197772 342.56352836402783,681.2560368126956 347.5631807093716,695.762268613739 348.0859325350292,696.9445503174084 351.5039254027646,702.3760819507692 356.8118676631377,708.0166759613363 361.12792157489145,711.8466662743126 363.4601990226874,716.4937638588759 363.5004105580299,720.2085612126338 353.2732394895606,787.2909510812793 352.30815914219653,790.7328177542028 351.22244372225725,792.2175037284047 349.69439978062627,793.6751714501298 348.68910789791977,794.4242414996922 347.5631807093716,795.0518358906639 346.2227913769135,795.4769775614816 344.77517073924884,795.7604046119628 335.0037319598248,795.5174674970453 328.9183641945419,795.9223625572977 324.69613758738944,796.6511690995994 323.44957555951777,797.0965480215353 321.5194146315378,798.2302298759714 319.10671387977544,800.031944374922 315.3134117936797,811.3205178164029 314.0668497658229,820.1115350011299 313.9462146932476,834.9996680858897 314.71023666405574,843.2623052759745 315.8361636193374,848.8534944284996 316.3589154450098,850.2090870776537 317.64568924147574,852.4616196440379 319.1871371837416,854.4848053539175 320.79560442933877,856.244940188776 322.0421664571956,857.3374208978679 324.0125391537993,858.638939847048 331.6527586287019,862.2601668289757 332.5106079040964,862.9479813924914 333.35505317888544,863.9392348899702 334.4809801341671,865.9621679554339 334.8428853519073,867.7895122844723 334.7624618146745,869.5089366009981 334.40055683020086,870.9855926139062 332.2291259903372,876.3526009941236 330.6072547441051,882.6294484344645 329.28026941228217,891.5551902478803 329.28026941228217,891.5956376022043 328.75751758662426,894.5280005603656 328.1945539923427,907.4225646902104 328.5564589768164,911.6552075398406 329.72259793397365,917.0198759213554 330.5670432087627,919.1831796464351 331.53212355611214,921.0431767418255 333.1137830337203,923.1255211737572 334.8830968872496,925.0528283376651 336.933892887805,926.7105505836544 339.3063821042247,928.226734326794 344.4936890587413,930.7132233827049 370.41681983073346,937.9566882258357 372.02528730959705,938.623732907294 372.81611704840844,939.1088530731731 374.34416099003937,940.6922155182006 372.14592238217216,949.888671667816 370.2157616874587,957.9592639183072 372.62846267248756,961.0849202226739 374.505007597957,964.6550491801593 378.7540419731128,987.9384787510611 375.2690295687798,1010.2804720274739 377.1455747275159,1016.5687087859873 378.59319536519536,1018.0632839560915 376.58261113324915,1021.1870078099704 372.90994435299496,1023.9673076849997 370.65808997588357,1025.4011847444563 367.56179055727944,1026.8754310871877 363.138505573571,1028.1342451919948 357.012926039679,1028.3563870556995 355.44467056269104,1028.2150238536697 353.8764148524511,1027.8919078737679 346.7053316672289,1025.2800128078156 343.609032015358,1024.7347374869441 337.2957978722785,1024.7549328534794 335.88838923648933,1024.492391829008 334.64182697536603,1023.9673076849997 331.6527586287019,1021.5236096775536 330.52683144013895,1020.8975287736041 322.92682373386015,1018.6085964141255 320.4739109802221,1017.3361962129685 318.22205683637753,1015.8416099960797 316.3187039096528,1014.0440369393411 312.45838228695914,1009.0483616049553 311.5335137082188,1008.1798151366734 310.4075865196706,1007.432455047605 309.161024491799,1006.9476778363447 307.63298078343473,1006.7052885652296 299.7380869294802,1006.7860850556011 298.1296196838831,1006.5638944880774 296.6819990462184,1006.1599099841252 295.3148019457716,1005.6145285992036 294.10845145327204,1004.9277477347649 293.06294780194173,1004.1736295433294 286.0527114579184,996.6321289245654 284.08233876132925,995.0160170387909 281.87069638610836,993.6220993374259 279.0960901833392,992.4705869004414 277.48762293774223,992.0665442937685 274.35111175051435,992.3089701528544 270.07526960736976,993.0362438720293 247.5433239351391,999.0629796867457 244.6748904277836,999.3457893351346 243.30769332733684,999.3053881408945 238.4018680533277,999.7498019984428 224.4752224366009,999.2447860837935 219.77969360895608,998.9096858652523 219.34132125791476,964.0149196908017 219.01962789939347,939.8363191027397 218.64431889467517,911.3651883244459 218.21539424375982,878.7188993726021 216.82138925793174,871.5989627607049 214.757189731959,865.3146235256753 209.42243993718077,855.9614918515282 193.31095926043005,839.0667919145282 172.58853923461388,817.3857282766173 171.26036698810995,815.3443007052853 166.34232449174897,807.784767556339 162.5892341851875,797.3730109181479 160.81992019461902,770.9029310658395 157.84425572058166,763.4909757522485 153.3941630507806,765.657923182661Z" name="Donga" name_en="Donga Department" gn_name="Donga" admin="Benin" adm0_a3="BEN" iso_3166_2="BJ-DO" iso_a2="BJ" postal="DO" type="Département" type_en="Department" wikidataid="Q29161"/><path d="M223.94207179182135,1272.7584450604543 223.83923888909592,1250.3836105103424 228.9387189556518,1250.84161717858 281.38815609579297,1247.7986863684093 292.9825244979756,1250.216916325012 307.1504404931193,1256.107771032839 316.8414559685771,1264.6781672962863 326.6665098174453,1271.4144624732942 338.94447688648455,1273.4695219161397 352.62985282457953,1273.1270144929972 367.72263716519706,1274.476889954626 386.0323564635419,1280.245576337733 432.5572724463323,1301.4374030734286 433.96468154865477,1306.298336132247 433.96468154865477,1317.905990743949 434.8627423594063,1320.2354349484328 436.3103629970711,1322.1620572417924 437.48990572159676,1324.659233853793 437.5167132563189,1328.7136724537186 438.36115876437447,1331.7745445500777 442.42253853034276,1347.1313707196225 446.3632834570026,1355.721710479779 458.6412502927752,1364.0631267469682 460.129082465797,1365.7541534291556 460.2497175383723,1367.2035855191216 459.92802408925576,1371.5786137449384 465.6916984054075,1400.488623320372 466.9382606665457,1412.0466266308852 466.9382606665457,1412.066750022786 466.8578373625796,1412.2076127373032 466.6567787527716,1412.5899528208056 466.0536036231478,1413.3546300215457 464.9276764345994,1413.9247805767866 463.3996324929686,1414.1863779655212 461.4962797995104,1414.2266240260728 456.55024275686276,1413.8644117955766 440.4521660670055,1413.763797248214 433.20065934456534,1414.4882209886282 429.01864450602193,1416.6815885328137 424.7964178988546,1422.4029366543768 421.9413883921341,1427.4533260728958 421.4990601036945,1432.7114082767134 343.4481854074258,1433.0333244812725 341.63865955202095,1431.4639758805404 337.336009407621,1433.8381107776866 334.6016152067423,1434.951389513085 332.91272465717907,1434.763607946512 330.6474665127287,1433.8381107776866 321.8008963120452,1427.2923608734786 320.39348767625614,1425.9845095511587 319.8305240819746,1424.8174919423668 318.62417358946016,1420.223088147556 315.11235341713825,1414.9510449657741 310.93033857859484,1412.7777687592536 306.7081119714278,1406.8345955400162 301.2661308711258,1398.5297558815844 297.1243278011766,1395.3901336792514 295.63649562816954,1394.7259720241454 293.86718154137355,1393.4378906298698 290.65024681691284,1388.0170607407215 288.1839302959065,1376.7116820890687 284.8061489635283,1364.5865421447854 280.8251925015114,1357.674581528114 277.527834706366,1355.6009132192662 276.5627541257353,1353.9835603353315 275.3161920978785,1351.1044821351882 265.2900794059357,1338.2249296479781 261.2689111753099,1335.2246395942675 259.20471164065276,1332.727693702382 258.1994195246797,1330.667001534992 257.7973025383305,1325.7466968081105 257.3147624812964,1323.9745293372434 255.8269303082746,1321.8196982331121 254.90206172953418,1319.8058002774312 253.41422932324565,1313.1328306046785 239.80927692238345,1284.3016098963515 237.83890469231284,1281.091714709176 232.32990405539846,1274.4634585654915 223.94207179182135,1272.7584450604543Z" name="Zou" name_en="Zou Department" gn_name="Zou Department" admin="Benin" adm0_a3="BEN" iso_3166_2="BJ-ZO" iso_a2="BJ" postal="ZO" type="Département" type_en="Department" wikidataid="Q29172"/><path d="M219.85066937817356,1414.3203212075755 224.56884001964036,1412.9251284654242 224.381185776667,1374.7924690256607 224.22033883803903,1337.0903912491315 224.05949189941103,1298.3016458419352 223.94207179182135,1272.7584450604543 232.32990405539846,1274.4634585654915 237.83890469231284,1281.091714709176 239.80927692238345,1284.3016098963515 253.41422932324565,1313.1328306046785 254.90206172953418,1319.8058002774312 255.8269303082746,1321.8196982331121 257.3147624812964,1323.9745293372434 257.7973025383305,1325.7466968081105 258.1994195246797,1330.667001534992 259.20471164065276,1332.727693702382 261.2689111753099,1335.2246395942675 265.2900794059357,1338.2249296479781 275.3161920978785,1351.1044821351882 276.5627541257353,1353.9835603353315 277.527834706366,1355.6009132192662 280.8251925015114,1357.674581528114 284.8061489635283,1364.5865421447854 288.1839302959065,1376.7116820890687 290.65024681691284,1388.0170607407215 293.86718154137355,1393.4378906298698 295.63649562816954,1394.7259720241454 297.1243278011766,1395.3901336792514 301.2661308711258,1398.5297558815844 306.7081119714278,1406.8345955400162 310.93033857859484,1412.7777687592536 315.11235341713825,1414.9510449657741 318.62417358946016,1420.223088147556 319.8305240819746,1424.8174919423668 320.39348767625614,1425.9845095511587 321.8008963120452,1427.2923608734786 330.6474665127287,1433.8381107776866 332.91272465717907,1434.763607946512 334.6016152067423,1434.951389513085 337.336009407621,1433.8381107776866 341.63865955202095,1431.4639758805404 343.4481854074258,1433.0333244812725 345.82067439056436,1439.3775770572042 344.57411236270747,1443.3274782045833 342.9656451171105,1446.3652603614987 338.8640535825183,1456.8125081661053 337.69791462536114,1459.092276976677 335.56669555410633,1461.5664484018173 331.8270092372545,1468.0701308165067 330.8887366578791,1470.6648033201009 330.52683144013895,1472.883975921628 331.0093714971876,1476.1020407422443 331.2506416423528,1481.1971392179646 327.7924372392602,1488.2628910096114 311.97584222991037,1480.3524400212777 303.97371753728237,1478.0931764995696 295.3148019457716,1477.7512666481284 281.1870977192516,1480.815014307835 264.80753911562033,1486.8149137629305 240.412452285274,1492.5463917877955 234.74260504042732,1492.4458417094495 230.35953159207597,1491.9028703093293 216.1916155969322,1485.1389932402094 215.10519445799034,1484.6383732177378 217.14308261642353,1481.9142493898912 218.1885866800287,1477.8985480377416 216.66054257866008,1471.6367439371109 214.67676626264497,1466.3266998779518 213.55083924846792,1461.8545539539525 213.38999230983995,1457.4224763616362 215.34696106214602,1446.525990834357 214.810805378156,1442.918201665353 212.47852762115375,1440.115049996658 208.6313392694382,1437.2459600516943 208.21608945371187,1436.9362779296448 205.29404036649308,1432.6307199129171 200.25417636650502,1414.186168616321 219.85066937817356,1414.3203212075755Z" name="Kouffo" name_en="Kouffo Department" gn_name="Kouffo Department" admin="Benin" adm0_a3="BEN" iso_3166_2="BJ-KO" iso_a2="BJ" postal="CF" type="Département" type_en="Department" wikidataid="Q29173"/><path d="M227.46408102436376,1523.0828440102612 225.02457249367268,1522.8013717604863 222.98718053145316,1521.5950560675892 220.8157497130789,1519.859282033296 218.7783580102157,1517.8084911542473 217.22350634511596,1515.6772416225226 216.39246460698686,1513.0231832317124 216.5533112862365,1510.6304615794431 217.00904376026872,1508.458876377739 216.95542837344277,1506.4414139487628 214.1138027555675,1501.2468013883245 210.76282927681177,1498.5321122471655 209.10074657866687,1495.6162692096673 211.24536957395372,1489.797787062794 215.10519445799034,1484.6383732177378 216.1916155969322,1485.1389932402094 230.35953159207597,1491.9028703093293 234.74260504042732,1492.4458417094495 240.412452285274,1492.5463917877955 264.80753911562033,1486.8149137629305 281.1870977192516,1480.815014307835 295.3148019457716,1477.7512666481284 303.97371753728237,1478.0931764995696 311.97584222991037,1480.3524400212777 327.7924372392602,1488.2628910096114 326.3850281369379,1494.966270115532 326.6665098174453,1499.6919370253863 326.18396999366314,1502.4937375402367 325.5807946307726,1504.2431552432656 323.44957555951777,1506.3745973840837 322.1225899944283,1508.0703417143723 320.15221753110575,1511.247287046758 319.347983791674,1513.4389306859025 319.02629034254267,1515.8584077679716 319.3077722563167,1522.8820020851292 320.1924292997148,1537.551219100441 319.91094738594074,1542.8783630995829 319.1871371837416,1545.9807364492924 317.7395165460769,1549.6994658446774 312.0562655338765,1564.3254327816153 310.72927996878695,1569.738567216872 311.5335137082188,1577.7439680184652 315.51447040348756,1583.4981769188264 317.7395165460769,1590.2568749576494 318.62417358946016,1594.9187688592876 318.47673074889616,1597.1558840483958 318.4754866823358,1597.1747591595552 291.71337593710024,1600.2111430961652 223.0052264582931,1616 221.1374430715707,1610.5909717747084 226.49900068945846,1607.7580180578004 259.8210812340274,1599.8950848006402 265.20944667502476,1599.5735919949882 260.3304290949004,1580.5505579227754 255.2905650948902,1561.0825951953557 248.6154259605105,1550.3826871360495 246.3903794959097,1548.721006267329 240.81435955255327,1545.8599176550574 239.0986612082039,1544.4595022235894 238.53569770112642,1542.194683284823 239.17908467751792,1536.632976558087 238.8573910596182,1534.0262621271652 237.2221161846124,1531.8148692640261 232.90606211156557,1528.2698596844643 232.23586757144295,1526.4671608558062 231.88736638981945,1523.498349070304 230.01082110686428,1522.8415822682082 227.46408102436376,1523.0828440102612Z" name="Mono" name_en="Mono Department" gn_name="Mono" admin="Benin" adm0_a3="BEN" iso_3166_2="BJ-MO" iso_a2="BJ" postal="CF" type="Département" type_en="Department" wikidataid="Q29135"/><path d="M415.00277728760017,1584.243787985271 401.2875708895096,1585.5174946385298 380.49570388715813,1590.1377833705078 318.4754866823358,1597.1747591595552 318.47673074889616,1597.1558840483958 318.62417358946016,1594.9187688592876 317.7395165460769,1590.2568749576494 315.51447040348756,1583.4981769188264 311.5335137082188,1577.7439680184652 310.72927996878695,1569.738567216872 312.0562655338765,1564.3254327816153 317.7395165460769,1549.6994658446774 319.1871371837416,1545.9807364492924 319.91094738594074,1542.8783630995829 320.1924292997148,1537.551219100441 319.3077722563167,1522.8820020851292 319.02629034254267,1515.8584077679716 319.347983791674,1513.4389306859025 320.15221753110575,1511.247287046758 322.1225899944283,1508.0703417143723 323.44957555951777,1506.3745973840837 325.5807946307726,1504.2431552432656 326.18396999366314,1502.4937375402367 326.6665098174453,1499.6919370253863 326.3850281369379,1494.966270115532 327.7924372392602,1488.2628910096114 331.2506416423528,1481.1971392179646 331.0093714971876,1476.1020407422443 330.52683144013895,1472.883975921628 330.8887366578791,1470.6648033201009 331.8270092372545,1468.0701308165067 335.56669555410633,1461.5664484018173 337.69791462536114,1459.092276976677 338.8640535825183,1456.8125081661053 342.9656451171105,1446.3652603614987 344.57411236270747,1443.3274782045833 345.82067439056436,1439.3775770572042 343.4481854074258,1433.0333244812725 421.4990601036945,1432.7114082767134 430.3858416064538,1447.1297234492072 432.95938919941494,1457.704305157856 433.77702693946713,1472.6627309928833 434.8225308240641,1500.4962879601123 435.1040125045567,1508.2714163160708 436.95374966205213,1531.8954936875261 439.8087791687726,1536.9682352642371 441.25639980643746,1537.309984666367 442.7844435148163,1537.8929671838882 443.91037093663135,1538.4960494480742 446.96645858662646,1540.6470202496498 448.09238577517465,1552.4599670280995 447.04688212385923,1558.811576186612 442.94529058926713,1568.8341606622243 430.70753528885166,1570.3415013697645 425.1985346519373,1571.8689224115822 420.6144028270298,1574.8299247412385 417.3840645684822,1577.904741293063 415.00277728760017,1584.243787985271Z" name="Atlantique" name_en="Atlantique Department" gn_name="Atlantique Department" admin="Benin" adm0_a3="BEN" iso_3166_2="BJ-AQ" iso_a2="BJ" postal="AQ" type="Département" type_en="Department" wikidataid="Q29147"/><path d="M447.19167249056187,1581.2544146588004 415.00277728760017,1584.243787985271 417.3840645684822,1577.904741293063 420.6144028270298,1574.8299247412385 425.1985346519373,1571.8689224115822 430.70753528885166,1570.3415013697645 442.94529058926713,1568.8341606622243 442.10207230003147,1574.1952478821095 444.0630060721022,1575.8613121902688 445.33761288398017,1576.0573185170902 446.61221992913937,1576.8413402007218 447.19167249056187,1581.2544146588004Z" name="Littoral" name_en="Littoral Department" gn_name="Littoral" admin="Benin" adm0_a3="BEN" iso_3166_2="BJ-LI" iso_a2="BJ" postal="LI" type="Département" type_en="Department" wikidataid="Q29158"/></svg>