<?xml version="1.0"?><svg fill="#3498db" stroke="#ecf0f1" stroke-width="1" width="800" height="608" viewBox="0 0 800 608" xmlns="http://www.w3.org/2000/svg"><path d="M672.8093378943463,86.93439215300563 673.1794136651955,100.31908199866649 678.5732458456558,105.772092651361 686.3912719087751,109.45774075203259 693.9668794045355,114.57831631714917 708.6938592644365,135.40733879762288 746.9961277699604,245.77228781010436 749.5415321090511,259.6337265300779 748.6324586700496,269.75016683043555 743.905280188509,292.8509561571817 743.6022555133603,315.8447782661485 746.8749184863495,340.49794460083615 754.5717346793152,363.4589673815883 768.0866175979553,381.37706475228396 788.6922685321334,400.6679960114827 797.176948294104,413.16588482271317 798.6314649755643,425.2709852150327 790.1467852136036,434.49297472317465 777.2985559938146,434.00999536197986 763.7230681401761,428.1085414025396 753.1172185843683,421.05989755527037 747.9658055575941,419.15810274634714 736.6933028892817,419.6109121215288 730.5722120749326,417.02989406514786 721.4208786141502,409.3773116544835 716.511885327497,407.6264060736746 698.9970819747898,409.3773116544835 686.754901518834,406.75095092219755 653.3616262999633,394.41891498140535 645.604204585584,389.24146903448514 640.9376304525971,380.95440559050303 633.9074673720477,323.37826320105574 627.0591185102056,300.3546610357958 607.9079842574387,254.84720407585485 602.8171761657119,232.18218367969675 600.4535872180708,184.64342187097967 604.5590117122671,138.30472966427183 615.3063056208122,149.30375493557432 626.0433864136863,142.45360287057275 637.6394338106359,129.537886306088 650.7625322968279,122.6160286738872 663.4561474809038,119.95191300158072 663.8379105464393,113.12503379225636 658.8272728039906,103.96683676340768 655.3914069737411,94.21371320301267 656.6798568800112,89.71767864898169 660.4974851893415,87.43395826701534 665.9853264704185,86.74408175009509 672.6184563615786,86.93439215303016 672.8093378943463,86.93439215300563Z" name="Temburong" name_en="Temburong District" gn_name="Temburong District" admin="Brunei" adm0_a3="BRN" iso_3166_2="BN-TE" iso_a2="BN" postal="TE" type="Daerah-Daerah" type_en="District" wikidataid="Q263285"/><path d="M576.3664928779664,98.30529741941378 562.9997860437195,111.61775532445171 561.1210354035388,120.60510206965581 560.6361970961078,130.3776621139601 556.818090880758,139.30416111536059 547.4849432012387,145.02849251620256 537.1821177341545,145.27015083873056 526.394453373283,143.45770774998806 515.6673939473608,142.88376583108393 502.51614005251133,146.47844197565132 491.9102904966446,153.10887072647813 473.0015759840478,171.08145559423437 463.06237954066603,177.31880954569112 441.54765575390167,186.304654930622 436.50830025688145,190.94431013580902 436.4270186320248,190.7451169539132 432.3967958388729,180.8683370899903 436.82095069075905,162.03532542575704 438.76030567880656,149.18245087259524 443.8814155868356,137.4015386650222 446.15409835050764,122.44833210355462 447.3964977551124,106.42208726553501 446.471676399896,92.64367513337793 545.1096581632121,33.12021668281524 620.9850284346569,1.8083632143227346 635.6828988329796,0 646.7540218683441,4.282951365348094 647.6129884724979,11.896965674045255 639.0710444266482,17.892893166152923 620.7464266653084,26.053863418966674 615.8789502190467,33.92915072403479 606.1439967401374,57.17337981808516 604.4260641182154,64.16778292426615 600.4652739263025,72.18501909916537 582.2360972245788,89.00401697261609 576.3664928779664,98.30529741941378Z" name="Brunei and Muara" name_en="Brunei-Muara District" gn_name="Brunei and Muara District" admin="Brunei" adm0_a3="BRN" iso_3166_2="BN-BM" iso_a2="BN" postal="BM" type="Daerah-Daerah" type_en="District" wikidataid="Q153009"/><path d="M436.50830025688145,190.94431013580902 435.7901945496801,191.6054544516232 435.42656493955263,201.25544617169746 439.7901149837275,212.09819571119417 451.12322317344365,233.66201694426903 454.51709425727205,245.74208775098364 456.51705476750834,258.69756536421374 459.36548319531283,326.986437070068 462.8805647355925,348.36310337580295 473.3652044213349,364.6515178008585 484.8801268297584,368.8178706451295 493.5466219831196,367.3988996415816 497.9101714409479,370.25193157663415 496.5768646296413,386.9772596386116 491.1830318628246,409.1056198022799 486.8194824049669,418.88641701192444 480.51657737193995,428.8330206048723 466.39719770198906,442.39589267371764 466.2143053643472,442.2965168760376 464.8809984804831,441.57205921413725 445.27532728109935,430.8408982688619 434.33615082692035,415.6266474883813 429.7604847399945,397.78544869438264 420.57884884260505,380.72845230501974 409.2760435259101,366.8257441368357 395.0642046724412,353.1037341754257 382.428092471892,337.28286757933313 368.94351187076467,323.9222276264775 350.6711480826233,312.64460990405644 347.1560664416561,298.04515353176083 349.9135871613633,280.2744917917289 342.27737577531417,268.40682727841204 328.7624925053567,267.6065779659483 317.9748283408465,266.2023636353169 310.39922123789717,256.35762646815317 301.39940029907535,247.20724393834993 295.6116364218144,233.82859213297078 290.64461755207185,219.77725842456485 311.0890186406898,212.448014570783 323.4008713456848,200.39073022200455 332.4200189301628,183.48138289040463 353.6078585098935,162.0761154874577 424.4725910389682,105.91743220413841 446.471676399896,92.64367513337793 447.3964977551124,106.42208726553501 446.15409835050764,122.44833210355462 443.8814155868356,137.4015386650222 438.76030567880656,149.18245087259524 436.82095069075905,162.03532542575704 432.3967958388729,180.8683370899903 436.4270186320248,190.7451169539132 436.50830025688145,190.94431013580902Z" name="Tutong" name_en="Tutong District" gn_name="Tutong District" admin="Brunei" adm0_a3="BRN" iso_3166_2="BN-TU" iso_a2="BN" postal="TU" type="Daerah-Daerah" type_en="District" wikidataid="Q40398"/><path d="M212.09767257146308,469.47742108240726 186.4618178942197,464.4366920559704 166.46221572390417,463.03312575968096 163.73499716617485,457.690477929441 162.70471502988943,448.95193967231535 164.58346508368425,445.52590185220043 172.76512075689186,438.4171671119695 174.7044763320905,432.8025428752158 170.7045558980431,406.7207624395243 162.70471502988943,394.7208053875978 162.70471502988943,378.4335368094788 158.15935076695814,362.0701701610595 154.70487357538914,355.65447220158137 148.52317899881345,348.86127481839 146.5838234235461,345.04194076700105 146.0383795947309,340.43755886100826 144.7050727834341,336.5426653536409 140.46273260923633,334.91223380663047 131.43260960482664,334.67068818025217 127.7963176081154,332.90437978747747 123.31155886664682,320.93253749012365 116.40260506978672,316.4486694479365 101.97864988497561,310.9532245006918 82.82751504581309,296.097042479867 70.46412471984092,289.68033620971136 38.34355137726874,284.7733763116937 0,266.5943456035145 148.31487471263054,271.54016113043633 192.26532519792508,263.2416200053849 232.77990985289173,240.53271671644399 290.64461755207185,219.77725842456485 295.6116364218144,233.82859213297078 301.39940029907535,247.20724393834993 310.39922123789717,256.35762646815317 317.9748283408465,266.2023636353169 328.7624925053567,267.6065779659483 342.27737577531417,268.40682727841204 349.9135871613633,280.2744917917289 347.1560664416561,298.04515353176083 350.6711480826233,312.64460990405644 368.94351187076467,323.9222276264775 382.428092471892,337.28286757933313 395.0642046724412,353.1037341754257 409.2760435259101,366.8257441368357 420.57884884260505,380.72845230501974 429.7604847399945,397.78544869438264 434.33615082692035,415.6266474883813 445.27532728109935,430.8408982688619 464.8809984804831,441.57205921413725 466.2143053643472,442.2965168760376 466.39719770198906,442.39589267371764 462.6987499305287,445.948498754239 459.2442733252867,451.33656653397776 459.60790293540435,463.31987675856885 477.91056927069127,455.9095805833157 479.9105291944926,466.0968186965007 475.668189020285,476.8271232207658 462.2745159717495,496.73258758475953 458.15338625401273,508.09596309817056 454.8807238674584,532.2101207609206 450.3959645395844,540.7659634217756 396.4576427350696,592.0071477904378 368.82182872041074,608 344.7010962459235,605.2239212340859 341.7920634695261,600.6071455041629 337.42851342535124,586.122847704579 334.5800855839424,580.1328553465092 329.91351145097514,575.6818034167319 317.48951619001446,566.9757241544412 280.6417643657644,533.085329210933 272.27829388759113,521.8885736324066 266.5208326833696,510.46518324203174 254.3392565761244,473.5371278366538 246.94546447177441,465.8251619928011 236.0971951758947,465.19129648234775 212.09767257146308,469.47742108240726Z" name="Belait" name_en="Belait District" gn_name="Belait District" admin="Brunei" adm0_a3="BRN" iso_3166_2="BN-BE" iso_a2="BN" postal="BE" type="Daerah-Daerah" type_en="District" wikidataid="Q40395"/></svg>