<?xml version="1.0"?><svg fill="#3498db" stroke="#ecf0f1" stroke-width="1" width="800" height="1008" viewBox="0 0 800 1008" xmlns="http://www.w3.org/2000/svg"><path d="M485.14648943208397,38.289325465320644 486.8119967817174,39.129872809072445 487.22043193666684,40.46645295797346 487.18412655051884,42.262284604630565 487.5471798849816,44.46220864460801 488.318668374379,45.74813362901469 490.65582466498296,48.67808653142476 491.14594667528684,49.92716990866645 493.0020570386805,51.65838652180582 501.16168194682035,54.78545181221129 503.0268685689303,56.04816361299125 504.59707449951395,57.78836033184982 507.9462420674964,59.496359616775685 510.98227607523705,62.0444808362814 511.6357721475095,66.30484643972986 509.1987763084786,67.57646163645153 508.47266946392773,68.07224567916641 507.69210471581704,69.44480815073102 508.01885266413467,70.44551697103911 508.7358832499488,71.20292130539075 509.13524197054187,71.81801751348983 513.001760500617,74.91634066899987 513.9275466176267,76.12348989577893 515.8925729638038,74.69602155041186 518.6290879750184,74.75110132755165 519.876535737208,74.93252067940958 519.8318441240098,75.67382429540737 519.3871036633543,113.51789228777544 519.0058975767865,142.09433079145603 518.742683989502,162.38954823480967 518.4613175885082,186.73580737187518 516.4282187234229,213.5987837994959 516.3828368471187,214.0383034048184 513.151661755091,217.45362275014577 512.2803336474954,218.8544850717361 512.1714177130178,219.3855220588811 512.1260359946796,219.87993123052286 512.1441886504288,220.8321146139014 512.457322159473,222.3885342258865 509.8751049447279,225.1808274762843 504.99657511964705,226.76459226286204 493.2654126171,230.04183926311924 490.1340772106494,230.48123240735046 489.2082909778521,230.19745786100495 487.1025814897788,229.9502986672357 486.25848228681815,229.74890852306874 485.58683355036493,229.5200553506795 482.1105973688477,228.9616501184332 478.7024337648336,227.98213897017249 474.41386548841217,228.81518217467905 466.6036794700776,229.46513066997915 461.19418426700634,231.84516040211736 459.77373780973926,232.71476215505794 459.60128750117724,232.97106326415047 459.3789171128983,233.39212694531741 457.3322037954881,235.4058670057929 454.3097843235091,236.98019662613322 453.15255176944373,237.84056780854095 452.6397387312882,238.46295598564714 452.68965865305387,238.92059002768931 452.6079716232142,239.4972039012724 449.36318192091636,243.51503466526557 449.0727391130768,244.18312073152254 448.84583099524195,245.52842120662305 448.55992639082973,245.85787784095416 447.28016313406243,245.89448398242496 443.4635643808855,240.82430874780616 441.8842822253441,239.5978817455033 439.78311078274106,239.17686348425963 437.4958744212998,239.04872681881216 434.59144729064997,238.26159583619247 430.9200699413972,236.7971372447335 429.71291730761493,235.9550566841766 429.1274939623711,235.29602853627722 429.38163130076396,234.36239243477263 429.36801669049083,233.31889875619981 429.45424192374895,232.83375924654052 429.753760822523,232.44015256554133 430.03512738147094,232.17469529528788 431.2740471233184,231.62546963441795 434.5233748710923,226.5265726296055 435.8757487508357,225.21744678301417 437.82262254063187,224.62237974367346 446.46329299369387,219.0009785555557 449.2224988783854,217.90226864120473 450.0892887825625,217.44446644060545 450.6701742402757,216.91341151086223 450.82447189309147,216.5288513110936 450.96061673220686,215.21033959611503 448.73237669938,211.56596051381408 447.4707660983678,210.96159359840402 447.0351020445612,211.14473578239947 445.6509610567526,212.2161054978195 444.2940491315272,212.59153810974985 443.7086254703867,212.57322440084573 443.3364956327193,212.4633418639796 443.17312157304593,212.20694866321236 442.9325988449291,211.65753078382545 442.82368291046043,211.23630657297053 441.725446369101,209.53306454864028 438.85278650446764,206.08979479016202 437.43687825064256,203.78195420450749 434.5642182280491,200.22842810733306 433.52497801531877,198.64392284805993 431.5826422709958,194.64124572665443 430.7930013511735,191.81080538613404 431.4601118842023,187.34959506430494 431.39203930669044,186.68084085774365 431.2014363423821,185.69143644172726 430.2257303457792,183.91412930416445 430.0850471452824,183.19036406309723 430.0850471452824,182.53988374860967 431.0970584533748,178.56354285915378 431.6234857859068,177.25330385020195 433.47959629697164,173.86303190147498 433.67927566813165,172.96503354427992 433.6112032485769,172.30527027068442 433.33437505100756,172.00287613039782 432.2769820245679,171.17815648005777 431.569027976634,170.1793129894843 430.59332182206515,167.43010943869803 427.45744837014433,165.39561088640716 426.1186889427198,165.2031545189348 425.66033402974847,165.36811725176457 425.25643708401293,165.55140842291704 424.1082807788391,166.23874546464572 421.70305207608345,166.9352382047144 418.35842284615387,167.53091598196355 416.91982373315227,167.59506553385478 415.93050328422163,167.53091598196355 414.79142338590543,166.78860898320323 414.47375167343097,166.51367798651214 413.34828606947656,165.15733141482863 409.41823317840357,158.9067100797785 412.2318970303339,153.56287497692756 412.531415929108,151.80287056992296 412.11390453105645,151.0328508256594 411.8688435995094,150.68450514090893 411.3787214205186,149.46527750880375 410.68892002831916,146.18331181455196 413.3936677878149,136.40958845466432 409.5679927857492,128.7800979211237 408.25192421749534,126.74416315625751 398.21803621181294,119.03993333336106 395.04585729044544,117.42557459570716 385.39771357475826,114.91221515828128 382.9516413570739,113.93986226086398 381.07284014480143,111.84832628431654 376.38491312607175,107.66501057081528 375.8176422786229,107.02280603007956 374.8237836262649,105.50900783667618 374.3064325426363,104.2704136767734 373.50317701254085,99.49008942402975 371.49730705209043,95.88391857443227 369.005853274019,91.92877921228182 367.9030785292411,90.7541101638006 366.7912276935258,90.06581571607947 364.41776594086934,89.05630085440303 362.4527396532929,88.48729324565846 353.13134389897476,86.26626919189236 350.38575262455925,85.33928538535841 349.30113053552463,84.54078160993565 347.99413853207665,83.31087834943452 342.77978433877206,79.75868400795665 341.42741030106566,79.07024660537448 340.40178469859666,78.64800042508344 339.28539534354275,78.55620743487012 338.128162631529,78.59292480983656 335.96799501825984,78.86830327044525 332.1241673604479,79.80457939884815 327.5406183886768,80.24517421054456 322.2854206804554,80.06159361832164 317.9650852959687,71.50602343048716 316.4311848587628,69.15575241747625 315.655158233314,68.586530303867 315.25126128757256,68.34782246295832 314.8155972337718,68.15501923371325 314.3708569310736,67.99893989576267 310.4090367739842,67.50315516832082 309.3380292952227,67.11754180291084 305.0539992222286,64.63853038132984 303.05720566862396,63.11433908541407 295.0927221554396,53.88560738719781 294.874889970588,53.582546910587645 294.48460763512554,52.8386633659941 294.4528403690974,52.370286753376575 294.53452739893703,51.966193770235634 295.18802347963515,51.194734959476776 301.15571343922375,50.75389617878346 302.7622248153201,50.055893678253994 303.27049949210584,49.24766866686847 303.62447667402705,48.457800424369665 317.411429058793,39.070305822126116 325.80703858031967,29.62598143270051 326.46053466101785,29.166583078970113 326.93250386835393,29.019574683088138 327.6223054185076,28.92769432258033 328.68423664837746,28.55098273128284 329.99122880978257,28.247774081181934 330.4075249025191,27.894318995511398 355.6362704898924,37.21910038259058 383.99073982744255,47.66318419669483 388.0297088538279,48.113233778768375 392.1458266062052,46.634484810472905 410.27126683603234,34.68813692546468 423.26857803610653,26.125118789720812 428.7688368346668,24.81573366397443 431.88201956840226,26.18025014040212 438.56674014065135,30.9764454462683 441.6300031001836,31.41745234937717 445.4148345992465,31.20613711593186 449.46741801370763,32.49698494980106 458.2260809149141,36.3509618695623 459.1745578543706,36.617376247538424 460.08219127832837,36.980248912397876 460.9353667986969,37.43957765656077 461.6705499019669,37.98158072414523 465.6641371078656,42.94202072435272 467.1662705711676,44.205019861920356 468.74101445545307,45.09598992602887 470.6152776875624,45.830799160072665 472.5394606938896,46.02368482845898 474.204968043526,45.325618939405075 483.65343240313535,39.180397194543396 485.14648943208397,38.289325465320644Z" name="Alajuela" name_en="Alajuela Province" gn_name="Provincia de Alajuela" admin="Costa Rica" adm0_a3="CRI" iso_3166_2="CR-A" iso_a2="CR" postal="AL" type="Provincia" type_en="Province" wikidataid="Q502188"/><path d="M606.6468431400315,50.18433038663722 607.6815452398216,50.404752591835965 608.7933962412496,50.37719991165285 610.044035350401,50.49999280826645 613.574515219694,54.59295917280242 618.0626554261888,62.82130938627044 621.2500927263256,71.57607027142143 620.8427296644802,77.19251971918042 618.2627636061648,74.01210718557036 613.6459824142858,62.640559984445986 616.6190179550161,76.82389085452509 616.3188557728738,82.55541836623352 611.2446844302505,86.89159660674895 613.9318511926289,86.4001808967889 615.7471180405327,85.15716784292354 617.4551841843763,83.61058772245153 619.7492814643515,82.15791754580962 618.9488487444568,83.06132407185959 618.76303396828,84.14539163122653 619.0631963260565,85.43178951775731 619.7492814643515,86.89159660674895 620.4210731988591,84.80304834814815 621.1643319523123,80.72688997644563 622.1505794483838,78.515225825924 630.6623231843785,101.99318988605769 641.339523039324,127.1145424238697 653.9248973937263,148.13875658987118 687.4358682904901,191.88697240585938 690.1301819304053,193.94257462007005 701.3219457268906,207.61582834995994 708.2328240231076,214.4295858700225 712.4136553455753,212.09353261879437 714.0145207853559,213.11016023208174 718.6455953810282,213.9176810895073 719.603255893879,215.2731369992624 719.7318968792661,218.5823323253024 720.2893410321768,221.3434527223429 721.5757507103878,223.79446580816776 723.8627011128319,226.1588729310769 732.0385489815728,238.26772176276947 734.6542487250144,240.127069071308 744.7740044270404,253.76045458753055 752.4067015466668,260.95055914007236 756.8948419288047,259.581769926575 757.9096762324598,262.3625396908397 758.8744834472071,269.4939605364031 760.4967888170374,272.76403894082586 763.20539586074,274.8383555539985 774.9903373196163,278.9291544994116 779.1783155196148,279.3612645185441 783.2948263493845,279.2172281973941 787.1683486121731,279.5341077456936 790.5844808998634,281.3345269853679 794.9797138060825,287.94519598638124 797.9384559430285,289.74535920872324 798.1099771397836,289.85336716525234 800,296.4895826302018 798.6340116468896,296.5718754684141 795.9519547149014,295.1545941903524 793.2789742172461,294.7248313732964 792.0309781056204,296.6358807340304 791.2957950023709,303.4246399157915 790.161253354151,305.6873882350177 787.828635192892,306.0485059726731 784.5656929608979,305.48625860562464 781.4933537426523,304.544596755094 779.7643118794567,303.7309159996292 777.8991250817066,301.6646654053105 775.652732256436,297.3993689623865 773.8556181015872,295.37404630897714 772.4442481036302,296.02325434002734 770.7515116265679,295.39233397850103 763.4223714164056,289.2062170364807 753.2478003878796,285.1595166255109 750.0075488026833,285.52533137541735 746.7446063950374,288.2825876560568 744.7523510970864,291.0945826683681 744.4256029731285,292.73599466480556 746.5540035569173,296.498726205869 747.7702324117515,301.35380731781777 748.5235682080911,302.37323273088964 749.6717244200095,302.7206563658033 750.4795181198971,303.21435995806155 750.198151816426,304.6543056514071 747.5796292223511,306.149069839161 738.2128518937334,307.4289606337115 734.931756968655,308.58540968631826 733.4568526327819,311.0582163406985 733.0030358329976,314.4541600474974 733.1936388467608,329.1052603492594 733.465928891498,350.30334669486206 733.8400156166249,379.2505933052919 733.7156700590041,379.14675134020456 732.0864678237311,377.78617600669236 731.5328115865672,377.42091596336127 728.6919186720448,376.52601943333417 725.7103427149856,373.55815905759243 724.8163239061677,372.25225568340306 723.71808720686,369.2019971476832 722.7832248831252,367.7316098134022 722.057118021479,367.2840935905213 720.9588816380826,366.7726425093836 714.9095046486633,365.0921311833957 714.3830771581682,364.78159682400496 713.8929549791806,364.343192701309 713.3619894432212,363.4298411833986 713.1214667151132,362.77221989830605 711.2063600333823,353.2724634385418 710.5800930152761,351.53677268568947 710.1716578661162,350.769399292879 709.9129823242961,350.42225109892274 709.5953106118216,350.12991423279993 709.2322571809971,349.85584698967637 702.9423573055067,346.2928630059541 702.2480177098887,345.7903744094452 700.9818692213576,344.5843844374212 694.1201601370338,335.73059568291967 693.357747963904,335.51129050605476 692.2050534553147,335.38336205556203 688.4292983750117,335.65749393894794 685.9968406096551,336.1052401685106 685.397802496187,336.1052401685106 684.4674782179253,335.9407623308647 683.2240204306017,335.56611683447755 680.4784291561833,334.16802901632184 678.803845360538,333.04405274953064 677.9597463155228,332.6054222581091 674.7149564552707,331.5271088433772 673.8163996009797,331.12502111866405 673.4125024972928,330.87828401176995 673.0131437549759,330.6863766276108 669.763816165159,327.8716667660805 668.9923275851834,327.35988737161045 668.161842992487,326.9394938675655 667.5764193313465,326.9120767399105 666.8140073161709,327.04916193615617 665.5297060139305,327.72544445433164 664.8807479786936,328.1458326706838 664.4269312691497,328.5844951917992 662.375679748318,331.4540020520135 662.0852369404785,331.7555667415013 661.3409774230831,332.00230012939403 658.0553443638314,332.31300022684917 657.0751001637924,332.5505932641311 656.4216040830942,332.86129056151765 655.7998752684066,333.50095613665263 655.4731271490863,333.75682051644907 655.0783066101966,333.994407917728 654.6971005236257,334.0309598779007 654.302279984739,333.86647644094217 653.8393868683492,332.4957642207342 653.7304709338716,331.9200557249616 653.5943259368021,331.4540020520135 652.9544443084228,330.90569918930976 652.3871734609739,330.55843819389787 647.7990861278214,329.2150671811992 645.6479949214009,327.6888888611018 645.0308041521953,327.08571807399386 643.5422852753735,325.03854772160906 637.70620210943,309.0700662289745 637.079935091321,307.17769843479107 635.9544694873666,304.84643875645577 635.5823398076534,304.3344637387464 635.0196071636318,303.73105872490277 634.6928588863456,303.24650192009943 633.6309279723959,300.8510881466451 633.2678743836201,298.66587505783883 632.8866682970581,296.9926241027598 633.4811683650532,291.57938119103585 635.9272405827317,286.60461465028385 646.0927352240992,274.44027951791617 650.0409407709184,264.45083911583794 651.42508191669,262.255129433218 656.7301995466801,255.84135347776206 664.218175649098,246.5167853210367 665.3890226554794,243.4601233432136 664.9352061038895,240.23855595995647 662.9066452842626,233.95964272345697 662.6479697424542,230.06014736475655 663.2288550422132,226.92937455490824 664.6175343914151,224.03646144230595 666.78677825357,220.87789230960897 667.2042898095875,220.19122381197624 663.6781337062959,219.48623540091594 645.0761858705335,219.05591345512175 619.7577503543747,218.8544850717361 615.1605869302788,217.18809570839073 597.9427800823222,209.18508398479617 587.3506974780914,204.1849173005135 579.6403511453486,200.55814621639283 557.6393159544639,190.66576469711688 560.035468408328,182.6956332305245 561.1836247135018,181.110632532701 562.762906869043,179.54391127478138 571.031447800346,170.7199734761975 571.5714897431511,169.86774335437968 573.7361955598446,165.30396511862833 574.2036267217077,164.02090746487866 574.4123824997164,163.0494296425683 574.3261572664583,162.55451936574136 574.4759167158468,160.40069121192826 575.0477257667229,157.86181570565034 575.2020235774929,156.60608300872872 575.1702563114648,155.73530280375937 574.9569624879916,155.33198934797534 574.4123824997164,154.65368283477082 573.9494893833148,153.93870207338247 573.6182030605671,153.04037953329822 573.0826994791377,151.1153534691426 570.7410049925094,146.77004623471953 570.5140968746628,146.10080174752582 570.1192761778306,143.51542387151392 570.2236540668262,142.46106807923113 570.3643371093689,141.7000854051038 570.9769898331102,140.42564521140304 571.4761881030472,139.70130976467584 572.8830201079835,136.9964280533124 573.2369971319534,136.5746377557873 573.6363558742676,136.39124947070414 574.0992488327032,136.33623312007265 574.5848328082784,136.20786072763482 574.9796533471653,135.99696317285856 575.3200159188162,135.7218777548523 576.0279699667502,134.9974797856666 577.6072522802516,132.5949770672235 578.592034525752,128.87180498267384 578.5965727291792,127.99141152426527 578.5148858573026,127.50535488585608 577.8114698548301,125.75368088577379 577.7025537624072,125.22174776890459 577.6753248577634,124.61643793382882 577.8386987594768,123.16733593628129 577.856851415223,122.58034677231471 577.7842407922379,122.06672612534373 577.5800232176595,121.65399156871254 577.3349621281583,121.27794190763308 576.7767676875641,120.617555621587 576.5180919877897,120.2506708091178 576.350179882655,119.82875024071278 576.3229508200658,118.78310678406436 577.3168096303662,111.16947703499912 577.1988172890428,109.49983839691816 577.4438783785412,104.08691596303385 577.6753248577634,102.47210751799143 577.9657673496916,101.42612632840388 578.2471339086367,101.10498760377365 578.918782645081,100.53610850066961 580.4027634764298,99.5726706515559 582.0909615664515,98.69179769392834 582.7853011620695,98.15959673549055 584.5461101909729,96.26932253411636 587.5231479446077,94.35145168046027 589.3565674385447,93.73661709989257 590.3776551534919,93.5255529580081 595.501246068074,93.08506826287856 597.3528183757115,92.61704954989386 598.0290051576261,92.59869580040515 598.6598105371166,92.65375702988268 599.4676042706366,92.91988558247064 599.6445927826171,92.75470254914693 599.6219019234524,92.45186541690856 599.2543102892034,91.88289415329983 598.8186463933569,91.37815637122128 598.1651503126499,90.82752782936403 596.6448641698175,89.90062365847089 595.9550627776181,89.33162493359973 595.3651009130502,88.7259101075915 594.825058970248,88.04676696664072 594.6707613174323,87.42268178739103 594.6026888978746,86.55996374350514 595.1291163883608,82.99880872455046 595.1018873257569,82.37466411678372 595.0020476401828,81.78722714706689 594.5210018680467,80.9335963145943 593.858429380491,80.13502577195932 592.9734868205677,79.27218916859643 592.5695898748234,78.97845418894336 592.1475404312956,78.71225550321883 591.6029602850662,78.50113156418239 589.5925521211884,77.94118988664468 589.0623024370296,77.55117242556805 600.5974661226224,74.80159127995279 606.7648355571682,71.62981735311489 607.27311026053,66.80523295073148 605.6620608144445,60.483484447554886 605.4986867524701,52.8522955246879 605.5803737834647,51.99360224462635 605.371618252272,51.08897408149434 606.6468431400315,50.18433038663722Z" name="Limón" name_en="Limón Province" gn_name="Provincia de Limon" admin="Costa Rica" adm0_a3="CRI" iso_3166_2="CR-L" iso_a2="CR" postal="LI" type="Provincia" type_en="Province" wikidataid="Q642644"/><path d="M572.2520730437885,86.77091212713835 572.9055691160581,86.37626150664317 576.4997976013636,82.18176868097343 588.1583495757534,77.76663713693215 589.0623024370296,77.55117242556805 589.5925521211884,77.94118988664468 591.6029602850662,78.50113156418239 592.1475404312956,78.71225550321883 592.5695898748234,78.97845418894336 592.9734868205677,79.27218916859643 593.858429380491,80.13502577195932 594.5210018680467,80.9335963145943 595.0020476401828,81.78722714706689 595.1018873257569,82.37466411678372 595.1291163883608,82.99880872455046 594.6026888978746,86.55996374350514 594.6707613174323,87.42268178739103 594.825058970248,88.04676696664072 595.3651009130502,88.7259101075915 595.9550627776181,89.33162493359973 596.6448641698175,89.90062365847089 598.1651503126499,90.82752782936403 598.8186463933569,91.37815637122128 599.2543102892034,91.88289415329983 599.6219019234524,92.45186541690856 599.6445927826171,92.75470254914693 599.4676042706366,92.91988558247064 598.6598105371166,92.65375702988268 598.0290051576261,92.59869580040515 597.3528183757115,92.61704954989386 595.501246068074,93.08506826287856 590.3776551534919,93.5255529580081 589.3565674385447,93.73661709989257 587.5231479446077,94.35145168046027 584.5461101909729,96.26932253411636 582.7853011620695,98.15959673549055 582.0909615664515,98.69179769392834 580.4027634764298,99.5726706515559 578.918782645081,100.53610850066961 578.2471339086367,101.10498760377365 577.9657673496916,101.42612632840388 577.6753248577634,102.47210751799143 577.4438783785412,104.08691596303385 577.1988172890428,109.49983839691816 577.3168096303662,111.16947703499912 576.3229508200658,118.78310678406436 576.350179882655,119.82875024071278 576.5180919877897,120.2506708091178 576.7767676875641,120.617555621587 577.3349621281583,121.27794190763308 577.5800232176595,121.65399156871254 577.7842407922379,122.06672612534373 577.856851415223,122.58034677231471 577.8386987594768,123.16733593628129 577.6753248577634,124.61643793382882 577.7025537624072,125.22174776890459 577.8114698548301,125.75368088577379 578.5148858573026,127.50535488585608 578.5965727291792,127.99141152426527 578.592034525752,128.87180498267384 577.6072522802516,132.5949770672235 576.0279699667502,134.9974797856666 575.3200159188162,135.7218777548523 574.9796533471653,135.99696317285856 574.5848328082784,136.20786072763482 574.0992488327032,136.33623312007265 573.6363558742676,136.39124947070414 573.2369971319534,136.5746377557873 572.8830201079835,136.9964280533124 571.4761881030472,139.70130976467584 570.9769898331102,140.42564521140304 570.3643371093689,141.7000854051038 570.2236540668262,142.46106807923113 570.1192761778306,143.51542387151392 570.5140968746628,146.10080174752582 570.7410049925094,146.77004623471953 573.0826994791377,151.1153534691426 573.6182030605671,153.04037953329822 573.9494893833148,153.93870207338247 574.4123824997164,154.65368283477082 574.9569624879916,155.33198934797534 575.1702563114648,155.73530280375937 575.2020235774929,156.60608300872872 575.0477257667229,157.86181570565034 574.4759167158468,160.40069121192826 574.3261572664583,162.55451936574136 574.4123824997164,163.0494296425683 574.2036267217077,164.02090746487866 573.7361955598446,165.30396511862833 571.5714897431511,169.86774335437968 571.031447800346,170.7199734761975 562.762906869043,179.54391127478138 556.2687895769254,180.2219129721211 552.8606259729113,184.6012392463104 551.7986947430533,185.70059774633268 550.9545955400838,185.99375646927183 547.0653863218877,186.28691333698814 543.6662989667741,187.01979942423608 535.9151091191056,187.62442317389915 535.0392428080738,187.95421509283557 535.1753878051405,188.83365108776454 535.8016548232466,190.25354440327828 539.8360856033239,196.21670406945344 542.1505510273572,198.7080366739274 542.6089057823773,200.1276805404596 542.8993485902168,204.3772396701123 544.3288712963727,205.94326814122797 545.1775087027577,206.69421384256393 545.7493177536368,207.3169415328728 545.9263061076603,208.6173216764007 544.8552986289017,212.13369313642843 542.6633639075703,217.99382854397356 539.241585693283,220.03557765407476 534.5990405508459,221.50962021660763 532.7883119160853,221.8575253637112 528.2728353638629,221.4821538759142 527.4605034269246,221.53708638473347 521.0026912883453,224.43928090990553 518.9968213278919,223.5970189721545 515.5432760055395,221.8575253637112 512.457322159473,222.3885342258865 512.1441886504288,220.8321146139014 512.1260359946796,219.87993123052286 512.1714177130178,219.3855220588811 512.2803336474954,218.8544850717361 513.151661755091,217.45362275014577 516.3828368471187,214.0383034048184 516.4282187234229,213.5987837994959 518.4613175885082,186.73580737187518 518.742683989502,162.38954823480967 519.0058975767865,142.09433079145603 519.3871036633543,113.51789228777544 519.8318441240098,75.67382429540737 519.876535737208,74.93252067940958 521.4064463260828,75.15501870499394 523.516694041153,74.80159127995279 526.7796364487842,77.98694361379012 528.7991208741671,78.75341900166646 530.8186054751814,77.22504683697106 532.0257578956798,77.22504683697106 534.1541584794509,79.30417273972634 538.5107990198093,76.50903740487398 541.5105276414254,77.22504683697106 543.5935464047039,75.145838698021 545.957931471477,74.75110132755165 547.8957290415054,76.0638215391132 548.6989846120482,79.09305125551344 559.2910672298448,87.43171622643352 560.4755288279081,87.99155750861092 562.109269096408,88.24394309065197 563.8292345252472,87.90895831735185 566.2753066229973,86.21105796694435 567.450691962362,85.81640300341274 572.2520730437885,86.77091212713835Z" name="Heredia" name_en="Heredia Province" gn_name="Provincia de Heredia" admin="Costa Rica" adm0_a3="CRI" iso_3166_2="CR-H" iso_a2="CR" postal="HE" type="Provincia" type_en="Province" wikidataid="Q502192"/><path d="M266.9468665595284,0 271.97515586522013,2.5878337157546287 276.9308345742765,7.046137576591727 282.6080818228987,10.23105769274821 300.38408328197903,16.807082611433287 324.10508390505635,25.56461417035743 330.4075249025191,27.894318995511398 329.99122880978257,28.247774081181934 328.68423664837746,28.55098273128284 327.6223054185076,28.92769432258033 326.93250386835393,29.019574683088138 326.46053466101785,29.166583078970113 325.80703858031967,29.62598143270051 317.411429058793,39.070305822126116 303.62447667402705,48.457800424369665 303.27049949210584,49.24766866686847 302.7622248153201,50.055893678253994 301.15571343922375,50.75389617878346 295.18802347963515,51.194734959476776 294.53452739893703,51.966193770235634 294.4528403690974,52.370286753376575 294.48460763512554,52.8386633659941 294.874889970588,53.582546910587645 295.0927221554396,53.88560738719781 303.05720566862396,63.11433908541407 305.0539992222286,64.63853038132984 309.3380292952227,67.11754180291084 310.4090367739842,67.50315516832082 314.3708569310736,67.99893989576267 314.8155972337718,68.15501923371325 315.25126128757256,68.34782246295832 315.655158233314,68.586530303867 316.4311848587628,69.15575241747625 317.9650852959687,71.50602343048716 322.2854206804554,80.06159361832164 327.5406183886768,80.24517421054456 332.1241673604479,79.80457939884815 335.96799501825984,78.86830327044525 338.128162631529,78.59292480983656 339.28539534354275,78.55620743487012 340.40178469859666,78.64800042508344 341.42741030106566,79.07024660537448 342.77978433877206,79.75868400795665 347.99413853207665,83.31087834943452 349.30113053552463,84.54078160993565 350.38575262455925,85.33928538535841 353.13134389897476,86.26626919189236 362.4527396532929,88.48729324565846 364.41776594086934,89.05630085440303 366.7912276935258,90.06581571607947 367.9030785292411,90.7541101638006 369.005853274019,91.92877921228182 371.49730705209043,95.88391857443227 373.50317701254085,99.49008942402975 374.3064325426363,104.2704136767734 374.8237836262649,105.50900783667618 375.8176422786229,107.02280603007956 376.38491312607175,107.66501057081528 381.07284014480143,111.84832628431654 382.9516413570739,113.93986226086398 385.39771357475826,114.91221515828128 395.04585729044544,117.42557459570716 398.21803621181294,119.03993333336106 408.25192421749534,126.74416315625751 409.5679927857492,128.7800979211237 413.3936677878149,136.40958845466432 410.68892002831916,146.18331181455196 411.3787214205186,149.46527750880375 411.8688435995094,150.68450514090893 412.11390453105645,151.0328508256594 412.531415929108,151.80287056992296 412.2318970303339,153.56287497692756 409.41823317840357,158.9067100797785 406.6726419039998,156.68857728804082 405.8966152785393,156.34026744502563 404.89368037729264,156.01028749798445 404.01327586283946,155.9552907009684 402.69266909116124,156.01028749798445 401.9438716862616,156.16611169701727 401.3584480251094,156.35859958857793 400.3192076544131,157.07354890404176 398.79892166953493,158.69589957393273 398.14542558882795,159.24583818660275 396.5525288230135,160.07073574068195 395.50875024888995,160.77647148583918 394.73272362344113,161.5738506300235 394.25167800925044,162.28873231880908 393.9294680933457,162.89362505434195 393.8205521588711,163.41602691228297 393.8205521588711,163.9384241502472 393.91585348307257,164.40582775978098 394.12007105765696,164.79074553416436 394.37420855400103,165.13900219445577 395.66758626308723,166.33038968403784 395.89903274230653,166.67863665270878 396.03063953594585,167.14601710997184 396.0941739100422,167.61339378133908 396.0124868802025,168.0899307120041 395.19107853641253,170.43589833026422 394.79625799752574,173.8447055592309 394.6192696434905,174.37616766854265 393.5482620067778,176.61191705927862 393.3848879471162,177.21665355319507 393.38034990164306,177.6931079242478 393.52103310213994,178.1329083652984 393.68894536522885,178.51773094236458 393.9294680933457,178.88422601923747 394.487662691897,179.5255868030682 394.73272362344113,180.03867021246455 394.85525416818297,180.70750377178214 394.7599528439874,181.99017602479825 394.4695100361508,182.59485417546514 394.10645676328926,183.06210085797335 390.73913651624076,184.51878646738763 389.9721862976378,185.022662572836 386.8000073762703,187.80764121730107 385.9740608290559,188.81532966196326 385.50209146375676,189.60314604012277 385.35687005983846,190.6840855181098 385.34325560752245,191.2337078434149 385.52932036840053,192.25049478375698 386.1918928559562,194.14661584934987 386.28265613468454,194.8244406956757 386.00582809507523,195.09923234859642 385.58377849359636,195.1358710916593 385.1072709248758,195.02595479083473 384.6625304642205,194.8793992293668 383.0333283869135,194.00921810108122 381.6537254445692,192.95582271199584 381.0093057707169,192.314615899674 378.86729081319686,189.62146736777353 377.5557604483615,188.48554265414342 377.2017832664403,188.2290403943025 375.5861957994036,187.34959506430494 374.71486769179626,187.01063849506355 374.1975166081588,186.9007061120896 373.6302456027646,186.8732229427427 372.9313679616735,186.9831553797095 372.0328107914653,187.2579852883329 371.7514443904833,187.31295123567702 371.3248565855742,187.34043402967703 370.8574254237112,187.23050245385357 370.44899043250547,187.05644360420234 370.0813987982536,186.7999347971924 369.41882646865497,186.2502689719682 369.0330821786686,186.06704583021622 368.57018906226705,185.95711159335147 368.0846052446578,185.9662726950038 367.0907465922998,186.15865739638548 365.99251005094925,186.2685912371973 365.4297774069277,186.2502689719682 364.8897354641255,186.15865739638548 363.44659814768494,186.13117386257716 359.9295186092021,187.18469748715148 359.8992742842467,187.19375695168685 359.14412961622367,186.67189634951444 358.4580444779287,186.347290442239 356.1568006717059,184.25534090909042 352.9908036528933,185.28689825516363 341.10580784058214,185.46723838362152 337.96125110308486,184.65930971222636 335.15259005721884,182.69714819109365 330.750210273457,178.10166941125888 330.750210273457,176.99783232920063 331.7578978752214,173.75834085878407 328.6919548585722,170.02800203390234 321.1521652148528,164.7747977563137 322.22417313366617,168.36117383945407 327.2983444763013,172.06276347438134 328.4632598710216,176.39179478191792 328.9277967236596,184.61602741680025 329.98551123867674,189.44178973265926 332.058060232995,192.73086025910342 329.7711096549135,194.2022243222256 330.0927121183799,196.65441186820001 332.16526093705505,198.96946732158318 337.5324477599241,200.85173221542888 339.4406220837437,202.92142959459926 341.75615946939985,207.3562405742274 342.8496076695285,207.3562405742274 344.26465815749225,206.77216332699308 344.87927610120727,207.24807851674353 345.1437047738694,208.45948080002088 343.61430670431173,208.57485116194255 342.0348815458523,208.3729529629504 340.5340702838752,207.92589021757658 339.24766060566145,207.3562405742274 339.24766060566145,208.45948080002088 342.5406835210384,211.37108109290938 340.7648379714641,217.1148469205161 339.7346740076254,218.56149713323504 335.8772317395374,219.48623540091594 335.0013654285057,219.86161986800514 330.467736220546,222.47093158087492 329.6508662381316,222.69981295875016 329.29235101073726,222.5167081210593 328.9610648459321,222.2237388403894 328.6887746938388,221.921612943559 328.3711031393185,221.63779592652028 327.1775651158094,221.7568162097511 325.3441453059639,222.3336023773669 321.0192718760041,224.42097116951675 319.4082226123976,225.90405515862932 318.6730395018598,227.26809213217032 318.9725585585998,228.28423283860116 319.56252026521344,229.08980912265557 320.23416900165785,229.68482971416807 320.9784285190502,230.06014736475655 321.72268787847963,230.17914980321743 323.3609662046782,229.9594526537436 323.9282372100842,229.9502986672357 324.4637409494679,229.96860679810828 326.02487044926585,230.25238215858698 326.45599629963635,230.44461630785608 327.21387042730186,230.88400652487758 327.6495343231455,231.0670845892859 328.13965650214794,231.1769313067292 329.8006256875201,231.15862356164524 330.8080989501512,231.37831627631718 331.9789459565326,232.03738937286056 333.331319836276,232.50422813710207 333.74429318886615,232.71476215505794 334.0801175570869,232.99852409198715 334.82891511994364,234.04202359037333 335.79554470969777,234.9207451172294 336.27205227841836,235.66215611132736 336.46265540068083,236.08320023565497 336.69863992537034,236.46762885878002 337.0526171072915,237.30054910267287 337.2069147601073,238.3531233510112 337.46105225645726,239.34161016133777 337.6924987356825,239.70771200733998 338.0600902119713,239.9639821229966 338.50936887605104,240.11957402361966 341.07797148052305,240.7236328859319 341.4092578032736,241.06226914835474 341.4864064717317,241.49242595315525 340.9690555460455,242.58153174506612 340.30194485506837,244.4027637543493 338.50029246919644,251.19298274024783 338.4549107508581,252.2819059992078 338.69997184035645,253.01394392218444 339.1946320648144,253.5812669499048 339.27178089122674,253.9838799105611 339.1084068315563,254.3132883385182 338.1054719303067,255.1185011695861 337.75149474838554,255.65835376490418 337.3702888197807,256.42694849945 336.8710903918895,257.96410783649856 336.48988430531574,258.7052236765009 336.0678347038369,259.17184721992953 335.61401815224707,259.47377819442335 335.10120511408275,259.9037984556312 333.97120146466403,262.2368315176793 333.5400756142848,262.5112998078661 333.17248398004466,262.58449109157334 332.1377818127669,263.06023267741415 331.6885033066472,263.52682139331034 331.6690943733352,263.5469782813044 330.750210273457,261.3323736340949 330.0283916256849,260.5039052315579 328.3989393783236,259.48811481852283 323.99655977021075,257.6726156591682 323.6320770953705,256.267726119319 323.69639758806846,254.65386262124008 323.5534631988881,253.42182052030697 319.37263187642924,248.81764251715984 313.5552016047037,245.52460212965323 294.66642019590574,238.80823591404126 292.97979415774313,239.16857580505686 290.46414859211984,240.91979589734268 289.3278201806085,241.3377746877863 287.634047440561,240.9414155092714 285.2541895622098,239.21181651138343 283.3245751327091,238.80823591404126 282.1953934231003,238.7145472263437 281.8023237650511,238.43348007188186 281.57362877749455,237.9001693202818 280.93042385057055,237.10019393061236 279.70118796316103,236.53083539962066 278.67920713324656,236.79749773627535 278.00741539873604,237.35964664558833 277.87877441335183,237.70558172075513 267.95198001376207,234.5200176345484 263.1994111345963,233.78486232770487 262.07737612688413,233.09294291900113 261.1840361067196,232.2496549000839 259.78327884690896,231.55771698835497 257.8107840304002,231.64420963933097 256.51008094839904,232.42984576559311 255.35231243120964,232.50912951054025 253.7871806765346,230.4549236809087 255.0450033715394,227.15362488281522 253.18685613661867,222.6915228980609 235.19856144987602,200.64980642448634 234.12655335542843,198.70262791873887 232.71150286746763,193.9281496408257 230.54604657287666,190.58865852423222 223.69948859372047,173.8593524472 223.07772394811468,168.83741560687702 222.32731831713056,165.78506798894855 221.29819060968816,163.56244889834718 223.7209286994015,161.1954056063568 224.72861630116287,159.4922261989495 224.34984022253818,158.05602998950087 220.61210547139322,153.29249753892515 218.26083457625978,151.863357276425 219.56153765825798,150.1165798908154 222.60604039358006,147.705646918528 224.66429580846784,144.69544107223527 226.10078657775276,141.75726248476747 229.10240910170393,142.94843510432915 230.73186134906518,141.0642047266506 232.00397744784559,138.3135450876774 235.7345654970969,135.49776528822122 234.29092802592413,132.31359269660663 231.63949477301708,128.99203469710596 229.80993434567992,127.1145424238697 230.910529247714,126.35630593760587 231.38221280224863,126.09633665866767 232.1969389259278,125.9013590580607 232.1969389259278,124.68814833672455 229.80993434567992,124.68814833672455 229.80993434567992,123.47491059612956 231.8110159697722,123.0993789830743 233.097425647986,121.86443963219442 234.59823690996012,118.51335099705514 235.79888598979488,118.51335099705514 238.24306418519808,120.49947398920054 241.68778328046312,119.07669508596469 245.20396974595408,117.10496503225633 247.89113650833838,117.42275780862258 248.98458470846998,117.42275780862258 248.7487428433914,115.08982566308991 249.3490673833073,113.96304806285556 250.3496082831662,113.34908902482786 251.27868181280792,112.56898946085157 252.88669395447934,109.79521091039025 253.52275200387248,109.9469057708535 255.6953550003571,110.1491645631972 260.98392792674076,104.63733540744394 260.58371156680073,103.16356552709034 259.65463786152475,102.03653765444457 257.3819808628737,100.45432373510367 250.18523361266753,107.72200680593865 250.01371241591238,107.13687207107085 250.03515252160224,106.61674696620621 249.84219104352005,106.3277861968614 248.98458470846998,106.40002649085339 248.98458470846998,105.2947392156377 251.02139984203654,103.0768719592232 252.26492930887943,102.1449066553808 253.7871806765346,101.66808094700473 252.58653159670277,100.45432373510367 252.4293038037438,100.61326966013867 252.19346193865348,100.95283449992232 251.82897926382498,101.32852065072136 251.27868181280792,101.66808094700473 251.72177855975607,100.1942292542457 251.8075391581351,99.68126158579554 253.7871806765346,99.13216388458726 253.7871806765346,98.02672640387424 252.58653159670277,98.02672640387424 252.58653159670277,96.70450642627696 255.51668692607106,94.37067194795434 256.0955711846599,88.33691062974378 255.0950304604412,76.63596134286959 252.45789061131856,73.52780024039872 246.6476072171327,70.94716415326452 240.83017694541306,70.00017649132326 238.1930370962992,71.79293286714174 237.14246928316695,71.79293286714174 232.29699292809127,67.7880622428768 230.88908914202415,66.26989072722851 231.72525537139612,66.5446107334744 232.7686764826259,66.06746453025129 233.20462652767742,65.07701093185456 232.1969389259278,63.8407250022268 230.910529247714,63.55153114236934 227.51583724135372,63.88410401470046 226.10078657775276,63.8407250022268 220.9337079348479,61.903095458636315 216.86722419398,59.52434034842001 212.32191002104662,57.52147476134196 205.711193906969,56.68270683424626 205.711193906969,55.35945072633069 209.68477034757,54.36156316345738 217.11735928721757,50.991744256416645 221.29819060968816,50.49999280826645 220.63354557707424,49.407998640984054 220.10468840738136,48.73543451641962 219.28996228370218,48.330445655408475 217.70339042334905,48.070093868794466 217.70339042334905,46.86956624776705 226.38665535609593,46.348846741017404 228.59499203769502,46.86956624776705 229.51691886543426,48.23642978404134 229.2953705797773,49.82744279251631 228.86656723661653,51.15083927217694 229.20960980576402,51.71489966581131 229.93857533106413,52.054779294587554 232.1969389259278,54.13739745636338 233.29038712605646,54.13739745636338 234.59823690996012,52.82130814500075 234.59823690996012,51.71489966581131 232.5971552858678,49.733429803356685 234.51247631158108,48.45338894371884 238.25735758898546,47.8965252278338 241.79498416016628,48.070093868794466 242.99563306436383,48.63418764114674 244.5679115209208,50.18902983531716 245.997255588315,50.49999280826645 247.1407308773484,50.08055407500858 247.62670783567626,49.06086988429618 247.43374635759406,47.853133110388555 246.58328672443474,46.86956624776705 246.58328672443474,45.54606067118223 249.19183959033955,44.57691509917518 249.92795164189909,42.62410417670484 249.32048057572376,40.316799496955355 247.89113650833838,38.25532743736114 246.61902023391195,37.32944668831215 243.6602780969689,36.10696940622849 242.39530870008514,35.22445291910759 240.91593754378914,33.66192774720894 240.91593754378914,33.24235278298735 241.80213086205998,33.0542664699258 242.99563306436383,32.18616624230715 245.68280000237948,29.704766070846087 247.24078487952067,30.558439188680868 249.0631986049524,32.244040068826614 252.58653159670277,32.18616624230715 254.70196080238898,30.247356507496605 254.2302772478573,27.664575083887385 252.3292496259314,25.17572187404331 250.18523361266753,23.583950276634447 248.69075374195072,22.95407501487169 252.9330057771024,16.062669401014492 256.1414901055425,9.09131103336504 261.08809238024253,2.4407491643586665 266.9468665595284,0Z" name="Guanacaste" name_en="Guanacaste Province" gn_name="Provincia de Guanacaste" admin="Costa Rica" adm0_a3="CRI" iso_3166_2="CR-G" iso_a2="CR" postal="GU" type="Provincia" type_en="Province" wikidataid="Q690026"/><path d="M733.8400156166249,379.2505933052919 733.8652876120882,381.2056781343107 739.1204853176911,379.00963930254767 740.7406111981122,379.000508079579 741.961378182309,379.9045001136999 742.5921834321464,381.2422020856121 743.0868435718098,382.63466004867524 743.8674083199118,383.7212122434824 744.8975722903629,384.32382984770106 748.8457778513944,386.0814312238467 756.9101013404785,392.02039132506803 764.8972757522788,394.736331776486 767.2798136877469,396.31106745029007 771.8089047244302,403.9331471320501 772.5077824415699,405.5943652955431 772.3686908028844,405.82150595378636 769.9618706197381,409.7517843852027 764.7066729141557,412.93697815433296 746.5903087674076,420.33349996953433 744.5435953902506,421.79810150933076 742.8327062201157,424.0656591260027 743.6677290474499,424.86863819943994 745.0609463523285,425.72635486201375 745.0337174005574,428.13063792266036 743.3954390026774,430.0238906376205 738.1674702488721,433.27194467894714 736.7470239922136,434.79555428564964 736.5382681097407,437.43669710521584 737.405058193831,439.9317711637605 738.9661876900583,442.2534268995277 744.4800610523286,448.4060987717555 747.4162551603854,452.5288402348152 749.5991136477339,457.08909326278155 750.9923311282556,462.45154612919555 752.0270332280458,474.7525366264729 751.5096820903306,480.9523209817925 749.8623274337697,486.1487557952132 745.9776562106397,490.92091590309417 741.3941072703848,493.1724192321138 736.4293523026122,494.69009051675 731.3829101282107,497.27415481921037 723.6090295525883,504.67032235491774 715.6127787064346,509.1541126026292 714.065263598286,510.40715145938253 713.8655841501546,512.617000372227 715.476633596243,514.3347096676652 720.3960069191513,517.2187242723463 721.3263313411725,518.2119269755826 723.0236059475974,520.7039823152438 724.0038501438218,521.4830157917402 725.1157011452498,521.5467957372174 727.2350252946823,520.7039823152438 728.8369983063994,520.9272149279077 731.9093375246304,522.5399359311983 733.1119518157662,524.348507326568 733.915207386309,529.9424775912634 743.1685306027867,550.1508037081841 742.297202564977,558.0194011785181 741.197803580694,562.0367602885314 738.8064930642555,560.1675358815742 739.0780684388201,557.4785912702748 740.4073583284019,554.5098770882291 741.2006443463912,551.8063736287629 740.7146673880751,549.6477985141349 728.7510578549128,529.1702820108018 724.5201994435433,524.7296993850487 702.6941160034835,508.9091339354865 696.719457938802,503.06069448220785 701.8793898798014,496.77395646198596 702.8299036907614,496.27156619549675 703.8161510111956,494.4629307547255 705.7243253350152,492.11593855748225 706.9392678186374,489.4099775003031 705.8243793371817,486.58188045226643 700.0855631375787,479.43932712248886 699.1207559228342,477.4364037633066 699.0278484469272,474.8303595504966 700.2785246156609,473.9185789927794 702.4654208402985,473.2724277590168 705.2240549729,471.52778774355676 703.1515059785905,470.8672537847562 698.0273077226938,471.1400838752906 695.5188088589672,470.21389288129575 694.2109590750634,468.7563725172343 690.7162128908996,461.88477258648567 691.2950973251257,460.97281379677406 691.5738194015869,460.355259702549 691.9168619707343,459.3642887913411 693.1175108749349,459.3642887913411 694.8112836149794,462.2294466565386 695.325847380885,463.62966667859007 695.5188088589672,465.9920216490051 696.2906545956412,466.38693603417084 701.5149072049728,464.2974532844656 701.5149072049728,462.98341491979795 699.1136092209434,461.97094140515884 696.5693766720906,460.08956602202414 694.4039205531457,457.8347173929922 693.1175108749349,455.7449636095742 691.9168619707343,455.7449636095742 690.5875719055153,457.9137101895414 687.3929880791193,458.04297098897433 683.7410139263503,457.6192817866848 681.0181136544948,458.1578691269416 679.7317039762838,455.7880520508656 677.673448561399,453.3032429028867 675.2364170678866,452.0392575160178 672.7422116079472,453.34633277011255 667.1749166050994,450.0785958469546 665.5454643577381,447.4283773670062 666.631765855976,443.70065227456644 665.4311169517755,443.61445944734976 664.2376145738374,443.70065227456644 664.9594333972439,440.8131349040682 662.4723746391983,439.42679377212926 658.770373748799,438.6581876057737 655.83307171754,437.6812547190442 654.8039440100946,439.75003645697944 653.8748703048275,439.5991900471432 652.7171016120008,438.7587534912501 650.9375682735625,438.7659367376095 650.1014020442022,439.71412076091093 649.887000460439,440.9567954954912 649.1580349351389,442.0342398254781 646.7853239343156,442.4939440864951 640.9750403644955,441.62481302754475 638.6094760655747,442.4867612516753 637.7375761510912,445.99908206468035 639.0668660406759,444.9863463351096 639.0454259349949,444.9073379523862 640.1388741351265,444.9073379523862 646.3064936778873,454.16503698909156 647.1212198015694,456.97297126393914 650.7231666898022,462.6315641589366 652.1239239496128,464.2974532844656 654.4394611596318,465.48221954783793 661.0001503604449,467.4639630478074 663.6372900339186,467.8014279598629 666.0528815973843,469.2446095026344 668.35412540361,472.0519025557173 670.5767554889935,473.94011720615873 672.7422116079472,472.6262700672417 672.8351190838542,476.97694326409214 672.4849296371758,478.7645137440393 671.4200684202563,479.9562007236572 671.4200684202563,481.1622238606829 674.0715016731663,484.7801623779586 675.1435095919795,490.9531781402876 674.6789727393386,497.36964267157254 672.7422116079472,501.7474173280249 668.797222150567,501.89094611126245 662.3723206370319,499.8312786995207 656.3190486758679,496.9174958009995 653.4460671373009,494.52752572550077 654.5252219336452,494.52752572550077 655.3113610741035,495.1519404679445 655.9545658253933,495.43902574124735 658.3415704056412,495.7189327239031 654.9540251011716,494.20455025262436 653.5818548245818,493.30738819595484 652.1239239496128,492.0082763249096 652.1239239496128,494.52752572550077 641.9970213700442,490.113394274413 638.3950744818144,489.5965988795685 627.6392605547463,490.89575732366086 624.6590781364762,490.91011248832103 622.1219924651659,489.7114426833191 619.7850149738288,487.31403872902416 615.5041296491946,481.765227264709 600.231588532414,467.5932051472318 599.2524879138704,465.9920216490051 598.4949355809867,465.79815371483033 594.9001353946477,464.33335569003924 593.806687194516,463.6440277177469 593.2635364453927,458.1578691269416 598.6092831625836,449.94213734655347 599.8528124537893,448.5200791711744 602.6114464107565,446.88251953894405 604.4981804532518,446.1570960916269 605.3629336658328,446.66704811615074 605.9203778187435,447.72285135156466 607.1353203023745,446.50185275378897 611.409058925106,439.9870802596978 612.559680916039,438.7659367376095 610.3584911119797,435.9644031566905 613.0099243648897,432.8107374723559 617.8339604386354,430.22447311397906 622.1505794483838,429.12527946135987 622.1505794483838,428.0332515393856 618.3485242045408,427.5806293997337 616.4403500563673,427.7530572053716 615.1325000968264,428.8019837758375 613.1028316651624,430.9859949943547 611.0445762502745,431.94866078154826 610.3584911119797,430.2532100548512 611.1946573413428,427.25732580151555 613.6531291161765,424.3044117222726 618.0054816353934,422.1920252877095 620.0065634351229,420.8124700941972 620.8427296644802,418.8221220915525 619.7492814643515,417.03291182326393 617.4694777638098,415.789776502906 615.3969287694915,414.12264388180023 614.9609789000713,411.0397711315359 618.3556709064345,412.77165962453176 619.999416557592,413.28187519720797 622.1505794483838,413.3465499408006 621.1000114596143,412.05303945826864 619.7707215700297,411.06851647870064 617.2407826006161,409.72465430067757 616.1687746817997,408.84070804311693 615.5613034399902,408.02142984699043 614.6250830328175,407.4608650504556 612.559680916039,407.31712970188516 614.6894035255156,406.0378707731203 614.3892413433732,405.1107511564939 613.1671521578486,404.4064188080534 612.559680916039,403.8026990814545 613.3529669340371,401.86213270420996 614.2534536560953,400.4174503052349 615.4826895435048,399.13805245584285 617.2407826006161,397.67174426338937 612.5882677236225,385.48713317619934 611.7306613885725,383.9414239310886 608.8505331481118,380.7851834488812 607.6498840682771,381.9786780222059 603.7048946108997,376.86662244285066 600.1100944245577,370.90562438056367 595.4933130570356,366.2313429158974 588.4680871792217,364.98001405274437 588.8754502410673,360.4203606882285 585.0090745045351,356.522094015723 579.6990614724587,353.8248098134914 575.7683654188658,352.80340735029995 561.9680487564756,339.63874383162585 548.4393072930187,333.3647490966795 546.273851174065,331.68102119094624 529.379004687454,325.0463916663065 528.2855564873253,325.0463916663065 527.1492279001767,325.87396099490485 526.1629805797395,325.8667648070458 525.3411077541666,325.1111583801087 524.6836094234552,323.72945369736146 522.2751647375263,324.76573516518454 520.8386739682414,323.62150679039803 519.2092217208801,321.95909857995747 516.1933057931445,321.4193457900654 518.0800400112743,318.15913663174024 515.5715411475359,313.55999874740587 510.9833467632315,309.5291664239503 506.58811385700943,308.0319311310175 506.58811385700943,309.22684297880727 508.1318055059917,309.5291664239503 509.1752266172214,309.96105421594467 511.49791070477136,311.6453870293724 506.9311564261569,310.84641460041075 499.68438226268614,306.5922465812366 495.0890411764911,305.61324137698637 490.6366344794647,305.267706296683 467.152511984457,298.73095827254457 462.65722490042543,298.3637847704838 460.5560890985325,298.73095827254457 458.30487238121145,299.4437000908354 455.9678948898654,299.9188566312664 453.609477117204,299.5660892933593 451.55122170231624,297.83821904505845 450.85798986212757,295.75030885090155 450.02897033466104,294.0655281133274 447.62052564873505,293.52552413448825 448.0707689219397,294.2383284287726 448.3280508927081,294.7711258431125 448.6996804450793,296.0527004675915 445.7981119232916,293.71992615306107 439.2874498113804,289.52214179991256 438.02248041449366,286.8866743578661 437.4007157688879,284.4527232261703 435.85702411990565,283.27891807720357 433.90596958472105,282.5083707625571 432.0192355422315,281.3345269853679 431.41891100231265,279.5413095137064 431.6690460955531,277.69042141185855 431.1830691372223,276.49487530745296 428.43158188214886,276.61010978801426 429.1248137223375,274.6006770555494 428.9318524199013,272.67040492913986 428.4816089710477,270.85531477597425 428.43158188214886,269.2562604027504 429.46785629148496,267.268185954641 432.49091892112597,264.2643368541192 433.684421299067,261.2675373900371 434.91365718647654,259.7762840644364 436.1500397757885,257.84552269444174 436.7146306305929,255.29509050944688 436.1285994944703,253.17685007382053 434.75642921788034,251.33953798418185 432.0192355422315,248.5942691995534 424.91539559229506,238.04430781958155 422.92860737199896,236.49479994967132 420.0770659391131,235.2767852761223 420.455842193375,232.59562072767218 422.92860737199896,228.53039041614846 418.61198836225344,224.98389013402783 417.8187025198984,223.2610189096719 418.72633594385024,220.66580105891936 413.6878981106953,219.12303226039728 398.12234151366897,220.66580105891936 398.12234151366897,219.34652001368593 400.2806511063633,218.50302926728256 403.0464317652241,218.20023454790714 409.13543741150255,218.243491085579 409.13543741150255,217.03229737939262 403.5395554254486,216.7655429149797 398.54399815493605,215.8787558001693 394.0272709652234,214.3430669612582 389.83929294085914,212.09353261879437 384.54357331257887,207.70235752122113 383.7359938907934,206.75053077964768 382.5996653036448,206.49093885759885 380.3698886920049,204.98384021243365 378.7976102354479,203.31084162113143 379.64092316670474,202.51759228027908 376.70362113544866,200.9959644552861 369.4997271833488,194.25271148711656 365.6619384300286,192.34858792337104 363.85381828401853,190.68242675594763 362.74607668009077,190.30735324286547 361.8670300637224,190.70406547456744 361.1094777308387,191.3676505650597 360.10893683097987,191.51911992440048 358.55809865574116,190.30735324286547 359.59437306507726,188.42473536622802 359.9374156342218,187.22011530556088 359.8992742842467,187.19375695168685 359.9295186092021,187.18469748715148 363.44659814768494,186.13117386257716 364.8897354641255,186.15865739638548 365.4297774069277,186.2502689719682 365.99251005094925,186.2685912371973 367.0907465922998,186.15865739638548 368.0846052446578,185.9662726950038 368.57018906226705,185.95711159335147 369.0330821786686,186.06704583021622 369.41882646865497,186.2502689719682 370.0813987982536,186.7999347971924 370.44899043250547,187.05644360420234 370.8574254237112,187.23050245385357 371.3248565855742,187.34043402967703 371.7514443904833,187.31295123567702 372.0328107914653,187.2579852883329 372.9313679616735,186.9831553797095 373.6302456027646,186.8732229427427 374.1975166081588,186.9007061120896 374.71486769179626,187.01063849506355 375.5861957994036,187.34959506430494 377.2017832664403,188.2290403943025 377.5557604483615,188.48554265414342 378.86729081319686,189.62146736777353 381.0093057707169,192.314615899674 381.6537254445692,192.95582271199584 383.0333283869135,194.00921810108122 384.6625304642205,194.8793992293668 385.1072709248758,195.02595479083473 385.58377849359636,195.1358710916593 386.00582809507523,195.09923234859642 386.28265613468454,194.8244406956757 386.1918928559562,194.14661584934987 385.52932036840053,192.25049478375698 385.34325560752245,191.2337078434149 385.35687005983846,190.6840855181098 385.50209146375676,189.60314604012277 385.9740608290559,188.81532966196326 386.8000073762703,187.80764121730107 389.9721862976378,185.022662572836 390.73913651624076,184.51878646738763 394.10645676328926,183.06210085797335 394.4695100361508,182.59485417546514 394.7599528439874,181.99017602479825 394.85525416818297,180.70750377178214 394.73272362344113,180.03867021246455 394.487662691897,179.5255868030682 393.9294680933457,178.88422601923747 393.68894536522885,178.51773094236458 393.52103310213994,178.1329083652984 393.38034990164306,177.6931079242478 393.3848879471162,177.21665355319507 393.5482620067778,176.61191705927862 394.6192696434905,174.37616766854265 394.79625799752574,173.8447055592309 395.19107853641253,170.43589833026422 396.0124868802025,168.0899307120041 396.0941739100422,167.61339378133908 396.03063953594585,167.14601710997184 395.89903274230653,166.67863665270878 395.66758626308723,166.33038968403784 394.37420855400103,165.13900219445577 394.12007105765696,164.79074553416436 393.91585348307257,164.40582775978098 393.8205521588711,163.9384241502472 393.8205521588711,163.41602691228297 393.9294680933457,162.89362505434195 394.25167800925044,162.28873231880908 394.73272362344113,161.5738506300235 395.50875024888995,160.77647148583918 396.5525288230135,160.07073574068195 398.14542558882795,159.24583818660275 398.79892166953493,158.69589957393273 400.3192076544131,157.07354890404176 401.3584480251094,156.35859958857793 401.9438716862616,156.16611169701727 402.69266909116124,156.01028749798445 404.01327586283946,155.9552907009684 404.89368037729264,156.01028749798445 405.8966152785393,156.34026744502563 406.6726419039998,156.68857728804082 409.41823317840357,158.9067100797785 413.34828606947656,165.15733141482863 414.47375167343097,166.51367798651214 414.79142338590543,166.78860898320323 415.93050328422163,167.53091598196355 416.91982373315227,167.59506553385478 418.35842284615387,167.53091598196355 421.70305207608345,166.9352382047144 424.1082807788391,166.23874546464572 425.25643708401293,165.55140842291704 425.66033402974847,165.36811725176457 426.1186889427198,165.2031545189348 427.45744837014433,165.39561088640716 430.59332182206515,167.43010943869803 431.569027976634,170.1793129894843 432.2769820245679,171.17815648005777 433.33437505100756,172.00287613039782 433.6112032485769,172.30527027068442 433.67927566813165,172.96503354427992 433.47959629697164,173.86303190147498 431.6234857859068,177.25330385020195 431.0970584533748,178.56354285915378 430.0850471452824,182.53988374860967 430.0850471452824,183.19036406309723 430.2257303457792,183.91412930416445 431.2014363423821,185.69143644172726 431.39203930669044,186.68084085774365 431.4601118842023,187.34959506430494 430.7930013511735,191.81080538613404 431.5826422709958,194.64124572665443 433.52497801531877,198.64392284805993 434.5642182280491,200.22842810733306 437.43687825064256,203.78195420450749 438.85278650446764,206.08979479016202 441.725446369101,209.53306454864028 442.82368291046043,211.23630657297053 442.9325988449291,211.65753078382545 443.17312157304593,212.20694866321236 443.3364956327193,212.4633418639796 443.7086254703867,212.57322440084573 444.2940491315272,212.59153810974985 445.6509610567526,212.2161054978195 447.0351020445612,211.14473578239947 447.4707660983678,210.96159359840402 448.73237669938,211.56596051381408 450.96061673220686,215.21033959611503 450.82447189309147,216.5288513110936 450.6701742402757,216.91341151086223 450.0892887825625,217.44446644060545 449.2224988783854,217.90226864120473 446.46329299369387,219.0009785555557 437.82262254063187,224.62237974367346 435.8757487508357,225.21744678301417 434.5233748710923,226.5265726296055 431.2740471233184,231.62546963441795 430.03512738147094,232.17469529528788 429.753760822523,232.44015256554133 429.45424192374895,232.83375924654052 429.36801669049083,233.31889875619981 429.38163130076396,234.36239243477263 429.1274939623711,235.29602853627722 429.71291730761493,235.9550566841766 430.9200699413972,236.7971372447335 434.59144729064997,238.26159583619247 437.4958744212998,239.04872681881216 439.78311078274106,239.17686348425963 441.8842822253441,239.5978817455033 443.4635643808855,240.82430874780616 447.28016313406243,245.89448398242496 445.7144955887913,247.16653388765152 447.3890790685282,247.9260901182086 448.65068966955215,248.6215784732969 449.3495674685974,249.15234023848325 450.0076017527229,249.75630472511438 450.3071206515087,250.10403904261383 451.3191319596012,251.51325643616107 452.17684561488954,253.14204965770526 452.32206701880494,253.8283252771799 452.41736865891767,254.80739771880673 452.1586929591433,256.2714004016522 451.8727885126882,256.9759386592685 451.5233495341826,257.42427663089495 451.1784489170702,257.66216903823897 450.7518611121611,257.8451622914268 450.2708154979704,257.96410783649856 449.7307735551653,258.02815528807685 446.35891510468946,257.8451622914268 445.315136688523,257.9732573857682 444.8250146674835,258.11965141157003 444.4029650660047,258.3483913303568 444.0626024943537,258.6228779199493 443.8266179696642,258.97970858505124 443.69047281464043,259.4005830081805 443.66778195546686,259.8854998026614 443.72224008065984,260.35211405765097 445.07007575698475,264.8167829476949 445.49666340393674,266.9483588300729 445.3695946557588,270.36969662376015 445.4240527809547,270.91855564395803 445.84156417900624,271.9613738307264 449.7398498040569,278.7941193932794 449.87145675565336,279.19655878105766 451.0286894676729,285.0773508240236 451.5051968784363,286.40342060799657 452.28122350389395,288.04953487481356 453.3703836384017,289.52185363335116 454.6229178325651,290.6923671096847 455.1765742276891,291.0764366072268 456.9827648169854,291.29590384413495 462.40587494625,290.40888536795643 463.6538707790437,290.9118356073399 464.0895349907986,290.97584717921046 464.7974888807901,290.96670276409924 467.53400390630816,290.25342720232015 468.06950764568006,290.24428251677335 468.60501138506373,290.2991502906533 469.02252278311823,290.48204213256867 469.40826707311635,290.73808970071326 470.2387516658009,291.6799694374707 470.57457603402463,291.9817337911618 470.96485836948705,292.20119768254443 471.39144601643903,292.3475065460901 471.9042590546033,292.39322786275034 472.38076662332384,292.3292178186068 472.9253467695533,292.09146575864077 473.4018541803168,291.65253635410977 474.46832361360214,289.5127089941742 474.7179227485677,289.14691892894746 475.19443047523947,288.689677895842 477.1776094185739,287.0984521515821 477.7993383912069,286.4948725301462 478.1850825232391,285.9553037494756 478.3484567408637,285.5071836574962 478.44375806505633,284.45545959257066 477.8311054992721,280.9526265283451 477.8583344039188,280.5044683409595 478.2939986156708,280.21179186969937 479.2969336748716,280.01057590369044 481.3481853536721,280.047160646898 485.95896323007815,279.1691199096027 493.4605539427781,278.7758264766175 496.0654618587455,279.0136321995387 496.98670988811847,279.8550902531641 497.66743487346037,280.33983793489483 498.85189649011784,281.82149473846107 499.12872484563843,282.0867257134125 500.9984498090193,282.4159761638262 507.252044215063,282.26049716793295 509.53928057650717,283.2482404268117 512.162341306172,283.467736509658 520.0224472462604,282.7635166244205 521.6017294018018,282.94643158381837 522.0237790032924,283.0927633028046 522.6182787553792,283.5774842454051 523.0947864820538,284.3548589236324 523.466916161767,285.74496212050855 523.5213741290058,286.5680341253227 523.462378116294,287.26306373698 523.1265537480703,288.74454710785267 523.0312521079604,289.8784969627111 523.0720956228803,290.41803002813805 523.3716145216544,291.06729204848244 523.988805448823,291.79884656908473 525.3230265148777,293.00589157589536 526.6663241457296,293.4905316148997 527.4831942860982,293.65512547037855 529.0760908939584,293.380802230858 531.367865458821,293.3350816739535 532.9607622246473,293.57282859959247 533.863857440308,293.90201524013565 534.2904450872629,294.15804806939195 534.6807275806766,294.8072693851018 535.0392428080738,295.76737248285946 535.3977580354682,297.98012214768755 535.3932198320408,299.0407497564835 535.2616130383987,299.790492722488 534.7941817185814,300.60422701067597 534.4356664911842,301.4819508045589 535.0937009332639,302.5790872115312 538.9102995284867,304.30703616042456 541.7829593931172,309.81054168943643 545.781084861702,313.69560269877377 557.2898772918754,321.3461547749074 559.9900866899926,322.20529615483895 560.2215331692178,321.80314644477346 560.5210523839031,321.4923924915379 560.8387240963776,321.2181966217596 561.2153919795211,320.9805591737575 561.6102123604537,320.7977604641716 562.0685672734251,320.65152106646985 562.5632276558431,320.57840131441304 563.1078078020755,320.57840131441304 563.5933916196848,320.6698009906601 564.1334335624987,321.0719582416412 564.7188572236362,321.69346871456645 565.9759293053245,323.941820918384 566.2436812539876,324.63641684034354 566.9788643645253,328.0544439613971 567.1649292833605,328.49310746116 572.846714796491,334.2319945510819 574.0084855539808,335.7762842085031 574.6392907755143,336.90020991791573 574.4123824997164,338.6363147963362 574.4350732009358,339.7145024566477 574.720977805345,341.6606744769254 575.8419052058721,345.2147912203685 576.6950806577332,346.93238832716764 577.1715882264508,347.6449940160588 577.8205462616846,348.39413512964313 579.0276985795585,349.48128664432943 587.7591326272543,353.4003543893599 589.0706628341326,353.74748579104073 589.5607850131233,353.6744056919305 589.9964489089787,353.5373801930003 590.323197186262,353.2724634385418 590.622716085039,352.9435994565356 592.1611548836175,350.82421212040293 592.4833647995193,350.5684190903811 592.8872615873096,350.3491668934314 593.3546927491725,350.16645639719377 593.8675057873368,350.0294229302764 594.4393148382071,349.9472027671228 594.9022079546057,349.9472027671228 595.4014063824969,350.0294229302764 595.8733757477902,350.16645639719377 597.5888030583552,350.9886498329965 600.0257988691878,353.3181387291022 604.0239243377698,358.22348014378457 604.6456531524486,359.28305580950774 604.6910348707986,359.75803207169315 604.7863363529455,360.21473674765485 606.1114811700968,364.7633300672814 606.3066223378324,365.1469311470404 606.7695154542223,365.82279402287446 607.972129884589,367.2384286086383 623.919249724664,377.53049415270675 624.3231466703967,377.71312404156646 626.2382533521276,377.5852831753612 627.7222340255104,377.3661266377626 628.1760507350662,377.35699518477816 628.7932415042718,377.41178435946193 629.2289055580814,377.5852831753612 629.9731649175078,378.13317107989803 630.7628061532386,379.07370112256564 631.0532488031151,379.3567703204912 631.8247373830995,379.8133311945272 632.3239356530365,379.95942997750205 632.7913669728538,380.0598725043772 633.2497218858281,380.0142167147351 633.662694922507,379.8955117919537 634.0257483533314,379.6672320706984 634.3434202237601,379.34763915803615 636.2403740917789,376.699520707596 636.8711793133123,376.1059615962904 637.4248357084451,375.74069173368787 637.8060417950041,375.55805576302544 638.1736332713018,375.3206284569863 638.5094576395226,375.01014528201654 638.740904276696,374.3709102041825 638.8634348214438,373.44857373935366 638.359698190137,369.3937845205368 638.4686141246028,368.63576532544914 638.754518886978,367.7407426764143 640.10235440534,365.2747976996579 640.4381789315266,364.1787906942467 640.3338010425223,362.0780562257008 640.1205072190404,361.0915999964222 639.8572933158475,360.37914959295745 639.6122323843034,360.01378715648457 639.4851637940885,359.54794708728707 639.2900224683987,359.1643111739323 638.9859653661973,358.9359555379046 638.5366867021146,358.9268212186193 638.0783319470975,359.0090294077649 637.6063624238501,359.0090294077649 637.2070036815447,358.8628814227033 636.8711793133123,358.60712173667395 636.5988893191761,358.29655485596163 636.2721411998558,358.00425532980285 635.8727824575387,357.8032985537647 634.3388818623786,357.4927277917558 633.9622139792381,357.27350038457854 633.7398439068617,356.92638866544615 633.7035384374267,356.4513906362852 635.4280419968834,347.5353629589389 635.577801604229,347.0785644622965 636.1496108130564,346.2197740460561 640.9555300151552,340.8383558307569 641.3548887574723,340.1348079133475 641.7996290601706,339.12058791976784 642.9795524733977,334.81681877394334 643.4878273081347,333.9030283188815 643.9597966734368,333.235952694818 647.7990861278214,329.2150671811992 652.3871734609739,330.55843819389787 652.9544443084228,330.90569918930976 653.5943259368021,331.4540020520135 653.7304709338716,331.9200557249616 653.8393868683492,332.4957642207342 654.302279984739,333.86647644094217 654.6971005236257,334.0309598779007 655.0783066101966,333.994407917728 655.4731271490863,333.75682051644907 655.7998752684066,333.50095613665263 656.4216040830942,332.86129056151765 657.0751001637924,332.5505932641311 658.0553443638314,332.31300022684917 661.3409774230831,332.00230012939403 662.0852369404785,331.7555667415013 662.375679748318,331.4540020520135 664.4269312691497,328.5844951917992 664.8807479786936,328.1458326706838 665.5297060139305,327.72544445433164 666.8140073161709,327.04916193615617 667.5764193313465,326.9120767399105 668.161842992487,326.9394938675655 668.9923275851834,327.35988737161045 669.763816165159,327.8716667660805 673.0131437549759,330.6863766276108 673.4125024972928,330.87828401176995 673.8163996009797,331.12502111866405 674.7149564552707,331.5271088433772 677.9597463155228,332.6054222581091 678.803845360538,333.04405274953064 680.4784291561833,334.16802901632184 683.2240204306017,335.56611683447755 684.4674782179253,335.9407623308647 685.397802496187,336.1052401685106 685.9968406096551,336.1052401685106 688.4292983750117,335.65749393894794 692.2050534553147,335.38336205556203 693.357747963904,335.51129050605476 694.1201601370338,335.73059568291967 700.9818692213576,344.5843844374212 702.2480177098887,345.7903744094452 702.9423573055067,346.2928630059541 709.2322571809971,349.85584698967637 709.5953106118216,350.12991423279993 709.9129823242961,350.42225109892274 710.1716578661162,350.769399292879 710.5800930152761,351.53677268568947 711.2063600333823,353.2724634385418 713.1214667151132,362.77221989830605 713.3619894432212,363.4298411833986 713.8929549791806,364.343192701309 714.3830771581682,364.78159682400496 714.9095046486633,365.0921311833957 720.9588816380826,366.7726425093836 722.057118021479,367.2840935905213 722.7832248831252,367.7316098134022 723.71808720686,369.2019971476832 724.8163239061677,372.25225568340306 725.7103427149856,373.55815905759243 728.6919186720448,376.52601943333417 731.5328115865672,377.42091596336127 732.0864678237311,377.78617600669236 733.7156700590041,379.14675134020456 733.8400156166249,379.2505933052919Z" name="Puntarenas" name_en="Puntarenas Province" gn_name="Provincia de Puntarenas" admin="Costa Rica" adm0_a3="CRI" iso_3166_2="CR-P" iso_a2="CR" postal="PU" type="Provincia" type_en="Province" wikidataid="Q502170"/><path d="M342.5406835210384,211.37108109290938 346.55875543746447,214.9270662419394 357.2145151867231,219.2527993182251 358.55809865574116,220.00976884811482 359.8087746488376,219.51954213128232 362.61028899281575,220.66580105891936 369.3925264792828,224.55858368709193 372.522789812981,225.56778040654905 375.8817483098758,225.65428210297142 379.0405986267859,224.29186442791675 381.11314762110413,225.94262026415728 385.5369673349098,228.72500910724753 387.5523423627865,230.4549236809087 387.5523423627865,231.55771698835497 384.0504494767201,232.40101517301127 384.207677445328,234.95245745621384 386.3302533528991,237.92179006504765 388.63864386102733,240.127069071308 387.20929979364195,240.6171195939584 385.8585697983674,241.56838232432938 383.7359938907934,243.75190317971393 386.3302533528991,244.9192963838636 389.396196193911,245.26518613209552 395.72104352963373,245.07062354722768 395.72104352963373,246.17313685563846 393.24827835101854,247.8376763844272 390.1037216135242,249.1563034579236 387.3951145698187,250.9720686572462 386.2373458769921,254.08467688264702 385.5798477219179,254.80516419922063 381.4418966108211,257.1610956380094 380.6629041722535,258.4578979886997 379.7624174501953,261.72138940870605 379.0405986267859,263.09733222144325 373.53047741474234,260.37423082986794 370.60746878727656,260.1364936189014 369.342499390381,262.4922094973821 370.12149182894865,263.940171189219 372.82295217075756,267.36182876890456 372.3941488275938,268.04613628014 366.7053597169044,270.8193006093814 365.7476992040419,271.05699423142335 365.10449427711785,271.9645431160671 360.94510323597433,274.08210275706097 360.08749672529,275.48656442092823 356.24970797197864,287.6643654272003 354.64169600593266,290.7606270520603 352.5405602040397,293.52552413448825 351.2470038239352,293.52552413448825 346.3372071518105,283.40854189824717 331.7007240844141,263.6232076244968 331.6690943733352,263.5469782813044 331.6885033066472,263.52682139331034 332.1377818127669,263.06023267741415 333.17248398004466,262.58449109157334 333.5400756142848,262.5112998078661 333.97120146466403,262.2368315176793 335.10120511408275,259.9037984556312 335.61401815224707,259.47377819442335 336.0678347038369,259.17184721992953 336.48988430531574,258.7052236765009 336.8710903918895,257.96410783649856 337.3702888197807,256.42694849945 337.75149474838554,255.65835376490418 338.1054719303067,255.1185011695861 339.1084068315563,254.3132883385182 339.27178089122674,253.9838799105611 339.1946320648144,253.5812669499048 338.69997184035645,253.01394392218444 338.4549107508581,252.2819059992078 338.50029246919644,251.19298274024783 340.30194485506837,244.4027637543493 340.9690555460455,242.58153174506612 341.4864064717317,241.49242595315525 341.4092578032736,241.06226914835474 341.07797148052305,240.7236328859319 338.50936887605104,240.11957402361966 338.0600902119713,239.9639821229966 337.6924987356825,239.70771200733998 337.46105225645726,239.34161016133777 337.2069147601073,238.3531233510112 337.0526171072915,237.30054910267287 336.69863992537034,236.46762885878002 336.46265540068083,236.08320023565497 336.27205227841836,235.66215611132736 335.79554470969777,234.9207451172294 334.82891511994364,234.04202359037333 334.0801175570869,232.99852409198715 333.74429318886615,232.71476215505794 333.331319836276,232.50422813710207 331.9789459565326,232.03738937286056 330.8080989501512,231.37831627631718 329.8006256875201,231.15862356164524 328.13965650214794,231.1769313067292 327.6495343231455,231.0670845892859 327.21387042730186,230.88400652487758 326.45599629963635,230.44461630785608 326.02487044926585,230.25238215858698 324.4637409494679,229.96860679810828 323.9282372100842,229.9502986672357 323.3609662046782,229.9594526537436 321.72268787847963,230.17914980321743 320.9784285190502,230.06014736475655 320.23416900165785,229.68482971416807 319.56252026521344,229.08980912265557 318.9725585585998,228.28423283860116 318.6730395018598,227.26809213217032 319.4082226123976,225.90405515862932 321.0192718760041,224.42097116951675 325.3441453059639,222.3336023773669 327.1775651158094,221.7568162097511 328.3711031393185,221.63779592652028 328.6887746938388,221.921612943559 328.9610648459321,222.2237388403894 329.29235101073726,222.5167081210593 329.6508662381316,222.69981295875016 330.467736220546,222.47093158087492 335.0013654285057,219.86161986800514 335.8772317395374,219.48623540091594 339.7346740076254,218.56149713323504 340.7648379714641,217.1148469205161 342.5406835210384,211.37108109290938Z" name="Puntarenas" name_en="Puntarenas Province" gn_name="Provincia de Puntarenas" admin="Costa Rica" adm0_a3="CRI" iso_3166_2="CR-P" iso_a2="CR" postal="PU" type="Provincia" type_en="Province" wikidataid="Q502170"/><path d="M348.8742928231207,197.31792668619045 350.589505668861,197.72901325251468 351.5614595855079,198.55838963311652 352.9908036528933,198.94061993699526 354.8489508878052,198.89013680116358 354.8489508878052,199.98633085194805 352.71208157643207,200.75798093766207 350.01776793651686,201.40702436870623 347.0304389919991,201.66663947300165 344.050256573729,201.31327401386764 341.0057538384069,200.05844812480447 339.39774187237276,198.4285751615572 336.9678569051197,193.94257462007005 340.27678831310385,192.8318375430505 341.75615946939985,192.73086025910342 347.3591881573592,193.68292371795118 352.5405602040397,195.26244791982407 352.5405602040397,196.47410752660332 346.4515545577613,196.47410752660332 348.116740490237,197.36119900441366 348.8742928231207,197.31792668619045Z" name="Puntarenas" name_en="Puntarenas Province" gn_name="Provincia de Puntarenas" admin="Costa Rica" adm0_a3="CRI" iso_3166_2="CR-P" iso_a2="CR" postal="PU" type="Provincia" type_en="Province" wikidataid="Q502170"/><path d="M3.273197722872683,1004.6282076506053 0,1004.7922515315231 2.294097104329134,1000.8765261484792 4.416673011911957,999.2502794068565 6.875144786739755,997.7809287165575 9.319322982142971,997.2958957302637 9.319322982142971,999.0933593547395 9.154948487281525,1001.3686748492252 6.875144786739755,1003.8151172203005 3.273197722872683,1004.6282076506053Z" name="Puntarenas" name_en="Puntarenas Province" gn_name="Provincia de Puntarenas" admin="Costa Rica" adm0_a3="CRI" iso_3166_2="CR-P" iso_a2="CR" postal="PU" type="Provincia" type_en="Province" wikidataid="Q502170"/><path d="M565.7376949630409,443.56355997348925 568.0480088806596,442.41600649105254 570.5683573238965,442.31102233299845 570.3591388114725,444.3959709593528 568.9942281718805,444.9175972507696 566.7885000628332,444.5014716120202 565.7376949630409,443.56355997348925Z" name="Puntarenas" name_en="Puntarenas Province" gn_name="Provincia de Puntarenas" admin="Costa Rica" adm0_a3="CRI" iso_3166_2="CR-P" iso_a2="CR" postal="PU" type="Provincia" type_en="Province" wikidataid="Q502170"/><path d="M532.7883119160853,221.8575253637112 534.5990405508459,221.50962021660763 539.241585693283,220.03557765407476 542.6633639075703,217.99382854397356 544.8552986289017,212.13369313642843 545.9263061076603,208.6173216764007 545.7493177536368,207.3169415328728 545.1775087027577,206.69421384256393 544.3288712963727,205.94326814122797 542.8993485902168,204.3772396701123 542.6089057823773,200.1276805404596 542.1505510273572,198.7080366739274 539.8360856033239,196.21670406945344 535.8016548232466,190.25354440327828 535.1753878051405,188.83365108776454 535.0392428080738,187.95421509283557 535.9151091191056,187.62442317389915 543.6662989667741,187.01979942423608 547.0653863218877,186.28691333698814 550.9545955400838,185.99375646927183 551.7986947430533,185.70059774633268 552.8606259729113,184.6012392463104 556.2687895769254,180.2219129721211 562.762906869043,179.54391127478138 561.1836247135018,181.110632532701 560.035468408328,182.6956332305245 557.6393159544639,190.66576469711688 560.1126172347402,199.09271793745555 560.5119759770486,199.79795991385325 561.1745484646101,200.594781407412 562.7084490597614,201.95026770381457 564.1969679365803,202.99433636135518 564.9911470598212,203.4156217532634 565.3496624451726,203.66289654994344 568.8622039381822,207.6374605423195 569.5202380643624,208.63563666297418 569.9922075876068,210.19239015814296 570.337108204728,214.7982983153302 571.1222110790802,218.7079913705282 570.7273906981446,220.1454455649767 570.1964250042341,220.85042582405723 569.5338526746355,221.43637682449986 568.5536084746053,221.78428225888965 566.4297461728228,222.03147706213534 564.2241968412181,224.43928090990553 563.6523877903509,224.62237974367346 562.9943535062165,224.76885842019874 562.4815406260153,224.6132249035501 562.0685672734251,224.402661104618 560.4575180098186,224.14632165116222 555.8331253651735,224.2012515967189 555.6652132600299,224.29280154795237 547.5872754509894,227.15823807994826 542.9538065574527,234.8017525079839 542.6497492972971,236.2479557654496 542.9401921051367,236.4767819657716 543.6118408415812,236.87036100345233 547.1198441311693,238.3988870538706 542.0552495452105,246.57169389916604 540.7482573838053,247.98099720027335 538.5744751602571,249.4634741579873 535.4885213141994,252.24530405188378 534.317674307818,254.16688489405487 533.7730941615886,255.31065286749163 533.6551018202623,256.0884020415792 533.6732544760115,256.6373953951941 533.7549415058423,257.1314850333009 533.9455444701476,257.57067203676286 534.2087580574322,257.90006031448826 534.5945025053727,258.10135219836974 535.0937009332639,258.11965141157003 535.5974374066222,258.0647537547204 537.7349141607237,257.2412820549551 539.1553606179791,256.866141137114 539.6727117016165,256.82039202881026 540.7210283212044,256.9667889532782 541.7330396293057,257.2046830707428 548.2135424691044,255.75900367026304 549.6612178309946,255.96030295851415 550.0424239175684,257.6438696812917 550.4145535972816,258.50393372006585 550.7186110153942,259.4005830081805 551.880381772884,261.5506548282135 555.2749309245704,262.657682442748 556.2279460620056,263.4993750358461 556.336861996486,263.9110682479853 556.391320121679,264.24956929459034 557.9569876669472,266.8660250136973 561.8507354044818,271.91563653472537 562.7810595247893,272.75719640986307 563.2893343595292,272.88525869087437 565.426811113619,273.6536269924659 569.0346542467414,275.4464476225974 569.9150586032521,275.6476793374064 570.3507228150041,275.50132913998016 570.7273906981446,275.2726562376022 571.2447416238191,275.02568852368154 571.9663102820379,274.89763090608614 573.3731422869772,275.0531293258664 574.0901725838146,275.30924408269715 574.6029854640246,275.6568261231219 574.8843518650067,275.9952593785346 576.2140348855883,278.1813083694941 577.4030348636213,280.6965366205321 577.5346416572636,281.13554725619963 577.8750040709605,281.9586834377658 578.6192635883529,283.36713415996365 579.4951298993786,284.75726057264404 580.0805534025737,285.4157300501444 580.6205953453759,285.8547056308488 581.0971030720477,286.0193206739725 584.9545451821815,286.82409859869756 585.7895679782964,286.7692276082788 589.1568880673907,286.40342060799657 591.1355291232062,289.14691892894746 591.5984222396048,289.5127089941742 592.4742883926735,290.0613901011915 595.1336544338338,290.95755818845174 595.9187574661285,291.41478158544794 596.3998030803162,291.8720014618417 596.5767917502599,292.3109292446298 597.1077572862191,294.19462423427655 597.4844251693509,296.53544358926405 597.7839440681366,296.8097522866058 598.1606119512772,296.84632682204915 600.5930697166367,295.648503285237 601.4689360276626,295.31932614952564 601.9817489078727,295.2096001391372 604.0239243377698,295.40162060413655 604.6184242478107,295.3833329750725 605.1403135348667,295.31932614952564 605.6258973524876,295.2004563753684 606.0751758586043,295.02672300555236 606.456381787218,294.83470117171254 606.7831300645042,294.5878152734653 607.118954432728,294.3043521165805 607.3821681779636,293.9568796356654 608.2534961276168,292.38408366589147 608.9523739266621,291.59766983111456 611.0308545100975,290.96670276409924 615.5145639542458,295.63935958890335 617.0393879845942,296.90118834441864 618.7684299054471,297.7332492898616 619.2131702081452,297.88868790458514 637.70620210943,309.0700662289745 643.5422852753735,325.03854772160906 645.0308041521953,327.08571807399386 645.6479949214009,327.6888888611018 647.7990861278214,329.2150671811992 643.9597966734368,333.235952694818 643.4878273081347,333.9030283188815 642.9795524733977,334.81681877394334 641.7996290601706,339.12058791976784 641.3548887574723,340.1348079133475 640.9555300151552,340.8383558307569 636.1496108130564,346.2197740460561 635.577801604229,347.0785644622965 635.4280419968834,347.5353629589389 633.7035384374267,356.4513906362852 633.7398439068617,356.92638866544615 633.9622139792381,357.27350038457854 634.3388818623786,357.4927277917558 635.8727824575387,357.8032985537647 636.2721411998558,358.00425532980285 636.5988893191761,358.29655485596163 636.8711793133123,358.60712173667395 637.2070036815447,358.8628814227033 637.6063624238501,359.0090294077649 638.0783319470975,359.0090294077649 638.5366867021146,358.9268212186193 638.9859653661973,358.9359555379046 639.2900224683987,359.1643111739323 639.4851637940885,359.54794708728707 639.6122323843034,360.01378715648457 639.8572933158475,360.37914959295745 640.1205072190404,361.0915999964222 640.3338010425223,362.0780562257008 640.4381789315266,364.1787906942467 640.10235440534,365.2747976996579 638.754518886978,367.7407426764143 638.4686141246028,368.63576532544914 638.359698190137,369.3937845205368 638.8634348214438,373.44857373935366 638.740904276696,374.3709102041825 638.5094576395226,375.01014528201654 638.1736332713018,375.3206284569863 637.8060417950041,375.55805576302544 637.4248357084451,375.74069173368787 636.8711793133123,376.1059615962904 636.2403740917789,376.699520707596 634.3434202237601,379.34763915803615 634.0257483533314,379.6672320706984 633.662694922507,379.8955117919537 633.2497218858281,380.0142167147351 632.7913669728538,380.0598725043772 632.3239356530365,379.95942997750205 631.8247373830995,379.8133311945272 631.0532488031151,379.3567703204912 630.7628061532386,379.07370112256564 629.9731649175078,378.13317107989803 629.2289055580814,377.5852831753612 628.7932415042718,377.41178435946193 628.1760507350662,377.35699518477816 627.7222340255104,377.3661266377626 626.2382533521276,377.5852831753612 624.3231466703967,377.71312404156646 623.919249724664,377.53049415270675 607.972129884589,367.2384286086383 606.7695154542223,365.82279402287446 606.3066223378324,365.1469311470404 606.1114811700968,364.7633300672814 604.7863363529455,360.21473674765485 604.6910348707986,359.75803207169315 604.6456531524486,359.28305580950774 604.0239243377698,358.22348014378457 600.0257988691878,353.3181387291022 597.5888030583552,350.9886498329965 595.8733757477902,350.16645639719377 595.4014063824969,350.0294229302764 594.9022079546057,349.9472027671228 594.4393148382071,349.9472027671228 593.8675057873368,350.0294229302764 593.3546927491725,350.16645639719377 592.8872615873096,350.3491668934314 592.4833647995193,350.5684190903811 592.1611548836175,350.82421212040293 590.622716085039,352.9435994565356 590.323197186262,353.2724634385418 589.9964489089787,353.5373801930003 589.5607850131233,353.6744056919305 589.0706628341326,353.74748579104073 587.7591326272543,353.4003543893599 579.0276985795585,349.48128664432943 577.8205462616846,348.39413512964313 577.1715882264508,347.6449940160588 576.6950806577332,346.93238832716764 575.8419052058721,345.2147912203685 574.720977805345,341.6606744769254 574.4350732009358,339.7145024566477 574.4123824997164,338.6363147963362 574.6392907755143,336.90020991791573 574.0084855539808,335.7762842085031 572.846714796491,334.2319945510819 567.1649292833605,328.49310746116 566.9788643645253,328.0544439613971 566.2436812539876,324.63641684034354 565.9759293053245,323.941820918384 564.7188572236362,321.69346871456645 564.1334335624987,321.0719582416412 563.5933916196848,320.6698009906601 563.1078078020755,320.57840131441304 562.5632276558431,320.57840131441304 562.0685672734251,320.65152106646985 561.6102123604537,320.7977604641716 561.2153919795211,320.9805591737575 560.8387240963776,321.2181966217596 560.5210523839031,321.4923924915379 560.2215331692178,321.80314644477346 559.9900866899926,322.20529615483895 557.2898772918754,321.3461547749074 545.781084861702,313.69560269877377 541.7829593931172,309.81054168943643 538.9102995284867,304.30703616042456 535.0937009332639,302.5790872115312 534.4356664911842,301.4819508045589 534.7941817185814,300.60422701067597 535.2616130383987,299.790492722488 535.3932198320408,299.0407497564835 535.3977580354682,297.98012214768755 535.0392428080738,295.76737248285946 534.6807275806766,294.8072693851018 534.2904450872629,294.15804806939195 533.863857440308,293.90201524013565 532.9607622246473,293.57282859959247 531.367865458821,293.3350816739535 529.0760908939584,293.380802230858 527.4831942860982,293.65512547037855 526.6663241457296,293.4905316148997 525.3230265148777,293.00589157589536 523.988805448823,291.79884656908473 523.3716145216544,291.06729204848244 523.0720956228803,290.41803002813805 523.0312521079604,289.8784969627111 523.1265537480703,288.74454710785267 523.462378116294,287.26306373698 523.5213741290058,286.5680341253227 523.466916161767,285.74496212050855 523.0947864820538,284.3548589236324 522.6182787553792,283.5774842454051 522.0237790032924,283.0927633028046 521.6017294018018,282.94643158381837 520.0224472462604,282.7635166244205 512.162341306172,283.467736509658 509.53928057650717,283.2482404268117 507.252044215063,282.26049716793295 500.9984498090193,282.4159761638262 499.12872484563843,282.0867257134125 498.85189649011784,281.82149473846107 497.66743487346037,280.33983793489483 496.98670988811847,279.8550902531641 496.0654618587455,279.0136321995387 493.4605539427781,278.7758264766175 485.95896323007815,279.1691199096027 481.3481853536721,280.047160646898 479.2969336748716,280.01057590369044 478.2939986156708,280.21179186969937 477.8583344039188,280.5044683409595 477.8311054992721,280.9526265283451 478.44375806505633,284.45545959257066 478.3484567408637,285.5071836574962 478.1850825232391,285.9553037494756 477.7993383912069,286.4948725301462 477.1776094185739,287.0984521515821 475.19443047523947,288.689677895842 474.7179227485677,289.14691892894746 474.46832361360214,289.5127089941742 473.4018541803168,291.65253635410977 472.9253467695533,292.09146575864077 472.38076662332384,292.3292178186068 471.9042590546033,292.39322786275034 471.39144601643903,292.3475065460901 470.96485836948705,292.20119768254443 470.57457603402463,291.9817337911618 470.2387516658009,291.6799694374707 469.40826707311635,290.73808970071326 469.02252278311823,290.48204213256867 468.60501138506373,290.2991502906533 468.06950764568006,290.24428251677335 467.53400390630816,290.25342720232015 464.7974888807901,290.96670276409924 464.0895349907986,290.97584717921046 463.6538707790437,290.9118356073399 462.40587494625,290.40888536795643 456.9827648169854,291.29590384413495 455.1765742276891,291.0764366072268 454.6229178325651,290.6923671096847 453.3703836384017,289.52185363335116 452.28122350389395,288.04953487481356 451.5051968784363,286.40342060799657 451.0286894676729,285.0773508240236 449.87145675565336,279.19655878105766 449.7398498040569,278.7941193932794 445.84156417900624,271.9613738307264 445.4240527809547,270.91855564395803 445.3695946557588,270.36969662376015 445.49666340393674,266.9483588300729 445.07007575698475,264.8167829476949 443.72224008065984,260.35211405765097 443.66778195546686,259.8854998026614 443.69047281464043,259.4005830081805 443.8266179696642,258.97970858505124 444.0626024943537,258.6228779199493 444.4029650660047,258.3483913303568 444.8250146674835,258.11965141157003 445.315136688523,257.9732573857682 446.35891510468946,257.8451622914268 449.7307735551653,258.02815528807685 450.2708154979704,257.96410783649856 450.7518611121611,257.8451622914268 451.1784489170702,257.66216903823897 451.5233495341826,257.42427663089495 451.8727885126882,256.9759386592685 452.1586929591433,256.2714004016522 452.41736865891767,254.80739771880673 452.32206701880494,253.8283252771799 452.17684561488954,253.14204965770526 451.3191319596012,251.51325643616107 450.3071206515087,250.10403904261383 450.0076017527229,249.75630472511438 449.3495674685974,249.15234023848325 448.65068966955215,248.6215784732969 447.3890790685282,247.9260901182086 445.7144955887913,247.16653388765152 447.28016313406243,245.89448398242496 448.55992639082973,245.85787784095416 448.84583099524195,245.52842120662305 449.0727391130768,244.18312073152254 449.36318192091636,243.51503466526557 452.6079716232142,239.4972039012724 452.68965865305387,238.92059002768931 452.6397387312882,238.46295598564714 453.15255176944373,237.84056780854095 454.3097843235091,236.98019662613322 457.3322037954881,235.4058670057929 459.3789171128983,233.39212694531741 459.60128750117724,232.97106326415047 459.77373780973926,232.71476215505794 461.19418426700634,231.84516040211736 466.6036794700776,229.46513066997915 474.41386548841217,228.81518217467905 478.7024337648336,227.98213897017249 482.1105973688477,228.9616501184332 485.58683355036493,229.5200553506795 486.25848228681815,229.74890852306874 487.1025814897788,229.9502986672357 489.2082909778521,230.19745786100495 490.1340772106494,230.48123240735046 493.2654126171,230.04183926311924 504.99657511964705,226.76459226286204 509.8751049447279,225.1808274762843 512.457322159473,222.3885342258865 515.5432760055395,221.8575253637112 518.9968213278919,223.5970189721545 521.0026912883453,224.43928090990553 527.4605034269246,221.53708638473347 528.2728353638629,221.4821538759142 532.7883119160853,221.8575253637112Z" name="San José" name_en="San José Province" gn_name="Provincia de San Jose" admin="Costa Rica" adm0_a3="CRI" iso_3166_2="CR-SJ" iso_a2="CR" postal="SJ" type="Provincia" type_en="Province" wikidataid="Q647808"/><path d="M562.9943535062165,224.76885842019874 563.6523877903509,224.62237974367346 564.2241968412181,224.43928090990553 566.4297461728228,222.03147706213534 568.5536084746053,221.78428225888965 569.5338526746355,221.43637682449986 570.1964250042341,220.85042582405723 570.7273906981446,220.1454455649767 571.1222110790802,218.7079913705282 570.337108204728,214.7982983153302 569.9922075876068,210.19239015814296 569.5202380643624,208.63563666297418 568.8622039381822,207.6374605423195 565.3496624451726,203.66289654994344 564.9911470598212,203.4156217532634 564.1969679365803,202.99433636135518 562.7084490597614,201.95026770381457 561.1745484646101,200.594781407412 560.5119759770486,199.79795991385325 560.1126172347402,199.09271793745555 557.6393159544639,190.66576469711688 579.6403511453486,200.55814621639283 587.3506974780914,204.1849173005135 597.9427800823222,209.18508398479617 615.1605869302788,217.18809570839073 619.7577503543747,218.8544850717361 645.0761858705335,219.05591345512175 663.6781337062959,219.48623540091594 667.2042898095875,220.19122381197624 666.78677825357,220.87789230960897 664.6175343914151,224.03646144230595 663.2288550422132,226.92937455490824 662.6479697424542,230.06014736475655 662.9066452842626,233.95964272345697 664.9352061038895,240.23855595995647 665.3890226554794,243.4601233432136 664.218175649098,246.5167853210367 656.7301995466801,255.84135347776206 651.42508191669,262.255129433218 650.0409407709184,264.45083911583794 646.0927352240992,274.44027951791617 635.9272405827317,286.60461465028385 633.4811683650532,291.57938119103585 632.8866682970581,296.9926241027598 633.2678743836201,298.66587505783883 633.6309279723959,300.8510881466451 634.6928588863456,303.24650192009943 635.0196071636318,303.73105872490277 635.5823398076534,304.3344637387464 635.9544694873666,304.84643875645577 637.079935091321,307.17769843479107 637.70620210943,309.0700662289745 619.2131702081452,297.88868790458514 618.7684299054471,297.7332492898616 617.0393879845942,296.90118834441864 615.5145639542458,295.63935958890335 611.0308545100975,290.96670276409924 608.9523739266621,291.59766983111456 608.2534961276168,292.38408366589147 607.3821681779636,293.9568796356654 607.118954432728,294.3043521165805 606.7831300645042,294.5878152734653 606.456381787218,294.83470117171254 606.0751758586043,295.02672300555236 605.6258973524876,295.2004563753684 605.1403135348667,295.31932614952564 604.6184242478107,295.3833329750725 604.0239243377698,295.40162060413655 601.9817489078727,295.2096001391372 601.4689360276626,295.31932614952564 600.5930697166367,295.648503285237 598.1606119512772,296.84632682204915 597.7839440681366,296.8097522866058 597.4844251693509,296.53544358926405 597.1077572862191,294.19462423427655 596.5767917502599,292.3109292446298 596.3998030803162,291.8720014618417 595.9187574661285,291.41478158544794 595.1336544338338,290.95755818845174 592.4742883926735,290.0613901011915 591.5984222396048,289.5127089941742 591.1355291232062,289.14691892894746 589.1568880673907,286.40342060799657 585.7895679782964,286.7692276082788 584.9545451821815,286.82409859869756 581.0971030720477,286.0193206739725 580.6205953453759,285.8547056308488 580.0805534025737,285.4157300501444 579.4951298993786,284.75726057264404 578.6192635883529,283.36713415996365 577.8750040709605,281.9586834377658 577.5346416572636,281.13554725619963 577.4030348636213,280.6965366205321 576.2140348855883,278.1813083694941 574.8843518650067,275.9952593785346 574.6029854640246,275.6568261231219 574.0901725838146,275.30924408269715 573.3731422869772,275.0531293258664 571.9663102820379,274.89763090608614 571.2447416238191,275.02568852368154 570.7273906981446,275.2726562376022 570.3507228150041,275.50132913998016 569.9150586032521,275.6476793374064 569.0346542467414,275.4464476225974 565.426811113619,273.6536269924659 563.2893343595292,272.88525869087437 562.7810595247893,272.75719640986307 561.8507354044818,271.91563653472537 557.9569876669472,266.8660250136973 556.391320121679,264.24956929459034 556.336861996486,263.9110682479853 556.2279460620056,263.4993750358461 555.2749309245704,262.657682442748 551.880381772884,261.5506548282135 550.7186110153942,259.4005830081805 550.4145535972816,258.50393372006585 550.0424239175684,257.6438696812917 549.6612178309946,255.96030295851415 548.2135424691044,255.75900367026304 541.7330396293057,257.2046830707428 540.7210283212044,256.9667889532782 539.6727117016165,256.82039202881026 539.1553606179791,256.866141137114 537.7349141607237,257.2412820549551 535.5974374066222,258.0647537547204 535.0937009332639,258.11965141157003 534.5945025053727,258.10135219836974 534.2087580574322,257.90006031448826 533.9455444701476,257.57067203676286 533.7549415058423,257.1314850333009 533.6732544760115,256.6373953951941 533.6551018202623,256.0884020415792 533.7730941615886,255.31065286749163 534.317674307818,254.16688489405487 535.4885213141994,252.24530405188378 538.5744751602571,249.4634741579873 540.7482573838053,247.98099720027335 542.0552495452105,246.57169389916604 547.1198441311693,238.3988870538706 543.6118408415812,236.87036100345233 542.9401921051367,236.4767819657716 542.6497492972971,236.2479557654496 542.9538065574527,234.8017525079839 547.5872754509894,227.15823807994826 555.6652132600299,224.29280154795237 555.8331253651735,224.2012515967189 560.4575180098186,224.14632165116222 562.0685672734251,224.402661104618 562.4815406260153,224.6132249035501 562.9943535062165,224.76885842019874Z" name="Cartago" name_en="Provincia de Cartago" gn_name="Provincia de Cartago" admin="Costa Rica" adm0_a3="CRI" iso_3166_2="CR-C" iso_a2="CR" postal="CA" type="Provincia" type_en="Province" wikidataid="Q502181"/></svg>