<?xml version="1.0"?><svg fill="#3498db" stroke="#ecf0f1" stroke-width="1" width="800" height="736" viewBox="0 0 800 736" xmlns="http://www.w3.org/2000/svg"><path d="M194.84019106685045,705.0994043872148 198.1753370540353,708.1934409090411 200.06041945232587,712.6292121269497 200.89420587487226,717.7355659300314 201.09963159698862,722.9160556620195 200.02416766214054,727.74832392259 197.52280839448653,729.9593711081171 194.81602340469996,731.5989753926851 192.99136016175828,734.6793332372903 190.78001343370138,734.6793332372903 188.56866670562835,731.5741332707848 182.87716772058744,727.7607457126151 180.82291109337888,724.0465156618789 178.62364819638853,726.1583113072688 179.8803698942342,723.4253863708739 180.31538900059883,720.8165784157546 179.8803698942342,718.22008962029 178.62364819638853,715.5365285285459 182.6596581674045,715.5365285285459 181.45127179382501,709.7838922013751 184.9555920099117,707.7833964819137 190.38124582053518,707.0502798001316 194.84019106685045,705.0994043872148Z" name="Brava" name_en="Brava" gn_name="Concelho da Brava" admin="Cape Verde" adm0_a3="CPV" iso_3166_2="CV-BR" iso_a2="CV" postal="BR" wikidataid="Q2571624"/><path d="M314.47853441080736,688.5998948821606 316.17424946171593,696.0401121687603 315.94465607746645,699.9920576967374 314.4704248264391,703.3721473586781 315.4492175187834,706.7396349381904 308.719964709185,713.6650008072091 299.1917461531734,714.6446753253402 292.99840419860817,709.7461543598984 290.13993857840114,702.8876048028399 291.5691715220331,697.0082713709652 292.9276551325314,691.6325252119055 303.6538464102849,689.1251339534721 314.47853441080736,688.5998948821606Z" name="Santa Catarina do Fogo" name_en="Santa Catarina do Fogo" gn_name="Concelho de Santa Catarina do Fogo" admin="Cape Verde" adm0_a3="CPV" iso_3166_2="CV-CF" iso_a2="CV" postal="CF" wikidataid="Q2608046"/><path d="M276.4020493803364,667.1622499329013 284.2003504893097,663.1848789854424 289.5051659892366,661.5062396012532 295.6558517427914,660.934248701008 302.0723823738115,662.3642162650857 306.2413147835427,666.0322487298221 308.9360159422465,670.8314603228957 312.7666001911449,681.0876456196573 314.47853441080736,688.5998948821606 303.6538464102849,689.1251339534721 292.9276551325314,691.6325252119055 283.17657183711424,677.5898812250055 276.4020493803364,667.1622499329013Z" name="Mosteiros" name_en="Mosteiros" gn_name="Concelho dos Mosteiros" admin="Cape Verde" adm0_a3="CPV" iso_3166_2="CV-MO" iso_a2="CV" postal="MO" wikidataid="Q516835"/><path d="M315.4492175187834,706.7396349381904 316.9113649387442,710.1317982820565 317.04428737747685,713.6356056879241 315.0504502026029,716.6422684681801 304.6824967150346,726.1583113072688 292.18778331687395,731.0027603325931 280.7564497255415,729.5121990190883 270.64225728435446,724.2576983646093 253.56776032921553,709.945420441497 249.47133120285193,704.1425841531236 247.7312550743593,697.8048472477167 249.39882791946818,691.528634424998 253.51942500493442,684.2201192234986 258.8121563768241,677.6939609030987 266.0383060652269,672.4476945285725 276.4020493803364,667.1622499329013 283.17657183711424,677.5898812250055 292.9276551325314,691.6325252119055 291.5691715220331,697.0082713709652 290.13993857840114,702.8876048028399 292.99840419860817,709.7461543598984 299.1917461531734,714.6446753253402 308.719964709185,713.6650008072091 315.4492175187834,706.7396349381904Z" name="São Filipe" name_en="São Filipe" gn_name="Concelho do Sao Filipe" admin="Cape Verde" adm0_a3="CPV" iso_3166_2="CV-SF" iso_a2="CV" postal="SF" wikidataid="Q6430079"/><path d="M472.27357863625497,618.5678809730196 473.2765392877181,615.5815230249375 473.54238416518336,611.9852646109763 474.1949128247309,608.6874787491785 475.66914407575825,606.6091638423587 477.1192073676842,605.0783853358065 477.78381985829833,603.4355579381009 476.7808592068352,598.2827773290652 474.3036676013143,592.3329119390462 471.004773107344,587.4780053943979 467.63337562694215,585.5857359375894 469.603045139683,584.8761203144163 475.75373089323904,581.589376032423 471.40354072049405,579.833885674276 469.4822065320343,579.5101728405994 477.78381985829833,573.0604734120545 479.99516658637134,573.0604734120545 480.1643405183024,575.3889158821695 480.62352728680133,576.6713903252833 481.25188828421705,577.7795267433061 481.83191366038085,579.5101728405994 487.3904902067065,576.0737356090254 492.13944799260025,578.962347676953 493.74660138539076,584.2038457550242 489.92810126454464,587.8639217500505 493.89160795215946,593.4781175456359 498.51972713040453,596.901163871538 508.3801585251941,602.290531627485 506.1446438380184,604.5805633161642 501.89678617041886,611.6703614315037 497.29308228676456,618.4428448641656 485.7838228447478,619.7972551457636 476.9052511836313,618.7814499939456 472.27357863625497,618.5678809730196Z" name="Tarrafal" name_en="Tarrafal" gn_name="Concelho do Tarrafal" admin="Cape Verde" adm0_a3="CPV" iso_3166_2="CV-TA" iso_a2="CV" postal="TA" wikidataid="Q499598"/><path d="M488.6230438878505,684.4438615019488 484.0311765573699,679.1359878194704 483.98284093613546,669.1530202235285 480.6114434557348,666.7533966068688 475.78998268342434,665.2364898612074 471.6935532600912,663.1973131562003 471.5122954970936,662.065790724169 469.4822065320343,655.0523957104729 468.6605039405383,653.8585500961909 467.4762855260776,652.6771184999667 466.34040243588316,651.0603873140816 465.60328695885363,648.5979035240324 466.41290571926686,646.1353249246515 470.64225728436315,638.67238836636 471.6935532600912,635.8860022064085 471.43979221370984,631.8803599829627 467.63337562694215,621.4670029298001 470.4730833524147,620.6333633021594 472.27357863625497,618.5678809730196 476.9052511836313,618.7814499939456 485.7838228447478,619.7972551457636 497.29308228676456,618.4428448641656 496.96424644770144,623.8603137348116 502.55445811563925,629.2773225991106 507.81583394449655,633.0012502379049 508.4735058897182,637.7404804298604 510.77535783153536,638.417484668039 514.8982808632943,634.6448456413752 516.6944056056292,637.0634690324129 517.3520775508508,642.4793600934605 510.3587210297668,648.1145334168187 508.55532679044705,649.785014527084 509.63736333403966,655.5385612996215 511.8014364212075,659.8069888119368 514.0637178247302,662.7848801701309 511.10419393769143,666.1685101585746 510.44652172539674,670.5669632075515 508.14467005065256,671.9202729485122 501.89678617041886,672.5969171682548 499.2660983895187,676.656633724867 493.6758864545053,679.0246837740278 488.6230438878505,684.4438615019488Z" name="Santa Catarina" name_en="Santa Catarina" gn_name="Concelho de Santa Catarina" admin="Cape Verde" adm0_a3="CPV" iso_3166_2="CV-CA" iso_a2="CV" postal="CA" wikidataid="Q494882"/><path d="M540.8253278002112,703.0242050755825 538.4327233091406,702.7508203484912 535.9192799134343,701.4460147558591 533.720017016444,701.135343079936 523.8595856216557,700.9116583812255 515.6304755787593,699.8180778793559 508.0297265332785,697.2580329561567 500.07854519893004,694.4990366350974 488.6230438878505,684.4438615019488 493.6758864545053,679.0246837740278 499.2660983895187,676.656633724867 501.89678617041886,672.5969171682548 508.14467005065256,671.9202729485122 510.44652172539674,670.5669632075515 511.10419393769143,666.1685101585746 514.0637178247302,662.7848801701309 519.2226690343418,662.3022823269743 519.3250933865132,667.1835642671301 523.9287972701502,671.2436216286662 527.5459931024255,676.3183336522088 528.5325011537858,684.437043327543 533.4650408765032,686.8048082800851 534.5387436317961,692.5984213397201 538.3500309473576,697.4982359733792 540.8253278002112,703.0242050755825Z" name="Ribeira Grande de Santiago" name_en="Ribeira Grande de Santiago" gn_name="Concelho de Ribeira Grande de Santiago" admin="Cape Verde" adm0_a3="CPV" iso_3166_2="CV-RS" iso_a2="CV" postal="RS" wikidataid="Q499620"/><path d="M560.9685517910378,682.8338631324727 559.0598755076777,684.2574095670466 561.2712225327202,686.3456399843876 558.3710956519013,691.1184846418093 556.5585162400249,695.9282611283527 554.2746662285668,699.6440972899417 550.0332308324215,701.135343079936 547.6768775375797,701.4335879417954 543.0366745282669,702.7135406487097 540.8253278002112,703.0242050755825 538.3500309473576,697.4982359733792 534.5387436317961,692.5984213397201 533.4650408765032,686.8048082800851 541.6859405924167,685.1135566810833 549.2491683630925,680.0395355880277 555.1682161371701,679.0246837740278 560.9685517910378,682.8338631324727Z" name="Praia" name_en="Praia" gn_name="Concelho da Praia" admin="Cape Verde" adm0_a3="CPV" iso_3166_2="CV-PR" iso_a2="CV" postal="PR" wikidataid="Q497019"/><path d="M557.0511098622973,655.2370763210454 561.2712225327202,663.1973131562003 562.4312732850491,664.3412496467785 563.30131120081,664.6769659949028 564.1713494135405,665.3483940510553 565.3314001658694,667.5740033887438 565.9839285284473,669.0162565548519 566.7814634577941,670.1849550517437 567.8327594335221,671.0179507999322 569.3915777990171,671.5401219381139 567.9898495343866,676.102721483746 565.9597608662981,679.1111256224433 560.9685517910378,682.8338631324727 555.1682161371701,679.0246837740278 549.2491683630925,680.0395355880277 541.6859405924167,685.1135566810833 533.4650408765032,686.8048082800851 528.5325011537858,684.437043327543 527.5459931024255,676.3183336522088 523.9287972701502,671.2436216286662 529.847845044244,667.8602582121625 534.1227128217248,663.1232512818821 539.7129247567382,658.385895426394 544.6454644794568,656.693898010771 548.2626603117161,658.7242894013872 551.2221841987549,660.7546169605364 555.1682161371701,659.0626818705023 557.0511098622973,655.2370763210454Z" name="São Domingos" name_en="São Domingos" gn_name="Concelho de Sao Domingos" admin="Cape Verde" adm0_a3="CPV" iso_3166_2="CV-SD" iso_a2="CV" postal="SD" wikidataid="Q499009"/><path d="M525.2922410291627,622.7798912948205 527.4847441484388,625.1622593956371 532.4874629807314,628.3223428991163 536.9464082270305,627.7376148244399 537.9010332572417,629.1558821410296 538.3964715189552,630.200901123306 539.1335872929543,631.059296671782 540.8253278002112,631.905240459925 540.3903089908149,632.3033276917644 542.2753913891067,634.1568893561617 544.402151002712,635.8735627432757 544.8613377712097,635.8860022064085 545.6830403627057,636.0850338991858 548.317322366062,635.6869702003346 549.1148572954087,635.8860022064085 549.2840312273397,636.8438360529766 548.9215154043576,639.3192104931278 549.1148572954087,640.2645543697413 557.0511098622973,655.2370763210454 555.1682161371701,659.0626818705023 551.2221841987549,660.7546169605364 548.2626603117161,658.7242894013872 544.6454644794568,656.693898010771 537.7703115978326,650.7130407402686 533.4421656905552,652.0122549563986 528.7444193164438,649.8828374537321 529.1901730990236,647.8947934877469 528.5325011537858,644.8486684997198 520.6404375440458,643.1563142497248 517.3520775508508,642.4793600934605 516.6944056056292,637.0634690324129 514.8982808632943,634.6448456413752 516.6944056056292,633.0012502379049 525.2922410291627,622.7798912948205Z" name="Santa Cruz" name_en="Santa Cruz" gn_name="Concelho de Santa Cruz" admin="Cape Verde" adm0_a3="CPV" iso_3166_2="CV-CR" iso_a2="CV" postal="CR" wikidataid="Q497472"/><path d="M506.1446438380184,604.5805633161642 511.28028540601304,605.6384306019513 513.8058123358163,607.803892155138 518.3130929063965,615.1957749888337 525.2922410291627,622.7798912948205 516.6944056056292,633.0012502379049 514.8982808632943,634.6448456413752 510.77535783153536,638.417484668039 508.4735058897182,637.7404804298604 507.81583394449655,633.0012502379049 502.55445811563925,629.2773225991106 496.96424644770144,623.8603137348116 497.29308228676456,618.4428448641656 501.89678617041886,611.6703614315037 506.1446438380184,604.5805633161642Z" name="São Miguel" name_en="São Miguel" gn_name="Concelho de Sao Miguel" admin="Cape Verde" adm0_a3="CPV" iso_3166_2="CV-SM" iso_a2="CV" postal="SM" wikidataid="Q494874"/><path d="M663.0294244078084,579.5101728405994 664.7815843673663,583.3448173801604 665.1924355146296,588.1751430828704 664.8782553129006,596.4157249359586 668.1771495099,613.8518601955299 667.7421304035342,622.2508632189238 663.0294244078084,629.9894105108989 661.5431093257145,630.5741179822086 656.8304030330179,631.1712604853798 654.9090691415115,631.905240459925 653.8094375445315,633.3731751350824 652.3835419147387,636.9931074938089 650.8488915083636,638.1748280854393 646.7162105918309,638.5604376784729 642.7889553974144,637.503116107638 636.4932633740605,633.9951711650222 629.5208750290271,628.9443880704537 626.1253098864921,625.3488829685033 624.3127304746157,621.4670029298001 625.2190201805632,617.6968744458469 627.5391216852197,613.9140789431318 628.7354239307457,610.2057259493924 626.3428191427055,606.6713899758059 630.5480033426221,604.1823029550274 632.421001909846,600.2244540083545 631.2367834953855,596.901163871538 626.3428191427055,596.4157249359586 628.0103922847827,591.9345744405027 634.4269229158027,587.154331651453 638.6804424399843,579.5101728405994 637.2907983034072,578.9374464760189 637.0853725812908,578.6635317007022 637.1457920336093,578.2402070329902 636.4932633740605,577.2192353391093 640.6138601625572,575.4636236490783 644.6015348092908,573.0604734120545 644.6861219237411,574.0566091725591 644.6015348092908,577.2192353391093 647.1512296981967,575.2021454664639 647.8400098509601,574.5297680720458 648.6375447803068,573.0604734120545 650.8488915083636,575.3266590362721 648.6375447803068,577.2192353391093 652.8910640075187,579.2362608519537 659.5492721508231,577.6425671488308 663.0294244078084,579.5101728405994Z" name="Maio" name_en="Maio" gn_name="Concelho do Maio" admin="Cape Verde" adm0_a3="CPV" iso_3166_2="CV-MA" iso_a2="CV" postal="MA" wikidataid="Q2551133"/><path d="M795.3839649498071,333.6499281692072 796.4956800808841,334.17493674096465 798.7432785991263,337.13739800378534 800,340.44968249658353 798.2357562093755,342.0245160689628 797.3173826723627,343.3493442143041 796.8702797349315,346.2238712760291 796.0727451025543,349.1232554206652 791.1304454256095,352.2849253515971 774.9018187240822,365.29226907197267 764.0625946369496,371.11405554371987 758.5523534149063,372.8629806597871 741.4657726286847,373.94978737993847 738.432723309133,373.48758454986137 735.5325964283116,372.00101669714087 731.3394963564311,368.3906284715144 727.9197632547961,367.39117513017084 717.1530421540776,362.493614799598 713.5278836272944,359.07008467274125 711.6790527222023,352.50986001278255 711.8965622753851,346.67378492804994 713.5278836272944,341.1996083186065 716.5971844400457,337.13739800378534 720.9957102340426,335.54993684596474 726.6509577258851,329.9747414348525 723.4245665152823,303.1165484645907 726.0467646875708,293.58574724880845 727.2309831020489,295.8122383145656 728.5360401241757,297.4382751255823 732.1370309888083,300.07736355447383 737.2364207666363,302.5162278631535 744.7767506567682,305.06754874464866 751.6403845221728,305.86794085037286 754.6371820515565,303.1165484645907 756.9089482319317,298.3638452514525 762.2137637318575,297.4632906647029 779.7716151176446,301.91590123706135 782.9859224971807,303.2166013637323 785.9585523644139,305.33017849292906 787.1548549069107,307.51871563607 788.9553501907523,313.3710955094561 790.1999880575302,314.57151309640625 795.2752101732076,316.73470494416773 796.3990091353672,321.9235468988323 795.3839649498071,333.6499281692072Z" name="Boa Vista" name_en="Boa Vista" gn_name="Concelho da Boa Vista" admin="Cape Verde" adm0_a3="CPV" iso_3166_2="CV-BV" iso_a2="CV" wikidataid="Q2721025"/><path d="M292.4589063129597,160.27765974207315 296.65881209728497,158.9025464440201 298.80973967001034,159.2034392029601 302.8699173031582,160.82071016999132 306.39840488440717,163.15251054084817 313.38287735749526,169.28244324638516 317.04428737747685,171.1501267658 320.1498399804135,171.3005415640792 336.6563953904713,168.75597107515904 339.53235460914226,169.34511800484944 350.3836628243271,174.5343676302831 352.78835114646427,175.07332137383133 377.28233938408636,177.11628629726377 383.95263135845727,179.7482216793147 389.7649689511643,184.39768422453056 392.894689216234,186.18969651502948 394.26016569067673,185.0117365346875 394.26016569067673,195.6125223404105 390.91293587242654,196.389336790725 369.9353513850043,196.57727401026943 347.0001812158904,186.35260388888025 334.72297766789836,183.3826041025465 323.134553975684,187.96912296260112 318.9656215659528,193.0439502859302 310.3619118690089,208.54138209846928 307.5826235958548,220.164904051856 307.1916033780353,210.95502107675063 308.9133460417723,197.9504040242251 310.63508870549185,189.7891716990716 308.9133460417723,180.09623034047414 303.50215458395513,175.50427577973485 295.13940446480467,174.99403613077632 292.1878455363797,170.91195999732696 295.13940446480467,166.82959816140408 292.4589063129597,160.27765974207315Z" name="Ribeira Brava" name_en="Ribeira Brava" gn_name="Concelho da Ribeira Brava" admin="Cape Verde" adm0_a3="CPV" iso_3166_2="CV-RB" iso_a2="CV" wikidataid="Q747221"/><path d="M307.5826235958548,220.164904051856 304.9966769167648,216.3825012632299 300.8156606759509,204.98372404735272 299.06350071639173,202.37797885998188 297.0454958793685,200.29831034953875 295.4262583585432,197.70488590527145 294.7495620368625,193.53261413316307 294.5562201458115,190.33743058031592 293.8553561619816,187.994184855401 292.3207057556066,186.56563613718137 289.6501722590346,186.06438277077075 282.7623710284503,183.9841352707584 277.8804908038239,178.75812634639567 276.11624671622985,171.87712839060322 278.50885150426876,164.84488766579238 292.4589063129597,160.27765974207315 295.13940446480467,166.82959816140408 292.1878455363797,170.91195999732696 295.13940446480467,174.99403613077632 303.50215458395513,175.50427577973485 308.9133460417723,180.09623034047414 310.63508870549185,189.7891716990716 308.9133460417723,197.9504040242251 307.1916033780353,210.95502107675063 307.5826235958548,220.164904051856Z" name="Tarrafal de São Nicolau" name_en="Tarrafal de São Nicolau" gn_name="Concelho do Tarrafal de Sao Nicolau" admin="Cape Verde" adm0_a3="CPV" iso_3166_2="CV-TS" iso_a2="CV" wikidataid="Q1895853"/><path d="M722.0107547165721,186.06438277077075 718.385596189789,162.66359245269547 713.8903994502765,153.39844484338533 707.630958920121,156.60818918708242 706.3984051813779,152.14459007115747 705.9875537371626,146.12571136302074 706.905927274158,140.55769304613617 709.6489640541138,137.4975635869363 709.6489640541138,135.39049505057625 706.1083923448113,134.3118470476191 704.174974325285,131.36427640645022 703.4861941725217,127.23742493269219 703.7157875567711,117.57768563681397 709.8543894792606,112.70956859815773 724.0166757225127,103.81290121641337 725.6359132433554,106.00896219708589 731.0011481955995,111.05331132081395 732.1370309888083,113.37456741968425 731.7745151658274,114.69199562215783 729.865265105405,118.34299650543915 727.7747569849969,121.36650328698114 728.3185308679622,122.2195802134754 729.4785816202898,122.8468345811293 730.131109982869,123.91315153976178 729.2973235603066,142.18802385631255 730.131109982869,148.0066780732138 731.4603349640972,150.0631318136348 735.3755060304776,153.71190407970596 736.2213765810762,155.4797836770987 735.9071960823603,158.91508363484937 734.6504743845146,165.03292636257012 734.3604618449187,168.19188889149606 733.7804364687537,169.8966545150715 731.0373996887979,171.87712839060322 730.131109982869,173.43137739248226 730.2398647594524,175.07332137383133 730.8561416288309,177.36695189029433 731.617425064963,179.2719754871665 732.1370309888083,179.7482216793147 730.1673614760675,182.21711975521112 728.0526856935287,183.35754023373661 725.4425716492751,184.2848983802812 722.0107547165721,186.06438277077075Z" name="Sal" name_en="Sal" gn_name="Concelho do Sal" admin="Cape Verde" adm0_a3="CPV" iso_3166_2="CV-SL" iso_a2="CV" wikidataid="Q2721003"/><path d="M130.86822545988744,93.08236973471372 129.92568426074277,94.40026213924358 132.43912765644905,97.29951905417639 136.69264718064792,100.19862986479366 140.9219987457268,101.51635926032604 142.34789437551967,103.19798915115355 143.77379030226592,107.03794500475075 144.57132493464186,111.3293574000793 144.1363061252468,114.3406843549121 139.37526450828523,118.10462203602627 132.1249471577505,120.71414164646201 124.00459189145363,122.2572155750079 116.50051349451894,122.74647427805947 114.60334726516305,123.42390271110926 111.72738804647469,126.30915666268034 110.59150525326586,126.9865430520458 108.45266151160828,126.68548348237869 89.75892703562667,119.43448834871349 86.77421304035491,117.75333184301077 84.41786004250007,115.48243823231634 82.94362879145656,112.43352881525601 79.07679304935857,114.3406843549121 80.38185007148411,107.76575090697524 83.81366700418702,102.34463089846325 88.15177334586667,98.65496559736006 92.15153182366684,97.29951905417639 101.45610550444057,97.11125991858286 105.26252209118967,95.36669735047414 103.41369118611489,91.1745100323241 111.78780749879311,86.64308931500919 113.53996745835106,84.47139536291002 115.57005612644082,84.47139536291002 117.37055170725064,88.81470112770423 120.34318187145462,88.23728659049279 125.52715846676334,84.47139536291002 128.49978863096732,86.07820594066814 131.15823829645535,89.01553979387403 132.3666243730653,91.8272058589264 130.86822545988744,93.08236973471372Z" name="São Vicente" name_en="São Vicente" gn_name="Concelho de Sao Vicente" admin="Cape Verde" adm0_a3="CPV" iso_3166_2="CV-SV" iso_a2="CV" wikidataid="Q648842"/><path d="M228.00479522398996,176.54671471032853 234.87899835880077,177.88356522666916 233.16044757509806,182.3395126743163 228.8640706158413,181.89393321931308 225.42696904843464,181.00276411850837 224.56769365658454,177.43795178821043 228.00479522398996,176.54671471032853Z" name="São Vicente" name_en="São Vicente" gn_name="Concelho de Sao Vicente" admin="Cape Verde" adm0_a3="CPV" iso_3166_2="CV-SV" iso_a2="CV" wikidataid="Q648842"/><path d="M174.30008323327854,121.7093850214125 181.6039240640144,124.38557994671139 185.4706633273461,128.84562961198634 188.47812719882648,135.53505974447032 194.06341724585965,136.87285306796875 197.50051881326505,134.64318036893673 200.93762038067047,135.9809942839337 200.5079826847454,139.99425075134164 195.3523303336373,142.22371765771652 189.3374025906778,142.66960075665546 184.1817502395697,142.66960075665546 181.6039240640144,139.99425075134164 179.8853732803117,136.42692539165452 174.30008323327854,134.197235532197 170.00370627402052,130.18357747105594 170.00370627402052,125.72363095693167 174.30008323327854,121.7093850214125Z" name="São Vicente" name_en="São Vicente" gn_name="Concelho de Sao Vicente" admin="Cape Verde" adm0_a3="CPV" iso_3166_2="CV-SV" iso_a2="CV" wikidataid="Q648842"/><path d="M34.17316179118579,18.50298168075629 39.828409361254025,16.039618543328384 46.83704919948703,11.690766713861297 53.712766599004794,9.95616020493569 71.80230803669075,1.1566134883723143 76.56334965365106,0 79.99516658637138,1.1063265584981388 83.42698322210352,3.4697700857610463 91.01564873348725,3.2183446590131717 95.293335919818,4.374892304072283 98.0726241929734,6.524499946245672 99.23267494530099,8.925427098569331 99.35351355296707,15.964207655635358 95.67773576494255,17.989333085109198 90.96277457884233,21.360646189364406 85.36375773635847,25.651118723773937 73.57635450402861,28.715543131818155 60.020840493075134,34.23109091152588 50.29623254598188,27.48979332218284 34.17316179118579,18.50298168075629Z" name="Ribeira Grande" name_en="Ribeira Grande" gn_name="Concelho da Ribeira Grande" admin="Cape Verde" adm0_a3="CPV" iso_3166_2="CV-RG" iso_a2="CV" wikidataid="Q1355642"/><path d="M110.99064296295961,36.36521887866414 102.54365297338443,45.542680721481666 101.19026033000577,45.58036671182351 99.93353892913086,46.6983667081317 94.35079472067333,48.83381162151631 93.08198919174495,49.88894283706527 90.5322943028403,53.0542202961787 72.62401062816933,61.49410153012871 64.44323620652479,69.95784959642931 58.642982444884325,77.59172970052978 51.24765882455042,82.877093806429 38.34209427914272,84.47139536291002 27.09201874777861,84.47139536291002 23.63603415292644,85.17438048668227 21.013835980636795,86.26650091350156 18.331218652999492,86.20373609400811 14.742311619432078,83.51733039444187 13.968944649187986,79.70091216579657 13.823938082419268,59.183305716221234 9.763760449270201,51.999147324234684 8.724548304609936,51.15758709156488 3.600990864648872,50.17784465801725 1.6554890140411038,48.83381162151631 0,43.65836022742469 1.4379797578277091,39.23624275530061 8.760800094777876,30.81819456227975 12.953900166658338,27.95326127723053 17.304090339403295,27.350098967206147 21.170926378470824,27.676812461522204 23.950214651642355,27.576285313910056 26.971180140112523,25.41490998520269 34.17316179118579,18.50298168075629 50.29623254598188,27.48979332218284 60.020840493075134,34.23109091152588 73.57635450402861,28.715543131818155 85.36375773635847,25.651118723773937 98.62458670656652,28.10267153348723 106.87576918283723,33.61827879026125 110.99064296295961,36.36521887866414Z" name="Porto Novo" name_en="Porto Novo" gn_name="Concelho do Porto Novo" admin="Cape Verde" adm0_a3="CPV" iso_3166_2="CV-PN" iso_a2="CV" wikidataid="Q1552897"/><path d="M99.35351355296707,15.964207655635358 100.92441545254049,17.371858956439414 107.90888762865903,19.282186871406 109.47978982520323,20.287596637025217 110.39816336221604,21.896215255951383 114.47042482643042,25.364644276979508 115.57005612644082,27.576285313910056 115.05045020259422,30.88102058097557 113.27412258090442,33.88401624325828 110.99064296295961,36.36521887866414 106.87576918283723,33.61827879026125 98.62458670656652,28.10267153348723 85.36375773635847,25.651118723773937 90.96277457884233,21.360646189364406 95.67773576494255,17.989333085109198 99.35351355296707,15.964207655635358Z" name="Paul" name_en="Paul" gn_name="Concelho do Paul" admin="Cape Verde" adm0_a3="CPV" iso_3166_2="CV-PA" iso_a2="CV" wikidataid="Q1475374"/><path d="M517.3520775508508,642.4793600934605 520.6404375440458,643.1563142497248 528.5325011537858,644.8486684997198 529.1901730990236,647.8947934877469 528.7444193164438,649.8828374537321 528.2036650476472,652.294496456064 527.217157263345,657.7091018587691 521.2981094892662,662.1081328843915 519.2226690343418,662.3022823269743 514.0637178247302,662.7848801701309 511.8014364212075,659.8069888119368 509.63736333403966,655.5385612996215 508.55532679044705,649.785014527084 510.3587210297668,648.1145334168187 517.3520775508508,642.4793600934605Z" name="São Salvador do Mundo" name_en="São Salvador do Mundo" gn_name="Concelho de Sao Salvador do Mundo" admin="Cape Verde" adm0_a3="CPV" iso_3166_2="CV-SS" iso_a2="CV" postal="SS" wikidataid="Q494877"/><path d="M519.2226690343418,662.3022823269743 521.2981094892662,662.1081328843915 527.217157263345,657.7091018587691 528.2036650476472,652.294496456064 528.7444193164438,649.8828374537321 533.4421656905552,652.0122549563986 537.7703115978326,650.7130407402686 544.6454644794568,656.693898010771 539.7129247567382,658.385895426394 534.1227128217248,663.1232512818821 529.847845044244,667.8602582121625 523.9287972701502,671.2436216286662 519.3250933865132,667.1835642671301 519.2226690343418,662.3022823269743Z" name="São Lourenço dos Órgãos" name_en="São Lourenço dos Órgãos" gn_name="Concelho de Sao Lourenco dos Orgaos" admin="Cape Verde" adm0_a3="CPV" iso_3166_2="CV-SO" iso_a2="CV" postal="SO" wikidataid="Q494726"/></svg>