<?xml version="1.0"?><svg fill="#3498db" stroke="#ecf0f1" stroke-width="1" width="800" height="304" viewBox="0 0 800 304" xmlns="http://www.w3.org/2000/svg"><path d="M712.7169548389925,69.15065022715379 712.7544918378219,69.18020343204182 715.5031057612078,70.83806049167023 720.9552751708884,72.50955440139403 727.8042809787231,74.12618268744662 737.3117829639568,69.5775462594695 757.3631492967745,74.12618268744662 758.835947979447,71.96617432316486 763.0526049957408,75.56457432957787 769.1294644611548,80.77199059539129 775.7286933001984,88.27819457256703 780.5894153006831,102.76922004090194 785.4856173706801,112.08229863902719 791.4462110623385,120.6606175570176 796.6972103395742,124.23800356427502 790.6301773113605,124.66899381375595 779.3831047089457,123.46221054787574 768.5263089472903,120.35889692374147 763.7010665803261,115.01377602642327 758.5210265701536,112.34096632628237 734.856050843108,115.35864223289421 714.3132902780104,121.58731871421126 709.8428451182576,124.23800356427502 708.2538864566349,125.91565552508548 699.8228388437518,117.88944701469764 698.1105874471383,115.72699968420585 697.4346988101802,114.00243854169534 696.7137505648133,109.59491181476423 695.812565846246,106.93922766263391 695.2042658377236,105.77560265668454 695.0690881887447,105.62501336966132 692.7034771752257,105.40597398435851 686.0797676704555,105.6523934525311 683.1058570405232,106.14522862575873 679.0952320712914,105.15912581982585 679.4557061070277,93.57575201757211 676.0312034211327,89.85088285803481 665.8478126732931,85.35869910846806 668.1908932518828,79.52363675625436 672.2912851364028,76.20852978085652 678.1039290178624,73.30417523404194 681.4833719588245,75.77014875919834 684.231986318182,78.70173375655389 690.3149851814795,77.46884868025468 695.7671545911346,73.71518145960806 698.8311836772651,69.9885881899503 701.2193240008135,67.05640825504496 709.0596332980981,73.30417523404194 712.7169548389925,69.15065022715379Z" name="Famagusta" name_en="Famagusta District" admin="Cyprus" adm0_a3="CYP" iso_3166_2="CY-04" iso_a2="CY" postal="FA" type="District" type_en="District" wikidataid="Q59148"/><path d="M497.799339821767,0 501.2238429436829,2.936773900725166 502.57562046889456,9.139016694685374 503.97245730301665,16.602471303635696 509.3345080947452,26.944886654376333 514.1107878699041,35.66678521727807 522.3115716388929,50.555734698460974 525.3756007250727,55.51756828958303 525.3756007250727,65.0558345757543 525.3756007250727,75.35916327900833 522.9874608374686,85.35869910846806 520.5993205139202,98.14923009200359 520.9147352407643,103.0781823784233 525.3756007250727,104.33771283127128 525.3756007250727,101.02452072358139 526.0514899235991,95.65715531423402 527.4032670128137,89.02917704789574 529.4759926095434,85.35869910846806 532.8103775495026,75.77014875919834 535.5589910368694,73.30417523404194 538.6230201230254,73.30417523404194 542.6558228260892,74.12618268744662 548.1305221082117,76.20852978085652 550.8340771585822,75.77014875919834 551.53249579363,70.39962512125915 553.2222174821324,67.05640825504496 555.9257720965094,67.05640825504496 559.6656899452421,70.39962512125915 562.4143038686079,74.94817386209814 564.4419701563488,82.81109348173587 569.9166694385206,86.97484345041316 575.3913687206632,87.79658857963688 580.0775303138689,83.6877061544122 585.2142845607576,81.16739712558841 595.4427346175366,89.44003165369311 601.8411477716594,89.44003165369311 603.5533993326055,88.61831851039527 610.041931540672,89.44003165369311 613.7198254269533,87.81581624343127 616.1474602764371,90.26172960096031 623.6498249744084,93.98656312288765 625.001602499569,97.7110735921279 621.2166253418968,101.02452072358139 622.568402867083,104.33771283127128 629.4174091109094,107.21258932759197 627.682627677472,113.42714108351369 623.9652397012287,112.16787754888996 622.9288764668969,111.78461599132342 616.1474602764371,107.21258932759197 611.3937090658344,106.41859527234996 605.9415396561539,105.59720636141665 596.4340381069374,100.61377692925825 592.3111167858979,98.55999745320166 587.6024253202775,96.86213242195231 584.1779221983397,98.55999745320166 580.3929450406383,99.38152092124244 575.3913687206632,96.04056129421637 570.6150876376223,95.21897392011124 566.830110915867,98.14923009200359 563.4506671029161,105.15912581982585 555.565298060724,108.4446202246586 550.158188396002,106.00790251473056 547.4546333456551,98.9707614161812 547.4546333456551,86.15308312153505 544.0301306596853,82.40017542656513 539.9747976482116,86.15308312153505 536.7161921132907,89.42116036928641 537.654598528516,92.2478627533999 539.0739652150589,97.79365633520484 539.9526201294375,99.32718123719185 541.2368087749162,100.7785028829234 542.7913531104144,102.14762865254484 544.0079527353502,104.42028197875305 544.4134860743486,105.29645387296519 544.4810747028118,105.73453312003467 540.4257424889772,107.45942605531245 539.4119091414564,108.74620615212221 538.6684318760368,110.22458636840196 538.0601318675418,112.77056645089012 533.8020325921271,124.40350417628932 532.1798996281674,125.63504253417481 530.2198223457524,125.99081422447607 528.2597446712318,125.77187811135259 526.4348450377739,125.06032911786953 524.9929489391219,124.10245603888396 523.1004606772262,123.74666967897699 520.5320837783723,124.4582399315661 513.8407848610028,128.4811303243239 511.4751742395674,129.17894018255095 509.44750793660927,128.97370338820042 507.6901969315871,128.2074764493197 503.90522040779575,125.06032911786953 502.73367960710715,124.34876835136068 501.11154664314745,123.82877430166832 498.9487030832903,123.8835107884593 498.1376364052933,124.59507925309528 497.79969208681416,125.7445113164969 498.0700473847502,127.35913765788858 497.93486973576944,130.1503824522981 497.05621403723114,133.78967485078343 493.8795371298567,140.38339821954057 491.9194598474435,142.84552550698427 490.22973786296444,144.07653657402264 488.4724272500495,143.93975919932367 480.2265843892379,142.44885914977107 477.09496630610874,142.81816957008002 471.89062309577616,144.84248098362238 468.9167124658439,145.4442845132027 466.68627988546547,145.15706150790814 464.45584691298706,142.7087442204335 462.83371394905294,141.55976577539982 460.8060476460948,140.88951339035486 456.88589308124097,141.55976577539982 446.04914351738483,150.35414406846687 437.19500104013446,159.16039901481648 432.5989574462425,162.633178602419 429.4673393631133,164.09603758945025 427.9803840481599,163.5218369798888 427.52979149280895,162.20935038554677 427.52979149280895,160.82846187940814 427.1693173701392,159.6389487388072 426.2906624557626,159.06468871756516 423.78987418534456,157.76573977853633 422.50568514778223,156.71287834094915 420.88355257592804,156.08388382840238 412.02940970659773,158.9142858483286 410.06933203210457,159.1467264681737 407.9740771007106,158.9826508107378 406.14917746725075,158.3536894444409 404.59463352383415,157.3965575477605 402.566967220876,154.68912496546093 401.1926601427434,153.59516444454314 398.96222717028695,153.0755236758447 396.191083209853,153.10287309582029 391.1895066690169,154.33359091573428 387.4721187736651,156.1249058000743 379.2713347371005,161.36168191846835 377.78437981422707,162.59216330423746 376.7029578382448,164.0686951487333 376.0270688092049,165.3264413591737 374.47252486578833,169.45487145927154 358.1836062057762,162.3870852759989 355.5251104821849,162.15466261602606 351.80772180267144,162.4007572700955 349.1717562753781,163.4534796965907 344.44053464042366,164.43782020327924 342.07492441106814,163.79526645612106 340.72314674506816,162.4007572700955 340.1824353649853,160.54134099242674 338.0871804335894,157.69737288462096 334.5725592077341,154.25154447260843 318.6666436904463,142.7087442204335 317.78798877606783,141.72390736319582 317.31486641652805,140.8758350404962 316.84174405698826,139.39850814951083 315.82791110154733,136.96354331649894 314.1381895091537,133.9538465560272 310.01526749063805,129.0968457728273 307.04135725278564,127.30440559446168 304.38286152919807,126.5518318260233 302.42278424675925,126.92127872405457 299.17851831886367,128.45376525327717 283.9710216348046,139.17964025817932 280.36628158421547,140.7664047524608 276.58130427626253,141.45033722634497 267.18645081105836,141.66919357015846 264.2125405731823,141.39562308551697 261.5765742617255,140.6569751383827 256.03428673291563,137.0456231926069 253.24061296826372,136.11537765078074 250.3342909667691,135.69128783403258 247.4955587699537,135.60920585058358 243.7781704825183,135.9238538732554 241.41255986108104,135.45872149011382 239.04694923964558,134.28218713483952 232.55841699177626,129.95883259434478 230.03509930924747,129.4389054147054 228.21019967578766,129.99987852002926 226.3177110218139,133.10562060555267 224.96593374789566,134.20010246312427 223.14103411443585,134.7062903643759 221.18095643991535,135.0346256772229 219.49123484754355,135.65024733804236 218.7477567979605,137.01826309257558 218.5449901284622,138.65982544771055 218.61257954106148,140.4791505293933 218.27463483050246,142.38046793056472 216.92285755658241,145.9913718063059 216.44973519706818,148.0155344824909 216.17937989910664,150.094304673036 216.1117912706708,157.3965575477605 205.54539700474888,153.08919862598935 203.6529083507733,153.33534508198838 201.49006439883618,154.07377600836222 200.67899811289539,155.72836176886025 199.1920427979183,157.91614618242463 196.9616098254618,160.1858552473954 192.02762191308713,163.1116897497014 189.05371128315485,163.78159538039614 187.3639892986776,163.46715087639765 187.43157831919518,162.46911669962932 187.70193400923662,161.32066493387342 187.43157831919518,160.240545516348 184.79561239979822,159.119379934122 183.62407159910595,159.73465728419697 183.35371630117177,161.0608916946186 183.44383473379827,162.633178602419 182.76794609684006,164.31477886982492 181.66399470877442,164.10970856539163 180.44739469173155,163.28942044173917 179.23079506679406,162.09997525294165 174.4319848034038,158.17593838724903 172.1339632024841,155.64631798294255 170.78218553648597,153.75926062747183 169.76835218896693,151.8721205770008 168.28139726609348,146.57948273725827 168.1462192250328,144.910868291059 168.34898589453113,144.1586024093467 169.0248745314875,143.35161172599283 171.66084084296622,143.5567804284356 172.60708516994396,143.0643747565074 172.94502948842307,141.72390736319582 173.01261850896617,138.60510775903978 173.28297380690216,137.26450146189887 174.83751814240046,134.29586805693515 175.58099579990179,132.53100699598372 175.91893972630098,130.3282497539594 176.05411776735983,128.0980139355891 175.91893972630098,125.96344756896606 175.10787344036018,122.172961572771 174.83751814240046,120.28443572245722 174.90510677086183,115.50801130294924 174.16162950544225,113.20856951431286 172.8774404679055,110.36147052654084 163.82053132115675,94.50734634162059 161.38733207128365,92.33002758135484 154.74109237021554,88.2078831940549 152.17271547136167,84.89344709582588 148.65809385344832,78.72955843332278 147.2387275589888,75.46918800980484 146.63042755049017,72.86619338819165 147.306316187452,71.31802189312748 148.38773816340688,70.20823596098604 150.2126377968649,69.76979452439737 152.10512684292402,69.74239202427685 153.9976151048197,69.41355731898058 155.28180335822034,68.37223134418629 155.89010336671535,66.61836268236641 156.0928700362137,49.65145705493376 155.21421472975533,47.677488100409775 153.4569037247605,46.005026195892235 151.15888212384266,44.55185040068944 147.71184952644867,41.75503413174688 146.22489460354967,39.108857787315124 145.54900557451157,35.50266585470872 144.67035026805505,33.555470498055996 142.0343839565727,30.93621530834747 139.8715400046611,29.27681403388143 128.0209570932641,16.191346503864438 128.50728712021623,14.172222739529468 129.25263540786523,14.669319591192382 132.09101350160614,15.295852390480663 136.49049939429577,14.280433007289524 143.94124161785987,11.039569932989204 144.30952396328126,13.309930733935909 149.73916393646422,19.099145039632827 154.53797402006214,18.221210288828285 158.2778918687492,14.105651356906675 160.30555772056783,8.31576129995311 160.85518860171305,6.546407471066143 165.08715726085418,6.026551850205554 169.1903241252834,6.54359445211677 183.02650122167861,8.33692666229333 191.67603278071198,9.437991103901927 191.3288511822324,12.788588782964506 192.25256636217117,19.099145039632827 195.67706904806624,24.448670018441437 200.45334969516472,29.852383755825592 205.8829892324016,32.73225670235626 212.70946560373866,34.84404044378906 228.0296105984686,38.54626773447134 236.54580909425596,43.94820251196179 243.34975515717954,52.63922662585871 247.4050877327107,63.41145675924055 254.2540944125105,63.82255725717398 256.91259015391597,59.24541919104126 261.0129811664453,53.845412449360836 263.76159552577906,52.63922662585871 268.85329089967786,51.37817780768595 279.03668164751736,52.63922662585871 283.8129618586205,53.434216803237845 288.8821277960454,52.63922662585871 294.35682664219627,51.37817780768595 304.2248017912503,45.977179748080076 312.7410007230585,36.07815194248126 323.6002797974593,30.67522443797555 331.0801150589603,26.533432707476244 341.96192400585227,23.21422380029775 351.807370154331,18.221210288828285 359.2872054158047,15.751922430759288 365.0773194247731,21.568239773894934 369.87612907242317,20.745224022961597 379.383631493581,9.962255714515642 386.16504812000875,7.492491653342129 400.448830316351,5.022584445019187 415.16067529390864,10.75803860455071 422.23497764660885,14.928794811495152 435.5725156625355,16.163480568006154 448.1215168614103,19.510670455538644 454.94799323279665,19.922192445249916 459.7242734438998,17.398130168245903 467.834938594964,17.398130168245903 480.7894731386112,13.309930733935909 483.5155576254283,11.224524810986793 486.895001438381,5.8459021650310135 492.0317556852678,0.8783082601600986 497.799339821767,0Z" name="Nicosia" name_en="Nicosia District" gn_name="Eparchia Lefkosias" admin="Cyprus" adm0_a3="CYP" iso_3166_2="CY-01" iso_a2="CY" postal="NI" type="District" type_en="District" wikidataid="Q59147"/><path d="M623.9652397012287,112.16787754888996 623.3432771041505,120.14338073810876 614.118548844475,123.63460985237475 602.6585975689769,135.05455433163078 599.4299426344803,141.81890247065888 596.4496460066368,150.4343676956502 594.2499030603049,159.97398376760188 593.4693489428219,169.4038529475304 594.3563423968601,179.49884574053868 593.2919503392271,183.86758722178158 589.140822753167,185.67521302576014 586.4798432630445,187.67642414274138 583.4640670016568,197.1002367883867 581.548161559505,200.1119799314491 574.807014186357,202.06950074707657 560.3312866494695,202.22007571597229 554.7609697985686,203.68277521428988 550.9646394197197,207.64041951566497 546.4587141904784,213.74824578392443 541.2431949827586,219.2961554351538 535.2826012911001,221.74733066756485 521.374549198563,225.18734213335085 508.74376740079424,231.29268799057496 498.52560678652395,233.57122271614912 491.96185758102473,225.68182103207909 491.53610110674657,240.51356419621854 479.1891568131837,248.14240668710565 446.7961685677764,254.84608170385562 440.2678994317676,257.9182522587181 436.32965008284464,260.56057366410397 436.11357867209784,259.4439437705537 433.61279040168165,247.21971054279695 433.61279040168165,245.1729051815068 436.24875671316033,227.81210082050478 436.18116769261724,225.80533212002615 435.37010140670014,223.68925063631886 432.39619077674416,217.68174382217694 427.8452063991791,210.67648249858573 414.59778699756066,195.36473142709806 412.43494304562176,193.47941209083288 409.2582657461638,191.5940108404208 388.418362708583,184.10624117149706 387.20176269156747,183.95592518854073 382.3353637997103,184.18823079503605 380.57805318677356,183.696288813192 377.108491177267,182.22042967053164 374.2021691757724,179.295892158217 374.47252486578833,169.45487145927154 376.0270688092049,165.3264413591737 376.7029578382448,164.0686951487333 377.78437981422707,162.59216330423746 379.2713347371005,161.36168191846835 387.4721187736651,156.1249058000743 391.1895066690169,154.33359091573428 396.191083209853,153.10287309582029 398.96222717028695,153.0755236758447 401.1926601427434,153.59516444454314 402.566967220876,154.68912496546093 404.59463352383415,157.3965575477605 406.14917746725075,158.3536894444409 407.9740771007106,158.9826508107378 410.06933203210457,159.1467264681737 412.02940970659773,158.9142858483286 420.88355257592804,156.08388382840238 422.50568514778223,156.71287834094915 423.78987418534456,157.76573977853633 426.2906624557626,159.06468871756516 427.1693173701392,159.6389487388072 427.52979149280895,160.82846187940814 427.52979149280895,162.20935038554677 427.9803840481599,163.5218369798888 429.4673393631133,164.09603758945025 432.5989574462425,162.633178602419 437.19500104013446,159.16039901481648 446.04914351738483,150.35414406846687 456.88589308124097,141.55976577539982 460.8060476460948,140.88951339035486 462.83371394905294,141.55976577539982 464.45584691298706,142.7087442204335 466.68627988546547,145.15706150790814 468.9167124658439,145.4442845132027 471.89062309577616,144.84248098362238 477.09496630610874,142.81816957008002 480.2265843892379,142.44885914977107 488.4724272500495,143.93975919932367 490.22973786296444,144.07653657402264 491.9194598474435,142.84552550698427 493.8795371298567,140.38339821954057 497.05621403723114,133.78967485078343 497.93486973576944,130.1503824522981 498.0700473847502,127.35913765788858 497.79969208681416,125.7445113164969 498.1376364052933,124.59507925309528 498.9487030832903,123.8835107884593 501.11154664314745,123.82877430166832 502.73367960710715,124.34876835136068 503.90522040779575,125.06032911786953 507.6901969315871,128.2074764493197 509.44750793660927,128.97370338820042 511.4751742395674,129.17894018255095 513.8407848610028,128.4811303243239 520.5320837783723,124.4582399315661 523.1004606772262,123.74666967897699 524.9929489391219,124.10245603888396 526.4348450377739,125.06032911786953 528.2597446712318,125.77187811135259 530.2198223457524,125.99081422447607 532.1798996281674,125.63504253417481 533.8020325921271,124.40350417628932 538.0601318675418,112.77056645089012 538.6684318760368,110.22458636840196 539.4119091414564,108.74620615212221 540.4257424889772,107.45942605531245 544.4810747028118,105.73453312003467 544.4134860743486,105.29645387296519 544.0079527353502,104.42028197875305 542.7913531104144,102.14762865254484 541.2368087749162,100.7785028829234 539.9526201294375,99.32718123719185 539.0739652150589,97.79365633520484 537.654598528516,92.2478627533999 536.7161921132907,89.42116036928641 539.9747976482116,86.15308312153505 544.0301306596853,82.40017542656513 547.4546333456551,86.15308312153505 547.4546333456551,98.9707614161812 550.158188396002,106.00790251473056 555.565298060724,108.4446202246586 563.4506671029161,105.15912581982585 566.830110915867,98.14923009200359 570.6150876376223,95.21897392011124 575.3913687206632,96.04056129421637 580.3929450406383,99.38152092124244 584.1779221983397,98.55999745320166 587.6024253202775,96.86213242195231 592.3111167858979,98.55999745320166 596.4340381069374,100.61377692925825 605.9415396561539,105.59720636141665 611.3937090658344,106.41859527234996 616.1474602764371,107.21258932759197 622.9288764668969,111.78461599132342 623.9652397012287,112.16787754888996Z" name="Larnaca" name_en="Larnaca District" gn_name="Larnaca District" admin="Cyprus" adm0_a3="CYP" iso_3166_2="CY-03" iso_a2="CY" postal="LA" type="District" type_en="District" wikidataid="Q59153"/><path d="M686.2596526059484,127.11241485142351 682.8802087929957,125.00516662052637 688.2873188936894,120.0787284789099 692.027236742422,119.20285808915752 692.027236742422,110.11465134964476 683.8715122823965,109.29333255541647 679.0952320712914,105.15912581982585 683.1058570405232,106.14522862575873 686.0797676704555,105.6523934525311 692.7034771752257,105.40597398435851 695.0690881887447,105.62501336966132 695.2042658377236,105.77560265668454 695.812565846246,106.93922766263391 696.7137505648133,109.59491181476423 697.4346988101802,114.00243854169534 698.1105874471383,115.72699968420585 699.8228388437518,117.88944701469764 708.2538864566349,125.91565552508548 706.3235176536847,127.95368659139832 694.3703177569852,125.38831034226651 686.2596526059484,127.11241485142351Z" name="Larnaca" name_en="Larnaca District" gn_name="Larnaca District" admin="Cyprus" adm0_a3="CYP" iso_3166_2="CY-03" iso_a2="CY" postal="LA" type="District" type_en="District" wikidataid="Q59153"/><path d="M248.10005039511807,264.7180549765206 245.8403984003319,264.5226257679462 244.38776550451072,263.93633232050155 242.28951750390036,266.28145846786833 240.1912695033155,269.01727807095426 238.7386361715264,270.97132917153965 232.92810371630216,271.94832139060065 229.7000299362845,279.7634679032584 220.98423038151228,278.59128571263176 215.81931259508374,277.0283271323461 212.91404636749715,280.740262342488 213.16218363485723,289.1217273045669 208.15954266427468,290.9034911735335 189.92296438208803,293.24328625633666 171.79282500048146,289.67987817776026 161.29643143963986,285.07980574585923 161.590098740782,273.9557373460084 161.31974305076426,271.9374708309919 160.7114434343218,270.24641812123804 159.74266930313152,268.82806564220795 159.42725439676315,267.4778596392851 159.9679653847643,266.2094451814651 162.9418760146966,264.2862955784483 165.5102533056358,262.17209575268043 168.75451923352782,258.18893555639283 176.2568844368618,253.1003250912411 178.14937269875747,251.34031796139513 181.19087234923285,248.96624072668118 184.79561239979822,245.2274878705987 189.25647795265502,242.5528531870331 190.60825522657325,240.39664956042716 191.55449955354734,237.16214249527982 191.8248552435888,230.5832000916444 190.87861091658917,227.6482870425517 189.5268336426709,225.64151025897493 188.17505636875268,224.64491329450692 187.22881164969687,223.51176811452856 187.49916733971457,221.09520236780307 188.85094500571273,217.57250877818686 196.08295412692172,207.15293842538017 198.1782098424792,204.8447255464144 199.6651647653782,203.99789381297515 201.55765302727386,203.53349557777977 203.1797863833116,202.87786636925608 205.27504131470744,200.30988702962006 211.5157472846716,186.75716939608606 213.94894692665196,182.90370434446717 216.38214656860498,180.7445195375559 218.34222345896384,179.86988265570199 220.16712309239813,178.50322679870172 222.2623788079793,175.81078739217833 223.07344509391828,173.66491621539373 222.9382674449375,171.31390313145977 217.93669090410145,164.5198472465126 216.1117912706708,157.3965575477605 216.17937989910664,150.094304673036 216.44973519706818,148.0155344824909 216.92285755658241,145.9913718063059 218.27463483050246,142.38046793056472 218.61257954106148,140.4791505293933 218.5449901284622,138.65982544771055 218.7477567979605,137.01826309257558 219.49123484754355,135.65024733804236 221.18095643991535,135.0346256772229 223.14103411443585,134.7062903643759 224.96593374789566,134.20010246312427 226.3177110218139,133.10562060555267 228.21019967578766,129.99987852002926 230.03509930924747,129.4389054147054 232.55841699177626,129.95883259434478 239.04694923964558,134.28218713483952 241.41255986108104,135.45872149011382 243.7781704825183,135.9238538732554 247.4955587699537,135.60920585058358 250.3342909667691,135.69128783403258 253.24061296826372,136.11537765078074 256.03428673291563,137.0456231926069 261.5765742617255,140.6569751383827 264.2125405731823,141.39562308551697 267.18645081105836,141.66919357015846 276.58130427626253,141.45033722634497 280.36628158421547,140.7664047524608 283.9710216348046,139.17964025817932 299.17851831886367,128.45376525327717 302.42278424675925,126.92127872405457 304.38286152919807,126.5518318260233 307.04135725278564,127.30440559446168 310.01526749063805,129.0968457728273 314.1381895091537,133.9538465560272 315.82791110154733,136.96354331649894 316.84174405698826,139.39850814951083 317.31486641652805,140.8758350404962 317.78798877606783,141.72390736319582 318.6666436904463,142.7087442204335 334.5725592077341,154.25154447260843 338.0871804335894,157.69737288462096 340.1824353649853,160.54134099242674 340.72314674506816,162.4007572700955 342.07492441106814,163.79526645612106 344.44053464042366,164.43782020327924 349.1717562753781,163.4534796965907 351.80772180267144,162.4007572700955 355.5251104821849,162.15466261602606 358.1836062057762,162.3870852759989 374.47252486578833,169.45487145927154 374.2021691757724,179.295892158217 377.108491177267,182.22042967053164 380.57805318677356,183.696288813192 382.3353637997103,184.18823079503605 387.20176269156747,183.95592518854073 388.418362708583,184.10624117149706 409.2582657461638,191.5940108404208 412.43494304562176,193.47941209083288 414.59778699756066,195.36473142709806 427.8452063991791,210.67648249858573 432.39619077674416,217.68174382217694 435.37010140670014,223.68925063631886 436.18116769261724,225.80533212002615 436.24875671316033,227.81210082050478 433.61279040168165,245.1729051815068 433.61279040168165,247.21971054279695 436.11357867209784,259.4439437705537 436.32965008284464,260.56057366410397 430.9012522020178,264.16933825140757 424.5858613031462,265.3721929241623 393.1863049763894,261.7205666368145 361.9286680556765,265.3721929241623 355.18752024656067,267.17641174044496 349.0140483177632,271.4289169038113 328.79060532635253,290.1306868738128 324.31973434662183,299.03942686860773 313.4619483586049,299.03942686860773 304.2248017912503,300.29325170659564 301.16077314109145,304 298.1418033639005,301.9558768076517 297.4659150373155,294.54171376193364 302.51255110222183,289.98900761554086 304.5402169540441,292.87880430497864 313.05641501388357,292.87880430497864 312.06511152448286,278.4824321306732 297.75879989164656,276.40983357740856 292.32916035443156,281.78202366448016 289.6256053040866,286.74457204591897 286.87699094475096,284.2361021101578 281.42482197104016,281.78202366448016 279.8642129273297,285.3995074731414 267.14988483253114,282.0610794698552 258.9140975145309,275.66069197623926 256.65444551974656,270.97132917153965 256.3316384033327,264.1317641760166 253.74917929213444,264.7180549765206 250.35970195390894,264.7180549765206 248.10005039511807,264.7180549765206Z" name="Limassol" name_en="Limassol District" gn_name="Eparchia Lemesou" admin="Cyprus" adm0_a3="CYP" iso_3166_2="CY-02" iso_a2="CY" postal="LI" type="District" type_en="District" wikidataid="Q59150"/><path d="M161.29643143963986,285.07980574585923 154.5496790728895,282.12276570290294 132.23293247168024,268.2288386980066 124.21451480376389,264.7707697657608 115.13170551416239,262.55831982919534 96.61128929180198,260.60353733183956 88.98314846463948,257.4671075874087 81.63884557762705,252.89095026002892 64.25378067993542,239.09509574000293 61.73472015991263,236.19353819940463 59.00278140272707,220.9087864270348 57.22879536661738,218.45756361085228 56.94495742646914,213.49018571104128 46.83323614875053,185.67521302576014 41.937034078751715,181.4788225584512 32.67682574956017,175.3449026441089 28.738576400664588,171.2120852929519 25.155124258954828,165.9163336178368 22.529624838324594,159.56487879980673 22.24578689817453,152.71717696352536 26.006637643479024,145.91146347373657 17.633422768325776,132.1244428330556 16.81738901734773,126.56530023658928 16.81738901734773,115.01377602642327 14.901484011162099,105.03300125501035 5.428397444835143,88.62327546971252 1.91590500618563,80.46998966289215 0,67.17983328473042 1.490148095939558,57.511677683372355 6.492789502490058,54.27408464152763 15.32724092140817,60.40372055603731 28.312819926388286,74.64526556832244 35.58616311036783,80.38370344330345 43.85293908493552,83.79188570097122 61.947598397049866,82.97222093342867 77.70059622870593,74.60211662363767 90.6506956001399,61.80650702559527 100.37214003712653,47.88451769476386 106.86492953961842,31.431313366498284 111.54825337247817,22.48952023617967 118.46679934924452,17.477843580946875 119.31831273376508,14.971785139533473 120.52462332550063,12.443974109316592 123.04368384554714,11.342060612390457 125.20794715836038,11.947036085794362 128.50728712021623,14.172222739529468 128.0209570932641,16.191346503864438 139.8715400046611,29.27681403388143 142.0343839565727,30.93621530834747 144.67035026805505,33.555470498055996 145.54900557451157,35.50266585470872 146.22489460354967,39.108857787315124 147.71184952644867,41.75503413174688 151.15888212384266,44.55185040068944 153.4569037247605,46.005026195892235 155.21421472975533,47.677488100409775 156.0928700362137,49.65145705493376 155.89010336671535,66.61836268236641 155.28180335822034,68.37223134418629 153.9976151048197,69.41355731898058 152.10512684292402,69.74239202427685 150.2126377968649,69.76979452439737 148.38773816340688,70.20823596098604 147.306316187452,71.31802189312748 146.63042755049017,72.86619338819165 147.2387275589888,75.46918800980484 148.65809385344832,78.72955843332278 152.17271547136167,84.89344709582588 154.74109237021554,88.2078831940549 161.38733207128365,92.33002758135484 163.82053132115675,94.50734634162059 172.8774404679055,110.36147052654084 174.16162950544225,113.20856951431286 174.90510677086183,115.50801130294924 174.83751814240046,120.28443572245722 175.10787344036018,122.172961572771 175.91893972630098,125.96344756896606 176.05411776735983,128.0980139355891 175.91893972630098,130.3282497539594 175.58099579990179,132.53100699598372 174.83751814240046,134.29586805693515 173.28297380690216,137.26450146189887 173.01261850896617,138.60510775903978 172.94502948842307,141.72390736319582 172.60708516994396,143.0643747565074 171.66084084296622,143.5567804284356 169.0248745314875,143.35161172599283 168.34898589453113,144.1586024093467 168.1462192250328,144.910868291059 168.28139726609348,146.57948273725827 169.76835218896693,151.8721205770008 170.78218553648597,153.75926062747183 172.1339632024841,155.64631798294255 174.4319848034038,158.17593838724903 179.23079506679406,162.09997525294165 180.44739469173155,163.28942044173917 181.66399470877442,164.10970856539163 182.76794609684006,164.31477886982492 183.44383473379827,162.633178602419 183.35371630117177,161.0608916946186 183.62407159910595,159.73465728419697 184.79561239979822,159.119379934122 187.43157831919518,160.240545516348 187.70193400923662,161.32066493387342 187.43157831919518,162.46911669962932 187.3639892986776,163.46715087639765 189.05371128315485,163.78159538039614 192.02762191308713,163.1116897497014 196.9616098254618,160.1858552473954 199.1920427979183,157.91614618242463 200.67899811289539,155.72836176886025 201.49006439883618,154.07377600836222 203.6529083507733,153.33534508198838 205.54539700474888,153.08919862598935 216.1117912706708,157.3965575477605 217.93669090410145,164.5198472465126 222.9382674449375,171.31390313145977 223.07344509391828,173.66491621539373 222.2623788079793,175.81078739217833 220.16712309239813,178.50322679870172 218.34222345896384,179.86988265570199 216.38214656860498,180.7445195375559 213.94894692665196,182.90370434446717 211.5157472846716,186.75716939608606 205.27504131470744,200.30988702962006 203.1797863833116,202.87786636925608 201.55765302727386,203.53349557777977 199.6651647653782,203.99789381297515 198.1782098424792,204.8447255464144 196.08295412692172,207.15293842538017 188.85094500571273,217.57250877818686 187.49916733971457,221.09520236780307 187.22881164969687,223.51176811452856 188.17505636875268,224.64491329450692 189.5268336426709,225.64151025897493 190.87861091658917,227.6482870425517 191.8248552435888,230.5832000916444 191.55449955354734,237.16214249527982 190.60825522657325,240.39664956042716 189.25647795265502,242.5528531870331 184.79561239979822,245.2274878705987 181.19087234923285,248.96624072668118 178.14937269875747,251.34031796139513 176.2568844368618,253.1003250912411 168.75451923352782,258.18893555639283 165.5102533056358,262.17209575268043 162.9418760146966,264.2862955784483 159.9679653847643,266.2094451814651 159.42725439676315,267.4778596392851 159.74266930313152,268.82806564220795 160.7114434343218,270.24641812123804 161.31974305076426,271.9374708309919 161.590098740782,273.9557373460084 161.29643143963986,285.07980574585923Z" name="Paphos" name_en="Paphos District" gn_name="Eparchia Pafou" admin="Cyprus" adm0_a3="CYP" iso_3166_2="CY-05" iso_a2="CY" postal="PA" type="District" type_en="District" wikidataid="Q59133"/></svg>