<?xml version="1.0"?><svg fill="#3498db" stroke="#ecf0f1" stroke-width="1" width="800" height="864" viewBox="0 0 800 864" xmlns="http://www.w3.org/2000/svg"><path d="M689.1342949624609,632.3136438502532 562.2409180015892,830.5935275249515 554.7707568881779,827.9772507320437 549.972044671506,832.0956741578772 545.173331976176,837.9664102085993 538.098941016486,840.54495088892 531.816090364299,839.4935124857742 519.9924585170398,836.0888027872478 500.20395274444667,834.0734760458381 489.5181595506512,831.7201387574463 481.4048721168722,824.8977430738873 469.33388362433664,798.5063508329958 460.1322283874221,795.0630853110011 448.70436669388425,794.612324153721 414.76707948060147,786.5609864582584 411.1888405034323,786.8384086068123 411.2055347292297,786.7116402109335 411.3539488417131,785.5846673678495 413.5801557937057,736.7654892408482 419.66512106071565,723.5244933309774 458.30217845144466,701.3238752604788 518.9786837629084,665.7352775799936 533.8942702121019,653.8411108846764 556.8489364842434,611.9463289950381 626.7518332270338,597.9534497911228 641.8405687566853,603.9846082265885 689.1342949624609,632.3136438502532Z" name="Ali Sabieh" name_en="Ali Sabieh Region" gn_name="Ali Sabieh Region" admin="Djibouti" adm0_a3="DJI" iso_3166_2="DJ-AS" iso_a2="DJ" postal="AS" type="Region" type_en="Region" wikidataid="Q821008"/><path d="M713.9858372676716,593.4478004667076 689.1342949624609,632.3136438502532 641.8405687566853,603.9846082265885 626.7518332270338,597.9534497911228 556.8489364842434,611.9463289950381 533.8942702121019,653.8411108846764 518.9786837629084,665.7352775799936 458.30217845144466,701.3238752604788 359.06282237501085,683.8690714926146 319.8321098257805,626.1007377468309 307.66217843081927,587.6584803431093 296.8279718958308,533.0104866256354 294.97279979456385,512.6858285189084 311.8919715965622,533.3868399385135 319.18898343994965,539.1700037575489 374.9713392085748,564.5150107760502 375.24401524872695,576.1481215669751 377.9707780436233,586.10163283834 393.7080935148221,592.1839723991036 403.251762578986,600.9120461450814 409.09482564257047,603.2025784663813 415.75591682661536,601.9783329726306 423.3518985220486,594.9288344065054 428.7275163299128,593.2700752834429 432.8955675862125,594.3956640002896 437.3752490130057,596.4690923281181 442.01074552499756,597.3971880721091 446.37356551820716,595.0670635354819 449.1782356163978,588.905862036702 445.906120262483,585.23270459959 440.99794771033896,582.7246310248485 438.5438614342529,579.9992694129376 442.7508668208739,571.9611075455878 452.333489536697,565.245813141815 474.1865441116044,556.7919650188576 506.5960650867042,552.9599054394766 516.9577627500108,550.1944333321774 521.9438430841353,546.5597264280852 525.7613105183505,542.5495820943653 529.7345935164503,541.0679711749855 535.0712571939973,545.0386513158353 539.005586061804,546.935054006599 551.2273377516075,546.7574087587703 551.8028678522395,547.9132709198207 577.8742240293349,575.5693533464506 605.3555112616913,578.4287054744078 622.9672815378035,578.3409194269091 679.785028534246,567.7685317230785 681.615269944207,567.3394409444559 686.7571653635541,574.6668813866087 692.1717363443954,578.67606686425 707.0910232164235,586.6348355136965 713.9858372676716,593.4478004667076Z" name="Arta" name_en="Arta Region" gn_name="Arta Region" admin="Djibouti" adm0_a3="DJI" iso_3166_2="DJ-AR" iso_a2="DJ" type="Region" type_en="Region" wikidataid="Q705941"/><path d="M90.18611463010072,864 86.03052873379647,863.3992789700085 83.16119499948528,860.9963684405155 81.92441368785252,858.1303438245228 80.29186174386022,855.652249731496 23.746206831349667,844.2124053427515 11.823632325973467,839.6687531669133 8.334946857029626,835.1092671179373 5.837609169423074,831.8453176583191 14.445609415036426,818.0499780241419 17.46335617916271,797.3544312948779 18.601195311344675,704.1175507983223 12.714114812903189,651.3965843088552 0.34629930336515563,595.6207706469894 0,569.1351973914992 14.148781919403865,525.106428609403 20.7284595885933,488.29175093215844 28.29756336012158,472.8551578193551 35.37195384112134,468.0606622741253 54.171034468695844,459.826777831729 58.92027583495536,453.60081617377926 61.59172425303273,446.67157820091086 65.64836796996627,443.809395327992 71.0407356565654,442.1774210608411 77.71935646250184,438.98873585328937 84.34850546070967,433.89170043340306 89.64193048921992,428.54336708444424 107.97222081150741,402.561500069717 115.81261633708282,404.10939596699365 193.35882308414878,422.64276329420665 213.27100693800864,430.46466508518546 294.97279979456385,512.6858285189084 296.8279718958308,533.0104866256354 307.66217843081927,587.6584803431093 319.8321098257805,626.1007377468309 359.06282237501085,683.8690714926146 458.30217845144466,701.3238752604788 419.66512106071565,723.5244933309774 413.5801557937057,736.7654892408482 411.3539488417131,785.5846673678495 411.2055347292297,786.7116402109335 411.1888405034323,786.8384086068123 392.8018381017453,788.2639516814535 349.7123669806185,801.3610673637069 317.9023440445363,822.2813605111131 307.6123210045183,827.151048073203 300.389516057669,826.7754995003963 292.9688272306203,824.2467817150741 282.1346200497175,822.494177814108 266.5017006520908,827.776959329542 262.3955856061989,828.1775413654125 253.83705668959996,827.8771055508746 249.7309421223662,828.3027234117474 232.66335561823877,835.9636281357739 226.18262012850414,837.590890915869 217.129378878753,837.4907520753611 192.54216041085792,831.8453176583191 166.1739764904733,834.7243925144223 153.31144816909293,838.9677910756516 138.47006860030703,854.0126790194441 125.2612409755895,857.3293488894252 98.15098807674839,858.4557470718794 94.8858846673178,859.7823826412334 92.7091495397329,862.197828794052 90.18611463010072,864Z" name="Dikhil" name_en="Dikhil Region" gn_name="Dikhil" admin="Djibouti" adm0_a3="DJI" iso_3166_2="DJ-DI" iso_a2="DJ" postal="DK" type="Region" type_en="Region" wikidataid="Q283979"/><path d="M107.97222081150741,402.561500069717 147.52331032874432,346.48304323382564 166.86657413985535,310.5480504999406 172.1599996470237,304.7422263900986 183.43944783208835,299.2126273542683 187.24873490368955,293.20520127735614 194.5210111796093,275.48291201729546 258.2894710389091,188.49484247337278 272.8834934837366,156.66725881107308 301.7252405060528,117.93489978561746 326.36192982433215,91.42687963083078 334.7720452324299,89.94145744189207 347.78298801962774,93.36545427745317 369.74822891977374,103.15857081349583 444.7466656351277,169.49990235237354 451.0789876163851,160.3410514222266 453.33136722935365,159.71111698415575 454.492891363765,167.58806289849733 453.10769570695743,177.29988880712307 446.70116681655935,182.65868454919737 444.92020134107537,185.11157853876296 443.5102707162931,188.1053022766946 442.69399438908675,191.7278638013404 442.84240850157016,195.48867768117643 443.95551176233107,199.22422449798614 455.1854889769374,222.12562022339935 457.7085232929514,225.6717590285462 461.2704542439433,229.65790313946422 485.0413964128244,250.06450030323822 489.41960369104675,252.81782018012044 494.39146569727166,254.84191226918674 506.6356037179878,258.22370907551567 605.4297178874463,367.72561877059513 610.9952354826592,376.4676952078571 624.5256262750411,405.51581378692714 628.5327987025457,411.5431484884148 639.9217904227232,423.0052054722157 635.2213521297851,425.01644099126 631.8713294726041,427.1715967268587 629.7288733669875,430.4932346147694 627.8980469531622,437.23511107910775 625.3270992434886,440.121556361844 618.6270539291544,442.59277774983934 592.4501330126966,443.77894741273525 585.5942726131077,446.32917652351233 578.4267825217355,451.37018097392246 571.2982460819984,454.5923692417889 558.3266470573591,449.8480155746452 549.21146911857,451.3108763091041 504.6483777179455,467.14431530133794 492.10526934005094,474.7934994879637 481.04240403250316,486.5925361816439 447.5421779394544,547.6264443154552 444.34797036749603,551.7944635892196 439.8293352890917,554.2833611143383 424.987956198992,558.6486969506194 420.547228423858,558.8857245762422 409.09482564257047,556.7919650188576 396.47380996138156,557.2660264084981 392.46157379027653,556.7919650188576 389.8127182986505,554.9352074003773 385.29408322024625,548.594384463507 382.68418185891346,546.875791980559 372.2835305439717,547.527674281691 366.6741903475905,551.5771762724472 366.59628256563406,554.9352074003773 372.8678367545934,553.4734864562214 374.9713392085748,564.0212229998529 374.9713392085748,564.5150107760502 319.18898343994965,539.1700037575489 311.8919715965622,533.3868399385135 294.97279979456385,512.6858285189084 213.27100693800864,430.46466508518546 193.35882308414878,422.64276329420665 115.81261633708282,404.10939596699365 107.97222081150741,402.561500069717Z" name="Tadjourah" name_en="Tadjourah Region" gn_name="Tadjourah" admin="Djibouti" adm0_a3="DJI" iso_3166_2="DJ-TA" iso_a2="DJ" postal="TA" type="Region" type_en="Region" wikidataid="Q645896"/><path d="M546.1627571212185,45.09346450782379 551.0604124746415,44.61493105473923 655.0877652056446,0 662.8785156379356,5.217473341155829 667.3581970647288,13.84664728338291 671.0977571956537,23.4867984717266 676.2006984846795,31.777516928386163 723.0231074245042,85.07866995004419 734.3196955992272,103.01902012364182 741.0976482168596,110.09532994541273 748.5767684787013,112.19634167971277 756.4064725626556,106.80499514570623 756.4064725626556,123.94946166213957 757.3024089437226,132.15418742493551 759.6785879165424,140.33855823482037 763.4571016990983,147.03626464877587 767.8199216922799,152.36643189474947 771.3257594346837,158.31058939133663 772.7670483747693,166.9291169806717 773.3513545853949,185.51142626120082 774.8315971770875,195.37597336285248 777.7920818818427,202.1499745003932 795.6718539373403,227.06408710429434 797.0741892257666,235.2620963688581 795.6718539373403,263.61442254848316 799.1776916797442,300.2928348392278 796.6067439700705,315.8478068947109 789.6340226155561,330.31264137601363 779.2723244735635,342.32256448463136 766.495494185806,350.5329902665141 762.71698040325,351.64086337403035 749.8622423335402,353.8565811703996 736.7737818753131,360.5035068629854 727.2301128111212,362.2640936825536 706.6625320910487,362.71907275117576 697.625261934216,365.1719769872465 682.0437610695858,376.2688119085352 645.2714201013044,420.23147402618287 642.7783796948971,421.8133004795017 639.9217904227232,423.0052054722157 628.5327987025457,411.5431484884148 624.5256262750411,405.51581378692714 610.9952354826592,376.4676952078571 605.4297178874463,367.72561877059513 506.6356037179878,258.22370907551567 494.39146569727166,254.84191226918674 489.41960369104675,252.81782018012044 485.0413964128244,250.06450030323822 461.2704542439433,229.65790313946422 457.7085232929514,225.6717590285462 455.1854889769374,222.12562022339935 443.95551176233107,199.22422449798614 442.84240850157016,195.48867768117643 442.69399438908675,191.7278638013404 443.5102707162931,188.1053022766946 444.92020134107537,185.11157853876296 446.70116681655935,182.65868454919737 453.10769570695743,177.29988880712307 454.492891363765,167.58806289849733 453.33136722935365,159.71111698415575 468.4434011374069,155.48457679103745 474.973607956212,146.09821418234725 479.0302516730855,141.71934870805038 493.32744710096256,139.02652158861895 499.31346977885886,135.83028792044024 502.0838608550531,122.71732223916767 497.6314469844542,107.43809701963602 495.94942371133936,92.93746002070948 516.8262972870359,73.24811958908893 527.9573319636554,46.88165304093864 535.9716767393176,39.85468007545771 540.2262052937386,40.38360637227824 546.1627571212185,45.09346450782379Z" name="Obock" name_en="Obock Region" gn_name="Obock" admin="Djibouti" adm0_a3="DJI" iso_3166_2="DJ-OB" iso_a2="DJ" postal="OB" type="Region" type_en="Region" wikidataid="Q844929"/><path d="M551.2273377516075,546.7574087587703 618.1596091521164,545.8485764513174 628.3654917302002,543.7941222456641 637.9091607943602,544.0904399018121 648.2319048060597,550.1944333321774 657.6587129153181,548.0017689059357 662.6837469010777,541.3050298881851 666.3064455984111,534.8450264509731 671.4483410177583,533.3040621589304 674.3309184192192,538.3812751154267 681.1867788188081,566.7469076513986 681.615269944207,567.3394409444559 679.785028534246,567.7685317230785 622.9672815378035,578.3409194269091 605.3555112616913,578.4287054744078 577.8742240293349,575.5693533464506 551.8028678522395,547.9132709198207 551.2273377516075,546.7574087587703Z" name="Djibouti" name_en="Djibouti" gn_name="Djibouti Region" admin="Djibouti" adm0_a3="DJI" iso_3166_2="DJ-DJ" iso_a2="DJ" postal="DB" type="City" type_en="City" wikidataid="Q3604"/></svg>