<?xml version="1.0"?><svg fill="#3498db" stroke="#ecf0f1" stroke-width="1" width="800" height="1488" viewBox="0 0 800 1488" xmlns="http://www.w3.org/2000/svg"><path d="M783.9728329802639,1036.737508568657 785.0594209708119,1064.1689293811999 775.2801357314884,1199.4911161307518 706.6893026228995,1320.237805450118 682.6485571004833,1338.8446864524153 666.3497439177045,1343.0416639147068 653.3106947066253,1342.062371151121 619.3548375251552,1346.539121703019 590.9677400402958,1339.8239836295857 569.9151089883554,1343.7411554675575 551.8505924071422,1360.2489984698109 534.7368407348438,1405.014115388301 488.14940692512374,1425.2973845196138 477.2835303573504,1450.4758160960428 475.7894731220148,1452.7138536437085 444.84346437305294,1342.3512591381543 441.65229152972705,1307.9709844423537 488.22614671817337,1237.3396344995763 521.4315795926268,1210.6844780116344 552.3083222592461,1194.513197351033 565.6767415713475,1185.1834414810216 575.2502570994338,1175.8535664291132 616.217997671202,1107.6973415567693 616.7354860516847,1102.5431491972724 615.1830239119048,1100.588101152731 603.194566610271,1091.7903199481013 630.017656799964,1067.9735536949865 642.6960966077775,1061.397142226128 783.9728329802639,1036.737508568657Z" name="Saint Patrick" name_en="Saint Patrick Parish" gn_name="Saint Patrick" admin="Dominica" adm0_a3="DMA" iso_3166_2="DM-09" iso_a2="DM" postal="PK" type="Parish" type_en="Parish" wikidataid="Q1431108"/><path d="M735.3480462708854,426.81345943429596 740.2376905594982,434.09757556035294 771.8845486782113,555.2549945478237 777.4533083747663,681.4326280565479 754.3633277612928,777.9061758534825 769.5755496154264,783.3665483430864 783.4295406538989,794.8471959395478 799.9999999999999,801.4274790579689 779.083192029581,927.0012125161185 783.9728329802639,1036.737508568657 642.6960966077775,1061.397142226128 630.017656799964,1067.9735536949865 603.194566610271,1091.7903199481013 608.3694414102606,1071.7949536360077 608.5419385376534,1068.0624244139253 607.8519530295824,1061.4860106744484 606.2994908898027,1055.7982559842599 603.6258064271549,1048.8662455883882 603.0220724845741,1046.2889391238643 602.8495753571532,1043.8893708032372 604.2295433714316,1038.2014751663348 593.1035657033981,1028.0697959577756 538.5949086923309,992.5189025891898 539.0261455071279,847.1860757011129 515.2217340352594,788.0666308223894 572.6628212003848,650.6948401193097 635.8825141061332,590.7585670975106 651.1483868108808,580.0868874851961 652.44210926348,580.8872693765059 653.9083198375182,581.4208547351179 655.0295421603862,581.8655109550441 655.9782673560568,581.6876503580365 658.393209129437,581.1540590109801 659.6869285799212,581.2429940255461 661.9293732258526,581.6876503580365 663.050595548944,581.6876503580365 665.379288758502,580.3536774230068 668.2254673470142,577.8635979593354 673.9178275255671,571.6383561221553 682.3701207307854,564.4347947853771 683.6638401812696,563.9011934554039 684.7850625041376,563.6343941864576 690.2186769916709,563.5454600423782 691.7711391314787,563.2786606385893 693.5823439605261,562.7450584320695 695.4797973533679,561.6778559004869 698.9297128862128,558.8319714757345 711.0044157495538,546.4700323603938 713.0743632680644,544.869189383327 714.3680827185487,544.3355732164255 715.230562352149,537.6653540040116 712.8156205787689,467.75762044279315 711.521904130204,462.86559907380035 716.9555186175978,450.14617850018186 735.3480462708854,426.81345943429596Z" name="Saint David" name_en="Saint David Parish" gn_name="Saint David" admin="Dominica" adm0_a3="DMA" iso_3166_2="DM-03" iso_a2="DM" postal="DA" type="Parish" type_en="Parish" wikidataid="Q1431129"/><path d="M132.54522905940377,2.619274900941073 172.4957575523783,4.204949804937963 210.2546676937879,18.50158862627455 251.0016989818121,49.196327629049236 304.9235992244512,128.239572965031 348.115449318852,156.6873441351804 397.8268240187504,130.62194391928767 439.25297071468896,122.49382417446039 604.9575541602898,188.0766433003458 610.9337864396738,211.47757262417122 632.1222405731635,264.0217119372017 665.263155926961,319.9243438266086 683.8709681725527,352.84736856652916 735.3480462708854,426.81345943429596 716.9555186175978,450.14617850018186 711.521904130204,462.86559907380035 712.8156205787689,467.75762044279315 715.230562352149,537.6653540040116 714.3680827185487,544.3355732164255 713.0743632680644,544.869189383327 711.0044157495538,546.4700323603938 698.9297128862128,558.8319714757345 695.4797973533679,561.6778559004869 693.5823439605261,562.7450584320695 691.7711391314787,563.2786606385893 690.2186769916709,563.5454600423782 684.7850625041376,563.6343941864576 683.6638401812696,563.9011934554039 682.3701207307854,564.4347947853771 673.9178275255671,571.6383561221553 668.2254673470142,577.8635979593354 665.379288758502,580.3536774230068 663.050595548944,581.6876503580365 661.9293732258526,581.6876503580365 659.6869285799212,581.2429940255461 658.393209129437,581.1540590109801 655.9782673560568,581.6876503580365 655.0295421603862,581.8655109550441 653.9083198375182,581.4208547351179 652.44210926348,580.8872693765059 651.1483868108808,580.0868874851961 635.8825141061332,590.7585670975106 572.6628212003848,650.6948401193097 554.2920242159099,604.3647262119977 503.40577386124176,563.3675917208891 483.8275059899093,552.6065613007222 470.89032649469175,547.0925831432261 460.79932258589946,546.0253537771746 450.19083329857193,543.8019597400992 438.0298818714087,539.6219559657277 403.2719868570079,524.3247165403626 399.13209182015424,523.4353341888159 395.50967915988855,524.1468413981668 381.7962655929734,531.0840067068403 368.34159771732914,535.3529927422597 348.6770812821466,537.3985416912487 332.63497750745324,530.2835681667774 320.64652020576347,522.5459476170959 277.8675748049757,480.03200184583517 271.053992303499,450.59091773938195 262.9466903513705,382.98738810944315 258.63429818690054,365.9965303678455 236.81358566958082,348.0266919680177 233.8811585176654,327.7433509174451 235.86486047413368,228.00838089036048 232.67368763080776,190.726451566809 231.12122549102796,190.10358435193643 228.62003515385362,186.36638179676027 227.67130995840645,185.74351379376307 226.55008463339567,185.2986064104282 225.51511387607377,185.0316630833354 224.30764298938368,185.20962428028508 223.18642066651572,185.3875885292751 221.72020408841516,185.74351379376307 218.61527980888343,185.56554963563158 216.804077981532,185.2986064104282 210.85297211179204,182.7181386212906 209.55925566322722,181.8283228165969 208.26553621274294,180.49359234000383 206.7130740729631,177.3792144123175 205.85059443919525,175.95549522757585 193.77589457780147,171.15041691935272 171.26519955427432,148.72628740685312 162.29541796860133,133.4205170952292 132.54522905940377,2.619274900941073Z" name="Saint Andrew" name_en="Saint Andrew Parish" gn_name="Saint Andrew" admin="Dominica" adm0_a3="DMA" iso_3166_2="DM-02" iso_a2="DM" postal="AN" type="Parish" type_en="Parish" wikidataid="Q732322"/><path d="M16.421125937768878,359.0925164826879 13.582344875373842,356.48982178672503 0,337.9971753512333 0.13582308152142225,305.7739753808932 16.434636264328226,283.3569610019131 72.25806632513215,244.12546125950325 89.3718179974026,209.65596944360843 66.28183404580395,205.1720095589216 25.80645225900369,190.45881021759936 0.13582308152142225,188.0766433003458 27.70797873901531,147.57857704367993 66.55348020909813,0 132.54522905940377,2.619274900941073 162.29541796860133,133.4205170952292 171.26519955427432,148.72628740685312 193.77589457780147,171.15041691935272 205.85059443919525,175.95549522757585 206.7130740729631,177.3792144123175 208.26553621274294,180.49359234000383 209.55925566322722,181.8283228165969 210.85297211179204,182.7181386212906 216.804077981532,185.2986064104282 218.61527980888343,185.56554963563158 221.72020408841516,185.74351379376307 223.18642066651572,185.3875885292751 224.30764298938368,185.20962428028508 225.51511387607377,185.0316630833354 226.55008463339567,185.2986064104282 227.67130995840645,185.74351379376307 228.62003515385362,186.36638179676027 231.12122549102796,190.10358435193643 232.67368763080776,190.726451566809 235.86486047413368,228.00838089036048 233.8811585176654,327.7433509174451 236.81358566958082,348.0266919680177 258.63429818690054,365.9965303678455 262.9466903513705,382.98738810944315 271.053992303499,450.59091773938195 85.7935483108743,351.4961517224757 84.58607742401666,352.02991442869967 82.42988434379889,352.2967940811643 79.84244844477773,352.1188753560868 65.61154649718445,349.3610999306145 64.14533292119881,349.45006119669983 46.72326413409058,344.91305628570996 43.96333110748104,344.55721194636567 40.85840682794932,345.0909830322243 38.78845930938287,345.0909830322243 31.371139863461785,343.31175378819324 28.783703964412698,344.8240975399744 27.40373595013425,345.9805913161535 16.421125937768878,359.0925164826879Z" name="Saint John" name_en="Saint John Parish" gn_name="Saint John" admin="Dominica" adm0_a3="DMA" iso_3166_2="DM-05" iso_a2="DM" postal="JN" type="Parish" type_en="Parish" wikidataid="Q1476285"/><path d="M112.13081025968624,576.8422528105147 96.4346349291256,554.2746161727786 77.9626491032364,543.0701638946998 56.23089930545196,525.0026139196754 48.89643621043479,483.40346292180544 45.77249532022853,399.77751639609625 31.918507619713687,373.30089279903024 16.421125937768878,359.0925164826879 27.40373595013425,345.9805913161535 28.783703964412698,344.8240975399744 31.371139863461785,343.31175378819324 38.78845930938287,345.0909830322243 40.85840682794932,345.0909830322243 43.96333110748104,344.55721194636567 46.72326413409058,344.91305628570996 64.14533292119881,349.45006119669983 65.61154649718445,349.3610999306145 79.84244844477773,352.1188753560868 82.42988434379889,352.2967940811643 84.58607742401666,352.02991442869967 85.7935483108743,351.4961517224757 271.053992303499,450.59091773938195 277.8675748049757,480.03200184583517 217.23531779847178,488.21480263908995 194.46587708375756,499.1546998389388 189.7222421006518,505.2027032033305 186.44482369542322,510.8948945006175 166.09032475428464,531.4397565327225 112.13081025968624,576.8422528105147Z" name="Saint Peter" name_en="Saint Peter Parish" gn_name="Saint Peter" admin="Dominica" adm0_a3="DMA" iso_3166_2="DM-11" iso_a2="DM" postal="PR" type="Parish" type_en="Parish" wikidataid="Q1476294"/><path d="M243.38835824840046,839.0287388325154 236.46859253539733,784.6266285748114 226.01018855039732,754.3840861613867 149.26995051920238,678.3519792134472 137.04583979761483,649.7853132027351 130.6621382736665,617.0162380868404 115.7215625826037,582.0048606292648 112.13081025968624,576.8422528105147 166.09032475428464,531.4397565327225 186.44482369542322,510.8948945006175 189.7222421006518,505.2027032033305 194.46587708375756,499.1546998389388 217.23531779847178,488.21480263908995 277.8675748049757,480.03200184583517 320.64652020576347,522.5459476170959 332.63497750745324,530.2835681667774 348.6770812821466,537.3985416912487 368.34159771732914,535.3529927422597 381.7962655929734,531.0840067068403 395.50967915988855,524.1468413981668 399.13209182015424,523.4353341888159 403.2719868570079,524.3247165403626 438.0298818714087,539.6219559657277 450.19083329857193,543.8019597400992 460.79932258589946,546.0253537771746 470.89032649469175,547.0925831432261 483.8275059899093,552.6065613007222 503.40577386124176,563.3675917208891 554.2920242159099,604.3647262119977 572.6628212003848,650.6948401193097 515.2217340352594,788.0666308223894 403.53073254839046,840.4298201516642 393.1809859503305,841.7632953684641 378.6913413132741,839.7186288347809 321.6814969669801,826.0281084349091 280.541259267791,827.0949080559984 243.38835824840046,839.0287388325154Z" name="Saint Joseph" name_en="Saint Joseph Parish" gn_name="Saint Joseph" admin="Dominica" adm0_a3="DMA" iso_3166_2="DM-06" iso_a2="DM" postal="JH" type="Parish" type_en="Parish" wikidataid="Q1476302"/><path d="M318.18634738600593,1102.4515934186313 313.48047672969096,1035.3379179379062 298.2682515373763,973.1933027722357 251.0016989818121,871.986701172938 244.4821743762865,847.62776622947 243.38835824840046,839.0287388325154 280.541259267791,827.0949080559984 321.6814969669801,826.0281084349091 378.6913413132741,839.7186288347809 393.1809859503305,841.7632953684641 403.53073254839046,840.4298201516642 515.2217340352594,788.0666308223894 539.0261455071279,847.1860757011129 538.5949086923309,992.5189025891898 400.9432936474498,1063.4411694062585 399.908322890128,1065.9295395575973 399.39083150747456,1067.173722910931 398.78709756511716,1068.5956454005468 391.36978112105965,1092.856725907136 388.2648568415279,1098.18871932859 383.3487277327812,1102.5431491972724 380.76129183373206,1103.2540769564146 378.43259862397855,1103.7872684427489 377.05263060986766,1103.6095390228263 375.5864200356339,1103.165210638752 374.1202064596762,1103.0763412170986 372.3952501942274,1103.165210638752 366.01290450754766,1104.8536564017936 364.0292055528033,1105.0313855108466 358.07809968284,1104.6759210624325 357.0431259235707,1104.7647902843212 318.18634738600593,1102.4515934186313Z" name="Saint Paul" name_en="Saint Paul Parish" gn_name="Saint Paul" admin="Dominica" adm0_a3="DMA" iso_3166_2="DM-10" iso_a2="DM" postal="PL" type="Parish" type_en="Parish" wikidataid="Q339063"/><path d="M386.3492405204895,1285.4515777961653 386.0101858799641,1264.5541543411207 387.6400695348068,1249.8630192544513 369.30390345231376,1210.8251037762714 327.06281826693953,1161.849783521302 319.456705670866,1120.5679648556147 318.18634738600593,1102.4515934186313 357.0431259235707,1104.7647902843212 358.07809968284,1104.6759210624325 364.0292055528033,1105.0313855108466 366.01290450754766,1104.8536564017936 372.3952501942274,1103.165210638752 374.1202064596762,1103.0763412170986 375.5864200356339,1103.165210638752 377.05263060986766,1103.6095390228263 378.43259862397855,1103.7872684427489 380.76129183373206,1103.2540769564146 383.3487277327812,1102.5431491972724 388.2648568415279,1098.18871932859 391.36978112105965,1092.856725907136 398.78709756511716,1068.5956454005468 399.39083150747456,1067.173722910931 399.908322890128,1065.9295395575973 400.9432936474498,1063.4411694062585 538.5949086923309,992.5189025891898 593.1035657033981,1028.0697959577756 604.2295433714316,1038.2014751663348 602.8495753571532,1043.8893708032372 603.0220724845741,1046.2889391238643 603.6258064271549,1048.8662455883882 606.2994908898027,1055.7982559842599 607.8519530295824,1061.4860106744484 608.5419385376534,1068.0624244139253 608.3694414102606,1071.7949536360077 603.194566610271,1091.7903199481013 615.1830239119048,1100.588101152731 616.7354860516847,1102.5431491972724 616.217997671202,1107.6973415567693 575.2502570994338,1175.8535664291132 565.6767415713475,1185.1834414810216 552.3083222592461,1194.513197351033 521.4315795926268,1210.6844780116344 488.22614671817337,1237.3396344995763 441.65229152972705,1307.9709844423537 386.3492405204895,1285.4515777961653Z" name="Saint George" name_en="Saint George Parish" gn_name="Saint George" admin="Dominica" adm0_a3="DMA" iso_3166_2="DM-04" iso_a2="DM" postal="GO" type="Parish" type_en="Parish" wikidataid="Q617801"/><path d="M387.6400695348068,1365.0054266574325 386.3492405204895,1285.4515777961653 441.65229152972705,1307.9709844423537 444.84346437305294,1342.3512591381543 387.48862877347364,1369.4456583695276 387.6400695348068,1365.0054266574325Z" name="Saint Luke" name_en="Saint Luke Parish" gn_name="Saint Luke" admin="Dominica" adm0_a3="DMA" iso_3166_2="DM-07" iso_a2="DM" postal="LU" type="Parish" type_en="Parish" wikidataid="Q1431099"/><path d="M475.7894731220148,1452.7138536437085 461.2563666756,1475.2337407039508 420.7809848886322,1486.70322566163 383.2937175723636,1476.352723355898 376.5025468037393,1448.7972790434924 387.6400695348068,1365.0054266574325 387.48862877347364,1369.4456583695276 444.84346437305294,1342.3512591381543 475.7894731220148,1452.7138536437085Z" name="Saint Mark" name_en="Saint Mark Parish" gn_name="Saint Mark" admin="Dominica" adm0_a3="DMA" iso_3166_2="DM-08" iso_a2="DM" postal="MA" type="Parish" type_en="Parish" wikidataid="Q1431115"/></svg>