<?xml version="1.0"?><svg fill="#3498db" stroke="#ecf0f1" stroke-width="1" width="800" height="544" viewBox="0 0 800 544" xmlns="http://www.w3.org/2000/svg"><path d="M57.14782033362885,66.06947277386679 57.36312254306457,62.437651140161826 56.59066827937575,58.38985296619541 54.679408996562216,52.09705656638249 58.83125128206809,53.00922501893928 62.718645040564475,54.99171544963493 61.89885445522698,50.4774358123768 58.055535559539976,41.64270854232275 58.28472415295491,39.38014929544304 58.28472415295491,37.6668412428984 52.46685612570346,37.36886638228912 51.726400120110796,34.92910375350114 54.071177362803844,31.31571691276064 57.48256364272068,27.59019591009113 58.461023387596775,26.891617741600804 59.57170728764807,26.658755489300404 61.98700396421927,26.723956943738937 63.45910104614265,26.118508945392264 65.86558279349177,23.17495405457532 67.1613806407769,22.029138036923896 69.7441616227552,20.995077515900753 71.6658211789219,20.5199587645395 73.56103573072883,19.62560039919862 76.04685205783365,17.34302245961104 74.5659402633056,14.473289566628695 74.32793652402398,11.910834369567302 75.47388035765896,10.093709667610804 78.25940492870328,9.38547196436129 79.93424581634272,9.646403285128326 82.52584172755216,10.820570603082345 84.18305254007385,11.08149147529682 84.90587868718428,10.596922531239144 86.41323548605037,8.444239583494689 87.19776613781325,7.968954557647263 109.44670450572467,6.263467892072863 115.10590359009481,7.055643970453848 120.69458302393133,9.068624152761874 141.3744598716778,19.793294317965863 147.44796171333954,21.023025643638892 153.21294016518416,18.77780274264167 157.57634140227282,21.96392783672065 160.69683436748673,23.398523528747884 170.29631678577275,23.733875361126334 170.72311379385835,23.616012329301014 172.19589503580553,31.385240559386766 176.51156306390746,38.031903511849954 183.25654389315932,39.98309322387663 189.7440398800501,42.5667788317991 187.34831231246585,49.2704918448475 185.4731515788705,56.12661894910911 186.09447352906747,63.6904933106344 186.6206380967994,71.2646044471816 181.3589931986813,70.73293226578801 179.99880214980803,75.60630329720827 181.33660323780052,83.9338251877096 178.8625107097301,91.78711761825596 175.11218943737504,90.51771524625839 171.9048251547145,92.76718422521448 165.09267444283472,92.12955378539806 158.33649873056214,88.17363234013295 153.71296839940482,88.77000041054994 149.4980550978487,90.93101395176923 142.46760231608636,91.5273367014481 135.88494875192927,89.07703724725788 132.15701744045683,86.29589562155627 129.28550296064532,89.95089798460667 120.36869436744568,85.74672783666652 112.11798764618653,80.28412474077031 108.85464836391701,74.33633621612827 103.40828623982877,72.78868846362978 80.61528911425528,75.60039652946928 59.59110006714354,66.69196837047136 57.14782033362885,66.06947277386679Z" name="Monte Cristi" name_en="Monte Cristi Province" gn_name="Provincia de Monte Cristi" admin="Dominican Republic" adm0_a3="DOM" iso_3166_2="DO-15" iso_a2="DO" postal="MC" type="Provincia" type_en="Province" wikidataid="Q592624"/><path d="M56.39486462157989,150.4196552121766 55.482364561862035,149.48939505280782 51.620093243354454,144.06576510445583 50.54537421127109,139.51401616133487 51.96713780895169,138.07526378908454 57.81092224808163,134.7494074886833 59.870799851356985,133.13354596702396 62.61357212391939,126.17391565146684 63.81143586909146,124.87031308172952 66.28552849198071,119.6259412024351 66.43106342858148,109.43000992388895 63.84502098778927,91.56848112834405 57.78853202454238,77.25996273996739 56.79217812495881,72.06782092152618 57.14782033362885,66.06947277386679 59.59110006714354,66.69196837047136 80.61528911425528,75.60039652946928 103.40828623982877,72.78868846362978 108.85464836391701,74.33633621612827 112.11798764618653,80.28412474077031 120.36869436744568,85.74672783666652 129.28550296064532,89.95089798460667 124.24216052205033,98.28104429059631 121.57215569016422,107.93714915424687 122.0479426023933,113.09468377529521 120.39668167242898,117.89750124394813 117.77705449604937,132.4083388058317 107.18659501199376,137.11428279683207 109.33603281507521,142.04367429179553 112.99119670498699,146.05274110358448 109.29685043224092,149.90221412347555 104.8580373270501,152.59012284529285 99.69714754513284,150.86304610209396 94.40191799793982,149.43063096651915 91.74310804907809,152.59601700866855 90.13662723569114,156.76306725415304 85.55227928737898,158.45450795844545 81.18063606483058,161.08875827177133 77.57850218833998,164.51218481605275 63.54275621940199,157.70585629808232 56.39486462157989,150.4196552121766Z" name="Dajabón" name_en="Dajabón Province" gn_name="Provincia de Dajabon" admin="Dominican Republic" adm0_a3="DOM" iso_3166_2="DO-05" iso_a2="DO" postal="DA" type="Provincia" type_en="Province" wikidataid="Q1138575"/><path d="M31.928107833138014,226.22539963747553 31.289993610947594,222.27791361721097 35.029119999709174,219.7597773637684 46.145743809994734,216.7707417415035 48.989271005357736,215.0172202430672 58.38186644957179,204.6356313034382 64.8637651109121,195.57586835123354 68.14389689953249,192.63789002603718 75.48780941897789,187.3854558025055 78.21938657978065,183.3514130398875 79.32769051392809,179.4347341112083 80.31284951836578,165.8380013377412 77.57850218833998,164.51218481605275 81.18063606483058,161.08875827177133 85.55227928737898,158.45450795844545 90.13662723569114,156.76306725415304 91.74310804907809,152.59601700866855 94.40191799793982,149.43063096651915 99.69714754513284,150.86304610209396 104.8580373270501,152.59012284529285 109.29685043224092,149.90221412347555 112.99119670498699,146.05274110358448 121.96957764190351,151.8120640990398 128.66977854938108,160.7351785847987 138.3366513191225,165.57303504937147 147.84679416788435,170.63413578508997 146.34106827587888,177.5088206600635 145.90446374648408,184.55891132798232 139.09791057351893,189.75874841667655 130.8472038522616,190.22393063035875 124.05184556233169,186.09597137591462 116.70233559450955,184.92404234886905 112.31949729411377,193.1385476964666 109.77823488339912,202.8522930325667 106.38615317994908,210.06237905294802 99.68035492835453,212.02210511381372 93.55669624412448,212.64001546871285 88.7764359919912,216.96510247659006 83.40284148429753,228.33152379115168 81.58365575032201,240.62950621118577 85.33957456160438,245.3864716351606 82.74233695645773,256.4680512883831 87.63454701298234,259.6420164064361 92.03417773534248,263.4739302730904 93.59028108803871,268.6981088494292 93.57908620500346,274.2858310425558 97.59808720275299,278.56273229268226 103.45306635641339,279.93734842243896 105.95514638429736,286.39855283843184 102.87092698389003,293.6279274061872 89.26341798207493,290.6975826217263 75.37043702774211,289.61699780201633 60.74418412399616,287.3382728787472 48.73015229018224,285.90998123264194 54.54198535462522,282.3220646506036 57.575827283813446,279.83730131876985 60.17306461975333,275.6016684142952 61.65080334305176,271.75922938059216 62.71432704672361,267.55795209437946 63.03898182203636,263.285686398948 61.29256344903939,254.3458645315644 61.06866359653086,245.1217013012717 59.870799851356985,240.91158200021638 58.25872151984392,238.85339176285325 53.29934159560948,234.3249766706973 51.3178286916009,232.00174715172446 48.250401643723926,225.55476805212487 46.268888739699044,223.95461637319463 41.19755878089709,223.78400800793264 35.81276915856199,225.61947854567487 31.928107833138014,226.22539963747553Z" name="La Estrelleta" gn_name="Provincia de Elias Pina" admin="Dominican Republic" adm0_a3="DOM" iso_3166_2="DO-07" iso_a2="DO" postal="EP" type="Provincia" type_en="Province"/><path d="M47.23937107110652,286.8302558189414 48.73015229018224,285.90998123264194 60.74418412399616,287.3382728787472 75.37043702774211,289.61699780201633 89.26341798207493,290.6975826217263 102.87092698389003,293.6279274061872 95.83487646838645,295.55396339720755 88.8995808742408,297.7617382169686 87.85844701143822,300.2746885607262 88.20549150248678,303.16320254084735 86.7389481881386,308.28801646129443 84.30963558182616,313.0482533792524 90.38851453912123,332.87523643884873 112.62176205822192,341.55622280663044 120.92844377909006,345.2978287433059 128.76493573700859,350.10039250224975 137.15557995729202,352.2288105622208 145.45666413922922,348.9862979324957 155.82322381965741,349.6313040665974 161.4487058256042,360.1375236923943 167.48280466631286,365.102361253991 175.2745167024571,364.56311807253667 168.0929315386516,374.0984103783728 156.67404291756256,377.157178107527 145.74773382549364,373.453811718374 136.14803113322125,375.50477022309104 139.33860279910348,388.4994723839514 142.7250869636244,400.93353483753754 137.74891440766459,401.6011023170042 132.26337009558137,400.10784391709564 128.30594144155782,404.32981145552 127.35996476637371,410.4540745011097 120.88366385732846,405.03245215662946 114.68164001778197,399.23528593796163 107.18099747307551,396.20753515574484 99.26614035984055,394.21037939957193 80.81679895700734,385.13110909233575 62.89921946600856,375.05356852287 62.419151452514136,374.85343212069 62.5484913432473,374.6317256207554 65.09885985856648,370.25977746591656 64.62867014662396,369.6033936628727 62.63596213083579,367.82758620079983 59.5461452926834,365.79380518470543 47.90335686149478,361.42110813643507 39.73101516939819,355.98678672671343 37.97340190124267,353.9641098591087 34.68207521749633,349.11511671726106 32.857291928620604,347.50255978491333 24.405075475025953,345.3856099069082 21.158528805108794,343.60282508830426 19.859909920495152,339.40357222719905 20.677144198027655,336.910782324967 22.300417641294946,335.98400968589 23.45350158928244,334.74045712657033 22.916141856581653,331.3322134219646 21.516768482456627,329.1791740108931 1.925537995046218,309.1507065714249 0,305.4349285707038 3.727931277001921,302.6346487219685 11.777128039396006,300.9379433417877 28.06583673127142,303.93794916396376 36.45088359738977,301.07884904706873 39.27202078585631,298.0551322226905 43.72762631272876,290.47423737150484 46.68310310940087,287.1736400624482 47.23937107110652,286.8302558189414Z" name="Independencia" name_en="Independencia" gn_name="Provincia de Independencia" admin="Dominican Republic" adm0_a3="DOM" iso_3166_2="DO-10" iso_a2="DO" postal="IN" type="Provincia" type_en="Province" wikidataid="Q1424401"/><path d="M50.606901290821106,432.35744418073494 53.198586672805256,425.50871868528304 53.982235831659885,421.5875278054205 53.50085144121791,415.0084107638138 53.646386377838624,411.2383837678624 53.131416868722404,408.70336357586837 50.802859182455684,402.20991809714593 50.478204407166494,400.066668774642 51.08273372731277,395.6041164924938 52.79556698163006,391.3460614607797 62.419151452514136,374.85343212069 62.89921946600856,375.05356852287 80.81679895700734,385.13110909233575 99.26614035984055,394.21037939957193 107.18099747307551,396.20753515574484 114.68164001778197,399.23528593796163 120.88366385732846,405.03245215662946 127.35996476637371,410.4540745011097 134.0265808299479,414.30027785775997 134.3008578994358,423.53079731294235 134.50236774217518,427.6741678152063 134.08255563473207,431.74688601663956 132.89588673397247,434.16925095158103 130.7240589700102,435.0351812703835 128.4626713625356,435.84258538256046 126.96814015872602,437.8493227985898 131.63085306753882,449.42556030907167 142.3108723951104,458.20345707780336 147.78522182417288,456.8877737340375 154.27831554480494,457.1976939901416 157.7375669360726,465.1086159027582 157.73196939715433,473.894730664784 157.88310177920297,474.46169864617616 157.88893321100483,474.4831989134595 157.65567598203032,474.28883401016276 157.32952273374192,475.92724525823735 156.99455455621873,476.5071160487971 156.17476397087037,477.2250397310105 157.65567598203032,477.2250397310105 156.7829956046396,479.13023610462136 155.6546818461061,480.5843824169501 154.27073448981778,481.5323100909187 152.55181873937622,481.86361933156576 151.75847315837675,482.7931108245586 150.34808079773774,487.3022178445533 149.5194754997992,488.94009383339926 146.87498979652204,492.7400750096235 139.57620975809795,513.9875512278186 137.337212099524,518.1161649277824 128.3812210319427,530.6189563106682 126.21274280725778,529.6078453368668 124.34397304314429,527.8429364995491 124.23819367566978,526.896104735735 122.12260524303807,525.0759185893859 107.22533670561846,500.5689206467586 103.60239147410981,496.6592892853561 96.31242636492048,493.8441178424295 79.00867586351804,496.1625088824857 71.60411645762305,494.35012738831875 73.69326010255044,492.7400750096235 80.60418217138546,485.5906577716289 82.08509418255811,482.7010829290224 81.76775586349359,477.8325035494076 80.85981576914931,474.4084954562053 77.51894913975703,467.9554635587743 75.17417189707486,464.40170580964246 74.71579449360038,463.09428470785076 74.5659402633056,460.37802583573676 76.04685205783365,451.8136845720378 74.43371589149669,447.86241176539505 70.62565671275964,443.4685744709819 62.718645040564475,436.91836167193713 50.606901290821106,432.35744418073494Z" name="Pedernales" name_en="Pedernales Province" gn_name="Provincia de Pedernales" admin="Dominican Republic" adm0_a3="DOM" iso_3166_2="DO-16" iso_a2="DO" postal="PN" type="Provincia" type_en="Province" wikidataid="Q1352533"/><path d="M105.14500798992222,544 101.53087768766284,541.9508555482007 101.48680304147811,537.0894652827081 103.47016710229907,531.409443497443 105.88546399550401,526.896104735735 108.94425223942812,528.6150936876855 112.05593027540546,530.876325949931 117.57409005871922,536.1612317061054 114.23322342932696,537.2089395018654 108.84728780118839,542.7135537522907 105.14500798992222,544Z" name="Pedernales" name_en="Pedernales Province" gn_name="Provincia de Pedernales" admin="Dominican Republic" adm0_a3="DOM" iso_3166_2="DO-16" iso_a2="DO" postal="PN" type="Provincia" type_en="Province" wikidataid="Q1352533"/><path d="M724.8184898748002,402.8876058341593 736.0134786009537,402.55563275260573 738.9576725481703,403.59764978066517 741.1437806313265,406.50224083261327 743.5678922371434,410.9555282595841 745.1545836157761,415.0395682907781 744.7931706505377,416.8187122437064 741.5051935965631,416.0904714110612 734.5149367313242,412.90080133866593 730.8743616413478,412.17248771301604 727.0134128871877,412.64266637531927 720.3052346240651,414.77222880395016 716.6205846712684,415.27003199614074 709.0044663137907,413.25112462418383 703.5832709687058,408.364753958815 700.0925501090187,402.27898643981877 698.1973353405672,396.69031090293583 701.4147927440173,395.7403409084826 705.2140369935214,396.46896063821055 708.9780215260755,398.31350692379135 712.1954789295273,400.6375110979862 714.6989251151017,401.5228096792287 724.8184898748002,402.8876058341593Z" name="La Altagracia" name_en="La Altagracia Province" gn_name="Provincia de La Altagracia" admin="Dominican Republic" adm0_a3="DOM" iso_3166_2="DO-11" iso_a2="DO" postal="AL" type="Provincia" type_en="Province" wikidataid="Q1323353"/><path d="M698.5851933101563,218.75749635132019 700.3569986360192,220.0176385035385 702.3403626968401,221.12949338933382 706.2013116676341,221.44451308426727 708.4226794677385,222.27837561554787 733.5981819243825,245.61901977636495 742.8538812359105,256.8396107019464 755.9176397261793,266.779827162363 765.2791186218192,273.294159194778 767.9412339669177,274.4784631759897 769.3339964690745,275.385170772132 779.1185930512498,284.8025479263096 791.5124151864613,292.3125763129571 797.4889525898851,301.4114164611367 796.3077490393002,310.323218832021 775.9452102939719,341.2211389990334 774.5083731456322,342.45875610263215 773.0803509265254,343.9918683837525 772.4192295007138,346.152899062318 772.8159023995249,354.0387114412573 772.4192295007138,356.2915052113997 769.9598579613132,360.1412626358859 766.3898025218705,361.9598399449473 761.9118069880744,362.49524232764094 756.7638750992356,362.49524232764094 752.797146977601,361.165953796056 744.2113838044837,355.53443336539624 741.0908908392697,354.6019223045794 737.5120204705959,356.99316824489154 738.0761774581786,360.63976446302263 739.2309360044055,364.95984391239995 737.3886110280054,369.390194536268 734.7264956829051,372.934110705741 733.0428398660328,377.0405882315167 729.7019732366387,390.23374889902976 728.4943246817156,392.5766819822971 726.0349531423242,393.46216338041404 707.7174833957313,394.91025124776246 703.9799438675278,393.5912945275241 703.4863065304643,385.28914406568913 698.2149654156832,374.30913698734355 691.0043346696158,363.63063996600584 684.6223096547799,356.2915052113997 677.8259818826397,351.6011147991071 673.4546208064197,349.74884992481316 677.3249841623427,340.529856810815 681.1592677392919,330.2118924569399 684.097952296567,323.6466070065668 683.8628574150904,316.56375747619734 679.3064969665774,310.905926621022 673.8489401542895,305.9751841980228 669.6508192746815,298.4076057244133 666.0572279233187,290.23951240511474 664.4171620712035,285.5292910969062 665.2847735910731,280.5952666234994 670.1098137649698,277.72266494741666 675.892025691896,276.80033157776313 686.9806620490507,268.0223557537189 691.4586575370722,255.13960911921222 685.5812884225202,243.9400414967586 687.2549391185369,234.383974682834 688.4919854799872,231.89605896710572 688.3464506368549,228.81975546415944 694.537279398554,224.007747588222 698.5851933101563,218.75749635132019Z" name="La Altagracia" name_en="La Altagracia Province" gn_name="Provincia de La Altagracia" admin="Dominican Republic" adm0_a3="DOM" iso_3166_2="DO-11" iso_a2="DO" postal="AL" type="Provincia" type_en="Province" wikidataid="Q1323353"/><path d="M606.1687609205809,209.39763142989716 614.5081829173207,211.64060378548953 617.9283843431169,211.39964357954065 622.0008920488563,209.10117652896867 620.6522044095088,207.43284583148022 617.9548291308213,205.82005548276533 617.9283843431169,203.61394210665267 621.8157781016151,202.5108366839286 625.200719593824,205.56978862804192 629.7580497073903,212.95658930467962 632.7022434379605,214.6617416012852 635.9814055627004,215.64402223463108 638.7845602088606,216.86720346117576 640.2478423615493,219.30418085228945 642.8394380561286,217.1915252450425 648.1284092460274,214.7544106774739 650.614225573134,212.95658930467962 648.9570145439642,211.12161074999202 649.7503603415973,210.67675388053286 651.6984646854702,210.62114631457482 653.5584195203362,209.9723863351474 655.8238621832609,207.6182195590394 656.5114283967877,206.69134173076952 657.3664786990769,206.6264593539366 665.132451286844,207.04355805775734 669.6721513252943,207.9611586008251 673.7446590310318,209.41629739885752 677.3587893332948,211.39964357954065 677.7730920905882,212.0298437253938 677.7819070198211,212.8546484367682 677.9582060378293,213.71650374371754 678.8397013444675,214.49493664077877 683.2736220154325,216.05175367149437 683.6702949142544,215.9776209509395 691.4186374269092,217.60850623880958 696.2580459259418,217.793829585097 698.2149654156832,218.49805003501575 698.5851933101563,218.75749635132019 694.537279398554,224.007747588222 688.3464506368549,228.81975546415944 688.4919854799872,231.89605896710572 687.2549391185369,234.383974682834 685.5812884225202,243.9400414967586 691.4586575370722,255.13960911921222 686.9806620490507,268.0223557537189 675.892025691896,276.80033157776313 670.1098137649698,277.72266494741666 665.2847735910731,280.5952666234994 664.4171620712035,285.5292910969062 666.0572279233187,290.23951240511474 656.5918648014936,293.9215367963406 651.1343079892058,304.4253911674387 642.8276262683413,314.938097151238 631.9572919810511,321.66917415018725 633.5581754503355,315.74800150735047 634.6720767347097,310.5067948279671 628.3133231689993,309.8435227133925 621.5067701908699,310.8178831379005 615.343928734145,306.292179674706 610.0822838360306,300.53301966266116 606.544667484275,299.55252587213727 602.9174910941731,299.91654436354696 599.945221692991,298.1022881429801 597.1072918622616,296.023713322143 599.7157243504417,287.6378037235962 603.4716429668902,279.00332000262586 604.4176196420743,269.29746219207647 601.0703178603877,260.1651073693515 588.6438804152278,247.29144153266697 580.8633632621062,231.4666855467614 593.116278364322,229.2962167122402 610.9778830505385,233.46646448119552 605.0165516313905,222.74287533338855 606.0408928774148,210.29190201028052 606.0520879552603,210.2212796172912 606.1687609205809,209.39763142989716Z" name="El Seybo" name_en="El Seibo Province" gn_name="Provincia de El Seibo" admin="Dominican Republic" adm0_a3="DOM" iso_3166_2="DO-08" iso_a2="DO" postal="SE" type="Provincia" type_en="Province" wikidataid="Q1774831"/><path d="M517.5332812752517,190.9482839789979 520.2234584724317,192.8874077542081 532.1765330626455,191.06071538806472 536.3019305604398,192.5814199625899 541.4498624492932,190.9308963909798 551.639946642868,194.8809036509379 557.01706734177,194.27823023494517 555.6948244901378,193.13775965775608 553.9582790978459,192.09925199357082 551.8867653113989,191.32962494044537 549.4890984932954,191.02362435730382 549.4890984932954,189.46576384278885 561.0543153305703,188.8537293114567 564.421626747665,189.46576384278885 568.2649458599893,192.2847018805624 571.2443995241432,199.28476137128195 574.902604472591,202.0566073218519 578.6048842838553,203.03921903361015 586.0535185525706,203.95691788825363 606.1687609205809,209.39763142989716 606.0520879552603,210.2212796172912 606.0408928774148,210.29190201028052 605.0165516313905,222.74287533338855 610.9778830505385,233.46646448119552 593.116278364322,229.2962167122402 580.8633632621062,231.4666855467614 588.6438804152278,247.29144153266697 601.0703178603877,260.1651073693515 604.4176196420743,269.29746219207647 603.4716429668902,279.00332000262586 599.7157243504417,287.6378037235962 597.1072918622616,296.023713322143 589.7185993167695,301.172969392345 586.2033727310699,309.65569127887255 581.5686473220688,315.6658380273678 575.4058060601669,322.8896787732668 572.1032845898934,315.44869085377553 569.0862348773019,307.86537730219504 564.1380498211555,300.3686273454907 559.2010600376815,292.87040506662544 557.6785415288995,283.6144956740446 556.4470925115407,274.1918278693479 552.5680290128337,266.9940127961689 552.5792240906937,259.1130406155332 556.43589762852,253.81112004688666 560.9530754993631,249.1081288848714 565.4030836824013,246.36248693705775 569.5284369456257,243.51668565693907 565.5262285646545,239.50044747046437 557.6729439899703,238.47720838313842 547.0768869669929,232.67832906412883 536.2009553356147,227.3020984225304 523.8640777339799,221.07200201781743 513.8613553562143,212.1515728958684 516.7608573358212,205.64231977847476 518.0202934633257,198.70218372785325 517.3877768249346,192.6321860142348 517.5332812752517,190.9482839789979Z" name="Hato Mayor" name_en="Hato Mayor Province" gn_name="Provincia de Hato Mayor" admin="Dominican Republic" adm0_a3="DOM" iso_3166_2="DO-30" iso_a2="DO" postal="HM" type="Provincia" type_en="Province" wikidataid="Q937217"/><path d="M484.90985417982057,145.0476361618643 485.7305521996035,145.84695980199467 493.1439265347369,148.8548832680189 497.5337725595262,148.13077576427057 505.9432364980034,144.90925441860634 510.28019294738954,144.1850697028461 520.0295295959667,143.78583367992675 524.3488559702242,142.8666455296497 528.7827766412018,141.06534203503347 535.1824317311538,136.79385791699815 537.659433129022,136.25524432352782 539.8984310042442,136.73813977645955 544.4910208347369,138.99466274118956 547.3382503437138,139.4960936162176 552.5831466707923,138.1867876812116 554.857404046318,137.9453502451633 556.1179421766623,137.9917807408059 557.2903307980034,138.270361800765 558.1453811002926,138.96680534628206 558.4979791362945,140.28536880069532 559.185545566455,141.39961125735815 560.6840872194507,140.97248896054876 563.0641241790828,139.4960936162176 575.6342455489362,144.62143915985735 579.3365253602024,147.29524976898242 581.7870819703681,142.34669084810298 585.7714401671043,138.68822955392798 595.6089263246864,133.26486695616518 601.9380617641028,131.33306524856815 603.4366036337451,133.97069226696453 601.7617627461057,139.4125222776855 598.5707501303725,145.87481199806962 602.8900765046283,147.46235652697627 607.773559866483,147.4345055292387 612.5160039272649,146.20903762353976 616.4474723319588,144.1850697028461 617.7344552500074,149.18908167733676 614.9136707453775,153.1156884407697 611.0262769868702,156.67990632246736 609.0605427845315,160.60571746312428 608.1261579024739,164.7352586409556 605.6050816417944,168.45609125107748 601.8234672507599,171.18384579557218 597.0898383358445,172.35282208318358 580.0857962950153,169.2354700368321 561.4598029419824,170.65501106070246 557.0699571338232,169.402477710395 549.0395360190521,165.4033657085964 521.4222918814879,161.9884691194911 518.3106140621462,162.84222290330237 517.1205955823356,165.89515923907584 516.4153992936929,176.74079371272302 514.793448198121,185.99743528726424 515.4633845531674,189.46576384278885 517.5332812752517,190.9482839789979 517.3877768249346,192.6321860142348 518.0202934633257,198.70218372785325 516.7608573358212,205.64231977847476 513.8613553562143,212.1515728958684 507.5585765952863,207.46690823108338 500.6960484227122,203.57630718485282 494.4716346222849,198.94355030025645 488.30879336039754,194.22190280172106 492.5684867785419,190.1650470698988 493.34653845489186,183.0335664271245 496.2740279343087,179.39368763174198 499.682901864882,177.12594540616183 505.43152875308385,173.29108445085495 505.42033367523646,167.12266548557088 492.3110019361827,164.01155490444648 481.7317373351569,169.04341032171405 480.2875837868647,163.67568073676225 481.6365799527172,158.03018176123174 483.65727572426965,152.31898292804212 484.4409247447094,146.20012489899582 484.90985417982057,145.0476361618643Z" name="Samaná" name_en="Samaná Province" gn_name="Provincia de Samana" admin="Dominican Republic" adm0_a3="DOM" iso_3166_2="DO-20" iso_a2="DO" postal="SM" type="Provincia" type_en="Province" wikidataid="Q1145487"/><path d="M415.0303485135301,68.88037602759536 422.1835646408697,61.24562155112656 426.2825171343115,59.33792229226481 438.28848151658036,59.52404368335159 444.16805426513247,58.95637047265193 446.83016982688093,59.29139190938395 450.1269618100885,61.23631596948887 457.5138913575158,69.05218269591415 459.8410387417284,74.36415019052566 459.71762929914155,80.1682842596665 456.16520371816836,92.73143540421272 460.5021599509063,94.55370919245571 462.15055605082694,98.60701190517779 462.0888513295389,109.0356918086376 462.61774838353796,113.57058941061479 464.0016959564582,117.19438661446158 478.4317719445457,138.74394474402433 484.90985417982057,145.0476361618643 484.4409247447094,146.20012489899582 483.65727572426965,152.31898292804212 481.6365799527172,158.03018176123174 480.2875837868647,163.67568073676225 481.7317373351569,169.04341032171405 466.72485509646265,166.15047152925797 452.17136961429003,159.32082584907815 437.29322940711216,155.57252960891825 426.7531475785721,146.677644442338 423.803267943446,141.37741932084455 417.22061457411553,140.53426551295868 409.6919845295991,135.04444922003574 407.0107848146814,125.42497635349343 406.3838655203819,117.59660616829026 403.8314080318199,110.36257917505877 396.48189786917294,105.38171662097561 388.7965379036643,100.72482304908401 389.4570424315041,94.19590913139899 390.73886871471603,88.32715390278341 395.3623990458697,88.03191983885328 400.4225337115952,88.38029577612708 411.1417356168204,82.14445445818123 415.1663341534864,70.24851282088859 415.0303485135301,68.88037602759536Z" name="María Trinidad Sánchez" name_en="María Trinidad Sánchez Province" gn_name="Provincia Maria Trinidad Sanchez" admin="Dominican Republic" adm0_a3="DOM" iso_3166_2="DO-14" iso_a2="DO" postal="MT" type="Provincia" type_en="Province" wikidataid="Q1949656"/><path d="M354.6598124285629,51.164958408465296 362.5768604160517,59.52404368335159 366.1733608598416,62.08311616873564 370.12245912299403,64.09302459899229 374.56519493983836,65.43290156046147 384.44675596024257,66.48429793902548 392.3890275660178,69.3498966242878 406.93369785080006,72.21526926652413 410.1776002586008,72.15945239721219 412.3460782666538,71.35009940682164 414.2765527520426,69.68482201711224 415.0303485135301,68.88037602759536 415.1663341534864,70.24851282088859 411.1417356168204,82.14445445818123 400.4225337115952,88.38029577612708 395.3623990458697,88.03191983885328 390.73886871471603,88.32715390278341 389.4570424315041,94.19590913139899 388.7965379036643,100.72482304908401 386.49037017960325,100.28212142156664 384.150617611628,100.3116352494487 379.21922517226,92.25944243270044 372.9388363722256,86.7446717819577 366.4457428464038,90.4822895540754 362.00133239711954,96.9528352509935 356.8852223421373,100.42378675616958 354.3271675094691,94.32579021486436 350.73917369702644,92.57825791066082 346.8209276206602,91.11404475625828 339.5945623402646,100.05781739935085 339.66732956699684,115.28966104941081 338.84449816371193,128.13826483683195 334.1649928329511,141.4953415189825 328.0693214537025,142.68633342376654 323.71447065311844,131.75370486071617 319.2700602038342,132.70911255270636 314.41143499119846,134.60805922122447 307.57129677950877,133.93577257084158 302.4104071924127,130.07873294439574 305.62336881917577,127.67819966773303 308.9594755230168,125.12414299354336 309.01545052262577,120.08629159407886 308.39972611137244,114.90023934486221 309.6423698169144,109.19414384308082 312.5978467961539,104.30755558633538 315.8331985786135,100.67760185801299 316.75118755917373,96.05552887666332 321.5426430839792,85.404232092432 323.31704850655615,73.29079504246448 324.9571143586604,68.74795347896348 328.3491960621195,65.68756523336188 331.1815283539216,65.70529037364595 333.9019106464966,66.3788341434145 337.76977906736,65.8648150124646 341.61525791697767,64.8367553012718 345.48872387677017,64.8662974788865 349.1326926888255,63.731854030590306 352.3288618936242,57.639520146515345 354.6598124285629,51.164958408465296Z" name="Espaillat" name_en="Espaillat Province" gn_name="Provincia Espaillat" admin="Dominican Republic" adm0_a3="DOM" iso_3166_2="DO-09" iso_a2="DO" postal="ES" type="Provincia" type_en="Province" wikidataid="Q530231"/><path d="M170.72311379385835,23.616012329301014 172.826207975696,23.035222255190412 173.41680975098484,21.274556441009953 173.53140404769232,18.945500392000447 174.6773478813309,16.560390795475072 177.2248689297237,15.572759893005836 179.0495640476525,17.697064494384247 181.4560457949889,23.733875361126334 183.14851654109427,22.69054837383991 184.42668452990807,21.572664607766345 185.31699476577919,20.287054994472616 185.89878139519953,18.77780274264167 184.05645663544763,18.200170695870515 183.66859866585855,17.92066807026598 183.63333894891946,17.324388390788087 182.93695758951333,15.777742062395612 186.33071422760705,17.100781100170824 189.17794351993936,16.942391626157775 192.07806260433392,16.21565475846419 195.57759860989128,15.777742062395612 197.79896640999567,14.081944682353864 201.809769394447,6.543061409735 204.45425509771326,4.837506829771505 207.75104708092988,3.998679536571976 214.77656366310973,0.5033547591115742 218.57580791261202,0 222.07534370153382,0.904169456284649 225.40739540169133,2.861571506744825 227.20564573190492,5.732234125164901 226.09496161521992,9.38547196436129 230.273248905062,11.08149147529682 231.88638507141346,11.08149147529682 230.80214595906284,7.549580045392101 230.273248905062,6.263467892072863 240.75422662999887,7.968954557647263 243.8394596616273,7.652094217578031 250.23911475157922,6.151629690509732 252.72493107868405,6.263467892072863 255.38704664041987,8.052828870915699 264.91600940818495,19.429956580484987 265.70935520581816,21.609927868802593 264.5545964429448,23.733875361126334 272.71724171290197,23.789767105268197 275.83773467811585,25.326753608458556 284.0885296736991,32.25634984856662 291.9426517704621,36.25143831293721 300.29041098764947,39.184612856904444 309.95159812723796,40.637144202946075 323.03298669260636,40.739564047714225 324.12604073419357,40.07848525945873 325.23672463424487,38.54212842292246 327.8547653331622,36.73566125200886 330.8165891388448,35.217786503198774 332.99388229277895,34.537981513809385 341.4474210940619,37.20125436913559 354.6598124285629,51.164958408465296 352.3288618936242,57.639520146515345 349.1326926888255,63.731854030590306 345.48872387677017,64.8662974788865 341.61525791697767,64.8367553012718 337.76977906736,65.8648150124646 333.9019106464966,66.3788341434145 331.1815283539216,65.70529037364595 328.3491960621195,65.68756523336188 324.9571143586604,68.74795347896348 323.31704850655615,73.29079504246448 321.5426430839792,85.404232092432 316.75118755917373,96.05552887666332 303.55789332070106,91.87567923102021 297.1935422160598,81.59522424446872 292.6931565723291,70.70930222402446 281.1287333029508,65.59303203371817 280.34508428250024,79.02022729535202 270.6614188959805,79.46318683703123 265.84197626101474,75.18692369110076 260.9609610875,71.03421410407365 254.95484955177645,69.30919370985474 248.204271378433,67.73179158949719 239.08035540355036,66.52653912589031 230.91920852582712,62.4260180244743 223.60888094082478,56.587587521367006 214.82081457397723,53.82168654992989 208.96583561512713,52.29089418970043 204.14639278533838,48.63209645800509 197.14392750338962,45.203484624244716 189.7440398800501,42.5667788317991 183.25654389315932,39.98309322387663 176.51156306390746,38.031903511849954 172.19589503580553,31.385240559386766 170.72311379385835,23.616012329301014Z" name="Puerto Plata" name_en="Puerto Plata Province" gn_name="Provincia de Puerto Plata" admin="Dominican Republic" adm0_a3="DOM" iso_3166_2="DO-18" iso_a2="DO" postal="PP" type="Provincia" type_en="Province" wikidataid="Q693487"/><path d="M226.21642954478475,381.86354174430704 226.17429619498648,381.84784512864974 224.82560855563906,380.01174605811156 223.68847986788165,377.7418758212404 222.27808750724446,375.73025380408967 220.01264506095353,374.0322900235025 217.71194246445788,373.0356245637133 208.31520385186982,370.9960718514464 203.96061776066236,370.9130108578661 200.57567626844983,372.26965118850194 199.21817369986766,375.73025380408967 198.75979607975765,377.6403744891964 196.83813674023554,380.95287304657126 196.3797591201219,383.48088562543563 196.7940618774153,386.3869742519743 197.8518562020489,387.98292440783496 199.28869335040127,389.4312157974423 200.82249493696804,391.92178185435324 204.35729065947535,404.2523541155047 205.49441934724,406.36393176659993 205.52967906417908,409.0654783213276 201.31613227403165,415.4451834427242 197.71963183023817,424.5519808965784 177.21605400048895,454.42001887663054 175.41780388690907,459.54009128914885 174.51867872180136,461.363266696 172.46479501045764,462.78123395610277 168.15428356543674,465.01857261468615 165.49216800368822,467.2557850935905 163.58813852263566,469.4652539621312 162.1072265114757,472.19930152504105 160.74972394290438,475.96406261646155 159.1454027057895,475.4025928429518 158.52835614279817,475.0160022925869 157.88893321100483,474.4831989134595 157.88310177920297,474.46169864617616 157.73196939715433,473.894730664784 157.7375669360726,465.1086159027582 154.27831554480494,457.1976939901416 147.78522182417288,456.8877737340375 142.3108723951104,458.20345707780336 131.63085306753882,449.42556030907167 126.96814015872602,437.8493227985898 128.4626713625356,435.84258538256046 130.7240589700102,435.0351812703835 132.89588673397247,434.16925095158103 134.08255563473207,431.74688601663956 134.50236774217518,427.6741678152063 134.3008578994358,423.53079731294235 134.0265808299479,414.30027785775997 127.35996476637371,410.4540745011097 128.30594144155782,404.32981145552 132.26337009558137,400.10784391709564 137.74891440766459,401.6011023170042 142.7250869636244,400.93353483753754 139.33860279910348,388.4994723839514 136.14803113322125,375.50477022309104 145.74773382549364,373.453811718374 156.67404291756256,377.157178107527 168.0929315386516,374.0984103783728 175.2745167024571,364.56311807253667 175.9182286135349,357.2063878550399 179.71333000247458,351.2437721652583 183.34050639257822,348.96870656601016 186.84453770560566,346.57036106343014 189.30743515581963,342.8230140814616 192.7946742417202,339.99027057439093 199.43889995476215,337.57376991802874 205.03079692198622,333.48531562061976 208.41728108650352,327.9062498171074 211.31118572202067,322.00364345685244 215.5708789453402,327.41928978182244 217.76509686500992,331.1094716624596 218.4479911589057,338.34800530964077 214.076348131193,344.0252542368587 207.42652468439528,349.71925849306706 208.50684112485516,352.32848543167273 209.5143901437526,354.96685058091015 211.5686705643799,356.50874477958746 214.2722602401784,357.5405485547528 221.26353083393124,359.498555239547 227.56630959484832,361.0050972667713 227.05693744906986,364.29349376946516 227.79580674257278,369.1171426319891 229.44706747772136,376.42473640079174 226.21642954478475,381.86354174430704Z" name="Barahona" name_en="Barahona Province" gn_name="Provincia de Barahona" admin="Dominican Republic" adm0_a3="DOM" iso_3166_2="DO-04" iso_a2="DO" postal="BH" type="Provincia" type_en="Province" wikidataid="Q1137551"/><path d="M309.8886005421329,379.6671772101438 307.06029397207453,377.8341495500284 306.11709416078213,375.73025380408967 306.64599121478113,373.478590174113 307.9241592035949,372.4449958115907 309.39625628552193,371.6605531727734 310.5333849732902,370.100849500947 311.53828950587064,365.5413563998365 311.6705138776795,360.75054169937846 311.07991210239254,356.5500141378289 309.87226354746775,353.8355843172601 305.1121896282017,347.8890242169352 302.24733026075523,345.84814574576995 297.2316227437253,343.9087493835392 292.9563712322881,342.91130763180314 287.5528057456691,342.49569919109524 282.92495598159275,343.7425108456 280.968036708487,347.7043337930358 281.70849271406695,352.4505976601416 281.161965584952,354.35263328492584 274.7270507780646,360.69515300739226 272.9552454521872,361.8306036527779 270.6192833553735,362.49524232764094 268.08939216545025,362.4029321079484 263.5849516273161,360.99978949229927 261.5927726372604,360.8059303121168 259.91793174963544,361.4613551157994 256.9032183685316,363.58448635008534 254.87577944490124,364.04602116902186 252.12551437415138,363.695255162758 251.16468470438943,364.28601719258893 249.0226512674197,366.2982325744445 248.4232345628834,367.14739288013146 247.06573199431392,369.95318215863807 246.80128346731348,370.94069779988416 246.21949662125942,371.835900547639 243.31056260762827,372.7956826815375 242.23513842451243,373.33093545661603 236.47015997266777,380.1593753894473 233.39374187027593,381.98624113783296 228.25462491066824,382.62285594008557 226.21642954478475,381.86354174430704 229.44706747772136,376.42473640079174 227.79580674257278,369.1171426319891 227.05693744906986,364.29349376946516 227.56630959484832,361.0050972667713 221.26353083393124,359.498555239547 214.2722602401784,357.5405485547528 211.5686705643799,356.50874477958746 209.5143901437526,354.96685058091015 208.50684112485516,352.32848543167273 207.42652468439528,349.71925849306706 214.076348131193,344.0252542368587 218.4479911589057,338.34800530964077 217.76509686500992,331.1094716624596 215.5708789453402,327.41928978182244 220.14962935473412,325.69434567796054 220.22239677629298,321.66917415018725 214.46257519989703,317.8255041911283 207.63363187123895,316.58723219487644 194.11008556365852,311.91547627428184 183.8218906489098,301.5487143051566 193.33763123141472,299.00062009600845 199.04147800302647,290.5390204305988 202.58469208853603,289.19415203413706 206.6764605078444,287.2677947264503 206.18388097884247,284.34283395069485 204.74532477464007,281.8582030778581 207.00671257695217,278.78008951300086 207.2641974192987,275.89560038099694 205.89281129257805,267.3348379732166 212.94005669111505,265.1311718181092 214.76483976919306,269.06242271070226 217.91622924705857,270.35512172531054 220.8773035703915,267.51700199577044 222.5677470780222,263.6502361779685 222.67969688241533,251.93587253966606 224.12385043072203,240.65890857025397 226.7546726849472,234.95446628397033 232.07229258268154,231.24317429162934 235.1229267495268,228.33152379115168 235.9905386590478,223.91950198447003 240.52450895185345,221.68387971582203 242.33809714690165,216.80623052932398 253.7122058462236,224.54309923008637 256.1527133355695,245.52758411937467 265.3885791148344,258.0315562024968 278.60986085311697,264.74919000094434 286.8269827304601,274.70296746825704 283.7595557520026,287.70240822689095 289.9839695524426,299.9459005850991 294.5179400400731,311.44592168905535 297.7197067838027,313.4004053744454 299.3597726359196,316.7750296308595 303.1212887912954,320.38408153570896 308.1478388079423,322.1620752041495 315.35741166638803,326.86778551854434 322.3486820653142,330.43482272321666 326.8490675142057,338.15444787002417 331.6181328833182,347.5789745056369 333.051091353763,351.753884405185 330.94643347244494,355.91075515868647 329.2559901596355,362.0191959376664 329.81573957129433,368.4666003861501 321.9512599187501,377.36225907475483 309.8886005421329,379.6671772101438Z" name="Azua" name_en="Azua Province" gn_name="Provincia de Azua" admin="Dominican Republic" adm0_a3="DOM" iso_3166_2="DO-02" iso_a2="DO" postal="AZ" type="Provincia" type_en="Province" wikidataid="Q794239"/><path d="M396.3251774626456,388.20109574777496 391.6133116268541,388.3334711851763 387.5760638547003,389.0161059057723 384.8963184344823,390.51048059630466 381.0706293972612,388.1581981907944 376.9981216915382,387.3002718096657 349.2750981864851,387.41097301308776 344.62080363469533,388.8777348836108 335.70888742993424,393.91412007173295 330.6491050500859,395.01170757528797 315.6372422159461,394.9748142515536 312.15533606886197,393.5912945275241 311.85562782492246,391.64506017514464 313.4246891284392,390.12305571532397 315.4521280520822,388.79471230648346 316.4570325846608,387.41097301308776 315.8399860216586,384.9570211878515 314.36788915636714,383.6100496315466 312.8429024990333,382.74279662087633 311.20332132833295,380.519219338112 309.8886005421329,379.6671772101438 321.9512599187501,377.36225907475483 329.81573957129433,368.4666003861501 329.2559901596355,362.0191959376664 330.94643347244494,355.91075515868647 333.051091353763,351.753884405185 331.6181328833182,347.5789745056369 337.4731120369931,338.9462671266702 348.06916886514216,335.8434157020873 353.50433591136306,332.095024985826 358.1614512812431,327.0672666893376 368.63436322714256,331.60811801711725 377.18733451768685,339.8612381631399 384.0666553070339,343.0869237331337 383.6524407385199,348.558242337749 378.04375115452297,351.78320102638986 376.96903244782067,357.65779735348696 380.96004594575663,362.7167394823053 385.3037016684842,367.8277692981234 386.8318175213832,370.72293888913345 388.4550907567091,373.5651521124263 391.2874230485148,376.3309827464319 394.06378034070786,378.72162711527614 394.9817693212573,383.8246917577446 396.3251774626456,388.20109574777496Z" name="Peravia" name_en="Peravia Province" gn_name="Provincia de Peravia" admin="Dominican Republic" adm0_a3="DOM" iso_3166_2="DO-17" iso_a2="DO" postal="PV" type="Provincia" type_en="Province" wikidataid="Q1331932"/><path d="M434.5333121298965,346.61464202805195 431.80949184687086,347.99983800165666 426.9700833478382,352.28439590714345 423.3206933286253,358.0087104865661 421.8838561802856,364.82138742322127 420.73791256329343,366.6674350127159 415.75746476320074,369.288671368024 414.6203358588114,370.94069779988416 413.73884076881063,373.4416764339798 406.4224306552833,380.2331898449402 401.15990446972063,386.2762701378474 398.1892657348015,388.8131617833633 396.86702288316746,388.18587308165434 396.3251774626456,388.20109574777496 394.9817693212573,383.8246917577446 394.06378034070786,378.72162711527614 391.2874230485148,376.3309827464319 388.4550907567091,373.5651521124263 386.8318175213832,370.72293888913345 385.3037016684842,367.8277692981234 380.96004594575663,362.7167394823053 376.96903244782067,357.65779735348696 378.04375115452297,351.78320102638986 383.6524407385199,348.558242337749 384.0666553070339,343.0869237331337 377.18733451768685,339.8612381631399 368.63436322714256,331.60811801711725 358.1614512812431,327.0672666893376 354.90930688199614,320.31953246902793 353.34200845145256,312.95434553821406 355.7041511751352,304.93025486303594 354.7749671167258,296.91035092124577 355.5194339491579,287.0974719352621 359.5776173297399,277.85778202379583 367.5820342864836,277.9987730832461 370.5095237659131,269.33859386458016 373.57695074435975,262.86273076770095 380.9880334455557,259.3069991280388 384.5704297190729,263.8559249536648 388.34314095231963,268.2280207924049 393.95742788040815,271.36574664346574 399.18548773979626,275.23760077553806 399.3590098879009,285.4118218538762 405.22518411943224,294.8610712824402 403.3388285028161,299.91654436354696 402.29209710108444,305.49381603307154 404.61505705227233,313.53539590625496 408.61726562805745,320.7831104424089 413.9404826750568,324.7320981040576 417.9650814065494,329.62522828521924 418.54722058426063,333.5263782163977 421.0381057291112,336.19535846065685 425.93591351939153,336.04285010926725 430.80573361504617,336.2246869126499 433.5541032126063,340.2776598742714 433.7332230944794,345.18640678697307 434.5333121298965,346.61464202805195Z" name="San Cristóbal" name_en="San Cristóbal Province" gn_name="Provincia de San Cristobal" admin="Dominican Republic" adm0_a3="DOM" iso_3166_2="DO-21" iso_a2="DO" postal="CR" type="Provincia" type_en="Province" wikidataid="Q1366107"/><path d="M439.53754438431827,344.5724995728269 436.80756950542036,345.46027413822463 434.5333121298965,346.61464202805195 433.7332230944794,345.18640678697307 433.5541032126063,340.2776598742714 430.80573361504617,336.2246869126499 425.93591351939153,336.04285010926725 421.0381057291112,336.19535846065685 418.54722058426063,333.5263782163977 417.9650814065494,329.62522828521924 413.9404826750568,324.7320981040576 408.61726562805745,320.7831104424089 404.61505705227233,313.53539590625496 402.29209710108444,305.49381603307154 403.3388285028161,299.91654436354696 405.22518411943224,294.8610712824402 399.3590098879009,285.4118218538762 399.18548773979626,275.23760077553806 405.28675646314554,277.42893054113296 409.25538019502915,284.55428447246015 416.1570905555946,287.10334499255276 423.2603109537551,289.0238376558898 433.5037257519265,291.0264501340134 442.69481160943155,286.7744435977503 443.2713534430403,284.68350383890845 444.26770757890245,282.65706181505914 446.82016487265236,281.79358844512086 449.56293712610636,281.66435966799975 454.5894871427424,281.87582487822414 459.6104396204602,282.1342811690402 465.4822113909098,286.739203913724 470.3968112135031,292.2831678308745 473.39706830931993,296.2409706623353 474.6173220539793,300.7502515373003 479.16808496357595,305.14159125003926 480.9033081981289,311.56331082430125 490.89483588768593,301.1377430150474 503.48360059792964,296.4758424240499 508.2078860452787,295.471756499065 512.2884593867398,292.8292988486594 519.6491644324201,291.24960857840273 527.4016942805567,294.20927155550635 524.698104409937,297.1745765063221 523.4554607043823,300.6680558326718 524.6757144490543,300.76786501092573 525.8399931941066,300.25120382841675 526.8139573691024,305.9399624523376 526.4109376836128,311.63374413263114 521.9553321564812,317.3912332931886 518.4680932654036,323.3414905082454 527.0490520557578,332.4763333432029 539.766559382005,335.02220307631234 538.3783808333218,342.27173054049314 537.632148884457,348.23832455971024 526.3939247523332,340.48224402317777 521.5985908994852,337.9329482584628 518.4163934296189,337.56347089033096 517.0412610025653,339.6879162733686 517.1558552992747,342.2370961473219 517.5437132688601,344.7953426651147 516.9442963476919,346.87321572064127 515.005007149702,347.5104079194401 511.96384876424565,347.50117312438056 509.1695090473346,346.9655630318697 507.94423063392946,346.152899062318 504.30365554395127,339.9650091772378 502.5759250809068,338.3024218545655 500.962788914559,337.78515773662997 467.58056632514837,334.12716344092786 461.5335094878356,334.41353407641986 461.87182722793483,327.65983715545343 455.82653350419275,326.7504432294922 451.76275258469434,327.85931421333675 447.642996665576,327.46622612740146 444.97858937261,323.28281412187476 442.3365718456999,319.53319761922796 436.5375676916467,322.7840600923046 435.96662339696707,329.26735840839865 440.7804684930164,336.3654629261513 439.53754438431827,344.5724995728269Z" name="Santo Domingo" name_en="Santo Domingo Province" gn_name="Provincia de Santo Domingo" admin="Dominican Republic" adm0_a3="DOM" iso_3166_2="DO-32" iso_a2="DO" postal="SD" type="Provincia" type_en="Province" wikidataid="Q1352536"/><path d="M461.5335094878356,334.41353407641986 460.6079395350145,334.45972257913945 457.10840352946076,335.4943332345655 450.3032608280858,338.7827321848859 444.6969515357779,342.56958548881414 442.5725481738988,343.5855070986964 439.53754438431827,344.5724995728269 440.7804684930164,336.3654629261513 435.96662339696707,329.26735840839865 436.5375676916467,322.7840600923046 442.3365718456999,319.53319761922796 444.97858937261,323.28281412187476 447.642996665576,327.46622612740146 451.76275258469434,327.85931421333675 455.82653350419275,326.7504432294922 461.87182722793483,327.65983715545343 461.5335094878356,334.41353407641986Z" name="Distrito Nacional" name_en="Distrito Nacional" gn_name="Distrito Nacional" admin="Dominican Republic" adm0_a3="DOM" iso_3166_2="DO-01" iso_a2="DO" postal="NC" type="Distrito" type_en="National District" wikidataid="Q2499228"/><path d="M633.5308489525437,351.5087785750279 629.431896459091,350.7793143954003 619.9381934082795,347.5750498342775 615.6364968924916,346.87321572064127 611.8989573642737,345.6542105429578 605.6315264294988,340.3344635092975 600.845007722532,339.11525133471605 596.66672064932,339.98348214823847 592.4179137089388,341.424332525806 588.1250323390212,341.7198848547822 583.779260960413,339.11525133471605 579.2483758512101,343.29920464949845 551.1022346596324,345.46027413822463 542.692770721157,348.55390238022983 538.2500349043108,348.66471448317486 537.632148884457,348.23832455971024 538.3783808333218,342.27173054049314 539.766559382005,335.02220307631234 527.0490520557578,332.4763333432029 518.4680932654036,323.3414905082454 521.9553321564812,317.3912332931886 526.4109376836128,311.63374413263114 526.8139573691024,305.9399624523376 525.8399931941066,300.25120382841675 524.6757144490543,300.76786501092573 523.4554607043823,300.6680558326718 524.698104409937,297.1745765063221 527.4016942805567,294.20927155550635 539.7553644989698,272.5643597431145 552.5792240906937,259.1130406155332 552.5680290128337,266.9940127961689 556.4470925115407,274.1918278693479 557.6785415288995,283.6144956740446 559.2010600376815,292.87040506662544 564.1380498211555,300.3686273454907 569.0862348773019,307.86537730219504 572.1032845898934,315.44869085377553 575.4058060601669,322.8896787732668 581.5686473220688,315.6658380273678 586.2033727310699,309.65569127887255 589.7185993167695,301.172969392345 597.1072918622616,296.023713322143 599.945221692991,298.1022881429801 602.9174910941731,299.91654436354696 606.544667484275,299.55252587213727 610.0822838360306,300.53301966266116 615.343928734145,306.292179674706 621.5067701908699,310.8178831379005 628.3133231689993,309.8435227133925 634.6720767347097,310.5067948279671 633.5581754503355,315.74800150735047 631.9572919810511,321.66917415018725 628.4812479730106,327.3958216896304 625.6601107590668,333.41492240979835 627.1266544630664,336.41825384951966 629.72389187339,338.6295412958766 632.4218840102558,345.1746782594454 633.5308489525437,351.5087785750279Z" name="San Pedro de Macorís" name_en="San Pedro de Macorís" gn_name="Provincia de San Pedro de Macoris" admin="Dominican Republic" adm0_a3="DOM" iso_3166_2="DO-23" iso_a2="DO" postal="PM" type="Provincia" type_en="Province" wikidataid="Q1366119"/><path d="M673.4546208064197,349.74884992481316 668.8259159522416,347.78744461585813 659.7641455171913,346.5038242656225 649.3184277258363,350.7793143954003 633.5308489525437,351.5087785750279 632.4218840102558,345.1746782594454 629.72389187339,338.6295412958766 627.1266544630664,336.41825384951966 625.6601107590668,333.41492240979835 628.4812479730106,327.3958216896304 631.9572919810511,321.66917415018725 642.8276262683413,314.938097151238 651.1343079892058,304.4253911674387 656.5918648014936,293.9215367963406 666.0572279233187,290.23951240511474 669.6508192746815,298.4076057244133 673.8489401542895,305.9751841980228 679.3064969665774,310.905926621022 683.8628574150904,316.56375747619734 684.097952296567,323.6466070065668 681.1592677392919,330.2118924569399 677.3249841623427,340.529856810815 673.4546208064197,349.74884992481316Z" name="La Romana" name_en="La Romana Province" gn_name="Provincia de La Romana" admin="Dominican Republic" adm0_a3="DOM" iso_3166_2="DO-12" iso_a2="DO" postal="RO" type="Provincia" type_en="Province" wikidataid="Q1140742"/><path d="M186.6206380967994,71.2646044471816 186.09447352906747,63.6904933106344 185.4731515788705,56.12661894910911 187.34831231246585,49.2704918448475 189.7440398800501,42.5667788317991 197.14392750338962,45.203484624244716 204.14639278533838,48.63209645800509 208.96583561512713,52.29089418970043 214.82081457397723,53.82168654992989 223.60888094082478,56.587587521367006 230.91920852582712,62.4260180244743 239.08035540355036,66.52653912589031 248.204271378433,67.73179158949719 246.78810532993984,75.38775389611772 243.63671585206345,82.35705778818543 238.0895990014385,83.08344228810384 232.7104067599909,79.28600383229227 233.09663382870582,83.8806768256803 234.83185725808724,87.99058676801354 237.96645411918894,89.50216131538235 241.18501347969504,91.48600759445358 240.98350363695567,97.76747583649166 239.47777774494836,104.34296786517463 244.42036506733888,108.06107988664027 243.55835089157367,112.10926129269298 234.0314154260335,112.16826942983535 225.09221687195125,108.33254638405464 223.16108152839837,110.76385128063039 221.11239845187174,113.72604818395897 217.98339912969917,114.13908450578892 214.80961969095648,113.4192182109802 208.50684112485516,110.76385128063039 202.48393716716726,107.42371615928447 186.53107805846227,104.56134371696851 178.8625107097301,91.78711761825596 181.33660323780052,83.9338251877096 179.99880214980803,75.60630329720827 181.3589931986813,70.73293226578801 186.6206380967994,71.2646044471816Z" name="Valverde" name_en="Valverde Province" gn_name="Provincia de Valverde" admin="Dominican Republic" adm0_a3="DOM" iso_3166_2="DO-27" iso_a2="DO" postal="VA" type="Provincia" type_en="Province" wikidataid="Q1774848"/><path d="M132.15701744045683,86.29589562155627 135.88494875192927,89.07703724725788 142.46760231608636,91.5273367014481 149.4980550978487,90.93101395176923 153.71296839940482,88.77000041054994 158.33649873056214,88.17363234013295 165.09267444283472,92.12955378539806 171.9048251547145,92.76718422521448 175.11218943737504,90.51771524625839 178.8625107097301,91.78711761825596 186.53107805846227,104.56134371696851 202.48393716716726,107.42371615928447 199.6292149144826,111.318543943782 199.16462288527606,115.84428518553106 202.02494248206503,117.86800179966713 203.88331059887304,120.12168861914822 195.58222661176248,122.92385508598345 187.74573445903178,126.65187944915749 183.6539660397198,126.87012221029345 179.57899004236492,126.44543250063491 176.24288333852385,128.65730586868182 173.572878701468,131.75370486071617 169.62104758636272,135.02675769277485 166.58160810771517,139.17810351521132 165.85953123614942,146.08221795080988 165.2494043638107,153.114713653448 166.02185850122967,157.9123123611039 169.6042549695844,161.29501156353945 169.90651973369435,168.23623824545527 168.7590334105957,175.40001244475954 157.2225974461862,175.28219848380726 147.84679416788435,170.63413578508997 138.3366513191225,165.57303504937147 128.66977854938108,160.7351785847987 121.96957764190351,151.8120640990398 112.99119670498699,146.05274110358448 109.33603281507521,142.04367429179553 107.18659501199376,137.11428279683207 117.77705449604937,132.4083388058317 120.39668167242898,117.89750124394813 122.0479426023933,113.09468377529521 121.57215569016422,107.93714915424687 124.24216052205033,98.28104429059631 129.28550296064532,89.95089798460667 132.15701744045683,86.29589562155627Z" name="Santiago Rodríguez" name_en="Santiago Rodríguez Province" gn_name="Provincia de Santiago Rodriguez" admin="Dominican Republic" adm0_a3="DOM" iso_3166_2="DO-26" iso_a2="DO" postal="SR" type="Provincia" type_en="Province" wikidataid="Q2021942"/><path d="M302.4104071924127,130.07873294439574 307.57129677950877,133.93577257084158 314.41143499119846,134.60805922122447 319.2700602038342,132.70911255270636 323.71447065311844,131.75370486071617 328.0693214537025,142.68633342376654 334.1649928329511,141.4953415189825 337.3723571156207,149.21841676535607 341.71601264352347,156.44480855879536 347.7725014451256,162.3026897122546 356.62773769461376,162.91553312775187 363.64139824923467,173.70934511247583 374.4333673812085,180.81316495393253 374.84198460562,181.4257026858774 375.256199174134,182.03234063801318 370.4423538832725,183.8168595202542 365.13592925822127,186.567088528821 356.52138523431404,190.64200065931345 350.4145189720338,197.7013791894861 348.79684308080135,191.79019737205445 343.6079657990705,188.7223721937134 339.3426750368345,190.23570720830662 337.00852000778656,194.4750736036224 326.6867402491254,197.2716137600337 322.18075726130303,205.6658634052458 321.99044249640923,221.22497217333395 309.03224274976355,231.8313590923385 307.0731199064007,247.5854098860738 319.7906272326479,262.4395867422379 316.68401767653313,272.5349823927002 311.0417434434595,279.70237481766185 306.47418811192205,283.8964347719977 303.1548736352078,287.5849454864207 293.5719633648889,287.461609382378 283.7595557520026,287.70240822689095 286.8269827304601,274.70296746825704 278.60986085311697,264.74919000094434 265.3885791148344,258.0315562024968 256.1527133355695,245.52758411937467 253.7122058462236,224.54309923008637 242.33809714690165,216.80623052932398 240.50211899097263,211.91617657680578 236.91972271744453,208.2732303205048 237.87129673673658,203.21135879391198 236.27601080638124,198.3666230334908 242.58998445033174,195.25223849385674 249.7155948093549,192.16703386737677 263.1999589289313,185.6660722798709 274.5572748166393,177.07882205676998 277.1936948046238,170.94638132609052 281.856407713433,170.68715880582906 287.5434620630949,171.7947332168446 286.90534749612505,165.23128289025686 288.46704838775224,157.47029917545186 285.0525769182462,151.4937625597624 278.43074116608324,149.6605286669984 273.1914862288369,145.657749406762 274.73639469851236,141.0118586422945 280.0987943231726,139.51420051691784 290.98032349347994,133.7883397069052 302.4104071924127,130.07873294439574Z" name="La Vega" name_en="La Vega Province" gn_name="Provincia de La Vega" admin="Dominican Republic" adm0_a3="DOM" iso_3166_2="DO-13" iso_a2="DO" postal="VE" type="Provincia" type_en="Province" wikidataid="Q594405"/><path d="M372.9388363722256,86.7446717819577 379.21922517226,92.25944243270044 384.150617611628,100.3116352494487 382.86879152325537,106.13125013023716 381.12237321084046,113.4487212362597 374.9539344100222,118.68217684743408 365.8468108571003,123.09492770983496 361.62630021143985,132.73270253442152 359.8574919381551,143.41741835465348 356.8236499984258,153.20902148253978 356.62773769461376,162.91553312775187 347.7725014451256,162.3026897122546 341.71601264352347,156.44480855879536 337.3723571156207,149.21841676535607 334.1649928329511,141.4953415189825 338.84449816371193,128.13826483683195 339.66732956699684,115.28966104941081 339.5945623402646,100.05781739935085 346.8209276206602,91.11404475625828 350.73917369702644,92.57825791066082 354.3271675094691,94.32579021486436 356.8852223421373,100.42378675616958 362.00133239711954,96.9528352509935 366.4457428464038,90.4822895540754 372.9388363722256,86.7446717819577Z" name="Hermanas" name_en="Hermanas Mirabal Province" gn_name="Provincia de Hermanas Mirabal" admin="Dominican Republic" adm0_a3="DOM" iso_3166_2="DO-19" iso_a2="DO" type="Provincia" type_en="Province" wikidataid="Q549386"/><path d="M386.49037017960325,100.28212142156664 388.7965379036643,100.72482304908401 396.48189786917294,105.38171662097561 403.8314080318199,110.36257917505877 406.3838655203819,117.59660616829026 407.0107848146814,125.42497635349343 409.6919845295991,135.04444922003574 417.22061457411553,140.53426551295868 423.803267943446,141.37741932084455 426.7531475785721,146.677644442338 437.29322940711216,155.57252960891825 452.17136961429003,159.32082584907815 466.72485509646265,166.15047152925797 481.7317373351569,169.04341032171405 492.3110019361827,164.01155490444648 505.42033367523646,167.12266548557088 505.43152875308385,173.29108445085495 499.682901864882,177.12594540616183 496.2740279343087,179.39368763174198 493.34653845489186,183.0335664271245 492.5684867785419,190.1650470698988 488.30879336039754,194.22190280172106 474.1079501030238,193.67434133774807 462.49874671704646,195.04617363298638 462.05094710980427,197.58952282340204 461.7710723065624,201.11577860791408 458.490940797157,205.4421982497259 452.66394914329203,205.23618962620318 454.6510594864539,198.9494373153108 455.38433143586883,192.8794796404937 450.7719959877468,189.94128897819945 445.4039988241574,188.27483712507842 438.4071308863129,187.79196444244567 431.74051501756173,187.7154108785439 426.6244051573916,186.12541659045672 421.7433901787144,183.85808472430995 416.1067130949184,181.3020182320428 409.9606644498039,180.83672426832814 400.4729111722732,179.7353095827166 390.8844033630216,179.90022925219293 386.42320049178744,180.6953679529852 381.878034926306,179.86488948713207 377.68551158563065,178.716324727594 373.6609132437786,180.03569858699825 374.33820999875434,179.84721938699735 374.4333673812085,180.81316495393253 363.64139824923467,173.70934511247583 356.62773769461376,162.91553312775187 356.8236499984258,153.20902148253978 359.8574919381551,143.41741835465348 361.62630021143985,132.73270253442152 365.8468108571003,123.09492770983496 374.9539344100222,118.68217684743408 381.12237321084046,113.4487212362597 382.86879152325537,106.13125013023716 384.150617611628,100.3116352494487 386.49037017960325,100.28212142156664Z" name="Duarte" name_en="Duarte Province" gn_name="Provincia Duarte" admin="Dominican Republic" adm0_a3="DOM" iso_3166_2="DO-06" iso_a2="DO" postal="DU" type="Provincia" type_en="Province" wikidataid="Q1262745"/><path d="M316.75118755917373,96.05552887666332 315.8331985786135,100.67760185801299 312.5978467961539,104.30755558633538 309.6423698169144,109.19414384308082 308.39972611137244,114.90023934486221 309.01545052262577,120.08629159407886 308.9594755230168,125.12414299354336 305.62336881917577,127.67819966773303 302.4104071924127,130.07873294439574 290.98032349347994,133.7883397069052 280.0987943231726,139.51420051691784 274.73639469851236,141.0118586422945 273.1914862288369,145.657749406762 278.43074116608324,149.6605286669984 285.0525769182462,151.4937625597624 288.46704838775224,157.47029917545186 286.90534749612505,165.23128289025686 287.5434620630949,171.7947332168446 281.856407713433,170.68715880582906 277.1936948046238,170.94638132609052 274.5572748166393,177.07882205676998 263.1999589289313,185.6660722798709 249.7155948093549,192.16703386737677 242.58998445033174,195.25223849385674 236.27601080638124,198.3666230334908 237.87129673673658,203.21135879391198 236.91972271744453,208.2732303205048 231.30543578935416,206.50165326552798 225.6855513223347,204.7299922555088 220.39591931406173,205.9071849807151 215.42534410220983,208.34385618647934 205.6521188721687,205.30682122950714 196.0020387192056,199.12604590068347 191.88228280009815,195.42886458191342 191.22177827224567,189.7764138102415 189.36900788918257,186.39630921663831 185.75862372621845,184.53535416650573 176.9033876715515,180.19472714933866 168.7590334105957,175.40001244475954 169.90651973369435,168.23623824545527 169.6042549695844,161.29501156353945 166.02185850122967,157.9123123611039 165.2494043638107,153.114713653448 165.85953123614942,146.08221795080988 166.58160810771517,139.17810351521132 169.62104758636272,135.02675769277485 173.572878701468,131.75370486071617 176.24288333852385,128.65730586868182 179.57899004236492,126.44543250063491 183.6539660397198,126.87012221029345 187.74573445903178,126.65187944915749 195.58222661176248,122.92385508598345 203.88331059887304,120.12168861914822 202.02494248206503,117.86800179966713 199.16462288527606,115.84428518553106 199.6292149144826,111.318543943782 202.48393716716726,107.42371615928447 208.50684112485516,110.76385128063039 214.80961969095648,113.4192182109802 217.98339912969917,114.13908450578892 221.11239845187174,113.72604818395897 223.16108152839837,110.76385128063039 225.09221687195125,108.33254638405464 234.0314154260335,112.16826942983535 243.55835089157367,112.10926129269298 244.42036506733888,108.06107988664027 239.47777774494836,104.34296786517463 240.98350363695567,97.76747583649166 241.18501347969504,91.48600759445358 237.96645411918894,89.50216131538235 234.83185725808724,87.99058676801354 233.09663382870582,83.8806768256803 232.7104067599909,79.28600383229227 238.0895990014385,83.08344228810384 243.63671585206345,82.35705778818543 246.78810532993984,75.38775389611772 248.204271378433,67.73179158949719 254.95484955177645,69.30919370985474 260.9609610875,71.03421410407365 265.84197626101474,75.18692369110076 270.6614188959805,79.46318683703123 280.34508428250024,79.02022729535202 281.1287333029508,65.59303203371817 292.6931565723291,70.70930222402446 297.1935422160598,81.59522424446872 303.55789332070106,91.87567923102021 316.75118755917373,96.05552887666332Z" name="Santiago" name_en="Santiago Province" gn_name="Provincia de Santiago" admin="Dominican Republic" adm0_a3="DOM" iso_3166_2="DO-25" iso_a2="DO" postal="ST" type="Provincia" type_en="Province" wikidataid="Q1772983"/><path d="M137.15557995729202,352.2288105622208 128.76493573700859,350.10039250224975 120.92844377909006,345.2978287433059 112.62176205822192,341.55622280663044 90.38851453912123,332.87523643884873 84.30963558182616,313.0482533792524 86.7389481881386,308.28801646129443 88.20549150248678,303.16320254084735 87.85844701143822,300.2746885607262 88.8995808742408,297.7617382169686 95.83487646838645,295.55396339720755 102.87092698389003,293.6279274061872 113.06956147065195,297.3800841431066 123.7831658369481,299.52904049121344 133.51161114522762,304.4430027422013 144.05729070752346,305.2531294730199 148.7256009604297,302.26496852024815 153.72416347726488,300.5741177846187 159.7078848572828,301.23167967650204 165.6468265103748,300.19836307682 175.9406185744157,297.1276032118025 183.8218906489098,301.5487143051566 194.11008556365852,311.91547627428184 207.63363187123895,316.58723219487644 214.46257519989703,317.8255041911283 220.22239677629298,321.66917415018725 220.14962935473412,325.69434567796054 215.5708789453402,327.41928978182244 211.31118572202067,322.00364345685244 208.41728108650352,327.9062498171074 205.03079692198622,333.48531562061976 199.43889995476215,337.57376991802874 192.7946742417202,339.99027057439093 189.30743515581963,342.8230140814616 186.84453770560566,346.57036106343014 183.34050639257822,348.96870656601016 179.71333000247458,351.2437721652583 175.9182286135349,357.2063878550399 175.2745167024571,364.56311807253667 167.48280466631286,365.102361253991 161.4487058256042,360.1375236923943 155.82322381965741,349.6313040665974 145.45666413922922,348.9862979324957 137.15557995729202,352.2288105622208Z" name="Bahoruco" name_en="Baoruco Province" gn_name="Provincia de Baoruco" admin="Dominican Republic" adm0_a3="DOM" iso_3166_2="DO-03" iso_a2="DO" postal="BR" type="Provincia" type_en="Province" wikidataid="Q807079"/><path d="M130.8472038522616,190.22393063035875 139.09791057351893,189.75874841667655 145.90446374648408,184.55891132798232 146.34106827587888,177.5088206600635 147.84679416788435,170.63413578508997 157.2225974461862,175.28219848380726 168.7590334105957,175.40001244475954 176.9033876715515,180.19472714933866 185.75862372621845,184.53535416650573 189.36900788918257,186.39630921663831 191.22177827224567,189.7764138102415 191.88228280009815,195.42886458191342 196.0020387192056,199.12604590068347 205.6521188721687,205.30682122950714 215.42534410220983,208.34385618647934 220.39591931406173,205.9071849807151 225.6855513223347,204.7299922555088 231.30543578935416,206.50165326552798 236.91972271744453,208.2732303205048 240.50211899097263,211.91617657680578 242.33809714690165,216.80623052932398 240.52450895185345,221.68387971582203 235.9905386590478,223.91950198447003 235.1229267495268,228.33152379115168 232.07229258268154,231.24317429162934 226.7546726849472,234.95446628397033 224.12385043072203,240.65890857025397 222.67969688241533,251.93587253966606 222.5677470780222,263.6502361779685 220.8773035703915,267.51700199577044 217.91622924705857,270.35512172531054 214.76483976919306,269.06242271070226 212.94005669111505,265.1311718181092 205.89281129257805,267.3348379732166 207.2641974192987,275.89560038099694 207.00671257695217,278.78008951300086 204.74532477464007,281.8582030778581 206.18388097884247,284.34283395069485 206.6764605078444,287.2677947264503 202.58469208853603,289.19415203413706 199.04147800302647,290.5390204305988 193.33763123141472,299.00062009600845 183.8218906489098,301.5487143051566 175.9406185744157,297.1276032118025 165.6468265103748,300.19836307682 159.7078848572828,301.23167967650204 153.72416347726488,300.5741177846187 148.7256009604297,302.26496852024815 144.05729070752346,305.2531294730199 133.51161114522762,304.4430027422013 123.7831658369481,299.52904049121344 113.06956147065195,297.3800841431066 102.87092698389003,293.6279274061872 105.95514638429736,286.39855283843184 103.45306635641339,279.93734842243896 97.59808720275299,278.56273229268226 93.57908620500346,274.2858310425558 93.59028108803871,268.6981088494292 92.03417773534248,263.4739302730904 87.63454701298234,259.6420164064361 82.74233695645773,256.4680512883831 85.33957456160438,245.3864716351606 81.58365575032201,240.62950621118577 83.40284148429753,228.33152379115168 88.7764359919912,216.96510247659006 93.55669624412448,212.64001546871285 99.68035492835453,212.02210511381372 106.38615317994908,210.06237905294802 109.77823488339912,202.8522930325667 112.31949729411377,193.1385476964666 116.70233559450955,184.92404234886905 124.05184556233169,186.09597137591462 130.8472038522616,190.22393063035875Z" name="San Juan" name_en="San Juan Province" gn_name="Provincia de San Juan" admin="Dominican Republic" adm0_a3="DOM" iso_3166_2="DO-22" iso_a2="DO" postal="JU" type="Provincia" type_en="Province" wikidataid="Q2001793"/><path d="M350.4145189720338,197.7013791894861 352.88861150010786,203.08774621245843 354.853332077212,208.3791691718815 355.87207597914824,214.53487709064362 361.3576204860563,217.1769306918238 363.3391334851265,219.70700799084494 364.0052353570724,223.0546850279974 367.4085119435541,227.54916300215362 371.9480799701028,230.8608490413532 381.26231070986836,237.48922729038134 386.9101824818712,247.2385269898906 382.4545769547287,252.18865424587915 380.9880334455557,259.3069991280388 373.57695074435975,262.86273076770095 370.5095237659131,269.33859386458016 367.5820342864836,277.9987730832461 359.5776173297399,277.85778202379583 354.03050028427924,273.9920700465012 348.253886091105,271.6654034178638 343.014631543521,273.53379852402446 337.6018544581736,274.1154500685611 328.8865555128831,267.72267018583227 319.7906272326479,262.4395867422379 307.0731199064007,247.5854098860738 309.03224274976355,231.8313590923385 321.99044249640923,221.22497217333395 322.18075726130303,205.6658634052458 326.6867402491254,197.2716137600337 337.00852000778656,194.4750736036224 339.3426750368345,190.23570720830662 343.6079657990705,188.7223721937134 348.79684308080135,191.79019737205445 350.4145189720338,197.7013791894861Z" name="Monseñor Nouel" name_en="Monseñor Nouel Province" gn_name="Provincia de Monsenor Nouel" admin="Dominican Republic" adm0_a3="DOM" iso_3166_2="DO-28" iso_a2="DO" postal="MN" type="Provincia" type_en="Province" wikidataid="Q1295496"/><path d="M386.9101824818712,247.2385269898906 381.26231070986836,237.48922729038134 371.9480799701028,230.8608490413532 367.4085119435541,227.54916300215362 364.0052353570724,223.0546850279974 363.3391334851265,219.70700799084494 361.3576204860563,217.1769306918238 355.87207597914824,214.53487709064362 354.853332077212,208.3791691718815 352.88861150010786,203.08774621245843 350.4145189720338,197.7013791894861 356.52138523431404,190.64200065931345 365.13592925822127,186.567088528821 370.4423538832725,183.8168595202542 375.256199174134,182.03234063801318 374.84198460562,181.4257026858774 374.4333673812085,180.81316495393253 374.33820999875434,179.84721938699735 373.6609132437786,180.03569858699825 377.68551158563065,178.716324727594 381.878034926306,179.86488948713207 386.42320049178744,180.6953679529852 390.8844033630216,179.90022925219293 400.4729111722732,179.7353095827166 409.9606644498039,180.83672426832814 416.1067130949184,181.3020182320428 421.7433901787144,183.85808472430995 426.6244051573916,186.12541659045672 431.74051501756173,187.7154108785439 438.4071308863129,187.79196444244567 445.4039988241574,188.27483712507842 450.7719959877468,189.94128897819945 455.38433143586883,192.8794796404937 454.6510594864539,198.9494373153108 452.66394914329203,205.23618962620318 449.41740228297596,219.8776348847268 445.6838734325726,234.67216236969836 439.6161897479497,239.35931262003055 432.56894434941273,235.90722707285263 428.2364835097095,235.11326145836608 425.5776737556599,239.10056419103108 421.72100002300874,238.48308939755606 417.18143219128484,237.57744083613278 411.4719878807403,238.97707004238913 407.3242444618248,242.65231903601574 398.1443534873314,244.8631761580514 386.9101824818712,247.2385269898906Z" name="Sánchez Ramírez" name_en="Sánchez Ramírez Province" gn_name="Provincia Sanchez Ramirez" admin="Dominican Republic" adm0_a3="DOM" iso_3166_2="DO-24" iso_a2="DO" postal="SZ" type="Provincia" type_en="Province" wikidataid="Q1836903"/><path d="M319.7906272326479,262.4395867422379 328.8865555128831,267.72267018583227 337.6018544581736,274.1154500685611 343.014631543521,273.53379852402446 348.253886091105,271.6654034178638 354.03050028427924,273.9920700465012 359.5776173297399,277.85778202379583 355.5194339491579,287.0974719352621 354.7749671167258,296.91035092124577 355.7041511751352,304.93025486303594 353.34200845145256,312.95434553821406 354.90930688199614,320.31953246902793 358.1614512812431,327.0672666893376 353.50433591136306,332.095024985826 348.06916886514216,335.8434157020873 337.4731120369931,338.9462671266702 331.6181328833182,347.5789745056369 326.8490675142057,338.15444787002417 322.3486820653142,330.43482272321666 315.35741166638803,326.86778551854434 308.1478388079423,322.1620752041495 303.1212887912954,320.38408153570896 299.3597726359196,316.7750296308595 297.7197067838027,313.4004053744454 294.5179400400731,311.44592168905535 289.9839695524426,299.9459005850991 283.7595557520026,287.70240822689095 293.5719633648889,287.461609382378 303.1548736352078,287.5849454864207 306.47418811192205,283.8964347719977 311.0417434434595,279.70237481766185 316.68401767653313,272.5349823927002 319.7906272326479,262.4395867422379Z" name="San José de Ocoa" name_en="San José de Ocoa Province" gn_name="Provincia de San Jose de Ocoa" admin="Dominican Republic" adm0_a3="DOM" iso_3166_2="DO-31" iso_a2="DO" postal="JO" type="Provincia" type_en="Province" wikidataid="Q1424391"/><path d="M380.9880334455557,259.3069991280388 382.4545769547287,252.18865424587915 386.9101824818712,247.2385269898906 398.1443534873314,244.8631761580514 407.3242444618248,242.65231903601574 411.4719878807403,238.97707004238913 417.18143219128484,237.57744083613278 421.72100002300874,238.48308939755606 425.5776737556599,239.10056419103108 428.2364835097095,235.11326145836608 432.56894434941273,235.90722707285263 439.6161897479497,239.35931262003055 445.6838734325726,234.67216236969836 449.41740228297596,219.8776348847268 452.66394914329203,205.23618962620318 458.490940797157,205.4421982497259 461.7710723065624,201.11577860791408 462.05094710980427,197.58952282340204 462.49874671704646,195.04617363298638 474.1079501030238,193.67434133774807 488.30879336039754,194.22190280172106 494.4716346222849,198.94355030025645 500.6960484227122,203.57630718485282 507.5585765952863,207.46690823108338 513.8613553562143,212.1515728958684 523.8640777339799,221.07200201781743 536.2009553356147,227.3020984225304 547.0768869669929,232.67832906412883 557.6729439899703,238.47720838313842 565.5262285646545,239.50044747046437 569.5284369456257,243.51668565693907 565.4030836824013,246.36248693705775 560.9530754993631,249.1081288848714 556.43589762852,253.81112004688666 552.5792240906937,259.1130406155332 539.7553644989698,272.5643597431145 527.4016942805567,294.20927155550635 519.6491644324201,291.24960857840273 512.2884593867398,292.8292988486594 508.2078860452787,295.471756499065 503.48360059792964,296.4758424240499 490.89483588768593,301.1377430150474 480.9033081981289,311.56331082430125 479.16808496357595,305.14159125003926 474.6173220539793,300.7502515373003 473.39706830931993,296.2409706623353 470.3968112135031,292.2831678308745 465.4822113909098,286.739203913724 459.6104396204602,282.1342811690402 454.5894871427424,281.87582487822414 449.56293712610636,281.66435966799975 446.82016487265236,281.79358844512086 444.26770757890245,282.65706181505914 443.2713534430403,284.68350383890845 442.69481160943155,286.7744435977503 433.5037257519265,291.0264501340134 423.2603109537551,289.0238376558898 416.1570905555946,287.10334499255276 409.25538019502915,284.55428447246015 405.28675646314554,277.42893054113296 399.18548773979626,275.23760077553806 393.95742788040815,271.36574664346574 388.34314095231963,268.2280207924049 384.5704297190729,263.8559249536648 380.9880334455557,259.3069991280388Z" name="Monte Plata" name_en="Monte Plata Province" gn_name="Provincia de Monte Plata" admin="Dominican Republic" adm0_a3="DOM" iso_3166_2="DO-29" iso_a2="DO" postal="MP" type="Provincia" type_en="Province" wikidataid="Q1772745"/></svg>