<?xml version="1.0"?><svg fill="#3498db" stroke="#ecf0f1" stroke-width="1" width="800" height="696" viewBox="0 0 800 696" xmlns="http://www.w3.org/2000/svg"><path d="M799.2615296658769,652.0482336720696 773.3127039937813,663.177086208629 772.0910214109648,663.2964527100959 770.6101940668049,662.1216147036381 769.5489345338328,661.9896780936094 767.5498176669691,663.742502631549 764.7732663966457,670.319415588435 759.5656903238896,675.2307706219501 759.9852581350914,678.8478433604295 761.0958786432086,682.6591289619341 760.4048258268826,685.9300577280192 758.9116583583266,686.7273337144351 755.3453325601762,687.3990387963466 754.3334338829586,688.4913132208233 752.7045238521316,690.8326694183398 748.9349428415981,691.8869474691419 748.3731040137329,692.0440797856838 746.7935548386604,694.3286849390769 728.0857697329609,677.7803483548664 722.6067087744713,675.3375305083198 719.3612288372125,674.4834407458173 717.2633900200387,674.853967923702 711.1179567327887,681.4661903426232 705.4167716249083,675.4442901481807 695.6803320519414,662.2535506252249 687.893648370673,648.9911466948428 682.2048035065784,644.0913020442764 675.5657610648066,640.3695320654843 668.753955448809,637.5653288854237 659.4370835676193,631.5788046195033 653.1929282106745,622.8389828518488 643.9130771802556,602.7676617623417 640.1122871083254,596.459335401832 636.0523521556672,591.1289437269875 631.4000863369592,586.3014759918184 622.2929983613874,578.8146495945522 609.780007518091,568.5183033587581 589.0484251773609,555.2833202485017 572.9444280483485,544.9911901624712 569.3410816382375,541.4208733910987 560.9003658720084,526.4850280973769 551.6205148415966,510.0761576683134 538.9841216798351,495.7207741073242 526.4958113241241,481.52865690525664 519.2274172849571,476.34107177055637 511.11988774281116,473.29950915203966 500.3345288806449,471.759628899689 496.96564662490107,470.67185855419706 484.3045730949666,464.58713584798653 477.35702491669025,460.9938558639903 469.24284433015146,453.46527383951354 470.5206353285568,451.179604360538 479.1156038441354,436.8851637234347 485.11912455960146,423.7140017233798 495.75640077997707,408.5713207901666 497.58892455694223,404.0005176883779 498.107214159923,399.43526402433145 497.8110487031833,394.3998855961094 495.4602352158667,382.5908580475796 495.2196007956871,378.7453490304665 495.3490662846274,377.9261094195229 495.51702942680794,377.89267161187894 496.18748269363266,377.5328732429585 497.2660380060654,377.41293926586013 499.4522988196854,377.71277311067786 500.6085878891989,378.23747387300295 501.11385707146826,379.3917783000518 501.5511091864332,384.20332782516834 501.95921123203925,385.1975042376807 505.4086449416205,386.63124979869906 504.86450888081015,384.5680301363585 505.86533055555765,383.89857275634415 509.1204298724214,384.1134004417114 509.9366339636334,384.67793937275707 510.28643563172625,385.7620196176061 509.7228661913473,386.4364248892071 507.8572569764602,385.79199359567565 507.11878664233,386.63124979869906 512.832214922627,392.5802047445948 512.8905151807426,392.29552482060626 513.2986172263485,392.08076417835167 513.8621866667265,392.30051921894693 514.4646229856523,393.33933598175616 514.6200903804253,394.2582551651614 514.4646229856523,397.59905406849816 513.4735181200938,400.3852254768057 513.4443679313372,401.75823024147206 514.4646229856523,403.395756885052 517.515671339413,405.5673200243802 518.5164930141605,406.97000488041783 518.5262097039438,409.3359309943096 519.789382599905,408.5373298716438 520.9359549796411,408.0182261411726 522.1602609970615,407.9283802187049 523.5011676501106,408.41254620748 523.5011676501106,406.05152926126897 526.2412810949206,407.2595177541838 532.615445952253,406.97499649586234 536.1328966097401,408.866755681674 539.8058147813988,411.5419416265453 543.1483646645393,412.48517974152753 551.2132378430055,412.7546702164251 565.0498394404867,415.923472670485 566.410179592509,416.4923200155455 567.8482532628169,418.3534633646228 569.7721628552172,422.8486107786816 571.336553850939,424.93378248245114 576.64188008563,428.66473590055716 580.1981976216521,431.1284758339417 583.0451950123133,434.6391632563743 584.9205210363895,438.85237909646156 585.6104076827828,443.3739960215902 586.5237789106582,445.28810145520083 588.4865552622017,446.4943168952662 590.46876499332,447.4014351908857 591.3821362211893,448.4381045671464 591.9068387830254,449.35512505984116 594.1319664751943,452.0661344555542 595.6963575903137,456.9791478213509 598.1838365037014,459.9683763329934 603.6834970116983,464.7753636559832 606.8122791225526,468.3763133378797 607.8422508666531,470.11934116440875 608.6584548384675,472.3004597478027 609.5718260663349,476.28378994231224 610.1062454373618,477.73756157403096 611.0973503029214,479.05684242585954 612.7297583659467,480.3113451873848 616.6941779475818,482.72560444671444 618.7638381255721,484.48763128325567 620.5517135833704,486.7074257618227 624.8853683320634,494.9181217552876 626.1485412280317,499.9727113345059 627.1882297813202,501.7933325774804 634.7769838468829,504.081376428096 636.370525150767,504.1808523271584 640.2183440967713,502.70359858693683 641.705001454809,502.50960996858106 642.6475227520364,503.08659780607957 644.9698175808617,507.1052856522768 646.8937270538573,509.1193858603085 647.7779480929762,509.62661776829594 649.4880899130902,510.0194675687986 650.7998463773828,509.9896311427823 653.4525094947253,509.3033827343316 654.3853141021683,509.1840335418874 656.4452575903683,509.9995766216522 660.6525950136473,512.7593176609978 662.1975526298016,513.355982637176 663.5384592828576,514.31559227572 664.1408956017765,516.5528967336221 664.4906973892669,519.0833220112961 665.0542668296519,520.9374970878376 669.9806410880819,524.7647649243859 670.7482616109696,526.3651049438154 671.2729641728067,526.3849843225139 674.0130777370213,530.1170997865121 674.8292817088357,531.7867018633783 675.1013497392373,531.9506752819943 676.1701883618847,532.4276836280602 676.4616897718611,532.6164972206426 676.9863923336991,534.0226219919359 677.7054292882536,536.7203980743651 678.5410667590343,538.0418671683829 679.7750894662389,538.3796764660708 681.242313444708,537.7934754386954 682.4666194621274,537.1079028661733 682.981605334181,537.207262212518 683.3994240695714,537.9723176293597 685.4593675577784,539.4030154369084 686.2464214602338,540.1183373875641 686.7225404537386,541.250893784477 687.4027105297463,544.0721544213615 687.8788295232591,545.1151555711707 690.6480931568267,547.1960774947298 691.1436456493108,547.3152664655539 691.600331263242,548.9888266981951 692.5428525604764,548.978894903859 693.3007562741682,548.2389647087165 693.2133058272962,547.767187098647 692.5914361288015,547.3103002785132 690.8812943086865,545.09528928945 690.4731923824851,544.3651919020931 690.2399912306244,544.1516225553678 689.8610393737758,543.9479851566255 689.5403877750421,543.5158716575103 689.5112375862855,542.6218229163798 689.8901894431349,542.5771197380388 691.5517476949168,542.6665260246976 691.9598497405237,542.6218229163798 692.0473000679913,539.3831451771767 690.4440421937285,538.0021246129064 688.4035320850892,536.9191191274533 685.8383194146198,536.7899505520616 684.9055148071777,536.452122376572 685.1970163365577,535.751612989435 686.3047217183423,535.1554210547955 687.8788295232591,535.120642776278 691.9598497405237,538.4492248875778 696.3615214371227,544.3353916921216 698.0910966368054,545.1151555711707 700.2482072616689,546.456101085843 701.0061109753677,549.4655499970283 700.9963942855765,554.4359115655354 702.3373009386324,558.4721457994287 703.3964228714894,560.3187950099098 704.6693124572411,561.103088658188 705.8353182165449,562.4532153043118 706.7098225658734,565.5503260379825 708.5657150909692,579.6518935275651 710.2661401019024,582.5586861637802 710.9074432993681,588.4805061266444 710.8005593535228,589.0359253720521 711.1114942624723,589.3830569999712 714.784412434131,591.5847679389359 717.3107582260525,592.3384689360878 722.7424017861565,592.8095222465761 725.0258296170354,592.3979709131127 726.4056031486252,591.2922077645045 727.2315239296286,589.7004309681448 727.979710953536,587.8159728952763 729.5635354482372,588.1730374572196 730.0202210621684,588.9417032093521 730.0590878213117,589.9830892407663 730.4963400556812,591.1434472427311 731.2056602010479,591.7434435162614 732.0121474830709,592.1847552020488 732.663167370328,592.834314374765 732.9352354007297,594.093723972519 733.877756697958,595.6803051746051 739.8924030780147,600.7518338750112 744.0705904319348,607.6958885795606 745.6058313583046,608.6920113994818 747.9864264452455,609.0339562786221 749.9394861070048,609.9259679603466 751.5718941700301,611.1450072994882 752.9419508924391,612.4680542785234 753.8844721896664,614.3459864877983 755.0310445693956,621.1630261330799 756.9938209209462,625.606146618793 757.4602232246676,627.8893671958789 757.7711581336102,631.3361568555645 758.2181269383655,633.2871818686028 759.092631287693,634.5349793552901 760.7833396088349,634.9608032102327 762.3380139147735,634.4854645692559 763.9024050298989,633.6288458218633 765.6028300408251,632.9455140438178 767.2158047242758,636.2431899211616 769.5575329326688,638.248357435711 772.8223490587205,639.2434651173539 777.1074202390953,639.5157526261455 776.5438507987104,640.1345786879629 775.475012176069,642.0058318655053 776.6118678660148,642.09493616776 777.53495566427,641.8276222320395 778.720394922546,641.174178026294 778.594077597133,641.0306164358789 780.8192052892939,639.5751604467753 781.188440456359,639.5157526261455 782.5876473675246,637.931500280803 783.6953527493083,636.1986291264906 784.0062876582579,635.0845881342223 783.9577040899326,634.2675985941087 784.1909052417933,633.5941845242384 785.3277608123346,632.9455140438178 784.5990072874004,631.7323142485702 784.4338230834394,630.5537306686663 784.7156078036244,629.4939562783688 785.3277608123346,628.6421479879583 788.7286109535906,631.2519727017257 790.361019016617,632.8613343864744 791.0411890926316,634.1190526758675 791.5658916544687,635.3866210579056 792.8096311708553,636.4214324425245 794.3060052186833,637.3472863073745 795.5303112361026,638.3077677446786 796.3465153273156,639.9019015588647 796.5019827220876,643.5799711980566 796.8129176310372,645.4064644727224 800,651.1475719009997 799.2615296658769,652.0482336720696Z" name="Debubawi Keyih Bahri" name_en="Southern Red Sea Region" gn_name="Southern Red Sea Region" admin="Eritrea" adm0_a3="ERI" iso_3166_2="ER-DK" iso_a2="ER" postal="DK" type="Zoba" type_en="Region" wikidataid="Q27928"/><path d="M213.25147350535983,60.13153157343858 216.07738551203312,59.707086376683435 218.08884262268256,57.70050920066093 218.39734835918603,55.23705986485835 218.2492655531224,52.59964483857833 218.85393678233558,50.14206467815971 220.91475486815108,48.244008953137126 226.83806400601048,45.36766269801202 229.25674868406995,43.49494137042901 232.55158947708216,38.152632084483145 239.74594217291613,19.064225227403394 243.05312320971512,14.231531181275612 260.0421663054566,0 260.294800836885,1.3048959120485564 261.4122230278576,2.6655599898837825 262.28672737719313,6.518621000615569 267.36856914979967,13.705120951129803 267.76695450562136,14.953382110370114 267.91270521061,17.510572663842957 268.18477312161303,18.814421990335912 270.34188386587505,21.87841619420815 270.71111903294013,22.598697087344952 271.29412185289374,24.71882325045319 282.5072106411807,41.880271042435844 290.8538685398459,61.256458680329935 299.142226060992,75.70292467261342 302.03780701997863,86.25602790149586 303.3981470526033,88.73422849941102 301.96007338229543,93.55835407764248 304.1754842652744,97.30468598395319 307.44030039132707,100.70668901988188 309.10185864311,104.50743302783123 309.7140116518192,109.3079978413618 310.7342667061353,113.48114154577738 314.29058424216333,120.79998626417967 314.8152868039944,123.19363507464364 315.21367215981707,128.22756333369935 315.8355418583175,130.75168627350104 317.70115107320464,134.35565456179498 318.36188765023905,139.39723704187918 318.9546072793806,141.44080860071503 322.889876672252,150.47577615948316 325.48423953148495,160.13239752608973 323.8518314684586,159.28539700385258 326.23242655539246,164.8155541517111 326.88344644265055,167.53730262655142 327.1166475945103,171.13053449845899 324.9109534013157,173.45853407696382 326.83486287431833,179.1012128256757 326.30044362269695,182.27462560060457 325.48423953148495,181.42842390327982 325.6299902364736,183.35248131961507 326.7959959957784,183.88635425605545 328.1077524600639,183.92160962496033 328.74905565753767,184.34466945125482 328.57415476378543,188.65038423646172 328.74905565753767,189.79844252267495 329.1863077724956,190.93134025113105 329.7110104537373,191.88293233483753 330.1774127574588,192.96035045566651 330.37174703077164,194.4908039919934 330.2065628268108,199.38356619910988 330.37174703077164,200.93373770214322 330.78956576616895,202.07616945168925 331.86812107860067,204.04384211057865 332.07217204169785,205.57861468476935 331.89727126735824,207.09316223056513 331.1685176230184,210.1521547530445 331.18795100258603,211.91291053165511 334.84143579467604,228.04547549748125 335.33698816774955,233.50436319812982 335.7450902133625,235.37397498951242 338.5337873459024,241.51453359680033 342.7314080793971,257.58721312888395 345.04398609903353,261.8848622533708 352.17605467006376,266.2620670071766 353.283760171252,268.17433931108945 354.2262814684794,268.9924051874712 358.59880309572736,270.9596670367352 359.7939590437877,271.99843838601043 359.85225930190427,273.59414667271534 359.26925636254606,274.9338597886962 358.5307861478205,276.16813774827665 358.1615509807624,277.47259219221655 358.5405028376108,278.9224626793405 360.23121115875267,280.75850886767745 360.6101630156021,281.7166100555013 360.78506390934734,284.9969481112961 361.4458004863827,286.97296695038983 364.67174973389353,290.5935882112463 362.6118062456865,290.7791183312457 361.1931659549533,291.987537295998 360.69761346247424,293.7825077987955 361.4263671068141,295.7127089037987 361.9316361696789,294.65989044307224 363.01990829129255,293.4014634061144 364.32194806580065,292.86999703849887 365.50738720468013,293.95297319228837 365.25475267324475,296.284220319645 362.9421745342107,297.39712598954145 360.26036134751024,297.7329931848485 358.9777549525768,297.743018976075 359.24982298297743,298.9059863997727 361.4263671068141,302.3644921935369 361.97050304821977,306.5140684527156 362.24257107862843,307.4110482751883 363.93327939976336,308.0474335334668 366.70254315274053,308.2829421201296 369.32605608132644,307.9672599798227 370.4629116518677,306.990123122785 371.3665661899578,305.54188630835597 373.49452662605864,305.23118105919986 375.91398859153935,305.71227151007554 377.7212975483179,306.5742021559791 380.6071618175202,310.442502858805 386.84529265964727,330.6061731443646 387.3408450327218,331.05674221991546 389.5854061044573,331.90278935460174 390.0906752867267,332.3232992245634 390.3627433171284,334.4808064159905 391.072063462495,336.5280164708678 392.1117520157834,338.2697672532385 393.37492491175163,339.49592853083965 391.5967661437376,346.20123792291844 390.98461301562287,356.74603872258666 391.2469643562472,357.24615889760094 392.3643865472198,358.0463310924474 392.63645457762146,358.5014178544773 393.05427331301877,360.3766908199914 394.191128883566,361.3467786011171 395.7458031895036,361.4117831290143 397.43651163004307,360.5567098793304 398.6219507689215,362.85184240762857 399.99200761072814,363.2068446293057 401.86733351539857,362.6468389066704 404.4811297542002,362.2368268978087 405.30705041579887,361.616796440445 405.9677871122379,360.18166879504355 406.2592885222152,358.6364420908808 406.0843876284699,357.61624164552177 405.4819513095441,356.4759697133864 405.9386369234813,355.6807502625221 407.3864274029721,354.6854408406658 409.6601386634642,350.61377382871905 409.9127731948996,348.2224937937492 407.5224614181754,344.0597333601359 406.2301383334516,339.1255839745781 405.2487501576823,337.36387147127516 403.6649256629812,337.3388463333547 402.7029709861862,339.2356869254565 401.9062003939405,340.2866460755733 400.8567951508677,337.74425152557507 400.56529374089143,335.3517667241684 400.8567951508677,328.9940713984499 400.70132775609477,327.62220238992654 400.0988914371689,325.28885299244735 399.96285742197153,323.9167832003146 400.2349254523732,322.41443175798935 400.8956620294146,321.9236442932503 401.69243262165435,321.6832551068012 402.39203607723664,320.93703238107673 403.18880666947535,316.7297268486974 403.9855772617221,315.50246377308883 405.67628558285696,316.7347359502164 406.49248967407596,316.7347359502164 406.609090190301,315.7529305651683 407.3864274029721,313.3784060918161 408.105464238129,313.3784060918161 408.15404792585787,313.7691659917961 408.105464238129,314.9814851738043 409.4269375116034,313.93949539482173 411.01076200630456,311.30427110418003 412.1184675074928,309.93645082623885 413.87719277653457,313.1229059819125 416.26750455325873,315.68280007498504 427.6263440465413,325.0885554979446 429.3753527451963,325.97986721101563 432.1251828797966,326.5807339175662 433.0774209862129,326.9212186804792 434.27257693427435,327.6622579108818 435.662067036251,328.81383003032545 436.55600476515315,330.04545369547907 436.94467343118447,331.33709232581595 436.721188969115,332.69874869077535 435.85640130957086,334.1604457751074 433.7187241836807,335.86732118059126 432.64988556103333,336.9784806374119 431.99886567378127,338.14965039120636 430.19155671701066,342.77874762420237 431.5227466802694,342.65865186154144 432.5332849254036,342.95388622005686 433.22317169120157,343.71947780699355 433.45637284306235,344.99040922429873 433.16487143308603,345.3556652957038 431.9405654156657,345.82098382375494 431.7559478321302,346.2112445075551 431.9697154850257,346.74158924815663 432.5332849254036,347.23189829902276 432.64988556103333,347.5470918854785 433.28147194931114,348.56769231867 436.0798857716403,350.65379337472984 436.721188969115,351.71428804782806 437.0612739474156,353.2799383674755 438.6159483727577,356.4659671303751 439.1698011233524,358.0463310924474 439.1017840560479,359.4165681043531 438.7714157675307,361.0217532587956 438.65481513190105,362.616838206839 439.1698011233524,363.9918324030986 440.6564583619855,363.4518433370251 442.2888664250118,363.79683769459325 443.60062300870885,364.7267992213435 444.12532557054595,365.9716954068149 444.3585267224067,366.9965649090234 444.88322928424475,367.2265300848941 445.4370820348384,367.35151033632593 445.7674503233566,368.1063778410908 445.6994333754557,369.22614096891476 445.0289799892324,371.06564658939493 444.8735125944534,371.9253707949947 446.0492350435486,374.1145398852041 448.8184986771152,375.51391196963516 457.6509923784762,378.65722676917767 459.5651851616875,379.6016462904722 460.43968951101505,380.3061909429478 461.25589348282944,382.5596064890547 463.04376894062773,382.1399163242721 465.7644491252737,379.85148696080296 468.46569581094843,378.80213991718455 470.3507384054032,376.3435041058066 471.87626264198775,373.56476586577935 473.5572542733393,371.53549941589307 473.4017867591688,373.48479785756786 473.829322303748,375.179069072547 474.9370276855317,376.0936297570649 476.8900873472909,375.7338063775946 477.5216738549733,374.65430659561054 477.24960582457163,373.2548882009375 477.4828069764334,372.0553266602337 479.6302009115125,371.53549941589307 480.912807306446,371.4605234221618 481.27232566432315,371.3855473345231 482.51606518071577,372.3002416334756 482.3217309073959,372.72009054791374 482.06909625656186,373.5847579214716 482.3120142176116,374.42940511147737 483.7695213868927,374.8192330313831 484.63430892703127,375.179069072547 484.99382740431304,375.90372362136395 485.4602297080336,376.53340702952937 486.5970852785748,376.5733864351007 487.3841391810302,376.1985772637406 488.0837426366125,375.5538929429444 488.66674557596974,374.80423979579695 489.12343118990094,374.0545650183472 488.52099487098207,373.0649613126912 488.25864353036474,372.08531629779446 488.2294933416002,369.78600425798686 488.8999467278315,370.395841701841 489.47323285799376,371.7254374990217 489.9396351617153,372.3002416334756 493.1850179081993,373.13993254767564 493.47651931817563,374.1845102243958 493.3793521815122,375.2540342053987 493.38906887130355,376.3435041058066 494.0012218800137,377.41293926586013 494.9145931078811,378.01260337794236 495.3490662846274,377.9261094195229 495.2196007956871,378.7453490304665 495.4602352158667,382.5908580475796 497.8110487031833,394.3998855961094 498.107214159923,399.43526402433145 497.58892455694223,404.0005176883779 495.75640077997707,408.5713207901666 485.11912455960146,423.7140017233798 479.1156038441354,436.8851637234347 470.5206353285568,451.179604360538 469.24284433015146,453.46527383951354 460.0930465432049,444.9733060412832 455.3914198687564,442.17197873927216 450.2208645273656,440.0636692682027 439.497206645335,437.45179566040457 437.387027703779,437.4771241713961 431.48839893409354,439.2215656506368 429.78544755994756,439.2658875507331 426.9937568559262,438.76624838145926 424.60255197475703,438.3382782421239 422.418331689875,438.89231499878474 418.7409438170393,442.0073719568933 416.4086407260936,442.66579317611576 414.15037909787753,442.27960568357884 412.33636564903924,441.4154121551075 406.0551897995103,435.960539420715 402.7603490065121,433.8802411288909 399.18168296456895,432.6959505441126 395.38089289264576,432.8257817587968 393.93761265721207,433.070683999571 393.91867233381544,433.0380425402453 387.3351609232943,421.68977347128083 352.8318844620559,362.2177761203348 350.3514987350543,356.4606407164738 346.56921905248464,350.3019694215815 341.58993710979365,347.06481889040396 331.2488263461567,341.58709801178844 325.5229607061122,336.5309194703812 318.5383919286353,328.8764139700775 307.6666513436093,312.1447922614244 304.7543576499195,306.5449621027437 302.6811994527806,301.11893381417264 298.62126448002624,286.0407969985886 288.1012204956676,268.3913050241526 286.3365679736777,266.11251683477406 284.8002096534452,265.0033239725199 268.6838723760997,262.9728612122275 263.0320481539234,261.30246434141213 257.4542652422537,258.9688187736189 251.61733752909115,255.00876346405337 249.02588972897254,251.62849840074674 247.73016582891373,247.55880355980003 247.45251064611264,237.5251816634647 247.82271752072057,234.47758437991368 248.61866219911582,232.2530748941299 249.67375167900195,230.3124459707651 250.26608259247334,228.56000069645825 250.59926881183245,226.12743384952753 250.506717012647,223.30509317704147 249.76630337080977,219.6457739443111 248.30398646844554,215.45251781295408 244.8734031717889,209.2523082629071 241.81919680525456,205.63877051413579 239.01796507731711,203.2006815692091 236.33396558539067,200.17748794454533 235.13079348451734,197.03884064147798 233.36614085514782,190.37662981340148 231.88531357147437,187.6715702461642 229.51598991759684,184.2050604289821 228.4609004377107,181.72958449555418 227.70197630717863,179.1770773099472 226.9739028837577,177.3664849685203 225.65966870976627,176.27558380882257 198.46180713432523,171.39630090159264 195.50015235222108,169.92111806699134 192.7914725308397,167.0216814668848 192.0695691629411,164.2115097807255 192.439776037549,160.51424343957626 194.18591817822968,152.4742689616559 194.05634583117305,148.49968389023022 193.40848388114364,145.95315784500252 191.86595539801021,143.7779790668002 189.99641096579626,141.72755008390916 187.3864527843674,138.2990832940101 186.53497706940615,135.76425416813 186.75710121564722,132.81247801786736 187.60857682323086,130.2449906667688 188.9598317598487,124.12481817799285 190.99596940912335,73.17617370639171 190.12598331285287,59.26665572490792 189.93720824098537,58.009186376857656 190.0518456308247,57.93204649580193 192.85307714991046,56.90940494942664 195.5926076888616,56.92226867299716 196.71556844077853,58.16358151032413 196.83897075925663,60.234426034478574 196.66620758502404,62.72304418282585 197.34492003815964,65.41069740726937 199.134253118831,65.39140921753953 201.10868937871655,63.674690451529735 202.35505244911158,61.295498751440846 202.39207306107332,59.99005069693783 202.08356744397443,59.13471580912002 201.93548475731438,58.343662581519105 202.4784547675897,57.230995437431936 203.18184770831084,57.1152233864871 207.3898653476361,55.77093754893931 209.3272809955619,56.98658705500913 211.14129456380482,58.8324466574244 213.25147350535983,60.13153157343858Z" name="Debub" name_en="Debub Region" gn_name="Northern Red Sea Region" admin="Eritrea" adm0_a3="ERI" iso_3166_2="ER-DU" iso_a2="ER" postal="DU" type="Zoba" type_en="Region" wikidataid="Q27728"/><path d="M473.14915222773334,293.04046867631297 474.9078776161797,293.1006348074017 475.52003062488984,293.426532353629 476.4722686119006,298.33453513456607 475.73379827777836,300.5851757804691 474.0430899566365,301.5324896065616 474.0042230780886,301.5124410605053 471.53617754428166,300.2693966115598 470.7005401928926,300.07892466108706 469.5928346917054,299.82830149464695 463.8016727737312,301.2618321397816 461.32391055013386,301.4522950795463 458.7684145694488,300.5901881043393 454.60966071449394,298.5651222522132 451.8792638400707,298.16409968108155 445.96178459667647,299.41226140310437 444.776345457797,299.20173252050625 444.12532557054595,299.08142941739715 443.6492065770331,298.6353006140539 442.9398863122699,297.7229673895971 442.463767318763,297.1013586181097 442.18198259857104,296.85070556994333 441.6864301060929,296.41456322730784 441.67671341630165,296.4045367792025 440.5981581038759,298.4247650601716 439.21838469167756,299.472412169009 437.1973079626209,299.647851209326 434.27257693427435,299.08142941739715 429.44336969309614,297.1915931238356 428.82149999460165,297.0662673059579 427.18909193157634,296.73540423612934 424.5072786254772,297.32193129208844 424.4878452459026,297.32193129208844 423.47730688137074,295.94833362431086 422.6999696686997,294.8854981767565 419.53232067931145,285.5436290118455 420.8926608313337,285.57372110728573 421.72829830211236,285.8395337716622 421.8448988183444,286.3009376229199 421.86433219791905,286.37115043622526 421.15501205254543,287.2287344871513 422.11696684875307,287.7853959177249 422.8457204930929,288.52257716931956 423.1080717143117,289.0390923501611 423.31212279681444,289.4502910649065 423.60362420679076,290.5935882112463 423.6133408965741,290.5935882112463 424.4878452459026,290.5935882112463 425.6149841266665,290.1523218890986 427.18909193157634,290.7791183312457 428.8506500639546,291.7268044836744 430.19155671701066,292.2783513565884 430.201273406795,292.2733373625826 431.70736426380495,292.1981270849632 436.721188969115,290.5935882112463 434.53492815549504,286.6820907017242 431.6199138169328,283.46216518356545 428.0635961614992,281.29525084759246 424.0408763217557,280.49264182413054 420.10560692887833,281.31531568739905 418.7064000177127,280.9240473917515 417.8901959264938,278.7368438483694 418.0553801304547,276.30360355461784 419.1047852541298,274.92382465738814 420.6594596794719,274.72312314727117 423.4967402609454,276.574532938343 424.23521059506857,277.0511605614259 425.81903508976274,277.181604479735 426.28543739348424,276.1982413661095 424.85708041296766,274.06079648353034 424.1963437165287,271.99843838601043 424.06030982072195,271.57691325435593 426.41175471890523,270.42771888870783 429.5502535195369,270.1366480595674 430.85229329404507,270.2269807710652 431.00776080822266,270.2370176911426 431.4838798017285,268.7314301232289 430.68710920948877,266.77402844890133 429.3267690574675,265.07246813459597 428.1316132288037,264.349645767478 428.12189653901936,264.3446261061606 423.9534258748766,264.62070657144807 422.6125193412312,263.9631278560248 421.16472874233676,261.8949025814519 421.15501205254543,261.8848622533708 425.5178169900021,262.24129224659725 430.14297314867844,263.2804320166675 434.4960612769462,264.9821164867924 437.13900770450437,266.77402844890133 437.9454949865274,267.32613192948276 439.07263386729136,269.07772340321424 439.62648661788495,269.9359075689533 439.61676992810163,269.9409260888318 439.0240502989601,271.72745874553897 437.7803109019721,273.0873447905453 437.537393060326,274.44213824159556 438.4410474790135,275.3703797978576 439.56818635977044,275.4155366081135 440.69532524053335,274.9790172742151 441.67671341630165,274.44213824159556 441.4726624532044,273.99054873308495 440.8896595138472,273.15759523678247 440.7924923771898,272.3597398153704 442.055665273151,272.00345648569805 443.309121479328,272.70598208516355 443.5811895097356,274.2966269568686 443.60062300870885,274.43210303363855 442.90101955312656,284.42517740644814 443.2411045314281,286.3109680193693 443.88240772889486,287.7603214078984 444.01844162470155,288.0862889242333 446.1366854904217,291.6666350326712 446.5739376053796,292.65941293201007 447.7399433646835,292.74966351661607 454.726261230725,294.7952553282954 456.55300356707227,291.34572863185184 457.2428903328702,290.5935882112463 458.2437118882131,290.3328407921591 456.63073732416007,289.7311057730331 454.2112753586783,289.0039898004223 453.1813036145718,287.6098734476671 453.17158692478847,287.6048585122915 454.06552465369066,286.2357397006696 456.2032018989794,285.5436290118455 458.88501508567987,285.36809056803094 461.32391055013386,285.5436290118455 462.6648170837793,285.79941127616144 463.74337239621,286.1454654665682 464.2000580101482,286.3861959868309 464.6373102445108,286.6118787678614 465.40493064799995,287.2287344871513 465.87133295172146,288.1615115140199 466.0462338454667,289.2747802308348 466.40575220334284,290.2074805920912 467.4357240668409,290.5935882112463 469.12643238798285,290.9746755819481 471.6139113013704,292.65941293201007 473.14915222773334,293.04046867631297Z" name="Debub" name_en="Debub Region" gn_name="Northern Red Sea Region" admin="Eritrea" adm0_a3="ERI" iso_3166_2="ER-DU" iso_a2="ER" postal="DU" type="Zoba" type_en="Region" wikidataid="Q27728"/><path d="M438.4021806004656,242.95146120804293 436.6337385222419,244.57920660356407 436.25478666539254,246.4479649649781 437.00297368930103,247.1512240375948 438.0329454334065,247.71381666828634 438.87829959397146,248.53758950062897 440.1026057307954,249.40151646815315 440.685608550749,250.5366296877069 438.5576479952376,251.1393232907058 435.05963071732515,249.9741023582376 432.1446163787699,248.37685544166064 427.0141910378311,247.83939352215393 425.81903508976274,246.60871175789902 425.8481852785273,244.569159152737 426.800423265538,242.67011143043962 428.90895044147476,241.8662369822142 431.59076362817524,241.64516692693695 432.64988556103333,240.9618465534278 432.24178351542633,239.92678042246163 431.99886567378127,238.7208225070373 431.95028210545,237.4243508229048 432.17376656752646,236.06750386737434 433.0385541076661,235.55489752484962 436.0507357022883,237.92184242299274 436.92523993221226,238.42937368348692 438.1106791904883,238.70574769214647 440.2677898153527,239.66549468104287 441.20059442279575,241.1427272606631 440.3843904509814,242.26817759413763 438.4021806004656,242.95146120804293Z" name="Debub" name_en="Debub Region" gn_name="Northern Red Sea Region" admin="Eritrea" adm0_a3="ERI" iso_3166_2="ER-DU" iso_a2="ER" postal="DU" type="Zoba" type_en="Region" wikidataid="Q27728"/><path d="M172.9359498245868,70.70790123099384 175.78654243823723,70.05224723883224 178.1311856535581,68.25231443818215 181.87027462594006,63.436782684322466 189.93720824098537,58.009186376857656 190.12598331285287,59.26665572490792 190.99596940912335,73.17617370639171 188.9598317598487,124.12481817799285 187.60857682323086,130.2449906667688 186.75710121564722,132.81247801786736 186.53497706940615,135.76425416813 187.3864527843674,138.2990832940101 189.99641096579626,141.72755008390916 191.86595539801021,143.7779790668002 193.40848388114364,145.95315784500252 194.05634583117305,148.49968389023022 194.18591817822968,152.4742689616559 192.439776037549,160.51424343957626 192.0695691629411,164.2115097807255 192.7914725308397,167.0216814668848 195.50015235222108,169.92111806699134 198.46180713432523,171.39630090159264 225.65966870976627,176.27558380882257 226.9739028837577,177.3664849685203 227.70197630717863,179.1770773099472 228.4609004377107,181.72958449555418 229.51598991759684,184.2050604289821 231.88531357147437,187.6715702461642 233.36614085514782,190.37662981340148 235.13079348451734,197.03884064147798 236.33396558539067,200.17748794454533 239.01796507731711,203.2006815692091 241.81919680525456,205.63877051413579 244.8734031717889,209.2523082629071 248.30398646844554,215.45251781295408 249.76630337080977,219.6457739443111 250.506717012647,223.30509317704147 250.59926881183245,226.12743384952753 250.26608259247334,228.56000069645825 249.67375167900195,230.3124459707651 248.61866219911582,232.2530748941299 247.82271752072057,234.47758437991368 247.45251064611264,237.5251816634647 247.73016582891373,247.55880355980003 249.02588972897254,251.62849840074674 251.61733752909115,255.00876346405337 257.4542652422537,258.9688187736189 263.0320481539234,261.30246434141213 268.6838723760997,262.9728612122275 284.8002096534452,265.0033239725199 286.3365679736777,266.11251683477406 288.1012204956676,268.3913050241526 298.62126448002624,286.0407969985886 302.6811994527806,301.11893381417264 295.14132030970353,302.363364478292 290.674157914471,303.93234094679065 289.32290308522977,304.1932971589392 288.39738595240027,304.11691998270646 287.02145057894995,303.0094254693591 286.09593355349705,302.51294657238543 284.4855338153963,302.23605982407355 283.5044856460078,302.3506340530894 282.09769978020256,303.4454277300399 269.86853420303447,304.9156859119469 248.0078209043352,304.2696739915134 244.04043773076523,303.25766122517837 241.52303134852286,301.42447749523535 238.2405307802311,295.0200094206667 235.0567520666411,290.6963819164414 231.07085861913953,286.78600403929124 225.43754467090383,283.10433624455055 221.47633155285615,281.91946192803493 218.24936202112343,281.8302754937952 215.34323849034053,282.7890123352103 208.7103660987767,286.05035115190094 206.14976879101295,286.99300199451665 203.132583187106,287.2413973738699 200.96687319077472,286.508942528306 189.31152836051803,278.66395042969975 182.43802144140992,275.602359349018 178.54467968571518,274.41393918538756 175.3794113534344,273.98379984568317 171.20841430756292,273.8690948364887 168.5059045417039,273.3242383425246 166.00083837787778,272.00824860240084 162.63195628067214,269.6055101194537 158.40542819824165,267.50212473301366 155.07356675628583,266.6734689236464 151.735535151436,266.6320355164191 143.30715974553297,267.7315936384678 134.61963953814052,267.7793993400951 132.81796625352422,267.15791719329223 131.98500081250202,266.2750667235923 132.0590423377544,265.08938385458646 131.87393884676212,263.9737695394078 130.96693209524233,262.7146583983828 128.74569106235302,261.27696134850873 125.13000438208124,259.7307848523321 121.00219826172916,258.4842086566836 118.64521482626739,256.74335928108644 116.66460832092989,253.8257238758455 114.42485701410848,248.60180726657205 110.8091703338362,243.03860348774455 106.24945613941823,238.44417222581245 98.83914945077537,233.95099744574827 92.72456676956945,231.87006843790033 81.53815034649458,229.21119738450201 78.8109600364189,228.18970446370196 77.16353964306838,227.196899582511 76.34908458335592,225.99015571943977 74.68315402345092,222.1460497410789 73.70210585405592,220.7538465117759 72.69637724783485,219.70006120755974 71.64128787533383,218.88574081928257 70.75279139774614,218.017101978594 69.901315790169,216.77157243396022 69.12388138570533,214.8584405789988 68.3464470886258,211.7824176934771 67.55050241022356,204.9134410955602 66.79157838707661,201.6699581502626 65.81053021768808,199.00134285887265 63.453546782226816,195.54927633919013 60.137208783758716,194.99135752407267 60.01052685671303,194.6349341844131 58.319915726352825,192.36515932196997 56.44420117795977,190.37013531936438 54.889332490473336,188.1830891404446 54.074877355655275,185.31788073251548 54.161259062172164,183.61649881813142 55.62974604315569,178.67795877937328 55.98761263541314,176.28508150931265 55.765488605427066,172.24734880866598 55.96293214782661,170.0522203770171 57.04887228778283,167.71607085565375 58.86288561723004,166.07742700829826 62.799418370815225,163.24153404789703 64.082802053164,161.53215038953738 67.01977613452216,154.09135199812488 67.47636455769167,146.67380099669688 67.69848870706885,146.12283486190142 68.5623046976264,145.12978141445436 68.78442872761248,144.6172211323124 68.63634592156232,143.89321017854064 67.9329529808412,142.7783174643958 67.77253005040187,142.30415153724593 67.99465419977855,137.3248211993941 67.69848870706885,135.74813019345575 66.6619096616758,134.21620124598604 65.41554659128074,132.9982771893591 65.0083190238717,131.65848631996602 67.90827249326165,127.4911747174997 68.46358274733024,125.0930255221289 68.03167481175325,122.72027866333121 65.66235122824345,119.42367718919324 65.3908661037077,118.3204284417895 65.63640964853498,117.32973723980129 65.65001098445119,117.2748587954089 66.43978551229162,116.34471060050707 68.87081031473926,116.02396116742601 70.77120535068988,116.8643152628287 72.57287867514701,118.10875257300741 74.70773798487697,118.98110130963748 77.78045462851298,119.50706016011945 79.01447733571068,119.96245389010805 83.62972254245095,122.79723656395763 84.81438439389416,122.99604309334057 91.29300390522722,121.94427325537205 93.06999662270722,122.20722014151755 96.68568339600267,121.97633997696576 102.36218813570804,118.46154468351824 105.8051114959832,118.16648257200289 116.98535780116234,121.3221670570128 123.71078183004104,113.2781611728381 124.6980001390902,110.80152607202353 125.26565051754046,108.02942904994063 127.88177885741106,103.35716918803969 128.6345326538732,100.81526233323518 129.18984290794177,95.63428345804302 129.07878083324243,93.37405574651261 127.7460362951332,87.68396056046802 128.0422017878504,86.26442457196688 129.32558547021316,85.48075120416546 145.13341698710366,80.5661121649331 149.95844598003075,79.89147025625003 154.8328359481224,77.35335037842394 160.02807177708672,67.99516953241533 164.19906868504566,65.75145334645072 166.6300934875003,66.42652059280215 170.20875952943643,69.87226047845895 172.9359498245868,70.70790123099384Z" name="Semenawi Keyih Bahri" name_en="Northern Red Sea Region" gn_name="Anseba Region" admin="Eritrea" adm0_a3="ERI" iso_3166_2="ER-SK" iso_a2="ER" postal="SK" type="Zoba" type_en="Region" wikidataid="Q27910"/><path d="M12.266186206326184,462.246496720177 9.625377498287625,439.73442892108955 7.823704293236082,424.55015872096163 6.009690844390275,409.151232425308 4.6030624453123155,397.2547755330914 3.8007900719227075,390.46720743688144 1.3697652694750584,369.8908030715281 0,358.2325932221937 0.17276317423858545,355.53635841909244 1.1353008763051122,353.3956832663599 9.921542871600229,344.8534375599252 12.093423032093591,341.4630691875705 18.140134607843184,323.56003362400133 20.47243757939176,319.75655405815064 24.38428972599981,317.13576318570983 22.743039570784195,311.76292596987815 23.051545187890063,306.5575909277677 29.530164699223132,282.95135290729957 30.998651799604254,280.2311369197288 36.897280569282714,274.1207084285882 40.105739775182116,268.85012457768204 45.831605370642464,252.5851251097069 51.22428474201982,237.23469914452028 55.19783810756522,225.9677081341011 57.13525375549104,222.73665398316686 62.13304604206181,217.56350918063941 63.35472862486982,214.4207583120212 63.033882644580586,211.7887067425707 60.86200260349181,206.7793424916477 60.244991249889466,204.1784036589976 60.41775442412156,201.53883149434841 60.83732211590528,199.32085342306922 60.89902333485013,197.1346321620076 60.137208783758716,194.99135752407267 63.453546782226816,195.54927633919013 65.81053021768808,199.00134285887265 66.79157838707661,201.6699581502626 67.55050241022356,204.9134410955602 68.3464470886258,211.7824176934771 69.12388138570533,214.8584405789988 69.901315790169,216.77157243396022 70.75279139774614,218.017101978594 71.64128787533383,218.88574081928257 72.69637724783485,219.70006120755974 73.70210585405592,220.7538465117759 74.68315402345092,222.1460497410789 76.34908458335592,225.99015571943977 77.16353964306838,227.196899582511 78.8109600364189,228.18970446370196 81.53815034649458,229.21119738450201 92.72456676956945,231.87006843790033 98.83914945077537,233.95099744574827 106.24945613941823,238.44417222581245 110.8091703338362,243.03860348774455 114.42485701410848,248.60180726657205 116.66460832092989,253.8257238758455 118.64521482626739,256.74335928108644 121.00219826172916,258.4842086566836 125.13000438208124,259.7307848523321 128.74569106235302,261.27696134850873 130.96693209524233,262.7146583983828 131.87393884676212,263.9737695394078 132.0590423377544,265.08938385458646 131.98500081250202,266.2750667235923 132.81796625352422,267.15791719329223 134.61963953814052,267.7793993400951 143.30715974553297,267.7315936384678 151.735535151436,266.6320355164191 155.07356675628583,266.6734689236464 158.40542819824165,267.50212473301366 162.63195628067214,269.6055101194537 166.00083837787778,272.00824860240084 168.5059045417039,273.3242383425246 171.20841430756292,273.8690948364887 175.3794113534344,273.98379984568317 178.54467968571518,274.41393918538756 182.43802144140992,275.602359349018 189.31152836051803,278.66395042969975 200.96687319077472,286.508942528306 203.132583187106,287.2413973738699 206.14976879101295,286.99300199451665 208.7103660987767,286.05035115190094 215.34323849034053,282.7890123352103 218.24936202112343,281.8302754937952 221.47633155285615,281.91946192803493 225.43754467090383,283.10433624455055 231.07085861913953,286.78600403929124 235.0567520666411,290.6963819164414 238.2405307802311,295.0200094206667 241.52303134852286,301.42447749523535 244.04043773076523,303.25766122517837 248.0078209043352,304.2696739915134 269.86853420303447,304.9156859119469 282.09769978020256,303.4454277300399 282.31982381906505,352.8113536160051 274.3542068721996,351.89974501375275 270.5349064269965,352.5000763198948 265.66051660929185,354.5709527489083 255.34408628248147,357.073568415231 244.68829978817325,357.8706704497689 242.9483277030159,358.2390438059021 241.17133485522416,358.97577482419456 238.99945480337854,360.33168585860875 234.4459107718605,365.41174943060673 231.81127215359913,369.8940764282756 230.034279413193,372.1762098771687 228.42387967508427,373.5885563487458 223.95671727985075,375.36578198099727 221.30973855055174,376.927101295587 219.1563687726437,378.8690994860399 218.02723798225998,380.48414772377856 216.32428655235142,385.373104669815 214.0475145902807,389.8773687099037 213.63411689752405,392.07529515854566 213.8562409363875,394.9421546993552 214.65835588506232,398.4523628772414 218.41595513080648,406.742460408583 218.98977566296065,411.19553023045444 217.56807819433487,414.58837267338833 216.8177993035042,412.7387760813451 215.59611672068868,411.2461380411301 213.75742278427083,410.49186427823093 210.9315106582139,410.31438500584096 204.13204516659857,411.4869939724746 201.97250536928908,411.0876789393587 189.01526634662295,405.76607219882743 188.02804827638147,404.96726323678394 187.3493357038353,403.75949441068707 187.26295411672848,402.68481897360726 187.0038092359725,401.72740161411264 185.83148762830908,400.83969873048164 184.48640284640607,400.61459794617406 183.9681133237093,400.0248880927438 183.7089685623579,399.2068815297286 183.25238001981077,398.31909379840835 183.17833879588235,397.9386040144897 183.21535940783707,396.6417271398236 183.15365830830282,396.1407160077323 182.7340906165126,395.7221423490927 181.57410913322337,395.58895857356003 181.05581961052658,395.1545206092497 178.77287749474598,390.65750710478767 177.32907088194438,388.5451033183543 175.2559126717407,386.7275383748946 170.38152270366803,398.46811727081746 162.6195195099802,417.07677363799775 154.93155777902098,435.5172626184592 147.4410395904773,453.4736350292632 140.57987299932122,469.9097611236131 136.27313352909042,480.2168371348539 134.9280487471809,481.58555371004303 132.7808491936647,480.197870522023 131.53448612327662,478.7310862202663 130.97917586920755,476.6983225490791 130.84343342633426,473.57142964983257 130.4855668340838,472.40151978517054 129.560049743978,471.4750420380597 128.338367161163,470.86791345941134 127.1043444539583,470.64656114350066 125.57415625403743,470.0741988521286 124.85842306952952,468.6985833184848 124.25375195971345,465.63719506929345 123.37759560596453,463.3377655668503 122.85930620267284,462.6070946823392 118.03427709034116,458.5643275766577 116.30664522861565,457.5677786148419 115.97345912393075,456.26430067977674 116.0351602234705,453.4736350292632 115.86239704923891,451.6478400882279 115.40580862608938,450.65736614885833 113.5794549334508,448.83771071296803 109.0629316770272,442.30492965123784 106.80466992940754,440.9848879870834 103.89237633563592,438.49657551800027 102.2511260610237,438.7403516964759 99.64733808433647,439.63945503787363 90.81173499449167,439.46216933847035 86.69009906168431,440.39607139879104 83.271855950187,442.9823360360535 81.4578425013487,445.6284896635774 80.49530479928217,448.04335324692664 80.08807723187313,450.5371144666808 80.0140357691485,453.4736350292632 79.6808496644641,456.03966580098654 78.78001306194483,458.0581484859392 77.49662937958207,459.5798208173664 76.0034617916284,460.6174196823944 75.07794482092069,460.80089334716604 72.90606477983192,460.53517238978105 71.93118671457503,460.6174196823944 70.19121460906324,462.05670623481296 69.48782166833412,462.29078094390235 68.2661392049167,462.1769070453694 67.22956004012555,461.84160898168614 66.29170270622798,461.31651127122115 65.34150512855612,460.6174196823944 63.18196533124013,457.66268955552704 62.47857250992309,457.2007861825463 58.51735938815696,456.67559900490016 50.730675706902076,454.3785762056101 46.89286490361406,453.8533343026199 38.73597450571355,453.8533343026199 37.57599314183639,454.13177704973305 35.63857737449899,455.32461882022415 34.62667869728788,455.60304647011776 29.246339450292208,455.60304647011776 26.852335259805777,455.99537139916237 23.1626071431843,457.72596333184265 21.50901674418291,458.10876688031595 18.966929747645327,458.1783669574644 16.955472636995882,458.6465808271265 15.449964924647048,459.8898392303936 14.573808809693322,462.29078094390235 12.266186206326184,462.246496720177Z" name="Gash Barka" name_en="Gash-Barka Region" gn_name="Gash-Barka Region" admin="Eritrea" adm0_a3="ERI" iso_3166_2="ER-GB" iso_a2="ER" postal="GB" type="Zoba" type_en="Region" wikidataid="Q873012"/><path d="M240.17785010849312,443.53627725099386 239.17829167506827,443.42865532401777 237.697464450292,442.3112607006954 237.0557724897265,441.2128134255528 236.2536578374894,438.5662260976921 235.29112001603227,437.65442283489256 228.88654184802624,434.1778887837177 227.02316742403585,432.71811682780617 225.62872178637934,430.9099160662825 224.65384384052004,428.7563827669982 223.5185428448303,424.10352529990234 222.75344880456794,422.52599396461886 221.50708573417288,421.5787967485367 220.11263997712578,420.80580830980404 218.97733910082067,419.74449657444836 218.38500811539328,418.54373745712644 217.80501737375164,415.17245141690483 217.56807819433487,414.58837267338833 218.98977566296065,411.19553023045444 218.41595513080648,406.742460408583 214.65835588506232,398.4523628772414 213.8562409363875,394.9421546993552 213.63411689752405,392.07529515854566 214.0475145902807,389.8773687099037 216.32428655235142,385.373104669815 218.02723798225998,380.48414772377856 219.1563687726437,378.8690994860399 221.30973855055174,376.927101295587 223.95671727985075,375.36578198099727 228.42387967508427,373.5885563487458 230.034279413193,372.1762098771687 231.81127215359913,369.8940764282756 234.4459107718605,365.41174943060673 238.99945480337854,360.33168585860875 241.17133485522416,358.97577482419456 242.9483277030159,358.2390438059021 244.68829978817325,357.8706704497689 255.34408628248147,357.073568415231 265.66051660929185,354.5709527489083 270.5349064269965,352.5000763198948 274.3542068721996,351.89974501375275 282.31982381906505,352.8113536160051 341.5714267284834,352.79229599622226 342.8116195919842,353.0368685572993 344.31095725696787,352.4968999755666 345.2734950450472,351.87751029638434 346.56921905248464,350.3019694215815 350.3514987350543,356.4606407164738 352.8318844620559,362.2177761203348 387.3351609232943,421.68977347128083 393.91867233381544,433.0380425402453 393.93761265721207,433.070683999571 388.53206654527594,433.98790139405247 385.3359475831753,433.69975094183076 379.19051417652764,431.8536158503093 378.51180172337905,431.4957739515893 377.78372841448197,430.79590979636123 375.3527034926377,427.8505803103808 373.53869004379845,426.3334505741183 371.16936634088506,424.9967847897729 369.1085482550825,424.96827696351306 368.1706910405955,427.4198381846312 366.04817185524774,430.2797088159903 361.17378188716907,432.65478452252637 351.38798145844163,435.37477919113303 349.1173794670352,435.5109300922084 342.6511003188935,434.46920036420045 339.67710538677295,434.944158163813 338.0605355997388,436.4164736584272 335.4567476230585,440.57968228059707 332.4704125665498,440.6113391730397 330.0023670327378,436.07452373641155 326.53476306549305,425.9090189124986 324.89351267148174,423.2830939626414 322.8326947050778,420.75195167576516 320.42635027081207,418.556410674747 317.8225622941258,416.91834935141924 316.62556019889684,416.43673389703645 313.21965745058293,415.6572585356534 308.9499385923198,415.1661140632364 308.7771754180872,414.74150436493204 307.2346470937777,416.2529571809808 307.04954355635573,418.2934405091023 307.2346470937777,420.5840451802752 306.8767803821231,422.8427748519835 305.18616913236434,425.0538002283703 302.7428040861249,426.58367203865083 297.7696924065383,428.90523560003965 293.83315977235117,432.5154525075045 291.6242589998896,434.0575635441452 286.3056209718448,434.5705255178279 279.18530961933186,437.5151167705703 276.91470774733,438.05334055204645 274.70580709426605,438.2559631923675 272.53392693377316,438.0406765710029 270.3620468926699,437.312488668368 268.02974380173026,437.23650259831487 260.6379475634967,441.06402895742366 256.195465530995,442.2479507517895 247.076037431015,443.2925446067164 241.1897487857177,443.24822933265506 240.17785010849312,443.53627725099386Z" name="Maekel" name_en="Maekel Region" gn_name="Debub Region" admin="Eritrea" adm0_a3="ERI" iso_3166_2="ER-MA" iso_a2="ER" postal="MA" type="Zoba" type_en="Region" wikidataid="Q27710"/><path d="M282.31982381906505,352.8113536160051 282.09769978020256,303.4454277300399 283.5044856460078,302.3506340530894 284.4855338153963,302.23605982407355 286.09593355349705,302.51294657238543 287.02145057894995,303.0094254693591 288.39738595240027,304.11691998270646 289.32290308522977,304.1932971589392 290.674157914471,303.93234094679065 295.14132030970353,302.363364478292 302.6811994527806,301.11893381417264 304.7543576499195,306.5449621027437 307.6666513436093,312.1447922614244 318.5383919286353,328.8764139700775 325.5229607061122,336.5309194703812 331.2488263461567,341.58709801178844 341.58993710979365,347.06481889040396 346.56921905248464,350.3019694215815 345.2734950450472,351.87751029638434 344.31095725696787,352.4968999755666 342.8116195919842,353.0368685572993 341.5714267284834,352.79229599622226 282.31982381906505,352.8113536160051Z" name="Anseba" name_en="Anseba Region" gn_name="Maekel Region" admin="Eritrea" adm0_a3="ERI" iso_3166_2="ER-AN" iso_a2="ER" postal="AN" type="Zoba" type_en="Region" wikidataid="Q569468"/></svg>