<?xml version="1.0"?><svg fill="#3498db" stroke="#ecf0f1" stroke-width="1" width="800" height="24" viewBox="0 0 800 24" xmlns="http://www.w3.org/2000/svg"><path d="M3.1365072355555736,15.267137069070328 3.151155673333335,15.301005272750292 3.185877895555543,15.33316382160092 3.226567999999961,15.352384131197669 3.2593009288889117,15.347055631014955 3.2511629066666696,15.39425350909308 3.2092068888888567,15.389114745915348 3.129635128888867,15.347055631014955 3.1103751466666747,15.325361793129574 3.117518520000036,15.28045566571607 3.1518790533333463,15.240691515788 3.213728011111119,15.23517432917632 3.200707177777791,15.25781432507053 3.185877895555543,15.262570799575286 3.165713688888928,15.261809759579146 3.1365072355555736,15.267137069070328Z" name="Eastern" name_en="Eastern Division" gn_name="Eastern Division" admin="Fiji" adm0_a3="FJI" iso_3166_2="FJ-E" iso_a2="FJ" postal="CE" type="Division" type_en="Division" wikidataid="Q182169"/><path d="M2.284094764444428,14.898586083236205 2.2909668711111344,14.846127712268379 2.3158330466666386,14.81172954534518 2.3475713266666345,14.80811886579606 2.375059753333312,14.849548693069469 2.3756022888889112,14.913222483618997 2.3456724555555457,14.950291184928652 2.3076950244444707,14.9491505544877 2.284094764444428,14.898586083236205Z" name="Eastern" name_en="Eastern Division" gn_name="Eastern Division" admin="Fiji" adm0_a3="FJI" iso_3166_2="FJ-E" iso_a2="FJ" postal="CE" type="Division" type_en="Division" wikidataid="Q182169"/><path d="M0.30429514000005703,14.900296802901835 0.3047472533333387,14.898586083236205 0.33404412888886187,14.80127766996822 0.41623813777773616,14.810399289821978 0.4729330177776941,14.875777218153631 0.42618460888882376,14.94839013685279 0.40719589333328615,14.868554692405704 0.36053790666665897,14.860572058026678 0.3217466755555447,14.89402420208562 0.3269007533332854,14.939455348734574 0.3458894688888974,14.985081986070528 0.31496499111108117,14.994017835199585 0.28458304666664913,14.965499889359617 0.30429514000005703,14.900296802901835Z" name="Eastern" name_en="Eastern Division" gn_name="Eastern Division" admin="Fiji" adm0_a3="FJI" iso_3166_2="FJ-E" iso_a2="FJ" postal="CE" type="Division" type_en="Division" wikidataid="Q182169"/><path d="M2.7406377333333114,13.095296526451305 2.7797002333333696,13.12311110020913 2.7873861422221813,13.16587741726695 2.773732351111086,13.205052347087928 2.748233220000029,13.222275391720025 2.6723687799999727,13.222275391720025 2.6520237288888713,13.217354444718927 2.6351147311110488,13.206187908995172 2.621641784444439,13.19540019536255 2.6116048911111087,13.190290326657117 2.5657607088888015,13.156036974864342 2.6113336244443794,13.090377141423026 2.689368202222253,13.050835060198631 2.7406377333333114,13.09510731875421 2.7406377333333114,13.095296526451305Z" name="Eastern" name_en="Eastern Division" gn_name="Eastern Division" admin="Fiji" adm0_a3="FJI" iso_3166_2="FJ-E" iso_a2="FJ" postal="CE" type="Division" type_en="Division" wikidataid="Q182169"/><path d="M2.110457913333335,12.548586204242762 2.1514877266667263,12.572678649429431 2.1600689488889295,12.627413903587325 2.1602989022221757,12.657870641327591 2.119521326666663,12.668324872029785 2.0908396933333098,12.652395702719298 2.0681427400000296,12.626065126315751 2.047324377777752,12.573407070531243 2.0899747311111625,12.54061281561349 2.110457913333335,12.548586204242762Z" name="Eastern" name_en="Eastern Division" gn_name="Eastern Division" admin="Fiji" adm0_a3="FJI" iso_3166_2="FJ-E" iso_a2="FJ" postal="CE" type="Division" type_en="Division" wikidataid="Q182169"/><path d="M3.7929742488888825,12.378646161280743 3.819829717777718,12.392622983572226 3.860158133333312,12.421711427036083 3.896869648888852,12.459491727385025 3.9130552688888782,12.498220182664793 3.891896413333308,12.540731275853005 3.8417119533332995,12.561894012995065 3.7815810199999884,12.565673189171376 3.7310348688888664,12.554335766311542 3.6615904244444506,12.524859945775832 3.649383393333302,12.451935386913334 3.693599973333316,12.386201140520356 3.7929742488888825,12.378646161280743Z" name="Eastern" name_en="Eastern Division" gn_name="Eastern Division" admin="Fiji" adm0_a3="FJI" iso_3166_2="FJ-E" iso_a2="FJ" postal="CE" type="Division" type_en="Division" wikidataid="Q182169"/><path d="M2.300642073333278,10.743797434795427 2.3712620111111353,10.777474101250915 2.405893808888885,10.80005213910684 2.420632668889113,10.830722572303461 2.3867242488888616,10.90637328678722 2.383378619999966,10.918983058214657 2.3416034444444245,10.934039996497152 2.2979293999999353,10.970743534848928 2.2645635155555803,11.016862775231651 2.2537128199999956,11.059786450290416 2.22070862444439,11.034182328589374 2.2273998866666105,10.989378865102323 2.2547978888889046,10.944580171340181 2.284094764444428,10.918983058214657 2.2760471666666433,10.889247186218583 2.287440395555538,10.875320980717836 2.304801506666642,10.867040751904634 2.3144767088888596,10.854432532979988 2.3148384000000473,10.823384045508018 2.310498122222271,10.809836330355997 2.284094764444428,10.791208932489962 2.2621221088888928,10.779919997805914 2.2138365177777577,10.770889067927381 2.1930393533333,10.75978881473686 2.1842683755555794,10.742856784337555 2.1810131666667125,10.697519905365004 2.1778483822221544,10.679461752495989 2.208772859999971,10.692440971245198 2.2291179133332872,10.718776840872641 2.2546170444444185,10.741351747027906 2.300642073333278,10.743797434795427Z" name="Eastern" name_en="Eastern Division" gn_name="Eastern Division" admin="Fiji" adm0_a3="FJI" iso_3166_2="FJ-E" iso_a2="FJ" postal="CE" type="Division" type_en="Division" wikidataid="Q182169"/><path d="M799.5055936066667,15.267137069070328 799.5301885155556,15.285022149163272 799.542485968889,15.326122959896095 799.5500814555555,15.373698874776423 799.5600279244444,15.410812214737028 799.4936578444443,15.427371640826925 799.4676161777778,15.429655757364628 799.4354257822221,15.424516516192071 799.4263835377778,15.415380260387277 799.4222241044444,15.394824485501571 799.4383193022221,15.386640551081852 799.4422978888889,15.385117979614993 799.44338296,15.380930934207782 799.4509784444446,15.363041355097916 799.4621908288888,15.36741851338794 799.4871474266666,15.374079507413825 799.4979981222222,15.379027747605232 799.4840730644443,15.343439905629035 799.4618291400001,15.307094255861271 799.4591164666665,15.278552980600047 799.5055936066667,15.267137069070328Z" name="Eastern" name_en="Eastern Division" gn_name="Eastern Division" admin="Fiji" adm0_a3="FJI" iso_3166_2="FJ-E" iso_a2="FJ" postal="CE" type="Division" type_en="Division" wikidataid="Q182169"/><path d="M796.5118870111111,14.875587150442573 796.5292481222222,14.87425667442081 796.6102666400002,14.888131851030904 796.6346807022221,14.898586083236205 796.6514992777777,14.929190099930196 796.6630733533332,14.972534120134476 796.6590947644445,15.011129620139519 796.6124367777778,15.034326813766482 796.5798846955556,15.056384460882697 796.5641511888889,15.042693357954754 796.5419072644444,15.035847988561404 796.4979619533332,15.027861881740938 796.507908422222,15.048778230699174 796.5088126466666,15.06608261971845 796.5003129355555,15.080725404858269 796.4815050666666,15.091755406802982 796.4556442444442,15.084148474859491 796.4057310488889,15.080345066672571 796.3520201111113,15.082246766048346 796.3144043711111,15.091755406802982 796.3198297177778,15.076161359853668 796.3252550666665,15.043834263950002 796.3295953444444,15.027861881740938 796.3097024044444,15.037559319459213 796.295234811111,15.04003125560318 796.2825756666667,15.036608579388702 796.2677463844444,15.027861881740938 796.278235388889,15.017213994719532 796.2890860844445,15.002383503105824 796.29776664,14.995919109055553 796.238449511111,14.973484701548895 796.1811216755555,14.997440131647327 796.0856355644444,15.075781026196395 796.0510941866665,15.084909161493258 796.01619112,15.085479678043555 795.9890643822222,15.090994706580338 795.9780328444444,15.114957476267005 795.9787562222224,15.164028780691764 795.97495848,15.175441612442851 795.9641077866665,15.141204135989934 795.9429489311111,15.157371450377953 795.9353534444444,15.183811239273064 795.9402362577777,15.208540753325204 795.9559697644446,15.219193960923274 795.9888835377778,15.22680357540313 795.9988300088888,15.246589285181487 795.994489731111,15.305762283231381 795.9881601577777,15.322697722582014 795.9729691866664,15.33830183015657 795.9532570911109,15.348197445542704 795.9337258422222,15.347055631014955 795.9147371266668,15.332022052105371 795.9114819177778,15.311661058149777 795.9174497999999,15.251155363571614 795.8848977155556,15.278172445650313 795.8731427977776,15.283119441281471 795.8414949377776,15.283119441281471 795.8203360844444,15.306333129410769 795.80840032,15.326884128181977 795.7924859688889,15.341346607347676 795.7592105044444,15.347055631014955 795.7244882822222,15.341727205329835 795.6669796022222,15.318891940468276 795.6380444177777,15.313754195795756 795.5897588266666,15.344581709324611 795.5637171599999,15.348197445542704 795.5530473111108,15.313754195795756 795.5378563377777,15.313754195795756 795.5203143822221,15.323839466493498 795.4977087688889,15.318511365281157 795.4725713266668,15.302908069824335 795.4470721955556,15.283119441281471 795.5143465,15.216720867907595 795.5544940711112,15.201692421178043 795.5986202266665,15.219193960923274 795.6217683755556,15.19940966949898 795.6299063977777,15.148431793067216 795.6470866622221,15.12370616373258 795.6705965,15.11267524192255 795.6960956333332,15.111914502499904 795.8210594644444,15.14462774416943 795.8414949377776,15.141204135989934 795.8554199955555,15.12370616373258 795.8588560488887,15.100883922592292 795.8653664666666,15.078063040810203 795.8883337688889,15.05980731356475 795.9183540244444,15.083007448907948 795.9380661199999,15.062659713359082 795.9476508999999,15.020636497950889 795.9476508999999,14.978427762351098 795.9792987577778,14.926908972299914 796.0579662933334,14.896305134733442 796.1463994533333,14.89155320502588 796.2082484111111,14.916073794976088 796.2265137466666,14.849358638302553 796.2418855644444,14.838905742480582 796.2757035599998,14.836625149794376 796.2858308755556,14.831303816235218 796.293788051111,14.82066136953574 796.3039153666665,14.809639146202901 796.3221807022221,14.804698252710352 796.3444246266666,14.808879006417746 796.3632324955555,14.816100411234068 796.3820403666665,14.81743068642921 796.4057310488889,14.804698252710352 796.4218262466667,14.83567490643625 796.4948875888888,14.839285844130767 796.5118870111111,14.875587150442573Z" name="Eastern" name_en="Eastern Division" gn_name="Eastern Division" admin="Fiji" adm0_a3="FJI" iso_3166_2="FJ-E" iso_a2="FJ" postal="CE" type="Division" type_en="Division" wikidataid="Q182169"/><path d="M796.725645691111,14.69183504557568 796.744091871111,14.710453304051175 796.7516873577777,14.72850246905271 796.7502405977779,14.747692508271381 796.7421025777776,14.771253861435039 796.7122631666667,14.760993096116222 796.6970721955556,14.783795168660971 796.6851364311112,14.808308900227185 796.6650626466665,14.804698252710352 796.6042987577778,14.763273243908786 796.6091815711112,14.735532373452621 796.6297978888889,14.700574116762457 796.6346807022221,14.683856066473574 796.6574671599999,14.6601100808824 796.7030400777777,14.64700292209981 796.7368580755555,14.654221303110244 796.725645691111,14.69183504557568Z" name="Eastern" name_en="Eastern Division" gn_name="Eastern Division" admin="Fiji" adm0_a3="FJI" iso_3166_2="FJ-E" iso_a2="FJ" postal="CE" type="Division" type_en="Division" wikidataid="Q182169"/><path d="M799.8742813199998,13.94502954221346 799.8847038955554,13.961704812908748 799.8942293133333,13.97343418026818 799.8771115133334,14.001585710784543 799.8239704422222,14.014233056852191 799.79948994,14.037223075677707 799.7596245288889,14.069232907150058 799.7752007222222,14.087465332382756 799.8061744044443,14.07347930641847 799.8165416755555,14.07356099183579 799.8244862666667,14.099530585685974 799.7819310444444,14.135670965469432 799.7795362866667,14.18334107151909 799.7394533155556,14.192500889926418 799.7160302466665,14.153806396586509 799.7145910266668,14.113939297575996 799.6900060733334,14.095772081463 799.6731859133333,14.072508207560126 799.6290526022221,14.04733782453339 799.6237015555555,14.021825362770214 799.6676581422221,14.002254979207608 799.751530442222,13.969688336885108 799.8392681666668,13.948857679016017 799.8742813199998,13.94502954221346Z" name="Eastern" name_en="Eastern Division" gn_name="Eastern Division" admin="Fiji" adm0_a3="FJI" iso_3166_2="FJ-E" iso_a2="FJ" postal="CE" type="Division" type_en="Division" wikidataid="Q182169"/><path d="M798.5454879933333,12.648067999923905 798.5796676822222,12.71119831016277 798.5843696488889,12.836164933288774 798.5561578444444,12.926936547779158 798.4910536777777,12.88741055888158 798.4686289088887,12.859423210010632 798.4516294866668,12.795324380156746 798.4386086533333,12.767910588737122 798.3962909444444,12.7149788806827 798.3816425088887,12.68738152492735 798.3709726577777,12.648067999923905 798.3622921022221,12.673016526322412 798.3684408288889,12.72027173977161 798.3621112577775,12.73615073083378 798.3423991622221,12.741821950209655 798.3322718488889,12.725564668206687 798.3230487577777,12.659219043850802 798.3253997422221,12.592506356936381 798.32087862,12.581546116630914 798.3002622999999,12.545643954913105 798.2950177977775,12.522592664911025 798.3187084799999,12.536952332087829 798.3340802977774,12.537708116167382 798.3825467333334,12.49878696882367 798.3944824955554,12.497653397296986 798.4087692444443,12.502943417091736 798.4386086533333,12.506722044194838 798.4722458066666,12.528827721253577 798.5261375888889,12.626144808499413 798.5454879933333,12.648067999923905Z" name="Eastern" name_en="Eastern Division" gn_name="Eastern Division" admin="Fiji" adm0_a3="FJI" iso_3166_2="FJ-E" iso_a2="FJ" postal="CE" type="Division" type_en="Division" wikidataid="Q182169"/><path d="M798.7351943022221,12.172826809597652 798.7351943022221,12.183209704491635 798.7321199377777,12.189817140782843 798.7201841755553,12.203032328998395 798.7272371266668,12.218324724639714 798.7344709222222,12.239848325152074 798.7384495111112,12.262694789888666 798.7351943022221,12.281954786138591 798.7169289666665,12.303859418617852 798.7040889777776,12.292151624761754 798.689802231111,12.251743432388981 798.6726219644443,12.229841598290353 798.6556225422223,12.201522001549058 798.6483887466666,12.17056148433747 798.6594202866667,12.141113413210011 798.6972168711111,12.161122769875957 798.7351943022221,12.172826809597652Z" name="Eastern" name_en="Eastern Division" gn_name="Eastern Division" admin="Fiji" adm0_a3="FJI" iso_3166_2="FJ-E" iso_a2="FJ" postal="CE" type="Division" type_en="Division" wikidataid="Q182169"/><path d="M797.1683598155554,12.012032219160876 797.20425546,12.069714086675912 797.2504576111113,12.09845521852767 797.2878925088888,12.107892488663804 797.2824671599998,12.124502615298665 797.2792119533332,12.132052894041259 797.2727015355555,12.141113413210011 797.2575105644444,12.123747594615397 797.2425004355556,12.134506765530922 797.2280328444446,12.131297859439409 797.2173629933333,12.116952473409237 797.18818984,12.111418292003478 797.1543435866665,12.023929383622162 797.1404206,11.98019289698151 797.1683598155554,12.012032219160876Z" name="Eastern" name_en="Eastern Division" gn_name="Eastern Division" admin="Fiji" adm0_a3="FJI" iso_3166_2="FJ-E" iso_a2="FJ" postal="CE" type="Division" type_en="Division" wikidataid="Q182169"/><path d="M797.2808395555556,11.789787243676674 797.2947051844445,11.776026942189269 797.3286370533335,11.766071656879303 797.3705726044443,11.790048126617537 797.3904848599998,11.843695665331143 797.4004185088887,11.87539549694801 797.4043632688888,11.907097862792813 797.4123192599999,11.938878870402851 797.4062858333333,11.972641653830129 797.3982617733333,11.998457933059258 797.3842426066668,12.022281621965785 797.3282528088888,12.03810538007663 797.3002529444444,12.048001643724987 797.2623933755557,12.064105386122646 797.24042126,12.02410410943802 797.2280328444446,11.984847514361109 797.1985660644445,11.892911206007787 797.2246530733333,11.82344933489576 797.2808395555556,11.789787243676674Z" name="Eastern" name_en="Eastern Division" gn_name="Eastern Division" admin="Fiji" adm0_a3="FJI" iso_3166_2="FJ-E" iso_a2="FJ" postal="CE" type="Division" type_en="Division" wikidataid="Q182169"/><path d="M797.7897371266669,11.772436255013437 797.7720143244444,11.74150803900925 797.7745461533334,11.716239141005952 797.7929923333335,11.707187971143702 797.8215658288889,11.724913363328762 797.8356717333332,11.747542629608171 797.8624367777779,11.82034184569945 797.86840466,11.853162271278709 797.8519477733332,11.853162271278709 797.8421821488888,11.825623117643383 797.8293421599999,11.805064261913762 797.8125235844444,11.788278432302727 797.7897371266669,11.772436255013437Z" name="Eastern" name_en="Eastern Division" gn_name="Eastern Division" admin="Fiji" adm0_a3="FJI" iso_3166_2="FJ-E" iso_a2="FJ" postal="CE" type="Division" type_en="Division" wikidataid="Q182169"/><path d="M798.7820331333332,11.005944294390497 798.7775120111111,11.065622901396637 798.7630444177779,11.117778027826063 798.7397154244445,11.163348464409367 798.7062591155554,11.203462079556559 798.6463994533333,11.251113764614663 798.6299425666665,11.237928960044346 798.6299425666665,11.100643318547792 798.6252405977777,11.063551893633173 798.6140282133332,11.029664115951984 798.5973904822222,10.997849741299675 798.6046242777778,10.966790693115167 798.6029966755553,10.935545718295506 798.6192727155554,10.911454791925872 798.7104185488888,10.89828064705023 798.7315774044445,10.89225831987412 798.7507469644443,10.893763892450332 798.7738951111112,10.910701972228354 798.773533422222,10.924629346165224 798.7820331333332,11.005944294390497Z" name="Eastern" name_en="Eastern Division" gn_name="Eastern Division" admin="Fiji" adm0_a3="FJI" iso_3166_2="FJ-E" iso_a2="FJ" postal="CE" type="Division" type_en="Division" wikidataid="Q182169"/><path d="M2.846522426666612,18.90440497298689 2.8283475133333282,18.88960937768472 2.819938224444431,18.872893019619514 2.8215658288890135,18.855024678775887 2.8334111711111896,18.83677300508973 2.8350387755555486,18.857138093008313 2.842634262222192,18.876735790470658 2.854931715555509,18.89306803358029 2.8708460666666658,18.905173592614155 2.864426073333315,18.906326523999944 2.846522426666612,18.90440497298689Z" name="Eastern" name_en="Eastern Division" gn_name="Eastern Division" admin="Fiji" adm0_a3="FJI" iso_3166_2="FJ-E" iso_a2="FJ" postal="CE" type="Division" type_en="Division" wikidataid="Q182169"/><path d="M3.940453271111098,16.947656778815283 3.932134406666659,16.936381056522286 3.935660882222181,16.921856909640997 3.947506222222217,16.905804567384873 3.964143955555599,16.88937075117631 3.9608887466666576,16.905040187224966 3.955463400000047,16.919181470744107 3.940453271111098,16.947656778815283Z" name="Eastern" name_en="Eastern Division" gn_name="Eastern Division" admin="Fiji" adm0_a3="FJI" iso_3166_2="FJ-E" iso_a2="FJ" postal="CE" type="Division" type_en="Division" wikidataid="Q182169"/><path d="M3.511579573333379,15.371415096293973 3.5530834799999758,15.292062252217434 3.5712583933333337,15.278172445650313 3.5793964133333613,15.322317143596672 3.5734285311111518,15.36760882769072 3.556429111111086,15.379789021572773 3.534727722222206,15.381692211979404 3.513749713333337,15.397679389743406 3.5073297177777714,15.391969605005642 3.5066967622222185,15.386259908229025 3.511579573333379,15.371415096293973Z" name="Eastern" name_en="Eastern Division" gn_name="Eastern Division" admin="Fiji" adm0_a3="FJI" iso_3166_2="FJ-E" iso_a2="FJ" postal="CE" type="Division" type_en="Division" wikidataid="Q182169"/><path d="M2.4452275777778136,14.693164892604976 2.4284090000000194,14.70342385600354 2.4114095799999538,14.709313383229345 2.394229313333336,14.71007332929206 2.376416091111165,14.704753740573738 2.4011014199999683,14.682716226426127 2.428228155555533,14.66257959614443 2.457796297777711,14.647572790248509 2.4891728888888833,14.63978467575089 2.480311488888845,14.65498114089335 2.4699129066666163,14.669038400938827 2.4582484111111413,14.681766361897788 2.4452275777778136,14.693164892604976Z" name="Eastern" name_en="Eastern Division" gn_name="Eastern Division" admin="Fiji" adm0_a3="FJI" iso_3166_2="FJ-E" iso_a2="FJ" postal="CE" type="Division" type_en="Division" wikidataid="Q182169"/><path d="M3.3174425666666765,14.19877658046664 3.297097513333286,14.163297414718526 3.3086715866666663,14.135219928736678 3.335074944444361,14.125355346505279 3.3600315422221825,14.143187659624319 3.3642813977777157,14.167471268061934 3.3548774622221527,14.188341198518556 3.3375163511111228,14.200484215419683 3.3174425666666765,14.19877658046664Z" name="Eastern" name_en="Eastern Division" gn_name="Eastern Division" admin="Fiji" adm0_a3="FJI" iso_3166_2="FJ-E" iso_a2="FJ" postal="CE" type="Division" type_en="Division" wikidataid="Q182169"/><path d="M1.5053765933333052,12.117518729977833 1.475265915555528,12.090339339079499 1.4795157711111353,12.047497708581444 1.5104402511110921,12.012397326491154 1.5598109111110618,12.008623270976805 1.6005914377777226,12.04617667086788 1.5983308755555956,12.094302887119493 1.563427808888827,12.12676768337905 1.5053765933333052,12.117518729977833Z" name="Eastern" name_en="Eastern Division" gn_name="Eastern Division" admin="Fiji" adm0_a3="FJI" iso_3166_2="FJ-E" iso_a2="FJ" postal="CE" type="Division" type_en="Division" wikidataid="Q182169"/><path d="M1.8742097822222459,11.425003758247952 1.8382216466667172,11.393913010383912 1.8322537644444332,11.351708674102142 1.8533221955555454,11.31892789633206 1.898714266666637,11.31591369959324 1.9228570622222045,11.341535054101206 1.9315376177777566,11.384115194179412 1.917612560000006,11.41935072281376 1.8742097822222459,11.425003758247952Z" name="Eastern" name_en="Eastern Division" gn_name="Eastern Division" admin="Fiji" adm0_a3="FJI" iso_3166_2="FJ-E" iso_a2="FJ" postal="CE" type="Division" type_en="Division" wikidataid="Q182169"/><path d="M1.872672599999981,10.965284857305404 1.8740289377777597,10.922182613487823 1.8967249733333056,10.908067115028734 1.9235804422222156,10.917665602834132 1.9380480355555654,10.947215256833033 1.9315376177777566,10.975261114696854 1.9127297466666309,10.989755343942576 1.890033711111085,10.987119994508188 1.872672599999981,10.965284857305404Z" name="Eastern" name_en="Eastern Division" gn_name="Eastern Division" admin="Fiji" adm0_a3="FJI" iso_3166_2="FJ-E" iso_a2="FJ" postal="CE" type="Division" type_en="Division" wikidataid="Q182169"/><path d="M794.7750525199999,13.797119996371055 794.7868074377776,13.82327775764366 794.790966871111,13.853418200097973 794.7916902511112,13.908586872819397 794.8068812222223,14.019895704638998 794.7750525199999,13.998465827302423 794.7477449377777,13.959970847137313 794.7265860844444,13.91560200159308 794.71465032,13.876735972946646 794.7088632822222,13.841475484924953 794.7128418711112,13.82327775764366 794.7446705755555,13.781198729747105 794.7520852155554,13.789727900609481 794.7594998577778,13.792760537858447 794.7667336533334,13.794276866394497 794.7750525199999,13.797119996371055Z" name="Western" name_en="Western Division" gn_name="Western Division" admin="Fiji" adm0_a3="FJI" iso_3166_2="FJ-W" iso_a2="FJ" postal="W" type="Division" type_en="Division" wikidataid="Q1062451"/><path d="M795.0741699955555,13.16947302156101 794.8857296022221,13.118759034193749 794.8289443022222,13.111001116463536 794.7667336533334,13.094918108821386 794.6480993933332,13.038159715716281 794.5947501466666,13.046105407709684 794.5263907711111,13.01526943751429 794.4998065711111,13.011864383095563 794.3876827266666,13.017539488296315 794.3668855644444,13.01432358642457 794.342833191111,13.003919369247393 794.3280039088888,12.990299712372181 794.3167915244444,12.97668051749569 794.30485576,12.966844719144236 794.1482440711112,12.92750393564109 794.0798846955556,12.896109724446735 794.0303331911111,12.822550955790748 794.0151422177777,12.839757587488112 794.0050149044444,12.815555064550875 794.0035681444443,12.769423026032758 794.000132091111,12.743145247585385 793.9925366044442,12.730479591099833 793.9818667555555,12.719326581443106 793.9724628200001,12.702314107272402 793.9684842333334,12.67169345857368 793.9579952266665,12.659408049094296 793.9176668133332,12.636539276209787 793.9165817444443,12.624254933952768 793.9254431444442,12.603088940211626 793.9156775199998,12.584380632878476 793.9003057022221,12.56453943308408 793.892529371111,12.539975483819495 793.8990397888888,12.52221478445056 793.9286983533333,12.481783753684518 793.9381022888888,12.457980449444973 793.9366555288889,12.428511621174751 793.9261665244444,12.410378019651404 793.9145924488888,12.393945141603057 793.9089862577778,12.370713582548095 793.9236346955555,12.324820985169655 793.9601653666666,12.30669199953599 794.0607151355555,12.299327329598642 794.1203939555554,12.27628998743071 794.1366699955554,12.267604115904117 794.1587330755555,12.240981177031127 794.1619882822221,12.221911912662733 794.1569246266668,12.204731456077818 794.1531268822222,12.18075554330745 794.1531268822222,12.099965168073332 794.1562012466666,12.069955977343026 794.1650626466666,12.064860296953077 794.1797110844444,12.071088361422154 794.2578360844445,12.09354792208112 794.2744738155556,12.092037998495051 794.2985261888888,12.071088361422154 794.3006963266666,12.055046569155804 794.2932816866665,12.0393828374188 794.288218028889,12.020134248263666 794.286047888889,11.99428217441013 794.2766439555555,11.948997787559572 794.2744738155556,11.925980134528901 794.2679633999999,11.904473002347588 794.2516873577778,11.894663103475276 794.2310710377777,11.886551248450726 794.2126248577777,11.869007551275688 794.197614731111,11.81694677767821 794.2269116044444,11.79374789687297 794.2676017088888,11.774699384994834 794.288218028889,11.73377634552367 794.2985261888888,11.718124826133565 794.347896848889,11.706056589416548 794.3668855644444,11.695120051182906 794.3755661199999,11.668157069418744 794.3714066866665,11.642704116015056 794.3721300666665,11.619515007654163 794.3960015933334,11.59858936598178 794.4213198799998,11.627621621383028 794.44338296,11.620457628903448 794.4531485844445,11.59444206587203 794.4428404244443,11.566920132181027 794.4585739311112,11.532614522144211 794.4781051822222,11.503023496885339 794.4987215000001,11.49303464587887 794.5186144400001,11.519420810391756 794.5323586533334,11.519420810391756 794.625132091111,11.440644223778197 794.7157353888889,11.386376206998758 794.7222458066666,11.377332224672973 794.7292987577777,11.372056658534792 794.7309263622224,11.36150572880996 794.7358091755553,11.350578260142912 794.7531702866665,11.345679831188447 794.7674570333332,11.348129038476326 794.783552231111,11.353592704946642 794.7916902511112,11.358868037508355 794.783552231111,11.36150572880996 794.7707122422221,11.379593203017295 794.7779460377777,11.420481323298839 794.793860388889,11.463446437794651 794.8068812222223,11.487757613495333 794.8206254355555,11.473623037718799 794.8068812222223,11.444224654212505 794.7982006666667,11.417277960527663 794.7976581333332,11.390898271748531 794.8068812222223,11.36150572880996 794.8235189555555,11.348694242912352 794.8980270555556,11.306871244561522 794.9114095799999,11.301219810174645 794.997310911111,11.329854536165799 795.00870414,11.317420795242457 795.0137677977776,11.2904822941127 795.0242568022221,11.263357167527499 795.0343841155554,11.252055552110555 795.0524686066666,11.24301447877582 795.0672978888889,11.232655154586034 795.082850551111,11.223991191924595 795.1280617777778,11.215704087931261 795.1367423333334,11.204592095637363 795.1425293711111,11.193292067446722 795.1676668133332,11.18255732171836 795.1776132822222,11.176530917775796 795.1850279244444,11.182180667630076 795.1877405977779,11.211937277988849 795.1859321488888,11.237175554863233 795.1801451111112,11.259401567843971 795.1703794866668,11.28012179595493 795.1559118933332,11.299524394307642 795.1917191866665,11.309131841119331 795.2219202866665,11.290293919588803 795.2495895555556,11.259966649899013 795.2799715000001,11.235103699347734 795.3273528666665,11.266559348829643 795.3924570333332,11.2735288831026 795.4582845799999,11.265617528661714 795.5074743933333,11.252055552110555 795.571493491111,11.221542712194983 795.5986202266665,11.202332066525946 795.622310911111,11.17973243472589 795.6494376466665,11.159958756793552 795.7020635155556,11.157698966176989 795.7364240466666,11.140186011807458 795.80840032,11.151484607698514 795.8912272888889,11.136796491489186 795.9574165244443,11.096124390959448 795.9780328444444,11.029664115951984 796.0259567444443,11.046231132297835 796.0869014777777,11.074848428516225 796.1393465,11.110811082959971 796.1615904244443,11.148094998345162 796.1679199955555,11.17577762308974 796.1921532133333,11.222107745419233 796.1917915244444,11.252055552110555 796.1767813977776,11.276919510742887 796.12090032,11.333434015021835 796.1008265355555,11.36150572880996 796.1245172177778,11.374694433259638 796.1290383422222,11.39278247968234 796.1194535599999,11.411436600718268 796.1008265355555,11.42481532296034 796.1303042555553,11.41935072281376 796.1910681444443,11.347940637939503 796.2304923333334,11.329854536165799 796.2832990466666,11.335694753109502 796.3295953444444,11.352650688460765 796.3657643244444,11.382231025426776 796.3905400777777,11.42481532296034 796.3937952866665,11.444413098285207 796.3872848688889,11.47136154878212 796.3905400777777,11.487757613495333 796.3986780977779,11.491903848248624 796.4388256666667,11.526771540132483 796.4442510155556,11.535253314782047 796.4523890355556,11.54316979329276 796.5455241622221,11.60688408831562 796.5516913407871,11.607713618881798 796.5524939286737,11.625044454318314 796.5483598131768,11.727173405817844 796.528033751978,11.83196261744435 796.5183874838172,11.855319266003493 796.5041477564357,11.871729602934044 796.4855442406961,11.87532319579536 796.4607395537092,11.87149003146894 796.4114746860297,11.851366510989262 796.3925266619976,11.841065564316834 796.3755308582844,11.835196536989258 796.3569273425447,11.832321939196264 796.314897176985,11.833759235588197 796.2925040560393,11.830884649897904 796.27171864712,11.82369827227922 796.2165971204827,11.784175439810445 796.2004051707837,11.776151567483536 796.1835242025019,11.77435520010709 796.1759449920897,11.781899994349468 796.1714663683001,11.790642553159802 796.1690548022592,11.8036968508418 796.1683657816774,11.811242183461577 796.1659542156365,11.82118307083728 796.1594085340984,11.833040587808343 796.1362115571395,11.8516060707571 796.1003825648254,11.863943596402345 796.0290690884895,11.881073004984456 795.905160486989,11.885026049133378 795.8649677063165,11.881073004984456 795.8310909343212,11.871130673490093 795.809386833957,11.857475331685196 795.7900942976355,11.839987572975371 795.7730984939224,11.82094352665747 795.7156802346769,11.727532636397683 795.6679082435924,11.673052697488782 795.6479266906863,11.655572742844207 795.6242703680051,11.647790808970385 795.612557044094,11.659763075815473 795.6086526014583,11.678799693154533 795.6134757355386,11.703345054078532 795.6286341563631,11.747769870866584 795.6311605598339,11.769325411769566 795.6279451377798,11.791001838931384 795.6189878882022,11.812559636770663 795.5872930113853,11.860709451354689 795.5758093583372,11.88263025926146 795.5707565513957,11.905989782083543 795.5669669461896,12.0355094584367 795.569378514229,12.04797233809263 795.573512629726,12.05516263251009 795.5804028195564,12.058398307360951 795.5884413756908,12.057319746241799 795.5996953538795,12.051567467465198 795.6100306406233,12.042939203630405 795.6759467997271,11.969007209856057 795.6962728649227,11.951035477677 795.7170582738422,11.937018070037178 795.7370398267485,11.927433794319386 795.7542653053215,11.924438752765605 795.7673566663989,11.929590235484184 795.7745913685186,11.940252814500903 795.7770029345597,11.958583509479048 795.7735578396445,11.979431174539872 795.7590884374034,12.001238485951736 795.7301496349197,12.029038495177751 795.6862820864711,12.051807145962258 795.6380507516628,12.091715249668884 795.5352720693724,12.204749391429106 795.526314819795,12.219495275716342 795.5218361960057,12.248509061216739 795.5149460041765,12.26577443944763 795.5039217008477,12.282800735983715 795.4951941241316,12.299947652800883 795.4901413171899,12.317215207451662 795.4917490292164,12.332684681793195 795.502773332545,12.34947392073437 795.5190801196738,12.363985176019185 795.5345830487909,12.381855120045698 795.5399803640246,12.401644900085198 795.5287263858361,12.432830747429264 795.5242477620466,12.452143184013583 795.5256257992132,12.470856728113377 795.5374539625521,12.484532556676772 795.5518085273637,12.496529277912451 795.5648998884411,12.51032594080966 795.5719049176998,12.526522626682643 795.5724791008516,12.54247999196594 795.549741469615,12.611355826214393 795.5318269724587,12.626836503816156 795.5121899298434,12.636797251322085 795.4603986606917,12.649518563517676 795.4335269159563,12.652758962135037 795.4118228135939,12.651918856065937 795.2400273835788,12.606675740915811 795.2131556408419,12.603555710612065 795.1852503672327,12.60463571798058 795.1449427491305,12.616876001372011 795.1235831570591,12.633676991001295 795.1098027753997,12.65527928872008 795.0939553359917,12.7014880749758 795.0831607035256,12.722853921643836 795.0518103350008,12.767749893663053 795.0427382519905,12.78491731834257 795.0404415193824,12.804126493566367 795.0431975957142,12.826218174313656 795.0569779773738,12.872806780544765 795.0638681692025,12.889618425572662 795.0719067253372,12.899345483832123 795.083849722109,12.904629418813307 795.1001565092374,12.906550862553228 795.1525219595427,12.908592411938663 795.1642352834535,12.91267553761561 795.1699771109769,12.922042868486558 795.1690584175337,12.936694769697105 795.1183006772562,13.012244612535444 795.1100324482608,13.030263366744778 795.1052093161788,13.046360806370872 795.0990081429334,13.109675660676745 795.091888280242,13.139354192540301 795.0741699955555,13.16947302156101Z" name="Western" name_en="Western Division" gn_name="Western Division" admin="Fiji" adm0_a3="FJI" iso_3166_2="FJ-W" iso_a2="FJ" postal="W" type="Division" type_en="Division" wikidataid="Q1062451"/><path d="M793.54205194,10.901856445511793 793.6002840000001,10.92538219073625 793.6279532711111,10.923123663370477 793.6648456333334,10.901856445511793 793.6952275777777,10.949285694199876 793.6800366044444,10.952109031759855 793.6735261888887,10.960579158000552 793.6708135155557,10.970931768205938 793.6393465000001,11.01648627213071 793.6100496266666,11.044160220119704 793.5818378200001,11.052255664853325 793.5585088266666,11.029664115951984 793.5543493933333,10.991261267297647 793.5644767088888,10.959638024449935 793.5671893822221,10.935169287919646 793.54205194,10.918983058214657 793.54205194,10.901856445511793Z" name="Western" name_en="Western Division" gn_name="Western Division" admin="Fiji" adm0_a3="FJI" iso_3166_2="FJ-W" iso_a2="FJ" postal="W" type="Division" type_en="Division" wikidataid="Q1062451"/><path d="M793.9381022888888,10.521673708242274 793.9464211533333,10.506255372076874 793.9684842333334,10.44270763348271 793.9827709799998,10.470156085194425 793.9836752044444,10.502118839284702 793.9730053555555,10.531827551254288 793.9545591755555,10.553076194306612 793.9371980644443,10.595388599731935 793.8704662933334,10.641654985065662 793.8623282711111,10.679461752495989 793.8525626466666,10.67156155190455 793.8451480044444,10.667235313783427 793.8386375888887,10.66121627549684 793.8317654822223,10.647861835354902 793.8102449377777,10.661404368716967 793.7945114311111,10.67739263893952 793.7861925666667,10.698460455143074 793.7861925666667,10.726866043987885 793.7243436066667,10.712380836415168 793.7243436066667,10.695262593027222 793.7483959799998,10.696203137795683 793.7559914666665,10.695262593027222 793.7474917555555,10.672878242937491 793.7431514777776,10.641278816219197 793.7467683755556,10.612878957005472 793.7635869533333,10.600466370009496 793.7832990466666,10.591439262238913 793.7916179133332,10.569436491267304 793.7950539666666,10.54348596696868 793.8026494533332,10.521673708242274 793.8183829600001,10.50550327200656 793.8679344644443,10.46620791211974 793.8856572644446,10.458499676867154 793.8881890933333,10.468275997996313 793.91423076,10.510391945056337 793.924177231111,10.521673708242274 793.9381022888888,10.521673708242274Z" name="Western" name_en="Western Division" gn_name="Western Division" admin="Fiji" adm0_a3="FJI" iso_3166_2="FJ-W" iso_a2="FJ" postal="W" type="Division" type_en="Division" wikidataid="Q1062451"/><path d="M794.3193233533332,10.029877328166892 794.2509639777777,10.08397175257488 794.2303476577777,10.110082258632948 794.2589211533335,10.125862036885094 794.2516873577778,10.143896779940361 794.2410175088888,10.160617167028656 794.2279966755553,10.175835163198878 794.2119014777776,10.188986950900036 794.2057527511112,10.176398801592693 794.1902000888888,10.155920364119114 794.1623499733333,10.110833663951071 794.1753708066667,10.089419137266193 794.228539208889,10.0614315830432 794.2128057022222,10.025933209704375 794.2404749733334,10.014288877366761 794.28496282,10.018420699798554 794.3193233533332,10.029877328166892Z" name="Western" name_en="Western Division" gn_name="Western Division" admin="Fiji" adm0_a3="FJI" iso_3166_2="FJ-W" iso_a2="FJ" postal="W" type="Division" type_en="Division" wikidataid="Q1062451"/><path d="M794.5793783288888,9.589297554887642 794.6220577266666,9.592299566782932 794.6470143244443,9.610874981162757 794.6533438977777,9.642586356540958 794.6386954600001,9.683495571116891 794.6229619533334,9.708268158022344 794.5866121266666,9.734731346276389 794.5793783288888,9.755002115496172 794.5699743933334,9.766827167342047 794.429819591111,9.879462886942019 794.3983525777777,9.912696025474553 794.3808106222223,9.95269183449843 794.3587475422222,9.942927257041069 794.350609522222,9.936918397839229 794.3403013622224,9.949875107195329 794.3234827866665,9.962268846671694 794.30485576,9.965649019628621 794.288218028889,9.95269183449843 794.2896647888888,9.938420603646687 794.303047311111,9.88171590148552 794.30485576,9.858059844492438 794.3200467333332,9.858059844492438 794.347896848889,9.886221963483111 794.3896720222222,9.86556956468363 794.4732223688887,9.778089422696057 794.5746763622222,9.692128281012016 794.6056008422221,9.64146046988487 794.5793783288888,9.589297554887642Z" name="Western" name_en="Western Division" gn_name="Western Division" admin="Fiji" adm0_a3="FJI" iso_3166_2="FJ-W" iso_a2="FJ" postal="W" type="Division" type_en="Division" wikidataid="Q1062451"/><path d="M788.0353245111111,21.369018566117624 787.9930068022221,21.338829595485784 787.9752840000001,21.298775311796867 787.9866772311109,21.268205663750766 788.0313459222222,21.267044845993585 788.0591960377777,21.286779298186943 788.0693233533331,21.31793111822059 788.0617278666665,21.348698770838887 788.0353245111111,21.369018566117624Z" name="Western" name_en="Western Division" gn_name="Western Division" admin="Fiji" adm0_a3="FJI" iso_3166_2="FJ-W" iso_a2="FJ" postal="W" type="Division" type_en="Division" wikidataid="Q1062451"/><path d="M795.8273890355555,13.50949889339789 795.8391439555556,13.468400152712373 795.8642813977777,13.461582341309537 795.8890571488888,13.482793697337458 795.9022588266666,13.525409224158006 795.8946633422222,13.574848973308235 795.8718768822221,13.608570040436566 795.8376971955556,13.61690602744252 795.7971879355554,13.589056936746845 795.8181659444444,13.58451033253854 795.8263039666665,13.579016588839837 795.8241338266665,13.570870832988687 795.8138256666667,13.55723180291458 795.8230487577777,13.54586630418345 795.8253997422222,13.535448214228408 795.8257614311111,13.52370451492499 795.8273890355555,13.50949889339789Z" name="Central" name_en="Central Division" gn_name="Central Division" admin="Fiji" adm0_a3="FJI" iso_3166_2="FJ-C" iso_a2="FJ" postal="CE" type="Division" type_en="Division" wikidataid="Q1053789"/><path d="M796.5516913407871,11.607713618881798 796.5679489311112,11.609900391490797 796.5912779244444,11.609334834276993 796.6194897311109,11.61442488855823 796.6583713844444,11.642138511718086 796.7176885155554,11.724913363328762 796.7339645555555,11.742262358594706 796.7820693022222,11.747919795894752 796.8289081333331,11.764515393096838 796.8685131666666,11.794690915250069 796.8940122999999,11.838826591041347 796.8961824377777,11.895795002332523 796.8732151355554,11.939564166659357 796.8457267088888,11.978054695380518 796.8316208066668,12.020134248263666 796.8278230644445,12.042213587881061 796.8207701111111,12.06259556862963 796.8171532133332,12.082223620307502 796.8247486999998,12.099965168073332 796.8421098111111,12.115253710718859 796.8833424488888,12.144511160167541 796.8940122999999,12.155459645690415 796.8956399044445,12.183020922696235 796.8880444177778,12.208318524809219 796.8864168133332,12.231729641028219 796.9075756666667,12.251743432388981 796.9347024044445,12.241169985596377 796.9493508422222,12.248911232797985 796.9473615466665,12.265715904997892 796.9242134,12.281954786138591 796.9509784444444,12.292906954215661 796.9667119533333,12.310657645406733 796.9688820911109,12.33445233521476 796.9545953444444,12.362781160643285 796.9462764777777,12.357492963646532 796.9242134,12.346916775575584 796.928734522222,12.3578706887322 796.9394043711111,12.396022824533334 796.869055702222,12.413022453058323 796.8775554133334,12.47913887297687 796.918064671111,12.550934600334855 796.9469998577777,12.584569600868775 796.9905834799999,12.588726930560814 797.0095721955555,12.600821219528267 797.02150796,12.620664196152651 797.0453794866668,12.648067999923905 797.0536983533332,12.660920077962913 797.0546025777777,12.67112643285428 797.0600279244443,12.677363773429185 797.0837186066666,12.679631923027337 797.09746282,12.673961576368852 797.1093985844444,12.659786055200941 797.1184408288889,12.643910063303244 797.1229619533333,12.632192467727414 797.1365253200001,12.632192467727414 797.1310999733334,12.649012991688915 797.1126537933335,12.680766001436096 797.1075901355555,12.695698339408304 797.1065050666666,12.729345373173535 797.1075901355555,12.751085115951858 797.09890958,12.783035209844764 797.0768465000001,12.814420605133117 797.0513473688887,12.840135764823243 797.0301885155557,12.855641285489277 796.9177029822223,12.91199564620941 796.8636303555554,12.966844719144236 796.8636303555554,12.919182340408017 796.7994304133333,12.94603901671944 796.7724845222222,12.95076749265221 796.7985261888888,12.912752134655076 796.8012388622222,12.903296134827356 796.7889414088887,12.881359074634153 796.7795374733334,12.877955154583352 796.7681442444444,12.876820521737727 796.7487938377776,12.862826973377372 796.7269116044444,12.859990502681642 796.6630733533332,12.893462134127223 796.6346807022221,12.903296134827356 796.6395635155557,12.95076749265221 796.6005010155556,12.980463580463766 796.5520345799998,12.993704583852876 796.5283438977777,12.99143466554919 796.5306948799998,12.956630876734193 796.5332267088891,12.943769370077716 796.5292481222222,12.936582236389311 796.4925366044445,12.90178319724857 796.473547888889,12.891192781873873 796.4513039666666,12.886275899380468 796.422007091111,12.88741055888158 796.4279749733334,12.89762264301438 796.429783422222,12.89856821942728 796.4359321488888,12.903296134827356 796.4250814555554,12.925234393645296 796.412784,12.938473574656017 796.3965079599999,12.946417293955172 796.3753491044445,12.95076749265221 796.3764341755555,12.945093328673682 796.3690195333332,12.934312643145098 796.35744546,12.92372137121548 796.3449671599999,12.919182340408017 796.3297761888888,12.922397480678667 796.3031919866667,12.932610455458708 796.2908945333332,12.934880039092846 796.2731717333332,12.942634551563108 796.2597892088891,12.959657172738304 796.2429706333334,12.97668051749569 796.2153013622221,12.984246681394572 796.1870895555556,12.985759929422146 796.1711752044444,12.990678031290985 796.159601131111,13.000136085261339 796.1463994533333,13.01432358642457 796.137538051111,13.02907911828456 796.1257831333332,13.063699998192094 796.116017508889,13.07788974822513 796.0966671022221,13.089241908198037 796.0509133422222,13.10645996670176 796.0315629355554,13.118191375785365 795.9675438377776,13.194264664112467 795.9295664088888,13.228332021893175 795.8883337688889,13.238174244766553 795.8697067444444,13.238174244766553 795.8566859111111,13.253884448131215 795.8067727155554,13.20732347412998 795.6420230044444,13.266566630304462 795.5696850422223,13.253884448131215 795.5365904244444,13.252559468353683 795.5226653666665,13.24915239437237 795.5074743933333,13.238174244766553 795.4931876466666,13.252180904175374 795.4662417555554,13.26845952767882 795.4351364311111,13.275463327453064 795.4090947644445,13.261834426157552 795.3801595799998,13.256723709644225 795.3468841155554,13.276788385618014 795.3201190711112,13.285685308427224 795.3089066866664,13.24593463079217 795.301672888889,13.23571366572154 795.2853968488889,13.240445562497532 795.2676740466665,13.251802338030277 795.2564616622221,13.261834426157552 795.2430791400001,13.268648819770993 795.2304199955556,13.26240228862219 795.1877405977779,13.224168079072646 795.180868491111,13.208459042492501 795.1714645555555,13.195778705721153 795.0741699955555,13.16947302156101 795.091888280242,13.139354192540301 795.0990081429334,13.109675660676745 795.1052093161788,13.046360806370872 795.1100324482608,13.030263366744778 795.1183006772562,13.012244612535444 795.1690584175337,12.936694769697105 795.1699771109769,12.922042868486558 795.1642352834535,12.91267553761561 795.1525219595427,12.908592411938663 795.1001565092374,12.906550862553228 795.083849722109,12.904629418813307 795.0719067253372,12.899345483832123 795.0638681692025,12.889618425572662 795.0569779773738,12.872806780544765 795.0431975957142,12.826218174313656 795.0404415193824,12.804126493566367 795.0427382519905,12.78491731834257 795.0518103350008,12.767749893663053 795.0831607035256,12.722853921643836 795.0939553359917,12.7014880749758 795.1098027753997,12.65527928872008 795.1235831570591,12.633676991001295 795.1449427491305,12.616876001372011 795.1852503672327,12.60463571798058 795.2131556408419,12.603555710612065 795.2400273835788,12.606675740915811 795.4118228135939,12.651918856065937 795.4335269159563,12.652758962135037 795.4603986606917,12.649518563517676 795.5121899298434,12.636797251322085 795.5318269724587,12.626836503816156 795.549741469615,12.611355826214393 795.5724791008516,12.54247999196594 795.5719049176998,12.526522626682643 795.5648998884411,12.51032594080966 795.5518085273637,12.496529277912451 795.5374539625521,12.484532556676772 795.5256257992132,12.470856728113377 795.5242477620466,12.452143184013583 795.5287263858361,12.432830747429264 795.5399803640246,12.401644900085198 795.5345830487909,12.381855120045698 795.5190801196738,12.363985176019185 795.502773332545,12.34947392073437 795.4917490292164,12.332684681793195 795.4901413171899,12.317215207451662 795.4951941241316,12.299947652800883 795.5039217008477,12.282800735983715 795.5149460041765,12.26577443944763 795.5218361960057,12.248509061216739 795.526314819795,12.219495275716342 795.5352720693724,12.204749391429106 795.6380507516628,12.091715249668884 795.6862820864711,12.051807145962258 795.7301496349197,12.029038495177751 795.7590884374034,12.001238485951736 795.7735578396445,11.979431174539872 795.7770029345597,11.958583509479048 795.7745913685186,11.940252814500903 795.7673566663989,11.929590235484184 795.7542653053215,11.924438752765605 795.7370398267485,11.927433794319386 795.7170582738422,11.937018070037178 795.6962728649227,11.951035477677 795.6759467997271,11.969007209856057 795.6100306406233,12.042939203630405 795.5996953538795,12.051567467465198 795.5884413756908,12.057319746241799 795.5804028195564,12.058398307360951 795.573512629726,12.05516263251009 795.569378514229,12.04797233809263 795.5669669461896,12.0355094584367 795.5707565513957,11.905989782083543 795.5758093583372,11.88263025926146 795.5872930113853,11.860709451354689 795.6189878882022,11.812559636770663 795.6279451377798,11.791001838931384 795.6311605598339,11.769325411769566 795.6286341563631,11.747769870866584 795.6134757355386,11.703345054078532 795.6086526014583,11.678799693154533 795.612557044094,11.659763075815473 795.6242703680051,11.647790808970385 795.6479266906863,11.655572742844207 795.6679082435924,11.673052697488782 795.7156802346769,11.727532636397683 795.7730984939224,11.82094352665747 795.7900942976355,11.839987572975371 795.809386833957,11.857475331685196 795.8310909343212,11.871130673490093 795.8649677063165,11.881073004984456 795.905160486989,11.885026049133378 796.0290690884895,11.881073004984456 796.1003825648254,11.863943596402345 796.1362115571395,11.8516060707571 796.1594085340984,11.833040587808343 796.1659542156365,11.82118307083728 796.1683657816774,11.811242183461577 796.1690548022592,11.8036968508418 796.1714663683001,11.790642553159802 796.1759449920897,11.781899994349468 796.1835242025019,11.77435520010709 796.2004051707837,11.776151567483536 796.2165971204827,11.784175439810445 796.27171864712,11.82369827227922 796.2925040560393,11.830884649897904 796.314897176985,11.833759235588197 796.3569273425447,11.832321939196264 796.3755308582844,11.835196536989258 796.3925266619976,11.841065564316834 796.4114746860297,11.851366510989262 796.4607395537092,11.87149003146894 796.4855442406961,11.87532319579536 796.5041477564357,11.871729602934044 796.5183874838172,11.855319266003493 796.528033751978,11.83196261744435 796.5483598131768,11.727173405817844 796.5524939286737,11.625044454318314 796.5516913407871,11.607713618881798Z" name="Central" name_en="Central Division" gn_name="Central Division" admin="Fiji" adm0_a3="FJI" iso_3166_2="FJ-C" iso_a2="FJ" postal="CE" type="Division" type_en="Division" wikidataid="Q1053789"/><path d="M796.29776664,9.858059844492438 796.2890860844445,9.905748773355397 796.3013835377776,9.931285167410595 796.29704326,9.939922816987476 796.2386303555554,9.936918397839229 796.20047208,9.95269183449843 796.1843768822221,9.924900925646696 796.1778664666666,9.842665328894862 796.1917915244444,9.842665328894862 796.2104185488888,9.855055994297524 796.2364602155556,9.859186295710618 796.29776664,9.858059844492438Z" name="Northern" name_en="Northern Division" gn_name="Northern Division" admin="Fiji" adm0_a3="FJI" iso_3166_2="FJ-N" iso_a2="FJ" postal="W" type="Division" type_en="Division" wikidataid="Q1062430"/><path d="M0,9.842703489363032 0.022538775555506388,9.806809493384568 0.1869267955555443,9.630014114402483 0.22743605555555013,9.604683088325839 0.27300897111112793,9.591549061293088 0.3020345799999962,9.599617059049551 0.3206616044444953,9.626636558465846 0.3410970799999059,9.691752943135171 0.34914467777776453,9.73078991886352 0.3502297466666734,9.755002115496172 0.37771817333335117,9.772082849950367 0.39797280222220943,9.788976546338844 0.4096372999999737,9.809249849415954 0.3977919577777233,9.827083633346945 0.3185818888888463,9.905373250393252 0.29660923333338574,9.946307278534007 0.2903700822221576,9.96696353720275 0.2853968488888287,10.02067443971041 0.27707798222224905,10.024430696783336 0.2634241911111532,10.022176937225575 0.24416420888888637,10.029877328166892 0.1085305288889213,10.117784220205838 0.03800101555552195,10.17884125011081 0,10.252164211752302 0,9.842703489363032Z" name="Northern" name_en="Northern Division" gn_name="Northern Division" admin="Fiji" adm0_a3="FJI" iso_3166_2="FJ-N" iso_a2="FJ" postal="W" type="Division" type_en="Division" wikidataid="Q1062430"/><path d="M799.8166468488889,9.540142538367268 799.7406919866668,9.540142538367268 799.7779460377776,9.5277608527168 799.793860388889,9.5262600652372 799.8019984111111,9.518756209883021 799.8003708066668,9.486115935119315 799.8090513622221,9.478987924046676 799.8296676822223,9.477112151234826 799.8546242777777,9.46998428708249 799.8777724266665,9.455353773289575 799.892601708889,9.430220442909665 799.8947718488888,9.477487306535762 799.8831977733332,9.514629143057725 799.8573369533332,9.536765681409584 799.8166468488889,9.540142538367268Z" name="Northern" name_en="Northern Division" gn_name="Northern Division" admin="Fiji" adm0_a3="FJI" iso_3166_2="FJ-N" iso_a2="FJ" postal="W" type="Division" type_en="Division" wikidataid="Q1062430"/><path d="M796.862726131111,9.349953504686503 796.8815340000001,9.362330157850135 796.9003418711111,9.366080727276806 796.9195114311111,9.361580047357085 796.9390426822222,9.349953504686503 796.923851708889,9.374707160671585 796.9025120111111,9.393085778072253 796.8721300666667,9.402087831830547 796.8310782711111,9.398712039398957 796.8149830755553,9.394773649338106 796.8081109688889,9.3912103736995 796.800877171111,9.382958689435826 796.862726131111,9.349953504686503Z" name="Northern" name_en="Northern Division" gn_name="Northern Division" admin="Fiji" adm0_a3="FJI" iso_3166_2="FJ-N" iso_a2="FJ" postal="W" type="Division" type_en="Division" wikidataid="Q1062430"/><path d="M0,9.158571890427536 0.01910272222215307,9.125921412202526 0.07841985111114413,9.08375239298025 0.09098857333325672,9.059389908264505 0.10889221777774491,9.050582263385149 0.19596904222220923,9.024160384854184 0.22743605555555013,9.020037963654664 0.22743605555555013,9.035403545780424 0.2065484688888497,9.039526108046003 0.19732537777777298,9.046272205371526 0.19994762888887233,9.055267160570393 0.21378226444445433,9.067260718458625 0.21378226444445433,9.084314620910785 0.20021889777774216,9.08862505270637 0.19045327111106636,9.093310351425103 0.1786079311111052,9.096871212194682 0.1592575244444547,9.098370531319947 0.14822598666659878,9.108116222968981 0.13900289555552206,9.129857394536542 0.13999754222218783,9.151599636412016 0.1592575244444547,9.16134650755787 0.17336342888883213,9.175967217669799 0.14488035555556292,9.20670978299612 0.10663165777775846,9.234829864284604 0,9.276459856237596 0,9.158571890427536Z" name="Northern" name_en="Northern Division" gn_name="Northern Division" admin="Fiji" adm0_a3="FJI" iso_3166_2="FJ-N" iso_a2="FJ" postal="W" type="Division" type_en="Division" wikidataid="Q1062430"/><path d="M798.5829228888889,8.782501478045617 798.6147515933334,8.787745390877069 798.6436867777778,8.798607977527297 798.6165600422222,8.811156468765935 798.5803910599999,8.815089652311379 798.5416902511112,8.810969175727859 798.5069680288889,8.798607977527297 798.5069680288889,8.782501478045617 798.5829228888889,8.782501478045617Z" name="Northern" name_en="Northern Division" gn_name="Northern Division" admin="Fiji" adm0_a3="FJI" iso_3166_2="FJ-N" iso_a2="FJ" postal="W" type="Division" type_en="Division" wikidataid="Q1062430"/><path d="M0,8.374247104056732 0.027692855555536362,8.348968191344323 0.05997367111113124,8.332690786720798 0.1364710666666658,8.310240160048227 0.11449841111113088,8.358323287399532 0.08493026888887842,8.387138209410102 0.04695283777772886,8.405663064775055 0,8.42138966825646 0,8.374247104056732Z" name="Northern" name_en="Northern Division" gn_name="Northern Division" admin="Fiji" adm0_a3="FJI" iso_3166_2="FJ-N" iso_a2="FJ" postal="W" type="Division" type_en="Division" wikidataid="Q1062430"/><path d="M800,10.249020383308729 799.9977375733332,10.253245619088863 799.9826624733333,10.277302267262515 799.9582484111111,10.298726173317284 799.9262388622222,10.319587322087626 799.8976653666665,10.332179679309421 799.869091871111,10.339321778190994 799.8416034444444,10.33988563403483 799.8166468488889,10.332179679309421 799.8054344644444,10.295719245473602 799.7649252044444,10.259825665463405 799.75588296,10.228444737772776 799.7672761888888,10.194435667203159 799.793860388889,10.166441273520139 799.8470287933334,10.125862036885094 799.9273239311112,10.00790340963072 799.9399830755555,9.97672865851635 799.950110388889,9.938420603646687 799.9982428466666,9.84296897484669 800,9.839510545736216 800,10.249020383308729Z" name="Northern" name_en="Northern Division" gn_name="Northern Division" admin="Fiji" adm0_a3="FJI" iso_3166_2="FJ-N" iso_a2="FJ" postal="W" type="Division" type_en="Division" wikidataid="Q1062430"/><path d="M800,9.276828568500271 799.9982566977778,9.277237387243245 799.9833858533332,9.281138188322782 799.9721734688889,9.2794507545212 799.965663051111,9.26988875291309 799.9653013622222,9.251327817802371 799.9714500888888,9.223956552894164 799.9981116399999,9.161775310526064 800,9.157604683289609 800,9.219895187647827 800,9.276828568500271Z" name="Northern" name_en="Northern Division" gn_name="Northern Division" admin="Fiji" adm0_a3="FJI" iso_3166_2="FJ-N" iso_a2="FJ" postal="W" type="Division" type_en="Division" wikidataid="Q1062430"/><path d="M800,8.419865890752522 799.9977299911112,8.421996727184343 799.8622197644445,8.547150823288233 799.8443161199999,8.553702266803244 799.8047110844444,8.555574124774694 799.7862649044444,8.56287444618053 799.7681804133333,8.580283385740707 799.7477449377778,8.616600994126395 799.7325539666666,8.634199245991063 799.7009061066667,8.662657464917876 799.6849917555554,8.681380967441735 799.6869810488888,8.689806799075805 799.6694390933334,8.70047974919411 799.6403230644444,8.753661064947075 799.5513473688889,8.881397107436866 799.5131890933334,8.908372467966414 799.5133699377777,8.95839362874828 799.4743074377777,9.02697114768882 799.4187880511112,9.087875409068484 799.3685131666667,9.11411368068428 799.3196850422222,9.129482536355239 799.1064688977776,9.273451042673875 799.0929055288889,9.286200526341599 799.0836824377777,9.303637921749738 799.0717466755555,9.336077068385594 799.0683106222222,9.364392966600352 799.0690340000001,9.400587475912072 799.0646937222224,9.4384730184999 799.0476943022223,9.471109733284038 799.0223760155556,9.491743396037288 798.9654098688889,9.528511246087334 798.9413574955555,9.548021977563149 798.9305068022222,9.562280371692015 798.9035609111111,9.604683088325839 798.8903592333334,9.613126599133816 798.8538285599998,9.626824201568054 798.8415311066667,9.636206367608878 798.8639558755556,9.660225637978376 798.8715513622222,9.700385817102108 798.8639558755556,9.743740459614912 798.8415311066667,9.778089422696057 798.8579879933332,9.794983350875425 798.893252751111,9.768704189203053 798.9339428555553,9.757066783235272 798.9713777511112,9.764011649783498 798.9957918133333,9.794983350875425 799.0278013622222,9.769079595934134 799.0782570911111,9.710520282692233 799.1097241044444,9.699259780734904 799.1323297177778,9.695131002619302 799.1601798333332,9.683870901861223 799.1835088266666,9.666230661130454 799.1932744533332,9.64408754481914 799.201955008889,9.61331423641187 799.223475551111,9.601680991069264 799.2486129933332,9.597177882836982 799.2690484688889,9.589297554887642 799.2726653666666,9.580291641022177 799.2802608533332,9.548960015357805 799.2842394400001,9.540142538367268 799.2936433755556,9.536765681409584 799.3211318022222,9.530762440859105 799.3298123577777,9.5262600652372 799.3462692444444,9.499997133653542 799.3692365466666,9.443162053334714 799.38370414,9.42234313101699 799.4046821488888,9.410339876717524 799.4267452266665,9.403775737810623 799.4439254933333,9.394773649338106 799.4509784444446,9.375082225845205 799.4592973111111,9.358579620531744 799.4786477155556,9.347515719712439 799.5131890933334,9.336077068385594 799.5869738155556,9.28845047488184 799.6294723688887,9.251702777495842 799.6484610844445,9.216457874772164 799.6690774044445,9.201460899812428 799.7862649044444,9.145601668536829 799.7976581333331,9.132856259949792 799.8057961533334,9.118049555280617 799.8159234688889,9.105492361014075 799.8318378199999,9.098370531319947 799.8654749733334,9.097246040346741 799.8719853888889,9.106804291191423 799.8719853888889,9.126108838587253 799.8965802977777,9.180840894849583 799.886814671111,9.202585654563789 799.8705386311109,9.21983226502258 799.8582411777778,9.238579344055227 799.8318378199999,9.304200428426089 799.75588296,9.44597549699171 799.7542553555555,9.456854317092185 799.7580530977779,9.484240131695932 799.75588296,9.494744736489569 799.7472024044445,9.49699575479134 799.7193522888888,9.492493727487531 799.7103100422222,9.494744736489569 799.6636520555556,9.555901559143331 799.7222458066667,9.560404240800391 799.7598615466666,9.587233683854945 799.7802970222222,9.630577043709243 799.7862649044444,9.683495571116891 799.8166468488889,9.680868258065551 799.8567944177778,9.68968858368965 799.8882614311111,9.71202170332129 799.892601708889,9.748057393190397 799.8709003200001,9.764011649783498 799.8367206333334,9.757066783235272 799.769627171111,9.73078991886352 799.777584348889,9.744678919581524 799.7934986999998,9.781092739122629 799.8014558755556,9.794983350875425 799.7683612577777,9.78522233289558 799.75588296,9.778089422696057 799.723873411111,9.802867410785055 799.6969275199998,9.792167650450082 799.6842683755556,9.762322347560799 799.693672311111,9.73078991886352 799.614100551111,9.728162319703149 799.5822718488888,9.714649204795986 799.5600279244444,9.683495571116891 799.5128274044445,9.700385817102108 799.4650843488889,9.697383059174046 799.4227666400001,9.687248902372087 799.39184216,9.683495571116891 799.3699599266665,9.693254298894423 799.3330675666667,9.724033269090835 799.3073875888887,9.73078991886352 799.2800800088887,9.73135297871958 799.2583786199999,9.736420541069476 799.2440918711111,9.750497418525484 799.2372197644444,9.778089422696057 799.2263690711111,9.756315993200353 799.223475551111,9.748057393190397 799.2084654244443,9.748057393190397 799.1851364311111,9.794607924017615 799.1041179133333,9.847358720322307 799.0717466755555,9.889601539069547 799.0335883999999,9.85411729524387 798.9887388622222,9.852052164955365 798.8959654244444,9.873830405396781 798.825435911111,9.876083388289224 798.7865542555554,9.885095441850966 798.7516511888889,9.905373250393252 798.6751537933334,9.878711884702778 798.6127622999999,9.875707891094407 798.4375235844445,9.889038275790808 798.4396937222223,9.88359342141887 798.462118491111,9.867447014523938 798.4760435488889,9.83478054447599 798.4964790244444,9.806809493384568 798.5366265933333,9.792730789994241 798.5661043133331,9.777526302173232 798.5530834799998,9.748057393190397 798.5586896711111,9.715024564765262 798.5324671599999,9.69888443669665 798.462118491111,9.683495571116891 798.4065991044445,9.640146937214228 798.3697067444443,9.61931861206367 798.3532498577777,9.628325333157361 798.3293783288889,9.62907590204667 798.1601074955555,9.694755662148186 798.1174280977777,9.722156438160654 798.050877171111,9.778089422696057 798.0653447644445,9.817509615335988 798.0519622422221,9.849423830520202 798.0226653666666,9.87326716035401 797.9904749733333,9.889601539069547 797.9232006666666,9.87082644338716 797.8765426822223,9.928280806047209 797.8219275199999,10.092988151003803 797.87871282,10.058238486755789 797.9036694177778,10.053354976115317 797.9449020555555,10.0614315830432 797.9235623577777,10.089043454303933 797.8606283288889,10.133376422710642 797.8374801822222,10.157423334076197 797.8219275199999,10.157423334076197 797.7929923333335,10.14502397824767 797.7054634,10.118723493308455 797.6765282133332,10.101816891413097 797.6671242777777,10.082656875675031 797.6642307599999,10.064812533796541 797.6562735844444,10.05222802034245 797.6132324955554,10.042085544181278 797.6005733533331,10.027811357070034 797.593882091111,10.00790340963072 797.5933395555556,9.984240439647401 797.5777868933333,9.984240439647401 797.5777868933333,10.029877328166892 797.5434263622224,10.010157092237906 797.5195548333334,10.006400959566793 797.4978534444444,10.014288877366761 797.4703650199999,10.029877328166892 797.3806659444446,10.110082258632948 797.3712620111111,10.13187353457232 797.3491989311112,10.220552889511033 797.3321995111111,10.236148825512714 797.311583191111,10.247235436498764 797.3061578444443,10.260765249522258 797.3354547177778,10.283503814140213 797.2566063377776,10.33763021743099 797.2504576111113,10.346651950621196 797.1864385155556,10.35116288861797 797.1575033288889,10.347779680079956 797.1229619533333,10.332179679309421 797.0931225422223,10.302108993838546 797.0681659444446,10.238591611981677 797.0515282133331,10.164186772058393 797.0453794866668,10.101816891413097 797.0231355644443,10.056735863440238 796.979190251111,10.012974213221591 796.9498933755555,9.960203199479611 796.9697863155557,9.889601539069547 796.9222241044444,9.872703918351716 796.9026928555555,9.856933398513856 796.8940122999999,9.826520449143311 796.7571127044444,9.894483198736545 796.6923702266666,9.906124298951047 796.6346807022221,9.858059844492438 796.6449888622224,9.85299085952893 796.645350551111,9.850737994588856 796.6498716755555,9.842665328894862 796.6249150777776,9.82088865661896 796.6200322644445,9.794607924017615 796.6301595799999,9.780905031668922 796.6498716755555,9.794983350875425 796.6650626466665,9.794983350875425 796.6590947644445,9.75143589310757 796.6811578444444,9.712772416735506 796.7560276355554,9.65196886482163 796.7560276355554,9.699259780734904 796.7744738155554,9.680117599781592 796.7833352155556,9.653845390304928 796.7936433755556,9.638833410815295 796.8178765933334,9.65196886482163 796.8287272888888,9.617066962064843 796.8569390933333,9.562280371692015 796.8636303555554,9.5262600652372 796.8157064555555,9.550648488934488 796.7838777511112,9.548021977563149 796.761814671111,9.522508121428986 796.7421025777776,9.478987924046676 796.8261954600001,9.44785113615519 796.8484393822222,9.44597549699171 796.8648962688886,9.456854317092185 796.8905762466665,9.493994398866073 796.9075756666667,9.509001389441147 796.9307238155554,9.516317483754879 797.00016826,9.5262600652372 797.0687084799999,9.569034509305542 797.0913140933334,9.573162091040281 797.1206109688889,9.566783119240052 797.1310999733334,9.557402448630116 797.1365253200001,9.544269846563466 797.1502695333332,9.5262600652372 797.2739674488888,9.419717391142095 797.3074237577777,9.405088556793247 797.328220922222,9.427407100618435 797.3354547177778,9.494744736489569 797.3643899044445,9.481238863436484 797.371985388889,9.464544679759864 797.3643899044445,9.406588928142662 797.374155528889,9.381833472336059 797.4414298333334,9.28845047488184 797.4452275777776,9.300262887619956 797.4548123577777,9.320700988935203 797.4566208066667,9.336077068385594 797.4743436066666,9.325013735531286 797.4842900777777,9.313200656375326 797.48808782,9.297075378710344 797.487002751111,9.273076064413496 797.5021937222223,9.273076064413496 797.5249801822223,9.302325404368265 797.5502984688887,9.280950693566014 797.5765209799999,9.242891286260045 797.6009350422223,9.222831743483624 797.6242640355555,9.210833950098344 797.6175727733333,9.181590696660153 797.6009350422223,9.145976538128755 797.5933395555556,9.11411368068428 797.602743491111,9.118986673568745 797.6286043133332,9.12685854722656 797.6385507822221,9.131356823540779 797.6504865466665,9.090499166222424 797.6714645555556,9.088812463239062 797.6913574955555,9.104367854184934 797.7002188977776,9.11411368068428 797.7336752044445,9.108491062981683 797.7951624733333,9.08862505270637 797.8982440711112,9.075881290988056 798.014708191111,9.03465399251034 798.0816208066667,9.020037963654664 798.1499801822223,9.023598233511681 798.1724049488888,9.020037963654664 798.1781919866668,9.01216799715338 798.1951914088887,8.979565333624423 798.2027868933333,8.969822477708002 798.2199671599999,8.96382697874129 798.2584871266666,8.957082139196435 798.2718696488888,8.949213292686503 798.3120172177778,8.94715242534334 798.377302231111,8.96457641195794 798.4407787933334,8.972445533905113 798.4760435488889,8.94134458372382 798.5094998577778,8.969822477708002 798.5293927977776,8.960641902303148 798.5471155977779,8.937222934173027 798.5749657133332,8.924108854253493 798.5905183755556,8.931415222770974 798.6046242777778,8.96270283244677 798.6214428555554,8.969822477708002 798.6400698799998,8.967948875987002 798.6498355044442,8.965325846443767 798.6588777511112,8.96457641195794 798.6746112577778,8.969822477708002 798.6711752044444,8.935349470412836 798.6572501466667,8.902752466408252 798.6366338266665,8.876526732077519 798.6136665244444,8.861166664893187 798.6366338266665,8.839438697446404 798.6615904244444,8.831384634604765 798.6856427977775,8.834194174497448 798.7062591155554,8.845432511843486 798.7169289666665,8.80609957293956 798.7364602155554,8.765084642046759 798.7626827266666,8.74485949249537 798.7959581911111,8.767144661785032 798.8113300088887,8.727444129786438 798.8151277511113,8.691117499692227 798.8248933755556,8.66153408036212 798.8579879933332,8.641313630572967 798.9370172177778,8.647679228340548 798.9681225422222,8.63494812360162 798.9339428555553,8.59432334857568 798.963239731111,8.59451055056932 798.9833135155556,8.607989334767273 798.9977811066667,8.63045487908445 799.0097168711111,8.658351170134381 799.0292481222223,8.577288251700148 799.0400988155556,8.547150823288233 799.0509495111111,8.575041912614168 799.0708424488888,8.58777131210245 799.0954373577777,8.596382579420908 799.117319591111,8.611171885886854 799.1366699955555,8.59095371689907 799.1531268822221,8.589268910589361 799.16632856,8.60237312583716 799.1780834799999,8.626897759154033 799.1780834799999,8.591140917481026 799.1867640355555,8.578411424326015 799.2003274044446,8.577662641494994 799.2158800666666,8.579908993750644 799.2296242777777,8.572421201396944 799.2355921599999,8.555574124774694 799.236677231111,8.538727682697246 799.2364963844444,8.531427755313118 799.2518682022222,8.533112343725154 799.2610912933333,8.538727682697246 799.2681442444443,8.544343092138169 799.2766439555555,8.547150823288233 799.3189616622223,8.550520124849063 799.3374078444444,8.544343092138169 799.3450033288888,8.523566427324278 799.3562157133332,8.509154352363751 799.4104691866665,8.486507743342036 799.4764775777777,8.448516415860677 799.4904026355555,8.483326078950427 799.4949237577777,8.535920004403378 799.5131890933334,8.56287444618053 799.5399541400001,8.552204785146031 799.5876971955555,8.508967186088388 799.6195258999999,8.501293415445005 799.643578271111,8.508967186088388 799.6473760155556,8.522256220565742 799.6368870111112,8.536107181948166 799.6195258999999,8.547150823288233 799.643578271111,8.555948496389025 799.6685348688886,8.555574124774694 799.6799280977779,8.56287444618053 799.7070548333334,8.528058597511105 799.7851798333334,8.465172314856023 799.8014558755556,8.44496074190507 799.9625886888888,8.37422739979299 799.9973718088887,8.37422739979299 800,8.374248674419896 800,8.419865890752522Z" name="Northern" name_en="Northern Division" gn_name="Northern Division" admin="Fiji" adm0_a3="FJI" iso_3166_2="FJ-N" iso_a2="FJ" postal="W" type="Division" type_en="Division" wikidataid="Q1062430"/><path d="M793.61059216,0.024477253832091154 793.6201769400001,0.05963061029005674 793.5858164088888,0.08171758504746555 793.5357223688889,0.09294545551147058 793.4964790244443,0.09404984739549238 793.4657353888889,0.08300601924228149 793.4302897888889,0.07509140494859802 793.393578271111,0.07233051885411554 793.3588560488888,0.07730012243502139 793.3480053555554,0.04398618293725083 793.346377751111,0.03220712643292428 793.3796532133333,0.041409493937976 793.4065991044445,0.036440197138033294 793.4660970799999,0 793.5004576111113,0.012146477843905193 793.5803910599998,0.012146477843905193 793.61059216,0.024477253832091154Z" name="Rotuma" name_en="Rotuma" gn_name="Rotuma" admin="Fiji" adm0_a3="FJI" iso_3166_2="FJ-R" iso_a2="FJ" postal="RO" type="Division" type_en="Division" wikidataid="Q459763"/></svg>