<?xml version="1.0"?><svg fill="#3498db" stroke="#ecf0f1" stroke-width="1" width="800" height="280" viewBox="0 0 800 280" xmlns="http://www.w3.org/2000/svg"><path d="M790.1071780378581,140.70276625303288 790.2462741504287,140.86724015660073 790.4626458775789,140.93020244898096 790.6661383672839,141.01629341643655 790.7562932509596,141.25015050743684 790.6429556765822,141.6484719398142 790.0968746162494,142.62496701302626 789.8908062790559,142.85623493156285 789.4580627931047,142.94874133732975 789.0742605360492,142.85109568786612 788.6956099739738,142.6994869739222 788.2577147930425,142.61982770785175 787.5725376201423,142.62496701302626 787.1088838693689,142.56457993298062 786.6297750020091,142.40654480010235 786.5009823110462,141.861763240975 786.8796328731216,141.32981544303428 788.3787799415402,140.043571399588 788.9892573473535,139.63108116228878 789.6177657488895,139.4768768826061 790.1071780378581,139.81997966845805 790.1483916926379,140.01401633351938 790.0968746162494,140.49074698273276 790.1071780378581,140.70276625303288Z" name="Kosrae" name_en="Kosrae" gn_name="State of Kosrae" admin="Federated States of Micronesia" adm0_a3="FSM" iso_3166_2="FM-KSA" iso_a2="FM" wikidataid="Q459848"/><path d="M640.225956485324,90.19482369879304 640.398538710206,90.50672641593114 640.6664275453957,90.62529928646619 640.9832576094781,90.58147897922593 641.3078152160277,90.41135189455778 641.7276794328831,92.05969772542022 641.7405587019791,92.3767158242045 641.4907008625186,92.45532498220024 640.7977961154979,92.39604599238079 640.6586999712754,92.47594368247057 640.7205204692684,92.81614847656725 641.0115919951597,93.40504518922943 641.0734124931516,93.78259697402156 640.9549231921434,94.29027955935017 640.6612758187638,94.58663454559452 640.2800494408519,94.72063662365947 638.7602955292148,94.93581051696727 638.1549698183815,94.89715675274314 637.8304122118308,94.54024892626211 637.1478108547668,94.77217555894329 636.7253707904243,94.4861322103753 636.4214200270878,94.00938115891606 636.1020141155138,93.67435784312835 636.2308068064799,93.25943396163271 636.2771721878875,92.85480761467083 636.1792897300913,92.48109837682526 635.8676113926377,92.16021639399611 635.9577662763135,92.03521230401519 636.1020141155138,91.70787699172537 635.2313754169815,91.65374999871682 635.0047002682236,91.16273169213235 635.2159203003948,90.0878472648592 635.512143521265,89.78238020645544 636.1226209270794,89.77078006366371 636.6635502924313,89.62255523511382 636.7485534811259,88.8968764077112 637.4053962683488,89.17916072045136 637.6140404530296,89.32996790952811 637.9231429429948,89.1533815600881 638.1523939708931,89.17400487300046 638.3790691196521,89.2719653159307 638.6933233045941,89.32996790952811 639.4841105094075,89.29516638090675 639.7777578827862,89.32996790952811 639.800940573492,89.39570388378078 640.3264147906075,89.74113519861417 640.4242972484003,89.76175771700788 640.6277897381043,90.0401587247808 640.5427865494086,90.10718042473093 640.225956485324,90.19482369879304Z" name="Pohnpei" name_en="Pohnpei State" gn_name="State of Pohnpei" admin="Federated States of Micronesia" adm0_a3="FSM" iso_3166_2="FM-PNI" iso_a2="FM" wikidataid="Q7771127"/><path d="M529.9922810212156,279.6967647941109 530.1880459051483,279.7607385270367 530.2936559370615,279.8733322129789 530.1416805553928,280 529.791364379,279.998720531622 529.6909060737155,279.801681721739 529.830002217938,279.71979534854364 529.9922810212156,279.6967647941109Z" name="Pohnpei" name_en="Pohnpei State" gn_name="State of Pohnpei" admin="Federated States of Micronesia" adm0_a3="FSM" iso_3166_2="FM-PNI" iso_a2="FM" wikidataid="Q7771127"/><path d="M527.0403522341339,278.50940532497185 527.2644515354002,278.3955307258156 527.6121918326569,278.46334372432943 527.4190027962084,278.66422342717146 527.0480798082511,278.64119264737127 527.0403522341339,278.50940532497185Z" name="Pohnpei" name_en="Pohnpei State" gn_name="State of Pohnpei" admin="Federated States of Micronesia" adm0_a3="FSM" iso_3166_2="FM-PNI" iso_a2="FM" wikidataid="Q7771127"/><path d="M529.5183238488336,278.3034073731531 529.626509728234,278.50172840865287 529.4925653106393,278.5938515877695 529.2195247804771,278.5682618221039 529.0443667081024,278.40704614314484 529.0546701297112,278.2535071834383 529.2401316236903,278.1972094896062 529.5183238488336,278.3034073731531Z" name="Pohnpei" name_en="Pohnpei State" gn_name="State of Pohnpei" admin="Federated States of Micronesia" adm0_a3="FSM" iso_3166_2="FM-PNI" iso_a2="FM" wikidataid="Q7771127"/><path d="M532.2435774871562,190.82107695052315 532.1637259934383,190.31592889424087 532.6428348607972,189.97488450958426 532.7201104753758,190.47747472462726 532.2435774871562,190.82107695052315Z" name="Pohnpei" name_en="Pohnpei State" gn_name="State of Pohnpei" admin="Federated States of Micronesia" adm0_a3="FSM" iso_3166_2="FM-PNI" iso_a2="FM" wikidataid="Q7771127"/><path d="M529.3972587319868,189.56459985720323 529.4745343465654,190.04540156549464 528.9026947480424,190.36977763250056 528.8254191018119,189.89026383695807 529.3972587319868,189.56459985720323Z" name="Pohnpei" name_en="Pohnpei State" gn_name="State of Pohnpei" admin="Federated States of Micronesia" adm0_a3="FSM" iso_3166_2="FM-PNI" iso_a2="FM" wikidataid="Q7771127"/><path d="M604.4937086453297,127.02449999963643 604.4550708380415,126.95120265077175 604.4009779141655,126.89719389663628 604.38552279758,126.85604422872137 604.4627984121587,126.83289753788006 604.5581049908111,126.87147538122832 604.5555291433227,126.91648274281337 604.5117396410545,126.96277593826107 604.4937086453297,127.02449999963643Z" name="Pohnpei" name_en="Pohnpei State" gn_name="State of Pohnpei" admin="Federated States of Micronesia" adm0_a3="FSM" iso_3166_2="FM-PNI" iso_a2="FM" wikidataid="Q7771127"/><path d="M629.0081119628961,97.18657758558271 629.0982668465708,96.86450779352921 629.1884217618986,96.76402062369681 629.4047934890486,96.72794813992992 629.3841866458343,96.9147511289536 629.3069110312558,97.0152373010148 629.0081119628961,97.18657758558271Z" name="Pohnpei" name_en="Pohnpei State" gn_name="State of Pohnpei" admin="Federated States of Micronesia" adm0_a3="FSM" iso_3166_2="FM-PNI" iso_a2="FM" wikidataid="Q7771127"/><path d="M513.8983446998003,50.95273800442834 514.2151747638901,51.2073803147602 514.3310881857516,52.14705620284601 514.1739610774551,52.735125710140785 514.0451683864965,52.96259136247938 513.7798553987952,53.149988962728784 513.254381181683,52.51411819819851 512.4790490934519,52.18066092382796 511.9613024188058,51.960936171592266 512.1802500250953,51.54603368140807 512.3219219851511,51.014783312921786 512.6361762017493,50.79503811706993 512.8551238080389,50.69679784029105 513.6253041696381,50.63604359667721 513.8983446998003,50.95273800442834Z" name="Pohnpei" name_en="Pohnpei State" gn_name="State of Pohnpei" admin="Federated States of Micronesia" adm0_a3="FSM" iso_3166_2="FM-PNI" iso_a2="FM" wikidataid="Q7771127"/><path d="M428.0889176379316,76.07222600576422 429.15789706788837,75.81419468276292 429.6009439754484,75.9612731278277 430.0362633088881,76.5237692538658 430.054294304613,77.00367905646728 429.85852938902826,77.5790329825776 429.5339717824786,77.83961145621689 429.1682004894971,77.37005067862245 428.9518287623469,77.37005067862245 428.68393992716045,77.57774298130566 428.3207445133193,77.55839288447231 427.9008802964641,77.4422918338187 427.4398023931792,77.37005067862245 427.5351090034826,77.25652811900842 427.63299146127764,77.21008679473027 427.87254587912946,77.1739656610146 428.1661932525102,77.02948018745548 428.99819411210245,76.85403153888787 429.1682004894971,76.63342750507208 429.0316802244139,76.3173513072021 428.3516547464893,76.416690322103 428.0889176379316,76.07222600576422Z" name="Chuuk" name_en="Chuuk State" gn_name="State of Chuuk" admin="Federated States of Micronesia" adm0_a3="FSM" iso_3166_2="FM-TRK" iso_a2="FM" wikidataid="Q221684"/><path d="M437.20744107608334,73.69041348789561 437.4315403773539,73.53685884212476 437.6994292125393,73.5716991244635 438.04459366230435,73.66460611063457 438.50309568644997,73.69041348789561 438.18111392738757,74.06461502883282 437.6479121361561,74.43493548099761 437.05546569441566,74.70460507435327 436.55832586298186,74.77169906492374 436.540294867257,74.38074288021988 436.5763568270558,74.05687301940966 436.77469759013206,73.47362996918403 436.91379373435564,73.49943770641018 437.0039486180303,73.53814925272164 437.20744107608334,73.69041348789561Z" name="Chuuk" name_en="Chuuk State" gn_name="State of Chuuk" admin="Federated States of Micronesia" adm0_a3="FSM" iso_3166_2="FM-TRK" iso_a2="FM" wikidataid="Q221684"/><path d="M493.8968377357281,142.43481133703202 494.0230545792026,142.06734299863066 494.4532222176666,141.68701873347635 494.9452103541226,141.458306618925 495.2568886915762,141.53283109461458 495.16158211292367,141.82450167729942 494.7314144744608,142.10588895284542 494.2291229163982,142.3255994477852 493.8968377357281,142.43481133703202Z" name="Chuuk" name_en="Chuuk State" gn_name="State of Chuuk" admin="Federated States of Micronesia" adm0_a3="FSM" iso_3166_2="FM-TRK" iso_a2="FM" wikidataid="Q221684"/><path d="M356.14788893807247,97.82812029393594 356.15819235968127,97.60654634866697 356.1839508978755,97.41717537633397 356.245771395868,97.2535672634659 356.3925950825568,97.11443454001311 356.46214315467023,97.3334391494794 356.4312328898477,97.50606408396389 356.3153194679782,97.66065193083361 356.14788893807247,97.82812029393594Z" name="Chuuk" name_en="Chuuk State" gn_name="State of Chuuk" admin="Federated States of Micronesia" adm0_a3="FSM" iso_3166_2="FM-TRK" iso_a2="FM" wikidataid="Q221684"/><path d="M436.5763568270558,78.19693145207358 436.4630192526784,77.01657962795106 436.50423290745823,76.50183748686688 436.7618183210349,76.76501630651939 436.8545490838499,77.11720371247685 436.84424566224544,77.49389242031837 436.7360597828449,77.86283108786621 436.5763568270558,78.19693145207358Z" name="Chuuk" name_en="Chuuk State" gn_name="State of Chuuk" admin="Federated States of Micronesia" adm0_a3="FSM" iso_3166_2="FM-TRK" iso_a2="FM" wikidataid="Q221684"/><path d="M352.0316741107312,76.45152332069364 351.87712288157405,76.14963445460694 352.0806153396266,76.13673307653326 352.11152560444964,76.19349906913395 352.06258437555323,76.30961056288402 352.0316741107312,76.45152332069364Z" name="Chuuk" name_en="Chuuk State" gn_name="State of Chuuk" admin="Federated States of Micronesia" adm0_a3="FSM" iso_3166_2="FM-TRK" iso_a2="FM" wikidataid="Q221684"/><path d="M390.7029714687101,38.226840620180816 390.6128165850349,37.892993788991575 390.7622161192153,37.93569563505286 390.77767123580026,38.00945303469173 390.7338817335331,38.1065015526108 390.7029714687101,38.226840620180816Z" name="Chuuk" name_en="Chuuk State" gn_name="State of Chuuk" admin="Federated States of Micronesia" adm0_a3="FSM" iso_3166_2="FM-TRK" iso_a2="FM" wikidataid="Q221684"/><path d="M367.31936811074434,38.25271982610627 367.21118223134323,37.8425277591075 367.2910336934102,37.31326852374095 367.53573983789454,36.925043853203945 367.90666282585335,36.93798487896461 367.9556040547487,37.214919469093275 367.77014256077007,37.62901526352871 367.50225375723505,38.02886281421441 367.31936811074434,38.25271982610627Z" name="Chuuk" name_en="Chuuk State" gn_name="State of Chuuk" admin="Federated States of Micronesia" adm0_a3="FSM" iso_3166_2="FM-TRK" iso_a2="FM" wikidataid="Q221684"/><path d="M381.5458101916192,25.474395898684563 381.7389992597155,25.18163663900473 381.8394575649994,25.1181613000875 382.0146156373693,25.163500877639443 381.93734002279126,25.32672181758733 381.82915414339067,25.38371906984729 381.692633878308,25.41351295507024 381.5458101916192,25.474395898684563Z" name="Chuuk" name_en="Chuuk State" gn_name="State of Chuuk" admin="Federated States of Micronesia" adm0_a3="FSM" iso_3166_2="FM-TRK" iso_a2="FM" wikidataid="Q221684"/><path d="M4.069849445937469,6.370644681743565 3.7298367228017213,6.916930048596808 3.8122640640080117,7.374957825545739 4.232128280862716,7.546226616211047 4.912153758786731,7.241314342488621 4.757602497978125,7.608505507439572 4.38667951001986,8.11450812309736 3.9539360240685513,8.57248482771528 3.613923300932274,8.783951912403053 3.173452240864324,8.63605512042733 2.9364736704971817,7.967899556913843 2.532064570228006,8.11061589627089 2.2358413493588607,8.411611378798666 0.5074432530420178,11.166886760661406 0.13652026508322318,11.593606375153058 0,10.827055503903102 0.291071525891829,9.733556646740926 0.8010906264211808,8.752815899288686 1.3342924176574682,8.328578971273094 1.5558158714348456,8.105426226426395 1.8185529799925502,7.040197240874444 1.975680088290079,6.685962428463768 2.4470613815327926,6.41865663201584 2.6402504496280366,6.641844471075614 2.730405333303744,7.477459937254066 2.7870741363200016,7.168653108376626 2.8849565941123494,6.853349578850543 3.0189009800557183,6.573071956049651 3.183755662468829,6.370644681743565 3.461947887611532,6.164320609144762 3.8328708755703267,5.957992584062254 4.108487284877157,5.956694914122893 4.069849445937469,6.370644681743565Z" name="Yap" name_en="Yap State" gn_name="State of Yap" admin="Federated States of Micronesia" adm0_a3="FSM" iso_3166_2="FM-YAP" iso_a2="FM" wikidataid="Q11342951"/><path d="M77.55896644311163,0.24799232463518145 77.79852089261544,0.02726645264961362 78.09989580846403,0 78.15141288484833,0.11685573969825509 77.89125162377903,0.3544584147984739 77.59760425039933,0.4596251118833398 77.55896644311163,0.24799232463518145Z" name="Yap" name_en="Yap State" gn_name="State of Yap" admin="Federated States of Micronesia" adm0_a3="FSM" iso_3166_2="FM-YAP" iso_a2="FM" wikidataid="Q11342951"/></svg>