<?xml version="1.0"?><svg fill="#3498db" stroke="#ecf0f1" stroke-width="1" width="800" height="1160" viewBox="0 0 800 1160" xmlns="http://www.w3.org/2000/svg"><path d="M232.84855675481808,1110.4192164150743 219.01684222964815,1122.770058818002 210.20683339162747,1139.2374404778009 206.9471294720498,1160 186.7722068514408,1156.2413161579134 167.30208537085602,1150.2452691617507 148.88916451780048,1141.9222954705087 131.797746073071,1131.4512906231266 109.42032232551826,1151.0507120147367 72.68258049127436,1158.7471066021842 32.420835121905526,1156.6887787388127 0,1147.8289339486043 75.06128352712967,1099.679143476982 88.8048981804505,1086.3432755452752 96.46960651896606,1054.2106404771619 90.21450046048075,1028.4316465358543 79.55438781795289,1003.0990917718657 73.8278809906708,973.0208466321693 85.45709438891504,924.050848588808 161.3532810431802,924.0949116596753 225.46461254912896,922.2851663493649 236.14983414226714,965.7175122257055 246.83505573540532,980.1942397834023 218.34113018898722,989.2420116685555 204.0941693628707,1038.097545027279 204.0941693628707,1076.093460394122 220.12200175257797,1101.422696327236 232.84855675481808,1110.4192164150743Z" name="Saint George" name_en="Saint George Parish" gn_name="Saint George" admin="Grenada" adm0_a3="GRD" iso_3166_2="GD-03" iso_a2="GD" type="Parish" type_en="Parish" wikidataid="Q576651"/><path d="M359.4483973970417,1014.378032448567 356.8053947456572,1031.5645698554422 356.1005936055062,1049.5561829916653 344.1189807198837,1069.2478593002875 251.3495774797227,1117.758154438588 251.3495774797227,1101.3796684067233 232.84855675481808,1110.4192164150743 220.12200175257797,1101.422696327236 204.0941693628707,1076.093460394122 204.0941693628707,1038.097545027279 218.34113018898722,989.2420116685555 246.83505573540532,980.1942397834023 286.0142028750702,969.3367284192219 319.8507372709015,983.8133638507842 359.4483973970417,1014.378032448567Z" name="Saint David" name_en="Saint David Parish" gn_name="Saint David" admin="Grenada" adm0_a3="GRD" iso_3166_2="GD-02" iso_a2="GD" type="Parish" type_en="Parish" wikidataid="Q2087806"/><path d="M405.52117675198315,777.5009683961622 398.82914188257945,871.9429486892278 393.6312364517683,887.343022584489 384.1164243084739,902.5636218582227 369.66800851512886,936.226592253337 370.37280965515305,953.4154400127145 382.5306222846005,989.4029407929107 377.0684172381153,996.2062980448069 365.79160549249883,1001.3982800730306 359.4483973970417,1014.378032448567 319.8507372709015,983.8133638507842 286.0142028750702,969.3367284192219 246.83505573540532,980.1942397834023 236.14983414226714,965.7175122257055 225.46461254912896,922.2851663493649 221.90287136899468,898.7579534691794 246.83505573540532,867.9901579444613 277.109850898385,817.3102247451963 291.3568136716393,772.0565263038561 344.782921637294,772.0565263038561 405.52117675198315,777.5009683961622Z" name="Saint Andrew" name_en="Saint Andrew Parish" gn_name="Saint Andrew" admin="Grenada" adm0_a3="GRD" iso_3166_2="GD-01" iso_a2="GD" type="Parish" type_en="Parish" wikidataid="Q977183"/><path d="M234.6649981121518,674.8415987167273 257.78088544701086,646.8042933080866 303.1524363754867,638.7428030771746 352.5765900703994,645.3711472723525 399.44584098563183,674.749910944612 398.0362408707243,681.5569714043786 384.4688259611198,694.4543383102812 402.6174450333785,731.8013339449308 406.49385022123994,763.7727357757575 405.52117675198315,777.5009683961622 344.782921637294,772.0565263038561 291.3568136716393,772.0565263038561 284.2333313113527,726.7992775929481 262.86288812509446,696.0223175011812 234.6649981121518,674.8415987167273Z" name="Saint Patrick" name_en="Saint Patrick Parish" gn_name="Saint Patrick" admin="Grenada" adm0_a3="GRD" iso_3166_2="GD-06" iso_a2="GD" type="Parish" type_en="Parish" wikidataid="Q1476309"/><path d="M163.18494387103414,761.531252352119 234.6649981121518,674.8415987167273 262.86288812509446,696.0223175011812 284.2333313113527,726.7992775929481 291.3568136716393,772.0565263038561 277.109850898385,817.3102247451963 245.05418611897048,791.9685907090173 204.0941693628707,772.0565263038561 163.18494387103414,761.531252352119Z" name="Saint Mark" name_en="Saint Mark Parish" gn_name="Saint Mark" admin="Grenada" adm0_a3="GRD" iso_3166_2="GD-05" iso_a2="GD" type="Parish" type_en="Parish" wikidataid="Q1291077"/><path d="M85.45709438891504,924.050848588808 130.38814379289585,837.73899346728 131.797746073071,799.5929306253978 163.18494387103414,761.531252352119 204.0941693628707,772.0565263038561 245.05418611897048,791.9685907090173 277.109850898385,817.3102247451963 246.83505573540532,867.9901579444613 221.90287136899468,898.7579534691794 225.46461254912896,922.2851663493649 161.3532810431802,924.0949116596753 85.45709438891504,924.050848588808Z" name="Saint John" name_en="Saint John Parish" gn_name="Saint John" admin="Grenada" adm0_a3="GRD" iso_3166_2="GD-04" iso_a2="GD" type="Parish" type_en="Parish" wikidataid="Q1476289"/><path d="M784.7956678306008,165.42346367863135 746.6483258814131,154.12779760303619 710.0867859560808,164.3476962241231 673.9657453901387,182.90440792269442 637.1399036840277,196.88877191609066 644.6284122788451,183.44227312337418 659.1649301092706,148.74882992142796 666.5653366671343,135.30118404787103 659.869729084172,134.22535913848733 637.1399036840277,135.30118404787103 640.3115077317382,126.51521649165663 653.0860216293607,105.17729476146178 699.8671748380117,119.34289688930106 727.8830055409794,81.3280744759553 751.405731952997,29.053497633018548 784.7956678306008,0 798.7154843928512,36.04763323291391 795.0152789487967,76.1277340820896 786.2052701107579,119.70151415636873 784.7956678306008,165.42346367863135Z" name="Carriacou and Petite Martinique" name_en="Carriacou and Petite Martinique" gn_name="Carriacou and Petite Martinique" admin="Grenada" adm0_a3="GRD" iso_3166_2="GD-10" iso_a2="GD" type="Dependency" type_en="Dependency" wikidataid="Q3752183"/></svg>