<?xml version="1.0"?><svg fill="#3498db" stroke="#ecf0f1" stroke-width="1" width="800" height="408" viewBox="0 0 800 408" xmlns="http://www.w3.org/2000/svg"><path d="M21.264042054018688,0 29.47209518885737,0.012713755557970403 58.890447619931685,10.999805279941329 63.635343204095854,11.583970794692773 67.35731322166092,10.589175237195198 75.07239014390309,6.558164286374879 79.41058045701742,6.04570082562231 82.88606230865798,7.832854081776117 83.94781942219267,8.642167442744778 89.93562149294982,13.205059521339436 102.16143025366416,17.444867703395587 106.00664435418099,19.695200161563456 122.32415550058217,32.818924700996625 125.98450341704559,33.73122842764039 138.40750266279537,32.092400083903975 142.47455608879164,32.93719107119831 146.33209460953498,34.88415833205888 150.00476694620994,37.91998323800747 154.15809107527087,39.71823620599508 162.68657865886522,38.05929608470653 166.3099534339026,39.46076003213003 167.39450110162528,41.077261446492656 169.0706201052007,44.891659717490526 170.17981637486446,46.5621037530467 171.90523294009145,47.882229512456526 178.12905704281062,49.834678854666265 181.2717801447155,51.702427548383234 186.57127380410378,57.16872474169987 189.78794330808333,58.95925856739559 194.1507823424052,59.329963803923285 202.88878483125944,58.15882494963758 207.22697502512926,58.643305647801824 214.99134962825354,60.871611261763974 218.73796848625668,61.250668122133206 227.04461686361606,60.30721104029175 230.54474755569467,60.48411594707933 233.9955806861347,61.44019109572404 237.74219954413184,63.301534204234315 241.51346712334148,64.40890884023834 245.33403250266474,64.6194223512718 249.142273342525,63.85313178328149 258.5677273001463,58.600301808822536 256.8944197303915,62.45526128609713 255.5880329078341,66.69076740461429 256.0193871576353,71.35782532299172 256.0810091320421,75.87969763421 254.4048901413322,80.47096294834431 252.02628021344083,84.40884005036416 249.26561361527544,87.54709330258632 246.997923348557,91.25541972630279 240.77409921504383,93.92136528052157 229.18915934037193,96.07039296420336 228.2655159559684,97.28271769803301 226.39151966480185,99.74196968184796 228.49899279807204,102.45596448106994 229.5095939289992,105.84007687439262 230.1627873939014,109.65473071690788 230.3572298897983,110.23434951536132 231.32128126339924,113.1076148779981 231.92517704153525,116.61374566625071 230.08884091737212,119.11796561840404 228.59758806435843,120.0642121999353 227.31585003156414,121.44155186845774 227.22957916016028,123.18702435552368 228.10461184015642,124.67692140337608 229.37402537082824,132.12724342014113 229.213808237375,136.3080238349639 229.69445995945551,140.25307089322465 233.05902233575787,146.01320940295986 233.5029002332018,149.87652156507934 233.86010853922474,152.98441453207033 232.81253422365288,155.86748292898443 230.66808790574402,157.2023410743349 228.1785583166797,159.23765606239016 226.2901100872348,161.99348139909563 226.13270715782227,162.22314642178168 216.75383568270698,171.32005335557923 206.460134272793,177.30285967219217 206.0932261747974,177.51604458123117 200.202161024793,179.50144776283955 198.57934525910747,181.53127118839643 195.9502416808599,184.81888935315513 191.42718532781274,187.65952578451132 190.08222164684105,188.30898937394642 187.24515019194823,189.67883213418025 186.64588248291827,189.9628672315346 180.56176735400524,152.2216289532962 178.48505681602623,145.81184693649885 175.45732920129373,140.40470400507002 171.5174015503883,136.1664000063204 166.64586552187896,133.35522547752626 157.56268267768047,131.67604225690107 155.62183160285232,130.58936104312747 153.70038910792925,128.81748686760463 150.81822530592189,127.21001196910649 147.7904976911894,126.06353931687941 145.4032509478461,125.72088972067735 144.01554243291517,126.12943212303644 141.61859133998962,127.60531686113431 140.1047275922526,127.92154936890657 138.833470079804,127.14412632028004 133.4087914913974,118.891792107324 130.6721915021102,108.90997018510444 125.7230213924606,100.27912010960092 123.67542354547295,95.62710166868946 120.72533001189466,95.71302514629913 116.02847048711574,97.83443941227344 113.02015133304481,96.8035283525583 109.46839396864992,91.34319958398744 107.39168331142643,90.07353953331331 107.35286639009732,89.24023670364664 104.55804089957493,84.4109906966958 103.74288340521679,83.74926675448495 95.04787072828432,80.31420838415639 83.1019326619925,78.66575124125019 77.54139449118958,78.96368540163594 73.69850938209991,79.93687495425712 72.24287113559707,80.0758941734762 70.82604981042334,79.55952713489992 68.53584560889479,77.2554072942823 67.32281371693284,76.74551515350922 66.78907973694068,76.30182137865235 64.75118612028979,74.11617339545356 63.703126620966025,73.30139919581667 62.51920742000939,72.864175763024 58.73454793140439,72.20167886300689 49.166152258873616,67.58947084422527 44.74101189887943,67.07907993074785 41.63565032223823,71.08858436107727 40.432322660613046,69.78981548793287 38.67585243907667,65.40852517335485 37.569567438518725,63.300041096940596 34.86208014022984,60.55435887006028 33.67816105851671,58.783187685578 34.20219080817809,53.62707164449424 32.338973814497166,48.826874345051046 29.718824946942746,44.41633497212965 27.797382452020667,42.030898720260026 24.119469735567197,40.30957078528194 17.588506027344206,38.34197064013746 13.755325148584335,34.49204795720673 12.037671967628548,33.654041516597246 6.535359298067762,32.756098291366975 2.838038120954727,31.22608037560698 0,30.59969563987932 0.6329895541857479,27.76593339001114 8.730123145529703,6.664041770422316 10.356944468235003,4.0633585554171265 13.203881723338304,2.165356773881542 21.264042054018688,0Z" name="Abkhazia" name_en="Abkhazia" gn_name="Abkhazia" admin="Georgia" adm0_a3="GEO" iso_3166_2="GE-AB" iso_a2="GE" postal="AB" type="Avtonomiuri Respublika" type_en="Autonomous Republic" wikidataid="Q23334"/><path d="M283.3978380501446,55.71451839692588 290.5892442877543,56.72630763914498 297.36766646568356,61.30541959514149 300.5103895675944,64.45943255071009 303.9488982778239,67.14523432180195 311.22029654910517,71.22305768677509 313.5249601492179,71.71951977003755 315.21340357301887,71.02109973951796 318.41774853754237,68.00386328983677 320.48824851120753,67.01054063887754 324.22254294899216,66.92214684540549 329.78084907526494,65.2088361863348 334.5257446594371,65.335134668834 339.1104230192384,66.5433077404877 342.4380120667197,68.71091344578365 345.7902500738845,71.90463495376768 349.253407624558,74.16780753614448 359.4210409510702,77.95683111164192 359.4333653712897,80.12193662355332 358.5213594674229,82.8118928551067 358.1886005984407,85.43809826606095 359.2731480276734,87.13950731564397 365.1642132614054,91.24269183034785 377.96310690652444,103.35334364544808 380.3051980941477,104.6390444145477 376.40416611605525,106.22160835419265 372.3371128025724,111.9260590148945 369.68736586557395,114.40213708089026 369.3669312769467,119.46967830832996 367.23480946115933,122.86474187070523 363.90722026950164,122.2745614233937 356.512577871603,119.41106048809493 347.8361974409151,120.58335354984612 334.883248769285,114.73726084191541 333.3426982295052,115.50381415349275 331.9007429560177,116.7393903019098 328.67174903065336,118.1841914782433 321.6961363804325,117.91618619088261 304.7500807646089,113.78212800315785 301.8045482432262,112.39115631787855 298.82204232271897,112.31573660535545 297.34311397182677,115.03048495043953 296.09834912367813,118.01668905705411 294.80428658876235,119.00909947089778 293.3623314225148,119.37756424823853 288.93787033576,119.69995979672676 285.1542783190259,121.83504235796651 282.2087456904032,127.4426835991275 288.75300430530376,133.0806159074283 302.112658329731,140.6792429506745 307.52307175764884,146.19276875312323 304.35569991393226,152.93851242148284 313.4264613025368,171.01598445051135 311.1341220315753,171.12844935776698 308.9650270311443,171.72407570669608 302.97536661484656,172.13641150439625 299.3519918388056,175.83834248999855 297.51565560740147,181.3782694650383 295.70396827300146,182.99263741750264 294.54547418901575,185.51352631928359 294.4345546350897,190.2041853041808 292.8323820136681,193.9908724642393 284.45178727460444,203.63194581837706 279.30018635366616,212.1769667707776 277.932177556701,216.3617480725859 275.7014603673813,218.9737611120759 274.5059932059978,225.67068099846125 274.666210446692,234.08937959097156 272.2013296473968,239.05530576238732 267.4687584741372,239.60140828826488 261.1586635764521,236.42366970293034 253.52985746133606,235.4469758236952 247.50322386040165,231.39848051679013 240.89734327109332,229.7628904440073 226.10805836805918,232.2555064698466 218.46692785806255,232.52046584943102 210.961365798995,233.94036394947977 209.33454449505126,238.3809110465869 208.80459497895765,241.45049025829383 208.17605041106552,242.25289461673603 206.20868403757052,245.66074280858385 202.59042661216142,239.32181308361638 201.3288734492951,238.26629772928865 200.10613732700236,236.91742271839973 199.52388195684733,233.86712670344616 199.29097983263722,228.40948476772715 198.3302586448054,221.16718412276794 192.01278848088646,199.13419098119724 191.54698423246623,198.17257703175244 190.70271404710977,196.97533709899258 187.5003098094013,193.7689087328709 187.08302683189146,192.63659822619928 186.64588248291827,189.9628672315346 187.24515019194823,189.67883213418025 190.08222164684105,188.30898937394642 191.42718532781274,187.65952578451132 195.9502416808599,184.81888935315513 198.57934525910747,181.53127118839643 200.202161024793,179.50144776283955 206.0932261747974,177.51604458123117 206.460134272793,177.30285967219217 216.75383568270698,171.32005335557923 226.13270715782227,162.22314642178168 226.2901100872348,161.99348139909563 228.1785583166797,159.23765606239016 230.66808790574402,157.2023410743349 232.81253422365288,155.86748292898443 233.86010853922474,152.98441453207033 233.5029002332018,149.87652156507934 233.05902233575787,146.01320940295986 229.69445995945551,140.25307089322465 229.213808237375,136.3080238349639 229.37402537082824,132.12724342014113 228.10461184015642,124.67692140337608 227.22957916016028,123.18702435552368 227.31585003156414,121.44155186845774 228.59758806435843,120.0642121999353 230.08884091737212,119.11796561840404 231.92517704153525,116.61374566625071 231.32128126339924,113.1076148779981 230.3572298897983,110.23434951536132 230.1627873939014,109.65473071690788 229.5095939289992,105.84007687439262 228.49899279807204,102.45596448106994 226.39151966480185,99.74196968184796 228.2655159559684,97.28271769803301 229.18915934037193,96.07039296420336 240.77409921504383,93.92136528052157 246.997923348557,91.25541972630279 249.26561361527544,87.54709330258632 252.02628021344083,84.40884005036416 254.4048901413322,80.47096294834431 256.0810091320421,75.87969763421 256.0193871576353,71.35782532299172 255.5880329078341,66.69076740461429 256.8944197303915,62.45526128609713 258.5677273001463,58.600301808822536 259.223635846736,58.23465815740587 262.26776370613214,57.29933941493031 282.4428131347807,55.580144099786445 283.3978380501446,55.71451839692588Z" name="Samegrelo-Zemo Svaneti" name_en="Samegrelo-Zemo Svaneti" gn_name="Samegrelo-Zemo Svanetis Mkhare" admin="Georgia" adm0_a3="GEO" iso_3166_2="GE-SZ" iso_a2="GE" postal="SZ" type="Region" type_en="Region" wikidataid="Q200309"/><path d="M467.7033514926038,164.22409283375174 469.2129947359949,165.3701575143237 471.468360535987,166.48288296022216 473.69907773402406,166.12865804105985 475.46146755991464,164.58242319151628 478.41932447776514,160.48853826603963 480.0276592297509,158.72039490669124 485.22239549613147,156.3012011263542 496.6409559844627,155.75888743838675 500.81211066045347,154.49262609679812 501.0531888132898,155.02893388633473 502.556766168419,159.29186984345174 504.9969981779581,162.65671865571252 510.653899610739,164.21575632196124 514.634682160052,171.29922699933283 516.6805332116754,173.10262675853366 518.5291938379601,175.75091127013488 514.6963041344598,180.52105081058681 512.8722922979372,186.27466011859528 514.2156524123792,187.07732331153457 515.0660361953733,188.71156298808083 515.3125244147172,191.29752509911026 515.842473716323,193.7872339690741 517.4446462305036,195.40375896742188 519.0837920365699,197.57672264626487 519.3426044363155,202.41953256056462 518.9235747958767,207.46752194557558 520.944777057736,211.72893848055637 521.8937561070215,216.76810582452742 519.8479050553981,219.56655190428395 517.3830242560969,221.44832819871263 516.5572891556269,223.57008518264465 515.4973904451736,225.51325513776425 513.9938130900383,226.5281947076973 512.5641823186724,227.81639916859834 510.72784608726926,235.64149440827737 510.46903358028374,243.88232321622453 510.3857148241361,244.1256679430213 509.38448608006723,247.04944411124484 509.8897865919108,249.7196375900502 513.205051281446,251.49661942992373 513.7719738749374,255.6031432463132 515.3803508929208,254.1139811825945 517.2474558051658,252.38499304452262 520.7106133405126,249.80642780458297 524.8023154437595,249.94281067277367 533.3431275307563,251.8643743112505 537.4471540288838,254.1408504245232 537.9210090653648,255.71083640115 538.950731384013,259.12169208871313 539.8504128537722,264.85941869553443 543.7695733214435,269.4720053703977 547.0108916416893,274.4947739259671 545.3963947326272,279.01231137571295 541.008906830517,279.21835540452713 537.6936421409819,282.4073813115549 538.0880229916576,288.53540402442746 535.7710351454149,291.2852205021988 535.795683935177,295.36329100447887 533.873076939603,299.56310105148395 525.5541041749472,299.7687278933609 522.8057619716623,298.6706324705609 520.8831549760883,296.3465560891138 518.7140598684164,295.2892336884774 511.5289322907361,298.78990708614697 505.74878680190574,299.8016277672093 500.12885844652754,298.41151410229253 496.3575909319089,299.0531286129872 492.67259407422614,300.2663274189611 465.0905777402491,297.55596499440435 460.0622209826062,291.46220422656864 452.0267094074521,291.606258226536 447.52830195140797,292.2729964714816 443.4242754532874,289.9186384504707 439.566736960024,288.4407113943446 437.80434709791024,284.22805463604305 434.131674742343,283.6060966713917 430.0522969267387,280.10017606539617 428.88147855511136,278.2663971013726 427.26698164604915,276.9145451205886 426.63843707815704,274.31337097305794 425.51691628605687,272.1115377410547 421.30197012676143,270.14845126614165 413.5622443504714,268.2592393516135 410.2346552660617,268.47375277454756 411.0973635511762,262.28403662572873 415.3985804746356,258.46102511812626 417.2102680235165,252.73205733159918 417.70324414048355,245.9745536666617 421.01850883001975,242.64993689662336 424.8760472160363,239.7462032311719 427.0574667185898,235.6083852896359 428.65963934001735,230.9637293453009 430.5206242539376,229.4150344745339 431.3208781642357,228.56387422107343 431.9379308449089,227.90751993155254 432.6157729923263,223.72339786110186 431.8763087632602,218.6172405201292 432.455513713374,215.78067988620916 432.8499367095497,213.8485997373327 435.2761118546408,212.1230654962646 440.9100969672261,208.1149422822918 450.05480483235885,205.63293785728334 450.1410757037627,200.37636788194044 451.5583820802471,195.1876834723717 448.8593376709694,191.9667729330682 445.06342104487277,192.482188192479 441.7728052523406,194.29840003622454 438.3096477169928,195.1419743447821 433.6756718100196,194.42722622363567 429.4607255434842,191.8503852720845 439.1846803969899,184.02852502762656 455.76100384466,182.718046813536 458.0410186135059,181.62793109791755 460.64146786373817,176.93741488598383 466.9885360533009,172.37797414245543 467.7033514926038,164.22409283375174Z" name="Shida Kartli" name_en="Shida Kartli" gn_name="Shida Kartli" admin="Georgia" adm0_a3="GEO" iso_3166_2="GE-SK" iso_a2="GE" postal="SD" type="Region" type_en="Region" wikidataid="Q200047"/><path d="M405.46010041958954,112.35913355538614 416.60011373807646,115.50787190954473 421.1108455765436,116.64293203179164 429.3188985921438,120.66695272614027 431.31545216372734,122.42093254159701 436.24521369346394,128.28760975367305 438.4512821703204,129.70145527700052 449.5555701219009,132.40727996731283 452.7228903115253,134.01164566919132 454.8797127409648,135.10400860116135 456.210748336108,139.82674982044708 453.4624062042679,143.7369898435233 449.29675765499445,146.71459438845804 445.94451976706813,149.98768036528088 445.5747876374364,154.75761592479617 448.9763232062388,158.9747932668783 454.34976326770374,160.41348192412903 460.17304424985207,160.86381135295056 464.98572408561984,162.1271272720891 467.7033514926038,164.22409283375174 466.9885360533009,172.37797414245543 460.64146786373817,176.93741488598383 458.0410186135059,181.62793109791755 455.76100384466,182.718046813536 439.1846803969899,184.02852502762656 429.4607255434842,191.8503852720845 426.95753652311384,190.9295106289276 419.26844347002054,188.1003137551036 407.10425660698274,189.09409459702238 394.4594181290974,187.7219026761333 383.13329065417213,193.63761947197446 378.9429932846398,197.88414026895504 373.914636419749,199.95273282486167 365.37382443999314,200.7169243422369 359.6922742174481,197.52687028715624 357.1411225467411,197.05326015477982 354.1709411283553,194.6599405117005 352.6550393783386,189.60550006828842 346.60375698764705,183.96196509406744 340.0225252953418,179.77196483447776 337.06466827183755,179.87184614586903 334.4272457297207,182.52666110892324 331.2968471778827,182.27702188777832 328.28969257485926,181.0204104638726 315.533934328567,185.2972374633927 315.4353391695146,181.86094287906835 314.4986844078707,178.8188797601624 314.46171122322505,174.73082187773696 313.4264613025368,171.01598445051135 304.35569991393226,152.93851242148284 307.52307175764884,146.19276875312323 302.112658329731,140.6792429506745 288.75300430530376,133.0806159074283 282.2087456904032,127.4426835991275 285.1542783190259,121.83504235796651 288.93787033576,119.69995979672676 293.3623314225148,119.37756424823853 294.80428658876235,119.00909947089778 296.09834912367813,118.01668905705411 297.34311397182677,115.03048495043953 298.82204232271897,112.31573660535545 301.8045482432262,112.39115631787855 304.7500807646089,113.78212800315785 321.6961363804325,117.91618619088261 328.67174903065336,118.1841914782433 331.9007429560177,116.7393903019098 333.3426982295052,115.50381415349275 334.883248769285,114.73726084191541 347.8361974409151,120.58335354984612 356.512577871603,119.41106048809493 363.90722026950164,122.2745614233937 367.23480946115933,122.86474187070523 369.3669312769467,119.46967830832996 369.68736586557395,114.40213708089026 372.3371128025724,111.9260590148945 376.40416611605525,106.22160835419265 380.3051980941477,104.6390444145477 382.5847584077378,105.89025853931467 405.46010041958954,112.35913355538614Z" name="Racha-Lechkhumi-Kvemo Svaneti" name_en="Racha-Lechkhumi and Kvemo Svaneti" gn_name="Racha-Lechkhumi and Kvemo Svaneti" admin="Georgia" adm0_a3="GEO" iso_3166_2="GE-RL" iso_a2="GE" postal="RK" type="Region" type_en="Region" wikidataid="Q38893"/><path d="M581.130908087466,132.99267842532873 586.3318065043335,134.03376644969651 599.346377324439,143.37777959913464 601.4538503202727,144.4344888964494 603.6352698374398,144.89806906295328 605.8906357566693,144.4846067761391 606.9665565552174,144.00662400561703 610.2904480516478,142.52982529596562 612.5643006608353,142.2499426376318 616.4280012128203,143.7077522110539 619.8665100422942,146.68536548766141 631.6116671298681,160.96805149109008 632.9180538845673,163.14433495734093 633.8628395289735,165.25187281452665 633.836318244724,165.29110036005875 629.9787798587005,170.99515760588199 628.3273097649936,178.2985986079418 628.6970418259062,183.20065564163264 626.8483811996285,187.28109805493898 624.1986343698691,189.66370717723078 623.0401403931243,193.42150590969837 624.5683664307827,199.8447445768702 623.4961433254487,206.06878570343406 621.154506582201,206.96117718708425 618.6526524910142,207.32641217092447 615.5592271238198,210.15653269085698 612.6506676798418,213.79882826048888 610.2104357775507,221.90421205097766 607.9427454035854,225.55468328774617 606.1064091721822,234.72267133056667 604.4549389712355,238.43883631632568 605.8845698498404,244.61837469151737 606.2296532282307,249.1162192105698 608.3740995461467,254.17389890452074 606.525438812621,258.5353523164852 607.6469597119622,263.48101053664806 610.3336798335982,264.44674149011445 613.1806170886886,264.70673011014696 619.0223846591676,266.22938676028326 623.2866283979884,271.39398318600627 613.7105663902953,272.7589428654095 607.1786322775163,268.4902536075862 603.6415283728801,270.67225324332 600.4495076321595,274.1443332975037 604.1961265714889,276.3993101820775 605.7982989784366,281.09728300137374 599.8456119612644,281.45984295489876 593.8559515449735,280.0342483852701 591.292475479385,281.0354815126914 589.2959220072887,283.9726857922542 587.8539667338013,288.4489454902017 585.0440025561097,291.89436037492055 577.7233066347384,288.0825183837518 574.6791787398304,287.819011895404 572.8305182207856,291.12881371657255 569.4536314496017,293.27713675809645 566.0151228112579,293.1701429391795 563.6118638791236,298.6171642720733 561.3072003205206,299.57955133492874 559.8282718623894,302.1249135129998 553.579798939112,305.2861955004292 547.9598707982158,300.2375413885949 542.4015645244783,296.2395946338382 535.795683935177,295.36329100447887 535.7710351454149,291.2852205021988 538.0880229916576,288.53540402442746 537.6936421409819,282.4073813115549 541.008906830517,279.21835540452713 545.3963947326272,279.01231137571295 547.0108916416893,274.4947739259671 543.7695733214435,269.4720053703977 539.8504128537722,264.85941869553443 538.950731384013,259.12169208871313 537.9210090653648,255.71083640115 537.4471540288838,254.1408504245232 533.3431275307563,251.8643743112505 524.8023154437595,249.94281067277367 520.7106133405126,249.80642780458297 517.2474558051658,252.38499304452262 515.3803508929208,254.1139811825945 513.7719738749374,255.6031432463132 513.205051281446,251.49661942992373 509.8897865919108,249.7196375900502 509.38448608006723,247.04944411124484 510.3857148241361,244.1256679430213 510.46903358028374,243.88232321622453 510.72784608726926,235.64149440827737 512.5641823186724,227.81639916859834 513.9938130900383,226.5281947076973 515.4973904451736,225.51325513776425 516.5572891556269,223.57008518264465 517.3830242560969,221.44832819871263 519.8479050553981,219.56655190428395 521.8937561070215,216.76810582452742 520.944777057736,211.72893848055637 518.9235747958767,207.46752194557558 519.3426044363155,202.41953256056462 519.0837920365699,197.57672264626487 517.4446462305036,195.40375896742188 515.842473716323,193.7872339690741 515.3125244147172,191.29752509911026 515.0660361953733,188.71156298808083 514.2156524123792,187.07732331153457 512.8722922979372,186.27466011859528 514.6963041344598,180.52105081058681 518.5291938379601,175.75091127013488 516.6805332116754,173.10262675853366 514.634682160052,171.29922699933283 510.653899610739,164.21575632196124 504.9969981779581,162.65671865571252 502.556766168419,159.29186984345174 501.0531888132898,155.02893388633473 500.81211066045347,154.49262609679812 502.19309996025646,154.07335591906335 503.85851771863855,152.37282256578175 506.0999360426374,150.08368580999095 508.3060042809919,145.52867043117666 511.0913196734826,142.23323295966273 521.6656583902911,142.01182744504572 526.5214735179579,140.43260335612067 535.8017499002929,135.4551566821436 539.2464207610093,134.4852889470298 545.2299189675285,134.02958546429724 550.3198978409083,134.67341711595913 554.8251751339778,136.12533478028317 555.2619839101159,136.266094123734 559.6741206253058,138.7904462347571 561.5351055744726,140.3197920341154 565.0475606867637,144.06695056385195 566.4648672234537,146.24692298607326 569.4103997210916,155.66710834562204 570.8893282396257,157.21472402651435 571.9430646779203,156.08427912241467 573.8718339979142,147.18641932559743 577.3226671283612,139.7139317998375 578.0682936573693,137.10622279448992 581.130908087466,132.99267842532873Z" name="Mtskheta-Mtianeti" name_en="Mtskheta-Mtianeti" gn_name="Mtskheta-Mtianeti" admin="Georgia" adm0_a3="GEO" iso_3166_2="GE-MM" iso_a2="GE" postal="MM" type="Region" type_en="Region" wikidataid="Q203339"/><path d="M633.8628395289735,165.25187281452665 635.1734199230553,168.17465517127246 636.3812114352338,170.045271459402 640.3496696187224,171.68229443794203 645.4273240718627,170.97003493312533 655.0526836241478,168.07465677624413 661.9173767436228,168.23298686448715 671.9124684255386,170.00361345986076 681.21739352906,173.67718411361028 686.0978574971729,179.49715582008838 686.084783258811,179.62903750082467 685.7158009473076,183.35029595486824 671.9987392478337,219.20163216938428 673.1942064590381,222.94010580570338 676.7929323936374,225.26041049293033 681.5871256586918,227.49734059008577 694.6818049121304,236.67183742336235 703.0007777097013,238.82762500633814 704.646085603121,240.4534707389225 708.0229723314854,248.81436724239356 709.2923859447725,250.59564093002626 710.8945584270268,251.4882260292048 713.1376000452893,251.6245862175703 713.987983967306,251.28988067752658 715.5655077283668,250.05013351049297 716.5699466050238,249.80216580086224 717.3402218552324,250.19891108377325 719.3367753075635,251.94688486734432 720.3350520337465,252.46749933649858 722.4918227104623,252.31875519935372 724.1186440331547,251.90143318051966 725.2894624039211,252.70300671122132 726.0905487642992,256.1936544857529 728.974459280073,257.54001968858745 732.6348073157681,257.63087211024214 739.6350688191837,256.18539393138667 739.6720419605958,256.16887296220847 739.7090152212604,256.1482217526919 740.719616367647,255.87149137500035 741.7302175140425,255.77649260025993 742.7346563906985,255.87149137500035 743.8993126109839,256.1936544857529 747.0173868724437,258.71278054851274 752.2244475590428,264.95832987448995 755.6198208581208,266.4933267416755 762.7063533030691,267.0957081743302 765.6272369602481,268.7252588345894 768.529634165973,272.6516033747527 763.9819290668422,282.02412824865627 761.4246152695565,286.16769504169315 756.2976631355331,292.4251415067399 754.5599221500945,293.9806703738954 752.6558016705317,294.9105814870026 750.1724343945732,295.14921760749706 744.5894793086158,293.8736839061608 741.989029980934,294.16172164225264 739.6843665000598,296.60971254455575 738.5566834212066,302.06311168319456 738.6121432525697,310.13090882037363 740.1342071822612,317.2809465045312 743.3447144165233,319.9614284551715 744.3922887043229,319.09948224115686 744.9838601594481,317.6340058546767 745.7726220996007,316.4351960728281 747.4240921434936,316.3695038548146 747.6952290306186,317.2563138813877 750.344975919932,322.32935274129244 750.5210601932757,323.4761950728051 751.4726588795468,329.6717508014323 752.5325575875729,333.1237199722964 754.5845708712811,335.76315460719115 760.8207195134703,340.0733086545216 762.2133770904646,340.7204938903006 764.6412846543055,341.318489417581 770.2242397402679,346.5105658663229 781.8338283246645,351.4135889760176 787.6879202977519,354.9072961215437 789.5735542065953,359.32385827180514 791.4222147355365,358.59607478582745 792.2534807991108,359.14763132375913 792.3958426212545,359.24208747204517 793.1969289816326,360.59939882566505 795.5015924625068,363.1826989510072 799.2482113205169,368.91921648521605 800,371.2227247486225 799.6302677511237,371.41874402052457 798.6443155644178,371.2717298393092 797.5967411573665,372.50494973939743 797.3625775309062,373.72169021306746 797.2331711782149,376.48944036674374 796.9805209810548,377.52613370393226 796.2780298631964,378.5300752913924 794.7005062213732,380.00724160698036 793.9980151035228,380.9864610152962 792.8395211529679,385.23682124167954 792.2109765564446,390.651236187608 791.2126998302756,395.72058394316895 790.5480401367068,396.6557948923756 788.9080363494014,398.9630023519894 786.5663996078626,399.33768829471893 784.298709149162,398.71863460125417 781.9632345581103,398.49055265429456 779.4428939022507,400.0707299596391 778.099533886881,402.59525096213434 777.4340160296861,405.0703086503516 776.3864417418795,406.7145898933355 773.7798302637236,406.82854023531394 771.6415461577074,405.5180350811571 768.3077948405005,401.02360585965044 766.354376799306,399.3051074095762 759.255520172628,396.99160348348244 756.7783148086596,395.5168802518101 749.7534045840583,389.14298893468913 746.2902470333918,384.8126800556062 744.4046131245484,382.969093906081 742.2601668680521,382.21851251154555 733.2941629032304,382.25930636284784 730.638253863437,382.87119497671546 727.5944801643354,384.82554246090103 724.4637274415929,386.83534924042465 722.1097661605982,387.6997556209146 719.2258556448303,387.9606942003867 713.4703589142705,387.2512521022453 695.7725147303321,380.85590366234726 689.7612015695967,377.17636751727537 687.4658663529797,375.7710401788306 682.5361047039846,371.5494213454768 679.6891673296368,367.040084735528 682.3389143381877,363.73851362109974 685.0749320498034,362.76581809233437 686.7756997745853,361.833905358071 686.627806970433,360.8528527902044 683.8424915779353,359.7408794334581 676.078116974812,358.16265080479957 658.9348709853341,351.47905591724344 655.0526836241478,347.8204518475018 653.3272670589198,345.83918422188356 651.5648773522806,345.5198528536622 647.6210680092422,346.7234337395187 645.2178092858543,346.9362971748533 643.362986367943,346.5678768902378 637.6219800022552,343.5942511021661 637.6199103687052,343.57921508849506 637.2501783077915,340.892651689183 636.498389576604,338.8281040325314 635.5001128405523,336.9311374182266 634.6497289503194,332.97218265504495 632.4313362631211,329.8194929185494 628.7093663280288,328.75744407718923 624.8888010194099,328.47448578770775 622.7443545942601,327.06367779671587 621.8816464163865,323.97069961006486 621.2284529514833,319.66193604134077 625.3201551619702,310.24196059518306 623.0401403931243,301.7178629730427 622.115810026362,296.61806859933495 620.0206613952193,292.3347293382512 615.472956252416,291.84908779171843 611.5291468877408,288.980035634258 608.9163732426349,284.6358075811068 605.7982989784366,281.09728300137374 604.1961265714889,276.3993101820775 600.4495076321595,274.1443332975037 603.6415283728801,270.67225324332 607.1786322775163,268.4902536075862 613.7105663902953,272.7589428654095 623.2866283979884,271.39398318600627 619.0223846591676,266.22938676028326 613.1806170886886,264.70673011014696 610.3336798335982,264.44674149011445 607.6469597119622,263.48101053664806 606.525438812621,258.5353523164852 608.3740995461467,254.17389890452074 606.2296532282307,249.1162192105698 605.8845698498404,244.61837469151737 604.4549389712355,238.43883631632568 606.1064091721822,234.72267133056667 607.9427454035854,225.55468328774617 610.2104357775507,221.90421205097766 612.6506676798418,213.79882826048888 615.5592271238198,210.15653269085698 618.6526524910142,207.32641217092447 621.154506582201,206.96117718708425 623.4961433254487,206.06878570343406 624.5683664307827,199.8447445768702 623.0401403931243,193.42150590969837 624.1986343698691,189.66370717723078 626.8483811996285,187.28109805493898 628.6970418259062,183.20065564163264 628.3273097649936,178.2985986079418 629.9787798587005,170.99515760588199 633.836318244724,165.29110036005875 633.8628395289735,165.25187281452665Z" name="Kakheti" name_en="Kakheti" gn_name="Kakheti" admin="Georgia" adm0_a3="GEO" iso_3166_2="GE-KA" iso_a2="GE" postal="KA" type="Region" type_en="Region" wikidataid="Q169674"/><path d="M339.1350718596765,339.1311300956517 336.8920303606584,338.39371227715924 334.6243399019578,335.9024845991943 331.5678877415946,334.0828483218791 332.56616446776263,332.5088465879501 334.9201256295139,330.5164022928694 335.88142921427686,329.3601140008637 336.37440530762285,327.94942866506227 336.62089347354134,326.37447930610017 337.01527444361716,324.7746719325077 337.939604648472,323.28949771389205 335.67191430900994,322.1980438000547 318.9846711522285,320.76174175415076 312.9703619547702,321.2706262449749 310.62804682337327,322.04736190670707 310.11934792125084,322.2160437462706 308.9403781400981,318.87385052749727 305.427923027794,313.2487595380881 302.6302832150768,309.99957063580825 299.5122090728565,307.09454903834825 298.3413907020901,305.10945280687315 297.54030434171096,302.84029628337044 297.8237656490476,299.8304150391451 299.1917745048563,297.7451792085454 299.3026941675956,292.21949437155087 298.13750444121877,288.84110923017255 297.6019264428126,287.28786115775 303.5053160236922,286.6496196212593 306.15506285345174,287.61314283775255 308.8664317648509,288.09487003307885 310.83833633994414,286.46843423335685 311.91055955251903,283.6225728570924 314.56030638227753,281.8223899323045 317.62908306694965,281.74411379667987 324.99907667508614,286.13899752728474 337.5946175734443,282.9223108343007 347.84852183579665,285.1012026879496 353.22196207906984,285.1918080802816 358.32426531324296,283.05824791798466 370.57472294045067,281.9707007478807 372.6082495971926,282.72046172703466 374.6048030692898,283.0211743618033 410.2346552660617,268.47375277454756 413.5622443504714,268.2592393516135 421.30197012676143,270.14845126614165 425.51691628605687,272.1115377410547 426.63843707815704,274.31337097305794 427.26698164604915,276.9145451205886 428.88147855511136,278.2663971013726 430.0522969267387,280.10017606539617 434.131674742343,283.6060966713917 437.80434709791024,284.22805463604305 439.566736960024,288.4407113943446 443.4242754532874,289.9186384504707 447.52830195140797,292.2729964714816 452.0267094074521,291.606258226536 460.0622209826062,291.46220422656864 465.0905777402491,297.55596499440435 459.21183698513227,303.7858396505452 452.0883313818598,304.07770721814114 446.82581090698653,303.20207978227046 444.10211760070575,308.1876249741814 443.35032897675814,324.0691643885889 442.11788863073,327.9495567457223 440.417120850258,329.31103543672896 439.62835893443173,331.83667071463174 443.80633190908253,332.64425007469686 449.04420370142566,332.41879015378294 454.77505161073685,330.9839288542281 460.4566018332829,331.30371541360483 463.5746760974803,334.62398314941044 465.7437710979113,339.2049970797655 466.8529674951309,340.1594572866526 467.3212949295698,342.34250073938887 467.69102699048136,345.7451514066839 467.74032457000857,349.2080569491492 468.6523305418893,352.8620729343673 471.14186013094763,354.4370294990433 472.3989493739788,357.4635373868216 472.86727670118375,360.85298042278197 471.14186013094763,367.83684294920874 471.99224412842756,374.80777940148766 473.5327945609605,377.0854753117118 474.7775594091101,379.60341391186984 476.0469729397829,387.7814270821405 476.05462903969254,387.830730371318 476.00322213755567,387.8433104843156 473.39096770549395,388.48255145608965 462.348301616526,388.71900933851106 457.2336739027161,390.8468843984939 451.6753676571908,395.7368799252232 449.339893066145,396.72274710625425 446.4251715594531,396.96716232837497 426.9772618505981,394.2293795508959 421.91193181767727,394.4249597553898 415.47243065921714,397.04863272439957 414.3016122884518,397.30933383964134 413.1246316479399,397.2848932827077 411.92916443674244,396.98345649078516 413.28484899156325,392.88466553865885 411.5902434172813,389.1592955167499 408.36741164355624,386.16660764663186 405.1137691173951,384.2661646954157 401.35482583916547,383.2546267179481 397.8793438682864,383.4993626661675 386.91062418138813,386.56622678007807 385.1913698859076,385.31838477725717 382.3321080913333,378.3015443976099 379.9226872174504,375.55877597483476 377.5748882061801,375.2730287259066 374.9497900380673,375.5669399971352 371.7084718128802,374.5382134235977 378.16029727232234,371.23089222733637 379.90420052750636,369.7116162963426 381.5125352795001,367.42410919799545 381.3523180551153,366.6070185182638 377.8645116640107,366.14941925719967 374.1856770576032,364.4005476492718 368.4301803270365,359.3483893525927 359.6552045775177,353.36104841185517 357.9297880123037,351.4626892212775 354.3680352191174,344.75833066937855 353.4437050142686,343.7019313385021 352.3838063062424,343.2842547953608 351.80455927134375,342.66180349176904 351.32390747897875,341.9410228194059 350.59676763992076,341.261148910791 347.0843125276156,340.0733086545216 346.17230650450426,339.53259084015417 345.1863541985468,337.7463794004555 344.52083646059845,335.7713504764729 343.6704525385877,334.73861049831044 342.0682800563324,335.7549585727078 339.1350718596765,339.1311300956517Z" name="Samtskhe-Javakheti" name_en="Samtskhe-Javakheti" gn_name="Samtskhe-Javakheti" admin="Georgia" adm0_a3="GEO" iso_3166_2="GE-SJ" iso_a2="GE" postal="SJ" type="Region" type_en="Region" wikidataid="Q19039"/><path d="M293.9478169942116,345.6514400752658 292.3762828348324,345.73274154230717 271.4617691469074,337.57429666598694 265.59535275361446,337.91026508763815 262.73609095903413,337.6726299899879 260.7518619269146,335.8041342049015 259.05109408289513,334.78779087397737 257.23940681462443,334.7304136402183 253.49278795662033,335.8041342049015 251.7920202318314,335.03368982836525 250.11590122825595,334.7550040361024 248.43978234391207,334.99270697541186 246.71436577868508,335.8041342049015 242.49941942928498,337.13997966497516 233.9586075447226,333.8861113164719 229.16441439890588,335.8041342049015 227.52526853673555,337.0662258693175 223.79097409895198,342.41608852020033 219.00910537336773,346.5023786188273 217.8629357238009,347.1655299407172 216.40865616494344,346.5515023221807 211.66376058077128,342.13760435777516 210.08623681970357,341.61337829481766 206.5984305478365,341.179233387351 205.20577285159166,340.6139979702931 204.7004722187816,339.61451958553806 204.72512105921967,338.31996754725594 204.86068956239797,337.1317848956116 204.7004722187816,336.5089579220278 203.7884663149008,336.50076264557356 200.7936361364007,337.86929395235444 197.23188346245198,338.14789464872007 195.71598168324738,337.8610997689726 183.01694394817295,332.5144619074257 190.82886939916733,318.4639470376782 194.34180972298861,313.71145427196586 201.53266288250686,309.0149737465703 203.54144368891392,304.2256931095833 209.13109466995869,295.05503929076815 209.44163075607153,293.18232652463973 209.45133510565378,291.74353726642283 209.62601160937126,290.4795675215911 210.35383079225142,289.06632752389953 212.29468186708056,286.40786535912883 212.9545711991373,285.07188710632255 213.20688178401596,283.63194629411777 213.20688178401596,270.708722506584 228.7947785006972,271.4847113278124 231.9505922969033,273.35546126376886 233.7615132911043,274.4288096708169 234.39005788764158,277.77595949541075 240.2440536292919,280.2236609821275 242.57336595060514,281.74398499455305 244.0315905211633,282.39305733304394 247.67576547562658,285.253583977406 249.1915709041566,285.00223072516906 249.34042828829396,284.94777547018947 252.3097413970535,283.861474842573 258.1145358085023,283.1571100701935 261.91910864485857,285.14881897416967 264.0683940187204,286.39805514893004 267.56735371618305,287.2960961989595 269.7364277065949,286.9482014720035 276.2190853827361,285.908385697469 282.6031267098331,281.9089047815273 285.8444449350132,280.9159980920206 288.51884066477163,281.5092818303148 293.04694185923034,286.2031438826922 294.5743111577119,286.9947095075469 297.6019264428126,287.28786115775 298.13750444121877,288.84110923017255 299.3026941675956,292.21949437155087 299.1917745048563,297.7451792085454 297.8237656490476,299.8304150391451 297.54030434171096,302.84029628337044 298.3413907020901,305.10945280687315 299.5122090728565,307.09454903834825 302.6302832150768,309.99957063580825 305.427923027794,313.2487595380881 308.9403781400981,318.87385052749727 310.11934792125084,322.2160437462706 309.95088293581216,322.2719052978372 307.55994863264175,324.1182681281654 306.3398325809863,326.7846457225616 305.21831189110304,333.246690103221 304.0228446798926,335.8041342049015 301.4347197724493,338.5412001375042 297.86064255903653,343.93942605140194 295.383437433565,345.577169439217 293.9478169942116,345.6514400752658Z" name="Ajaria" name_en="Adjara" gn_name="Ajaria" admin="Georgia" adm0_a3="GEO" iso_3166_2="GE-AJ" iso_a2="GE" postal="AJ" type="Avtonomiuri Respublika" type_en="Autonomous Republic" wikidataid="Q45693"/><path d="M598.1878833738991,367.9551831740773 596.7089547360997,368.9028775169684 594.0099102851557,371.34523719372095 592.5556306070457,372.34161798241644 588.032574348354,372.48861680732347 576.5215808872266,370.6591480859188 574.2045929861399,373.00309592389175 575.1905452920834,375.2322069044126 579.6643039891375,377.3873697078389 580.4703940174503,378.5328271116625 580.9337176024305,379.1911538781013 579.7505746922012,380.83958403424083 576.6201761297473,381.2638893971687 559.1380088823123,380.9048628645095 554.1527875211997,378.92183075229036 551.7372042583468,378.5953689869107 549.17372831058,379.754261301973 547.6331778101759,381.80240554821387 546.1788981320728,384.30695040325264 544.4226704566763,385.87299990715906 541.9762763221369,385.1715698200371 541.3230828851605,383.97250271691354 540.8917287736597,382.35721097550606 540.2631841771224,381.1659743455055 538.9814461436227,381.2067723841675 538.2050086236817,381.80240554821387 535.8017499002929,384.4864057806569 532.9055149643004,385.3265411898678 530.2249569648105,385.1389439535876 527.6183456058922,384.1845927932214 521.2589531192392,380.32549803088983 519.7861867511863,380.15413051202256 518.3750424842278,380.61110461850177 517.4014145984969,381.4841949633621 516.5448684067546,382.4714318685898 515.4418342875779,383.22199475381365 512.6380324436183,383.6869898892768 510.43196408602023,382.84672017728974 504.66414305447853,378.840216325138 501.42898697978643,377.5016461414684 500.15957324726185,377.5179712422645 498.74226682981543,378.52191362918063 498.43415668202783,379.69713587848304 498.35404812946416,381.0354194361654 497.7439901036394,382.5774930550577 495.87068061501566,384.4456207863396 493.5290438734909,385.70988100596827 491.01486536811126,386.16660764663186 485.961859755402,384.74742609395736 483.58324975320664,385.00028310032656 478.7890566073899,387.16154898304353 476.05462903969254,387.830730371318 476.0469729397829,387.7814270821405 474.7775594091101,379.60341391186984 473.5327945609605,377.0854753117118 471.99224412842756,374.80777940148766 471.14186013094763,367.83684294920874 472.86727670118375,360.85298042278197 472.3989493739788,357.4635373868216 471.14186013094763,354.4370294990433 468.6523305418893,352.8620729343673 467.74032457000857,349.2080569491492 467.69102699048136,345.7451514066839 467.3212949295698,342.34250073938887 466.8529674951309,340.1594572866526 465.7437710979113,339.2049970797655 463.5746760974803,334.62398314941044 460.4566018332829,331.30371541360483 454.77505161073685,330.9839288542281 449.04420370142566,332.41879015378294 443.80633190908253,332.64425007469686 439.62835893443173,331.83667071463174 440.417120850258,329.31103543672896 442.11788863073,327.9495567457223 443.35032897675814,324.0691643885889 444.10211760070575,308.1876249741814 446.82581090698653,303.20207978227046 452.0883313818598,304.07770721814114 459.21183698513227,303.7858396505452 465.0905777402491,297.55596499440435 492.67259407422614,300.2663274189611 496.3575909319089,299.0531286129872 500.12885844652754,298.41151410229253 505.74878680190574,299.8016277672093 511.5289322907361,298.78990708614697 518.7140598684164,295.2892336884774 520.8831549760883,296.3465560891138 522.8057619716623,298.6706324705609 525.5541041749472,299.7687278933609 533.873076939603,299.56310105148395 535.795683935177,295.36329100447887 542.4015645244783,296.2395946338382 547.9598707982158,300.2375413885949 553.579798939112,305.2861955004292 559.8282718623894,302.1249135129998 561.9727181802982,302.7046239604246 562.3547747433323,304.9409277428187 563.9939204421577,307.152082273654 567.5310244540348,306.9671529463653 577.2549792002994,311.9754969860299 580.2005118289221,312.217839957837 583.1090711656601,312.92840527436505 586.5599043061254,314.64095120297907 591.1322582386919,314.9201880352717 595.6183412998485,313.4417886075234 599.0075524659129,308.4506030687073 597.8737071716903,304.5381006458077 595.9387758884817,306.05067507481937 594.3489276619357,308.2944605162032 591.6252343556539,309.00530026338146 588.8522434698459,308.2944605162032 586.7570948387042,307.2548194934641 584.9330830021817,305.63967182713924 584.378484803572,302.86496372250633 583.552749703096,300.07304787313853 581.272734934256,297.95906917651695 581.5438718361172,295.21929006010345 585.0440025561097,291.89436037492055 587.8539667338013,288.4489454902017 589.2959220072887,283.9726857922542 591.292475479385,281.0354815126914 593.8559515449735,280.0342483852701 599.8456119612644,281.45984295489876 605.7982989784366,281.09728300137374 608.9163732426349,284.6358075811068 611.5291468877408,288.980035634258 615.472956252416,291.84908779171843 620.0206613952193,292.3347293382512 622.115810026362,296.61806859933495 623.0401403931243,301.7178629730427 625.3201551619702,310.24196059518306 621.2284529514833,319.66193604134077 621.8816464163865,323.97069961006486 622.7443545942601,327.06367779671587 624.8888010194099,328.47448578770775 628.7093663280288,328.75744407718923 632.4313362631211,329.8194929185494 634.6497289503194,332.97218265504495 635.5001128405523,336.9311374182266 636.498389576604,338.8281040325314 637.2501783077915,340.892651689183 637.6199103687052,343.57921508849506 637.6219800022552,343.5942511021661 635.3952591292903,342.44066023604233 631.4945853166419,342.2358938653776 627.667857906075,343.57089743448057 609.5679424435897,358.54908763238257 598.1878833738991,367.9551831740773Z" name="Kvemo Kartli" name_en="Kvemo Kartli" gn_name="Kvemo Kartli" admin="Georgia" adm0_a3="GEO" iso_3166_2="GE-KK" iso_a2="GE" postal="KK" type="Region" type_en="Region" wikidataid="Q200048"/><path d="M297.6019264428126,287.28786115775 294.5743111577119,286.9947095075469 293.04694185923034,286.2031438826922 288.51884066477163,281.5092818303148 285.8444449350132,280.9159980920206 282.6031267098331,281.9089047815273 276.2190853827361,285.908385697469 269.7364277065949,286.9482014720035 267.56735371618305,287.2960961989595 264.0683940187204,286.39805514893004 261.91910864485857,285.14881897416967 258.1145358085023,283.1571100701935 252.3097413970535,283.861474842573 249.34042828829396,284.94777547018947 249.1915709041566,285.00223072516906 247.67576547562658,285.253583977406 244.0315905211633,282.39305733304394 242.57336595060514,281.74398499455305 240.2440536292919,280.2236609821275 234.39005788764158,277.77595949541075 233.7615132911043,274.4288096708169 231.9505922969033,273.35546126376886 228.7947785006972,271.4847113278124 213.20688178401596,270.708722506584 213.20688178401596,270.0202327007728 211.78035634775594,259.96684064550243 211.57656691454414,256.3381453982815 211.03312858496972,254.12647313270585 206.20868403757052,245.66074280858385 208.17605041106552,242.25289461673603 208.80459497895765,241.45049025829383 209.33454449505126,238.3809110465869 210.961365798995,233.94036394947977 218.46692785806255,232.52046584943102 226.10805836805918,232.2555064698466 240.89734327109332,229.7628904440073 247.50322386040165,231.39848051679013 253.52985746133606,235.4469758236952 261.1586635764521,236.42366970293034 267.4687584741372,239.60140828826488 264.7327407729669,243.81615855561805 267.6289757148304,248.03741535453582 273.5446896545919,249.07488781687752 275.71378476226283,249.72377050173696 277.7103382343601,249.09142036589586 281.33371301040705,246.7352573207816 285.58563246158013,247.76046254767033 287.92726920483386,251.56273359671815 289.4678197446067,256.24747636094986 292.91865288507296,258.2958517679158 297.17057222901207,259.5593601434218 300.22702451880167,261.8588701361425 303.5053160236922,263.4603742340106 305.7730062904167,264.88417885536364 308.1762651153111,266.0395830529948 311.94753273716367,265.7424918050886 315.55858311832316,266.74926578934503 317.38259495484465,273.67018827452983 317.62908306694965,281.74411379667987 314.56030638227753,281.8223899323045 311.91055955251903,283.6225728570924 310.83833633994414,286.46843423335685 308.8664317648509,288.09487003307885 306.15506285345174,287.61314283775255 303.5053160236922,286.6496196212593 297.6019264428126,287.28786115775Z" name="Guria" name_en="Guria" gn_name="Guria" admin="Georgia" adm0_a3="GEO" iso_3166_2="GE-GU" iso_a2="GE" postal="GU" type="Region" type_en="Region" wikidataid="Q19038"/><path d="M574.6791787398304,287.819011895404 577.7233066347384,288.0825183837518 585.0440025561097,291.89436037492055 581.5438718361172,295.21929006010345 581.272734934256,297.95906917651695 583.552749703096,300.07304787313853 584.378484803572,302.86496372250633 584.9330830021817,305.63967182713924 586.7570948387042,307.2548194934641 588.8522434698459,308.2944605162032 591.6252343556539,309.00530026338146 594.3489276619357,308.2944605162032 595.9387758884817,306.05067507481937 597.8737071716903,304.5381006458077 599.0075524659129,308.4506030687073 595.6183412998485,313.4417886075234 591.1322582386919,314.9201880352717 586.5599043061254,314.64095120297907 583.1090711656601,312.92840527436505 580.2005118289221,312.217839957837 577.2549792002994,311.9754969860299 567.5310244540348,306.9671529463653 563.9939204421577,307.152082273654 562.3547747433323,304.9409277428187 561.9727181802982,302.7046239604246 559.8282718623894,302.1249135129998 561.3072003205206,299.57955133492874 563.6118638791236,298.6171642720733 566.0151228112579,293.1701429391795 569.4536314496017,293.27713675809645 572.8305182207856,291.12881371657255 574.6791787398304,287.819011895404Z" name="Tbilisi" name_en="Tbilisi" gn_name="K'alak'i T'bilisi" admin="Georgia" adm0_a3="GEO" iso_3166_2="GE-TB" iso_a2="GE" postal="TB" type="K'alak'i" type_en="Independent City" wikidataid="Q994"/><path d="M429.4607255434842,191.8503852720845 433.6756718100196,194.42722622363567 438.3096477169928,195.1419743447821 441.7728052523406,194.29840003622454 445.06342104487277,192.482188192479 448.8593376709694,191.9667729330682 451.5583820802471,195.1876834723717 450.1410757037627,200.37636788194044 450.05480483235885,205.63293785728334 440.9100969672261,208.1149422822918 435.2761118546408,212.1230654962646 432.8499367095497,213.8485997373327 432.455513713374,215.78067988620916 431.8763087632602,218.6172405201292 432.6157729923263,223.72339786110186 431.9379308449089,227.90751993155254 431.3208781642357,228.56387422107343 430.5206242539376,229.4150344745339 428.65963934001735,230.9637293453009 427.0574667185898,235.6083852896359 424.8760472160363,239.7462032311719 421.01850883001975,242.64993689662336 417.70324414048355,245.9745536666617 417.2102680235165,252.73205733159918 415.3985804746356,258.46102511812626 411.0973635511762,262.28403662572873 410.2346552660617,268.47375277454756 374.6048030692898,283.0211743618033 372.6082495971926,282.72046172703466 370.57472294045067,281.9707007478807 358.32426531324296,283.05824791798466 353.22196207906984,285.1918080802816 347.84852183579665,285.1012026879496 337.5946175734443,282.9223108343007 324.99907667508614,286.13899752728474 317.62908306694965,281.74411379667987 317.38259495484465,273.67018827452983 315.55858311832316,266.74926578934503 311.94753273716367,265.7424918050886 308.1762651153111,266.0395830529948 305.7730062904167,264.88417885536364 303.5053160236922,263.4603742340106 300.22702451880167,261.8588701361425 297.17057222901207,259.5593601434218 292.91865288507296,258.2958517679158 289.4678197446067,256.24747636094986 287.92726920483386,251.56273359671815 285.58563246158013,247.76046254767033 281.33371301040705,246.7352573207816 277.7103382343601,249.09142036589586 275.71378476226283,249.72377050173696 273.5446896545919,249.07488781687752 267.6289757148304,248.03741535453582 264.7327407729669,243.81615855561805 267.4687584741372,239.60140828826488 272.2013296473968,239.05530576238732 274.666210446692,234.08937959097156 274.5059932059978,225.67068099846125 275.7014603673813,218.9737611120759 277.932177556701,216.3617480725859 279.30018635366616,212.1769667707776 284.45178727460444,203.63194581837706 292.8323820136681,193.9908724642393 294.4345546350897,190.2041853041808 294.54547418901575,185.51352631928359 295.70396827300146,182.99263741750264 297.51565560740147,181.3782694650383 299.3519918388056,175.83834248999855 302.97536661484656,172.13641150439625 308.9650270311443,171.72407570669608 311.1341220315753,171.12844935776698 313.4264613025368,171.01598445051135 314.46171122322505,174.73082187773696 314.4986844078707,178.8188797601624 315.4353391695146,181.86094287906835 315.533934328567,185.2972374633927 328.28969257485926,181.0204104638726 331.2968471778827,182.27702188777832 334.4272457297207,182.52666110892324 337.06466827183755,179.87184614586903 340.0225252953418,179.77196483447776 346.60375698764705,183.96196509406744 352.6550393783386,189.60550006828842 354.1709411283553,194.6599405117005 357.1411225467411,197.05326015477982 359.6922742174481,197.52687028715624 365.37382443999314,200.7169243422369 373.914636419749,199.95273282486167 378.9429932846398,197.88414026895504 383.13329065417213,193.63761947197446 394.4594181290974,187.7219026761333 407.10425660698274,189.09409459702238 419.26844347002054,188.1003137551036 426.95753652311384,190.9295106289276 429.4607255434842,191.8503852720845Z" name="Imereti" name_en="Imereti" gn_name="Imereti" admin="Georgia" adm0_a3="GEO" iso_3166_2="GE-IM" iso_a2="GE" postal="IM" type="Region" type_en="Region" wikidataid="Q200045"/></svg>