<?xml version="1.0"?><svg fill="#3498db" stroke="#ecf0f1" stroke-width="1" width="800" height="208" viewBox="0 0 800 208" xmlns="http://www.w3.org/2000/svg"><path d="M460.1802811901306,0 465.8645383140483,0.2810016619528766 481.68160159226437,6.280089946269258 508.51019685101414,7.4882676278545794 518.2173700670028,10.712302542325476 523.2533590819268,14.785882114557442 527.5950214966743,18.29761291710051 530.9588934847606,22.93262969220667 533.3341987854718,27.939468557448002 538.49671261611,45.5690845046903 540.3365446487418,47.63994330659986 551.251965742978,54.24517923879911 554.9728202639956,55.58579689789528 558.2543116062396,54.532958187955835 574.5656579624498,45.41464507238526 585.3300485368545,42.52936249240236 596.2591998715527,43.35775377719309 607.6689043094423,48.69289623660042 612.8108229122146,52.81328429276279 616.4012410785484,57.312413994134864 618.9275776961489,62.50602107542147 622.4768059381089,74.30235497355841 624.1999323879069,77.94397051979422 626.8841647784283,80.8697423220867 629.0469691914248,82.41692384840712 629.0194084371893,82.43452810297494 624.9553018252274,85.0303608455447 623.9049497347687,86.15986621634376 622.6349163737237,87.83654821657542 622.0994431572194,89.8569268195427 620.7813543390305,93.49064199845532 619.717272527582,95.25130613458693 618.6394605172428,96.42973157484074 613.9849598932448,99.57910817992149 620.4518324331659,113.4373365070966 622.0101975813201,114.45414368898443 618.1932326376966,116.64898985065672 617.1291505872904,116.01087935645349 615.9140377828489,115.5410575914422 614.0261502509439,116.74014797730439 612.193183514572,118.37396043744654 606.3098398872426,131.47802503856394 605.1413221143371,134.9537252740604 597.5360978894518,127.88128840931803 594.5017482190643,126.80159319220493 585.8929820201964,128.96096587915312 576.0485077278183,130.11774279217468 566.3413345118292,128.96096587915312 557.4579664258409,125.21006143398358 550.0437181304202,118.59812424391652 544.6889830584887,111.12995743835006 541.8468546293723,109.37674119089522 536.4097391773118,108.3388146638396 531.5355572085957,106.75384046808293 522.6521891226074,101.31133087734223 518.6567332458285,100.14000891231436 508.4827366357516,99.31235547916657 499.50325792912065,96.96260297743285 482.1346947458618,88.09589505662673 482.09350429010664,88.06783414158161 482.03858385952816,88.02574220292458 481.9973936694412,88.01171146007391 468.80277762946776,78.44914945213085 456.87132963262343,67.25709800088207 449.56692193263916,62.50602107542147 443.4982223261435,64.94827317533209 437.9610769316769,70.6891591403932 437.84163982831933,70.59759600888154 437.2924364129402,70.17656217759459 435.7478012247335,69.9169231064916 433.69515297884686,70.40111377029382 430.4685818083173,72.77991050221536 423.850678514332,75.83923516096776 407.0725090488748,85.64071702287929 406.4430869203559,87.9817154662132 405.9241543246291,87.98171549896131 390.2737445240241,76.62509296121902 387.1501488893419,68.99765210700666 387.5963767688886,56.44231205925764 388.39958719099496,52.62398581069297 385.3583722717407,50.92531846808014 376.1660769974123,50.41290139518108 374.1408891492913,50.60944545328049 369.5069838236151,50.476076320029854 357.52061529837033,48.665037235371315 353.8163200867367,48.50270660014424 354.14279870433836,46.65015160939449 356.2297726745255,40.675972635173416 358.9757902173011,34.98909706467595 361.9277597732354,30.36198949815147 370.20700365440445,21.422775271727843 381.4382169816274,13.177628760785176 393.7403773304482,8.520819728200507 405.2461926546797,10.361108499580258 407.7313388165184,12.721094152114873 412.88012240666404,19.55471947919393 415.1318571371676,21.254230929273103 420.78865404579153,19.912884600706814 440.80712468255734,7.123007115591207 460.1802811901306,0Z" name="Central River" name_en="Central River Division" gn_name="Central River Division" admin="Gambia" adm0_a3="GMB" iso_3166_2="GM-M" iso_a2="GM" postal="MC" type="Division" type_en="Division" wikidataid="Q824431"/><path d="M348.4585415804218,64.372808607975 352.6324889893754,62.96921396550053 353.1679625231535,52.18155576727082 353.8163200867367,48.50270660014424 357.52061529837033,48.665037235371315 369.5069838236151,50.476076320029854 374.1408891492913,50.60944545328049 376.1660769974123,50.41290139518108 385.3583722717407,50.92531846808014 388.39958719099496,52.62398581069297 387.5963767688886,56.44231205925764 387.1501488893419,68.99765210700666 390.2737445240241,76.62509296121902 405.9241543246291,87.98171549896131 405.85928773318926,87.9817154662132 405.35116627747345,92.05819206164425 403.40516951829915,95.6704630664335 400.6267182445216,98.27735759456785 397.6969117735352,99.27148435323163 392.70218628007746,98.68605609607661 383.58843380822964,96.13440959805966 379.46940682982455,95.55999882747727 375.6747129103201,94.21232315696005 371.29621953794435,91.0750006274305 364.8636184753389,85.2860165709248 362.5284222580527,84.18118891693668 360.17160364200726,84.62312216044697 357.8580295577914,85.5732684011657 355.72824387040623,86.12567272619135 353.32818098820496,85.55117219409361 351.28488436451005,84.26957586428826 349.6848422659112,82.9879538467072 348.5388662903382,82.4134253937145 344.8630943684399,81.57372048359153 341.85761016598707,80.00476856348617 338.3764377074536,79.25342587807079 333.14386821878594,80.72295559908557 330.44109467645865,82.85537085770298 326.53828956019413,88.15847873744946 323.88957161624774,89.83770465719006 319.3489119801266,90.05865212899369 312.2027786662139,86.67807200980938 307.56481916557215,86.12567272619135 302.7646934011702,87.2194187078879 291.06708938458667,93.5274276989852 281.5857598533882,96.42161305440419 196.47001513764425,103.09320678994973 188.058983850553,100.07782049593453 182.82641409621002,99.27148435323163 177.83168860275342,100.35396075354775 173.03156283835142,102.96066511428359 165.57190779777798,108.52717184225021 154.43648083529067,119.79124862909175 151.90668462325942,121.67944551499288 149.87419906609972,122.57383515513362 147.90657990814907,124.23007989426254 145.8957164840598,125.00297945346827 143.62538666599926,123.34675479443302 143.47403120309772,121.34818693974826 144.2632411858553,118.53242002326357 144.74974050850182,115.35211212349176 143.62538666599926,112.23790873410223 139.13878236256758,116.34597535657801 138.58741664071144,118.59867487252319 140.17664740707028,121.67944551499288 137.51711839658864,123.0596714285984 136.38195348756588,123.34675479443302 136.38195348756588,125.20172361499284 137.64685146072938,125.58816887688997 138.87931623428724,126.41625793415302 140.17664740707028,126.90206505771076 134.92245578533277,129.5960212064532 125.87356997839993,130.92087632374313 116.68413977508746,131.21896507034114 110.98669309685818,130.7663113989485 90.39155873625838,125.7206637627368 81.79673878664663,125.20172361499284 83.40759168609036,122.80571190927128 86.66173121596361,116.10303227441251 87.24553013743986,113.25390639552703 86.66173121596361,109.4880081461289 84.03463540510263,104.10934883688749 83.42921408485114,102.05495788512805 82.34810450851835,100.15513993119548 77.45067887958126,96.487890404534 75.77495931522144,93.4832407665654 73.13705243782579,91.8703928115843 72.57487538372851,90.85405666174394 72.57487538372851,85.2860165709248 74.84520520179015,73.8832777464565 74.54249454166414,69.59567453168985 73.03975257329071,66.0150835318683 71.28611920139043,63.336750231706226 87.93009064341476,63.40433144423058 104.43365824092537,63.46047550575401 120.92349586361208,63.53065537715016 137.4270637267908,63.58679932716609 153.94436156476343,63.65697905914467 170.43419945316384,63.71312289763586 186.93776705065164,63.78330249020574 197.7605132062394,63.810938966631824 203.42760467336115,63.82541015426936 219.9311725365399,63.8815541156446 236.44847037448972,63.95173325076125 252.93830799719922,64.00787682900418 269.4418755947104,64.07805609630915 285.9591734326602,64.13419956303736 302.4490113210678,64.20437869097643 318.9663091590399,64.26052204619324 335.4561467817494,64.33070103474863 348.4585415804218,64.372808607975Z" name="North Bank" name_en="North Bank Division" gn_name="North Bank Division" admin="Gambia" adm0_a3="GMB" iso_3166_2="GM-N" iso_a2="GM" postal="NB" type="Division" type_en="Division" wikidataid="Q846161"/><path d="M629.0469691914248,82.41692384840712 648.3236994969109,96.20505227194757 654.7081914462588,99.20013029779787 659.5617779214193,99.87347762924132 664.1682232561117,98.76525654548912 679.7724700651536,93.19580505931413 694.4979913136768,84.01988427621664 699.5369340426882,81.83795416653972 714.8665792303086,78.37196971688324 727.1550094944396,72.07799050780055 732.5440695033476,70.73070339932542 735.3999281729489,70.63246261696142 740.020103482435,71.02542483754046 742.7935815061719,70.59035945573103 745.9171770755185,69.20093680790184 751.326832312293,66.02199227390922 754.889790529054,65.44653741900201 760.4710720449385,66.41498294873558 767.2194109832792,68.76585869267315 773.5970376795623,72.0078200582947 778.0455867099375,75.63553341677833 779.4185958798695,78.00010177005592 781.1142618487135,83.14992742365857 782.4941357403211,85.4370464392463 783.0511006859991,85.91270297784602 784.917496749905,87.50660837000787 790.9450059006006,91.06329238271918 793.6292385568123,93.27998157107015 800,106.11563206458717 798.9771083756334,120.0005003933225 791.4118290290214,131.51986907031443 778.2515381917077,137.2682700252037 758.1781471243935,138.9926908257751 747.509867436323,141.85961420449453 736.8003975581656,141.9857839977184 725.3975578419818,146.11420404104692 720.7979777603615,146.05813183869606 716.816251858377,147.84539874794203 704.0541337441346,157.46075194538258 698.2463055185985,160.32686215629826 690.5574553360578,160.59314466027305 676.1339964556386,157.88822400207252 661.0240327245889,159.21967568435076 653.8363306074158,158.65906756192294 646.8889051747026,156.68989422257323 637.2023271866326,151.67909529810754 634.3876587070879,149.75176245975598 631.8750523299866,147.494958393082 629.8429990560694,144.7684659741739 626.8704348036349,141.69138752263396 623.3349365364683,140.69603701915426 614.9733120094498,140.35957718994956 611.1288869181717,139.24504131122455 607.6002536384023,137.24023024637347 605.1413221143371,134.9537252740604 606.3098398872426,131.47802503856394 612.193183514572,118.37396043744654 614.0261502509439,116.74014797730439 615.9140377828489,115.5410575914422 617.1291505872904,116.01087935645349 618.1932326376966,116.64898985065672 622.0101975813201,114.45414368898443 620.4518324331659,113.4373365070966 613.9849598932448,99.57910817992149 618.6394605172428,96.42973157484074 619.717272527582,95.25130613458693 620.7813543390305,93.49064199845532 622.0994431572194,89.8569268195427 622.6349163737237,87.83654821657542 623.9049497347687,86.15986621634376 624.9553018252274,85.0303608455447 629.0194084371893,82.43452810297494 629.0469691914248,82.41692384840712Z" name="Upper River" name_en="Upper River Division" gn_name="Upper River Division" admin="Gambia" adm0_a3="GMB" iso_3166_2="GM-U" iso_a2="GM" postal="UR" type="Division" type_en="Division" wikidataid="Q824373"/><path d="M437.9610769316769,70.6891591403932 431.95121707752367,76.91956802548074 428.2303625564755,82.95348366994985 427.2280661600281,99.74722552552754 425.6216455587315,107.25177921021958 420.15706989137794,114.36276318880854 412.52313987370263,119.43254156515371 403.8182630541921,122.6509086000798 395.16830666523714,124.24250309716332 385.3787528034375,124.2565256672109 356.39453343482023,118.0862492754221 348.1015593131586,117.7216236414946 341.88182865549334,120.05659488155578 335.7444786436486,123.40113627132774 327.75356662439265,126.07243825182545 323.4148581894457,126.50712773233212 305.49709123194725,124.7613405042935 302.1469492186549,124.84547601762344 290.2155014874787,128.6454775547556 271.6936103251683,130.42621332518755 268.6180704647167,132.12277417419062 267.5608536376597,135.95038894152273 267.1106746098373,155.18554025544964 266.9706740803952,155.15537806258428 228.19690115012554,146.80129928706538 226.08246724820287,146.70317449263962 218.90849543939413,148.47640594691447 213.48510989048688,149.08616234686394 211.54916714038066,149.59779211665312 209.67501004630887,149.8290760082196 208.06858967995396,149.68189548939293 205.56284821614625,148.7707718610307 203.57885048678276,148.5815368356896 200.83283221510916,149.80104146348793 198.9930003793067,152.84269501330616 198.14859983843004,153.81683529668146 196.50098911437595,153.87290018463756 194.54445130489128,153.0389259420115 191.8396236298753,150.5369384064532 190.91284261252918,148.5815368356896 190.59018556716612,146.8223259223372 190.14395768761995,145.4555756068548 189.03868551845792,144.2570169531644 183.96541717373648,143.73833562519818 180.25337388371435,145.59183798277465 177.3343782135711,145.9119348730969 174.60998253817505,146.83910326346873 172.15586432328433,148.3402048580086 170.01526756936397,150.4593482118899 167.4962826895583,152.31354218927544 166.3719288470702,150.7242364151515 165.16108620658167,143.28488635418435 165.02054207590683,140.26033722137745 164.44755395527488,137.6109814330129 162.78264545746583,136.50705136802435 161.45288081937233,135.85572378797468 160.5988044373907,134.21081630152588 160.10149404820896,132.08010244969446 159.97176098406933,129.8389132868503 160.8150262995163,124.85944174408351 162.99886731959086,121.48069051946324 173.6369841585879,112.61338790857035 175.62622544960786,110.47091774567726 176.46949076505481,107.62154274331716 177.61546674061282,106.29620920735076 180.2101293518687,106.771123448716 184.54537819239994,108.52717184225021 221.81121992997163,110.5482246850936 236.03861989288157,107.17976793170762 241.10902311778895,106.69381197226735 244.01720745570606,106.83739039334135 245.51994942407893,107.0914125510735 246.84971406217298,107.15767916578987 249.34707680889377,106.69381197226735 251.32550703337907,105.8323358013048 252.75257153599264,104.63950361078324 253.8228697800999,103.53500967748786 254.63370189594232,102.98275532205726 260.4284484386917,102.62931027199046 277.5640327395187,104.65054842715385 283.023635422537,104.06516918814881 298.5051222920902,99.27148435323163 301.01329610536123,97.83551853716911 305.98639946573354,94.25650958684504 308.4729511459347,93.5274276989852 311.0676137571911,94.4332555447899 314.85149661015976,98.36572509534189 317.44615922141674,99.27148435323163 321.18679807393596,99.20520987785116 323.95443801547236,98.76337720749 326.4842342275047,97.68087398551117 329.48971842995695,95.55999882747727 331.79248144762255,92.86461888533859 336.0088080248574,86.2582489349423 338.57103743650873,84.43530109522433 341.7494992349318,84.3137691563946 345.057694097495,85.35230544399974 348.073989366468,87.03160499412823 350.44161878337275,88.90971678740705 353.18763685753015,90.1470306870679 356.0417655970664,89.67199341731897 358.7769726046886,88.57828934666156 361.25271321834003,87.9817154662132 366.290682977952,89.40685459582085 369.5340111756002,92.75415008332219 372.04218525456156,96.50998283937632 374.8530697279436,99.27148435323163 383.9992553994104,102.27586327778245 395.65361488414936,103.00484579369632 405.15656681410803,99.07266045034044 407.82690689112377,87.9817154662132 406.4430869203559,87.9817154662132 407.0725090488748,85.64071702287929 423.850678514332,75.83923516096776 430.4685818083173,72.77991050221536 433.69515297884686,70.40111377029382 435.7478012247335,69.9169231064916 437.2924364129402,70.17656217759459 437.84163982831933,70.59759600888154 437.9610769316769,70.6891591403932Z" name="Lower River" name_en="Lower River Division" gn_name="Lower River Division" admin="Gambia" adm0_a3="GMB" iso_3166_2="GM-L" iso_a2="GM" postal="LR" type="Division" type_en="Division" wikidataid="Q824421"/><path d="M267.1106746098373,155.18554025544964 267.01164986342064,159.4158873078945 266.51736678542767,178.73284253985588 264.732454917654,180.0428539677854 254.77814002983766,179.95879000234874 247.69540408219547,179.8930855544251 230.61318219938198,179.73461844946848 195.9858961626322,179.42638121207483 137.20738227021948,178.89396810149685 96.84091867899745,178.52968312846428 53.05566293483052,178.13036844559863 41.49492744571924,178.0182797764758 32.22711687717461,180.08488591013014 28.30031114005492,186.7115984663861 27.462775769584795,189.31726840785421 23.261368411036226,193.4497056788121 21.572567163905262,195.66290427949136 20.611460957514304,198.69542620870777 20.205935168195378,204.9374886336396 16.162585921240478,201.4636211827951 12.054370009385039,200.0629944313593 11.4165154895279,198.14397717171275 12.53005826548135,195.90505285193422 14.400377558895785,192.0005404198368 13.913878236264816,187.90827428814595 8.756986213357026,174.5156272536148 8.562386484301303,171.29392368215832 9.211052336382902,158.6041636922546 8.594819949611756,155.07266148724867 7.102888782082079,151.4747467311907 2.5622294116519053,146.2872190063844 1.3946310373181288,142.6888183951936 3.4703611263235046,138.33956509253542 2.497362746736361,136.92654706048643 0,130.7663113989485 2.38925181566606,127.89575030419273 5.243380555202857,119.54831879035575 8.011020762445145,117.80361327711486 11.25434896009283,117.0306275440988 14.713899285557025,115.12020858871907 17.741005621079115,112.73486600449569 24.926078158063085,122.41943951021706 33.294931862571154,130.96631660786068 44.17444186959041,131.82094210596762 55.89083739041655,123.27417794220302 62.21784707177317,118.13489004194035 64.12059983049862,126.21751750583613 63.49355637717725,130.7663113989485 73.28840763503585,142.35766725604802 75.43981545549087,143.90302506750376 88.87800543564438,144.4990816159277 92.69432175392346,145.59183798277465 96.16468288024696,147.76625843471732 98.24041296925178,149.6646776766692 100.96480891033931,150.9670494511854 106.37035599497725,151.4747467311907 108.9433964731638,153.2737289487327 110.46776057460654,157.50058988227056 110.58668257221207,162.35617559028282 109.00826287238844,166.1190060108909 114.23002129450586,161.7492470620221 116.59765097710203,161.61682562634687 120.0680123691009,164.2652046815795 118.51121480234714,161.5175093055345 113.65703343956481,156.58460924830928 112.64079052814701,155.85622996366118 111.97050280867144,152.4128725291829 110.11099458180611,150.16134806772038 107.25686557657951,149.15696627814918 103.5594715215952,149.46600845893784 103.5594715215952,147.61173362630265 111.37589255496961,147.76625843471732 115.0192312772634,147.21438204570418 118.25174840837587,145.59183798277465 120.87884448494333,151.02223425375192 123.92757295353529,149.81919760935122 127.53847847620898,146.0554262486874 131.8629159845152,143.90302506750376 136.80358614528242,142.42389772745514 146.59843740314102,135.93300009048755 151.90668462325942,134.46473079245573 159.30147326460767,136.77199618879587 160.42582710709576,142.1479373008599 159.27985113153832,148.37331719017726 159.97176098406933,153.15232684419826 164.72864248233103,154.46566519056316 171.1720546114722,152.53427601194758 180.25337388371435,147.61173362630265 180.25337388371435,145.59183798277465 183.96541717373648,143.73833562519818 189.03868551845792,144.2570169531644 190.14395768761995,145.4555756068548 190.59018556716612,146.8223259223372 190.91284261252918,148.5815368356896 191.8396236298753,150.5369384064532 194.54445130489128,153.0389259420115 196.50098911437595,153.87290018463756 198.14859983843004,153.81683529668146 198.9930003793067,152.84269501330616 200.83283221510916,149.80104146348793 203.57885048678276,148.5815368356896 205.56284821614625,148.7707718610307 208.06858967995396,149.68189548939293 209.67501004630887,149.8290760082196 211.54916714038066,149.59779211665312 213.48510989048688,149.08616234686394 218.90849543939413,148.47640594691447 226.08246724820287,146.70317449263962 228.19690115012554,146.80129928706538 266.9706740803952,155.15537806258428 267.1106746098373,155.18554025544964Z" name="West Coast" name_en="West Coast Division" gn_name="Western Division" admin="Gambia" adm0_a3="GMB" iso_3166_2="GM-W" iso_a2="GM" postal="WC" type="Division" type_en="Division" wikidataid="Q846158"/><path d="M17.741005621079115,112.73486600449569 33.27654782330676,93.61580174391328 40.08753727748894,87.9817154662132 40.638902999360106,90.76567880779352 42.13083416688922,92.73205635436722 44.422786118019644,94.23441637571695 47.147181793415704,95.55999882747727 51.82838556021218,93.08555591813557 56.55283385885433,92.86461888533859 60.66104950501997,94.47744182239201 63.49355637717725,97.42681461922933 64.93143168063513,102.32004415658353 62.01243627618278,103.15947725383197 57.63394316951233,103.45769430997656 54.58521470092037,106.69381197226735 58.71505274584568,110.3604792161473 62.21784707177317,118.13489004194035 55.89083739041655,123.27417794220302 44.17444186959041,131.82094210596762 33.294931862571154,130.96631660786068 24.926078158063085,122.41943951021706 17.741005621079115,112.73486600449569Z" name="Banjul" name_en="Banjul" gn_name="City of Banjul" admin="Gambia" adm0_a3="GMB" iso_3166_2="GM-B" iso_a2="GM" postal="BJ" type="Independent City" type_en="Independent City" wikidataid="Q3726"/></svg>