<?xml version="1.0"?><svg fill="#3498db" stroke="#ecf0f1" stroke-width="1" width="800" height="728" viewBox="0 0 800 728" xmlns="http://www.w3.org/2000/svg"><path d="M584.4780986166234,198.63866695570184 586.0815895039177,200.97950392998362 586.196992618795,203.57516795960274 585.7498055661018,206.44326473189403 586.0527386902971,209.30414949191606 587.8414867615217,211.50535360920586 591.072773698895,214.34465594271057 594.6069937604717,216.7465598052021 597.1170111949801,217.67146447670393 599.5404764677966,218.23787685114783 608.3688137089894,222.61855781979742 611.1961898140858,223.07741268364313 629.9780449107581,223.07741268364313 638.9694439758869,223.07586850519823 640.0398655467442,230.74885453977242 639.888399023939,237.38755762883284 639.3258090641682,239.81070538921816 638.6117523305406,241.55277434455806 637.5947624257971,242.92204527049796 632.2645814905471,247.5818046794596 630.9879347971491,249.0442322519037 629.3650786756704,251.7145722623453 628.5356187993498,253.90100201055108 628.0163048454917,256.40640993566655 627.2589719804297,271.3881250149076 626.0688774243947,274.1442301087979 621.0704805400941,280.7422727709729 612.4657367331057,295.8730553915984 609.8908048412741,299.5068969132347 608.0515679370619,300.7145833411739 605.3468077764247,301.2843801522518 603.0026821699803,302.090694284822 601.7476733540248,303.1765271295329 600.9903406144845,304.71747087049556 601.1201691343333,305.9215511596662 601.6611210911399,306.77085487286035 602.6564728674134,307.3621408604384 612.4657367331057,309.9996195043585 621.3950518397041,312.5940726788193 625.5279254675803,314.4968959527799 627.9946667170135,316.57529560574875 628.4707045394291,317.29556520284837 628.6005330592701,317.94058131944547 627.6051812830043,319.6857012559109 626.1554298128011,322.824742387456 625.9174109015971,324.47308439417014 626.1554298128011,326.3435838896976 627.1724195920311,328.5294026223224 628.4057902795006,329.6581391915077 631.1826774513968,331.14161534491745 631.7236295337327,332.6609175038308 632.1131149677419,341.73358541619956 632.5026005272729,343.9049698232427 633.3032095237771,346.6281391661552 634.450027822848,347.63857296983554 635.7266746417679,348.05421148545827 637.2918292546645,348.09720851969456 638.0708001226826,348.9284841172773 638.3304571623727,350.23988917821663 638.2871810309302,351.8379335871111 638.3953714222934,353.7369458545215 638.8281331132665,354.890680517835 639.6071039812925,355.8222648527973 640.0831418037003,356.9401632228958 640.7971985373277,360.4371566704215 641.5328932739035,361.469050081887 643.0475591295491,362.2787980298074 644.5045232255611,362.4436136985071 645.6946176560746,361.9276687078416 646.6683314293839,360.88144443294993 647.5338545602866,360.121855291991 648.377739813755,360.0000341443959 649.5894724982685,360.69513012792765 650.3468052378084,361.9706640045711 650.8877573201446,363.60448772718877 651.0175858399853,365.3816215611723 650.5415481430997,367.11575252943 649.3081774556221,368.89287049296934 647.4689404258881,370.3188587318389 645.3267703505435,371.3937210062586 643.134111392434,372.14612274474337 637.9193335998856,373.1994830698432 635.2506368193523,373.42161995506893 633.1084667440158,373.32130004592034 631.3990582341225,372.99167747675455 628.5356187993498,372.18911718797085 627.2589719804297,372.0601340942324 625.9606870330317,372.23211137730334 624.2729166516245,372.8770260489203 623.6237741779255,373.23531163994306 620.2410207893028,374.53946809405755 616.9953084208079,376.30938833923426 616.259613684224,376.91846859988055 615.480642690684,377.77117927520425 614.701671822666,378.88185037542354 613.3817488723037,381.60477404200407 612.4657367331057,384.4709911378317 612.5018001132096,384.7432808507995 612.5063700980114,384.7777853987618 609.768076494306,385.13010652831554 609.0323815846289,387.1579410443301 609.0179561778327,391.26374125661476 608.5130676374749,393.083752888889 606.8685733551761,394.674465878887 604.6470636380666,395.1617103747865 602.1658970171823,394.7891118172089 599.699155663518,393.74296800735857 597.3910936451516,391.96595123534416 593.7703212823022,387.85299181288207 591.4622592639358,386.2335936572372 589.2984510344907,385.4453888202601 585.1480576079177,384.97027093217827 585.3640674273186,384.24180736215027 585.1709716197272,381.8664582109232 584.1032658246714,378.3231582344116 584.4099473521691,376.6756265637879 585.4890116912986,375.8123625912374 587.3063834889919,375.1860720219915 589.3850023587268,374.81368252887535 591.168298245038,374.6951949250583 590.3277638897949,373.96734152741675 588.6239779515882,373.39182878730753 586.6021519418103,373.0194376924251 584.8870073199574,372.8840226028227 583.4558271374468,372.4439234979975 579.9687451733487,370.4803986331044 578.2763177792239,370.05158158360933 572.5515969096089,371.27596593346357 571.0636238671411,370.90357292495156 570.4956951280213,369.51555963487317 571.1090581830166,368.0203367399935 572.1994812058006,366.8072273758111 573.062732649199,366.25991634971854 570.4729780398739,367.3432529369831 567.2925776032735,370.1249318493772 564.5892371344692,373.20563321234243 563.45337979581,375.2086410127401 562.4992597206606,376.2016780428853 557.8990375060582,377.330126164565 554.4346727696882,378.78581999971254 553.1852297111147,377.14957469413815 551.0043836655472,370.4916832570052 549.8685263268877,368.73691603274835 548.3578360567001,367.39967663104545 546.1201971511754,366.25991634971854 543.5758768577255,365.6618230138602 541.7585050600402,366.07936001071516 540.1228705258645,366.81286973929997 535.6816684866249,367.6479408734065 531.5585063793836,369.60019478492774 529.4458117378468,370.05158158360933 528.2190859070016,369.28422367108453 524.94781683865,365.65053825402236 523.1531622686847,364.3640701841431 523.4257680243807,362.9760340900638 523.0736523205802,361.8814005714811 521.2676390669684,359.54541961024114 523.4484851125361,358.6539062509589 525.0841196467119,357.02322106347395 526.2654113012464,354.99755053320354 528.5371259785728,347.8991512441047 529.7638518094183,345.38251489916394 531.3540520277186,344.31039970559664 533.4894638969756,343.17621110869646 535.4431383631577,340.4958997863098 536.942470089272,337.352855277349 537.6467016364455,334.8417842202275 537.2832272489986,329.5317931565323 537.8284387603906,327.25766825740334 541.6676365678541,325.5873328845983 547.1651858580838,320.63270473341635 549.5845620271182,317.5120380380985 550.0275463626775,317.28066730202374 550.3342278901752,316.5357650357091 550.9816664378269,315.8585796590298 551.6291051250513,314.93309028342566 551.9357866525493,313.4545588635124 553.5714211867248,309.4873176956394 555.8204186363233,305.39586715840005 558.6827791409173,303.1949248941005 560.5001507990302,303.79313142008294 562.2493710531118,305.42408432403954 564.8845599783203,306.34396023630177 568.6101720658777,305.8586272969099 571.2453609910783,304.62836101372585 573.6760957041943,303.0594816609 576.7883447367561,301.5300981210382 573.9714185480376,301.6711855692751 568.2694147665782,305.5087356655456 565.7932458771595,304.9218195791729 559.7391263918992,299.2106111502364 557.6377902944361,295.3729745351904 559.0689706165196,291.6255832756985 567.2698603755532,283.5436809509847 567.6446933070816,283.02444416035587 568.4625105741698,281.47801506773106 569.1553835772694,280.69915319036346 572.0177439422906,278.80278381134184 573.1081669650745,277.70784971972967 573.7101713364233,276.7257915250943 574.90282153504,273.97149287261817 575.4934673623071,273.12487868585765 576.1295475054577,272.54353518007593 576.5838903850907,271.6122539968112 577.1063848083278,268.25961250545214 577.7424648119058,267.3339593115131 578.4012620432039,266.65664978778324 578.6965850266279,265.9341843317915 579.4689679778401,264.6247101291257 584.4099473521691,259.77056214989125 585.897920394629,255.07436145953216 585.3527088832367,249.32815947256012 581.4794354435445,237.99337535913443 580.1504822972937,235.3910344502153 579.7188565058082,234.20557607124604 579.5711951536728,232.6870506513577 579.8778765415979,231.2249658173981 580.5253152288223,230.29351647542174 581.1727539160469,229.5991608713904 581.4794354435445,228.85399607452914 582.638009870359,211.62978341217666 582.2291013066015,208.50205724401377 581.0364511079849,206.08565746070383 579.9233108574731,202.97478102254829 581.7179654274388,200.56395885508638 584.4780986166234,198.63866695570184Z" name="Litoral" name_en="Litoral Province" gn_name="Provincia de Litoral" admin="Equatorial Guinea" adm0_a3="GNQ" iso_3166_2="GQ-LI" iso_a2="GQ" postal="LI" type="Provincia" type_en="Province" wikidataid="Q203873"/><path d="M669.63431380221,223.0706022045584 671.7251174949695,223.07024314490104 713.472190079169,223.07024314490104 755.2336880701768,223.0630734671841 796.9807606543724,223.05590392794718 798.0482393622927,228.3720940348679 798.1059409895179,239.5130781953344 798.3223218124642,275.86442824798576 798.3656682386842,283.14298343983154 798.3152218443131,283.13630579645906 783.8032815141138,281.215346832774 777.7446185936188,282.11848608078026 776.157825977758,282.8603479519091 774.4700554708289,283.11838645186236 765.5695912440473,282.17224431860876 762.4969836523575,282.32276712541346 759.6984583519832,282.9141061602544 756.95042193439,283.2259023761077 754.635147207762,283.09688333650985 752.2910216013174,281.9142048744992 751.1225651737683,280.69926589281374 750.408508440149,279.0076599481711 746.3116984434203,253.05869130053134 745.7058319756417,251.18767536292242 744.7537564563322,250.08011281993177 743.542023897341,249.59622458148147 741.6378727332083,250.33818619345868 740.2530355229254,251.40273540207104 738.0459510621465,253.7397086896594 736.6755392290112,254.83650068009297 734.7713880648785,255.52468143371763 732.4993894696928,255.73973743114814 728.9435313042568,255.0838159297219 726.4984280577878,254.32036386879074 710.4934601259426,247.54954513198462 706.6563070433822,246.76456155462557 705.2931078360639,246.66778254758657 700.2514346947991,248.62486061018268 684.6648032023095,257.8508602505529 683.9074703372477,256.9440475235468 681.383027328181,256.35264604640196 675.4614055533519,256.85802564254544 673.9323145716024,256.6537233922935 672.3743725845147,255.25944539636126 672.1147156703468,255.126827201759 671.4872113251338,253.8902490428199 671.2275544109656,252.12318529971884 671.5737635880105,248.89368871321062 672.1147156703468,246.82908074478388 673.2615339694178,244.0726563455231 673.4779147521433,242.37362103935487 673.1749815810189,240.38064308463726 671.0328116311961,234.4625387398131 669.8427170751609,229.97456470555474 669.63431380221,223.0706022045584Z" name="Kié-Ntem" name_en="Kié-Ntem Province" gn_name="Provincia de Kie-Ntem" admin="Equatorial Guinea" adm0_a3="GNQ" iso_3166_2="GQ-KN" iso_a2="GQ" postal="KN" type="Provincia" type_en="Province" wikidataid="Q853393"/><path d="M638.9694439758869,223.07586850519823 669.63431380221,223.0706022045584 669.8427170751609,229.97456470555474 671.0328116311961,234.4625387398131 673.1749815810189,240.38064308463726 673.4779147521433,242.37362103935487 673.2615339694178,244.0726563455231 672.1147156703468,246.82908074478388 671.5737635880105,248.89368871321062 671.2275544109656,252.12318529971884 671.4872113251338,253.8902490428199 672.1147156703468,255.126827201759 672.3743725845147,255.25944539636126 673.9323145716024,256.6537233922935 675.4614055533519,256.85802564254544 681.383027328181,256.35264604640196 683.9074703372477,256.9440475235468 684.6648032023095,257.8508602505529 688.2639374991801,262.16623754139056 697.647652299716,269.6032708351729 698.3977724134392,271.8827208254878 698.1669662535661,275.10115398559054 697.387995260026,278.4055602815533 696.4719832463501,280.94655490725745 692.8872743266193,286.2614174380102 692.3102587386575,288.25401524110833 692.5915537813036,290.0817444693489 694.3153875428144,292.7408890152936 694.8563397506723,294.2783070185484 694.1062195114274,298.17377728530823 692.505001518419,301.02635906074073 692.6925315468577,303.3055365949623 697.2942302458106,305.52377522583714 701.6218465279342,306.64184697520574 705.4445743588691,307.07187344987096 709.1518991726322,306.71710162038903 713.1477315293286,305.4592709412554 717.7566429796202,303.1765271295329 719.3867118524375,302.8217504530479 720.7066348027997,302.940009311545 723.1300999207826,303.7140664928296 724.5077245052485,303.90758048883237 725.870923712567,303.2947858396079 726.9888912573509,302.25195688375373 727.9409669021743,301.97243507003185 729.7874164322035,305.28725948608246 730.8837459740231,304.8679811532619 732.5859417325775,302.940009311545 733.6245696402857,302.49922593964516 734.6271340423682,301.8434248701246 735.6152733183387,301.48864663972665 736.5457107091702,301.94018252560704 736.8270057518164,302.5744816799485 737.0650247885421,304.05092409063946 737.512211731141,304.4917051724733 739.7337214435535,305.14750023499965 746.816586894609,306.31932666576176 747.5090054997423,306.23332127185324 748.0499575820785,305.91080062783175 749.3698805324408,305.2765086809461 749.3698805324408,306.09356235819456 748.504357276016,307.59148774511544 747.1195200657331,308.3117792590529 742.1571866870581,310.203879895603 740.577606697014,311.33268404030736 734.2737121139846,318.1125855016455 733.1918079493125,319.750202434798 731.1361902623743,323.6453310991142 725.373247887195,331.36019473194096 722.7334018609646,335.69591717451283 720.9302282113345,340.06383163965 720.6922094256523,341.575926722055 720.9951424712548,343.4749938564103 722.0554086329706,345.66069979579635 731.11455225941,355.6502803437623 732.8239606437814,356.8255071115235 738.6229666501081,359.4482559280732 740.2313972689254,361.3830591222212 741.6378727332083,364.20642109204596 743.9315093313502,373.2854716079431 745.186518021784,375.68597613355826 746.297272940751,376.4455357044401 747.4440913653438,377.0187875254109 748.4178050131313,377.78551052307114 749.2184140096352,378.7672006719392 749.3266044009983,380.2576454425011 749.1967760066713,381.4972904318469 747.2493485855822,384.29185318032813 746.9969042972232,384.6572945975554 746.9791027410918,384.6830644148914 715.3763412652589,384.5855274786871 673.6004178674389,384.4422170489238 670.3824043967476,384.4322886419366 631.7956436560142,384.3132376368287 616.5624341673077,384.25591351877813 612.5063700980114,384.7777853987618 612.5018001132096,384.7432808507995 612.4657367331057,384.4709911378317 613.3817488723037,381.60477404200407 614.701671822666,378.88185037542354 615.480642690684,377.77117927520425 616.259613684224,376.91846859988055 616.9953084208079,376.30938833923426 620.2410207893028,374.53946809405755 623.6237741779255,373.23531163994306 624.2729166516245,372.8770260489203 625.9606870330317,372.23211137730334 627.2589719804297,372.0601340942324 628.5356187993498,372.18911718797085 631.3990582341225,372.99167747675455 633.1084667440158,373.32130004592034 635.2506368193523,373.42161995506893 637.9193335998856,373.1994830698432 643.134111392434,372.14612274474337 645.3267703505435,371.3937210062586 647.4689404258881,370.3188587318389 649.3081774556221,368.89287049296934 650.5415481430997,367.11575252943 651.0175858399853,365.3816215611723 650.8877573201446,363.60448772718877 650.3468052378084,361.9706640045711 649.5894724982685,360.69513012792765 648.377739813755,360.0000341443959 647.5338545602866,360.121855291991 646.6683314293839,360.88144443294993 645.6946176560746,361.9276687078416 644.5045232255611,362.4436136985071 643.0475591295491,362.2787980298074 641.5328932739035,361.469050081887 640.7971985373277,360.4371566704215 640.0831418037003,356.9401632228958 639.6071039812925,355.8222648527973 638.8281331132665,354.890680517835 638.3953714222934,353.7369458545215 638.2871810309302,351.8379335871111 638.3304571623727,350.23988917821663 638.0708001226826,348.9284841172773 637.2918292546645,348.09720851969456 635.7266746417679,348.05421148545827 634.450027822848,347.63857296983554 633.3032095237771,346.6281391661552 632.5026005272729,343.9049698232427 632.1131149677419,341.73358541619956 631.7236295337327,332.6609175038308 631.1826774513968,331.14161534491745 628.4057902795006,329.6581391915077 627.1724195920311,328.5294026223224 626.1554298128011,326.3435838896976 625.9174109015971,324.47308439417014 626.1554298128011,322.824742387456 627.6051812830043,319.6857012559109 628.6005330592701,317.94058131944547 628.4707045394291,317.29556520284837 627.9946667170135,316.57529560574875 625.5279254675803,314.4968959527799 621.3950518397041,312.5940726788193 612.4657367331057,309.9996195043585 602.6564728674134,307.3621408604384 601.6611210911399,306.77085487286035 601.1201691343333,305.9215511596662 600.9903406144845,304.71747087049556 601.7476733540248,303.1765271295329 603.0026821699803,302.090694284822 605.3468077764247,301.2843801522518 608.0515679370619,300.7145833411739 609.8908048412741,299.5068969132347 612.4657367331057,295.8730553915984 621.0704805400941,280.7422727709729 626.0688774243947,274.1442301087979 627.2589719804297,271.3881250149076 628.0163048454917,256.40640993566655 628.5356187993498,253.90100201055108 629.3650786756704,251.7145722623453 630.9879347971491,249.0442322519037 632.2645814905471,247.5818046794596 637.5947624257971,242.92204527049796 638.6117523305406,241.55277434455806 639.3258090641682,239.81070538921816 639.888399023939,237.38755762883284 640.0398655467442,230.74885453977242 638.9694439758869,223.07586850519823Z" name="Centro Sur" name_en="Centro Sur Province" gn_name="Provincia de Centro Sur" admin="Equatorial Guinea" adm0_a3="GNQ" iso_3166_2="GQ-CS" iso_a2="GQ" postal="CS" type="Provincia" type_en="Province" wikidataid="Q845823"/><path d="M798.3656682386842,283.14298343983154 798.538702495838,312.1961938086622 798.7550834583612,348.5270670249927 798.9714642813117,384.85781715529885 757.1666899302985,384.7145068124649 746.9791027410918,384.6830644148914 746.9969042972232,384.6572945975554 747.2493485855822,384.29185318032813 749.1967760066713,381.4972904318469 749.3266044009983,380.2576454425011 749.2184140096352,378.7672006719392 748.4178050131313,377.78551052307114 747.4440913653438,377.0187875254109 746.297272940751,376.4455357044401 745.186518021784,375.68597613355826 743.9315093313502,373.2854716079431 741.6378727332083,364.20642109204596 740.2313972689254,361.3830591222212 738.6229666501081,359.4482559280732 732.8239606437814,356.8255071115235 731.11455225941,355.6502803437623 722.0554086329706,345.66069979579635 720.9951424712548,343.4749938564103 720.6922094256523,341.575926722055 720.9302282113345,340.06383163965 722.7334018609646,335.69591717451283 725.373247887195,331.36019473194096 731.1361902623743,323.6453310991142 733.1918079493125,319.750202434798 734.2737121139846,318.1125855016455 740.577606697014,311.33268404030736 742.1571866870581,310.203879895603 747.1195200657331,308.3117792590529 748.504357276016,307.59148774511544 749.3698805324408,306.09356235819456 749.3698805324408,305.2765086809461 748.0499575820785,305.91080062783175 747.5090054997423,306.23332127185324 746.816586894609,306.31932666576176 739.7337214435535,305.14750023499965 737.512211731141,304.4917051724733 737.0650247885421,304.05092409063946 736.8270057518164,302.5744816799485 736.5457107091702,301.94018252560704 735.6152733183387,301.48864663972665 734.6271340423682,301.8434248701246 733.6245696402857,302.49922593964516 732.5859417325775,302.940009311545 730.8837459740231,304.8679811532619 729.7874164322035,305.28725948608246 727.9409669021743,301.97243507003185 726.9888912573509,302.25195688375373 725.870923712567,303.2947858396079 724.5077245052485,303.90758048883237 723.1300999207826,303.7140664928296 720.7066348027997,302.940009311545 719.3867118524375,302.8217504530479 717.7566429796202,303.1765271295329 713.1477315293286,305.4592709412554 709.1518991726322,306.71710162038903 705.4445743588691,307.07187344987096 701.6218465279342,306.64184697520574 697.2942302458106,305.52377522583714 692.6925315468577,303.3055365949623 692.505001518419,301.02635906074073 694.1062195114274,298.17377728530823 694.8563397506723,294.2783070185484 694.3153875428144,292.7408890152936 692.5915537813036,290.0817444693489 692.3102587386575,288.25401524110833 692.8872743266193,286.2614174380102 696.4719832463501,280.94655490725745 697.387995260026,278.4055602815533 698.1669662535661,275.10115398559054 698.3977724134392,271.8827208254878 697.647652299716,269.6032708351729 688.2639374991801,262.16623754139056 684.6648032023095,257.8508602505529 700.2514346947991,248.62486061018268 705.2931078360639,246.66778254758657 706.6563070433822,246.76456155462557 710.4934601259426,247.54954513198462 726.4984280577878,254.32036386879074 728.9435313042568,255.0838159297219 732.4993894696928,255.73973743114814 734.7713880648785,255.52468143371763 736.6755392290112,254.83650068009297 738.0459510621465,253.7397086896594 740.2530355229254,251.40273540207104 741.6378727332083,250.33818619345868 743.542023897341,249.59622458148147 744.7537564563322,250.08011281993177 745.7058319756417,251.18767536292242 746.3116984434203,253.05869130053134 750.408508440149,279.0076599481711 751.1225651737683,280.69926589281374 752.2910216013174,281.9142048744992 754.635147207762,283.09688333650985 756.95042193439,283.2259023761077 759.6984583519832,282.9141061602544 762.4969836523575,282.32276712541346 765.5695912440473,282.17224431860876 774.4700554708289,283.11838645186236 776.157825977758,282.8603479519091 777.7446185936188,282.11848608078026 783.8032815141138,281.215346832774 798.3152218443131,283.13630579645906 798.3656682386842,283.14298343983154Z" name="Wele-Nzás" name_en="Wele-Nzas Province" gn_name="Provincia de Wele-Nzas" admin="Equatorial Guinea" adm0_a3="GNQ" iso_3166_2="GQ-WN" iso_a2="GQ" postal="WN" type="Provincia" type_en="Province" wikidataid="Q853400"/><path d="M1.9877502379841723,725.3025795263087 1.1131401109392414,723.6886530413901 0.9314029870020518,722.0860211550156 1.5106901306230314,720.686546400095 2.941870452706308,719.6933745968341 4.781959198974564,722.8309054470178 4.293540547531832,726.2167654042266 2.3625831695126625,728 0,726.3296280330951 0.7042314076089302,726.1151890459766 1.306235918530688,725.5847353375729 1.9877502379841723,725.3025795263087Z" name="Annobón" name_en="Annobón Province" gn_name="Provincia de Annobon" admin="Equatorial Guinea" adm0_a3="GNQ" iso_3166_2="GQ-AN" iso_a2="GQ" postal="AN" type="Provincia" type_en="Province" wikidataid="Q3736616"/><path d="M420.7915599345445,19.353284614423636 420.9487209708586,17.23683932315829 422.7660927685442,12.347003949149189 426.4235533124978,6.4111021730122575 431.3418154591064,1.5943272642157746 437.0665363287213,0 436.7598548012237,0.5257911937166737 436.19192620167644,1.9731182164915622 440.5309012046563,2.8776888126375724 442.4391414945279,2.9794525892454526 443.81352881708926,1.9731182164915622 446.9598534818802,2.934224239314552 451.480565608805,3.612647279622147 456.2170906314688,3.488270037354618 460.1017227548155,1.9731182164915622 460.5219898626469,2.5837040526094834 460.95361565413265,2.8154998263661204 462.0894729927917,3.013373736275439 465.7923678526288,7.570039134072912 467.17811371925586,9.944412031049369 467.73468391430225,12.884047453170787 467.5188710185555,15.552270649423008 466.95094227944344,17.977363948330495 466.06497360832464,20.142383626975967 464.94047481373906,21.979511648925392 459.8972684031505,26.439380418650575 458.4660882206399,30.282993102990062 453.83179037380876,35.74298328908019 451.61544879474087,30.31458930155942 451.24760136368803,29.71160215439779 450.8364778012008,29.1839861328762 449.5381929793246,28.32256728846404 447.71338132673804,27.64419598642079 443.92671700142864,26.886856366222666 440.39249696447865,26.714569948474203 439.3322310538063,26.843784815179795 438.1421366232931,26.876088511073963 436.4760042448503,26.553051302992202 434.5718530807095,25.79929433299436 428.46270115191993,21.520740861861135 426.62346424771556,20.47620594361439 422.85122529955356,19.245007315490547 420.80282023842454,19.352692793143405 420.7915599345445,19.353284614423636Z" name="Bioko Norte" name_en="Bioko Norte Province" gn_name="Provincia de Bioko Norte" admin="Equatorial Guinea" adm0_a3="GNQ" iso_3166_2="GQ-BN" iso_a2="GQ" postal="BN" type="Provincia" type_en="Province" wikidataid="Q845834"/><path d="M453.83179037380876,35.74298328908019 453.4342402145523,36.20645001526566 450.64003125356186,43.666903080202765 448.23201376817383,45.565858836634504 447.57321653687563,48.83245024048507 447.18702506127346,49.578442303373514 446.86898498969407,50.04185961337556 442.8594086023673,52.41543464889149 442.3709899509244,54.653337771991524 442.30283854689355,61.05036905185719 441.4282284198567,63.322033080917194 435.15829603884987,70.50973480756673 430.37633670030266,78.31858938948652 429.08145946542635,79.87804777860816 427.74114777510187,78.97966621735655 424.53803011078134,77.62360776784587 423.81108147545234,76.72521188370929 422.92511280433365,77.09813168114758 420.90328679454785,76.36924201239377 417.0300133548552,74.2277536988547 416.01910028017613,74.57242814905807 412.81598261585555,75.28437602958768 411.40751952150026,75.2561242706645 409.9081879349588,74.60633056469095 406.95495893817895,72.72473681118068 405.13758714049345,72.3292033901765 402.1389238278379,72.22749458548928 398.8222205831758,71.4590257944715 396.1415972025271,69.37961801193914 395.0284570915879,65.29981892326455 394.39237694843723,63.79670436118206 393.12021680171614,61.977122153831516 392.2115309028695,60.163166555247706 392.6658739220831,58.62043728821491 393.2110854334751,57.343292817979126 394.0743368768656,51.466009698466465 395.0170985475142,48.770284055694795 396.8458287497007,45.27197455605982 399.4469420426802,42.97174267555 402.7522868828334,43.88166719003135 404.52422422507084,42.87001155885944 406.8754488505016,42.97739438648366 411.85050399663237,43.88166719003135 414.20172862206334,42.937832265883266 414.9741115732677,40.71668450704784 414.57656155359183,38.15638285862876 413.315759811372,36.20645001526566 415.05362152138014,35.27951502177415 417.2458261110216,33.71388388769193 419.17678362862114,31.854318704963283 419.9946008957091,30.08516290898669 420.7915599345445,19.353284614423636 420.80282023842454,19.352692793143405 422.85122529955356,19.245007315490547 426.62346424771556,20.47620594361439 428.46270115191993,21.520740861861135 434.5718530807095,25.79929433299436 436.4760042448503,26.553051302992202 438.1421366232931,26.876088511073963 439.3322310538063,26.843784815179795 440.39249696447865,26.714569948474203 443.92671700142864,26.886856366222666 447.71338132673804,27.64419598642079 449.5381929793246,28.32256728846404 450.8364778012008,29.1839861328762 451.24760136368803,29.71160215439779 451.61544879474087,30.31458930155942 453.83179037380876,35.74298328908019Z" name="Bioko Sur" name_en="Bioko Sur Province" gn_name="Provincia de Bioko Sur" admin="Equatorial Guinea" adm0_a3="GNQ" iso_3166_2="GQ-BS" iso_a2="GQ" postal="BS" type="Provincia" type_en="Province" wikidataid="Q845817"/></svg>