<?xml version="1.0"?><svg fill="#3498db" stroke="#ecf0f1" stroke-width="1" width="800" height="1200" viewBox="0 0 800 1200" xmlns="http://www.w3.org/2000/svg"><path d="M665.4554247603328,839.6918067347173 669.5013089680563,847.9694934626095 670.0059930776127,850.2418048398476 669.627480076827,855.8659487897521 669.3919606846359,856.8786082179269 668.046136609524,858.9039079427554 668.4078267849526,860.2513037409379 669.4256064981092,861.5819507312001 670.0059930776127,863.5151351937614 669.7957080048307,865.4399279522514 668.9209223885609,868.7706021283668 668.7863397857396,870.7539106934844 669.1564416179834,872.536357729904 670.9060131760777,876.2769228262246 670.4517973798213,878.235037213919 669.4003721787014,879.5236982632582 669.0975616478615,880.5864175207747 670.9060131760777,881.9001636657695 672.537824956682,882.1679324980274 674.1528142374733,881.6491301681162 675.574340945301,880.7119351966047 676.6762346224825,879.6994239742068 676.9790451533225,880.1847607117894 677.0126906412544,880.3270142621686 677.1220389246871,880.4106929073682 677.6771915102916,880.7035674300514 675.195827944514,885.448063589873 676.6762346224825,888.4018003869968 679.4856428757392,890.9705892119333 681.0081065356903,894.568501877206 681.1847457949855,895.8152027395404 681.9585947846825,897.865127589451 682.1268228754549,899.0867038500901 681.5969046092581,899.7476901334603 679.3174147849669,899.6305536736679 678.795907850048,900.1995022143934 679.0818955555458,902.1573404933639 679.5529340143894,903.5713211207442 679.6538709665115,904.8430572867752 678.795907850048,906.3323154845712 677.4669064375096,908.4406817482825 679.5445226830965,909.6287184832069 684.9530539540726,910.1976345440872 685.7353142750532,912.5987751240611 683.9605085603101,914.8743907241433 681.4202651871889,916.8822627676695 679.9062128585074,918.4885442003576 682.0679430681016,926.8627285944129 682.7324437743702,928.5358461840609 684.0362110302518,929.2218201174094 684.5577179651572,930.7443383688543 685.2810986415531,932.2584786159864 687.2325437783638,932.9528038638522 688.7550074383096,932.6098242933335 692.0186313250526,931.0956867542895 693.9448423052121,930.7443383688543 695.0803814703379,931.806747505137 692.2709733798513,937.6373414741136 693.3476327375911,940.6905929683963 693.8859623350847,940.3225323826535 699.4543103655418,939.4860284132304 701.0272425015669,940.2472471561268 700.657140669304,942.0038942566787 699.5384243295476,944.0532952857918 698.8991579427045,945.6593410760361 699.7487094023352,947.7756205073784 703.954410206779,952.1921282928972 705.5693993247867,955.1615042630119 706.545121893188,961.5350549685159 707.8404778177822,962.4885605516505 711.2218613192509,960.5899088750087 712.3237548336583,962.6558418262199 711.8863620255195,964.5628376771614 711.1125130358319,966.6789128425372 711.2218613192509,969.430613267554 712.0125329715215,970.8942685821702 716.1257083178953,975.6531662664294 716.420107354675,976.8324190495829 715.5621445637679,982.2853300952718 716.61356976487,983.7907096337348 718.9098824145033,983.0045683741696 722.2323861086187,980.5792200182539 723.5866216777921,982.0762486952427 723.3679252737307,983.840888996839 722.5688419646355,985.6306035553896 722.2323861086187,987.2028636065379 722.7580985464003,989.4274243715194 723.5277418704525,990.8491239925195 726.22359617463,993.3328938882673 727.0100621612759,994.9050969695462 726.7198687901275,996.5860035740207 725.6726494174392,998.9108181360131 726.9133310375526,1001.8460697867026 732.7382267884382,1006.8969523617167 734.5550894851787,1010.509433551618 734.4667698555209,1016.3377816171314 735.1649160497213,1017.7843928905409 736.674762712744,1018.5369615996171 740.4304535493383,1019.2309949977904 741.8814204050024,1020.0002825894796 743.9464193281046,1023.1443005627721 745.5487912864152,1030.2767158582167 746.7852674036521,1033.8052164912806 747.9712752075947,1038.6296460668405 763.6417164349077,1060.6853650982557 768.0997592941176,1062.5037473783382 784.0561882269149,1062.7629181641505 790.1923056771633,1065.939828195835 791.1007371069198,1067.3192639359174 792.2573047630218,1068.4269874031565 793.6283631575551,1069.2462819090138 797.0433923097434,1070.3372772524967 798.4733306744052,1071.4826082470652 799.4658760681527,1073.0501155933282 800.0000000000001,1074.9269325064722 792.4002986971592,1077.7734826691023 787.4501887253118,1080.5823840436306 784.855271373251,1080.7746589895144 782.3739078074733,1079.5583087355958 780.0439496698946,1077.6815240590151 777.4700608088291,1076.0680639860468 774.3241963740237,1075.6960474398825 771.5820795849546,1076.7953763740327 769.4245550410245,1078.4464511335461 767.0988024063031,1079.7004256418404 763.8183556942042,1079.58338812838 760.5547319702148,1079.0483595052783 758.359356109935,1079.5583087355958 751.3610698775861,1085.0464719817305 749.3928019154359,1085.9409528360052 747.1553690731408,1085.932593284673 735.5728690355666,1083.9806148490393 733.4447844767042,1083.2449620452205 730.8204271395756,1081.1341290673524 729.7437676190481,1079.58338812838 728.3642977304479,1078.7306860279173 724.8483319516803,1078.7056063951518 719.422977855358,1079.29915444417 716.7565635362332,1079.2573553575844 713.8378071623125,1078.6554474462694 709.5564037251665,1076.4191805827782 706.545121893188,1073.8819359325773 704.6189109130489,1070.5462795317612 703.6011313626337,1065.939828195835 698.6468157251522,1062.0104864015332 690.765332382475,1065.1247036615346 676.8444627132549,1073.806696004581 673.5556046698578,1073.2089559539158 667.6676234459696,1069.5514266615423 663.663796383015,1069.179400740652 660.0721278087739,1070.5211992992674 657.683289701054,1072.7157150034627 655.6309076121374,1075.2446105948084 653.0654302451335,1077.581205613398 649.6419897616687,1079.3493132749354 647.3709112686731,1080.1727544115063 645.7475106565863,1081.6106353755388 641.7100379429147,1092.365248376375 640.0025235296097,1095.2910344477766 629.1770494935998,1108.9080923753302 624.3152593141654,1112.5609363464473 616.711352182904,1114.4792887531255 611.7149797262003,1114.6297472981678 597.9539264909142,1112.1262752202992 592.141648062527,1111.833714577167 586.9434017015478,1113.212926637647 573.8047923533219,1118.984653633069 568.2869127989267,1122.3322900230273 565.5447958470847,1123.3144238653488 562.8110903892963,1123.180686660268 557.9072432278779,1121.212235995741 555.3249430355345,1120.8528145576686 554.3492204671277,1122.0313804250911 554.5510940458319,1124.5891036746139 555.5015822948295,1129.5206042011775 555.0053096793183,1132.3164809821467 553.9286503215772,1135.2836787666506 551.0687737550085,1140.5075544741528 548.4528277491795,1143.6334833872927 541.6311811016672,1144.9039063082762 533.9347485123492,1144.6531651538435 528.6944453321453,1143.2740865291373 527.5673174983289,1141.9326138584122 526.3728983630893,1138.4054765494243 525.1111882519684,1136.8466707416678 522.4027169508353,1135.4257692036808 520.6952023747425,1135.7015917108893 519.1979728714305,1136.6627899393902 517.1287681199268,1137.2938357354371 514.0501949865444,1137.1893580846308 510.4753492376494,1136.6042823167427 506.9846176155317,1135.5929344700405 504.18362085633936,1134.2012815473483 503.02284737180184,1132.9726100934543 501.4246810791404,1130.3648027749475 500.7181233908743,1129.988675064324 498.85920371214047,1131.2549699762847 497.74889870366604,1133.3905261021655 496.8488786052009,1135.7684578370095 495.6881052834525,1137.7368209059573 494.24134409343486,1138.6980129976569 490.52350473595897,1140.3403916417233 489.36273125142554,1141.385157637331 489.12721185924664,1142.9899120078073 490.06928893969155,1146.4041693438105 489.9935863069894,1147.9462158588851 485.58601176106725,1150.8840255633602 483.4745486803727,1151.2438508176122 471.68196491719203,1153.2534787685454 471.214000854584,1153.835521012027 471.1732065055372,1153.7341845114045 471.14797239257564,1153.6715006396194 472.55688210731785,1144.1350971258612 473.8942949247053,1140.4449989897978 479.61404803026016,1132.2873573701129 486.6501854281437,1125.211944738223 488.4796654975666,1122.6124335999543 496.6976048616671,1103.437233594483 503.47719451739897,1093.3476106252913 509.407232727107,1082.1248902731986 535.3059383607555,1010.2085263322014 546.4846912418038,988.7041571462921 548.5244561226124,983.1552368757247 549.235219654597,980.090095844088 549.5842928191636,976.7489150082725 549.630555457173,971.9649517915805 547.8599553750126,951.1466933347624 547.9230409501725,948.7586001744556 548.2468798553937,946.4875838496057 548.5875416977722,945.2537791187227 551.1446077971802,940.418860879138 563.8878812441509,923.3492624845929 564.4556508350573,922.1445850083512 563.9257325599667,919.0157329734714 553.6890568401205,894.9493375015962 536.5340031113548,870.5406487600125 534.7844315542422,865.5906935310899 533.8507658616296,860.9167593068058 533.4386072682856,856.5063153084982 534.2545132791585,849.1036916911135 534.2292790198213,846.0864681344698 528.6272855960076,824.4494496071651 528.6651369118302,820.7160195927918 528.2109211219919,817.0955078165044 527.3319296823402,814.7180601288725 522.1126550046278,804.1237190430919 506.95530910656936,781.7478860123754 505.67257039577265,779.1479567399972 504.4066544757331,775.6771221737167 499.29672786480614,754.8293304268527 498.97709469386473,752.0027603448441 498.96027190309803,749.8754648484854 500.12525107854833,745.2480609111426 500.2640391389603,743.0117731153385 500.1631023943615,741.6758452221824 493.56856343706465,719.1514522245743 483.68096073539436,705.5544719244612 481.27529989925944,700.9254636394812 481.88933227455766,697.4693035207887 488.4123741881283,679.8183171004738 491.29748492705505,669.1083124765922 505.18470917078326,644.910824360301 506.95530910656936,638.8082637702503 534.2166619633358,638.2172704660492 539.2172402147097,637.2071254701101 542.1359965351685,635.6101561953925 548.5749244949029,617.2454650710412 551.0058195903845,607.1249253723093 553.6175597963806,600.4500524684855 557.730735285908,594.8104690069358 573.6493129418769,577.0679401824402 581.6695844046841,556.1512856435264 585.017322255636,550.1904956357512 590.3080938306978,543.2267072408813 594.2151899503613,533.0192690689264 596.7848732526386,528.5130630137098 601.974707936726,523.0793285368519 602.9588420016481,520.649785473978 603.6822224437346,517.1207562132552 604.9817840916832,501.57219615825136 613.7086132058196,465.34530258899713 616.7241006829635,457.9050786362634 617.0142940066594,456.64538706293354 616.9554143121741,455.2051185507063 616.7577464108806,453.79422111945 614.2511486837631,451.42587970883216 612.0641842739708,450.9345669868059 609.4776781809267,448.1084178926545 604.4897171324126,437.33632332986457 605.0070182046461,431.85108620657405 604.3004605533167,424.084653777907 603.4382919044318,420.199080866358 600.662529378677,415.7210070005653 602.6392088307081,413.8011621010433 604.6579450400782,412.9063403788666 606.0962947484495,412.50303743069736 607.2402453988316,412.5786568940268 608.0183000938925,412.9441499436521 608.6617723164363,413.41046636515614 609.940305439337,414.6203571589639 610.8907937763324,415.20429141193125 611.7697852159937,415.2547027842373 612.6319538648759,414.99004264523217 613.3553343069636,414.4103078363139 614.1754460521258,413.53649755224126 617.5610352188937,407.5330150555064 618.3432956482345,404.91975291980435 618.4189982798799,403.9996305680574 618.2339472886814,403.1929400604247 617.8133772267684,402.51228893469766 616.635781141234,401.4282779066265 615.9544576028662,400.98290504483003 615.3404250811856,400.45349663832286 614.9577064814666,399.7602186547106 613.683379092858,394.52473944953397 613.4941225137608,392.11698379138 613.8642242033834,390.0453349915279 614.5034906916363,388.96116624035767 615.4119221249146,387.96523129274874 616.2404451922743,387.486170038327 617.0899966382981,387.1331758210245 618.911065239141,386.7885845890962 619.8951991576807,386.71294243120207 625.4509299434741,385.7548027874721 627.8145337295052,385.0740127832938 629.5010198578417,384.09063971853016 630.2874860214799,383.1955082588251 630.615530514608,382.14487231551027 630.5608565544011,381.18668108989834 629.6440136525457,377.77828917400115 630.3001030779587,374.81527183110904 631.1622715804585,372.9575535981303 630.9451436495759,371.81377766074706 631.227586415485,370.3272399746768 631.4961814359053,368.52277635828307 631.4969640367369,365.7812205814881 633.5878068549899,363.50958302806276 635.2042094725255,362.56888238792413 635.7948411564,361.90200516387955 636.5374368970174,361.80698414003206 639.744050233496,362.06709194745054 643.1262402630601,363.29371246203647 645.8358063589665,364.5326987968953 649.1147010538066,366.1571898524 654.2207715878696,369.15478501861185 656.2369691309458,370.26983226021025 661.8652261669857,374.02619996966666 668.4806317762068,378.8495757016028 681.8815219494131,392.4075946850675 685.2726694054938,397.31717817634865 688.4227229033543,403.1840737901553 689.8665696865587,409.80702573313437 690.3677701806575,413.8250378617576 690.9324349148366,415.7540177359907 691.7684599784288,417.4144539111565 692.1454743506916,418.8073651858344 692.2793873154617,420.60186889476904 689.8864392511896,417.1968762627652 688.6744026447417,416.0986928176433 691.5773906209674,421.9135989908485 692.5477471324153,424.21793700611136 692.5934088311709,427.7234995235983 692.8668570185007,430.3673928766903 693.3136719630858,436.1904756189528 690.6414783125655,441.875935750281 689.9063086530599,444.8851093633626 688.7273877163824,447.68917185546496 687.9810480901892,449.59476956796004 687.8843474045688,452.9404553351848 686.2467020899802,456.85825353227057 685.8594810271829,460.6801357290212 689.6815726474834,466.9360148978765 689.3650975283966,475.7112433575687 687.4425689065555,480.8182657088052 685.4356818393205,484.08788235836823 683.6010690133711,487.7567148427603 675.3419998109954,499.6017757951127 675.3419998109954,500.72539366338685 673.8331808812763,504.1112049893416 673.3200854404366,506.69224545402386 673.1350345243031,510.1754911529834 672.4873566433957,513.9733449372031 670.8134877180158,516.5667112118251 662.898358724623,524.4932559706442 661.5693573120832,526.2345762405068 661.0142048892351,528.017824091458 661.6618826073737,529.5241189745398 663.1086437973928,529.5241189745398 665.4554247603328,528.5716734011093 667.0956481977563,528.9702750066581 668.1218390794697,528.919925504426 668.6433460143751,529.3730709127767 668.8956880691396,540.7136211127943 669.190087105933,541.9931803267881 670.0059930776127,542.8825693761474 671.4359314422746,543.2853090223919 672.8406354875275,543.100720319856 673.9172948452835,542.4043140998879 674.346276322131,541.3261334450732 672.6808188908208,539.3585289122864 671.8396785996994,537.7894518452864 672.1256663051971,536.2329366392776 673.4967248624868,535.4357898897026 675.3472332099442,535.3434882525505 676.9790451533225,535.8385595355004 677.6771915102916,536.8370855804171 677.8077050119803,537.1621317488381 678.9136674647585,539.9165101427128 684.3390215610958,546.481997308964 685.5586748529839,549.7331185029582 684.7595915438777,551.9941591196567 682.7745009191364,553.8776220781324 680.2090232265787,555.3499708586332 677.6771915102916,556.3944447109633 676.7939942371931,553.1645111519791 675.4061130172973,551.4823881499599 673.3453195970716,550.8447683102524 670.4517973798213,550.7440909729893 668.6181118577224,551.7005203410756 667.5498638312578,553.9447382423996 666.4647929794373,558.6091973540807 664.042309383802,564.0829538556894 663.5376252742388,565.92425172072 663.335751695536,568.0758861848104 664.067543540437,569.891948330327 670.0059930776127,575.226709121359 668.3741812970071,576.1703294674841 667.0367682276344,576.0361261999603 665.7666466224642,575.495117402174 664.3451199146406,575.226709121359 662.0319842768625,575.5538316469592 660.627280394396,576.0948401405537 659.4160385965696,576.7658542152835 657.6748782070034,577.4452516717239 653.5785256859759,578.5314396846571 640.7006698865761,579.8482703025235 637.9585529347382,580.6828136199643 635.8557023697435,580.8673349452599 634.7790430119874,580.3305449123576 632.2808566208636,577.9778625712323 631.4060710045993,577.4452516717239 627.2256043567904,577.663328894164 623.4909420112024,578.3133642702057 616.3496620074944,580.8673349452599 609.9569968368158,578.0952884017454 603.8419077148133,578.4475644541234 598.3829081305317,581.118954308839 594.0173905666071,585.30413467046 591.5696726515613,589.9252536004154 589.6771073221078,591.401285482623 585.6901029217374,591.9505988928072 583.6545436581657,591.5480489691154 582.0900230162089,590.776490423815 580.5170910429524,590.3278098260605 578.4731202853151,590.8435827779783 577.2450556621437,591.9925312378099 573.9309632993117,597.4897011871406 571.7355876017991,600.1941551044354 568.7663627518303,603.363940020437 566.1504169087551,607.0912534264857 565.0317004062301,612.5457303941839 566.2597650294136,614.7802682553524 568.9766478246179,616.1511534644932 571.6767077944595,617.9454363132924 573.8552608293822,624.6192413402769 578.2207782305355,630.1692610366892 579.5750139624967,633.0363838094595 579.3479060643521,636.1130101940165 578.0441388084677,638.9296843435244 575.1337937658426,643.112651601633 572.5599049047771,651.3691605264868 569.8009652903631,655.9623724093315 566.8065062837458,663.1703310102655 565.6036758172107,668.5424853093965 564.0643893319038,670.6669748053099 562.197057996333,672.7327631079016 560.5904805351461,675.2259081077184 559.9428024914523,678.1924729747685 560.4558979323098,680.7441624915515 561.3390952054109,683.2120012007192 561.7933108388946,685.8976558584444 561.4484433260573,689.9783961103694 560.397018124951,693.1792091883348 558.5885667595076,695.9316736770717 544.4153550355215,710.350733314614 542.1526880365739,713.7981574209633 541.8667003310883,717.1533359584565 543.9190824200225,724.1356758561361 546.0471669788849,737.9191293657111 547.6537447656106,743.6440046706284 551.5986920212107,748.5771647294146 562.306406279748,756.9773529536054 564.9559977735157,760.0634314141735 573.2075829484721,772.088835458335 576.673080251163,779.4660165358822 577.3628152768407,782.5767079149745 577.800208084985,789.9282157979834 578.7675194848622,793.3484624734853 580.5927935128968,796.354192888967 583.3012648140177,798.0705285430399 591.2584507894244,801.352440394015 597.4660652067299,805.3040309130729 598.054863280284,806.4760922772125 598.8707692519773,809.3141158288902 600.1661251765703,811.7042079996932 600.3091189479362,812.2818428550971 600.5194040207033,812.842732159551 601.251196028392,813.6505767031149 602.0418678434353,813.9854333424344 603.791439401512,814.2198324403895 604.136306751593,814.7053722677853 604.7671619699133,815.0067409290211 608.1569566399102,816.9698085698664 610.8233709590336,819.970865879201 610.5878517296125,822.8337429090121 608.1148998206677,827.60926834977 608.1401339773217,828.6639651734934 608.4934128214547,830.6687061679603 608.4008873633819,831.7568633992736 607.5765700604067,834.6822939631696 607.4756331082832,836.0257131422841 607.8120892898278,837.7206646311993 608.5186471408625,839.6415869594135 609.0653880696464,840.4660276889757 609.864471378758,841.1439911194061 611.2439412673582,841.7131431132541 615.836566403867,842.6505654083815 618.5786833557048,844.1738647290059 618.6127914375697,844.1927696823747 623.6675814332702,846.9944398690051 625.4423871479983,847.4924293651635 626.9396166513062,847.2664511020142 628.5293716126748,844.0859824098898 630.6238105208312,844.4960992586513 632.7014267664181,845.7222580513023 633.6350923528097,846.4253071909043 634.947270940006,846.4838944763922 636.2258040392363,846.7182433987683 637.1931152763326,847.1994946069337 637.5716284399006,848.036449628535 638.1351921940334,848.756227375995 639.3548454859268,848.0699277817467 640.5072074763838,846.9693313252617 640.9109547965908,846.4253071909043 645.5119914271652,845.2451870965033 646.6475305922786,843.8265203206844 646.4708913329807,840.8928937910322 651.610257723823,843.1067196868084 655.9589522996179,844.4375112266813 660.3076470381949,843.700973878174 665.4554247603328,839.6918067347173Z" name="Mahaica-Berbice" name_en="Mahaica-Berbice" gn_name="East Berbice-Corentyne Region" admin="Guyana" adm0_a3="GUY" iso_3166_2="GY-MA" iso_a2="GY" postal="MA" type="Region" type_en="Region" wikidataid="Q1466671"/><path d="M198.6058102002571,542.5889040829683 196.2632347401949,540.5122462458437 194.74077108024514,536.69443968482 192.60427502730766,536.0818987909738 185.80365670803155,537.8314060714519 182.7881692104066,539.3081845110892 176.22307028332435,545.8737116226305 173.12767448733993,548.0089885692863 169.56124023252417,548.1054735062139 162.40734306910417,545.6471765700677 159.01334240793304,545.8233703273869 157.77266078782648,546.8721373540905 155.86747829867593,550.0183732214064 154.26510634035034,551.1803580627686 153.0622758738208,551.104850562735 151.9603821966515,550.2407035976679 150.83746019123507,549.1290471571061 149.62201256500708,548.306833169507 146.37941716925388,547.6566080588482 137.19416657067447,548.9360791455548 134.84317977932076,548.6676012853123 133.03472841387725,547.8327984677818 131.3566539856209,546.8008216510897 129.3925915263471,545.9282476185991 127.47479204026817,545.5464940527023 117.8058858231359,544.8836658597627 114.18898309224478,545.0598611155997 106.91732631412376,546.649799728493 94.37592637073247,533.1827673381684 82.04481166289462,519.6257875033134 69.70107963256926,506.06272968491027 57.36996492473277,492.49356256922465 45.038850054107186,478.9266506697684 32.69932385220101,465.34937002292287 20.364003315945347,451.7910817637047 8.032888445334745,438.20976697840075 2.784173771080258,432.4179745181413 0,425.86972828514934 1.6991029192544282,424.0803219930193 7.153897000649989,421.05589059137714 9.542735108356128,419.16976906975356 17.17608206190167,407.0791397839149 19.23266981647831,401.894524994237 20.725693491369857,399.58781752819124 22.887423863716403,398.423936096217 28.287543640633775,397.4239099332712 30.958163625407675,396.5709371450618 32.91802041903368,395.4196205690095 34.50356938922943,393.2808195927033 36.253140947316986,389.1123151173266 38.34758001824879,387.28432787021643 40.589218688943916,386.93133255935516 42.97385096824995,387.17506755436386 44.78650816210991,386.6707877886988 45.30801493424247,384.0821035194051 45.35848324753556,381.85896585890356 46.20382920428841,375.69354954634343 45.88840167650647,374.0880294303273 45.375306235666756,373.5626562488883 44.82015365004182,373.2011975176007 44.365937853773055,372.0999999753053 43.56264904180407,370.94835032308237 40.69436114395879,369.1746104896896 39.83639819026393,367.68665765142947 38.61253923273901,363.146975885994 38.38122566896842,361.34364441740456 39.37377106271594,353.4993251075971 40.168648380619324,351.2417377864837 41.60699807659315,349.2867935826732 41.951865752196525,347.92881551747246 42.01915689084534,346.583428053437 41.82569464342582,345.2506317848509 41.3630676786424,343.9220180314556 39.59246746677723,341.49177618308215 38.036358156111916,336.62266444063226 36.76203088528574,334.18799867416845 34.2764616538712,331.89623399205385 32.00538316087834,330.6304791386567 30.445068184563876,329.02407708690635 30.07076084944096,325.69342392951063 31.239945665253625,320.0957636624182 33.6161666132491,314.06448570408486 36.795676535999924,308.2640991845204 41.89719161048972,302.41280528894026 43.44068376144165,300.5576310366084 46.51084540078022,299.9602637459438 50.07727965559324,300.2883957085132 53.11379564420674,301.2054746339806 54.60681948187239,298.23965282803357 58.05128845634477,298.74448150720923 61.5336085843914,299.80881797299645 64.53227341943474,297.5413012610419 71.96374663150334,298.4584124427032 75.34513029573927,297.9704095086148 76.23253307170599,297.29729730650877 80.64851894893327,292.6484566079589 80.93450665441475,291.97529819230965 81.00179779306629,290.63737875158785 80.64010761764177,289.1311398408236 79.03352983091608,286.8506887411792 78.67183965548749,285.0288038761691 79.61812223882106,284.37240984674054 81.73358980075774,284.5491318410794 85.34208103756963,285.53371836961645 86.43135755505413,286.31632966965026 87.60054253363546,287.43132645814893 89.05150922653087,288.49161033218047 91.0029545260981,289.0764434298424 92.5212123576423,288.9502209457118 96.27269752859152,288.0792794425425 98.18208584615715,287.8604907538218 101.51300087156812,288.73984935554614 107.46827323408866,292.58955548985284 109.89916832378958,293.41837438481883 113.34784280113972,292.21511163395684 115.98481729797628,289.4551098098078 120.59847108826678,282.8534254034065 123.24385691639753,280.71164845652174 126.31401855573202,279.3819493083726 138.02689536771666,276.5794069954239 158.8240859889286,263.69311937132096 163.18119205878767,262.67458033931104 165.92330901062547,264.29076829605907 167.42894984522903,256.2179001511908 168.7958027368872,253.48185152224858 171.25613764890628,251.41080691713657 174.02769442302954,249.62595817052588 176.32821273832423,247.72319527975526 177.9305848594035,245.4583389261205 179.1965007989382,242.7555760474798 179.88202999620205,239.89272967282764 179.7600647158546,237.1308199287169 178.52358859860405,234.5624881065534 176.42494386203262,232.67618105765618 170.76827636468656,229.52661396473096 170.6551517729324,229.40144387843384 172.5558305572254,228.96671463389018 175.34421013945888,228.85302363801244 178.0737101735881,229.58569580749847 183.90281134592973,231.77103625318765 189.00432648827532,234.7563002173483 192.7431947002842,238.3729815409904 194.0553732583331,239.16871191559824 195.28343786254993,239.40869226244837 197.50825358816633,238.61296446709594 199.32932204262812,238.7266404109537 202.22284425013356,239.33290901732693 207.33277071466856,241.69899347040544 213.0735523452794,243.1893350447676 214.2427372550081,242.94936678132572 215.21004838278253,242.53257816345354 216.35820476745525,241.7495138347938 217.49794968354792,240.73488621260947 218.54937491153825,239.62341108477554 219.3947206232727,238.52454991877397 219.97931315132828,237.57724261022022 220.8919501725133,236.66781633027145 222.27983150858327,235.82995535186268 224.79904629217683,235.46365117208373 231.26741409916346,237.79196659885633 232.8697862736678,237.94353616683915 234.2282276161099,237.6909201453404 235.38900091087754,236.90359458287864 236.42360334809982,235.86784877893197 237.9544784788656,233.59420915376413 238.89655549368396,232.50788980053676 241.083519903479,230.43204924980245 241.86578018643465,229.24462531363562 242.5639265155691,227.2065902944976 242.77421161972097,226.28440312135322 243.9644249081151,225.27377342913883 245.93269289156888,224.28839609255965 250.79448308252807,223.05876142956376 253.1076186426415,222.80609424388632 254.74363625229546,222.93242809256577 278.3502348508892,235.74153718205855 295.29920920978975,239.8128683092673 296.34642870347983,240.31808501111874 297.4735565631074,241.15589532952902 310.9023592827269,255.0478568531026 311.84023056324634,255.67924853825974 313.1692322048296,256.2853793700321 317.7786802415331,255.9570589815537 318.9394535363007,256.2348685442432 320.0203187579053,256.7652293503019 322.34186564021627,258.67197187519577 332.1117086601386,261.92132054532345 334.483723914747,262.3253748321616 336.27955810987163,262.26224157469227 339.6777644794979,259.44223180097936 341.68388363239194,258.1037424016005 342.18856779452096,257.34609638239584 342.7941887012419,254.34911074875183 343.10541054999396,253.49040184884765 343.6942086659496,252.78322247259553 344.5647887834132,252.0255227623427 346.39426856006986,251.2804438580559 347.62653904495846,251.15415859520346 348.8840434964207,251.25518691043987 356.2271973015332,252.9473895695213 364.9834664092879,256.84099489526 364.90776377765064,260.1788116824568 361.71143104359624,270.5280527636512 361.3917977262751,273.2466515408636 361.91330467917084,275.1656041738058 363.08248958889953,275.8473255880267 364.19279451137794,276.20080862243196 368.2176503127799,277.07188430942455 369.10505307462773,277.5137305570705 370.9555615227147,278.7045988047302 371.79670164655175,279.1085640003668 377.6888885404344,281.2924640027894 379.6697735803669,281.62067480323174 381.81888667434606,281.73428594140904 382.836666320803,281.6711687607908 383.7745376013238,281.5070634971287 384.69979182536593,281.2293464593211 385.59981179007224,280.7117797974565 388.6321220579937,277.60630769370687 389.6162561229077,276.80677542465736 391.49199868395755,276.61741126869725 395.81966471916127,278.086022872696 397.3757739628886,280.61079088103975 397.59026480132167,281.49444020358203 398.17906306366655,288.0794110277514 399.17581403868365,290.21256852703027 400.4207014336672,291.5925682131234 401.8464340855517,292.3624965123551 404.7778076088717,293.23338971753014 407.2423481395029,293.3974699313879 408.21386500155575,293.27125442429707 409.12229643484204,293.0566874597484 411.1115929433437,292.40036164384105 412.44900590712314,292.0848183657072 413.8200643060426,292.12268363269294 414.60232473538207,293.5615496522398 414.67802736702066,294.8489337491365 417.2056534728104,300.86485778106027 419.90571336691977,305.5636875365105 420.3851632697143,308.1380390396332 419.4514977234719,317.332667689087 418.74494007215213,320.8823669690999 418.25287296650055,326.57669662584306 418.8963451890524,328.3723870360331 419.6407543025705,329.4321200106152 420.5744198488102,329.7222824946985 422.5847448823774,330.0629066501541 430.7269816148325,330.4539919819355 432.58590138511425,330.9081532616965 434.2429475198242,331.55154387090704 443.92447085162377,336.65223000224165 445.4301117230606,337.1610193936677 446.7254676367253,337.2367068224277 447.4993164511118,336.76576183310607 448.7273812017138,336.3999365714898 449.57272705982933,336.3999365714898 452.1087646341895,337.4006959596528 452.4531021412675,337.6213012760089 451.9762353570939,339.4555151509825 441.1540068032173,354.8162628709357 441.83619122831493,355.2465871769888 442.26669607480056,355.83579671242046 447.2737982038456,351.2808981220418 448.9295859246981,350.2811701073479 449.4263222734998,349.62571247716375 449.86345025394087,348.69879398898536 450.51914214322227,348.16912140186736 452.7180281505617,349.1357712213031 454.11551299607135,349.30791300316724 454.8951456472786,349.2647749241616 455.2420117930841,351.0694996252906 455.26304017175767,358.30450588256423 455.6205249512771,361.4740877812364 459.5192094559877,369.2546029687095 460.06595052183815,372.0749128473536 459.9818365680156,373.55858454592374 459.7210832379447,375.05904179296533 459.20798760724387,376.44179230112263 458.4004932113226,377.5765552800427 458.01356873094426,378.7911548893551 458.6570408071041,380.1150067742013 459.59491208762495,381.56491575606634 460.06595052183815,383.13247055535084 457.74440378592044,404.84412692505344 457.8453405305097,408.2136266490866 459.6033234098198,412.16274903288604 460.06595052183815,413.8641774349303 460.05333361174456,427.184587964728 459.57808929685825,431.05305255052144 457.4415932593633,434.0855420820489 453.3957090792851,442.72463206864586 452.73541406596655,446.374050912477 453.3957090792851,456.64538706293354 452.27278710033204,467.03312501483504 452.43260368580275,478.22571531545776 451.5241722525164,485.0976186145478 449.57693279411865,491.70038541720953 446.628736480032,498.39502857929125 442.9151026737564,505.5172773420035 440.08887177569744,508.4130317450027 436.17336418745526,509.58389903475125 422.0800607202456,511.80389166947816 415.38458501834043,512.0808626170602 411.2798209973917,505.4501282835539 410.42185808278924,504.40511652246613 409.4251069613897,503.64967937026825 408.26433352023963,503.12086962122584 406.96477187229243,502.75573747607956 405.2740801560491,502.4535581629063 397.98139486961776,501.98769634512604 396.73230174034495,501.66033269447564 395.5462941862306,500.9930109158907 394.3644923664056,500.05707371518 390.0788830885504,494.4748370604457 389.3344741214066,493.75709712955575 388.03911835412435,493.37933716060377 386.4031005980866,493.45488915783017 380.4520340097159,496.07399248235976 379.06415267364594,496.50210816566374 377.5248660743028,496.60284122841074 375.3042560829662,496.099175871307 374.0467514851229,495.21775504433833 373.3612223588578,494.1222637142084 373.23505135492184,492.9889835102315 373.579918785199,486.8102687958775 373.2813139929312,485.6517148906881 372.49064224139414,484.63167172668824 370.31629503446163,482.67550865482957 369.2732811286675,481.5546845739829 368.419523801972,480.38347178280884 366.0685370724183,475.7572480518657 365.3073051681362,474.7245024633353 362.20770373714794,471.6849733800983 358.73800061655623,467.096102782253 357.6319012819874,465.9876864144578 356.4543049036773,465.00101649073633 355.22624029946184,464.45939346116086 353.9603243794291,464.3082421836138 352.3579524976842,464.5475647300968 351.066802171925,464.99261933471354 345.15779263365545,468.2548877220894 343.52598075829223,469.68235603606627 341.70070656954243,471.60940368979385 338.6389563079945,475.48017108913785 336.4604033667713,479.37596543823264 335.57300045854095,480.67312786224915 334.15147354094717,481.9324919271647 331.367299546611,483.4604975246476 329.6219337237878,484.10275616803943 328.1078813837805,484.40499393217715 326.9891649927343,484.455366920075 324.59612121307674,484.3420278784833 322.1105520110152,483.92645036859983 309.9602824142978,480.2197527260645 308.9761483493756,480.24494034810624 308.2695906980558,480.39606564569675 307.3317194175241,480.83684627159766 300.4091358207167,485.5257841191727 295.76604205609874,489.7737516948451 294.88284488215777,490.8818857457734 294.38236645431675,492.3803644355723 294.36554366355006,494.19781526617123 295.6146367928229,500.2207585693209 296.81326154979706,513.6797248294911 295.084718517731,516.7682660181696 285.7312399718244,517.6620782092136 283.1741737260257,517.5739562694408 268.36169555101077,514.6113331391252 265.8298635645574,514.6658864999678 260.6820857841902,515.547128923397 253.54921722961336,515.1023122842383 252.4178834893222,515.1778473396794 251.29496151036912,515.3708811361228 240.65453837298588,518.7069469031669 238.89234975939462,519.5923490136073 237.3068005220408,520.9896734307916 235.8348052321387,523.0037995925669 233.92541708955412,526.7214324123994 232.40715901525886,531.6095284762797 229.47157990403883,537.8189509835327 228.74399372766302,540.0383059296156 227.38975797312645,541.6744719440702 225.12709093168735,543.7804720559886 217.45589263344678,549.6996901812374 214.26797151434528,553.1646421911187 212.9053359455693,554.2388944263458 212.49303421876436,553.7769479110186 207.32002217721885,541.8253701358368 205.90270097225533,539.9500728755237 198.6058102002571,542.5889040829683Z" name="Pomeroon-Supenaam" name_en="Pomeroon-Supenaam" gn_name="Cuyuni-Mazaruni Region" admin="Guyana" adm0_a3="GUY" iso_3166_2="GY-PM" iso_a2="GY" postal="PM" type="Region" type_en="Region" wikidataid="Q680382"/><path d="M209.11165088007664,660.2369134139275 207.66068402440848,660.2033881704698 205.71765021889462,659.7968943525253 203.12693853247066,658.4768273460409 201.30166434168095,656.0797150042459 200.5109925266349,653.0916363255546 201.0493222869014,650.01127811998 205.39801702546626,645.4136369916242 206.79851524230128,645.1789302318467 210.06634495747582,645.1202534664862 211.54254596977893,644.6005435863941 213.06921529539147,643.1461816603411 213.62436771822595,641.6205485469563 213.8010071403088,639.9733449420382 214.21316579178145,638.150076226299 215.03327759189523,636.2094152252133 219.6847826985341,629.4818112489944 221.08107524972132,626.8451510656291 222.06100364652957,624.0197891008219 222.4479281413795,620.9470216310275 221.72454746498497,613.899874053836 224.01244878333628,606.6803747964325 224.42040176917885,596.9529953821636 225.5517352686418,592.1686463223228 226.75877156359326,589.2291634078533 227.30971832079766,586.2266971260627 227.46112342343878,579.9698875375682 230.35464564070674,570.1435941495492 230.09389209186432,565.5132131688878 225.5517352686418,563.2273054000779 218.37260394858274,559.1586833909016 215.01645476653678,556.6041771519181 212.9053359455693,554.2388944263458 214.26797151434528,553.1646421911187 217.45589263344678,549.6996901812374 225.12709093168735,543.7804720559886 227.38975797312645,541.6744719440702 228.74399372766302,540.0383059296156 229.47157990403883,537.8189509835327 232.40715901525886,531.6095284762797 233.92541708955412,526.7214324123994 235.8348052321387,523.0037995925669 237.3068005220408,520.9896734307916 238.89234975939462,519.5923490136073 240.65453837298588,518.7069469031669 251.29496151036912,515.3708811361228 252.4178834893222,515.1778473396794 253.54921722961336,515.1023122842383 260.6820857841902,515.547128923397 265.8298635645574,514.6658864999678 268.36169555101077,514.6113331391252 283.1741737260257,517.5739562694408 285.7312399718244,517.6620782092136 295.084718517731,516.7682660181696 296.81326154979706,513.6797248294911 295.6146367928229,500.2207585693209 294.36554366355006,494.19781526617123 294.38236645431675,492.3803644355723 294.88284488215777,490.8818857457734 295.76604205609874,489.7737516948451 300.4091358207167,485.5257841191727 307.3317194175241,480.83684627159766 308.2695906980558,480.39606564569675 308.9761483493756,480.24494034810624 309.9602824142978,480.2197527260645 322.1105520110152,483.92645036859983 324.59612121307674,484.3420278784833 326.9891649927343,484.455366920075 328.1078813837805,484.40499393217715 329.6219337237878,484.10275616803943 331.367299546611,483.4604975246476 334.15147354094717,481.9324919271647 335.57300045854095,480.67312786224915 336.4604033667713,479.37596543823264 338.6389563079945,475.48017108913785 341.70070656954243,471.60940368979385 343.52598075829223,469.68235603606627 345.15779263365545,468.2548877220894 351.066802171925,464.99261933471354 352.3579524976842,464.5475647300968 353.9603243794291,464.3082421836138 355.22624029946184,464.45939346116086 356.4543049036773,465.00101649073633 357.6319012819874,465.9876864144578 358.73800061655623,467.096102782253 362.20770373714794,471.6849733800983 365.3073051681362,474.7245024633353 366.0685370724183,475.7572480518657 368.419523801972,480.38347178280884 369.2732811286675,481.5546845739829 370.31629503446163,482.67550865482957 372.49064224139414,484.63167172668824 373.2813139929312,485.6517148906881 373.579918785199,486.8102687958775 373.23505135492184,492.9889835102315 373.3612223588578,494.1222637142084 374.0467514851229,495.21775504433833 375.3042560829662,496.099175871307 377.5248660743028,496.60284122841074 379.06415267364594,496.50210816566374 380.4520340097159,496.07399248235976 386.4031005980866,493.45488915783017 388.03911835412435,493.37933716060377 389.3344741214066,493.75709712955575 390.0788830885504,494.4748370604457 394.3644923664056,500.05707371518 395.5462941862306,500.9930109158907 396.73230174034495,501.66033269447564 397.98139486961776,501.98769634512604 405.2740801560491,502.4535581629063 406.96477187229243,502.75573747607956 408.26433352023963,503.12086962122584 409.4251069613897,503.64967937026825 410.42185808278924,504.40511652246613 411.2798209973917,505.4501282835539 415.38458501834043,512.0808626170602 413.0672438703201,513.1132018892843 411.88123631621534,516.4283635087826 410.4176523485095,519.0971962388389 409.85408849188144,520.6749624488464 409.6648319127856,522.4625071718627 409.7026832286083,523.9730830536661 409.5638951681963,525.2612503758602 408.8447203140059,526.4193274803847 416.44442156851744,537.8860775629513 418.29072428232325,539.7236556824673 419.32112098525755,542.2660023383481 419.12765867186965,553.957453602085 415.1911228513459,577.3824757040885 415.51075602227775,584.0587934582252 419.4725262485307,594.3827709513811 423.60252438244095,617.4592691522095 425.8105174636731,620.2177245128897 433.2293736076579,618.0503727090994 435.5971832743608,620.5698628075573 437.93975853533584,627.4656782817955 441.85526597719695,632.8604653792919 444.9254275609289,634.4910065176754 451.9447423144404,636.7292946115851 453.66487387791693,637.5969336526315 454.7920017375431,638.4184600568154 457.1219600884246,639.776480474593 460.4696979393779,640.9207256880231 468.08622198464525,642.132020421006 492.5970465750009,641.9266460711025 504.56226532691176,639.1729178719436 506.95530910656936,638.8082637702503 505.18470917078326,644.910824360301 491.29748492705505,669.1083124765922 488.4123741881283,679.8183171004738 481.88933227455766,697.4693035207887 481.27529989925944,700.9254636394812 468.7801627258728,695.6678723400656 466.2315079486514,695.0268916168583 464.9151236563213,694.888640498014 463.6029449518886,694.888640498014 461.037467530283,695.2154157505017 459.66220325069037,695.5924630003453 455.57005643260277,697.4064632827253 452.2097013787897,699.517875603856 449.8755375863865,701.4156021017884 447.37314559355826,704.2600427329612 444.11793316500894,709.7686045217938 443.21370731963907,710.9163655653821 421.4407942319831,730.1837871696124 418.395866907587,734.0201704687446 413.92100119701564,738.6354067768608 411.38075774198364,740.6204944874519 410.2830700223759,741.2361167586123 409.551277965327,741.5502088354784 407.7806778831666,741.7260999180563 402.33429531053156,741.6758452221824 400.0590112126246,741.0099702126226 398.9066492400437,740.1933263711082 397.4640937973857,738.9620688206187 386.3526322257879,724.7138115838133 385.4189666795564,722.9504695535977 384.83437429788324,721.2792508535355 383.97220564899834,717.1785989087084 382.42450758107657,713.4171076245675 381.90720636246067,712.7510855390822 381.1123290230249,712.0096608656589 379.8422072223231,711.6075303604644 378.959010194766,711.4441644831411 377.89076217600893,711.5069974595924 376.81830842297217,711.7331962637506 375.65753498182346,712.0976268601163 368.3564383731945,715.7083633832466 367.2124877228112,716.1230468695928 366.01806870012774,716.3995019639092 364.9203806877456,716.4120680371442 361.43385477638714,715.8842899878416 359.1795990571443,715.7711943728877 349.5569557125895,717.3293913575194 327.4938491548633,716.6005597144953 325.15547948178835,716.03508398327 322.7582299678509,715.1638274103707 317.379138558284,712.600287751862 316.09639984747776,711.7457628034057 314.8851580340249,710.698542999793 313.69073886495903,709.203098007203 313.1566150019684,707.7076350982035 313.1187636861457,706.1576964635599 313.95149248778523,704.0715325963755 314.83468951534377,702.6388453624069 316.81978043594535,700.2719425135035 317.4926925057426,698.9146185166405 317.538955143752,697.4190312745875 316.31930215448807,690.5357426869024 316.09639984747776,683.6059760112405 316.71884354497365,680.4593783821379 317.5810121938558,678.1926038410185 318.5441177337234,677.073865735207 319.25488111933385,675.9551168388078 319.25488111933385,673.9564273048611 318.5861747838259,671.2746943048706 316.3066849516296,665.8146654327653 315.51601305371014,663.1830335806202 314.2122458178561,660.4298139920495 310.6878685906654,659.1307076214824 307.25181105160027,660.0861807000628 305.9270151443064,660.6644897009072 304.7073620086682,661.3475610724793 303.39518330423545,662.2904444424934 302.06618195542666,663.4721806947707 300.350255979838,665.5003812849009 299.35350500482906,666.9083674407883 294.08796739634096,677.5515304024901 293.3435584291971,678.6074143259394 292.31736731417107,679.7177582308877 291.0808912413742,680.5850763960541 289.47851935963746,681.3141215183776 286.1938669374698,681.7037818040474 280.2091547675548,681.1130060604132 278.27217779266914,681.4313072323927 278.33328072249725,679.8558958951033 277.727659823586,679.3237705983004 275.856122822366,679.1310317407625 273.9761746526382,678.5276733573168 272.5378249566834,677.17429581946 271.30555466785063,675.5820673379988 269.99758174631984,674.2789381903333 260.50531495126904,668.9866618199898 258.33096758197775,666.1413889770222 257.0187888320264,667.5870811770081 255.6267019464883,667.9474537436759 252.14438165566756,667.033948820815 251.37473849439914,666.9501407249568 249.60413828254622,666.9669023813464 248.8891692629887,666.753191367185 248.22887422236522,665.7391063851582 248.69150134991867,663.6815762015466 248.02700064364743,663.0697577791326 245.9283559070719,663.061376753738 242.7614631440304,664.5951072182233 241.25161648101036,664.74596490446 240.3768308647448,663.9581506894069 238.03846107031265,660.8696996421536 236.57067138930103,659.9519488612005 234.9725050966423,659.6334583655961 233.0925567641458,659.5328820848894 231.48597914017378,659.9854741770633 230.77942145190775,661.3306676911219 229.8583728624405,662.4034590319399 227.83543092134667,662.0849750707537 223.97459746698522,660.7691245912387 220.8034990383,661.2468555130895 218.2926956502219,661.9508764886997 216.55994691749007,661.5066731662612 215.69777829816377,658.5522601687195 214.8314038504074,657.3495200069633 213.05659813567942,656.4443138431 211.29440941787985,656.3688796499765 210.44065229259738,657.6680169239522 210.05793346341292,659.5161193629823 209.11165088007664,660.2369134139275Z" name="Potaro-Siparuni" name_en="Potaro-Siparuni" gn_name="Potaro-Siparuni Region" admin="Guyana" adm0_a3="GUY" iso_3166_2="GY-PT" iso_a2="GY" postal="PT" type="Region" type_en="Region" wikidataid="Q1454035"/><path d="M294.07942458250835,747.0486586147437 293.05743920369173,746.4121248129514 293.20463880347006,742.241077442235 292.49808111519036,741.2862407798261 291.51815271838353,740.4947261034065 289.22604589715576,736.3486184318216 283.7123720084056,731.2474684874883 282.1562626977417,728.73032409242 282.66935830136504,724.9272906981081 284.4778096668126,722.2341048627947 284.9362309659455,719.926212891002 281.48755632582674,717.2454869585413 274.4934757591243,714.9961465708415 271.8228559371218,713.0483611678961 269.91346761955754,708.7840719220578 269.5938344261237,707.0205067641872 269.57701160076795,705.6129881289321 269.99758174631984,702.7476327690008 270.3929175724653,701.800877951483 271.84388426534167,699.8780216211608 272.1887517781968,698.8474590749713 271.85229575940724,697.7708049662372 270.20366115345547,695.9232947916842 269.91346761955754,695.1943376758613 271.6504221807044,692.1611587378329 277.21456421995856,686.4213726724132 278.22813810472866,682.5667648134196 278.27217779266914,681.4313072323927 280.2091547675548,681.1130060604132 286.1938669374698,681.7037818040474 289.47851935963746,681.3141215183776 291.0808912413742,680.5850763960541 292.31736731417107,679.7177582308877 293.3435584291971,678.6074143259394 294.08796739634096,677.5515304024901 299.35350500482906,666.9083674407883 300.350255979838,665.5003812849009 302.06618195542666,663.4721806947707 303.39518330423545,662.2904444424934 304.7073620086682,661.3475610724793 305.9270151443064,660.6644897009072 307.25181105160027,660.0861807000628 310.6878685906654,659.1307076214824 314.2122458178561,660.4298139920495 315.51601305371014,663.1830335806202 316.3066849516296,665.8146654327653 318.5861747838259,671.2746943048706 319.25488111933385,673.9564273048611 319.25488111933385,675.9551168388078 318.5441177337234,677.073865735207 317.5810121938558,678.1926038410185 316.71884354497365,680.4593783821379 316.09639984747776,683.6059760112405 316.31930215448807,690.5357426869024 317.538955143752,697.4190312745875 317.4926925057426,698.9146185166405 316.81978043594535,700.2719425135035 314.83468951534377,702.6388453624069 313.95149248778523,704.0715325963755 313.1187636861457,706.1576964635599 313.1566150019684,707.7076350982035 313.69073886495903,709.203098007203 314.8851580340249,710.698542999793 316.09639984747776,711.7457628034057 317.379138558284,712.600287751862 322.7582299678509,715.1638274103707 325.15547948178835,716.03508398327 327.4938491548633,716.6005597144953 349.5569557125895,717.3293913575194 359.1795990571443,715.7711943728877 361.43385477638714,715.8842899878416 364.9203806877456,716.4120680371442 366.01806870012774,716.3995019639092 367.2124877228112,716.1230468695928 368.3564383731945,715.7083633832466 375.65753498182346,712.0976268601163 376.81830842297217,711.7331962637506 377.89076217600893,711.5069974595924 378.959010194766,711.4441644831411 379.8422072223231,711.6075303604644 381.1123290230249,712.0096608656589 381.90720636246067,712.7510855390822 382.42450758107657,713.4171076245675 383.97220564899834,717.1785989087084 384.83437429788324,721.2792508535355 385.4189666795564,722.9504695535977 386.3526322257879,724.7138115838133 397.4640937973857,738.9620688206187 398.9066492400437,740.1933263711082 400.0590112126246,741.0099702126226 402.33429531053156,741.6758452221824 407.7806778831666,741.7260999180563 409.551277965327,741.5502088354784 410.2830700223759,741.2361167586123 411.38075774198364,740.6204944874519 413.92100119701564,738.6354067768608 418.395866907587,734.0201704687446 421.4407942319831,730.1837871696124 443.21370731963907,710.9163655653821 444.11793316500894,709.7686045217938 447.37314559355826,704.2600427329612 449.8755375863865,701.4156021017884 452.2097013787897,699.517875603856 455.57005643260277,697.4064632827253 459.66220325069037,695.5924630003453 461.037467530283,695.2154157505017 463.6029449518886,694.888640498014 464.9151236563213,694.888640498014 466.2315079486514,695.0268916168583 468.7801627258728,695.6678723400656 481.27529989925944,700.9254636394812 483.68096073539436,705.5544719244612 493.56856343706465,719.1514522245743 500.1631023943615,741.6758452221824 500.2640391389603,743.0117731153385 500.12525107854833,745.2480609111426 498.96027190309803,749.8754648484854 498.97709469386473,752.0027603448441 499.29672786480614,754.8293304268527 504.4066544757331,775.6771221737167 505.67257039577265,779.1479567399972 506.95530910656936,781.7478860123754 522.1126550046278,804.1237190430919 527.3319296823402,814.7180601288725 528.2109211219919,817.0955078165044 528.6651369118302,820.7160195927918 528.6272855960076,824.4494496071651 534.2292790198213,846.0864681344698 534.2545132791585,849.1036916911135 533.4386072682856,856.5063153084982 533.8507658616296,860.9167593068058 534.7844315542422,865.5906935310899 536.5340031113548,870.5406487600125 553.6890568401205,894.9493375015962 563.9257325599667,919.0157329734714 564.4556508350573,922.1445850083512 563.8878812441509,923.3492624845929 551.1446077971802,940.418860879138 548.5875416977722,945.2537791187227 548.2468798553937,946.4875838496057 547.9230409501725,948.7586001744556 547.8599553750126,951.1466933347624 549.630555457173,971.9649517915805 549.5842928191636,976.7489150082725 549.235219654597,980.090095844088 548.5244561226124,983.1552368757247 546.4846912418038,988.7041571462921 535.3059383607555,1010.2085263322014 509.407232727107,1082.1248902731986 503.47719451739897,1093.3476106252913 496.6976048616671,1103.437233594483 488.4796654975666,1122.6124335999543 486.6501854281437,1125.211944738223 479.61404803026016,1132.2873573701129 473.8942949247053,1140.4449989897978 472.55688210731785,1144.1350971258612 471.14797239257564,1153.6715006396194 471.1732065055372,1153.7341845114045 471.214000854584,1153.835521012027 469.27630398414374,1156.2455703712146 470.3613748359628,1159.5928391849534 473.4399478065792,1165.9488059114021 474.4745503451052,1169.316881676011 474.57548697168994,1173.228158740228 473.5156504392936,1176.0445881667163 468.4183410304489,1184.000685912035 467.0809282866176,1184.067543306067 465.79398385609034,1183.3070406996235 464.4902164374359,1182.8473956152025 464.5406849134963,1182.529822441679 463.8930070325848,1181.8696036221975 462.9845756028337,1181.1926692733473 462.2275494385059,1180.824951380456 461.5041689248651,1181.1090969438312 459.4265526792958,1182.6886090591283 458.39195030355216,1183.1148255508376 441.77943199578056,1181.5436723851333 439.31489141813006,1181.7693169909974 437.4475600825605,1183.190040199028 432.93904891003996,1189.650090472395 430.348337223631,1192.4580506091759 427.23611843951534,1194.6726487660687 423.3248168346322,1196.201968785088 420.069604441937,1196.9373775312315 417.1340250799028,1197.171370951183 414.19844604340875,1196.703383987176 410.9264106626,1195.32449088489 406.7375326835119,1191.9984155196582 405.341239969556,1188.647243107516 404.4832771786339,1185.137258687267 401.9177994860912,1181.2595269629005 398.90651781688,1178.8693550184553 395.5671912974225,1177.0641809165845 394.6678398263537,1176.71524411946 388.30815167900255,1174.2477587376497 361.14773570943026,1169.467316169234 350.700774836964,1166.1243143042595 347.8072527824851,1164.5656296086543 345.7716935189106,1161.861944165648 342.2893732280749,1154.1059766387739 340.9267261648304,1152.3508316941193 337.9743241402106,1150.6416466630687 337.25935495789395,1147.854278279081 336.8976647824694,1144.8203258896963 335.00509945301593,1142.375592986364 333.52048694664586,1142.1499243996686 330.2106004122438,1143.0609558622862 328.23392111879804,1142.5845452313272 327.63250572275916,1141.8490328816647 326.4759380666422,1139.29980149112 325.8787286618102,1138.3636856307069 325.05020553041305,1137.9457758357137 323.03567475782984,1137.745179040938 322.2660315965655,1137.4192088736124 320.79403624989385,1135.6932336867967 317.59770366456956,1130.0221085446744 316.092062829966,1128.3546036958096 311.00737041806326,1124.350885265069 308.2694592946269,1120.8611732869254 303.72730230863715,1113.5138448911857 300.3501244728299,1110.6927253102592 296.8930385014155,1109.6186033898837 293.9868991244505,1109.982217133814 291.1606683713741,1110.7763143603281 287.86760449956324,1110.9685693796189 285.99606766111054,1110.4921114317171 284.343227226745,1109.6436801636085 282.8544090547108,1108.4985032231407 279.2921806283156,1104.7285832811815 279.02722141383487,1103.3994870474758 281.6305500971872,1099.9220750385057 285.0497849150083,1093.3558393737135 284.8899683182839,1091.3704744105903 284.456781175805,1091.1447688404478 283.4221786372764,1091.4122716827862 281.38661953647323,1090.9274226565128 275.26732474882687,1088.5491425264695 273.37055375372694,1088.4446482785172 270.0690785506178,1089.6191620146233 268.08819342875285,1089.5355669359833 266.6119925792184,1087.7842433468154 265.82973209546924,1084.478015244469 265.57318437504057,1080.9084154013365 265.6699154987435,1078.3377731882786 266.26712490359455,1076.4944197827763 268.302684329935,1073.3677960587208 269.0428876689206,1071.653989682773 269.20690993127783,1070.1784351839142 268.79475127978753,1065.939828195835 269.0891503165809,1064.564565146182 270.02281574020384,1061.8850808146142 270.13636968926795,1060.5599588686923 269.59804009177554,1058.7833652168226 267.79800005761945,1055.4098935961501 267.5540694969055,1053.2737564887373 268.0629592721138,1051.5723583659124 269.89664479419633,1048.717160594428 270.4139460634552,1047.1160617376638 270.3382434307408,1045.4647871671407 268.85363108715984,1040.6446740367003 268.7274599783823,1034.6079013708184 269.62748007682836,1028.3535771131324 269.38775501900307,1022.8014710026988 265.88020040875824,1018.8881594506076 264.4124108905058,1018.5035141108862 261.2244897992321,1018.4198955294868 259.7020259765123,1018.1188682861819 257.67908387265123,1017.073631249484 252.69532841287062,1012.825739185634 246.21434344978746,1009.4976102901933 243.11053632251836,1007.298342091861 241.43246156872468,1004.2042777405852 241.69742078321897,1002.7324913736942 243.37549553699358,1000.0314032588975 243.32502689816454,998.2334465631453 242.96333672275367,996.5191021438357 242.7951086319623,993.0151066570548 242.5175324205437,991.250543358713 237.78611901554808,980.7130330953289 237.18890961069837,977.6185838675607 237.2351720955723,975.6029852430729 236.99124169762564,974.3819075654696 235.64121163133,971.6553652448855 234.9725050966423,970.9946332580784 232.87386036006544,970.2251704434556 232.06636588243367,969.5978887475337 232.18412549716194,969.079334616197 232.9874143091309,967.0887427885963 233.03367711954488,966.2188983898654 227.91954488536075,956.2906916241084 227.33074681179164,953.1707727414084 228.36534918754893,926.7456096336077 231.74252702337114,913.4688670131582 232.15889134050792,910.0470394037204 231.57850459824527,900.7851827720349 232.35235358793423,896.7272131084192 233.95472570901487,892.878329144885 238.30342012203423,885.8246050894427 239.16558890414825,885.1300944019877 240.2422482619044,884.7368160572067 241.20114816772272,884.2180218399096 241.7310664339182,883.1720609534395 241.55442701185575,882.0424159163464 240.33477371996227,880.3270142621686 240.11187165025046,879.3396043697607 240.62917275675568,878.8961049464205 242.6899661769665,878.5781233008724 243.09791916282128,877.9505262506834 242.73622882461044,876.8877899729449 241.35255343314748,875.3648016494006 240.8773091458752,874.3104170011437 240.90674913094296,872.2016272832938 241.74788925927936,870.9547508500963 242.92969123480268,869.9254429869417 244.00635042979016,868.4442323626647 246.22275494384624,861.1300341921584 246.93772396340785,859.5064714631394 251.15183626191867,852.5726684278658 252.86776216928934,847.1241684145137 253.38926910419465,846.9860703548712 254.41546014866043,846.9191135778581 255.53417648843043,846.6512866690741 256.35428812576197,845.8980206329188 256.48045923453265,844.7806692936207 255.4879138407715,842.6421956609373 255.260805942646,841.5541154155223 255.98418645626776,833.7364525942651 253.16636687171555,834.7534409629085 253.62478833361712,831.8991604174228 256.4215794271808,825.1985049859785 255.08837218622864,821.0883988422925 252.14438165566756,817.7357744738115 249.6377839332509,814.1863468314743 249.6630182526722,809.431319313037 253.76778226775443,804.964968484656 267.133499351355,800.2933621969133 273.30326245230265,794.6085325865126 276.9790449905375,793.0135582878897 278.4173946864895,791.8539462694076 279.40994008025336,789.9951982511499 279.50246553833034,788.5927482610045 279.30479762525346,787.1651656761798 279.4057344146083,785.2268117739771 280.7641758122145,781.1574372473693 282.8291748980717,779.1017721809228 289.4741821235148,776.1417282588734 292.6789262029197,773.6756745348027 293.200433137825,771.385428768783 292.49808111519036,768.6973770556823 292.043865481708,765.0420441269341 293.04902787241383,761.7676533553548 295.416837489111,757.9907000318833 298.44914764930945,754.9129489738051 301.473046641,753.6943912455993 303.0796244277243,753.4682658583791 303.97123286935107,752.6893868078464 304.2277805897798,751.454058459345 303.91235322476786,749.8460208578797 302.73475691488824,748.5101621666205 300.8043401063164,747.8233830921655 295.643945387242,746.9816552778602 294.07942458250835,747.0486586147437Z" name="Upper Demerara-Berbice" name_en="Upper Demerara-Berbice" gn_name="Upper Takutu-Upper Essequibo Region" admin="Guyana" adm0_a3="GUY" iso_3166_2="GY-UD" iso_a2="GY" postal="UD" type="Region" type_en="Region" wikidataid="Q1309042"/><path d="M216.27395921200724,85.99658735726436 219.77730799383693,85.8067103400757 222.52783643974033,84.19062414996573 224.17647120846217,81.3338932688481 225.5517352686418,74.7802399485251 227.45271209214727,72.33669344624546 227.66720283057438,70.43327966911818 227.2550441790895,68.55513368814586 227.2340156880819,66.20420886069786 228.43264048896913,63.65903561092387 232.60469564269744,60.413054815651364 234.33323870978012,58.49240372320981 237.15526395999782,57.13736045888411 245.28908935745605,55.26726927741793 248.63262154255864,55.064637490350314 252.00979921561355,53.98392437945178 255.13042933099206,51.14696519895858 257.1870169227987,47.537259038936796 257.3594506792215,44.17645944468719 250.84482022820234,33.65803073037088 233.90425707016402,14.690006287001921 223.92790315181583,0 227.16662395723026,1.4904497993300456 232.52475299975723,4.976896958418286 238.33325645340477,10.83155568754872 247.63878342503548,24.980251626021996 253.745328557757,30.852981115629127 258.36828794077024,33.240490886325986 266.3160690333952,35.39515742509113 270.4091762350569,37.45000220205736 279.3371837573908,43.93994711207038 284.0131282120542,46.47988803913523 288.8414052359928,47.48386796475084 290.3183678517348,49.99707314544085 290.6230328275315,50.322851710023514 290.84822003309455,51.639246063135346 291.48404252050557,51.93177454243985 292.49738461998345,51.82540067544411 301.65720231906437,53.700213252660134 302.84936936088,54.84368889507474 304.98202402866383,57.45632104633857 319.51321703818263,69.89976658787828 315.76451377881745,63.87111119469867 310.0818501958616,58.30058392603088 303.26662793945076,53.793287540350185 291.0469145400645,48.80696982317966 276.06534711942925,38.4607751276775 266.19685229665896,33.114134694796256 264.8589758195209,31.30521833726383 262.8521610224191,26.782699342764104 263.2296806344955,24.66764468682353 267.0843545254574,24.05572867402026 269.76673061369314,25.239647663274944 275.52887196688545,29.82878476021659 282.15864598423315,31.804005662545123 285.3907436556921,34.00527293075273 290.6230328275315,38.4607751276775 301.33929107535954,44.83093272052076 316.2016415964899,51.55281701552817 333.4880654932927,63.93758234647305 363.23263626295284,81.58990316916797 373.0547691480379,88.95912745025939 375.4438689907924,91.17830318484253 377.836497210917,94.3195811909948 386.625634265635,102.44852022664138 408.87327071395504,127.31123947371466 417.2291867699003,133.90221994989804 421.9859100198578,140.76914247911762 425.8153252480841,145.85029853952287 417.87435995468854,155.72091964294628 411.65833400920366,161.5038063770267 408.2264822044251,163.6828011476223 388.34192873429635,171.85447797352597 385.9741190675935,173.08499319764846 376.28839014788844,183.1811468076656 374.45470449056,185.59541357465415 373.436924990495,187.53350857182724 373.50421629994423,188.78481573705707 373.77338095220176,190.0108226665253 374.3369449552013,191.1651877354402 377.4239293297027,195.90884211762338 378.05478434938516,197.13472642801108 378.4795602919728,198.37322717537202 378.5973198273396,199.6748936980472 378.3533892880368,201.25876674750535 377.18841011259605,202.62356548076752 373.0079434600019,205.88802516784693 371.695764901953,207.32855255693397 370.77892200010433,208.6679644059508 361.7030197214096,236.20888845449517 361.35815214474036,238.47402706298183 361.27403819091643,240.7601470204522 361.52638019878975,243.03777634738546 364.8194439431536,255.02260117490323 364.9834664092879,256.84099489526 356.2271973015332,252.9473895695213 348.8840434964207,251.25518691043987 347.62653904495846,251.15415859520346 346.39426856006986,251.2804438580559 344.5647887834132,252.0255227623427 343.6942086659496,252.78322247259553 343.10541054999396,253.49040184884765 342.7941887012419,254.34911074875183 342.18856779452096,257.34609638239584 341.68388363239194,258.1037424016005 339.6777644794979,259.44223180097936 336.27955810987163,262.26224157469227 334.483723914747,262.3253748321616 332.1117086601386,261.92132054532345 322.34186564021627,258.67197187519577 320.0203187579053,256.7652293503019 318.9394535363007,256.2348685442432 317.7786802415331,255.9570589815537 313.1692322048296,256.2853793700321 311.84023056324634,255.67924853825974 310.9023592827269,255.0478568531026 297.4735565631074,241.15589532952902 296.34642870347983,240.31808501111874 295.29920920978975,239.8128683092673 278.3502348508892,235.74153718205855 254.74363625229546,222.93242809256577 253.1076186426415,222.80609424388632 250.79448308252807,223.05876142956376 245.93269289156888,224.28839609255965 243.9644249081151,225.27377342913883 242.77421161972097,226.28440312135322 242.5639265155691,227.2065902944976 241.86578018643465,229.24462531363562 241.083519903479,230.43204924980245 238.89655549368396,232.50788980053676 237.9544784788656,233.59420915376413 236.42360334809982,235.86784877893197 235.38900091087754,236.90359458287864 234.2282276161099,237.6909201453404 232.8697862736678,237.94353616683915 231.26741409916346,237.79196659885633 224.79904629217683,235.46365117208373 222.27983150858327,235.82995535186268 220.8919501725133,236.66781633027145 219.97931315132828,237.57724261022022 219.3947206232727,238.52454991877397 218.54937491153825,239.62341108477554 217.49794968354792,240.73488621260947 216.35820476745525,241.7495138347938 215.21004838278253,242.53257816345354 214.2427372550081,242.94936678132572 213.0735523452794,243.1893350447676 207.33277071466856,241.69899347040544 202.22284425013356,239.33290901732693 199.32932204262812,238.7266404109537 197.50825358816633,238.61296446709594 195.28343786254993,239.40869226244837 194.0553732583331,239.16871191559824 192.7431947002842,238.3729815409904 189.00432648827532,234.7563002173483 183.90281134592973,231.77103625318765 178.0737101735881,229.58569580749847 175.34421013945888,228.85302363801244 172.5558305572254,228.96671463389018 170.6551517729324,229.40144387843384 168.72851127271332,227.26962188955423 166.78968329561317,226.20847482926644 164.64898157704016,226.0400373045423 161.99518425484516,226.43586468576626 159.66102045161585,226.36006809104504 157.88200907122786,225.45892487796937 156.19131732050442,224.3387970499424 154.17678654793752,223.58922826799613 149.9752914091401,223.56396165342792 146.5097939436601,224.85254199425916 143.86440811554434,227.36226086661102 140.27694536972098,233.78776060308806 138.1446549824272,233.8298657025079 126.81029133398603,224.8862301093655 125.05651394747521,223.1344298248499 122.67188166820459,218.28307131964536 122.59197336984376,213.431388944637 124.61912113935128,209.025847487727 128.58089122030844,205.47931782154242 129.31688889364767,204.32518362506468 129.68699056312144,203.12048390945964 129.70381338847852,201.82309217459758 129.3925915263471,200.4751277974078 127.96265332445385,198.2762068406942 126.09952781730081,193.72650010512965 124.96398865218735,191.6369079746792 123.80742083331533,190.74375709543003 122.33121982099587,190.1623605538968 121.01483556817219,189.33660047242628 120.3587461931938,187.7608889418835 120.41762600055247,186.38737931006267 120.59426542261626,185.35933617311923 120.52276845555237,184.3902654400508 119.81200510164126,183.1936555509034 117.60401208164397,181.66836986149994 115.33713941707028,181.1543157611645 113.29737448784529,180.36215958346193 109.52486082589527,173.45991157863492 108.5701667484961,171.09158445858097 108.42717297713288,168.63046220443402 110.7192797983647,164.36543513172884 118.1002848599116,162.0052288263963 120.62791107333453,158.8778319456898 122.9284293886156,154.68807884131982 124.52239001562789,152.45400192525366 125.5864323764611,151.66151964149736 127.94583049911174,152.0914846134952 129.47670565312302,150.94490533531794 130.09494354896262,148.8456042291895 129.70381338847852,146.42584801595802 132.20199977960374,142.02453974386728 132.21882260496082,140.25381851575733 131.68049284469842,137.15916204142937 131.79825245941032,135.72562240089036 132.5973356057465,134.2245894324513 136.26050098428428,129.86466013205003 139.47365639496564,123.8176389294417 141.76576337896745,121.65002521268767 145.4247230918547,120.42702161660662 159.22362748070282,120.6716241810275 166.34387899342227,119.97998716699544 170.3056492371413,117.01092823785811 171.60941649303794,113.25724218218488 175.20108506726277,110.00106502885188 183.0909797412506,104.6103080384403 183.7214667725826,104.03861800420931 186.1148787329221,101.86836245172248 187.78874765830207,99.2528623692953 189.72336996975034,97.04226214829828 197.5417678394416,94.01311353641819 200.36799875527169,91.66732613966249 202.9629161073448,88.9839125949264 206.31065395809924,86.47760661452536 209.7803570892066,85.37632050350943 216.27395921200724,85.99658735726436Z" name="Barima-Waini" name_en="Barima-Waini" gn_name="Barima-Waini Region" admin="Guyana" adm0_a3="GUY" iso_3166_2="GY-BA" iso_a2="GY" postal="BA" type="Region" type_en="Region" wikidataid="Q537740"/><path d="M491.2647665718668,258.8224718756283 498.5833483110348,259.9360477500461 498.4045232059366,260.63202438036103 489.23808237290154,267.3329570191334 481.09822990726207,269.7918055680744 477.925740604165,273.2777996134105 477.4422505232701,270.5208288440451 478.41585381902496,266.81599224100387 480.124626774284,263.55505613592123 482.6083083555512,261.66603489320863 484.11176350712026,259.43891762941524 484.69460076012064,258.8224718756283 486.2046792084111,258.5772177930018 491.2647665718668,258.8224718756283Z" name="Demerara-Mahaica" name_en="Demerara-Mahaica" gn_name="Essequibo Islands-West Demerara Region" admin="Guyana" adm0_a3="GUY" iso_3166_2="GY-DE" iso_a2="GY" postal="DE" type="Region" type_en="Region" wikidataid="Q1185362"/><path d="M468.30892552278357,257.92099343343375 465.6994040708261,259.9360477500461 463.2488381593279,262.8988752293831 461.4738337017405,266.13332815475985 460.4008832338925,269.4604290420354 459.4471495027766,275.7165751701088 455.5924757745847,285.50403232204883 455.24807183229495,288.9296796843494 455.5924757745847,299.6164617583204 455.24807183229495,301.2925567741933 453.7247471160882,303.31309800607806 453.3670970686495,305.12160374639933 453.3670970686495,334.11167824231774 452.4531021412675,337.6213012760089 452.1087646341895,337.4006959596528 449.57272705982933,336.3999365714898 448.7273812017138,336.3999365714898 447.4993164511118,336.76576183310607 446.7254676367253,337.2367068224277 445.4301117230606,337.1610193936677 443.92447085162377,336.65223000224165 434.2429475198242,331.55154387090704 432.58590138511425,330.9081532616965 430.7269816148325,330.4539919819355 422.5847448823774,330.0629066501541 420.5744198488102,329.7222824946985 419.6407543025705,329.4321200106152 418.8963451890524,328.3723870360331 418.25287296650055,326.57669662584306 418.74494007215213,320.8823669690999 419.4514977234719,317.332667689087 420.3851632697143,308.1380390396332 419.90571336691977,305.5636875365105 417.2056534728104,300.86485778106027 424.1955282326846,296.45603012984196 429.32648322228374,293.9401942900385 430.54613650430576,293.09455225265356 431.86672653093467,291.819760979385 436.64860850234294,284.3893719868733 437.99863837620643,283.06394430193154 439.66830156740053,282.0246248027511 442.5996750907232,281.1662287175462 444.57214880845544,281.0904874175614 446.1534923115281,280.7875214708468 447.26800296828634,280.03010152140837 448.0797032448794,278.5278632707901 448.5002733067925,277.1223812613019 449.7409551138705,269.16450843226005 451.1162192470793,267.15281500274847 454.10647261126985,264.82962166455815 465.2263455050652,258.8361263982569 468.30892552278357,257.92099343343375Z" name="Demerara-Mahaica" name_en="Demerara-Mahaica" gn_name="Essequibo Islands-West Demerara Region" admin="Guyana" adm0_a3="GUY" iso_3166_2="GY-DE" iso_a2="GY" postal="DE" type="Region" type_en="Region" wikidataid="Q1185362"/><path d="M458.28809813073946,341.64062579274366 458.9305437521032,320.2769742406338 460.592954606907,313.44151982231955 477.76016176697493,283.29749030204323 482.09832573884,277.4395762401162 488.0326689004078,273.2777996134105 495.19891823306244,271.4884309995554 502.07374885783395,271.8463079851439 508.31275699519983,273.741703099438 518.0355425454095,278.8444561076337 521.2279012503673,281.8131742970931 522.0293025749685,282.2770260948828 522.5260387610124,282.86015013287374 523.8771616688355,283.99325361049273 524.612331328341,284.3510723489995 524.6444868447069,284.76806150613555 522.8065955994701,292.12268363269294 522.3902311254653,293.30911896616993 521.9654553292602,295.2023295681961 521.8476957938933,296.6958296446055 522.1000378017679,299.34619631285057 522.6930416520197,302.02591970650985 523.8243752459271,305.37439361402215 523.9926032999683,306.3965752305592 523.9673688942487,307.63327095609736 522.1673291112172,312.15503732585495 513.5666708546424,328.80132812313343 512.2334636251524,330.64322616031063 512.002150142335,330.84507526444077 511.62784271843407,331.09738622476243 506.22351719591103,336.56392725932267 504.23422068740126,339.05318343919254 503.8136507718624,339.75958023081256 503.565514351896,340.7434792859341 503.5024287767361,341.9207791313375 504.4318885886865,345.01110972723217 505.49593101953525,347.58839771417155 505.65574760500596,348.57220246225603 505.6473362828084,349.73257226413943 505.20153196154996,351.36378889218565 503.5781312619909,354.8951779273186 503.30055514116157,355.78220522762393 503.1070928277764,356.7280770739181 503.08185871482164,358.0396678829155 503.33420072269496,359.6791272236023 504.24263215597307,362.36945158905985 504.8650758534689,363.7061739407618 505.4622852916194,364.5804965138743 507.4053191621185,366.2828768208465 508.99086839947233,368.0230519410847 509.41143846138544,368.7165896374875 509.64275194421225,369.8052223471248 509.5922837182946,371.2427001416624 508.93198855860317,373.7771403310428 507.89318038709973,376.1896207013708 506.50950478531087,378.20697245783674 506.10996339483626,378.94245331746845 505.89967829068166,379.8880621890326 505.87444403134447,380.9471314010054 506.87960647493344,383.29636869141575 508.14972812925413,385.37658671248016 508.46515585866973,386.170838374598 508.91516576783647,387.88959018319537 510.54277190891037,391.7892212494127 511.0053990209355,393.46583947390764 510.85399375766235,395.5836261659836 508.1791681228793,399.8106391612403 505.3403200219728,397.97027544886845 504.0786096898388,397.4282429320298 502.2659527039488,396.87360165523114 495.0868213649693,396.4450126162289 494.21624124750565,396.30214902930487 493.665294593747,395.9239799220913 493.88819660799516,394.49952764556116 493.8629624950404,393.62971782945357 491.18813686026687,384.5066834785326 491.0451429191804,383.47287397612865 491.0451429191804,382.3970262327206 490.86850339656195,380.9849550659061 490.5152246440885,379.33330628310654 489.539502047745,376.6309204309412 487.5628225957207,372.80624452919335 481.27529989925944,365.74064086126464 474.64711550680073,361.62541759659246 472.97324658132544,360.049052023365 470.9166587633746,357.69916078051483 461.773465175232,343.59840161513046 458.3121733768269,341.4078148025704 458.28809813073946,341.64062579274366Z" name="Demerara-Mahaica" name_en="Demerara-Mahaica" gn_name="Essequibo Islands-West Demerara Region" admin="Guyana" adm0_a3="GUY" iso_3166_2="GY-DE" iso_a2="GY" postal="DE" type="Region" type_en="Region" wikidataid="Q1185362"/><path d="M425.8153252480841,145.85029853952287 426.1489193626701,146.2929184406859 430.1471515132804,154.49094028857493 432.82047039665775,158.37028820144977 433.4245866445486,157.33281045116422 431.7995723251579,153.31021079251445 432.1083723241761,151.52765346435652 434.35252107963703,151.68808506528472 438.3865360583743,153.04745026777692 441.8139071252423,155.8907088757325 444.9413863001245,158.88135255672785 447.61834164050674,162.16734349651307 450.2917793463947,166.1972557658388 453.7063564847327,171.71933763325706 457.8178544805185,176.72939366555013 460.4018173741206,180.38809567875015 473.1703182165088,192.97900062275258 476.12424361076415,197.98782751760623 477.3230337865352,203.40094666837493 475.7003618982312,208.65446633304228 476.8130511698131,207.44061892448894 475.9719110414808,214.4448348400349 476.8130511698131,235.36061237662062 473.93860370856146,252.51852573426143 471.9251659402825,255.12369050259304 468.30892552278357,257.92099343343375 465.2263455050652,258.8361263982569 454.10647261126985,264.82962166455815 451.1162192470793,267.15281500274847 449.7409551138705,269.16450843226005 448.5002733067925,277.1223812613019 448.0797032448794,278.5278632707901 447.26800296828634,280.03010152140837 446.1534923115281,280.7875214708468 444.57214880845544,281.0904874175614 442.5996750907232,281.1662287175462 439.66830156740053,282.0246248027511 437.99863837620643,283.06394430193154 436.64860850234294,284.3893719868733 431.86672653093467,291.819760979385 430.54613650430576,293.09455225265356 429.32648322228374,293.9401942900385 424.1955282326846,296.45603012984196 417.2056534728104,300.86485778106027 414.67802736702066,294.8489337491365 414.60232473538207,293.5615496522398 413.8200643060426,292.12268363269294 412.44900590712314,292.0848183657072 411.1115929433437,292.40036164384105 409.12229643484204,293.0566874597484 408.21386500155575,293.27125442429707 407.2423481395029,293.3974699313879 404.7778076088717,293.23338971753014 401.8464340855517,292.3624965123551 400.4207014336672,291.5925682131234 399.17581403868365,290.21256852703027 398.17906306366655,288.0794110277514 397.59026480132167,281.49444020358203 397.3757739628886,280.61079088103975 395.81966471916127,278.086022872696 391.49199868395755,276.61741126869725 389.6162561229077,276.80677542465736 388.6321220579937,277.60630769370687 385.59981179007224,280.7117797974565 384.69979182536593,281.2293464593211 383.7745376013238,281.5070634971287 382.836666320803,281.6711687607908 381.81888667434606,281.73428594140904 379.6697735803669,281.62067480323174 377.6888885404344,281.2924640027894 371.79670164655175,279.1085640003668 370.9555615227147,278.7045988047302 369.10505307462773,277.5137305570705 368.2176503127799,277.07188430942455 364.19279451137794,276.20080862243196 363.08248958889953,275.8473255880267 361.91330467917084,275.1656041738058 361.3917977262751,273.2466515408636 361.71143104359624,270.5280527636512 364.90776377765064,260.1788116824568 364.9834664092879,256.84099489526 364.8194439431536,255.02260117490323 361.52638019878975,243.03777634738546 361.27403819091643,240.7601470204522 361.35815214474036,238.47402706298183 361.7030197214096,236.20888845449517 370.77892200010433,208.6679644059508 371.695764901953,207.32855255693397 373.0079434600019,205.88802516784693 377.18841011259605,202.62356548076752 378.3533892880368,201.25876674750535 378.5973198273396,199.6748936980472 378.4795602919728,198.37322717537202 378.05478434938516,197.13472642801108 377.4239293297027,195.90884211762338 374.3369449552013,191.1651877354402 373.77338095220176,190.0108226665253 373.50421629994423,188.78481573705707 373.436924990495,187.53350857182724 374.45470449056,185.59541357465415 376.28839014788844,183.1811468076656 385.9741190675935,173.08499319764846 388.34192873429635,171.85447797352597 408.2264822044251,163.6828011476223 411.65833400920366,161.5038063770267 417.87435995468854,155.72091964294628 425.8153252480841,145.85029853952287Z" name="Cuyuni-Mazaruni" name_en="Cuyuni-Mazaruni" gn_name="Pomeroon-Supenaam Region" admin="Guyana" adm0_a3="GUY" iso_3166_2="GY-CU" iso_a2="GY" postal="CU" type="Region" type_en="Region" wikidataid="Q1146777"/><path d="M454.8951456472786,349.2647749241616 456.81113551499476,349.16225454586464 455.5924757745847,348.1558795798301 458.28809813073946,341.64062579274366 458.3121733768269,341.4078148025704 461.773465175232,343.59840161513046 470.9166587633746,357.69916078051483 472.97324658132544,360.049052023365 474.64711550680073,361.62541759659246 481.27529989925944,365.74064086126464 487.5628225957207,372.80624452919335 489.539502047745,376.6309204309412 490.5152246440885,379.33330628310654 490.86850339656195,380.9849550659061 491.0451429191804,382.3970262327206 491.0451429191804,383.47287397612865 491.18813686026687,384.5066834785326 493.8629624950404,393.62971782945357 493.88819660799516,394.49952764556116 493.665294593747,395.9239799220913 494.21624124750565,396.30214902930487 495.0868213649693,396.4450126162289 502.2659527039488,396.87360165523114 504.0786096898388,397.4282429320298 505.3403200219728,397.97027544886845 508.1791681228793,399.8106391612403 512.4605715200736,401.68037467108786 513.3353573718157,401.62995526024156 514.6349188733899,401.44088271850416 517.5158240244098,400.0375304896874 523.5972673510086,398.3106195820373 529.0688841829781,403.1677306548827 530.1161035302953,403.70972700983225 532.5049417220459,404.03744401657826 534.3091873857479,409.3101562553038 534.3975069274787,412.1753524280887 532.3661535152488,418.7708269421928 534.1703993253263,421.6483144916131 536.4835347390642,422.6942683661161 547.531910735494,426.3277065169745 552.692305718721,427.2727959999053 553.9876614860032,427.36100365465745 560.8808050891854,428.48249568993737 561.5873628868972,429.59557277260734 562.731313537282,432.29210169470355 564.5313534666946,434.0351416229092 567.614132253289,438.23509738869564 568.6865860063258,438.8398747447588 570.0870843988718,438.9658694943293 571.6516049647967,438.8776732028704 573.931094796993,439.0540656988424 575.4367358148122,439.9864206777053 578.321846553739,442.86322023425254 579.5793510051985,443.11519824922146 580.769564439986,442.7120330275924 581.7326698334601,441.77970653901934 582.6032499509238,440.75497600728835 583.9658970276565,439.9234239701842 585.8500510572769,439.34385282480997 593.1847932474378,439.8100298726901 594.4465035795705,439.5328438914657 598.1937829673822,438.0839023740412 599.3335278834858,437.8193104830246 602.6644429436628,437.9075079645185 604.4897171324126,437.33632332986457 609.4776781809267,448.1084178926545 612.0641842739708,450.9345669868059 614.2511486837631,451.42587970883216 616.7577464108806,453.79422111945 616.9554143121741,455.2051185507063 617.0142940066594,456.64538706293354 616.7241006829635,457.9050786362634 613.7086132058196,465.34530258899713 604.9817840916832,501.57219615825136 603.6822224437346,517.1207562132552 602.9588420016481,520.649785473978 601.974707936726,523.0793285368519 596.7848732526386,528.5130630137098 594.2151899503613,533.0192690689264 590.3080938306978,543.2267072408813 585.017322255636,550.1904956357512 581.6695844046841,556.1512856435264 573.6493129418769,577.0679401824402 557.730735285908,594.8104690069358 553.6175597963806,600.4500524684855 551.0058195903845,607.1249253723093 548.5749244949029,617.2454650710412 542.1359965351685,635.6101561953925 539.2172402147097,637.2071254701101 534.2166619633358,638.2172704660492 506.95530910656936,638.8082637702503 504.56226532691176,639.1729178719436 492.5970465750009,641.9266460711025 468.08622198464525,642.132020421006 460.4696979393779,640.9207256880231 457.1219600884246,639.776480474593 454.7920017375431,638.4184600568154 453.66487387791693,637.5969336526315 451.9447423144404,636.7292946115851 444.9254275609289,634.4910065176754 441.85526597719695,632.8604653792919 437.93975853533584,627.4656782817955 435.5971832743608,620.5698628075573 433.2293736076579,618.0503727090994 425.8105174636731,620.2177245128897 423.60252438244095,617.4592691522095 419.4725262485307,594.3827709513811 415.51075602227775,584.0587934582252 415.1911228513459,577.3824757040885 419.12765867186965,553.957453602085 419.32112098525755,542.2660023383481 418.29072428232325,539.7236556824673 416.44442156851744,537.8860775629513 408.8447203140059,526.4193274803847 409.5638951681963,525.2612503758602 409.7026832286083,523.9730830536661 409.6648319127856,522.4625071718627 409.85408849188144,520.6749624488464 410.4176523485095,519.0971962388389 411.88123631621534,516.4283635087826 413.0672438703201,513.1132018892843 415.38458501834043,512.0808626170602 422.0800607202456,511.80389166947816 436.17336418745526,509.58389903475125 440.08887177569744,508.4130317450027 442.9151026737564,505.5172773420035 446.628736480032,498.39502857929125 449.57693279411865,491.70038541720953 451.5241722525164,485.0976186145478 452.43260368580275,478.22571531545776 452.27278710033204,467.03312501483504 453.3957090792851,456.64538706293354 452.73541406596655,446.374050912477 453.3957090792851,442.72463206864586 457.4415932593633,434.0855420820489 459.57808929685825,431.05305255052144 460.05333361174456,427.184587964728 460.06595052183815,413.8641774349303 459.6033234098198,412.16274903288604 457.8453405305097,408.2136266490866 457.74440378592044,404.84412692505344 460.06595052183815,383.13247055535084 459.59491208762495,381.56491575606634 458.6570408071041,380.1150067742013 458.01356873094426,378.7911548893551 458.4004932113226,377.5765552800427 459.20798760724387,376.44179230112263 459.7210832379447,375.05904179296533 459.9818365680156,373.55858454592374 460.06595052183815,372.0749128473536 459.5192094559877,369.2546029687095 455.6205249512771,361.4740877812364 455.26304017175767,358.30450588256423 455.2420117930841,351.0694996252906 454.8951456472786,349.2647749241616Z" name="Upper Takutu-Upper Essequibo" name_en="Upper Takutu-Upper Essequibo" gn_name="Upper Demerara-Berbice Region" admin="Guyana" adm0_a3="GUY" iso_3166_2="GY-UT" iso_a2="GY" postal="UT" type="Region" type_en="Region" wikidataid="Q1516381"/><path d="M524.612331328341,284.3510723489995 525.268023380391,284.66913200063135 525.9170921357088,283.94686954205855 526.4800599868375,282.04510062718754 527.8642984016717,281.60775333739906 541.838670915673,283.32060396066106 551.9611869342796,288.1969613154417 555.194058254193,290.88938683194704 560.0378255009448,294.5223158601995 566.1348996660394,300.4830202087054 566.8955325531151,301.0488499730607 566.8955325385047,301.0488500278653 566.8234605017519,301.31918841869447 567.0421569281013,310.287474055389 567.5636637346065,312.48311816759303 568.5267692744726,314.7964702245457 569.8978278197759,317.332667689087 570.3898947790465,318.75004293033146 570.6548539897782,320.16318712117936 570.1207298340228,324.4571412765611 570.3099864131185,325.55477509855706 570.8188761631558,326.639777685611 572.030117976606,328.6751693556639 571.9544154913511,329.57089345245316 570.5286828394585,330.35306685584277 569.3048238231498,330.40352950791424 568.0683478967355,330.25214174938355 566.9580429742693,329.987212485673 565.8393264368393,329.86105543517374 564.686964464257,329.92413405837124 563.7028303993361,330.36568259502025 562.9289815849578,331.2740032942704 562.8196332253951,332.75420771631843 563.0887981704176,334.0283394211485 564.4177995192346,337.66560086566045 564.5565875796492,338.8261261819663 564.5019136194518,339.9992489606867 564.3042455717759,341.15974086511596 563.8752640412829,342.41271712766627 563.2065577057845,343.57317455585326 561.8481163633423,344.5948678618157 560.6410801377991,344.9354295462411 555.8423756683794,345.52825550587903 553.6680283150645,346.0580112983243 552.9110021450595,346.4364062908548 552.200238613068,346.93252139765366 551.0857279563097,348.26949452529726 547.6959330552526,353.3186836896751 546.2323492339306,354.8068949378364 544.8528793664296,355.82004031590805 543.7341628289997,356.41278766534515 542.5944180592894,357.23253750150127 541.2443878926489,358.8846240505774 540.0079119662454,361.0074858243092 531.4451051718676,383.30897618217705 530.9404210097385,385.18747804195647 530.6922845897708,387.6878804234312 530.9908893820386,396.22651531219645 532.5049417220459,404.03744401657826 530.1161035302953,403.70972700983225 529.0688841829781,403.1677306548827 523.5972673510086,398.3106195820373 517.5158240244098,400.0375304896874 514.6349188733899,401.44088271850416 513.3353573718157,401.62995526024156 512.4605715200736,401.68037467108786 508.1791681228793,399.8106391612403 510.85399375766235,395.5836261659836 511.0053990209355,393.46583947390764 510.54277190891037,391.7892212494127 508.91516576783647,387.88959018319537 508.46515585866973,386.170838374598 508.14972812925413,385.37658671248016 506.87960647493344,383.29636869141575 505.87444403134447,380.9471314010054 505.89967829068166,379.8880621890326 506.10996339483626,378.94245331746845 506.50950478531087,378.20697245783674 507.89318038709973,376.1896207013708 508.93198855860317,373.7771403310428 509.5922837182946,371.2427001416624 509.64275194421225,369.8052223471248 509.41143846138544,368.7165896374875 508.99086839947233,368.0230519410847 507.4053191621185,366.2828768208465 505.4622852916194,364.5804965138743 504.8650758534689,363.7061739407618 504.24263215597307,362.36945158905985 503.33420072269496,359.6791272236023 503.08185871482164,358.0396678829155 503.1070928277764,356.7280770739181 503.30055514116157,355.78220522762393 503.5781312619909,354.8951779273186 505.20153196154996,351.36378889218565 505.6473362828084,349.73257226413943 505.65574760500596,348.57220246225603 505.49593101953525,347.58839771417155 504.4318885886865,345.01110972723217 503.5024287767361,341.9207791313375 503.565514351896,340.7434792859341 503.8136507718624,339.75958023081256 504.23422068740126,339.05318343919254 506.22351719591103,336.56392725932267 511.62784271843407,331.09738622476243 512.002150142335,330.84507526444077 512.2334636251524,330.64322616031063 513.5666708546424,328.80132812313343 522.1673291112172,312.15503732585495 523.9673688942487,307.63327095609736 523.9926032999683,306.3965752305592 523.8243752459271,305.37439361402215 522.6930416520197,302.02591970650985 522.1000378017679,299.34619631285057 521.8476957938933,296.6958296446055 521.9654553292602,295.2023295681961 522.3902311254653,293.30911896616993 522.8065955994701,292.12268363269294 524.6444868447069,284.76806150613555 524.612331328341,284.3510723489995Z" name="East Berbice-Corentyne" name_en="East Berbice-Corentyne" gn_name="Demerara-Mahaica Region" admin="Guyana" adm0_a3="GUY" iso_3166_2="GY-EB" iso_a2="GY" postal="EB" type="Region" type_en="Region" wikidataid="Q1277758"/><path d="M566.8955325531151,301.0488499730607 570.4817480981908,303.7165568493197 579.2413929184911,312.04196912185387 584.4398040032671,317.27126809791315 585.9295120419202,319.7179816526893 588.8803330761168,320.98753515858465 592.4411222852594,324.67363780709087 601.7769673891066,332.1743507896585 606.9346563732162,336.35386484883924 610.3722635920905,339.30330856872206 612.5805147661848,341.63627832597643 615.0346850688942,344.09279709478807 618.2245587557649,347.5312212790844 621.5752606583552,355.51802128340745 626.518650973303,367.0714996574952 628.300750924991,369.34598954389475 628.8136458325162,372.51913693498767 629.5639731745792,373.8118873189883 630.9451436495759,371.81377766074706 631.1622715804585,372.9575535981303 630.3001030779587,374.81527183110904 629.6440136525457,377.77828917400115 630.5608565544011,381.18668108989834 630.615530514608,382.14487231551027 630.2874860214799,383.1955082588251 629.5010198578417,384.09063971853016 627.8145337295052,385.0740127832938 625.4509299434741,385.7548027874721 619.8951991576807,386.71294243120207 618.911065239141,386.7885845890962 617.0899966382981,387.1331758210245 616.2404451922743,387.486170038327 615.4119221249146,387.96523129274874 614.5034906916363,388.96116624035767 613.8642242033834,390.0453349915279 613.4941225137608,392.11698379138 613.683379092858,394.52473944953397 614.9577064814666,399.7602186547106 615.3404250811856,400.45349663832286 615.9544576028662,400.98290504483003 616.635781141234,401.4282779066265 617.8133772267684,402.51228893469766 618.2339472886814,403.1929400604247 618.4189982798799,403.9996305680574 618.3432956482345,404.91975291980435 617.5610352188937,407.5330150555064 614.1754460521258,413.53649755224126 613.3553343069636,414.4103078363139 612.6319538648759,414.99004264523217 611.7697852159937,415.2547027842373 610.8907937763324,415.20429141193125 609.940305439337,414.6203571589639 608.6617723164363,413.41046636515614 608.0183000938925,412.9441499436521 607.2402453988316,412.5786568940268 606.0962947484495,412.50303743069736 604.6579450400782,412.9063403788666 602.6392088307081,413.8011621010433 600.662529378677,415.7210070005653 603.4382919044318,420.199080866358 604.3004605533167,424.084653777907 605.0070182046461,431.85108620657405 604.4897171324126,437.33632332986457 602.6644429436628,437.9075079645185 599.3335278834858,437.8193104830246 598.1937829673822,438.0839023740412 594.4465035795705,439.5328438914657 593.1847932474378,439.8100298726901 585.8500510572769,439.34385282480997 583.9658970276565,439.9234239701842 582.6032499509238,440.75497600728835 581.7326698334601,441.77970653901934 580.769564439986,442.7120330275924 579.5793510051985,443.11519824922146 578.321846553739,442.86322023425254 575.4367358148122,439.9864206777053 573.931094796993,439.0540656988424 571.6516049647967,438.8776732028704 570.0870843988718,438.9658694943293 568.6865860063258,438.8398747447588 567.614132253289,438.23509738869564 564.5313534666946,434.0351416229092 562.731313537282,432.29210169470355 561.5873628868972,429.59557277260734 560.8808050891854,428.48249568993737 553.9876614860032,427.36100365465745 552.692305718721,427.2727959999053 547.531910735494,426.3277065169745 536.4835347390642,422.6942683661161 534.1703993253263,421.6483144916131 532.3661535152488,418.7708269421928 534.3975069274787,412.1753524280887 534.3091873857479,409.3101562553038 532.5049417220459,404.03744401657826 530.9908893820386,396.22651531219645 530.6922845897708,387.6878804234312 530.9404210097385,385.18747804195647 531.4451051718676,383.30897618217705 540.0079119662454,361.0074858243092 541.2443878926489,358.8846240505774 542.5944180592894,357.23253750150127 543.7341628289997,356.41278766534515 544.8528793664296,355.82004031590805 546.2323492339306,354.8068949378364 547.6959330552526,353.3186836896751 551.0857279563097,348.26949452529726 552.200238613068,346.93252139765366 552.9110021450595,346.4364062908548 553.6680283150645,346.0580112983243 555.8423756683794,345.52825550587903 560.6410801377991,344.9354295462411 561.8481163633423,344.5948678618157 563.2065577057845,343.57317455585326 563.8752640412829,342.41271712766627 564.3042455717759,341.15974086511596 564.5019136194518,339.9992489606867 564.5565875796492,338.8261261819663 564.4177995192346,337.66560086566045 563.0887981704176,334.0283394211485 562.8196332253951,332.75420771631843 562.9289815849578,331.2740032942704 563.7028303993361,330.36568259502025 564.686964464257,329.92413405837124 565.8393264368393,329.86105543517374 566.9580429742693,329.987212485673 568.0683478967355,330.25214174938355 569.3048238231498,330.40352950791424 570.5286828394585,330.35306685584277 571.9544154913511,329.57089345245316 572.030117976606,328.6751693556639 570.8188761631558,326.639777685611 570.3099864131185,325.55477509855706 570.1207298340228,324.4571412765611 570.6548539897782,320.16318712117936 570.3898947790465,318.75004293033146 569.8978278197759,317.332667689087 568.5267692744726,314.7964702245457 567.5636637346065,312.48311816759303 567.0421569281013,310.287474055389 566.8234605017519,301.31918841869447 566.8955325385047,301.0488500278653 566.8955325531151,301.0488499730607Z" name="Essequibo Islands-West Demerara" name_en="Mahaica-Berbice" gn_name="Mahaica-Berbice Region" admin="Guyana" adm0_a3="GUY" iso_3166_2="GY-ES" iso_a2="GY" postal="ES" type="Region" type_en="Region" wikidataid="Q1466671"/></svg>