<?xml version="1.0"?><svg fill="#3498db" stroke="#ecf0f1" stroke-width="1" width="800" height="608" viewBox="0 0 800 608" xmlns="http://www.w3.org/2000/svg"><path d="M765.175708416482,112.4346450441596 767.6469309010339,120.57111302302688 768.6456998079432,125.8048403097343 768.3673180804007,130.50071771464707 767.9074793602312,138.25646961391072 769.1957463061985,144.9698118171863 777.0266731919446,163.47045831760724 780.3703776715815,186.56508078193605 780.18220372216,199.74822911406523 776.9832482619946,206.52910380856824 775.434432856823,208.21463753506097 771.8880796378165,217.21330928756961 769.2246964462145,219.30258799514954 761.6687925295079,223.6028579500671 759.8304788052006,225.46313784195777 761.2200704009315,231.34846404203122 766.2139149355598,238.3611160651133 767.3937604358575,239.5639250418895 767.2635718561633,239.58084061139573 757.7607927577321,240.81553897505836 747.8599539667435,239.96192387081558 742.7068854646242,240.32776082182772 736.3234495637267,239.10829350630848 728.709646515975,238.0412336888707 723.4986786649533,233.65079488841 713.120167285665,228.92452367107907 703.1469536158221,223.02364972196474 698.4860322243563,207.80303151353675 684.3585192998344,193.50829063524404 679.1330764226655,191.98245016193286 673.9800079205461,190.57863342956597 676.7591907744318,186.22958937529762 677.62768554222,178.40030203909745 672.8509649491447,170.70710736024287 669.9849326940483,161.97442276049054 666.2142181057911,154.9962723123057 665.3819109033873,148.0476330672771 666.4820040744086,144.290358614808 666.2793552196788,140.22727660268447 669.6737218988966,137.99701465850677 674.1681820010193,137.04988548256682 680.1463199405689,128.28038999785412 681.3983998785747,116.88064932913217 682.4623057360907,114.64927574032842 683.8104767446619,111.86295963239186 685.6776734886607,112.77162424892569 689.4844611634871,115.53957562110868 692.0375162380687,116.17738480831713 694.2030541620747,115.16651353657815 695.6277501204967,112.96418278847496 697.4171684325129,110.82192532333204 700.6312824228077,109.93129527519444 705.9539466444634,105.86306527241558 713.8980511719035,105.92324891002183 727.597927505808,109.93129527519444 735.1203222670863,110.96635047409977 737.1262940913836,112.45871530029996 735.4280566478781,116.17738480831713 733.0003747773181,117.75381872194606 729.6722848414278,118.3073631971008 721.8535535179952,118.19906152603276 724.794126023223,123.61383724497178 729.6494897643571,124.17934439830933 734.915166013222,122.71141806433592 739.0638806844569,122.03760039457828 744.1244006794552,126.284895924501 747.2473343614812,128.23395081748598 748.6264401657501,127.29552715387331 750.130918893923,123.24083951602358 749.5268479509652,121.12311838439648 743.3493660982475,119.51069820106369 741.3661893510233,117.69365061035863 740.3632034388689,115.0943075040954 740.8191061007483,112.13376890225157 742.9618489476907,110.29236360467118 746.16456539947,110.50900332242335 753.4134183955591,112.13376890225157 765.175708416482,112.4346450441596Z" name="Nord-Est" name_en="Nord-Est" gn_name="Departement du Nord-Est" admin="Haiti" adm0_a3="HTI" iso_3166_2="HT-NE" iso_a2="HT" postal="NE" type="Département" type_en="Department" wikidataid="Q928694"/><path d="M767.3937604358575,239.5639250418895 776.6358505031324,248.9848466888734 794.7838073699992,257.78530208605804 798.3192672959739,259.4995580367022 797.0454751399241,277.0798790577063 795.6124588943466,282.14407161407917 792.0805807453352,287.3600134113378 782.5850392948211,294.1513125660574 778.3438902779279,297.9500635579498 769.9629166138466,309.6641675068608 757.8184664815375,323.08736772029295 754.1418390329206,325.3546382016177 739.7682524874874,329.2194053231116 734.9336320424336,332.47530837333096 735.7587017897825,337.57933392258656 740.7814961843376,336.7958892903555 747.7439283927544,334.4226602348377 754.3010631224413,334.6432536582833 756.8631222244632,336.7122198332153 760.8292479922227,345.04804315746554 763.3913070942234,348.0519354475838 769.8036925242955,353.90709141503913 771.8880796378165,356.56829287409477 773.4368950429905,362.011898340381 773.7263933621261,373.9385687722025 775.9844796351888,385.4975911430687 775.5647070864381,391.021550734249 774.1895908408292,396.4537236408169 772.2789023266405,401.4219254023429 768.9207230570837,406.8985194803778 764.9980222192625,410.1112719675121 757.4834308320743,414.7503809622779 755.5558786149286,415.9402787799497 755.4592819883528,415.82255037048805 753.5775434507564,413.5291001139017 742.9819086944033,407.2405490062192 731.2572309666324,404.1871213641734 721.8485387824925,400.7840732667314 712.2950973444252,397.4719513583064 689.7576609794221,401.57408757485416 667.574859984233,408.7747867195576 646.2171286783764,401.4373551983749 629.3538572227425,384.8291361852537 621.001833886864,379.0840866458342 611.4483927007041,376.6825165332559 602.256823893629,370.9061053323454 594.9397566148654,361.1454572755909 608.0467885084057,360.3547900033301 621.3347567174314,361.9057027137038 627.9208414730446,358.16518179855194 628.9775098174963,349.07117292573986 632.8278360419763,339.50390077391063 632.0244783880759,331.69962647915776 630.3164389048055,316.97001018666487 634.1740026423685,302.0075547954818 632.2777895824369,293.28365752991033 631.669843270169,286.1267512834464 634.2898020958899,279.8521623470989 626.76284844933,272.3581329955713 628.3623259921619,251.0120129496068 641.1943346559256,233.010489003991 649.4595088424958,235.90704328316076 655.596871062115,242.0197202336701 658.1661678000953,245.87594465636923 663.6014967931673,245.3577348474798 682.9689278729102,233.3153975136999 703.1469536158221,223.02364972196474 713.120167285665,228.92452367107907 723.4986786649533,233.65079488841 728.709646515975,238.0412336888707 736.3234495637267,239.10829350630848 742.7068854646242,240.32776082182772 747.8599539667435,239.96192387081558 757.7607927577321,240.81553897505836 767.2635718561633,239.58084061139573 767.3937604358575,239.5639250418895Z" name="Centre" name_en="Centre" gn_name="Centre" admin="Haiti" adm0_a3="HTI" iso_3166_2="HT-CE" iso_a2="HT" postal="CE" type="Département" type_en="Department" wikidataid="Q844528"/><path d="M755.5558786149286,415.9402787799497 754.8366345506804,416.3842681805641 751.0152583626437,420.6518787323806 745.2542438005105,430.45383390284593 741.6065662117946,434.36344316963346 730.764857535267,438.0602061143529 709.7038620305528,434.1812547296749 699.2964012528978,436.3750630333765 694.4762558778392,439.995772472153 696.96594047009,444.8002038884223 722.2970348516216,470.6966374663247 724.1063984358917,473.48047713193716 724.8011945138934,477.8872724586579 723.3102785484531,479.49516264548225 721.211416364944,480.6934623237882 720.1547477381672,483.91659301623486 721.8338376530618,489.3461483790247 726.0315617399979,491.65125578567984 736.9601194360919,494.38843236043255 739.3195300788311,496.4734382958761 743.5751538856159,502.74309568214767 745.8477149486124,505.3583790187182 756.4143998157857,512.3848549012665 771.4683073691763,518.0386703521522 775.4633827167498,520.668311144912 778.0399168887715,522.9643969601497 778.6478633869812,523.8130889336373 775.3502846253637,529.4659360793311 775.0872615236161,529.511312878724 750.5812369679173,533.7389227854063 736.0918511605148,524.7529319010501 717.216566939523,523.2980502712196 693.6658870566188,523.6011538706833 669.4493610087488,518.1298481268989 645.1097979942932,513.1430128085882 621.2479070643137,514.6285049541729 598.0590998123968,513.2339627730103 594.1942985617719,508.9136659168313 590.7854568564047,504.2594555619837 582.6795066979806,504.8810526488662 577.3382648711071,502.1823554363813 569.9922475400468,498.5585942381891 559.9032344166849,497.92175544386606 550.610341686064,502.25816360713833 543.691334099867,510.53571594453916 540.8687266713379,512.6882615633972 537.4815975052007,512.7943706270793 530.6060144936638,515.7350165232527 524.1212546692229,516.5383589115079 520.4012021686899,516.9930751989422 517.223959370349,519.6909741771202 511.8682425173096,520.3881603937774 506.4256757592616,520.6155015887845 503.16158355971237,523.4041368712454 500.0929021980166,526.2986973415765 495.22933220372363,525.6015932803534 490.8289590158757,523.2071188342076 490.07626395350906,527.4201052392316 488.54192327264593,531.0720845552428 485.1258443061029,533.7540747256214 482.9401327383402,537.8752719135686 473.676189556218,535.5419884738228 464.16617319661106,532.3297586624392 459.4328774301005,535.1631983818224 456.26287164102587,538.5570549320655 450.2340713618473,535.5116851394666 447.07130308585795,530.9054027452687 442.93147860543525,530.6629550332599 438.56005546989337,530.3598938133218 431.1054764503042,531.9964025720666 425.16352532043146,532.7994846038337 421.7981086935198,526.3593148462625 417.7596083885641,521.0247133001801 413.37371047878463,515.5228108966483 411.3110356257003,508.3982376021654 406.469177918749,503.531722256888 399.4705584444244,503.24365830675004 398.8408998448313,495.3591557369664 403.19061044113135,488.03454963966226 403.0530989522083,484.48559581632213 401.454642636548,481.2115065398386 421.16292212175534,477.70345070842774 445.4169460304395,483.5437994980151 443.9694549949539,488.34455492539314 449.31491429367327,487.3056247107295 456.81451397788555,484.6664056914558 461.7610583074105,484.64252048566306 465.85278500586867,486.3860936847474 485.75293826956175,489.7417027675651 496.5464349939444,487.2936828885872 504.14861252497377,480.85660739922866 509.74481823171294,471.8146341165785 514.4406161532345,461.5045381694941 521.2449640259761,453.1162980153751 530.1350670529913,451.14449675502516 576.8536971186018,455.30311279152113 578.5519345620908,454.6817324401617 579.2699814506299,453.29554859620595 579.7258841124952,451.90932596257255 580.6832798705153,451.2879033331207 582.4385052867926,451.64641737409494 583.2591300221512,452.3873381091929 583.8062132724239,453.1282480546938 584.6952235191027,453.4747988221218 590.5193808368779,459.99906112973724 593.1978091154506,461.5045381694941 598.1215583679073,460.17828682211376 600.4010719574054,455.25531442145456 601.0393357960689,448.4196972544122 600.5720353155497,430.53746135737225 601.0393357960689,427.22566824833336 602.9997174662294,423.2440484662599 605.1652551101344,420.8764465931755 606.1796388409264,418.6761484763803 604.6751598326478,415.17221045415727 602.1562973736827,413.36632911512345 589.3682263635441,407.1468928880067 585.9261610422932,406.5488287570688 579.1104153508976,406.33352382906435 575.8165183107272,405.3287551202393 570.1405295541336,400.46012085225203 565.0914070976695,394.35869322945695 559.6775625677286,390.1231381525177 552.873214694987,390.9128457057147 543.2992576751597,385.08546171367936 540.9057684201999,382.44077326440765 538.5464720609484,376.8517530180366 524.1855365312085,354.5730920311197 520.2191830367556,350.53766183347403 514.6115797914846,345.962971426287 508.7190372424901,342.22625537329964 503.93205873257523,340.6931606919314 499.46403686074575,338.41718992411796 503.3931819629408,333.43401812506755 508.0830531548101,329.9956025967462 525.9378558410245,330.6650478051959 547.0929382921678,333.66222289409734 553.6790225439664,334.4228977938698 560.6125049044056,334.10341587849354 563.6377614395694,338.3630032532185 566.4458943457471,342.8960108724108 573.4372760550863,345.90764100703274 580.8339557257918,348.8886671994431 588.3753843984802,354.39395946451276 594.9397566148654,361.1454572755909 602.256823893629,370.9061053323454 611.4483927007041,376.6825165332559 621.001833886864,379.0840866458342 629.3538572227425,384.8291361852537 646.2171286783764,401.4373551983749 667.574859984233,408.7747867195576 689.7576609794221,401.57408757485416 712.2950973444252,397.4719513583064 721.8485387824925,400.7840732667314 731.2572309666324,404.1871213641734 742.9819086944033,407.2405490062192 753.5775434507564,413.5291001139017 755.4592819883528,415.82255037048805 755.5558786149286,415.9402787799497Z" name="Ouest" name_en="Ouest" gn_name="Departement de l'Ouest" admin="Haiti" adm0_a3="HTI" iso_3166_2="HT-OU" iso_a2="HT" postal="OU" type="Département" type_en="Department" wikidataid="Q1434621"/><path d="M344.67384521047035,357.7700649366821 339.4423615772267,354.05820426334293 337.9720751845506,352.7649734819895 335.9205132061072,350.2023587815461 334.062709662886,347.1725517428002 333.1964944932733,343.9269758592903 334.1538902512933,340.6931606919314 337.618750649608,336.8122981663473 342.51970482499854,333.5300919606901 348.22988619719234,331.3018986489209 354.24780195019673,330.46330480552183 360.8811864647939,331.21803982881687 399.7810849268567,347.51985146039084 418.9745891206646,353.7827969841503 440.31083588130906,364.54647493825274 460.23378422206815,372.88998357858696 468.37164746483836,382.8835591641342 470.4915952347076,389.2496588356851 471.4945811468644,396.835246382791 470.6967512084685,404.2641564839948 467.4142517068324,410.06534160810764 464.4280890474538,411.30921801073526 462.4449123002249,409.5031951176429 459.9374473798106,404.2282708238594 457.54395812485313,402.1229272788014 455.40121555801653,401.5487270611645 449.0869629627429,401.14199800265567 424.12628970405154,395.5910032948195 415.6009090306187,394.9329776015583 406.64242077238663,392.7434823842084 381.95528899878343,376.8517530180366 357.01741109728016,370.08902190053794 350.31564107136035,365.70770860007474 344.67384521047035,357.7700649366821Z" name="Ouest" name_en="Ouest" gn_name="Departement de l'Ouest" admin="Haiti" adm0_a3="HTI" iso_3166_2="HT-OU" iso_a2="HT" postal="OU" type="Département" type_en="Department" wikidataid="Q1434621"/><path d="M775.3502846253637,529.4659360793311 775.1830505671679,529.7525984346361 762.7399359462022,551.0772595212328 760.5252746030661,556.582844990171 759.7436295055379,562.3528415768712 760.1634020542581,565.1240228411817 763.1741835649738,573.5199263240461 763.8400295029007,576.7976599908392 763.6518555534534,581.6722343427023 764.274276561461,590.1789095530816 763.2610328646083,595.2489359778958 759.9100321676146,604.1042098735288 755.3282099115664,600.9945120535194 735.7585861057499,575.6093993527071 727.2104103552512,567.9198494748005 717.3743093888698,561.767367961467 695.342811096879,554.2426746526719 686.2247567389335,549.4959359802126 677.1294977381572,546.0131194769394 666.2220253483011,545.9892638013 643.8599975984363,549.7344762103959 614.7278145914275,549.4601546431272 573.9017270748257,549.9968691008852 551.915818936981,553.9803038582787 546.2854203345265,551.0225740032241 542.9117402444971,549.7583301126856 541.4072615163218,550.9033070773507 543.2992576751597,562.1847109550932 540.6550220121848,565.0583232387573 537.3839200490804,565.1298634789583 529.7361520837945,562.1847109550932 525.4506666700156,561.4096425250975 492.51169598816887,564.4263811750641 485.75293826956175,563.9971328250032 486.3114190583686,565.3444832988956 487.1206465352963,568.6471284350698 487.667729785569,569.9943549860272 483.50761757579767,569.6962990049386 481.84357246779376,569.2432507138025 479.8603957205673,567.8125454387097 472.11004962835864,572.7959941449851 456.65494787817204,571.2819360694074 449.0869629627429,574.1788737875869 441.72413430119445,569.934743813118 431.8310453620271,566.0717990164902 421.23130735297457,563.2697872460076 414.8721097285588,562.5639492363455 415.18307413750324,561.1264409654462 414.30734210855564,556.0227054469894 413.63425893430497,550.8881600490863 413.0842119709535,544.4503061880432 413.0624999355354,538.0116290457403 416.652277704481,529.7234593248601 417.7596083885641,521.0247133001801 421.7981086935198,526.3593148462625 425.16352532043146,532.7994846038337 431.1054764503042,531.9964025720666 438.56005546989337,530.3598938133218 442.93147860543525,530.6629550332599 447.07130308585795,530.9054027452687 450.2340713618473,535.5116851394666 456.26287164102587,538.5570549320655 459.4328774301005,535.1631983818224 464.16617319661106,532.3297586624392 473.676189556218,535.5419884738228 482.9401327383402,537.8752719135686 485.1258443061029,533.7540747256214 488.54192327264593,531.0720845552428 490.07626395350906,527.4201052392316 490.8289590158757,523.2071188342076 495.22933220372363,525.6015932803534 500.0929021980166,526.2986973415765 503.16158355971237,523.4041368712454 506.4256757592616,520.6155015887845 511.8682425173096,520.3881603937774 517.223959370349,519.6909741771202 520.4012021686899,516.9930751989422 524.1212546692229,516.5383589115079 530.6060144936638,515.7350165232527 537.4815975052007,512.7943706270793 540.8687266713379,512.6882615633972 543.691334099867,510.53571594453916 550.610341686064,502.25816360713833 559.9032344166849,497.92175544386606 569.9922475400468,498.5585942381891 577.3382648711071,502.1823554363813 582.6795066979806,504.8810526488662 590.7854568564047,504.2594555619837 594.1942985617719,508.9136659168313 598.0590998123968,513.2339627730103 621.2479070643137,514.6285049541729 645.1097979942932,513.1430128085882 669.4493610087488,518.1298481268989 693.6658870566188,523.6011538706833 717.216566939523,523.2980502712196 736.0918511605148,524.7529319010501 750.5812369679173,533.7389227854063 775.0872615236161,529.511312878724 775.3502846253637,529.4659360793311Z" name="Sud-Est" name_en="Sud-Est" gn_name="Sud-Est" admin="Haiti" adm0_a3="HTI" iso_3166_2="HT-SE" iso_a2="HT" postal="SE" type="Département" type_en="Department" wikidataid="Q936717"/><path d="M240.96737652809705,588.0055946287125 245.68596952668935,588.2916247605018 251.22518754074352,589.4357297535893 255.2257336507967,591.843033415701 255.2257336507967,595.9900012733225 251.73807789529388,598.2063452473785 246.02789652309772,598.742543100727 235.13182195189566,598.1825141655058 230.23086777650744,597.1101012829879 225.94538236271447,594.5123848284696 218.90168534038628,588.0055946287125 219.8020931255992,585.0856098144453 221.06722326440868,583.8818122516889 222.6628828610783,584.2989732148934 224.45230089297232,586.1701953221108 227.66641488328594,583.9414067177299 229.2050865071789,584.7399678563085 230.32204836489836,586.7303567297396 232.25963467787068,588.0055946287125 240.96737652809705,588.0055946287125Z" name="Sud" name_en="Sud" gn_name="Sud" admin="Haiti" adm0_a3="HTI" iso_3166_2="HT-SD" iso_a2="HT" postal="SD" type="Département" type_en="Department" wikidataid="Q936704"/><path d="M414.8721097285588,562.5639492363455 391.6888118382373,559.9906396764245 384.2803930225381,560.3483751650164 381.95528899878343,559.9906396764245 373.806028217479,554.8151154714855 371.355551269853,553.9803038582787 334.1538902512933,547.9931061531623 317.4450559008338,549.7106220036816 314.8578079305439,548.9949975869852 316.32809432322,545.1781620535307 320.0437014096555,543.7229172160019 330.1647413996522,543.8064160826099 330.1647413996522,541.9813395722532 311.4499352249002,539.9772576248376 288.7687755557116,540.1561968736141 282.1695836567099,541.9813395722532 273.1541077057951,547.301312407566 269.7348374616172,547.9931061531623 267.50091402628397,546.8242077778312 265.0846296942441,541.4445396819125 263.0330677158125,539.7983180327848 259.2946652721912,542.0529125560687 257.2658983708139,547.7784128117701 255.19154103519415,552.072110842442 251.39615089888784,549.9968691008852 249.65232302114464,549.9968691008852 246.3470284424237,552.0959636385376 243.56602203692344,550.5932116321538 242.3350845137306,546.800352486357 243.73698539506776,541.9813395722532 239.75923436208063,543.1622788846062 236.282976145112,550.8317466691343 232.25963467787068,553.9803038582787 232.4533933932008,550.0326497638133 233.3765965356042,546.5140872278754 236.08921742977955,539.7983180327848 233.88948689015456,541.5757578964987 230.7323605925236,545.7268500371218 228.4528472831476,547.9931061531623 228.22489567209283,547.2774573420321 226.58364592127472,546.6333648364741 223.57468818482542,545.9892638013 222.57170227268736,546.4902317895161 222.68567793814432,547.6591379144708 223.0162073960162,548.9711433233712 222.70847301522912,549.9968691008852 210.46748525536083,559.7282987658161 190.43056124912604,568.9809578354776 185.3472461770593,574.000055432727 180.46908707873948,582.010505700009 192.2541721767424,594.5362176313018 194.02079513155397,599.100005097295 195.4454910899736,604.8547979678656 194.7730346356933,607.1064964379111 191.06882508778966,608 172.51358473266416,607.928520186491 169.80096355836673,607.4758130544337 167.07694512563845,606.1772361961504 165.0367804056236,604.1399523310706 163.96540898216065,599.8268367118189 146.0484324656941,574.1788737875869 145.15942221901534,573.511281375454 143.03947472924946,572.5814059458476 142.0478863556292,571.9972447014835 141.05629798202065,570.8885118058944 140.8283466510856,569.9943549860272 140.69157562842645,569.0644146215022 139.93933640440687,567.8125454387097 134.71925030968097,562.947843955433 107.59303912696718,543.0549218835805 102.72627756719794,540.6930105082279 94.17810181669444,539.261494851233 90.58786821436986,537.7822193329976 87.53332004366636,535.5632246066642 86.23399728925668,532.7953088528099 85.64132360472512,529.6692893444581 84.0570618266954,528.7147409538023 81.6749701102745,528.5596252142069 78.75719268212683,527.784038740644 71.53113476310607,524.9798954323645 69.18323594240516,523.6075980491779 67.29123978356962,525.7793905191503 62.00276817753054,523.8939937916016 56.395164932259505,526.2566951869981 50.479827306182635,529.907923606848 44.32514081063889,531.793094771099 39.16204268871777,530.7192719690017 32.76800704358506,528.1420031496979 27.331367156474734,525.1230897375766 25.040456028440087,522.6887344793497 22.646967053588362,519.406941586896 12.115614275757363,514.0959482259774 10.228870125529896,509.8133225816078 11.304107696214983,509.3229732501842 18.01322891461795,508.61047343368864 25.79349350361521,510.0657816516821 41.31059810697323,508.5346751577081 56.625054107501725,505.2903929863817 84.73533095449757,499.55932446916387 113.12063153509864,497.3000717625778 124.93939642905625,500.19614238214314 136.5989372948466,504.1078451765672 149.95928013084077,507.8979634693049 163.2617233660161,508.9743044567899 162.7840512815237,502.01557721417976 166.66332730640727,496.22347929752294 173.13361260850124,496.07184451957085 179.61113542367346,496.05668117476597 188.56386755873908,493.63046370671793 197.50936268453376,491.1131384436648 206.59960681234853,492.37181695499834 215.88526228181004,491.9472061154226 221.50876510343406,494.7677676258578 226.24929863495115,496.3144595209812 232.60378423161418,491.00698332774067 241.59270418397833,489.76343563082514 249.22821977095785,490.43070920779485 254.13521433989436,494.6161286889325 258.1809521579307,499.5896492906678 264.43411383106667,502.7433325962779 261.9227166938818,507.8070038066429 259.1290590657537,514.1282930920718 273.32894661723003,517.7206130442968 291.1837493034304,514.8710301910944 300.02068248880306,514.0221871190515 308.8648529353187,514.3253470861356 318.91767874521526,511.71811153841037 327.67500004244147,508.1556809997137 342.2584725122141,510.171896011323 357.0880189151719,509.883870307374 364.4340364981464,510.76310186177534 371.5122678606057,511.56652402218333 377.88846599650117,509.65648065868925 384.6699618418514,511.5362062000359 395.29454665053163,520.1456618596449 404.2400415244191,528.4354126078556 406.49812771915487,541.1780462783606 413.63425893430497,550.8881600490863 414.30734210855564,556.0227054469894 415.18307413750324,561.1264409654462 414.8721097285588,562.5639492363455Z" name="Sud" name_en="Sud" gn_name="Sud" admin="Haiti" adm0_a3="HTI" iso_3166_2="HT-SD" iso_a2="HT" postal="SD" type="Département" type_en="Department" wikidataid="Q936704"/><path d="M194.02079513155397,431.2308772316343 200.68837226177018,428.08651656823895 209.8520167738666,428.81583495131264 216.8615209004748,432.7491848221897 216.96409902741632,439.26422707988837 210.51307568961502,443.1130775158366 201.57738250844892,443.0652676675731 194.6020709974433,439.0968787915912 194.02079513155397,431.2308772316343Z" name="Grand'Anse" name_en="Grand'Anse" gn_name="Departement de la Grand'Anse" admin="Haiti" adm0_a3="HTI" iso_3166_2="HT-GA" iso_a2="HT" postal="GR" type="Département" type_en="Department" wikidataid="Q913231"/><path d="M10.228870125529896,509.8133225816078 9.733522839453888,508.6888979524374 9.106656539308046,502.9589353248186 7.271648073157506,498.8998144361032 0,489.7417027675651 9.733522839453888,475.5415117559032 8.890102746907212,474.3709200414383 7.659165503820074,471.5279394895916 12.788070730037616,467.8963327888026 16.081968050311335,454.2993408618314 20.25347779863094,451.2879033331207 21.017114841318527,449.7582139074606 20.53841682224862,446.31624029847563 19.432852783169043,442.6349757778719 18.338686282625996,440.3519759655869 17.6206396742043,437.2321042215883 19.786177318111626,434.50653764395787 29.280351288082244,428.9832177985057 41.72649530181951,423.9614813950942 47.02636416629879,423.02881658021494 53.488785042631946,424.60716171955806 56.34957477810869,424.51150583276166 57.534921586943994,422.12004949347005 58.92542492975868,420.08722058294387 62.03696107323647,419.1903574784553 65.33085811342558,418.9870661823961 81.05950134867692,419.8719749039591 92.20632260800214,422.2635403643904 128.86090037628676,438.5470168949925 144.98845886085698,439.26422707988837 145.56973472674864,439.7065015931765 147.39334565436266,441.75047549245147 147.7808628049078,442.36006527336946 148.41912664357142,444.6429723688945 149.98059334453043,444.4756422866443 151.92957747615668,443.4716510795012 153.68480289243408,443.2804122082866 161.82266641532405,447.52334871667017 165.43569537481804,448.8140853157066 178.03000766964763,449.28017637949716 181.01617032901217,449.8538209178664 184.29866983064835,451.2879033331207 190.32798312218452,456.45025573178924 192.10600361554668,457.4898310708072 194.98958842810822,457.7049129423644 196.38009149080312,456.8804272691691 197.31469217172435,455.84083914894757 198.8077736414665,455.30311279152113 201.60017758551732,455.7571933926175 205.06503826395408,457.4539838057121 207.57250318438255,457.4898310708072 209.28213816640576,456.70118965571163 210.02755049778068,456.15115697358726 210.01568577888688,456.1758994321639 207.68522520910875,461.0015224915192 202.82889247599385,466.5246152594484 204.19677161561614,470.6210182183119 208.80703091935078,472.77528713901233 202.56110650739288,479.78360095689925 197.50936268453376,491.1131384436648 188.56386755873908,493.63046370671793 179.61113542367346,496.05668117476597 173.13361260850124,496.07184451957085 166.66332730640727,496.22347929752294 162.7840512815237,502.01557721417976 163.2617233660161,508.9743044567899 149.95928013084077,507.8979634693049 136.5989372948466,504.1078451765672 124.93939642905625,500.19614238214314 113.12063153509864,497.3000717625778 84.73533095449757,499.55932446916387 56.625054107501725,505.2903929863817 41.31059810697323,508.5346751577081 25.79349350361521,510.0657816516821 18.01322891461795,508.61047343368864 11.304107696214983,509.3229732501842 10.228870125529896,509.8133225816078Z" name="Grand'Anse" name_en="Grand'Anse" gn_name="Departement de la Grand'Anse" admin="Haiti" adm0_a3="HTI" iso_3166_2="HT-GA" iso_a2="HT" postal="GR" type="Département" type_en="Department" wikidataid="Q913231"/><path d="M458.9800516218069,0.37399080861575557 467.0723247104263,0 472.47477198193644,0.760042306343189 477.3073406459998,2.8953314401735057 483.66718339541245,6.646927123222188 510.1779258165099,17.043640052671876 521.4501202798427,24.17042367627229 518.2701989051458,31.103208137317626 513.7225695448035,29.162133492037015 489.9928335292039,25.894674448222197 478.9827830124227,21.57789740376847 465.37408726691854,18.514910594473918 460.7352770380843,16.39240672611932 457.5211630477707,17.00746046756413 454.19307339199776,18.249603036748166 451.16132029835796,18.780216919781914 445.3029703649825,17.59838677133677 438.4416347995583,15.306997667039797 432.2185627926709,12.159166031509734 428.22941394104856,8.468330662440664 429.4603514642414,8.480392963935284 430.2353860454608,8.094406046184323 431.86523825773304,6.646927123222188 444.8242726260324,2.304216133843977 458.9800516218069,0.37399080861575557Z" name="Nord-Ouest" name_en="Nord-Ouest" gn_name="Nord-Ouest" admin="Haiti" adm0_a3="HTI" iso_3166_2="HT-NO" iso_a2="HT" postal="NO" type="Département" type_en="Department" wikidataid="Q608361"/><path d="M383.2883792643607,136.39018639805178 382.9126847567847,136.35414061632486 381.49938633691806,137.02775254312525 380.200063582506,138.47117416388275 378.35365785792465,139.9265790383595 375.36749491844034,140.5760842023986 371.2073827086573,139.55371103529836 365.01850359750864,136.9796378528078 358.9777924873185,133.63553744197753 355.19380016966613,130.31525941053826 349.54060649014093,135.81283855474328 337.504774984137,137.38861203538104 310.8116713862365,136.04138916759402 305.52320006030317,134.65803952069845 302.4230617354653,134.35730582414155 300.43988470811905,133.07014436405206 295.4933403785917,127.52411927977279 292.76932166576245,126.27286450073723 288.8827512211686,123.64993355587004 287.33268205875544,117.75381872194606 286.8083938855488,111.55608093798736 285.99916640862347,108.08980318596868 295.9948334747183,92.06696000242165 297.4765171258205,88.71964536677697 300.2233309157182,88.64739840315707 314.8578079305439,81.83160800824189 314.8578079305439,79.62770207515041 299.3913086418255,79.62770207515041 303.9161429250877,76.2192708260617 309.2502046852729,75.6531820149942 314.96038605748544,76.12291572663923 320.6021821984624,75.7615825465015 354.72649996924787,60.10110825594895 364.71076921670283,52.84731186811716 370.3183724619762,45.07412587048818 373.6692574749349,49.13562781942708 376.871973926719,50.2202415000175 384.8274762728084,49.30434705438903 388.9192029712525,49.90691115177348 396.30482698999145,52.5822015339164 400.21419251165605,53.172672637713845 403.5536799860829,53.10037034335762 405.41148352929946,52.82321104522753 411.0076892360387,51.32893167020511 415.1450063687534,50.786640851382906 419.43049178252994,51.14816867120129 423.3170622271238,52.59425200966498 426.29182762807625,55.3778349790926 428.2977994523711,50.786640851382906 433.5748732397703,47.93047139102012 440.00310150050325,47.30377785372843 445.4169460304395,49.30434705438903 452.89375063758337,46.23114792656244 461.81804600009787,43.905022125356254 471.152654150456,42.72383547355352 479.8603957205673,43.2300621048149 508.4454954773009,49.90691115177348 515.4891924996315,54.26924176787792 521.3133495373033,57.04067474997646 537.9310032993556,62.19750892247683 538.9220132473713,63.42567222550731 536.663764825139,65.04243783656499 533.8845819712697,69.20385972754453 532.0896930867887,72.78360790529233 529.7664697781676,74.58867540344444 526.6398890675672,77.52558447438766 522.9704989066679,80.73761638135574 520.010379737299,80.37053852423425 517.2456716576672,78.61158211843158 512.75844932053,77.44910474330104 508.8502234952405,78.5045130142646 507.92382912664755,82.0529559767207 507.99620350169226,83.84236991119236 499.4777186245707,82.6494348469029 492.60213561303374,87.5892101213224 487.94121447347277,90.28063153308483 482.06440070937856,91.80977896613136 464.6583200553622,106.6704805832436 443.51771237847294,110.38491682901949 432.0752956454666,108.26023417232169 420.5098414420439,107.31250280528423 409.2194109722124,104.53034205250125 398.4211276130368,105.58513675063595 385.241720840635,119.44812532952938 383.00534718514814,135.59860103068112 383.2883792643607,136.39018639805178Z" name="Nord-Ouest" name_en="Nord-Ouest" gn_name="Nord-Ouest" admin="Haiti" adm0_a3="HTI" iso_3166_2="HT-NO" iso_a2="HT" postal="NO" type="Département" type_en="Department" wikidataid="Q608361"/><path d="M538.9220132473713,63.42567222550731 544.7581462491771,70.66648500341879 552.2577459333894,75.73749362713407 560.0536821797513,78.54377584031634 564.3391675935302,75.7615825465015 569.445278022785,78.4835571231828 577.9250682619613,81.75935035131938 585.8691730695072,83.78251906586932 589.3682263635441,82.74686027046364 591.1462468569016,87.41918494241612 604.6751598326478,100.01285933901241 604.6751598326478,101.86670771058779 603.3416444626379,101.26481702088759 598.9421833833878,100.01285933901241 602.4868268315593,108.63142583198736 603.7177640746464,109.93129527519444 608.675706222823,111.03856258631373 609.7242822891166,110.65342914441318 608.675706222823,108.08980318596868 612.3343253364725,103.86492925586678 611.4111224741865,103.81678046608266 609.5875115465725,103.96122698230963 608.675706222823,103.86492925586678 608.7440914540446,103.50381123440968 609.3253673199175,102.25191361887173 610.0092215928377,101.2888927383756 610.4195338204629,101.86670771058779 610.4195338204629,100.01285933901241 609.7698727233708,99.09794595173905 608.675706222823,95.99192193249186 610.4195338204629,95.99192193249186 614.579646030246,98.25524680170587 620.3012252210984,98.78494506922775 625.4073353702312,97.12359809885457 627.6412588055761,92.76529027214072 630.456458106801,89.85149815382137 635.9842783022153,89.70700792214639 639.7454755428016,92.885690974801 637.3633841064817,100.01285933901241 642.116169720693,102.85379157816752 646.6979919767413,103.33528865336768 657.7764277247392,101.3851957798996 658.7338234827452,101.4574227087346 660.3066877222408,101.86670771058779 662.2442743153164,103.16676516808327 666.2790133210896,107.23522974092916 668.991634495387,108.08980318596868 678.6567718234996,108.08980318596868 680.9248878744495,108.72771373045381 682.1672226560707,110.11182964077838 683.0562329027542,111.4959045560569 683.8104767446619,111.86295963239186 682.4623057360907,114.64927574032842 681.3983998785747,116.88064932913217 680.1463199405689,128.28038999785412 674.1681820010193,137.04988548256682 669.6737218988966,137.99701465850677 666.2793552196788,140.22727660268447 666.4820040744086,144.290358614808 665.3819109033873,148.0476330672771 666.2142181057911,154.9962723123057 669.9849326940483,161.97442276049054 672.8509649491447,170.70710736024287 677.62768554222,178.40030203909745 676.7591907744318,186.22958937529762 673.9800079205461,190.57863342956597 679.1330764226655,191.98245016193286 684.3585192998344,193.50829063524404 698.4860322243563,207.80303151353675 703.1469536158221,223.02364972196474 682.9689278729102,233.3153975136999 663.6014967931673,245.3577348474798 658.1661678000953,245.87594465636923 655.596871062115,242.0197202336701 649.4595088424958,235.90704328316076 641.1943346559256,233.010489003991 638.263165035053,225.06692919680006 633.5877688693308,216.67977566348742 632.2560770432115,208.2758896408896 633.7035680709427,200.09935748411746 628.9919848436575,189.55626255647914 617.7377411834981,184.04728667502016 606.932220311242,174.0501375636483 605.5788159458784,155.28641313664932 600.1869117793711,152.53764045545407 596.1049866478508,150.4606835092604 591.2993165062908,150.88829972504118 586.1317732299126,155.82087779418782 580.5589324960127,155.63763349777506 580.529982443702,163.28748196863836 572.120059255114,165.97455940307498 562.1106582717869,161.82173917591763 553.6355979693042,155.0115430384772 545.8770456676275,147.37562228113512 541.259548850824,135.3388928916533 537.4019853651658,123.5741309484309 530.6277270328939,120.67068335428675 527.1320359263183,115.59685835795268 529.7664697781676,105.60042357852308 523.9258433275716,101.28937409384767 517.882567770341,102.1149249520039 517.0719728552648,95.51010845606645 511.3181955539581,90.99933697718183 507.99620350169226,83.84236991119236 507.92382912664755,82.0529559767207 508.8502234952405,78.5045130142646 512.75844932053,77.44910474330104 517.2456716576672,78.61158211843158 520.010379737299,80.37053852423425 522.9704989066679,80.73761638135574 526.6398890675672,77.52558447438766 529.7664697781676,74.58867540344444 532.0896930867887,72.78360790529233 533.8845819712697,69.20385972754453 536.663764825139,65.04243783656499 538.9220132473713,63.42567222550731Z" name="Nord" name_en="Nord" gn_name="Nord" admin="Haiti" adm0_a3="HTI" iso_3166_2="HT-ND" iso_a2="HT" postal="ND" type="Département" type_en="Department" wikidataid="Q943932"/><path d="M499.46403686074575,338.41718992411796 498.71197291796676,338.0340847241396 469.35183829991036,306.41343972288365 468.00692539135923,298.861686323351 479.8603957205673,294.0782978308251 490.6083020106934,293.35894998401363 496.5464349939444,291.38068868757 499.1450802226604,287.05220912250695 497.4810353947739,281.5121467326549 493.40070623484763,278.6339403363537 488.3173911627809,276.69105354610997 483.66718339541245,273.9564874493414 480.7038158130952,270.21419682590357 473.9792507101094,258.3496860534645 472.2012302167472,253.658255025713 474.1160217327522,252.2903346219824 474.332575525153,251.7623546615045 474.02484114436356,251.18637001177342 474.27558755236464,249.62637662329797 477.01100380373043,247.0582769827374 480.08834705149997,240.26534802710077 481.9347530561847,237.54070420190692 485.0006987654224,236.02827934853102 489.44575027892887,235.15201159981564 493.9591870236545,234.95995062757194 497.24168652529534,235.52412727530296 493.21834505804935,227.5650188357673 490.32336298707577,225.9442230468609 484.7157597418047,225.43996432653134 481.38766980591436,222.90658321653308 480.29350330536664,217.14293911694136 480.72661089018,211.01830167840052 481.9347530561847,207.31911889846683 483.7013760110127,209.1567359917087 486.03787757329917,210.7540839733429 488.7277033904108,211.6067817431479 491.49731253748024,211.17442987324281 494.5860533237839,208.94054940070828 494.74561914341047,206.778629959197 493.7540307697902,204.340346942132 493.28673056937424,197.55333288602634 492.58008121938803,196.26789521664494 493.21834505804935,196.50816657202174 497.24168652529534,197.2289733312723 498.6435874066442,198.11795341863785 500.60396907678825,199.78774903667068 503.29379489391397,201.1932149538068 506.8042457264805,201.26528912011239 501.40179873507606,190.52504663755505 498.5752018953217,188.93903264636538 484.1002909802071,188.025848991802 480.43027404790837,185.35829068179956 477.96839956173176,181.41675806241793 474.27558755236464,176.89801153197274 469.009911303502,173.1120267237019 451.16132029835796,164.97413643228032 436.2988919525972,155.7887743150661 430.9876255496025,154.5142239156952 426.3944057550014,152.3738633758156 416.51271435438224,143.96779790839037 414.64351327261744,143.52279972415286 411.8397117900488,144.7735946352801 394.49261360092333,138.37494739714202 391.62042660701576,138.0501807141433 386.1040036700323,136.67891903391714 383.2883792643607,136.39018639805178 383.00534718514814,135.59860103068112 385.241720840635,119.44812532952938 398.4211276130368,105.58513675063595 409.2194109722124,104.53034205250125 420.5098414420439,107.31250280528423 432.0752956454666,108.26023417232169 443.51771237847294,110.38491682901949 464.6583200553622,106.6704805832436 482.06440070937856,91.80977896613136 487.94121447347277,90.28063153308483 492.60213561303374,87.5892101213224 499.4777186245707,82.6494348469029 507.99620350169226,83.84236991119236 511.3181955539581,90.99933697718183 517.0719728552648,95.51010845606645 517.882567770341,102.1149249520039 523.9258433275716,101.28937409384767 529.7664697781676,105.60042357852308 527.1320359263183,115.59685835795268 530.6277270328939,120.67068335428675 537.4019853651658,123.5741309484309 541.259548850824,135.3388928916533 545.8770456676275,147.37562228113512 553.6355979693042,155.0115430384772 562.1106582717869,161.82173917591763 572.120059255114,165.97455940307498 580.529982443702,163.28748196863836 580.5589324960127,155.63763349777506 586.1317732299126,155.82087779418782 591.2993165062908,150.88829972504118 596.1049866478508,150.4606835092604 600.1869117793711,152.53764045545407 605.5788159458784,155.28641313664932 606.932220311242,174.0501375636483 617.7377411834981,184.04728667502016 628.9919848436575,189.55626255647914 633.7035680709427,200.09935748411746 632.2560770432115,208.2758896408896 633.5877688693308,216.67977566348742 638.263165035053,225.06692919680006 641.1943346559256,233.010489003991 628.3623259921619,251.0120129496068 626.76284844933,272.3581329955713 634.2898020958899,279.8521623470989 631.669843270169,286.1267512834464 632.2777895824369,293.28365752991033 634.1740026423685,302.0075547954818 630.3164389048055,316.97001018666487 632.0244783880759,331.69962647915776 632.8278360419763,339.50390077391063 628.9775098174963,349.07117292573986 627.9208414730446,358.16518179855194 621.3347567174314,361.9057027137038 608.0467885084057,360.3547900033301 594.9397566148654,361.1454572755909 588.3753843984802,354.39395946451276 580.8339557257918,348.8886671994431 573.4372760550863,345.90764100703274 566.4458943457471,342.8960108724108 563.6377614395694,338.3630032532185 560.6125049044056,334.10341587849354 553.6790225439664,334.4228977938698 547.0929382921678,333.66222289409734 525.9378558410245,330.6650478051959 508.0830531548101,329.9956025967462 503.3931819629408,333.43401812506755 499.46403686074575,338.41718992411796Z" name="L'Artibonite" name_en="Artibonite" gn_name="Departement de l'Artibonite" admin="Haiti" adm0_a3="HTI" iso_3166_2="HT-AR" iso_a2="HT" postal="AR" type="Département" type_en="Department" wikidataid="Q844024"/><path d="M210.02755049778068,456.15115697358726 212.8609745103159,454.0603445900037 214.02352652218386,453.4747988221218 214.3654535185899,452.7697447399028 217.92149450531662,448.38384342486574 219.8020931255992,447.43968861706827 222.02461902241467,447.3440769434653 224.32692768896476,447.5353001059602 226.538055767138,447.451640026578 239.2349461888763,443.78241230076276 242.8821677640033,443.2804122082866 252.86643729156395,445.76645868353353 253.02600311117175,450.8098802805401 247.3500143545758,454.62198408825145 239.91880018169076,453.4747988221218 239.91880018169076,455.30311279152113 233.8780893516204,453.27164859539744 228.48703989874784,452.5426912691285 223.07319508870353,453.1521481246851 216.96409902741632,455.30311279152113 218.81050475199535,456.5577990395548 223.4607125193661,459.03123014143245 228.07672739101687,460.15439013970644 228.3844617718227,461.87492625277304 228.27048610634935,464.1210920632624 229.50142334943646,466.4149435966734 234.43657014042728,468.6131184981398 243.33807070598843,467.32289694922656 247.73753178523836,469.5210319606716 257.56223521308317,463.6192977262638 269.5980667190895,462.1138848579852 313.9004121725426,465.50697334736145 319.5650033906044,466.7733482886051 330.7232221884614,472.43579969474234 336.9462941953277,473.70199803341086 359.3881049950518,472.8897235790654 370.3525650775928,473.8453391374562 380.23425647821193,477.5242879426165 385.43154721575206,480.5341348588943 389.6714424753942,482.1464778465566 394.3900354739865,482.46894023710337 401.454642636548,481.2115065398386 403.0530989522083,484.48559581632213 403.19061044113135,488.03454963966226 398.8408998448313,495.3591557369664 399.4705584444244,503.24365830675004 406.469177918749,503.531722256888 411.3110356257003,508.3982376021654 413.37371047878463,515.5228108966483 417.7596083885641,521.0247133001801 416.652277704481,529.7234593248601 413.0624999355354,538.0116290457403 413.0842119709535,544.4503061880432 413.63425893430497,550.8881600490863 406.49812771915487,541.1780462783606 404.2400415244191,528.4354126078556 395.29454665053163,520.1456618596449 384.6699618418514,511.5362062000359 377.88846599650117,509.65648065868925 371.5122678606057,511.56652402218333 364.4340364981464,510.76310186177534 357.0880189151719,509.883870307374 342.2584725122141,510.171896011323 327.67500004244147,508.1556809997137 318.91767874521526,511.71811153841037 308.8648529353187,514.3253470861356 300.02068248880306,514.0221871190515 291.1837493034304,514.8710301910944 273.32894661723003,517.7206130442968 259.1290590657537,514.1282930920718 261.9227166938818,507.8070038066429 264.43411383106667,502.7433325962779 258.1809521579307,499.5896492906678 254.13521433989436,494.6161286889325 249.22821977095785,490.43070920779485 241.59270418397833,489.76343563082514 232.60378423161418,491.00698332774067 226.24929863495115,496.3144595209812 221.50876510343406,494.7677676258578 215.88526228181004,491.9472061154226 206.59960681234853,492.37181695499834 197.50936268453376,491.1131384436648 202.56110650739288,479.78360095689925 208.80703091935078,472.77528713901233 204.19677161561614,470.6210182183119 202.82889247599385,466.5246152594484 207.68522520910875,461.0015224915192 210.01568577888688,456.1758994321639 210.02755049778068,456.15115697358726Z" name="Nippes" name_en="Nippes" gn_name="Departement de Nippes" admin="Haiti" adm0_a3="HTI" iso_3166_2="HT-NI" iso_a2="HT" postal="NI" type="Département" type_en="Department" wikidataid="Q125232"/></svg>