<?xml version="1.0"?><svg fill="#3498db" stroke="#ecf0f1" stroke-width="1" width="800" height="2232" viewBox="0 0 800 2232" xmlns="http://www.w3.org/2000/svg"><path d="M0,1261.3134673201375 7.829714551490767,1254.078498297645 32.941159850877334,1235.504008536354 50.035095315453795,1217.1285303838517 51.446983692531965,1207.4098499160075 47.41301620385447,1187.8790160164885 47.564290167614594,1178.2137299642282 58.05260466237988,1158.2606428467711 113.21710458092254,1105.447064492577 120.57909488183198,1100.4452682110812 120.67994370312273,1100.4452682110812 136.5636889211192,1085.790215161009 137.62260520391456,1073.692311422562 128.34448095576397,1062.1805335597396 113.60623890948598,1049.898551578369 117.65982484932906,1040.0561123328841 129.57114521751865,1024.814869432002 172.8886459270558,950.2848175089924 176.26352010457757,945.8468204614916 203.73727876238547,883.9245778026374 205.64576923384138,883.2918805340558 209.881434582367,882.0361694613443 210.86471442219255,881.5929700718768 212.83127278554562,881.5634230720766 215.1003793319501,882.0066232267437 219.10913442076102,883.5873379338177 221.07569366164614,883.8680208111036 222.5884310667364,883.8532479575031 223.57171002902993,883.5577920634744 224.55498986885547,883.9418839881096 225.41220811201086,884.9464190875034 225.86602950906212,887.5610736935057 225.61390587692716,888.9052799348179 225.1600853574345,889.909718982032 223.79862072754128,891.3720301741918 223.2691627235085,892.0367030225926 223.04225202499714,892.9081508875987 223.11788950953928,893.7500441037186 223.64734751357616,897.2651704708841 223.57171002902993,898.3285237459382 223.34480020805472,899.3032450531738 222.73970471949815,901.2230972115713 222.73970471949815,906.0962512026571 222.5127940209868,907.1741909398331 221.90769897117383,907.9124929716951 221.22696687563982,908.3997662162735 220.31932452032987,908.62125236531 219.48731877203411,908.665549893574 218.6553130237098,908.62125236531 216.68875378282468,908.2816398176152 213.7389155796216,907.2037229336653 211.69671973172433,906.8198026280444 210.63780372368123,906.9526986551889 209.7301609296073,907.2627873851598 209.04942883407125,907.6910033036158 208.67124448279816,908.1044497188249 207.91487578024996,909.2709410566392 207.68796508171005,909.8910901825898 207.46105438319873,910.5259972599047 207.38541777621515,911.4561963560274 207.46105438319873,912.3716135903578 207.68796508171005,913.2279581733177 207.83923917323986,913.8037671989548 208.74688108978174,914.9110755608839 210.18398232665854,916.239814829022 213.43636827412666,918.557645224709 215.47856412199127,920.6391756541809 215.70547482053118,921.4363358969924 215.62983777475503,922.4106261802227 215.32729003049002,923.34061376591 214.79783202645726,924.182016678655 214.19273697667282,924.8462727058155 213.43636827412666,925.4514759484294 212.67999957157846,925.90906428136 209.881434582367,927.1784816187866 208.29305969273048,928.123144741423 207.6123284747285,928.7725900321266 207.08287003192564,929.5401063995197 206.70468568065255,930.4256881313212 206.55341202789285,931.4440891487293 206.70468568065255,932.1968071204935 206.8559593334143,932.8019258102004 207.1585070777038,933.4660723480871 207.53669099020883,933.9531074402439 219.2604080734942,937.9672865927538 221.45387757415114,938.2034050044067 223.1935261165249,937.5393191268224 228.18556060636476,933.7317286018965 230.17733190333936,932.6838540321033 232.9002589692631,931.8721070020649 233.65662811057527,930.9570301775213 233.65662811057527,930.204294361196 233.0515330607643,929.5253469707802 232.29516435821816,928.905430249063 231.84134296119345,928.0788637016308 231.3875215641687,927.1932422236908 231.08497381987718,926.1747589280698 230.5555158158444,925.3776709372305 229.79914711329823,924.787227610691 228.89150475801685,924.3148685592984 227.88301242333372,924.0048799701308 227.12664372078552,923.4882294357277 226.67282276250234,922.9125260690131 226.92494551710524,922.2334834693443 228.33683382035844,921.790625607302 236.3795560540065,920.5948887888366 237.5141091078278,919.9453413882256 239.02684651292216,918.0704666990913 240.46394774979896,918.3804894555147 242.9599649947189,919.2662607552523 251.2043849932588,924.0934483994057 252.79275944412723,925.3776709372305 254.40634638980225,927.7246171159711 255.61653648940168,930.5585241490038 258.86892243686776,940.4022087271197 259.92783888370343,942.4681140930535 260.75984463200325,943.7518855628019 261.9700347315721,945.1241583645476 262.57512978135856,945.6701060237164 266.58388443139734,943.57481511878 282.6945405159966,930.7356386568181 295.88057045345374,947.5292372610547 300.34314650051925,950.9669804014164 301.4776995543385,951.1292725026095 303.2929847036938,951.8522000571412 303.9737167992564,952.501351384956 304.5788118490408,953.5340754981187 304.956996200318,954.9798547259246 304.80572254755623,957.5467530778863 304.42753819630764,959.0514280240444 303.5955324479833,961.1756011374999 303.36862174947197,962.178653238072 303.36862174947197,963.2111860060235 303.5955324479833,964.2289492883979 305.56209125010236,970.18762761373 305.8646385556238,972.5178176727125 305.8646385556238,973.7566102656496 305.7890019486423,974.9363865621713 305.56209125010236,976.012907982582 304.35190115052944,978.8294574167379 304.1249908907862,979.8616626458384 303.9737167992564,981.0413010247796 303.9737167992564,982.26514762136 304.5788118490408,989.5633988093846 304.27626410477984,992.924675430918 304.35190115052944,994.0745369881548 305.1839068988293,997.1112285911946 305.33518055159107,998.2609973662798 305.25954394460746,1003.2872579042644 304.7300855018066,1006.5887035412295 308.91532673820217,1010.4499517027058 343.6830802644732,1035.4085809766586 343.8752754245436,1035.546518752817 336.1442102967947,1050.5484308818557 333.97595307655945,1065.9788148107089 333.77425494606734,1081.9050599616983 331.00090235864093,1100.4452682110812 309.0157817409942,1137.1827125629336 301.9059147130728,1156.2031951154065 307.6038928759769,1175.3049852703837 318.3947552982604,1183.4725698792045 331.30344979828124,1185.4995803901481 344.7163903564042,1183.384436807116 357.120839286264,1179.0951361787959 386.3166757531229,1175.0993104259812 447.1791543225048,1175.6281871450306 475.6690466008226,1164.9614874931465 528.8669879175693,1120.7143223201035 557.0543327562203,1104.6232718653132 590.2337120571162,1101.857588384783 590.4354101876083,1102.0341253912186 589.7472497936129,1135.1008744973726 589.628617177752,1140.7991891071283 587.662057600186,1153.70475903636 578.9890287192817,1176.5683992493182 569.9126026016252,1192.9312906789432 573.543172853524,1197.0432515614034 572.7363798437186,1209.3184926348686 565.8786356008827,1221.2386143764627 559.7772606890838,1235.0637756536266 562.4497639673621,1250.6164477201396 567.0888258474688,1265.1966096555807 572.2825584402344,1276.605658062586 579.5436994319426,1290.7682449013896 582.9725710654633,1306.2753279299675 580.6530403693519,1322.4225203005888 557.7602769447574,1367.6438067202173 554.633952262993,1384.2407232399974 554.6843769176089,1402.0027917189495 549.2385215397353,1412.2710852145142 536.0711790559043,1424.9667417473036 530.1276028187674,1430.6964200957873 523.9253781098566,1443.5026845846385 522.6143385540712,1456.305892421741 522.8664613392078,1468.959944434548 521.202450176989,1481.4649472485112 518.3786734228347,1486.8400359205136 510.1090408029206,1494.2591123518719 506.32719658723113,1498.6983847776 503.1000230842025,1505.531812500339 501.4360114341894,1511.897217252308 499.2173295593423,1526.1728416466258 495.46507865834053,1539.58022358867 495.4354858315633,1539.6859497074686 466.8951684107476,1597.640093327186 445.8176901121035,1666.65484537742 443.49815892810807,1680.074695638199 435.026828665637,1702.9768472140406 435.026828665637,1716.5040808735985 437.4472086709252,1722.2921275227884 444.45622638964124,1733.6919067129045 445.8176901121035,1741.687777032793 444.7587743171901,1749.5080566251056 442.08627103891394,1755.5541953047173 438.8086723933874,1761.3380946558525 435.8840463300298,1768.37095460342 431.29540910450834,1797.6551084626956 427.8161123285449,1807.3258883798394 427.6144137101402,1823.3819958253223 437.59848214680335,1857.743075413769 437.59848214680335,1875.4375913353201 429.68182210905405,1894.3151188858628 408.80604242878604,1925.5604224615197 403.15848843259135,1947.6648837955688 402.8559409929225,1954.4132330787456 401.0406558669721,1959.3653583787536 398.6202753737488,1963.7089616798053 396.70414142653624,1968.5444372437294 393.1239953413429,1987.563722199354 392.67017393785875,2021.591024130222 390.6027655389449,2032.9577243188824 367.9621258752244,2094.0463034506233 364.33155562332763,2107.983049832348 361.75990116634017,2139.3820785354155 357.120839286264,2153.321897392055 350.6160676255909,2163.8682407079878 347.1367708495723,2176.1000758755085 345.046925960265,2191.29140790395 342.98229705739385,2198.738745026897 339.88535394705974,2203.642546882179 331.4680211405896,2214.152485958482 327.5769896153954,2220.0762240420545 325.6314740967525,2224.0704214717507 324.7976818710086,2227.655877805166 323.2095060170523,2229.8115797082105 319.397883577292,2229.9477267179072 314.8715818081096,2229.471211012799 311.45700284396867,2229.7435063579023 307.25092126960266,2221.801483353043 296.1070872409428,2198.695951643541 292.67821511950956,2185.3442939781553 293.58585792642674,2146.7564757414866 281.0301350328088,2089.2362307198396 261.9192163118123,2036.65935211022 240.53919057347076,1978.1272709054754 237.46329054635092,1947.693848751968 237.71541381931644,1944.2469495409323 237.41286589176354,1940.8867396725327 236.55564822731773,1937.5842647340244 235.19418401691638,1934.455421187393 216.28496342644462,1880.396833215671 187.49252322054738,1797.567976141323 171.30623056288408,1751.1940670741503 165.91079983962226,1743.1414452011088 139.28661685398478,1719.8490066405698 135.9081693871369,1714.5552029823464 134.84925310431703,1708.0681366158497 135.70647076878936,1698.1760517697587 140.34553313675158,1681.3553756558292 140.4463819580709,1673.6999523598854 135.60562194747004,1666.7421874127667 127.84023538559893,1656.1437083654434 124.91560932224127,1646.562531675565 123.85669255153535,1623.2577704877822 113.21710458092254,1578.3969982906078 83.16404996176236,1499.2824725538171 58.30472793531479,1433.620493956972 39.597205475282024,1384.3285237440568 24.217705827475076,1336.57293510123 5.005937309395292,1276.8109398489933 0,1261.3134673201375Z" name="HaDarom" name_en="Southern District" gn_name="Southern District" admin="Israel" adm0_a3="ISR" iso_3166_2="IL-D" iso_a2="IL" postal="HD" type="Mehoz" type_en="District" wikidataid="Q188781"/><path d="M498.6626593345899,518.6883702133853 489.78793134743154,515.534263248633 475.8707452192028,504.04691017379304 469.3520863238417,500.6076152184242 468.18138950117316,498.00506617331774 454.41547656996806,484.8911001966584 452.82710211912206,483.81920853508876 450.6336326184937,482.5388650576928 449.80162687016934,482.8961733633644 449.0452577288551,483.38746834081684 447.83506806805235,484.77200234661836 446.4736038769496,487.39209312024576 445.9189338168273,488.19595786851414 445.3138383282748,488.9253791980962 444.55746962572664,489.4910464051093 440.17053018567526,491.7089956458803 439.41416148312504,492.3044014529788 438.7334298263305,492.974225359143 438.3552450362894,493.91196410992393 438.128334337778,494.8943384988446 437.97706112378233,496.0106496659036 437.447602681008,497.1120532332839 436.6155969326837,498.064599746718 433.96830603500405,499.74639577572947 433.13630072547227,500.4905354342071 432.6824793284476,501.249547393128 432.2286579313963,502.1424876942518 431.2453780915728,503.3479328814713 429.808277732228,504.8212157466408 426.55589178476197,507.2170703632359 424.5893325438769,508.02062405819436 423.0765947000144,508.243831354568 422.0176786919468,507.9908628047405 421.03439885212333,507.6337295225568 406.86508951357604,504.86586038166774 404.67162045168715,503.8539135386398 403.0832455620772,502.73777275519575 399.9821332673708,500.9816621643401 398.5450329080301,499.8208103315719 397.6373901139521,498.6152821501313 397.03229506416767,497.52879457722275 396.12465227009375,496.4422834406719 392.9479033684038,494.4329220303507 392.11589762007947,493.55473267011087 391.8133498758165,492.60210227870505 391.7125007739774,491.5006017188332 391.86377486550515,490.4288484226389 393.0235404141534,486.36491406840867 393.3260877196789,484.04252132150356 393.0235404141534,482.7919583098591 392.26717127283916,481.79446396609967 385.7371873218175,477.4171677459689 383.69499147394885,475.67507854008556 383.31680668390766,474.85612686488105 383.0142593783862,473.8584778312085 382.8629857256245,472.7267920974693 382.8629857256245,471.56529889950247 382.40916432860183,469.88257731200684 381.6527956260536,467.8572801783347 379.5349627324088,464.4915371544758 378.8542306368442,462.570283002122 378.8542306368442,461.25961871244795 379.383689079645,460.5149079387224 380.29133187372304,460.06807647586186 381.27461083601247,459.7850809718233 383.54371738242105,459.6510299778087 384.6026338292302,459.7552921804076 385.9640980203574,460.1574432881526 388.6870255250206,461.25961871244795 390.90570752051065,461.58728741574924 391.05698117327034,460.7830050459337 390.30061247072217,459.1595070053595 386.41791941738006,454.9292331898289 384.98081818050326,452.60541285519446 384.1488128709715,450.7730952105281 384.2244494779592,449.58130853109714 384.6782708750104,447.4658192723958 384.98081818050326,446.51233024248756 385.9640980203574,444.8585814096944 386.49355602436367,444.0987329475912 387.8550197766963,442.713097379776 388.61138847924246,442.2214104569869 389.54424332941,441.86381784424634 390.6031597762191,441.5807220470707 391.7125007739774,441.4615227741897 392.9479033684038,441.55092264384933 395.06573626204863,442.04261498208484 401.41923406545504,444.8585814096944 402.40251390530716,444.9926712028416 403.3857933063667,444.81388438808665 404.21779905466445,444.3073195590769 404.9741677572086,443.6815561328949 406.48690560107104,441.29762416260337 410.11747589981223,433.0424008237782 411.1763919078798,431.4627299344805 411.7814869576663,430.79210035897387 412.4622190532309,430.18107410302343 419.4460244012773,426.38062573135767 419.79899669646085,424.94979548072257 419.74857214554027,422.5798949493674 417.3786160585245,412.35377740801107 417.3786160585245,411.2803637535376 417.83243745557576,407.8065215196784 418.5383816072034,405.8831343531717 419.0426279939127,405.1227050209013 419.79899669646085,404.6902993582741 420.7318515465978,404.6306569281052 421.48822024914597,405.0779742327473 422.16895234470854,405.70421103805825 423.6060531428173,408.1643538114683 424.2111481926038,408.9247372809136 424.81624324238817,409.59565424546395 425.648248990686,409.9534734683601 426.48025430024427,409.90874639735154 427.3122604873081,409.5061994367505 428.0686291898543,408.9396467694915 429.3544563352053,407.6276054703357 430.48900938902256,406.0620570406291 431.2453780915728,404.4069973235373 431.32101469855434,403.2439495961013 431.32101469855434,401.9466733008266 431.0184673930615,399.02395286949894 431.32101469855434,397.502879319532 431.85047358012525,396.4142393855255 434.2708533405255,394.90800104503165 434.9515854360616,393.7745649925478 435.17849657336745,391.95504869059346 434.34649038627714,383.8708376778793 434.49776403903684,382.7669899058989 435.17849657336745,381.1410089108651 435.6323170928581,380.4846341313781 435.70795457737376,380.4398811981628 440.5487149757144,372.876043093732 441.0781729797492,371.30942731527733 441.6832680295336,369.11608445950327 442.21272603356846,364.4008223810977 442.21272603356846,362.11764331165426 442.06145281957475,360.4313086477702 436.99378128395676,349.4762300786096 436.01050188289923,346.6549900340098 435.4810438788624,344.53522560777606 435.5566804858766,343.38573899519065 436.842507631195,336.20459031631316 436.7668705854454,334.36808376178993 436.3130491884227,333.14370937226715 435.5566804858766,332.51657898130395 433.81703194347426,331.5460053464807 426.6315283917741,329.48534149536204 424.81624324238817,328.70883776158723 424.0598745398441,328.21604955269186 422.54713669598164,326.97659397042287 421.86640460041906,326.2597862897298 420.5049408480844,325.06508417881685 416.47097370324315,322.287293788159 415.71460500069696,321.1522386590685 415.4876943021857,320.0470292671406 416.6978844017545,312.84764411155726 416.54661074899275,311.0999217360626 416.09278935197005,309.93474006787665 414.12623054982447,308.6948378237881 413.29422436276064,307.5594794061225 412.3109454004671,305.81157448114186 410.57129729686346,301.89724523882865 409.36110675849596,300.313499405752 408.075280051917,299.32736857464755 404.5959829671695,298.2515679643006 403.5504722033052,297.91225477007487 405.5564324353906,290.5364048761756 404.68293542297647,283.5698533590808 398.6478663973877,280.5569943885172 401.6256966114347,271.96465496779217 405.00057078892786,236.70904207231231 411.5915009730709,217.9761339992768 413.65612987593795,206.87449533885854 411.6709100585068,196.83142226797662 413.77524326013764,194.70939096640126 416.395733809445,191.07815189795917 418.65888420612464,189.26243474002808 415.32371481530777,185.30064365792538 417.58686569989794,184.7582315895572 418.06331826092674,184.47523112093256 457.1127985924891,187.3959548334038 459.2306306702264,186.49747059194988 464.6260618813682,182.31931177420898 467.80281121766075,181.12120972770273 470.727437281049,181.33087965305782 477.6356056905372,183.1130391484339 481.11490246655376,183.3676278121667 499.1669049047835,177.42188990765246 505.11700634064704,177.42188990765246 507.6343603633487,178.57168277896142 510.462012897232,179.86317188622448 515.9078682750506,184.26616717321934 520.748629261444,190.15120512210964 524.1270762403487,197.02370108990326 528.6652892991913,202.9371919871941 535.1196367931303,203.8503534464197 562.6514620978562,196.69432159852923 585.9980464379956,186.67716883520387 600.9741493369569,185.41926944022214 603.394529342245,176.59811769961124 612.4709554598995,160.35957194127752 616.6561964244328,150.61992908866566 619.2782750481235,135.84204611741302 620.4380406400917,107.23317345016281 624.2198848557812,94.4228833457843 628.6572481175098,86.51607540322122 631.531450014162,78.5780097341954 634.8090481718066,73.0701454496714 640.5070268226173,72.42477054458061 643.3308035767757,75.87668050039683 652.1551064214381,89.80197751447862 658.3573311303508,94.36287422830756 658.4077557849096,94.34787208287409 658.5086050941151,94.4228833457843 661.3323818482693,96.83818782567307 661.3520315242984,96.70373411652908 661.6853539425828,94.4228833457843 661.6853539425828,94.36287422830756 660.1726162563012,83.69512924303824 664.5091306967371,79.31334607368768 671.5116391752455,77.7717314095516 679.2331108105637,76.07178089252915 688.9650564621434,68.28216601849702 707.521304958418,48.87040967732635 716.1439096725884,46.51286382931878 722.598256678668,45.88216404822604 729.5568502306521,43.92994714135124 736.3137446764313,40.94140779145196 742.1125726364187,37.2618049713324 750.0796578166638,28.39961226534912 759.8116029803615,8.942355012266578 767.3248667571225,0 767.9803862910456,3.1112186295009265 765.3078830127961,6.703158863178154 764.551514657525,16.20026936307134 763.0387769712435,19.400631122091117 761.8790113792468,27.15277132781958 753.8615015444408,33.02617220901882 750.0796578166638,37.12663071653578 739.3896447035796,42.052744948261775 758.0467425089699,54.786310710346385 741.709175887575,77.90269089682162 745.1380480089512,82.43465549471298 758.8031113521555,91.97745713572166 760.7696704418375,119.11052810313859 771.7622305067351,125.91774867229158 773.3253928476286,142.66199292919418 767.9803862910456,154.0065415389385 762.6353802223998,162.5919326945321 762.6353802223998,171.2058223843847 780.8890812789505,178.87469166831264 779.3763435927241,186.5573706569595 785.8306905987793,241.7095590900559 788.5536185316182,248.93400679040292 800,267.9100987988684 793.1422562450441,280.9903428702983 789.6629594690276,281.8871502954532 781.2924780278472,296.32356686624917 775.5944993770366,313.5492372441674 777.4602091575458,320.7485227719507 773.7287895964722,335.5621008163309 749.3232884856268,364.4451240204615 736.3393426789279,383.84756521031136 736.2633205096993,383.8852890599627 727.8424139259945,386.04816396089547 701.016532809863,402.9601732502772 684.8302401521996,417.42190609665636 677.0144284478877,421.47641848748145 665.4704874969171,420.09658947871975 665.4167735036257,420.0901691404169 656.4411966951725,426.54410697738723 649.0792068822267,436.30544126013643 644.7426919538539,440.1498519296767 641.2633956657703,441.6249556818136 640.2044793829484,443.5320978932727 639.9523561099563,448.2698453500756 641.9189151996954,452.4261873894509 646.0537315096392,454.8691836437781 646.0537315096392,458.45898494108167 642.6752840428504,458.45898494108167 642.6752840428504,462.763435475948 645.44863663033,467.9461685993965 646.9613738286724,482.80638114433793 649.6843017615645,489.93715597464455 647.6673180172135,493.06306949148046 646.9613738286724,493.3905352688236 646.7092510436195,492.0360045456893 646.0537315096392,489.93715597464455 644.893965917671,491.9913488803934 642.6752840428504,498.1683182491287 639.6498086702874,494.2240746530886 641.3138203203312,506.2791105832514 642.6752840428504,509.98434815892824 636.0192384183907,509.98434815892824 636.0192384183907,513.8827422214315 638.5908923874941,513.5851654986624 640.6078756439366,513.6744385817221 644.0871724199573,518.807389492533 645.0956640481631,521.2472203814702 649.6843017615645,526.0224079690124 649.6843017615645,529.62209929026 645.2973626665413,530.9310153810436 642.3727361152996,533.9800652615825 640.5574509893206,537.9063798839439 639.6498086702874,541.758041226277 641.4650937962664,543.0369067978783 642.5744347336757,544.1075609838999 643.8854742894611,544.8807970229086 646.0537315096392,545.3268892407935 646.0537315096392,549.6240487627206 642.9778314825479,551.7055881420699 639.6498086702874,553.1923506588539 642.6752840428504,557.1171963018179 636.0192384183907,561.4282338075268 637.0781547012411,562.439045685146 638.0866463294491,562.2458036992924 638.8934403150429,562.632286944236 639.6498086702874,565.3227227689354 636.0192384183907,565.3227227689354 636.0192384183907,568.8899344508328 639.0447137909231,571.9070071679331 639.4985351944114,574.2254266060258 637.4311267954688,575.830424262343 632.6912156061874,576.7517890506903 634.8594728264226,583.0968705775886 636.0192384183907,584.9690400543095 638.3891942569979,587.4800179724675 640.4061775134445,591.0456928535713 600.9741493369569,580.8680086104681 589.5277678685751,577.8811814658716 577.8796877818723,577.5096736923272 565.2231160669065,573.7498620153839 562.5506127886263,559.243029220148 562.7523109191204,541.4308842229882 558.4157964786825,527.8966588961559 543.8935149832074,518.8966534826615 529.3712334877304,517.1857299236091 498.6626593345899,518.6883702133853Z" name="HaZafon" name_en="Northern District" gn_name="Northern District" admin="Israel" adm0_a3="ISR" iso_3166_2="IL-Z" iso_a2="IL" postal="HZ" type="Mehoz" type_en="District" wikidataid="Q189942"/><path d="M469.3520863238417,500.6076152184242 468.5087554062019,500.1626504475686 459.7853013828302,500.6984280770202 452.97798228249025,505.89220265085174 440.72480731644765,520.161212765293 425.5974304536977,529.7113444600471 410.9742996490213,536.672002693001 398.1160293157039,545.9365427971973 388.5353576279415,562.632286944236 382.68906110643474,592.4926895320795 382.45958887952037,592.5169259996867 377.11458253324054,593.0814522118196 373.78655953999424,592.2792290083341 373.2571015359594,591.4769927797605 372.72764353195316,590.6301749906858 372.1225480433742,589.768485280595 371.13926908108067,588.9810675981371 369.5508941914686,588.0004917481177 361.8107201408761,580.9576293901946 359.7685242929809,579.7242862819398 358.1801494033668,579.0853138430858 333.8754978711258,577.064324642701 329.1860111255489,577.6884622752222 328.1270946787418,577.9559474388774 322.5299651390869,578.4314732404239 302.46097895539805,577.9410870735646 302.21977737819066,577.9410870735646 304.8660726597971,564.815471999409 319.9537447358748,489.8084548274794 322.7330529681415,484.2523524349531 325.6711783955163,458.5270058760204 328.1328512618316,450.83268411605275 327.259354737328,442.3394350919661 338.4559957760914,395.29598501988886 341.116190624189,343.5309105511072 345.046925960265,331.8453510790334 352.31283117507047,327.8006282895865 358.5067178836227,329.3056791983921 368.39311364773545,335.79570009922827 375.857540844264,337.25348908514655 380.2250249304891,336.3364975341519 397.3376216106456,317.9931908465865 399.4419548122499,313.076999965742 403.5504722033052,297.91225477007487 404.5959829671695,298.2515679643006 408.075280051917,299.32736857464755 409.36110675849596,300.313499405752 410.57129729686346,301.89724523882865 412.3109454004671,305.81157448114186 413.29422436276064,307.5594794061225 414.12623054982447,308.6948378237881 416.09278935197005,309.93474006787665 416.54661074899275,311.0999217360626 416.6978844017545,312.84764411155726 415.4876943021857,320.0470292671406 415.71460500069696,321.1522386590685 416.47097370324315,322.287293788159 420.5049408480844,325.06508417881685 421.86640460041906,326.2597862897298 422.54713669598164,326.97659397042287 424.0598745398441,328.21604955269186 424.81624324238817,328.70883776158723 426.6315283917741,329.48534149536204 433.81703194347426,331.5460053464807 435.5566804858766,332.51657898130395 436.3130491884227,333.14370937226715 436.7668705854454,334.36808376178993 436.842507631195,336.20459031631316 435.5566804858766,343.38573899519065 435.4810438788624,344.53522560777606 436.01050188289923,346.6549900340098 436.99378128395676,349.4762300786096 442.06145281957475,360.4313086477702 442.21272603356846,362.11764331165426 442.21272603356846,364.4008223810977 441.6832680295336,369.11608445950327 441.0781729797492,371.30942731527733 440.5487149757144,372.876043093732 435.70795457737376,380.4398811981628 435.6323170928581,380.4846341313781 435.17849657336745,381.1410089108651 434.49776403903684,382.7669899058989 434.34649038627714,383.8708376778793 435.17849657336745,391.95504869059346 434.9515854360616,393.7745649925478 434.2708533405255,394.90800104503165 431.85047358012525,396.4142393855255 431.32101469855434,397.502879319532 431.0184673930615,399.02395286949894 431.32101469855434,401.9466733008266 431.32101469855434,403.2439495961013 431.2453780915728,404.4069973235373 430.48900938902256,406.0620570406291 429.3544563352053,407.6276054703357 428.0686291898543,408.9396467694915 427.3122604873081,409.5061994367505 426.48025430024427,409.90874639735154 425.648248990686,409.9534734683601 424.81624324238817,409.59565424546395 424.2111481926038,408.9247372809136 423.6060531428173,408.1643538114683 422.16895234470854,405.70421103805825 421.48822024914597,405.0779742327473 420.7318515465978,404.6306569281052 419.79899669646085,404.6902993582741 419.0426279939127,405.1227050209013 418.5383816072034,405.8831343531717 417.83243745557576,407.8065215196784 417.3786160585245,411.2803637535376 417.3786160585245,412.35377740801107 419.74857214554027,422.5798949493674 419.79899669646085,424.94979548072257 419.4460244012773,426.38062573135767 412.4622190532309,430.18107410302343 411.7814869576663,430.79210035897387 411.1763919078798,431.4627299344805 410.11747589981223,433.0424008237782 406.48690560107104,441.29762416260337 404.9741677572086,443.6815561328949 404.21779905466445,444.3073195590769 403.3857933063667,444.81388438808665 402.40251390530716,444.9926712028416 401.41923406545504,444.8585814096944 395.06573626204863,442.04261498208484 392.9479033684038,441.55092264384933 391.7125007739774,441.4615227741897 390.6031597762191,441.5807220470707 389.54424332941,441.86381784424634 388.61138847924246,442.2214104569869 387.8550197766963,442.713097379776 386.49355602436367,444.0987329475912 385.9640980203574,444.8585814096944 384.98081818050326,446.51233024248756 384.6782708750104,447.4658192723958 384.2244494779592,449.58130853109714 384.1488128709715,450.7730952105281 384.98081818050326,452.60541285519446 386.41791941738006,454.9292331898289 390.30061247072217,459.1595070053595 391.05698117327034,460.7830050459337 390.90570752051065,461.58728741574924 388.6870255250206,461.25961871244795 385.9640980203574,460.1574432881526 384.6026338292302,459.7552921804076 383.54371738242105,459.6510299778087 381.27461083601247,459.7850809718233 380.29133187372304,460.06807647586186 379.383689079645,460.5149079387224 378.8542306368442,461.25961871244795 378.8542306368442,462.570283002122 379.5349627324088,464.4915371544758 381.6527956260536,467.8572801783347 382.40916432860183,469.88257731200684 382.8629857256245,471.56529889950247 382.8629857256245,472.7267920974693 383.0142593783862,473.8584778312085 383.31680668390766,474.85612686488105 383.69499147394885,475.67507854008556 385.7371873218175,477.4171677459689 392.26717127283916,481.79446396609967 393.0235404141534,482.7919583098591 393.3260877196789,484.04252132150356 393.0235404141534,486.36491406840867 391.86377486550515,490.4288484226389 391.7125007739774,491.5006017188332 391.8133498758165,492.60210227870505 392.11589762007947,493.55473267011087 392.9479033684038,494.4329220303507 396.12465227009375,496.4422834406719 397.03229506416767,497.52879457722275 397.6373901139521,498.6152821501313 398.5450329080301,499.8208103315719 399.9821332673708,500.9816621643401 403.0832455620772,502.73777275519575 404.67162045168715,503.8539135386398 406.86508951357604,504.86586038166774 421.03439885212333,507.6337295225568 422.0176786919468,507.9908628047405 423.0765947000144,508.243831354568 424.5893325438769,508.02062405819436 426.55589178476197,507.2170703632359 429.808277732228,504.8212157466408 431.2453780915728,503.3479328814713 432.2286579313963,502.1424876942518 432.6824793284476,501.249547393128 433.13630072547227,500.4905354342071 433.96830603500405,499.74639577572947 436.6155969326837,498.064599746718 437.447602681008,497.1120532332839 437.97706112378233,496.0106496659036 438.128334337778,494.8943384988446 438.3552450362894,493.91196410992393 438.7334298263305,492.974225359143 439.41416148312504,492.3044014529788 440.17053018567526,491.7089956458803 444.55746962572664,489.4910464051093 445.3138383282748,488.9253791980962 445.9189338168273,488.19595786851414 446.4736038769496,487.39209312024576 447.83506806805235,484.77200234661836 449.0452577288551,483.38746834081684 449.80162687016934,482.8961733633644 450.6336326184937,482.5388650576928 452.82710211912206,483.81920853508876 454.41547656996806,484.8911001966584 468.18138950117316,498.00506617331774 469.3520863238417,500.6076152184242Z" name="Haifa" name_en="Haifa District" gn_name="Haifa District" admin="Israel" adm0_a3="ISR" iso_3166_2="IL-HA" iso_a2="IL" postal="HA" type="Mehoz" type_en="District" wikidataid="Q185845"/><path d="M382.68906110643474,592.4926895320795 380.7699715539238,602.2908071984434 377.24025012334846,614.1126111192591 375.4249649974266,615.4787753968134 368.9201928488735,617.8694751240427 367.05448306830715,619.2058433477595 365.0374998118647,626.4958623429347 363.32306350723564,644.575410772276 361.8103263088381,652.099266587737 367.9117012206084,654.0134453567501 371.29014868742775,658.3163781917798 372.1473663519021,664.3695532947264 370.43293053515504,671.6680258092484 366.8527849378151,678.7726622389893 347.89313969272735,696.2408698699998 341.3883675441457,704.6762864284381 340.4303000826717,710.1904376667721 348.34696109615635,727.9147490432015 350.7673411014446,737.6042408443902 356.9191406678879,791.6188496026513 357.17126394082084,802.3025812889022 356.3140457885216,814.9959063977186 356.3140457885216,815.3805038773094 356.46531926439974,815.7355146310457 356.7678671919506,816.0313555517031 357.120839286264,816.2680265040342 357.5242355471951,818.1613576410132 357.6755099988678,820.2321093008379 357.5242355471951,822.3027785281853 357.120839286264,824.2550487204348 355.05343088732155,841.4082111992695 364.6845272296999,863.7579917309232 370.4833551897118,882.9073228193635 357.120839286264,890.3819282758312 343.9095968586638,895.0493207060988 341.0214499852087,902.7736087605425 340.5063309239886,903.4234565395373 340.17857156240416,903.8369362217978 332.96785507705187,906.9526986551889 325.47980378105603,906.9083996744099 323.43760793316494,907.6614710713266 322.15178122658193,909.4038308482154 318.5212104890747,917.8490195726604 315.42009819436834,920.8163237679624 312.3946229454156,922.5434825625566 282.6945405159966,930.7356386568181 266.58388443139734,943.57481511878 262.57512978135856,945.6701060237164 261.9700347315721,945.1241583645476 260.75984463200325,943.7518855628019 259.92783888370343,942.4681140930535 258.86892243686776,940.4022087271197 255.61653648940168,930.5585241490038 254.40634638980225,927.7246171159711 252.79275944412723,925.3776709372305 251.2043849932588,924.0934483994057 242.9599649947189,919.2662607552523 240.46394774979896,918.3804894555147 239.02684651292216,918.0704666990913 237.5141091078278,919.9453413882256 236.3795560540065,920.5948887888366 228.33683382035844,921.790625607302 226.92494551710524,922.2334834693443 226.67282276250234,922.9125260690131 227.12664372078552,923.4882294357277 227.88301242333372,924.0048799701308 228.89150475801685,924.3148685592984 229.79914711329823,924.787227610691 230.5555158158444,925.3776709372305 231.08497381987718,926.1747589280698 231.3875215641687,927.1932422236908 231.84134296119345,928.0788637016308 232.29516435821816,928.905430249063 233.0515330607643,929.5253469707802 233.65662811057527,930.204294361196 233.65662811057527,930.9570301775213 232.9002589692631,931.8721070020649 230.17733190333936,932.6838540321033 228.18556060636476,933.7317286018965 223.1935261165249,937.5393191268224 221.45387757415114,938.2034050044067 219.2604080734942,937.9672865927538 207.53669099020883,933.9531074402439 207.1585070777038,933.4660723480871 206.8559593334143,932.8019258102004 206.70468568065255,932.1968071204935 206.55341202789285,931.4440891487293 206.70468568065255,930.4256881313212 207.08287003192564,929.5401063995197 207.6123284747285,928.7725900321266 208.29305969273048,928.123144741423 209.881434582367,927.1784816187866 212.67999957157846,925.90906428136 213.43636827412666,925.4514759484294 214.19273697667282,924.8462727058155 214.79783202645726,924.182016678655 215.32729003049002,923.34061376591 215.62983777475503,922.4106261802227 215.70547482053118,921.4363358969924 215.47856412199127,920.6391756541809 213.43636827412666,918.557645224709 210.18398232665854,916.239814829022 208.74688108978174,914.9110755608839 207.83923917323986,913.8037671989548 207.68796508171005,913.2279581733177 207.46105438319873,912.3716135903578 207.38541777621515,911.4561963560274 207.46105438319873,910.5259972599047 207.68796508171005,909.8910901825898 207.91487578024996,909.2709410566392 208.67124448279816,908.1044497188249 209.04942883407125,907.6910033036158 209.7301609296073,907.2627873851598 210.63780372368123,906.9526986551889 211.69671973172433,906.8198026280444 213.7389155796216,907.2037229336653 216.68875378282468,908.2816398176152 218.6553130237098,908.62125236531 219.48731877203411,908.665549893574 220.31932452032987,908.62125236531 221.22696687563982,908.3997662162735 221.90769897117383,907.9124929716951 222.5127940209868,907.1741909398331 222.73970471949815,906.0962512026571 222.73970471949815,901.2230972115713 223.34480020805472,899.3032450531738 223.57171002902993,898.3285237459382 223.64734751357616,897.2651704708841 223.11788950953928,893.7500441037186 223.04225202499714,892.9081508875987 223.2691627235085,892.0367030225926 223.79862072754128,891.3720301741918 225.1600853574345,889.909718982032 225.61390587692716,888.9052799348179 225.86602950906212,887.5610736935057 225.41220811201086,884.9464190875034 224.55498986885547,883.9418839881096 223.57171002902993,883.5577920634744 222.5884310667364,883.8532479575031 221.07569366164614,883.8680208111036 219.10913442076102,883.5873379338177 215.1003793319501,882.0066232267437 212.83127278554562,881.5634230720766 210.86471442219255,881.5929700718768 209.881434582367,882.0361694613443 205.64576923384138,883.2918805340558 203.73727876238547,883.9245778026374 217.03993886236137,853.8652749988865 226.17195099825565,839.4777693277109 236.88694770628604,804.1570076418985 236.90901405804337,804.182087979444 241.29595305933074,809.1678839154448 243.71633369726504,810.6324628779585 259.3983808796686,812.6739283880539 269.3824489818142,812.8958222298023 271.0464604784343,812.6295497119993 272.71047197505845,812.0082416961344 273.08865632633155,811.8307244920976 273.2399299790933,811.7863445815047 273.2399299790933,811.7419646330087 273.3155670248429,811.7123784945519 280.67755716293044,803.826997967498 281.1313781212157,803.190788983873 281.9381713746824,802.451002608484 283.2492110148625,801.5040593221356 286.27468670258327,799.7876814722753 288.0899714131725,799.2993913732098 289.5270722112813,799.2402038833252 290.4347150053552,799.6101214989272 291.1910837079054,800.1427985688656 293.08200546427287,802.2290636639611 295.0485647051539,803.8713841585421 296.33439185050497,804.2708597171512 298.5278613511354,803.8713841585421 307.0748290939607,800.3647453931579 309.2178740436991,798.7075175609071 310.2767904905368,797.2426025312121 310.12551639900704,796.2363744449257 309.8229690934856,795.4816900763825 309.5204213492226,795.0377532466297 308.3606558005437,793.8834991175445 307.6042870979976,793.2767665732565 303.21734809671227,791.1901409451125 302.46097895539805,790.6425732641599 302.08279504288896,789.8434094876427 301.78024685986,788.8370380688069 299.6624144049526,775.2639152502046 299.2842304924476,774.2572606818823 298.90604570240646,773.3690202423451 298.3765876984022,772.5991994958038 297.015123946039,771.2963997512792 294.7460173996325,769.6974641715124 293.98964825831825,769.0756429281705 292.55254746023604,768.054062543163 292.09872606318476,767.565473935386 291.72054171191166,767.1657159166159 291.266720314887,766.5290581272776 290.88853640238193,765.6999106768963 290.5859882193244,764.7226840035369 290.4347150053552,763.6269838150764 290.4347150053552,762.5904893209289 290.88853640238193,760.4285911056282 291.41799440641677,758.4294956967542 291.72054171191166,752.7131380943769 292.09872606318476,750.1361284920997 292.55254746023604,748.980875742557 295.7292968007206,744.9817249331518 296.78821324752766,743.2190381007733 300.1162358020079,736.3750979809186 301.4020629473549,731.9897602190689 301.4020629473549,730.7896535921049 301.25078885582514,729.6339699356078 300.34314650051925,727.144716034189 300.19187240898947,726.3445737019327 300.2675094547676,725.0702465462496 300.72133085179235,723.1290605690327 301.09951564183143,720.7284092609466 301.09951564183143,716.4158488633786 301.0238781573138,715.2598432789019 300.72133085179235,714.2520225632967 300.2675094547676,713.39239588915 299.6624144049526,712.7402554632204 297.015123946039,711.391484579679 296.25875480472683,710.9023608599889 295.6536597549424,710.2501895678755 294.51910670112113,708.679014590733 292.17436310896295,707.1374377697254 289.30016151276993,704.6619255856542 288.4681557644456,704.0837954792203 286.72850722207187,703.2388236361799 284.6106747671931,702.6903255270746 274.2988464259024,701.3561169340187 271.3066103977463,701.4448273408598 287.51524969915374,650.8145751891927 302.21977737819066,577.9410870735646 302.46097895539805,577.9410870735646 322.5299651390869,578.4314732404239 328.1270946787418,577.9559474388774 329.1860111255489,577.6884622752222 333.8754978711258,577.064324642701 358.1801494033668,579.0853138430858 359.7685242929809,579.7242862819398 361.8107201408761,580.9576293901946 369.5508941914686,588.0004917481177 371.13926908108067,588.9810675981371 372.1225480433742,589.768485280595 372.72764353195316,590.6301749906858 373.2571015359594,591.4769927797605 373.78655953999424,592.2792290083341 377.11458253324054,593.0814522118196 382.45958887952037,592.5169259996867 382.68906110643474,592.4926895320795Z" name="HaMerkaz" name_en="Central District" gn_name="Central District" admin="Israel" adm0_a3="ISR" iso_3166_2="IL-M" iso_a2="IL" postal="HM" type="Mehoz" type_en="District" wikidataid="Q188785"/><path d="M341.0214499852087,902.7736087605425 340.0773284762423,905.2983959481659 344.6659657017617,914.8663223721089 360.7514095381322,917.700926818881 368.36552262406803,917.7895061411834 371.84481940008664,917.080870787397 376.6855794106875,914.0690618993686 385.30818412485786,904.7963269250705 388.93875486466516,902.4926531609551 395.8469227863265,903.6445027445654 421.3113406678758,915.8407349395443 455.2470883240428,923.8125204880547 463.51672094393234,928.9197293573343 467.34898981423174,936.0040487183392 468.2062074786224,945.5073367184432 467.50026329008534,957.7823219323772 465.68497816416146,961.0276306414861 463.4662962893429,961.7356710020102 460.94506697485343,960.4965938039368 458.17171438740246,957.8708334139561 428.0682351135998,964.3612387814181 418.7901108654778,969.0220326577022 410.0666573299881,976.071434578637 393.07357117461095,993.4106978965098 353.84324112861947,1022.9744894553936 344.9180889747803,1033.5226407876007 343.8752754245436,1035.546518752817 343.6830802644732,1035.4085809766586 308.91532673820217,1010.4499517027058 304.7300855018066,1006.5887035412295 305.25954394460746,1003.2872579042644 305.33518055159107,998.2609973662798 305.1839068988293,997.1112285911946 304.35190115052944,994.0745369881548 304.27626410477984,992.924675430918 304.5788118490408,989.5633988093846 303.9737167992564,982.26514762136 303.9737167992564,981.0413010247796 304.1249908907862,979.8616626458384 304.35190115052944,978.8294574167379 305.56209125010236,976.012907982582 305.7890019486423,974.9363865621713 305.8646385556238,973.7566102656496 305.8646385556238,972.5178176727125 305.56209125010236,970.18762761373 303.5955324479833,964.2289492883979 303.36862174947197,963.2111860060235 303.36862174947197,962.178653238072 303.5955324479833,961.1756011374999 304.42753819630764,959.0514280240444 304.80572254755623,957.5467530778863 304.956996200318,954.9798547259246 304.5788118490408,953.5340754981187 303.9737167992564,952.501351384956 303.2929847036938,951.8522000571412 301.4776995543385,951.1292725026095 300.34314650051925,950.9669804014164 295.88057045345374,947.5292372610547 282.6945405159966,930.7356386568181 312.3946229454156,922.5434825625566 315.42009819436834,920.8163237679624 318.5212104890747,917.8490195726604 322.15178122658193,909.4038308482154 323.43760793316494,907.6614710713266 325.47980378105603,906.9083996744099 332.96785507705187,906.9526986551889 340.17857156240416,903.8369362217978 340.5063309239886,903.4234565395373 341.0214499852087,902.7736087605425Z" name="Jerusalem" name_en="Jerusalem District" gn_name="Jerusalem District" admin="Israel" adm0_a3="ISR" iso_3166_2="IL-JM" iso_a2="IL" postal="JM" type="Mehoz" type_en="District" wikidataid="Q192232"/><path d="M236.88694770628604,804.1570076418985 241.4978498427328,788.9503083892275 241.81548472080016,786.2233641073557 241.18021447680997,779.929868994543 241.4978498427328,777.202450917726 248.16818911231175,773.6356108554661 271.3066103977463,701.4448273408598 274.2988464259024,701.3561169340187 284.6106747671931,702.6903255270746 286.72850722207187,703.2388236361799 288.4681557644456,704.0837954792203 289.30016151276993,704.6619255856542 292.17436310896295,707.1374377697254 294.51910670112113,708.679014590733 295.6536597549424,710.2501895678755 296.25875480472683,710.9023608599889 297.015123946039,711.391484579679 299.6624144049526,712.7402554632204 300.2675094547676,713.39239588915 300.72133085179235,714.2520225632967 301.0238781573138,715.2598432789019 301.09951564183143,716.4158488633786 301.09951564183143,720.7284092609466 300.72133085179235,723.1290605690327 300.2675094547676,725.0702465462496 300.19187240898947,726.3445737019327 300.34314650051925,727.144716034189 301.25078885582514,729.6339699356078 301.4020629473549,730.7896535921049 301.4020629473549,731.9897602190689 300.1162358020079,736.3750979809186 296.78821324752766,743.2190381007733 295.7292968007206,744.9817249331518 292.55254746023604,748.980875742557 292.09872606318476,750.1361284920997 291.72054171191166,752.7131380943769 291.41799440641677,758.4294956967542 290.88853640238193,760.4285911056282 290.4347150053552,762.5904893209289 290.4347150053552,763.6269838150764 290.5859882193244,764.7226840035369 290.88853640238193,765.6999106768963 291.266720314887,766.5290581272776 291.72054171191166,767.1657159166159 292.09872606318476,767.565473935386 292.55254746023604,768.054062543163 293.98964825831825,769.0756429281705 294.7460173996325,769.6974641715124 297.015123946039,771.2963997512792 298.3765876984022,772.5991994958038 298.90604570240646,773.3690202423451 299.2842304924476,774.2572606818823 299.6624144049526,775.2639152502046 301.78024685986,788.8370380688069 302.08279504288896,789.8434094876427 302.46097895539805,790.6425732641599 303.21734809671227,791.1901409451125 307.6042870979976,793.2767665732565 308.3606558005437,793.8834991175445 309.5204213492226,795.0377532466297 309.8229690934856,795.4816900763825 310.12551639900704,796.2363744449257 310.2767904905368,797.2426025312121 309.2178740436991,798.7075175609071 307.0748290939607,800.3647453931579 298.5278613511354,803.8713841585421 296.33439185050497,804.2708597171512 295.0485647051539,803.8713841585421 293.08200546427287,802.2290636639611 291.1910837079054,800.1427985688656 290.4347150053552,799.6101214989272 289.5270722112813,799.2402038833252 288.0899714131725,799.2993913732098 286.27468670258327,799.7876814722753 283.2492110148625,801.5040593221356 281.9381713746824,802.451002608484 281.1313781212157,803.190788983873 280.67755716293044,803.826997967498 273.3155670248429,811.7123784945519 273.2399299790933,811.7419646330087 273.2399299790933,811.7863445815047 273.08865632633155,811.8307244920976 272.71047197505845,812.0082416961344 271.0464604784343,812.6295497119993 269.3824489818142,812.8958222298023 259.3983808796686,812.6739283880539 243.71633369726504,810.6324628779585 241.29595305933074,809.1678839154448 236.90901405804337,804.182087979444 236.88694770628604,804.1570076418985Z" name="Tel Aviv" name_en="Tel Aviv District" gn_name="Tel Aviv District" admin="Israel" adm0_a3="ISR" iso_3166_2="IL-TA" iso_a2="IL" postal="TA" type="Mehoz" type_en="District" wikidataid="Q192811"/></svg>