<?xml version="1.0"?><svg fill="#3498db" stroke="#ecf0f1" stroke-width="1" width="800" height="897" viewBox="0 0 800 897" xmlns="http://www.w3.org/2000/svg"><path d="M115.09783219687912,178.53881948726405 115.36429075035412,178.41521756694263 116.12560103468833,177.23534186642118 115.09783219687912,174.5438317197537 114.52684971384302,168.93484618898702 113.48004809590907,166.97862416246267 113.48004809590907,165.35390979885926 114.75524270704699,165.35390979885926 114.75524270704699,163.99893970849155 113.19455676229934,163.0768310508396 112.4522792580991,161.50802022197234 112.54744315874353,159.71975798458726 112.94713098895987,158.99990737431926 114.260390976197,158.44312963126256 115.89720804147359,156.99205726237395 118.67599025697571,153.30764275031135 122.06382069995522,150.87160464960752 122.08409504059874,150.8740280055679 126.44135423633347,151.3948443076006 129.3914314729882,149.8644690679683 135.50094579110564,144.40588965399036 145.6263715597747,138.02245367597504 148.80484178966495,137.20607679122315 148.83353634877244,137.1918379284734 149.98487250019002,136.62051578169255 151.06973949420083,136.38403453466006 152.02137739566368,136.55295007012077 152.80172027595083,137.16666428888848 152.7826874958261,137.18918557305045 152.7826874958261,137.20607679122315 154.47660290146686,139.35673287552564 174.27066826822679,143.96125681788095 176.02168164593894,144.98558557777486 179.2001516916674,148.21017644276532 180.11372403286924,148.5140365969818 182.4928184181743,148.4859018207472 183.19703036210507,148.86290745668634 183.482521695714,150.31459182277246 183.23509592236377,151.72678474814182 182.64508029089092,152.61568165584856 181.95990112707486,152.51441696175218 183.63478375258163,154.59586157587665 185.2525678535617,156.1202363817614 187.174876252428,156.7895733246892 189.83946197132275,156.30022843420784 194.1408645713423,156.63208461334506 194.99733857214915,159.1067618635453 194.4453886850652,162.81256008562718 194.57861796181888,166.8999214396415 196.31059874355807,170.54239721375924 204.6088798298643,183.13400087231696 205.6366486676627,185.6670629940929 205.67471422791294,186.59932615252805 206.34086061159348,186.7565709172082 208.557200741246,186.82837807971808 210.82322308793997,204.64623251966373 209.53851215990932,210.28975403466754 208.22525203758596,210.74408137941117 206.61698418141478,210.40754361232663 203.24818654111763,207.76551882348602 201.16409999446256,207.0418445054162 198.88016941894048,207.42892939357694 196.2441327209829,209.59982904307648 195.61605193692117,211.36666104097228 195.84444482885803,213.13894029685068 196.81511544766892,214.88301956593955 197.7572368721748,217.04187153301115 198.3282194332494,220.26007794005216 198.0807934690909,221.92503828743236 196.64382061309544,223.80845803753888 190.5343062821758,223.55061960736418 184.81496322445798,221.90261554305718 182.35973781436167,222.6425530350073 176.04086300127497,225.34420673829797 172.07253360559895,219.75551660846395 168.44679371345774,216.81758617217912 167.5332214832469,215.0400349570114 166.73384586462168,212.202344408048 165.49671670626958,211.6470958574211 164.18345674955685,212.49959251635224 162.87019646160977,214.3390631325491 160.67191330337985,215.62883180595216 157.674254360901,216.077427002973 152.32605016661438,215.77462635228787 149.2998421954442,216.3690082661009 143.69469558369983,219.4527730910291 139.2695800729234,220.71417209306122 134.6351040799799,220.40023156205592 131.437601274247,220.64689978603138 128.81108119520013,221.76807853348387 127.01248576347055,224.04947769822908 125.71825838214136,227.41223156830029 122.89189427422674,240.98064288945557 123.20593458345574,244.28448088309327 124.31935084252432,247.79489510158407 126.86974012320056,253.64418143805088 127.32652607269956,255.5189404906268 127.18378059804405,256.78919716524825 126.35585561950163,258.9490032330183 113.54681132435616,257.4103058844805 112.3660695780721,257.53127456946623 114.75524270704699,247.30206862772323 112.33808276149172,247.30206862772323 112.64260687521539,246.0983789829873 113.13745842191514,245.30334307360837 113.84167055001694,244.7210426168797 114.75524270704699,244.20031702074715 113.28972047879277,241.66928030561743 112.60454131496671,237.54164142240813 112.6616396553509,233.40752491876978 113.48004809590907,230.88068846465137 111.8051654703815,227.65863552011248 111.95742771140088,221.15126304648902 110.96772443386115,219.03772005733776 110.96772443386115,217.54632837685867 112.33808276149172,217.54632837685867 112.33808276149172,219.03772005733776 113.48004809590907,219.03772005733776 113.17552398218463,217.0641245632365 112.62357409510221,215.39874758324865 111.86226399492747,214.05288400592468 110.96772443386115,213.1051156770109 110.52997104340614,212.3984655214823 109.7115626028472,210.00351522260365 111.50064154080958,209.65574618829353 112.28098460527008,209.04994000591412 112.10968976826695,208.17485285334595 110.96772443386115,207.036059100275 110.96772443386115,205.68961545766666 112.33808276149172,205.68961545766666 112.05259161204377,204.67411076239014 111.74806731416986,204.528232705652 111.36741226408827,204.6011718711795 110.96772443386115,204.21964104322217 113.48004809590907,202.59244042822525 112.33808276149172,201.11100788778884 113.59424459252723,200.54982954534537 114.75524270704699,199.76415274394148 114.75524270704699,198.14219037234068 113.9368342665096,197.97381291556226 113.44198253565962,197.68195506080073 113.02326192531855,197.27783676036 112.33808276149172,196.79512909617185 112.68067225132386,195.34131996166434 113.3658514151507,193.85933295512186 114.46975137345882,192.7084694253569 116.12560103468833,192.21441919612977 116.12560103468833,190.85571611735193 114.39362025294913,189.05332210688817 114.0129652028683,188.13240821604182 112.69970503145937,186.1949764800015 111.93839493128617,186.1612803649793 110.96772443386115,186.27360066505955 110.96772443386115,184.8021522706521 113.48004809590907,184.8021522706521 112.96616376907458,183.40361077017414 112.33808276149172,178.85343883281695 113.48004809590907,180.3421931284302 114.31748931659197,178.01069674448254 114.75524270704699,177.23534186642118 115.00266848040727,178.02755202025696 115.09783219687912,178.53881948726405Z" name="Irbid" name_en="Irbid Governorate" gn_name="Irbid" admin="Jordan" adm0_a3="JOR" iso_3166_2="JO-IR" iso_a2="JO" postal="IR" type="Muhafazah" type_en="Province" wikidataid="Q721441"/><path d="M93.50236760324648,420.75231386299293 93.76211366549784,408.2712731830569 93.68598272914069,408.204639310106 93.80017922574807,408.2823789501396 93.87631034625699,408.21574489943305 93.85727756614227,408.015841623924 93.80017922574807,407.6715592215712 94.808915283421,391.7280858743461 97.73995955582077,376.11664052313387 101.85389901001554,366.59111913599037 104.11608128842934,366.8653484405375 116.78237977769341,367.5720168968981 119.35180179936611,366.35341537773746 121.66428140357101,364.1163351961303 124.69048970596711,358.63386295279037 126.8411909289063,352.832476145095 127.95460718797564,351.3790788511078 130.18143937490842,349.89772905283695 132.4653701160342,349.2015674423151 137.3853372239117,348.76158071040976 139.75491538232885,347.3524433868338 146.673321785183,345.5588502916081 155.98033908744847,345.52542788006144 158.81621964866315,344.817970976889 161.12869941847947,343.86537083541975 162.35631212352303,344.0603512106704 163.6695720802342,345.2970389821046 164.09780933226472,360.90495947960744 163.6981214401522,362.91978282115537 162.6132542097657,364.9065763821117 159.4443004327141,368.701521066364 158.53072836812547,370.34836766542634 158.27378611626983,372.21759500863476 158.55927739680678,374.30357800379954 159.98673413071884,379.84844410092944 161.3570924760293,383.2291060733818 169.36036610927073,391.85052291493434 170.4737822027371,394.5734679430191 170.33103656246865,396.61820972817395 169.70295561279474,398.17385093657623 169.87425044735747,399.87936013704683 170.9591173465296,401.21255564715466 172.41512327473592,402.62342339274556 172.7577127782592,403.94532664424025 172.18673005157314,405.30601778171706 169.64585738980765,408.9933009048266 168.41824468476565,411.33081768349376 165.26832364871976,421.0499475663328 164.46894803009457,422.44831306693794 163.0700404904775,423.9076136763577 161.95662423140894,424.77315571789035 159.9581849364238,426.6761071446317 151.72651841123474,424.78425225850754 147.84383626723866,424.7065771169731 141.5535108140592,425.3168747017267 135.86271678502342,427.13101319156914 133.32184412325793,427.1088229074303 129.8388500369981,426.41536365837163 111.37707736042049,420.250837616866 97.43558423082293,419.6903316378661 93.50236760324648,420.75231386299293Z" name="Madaba" name_en="Madaba Governorate" gn_name="Muhafazat Madaba" admin="Jordan" adm0_a3="JOR" iso_3166_2="JO-MD" iso_a2="JO" postal="MD" type="Muhafazah" type_en="Province" wikidataid="Q750447"/><path d="M73.24234082329954,530.1621524067529 78.21235274251659,525.3701782959761 80.26789023397323,521.4944120868383 80.24885745383772,514.7901213646411 81.42888834851455,508.525617116586 90.06975929295643,491.4568477135066 90.94526588973702,485.3620917942751 89.65103868261538,479.50894507321425 86.91032184319091,474.16327828568785 84.94994806822693,469.85693426529275 83.198934690514,464.35365380515134 82.19019863283953,458.48329950691993 84.49316189763564,453.26499395916204 87.0816166801925,448.76574536689753 87.38614060975516,444.1324570233081 86.01578228212381,442.58039785705824 89.44167828536357,436.4042263525992 92.71531204758547,427.7743479610688 93.45758973591592,422.9031420627387 93.50236760324648,420.75231386299293 97.43558423082293,419.6903316378661 111.37707736042049,420.250837616866 129.8388500369981,426.41536365837163 133.32184412325793,427.1088229074303 135.86271678502342,427.13101319156914 141.5535108140592,425.3168747017267 147.84383626723866,424.7065771169731 151.72651841123474,424.78425225850754 159.9581849364238,426.6761071446317 164.44039867017733,434.5522849296307 165.69656056952437,438.6389081698809 166.1818958789306,441.4607965407296 165.83930637540578,443.389873965641 164.3547512528952,447.6575739302313 163.6695720802342,450.6942918105827 163.21278613074597,454.8662566941837 163.86941610910273,457.442135845828 165.69656056952437,459.07058553298265 221.4244679371468,460.42198708606327 224.50777413129407,481.4456026983139 228.81869319610786,493.37023815644454 219.4260284765487,523.2503655143764 197.85240057714327,563.3819787517016 189.963323555489,555.4678437683764 182.15989378549313,549.6846070099114 180.7038880229013,548.0579467818449 178.79109614519598,544.8428413644303 177.35412328921205,543.2819803590467 175.44133124589533,542.1346984935846 168.76083435390186,539.0510561718942 166.448354584084,537.3959561278846 164.72589011632644,535.7407209954608 163.95506352638407,534.2233031912036 163.44117918829733,532.9209921077866 162.2135664832538,531.839347852212 132.69376317359482,520.0754929069398 116.98222364094897,519.3024048971816 114.34618710860356,518.2697339028598 111.7767652525438,516.5908408910457 109.72122773457156,514.7626768910142 107.63714102230506,514.1385223947002 105.29611205818216,513.9838616227471 102.03199441054988,514.4533639176803 99.6909656120515,514.3539408497746 97.9494685689112,514.9118082900297 96.80750328114902,516.5853179420843 96.0081274969124,520.9313771608698 94.14291755450859,526.4689013565745 92.9724030724429,535.1503209415159 91.77333939609298,537.2690596929141 89.71780187811919,538.5159219559554 86.43465165510494,538.2842100620178 83.86522963343224,537.5835408726596 74.66289248944382,531.1329369650242 73.24234082329954,530.1621524067529Z" name="Karak" name_en="Karak Governorate" gn_name="Al Karak" admin="Jordan" adm0_a3="JOR" iso_3166_2="JO-KA" iso_a2="JO" postal="KA" type="Muhafazah" type_en="Province" wikidataid="Q735245"/><path d="M57.915572858037486,573.4229980598556 59.33185953279904,568.3623832745046 60.16930075349195,562.9740504745378 60.79738176106326,560.5714291766733 62.015478031827755,557.9921526618547 63.44293469984406,556.3165497909174 66.56430658934936,553.5162202378044 67.63014080324547,551.4873936314102 68.2582216266989,546.7673817450666 68.16305791019545,541.9911112556135 68.65790964104544,537.1585419172866 70.9989386502628,532.3248188461055 73.24234082329954,530.1621524067529 74.66289248944382,531.1329369650242 83.86522963343224,537.5835408726596 86.43465165510494,538.2842100620178 89.71780187811919,538.5159219559554 91.77333939609298,537.2690596929141 92.9724030724429,535.1503209415159 94.14291755450859,526.4689013565745 96.0081274969124,520.9313771608698 96.80750328114902,516.5853179420843 97.9494685689112,514.9118082900297 99.6909656120515,514.3539408497746 102.03199441054988,514.4533639176803 105.29611205818216,513.9838616227471 107.63714102230506,514.1385223947002 109.72122773457156,514.7626768910142 111.7767652525438,516.5908408910457 114.34618710860356,518.2697339028598 116.98222364094897,519.3024048971816 132.69376317359482,520.0754929069398 162.2135664832538,531.839347852212 163.44117918829733,532.9209921077866 163.95506352638407,534.2233031912036 164.72589011632644,535.7407209954608 166.448354584084,537.3959561278846 168.76083435390186,539.0510561718942 175.44133124589533,542.1346984935846 177.35412328921205,543.2819803590467 178.79109614519598,544.8428413644303 180.7038880229013,548.0579467818449 182.15989378549313,549.6846070099114 189.963323555489,555.4678437683764 197.85240057714327,563.3819787517016 183.84429277126006,586.9628231520227 177.12573023166146,589.4503813492314 172.18673005157314,587.5242013415453 170.2453891451873,587.3645954778934 168.27549904449563,587.7883741227057 165.98205185006285,589.384343952886 164.1549073896404,591.1727826440183 161.55693633928564,592.8180075963884 148.50046624559462,595.9485210852293 131.29485563397776,598.2644620060161 125.03307920948035,597.7033792430319 106.72356862648127,598.2809641448835 99.20563046825825,597.1532834124274 91.83043778468148,597.1697862579175 87.63371516585269,596.9882515432862 85.54962861919915,596.22908841313 82.94214111553427,594.9362460643803 80.68675956869427,592.0036653097806 78.48847641046434,588.1846263026599 76.09034922335435,586.0216545322484 73.25446866214119,584.5300061286692 60.683333877854864,575.5282584937687 57.915572858037486,573.4229980598556Z" name="Tafilah" name_en="Tafilah Governorate" gn_name="Muhafazat at Tafilah" admin="Jordan" adm0_a3="JOR" iso_3166_2="JO-AT" iso_a2="JO" postal="AT" type="Muhafazah" type_en="Province" wikidataid="Q750259"/><path d="M1.140258272422079,819.4113102733018 1.929069987612623,813.6773437312413 3.2423301590207827,809.0604389419015 5.697555480685287,805.0797228597684 7.448568858386668,799.8181398217105 8.419239539963456,787.9665800177705 9.789597867594026,782.7061566850188 18.335304727240484,759.6482794568986 19.11564779169019,755.3579197666894 19.286942628691776,742.5143185325848 20.63826836034939,735.3354915946119 21.361512900252343,733.5103418943366 22.27508524145418,731.8708493236007 22.960264405270234,730.0016701937407 23.07446090187761,727.4545065262342 25.206129513822372,719.1111801159886 33.085690173939284,707.3176438438625 36.07383260255146,700.192323222275 36.07383260255146,693.5135302051666 32.30534710948958,680.5439446322653 32.38147823000929,674.483568707642 33.69473840139665,670.8333339305524 35.42671899898563,659.7800333952692 36.53061877314198,657.1254812099277 37.76774800819299,654.9423490593063 38.77648406586669,652.6602347040514 39.17617171192201,649.7084710635802 38.66228738510908,646.6904307230059 36.01673444632905,642.3875853674688 35.10316228929825,640.2028878196695 35.10316228929825,635.0970350172082 38.30066493098966,626.4526205161485 39.17617171192201,621.3872995653128 47.13186349254785,595.3376892728282 57.904403048944516,573.4629043713416 57.915572858037486,573.4229980598556 60.683333877854864,575.5282584937687 73.25446866214119,584.5300061286692 76.09034922335435,586.0216545322484 78.48847641046434,588.1846263026599 80.68675956869427,592.0036653097806 82.94214111553427,594.9362460643803 85.54962861919915,596.22908841313 87.63371516585269,596.9882515432862 91.83043778468148,597.1697862579175 90.77411991421144,610.4669488334355 87.00563438179097,627.3097074488262 78.8310659139776,653.1980425234569 79.20220461180588,677.0867414864683 77.71764982052122,683.2668698665595 66.94511030235304,704.4887756988472 64.83247456140371,715.0150056737299 64.40423747498538,720.587806130011 65.26071148220987,724.5518422145252 66.23138193539701,726.6237754637468 67.65883866930754,729.0671883189068 69.3432374894615,731.2643749598528 71.59861903629226,733.3520338879439 74.12045895706129,734.8274779031655 77.14666709383364,735.8274417926797 80.08722764771322,735.9531169451258 82.82794450394788,735.6088745607149 85.2070389500614,734.7455116411207 87.57661694286558,734.2591713262101 92.31577309408692,734.1225566625385 97.80672276302978,735.1990548383668 101.23261879192546,736.4776656954932 104.83932594308253,738.4773865442075 108.40796744663524,741.5967861858023 111.71966686394451,745.1362748250275 114.46038372017993,749.3850521368083 124.14805600796083,771.2542061969933 136.0911100081862,819.7900882232566 145.20779973489326,886.3694397795703 145.62652036800148,888.1705289091623 145.6403710661153,888.2301038560562 123.87193241806314,884.4595155912124 96.54089606517098,879.7603541885385 70.94184012572761,875.3315562022076 42.29754360142731,870.3914885965598 20.42890796309758,866.6015143598682 0,863.0306474979599 2.3991177628814135,861.3317223556749 3.613017920057092,842.1798910924449 4.916836559649853,836.6656042096851 8.9182109608483,828.048788730253 8.738373996012594,824.6987583457061 4.916836559649853,820.8511359655085 2.3991177628814135,820.8511359655085 2.249253564126955,820.1655168652894 2.249253564126955,819.5998644000011 1.9944843157730343,819.2998911707149 1.140258272422079,819.4113102733018Z" name="Aqaba" name_en="Aqaba Governorate" gn_name="Muhafazat al `Aqabah" admin="Jordan" adm0_a3="JOR" iso_3166_2="JO-AQ" iso_a2="JO" postal="AQ" type="Muhafazah" type_en="Province" wikidataid="Q260796"/><path d="M101.85389901001554,366.59111913599037 106.47599403257274,355.8835316778871 112.33808276149172,349.3573358495274 108.45540058766144,337.7251148784286 108.45540058766144,336.12013241479485 110.43480714276171,333.4337235807835 105.94307710977607,316.158387719955 106.4569614366098,314.40658712589726 107.59892658686537,313.77054440803994 108.87412138216507,313.40229984899156 109.7115626028472,312.40912099601894 109.84479187959009,310.6904680000299 108.7599248855577,308.3019606399817 108.45540058766144,306.5048079306877 108.34120427521663,303.55756827401643 107.94151626084852,301.2575207499847 105.94307710977607,296.1875330235749 105.60048743579216,286.21124196972863 106.60922349347742,282.4786029772135 109.7115626028472,279.9413434159853 107.77022142384617,277.2584205103615 107.8844181046261,274.75402750715466 110.96772443386115,269.47586356866395 109.99705375228513,268.08899087056665 109.99705375228513,266.91454586650275 110.83449515712904,265.9413810724461 112.33808276149172,265.1695261193337 112.33808276149172,263.55860009485576 111.55773969705356,260.99091247484984 112.3660695780721,257.53127456946623 113.54681132435616,257.4103058844805 126.35585561950163,258.9490032330183 129.35351456197895,262.68613459878964 132.4653701160342,263.9559253694491 137.27114077793826,264.93478230321864 137.5280830297931,266.74134429633057 139.41232571319262,267.4404332360773 141.8675511232774,267.6753216530502 157.87409822414654,267.2726543732171 161.4998381162993,267.9605392993421 164.06925997235905,269.0622235486247 166.15334668462555,271.16475823275516 167.5332214832469,272.98751771222356 174.2993659581339,278.0299732999226 175.35568382861396,283.6131729641999 176.2978052531198,284.7307393834995 177.79187666331677,286.1276078595553 179.04803839705238,286.6751530052932 182.64522909489935,288.80372937061423 177.22089393662995,290.5801597295733 171.47300185023008,296.2100450946767 168.58953951933913,297.8294549530196 161.58548553358065,299.9679876698893 158.84476867734523,302.2346901094363 150.55600392917907,312.0354453116868 145.9500771305306,315.38310256661003 135.2346360009617,320.86645035296914 132.4653701160342,323.3482366058459 131.1806590224014,325.72376601310526 131.5803470801284,327.7087302633425 132.86505800815752,329.2084724611328 134.83494794323545,330.2119536409056 137.27114077793826,330.93108359927965 141.4964124254591,331.62789012862646 142.55273029593917,332.7873213200504 142.86677077077036,334.6155167073848 140.5257419722612,341.224589706301 140.09750505145504,343.4976881056411 139.75491538232885,347.3524433868338 137.3853372239117,348.76158071040976 132.4653701160342,349.2015674423151 130.18143937490842,349.89772905283695 127.95460718797564,351.3790788511078 126.8411909289063,352.832476145095 124.69048970596711,358.63386295279037 121.66428140357101,364.1163351961303 119.35180179936611,366.35341537773746 116.78237977769341,367.5720168968981 104.11608128842934,366.8653484405375 101.85389901001554,366.59111913599037Z" name="Balqa" name_en="Balqa Governorate" gn_name="Muhafazat al Balqa'" admin="Jordan" adm0_a3="JOR" iso_3166_2="JO-BA" iso_a2="JO" postal="BA" type="Muhafazah" type_en="Province" wikidataid="Q721431"/><path d="M342.00633965094363,230.9479254925775 344.3664012561355,230.13546081405352 373.9623356818655,209.90255061208845 402.1498460355537,191.55192285416132 402.1879115958032,191.55192285416132 422.57199240989496,178.53881948726405 454.09023505034025,158.36439208068612 468.71037352761743,149.018603655209 485.66557584701803,138.17446468694476 517.2218838635617,117.9689580997186 548.7781920642558,97.71394085592075 572.2265464274694,82.64976051160622 604.2967389550095,62.53249878453402 619.925223138178,52.7125406988441 659.3014013347646,27.948524758131462 704.4090311232056,0 712.9737711312896,31.283501820346387 720.6249386140292,59.37824903650011 727.0009116697719,82.63846811422079 735.3943566567033,113.64570002164076 744.0923257573776,145.6384259100998 756.4636168187614,191.1027602513765 742.246148663172,195.56585363554748 741.9987227056607,195.64443977395777 741.9225917693128,195.8016110943885 741.9987227056607,196.07104461495783 742.246148663172,196.4246706141794 751.2296089132942,227.63061534653363 752.5999674250666,230.88068846465137 754.4651774835579,231.93404375669945 789.3522176026854,222.31165187838656 793.1397358758828,224.52012314425463 795.861419935171,231.1832536943629 799.7060363645908,245.80164392754918 795.0049459343542,252.65898649310142 772.8508187782629,271.50007357993826 772.888884522685,273.16625495465337 771.0236742800427,273.7700708440236 767.4455164040978,276.46465215716347 745.5768807657657,297.2150371328729 739.2009077100231,299.90639673307203 739.2009077100231,299.93989674281687 739.1818749298899,299.92873015128606 718.2648770088605,305.9913057474677 676.8496017771095,317.96581457042646 635.4723919214493,329.9441893821254 594.0761492856852,341.9041443186874 559.2983974293412,351.94171046293127 552.6608740539358,353.85685506335 517.8436298187706,364.2736972998727 517.7359169616402,364.23320362153527 517.469458422099,364.13303050634926 288.8575194629196,285.004533291088 282.3768664341801,281.24372095424263 276.5147777361946,275.7325188993542 273.28872573616593,274.03860214793383 263.3441111965294,272.96515361243036 259.93724790862865,273.30620359958596 257.5676699158237,274.3796334219533 255.62632900943862,275.8666841363313 253.25675085102225,276.9511535769818 250.48748496609474,277.02382205122535 247.65160440488003,276.18532313080794 244.42555257046354,273.8373349490112 236.99326149829827,270.17502947639383 229.54193801636166,269.45367000720057 227.24849082192733,269.7556377016999 225.3356991098365,270.2085803052183 221.51011535443894,271.76863611806857 218.95972607376194,271.98110712788696 216.1333619658473,271.21508210205326 211.65114806647082,267.80954217157296 209.3386682966545,266.37780815038303 207.50200738293353,266.1373113064391 204.9896837498609,268.63162327519365 203.1339900951442,269.6549823216992 200.96425596559482,270.1191110409065 198.99436586490393,269.772413483115 197.10060672820663,268.44707753664073 196.18703433238284,266.9538699433263 196.04428885772734,264.90122242150994 196.58672239010832,263.3406186177721 197.4146472030378,262.01484661492026 197.7001384835747,260.61066041185103 197.04350833960734,259.1168539814877 195.47330613103975,257.42709207444744 191.7619188216064,256.16806868351404 189.84912710951556,251.74125688719948 187.42245056249837,247.68852813438127 186.15677254107638,246.53524992942732 184.64366838988448,245.5274750738213 183.7586453539787,244.049311008124 183.90139099424715,241.91025393792873 185.6714372316825,238.53320167455902 194.04584939712925,229.09339057688527 196.64382061309544,223.80845803753888 198.0807934690909,221.92503828743236 198.3282194332494,220.26007794005216 197.7572368721748,217.04187153301115 196.81511544766892,214.88301956593955 195.84444482885803,213.13894029685068 195.61605193692117,211.36666104097228 196.2441327209829,209.59982904307648 198.88016941894048,207.42892939357694 201.16409999446256,207.0418445054162 203.24818654111763,207.76551882348602 206.61698418141478,210.40754361232663 208.22525203758596,210.74408137941117 209.53851215990932,210.28975403466754 210.82322308793997,204.64623251966373 208.557200741246,186.82837807971808 211.19421328283798,186.91381440409359 218.00793972905726,185.99279869233663 219.16893765942677,186.11635219279736 221.07221309402811,186.85765597630947 222.1761128681837,187.0598249450377 223.0896852093655,186.62178979962786 225.18328826106236,184.72913850999888 226.13492597836188,184.42584773173186 228.13336531358533,185.52104194285607 234.12868313507616,191.54069400299494 246.00512246562917,199.71925590269262 262.18296439619326,215.02864446337722 264.90464845548223,216.57069441124855 268.53990448765023,217.67528781548106 278.91275621384057,218.72375220457656 281.900898642442,220.59066385367456 288.6230070056059,221.4100332825979 313.81882911309435,224.48088864483685 320.46126072231203,229.51348227404634 323.6587635481745,227.63061534653363 327.6556422186121,227.7482997608938 339.41788486838675,230.84146636015333 342.00633965094363,230.9479254925775Z" name="Mafraq" name_en="Mafraq Governorate" gn_name="Al Mafraq" admin="Jordan" adm0_a3="JOR" iso_3166_2="JO-MA" iso_a2="JO" postal="MA" type="Muhafazah" type_en="Province" wikidataid="Q854871"/><path d="M418.45798810290756,460.7099468243777 442.06153366292887,486.21391999321787 466.0237725371172,512.0945236405572 466.59475502017415,512.7684569272354 467.1847706516578,513.4534149343059 467.75575313471467,514.1383499135424 468.3457685820381,514.8232616548877 488.5395217790128,538.5929862335296 508.7523079402748,562.3238277344012 528.9841266975089,586.0159787123049 549.1778798944829,609.6916216456916 558.2945696054791,620.3652934464654 558.3516677617015,620.5081576696324 558.2755368253643,620.5960734721451 558.1042419883628,620.6620100232358 556.8671131216153,621.4202668065958 543.3919222860636,628.95734933694 521.1426315976407,641.4215164097852 501.1392058336313,652.6382900395748 496.87586879387123,656.1930158499839 494.4777414442997,660.0323079753101 489.0724388859612,673.2011274283648 482.44904024103005,689.2642582326754 476.3585585188971,704.0234451599406 468.1744737450565,723.9448127744365 464.21566063486836,727.4654393457246 442.5183198335194,731.9582920902046 417.8709017955173,737.0730603510254 391.58666687640886,742.5361679271107 365.0930717442104,748.0415315261504 348.7058694163845,751.4270447895863 332.7373878830722,754.7464988325493 327.67467499873686,757.279411080494 323.2781084980937,762.0059644771131 313.09558457317985,779.2657251134203 304.6260084657411,793.5962244092817 293.1492571495554,813.0022936829337 281.32991615939585,832.9670156876199 267.1314807839212,844.6900003633871 245.71963113202023,862.3654981752582 226.249122659121,878.4361536346122 206.26472967523634,894.8851247446007 201.54460646489497,896.804789489287 196.50092617652263,897 177.35397459748185,893.6974489133527 156.13245237854693,890.0472356081646 145.6403710661153,888.2301038560562 145.62652036800148,888.1705289091623 145.20779973489326,886.3694397795703 136.0911100081862,819.7900882232566 124.14805600796083,771.2542061969933 114.46038372017993,749.3850521368083 111.71966686394451,745.1362748250275 108.40796744663524,741.5967861858023 104.83932594308253,738.4773865442075 101.23261879192546,736.4776656954932 97.80672276302978,735.1990548383668 92.31577309408692,734.1225566625385 87.57661694286558,734.2591713262101 85.2070389500614,734.7455116411207 82.82794450394788,735.6088745607149 80.08722764771322,735.9531169451258 77.14666709383364,735.8274417926797 74.12045895706129,734.8274779031655 71.59861903629226,733.3520338879439 69.3432374894615,731.2643749598528 67.65883866930754,729.0671883189068 66.23138193539701,726.6237754637468 65.26071148220987,724.5518422145252 64.40423747498538,720.587806130011 64.83247456140371,715.0150056737299 66.94511030235304,704.4887756988472 77.71764982052122,683.2668698665595 79.20220461180588,677.0867414864683 78.8310659139776,653.1980425234569 87.00563438179097,627.3097074488262 90.77411991421144,610.4669488334355 91.83043778468148,597.1697862579175 99.20563046825825,597.1532834124274 106.72356862648127,598.2809641448835 125.03307920948035,597.7033792430319 131.29485563397776,598.2644620060161 148.50046624559462,595.9485210852293 161.55693633928564,592.8180075963884 164.1549073896404,591.1727826440183 165.98205185006285,589.384343952886 168.27549904449563,587.7883741227057 170.2453891451873,587.3645954778934 172.18673005157314,587.5242013415453 177.12573023166146,589.4503813492314 183.84429277126006,586.9628231520227 197.85240057714327,563.3819787517016 219.4260284765487,523.2503655143764 228.81869319610786,493.37023815644454 224.50777413129407,481.4456026983139 221.4244679371468,460.42198708606327 418.45798810290756,460.7099468243777Z" name="Ma`an" name_en="Ma'an Governorate" gn_name="Muhafazat Ma`an" admin="Jordan" adm0_a3="JOR" iso_3166_2="JO-MN" iso_a2="JO" postal="MN" type="Muhafazah" type_en="Province" wikidataid="Q606340"/><path d="M377.24258214443233,406.29510212513054 370.17481740865884,408.40454068963106 394.13705609870544,434.3746546363684 418.09929497290386,460.3221236817486 418.45798810290756,460.7099468243777 221.4244679371468,460.42198708606327 165.69656056952437,459.07058553298265 163.86941610910273,457.442135845828 163.21278613074597,454.8662566941837 163.6695720802342,450.6942918105827 164.3547512528952,447.6575739302313 165.83930637540578,443.389873965641 166.1818958789306,441.4607965407296 165.69656056952437,438.6389081698809 164.44039867017733,434.5522849296307 159.9581849364238,426.6761071446317 161.95662423140894,424.77315571789035 163.0700404904775,423.9076136763577 164.46894803009457,422.44831306693794 165.26832364871976,421.0499475663328 168.41824468476565,411.33081768349376 169.64585738980765,408.9933009048266 172.18673005157314,405.30601778171706 172.7577127782592,403.94532664424025 172.41512327473592,402.62342339274556 170.9591173465296,401.21255564715466 169.87425044735747,399.87936013704683 169.70295561279474,398.17385093657623 170.33103656246865,396.61820972817395 170.4737822027371,394.5734679430191 169.36036610927073,391.85052291493434 161.3570924760293,383.2291060733818 159.98673413071884,379.84844410092944 158.55927739680678,374.30357800379954 158.27378611626983,372.21759500863476 158.53072836812547,370.34836766542634 159.4443004327141,368.701521066364 162.6132542097657,364.9065763821117 163.6981214401522,362.91978282115537 164.09780933226472,360.90495947960744 163.6695720802342,345.2970389821046 162.35631212352303,344.0603512106704 161.12869941847947,343.86537083541975 158.81621964866315,344.817970976889 155.98033908744847,345.52542788006144 146.673321785183,345.5588502916081 139.75491538232885,347.3524433868338 140.09750505145504,343.4976881056411 140.5257419722612,341.224589706301 142.86677077077036,334.6155167073848 142.55273029593917,332.7873213200504 141.4964124254591,331.62789012862646 137.27114077793826,330.93108359927965 134.83494794323545,330.2119536409056 132.86505800815752,329.2084724611328 131.5803470801284,327.7087302633425 131.1806590224014,325.72376601310526 132.4653701160342,323.3482366058459 135.2346360009617,320.86645035296914 145.9500771305306,315.38310256661003 150.55600392917907,312.0354453116868 158.84476867734523,302.2346901094363 161.58548553358065,299.9679876698893 168.58953951933913,297.8294549530196 171.47300185023008,296.2100450946767 177.22089393662995,290.5801597295733 182.64522909489935,288.80372937061423 186.87050074241944,294.35593578138213 191.30513287211818,298.43809490596936 197.5098110736285,305.99148010230374 201.07845257717042,308.5476959011419 203.5051287929617,309.3011021600336 207.10231949081947,307.247304451881 209.3672173253466,306.7784726716871 212.33632723913183,306.5105638016958 221.36736954855752,303.6358947457963 233.2247761315008,303.7196291935046 237.0218106926033,303.01066840057814 239.40090497309387,301.5480076166874 242.91244841927167,297.2822208022568 245.1107317431253,295.37795151186646 249.0314792035006,294.53465278910477 268.5115042685669,296.23238267405435 272.37515334034214,297.96346898686403 276.1721882326698,301.15720168595345 286.6306871103838,312.62132631187416 291.9217930816933,319.48878437137887 292.235833556526,322.89651911392843 290.54191844868495,325.534180342538 285.374525376659,328.7624643770744 281.2349009808065,332.1462979772464 279.8264771535039,334.06930547225215 279.56953490164904,336.09244112663475 280.72101647710684,338.4552899591449 285.68856568587796,344.11605939707914 293.9487814053613,351.79673268831766 301.95205503860194,357.27553330636584 306.2344249091099,358.88436440635 309.68886996668766,358.7841642056636 318.4344211611894,353.38930494778606 321.5843420316223,352.5317819866522 325.01023789490654,353.3336227153529 376.5890044133772,405.93912398945616 377.1599871400648,406.2501161087087 377.24258214443233,406.29510212513054Z" name="Amman" name_en="Amman Governorate" gn_name="Muhafazat `Amman" admin="Jordan" adm0_a3="JOR" iso_3166_2="JO-AM" iso_a2="JO" postal="AM" type="Muhafazah" type_en="Province" wikidataid="Q472788"/><path d="M517.8436298187706,364.2736972998727 507.0393599386488,367.50507221961396 461.4178458233725,381.1550091636992 415.796331523956,394.7844457435295 377.24258214443233,406.29510212513054 377.1599871400648,406.2501161087087 376.5890044133772,405.93912398945616 325.01023789490654,353.3336227153529 321.5843420316223,352.5317819866522 318.4344211611894,353.38930494778606 309.68886996668766,358.7841642056636 306.2344249091099,358.88436440635 301.95205503860194,357.27553330636584 293.9487814053613,351.79673268831766 285.68856568587796,344.11605939707914 280.72101647710684,338.4552899591449 279.56953490164904,336.09244112663475 279.8264771535039,334.06930547225215 281.2349009808065,332.1462979772464 285.374525376659,328.7624643770744 290.54191844868495,325.534180342538 292.235833556526,322.89651911392843 291.9217930816933,319.48878437137887 286.6306871103838,312.62132631187416 276.1721882326698,301.15720168595345 272.37515334034214,297.96346898686403 268.5115042685669,296.23238267405435 249.0314792035006,294.53465278910477 245.1107317431253,295.37795151186646 242.91244841927167,297.2822208022568 239.40090497309387,301.5480076166874 237.0218106926033,303.01066840057814 233.2247761315008,303.7196291935046 221.36736954855752,303.6358947457963 212.33632723913183,306.5105638016958 209.3672173253466,306.7784726716871 207.10231949081947,307.247304451881 203.5051287929617,309.3011021600336 201.07845257717042,308.5476959011419 197.5098110736285,305.99148010230374 191.30513287211818,298.43809490596936 186.87050074241944,294.35593578138213 182.64522909489935,288.80372937061423 179.04803839705238,286.6751530052932 177.79187666331677,286.1276078595553 176.2978052531198,284.7307393834995 175.35568382861396,283.6131729641999 174.2993659581339,278.0299732999226 181.189223332306,268.7882063254922 183.3304082675596,267.1048736809327 186.24241995836852,265.371057272824 188.65006343315332,264.24679087167874 190.22026564172089,262.6357889607664 191.13383803754468,260.72255155020355 191.7619188216064,256.16806868351404 195.47330613103975,257.42709207444744 197.04350833960734,259.1168539814877 197.7001384835747,260.61066041185103 197.4146472030378,262.01484661492026 196.58672239010832,263.3406186177721 196.04428885772734,264.90122242150994 196.18703433238284,266.9538699433263 197.10060672820663,268.44707753664073 198.99436586490393,269.772413483115 200.96425596559482,270.1191110409065 203.1339900951442,269.6549823216992 204.9896837498609,268.63162327519365 207.50200738293353,266.1373113064391 209.3386682966545,266.37780815038303 211.65114806647082,267.80954217157296 216.1333619658473,271.21508210205326 218.95972607376194,271.98110712788696 221.51011535443894,271.76863611806857 225.3356991098365,270.2085803052183 227.24849082192733,269.7556377016999 229.54193801636166,269.45367000720057 236.99326149829827,270.17502947639383 244.42555257046354,273.8373349490112 247.65160440488003,276.18532313080794 250.48748496609474,277.02382205122535 253.25675085102225,276.9511535769818 255.62632900943862,275.8666841363313 257.5676699158237,274.3796334219533 259.93724790862865,273.30620359958596 263.3441111965294,272.96515361243036 273.28872573616593,274.03860214793383 276.5147777361946,275.7325188993542 282.3768664341801,281.24372095424263 288.8575194629196,285.004533291088 517.469458422099,364.13303050634926 517.7359169616402,364.23320362153527 517.8436298187706,364.2736972998727Z" name="Zarqa" name_en="Zarqa Governorate" gn_name="Muhafazat az Zarqa'" admin="Jordan" adm0_a3="JOR" iso_3166_2="JO-AZ" iso_a2="JO" postal="AZ" type="Muhafazah" type_en="Province" wikidataid="Q721445"/><path d="M137.27114077793826,264.93478230321864 132.4653701160342,263.9559253694491 129.35351456197895,262.68613459878964 126.35585561950163,258.9490032330183 127.18378059804405,256.78919716524825 127.32652607269956,255.5189404906268 126.86974012320056,253.64418143805088 124.31935084252432,247.79489510158407 123.20593458345574,244.28448088309327 122.89189427422674,240.98064288945557 125.71825838214136,227.41223156830029 127.01248576347055,224.04947769822908 128.81108119520013,221.76807853348387 131.437601274247,220.64689978603138 134.6351040799799,220.40023156205592 139.2695800729234,220.71417209306122 143.69469558369983,219.4527730910291 149.2998421954442,216.3690082661009 152.32605016661438,215.77462635228787 157.674254360901,216.077427002973 160.67191330337985,215.62883180595216 162.87019646160977,214.3390631325491 164.18345674955685,212.49959251635224 165.49671670626958,211.6470958574211 166.73384586462168,212.202344408048 167.5332214832469,215.0400349570114 168.44679371345774,216.81758617217912 172.07253360559895,219.75551660846395 176.04086300127497,225.34420673829797 172.129631994199,227.4962928528405 170.1311926992123,228.35369833483105 167.2667629437049,230.25890870681297 164.3547512528952,233.14998903825392 161.2428958644537,238.05151785459032 159.9581849364238,241.61905526656452 159.4443004327141,244.63723037528658 159.58704623859552,246.70320711332 159.15880915217642,248.62901542659168 157.5029595263275,250.5210487732231 144.9508574830384,256.2016437697683 137.27114077793826,264.93478230321864Z" name="Ajlun" name_en="Ajloun Governorate" gn_name="Muhafazat `Ajlun" admin="Jordan" adm0_a3="JOR" iso_3166_2="JO-AJ" iso_a2="JO" postal="AJ" type="Muhafazah" type_en="Province" wikidataid="Q506658"/><path d="M141.8675511232774,267.6753216530502 139.41232571319262,267.4404332360773 137.5280830297931,266.74134429633057 137.27114077793826,264.93478230321864 144.9508574830384,256.2016437697683 157.5029595263275,250.5210487732231 159.15880915217642,248.62901542659168 159.58704623859552,246.70320711332 159.4443004327141,244.63723037528658 159.9581849364238,241.61905526656452 161.2428958644537,238.05151785459032 164.3547512528952,233.14998903825392 167.2667629437049,230.25890870681297 170.1311926992123,228.35369833483105 172.129631994199,227.4962928528405 176.04086300127497,225.34420673829797 182.35973781436167,222.6425530350073 184.81496322445798,221.90261554305718 190.5343062821758,223.55061960736418 196.64382061309544,223.80845803753888 194.04584939712925,229.09339057688527 185.6714372316825,238.53320167455902 183.90139099424715,241.91025393792873 183.7586453539787,244.049311008124 184.64366838988448,245.5274750738213 186.15677254107638,246.53524992942732 187.42245056249837,247.68852813438127 189.84912710951556,251.74125688719948 191.7619188216064,256.16806868351404 191.13383803754468,260.72255155020355 190.22026564172089,262.6357889607664 188.65006343315332,264.24679087167874 186.24241995836852,265.371057272824 183.3304082675596,267.1048736809327 181.189223332306,268.7882063254922 174.2993659581339,278.0299732999226 167.5332214832469,272.98751771222356 166.15334668462555,271.16475823275516 164.06925997235905,269.0622235486247 161.4998381162993,267.9605392993421 157.87409822414654,267.2726543732171 141.8675511232774,267.6753216530502Z" name="Jarash" name_en="Jerash Governorate" gn_name="Jerash" admin="Jordan" adm0_a3="JOR" iso_3166_2="JO-JA" iso_a2="JO" postal="JA" type="Muhafazah" type_en="Province" wikidataid="Q750270"/></svg>