<?xml version="1.0"?><svg fill="#3498db" stroke="#ecf0f1" stroke-width="1" width="800" height="40" viewBox="0 0 800 40" xmlns="http://www.w3.org/2000/svg"><path d="M791.3199219033933,7.6601555271154 791.2884253540059,7.670188128616794 791.2739739972302,7.671752845268495 791.2584109981509,7.66853137185026 791.3684636408393,7.617815900704824 791.4257132502055,7.602168562919493 791.5778230498564,7.590571095639577 791.5985737160544,7.583483742006748 791.5591103949276,7.5713339725940045 791.5815285257191,7.557251248405016 791.6069110390223,7.564706811869986 791.623770953743,7.585232570460518 791.6230298603919,7.611925145346751 791.6037613831729,7.625179339239932 791.5757850385871,7.625363424565718 791.5207587161048,7.614870523831674 791.4707347851264,7.612845576437921 791.4118177134433,7.617263643936169 791.3567913909606,7.63180642284928 791.3199219033933,7.6601555271154Z" name="Kiribati" admin="Kiribati" adm0_a3="KIR" iso_3166_2="KI-X01~" iso_a2="KI"/><path d="M51.76105653248902,36.61469234995837 51.783382026611584,36.650558759893705 51.81395220703336,36.71497306134525 51.82201161771808,36.77338342123398 51.77661953384498,36.788221623617325 51.75021801490723,36.74765216215199 51.73419183020672,36.695629317596726 51.73558138251697,36.64642744824197 51.76105653248902,36.61469234995837Z" name="Kiribati" admin="Kiribati" adm0_a3="KIR" iso_3166_2="KI-X01~" iso_a2="KI"/><path d="M44.466733913069426,19.85283309911114 44.57928775264822,19.819069965106685 44.62931168362656,19.818700971248152 44.61495296351972,19.86667062945264 44.59901941548821,19.8838293172624 44.58771771228514,19.907630346096795 44.586235521029394,19.934752830455384 44.599575235501625,19.961137682943935 44.57354426551608,19.96150670366258 44.54454891301905,19.924604914770473 44.51407137154283,19.914641559652175 44.496840907869924,19.90486276650881 44.46877192433858,19.88364481259677 44.45144882399682,19.862242607781948 44.466733913069426,19.85283309911114Z" name="Kiribati" admin="Kiribati" adm0_a3="KIR" iso_3166_2="KI-X01~" iso_a2="KI"/><path d="M6.523954109217443,17.10271500920073 6.455495435593868,17.084473161012703 6.445861196984475,17.07968239218946 6.444471642397585,17.077839791846955 6.4889373573050015,17.09165932857384 6.555358019659418,17.10769008225178 6.568883007469499,17.11487631427862 6.580833169631472,17.12537930546069 6.583612276528615,17.12851178348591 6.625391521207816,17.168128762599164 6.6256694312144475,17.168128762599164 6.630949735002027,17.160205317863664 6.633358295223534,17.157994129513945 6.636230038789606,17.15670426863688 6.639750241314658,17.153756021196777 6.638916509017821,17.14509556123355 6.578424609409888,17.04098805451696 6.549243983575079,17.012059807329884 6.5219160956716475,16.9934500835617 6.479210482026681,16.97170819565716 6.44021034652126,16.966180626408043 6.423535702861839,16.996582402872612 6.410010715051758,16.97870980088956 6.410566535065174,16.96396960058734 6.421590328261456,16.95015073956293 6.439098701941078,16.934857947525497 6.5183032564777434,16.972813710442267 6.587595662398155,17.021456845318326 6.633636205230318,17.089263936418973 6.642621984880654,17.134408226106082 6.645401091777797,17.15467734829934 6.642529348211801,17.18360719145822 6.6114959844456145,17.168128762599164 6.590837954916424,17.140304682233094 6.564251162640902,17.11929862102467 6.532291429908949,17.104926152352032 6.523954109217443,17.10271500920073Z" name="Kiribati" admin="Kiribati" adm0_a3="KIR" iso_3166_2="KI-X01~" iso_a2="KI"/><path d="M799.8525220451779,16.593280092032447 799.9140329526969,16.607465599999415 799.9710972864485,16.651496401667526 800,16.697186003966895 799.9766555002428,16.716899088707688 799.9462705954357,16.70197608558026 799.8210254980668,16.593280092032447 799.8362179504705,16.586463703892733 799.8436289021964,16.58591102596584 799.8525220451779,16.593280092032447Z" name="Kiribati" admin="Kiribati" adm0_a3="KIR" iso_3166_2="KI-X01~" iso_a2="KI"/><path d="M798.0210904132814,16.36190049235499 798.0099739856929,16.343479348279033 798.001636662725,16.32505831760112 798.017199664081,16.33390039773471 798.0288719139595,16.344584613205456 798.0383208769546,16.357110984200155 798.047214019936,16.37184796109757 798.0386914259067,16.37313744900941 798.0331332121124,16.370742683611 798.0279455449937,16.36632158463845 798.0210904132814,16.36190049235499Z" name="Kiribati" admin="Kiribati" adm0_a3="KIR" iso_3166_2="KI-X01~" iso_a2="KI"/><path d="M797.1327024840984,14.932182625994987 797.1519709613173,14.979505182834293 797.120844960882,15.041375235490943 797.1139898291699,15.015595926025544 797.120844960882,14.924449032802324 797.0978710078007,14.891121107198352 797.0589635066874,14.837355098159634 797.0434005076082,14.807894579424666 797.060075148991,14.823361324057176 797.1327024840984,14.932182625994987Z" name="Kiribati" admin="Kiribati" adm0_a3="KIR" iso_3166_2="KI-X01~" iso_a2="KI"/><path d="M795.919900109429,13.941476888924662 795.9378716710065,13.997441205120529 795.9423182424972,14.078811495627438 795.9239761342443,14.157237531495447 795.8732111099146,14.204183307891924 795.8146645849071,14.197003335765778 795.80540089525,14.146191534714731 795.8335625131735,14.085438997946287 795.888774108994,14.049724225082924 795.888774108994,14.06518832093681 795.8683939894717,14.079179689085413 795.8450494897144,14.102007796516261 795.8283748460551,14.129990782239755 795.8278190260413,14.157789832908216 795.8498666101573,14.178777302277986 795.8722847409489,14.165337945794056 795.8900710269119,14.140300345476051 795.8972967052998,14.126861099219333 795.9187884671255,14.100903208794138 795.9200853850435,14.04162400126686 795.9039665613976,13.978663635505152 795.8732111099146,13.941476888924662 795.888774108994,13.924724532261282 795.8956292407062,13.933560933282944 795.9024843724183,13.937426864942935 795.919900109429,13.941476888924662Z" name="Kiribati" admin="Kiribati" adm0_a3="KIR" iso_3166_2="KI-X01~" iso_a2="KI"/><path d="M798.9947042964166,13.707132858768615 799.0336117975297,13.73971582041326 799.075483678878,13.800096062275728 799.1084624172445,13.872626892659891 799.1192082981573,13.941476888924662 799.0869706554188,13.91680860251789 799.0693696427935,13.879254126263877 799.0571415706248,13.837649972906688 799.041393295931,13.801200584670054 798.9969275810234,13.747079227725019 798.9759916414878,13.71541664326616 798.9635782959813,13.677495416584037 798.9787707483852,13.679520331472407 798.9858111534351,13.686331407258923 798.9947042964166,13.707132858768615Z" name="Kiribati" admin="Kiribati" adm0_a3="KIR" iso_3166_2="KI-X01~" iso_a2="KI"/><path d="M798.0838982364422,13.710630455595554 798.1161358791808,13.775428442104966 798.104463629302,13.831943232973419 798.0900122725263,13.817032105802681 798.0690763307139,13.804145981856692 798.0253517114344,13.78573728515118 798.0253517114344,13.770274027999271 798.047214019936,13.774692096607081 798.104463629302,13.801200584670054 798.0966821286241,13.761069730978956 798.0772283780676,13.729775235899282 798.0253517114344,13.677495416584037 797.9849620190656,13.622270792946603 797.962358614936,13.60275822181038 797.9332706257702,13.59889253025328 797.9360497326674,13.609016963609804 797.938828841841,13.615459792785384 797.9475367092082,13.629818125072623 797.9193750912846,13.61748468301386 797.931047341163,13.59889253025328 797.9671757331026,13.588399957900931 798.0110856279965,13.59889253025328 798.0383208769546,13.64859446335372 798.0838982364422,13.710630455595554Z" name="Kiribati" admin="Kiribati" adm0_a3="KIR" iso_3166_2="KI-X01~" iso_a2="KI"/><path d="M795.2514321968384,13.413526497450833 795.2686626605113,13.514952470352554 795.2825581972737,13.552688531547078 795.2303109816883,13.537041842001804 795.2130805180152,13.491758720111147 795.2186387318095,13.40579536743814 795.2095603154902,13.375239093230917 795.141009002921,13.25927387523099 795.16083330243,13.261114576280551 795.1750993858678,13.266636682581836 795.1884391003401,13.2763924162006 795.2032610037915,13.290197725975151 795.2114130534219,13.330325326501399 795.2514321968384,13.413526497450833Z" name="Kiribati" admin="Kiribati" adm0_a3="KIR" iso_3166_2="KI-X01~" iso_a2="KI"/><path d="M794.594451258512,12.297754344513935 794.600750567934,12.322232732318223 794.6266889012508,12.382784793748208 794.644104640538,12.477754739861512 794.6431782715721,12.492846953465914 794.6429929959578,12.494319364160708 794.6416960803166,12.513828847982136 794.6100142575914,12.546222046865388 794.5883372224275,12.531129747083497 794.5788882571561,12.517509887001262 794.5848170199026,12.506466774408409 794.6100142575914,12.499840911455612 794.6048265927493,12.51272453701924 794.6040854971212,12.515301264315593 794.6066793306807,12.51769394080062 794.6100142575914,12.530761641203382 794.6422519026066,12.495239621812658 794.6426224492822,12.493951262030306 794.6426224492822,12.490454283479417 794.6339145796386,12.446834187761631 794.594451258512,12.367324657074626 794.5633252580769,12.158799145893104 794.594451258512,12.206282973769893 794.594451258512,12.297754344513935Z" name="Kiribati" admin="Kiribati" adm0_a3="KIR" iso_3166_2="KI-X01~" iso_a2="KI"/><path d="M794.5082989355942,12.112419787386335 794.5273821371985,12.119597532938002 794.5536910194674,12.135609443227874 794.5649927226702,12.15125328611967 794.5399807583196,12.158799145893104 794.5047787330691,12.142235069042245 794.4010253975265,12.062727821250508 794.3765692554656,12.033832956515726 794.4062130646447,12.033832956515726 794.4260373641538,12.054997977733265 794.4882893650241,12.10303351018048 794.5082989355942,12.112419787386335Z" name="Kiribati" admin="Kiribati" adm0_a3="KIR" iso_3166_2="KI-X01~" iso_a2="KI"/><path d="M792.6457413032628,10.39149331272574 792.6212851589254,10.369593258919894 792.6318457665004,10.34235620428171 792.6764967547457,10.299568233113481 792.686130993355,10.251627247332001 792.6757556591178,10.238836841422096 792.6518553393471,10.22273380515834 792.6129478382338,10.204698393890734 792.6640834092392,10.197521034505447 792.681869695202,10.202950062783232 792.6924303027773,10.221721614361375 792.6929861250674,10.240769204929062 792.6916892071492,10.258620561722859 792.6842782554236,10.293955182717815 792.6457413032628,10.39149331272574Z" name="Kiribati" admin="Kiribati" adm0_a3="KIR" iso_3166_2="KI-X01~" iso_a2="KI"/><path d="M793.1276384888565,9.678445211485815 793.261035633579,9.746907666290511 793.3210643475657,9.789696565351942 793.3310691328508,9.834233719790085 793.2082325957036,9.744239108006541 793.1270826665667,9.706327131062327 793.0653864879862,9.710744064736154 793.0740943553532,9.694456617030879 793.0842844162526,9.682402053523322 793.0965124884215,9.672463934660533 793.1120754875006,9.66298590707375 793.1276384888565,9.678445211485815Z" name="Kiribati" admin="Kiribati" adm0_a3="KIR" iso_3166_2="KI-X01~" iso_a2="KI"/><path d="M791.2035699490059,8.810762599684212 791.2076459738212,8.808830041301347 791.2106103540561,8.807081535300924 791.2100545317658,8.815455956575954 791.2094987117526,8.820517413767012 791.2100545317658,8.826407108435696 791.2017172110747,8.817940673520155 791.1950473527003,8.813155291612167 791.2035699490059,8.810762599684212Z" name="Kiribati" admin="Kiribati" adm0_a3="KIR" iso_3166_2="KI-X01~" iso_a2="KI"/><path d="M791.182263460518,8.801743988752254 791.186154209719,8.806529376867548 791.1928240680934,8.813431370625356 791.1857836630429,8.814351636201797 791.1767052467237,8.812235025910933 791.1694795683361,8.805793163307202 791.1631802589137,8.794197797792423 791.1776316156895,8.794197797792423 791.182263460518,8.801743988752254Z" name="Kiribati" admin="Kiribati" adm0_a3="KIR" iso_3166_2="KI-X01~" iso_a2="KI"/><path d="M791.4057036773587,8.508725841860146 791.4147820936781,8.521149883064272 791.4132999046989,8.555476942382645 791.3721691189787,8.62560307087472 791.3462307833856,8.648242080809277 791.2584109981509,8.761436204678501 791.2122778186497,8.80606924255149 791.2250617108319,8.78205025462337 791.2639692119452,8.747448070286088 791.284534604805,8.69683291686773 791.3390051049976,8.654315951393892 791.3601263201479,8.595049505927767 791.3788389750764,8.57112193378045 791.3951430697839,8.544893548354842 791.396254714364,8.516180268112679 791.3745776769234,8.487742969641893 791.335114355797,8.459213530883936 791.2910191875652,8.43602177915447 791.2550760689636,8.42341353452851 791.2545202466733,8.431052109854887 791.2550760689636,8.45433590766644 791.2411805322013,8.45433590766644 791.2406247121879,8.428383211275824 791.2339548538135,8.407492142671924 791.2228384262249,8.390742432419987 791.2100545317658,8.377121761208668 791.2411805322013,8.377121761208668 791.2661924965522,8.41154151827178 791.380691713008,8.485258151599394 791.4057036773587,8.508725841860146Z" name="Kiribati" admin="Kiribati" adm0_a3="KIR" iso_3166_2="KI-X01~" iso_a2="KI"/><path d="M791.1944915326867,7.230024091908742 791.1833751028215,7.230024091908742 791.1767052467237,7.226065938427868 791.1713323062673,7.220082674785131 791.1631802589137,7.214651706706305 791.1489141754756,7.16429988991731 791.1398357568798,7.052456159448817 791.1166765304603,7.012504733854753 791.1483583531858,7.027785735052056 791.1698501150115,7.096457555336428 791.1944915326867,7.230024091908742Z" name="Kiribati" admin="Kiribati" adm0_a3="KIR" iso_3166_2="KI-X01~" iso_a2="KI"/><path d="M791.3151047829504,6.673547342558888 791.3201071767311,6.752259292706341 791.2995417838712,6.811269270557484 791.2411805322013,6.827103322523391 791.2245058908184,6.823973341415509 791.217280210154,6.820843355757753 791.2100545317658,6.8130183838565745 791.2869431650266,6.800406341278681 791.3136225939711,6.749589555001644 791.3088054735282,6.679991651220122 791.288981176296,6.610852890748974 791.2917602831932,6.607998933621717 791.2934277477866,6.604868787924901 791.2945393900901,6.601738637548351 791.2950952123804,6.598240232388582 791.3151047829504,6.673547342558888Z" name="Kiribati" admin="Kiribati" adm0_a3="KIR" iso_3166_2="KI-X01~" iso_a2="KI"/><path d="M791.1880069476501,6.436297551031186 791.2789763910107,6.55837661334647 791.2862020693989,6.573383056816399 791.1776316156895,6.45498712471728 791.1450234239986,6.396432297537269 791.1305720672228,6.377650373190847 791.0927762084132,6.343216605229611 791.0816597808246,6.3244344195824596 791.084253614384,6.299023077816711 791.1001871624154,6.334654148786355 791.1631802589137,6.379675878648843 791.1776316156895,6.400943628373882 791.1880069476501,6.436297551031186Z" name="Kiribati" admin="Kiribati" adm0_a3="KIR" iso_3166_2="KI-X01~" iso_a2="KI"/><path d="M39.505286498365365,6.7035593262564905 39.531688017303104,6.726206260855673 39.54252653488497,6.771683885438302 39.53307756961336,6.806298104078756 39.49824609331534,6.796171631800931 39.477773337124155,6.808599570049048 39.45461411070468,6.819186303866723 39.42988005636054,6.826182739815712 39.40496072867861,6.827103322523391 39.379115032030924,6.817989544773999 39.36040237710227,6.802247517604797 39.34622893033328,6.7873339646333415 39.32269915723817,6.7735250742296165 39.299076745197574,6.741672391597204 39.28703394864331,6.734491695953341 39.235991012030354,6.730717220994581 39.005325116801764,6.662776115501799 38.9179685149116,6.621348064550609 38.84126515498881,6.564452849012039 38.78216280996784,6.509674332398898 38.737419185053646,6.48048950320013 38.7168537899169,6.4936549263090955 38.69517675475324,6.494207321561941 38.65145213547373,6.477635455191598 38.61699120585134,6.440164368210584 38.623661064225736,6.377650373190847 38.63709341536689,6.366694206564103 38.70268034314783,6.329958601067462 38.733157886900756,6.326459953274608 38.75344536975408,6.332996896780295 38.761782690445514,6.342111773879167 38.756502386657935,6.346807306603432 38.727043850816415,6.359236631768778 38.69851168394052,6.3903558021630715 38.6890627186689,6.430773522411919 38.7168537899169,6.471743218664667 38.74047620195749,6.475241734814791 38.77206538573725,6.471190822521887 38.799671185924026,6.472848015242274 38.81152870914043,6.4936549263090955 38.82301568568128,6.508385418081524 38.84997302463244,6.51335694500989 38.90472143710823,6.5153823822978465 38.950484067657044,6.534716034871189 38.96447224108825,6.534623968056047 38.9443700315727,6.508385418081524 38.92028443618754,6.491813611258291 38.8960135674646,6.481318097687204 38.874429168969876,6.467231969910111 38.85821770865494,6.439519898570167 38.887490971158755,6.449278989488655 38.91185447882726,6.4490027898423605 38.92519419329948,6.4324307322738 38.92167399077443,6.393117846291165 38.94613013283523,6.409505936828892 38.955486461437914,6.4324307322738 38.961137311901055,6.457196724746197 38.9754960320079,6.478832313702231 39.00217546095242,6.489604032967676 39.01134651621717,6.472203550986913 39.00662203244309,6.442281907655322 38.9738285674143,6.391460619599406 38.969381995923555,6.368351443937766 38.973921204083226,6.347635929691123 38.983925991644895,6.329958601067462 39.01051278392041,6.347083513565059 39.02227767046797,6.340822801679735 39.01505199208008,6.299023077816711 39.041453508741114,6.31476708148989 39.04312097333479,6.3351144974432465 39.038859675181904,6.357211115507572 39.04747490815668,6.377650373190847 39.07026358790044,6.390724076185545 39.08138001548894,6.383726888624823 39.08869833282231,6.369916612161659 39.11176492029622,6.35629042573737 39.12399299246498,6.341559356952406 39.13390514108107,6.323605791439919 39.137888529227254,6.307493542537526 39.13177449314291,6.287790473279184 39.11667467740816,6.279135820719779 39.07582180169472,6.269560439601496 39.00921586600238,6.238808562563308 38.92630583560303,6.1820918591687315 38.913244031137516,6.175462575982581 38.903331882521414,6.162572272332327 38.87850519150834,6.139185458897256 38.85293740486744,6.128320668947971 38.84126515498881,6.152996587438136 38.82931499510347,6.168096693736736 38.80430303075262,6.164413747060332 38.78262599331233,6.145170287841494 38.78040270870532,6.113680771550672 38.81023179122247,6.091490627155346 38.85960726324183,6.093884591894739 38.97521812200119,6.123072410854418 39.061648354925666,6.190930883304242 39.207366208485524,6.232455598784133 39.23404563743005,6.230245868427764 39.231173893863975,6.254000389105831 39.222836570895986,6.2761895523838795 39.210052678713815,6.292670216228615 39.174758016794584,6.307125262743255 39.165031141516266,6.327196511329849 39.154841082893384,6.377650373190847 39.148449136802334,6.484356276735158 39.199214161132026,6.540792304219844 39.28036409026892,6.579459269790298 39.36540477088306,6.632487647576264 39.397364503615094,6.658909515803436 39.4324738899199,6.681648757987935 39.46906546748045,6.697575358636498 39.505286498365365,6.7035593262564905Z" name="Kiribati" admin="Kiribati" adm0_a3="KIR" iso_3166_2="KI-X01~" iso_a2="KI"/><path d="M790.6644231563226,3.8333425731932183 790.7125943470929,3.8516798514150006 790.7507607525781,3.839977183268788 790.7826278486414,3.811319226521401 790.8107894665649,3.778422054047348 790.8437682049316,3.7601763702036264 790.9323290880708,3.7522514331795143 790.9754978873367,3.7405482788170916 790.9753126117223,3.7553845496931193 790.9727187781631,3.76552108018833 790.9599348859808,3.786899800886027 790.8785996835061,3.77031287813527 790.8054165261083,3.8140836763279697 790.746684727763,3.86743689915134 790.7098152401957,3.8797844555317935 790.6940669655021,3.872689225674758 790.6809125243675,3.8626452919283096 790.6714635613728,3.8495604755645254 790.6644231563226,3.8333425731932183Z" name="Kiribati" admin="Kiribati" adm0_a3="KIR" iso_3166_2="KI-X01~" iso_a2="KI"/><path d="M791.1465056152542,3.5845314386141167 791.1578073184573,3.5990922208563116 791.1605864253545,3.605911794353952 791.1631802589137,3.61549602885272 791.1122299589697,3.627107644318243 791.0045858742261,3.678714133204694 790.9754978873367,3.678714133204694 791.1057453762097,3.6172469905123146 791.1465056152542,3.5845314386141167Z" name="Kiribati" admin="Kiribati" adm0_a3="KIR" iso_3166_2="KI-X01~" iso_a2="KI"/><path d="M34.739025043632886,1.9237760445926144 34.75412485936764,1.9427754116274918 34.78024846829867,1.9905496815109933 34.81017018748483,2.0283624443875135 34.81767377815606,2.0485596872837215 34.811652378740575,2.070601182247149 34.78710360001092,2.095316870453519 34.74078514489541,2.1156056316551277 34.683998723427024,2.1281476679829447 34.62767548302649,2.1240899604388335 34.58348768040242,2.095316870453519 34.565423482156106,2.0493897065386775 34.6064616312074,2.0490208078771155 34.71568054387571,2.079823492295192 34.73745021798478,2.067465588442074 34.7405072348887,2.0391527780555174 34.73300364649411,2.007611629669348 34.72346204455357,1.9854771802108542 34.70456411628714,1.969521771846915 34.64657341356964,1.945357835490808 34.62313627486682,1.9313389214496803 34.608129095801,1.908650197901501 34.5948820179977,1.8604126920464072 34.58348768040242,1.8463009126907972 34.55319541226399,1.8407668532207664 34.5256822510227,1.8504514477110376 34.50372730357578,1.8695437860982222 34.490294952434624,1.8926019088715118 34.55097212538034,2.0023547210268178 34.4533328259218,1.9527361687215867 34.46176278555872,1.8608738605982962 34.52892454126449,1.7912362870638876 34.60757327578758,1.8083000374951068 34.63239996680058,1.8424270732301378 34.64286793543017,1.8640097951359624 34.64712923358306,1.8855922714625326 34.65852357345497,1.9140918271550147 34.68538827573728,1.9200868229143089 34.71595845615906,1.918242210510271 34.739025043632886,1.9237760445926144Z" name="Kiribati" admin="Kiribati" adm0_a3="KIR" iso_3166_2="KI-X01~" iso_a2="KI"/><path d="M5.283268026631134,20.894275561854855 5.3016101326075935,20.919382963283542 5.330512848435695,20.92695218080406 5.363121037850143,20.921967570783828 5.393413305988497,20.90978302890666 5.327270555917426,20.95298317983591 5.273263239069545,20.922521414325292 5.267705025275258,20.87396838922213 5.3340330509607465,20.865107156887618 5.33143921740146,20.87156846898572 5.3327361330427845,20.880245124400183 5.319489055239412,20.882460449670088 5.283268026631134,20.894275561854855Z" name="Kiribati" admin="Kiribati" adm0_a3="KIR" iso_3166_2="KI-X01~" iso_a2="KI"/><path d="M783.3531479809602,12.671010595197176 783.3453664825587,12.6651208308022 783.3412904577439,12.664016498459263 783.3335089570659,12.664016498459263 783.327394923258,12.666225161028624 783.3216514338493,12.66254405933047 783.3173901356964,12.656654298605485 783.3149815777516,12.649292105175572 783.3160932200551,12.639169097392463 783.3168343156831,12.636408279796488 783.3186870536143,12.630334483326015 783.3209103382213,12.625917179717755 783.3216514338493,12.623892583651449 783.327394923258,12.617266632936282 783.3385113508466,12.614321768846054 783.347404493828,12.610640689581931 783.3572240057753,12.610640689581931 783.3674140666745,12.610640689581931 783.3763072096563,12.619475283361215 783.3835328880442,12.624812854736984 783.3885352795483,12.629046103908127 783.3918702087354,12.63604017175603 783.3918702087354,12.637512606275225 783.3913143864455,12.639721261923704 783.3905732930941,12.645611008600362 783.3905732930941,12.651868872599088 783.3885352795483,12.659047013756778 783.3863119949411,12.665672994766476 783.3840887080574,12.669170043096662 783.3796421365668,12.673219259608539 783.3740839227725,12.67616414413573 783.3675993400126,12.676900365995152 783.3627822195696,12.67874091979666 783.3585209236933,12.67782064284509 783.3557418145197,12.675611977218374 783.3531479809602,12.671010595197176Z" name="Kiribati" admin="Kiribati" adm0_a3="KIR" iso_3166_2="KI-X01~" iso_a2="KI"/><path d="M791.8924179833957,6.092779686159944 791.8864892206493,6.082098905698862 791.880931006855,6.0782317203438305 791.8738906018046,6.074732833905896 791.8635152675675,6.068932042407463 791.8486933618397,6.066261833103521 791.8386885765545,6.0701290313589595 791.8353536473674,6.0861502401068375 791.840541314486,6.123164485385047 791.8442467903488,6.143512951440768 791.8401707678103,6.159625909029173 791.8309070758768,6.1750942831269455 791.8197906482882,6.176107090654065 791.8203464705781,6.174725987971407 791.8231255774751,6.167360104245273 791.8253488620825,6.152996587438136 791.8259046843723,6.140290350473588 791.8247930420687,6.126847473745235 791.8190495526601,6.104933635148771 791.8203464705781,6.092411382664476 791.8238666708263,6.071141868200061 791.8294248868972,6.056501740695772 791.8353536473674,6.0445317785032096 791.8442467903488,6.035139933848698 791.8557337668894,6.034587473091241 791.8657385544512,6.036613166641982 791.8768549820398,6.0418615509679645 791.89093579214,6.055396821188139 791.900940577425,6.071049792341041 791.9014963997149,6.073627922286064 791.9064987912193,6.093240062647813 791.9120570072902,6.137712268098473 791.9281758286595,6.18448576203393 791.9372542449787,6.204833887104616 791.944294650029,6.209897883311033 791.9515203284167,6.21468565364056 791.9576343645012,6.221406938372646 791.9568932688732,6.228128210915647 791.9565227221976,6.2354939733327575 791.952076150707,6.242307291933961 791.9454062923323,6.247371234730671 791.9402186252137,6.250409599369049 791.9359573293375,6.2528034603317 791.9259525417757,6.2563021765682585 791.9098337204065,6.2563021765682585 791.8813015535304,6.25133031495755 791.8457289816046,6.242399363476889 791.8253488620825,6.234665325563546 791.8190495526601,6.2268391996328525 791.8153440767974,6.201795487405381 791.8160851724251,6.192035759262365 791.8212728395437,6.185590642190403 791.8281279689793,6.184669910258236 791.8316481715043,6.188813201006193 791.8336861850502,6.195442460120663 791.8327598138079,6.206491195800394 791.8336861850502,6.219105129317157 791.8512871953989,6.226286768028536 791.8914916144299,6.2371512683172705 791.9014963997149,6.239176849067675 791.9192826856778,6.240189639029393 791.926508364066,6.2382561304757695 791.9292874709629,6.237519554985689 791.9337340424538,6.22978550918556 791.9313254822322,6.222603877249251 791.9292874709629,6.213028350881442 791.9176152210844,6.201795487405381 791.9098337204065,6.1922199048459605 791.9103895426965,6.188721128130179 791.9083515291505,6.183565029825027 791.9070546135091,6.176107090654065 791.9014963997149,6.1570478403224 791.8964940059343,6.135134183896475 791.8972351015619,6.1252822034702135 791.8964940059343,6.1089849438940975 791.8924179833957,6.092779686159944Z" name="Kiribati" admin="Kiribati" adm0_a3="KIR" iso_3166_2="KI-X01~" iso_a2="KI"/><path d="M32.17585449036432,0.03157807143551407 32.16168104359526,0.013573108200596158 32.172612200122686,0.003324038201844639 32.196790432176705,0 32.222265579872115,0.004709050507144835 32.24755545650631,0.022252449536850825 32.23875495019376,0.03656402259112307 32.210037509980076,0.04154996006281505 32.17585449036432,0.03157807143551407Z" name="Kiribati" admin="Kiribati" adm0_a3="KIR" iso_3166_2="KI-X01~" iso_a2="KI"/><path d="M42.44595244500264,23.415600146323122 42.49078870658569,23.398956260898473 42.52395271829012,23.411901487309695 42.53590288045209,23.434463471583353 42.51728286219229,23.446299424609222 42.429740984687704,23.457765605314655 42.393242043796086,23.445559674113422 42.36823007944523,23.398216539492868 42.3899997535543,23.39581244099548 42.410287236407704,23.39803160693434 42.42890725239087,23.404689131882236 42.44595244500264,23.415600146323122Z" admin="Kiribati" adm0_a3="KIR" iso_3166_2="KI-X02~" iso_a2="KI"/><path d="M0.08420694604082264,21.309151884845093 0.09726875050626346,21.32078549926755 0.09532337590595726,21.327802638626338 0.07114514385194275,21.315614993785033 0.049746018694995474,21.297149043292624 0.0607698096146411,21.298072335529174 0.08420694604082264,21.309151884845093Z" admin="Kiribati" adm0_a3="KIR" iso_3166_2="KI-X02~" iso_a2="KI"/><path d="M0.032145006069884935,21.294563827472636 0.03529465964258819,21.296410409441606 0.03585048193264125,21.297149043292624 0.021677035163655243,21.290132039174303 0.0037981125317605516,21.272035701260965 0.007503588394593051,21.27037380277158 0.017137827003985532,21.282745753950618 0.032145006069884935,21.294563827472636Z" admin="Kiribati" adm0_a3="KIR" iso_3166_2="KI-X02~" iso_a2="KI"/><path d="M0.09689820383070363,21.313583726994672 0.06697648236790905,21.27979124778891 0.03446092962246428,21.25984848802728 0.012135433223190816,21.25486283651485 0,21.24359901662917 0.011394339871918771,21.235105043660496 0.043261433658382434,21.25320095619106 0.09532337590595726,21.305828013175283 0.09689820383070363,21.313583726994672Z" admin="Kiribati" adm0_a3="KIR" iso_3166_2="KI-X02~" iso_a2="KI"/><path d="M7.475242495953194,20.753238222820087 7.509332878900022,20.746961973579495 7.534622753257581,20.7643140164809 7.543330622901285,20.79052702075995 7.52860135384217,20.808617931592238 7.498864907993792,20.811571567641696 7.475983591581103,20.801233861317233 7.4659788062961505,20.780927843128854 7.475242495953194,20.753238222820087Z" admin="Kiribati" adm0_a3="KIR" iso_3166_2="KI-X02~" iso_a2="KI"/><path d="M7.8540348049632245,17.77812560249209 7.8620942156479465,17.754165112826158 7.872562186554177,17.73241657121176 7.8778424903416795,17.774807981027834 7.868393525070143,17.80466673914473 7.85653600185366,17.80982755113755 7.8540348049632245,17.77812560249209Z" admin="Kiribati" adm0_a3="KIR" iso_3166_2="KI-X02~" iso_a2="KI"/></svg>