<?xml version="1.0"?><svg fill="#3498db" stroke="#ecf0f1" stroke-width="1" width="800" height="632" viewBox="0 0 800 632" xmlns="http://www.w3.org/2000/svg"><path d="M349.9041374885351,584.3561418935744 354.95083163016216,586.5701335061368 387.21009329467716,607.9065313408194 394.1864063746705,618.5757979454621 392.10835563118036,623.5080588091436 382.8560827341881,624.8166430548833 368.5076378192231,624.8166430548833 327.24349081561263,616.4620191408915 284.64345331000766,615.304485081377 274.7974519766081,611.8319338611878 272.1256727966851,607.2019821516769 272.719401233123,596.5334746871666 270.98769258422806,590.6962905419251 265.6936108847703,585.7147237076172 260.15214284345967,583.3497922337456 255.7981322829655,580.0288826695695 254.01694575769935,571.8275372344942 253.32426217653088,549.540105953442 256.8866346190869,540.3845385498805 266.8315910972222,543.9058486891869 275.4901355577816,548.533973690271 301.02047109212225,553.3634634157964 312.49922714566407,556.8850579448188 344.164759765765,577.9156123247454 349.9041374885351,584.3561418935744Z" name="Moûhîlî" name_en="Mohéli" gn_name="Mwali" admin="Comoros" adm0_a3="COM" iso_3166_2="KM-M" iso_a2="KM" wikidataid="Q271797"/><path d="M800,537.8693634887368 799.6536585134166,613.2410755574243 796.2891957523506,624.4140009380486 789.3128826723267,629.0444513036398 783.9693243125113,626.8298713619441 777.7351726900271,621.5955314854353 772.6884779403933,615.2541578383763 770.6104278049098,609.869220238137 769.4229703240629,602.1695791176005 766.1079848313258,597.7915162813325 721.2814647771525,566.9974930095713 716.2842479039153,558.9980516594202 712.5734430482643,549.540105953442 703.3706474196314,544.9622572271472 679.3246335843922,539.9821077554639 641.5239038785717,520.6666196002906 636.4277324685802,516.5925536869721 612.0353765387205,502.107816965399 603.8221287095106,493.20638162325156 613.6186527745508,492.90464677126783 621.7329460670318,494.9162238762479 637.3678023916066,501.65518974071085 647.9559651825153,504.370972055166 667.5984911889619,507.23767952964056 674.7727133424437,510.10443837229144 677.9887442984163,507.53944168345004 684.0744635078055,504.370972055166 687.1915393190119,501.65518974071085 705.448698163147,505.4271215048349 721.5783289953714,490.69194063898493 730.8306018923688,467.71175137391054 728.7030738804835,446.84633718764024 734.6403612847488,445.086725729727 743.0020409190826,440.2101869883527 749.5330573677873,438.4003742442853 752.5511780342988,437.0933002093651 755.1734805538284,435.1327084478496 758.0926466835755,433.6245764171301 762.2982254389457,433.7753891794995 765.8111200051305,436.3392237193381 770.6104278049098,444.9359025258828 772.6884779403933,446.84633718764024 798.3672458878341,529.217461856383 800,537.8693634887368Z" name="Andjouân" name_en="Anjouan" gn_name="Ndzuwani" admin="Comoros" adm0_a3="COM" iso_3166_2="KM-A" iso_a2="KM" wikidataid="Q231324"/><path d="M154.0231304162341,283.93589158833163 155.55692999167627,290.11371424828116 159.36668938409193,297.0954322128814 173.61617915432132,315.9826986821161 173.31931493610236,321.15697829625697 166.44195700080908,332.1591390649832 164.46286079408344,338.38899679746 163.77017721290986,342.860571013888 162.18690097710999,346.3273808822322 157.7339352719208,349.492792050505 151.94508028075575,351.3518709073858 143.68235518315095,352.5577713586955 136.4586551533031,351.75383695277486 133.24262480533721,347.1312889040327 129.33391026819098,339.3938343870433 95.29346268641653,307.94530156689314 86.2885767392788,304.22813727305504 60.21398942888854,302.7212024903277 53.831405393304244,301.1138200617409 46.85509292132274,297.2963493943107 35.128950525892456,287.95396144224634 30.181210920989248,281.675769215414 28.498979540458766,276.2013788154067 27.707340814549525,270.8276096430086 24.936607097897607,264.801158689523 9.450182578456824,249.73598126416667 2.7707337166519204,239.84391805293922 0,224.73077449010387 1.6822313805304807,218.70597990521642 5.640422578070031,211.22549347050315 18.801410012177975,192.14924579944045 18.949842425273022,185.57346022884482 17.218133168376415,178.9477360481091 16.62440473193343,171.71996952840132 25.035561634662134,62.738380071300135 23.74914961705067,55.515533869983884 20.434164124343994,48.894857480258544 26.371451528609203,38.212030448500556 32.16030651977428,23.066620033310887 38.49341328695851,11.282202051606053 45.667635440470725,11.031478496944642 71.49483580100649,2.306524057398446 86.63491883386895,0 97.76733218484951,4.512792820450268 105.0405094830974,14.04018511247466 110.433545719279,23.969289557592813 113.20427943593091,35.20290246966818 99.6474732468751,150.28944605286816 105.08998675145676,175.28362152695416 132.10464459284455,213.88629954057345 141.9011686578848,239.1409509380943 142.19803287610884,245.4677603977298 141.25796295308243,258.52383655593303 141.9011686578848,264.801158689523 144.67190298254346,269.32097668970533 148.6795720564186,273.23825087212896 152.39037630406298,277.70807382905815 154.0231304162341,283.93589158833163Z" name="Andjazîdja" gn_name="Grande Comore" admin="Comoros" adm0_a3="COM" iso_3166_2="KM-G" iso_a2="KM"/></svg>