<?xml version="1.0"?><svg fill="#3498db" stroke="#ecf0f1" stroke-width="1" width="800" height="808" viewBox="0 0 800 808" xmlns="http://www.w3.org/2000/svg"><path d="M589.721326001841,736.8254455716843 577.8892236238843,705.1615138308537 650.745259428562,711.129023453406 695.4701218034833,692.8541991088124 661.9264766830862,726.0806265270666 621.9935642437936,734.3868641755475 589.721326001841,736.8254455716843Z" name="Saint Paul Charlestown" name_en="Saint Paul Charlestown Parish" gn_name="Saint Paul Charlestown" admin="Saint Kitts and Nevis" adm0_a3="KNA" iso_3166_2="KN-10" iso_a2="KN" postal="PL" type="Parish" type_en="Parish" wikidataid="Q1752127"/><path d="M727.1705962834961,808 612.8551301656452,798.7277458112759 589.721326001841,736.8254455716843 621.9935642437936,734.3868641755475 661.9264766830862,726.0806265270666 695.4701218034833,692.8541991088124 727.1705962834961,808Z" name="Saint John Figtree" name_en="Saint John Figtree Parish" gn_name="Saint John Figtree" admin="Saint Kitts and Nevis" adm0_a3="KNA" iso_3166_2="KN-07" iso_a2="KN" postal="JF" type="Parish" type_en="Parish" wikidataid="Q657318"/><path d="M798.0547718058323,711.0512695343034 798.5050495279048,733.2958557666669 794.3973053169815,755.5937306443949 781.7735118599937,786.6422832969762 771.8548175286385,797.4775382563377 727.1705962834961,808 695.4701218034833,692.8541991088124 735.4030320284392,681.2243949573066 768.9466771488363,692.8541991088124 798.0547718058323,711.0512695343034Z" name="Saint George Gingerland" name_en="Saint George Gingerland Parish" gn_name="Saint George Gingerland" admin="Saint Kitts and Nevis" adm0_a3="KNA" iso_3166_2="KN-04" iso_a2="KN" postal="GG" type="Parish" type_en="Parish" wikidataid="Q1472520"/><path d="M611.9253370549098,581.1034156098525 644.7151807879765,545.7017256427554 695.9116771585525,546.7441224535 740.3955212378921,561.650144880575 774.5599166540858,594.7961026717098 794.3973053169815,650.7636762904446 797.3027816083962,673.8991588095378 798.0547718058323,711.0512695343034 768.9466771488363,692.8541991088124 735.4030320284392,681.2243949573066 695.4701218034833,692.8541991088124 653.9398941951988,611.4395204736184 611.9253370549098,581.1034156098525Z" name="Saint James Windward" name_en="Saint James Windward Parish" gn_name="Saint James Windward" admin="Saint Kitts and Nevis" adm0_a3="KNA" iso_3166_2="KN-05" iso_a2="KN" postal="JW" type="Parish" type_en="Parish" wikidataid="Q1342139"/><path d="M577.8892236238843,705.1615138308537 596.925103623425,597.2975880191649 611.9253370549098,581.1034156098525 653.9398941951988,611.4395204736184 695.4701218034833,692.8541991088124 650.745259428562,711.129023453406 577.8892236238843,705.1615138308537Z" name="Saint Thomas Lowland" name_en="Saint Thomas Lowland Parish" gn_name="Saint Thomas Lowland" admin="Saint Kitts and Nevis" adm0_a3="KNA" iso_3166_2="KN-12" iso_a2="KN" postal="TL" type="Parish" type_en="Parish" wikidataid="Q1752122"/><path d="M10.924825583774723,90.81993702809419 19.536822914047505,54.160740673862726 29.154951496739816,45.39526934974963 35.76741520509542,40.69941246230199 43.081198993904756,37.881875480929594 54.70310415952253,35.06432392563167 84.75975782704624,22.228584404002284 95.37977470108798,14.714814685764718 104.46303763095055,36.1481778073788 104.46303763095055,61.103310667346825 106.06035279994241,91.04769971373464 114.04693528778857,106.01916795313414 130.02010026352212,111.00954844868436 131.61741543236977,125.98037480949218 61.33549263935795,111.00954844868436 64.53012519165789,92.71121876975555 50.15427759917064,86.0571021283853 40.57037772809877,99.36523993712537 10.924825583774723,90.81993702809419Z" name="Saint Paul Capesterre" name_en="Saint Paul Capisterre Parish" gn_name="Saint Paul Capesterre" admin="Saint Kitts and Nevis" adm0_a3="KNA" iso_3166_2="KN-09" iso_a2="KN" postal="PP" type="Parish" type_en="Parish" wikidataid="Q952735"/><path d="M72.53671870168448,219.73440880916243 0,137.32011644872733 10.924825583774723,90.81993702809419 40.57037772809877,99.36523993712537 50.15427759917064,86.0571021283853 64.53012519165789,92.71121876975555 61.33549263935795,111.00954844868436 131.61741543236977,125.98037480949218 114.04693528778857,160.91042067863924 102.86572024760126,160.91042067863924 90.08718782422946,190.84836849595538 72.53671870168448,219.73440880916243Z" name="Saint Anne Sandy Point" name_en="Saint Anne Sandy Point Parish" gn_name="Saint Anne Sandy Point" admin="Saint Kitts and Nevis" adm0_a3="KNA" iso_3166_2="KN-02" iso_a2="KN" postal="AS" type="Parish" type_en="Parish" wikidataid="Q1473654"/><path d="M220.24313010310965,302.09151960164326 178.13575594529115,285.02953950809257 72.53671870168448,219.73440880916243 90.08718782422946,190.84836849595538 102.86572024760126,160.91042067863924 114.04693528778857,160.91042067863924 131.61741543236977,125.98037480949218 181.13422552850045,169.22671133066214 198.70470567320524,189.18520105895243 201.89934043988322,205.81661915342994 262.59736557603645,217.45825895609883 253.01346570500576,252.381430067102 233.84566817697228,262.3589988359695 225.8590856890849,283.97632704025136 220.24313010310965,302.09151960164326Z" name="Saint Thomas Middle Island" name_en="Saint Thomas Middle Island Parish" gn_name="Saint Thomas Middle Island" admin="Saint Kitts and Nevis" adm0_a3="KNA" iso_3166_2="KN-13" iso_a2="KN" postal="TM" type="Parish" type_en="Parish" wikidataid="Q1752101"/><path d="M337.98694009734515,318.2998261644279 288.14310068633364,321.1152517307965 256.38323864688317,316.7350551423689 220.24313010310965,302.09151960164326 225.8590856890849,283.97632704025136 233.84566817697228,262.3589988359695 253.01346570500576,252.381430067102 262.59736557603645,217.45825895609883 284.9597956564111,217.45825895609883 302.53027580111586,219.1213275513602 312.11417345783025,249.05552704305106 324.8927058813463,273.9992238918916 318.5034407768494,282.3134925134127 337.98694009734515,318.2998261644279Z" name="Trinity Palmetto Point" name_en="Trinity Palmetto Point Parish" gn_name="Trinity Palmetto Point" admin="Saint Kitts and Nevis" adm0_a3="KNA" iso_3166_2="KN-14" iso_a2="KN" postal="TP" type="Parish" type_en="Parish" wikidataid="Q376738"/><path d="M442.9799647031329,298.54641900285765 450.4490211345387,316.9436363776075 478.20133000817947,364.91496451821007 518.5774323388081,385.1448710120696 552.1406937952783,404.1226465283836 581.6963996237265,446.03785745942287 581.8967792518856,488.47057110169993 526.9932930019918,509.2163700882211 495.7343763394045,487.94930937501823 469.2845215059409,391.4013650979387 420.49255851214923,361.1608640219093 388.33193967886046,324.86967464910316 365.6892633074719,316.7350551423689 337.98694009734515,318.2998261644279 318.5034407768494,282.3134925134127 324.8927058813463,273.9992238918916 312.11417345783025,249.05552704305106 328.0873384335432,244.06662908701355 339.2685534737099,262.3589988359695 372.81219859414824,269.0105909914278 398.3692612266992,282.3134925134127 420.73169352128707,300.60435962103975 442.9799647031329,298.54641900285765Z" name="Saint George Basseterre" name_en="Saint George Basseterre Parish" gn_name="Saint George Basseterre" admin="Saint Kitts and Nevis" adm0_a3="KNA" iso_3166_2="KN-03" iso_a2="KN" postal="GB" type="Parish" type_en="Parish" wikidataid="Q1540744"/><path d="M387.8324408458983,190.3594172650087 407.7685740100478,211.8065802988443 442.9799647031329,298.54641900285765 420.73169352128707,300.60435962103975 398.3692612266992,282.3134925134127 372.81219859414824,269.0105909914278 339.2685534737099,262.3589988359695 328.0873384335432,244.06662908701355 312.11417345783025,249.05552704305106 302.53027580111586,219.1213275513602 318.5034407768494,197.5009833393869 342.46318602605106,200.82725736022064 368.02025087298006,200.82725736022064 387.8324408458983,190.3594172650087Z" name="Saint Peter Basseterre" name_en="Saint Peter Basseterre Parish" gn_name="Saint Peter Basseterre" admin="Saint Kitts and Nevis" adm0_a3="KNA" iso_3166_2="KN-11" iso_a2="KN" postal="PB" type="Parish" type_en="Parish" wikidataid="Q1725609"/><path d="M321.48179497258224,131.36212263478342 347.4548944336221,146.9184811234347 387.8324408458983,190.3594172650087 368.02025087298006,200.82725736022064 342.46318602605106,200.82725736022064 318.5034407768494,197.5009833393869 302.53027580111586,219.1213275513602 284.9597956564111,217.45825895609883 283.36247827308233,184.1956584220523 294.5436933132491,157.58386318482687 304.1275909699841,140.9507159451225 321.48179497258224,131.36212263478342Z" name="Saint Mary Cayon" name_en="Saint Mary Cayon Parish" gn_name="Saint Mary Cayon" admin="Saint Kitts and Nevis" adm0_a3="KNA" iso_3166_2="KN-08" iso_a2="KN" postal="MC" type="Parish" type_en="Parish" wikidataid="Q1538034"/><path d="M225.66526622088128,73.9691477758817 321.48179497258224,131.36212263478342 304.1275909699841,140.9507159451225 294.5436933132491,157.58386318482687 283.36247827308233,184.1956584220523 284.9597956564111,217.45825895609883 262.59736557603645,217.45825895609883 201.89934043988322,205.81661915342994 198.70470567320524,189.18520105895243 181.13422552850045,169.22671133066214 211.48323809672124,124.31697274092404 208.28860554438012,106.01916795313414 225.66526622088128,73.9691477758817Z" name="Christ Church Nichola Town" name_en="Christ Church Nichola Town Parish" gn_name="Christ Church Nichola Town" admin="Saint Kitts and Nevis" adm0_a3="KNA" iso_3166_2="KN-01" iso_a2="KN" postal="CC" type="Parish" type_en="Parish" wikidataid="Q176164"/><path d="M95.37977470108798,14.714814685764718 102.19261557539052,0 225.66526622088128,73.9691477758817 208.28860554438012,106.01916795313414 211.48323809672124,124.31697274092404 181.13422552850045,169.22671133066214 131.61741543236977,125.98037480949218 130.02010026352212,111.00954844868436 114.04693528778857,106.01916795313414 106.06035279994241,91.04769971373464 104.46303763095055,61.103310667346825 104.46303763095055,36.1481778073788 95.37977470108798,14.714814685764718Z" name="Saint John Capesterre" name_en="Saint John Capisterre Parish" gn_name="Saint John Capesterre" admin="Saint Kitts and Nevis" adm0_a3="KNA" iso_3166_2="KN-06" iso_a2="KN" postal="JC" type="Parish" type_en="Parish" wikidataid="Q668498"/></svg>