<?xml version="1.0"?><svg fill="#3498db" stroke="#ecf0f1" stroke-width="1" width="800" height="752" viewBox="0 0 800 752" xmlns="http://www.w3.org/2000/svg"><path d="M480.64485487232673,0 504.74888803600317,4.6782645287722975 595.9223423878393,50.406359545408705 598.9028859092956,58.51335251690546 603.2880536068658,65.87141648796786 607.3991481918023,75.293585329231 609.2833996836346,85.50046938200661 609.1806221611229,103.43096966328336 610.5167282695983,114.86993650742481 615.9639285420179,130.78558561166602 626.961106609337,153.9422258719029 639.8767952022989,171.6703946385924 651.0110098259614,171.1992992327018 658.2396844886728,192.80604499089043 667.9692749361966,214.32461436312255 685.7154999295622,239.81271935754808 693.9711903763289,258.7945607974554 692.2203933553311,268.5690081224542 682.8576591497049,269.92981766144993 665.605395707724,262.44659347760455 656.7665422448711,257.0585413648963 653.9915533474212,252.63009027806922 645.7408611497171,251.40827126348097 635.458074026796,249.22296948654284 627.8535935915916,247.91510923811785 603.2986672559454,252.01402269394242 590.8574789109052,262.7391787753552 580.1825946619451,273.44431855274365 554.3505056054314,287.791991149345 536.579075089905,304.32324144914924 527.2792338695068,319.0284583699175 518.4023384817156,330.62544206063575 499.25708197949234,339.63392271962454 497.4970234846349,347.1920123257722 493.5023435214822,354.323443594299 502.88256381077946,355.1435024555017 518.5214199870353,352.36937820135665 530.1384874451239,350.0712291142781 539.5073380122956,346.46020834758593 549.3184706856177,342.84974793533013 555.147883986538,346.36198082572315 543.1334976150632,354.4205530177069 543.1683093904911,360.1857498161833 540.5327140944665,366.8534546518328 550.8432624853514,373.8798308676662 557.9899592120015,373.8325806845496 558.236444818174,373.74927997936123 558.6787380187906,375.35281350099933 560.9194555171007,380.10629297760397 552.9355386238677,381.2728718456542 551.1516663598861,401.1004288236571 526.9171058963803,431.13654503867286 522.5879520135416,495.6478462078786 520.9563616205273,502.03610713615683 511.21032679998234,505.3041967795024 417.0566680539179,518.6961338416332 396.4986260732073,533.0122962203498 384.72477556983546,540.1375164943681 379.5732520903312,531.3540722895565 379.5297429489462,531.3416997820747 379.3121976630803,531.2922116362759 379.2686885217446,531.2922116362759 355.77378291620903,528.1867041738271 313.8745349301589,522.680440791427 271.93177738175257,517.1611826541317 229.9890198333674,511.6413017446116 188.08977184733843,506.14555546033756 140.99118799333957,500.30255352012057 94.02313156348518,494.49599790848725 47.033320352421015,488.70113533017025 0,482.8932011988956 12.221945262671854,469.26849693594085 75.53177047922945,398.6313438715767 101.89827562603391,354.37197766567704 128.87390790998336,324.83497732159543 135.1392162678848,315.4161114685494 147.62632342141953,282.72162901079037 179.08339137224218,230.75021041222743 187.30660814473083,212.65840033703452 188.35082627454,207.80121397518576 189.96066240011265,193.22670391866907 192.13611652149817,186.29914480287005 207.5383323576656,157.6063922166027 243.34630897222692,66.42814638329362 257.7478158199244,45.91209256743775 279.80692186531826,30.963030878965213 347.6375840054664,2.95211398810773 371.87214417222106,0 480.64485487232673,0Z" name="Al Jahrah" name_en="Al Jahra Governorate" gn_name="Muhafazat al Jahra'" admin="Kuwait" adm0_a3="KWT" iso_3166_2="KW-JA" iso_a2="KW" postal="JA" type="Muhafazah" type_en="Province" wikidataid="Q405701"/><path d="M766.2929537942789,187.68489073898368 758.3448373161004,202.3993795525313 745.3948896892857,218.81542292571177 729.9097668228522,232.91265892761652 714.2190889114694,240.6359557120473 711.4098409801597,240.34194455234194 696.0274956362416,238.69544720435053 685.8525364859055,226.2861007737944 671.1553730816348,191.2756424409153 653.648962167075,159.69527525363037 651.1823054161117,156.7501144906722 648.8526852214917,153.96186197825827 640.4249410066236,148.97401937666734 637.2045838273327,143.94637557541898 645.2554774070553,138.27000183403172 650.1545318751221,135.67710840280446 659.2674580296624,129.33178384137054 663.9266984189234,128.0744056264878 665.5026181852369,125.28447975059409 667.9692749361966,108.62011946433525 661.2887460777887,105.9469917974154 657.7600567520078,105.37696724586765 653.7174802347593,105.57352818900038 653.648962167075,105.59318419047649 657.8285748196921,98.41818700251764 663.7896618626047,98.94897729433116 674.0331395015963,105.59318419047649 678.7951574133444,106.34010817497114 684.6192078999383,105.907679594982 687.9080835678847,102.66434291149025 685.5099453055592,95.11535936463224 693.1154701824449,91.75331774881315 699.350630338016,87.91912138170161 700.9265496833336,83.61265572531715 694.1775027572661,78.91246116963502 694.143243723438,78.89279415950213 689.3469667778548,78.24377681704894 683.7969889829517,80.82012737741515 679.7886719205059,78.89279415950213 677.9386794625262,75.70662302806653 676.9109055005408,70.63191068066733 676.499796252556,65.51731107845802 676.9109055005408,62.13350524377071 676.9109055005408,62.09415686052914 669.4766762138265,62.19252703236786 668.448902672837,61.3465386462528 666.9415013952035,60.06769117908642 668.6887163306715,56.526086775008004 674.0331395015963,52.511949767515944 680.097004066996,49.973423117738506 686.0580911099084,49.619199294951514 691.8136235288181,51.44932713537244 697.2608238012341,55.483230564576886 762.8327825361823,148.6990835177846 769.1707197932482,166.13472822155248 766.2929537942789,187.68489073898368Z" name="Al Jahrah" name_en="Al Jahra Governorate" gn_name="Muhafazat al Jahra'" admin="Kuwait" adm0_a3="KWT" iso_3166_2="KW-JA" iso_a2="KW" postal="JA" type="Muhafazah" type_en="Province" wikidataid="Q405701"/><path d="M651.0110098259614,45.565117318867934 648.3045389961713,48.14323844182882 644.2277038660658,53.594225641118236 642.3777109870903,55.483230564576886 630.9009051831274,61.54328139552061 627.7833255263271,62.09415686052914 624.6657454485276,60.24476449977577 622.3361248329118,56.97863960839279 621.7194609609239,53.86971046274285 627.5435114474967,49.85534912590745 636.1768102863432,38.32201198884556 640.8360506756288,35.684303128310866 657.280429015364,33.36142250075567 657.3146880491956,33.36142250075567 663.7896618626047,33.99136769015375 662.4878156299244,38.99125843920898 651.0110098259614,45.565117318867934Z" name="Al Jahrah" name_en="Al Jahra Governorate" gn_name="Muhafazat al Jahra'" admin="Kuwait" adm0_a3="KWT" iso_3166_2="KW-JA" iso_a2="KW" postal="JA" type="Muhafazah" type_en="Province" wikidataid="Q405701"/><path d="M478.09957368080495,751.641237728505 474.5970922212236,738.9900320852086 466.7219481586749,730.7841199408385 457.0629314050521,723.9941193537446 448.0783057111199,715.7240979675498 441.70422471030844,704.9130639042329 435.961025206796,690.8317616162688 431.914680532587,676.2776966812409 430.3048444069685,650.5385884898984 428.3469355714489,638.4911392549639 405.0043121711619,574.6992320091332 384.72477556983546,540.1375164943681 396.4986260732073,533.0122962203498 417.0566680539179,518.6961338416332 511.21032679998234,505.3041967795024 520.9563616205273,502.03610713615683 522.5879520135416,495.6478462078786 526.9171058963803,431.13654503867286 551.1516663598861,401.1004288236571 559.4183922797894,409.3367838912421 565.640191245689,419.6798678186722 566.1187911952607,440.0743524963886 632.3613721307768,428.70656622789704 658.814895377353,426.89640091003463 662.487940647302,426.4078381134978 666.0779443105218,436.1331290799596 671.882475398947,445.41836008793206 674.1376586021343,455.14657073274657 684.5164307984224,520.4875033888102 691.9164010513051,536.5234964995079 712.9172422578179,567.8788730249429 719.255179935876,573.913945458271 735.4597441967842,579.28648239598 736.6930727827514,586.4878760363706 734.9115983924596,595.9064853981598 734.363452588135,605.5178360021843 737.8578828800843,614.9328052701405 749.3689477179034,631.1519013991048 751.8356044688633,636.9459205344766 756.2207721664334,643.5751550842964 766.1216582041322,647.7544198319274 783.4910325623488,651.4863016427133 779.3799379774123,658.8326198998383 777.6327230419479,667.2659355771566 778.078091323789,675.9892108916039 780.6132665634042,684.0894059836066 774.2410698515145,679.6606866620849 771.9799677245295,677.6015857587403 771.4660809540366,681.370063764848 771.8771906230382,683.7980548476836 773.7614421148495,685.6044031007592 777.7355001434427,687.6437491911753 774.5836610318361,691.7027690877918 772.5966320175378,692.8679763403613 770.9521941835646,692.18827520281 769.1707197932482,690.615217391458 766.2929537942789,690.615217391458 765.9161035801258,700.5964911425953 769.7873840862318,702.9652921817022 775.5429165051413,700.0528163799052 780.6132665634042,694.1690921846085 781.7780766607124,699.0625351800151 783.4910325623488,722.0086683253452 784.9984342609744,727.8890902193738 788.4243460642682,734.2927173381308 795.0020974001644,743.0236060259992 799.8668928344242,748.203208271801 800,748.3162606919027 725.2529272602287,749.0792282531494 650.3955474197256,749.8429177697527 575.538168000162,750.6312304036164 500.7025429408229,751.4195305379023 478.09957368080495,751.641237728505Z" name="Al Ahmadi" name_en="Al Ahmadi Governorate" gn_name="Muhafazat al Ahmadi" admin="Kuwait" adm0_a3="KWT" iso_3166_2="KW-AH" iso_a2="KW" postal="AH" type="Muhafazah" type_en="Province" wikidataid="Q552354"/><path d="M657.3075890498294,379.8903536352996 656.9825497050647,382.1666306392084 656.5701051209187,391.0253304513791 657.9605929200923,405.18324488409473 662.487940647302,426.4078381134978 658.814895377353,426.89640091003463 632.3613721307768,428.70656622789704 627.8146726097971,402.03081001541534 621.4812935571973,387.1159940749755 638.8419114472332,387.1159940749755 657.3075890498294,379.8903536352996Z" name="Mubarak Al-Kabeer" name_en="Mubarak Al-Kabeer Governorate" gn_name="Muhafazat Mubarak al Kabir" admin="Kuwait" adm0_a3="KWT" iso_3166_2="KW-MU" iso_a2="KW" type="Muhafazah" type_en="Province" wikidataid="Q913370"/><path d="M621.3303174537576,351.6694786576962 622.2333477314205,352.93469218422325 628.4342484321676,358.5271432863536 632.7166390282466,360.0131406431094 644.4461769831981,364.0611058933802 660.0191924996698,360.8966101442663 657.3075890498294,379.8903536352996 638.8419114472332,387.1159940749755 621.4812935571973,387.1159940749755 614.3486113903285,370.3133682998272 609.2580485312267,360.2577387733526 621.3303174537576,351.6694786576962Z" name="Hawalli" name_en="Hawalli Governorate" gn_name="Muhafazat Hawalli" admin="Kuwait" adm0_a3="KWT" iso_3166_2="KW-HA" iso_a2="KW" postal="HW" type="Muhafazah" type_en="Province" wikidataid="Q747432"/><path d="M558.236444818174,373.74927997936123 566.010189735612,371.1220412623083 575.3687225998947,367.96199737676824 577.9795775523422,356.4235074022782 584.2164674986371,353.72786739165366 592.2671089136686,356.34164467699856 600.7069090416544,350.0922656656859 605.1310898560138,342.97773322681365 611.8063514616096,339.84234540992287 614.8676365123694,342.6475890811772 621.3303174537576,351.6694786576962 609.2580485312267,360.2577387733526 614.3486113903285,370.3133682998272 579.5413437414359,374.89357523323747 560.9194555171007,380.10629297760397 558.6787380187906,375.35281350099933 558.236444818174,373.74927997936123Z" name="Al Asimah" name_en="Al Asimah Governorate" gn_name="Muhafazat al `Asimah" admin="Kuwait" adm0_a3="KWT" iso_3166_2="KW-KU" iso_a2="KW" postal="KU" type="Muhafazah" type_en="Province" wikidataid="Q1046645"/><path d="M760.1948301950513,306.64506812595664 766.7725815309474,309.2287508086659 770.0614571988903,312.02758436869794 774.9262522121577,316.13746566840877 778.2493873349315,320.50138541689915 781.5725220367094,324.8844781800215 785.9740577054712,337.9781350036685 785.0869651107831,342.8534795125412 778.8501446255426,340.64605641523633 774.8396161757264,339.7666818734313 770.8268115081893,337.11408619644743 759.2268057898677,326.94234589831973 751.2029944437114,323.85494019777707 740.0624150826093,322.106463518457 731.1539586967103,322.56994278774454 731.4856861681911,309.9725126157948 731.4856861681911,309.93336764428466 736.1449265574521,302.65183240405815 743.4763787426506,301.67304784096837 760.1948301950513,306.64506812595664Z" name="Al Asimah" name_en="Al Asimah Governorate" gn_name="Muhafazat al `Asimah" admin="Kuwait" adm0_a3="KWT" iso_3166_2="KW-KU" iso_a2="KW" postal="KU" type="Muhafazah" type_en="Province" wikidataid="Q1046645"/><path d="M560.9194555171007,380.10629297760397 579.5413437414359,374.89357523323747 614.3486113903285,370.3133682998272 621.4812935571973,387.1159940749755 627.8146726097971,402.03081001541534 632.3613721307768,428.70656622789704 566.1187911952607,440.0743524963886 565.640191245689,419.6798678186722 559.4183922797894,409.3367838912421 551.1516663598861,401.1004288236571 552.9355386238677,381.2728718456542 560.9194555171007,380.10629297760397Z" name="Al Farwaniyah" name_en="Al Farwaniyah Governorate" gn_name="Muhafazat al Farwaniyah" admin="Kuwait" adm0_a3="KWT" iso_3166_2="KW-FA" iso_a2="KW" postal="FA" type="Muhafazah" type_en="Province" wikidataid="Q1072757"/></svg>