<?xml version="1.0"?><svg fill="#3498db" stroke="#ecf0f1" stroke-width="1" width="800" height="1040" viewBox="0 0 800 1040" xmlns="http://www.w3.org/2000/svg"><path d="M264.7784154679392,920.7164140479597 258.02126287439336,915.7474429923872 248.40742854050364,900.5762163357035 245.33100172376217,896.8154557368314 239.1232112896353,897.518573878855 235.55235858258925,903.5192399594611 232.42099496520385,912.1675433571298 227.58661019526687,920.7817923247595 223.4663953288641,934.7382497356762 222.202862734437,965.9068266922858 219.3461804624947,982.006922211692 214.7864759749307,992.6179942141563 204.89796029556453,1010.3094415150995 202.2610231000132,1019.9198428081186 185.94497244168983,1021.2902894717176 160.5095133397791,1032.203700860599 130.51434975024654,1040 123.48251634284932,1039.0051358001162 118.53825850314956,1032.562550723165 114.85753378950648,1025.0751560974632 109.58365833527809,1018.6635697222847 103.65054924662768,1013.8666279120124 100.56989987487579,1012.4595861842049 101.31619010374094,1007.911167574727 101.7282115137958,1000.6978698309811 101.48099857216441,999.0657700856938 101.23378563053303,995.6871715601437 101.39859457697997,994.2834407557455 102.14023340187636,991.3289604914492 102.30504139227413,988.423294370667 102.46985033872109,987.0030541494446 108.9797893824179,969.7286796426686 110.46306703226848,967.4261069929062 113.34721738067822,967.0994934633399 117.38502796404363,967.9813463852324 118.70349618942157,967.9813463852324 119.7747519511649,967.4914300339864 120.68119924448254,966.8871934847067 123.15332818283963,964.5028451878835 124.47179688621658,962.4450358997948 125.40571249662986,960.0114956738128 125.81773390668472,953.5923115004928 126.31215978998307,951.9751468424961 128.5370757866732,951.4360815505818 133.48133366338516,951.403410480862 134.9646108352145,951.0930366223936 136.61269647543838,950.3579339350558 141.80416729377728,947.1397030029412 142.5458061186759,946.2085043340737 141.80416729377728,943.9539575880004 140.65050753682283,942.87566342961 139.24963436020687,942.0097451667756 137.84876118362644,941.4705819043244 136.5302924802206,940.7680276380801 135.5414407136617,939.6896702501132 135.70624966011087,938.2681681857151 136.69510142666755,936.7159100873623 139.66165577026618,934.8694838368071 141.80416729377728,933.9217354149182 145.2651475206387,932.7125163195776 147.8196809322348,930.751564021552 150.786235275829,927.6138939300063 165.4816687546415,909.0293194470394 167.9537967369472,906.6097552895121 169.68428732840027,903.5197507457391 170.6731386169357,900.2006625714956 170.59073462172233,889.8987628764647 170.1787127336418,887.3475162652381 170.59073462172233,883.8148259563685 175.6998009668578,876.6996855109859 167.459371331679,878.2700023569334 165.06964686656093,880.0529128132098 162.9271348650219,880.4127591609451 159.46615463816272,880.24919220822 145.42995646708786,877.6320669507595 135.12941930360685,874.2950491737864 126.80658567324585,865.4607841799111 129.19630966036934,855.4468914880707 127.87784143498696,851.3884509046806 126.55937273161446,850.1119437675775 125.15849955499849,849.1136288914576 119.44513501432017,845.8894380591512 118.04426231572988,845.6603003887911 116.64338913914503,845.8567039209825 110.71027997389986,845.5948323877594 109.2270023240782,845.3329590290631 107.74372515224887,844.7110058371643 106.34285197566847,843.8926356713336 105.18919221870956,842.9924136388001 104.69476633544679,842.354065665609 105.7660220971879,841.6993419115844 110.79268396908431,841.4701866573814 112.7703870241764,840.5371884960127 114.3360691472082,838.6875118562202 116.0665592606667,834.7424178608255 116.7257931343317,832.4996443662458 116.97300607596308,830.6824391720206 116.89060208077863,829.8474862292373 117.05541054920212,827.1624538448547 117.38502796404363,825.688904711075 118.78590114065517,824.1170748763117 121.34043407419448,822.6434434925519 126.72418167806363,821.1370233366978 129.4435226020007,821.4153860778615 131.33882166187948,822.3487123253296 132.1628644819892,823.7568574710182 133.15171624854588,826.5566664491054 133.81095060023213,827.8500963755621 134.9646108352145,829.0125210814714 137.4367397735716,830.9607532211952 138.34318658886352,832.0412562210528 138.92001742339326,833.1544778955197 140.15608165356008,835.020712347581 141.30974141048338,835.7246254193545 142.463401645468,835.3808554110313 143.36984941681132,833.7438219244303 142.71061458709937,828.3412649577917 143.5346574072091,825.2632052923461 153.09355622378828,807.8721803922388 153.53304547291535,806.4144883539273 153.6978539413366,804.8421029295591 153.58798162905651,803.5153671306637 152.7639383309233,802.4834397553252 151.6102785739644,802.3360198827016 148.80853222076803,803.1222544063146 147.73727645899578,802.7946583038325 147.4900635173644,801.7954767487832 148.23170234228968,799.7806795006443 152.54419370635645,792.8020235102331 153.75279009748,790.2462354670035 155.09872711792144,788.3129324047371 156.58200428974857,787.2315625380834 162.5975179282061,786.7072549612143 165.9760936818551,786.0846323039561 167.37696685846888,785.3636929059962 168.61303156665915,784.085639667467 169.10745744992192,781.0378527031457 168.5306275714458,779.2680914596821 167.2945628632533,778.0882198198481 165.9760936818551,777.4327233887454 165.15205086174538,776.6133423241089 170.2611176849065,773.5651376986592 193.27938383802865,768.2877339826144 197.3171948994153,769.17280026225 200.69577065306657,769.1236304810589 202.34385677131172,768.7794396281979 205.3928155881449,767.7632445482714 211.32592475339231,764.4031075605895 212.8092019251883,763.8294049871832 214.48475636053354,763.4687888294055 217.5337151773356,763.419613324669 218.9345883539516,763.1737374166021 220.41786552574757,762.583629792101 221.7363342291534,761.5017499555231 222.7251855176555,760.3214920460838 223.87884623066356,758.7477753922248 223.961250225848,758.6166303783826 225.36212340245953,757.9608999973061 226.51578315941842,757.9608999973061 227.5046349259751,758.3543388318689 227.91665633602997,758.5838437902637 228.08146480442232,758.7149888830908 228.16386927766135,758.8461342304539 227.7518478676065,764.222801966272 225.19731445601258,779.9235657994315 225.11491046082813,781.6277597678194 226.84540009623427,822.7416864812266 225.77414433449314,831.2554378754144 227.42223045273607,836.4121606504788 235.66266008791484,854.7268670468331 241.59576925316225,837.8363124526062 244.26017497700732,833.5801163312277 246.48509049570734,832.9416582876146 247.55634673547414,832.4669021986622 249.36924132214278,831.3864081954883 250.35809261064483,831.0262387740694 251.51175284562945,830.9771253290271 252.6654130806096,831.2554378754144 253.6542643691139,831.746575809811 254.9727335505432,832.2377081849048 256.6208191907649,832.4341605812455 259.6697784856238,831.9757713162234 261.4002685990511,830.9607532211952 262.71873730242584,829.3235877201363 263.2955671809042,828.0465645669221 265.60288717281213,821.2680173760015 274.77723241840863,812.5398073284449 277.90859570845197,811.27876923008 280.05110770999323,809.3134554239816 284.50093970340686,801.0583646659668 294.6366674424152,804.5636550102071 298.7568824990175,802.9256964109373 303.975821156433,796.2423176205617 308.4256531498533,789.0502169053293 314.11154985149057,782.0701863011421 321.44553171529486,774.6140020114789 325.0713208886321,772.10652804996 327.70825877343617,770.992057791392 338.1186677711449,774.4501181874951 348.9136303398919,780.8903747960256 351.9625891566962,784.8229819532559 353.5282708017334,789.3942802373814 358.71974162007456,800.4686673665856 360.9721254558435,803.2205325681292 362.839956676679,804.7274477072931 387.25909600638596,807.8721803922388 395.9115470516196,810.1978549178446 396.2611080535794,810.2918109032223 383.4955372314644,817.9106676824714 375.31004376777554,827.6531165938616 364.7073581848707,848.851261208329 356.0274388308795,858.5063755000901 349.7097758585838,862.5152011886306 342.34832589966805,865.7711323047778 334.7671303329142,867.8980187293371 327.73529745702643,868.5851487289057 318.34120766796264,871.1536298447826 298.1246872195985,892.3022024718804 287.52200110515975,900.7887728267324 279.1096709276342,902.640821983947 271.4806312608056,904.3203686006708 266.7561184975012,909.0942003943794 268.4042044440685,920.7164140479597 268.4042044440685,920.7817923247595 268.041058871487,923.2667162713043 268.0196510919283,923.4131998755098 264.94322427519126,920.7817923247595 264.83335173699135,920.7000696246789 264.7784154679392,920.7164140479597Z" name="An Nabatiyah" name_en="Nabatieh Governorate" gn_name="Mohafazat Nabatiye" admin="Lebanon" adm0_a3="LBN" iso_3166_2="LB-NA" iso_a2="LB" postal="NA" type="Muhafazah" type_en="Province" wikidataid="Q458417"/><path d="M100.56989987487579,1012.4595861842049 97.8273121645454,1011.2069185936158 91.34484091653827,1011.2069185936158 71.67768262753091,1017.6846358946832 67.88708484412726,1017.4072685740576 60.360826078019485,1015.4656550044964 57.1745267230514,1015.2372254092471 53.71354602270247,1016.5425245125267 47.83537267157025,1021.0945131966796 45.528053090547544,1022.073386973 2.9847223208874105,1018.8913391216225 2.9847223208874105,1017.863590997542 3.6335749761997014,1015.0885750043474 1.211191835908254,1015.4483069297992 0.4325684368852368,1014.6774493812418 0.4325684368852368,1013.0843096654179 0,1011.1570623680826 3.2875205456247807,1004.0899111322424 8.04577388302975,996.9704439257197 13.755677568977106,991.4181619106502 25.52154043452132,986.4823287409631 29.32814289184105,980.183355503583 32.61566343746806,972.9836445557756 36.24923841370333,967.6346769080945 33.048231874355515,963.3396950437686 36.24923841370333,962.7481445621763 37.97951269281381,963.5711697207339 39.882813921470344,967.6346769080945 55.88784768122175,933.0852703291055 58.22371734676796,914.2192561848544 47.14996440547485,898.153570504354 58.526515571536464,889.6811418871406 66.5290321856274,877.9102711258818 76.56462130362844,850.2374573039457 77.86232661431528,841.8864809852745 78.20838157642861,824.8197115139741 80.19819627985927,816.0006481802924 89.88773043568918,801.505405964859 93.26176445609255,793.6629561917576 91.09892227163301,785.7161653244714 118.74004815327349,764.5276564906607 132.62549646593465,749.9670676445489 138.59494110768722,731.1926122250028 139.71961946885247,723.0041961222734 147.46775538841482,701.9558549854689 150.12700140216842,703.0646324626017 165.81128569145733,703.7374353337578 179.49039860858514,710.8259711762427 192.53774501310335,713.2378312354434 198.38845018313518,713.0573553080357 200.44855771143295,713.2542382120264 201.2726010095706,712.4010757103141 201.84943088804673,711.4658622960364 202.67347370815645,710.7931563219812 204.0743468847724,710.5798567162266 209.34822169830022,710.8587860106395 213.13881934005872,709.9891779181748 219.34660928598078,707.7084417840852 220.33546105253743,707.1833664529563 222.3131641076006,706.3957447923322 223.63163328902993,706.2644728336539 226.51578315941842,706.4285623040544 230.05916785951442,705.5424739579124 232.44889232463248,705.3127449255928 233.52014808640692,704.951740931017 236.07468197599317,703.1795015710502 236.8163203228972,702.4738719029705 237.88757608463834,700.5702670653404 238.5468104363246,699.8317814293923 240.88159874533483,699.1917526085094 241.87045051186038,698.7486511798425 242.52968486357776,697.9609065656673 243.0241107468405,697.0090330698348 243.68334462050552,696.1884389530683 244.6721963870622,695.6468404621072 245.743452626829,695.4006577509069 248.29798556039944,695.302184011021 253.07743449066444,694.350263884267 254.39590319403916,694.3174390696505 255.71437237543736,694.0876625266104 256.9504366056042,693.4803918773383 258.2689053090078,692.3150684108134 259.91699142725514,691.3630964559391 261.6474815406825,690.8871036443436 264.0372060058295,691.3302692631543 266.1797175293162,694.4651520071068 267.7453991743534,699.4050963872941 267.4981862326909,712.2041897134812 267.0037603494281,717.5526610739518 265.93250458768256,721.4242317590332 265.7676961192613,723.2286826803575 266.5093349441866,725.3283332413403 268.98146340451797,727.6739396768644 270.65701783982985,728.7072869170252 273.3488914027516,729.6258009855392 275.3540627749127,730.5771024575411 275.84848818014973,732.9388834078511 276.34291406344363,734.6117497077852 273.1840829343304,752.583612867873 274.61242394998516,767.6485112582037 276.7549354735007,775.8922775410371 277.6613827668206,778.3012536625943 280.29832065162464,784.085639667467 282.688044638717,787.4609458013264 284.50093970340686,801.0583646659668 280.05110770999323,809.3134554239816 277.90859570845197,811.27876923008 274.77723241840863,812.5398073284449 265.60288717281213,821.2680173760015 263.2955671809042,828.0465645669221 262.71873730242584,829.3235877201363 261.4002685990511,830.9607532211952 259.6697784856238,831.9757713162234 256.6208191907649,832.4341605812455 254.9727335505432,832.2377081849048 253.6542643691139,831.746575809811 252.6654130806096,831.2554378754144 251.51175284562945,830.9771253290271 250.35809261064483,831.0262387740694 249.36924132214278,831.3864081954883 247.55634673547414,832.4669021986622 246.48509049570734,832.9416582876146 244.26017497700732,833.5801163312277 241.59576925316225,837.8363124526062 235.66266008791484,854.7268670468331 227.42223045273607,836.4121606504788 225.77414433449314,831.2554378754144 226.84540009623427,822.7416864812266 225.11491046082813,781.6277597678194 225.19731445601258,779.9235657994315 227.7518478676065,764.222801966272 228.16386927766135,758.8461342304539 228.08146480442232,758.7149888830908 227.91665633602997,758.5838437902637 227.5046349259751,758.3543388318689 226.51578315941842,757.9608999973061 225.36212340245953,757.9608999973061 223.961250225848,758.6166303783826 223.87884623066356,758.7477753922248 222.7251855176555,760.3214920460838 221.7363342291534,761.5017499555231 220.41786552574757,762.583629792101 218.9345883539516,763.1737374166021 217.5337151773356,763.419613324669 214.48475636053354,763.4687888294055 212.8092019251883,763.8294049871832 211.32592475339231,764.4031075605895 205.3928155881449,767.7632445482714 202.34385677131172,768.7794396281979 200.69577065306657,769.1236304810589 197.3171948994153,769.17280026225 193.27938383802865,768.2877339826144 170.2611176849065,773.5651376986592 165.15205086174538,776.6133423241089 165.9760936818551,777.4327233887454 167.2945628632533,778.0882198198481 168.5306275714458,779.2680914596821 169.10745744992192,781.0378527031457 168.61303156665915,784.085639667467 167.37696685846888,785.3636929059962 165.9760936818551,786.0846323039561 162.5975179282061,786.7072549612143 156.58200428974857,787.2315625380834 155.09872711792144,788.3129324047371 153.75279009748,790.2462354670035 152.54419370635645,792.8020235102331 148.23170234228968,799.7806795006443 147.4900635173644,801.7954767487832 147.73727645899578,802.7946583038325 148.80853222076803,803.1222544063146 151.6102785739644,802.3360198827016 152.7639383309233,802.4834397553252 153.58798162905651,803.5153671306637 153.6978539413366,804.8421029295591 153.53304547291535,806.4144883539273 153.09355622378828,807.8721803922388 143.5346574072091,825.2632052923461 142.71061458709937,828.3412649577917 143.36984941681132,833.7438219244303 142.463401645468,835.3808554110313 141.30974141048338,835.7246254193545 140.15608165356008,835.020712347581 138.92001742339326,833.1544778955197 138.34318658886352,832.0412562210528 137.4367397735716,830.9607532211952 134.9646108352145,829.0125210814714 133.81095060023213,827.8500963755621 133.15171624854588,826.5566664491054 132.1628644819892,823.7568574710182 131.33882166187948,822.3487123253296 129.4435226020007,821.4153860778615 126.72418167806363,821.1370233366978 121.34043407419448,822.6434434925519 118.78590114065517,824.1170748763117 117.38502796404363,825.688904711075 117.05541054920212,827.1624538448547 116.89060208077863,829.8474862292373 116.97300607596308,830.6824391720206 116.7257931343317,832.4996443662458 116.0665592606667,834.7424178608255 114.3360691472082,838.6875118562202 112.7703870241764,840.5371884960127 110.79268396908431,841.4701866573814 105.7660220971879,841.6993419115844 104.69476633544679,842.354065665609 105.18919221870956,842.9924136388001 106.34285197566847,843.8926356713336 107.74372515224887,844.7110058371643 109.2270023240782,845.3329590290631 110.71027997389986,845.5948323877594 116.64338913914503,845.8567039209825 118.04426231572988,845.6603003887911 119.44513501432017,845.8894380591512 125.15849955499849,849.1136288914576 126.55937273161446,850.1119437675775 127.87784143498696,851.3884509046806 129.19630966036934,855.4468914880707 126.80658567324585,865.4607841799111 135.12941930360685,874.2950491737864 145.42995646708786,877.6320669507595 159.46615463816272,880.24919220822 162.9271348650219,880.4127591609451 165.06964686656093,880.0529128132098 167.459371331679,878.2700023569334 175.6998009668578,876.6996855109859 170.59073462172233,883.8148259563685 170.1787127336418,887.3475162652381 170.59073462172233,889.8987628764647 170.6731386169357,900.2006625714956 169.68428732840027,903.5197507457391 167.9537967369472,906.6097552895121 165.4816687546415,909.0293194470394 150.786235275829,927.6138939300063 147.8196809322348,930.751564021552 145.2651475206387,932.7125163195776 141.80416729377728,933.9217354149182 139.66165577026618,934.8694838368071 136.69510142666755,936.7159100873623 135.70624966011087,938.2681681857151 135.5414407136617,939.6896702501132 136.5302924802206,940.7680276380801 137.84876118362644,941.4705819043244 139.24963436020687,942.0097451667756 140.65050753682283,942.87566342961 141.80416729377728,943.9539575880004 142.5458061186759,946.2085043340737 141.80416729377728,947.1397030029412 136.61269647543838,950.3579339350558 134.9646108352145,951.0930366223936 133.48133366338516,951.403410480862 128.5370757866732,951.4360815505818 126.31215978998307,951.9751468424961 125.81773390668472,953.5923115004928 125.40571249662986,960.0114956738128 124.47179688621658,962.4450358997948 123.15332818283963,964.5028451878835 120.68119924448254,966.8871934847067 119.7747519511649,967.4914300339864 118.70349618942157,967.9813463852324 117.38502796404363,967.9813463852324 113.34721738067822,967.0994934633399 110.46306703226848,967.4261069929062 108.9797893824179,969.7286796426686 102.46985033872109,987.0030541494446 102.30504139227413,988.423294370667 102.14023340187636,991.3289604914492 101.39859457697997,994.2834407557455 101.23378563053303,995.6871715601437 101.48099857216441,999.0657700856938 101.7282115137958,1000.6978698309811 101.31619010374094,1007.911167574727 100.56989987487579,1012.4595861842049Z" name="South Lebanon" name_en="South Governorate" gn_name="Mohafazat Liban-Sud" admin="Lebanon" adm0_a3="LBN" iso_3166_2="LB-JA" iso_a2="LB" postal="JA" type="Muhafazah" type_en="Province" wikidataid="Q223643"/><path d="M409.5352947618463,802.3682682960867 396.2611080535794,810.2918109032223 395.9115470516196,810.1978549178446 387.25909600638596,807.8721803922388 362.839956676679,804.7274477072931 360.9721254558435,803.2205325681292 358.71974162007456,800.4686673665856 353.5282708017334,789.3942802373814 351.9625891566962,784.8229819532559 348.9136303398919,780.8903747960256 338.1186677711449,774.4501181874951 327.70825877343617,770.992057791392 325.0713208886321,772.10652804996 321.44553171529486,774.6140020114789 314.11154985149057,782.0701863011421 308.4256531498533,789.0502169053293 303.975821156433,796.2423176205617 298.7568824990175,802.9256964109373 294.6366674424152,804.5636550102071 284.50093970340686,801.0583646659668 282.688044638717,787.4609458013264 280.29832065162464,784.085639667467 277.6613827668206,778.3012536625943 276.7549354735007,775.8922775410371 274.61242394998516,767.6485112582037 273.1840829343304,752.583612867873 277.8261917132675,748.6978650989474 280.05110770999323,746.3367686103255 284.0065138201441,740.7779493856242 285.4073865187033,737.940928356598 286.808259695317,733.9721305543519 294.14224155915025,703.4584688835307 300.26762798791356,687.1282583181165 303.8110126880118,680.4142136916442 334.4928785978343,634.1155607001506 339.6843494161799,631.3551152017118 341.7444569444799,629.7447904604419 344.4637983464427,625.9652675747041 348.83122586665286,621.1336672894847 349.2432477547334,619.3586855827797 349.1608432815233,617.9945395764447 340.92041412436794,609.6281203970372 355.50597385679214,588.4186265956531 359.4613799669786,588.4021817680311 365.5043619224984,589.0764104449056 367.0700435675379,589.0435217573862 368.63572521254395,588.8461869225839 370.2838113307891,588.2048457359266 371.6846845074029,587.2181507584978 372.83834426435953,585.9354209803876 376.29932449122094,580.2285482424057 373.992004499313,575.5244476265792 356.41242115014535,562.9562398296948 390.96728917490543,521.8917556272277 399.97682547405503,506.1489355691932 402.28414594401977,500.9277582264581 402.69616735407465,499.44531308565274 408.6292765192887,492.1477923075911 432.6363949169976,470.3481756574697 438.81671702387416,467.52989329417085 453.6769584930533,444.9948032391917 477.49179962721297,397.3218028423808 479.4145665261639,358.52529646211235 480.2935459804405,353.98344268322325 484.6060373445073,343.3622583073394 496.8018730898413,342.3214998648708 498.2851502616373,341.9250155165393 499.60361896504315,341.214639946797 501.6637264933454,339.0008502622597 512.7333703207617,320.2295211687364 514.381456439009,314.577002695592 516.1943505476497,298.0622745611935 535.9713815764741,272.9745836288671 552.2324957442436,256.0994968436532 558.1656053875143,235.31263772297171 559.2368606712298,233.16066809767713 561.1321597311086,230.4954166139037 565.7468006709757,225.6943168147589 576.569231078766,217.15059865617985 580.9366590769997,212.79542431363404 583.5735960057546,209.6157571148649 598.1591566942568,179.61484950328685 598.6810504165651,178.00747674552548 596.5110705760139,170.1190438414259 606.6742671101125,157.07404454412114 607.4159059350378,155.5323011097055 607.7455233498771,154.1065644976108 607.8279273450927,151.32129244047732 607.9927362915396,150.06124031307755 608.3223532283577,149.00012098813502 608.899183106836,147.97214111375843 610.9592906351382,145.21971021606723 634.6367916179723,126.94392875564144 635.8728563261603,125.55059815668942 642.5476043163042,122.86335800828245 653.727120456036,121.46991964847771 653.9173075586058,121.44621413311737 655.4297130980909,124.28941617846831 656.8580539682918,124.73728714863118 658.3413316390831,124.85340087076095 659.8246087784029,124.73728714863118 661.2529496485748,124.28941617846831 671.5809549491333,121.17080286505579 687.1278989032141,120.45747748842294 701.6859910767724,121.618700166879 708.9925052981099,124.18988835467395 708.9925052981099,124.28941617846831 712.398549197846,135.02068917780304 717.6724241205694,143.31230406903757 724.8141300661309,149.28146448958734 733.8236659715807,153.19421699382096 741.5147335449983,162.7427760224948 745.3602675974853,165.27882341771146 749.2607379190288,163.91964946961474 757.7209121966602,170.00251090402884 760.6325302061496,175.6206657053359 760.1930411164934,182.72951534592593 758.3252106251291,193.25019380142996 756.896868691827,197.6732280130302 754.9741019313794,200.70453298177063 753.2710802472939,204.03380084014861 752.8315906260726,209.30057430629398 754.2599314963068,214.43434981215617 756.896868691827,219.40204716781986 768.3785340486772,235.52731217614655 774.0369623234474,241.70130142848805 777.8275601068243,243.35640502804813 781.728029896834,243.05849014777965 785.1890105972162,243.88602729894245 787.9358203310209,248.86752870074827 786.8370965437813,257.1910589851795 781.728029896834,264.2559386539344 777.717688100194,272.52744247729896 780.2447527575742,284.56846050107407 783.7057329263914,293.7793282505665 796.5608034158998,306.5098700255884 799.4012519200678,312.7475898410651 799.6921665016913,313.3864064975482 784.6945847069717,329.9129251335885 772.3888769084163,350.54737707611855 748.6015032215366,370.87667397486223 738.2185621833976,384.0015681825017 735.1421348351245,393.03028923354026 734.0983473170571,400.53931085116477 731.1867287760316,406.44676852207385 722.5068099535765,410.7861905326164 715.2002952007051,411.1491676103885 703.773566644501,406.8922767787182 697.6756487485696,406.3642666579571 686.4686647371936,412.0566014772368 668.7792089462744,434.50656145896244 647.62877298648,453.04008679429967 639.2784712470152,463.32640273437687 631.9719570257066,474.7313620586389 620.6001642070853,497.7646439216599 621.5340791869837,500.0707242561749 624.9401236183139,506.16489086096476 628.2912317805274,510.051620316719 643.9480477412408,522.2370050541086 664.8238028871548,525.793300132327 673.9981475998566,531.4400835262278 675.0419356495156,544.5258360854126 668.6144006705629,552.951709699717 658.3962679081976,554.5972341203873 638.3445557355806,549.8250743405283 611.0412656107382,536.4113979391727 601.8119846289264,534.6336299230327 593.7363637034019,537.6788446487088 586.3199769439001,543.7029268609756 577.7499301281332,548.8541347418966 566.6528186549527,549.117441787904 562.3677949813045,546.4020235780329 555.610642919295,537.8928264091481 552.0947264813655,535.851736705274 533.0318655577591,547.5375783242473 523.8025851075414,551.5036063672101 513.9140688966079,554.0871266045735 505.39895888149164,557.6248688238732 500.125083958795,564.5186858722906 492.9833785447385,578.0898575196661 475.40379476042295,593.1046472121744 468.09728107062165,604.0218752100767 464.8560454466303,611.2714067519919 455.1323385745718,620.1963653616773 451.17693198388713,625.8661548256335 450.4078252797001,631.1902855812701 451.9460392196059,642.7241057927264 450.5176978178689,648.8350490363646 447.9906326289813,651.2989444962232 441.06867229128244,653.9269753827816 438.9261599229099,656.0950055086909 436.89352062423575,669.6760674757633 443.92535403163293,674.0600364317628 455.6817002023634,676.2600972657477 468.09728107062165,683.2044802264185 475.6784761058972,685.3056786876656 485.45711924706785,690.1808016672576 494.35678314582935,696.7787556418957 499.02635964005043,703.9502482409519 497.32333742440426,715.7311023009472 489.13784449224715,725.3606275081861 478.2055412947848,732.5775501837577 468.09728107062165,737.2188376549071 455.6267639332779,737.0548420510141 443.1013110583626,741.1054060121527 437.0583294314856,749.5171543418058 444.25497164615933,762.4028057055659 435.79479683705847,782.643184873241 419.313937903017,796.5530598182262 409.5352947618463,802.3682682960867Z" name="Beqaa" name_en="Beqaa Governorate" gn_name="Mohafazat Beqaa" admin="Lebanon" adm0_a3="LBN" iso_3166_2="LB-BI" iso_a2="LB" postal="BI" type="Muhafazah" type_en="Province" wikidataid="Q319632"/><path d="M642.7943876850069,0 650.7052003347533,5.187333450484201 663.2306526781346,27.925781082014975 673.9432113307422,37.530168147019964 686.5236010063059,41.84991224992501 699.7082880472437,41.58409107437358 712.5633580051559,37.43047778113884 710.4757824374252,57.697026402804056 706.6851846540216,60.686515761438585 701.0267563792513,56.10256288366475 693.1708805300933,53.843657787342295 685.3150041493969,58.726758194571275 684.2162803622174,66.43250438529024 684.8755145282356,75.89707840667411 682.4583218774858,85.99076084587668 672.0753808393779,94.1572666160247 657.51728813425,102.02380744121415 648.6176242354929,111.48202668911675 653.9173075586058,121.44621413311737 653.727120456036,121.46991964847771 642.5476043163042,122.86335800828245 635.8728563261603,125.55059815668942 634.6367916179723,126.94392875564144 610.9592906351382,145.21971021606723 608.899183106836,147.97214111375843 608.3223532283577,149.00012098813502 607.9927362915396,150.06124031307755 607.8279273450927,151.32129244047732 607.7455233498771,154.1065644976108 607.4159059350378,155.5323011097055 606.6742671101125,157.07404454412114 596.5110705760139,170.1190438414259 598.6810504165651,178.00747674552548 598.1591566942568,179.61484950328685 583.5735960057546,209.6157571148649 580.9366590769997,212.79542431363404 576.569231078766,217.15059865617985 565.7468006709757,225.6943168147589 561.1321597311086,230.4954166139037 559.2368606712298,233.16066809767713 558.1656053875143,235.31263772297171 552.2324957442436,256.0994968436532 535.9713815764741,272.9745836288671 516.1943505476497,298.0622745611935 514.381456439009,314.577002695592 512.7333703207617,320.2295211687364 501.6637264933454,339.0008502622597 499.60361896504315,341.214639946797 498.2851502616373,341.9250155165393 496.8018730898413,342.3214998648708 484.6060373445073,343.3622583073394 479.46950268230506,340.6859819846302 476.17333092384047,341.7432915354058 472.71235069694796,341.52852765513506 469.0865620016675,340.83466754650294 451.3421697060218,332.1771767258911 448.37561536242765,329.40119645530456 447.3867635958665,328.8558973042448 444.66742171587805,327.89747966179937 443.1841445440821,327.7322333657152 441.783271845494,328.0296766760449 440.54720761532496,329.94648947112654 439.228738433929,333.08594835145493 438.2398866673701,334.2094998139275 437.00382243720327,334.9034464323378 435.52054478738165,335.18432682258623 434.11967208879355,335.18432682258623 430.1642659786405,334.04427359450875 426.9504986933816,332.49111746766516 423.07749657844187,332.6728728814053 420.0285377616087,331.6814765513226 409.4533193394006,325.0221242383033 405.3331047608218,323.2208170350268 398.65835677067804,318.08097365845623 395.7742064222683,317.254585926555 391.7913319950196,316.97361133690055 384.70456307284667,317.66778167714386 378.0298150827029,319.25442206848135 374.2392174409444,320.75838137931953 371.84949249780067,321.03933665162566 358.71974162007456,320.59311359291786 351.05614186337857,322.31187716541416 349.1608432815233,322.377982906274 339.5195409477564,320.98975611221675 304.22303409806665,303.13791476166233 290.5164528638387,301.7822536821939 289.86893778305244,301.5111360936062 291.33487201546376,298.63783060001225 291.63766970866715,278.5072630902302 294.1465673868029,258.49938367646627 300.6350944717777,241.53369945112757 313.1363234674706,230.663441650844 322.22026170536196,238.17119492074028 330.9148882437351,224.7972727310853 338.96066159519756,204.45621691918197 346.0980418670831,191.2564498017742 375.5559555026082,175.10445283053028 384.8129206900167,162.57609979278487 375.1666438030967,147.0681713486221 375.1666438030967,143.07297131413975 385.02920490847487,145.68424690686902 427.2046317580932,134.6899080067758 455.6243810387901,107.65137989916533 464.1892373650154,101.43187441429178 469.63960009513306,95.73437589668605 472.62432241602494,86.69029948206297 473.05689085291016,56.514780510488215 471.5861580611678,42.93803015441285 468.29863751550965,31.555987393687232 462.5885845960759,24.253697606268446 469.36081366510655,24.003764826792242 474.03039015933206,25.300056733551163 477.9308599493372,27.128106680302693 487.21507773179957,34.67229774974311 498.7516788261724,38.02861780010563 510.89257888048587,38.360915601183144 524.9562451638019,36.36710003772697 538.1949924956757,37.31986381798473 561.4338794698388,38.992274704872166 563.7412001139005,38.26122680165445 570.1137988237745,34.4064411273357 573.3550344477902,33.60886452394661 576.0469079124848,34.77199331693881 582.3096346157262,39.45748191949638 585.550870239713,40.58725410451194 617.6336093969742,38.792899298728656 622.9074843196374,36.40033127769026 627.7968058902251,31.149593486964196 629.7745089197871,25.23358091658576 629.9942534646129,12.634920766419517 631.7522119493445,7.714310572413074 642.7943876850069,0Z" name="North Lebanon" name_en="North Governorate" gn_name="Mohafazat Liban-Nord" admin="Lebanon" adm0_a3="LBN" iso_3166_2="LB-AS" iso_a2="LB" postal="AS" type="Muhafazah" type_en="Province" wikidataid="Q390267"/><path d="M238.38147757361875,500.4357040834768 243.3630274735588,500.77342050345123 251.1060031318467,498.0237877999865 254.48003768378626,493.74341915374714 259.5410887143924,481.05596548460716 262.30952681682163,475.8400092061025 262.4825542978794,473.19291234387947 261.703930898852,472.2326587267181 258.3731536158534,471.9212216289605 262.9151227347958,466.5746004577224 269.31713634499647,451.310446804031 273.16699607122166,444.975069487359 276.6708003037462,443.7286777631135 285.4951975858301,443.5988433230916 287.70129703922845,440.97612695331753 287.44175555186257,435.1589513055832 284.9761151426034,432.1462379666314 282.12116356542674,430.3281396729261 280.43414655522616,427.9385449192072 280.30437581154433,412.35162370394255 288.99900234991753,384.3617341591647 291.33487201546376,364.5234644459537 289.64785500526096,357.03345220015245 282.12116356542674,342.98685417422223 280.43414655522616,333.95866796176784 280.43414655522616,312.09737964185587 282.12116356542674,307.4116549743683 289.64785500526096,301.94445614658315 289.86893778305244,301.5111360936062 290.5164528638387,301.7822536821939 304.22303409806665,303.13791476166233 339.5195409477564,320.98975611221675 349.1608432815233,322.377982906274 351.05614186337857,322.31187716541416 358.71974162007456,320.59311359291786 371.84949249780067,321.03933665162566 374.2392174409444,320.75838137931953 378.0298150827029,319.25442206848135 384.70456307284667,317.66778167714386 391.7913319950196,316.97361133690055 395.7742064222683,317.254585926555 398.65835677067804,318.08097365845623 405.3331047608218,323.2208170350268 409.4533193394006,325.0221242383033 420.0285377616087,331.6814765513226 423.07749657844187,332.6728728814053 426.9504986933816,332.49111746766516 430.1642659786405,334.04427359450875 434.11967208879355,335.18432682258623 435.52054478738165,335.18432682258623 437.00382243720327,334.9034464323378 438.2398866673701,334.2094998139275 439.228738433929,333.08594835145493 440.54720761532496,329.94648947112654 441.783271845494,328.0296766760449 443.1841445440821,327.7322333657152 444.66742171587805,327.89747966179937 447.3867635958665,328.8558973042448 448.37561536242765,329.40119645530456 451.3421697060218,332.1771767258911 469.0865620016675,340.83466754650294 472.71235069694796,341.52852765513506 476.17333092384047,341.7432915354058 479.46950268230506,340.6859819846302 484.6060373445073,343.3622583073394 480.2935459804405,353.98344268322325 479.4145665261639,358.52529646211235 477.49179962721297,397.3218028423808 453.6769584930533,444.9948032391917 438.81671702387416,467.52989329417085 432.6363949169976,470.3481756574697 408.6292765192887,492.1477923075911 402.69616735407465,499.44531308565274 402.28414594401977,500.9277582264581 399.97682547405503,506.1489355691932 390.96728917490543,521.8917556272277 356.41242115014535,562.9562398296948 373.992004499313,575.5244476265792 376.29932449122094,580.2285482424057 372.83834426435953,585.9354209803876 371.6846845074029,587.2181507584978 370.2838113307891,588.2048457359266 368.63572521254395,588.8461869225839 367.0700435675379,589.0435217573862 365.5043619224984,589.0764104449056 359.4613799669786,588.4021817680311 355.50597385679214,588.4186265956531 340.92041412436794,609.6281203970372 349.1608432815233,617.9945395764447 349.2432477547334,619.3586855827797 348.83122586665286,621.1336672894847 344.4637983464427,625.9652675747041 341.7444569444799,629.7447904604419 339.6843494161799,631.3551152017118 334.4928785978343,634.1155607001506 303.8110126880118,680.4142136916442 300.26762798791356,687.1282583181165 294.14224155915025,703.4584688835307 286.808259695317,733.9721305543519 285.4073865187033,737.940928356598 284.0065138201441,740.7779493856242 280.05110770999323,746.3367686103255 277.8261917132675,748.6978650989474 273.1840829343304,752.583612867873 276.34291406344363,734.6117497077852 275.84848818014973,732.9388834078511 275.3540627749127,730.5771024575411 273.3488914027516,729.6258009855392 270.65701783982985,728.7072869170252 268.98146340451797,727.6739396768644 266.5093349441866,725.3283332413403 265.7676961192613,723.2286826803575 265.93250458768256,721.4242317590332 267.0037603494281,717.5526610739518 267.4981862326909,712.2041897134812 267.7453991743534,699.4050963872941 266.1797175293162,694.4651520071068 264.0372060058295,691.3302692631543 261.6474815406825,690.8871036443436 259.91699142725514,691.3630964559391 258.2689053090078,692.3150684108134 256.9504366056042,693.4803918773383 255.71437237543736,694.0876625266104 254.39590319403916,694.3174390696505 253.07743449066444,694.350263884267 248.29798556039944,695.302184011021 245.743452626829,695.4006577509069 244.6721963870622,695.6468404621072 243.68334462050552,696.1884389530683 243.0241107468405,697.0090330698348 242.52968486357776,697.9609065656673 241.87045051186038,698.7486511798425 240.88159874533483,699.1917526085094 238.5468104363246,699.8317814293923 237.88757608463834,700.5702670653404 236.8163203228972,702.4738719029705 236.07468197599317,703.1795015710502 233.52014808640692,704.951740931017 232.44889232463248,705.3127449255928 230.05916785951442,705.5424739579124 226.51578315941842,706.4285623040544 223.63163328902993,706.2644728336539 222.3131641076006,706.3957447923322 220.33546105253743,707.1833664529563 219.34660928598078,707.7084417840852 213.13881934005872,709.9891779181748 209.34822169830022,710.8587860106395 204.0743468847724,710.5798567162266 202.67347370815645,710.7931563219812 201.84943088804673,711.4658622960364 201.2726010095706,712.4010757103141 200.44855771143295,713.2542382120264 198.38845018313518,713.0573553080357 192.53774501310335,713.2378312354434 179.49039860858514,710.8259711762427 165.81128569145733,703.7374353337578 150.12700140216842,703.0646324626017 147.46775538841482,701.9558549854689 160.00708139174765,667.8746148482219 156.67630357718184,663.5301005186509 164.938361678672,656.3401992025191 171.1673478078149,630.2364583122544 180.12151530198886,624.4914284597243 179.77546087141394,616.8563230387175 200.75503218702184,565.6085169406491 202.87461763411207,553.015714126565 203.7794962845271,526.5856121240365 213.9079260040295,528.7242890561477 220.99469540422814,528.4608823253287 222.88999446410244,527.2755349619689 224.86769751919675,524.3449823855989 226.26857021778704,522.7643925566172 232.11927538781663,522.2375189790482 238.29959797271889,503.3325274865641 238.38147757361875,500.4357040834768Z" name="Mount Lebanon" name_en="Mount Lebanon Governorate" gn_name="Mohafazat Mont-Liban" admin="Lebanon" adm0_a3="LBN" iso_3166_2="LB-JL" iso_a2="LB" postal="JL" type="Muhafazah" type_en="Province" wikidataid="Q216945"/><path d="M203.7794962845271,526.5856121240365 203.912781988967,521.935706159745 202.18250824139494,514.4157475091146 198.89498769573459,508.29528306200496 197.12145667925483,503.0560276965396 199.97640878799436,498.0237877999865 205.68631300548233,496.1041494515527 212.69392200211877,497.24556444171935 218.7931379191138,499.8914778393989 222.0374011958376,502.77070716846544 225.6709767036046,502.77070716846544 230.81854174048993,499.8914778393989 238.38147757361875,500.4357040834768 238.29959797271889,503.3325274865641 232.11927538781663,522.2375189790482 226.26857021778704,522.7643925566172 224.86769751919675,524.3449823855989 222.88999446410244,527.2755349619689 220.99469540422814,528.4608823253287 213.9079260040295,528.7242890561477 203.7794962845271,526.5856121240365Z" name="Beirut" name_en="Beirut Governorate" gn_name="Beyrouth" admin="Lebanon" adm0_a3="LBN" iso_3166_2="LB-BA" iso_a2="LB" postal="BA" type="Muhafazah" type_en="Province" wikidataid="Q651688"/></svg>