<?xml version="1.0"?><svg fill="#3498db" stroke="#ecf0f1" stroke-width="1" width="800" height="1664" viewBox="0 0 800 1664" xmlns="http://www.w3.org/2000/svg"><path d="M403.16271204548195,286.49274440958436 419.142738390332,212.49043093700692 435.4556797457723,183.5017717499091 535.497296333127,40.250650243647506 593.4248860073817,0 672.4927202675535,25.924346657831606 654.1822727164766,98.23586437280238 681.4814817844432,135.75381137654887 726.0923839159701,161.33337218398992 667.0781626577126,198.61643023142224 615.8081514945718,245.88448959836853 595.3001440861376,314.1564145107557 584.7237548376233,393.5966354243842 492.76011440187716,377.1722920514625 461.9981069679244,324.6593520718962 403.16271204548195,286.49274440958436Z" name="Gros Islet" name_en="Gros Islet Quarter" gn_name="Quarter of Gros-Islet" admin="Saint Lucia" adm0_a3="LCA" iso_3166_2="LC-06" iso_a2="LC" type="Quarter" type_en="Quarter" wikidataid="Q953557"/><path d="M212.40116520354044,521.761292313198 311.9434042228529,371.912195082061 333.25010288589533,355.0335132873733 373.200165435566,332.52813441713823 393.5081150913722,312.40923983641414 403.16271204548195,286.49274440958436 461.9981069679244,324.6593520718962 492.76011440187716,377.1722920514625 584.7237548376233,393.5966354243842 579.9191403693153,429.68232736552795 564.5381366524588,555.6945759307782 538.903129231385,660.6920455068679 497.8871180934548,770.9269493088582 482.50611069742047,886.3974993011051 482.50611069742047,975.6152001747423 436.3630995469192,959.8715037852686 400.4740884215942,917.8870478424121 400.4740884215942,839.1612305808229 400.4740884215942,786.6737535882432 395.34708840898895,697.4384291156402 385.09308470473763,613.4446142285265 354.3310772710929,560.9447265000332 282.55305502054557,545.1941917083903 212.40116520354044,521.761292313198Z" name="Castries" name_en="Castries Quarter" gn_name="Quarter of Castries" admin="Saint Lucia" adm0_a3="LCA" iso_3166_2="LC-02" iso_a2="LC" type="Quarter" type_en="Quarter" wikidataid="Q1049867"/><path d="M47.607158076128755,850.0171909140975 55.59717123390538,815.2539973800584 77.90262299450937,756.9716855312248 175.78027521846894,615.8524128485692 212.40116520354044,521.761292313198 282.55305502054557,545.1941917083903 354.3310772710929,560.9447265000332 385.09308470473763,613.4446142285265 395.34708840898895,697.4384291156402 400.4740884215942,786.6737535882432 400.4740884215942,839.1612305808229 400.4740884215942,917.8870478424121 390.2200883964179,996.6063957884445 359.4580772837324,1028.0923242080978 277.4260550079061,1007.1018175597692 221.02904015315346,912.6388591393802 154.3780215939784,865.4038890750384 92.85400304757971,849.6583810976766 47.607158076128755,850.0171909140975Z" name="Anse-la-Raye" name_en="Anse la Raye Quarter" gn_name="Quarter of Anse-la-Raye" admin="Saint Lucia" adm0_a3="LCA" iso_3166_2="LC-01" iso_a2="LC" type="Quarter" type_en="Quarter" wikidataid="Q1676934"/><path d="M42.613401287826,1339.1244687347298 17.64461078906671,1311.7028809788442 1.6645857692121184,1280.02231348947 30.129006102738444,1214.4436331501931 34.62338890672246,1172.0280296052888 30.129006102738444,1089.5762860104003 23.637121194196194,1062.6586864632438 11.985016719454467,1041.532954745114 1.6645857692121184,1014.9547623701538 0,972.3599683763724 10.653351376906345,928.059375398224 47.607158076128755,850.0171909140975 92.85400304757971,849.6583810976766 154.3780215939784,865.4038890750384 221.02904015315346,912.6388591393802 277.4260550079061,1007.1018175597692 359.4580772837324,1028.0923242080978 390.2200883964179,996.6063957884445 400.4740884215942,917.8870478424121 436.3630995469192,959.8715037852686 482.50611069742047,975.6152001747423 482.50611069742047,1017.5971282806191 467.1251069805639,1117.2968523840275 422.5822433150201,1142.1616799699318 396.5842596743835,1156.6740415682445 354.3310772710929,1180.25976616649 215.90203646154163,1232.7257161859009 118.48901046865338,1279.9426289075293 42.613401287826,1339.1244687347298Z" name="Soufrière" name_en="Soufrière Quarter" gn_name="Quarter of Soufriere" admin="Saint Lucia" adm0_a3="LCA" iso_3166_2="LC-10" iso_a2="LC" type="Quarter" type_en="Quarter" wikidataid="Q1472841"/><path d="M243.81080848842186,1489.5289977315629 124.17811228516905,1443.1831603317637 55.59717123390538,1361.0952438357058 42.613401287826,1339.1244687347298 118.48901046865338,1279.9426289075293 215.90203646154163,1232.7257161859009 354.3310772710929,1180.25976616649 396.5842596743835,1156.6740415682445 399.18237194149566,1177.4663539024364 379.8923128962859,1189.8850286723125 366.9457122218874,1225.2145799262257 316.59782275439755,1340.0266713530275 272.00397516979115,1428.3343674088019 243.81080848842186,1489.5289977315629Z" name="Choiseul" name_en="Choiseul Quarter" gn_name="Quarter of Choiseul" admin="Saint Lucia" adm0_a3="LCA" iso_3166_2="LC-03" iso_a2="LC" type="Quarter" type_en="Quarter" wikidataid="Q1075816"/><path d="M455.8618650218745,1596.6847231150464 430.12900610289245,1561.7044498389164 243.81080848842186,1489.5289977315629 272.00397516979115,1428.3343674088019 316.59782275439755,1340.0266713530275 366.9457122218874,1225.2145799262257 379.8923128962859,1189.8850286723125 399.18237194149566,1177.4663539024364 401.469981913297,1195.77337789237 415.8550921384165,1250.2388952228634 443.186806717215,1344.4422467095626 469.08000806594356,1407.7299580072777 473.39554039766097,1493.088211824641 474.83405362766246,1550.4800453729035 455.8618650218745,1596.6847231150464Z" name="Laborie" name_en="Laborie Quarter" gn_name="Quarter of Laborie" admin="Saint Lucia" adm0_a3="LCA" iso_3166_2="LC-07" iso_a2="LC" type="Quarter" type_en="Quarter" wikidataid="Q599347"/><path d="M656.5143598380995,1415.222183399533 636.8705782632352,1420.7033444322456 619.3924256419956,1432.2839200760168 600.4161495103807,1472.4742561532921 563.4623380724361,1632.3675718413829 537.9941770323475,1656.7153531148174 525.343323550609,1663.525816445026 505.0353738948029,1663.525816445026 455.8618650218745,1596.6847231150464 474.83405362766246,1550.4800453729035 473.39554039766097,1493.088211824641 469.08000806594356,1407.7299580072777 443.186806717215,1344.4422467095626 415.8550921384165,1250.2388952228634 401.469981913297,1195.77337789237 399.18237194149566,1177.4663539024364 396.5842596743835,1156.6740415682445 422.5822433150201,1142.1616799699318 477.37911068481526,1206.4930986232614 559.4111329608127,1295.6810844511997 610.68114780296,1353.3865584709133 656.5143598380995,1415.222183399533Z" name="Vieux Fort" name_en="Vieux Fort Quarter" gn_name="Quarter of Vieux-Fort" admin="Saint Lucia" adm0_a3="LCA" iso_3166_2="LC-11" iso_a2="LC" type="Quarter" type_en="Quarter" wikidataid="Q1472864"/><path d="M762.213901813793,1167.428634177126 711.444029719423,1372.3359109498424 700.4577620068626,1401.288537414438 688.1398248609837,1406.3977343290649 656.5143598380995,1415.222183399533 610.68114780296,1353.3865584709133 559.4111329608127,1295.6810844511997 477.37911068481526,1206.4930986232614 422.5822433150201,1142.1616799699318 467.1251069805639,1117.2968523840275 554.2841329482073,1138.2849471203278 667.0781626577126,1169.7662321807045 762.213901813793,1167.428634177126Z" name="Micoud" name_en="Micoud Quarter" gn_name="Quarter of Micoud" admin="Saint Lucia" adm0_a3="LCA" iso_3166_2="LC-08" iso_a2="LC" type="Quarter" type_en="Quarter" wikidataid="Q1240193"/><path d="M770.2972561985052,852.2277947168866 750.3953391712583,982.5828904518596 762.213901813793,1167.428634177126 667.0781626577126,1169.7662321807045 554.2841329482073,1138.2849471203278 467.1251069805639,1117.2968523840275 482.50611069742047,1017.5971282806191 482.50611069742047,975.6152001747423 482.50611069742047,886.3974993011051 569.665136665064,870.6523329129267 641.443155236639,896.8941280188963 702.9671737830034,865.4038890750384 770.2972561985052,852.2277947168866Z" name="Praslin" name_en="Praslin Quarter" gn_name="Quarter of Praslin" admin="Saint Lucia" adm0_a3="LCA" iso_3166_2="LC-09" iso_a2="LC" type="Quarter" type_en="Quarter" wikidataid="Q1567791"/><path d="M800,550.0577877307251 799.6670836644486,659.826599679362 770.2972561985052,852.2277947168866 702.9671737830034,865.4038890750384 641.443155236639,896.8941280188963 569.665136665064,870.6523329129267 482.50611069742047,886.3974993011051 497.8871180934548,770.9269493088582 538.903129231385,660.6920455068679 564.5381366524588,555.6945759307782 646.5701589282507,545.1941917083903 723.4751811914376,539.9439580494906 800,550.0577877307251Z" name="Dennery" name_en="Dennery Quarter" gn_name="Quarter of Dennery" admin="Saint Lucia" adm0_a3="LCA" iso_3166_2="LC-05" iso_a2="LC" type="Quarter" type_en="Quarter" wikidataid="Q1188890"/><path d="M726.0923839159701,161.33337218398992 759.0511884434011,197.82569122773222 770.3703724914446,250.00384341886277 784.3528954065698,426.6379808274856 800,550.0577877307251 723.4751811914376,539.9439580494906 646.5701589282507,545.1941917083903 564.5381366524588,555.6945759307782 579.9191403693153,429.68232736552795 584.7237548376233,393.5966354243842 595.3001440861376,314.1564145107557 615.8081514945718,245.88448959836853 667.0781626577126,198.61643023142224 726.0923839159701,161.33337218398992Z" name="Dauphin" name_en="Dauphin Quarter" gn_name="Quarter of Dauphin" admin="Saint Lucia" adm0_a3="LCA" iso_3166_2="LC-04" iso_a2="LC" type="Quarter" type_en="Quarter" wikidataid="Q182988"/></svg>