<?xml version="1.0"?><svg fill="#3498db" stroke="#ecf0f1" stroke-width="1" width="800" height="1768" viewBox="0 0 800 1768" xmlns="http://www.w3.org/2000/svg"><path d="M642.8464588034443,1676.1485738684328 602.512933217672,1727.2678534774855 484.8484843285536,1764.6860614909156 327.51137276986356,1738.4900520771225 321.9570687618133,1681.537949079917 306.04996011511366,1611.6963049164603 267.87290244954494,1546.5008481852824 264.6914796911369,1476.6379332527351 207.4258957654302,1462.6640232763555 154.32372105974835,1410.4924881586571 208.72135848169276,1298.7881996262238 205.76496713374556,1119.9161208773703 293.3242742264751,1108.5114454953937 328.31990913364774,1155.1266449656127 334.68275465045184,1239.0216385541537 350.5898581521818,1341.5384035649583 411.0368648362846,1388.1290944790421 461.9396083904919,1397.4466496375626 484.209557409026,1458.0059629494579 449.2139225018653,1509.2419956354859 484.209557409026,1569.7860358053115 541.4751464797143,1569.7860358053115 547.8379868515368,1509.2419956354859 525.5680378326797,1462.6640232763555 611.4664162937246,1476.6379332527351 621.0106794239551,1574.4429296323272 642.8464588034443,1676.1485738684328Z" name="Triesen" name_en="Triesen" gn_name="Triesen" admin="Liechtenstein" adm0_a3="LIE" iso_3166_2="LI-09" iso_a2="LI" wikidataid="Q49654"/><path d="M739.4032590176704,1553.7471829889157 642.8464588034443,1676.1485738684328 621.0106794239551,1574.4429296323272 611.4664162937246,1476.6379332527351 697.3647947547814,1444.0314657460212 713.2719034018161,1513.8995177605298 739.4032590176704,1553.7471829889157Z" name="Schaan" name_en="Schaan" gn_name="Schaan" admin="Liechtenstein" adm0_a3="LIE" iso_3166_2="LI-07" iso_a2="LI" wikidataid="Q49657"/><path d="M764.4487501934988,1178.2729059520054 791.060068032771,1276.4273874619885 710.090480643408,1276.3032070233266 662.3691598479319,1271.6431805722848 627.3735249407712,1285.6231054109558 573.2893586284789,1294.9428153730591 560.5636727398523,1169.1102456145534 538.2937237213063,1089.8639940103715 487.390980167434,1052.5667364607339 500.11666605573754,963.9731654949352 554.2008323680298,996.6149622797919 598.740730405421,1043.2419352378377 652.8248967177013,1103.849654311972 703.7276351266039,1187.7543626221477 764.4487501934988,1178.2729059520054Z" name="Schaan" name_en="Schaan" gn_name="Schaan" admin="Liechtenstein" adm0_a3="LIE" iso_3166_2="LI-07" iso_a2="LI" wikidataid="Q49657"/><path d="M435.18107649569913,732.473325208528 435.77235590963676,805.307235110391 414.21828759469264,856.7046039612595 356.9527036689859,842.7111385992692 283.7800110965796,819.3877086911335 239.24011305917642,852.0401696633002 210.60731852383825,800.7280818186865 169.24883810018457,786.7328475575199 185.15594674689612,922.0016096417015 112.40601771180859,897.0624032899801 95.78713918196348,864.6926839798907 52.032519766864,725.9697192674471 60.34205970355788,553.3372689946775 137.43462595141995,595.4202783902248 236.0586903011034,600.0874243742531 315.5942232453323,572.0838178776972 309.23138287350974,646.756155491349 372.85981231602057,716.750033052694 435.18107649569913,732.473325208528Z" name="Schaan" name_en="Schaan" gn_name="Schaan" admin="Liechtenstein" adm0_a3="LIE" iso_3166_2="LI-07" iso_a2="LI" wikidataid="Q49657"/><path d="M791.060068032771,1276.4273874619885 800,1309.3969909275768 760.3843307610101,1527.1458062877052 739.4032590176704,1553.7471829889157 713.2719034018161,1513.8995177605298 697.3647947547814,1444.0314657460212 700.5462175131775,1374.1524020857776 662.3691598479319,1271.6431805722848 710.090480643408,1276.3032070233266 791.060068032771,1276.4273874619885Z" name="Triesenberg" name_en="Triesenberg" gn_name="Triesenberg" admin="Liechtenstein" adm0_a3="LIE" iso_3166_2="LI-10" iso_a2="LI" wikidataid="Q49651"/><path d="M484.209557409026,1458.0059629494579 461.9396083904919,1397.4466496375626 411.0368648362846,1388.1290944790421 350.5898581521818,1341.5384035649583 334.68275465045184,1239.0216385541537 328.31990913364774,1155.1266449656127 293.3242742264751,1108.5114454953937 296.5056969848831,1005.9407524893439 318.7756460037403,982.6259163937652 379.22265268752,982.6259163937652 398.3111789479811,931.3289632338445 414.21828759469264,856.7046039612595 455.5767680186694,917.3378554189442 500.11666605573754,963.9731654949352 487.390980167434,1052.5667364607339 538.2937237213063,1089.8639940103715 560.5636727398523,1169.1102456145534 573.2893586284789,1294.9428153730591 528.7494605910877,1304.2623218493022 531.9308833494838,1383.4702509974425 525.5680378326797,1462.6640232763555 484.209557409026,1458.0059629494579Z" name="Triesenberg" name_en="Triesenberg" gn_name="Triesenberg" admin="Liechtenstein" adm0_a3="LIE" iso_3166_2="LI-10" iso_a2="LI" wikidataid="Q49651"/><path d="M521.912534096091,856.1785223859994 606.0606039801789,905.8677007506856 742.0546918152374,1095.6567212628122 764.4487501934988,1178.2729059520054 703.7276351266039,1187.7543626221477 652.8248967177013,1103.849654311972 598.740730405421,1043.2419352378377 554.2008323680298,996.6149622797919 500.11666605573754,963.9731654949352 521.912534096091,856.1785223859994Z" name="Balzers" name_en="Balzers" gn_name="Balzers" admin="Liechtenstein" adm0_a3="LIE" iso_3166_2="LI-01" iso_a2="LI" wikidataid="Q49663"/><path d="M327.51137276986356,1738.4900520771225 135.40280842145594,1706.502635135178 6.504066093493203,1668.430528198378 0,1590.3292213971965 66.81448795028517,1500.5281757646067 154.32372105974835,1410.4924881586571 207.4258957654302,1462.6640232763555 264.6914796911369,1476.6379332527351 267.87290244954494,1546.5008481852824 306.04996011511366,1611.6963049164603 321.9570687618133,1681.537949079917 327.51137276986356,1738.4900520771225Z" name="Balzers" name_en="Balzers" gn_name="Balzers" admin="Liechtenstein" adm0_a3="LIE" iso_3166_2="LI-01" iso_a2="LI" wikidataid="Q49663"/><path d="M484.209557409026,1458.0059629494579 525.5680378326797,1462.6640232763555 547.8379868515368,1509.2419956354859 541.4751464797143,1569.7860358053115 484.209557409026,1569.7860358053115 449.2139225018653,1509.2419956354859 484.209557409026,1458.0059629494579Z" name="Balzers" name_en="Balzers" gn_name="Balzers" admin="Liechtenstein" adm0_a3="LIE" iso_3166_2="LI-01" iso_a2="LI" wikidataid="Q49663"/><path d="M435.77235590963676,805.307235110391 521.912534096091,856.1785223859994 500.11666605573754,963.9731654949352 455.5767680186694,917.3378554189442 414.21828759469264,856.7046039612595 435.77235590963676,805.307235110391Z" name="Planken" name_en="Planken" gn_name="Planken" admin="Liechtenstein" adm0_a3="LIE" iso_3166_2="LI-05" iso_a2="LI" wikidataid="Q49660"/><path d="M491.94382585244284,606.2862438270914 435.18107649569913,732.473325208528 372.85981231602057,716.750033052694 309.23138287350974,646.756155491349 315.5942232453323,572.0838178776972 366.49696679921647,530.0750973626728 433.30681900012337,548.7461345453069 491.94382585244284,606.2862438270914Z" name="Planken" name_en="Planken" gn_name="Planken" admin="Liechtenstein" adm0_a3="LIE" iso_3166_2="LI-05" iso_a2="LI" wikidataid="Q49660"/><path d="M448.78048585142454,429.95434507469184 497.85661426986275,546.432365905148 491.94382585244284,606.2862438270914 433.30681900012337,548.7461345453069 366.49696679921647,530.0750973626728 315.5942232453323,572.0838178776972 245.6029534310109,530.0750973626728 191.51878711871865,488.06238183521987 185.15594674689612,404.0249916472667 210.60731852383825,319.9716311753448 251.9657938028334,315.3015376964057 280.59858833817157,385.34784773476247 379.22265268752,436.70809485658083 448.78048585142454,429.95434507469184Z" name="Eschen" name_en="Eschen" gn_name="Eschen" admin="Liechtenstein" adm0_a3="LIE" iso_3166_2="LI-02" iso_a2="LI" wikidataid="Q4540"/><path d="M384.71165077705245,235.11878042388147 368.9578679593516,283.0659048950754 394.3828541500843,356.8416761919857 448.78048585142454,429.95434507469184 379.22265268752,436.70809485658083 280.59858833817157,385.34784773476247 251.9657938028334,315.3015376964057 309.23138287350974,259.2565024928098 384.71165077705245,235.11878042388147Z" name="Mauren" name_en="Mauren" gn_name="Mauren" admin="Liechtenstein" adm0_a3="LIE" iso_3166_2="LI-04" iso_a2="LI" wikidataid="Q49661"/><path d="M333.5055221286792,97.68686188430578 407.3909840913935,166.08440179261498 384.71165077705245,235.11878042388147 309.23138287350974,259.2565024928098 251.9657938028334,315.3015376964057 248.78437618940694,263.92718761659506 286.96143385497567,207.87565069885204 306.04996011511366,151.81700276541324 333.5055221286792,97.68686188430578Z" name="Schellenberg" name_en="Schellenberg" gn_name="Schellenberg" admin="Liechtenstein" adm0_a3="LIE" iso_3166_2="LI-08" iso_a2="LI" wikidataid="Q49655"/><path d="M258.9800400075695,0 311.01256549549237,76.8624933175886 333.5055221286792,97.68686188430578 306.04996011511366,151.81700276541324 286.96143385497567,207.87565069885204 248.78437618940694,263.92718761659506 251.9657938028334,315.3015376964057 210.60731852383825,319.9716311753448 159.70457496995402,296.6206481517792 121.04059698346418,284.5233189723369 164.3754653742051,160.22365957772485 258.9800400075695,0Z" name="Ruggell" name_en="Ruggell" gn_name="Ruggell" admin="Liechtenstein" adm0_a3="LIE" iso_3166_2="LI-06" iso_a2="LI" wikidataid="Q49659"/><path d="M205.76496713374556,1119.9161208773703 157.87139754269202,985.6063274496081 112.40601771180859,897.0624032899801 185.15594674689612,922.0016096417015 169.24883810018457,786.7328475575199 210.60731852383825,800.7280818186865 239.24011305917642,852.0401696633002 283.7800110965796,819.3877086911335 356.9527036689859,842.7111385992692 414.21828759469264,856.7046039612595 398.3111789479811,931.3289632338445 379.22265268752,982.6259163937652 318.7756460037403,982.6259163937652 296.5056969848831,1005.9407524893439 293.3242742264751,1108.5114454953937 205.76496713374556,1119.9161208773703Z" name="Vaduz" name_en="Vaduz" gn_name="Vaduz" admin="Liechtenstein" adm0_a3="LIE" iso_3166_2="LI-11" iso_a2="LI" wikidataid="Q1844"/><path d="M525.5680378326797,1462.6640232763555 531.9308833494838,1383.4702509974425 528.7494605910877,1304.2623218493022 573.2893586284789,1294.9428153730591 627.3735249407712,1285.6231054109558 662.3691598479319,1271.6431805722848 700.5462175131775,1374.1524020857776 697.3647947547814,1444.0314657460212 611.4664162937246,1476.6379332527351 525.5680378326797,1462.6640232763555Z" name="Vaduz" name_en="Vaduz" gn_name="Vaduz" admin="Liechtenstein" adm0_a3="LIE" iso_3166_2="LI-11" iso_a2="LI" wikidataid="Q1844"/><path d="M60.34205970355788,553.3372689946775 65.63192912226634,443.40402978672637 121.04059698346418,284.5233189723369 159.70457496995402,296.6206481517792 210.60731852383825,319.9716311753448 185.15594674689612,404.0249916472667 191.51878711871865,488.06238183521987 245.6029534310109,530.0750973626728 315.5942232453323,572.0838178776972 236.0586903011034,600.0874243742531 137.43462595141995,595.4202783902248 60.34205970355788,553.3372689946775Z" name="Gamprin" name_en="Gamprin" gn_name="Gemeinde Gamprin" admin="Liechtenstein" adm0_a3="LIE" iso_3166_2="LI-03" iso_a2="LI" wikidataid="Q49662"/></svg>