<?xml version="1.0"?><svg fill="#3498db" stroke="#ecf0f1" stroke-width="1" width="800" height="784" viewBox="0 0 800 784" xmlns="http://www.w3.org/2000/svg"><path d="M609.1532675014563,75.22387035997838 613.6896915689682,79.16135398317587 617.8939748006912,84.2418462734155 631.0832172440863,107.45900904696974 649.1209474280146,125.91185168094117 653.9016240640568,125.642121932391 661.632079810312,127.76147823796879 668.7013784356172,131.11415480439035 671.7020157101983,134.85254253416795 671.8037320389591,142.17621661773816 673.7024406692902,146.9180793117291 678.0423457820133,149.88686236407673 685.4337463336992,151.8533260330613 696.7242804747876,157.0205955103979 723.7808757507069,185.56886946242722 734.5967328162067,188.84943209824658 747.7181641550928,189.19680243244935 757.6863833981965,193.36549248876662 759.3477534907698,214.87238017562154 763.0265011544814,219.35290373271175 768.163185597216,223.2544799700415 772.6726181431895,228.3155369750174 775.1477198497605,234.65246819645154 778.7417037968894,247.8320375859007 787.896190769853,260.2428011066291 791.2189309549432,268.3255162478367 791.5240805972745,270.6075521130293 791.2189309549432,276.3325866036061 791.557985821499,279.04067547940775 793.0159226004466,281.3233580453308 797.3897329373859,285.65696533193386 798.4068985211118,287.8239555565374 797.2032528920246,293.28067747990036 791.1341669102728,301.951133918203 790.5238679537032,307.8357927181939 790.744253879375,313.2566861126771 789.218505995891,317.4390503980371 786.4721598711966,320.76978393125324 782.7425537150157,323.5585312044291 774.0966493698979,327.3546577712255 764.3318631123115,330.3763385939769 755.075659154501,334.4443687063468 748.1589356783859,341.49666257740176 745.7855503005386,349.36424296804034 745.6852068853739,357.49329495312173 745.5315239553229,357.46638656350626 740.106642616682,356.5165590379118 738.6826111694065,356.78793573569936 737.2585800171396,357.4857712071376 729.4772660185057,363.4178949331026 727.4429355902695,364.63933080856236 718.271495626913,367.41194413992383 715.0674250180534,369.0019267950486 708.9644334383197,374.8001165605707 707.3369693907526,375.40131767683994 704.2685210071314,374.7031493994788 701.8273241982259,373.05474769828606 697.3517972561106,368.59472987542165 694.7580259232188,364.65871915534393 691.0962311524098,356.90424097221785 687.5191999404411,353.6672198663101 682.2807989033439,350.58552498606934 672.5160128478261,346.5932643751597 662.1748327038285,343.5702813913843 659.1741955803396,343.53152680302964 656.5804242474479,344.1516053466682 651.6810783309096,346.690158979185 648.7312992837274,347.4653237898981 645.4763703035155,347.62035893989173 641.7128590850283,347.32966868461483 625.5738369993153,348.1629861568899 621.1491684285343,347.8529123578315 606.2307448947597,343.1246055308276 600.9923438576652,342.40766010190583 586.3790702569202,343.45401740893135 584.0904482670259,342.87270423716916 582.81899193377,340.39253540531854 582.6155587434258,339.11376177080945 582.76813326739,337.75753495903444 582.0391652450168,336.61446685947396 586.3282115905621,332.4880872673739 589.0236996661185,328.2072048633802 590.7528804563694,322.62922802462924 591.3631797323593,314.9608584918172 590.6003056373775,299.4352504097501 591.1088884657057,291.73289322627244 591.1258413544884,291.69419191002885 589.3288493041217,291.17172785408485 587.9556762281792,289.8172241607043 585.5144797143014,288.59821273654705 580.1743619345203,287.43728583886275 576.2413233032861,286.99227353920605 572.8338195040823,287.05031847088793 570.8503477422055,287.8049090149802 569.7314656379081,289.1206415311935 568.6634421999509,290.82342227433827 566.9342614097178,291.81029597774966 564.7473561624716,290.8040722456232 559.915821211038,284.2449213877547 557.2542389130417,282.23290299466356 552.5752787805999,280.54985411151694 549.6763578097243,278.80884847273563 548.5066179241261,276.04274826161037 549.2694917240815,273.663677443019 552.5752787805999,267.6876463251601 562.0010100106073,246.03485613497108 563.1707498962041,240.9714352121312 563.0690334485453,237.12600577107713 561.5941439249644,233.41621219088015 559.966679582371,230.86593987676397 558.1696875320042,229.37835996347886 555.8302077607925,230.13180248823315 552.2701291425968,232.5661022652282 533.3847612000278,248.7794352751293 524.8405731064136,253.57326229118513 511.7530474006043,256.5697121098623 512.7702127622356,249.99716441562845 513.0245037338601,243.07789075932038 514.2451019907901,238.4206543278246 516.7880152473559,233.6480641467558 521.7890779066001,227.81356614727738 525.501730753735,224.47169159784244 529.1635258195911,222.3276380538079 535.5208083709493,220.82107829254923 538.674020608458,219.50771583912908 542.1493350777414,216.9390647530146 569.324599847271,191.976180118235 574.2069925800234,186.4375276279874 576.6481890939025,180.93826907759248 578.9537636775698,173.20205836668805 581.4966769341341,136.68363040338653 582.6155587434258,131.57691713044778 585.3619048953094,126.00848539511779 586.9385108665492,118.5338017240242 595.906517934607,114.50809468767233 597.5339822771812,112.9865259839504 599.6191707817419,110.21318883150812 599.9243204197259,108.49921298399421 599.7208875244095,107.20896715029586 599.0088718007812,106.22686862220327 598.195139629475,105.41810083718403 597.4322655344959,104.4167923310113 596.6693917345597,103.18444907950798 596.0082343822468,101.10495906089089 595.7030847442628,93.05762485700897 598.6528640864701,71.08043747704413 598.958013429429,70.21469327260252 604.1283386249523,72.15753468045006 609.078542694245,75.15901499573657 609.1532675014563,75.22387035997838Z" name="Mokhotlong" name_en="Mokhotlong District" gn_name="Mokhotlong" admin="Lesotho" adm0_a3="LSO" iso_3166_2="LS-J" iso_a2="LS" postal="MK" type="District" type_en="District" wikidataid="Q817340"/><path d="M535.4357796272362,0 541.6404874899689,4.570717055303671 546.0142981549601,9.833472527013274 548.9979828174675,15.980662852687956 550.9984077765306,23.281722030873333 553.3717934824313,38.54154962313653 556.8301548924176,43.77048563155506 571.3756177860572,44.15499435492877 576.2241055266261,48.23102099263687 585.7515532464272,66.19374817672728 588.4639938188727,68.27134949986355 598.7034571520355,70.1182001284337 598.958013429429,70.21469327260252 598.6528640864701,71.08043747704413 595.7030847442628,93.05762485700897 596.0082343822468,101.10495906089089 596.6693917345597,103.18444907950798 597.4322655344959,104.4167923310113 598.195139629475,105.41810083718403 599.0088718007812,106.22686862220327 599.7208875244095,107.20896715029586 599.9243204197259,108.49921298399421 599.6191707817419,110.21318883150812 597.5339822771812,112.9865259839504 595.906517934607,114.50809468767233 586.9385108665492,118.5338017240242 578.1908898776157,120.82613992554346 576.0378901129418,121.94346384003963 574.3595673990154,123.44612257493576 570.4943397328872,128.32053857568076 561.6450022962974,142.0223204128141 559.8649628396856,145.81960362582353 558.6443645827544,149.81004935508213 556.7965144560644,161.7646029817574 555.8810658371184,164.77311209497498 554.2027431231727,167.72399585399174 552.1175543236048,170.28932889233295 549.3203500954145,172.7390934122216 546.3705707532044,174.68744338027093 542.7087759823776,176.42368099324918 538.7757370561155,177.7548501882944 534.7070761996445,178.62302912662273 531.1469978764751,179.00889240628058 527.434344439286,178.79666728698965 524.026841230135,178.21787638296564 509.41356733438414,172.6040628579375 506.7180792588071,172.31471313614327 504.36164659883326,172.66193279717987 502.7341822562399,173.8193543866579 501.4118675516331,175.86421828291554 497.2923483238276,184.2377288309526 496.2751829621949,185.85862099897605 494.7494350672618,186.95855098152103 492.1556637343893,186.53401303339592 489.561892401499,184.27632066828002 486.61211335431676,178.06353346936268 485.67971184659206,173.37567184139468 485.7475225166702,169.07414982896492 492.7151046390255,144.77868679278782 493.0202542770287,141.21279597888892 492.4608133723746,137.16543116502638 490.8842071061071,132.02011415526692 490.1213333061531,127.85811643365169 489.86704203950217,123.5039184609684 489.2567427635151,119.57400558976906 487.7309948685806,115.52892785432823 483.3402317803526,113.2176462750718 480.6956023711735,112.63984782506441 475.30462622003876,112.52428891207273 471.8462646395547,112.00427945540811 468.99820174500496,110.86798657117987 466.387477818361,108.82659565286367 463.2851239521867,104.89818740799075 460.2844862386258,101.99065394919427 455.55466832488594,99.6031751184354 452.0454480780411,98.46724989433025 448.2819365645275,96.48427360737486 436.720158458625,88.32242214743346 432.34634796416856,86.80189180277533 428.464167409241,86.59017677553203 425.66696288602566,87.34080710253863 423.02233318180095,87.55252593191153 414.6815782785309,85.82031527673946 412.69810622162765,84.14591900256384 411.20626380924756,80.87432169012496 409.782232361972,72.69654523863285 409.68051591431305,59.69265126948369 408.15476801937996,54.50001556978168 401.39061908734965,50.19258233277085 398.90310674552757,48.29904324883681 403.0347715813961,47.884926784439145 409.6463454152127,50.80759998933909 417.2072737281983,51.61522021994478 424.8021075934534,50.61531214816112 431.4136814272398,48.07720100218842 437.72010594678665,42.34783717943814 446.60334915775,27.0865047100511 452.9775847818318,20.706980579898104 459.69087527240214,17.90186067098444 505.36159413657856,14.866412072183984 511.87145164163303,13.291146568444328 530.5533866624593,0.6145185107248654 535.4357796272362,0Z" name="Butha-Buthe" name_en="Butha-Buthe District" gn_name="Butha-Buthe" admin="Lesotho" adm0_a3="LSO" iso_3166_2="LS-B" iso_a2="LS" postal="BB" type="District" type_en="District" wikidataid="Q535632"/><path d="M381.1657189125645,50.076910999947096 398.90310674552757,48.29904324883681 401.39061908734965,50.19258233277085 408.15476801937996,54.50001556978168 409.68051591431305,59.69265126948369 409.782232361972,72.69654523863285 411.20626380924756,80.87432169012496 412.69810622162765,84.14591900256384 414.6815782785309,85.82031527673946 423.02233318180095,87.55252593191153 425.66696288602566,87.34080710253863 428.464167409241,86.59017677553203 432.34634796416856,86.80189180277533 436.720158458625,88.32242214743346 448.2819365645275,96.48427360737486 452.0454480780411,98.46724989433025 455.55466832488594,99.6031751184354 460.2844862386258,101.99065394919427 463.2851239521867,104.89818740799075 466.387477818361,108.82659565286367 468.99820174500496,110.86798657117987 471.8462646395547,112.00427945540811 475.30462622003876,112.52428891207273 480.6956023711735,112.63984782506441 483.3402317803526,113.2176462750718 487.7309948685806,115.52892785432823 489.2567427635151,119.57400558976906 489.86704203950217,123.5039184609684 490.1213333061531,127.85811643365169 490.8842071061071,132.02011415526692 492.4608133723746,137.16543116502638 493.0202542770287,141.21279597888892 492.7151046390255,144.77868679278782 485.7475225166702,169.07414982896492 485.67971184659206,173.37567184139468 486.61211335431676,178.06353346936268 489.561892401499,184.27632066828002 492.1556637343893,186.53401303339592 494.7494350672618,186.95855098152103 496.2751829621949,185.85862099897605 497.2923483238276,184.2377288309526 501.4118675516331,175.86421828291554 502.7341822562399,173.8193543866579 504.36164659883326,172.66193279717987 506.7180792588071,172.31471313614327 509.41356733438414,172.6040628579375 524.026841230135,178.21787638296564 527.434344439286,178.79666728698965 531.1469978764751,179.00889240628058 534.7070761996445,178.62302912662273 538.7757370561155,177.7548501882944 542.7087759823776,176.42368099324918 546.3705707532044,174.68744338027093 549.3203500954145,172.7390934122216 552.1175543236048,170.28932889233295 554.2027431231727,167.72399585399174 555.8810658371184,164.77311209497498 556.7965144560644,161.7646029817574 558.6443645827544,149.81004935508213 559.8649628396856,145.81960362582353 561.6450022962974,142.0223204128141 570.4943397328872,128.32053857568076 574.3595673990154,123.44612257493576 576.0378901129418,121.94346384003963 578.1908898776157,120.82613992554346 586.9385108665492,118.5338017240242 585.3619048953094,126.00848539511779 582.6155587434258,131.57691713044778 581.4966769341341,136.68363040338653 578.9537636775698,173.20205836668805 576.6481890939025,180.93826907759248 574.2069925800234,186.4375276279874 569.324599847271,191.976180118235 542.1493350777414,216.9390647530146 538.674020608458,219.50771583912908 535.5208083709493,220.82107829254923 529.1635258195911,222.3276380538079 525.501730753735,224.47169159784244 521.7890779066001,227.81356614727738 516.7880152473559,233.6480641467558 514.2451019907901,238.4206543278246 513.0245037338601,243.07789075932038 512.7702127622356,249.99716441562845 511.7530474006043,256.5697121098623 512.0073386672552,260.59112710335165 512.5667792768636,261.96391956981927 513.9908110191669,264.4582752461687 523.2639671351545,276.7390898804018 525.501730753735,278.80884847273563 529.2143838958964,281.6138417024751 530.5366988955323,283.4323624737792 530.8927066098228,284.7672899883209 529.8755412481914,286.12161228539367 527.9937856389678,287.49533179100865 525.5525888300417,288.36602470483086 515.7708498857246,289.19803892935397 512.1599134862486,288.90779933562504 507.43009498245453,287.16640826509496 491.189356744091,278.18984325320247 480.44131080949484,274.1665576671431 471.23596536356763,272.0970538122127 467.9810366784014,271.86496644220347 464.30228931381805,270.43379559933715 461.0982187049585,267.4169102062213 452.96089669698847,250.90565471244605 444.0437480002637,225.4568380123791 440.17852003910906,217.8274507809823 439.05963852484655,214.10023119931031 438.9070637058532,210.41199577421725 439.11049660117106,207.071651287251 438.85620562954654,204.4652276652969 437.5338906299121,202.43813294775936 435.3978437540361,201.1640146851136 433.00750561149005,200.41114623256368 427.80301005694724,199.48455971667843 424.5989394480863,199.34943433150843 421.29315239156784,199.87063474564144 417.5804992494065,200.93236085346769 414.12213737387543,204.34939085786817 403.1706585439628,201.33775531251905 400.0174460114264,197.34191484722618 398.49169811649466,194.3501350000158 396.66080117361116,191.3778896000965 390.99858116207184,184.39209675059254 387.6419360292467,181.1505061215129 383.87842451575096,178.29504790623477 380.62349583056556,176.65518547202382 377.419425221706,175.6905934779 370.38403242925193,174.4559511840142 366.97652892509376,173.37567184139468 363.9758912115328,171.2152056221289 361.33126180233586,167.2032352961849 359.29693137411743,162.74812812935662 357.0083096792317,158.79489668267337 354.2450106385679,155.59404319020413 346.8197043542247,149.34736765998872 342.70018542144555,144.68230690159723 338.56371330484205,141.15497367645946 334.49505244836956,138.4374140127849 330.7315412299002,136.8763501140062 327.4257538783553,136.47164037972152 324.3234000121811,138.03268776180022 320.6616052413514,142.8318616503596 318.55946355298283,149.2316981954107 315.91483414378587,153.66594793925216 311.69359817329496,156.40387266382615 308.64210238342605,159.62407732831252 299.31808819113314,173.95438924394597 296.26659240126423,176.67447737954066 292.3505060687573,179.2982925972018 286.8069556887039,178.95101249745878 283.3994521845265,178.15999767514805 280.53443669620526,176.67447737954066 275.44861047810144,172.9127047794096 272.65140624991113,171.44667814830453 269.95591817435337,171.56241493816395 257.78384079246376,179.60698871269653 255.39350235490915,180.8610918669069 252.5454400503957,182.01876240805953 248.7310704605741,182.96421911890494 236.35555988835674,191.31999089736934 232.59204837484316,192.32357896991718 228.47252944206397,190.56731745209962 224.38691569681276,189.8146588827554 218.94508146937133,189.8725552968625 210.24831885179148,193.8290101742829 207.43758839931155,193.82901010402702 206.21329854608697,186.91965513412367 208.43410943082193,184.3724991303834 210.6888255397813,186.91965513412367 212.31628975203574,186.30214743649879 215.35083290693834,184.75842104774975 217.43602158265688,184.3724991303834 214.5879588011511,180.66784884592533 210.48539255426408,176.46196374545102 208.97659728288397,173.02814464072878 214.1810928300974,171.60069285443893 218.26670646489967,169.78752018265442 222.28450932321894,165.46711586209022 228.62483939500376,156.326444256036 229.8793431884727,155.86368338923452 231.43899629618255,156.36500757264955 232.76131119415896,156.48069887560888 233.3037990461922,154.93817884940418 233.32075198634817,152.20035962786943 233.6767597930297,151.04359348560575 234.40572834654878,149.84830558641042 235.16860212428404,147.84338959426447 235.50765731885338,144.83621316752007 235.5415628711202,139.6705911434406 238.22009789129885,136.70260125151108 243.3906878862633,134.92962626375032 246.89990811674497,132.0390827959727 244.4926168585679,125.7577203231886 281.8564865721589,128.30096987214813 290.6041075740976,124.37056453083039 293.6556033410836,118.74539168482505 295.7238390766585,112.85140531168673 298.36846887259213,107.92118458728984 303.1491455086453,105.18672630237427 309.31994814715364,105.95697682156732 313.2190810804989,109.5388435937852 316.27057684748485,113.46772753404025 319.9662774513715,115.35527604114223 328.8834258865785,115.35527604114223 331.79929944451237,114.50779352482095 332.2061654155647,112.31213158943878 332.1044490868328,109.42329449810475 333.49457508932636,106.45764769358333 345.9039908148494,89.93895443142853 360.4494537084603,74.427863994337 361.50052451641193,72.27297169921783 370.5532948325628,58.96149303181612 374.9271054975554,53.53819283981607 378.1820342501149,48.923219477301515 381.1657189125645,50.076910999947096Z" name="Leribe" name_en="Leribe District" gn_name="Leribe District" admin="Lesotho" adm0_a3="LSO" iso_3166_2="LS-C" iso_a2="LS" postal="LE" type="District" type_en="District" wikidataid="Q819987"/><path d="M660.5833644109506,526.7865320921137 647.6291050967877,534.8277290344623 609.4854086652684,559.8834908637014 588.3622774901215,568.577091901574 566.6627522545486,573.2561104444864 537.1988660485139,584.4491677632336 526.111765221003,584.37115588611 510.1761763248711,578.2087169370562 504.6834837474399,577.5847298227967 499.36031925936175,578.8717148537196 485.1200060080438,587.4137523136717 477.01658984300303,590.3005496544758 461.1827176036565,587.9988953837089 453.2827344241618,589.2472325398909 446.7898295311825,594.9433065826805 444.00420453601697,600.2081564562742 443.9081263650974,600.0747330142212 438.24590635355946,592.2125071623525 436.66930008729196,591.2371618544511 434.68582773536235,590.2813483039376 432.7023559735061,590.6519671234812 430.24420627579855,590.7690052586657 401.7974854680395,587.2775247883569 398.18654877351787,585.6781858431028 395.745351964611,583.2403027903196 394.5247540026882,580.783079896152 394.0670298407387,578.3065206642971 394.0670298407387,575.4791561472161 394.47389563135516,572.3790535065297 395.9996435262883,565.9457096555341 397.52539142122276,563.0803078574892 400.11916275409385,560.3905410694011 410.13824007628176,555.1480076339199 416.4107590687626,554.699795605855 417.93650696369707,553.2772463595142 418.90281424902173,550.3543710744127 416.71590870676715,543.9053773216204 414.18994863400917,535.334435993258 415.8513184591542,534.1463481581104 425.97211252400956,529.1217439939342 437.8390402679152,531.6534360781083 441.483882444972,535.2565275041775 446.840952523479,544.762580662333 448.06155078042957,546.2042854891944 448.9261413230689,545.6392862532432 450.3671253640968,545.2496366463722 461.8102341335603,537.5938551819318 469.04906041136576,531.5950106727495 470.7782412016167,530.4654669947503 472.3039890965512,529.6475425472408 474.13488633444183,528.9464793548183 476.1692167626781,527.310716600877 478.8138464669028,524.7598491342404 482.9333656947084,518.6852083931108 486.2052469736461,515.6482610496113 489.6636088491579,513.2149894852107 500.9032847233036,508.67979655389604 504.73460720192315,506.6946077572591 507.12494563949696,504.3008446098607 508.54897679174474,499.94186755150594 508.4981187154189,495.27210296392394 506.5655044398152,483.8531093756672 507.2266620871367,476.812820709449 509.2101344390663,467.5380098337559 509.3118505916974,459.50948373612863 504.48031593527224,450.6082020120237 510.02386661035337,448.52895118734256 513.2279369241866,448.33463440895986 517.5508890473086,448.5095193286628 524.2302741254515,450.04465519194946 533.3847612000278,453.6398407347852 539.6911856750615,457.2548095056841 545.7602717722451,461.80317164474195 548.0997515434568,464.09700080689095 549.8289326287163,466.5465000260991 550.7952396190145,469.3655671460166 551.0495308856655,472.6709527490378 550.4392316096784,479.8465936999134 550.5918064286703,482.91951378433714 551.354680228623,485.2924484798874 552.8804281235562,487.295945785181 554.7113256564745,488.7548710668874 556.1353571037693,489.4162691945318 560.2887818141264,487.5293701311394 562.7130254392268,485.0201366616007 564.7982142387962,482.33602852733276 567.1376943050163,480.002178706405 570.2739539487906,478.54359646922245 573.3932604087171,478.71862364266184 576.4786616811376,479.7104574800434 579.6149213248913,480.0605229554739 582.920708086382,478.3296762764594 585.4805742317485,473.6431807365438 584.5990308003085,468.89894849833803 582.513842295767,464.2719597175908 583.0224248290687,464.1553204652458 586.0739206189362,463.4554922842824 592.8380692559401,463.39717372184026 597.6356987248402,464.3497197604406 602.0603672956224,466.2548845989778 619.7251369812587,480.7023181053067 624.5566719327117,482.8222654928494 629.8459310461142,483.42520845834383 636.5761744955901,482.53052248286775 641.8145752376595,480.8773550991052 646.6969685604647,478.3296762764594 651.7997473723209,472.65150829268083 654.1392274385424,468.4712191993384 655.4615421431505,464.29139945936447 658.0553134760216,441.22334384369515 659.88621100894,438.289846077037 663.0394232464665,436.5415131335549 669.8205247722697,438.1732877513562 680.8567677510948,442.4084650743919 687.5870109055456,443.10789818851373 692.503309710886,441.8644705320798 692.6716236548468,441.8219014637838 692.2487534810549,450.19981208619873 690.2822340742681,460.1506211056318 690.112706312941,469.1708381340909 694.8933829489654,475.8985438052784 699.0298550761712,479.1267184772663 699.9453036750419,481.81059540815914 699.7418706895261,485.15598865025805 700.4538863028795,490.44699190197093 704.047869921929,497.6844372421081 704.8276966398174,501.38152595892444 702.725555352032,504.6119158448992 698.9620439716637,506.48022097348496 690.2822340742681,509.04929395985005 686.281384156087,510.83996553482797 660.5833644109506,526.7865320921137Z" name="Qacha's Nek" name_en="Qacha's Nek District" gn_name="Qacha's Nek" admin="Lesotho" adm0_a3="LSO" iso_3166_2="LS-H" iso_a2="LS" postal="QN" type="District" type_en="District" wikidataid="Q850423"/><path d="M745.6852068853739,357.49329495312173 745.6668810316219,358.97810420637336 747.9215971405908,367.93516443148184 752.6005574478943,373.75258244904984 747.2434870795247,377.43741370864575 746.7349044516775,383.29510152802504 746.8027155561946,389.5029221602844 743.107014952308,394.19826924297365 717.847411649936,401.99927961011707 708.3199639301334,409.53015570999895 702.9967994420554,418.926467506259 698.8433747027661,429.568118439336 692.7234305566229,440.7956289646562 692.6716236548468,441.8219014637838 692.503309710886,441.8644705320798 687.5870109055456,443.10789818851373 680.8567677510948,442.4084650743919 669.8205247722697,438.1732877513562 663.0394232464665,436.5415131335549 659.88621100894,438.289846077037 658.0553134760216,441.22334384369515 655.4615421431505,464.29139945936447 654.1392274385424,468.4712191993384 651.7997473723209,472.65150829268083 646.6969685604647,478.3296762764594 641.8145752376595,480.8773550991052 636.5761744955901,482.53052248286775 629.8459310461142,483.42520845834383 624.5566719327117,482.8222654928494 619.7251369812587,480.7023181053067 602.0603672956224,466.2548845989778 597.6356987248402,464.3497197604406 592.8380692559401,463.39717372184026 586.0739206189362,463.4554922842824 583.0224248290687,464.1553204652458 582.513842295767,464.2719597175908 584.5990308003085,468.89894849833803 585.4805742317485,473.6431807365438 582.920708086382,478.3296762764594 579.6149213248913,480.0605229554739 576.4786616811376,479.7104574800434 573.3932604087171,478.71862364266184 570.2739539487906,478.54359646922245 567.1376943050163,480.002178706405 564.7982142387962,482.33602852733276 562.7130254392268,485.0201366616007 560.2887818141264,487.5293701311394 556.1353571037693,489.4162691945318 554.7113256564745,488.7548710668874 552.8804281235562,487.295945785181 551.354680228623,485.2924484798874 550.5918064286703,482.91951378433714 550.4392316096784,479.8465936999134 551.0495308856655,472.6709527490378 550.7952396190145,469.3655671460166 549.8289326287163,466.5465000260991 548.0997515434568,464.09700080689095 545.7602717722451,461.80317164474195 539.6911856750615,457.2548095056841 533.3847612000278,453.6398407347852 524.2302741254515,450.04465519194946 517.5508890473086,448.5095193286628 513.2279369241866,448.33463440895986 510.02386661035337,448.52895118734256 504.48031593527224,450.6082020120237 495.15630115290463,457.70184631009727 491.95223083907285,461.9781197800852 483.40804274545854,463.20277939881623 475.9318780897987,465.6522197956863 467.3876902912122,471.1737711792451 459.3690376196812,476.07386167600345 453.48643211907034,477.901838904652 447.0782909013498,474.8487788953581 439.07659111861807,477.901838904652 437.4660796648254,484.0476116051909 437.4660796648254,489.5524409579717 432.6514976021538,490.7780086048756 426.24335638443335,491.4005348821831 419.83521575676707,495.0775423207295 416.6311451479075,488.94939894513243 413.9695625548835,484.0476116051909 409.1549804922312,482.19988319446134 404.88288644541444,479.7493534436739 404.28954005822527,477.026732518064 399.4071470304657,454.02853027687456 394.47389563135516,445.0896969629038 402.7468395695385,435.04578214962413 394.7281868980061,426.4804772582428 387.7436521818792,425.52889819225857 382.81040107779376,406.482988905609 382.3526766208179,403.20286883010544 382.7595427064607,399.3020349341899 374.30011876176025,350.72119184214836 373.4355282191209,347.87229204288593 372.2657880384962,346.24444613819145 369.6211583342729,345.08174216606756 368.85828453433663,343.647790350669 368.29884392471035,341.7101045121817 367.63768627738887,340.1600274454991 365.5524977728459,339.2687624940693 364.68790693517883,338.3000198842109 363.7216002399083,336.71133609639566 361.8398443356376,334.5415342630735 360.7718208976996,332.15877172565416 360.16152162171255,328.9432493819638 361.0261121643519,323.4038980333821 360.67010445004075,319.7243591302862 361.0261121643519,316.200085650953 361.7889862593324,313.00528661765003 363.00958451628014,309.4235618243918 364.5353324112146,306.268053801848 366.36622964910526,304.3129326623212 368.90914261064466,303.9645058028633 373.0795202098025,302.29984437020875 376.30054370744216,300.53848050898637 394.0670298407387,284.0127601075711 397.3219585259049,278.8862244170229 398.33912359250985,276.971206490858 401.0854697443921,272.59991320724356 402.66207601065963,270.89795352905094 416.9702002684458,260.1270958974363 419.5639716013169,257.03369972576854 421.08971949625135,253.22530308792813 421.03886082989055,247.36846486221535 416.5124758114493,236.33377994818258 414.7832950212162,230.73070286891968 413.76612965958486,228.41243062593486 412.59638947896156,226.3261061732827 409.9856655523162,222.61736824598145 408.91764181933263,217.07425265708872 414.12213737387543,204.34939085786817 417.5804992494065,200.93236085346769 421.29315239156784,199.87063474564144 424.5989394480863,199.34943433150843 427.80301005694724,199.48455971667843 433.00750561149005,200.41114623256368 435.3978437540361,201.1640146851136 437.5338906299121,202.43813294775936 438.85620562954654,204.4652276652969 439.11049660117106,207.071651287251 438.9070637058532,210.41199577421725 439.05963852484655,214.10023119931031 440.17852003910906,217.8274507809823 444.0437480002637,225.4568380123791 452.96089669698847,250.90565471244605 461.0982187049585,267.4169102062213 464.30228931381805,270.43379559933715 467.9810366784014,271.86496644220347 471.23596536356763,272.0970538122127 480.44131080949484,274.1665576671431 491.189356744091,278.18984325320247 507.43009498245453,287.16640826509496 512.1599134862486,288.90779933562504 515.7708498857246,289.19803892935397 525.5525888300417,288.36602470483086 527.9937856389678,287.49533179100865 529.8755412481914,286.12161228539367 530.8927066098228,284.7672899883209 530.5366988955323,283.4323624737792 529.2143838958964,281.6138417024751 525.501730753735,278.80884847273563 523.2639671351545,276.7390898804018 513.9908110191669,264.4582752461687 512.5667792768636,261.96391956981927 512.0073386672552,260.59112710335165 511.7530474006043,256.5697121098623 524.8405731064136,253.57326229118513 533.3847612000278,248.7794352751293 552.2701291425968,232.5661022652282 555.8302077607925,230.13180248823315 558.1696875320042,229.37835996347886 559.966679582371,230.86593987676397 561.5941439249644,233.41621219088015 563.0690334485453,237.12600577107713 563.1707498962041,240.9714352121312 562.0010100106073,246.03485613497108 552.5752787805999,267.6876463251601 549.2694917240815,273.663677443019 548.5066179241261,276.04274826161037 549.6763578097243,278.80884847273563 552.5752787805999,280.54985411151694 557.2542389130417,282.23290299466356 559.915821211038,284.2449213877547 564.7473561624716,290.8040722456232 566.9342614097178,291.81029597774966 568.6634421999509,290.82342227433827 569.7314656379081,289.1206415311935 570.8503477422055,287.8049090149802 572.8338195040823,287.05031847088793 576.2413233032861,286.99227353920605 580.1743619345203,287.43728583886275 585.5144797143014,288.59821273654705 587.9556762281792,289.8172241607043 589.3288493041217,291.17172785408485 591.1258413544884,291.69419191002885 591.1088884657057,291.73289322627244 590.6003056373775,299.4352504097501 591.3631797323593,314.9608584918172 590.7528804563694,322.62922802462924 589.0236996661185,328.2072048633802 586.3282115905621,332.4880872673739 582.0391652450168,336.61446685947396 582.76813326739,337.75753495903444 582.6155587434258,339.11376177080945 582.81899193377,340.39253540531854 584.0904482670259,342.87270423716916 586.3790702569202,343.45401740893135 600.9923438576652,342.40766010190583 606.2307448947597,343.1246055308276 621.1491684285343,347.8529123578315 625.5738369993153,348.1629861568899 641.7128590850283,347.32966868461483 645.4763703035155,347.62035893989173 648.7312992837274,347.4653237898981 651.6810783309096,346.690158979185 656.5804242474479,344.1516053466682 659.1741955803396,343.53152680302964 662.1748327038285,343.5702813913843 672.5160128478261,346.5932643751597 682.2807989033439,350.58552498606934 687.5191999404411,353.6672198663101 691.0962311524098,356.90424097221785 694.7580259232188,364.65871915534393 697.3517972561106,368.59472987542165 701.8273241982259,373.05474769828606 704.2685210071314,374.7031493994788 707.3369693907526,375.40131767683994 708.9644334383197,374.8001165605707 715.0674250180534,369.0019267950486 718.271495626913,367.41194413992383 727.4429355902695,364.63933080856236 729.4772660185057,363.4178949331026 737.2585800171396,357.4857712071376 738.6826111694065,356.78793573569936 740.106642616682,356.5165590379118 745.5315239553229,357.46638656350626 745.6852068853739,357.49329495312173Z" name="Thaba-Tseka" name_en="Thaba-Tseka District" gn_name="Thaba-Tseka" admin="Lesotho" adm0_a3="LSO" iso_3166_2="LS-K" iso_a2="LS" postal="TT" type="District" type_en="District" wikidataid="Q817327"/><path d="M166.8266772721326,261.0096765362588 169.52753889355387,260.126793684843 172.7994205862405,257.34272591873406 172.25693240616351,253.01236074771745 170.20564928272137,244.31446113255268 170.3751767159883,240.7199119953944 172.56208204845646,237.39622383383775 175.86786896536887,235.42533696517322 179.22451437468484,234.1501119574126 181.59790008061296,232.8362881604614 200.3815511021096,209.8131135466592 207.80685753412385,195.91325044092667 207.43758839931155,193.82901010402702 210.24831885179148,193.8290101742829 218.94508146937133,189.8725552968625 224.38691569681276,189.8146588827554 228.47252944206397,190.56731745209962 232.59204837484316,192.32357896991718 236.35555988835674,191.31999089736934 248.7310704605741,182.96421911890494 252.5454400503957,182.01876240805953 255.39350235490915,180.8610918669069 257.78384079246376,179.60698871269653 269.95591817435337,171.56241493816395 272.65140624991113,171.44667814830453 275.44861047810144,172.9127047794096 280.53443669620526,176.67447737954066 283.3994521845265,178.15999767514805 286.8069556887039,178.95101249745878 292.3505060687573,179.2982925972018 296.26659240126423,176.67447737954066 299.31808819113314,173.95438924394597 308.64210238342605,159.62407732831252 311.69359817329496,156.40387266382615 315.91483414378587,153.66594793925216 318.55946355298283,149.2316981954107 320.6616052413514,142.8318616503596 324.3234000121811,138.03268776180022 327.4257538783553,136.47164037972152 330.7315412299002,136.8763501140062 334.49505244836956,138.4374140127849 338.56371330484205,141.15497367645946 342.70018542144555,144.68230690159723 346.8197043542247,149.34736765998872 354.2450106385679,155.59404319020413 357.0083096792317,158.79489668267337 359.29693137411743,162.74812812935662 361.33126180233586,167.2032352961849 363.9758912115328,171.2152056221289 366.97652892509376,173.37567184139468 370.38403242925193,174.4559511840142 377.419425221706,175.6905934779 380.62349583056556,176.65518547202382 383.87842451575096,178.29504790623477 387.6419360292467,181.1505061215129 390.99858116207184,184.39209675059254 396.66080117361116,191.3778896000965 398.49169811649466,194.3501350000158 400.0174460114264,197.34191484722618 403.1706585439628,201.33775531251905 414.12213737387543,204.34939085786817 408.91764181933263,217.07425265708872 409.9856655523162,222.61736824598145 412.59638947896156,226.3261061732827 413.76612965958486,228.41243062593486 414.7832950212162,230.73070286891968 416.5124758114493,236.33377994818258 421.03886082989055,247.36846486221535 421.08971949625135,253.22530308792813 419.5639716013169,257.03369972576854 416.9702002684458,260.1270958974363 402.66207601065963,270.89795352905094 401.0854697443921,272.59991320724356 398.33912359250985,276.971206490858 397.3219585259049,278.8862244170229 394.0670298407387,284.0127601075711 384.4887234966938,268.8479669286449 383.06469234444603,268.32581820331865 381.2846531828593,267.88103045319605 380.52177908788025,269.19607008211295 379.4028975736356,270.3564369468097 378.131440945352,271.226735199816 371.04518978156625,273.7023599632041 368.5022768200282,274.97891744336033 366.3153715727986,276.7390898804018 362.55186005928505,281.43973256198586 351.9563889436808,289.75917497728454 344.378508135372,297.4030688863304 341.0727207838271,299.4352504097501 338.56371330484205,298.81590743127487 336.52938258157803,296.6095801740418 335.5122178100009,293.82282488923636 335.2579262483222,290.3977195549162 335.9699419719696,282.1361739362484 335.9699419719696,278.3059058336271 335.6647923339843,274.8048388553984 333.2744538964118,264.14888876170016 332.20643045845463,261.05516399644057 330.7315412299002,258.7930376464309 329.00236014462286,258.7157024457658 326.9680297163852,260.7458056600962 320.86503813665144,269.8922856609604 318.00002264834797,273.1994855745353 311.18501563999183,278.59606434848126 304.98030790764335,282.0007537376867 301.4032766956747,283.335630682017 291.68934871646354,285.2896654736301 287.7732623839566,284.7285958076973 284.77262526046906,283.6258271368066 264.9209500325754,271.8262854645066 259.6147383254,270.0083231168437 255.95294355457173,269.5635155873067 252.59629812672023,269.6602124900003 246.57807069589884,271.0720141368124 244.13687388699196,272.2324382080279 242.3568347254066,273.7023599632041 241.23795321114412,275.7912946705617 240.67851201148153,278.07378102906335 239.86478013522083,280.54985411151694 238.18645742127515,282.29094027922815 233.30406409848916,283.2002061854945 227.9639466137358,281.2075885133829 218.23306604076956,279.2344199776134 213.19809819400015,276.8358051299051 204.99296492589502,270.89795352905094 202.3991938880517,270.25973792803853 200.11057219316456,271.36211648075107 196.29620260334292,276.62303210950114 193.04127391817673,279.46655224530286 189.05737662056384,281.2075885133829 181.68292841254646,282.3683236883853 177.97027527038375,282.02009925823324 174.91877948051618,280.54985411151694 173.44389025196173,278.34459343961976 172.5623468205231,276.13946173004695 172.5284413379701,274.4180004550326 172.73187452831434,273.23816795654017 174.30848049955546,269.08003511739594 174.2067640519144,268.05507718175824 173.64732314726172,267.22352845007885 172.35891392522444,266.4886857796463 170.73144958263106,266.0052449320507 169.45999295434885,265.2704265901832 168.5445443354042,264.4582752461687 167.06965451677638,261.6158829287621 166.8266772721326,261.0096765362588Z" name="Berea" name_en="Berea District" gn_name="Berea" admin="Lesotho" adm0_a3="LSO" iso_3166_2="LS-D" iso_a2="LS" postal="BE" type="District" type_en="District" wikidataid="Q737086"/><path d="M112.43066400729852,341.0703876793426 114.1937501005517,339.48158651579854 115.58387610304663,332.7396165299205 119.21176527436283,326.8898054940715 132.8417795691304,311.97883380320644 135.01173196144262,310.3525392950651 136.30014130715088,308.1068192180075 136.77481838274778,303.3447859336307 135.8254642315814,300.40269221276947 133.89285037705463,298.0801480237423 132.57053547907682,295.9125699680948 133.35036219694746,293.3193801272154 136.30014130715088,290.9198711539751 139.31773152188788,289.91367053570167 142.3692272889027,288.2496287228384 145.5563452649792,283.9157240992336 146.370077207066,280.54955200897325 147.01428171590373,271.8453238123062 147.99754174737242,268.82832579814175 153.4393755043371,265.3861473230509 166.8266772721326,261.0096765362588 167.06965451677638,261.6158829287621 168.5445443354042,264.4582752461687 169.45999295434885,265.2704265901832 170.73144958263106,266.0052449320507 172.35891392522444,266.4886857796463 173.64732314726172,267.22352845007885 174.2067640519144,268.05507718175824 174.30848049955546,269.08003511739594 172.73187452831434,273.23816795654017 172.5284413379701,274.4180004550326 172.5623468205231,276.13946173004695 173.44389025196173,278.34459343961976 174.91877948051618,280.54985411151694 177.97027527038375,282.02009925823324 181.68292841254646,282.3683236883853 189.05737662056384,281.2075885133829 193.04127391817673,279.46655224530286 196.29620260334292,276.62303210950114 200.11057219316456,271.36211648075107 202.3991938880517,270.25973792803853 204.99296492589502,270.89795352905094 213.19809819400015,276.8358051299051 218.23306604076956,279.2344199776134 227.9639466137358,281.2075885133829 233.30406409848916,283.2002061854945 238.18645742127515,282.29094027922815 239.86478013522083,280.54985411151694 240.67851201148153,278.07378102906335 241.23795321114412,275.7912946705617 242.3568347254066,273.7023599632041 244.13687388699196,272.2324382080279 246.57807069589884,271.0720141368124 252.59629812672023,269.6602124900003 255.95294355457173,269.5635155873067 259.6147383254,270.0083231168437 264.9209500325754,271.8262854645066 284.77262526046906,283.6258271368066 287.7732623839566,284.7285958076973 291.68934871646354,285.2896654736301 301.4032766956747,283.335630682017 304.98030790764335,282.0007537376867 311.18501563999183,278.59606434848126 318.00002264834797,273.1994855745353 320.86503813665144,269.8922856609604 326.9680297163852,260.7458056600962 329.00236014462286,258.7157024457658 330.7315412299002,258.7930376464309 332.20643045845463,261.05516399644057 333.2744538964118,264.14888876170016 335.6647923339843,274.8048388553984 335.9699419719696,278.3059058336271 335.9699419719696,282.1361739362484 335.2579262483222,290.3977195549162 335.5122178100009,293.82282488923636 336.52938258157803,296.6095801740418 338.56371330484205,298.81590743127487 341.0727207838271,299.4352504097501 344.378508135372,297.4030688863304 351.9563889436808,289.75917497728454 362.55186005928505,281.43973256198586 366.3153715727986,276.7390898804018 368.5022768200282,274.97891744336033 371.04518978156625,273.7023599632041 378.131440945352,271.226735199816 379.4028975736356,270.3564369468097 380.52177908788025,269.19607008211295 381.2846531828593,267.88103045319605 383.06469234444603,268.32581820331865 384.4887234966938,268.8479669286449 394.0670298407387,284.0127601075711 376.30054370744216,300.53848050898637 373.0795202098025,302.29984437020875 368.90914261064466,303.9645058028633 366.36622964910526,304.3129326623212 364.5353324112146,306.268053801848 363.00958451628014,309.4235618243918 361.7889862593324,313.00528661765003 361.0261121643519,316.200085650953 360.67010445004075,319.7243591302862 361.0261121643519,323.4038980333821 360.16152162171255,328.9432493819638 360.7718208976996,332.15877172565416 361.8398443356376,334.5415342630735 363.7216002399083,336.71133609639566 364.68790693517883,338.3000198842109 365.5524977728459,339.2687624940693 367.63768627738887,340.1600274454991 368.29884392471035,341.7101045121817 368.85828453433663,343.647790350669 369.6211583342729,345.08174216606756 372.2657880384962,346.24444613819145 373.4355282191209,347.87229204288593 374.30011876176025,350.72119184214836 382.7595427064607,399.3020349341899 382.3526766208179,403.20286883010544 382.81040107779376,406.482988905609 387.7436521818792,425.52889819225857 374.43574069197075,423.41220680382986 366.95957603629444,423.41220680382986 356.8048761938597,422.79081535911985 348.786223817355,425.2570227181928 346.1246415193766,428.9275069043495 352.5327827371163,432.59835153517764 357.3304119109693,441.1650603915188 358.9409233647812,448.5095193286628 360.5514351136017,455.2529286110129 360.5514351136017,458.92636534997473 369.6211583342729,459.52892099245435 376.5717878628937,457.70184631009727 380.3013935988087,458.92636534997473 377.09732298994777,466.27432537594024 378.7078344437419,472.39873365355703 381.3694170367659,479.12702256818346 381.3694170367659,481.5969600963919 374.43574069197075,481.5969600963919 368.5531348963335,484.6505741028277 369.6211583342729,490.1749467051289 369.6211583342729,498.7549130743823 364.28104084953594,504.88467493003105 355.73685305094807,507.33686283137484 352.9735543053121,499.0078676602573 349.71862532510033,496.24492214280633 348.65060188716234,493.73510046868427 346.15854700193097,490.7196475338196 342.0898861454584,488.5797969823829 327.27317905936195,486.53732737622886 322.0856363935992,485.0006860871703 314.89766878215454,479.5354259778475 307.5740789454894,476.0544157797879 265.27695833693934,467.8879604776603 258.24156524945886,465.4966947708797 245.35747243896753,465.39949234083593 217.9279164027664,469.3655671460166 214.2152632606037,467.47968487705697 213.70668043227553,464.8551621360438 216.24959368884134,461.72541725685517 219.4536642977009,458.53762471686423 221.13198701162597,454.145138166698 220.87769544994867,448.8009959048909 204.94210684958972,422.6937241539598 201.53460334541234,420.07235021058585 198.1270998412528,419.3345154319528 187.7350616209472,419.6840144786515 180.00460569862,417.7035633162904 176.2919525564573,414.32538928586314 174.91877948051618,410.36515983304764 175.12221296588817,401.80550847913844 174.25762242324882,398.7392611784629 172.66406356320977,398.29292988835607 170.73144958263106,399.5543153614049 165.0861824598924,406.69649817677765 163.6621510126182,407.9193454192519 161.78039540337392,408.98694326147245 153.11753797330005,411.51047717207865 149.96432603082053,411.5298894494001 147.42141277425472,411.16105452477063 142.48816137514422,409.72457386921235 140.14868160395042,408.09404119375233 138.6737917853226,405.7260125970294 138.57207533766368,403.0476037672144 137.91091798536993,399.6707529771556 136.28345334774878,395.4210110550743 127.92574585072641,385.9530020928477 125.58626578448701,381.9957721987005 124.31480915620479,378.3492835197489 120.24614829973228,371.1543274022984 119.22898293810096,368.01302722043965 118.21181757646963,361.4985757873405 116.78778642422184,358.3774685445455 115.0925111165417,356.8073200292136 113.10903876461073,355.8381253642443 110.87127544107585,355.4116875923927 109.19295272713157,355.48922131136186 105.58201603262916,356.2451839632565 98.61443450030879,354.61697569237805 97.81034468257718,354.4267638235485 98.52940562253501,353.66691699243654 100.69935801486643,350.33327085779393 102.32682255514403,346.37979430227057 102.9710270639804,342.0779545879938 104.7341134852595,340.7216206628987 112.43066400729852,341.0703876793426Z" name="Maseru" name_en="Maseru District" gn_name="Maseru" admin="Lesotho" adm0_a3="LSO" iso_3166_2="LS-A" iso_a2="LS" postal="MS" type="District" type_en="District" wikidataid="Q844921"/><path d="M27.463461246942753,389.8133398336562 28.95530357815865,388.76568946133233 39.5677276581892,377.5537828520392 41.33081375141493,376.35132061659306 50.58701770924325,372.62781134562283 60.2161817577763,371.6194243221975 63.53892161481586,370.37837029520637 69.40457428300806,367.15957695601816 78.6268723605176,365.2594552384861 85.61140726920175,362.3125179872702 96.29164212565901,356.0316594436728 97.81034468257718,354.4267638235485 98.61443450030879,354.61697569237805 105.58201603262916,356.2451839632565 109.19295272713157,355.48922131136186 110.87127544107585,355.4116875923927 113.10903876461073,355.8381253642443 115.0925111165417,356.8073200292136 116.78778642422184,358.3774685445455 118.21181757646963,361.4985757873405 119.22898293810096,368.01302722043965 120.24614829973228,371.1543274022984 124.31480915620479,378.3492835197489 125.58626578448701,381.9957721987005 127.92574585072641,385.9530020928477 136.28345334774878,395.4210110550743 137.91091798536993,399.6707529771556 138.57207533766368,403.0476037672144 138.6737917853226,405.7260125970294 140.14868160395042,408.09404119375233 142.48816137514422,409.72457386921235 147.42141277425472,411.16105452477063 149.96432603082053,411.5298894494001 153.11753797330005,411.51047717207865 161.78039540337392,408.98694326147245 163.6621510126182,407.9193454192519 165.0861824598924,406.69649817677765 170.73144958263106,399.5543153614049 172.66406356320977,398.29292988835607 174.25762242324882,398.7392611784629 175.12221296588817,401.80550847913844 174.91877948051618,410.36515983304764 176.2919525564573,414.32538928586314 180.00460569862,417.7035633162904 187.7350616209472,419.6840144786515 198.1270998412528,419.3345154319528 201.53460334541234,420.07235021058585 204.94210684958972,422.6937241539598 220.87769544994867,448.8009959048909 221.13198701162597,454.145138166698 219.4536642977009,458.53762471686423 216.24959368884134,461.72541725685517 213.70668043227553,464.8551621360438 214.2152632606037,467.47968487705697 217.9279164027664,469.3655671460166 245.35747243896753,465.39949234083593 258.24156524945886,465.4966947708797 265.27695833693934,467.8879604776603 307.5740789454894,476.0544157797879 314.89766878215454,479.5354259778475 322.0856363935992,485.0006860871703 327.27317905936195,486.53732737622886 342.0898861454584,488.5797969823829 346.15854700193097,490.7196475338196 348.65060188716234,493.73510046868427 349.71862532510033,496.24492214280633 352.9735543053121,499.0078676602573 346.1246415193766,503.0359103023573 345.58215320849547,511.63831453723583 340.78452403462325,510.41205786082116 332.2233833472539,507.9402038293788 323.6791955486674,502.43264867654653 315.6774954709065,502.43264867654653 307.1163544884929,502.43264867654653 301.776237298766,496.30329189379427 295.910584391928,492.6261634829464 292.1640257672123,497.5290822556776 291.09600232927437,506.7140696944696 288.9599551583528,512.241725144684 285.23034942241856,506.7140696944696 279.3477436267813,499.3581149512708 273.4651381261897,498.7549130743823 275.07564957998375,506.7140696944696 274.0076264370722,511.63831453723583 268.66750895231746,517.7702043561486 261.71687971874223,519.6002346717999 254.24071535809233,515.317326437131 248.90059787333897,510.41205786082116 242.49245695064624,514.090948818781 239.81392176386856,520.2232442019259 235.0162922949686,521.4498249910396 229.48969450866892,521.6834645447818 226.26867130605567,524.0199359985716 222.60687624019963,525.5387213469264 219.50452237400754,525.5387213469264 216.1987356125333,523.4163330207058 214.01183007025946,521.1383091189773 212.02835801337548,518.529461574723 207.3324452871622,511.1127709987607 204.4335243162866,509.4194036806454 200.31400508848103,508.8938919090364 193.29556488980123,509.6529667817041 189.05737662056384,509.26369576334673 185.9550224593632,507.5509504389146 184.48013293576315,505.50743737057496 183.46296757413046,504.6316806412997 182.8018102218367,504.8068304019473 181.22520395556916,510.8402697973201 180.56404660325484,512.5726319793175 179.6485979843102,514.2077448917752 178.27542490836908,515.726128326838 176.4953860418293,517.2445739283123 174.81706332788502,518.3931834758854 173.49474832826837,519.5028902619099 172.93530742363217,520.6905086436749 172.4267248903304,522.6764467052981 171.54518145889176,524.6430194769641 170.62973283994575,526.0449966230783 156.94886045192095,539.7365349901091 156.13512828061604,540.8079215745278 155.42311255698786,542.0351841923524 154.08384496359832,545.0548132121634 153.11753797330005,546.3406659545666 151.59179037341255,547.5486286818336 149.35402704985984,548.3669480739093 146.3533893362989,550.0231268873404 144.5224918033805,550.2374609627411 142.13215336580666,549.6529152692397 135.09676086839957,542.9507877873285 126.70514759377726,536.8731634285966 125.58626578448701,535.6850262225951 125.12854162253612,534.8085563645114 122.58562836597169,529.004900583144 121.41588818534701,525.3050578287679 120.50043956638316,521.0993694378517 119.78842413778277,515.7845290614232 119.78842413778277,509.30262268141325 120.7038727567274,502.37426929069363 121.61932137567341,499.0078676602573 127.26458820338569,483.42520845834383 127.36630494607238,481.013495590304 125.84055705113789,478.95199381146443 122.89077800395563,478.13520394920636 117.95752660484513,479.06867978339034 114.83821955486304,481.4802665305361 113.05818068830546,483.42520845834383 110.82041706972495,485.23409602127407 107.92149609884935,486.24555487489994 101.25906390950574,486.7512951295781 98.64833998286177,485.89543150544455 96.71572570725803,484.7089259840847 95.1391197360169,484.35881708569696 92.79963966977749,485.17574331575514 83.49257777620917,492.3537979274499 60.87760380267956,503.2110521953205 55.50542792152401,505.27935715191376 28.412815726133655,440.7956289646562 28.37890984583271,440.7956289646562 28.37890984583271,440.7567739485197 25.58170555676752,435.16202697572874 16.02035228469962,420.75164503408195 11.646541947750771,416.86839559537145 7.340542387304117,414.46098349539665 2.6446294678995046,410.6560354441955 0,409.3748647815301 4.034755470393067,400.0585778868085 4.1703773513931806,394.00423508898234 6.645479386025772,390.47298677442984 10.103841124102503,390.47298677442984 13.189242443385472,394.9356088725649 15.42700594023265,392.1027521483693 17.93601352713204,386.04969476255445 19.69909962035777,384.45898954829664 22.920123148702448,384.3813957891155 23.937288404358494,386.321285712032 24.78492589871348,388.64928550586126 27.463461246942753,389.8133398336562Z" name="Mafeteng" name_en="Mafeteng District" gn_name="Mafeteng District" admin="Lesotho" adm0_a3="LSO" iso_3166_2="LS-E" iso_a2="LS" postal="MF" type="District" type_en="District" wikidataid="Q817342"/><path d="M356.8048761938597,422.79081535911985 366.95957603629444,423.41220680382986 374.43574069197075,423.41220680382986 387.7436521818792,425.52889819225857 394.7281868980061,426.4804772582428 402.7468395695385,435.04578214962413 394.47389563135516,445.0896969629038 399.4071470304657,454.02853027687456 404.28954005822527,477.026732518064 404.88288644541444,479.7493534436739 409.1549804922312,482.19988319446134 413.9695625548835,484.0476116051909 416.6311451479075,488.94939894513243 419.83521575676707,495.0775423207295 426.24335638443335,504.88467493003105 428.92189157121106,512.241725144684 425.7178212573587,515.9207975739256 422.5137506484991,520.2232442019259 417.6991685858455,516.5437456249294 412.9015391169455,512.241725144684 408.086957054274,506.1107486290635 399.5427689606597,501.20669644751433 390.45609314623493,499.98078469522636 382.9799284905586,499.3581149512708 369.6211583342729,498.7549130743823 369.6211583342729,490.1749467051289 368.5531348963335,484.6505741028277 374.43574069197075,481.5969600963919 381.3694170367659,481.5969600963919 381.3694170367659,479.12702256818346 378.7078344437419,472.39873365355703 377.09732298994777,466.27432537594024 380.3013935988087,458.92636534997473 376.5717878628937,457.70184631009727 369.6211583342729,459.52892099245435 360.5514351136017,458.92636534997473 360.5514351136017,455.2529286110129 358.9409233647812,448.5095193286628 357.3304119109693,441.1650603915188 352.5327827371163,432.59835153517764 346.1246415193766,428.9275069043495 348.786223817355,425.2570227181928 356.8048761938597,422.79081535911985Z" name="Mafeteng" name_en="Mafeteng District" gn_name="Mafeteng District" admin="Lesotho" adm0_a3="LSO" iso_3166_2="LS-E" iso_a2="LS" postal="MF" type="District" type_en="District" wikidataid="Q817342"/><path d="M104.93754647080418,585.6973847660668 101.90300364395358,584.4881739523403 97.85129556142086,578.2087169370562 95.6474372887885,572.9051634383823 91.20581584730468,555.011289963784 86.52685586806426,547.4119394610182 70.79470028550162,534.1265674398699 64.52218131823255,526.7651738291569 55.50542792152401,505.27935715191376 60.87760380267956,503.2110521953205 83.49257777620917,492.3537979274499 92.79963966977749,485.17574331575514 95.1391197360169,484.35881708569696 96.71572570725803,484.7089259840847 98.64833998286177,485.89543150544455 101.25906390950574,486.7512951295781 107.92149609884935,486.24555487489994 110.82041706972495,485.23409602127407 113.05818068830546,483.42520845834383 114.83821955486304,481.4802665305361 117.95752660484513,479.06867978339034 122.89077800395563,478.13520394920636 125.84055705113789,478.95199381146443 127.36630494607238,481.013495590304 127.26458820338569,483.42520845834383 121.61932137567341,499.0078676602573 120.7038727567274,502.37426929069363 119.78842413778277,509.30262268141325 119.78842413778277,515.7845290614232 120.50043956638316,521.0993694378517 121.41588818534701,525.3050578287679 122.58562836597169,529.004900583144 125.12854162253612,534.8085563645114 125.58626578448701,535.6850262225951 126.70514759377726,536.8731634285966 135.09676086839957,542.9507877873285 142.13215336580666,549.6529152692397 144.5224918033805,550.2374609627411 146.3533893362989,550.0231268873404 149.35402704985984,548.3669480739093 151.59179037341255,547.5486286818336 153.11753797330005,546.3406659545666 154.08384496359832,545.0548132121634 155.42311255698786,542.0351841923524 156.13512828061604,540.8079215745278 156.94886045192095,539.7365349901091 170.62973283994575,526.0449966230783 171.54518145889176,524.6430194769641 172.4267248903304,522.6764467052981 172.93530742363217,520.6905086436749 173.49474832826837,519.5028902619099 174.81706332788502,518.3931834758854 176.4953860418293,517.2445739283123 178.27542490836908,515.726128326838 179.6485979843102,514.2077448917752 180.56404660325484,512.5726319793175 181.22520395556916,510.8402697973201 182.8018102218367,504.8068304019473 183.46296757413046,504.6316806412997 184.48013293576315,505.50743737057496 185.9550224593632,507.5509504389146 189.05737662056384,509.26369576334673 193.29556488980123,509.6529667817041 200.31400508848103,508.8938919090364 204.4335243162866,509.4194036806454 207.3324452871622,511.1127709987607 212.02835801337548,518.529461574723 214.01183007025946,521.1383091189773 216.1987356125333,523.4163330207058 219.50452237400754,525.5387213469264 222.60687624019963,525.5387213469264 226.26867130605567,524.0199359985716 229.48969450866892,521.6834645447818 235.0162922949686,521.4498249910396 239.81392176386856,520.2232442019259 242.49245695064624,514.090948818781 248.90059787333897,510.41205786082116 254.24071535809233,515.317326437131 261.71687971874223,519.6002346717999 268.66750895231746,517.7702043561486 274.0076264370722,511.63831453723583 275.07564957998375,506.7140696944696 273.4651381261897,498.7549130743823 279.3477436267813,499.3581149512708 285.23034942241856,506.7140696944696 288.9599551583528,512.241725144684 291.09600232927437,506.7140696944696 292.1640257672123,497.5290822556776 295.910584391928,492.6261634829464 301.776237298766,496.30329189379427 307.1163544884929,502.43264867654653 315.6774954709065,502.43264867654653 323.6791955486674,502.43264867654653 332.2233833472539,507.9402038293788 340.78452403462325,510.41205786082116 345.58215320849547,511.63831453723583 346.1246415193766,503.0359103023573 352.9735543053121,499.0078676602573 355.73685305094807,507.33686283137484 364.28104084953594,504.88467493003105 369.6211583342729,498.7549130743823 382.9799284905586,499.3581149512708 390.45609314623493,499.98078469522636 399.5427689606597,501.20669644751433 408.086957054274,506.1107486290635 412.9015391169455,512.241725144684 417.6991685858455,516.5437456249294 422.5137506484991,520.2232442019259 425.7178212573587,515.9207975739256 428.92189157121106,512.241725144684 426.24335638443335,504.88467493003105 419.83521575676707,495.0775423207295 426.24335638443335,491.4005348821831 432.6514976021538,490.7780086048756 437.4660796648254,489.5524409579717 437.4660796648254,484.0476116051909 439.07659111861807,477.901838904652 447.0782909013498,474.8487788953581 453.48643211907034,477.901838904652 459.3690376196812,476.07386167600345 467.3876902912122,471.1737711792451 475.9318780897987,465.6522197956863 483.40804274545854,463.20277939881623 491.95223083907285,461.9781197800852 495.15630115290463,457.70184631009727 504.48031593527224,450.6082020120237 509.3118505916974,459.50948373612863 509.2101344390663,467.5380098337559 507.2266620871367,476.812820709449 506.5655044398152,483.8531093756672 508.4981187154189,495.27210296392394 508.54897679174474,499.94186755150594 507.12494563949696,504.3008446098607 504.73460720192315,506.6946077572591 500.9032847233036,508.67979655389604 489.6636088491579,513.2149894852107 486.2052469736461,515.6482610496113 482.9333656947084,518.6852083931108 478.8138464669028,524.7598491342404 476.1692167626781,527.310716600877 474.13488633444183,528.9464793548183 472.3039890965512,529.6475425472408 470.7782412016167,530.4654669947503 469.04906041136576,531.5950106727495 461.8102341335603,537.5938551819318 450.3671253640968,545.2496366463722 448.9261413230689,545.6392862532432 448.06155078042957,546.2042854891944 446.840952523479,544.762580662333 441.483882444972,535.2565275041775 437.8390402679152,531.6534360781083 425.97211252400956,529.1217439939342 415.8513184591542,534.1463481581104 414.18994863400917,535.334435993258 406.0187208484762,541.1975244159613 395.0333365359914,544.8210268520319 380.82692872588336,543.554708889337 373.3338114764534,544.762580662333 370.078882791268,549.6529152692397 368.0784578455847,554.85569498761 363.2299700053517,557.9543273905417 351.9902944262338,561.4040533045606 346.1246415193766,562.2031886333788 329.10407659228036,557.8763709139109 326.2560136977306,558.0712615658285 317.93221168324203,559.922775540295 309.04896876409805,559.8837950358692 305.6075597773855,561.2676172678509 302.8612136255019,563.5091293691013 300.5386864480631,566.5305127303086 293.6050098082594,579.4960283215493 292.3505060687573,584.3519574749564 292.299647992452,589.8912277915463 294.94427740162973,599.255266648032 295.40200185862625,603.7820717264235 293.5541517319349,608.3679808549276 291.94364027814083,609.8902388337623 288.04450653940677,612.5641002361272 286.3492312317088,614.4183519985826 285.23034942241856,616.4874165441139 283.4672628546061,621.152999018409 282.31447585778926,623.3200606399348 273.36342167853076,628.2403506348371 268.1250206414363,634.5869354307666 266.65013141286266,635.9930963235881 261.0218168838763,638.10243841846 255.1900694595913,638.3954121596138 244.069062921886,635.9930963235881 242.7976062936038,634.8798807961905 240.55984267504115,631.0522405275228 238.94933122122922,629.997756692972 235.84697735505497,630.3492480561493 234.6263790981058,632.5949663697934 234.67723717443167,635.8368533399363 235.28753645042013,639.3329443117162 240.15297688440546,654.141309062345 240.5259371924882,661.2741189258645 236.7115676026679,668.6037932342317 225.60751395374135,673.6865619259559 203.29768961821625,664.7139967834556 191.61724217585555,667.8805335294661 189.41338433487365,671.2819331814003 187.22647908764543,679.532617568018 184.93785739275827,682.3679975418709 182.2254167234276,682.7199907950469 178.7331493653642,681.8400134981948 174.26614518700922,683.4371771390104 173.05371173616695,679.1999025937855 161.0850675339726,673.6862563213083 155.93143047913392,669.3854064707666 152.40525763657848,663.6386950570045 149.9979667064342,654.3754853242003 147.60762806036112,651.9135064785254 142.33532173666333,651.8353514075532 135.38469270827875,654.7272097516827 133.07911810688563,655.1180190886399 129.73942563773522,654.6099680271867 123.202258798624,652.75932510329 122.97527698278311,652.6950693694521 119.41519858793207,652.2652076813409 119.9576867680461,646.3648907549591 112.65104960495542,626.0141184504665 112.04075032032563,615.1988124537149 119.21176527436283,597.4014736826708 124.12806379138729,592.4072745455567 124.39930820949287,588.6620692830044 121.31390689023871,586.1264692588134 116.29589171642759,584.7222119533661 109.00620749347503,584.7222119533661 104.93754647080418,585.6973847660668Z" name="Mohale's Hoek" name_en="Mohale's Hoek District" gn_name="Mohale's Hoek District" admin="Lesotho" adm0_a3="LSO" iso_3166_2="LS-F" iso_a2="LS" postal="MH" type="District" type_en="District" wikidataid="Q839074"/><path d="M444.00420453601697,600.2081564562742 438.4490745003057,610.7096373583341 433.3123900575984,615.8624758643277 430.2608942905836,618.1658720728245 426.1922332679224,624.1007101231473 423.92056421879744,626.3655717289453 420.7503995109481,627.7714180645072 411.1042825222495,629.1773181666379 405.10300764500516,631.5987168610375 398.2201893931324,635.7779575972698 393.168268995079,641.4812393593222 392.4562530536722,648.5139032253065 396.05023700077356,653.632966589354 400.8648191890674,655.8605682623408 404.6961413459187,659.2217672304449 405.57768472057467,667.8606808067276 403.27211011921037,676.0323873462971 398.93220500645845,681.1552956312157 371.061877788462,703.101973520964 368.4850590970455,707.6024746205147 369.1970747104004,710.5770230851264 373.02839719527617,717.2314949180484 374.07946767517586,720.9898508443426 373.67260170412357,724.082954102515 368.1120983501984,741.7069044467826 366.9932164377392,744.0182320962306 364.36553990999425,747.4659085346539 361.75481599436154,749.6992366786898 358.957611377206,751.2273824078239 356.2282181926867,753.1866372064379 354.10912363667546,756.7135618322884 352.22736827453303,764.3564047277612 352.4477538721529,770.5110399043057 353.2614861423205,776.5882946344777 353.1936750377759,783.9999999999999 345.29369185827983,780.5488594487333 306.53969647022944,777.1764703861924 299.6568782183292,774.9414543886948 293.11311516099835,771.6479973670614 289.99380861752803,769.1781006897212 287.4169895980211,766.5907692875343 284.63673824912007,764.3956029829275 280.83932131650283,763.1020843822719 277.9912585350053,763.5724492534016 271.7187398957868,766.6691710359371 268.42990526295387,767.2179845940933 254.66426908718617,765.3755715753739 243.2381130651086,761.8086117772402 233.37161047879013,755.5378823173004 215.65598222118615,735.3613009954094 195.66868557060099,720.12852685636 193.60044950699327,716.9183164365444 193.05796165494084,713.5126698357083 192.88843389363979,710.107341214589 191.80345786150076,706.7414659813354 183.90347435392528,695.5893285873993 175.3253807852535,687.1394474442874 174.26614518700922,683.4371771390104 178.7331493653642,681.8400134981948 182.2254167234276,682.7199907950469 184.93785739275827,682.3679975418709 187.22647908764543,679.532617568018 189.41338433487365,671.2819331814003 191.61724217585555,667.8805335294661 203.29768961821625,664.7139967834556 225.60751395374135,673.6865619259559 236.7115676026679,668.6037932342317 240.5259371924882,661.2741189258645 240.15297688440546,654.141309062345 235.28753645042013,639.3329443117162 234.67723717443167,635.8368533399363 234.6263790981058,632.5949663697934 235.84697735505497,630.3492480561493 238.94933122122922,629.997756692972 240.55984267504115,631.0522405275228 242.7976062936038,634.8798807961905 244.069062921886,635.9930963235881 255.1900694595913,638.3954121596138 261.0218168838763,638.10243841846 266.65013141286266,635.9930963235881 268.1250206414363,634.5869354307666 273.36342167853076,628.2403506348371 282.31447585778926,623.3200606399348 283.4672628546061,621.152999018409 285.23034942241856,616.4874165441139 286.3492312317088,614.4183519985826 288.04450653940677,612.5641002361272 291.94364027814083,609.8902388337623 293.5541517319349,608.3679808549276 295.40200185862625,603.7820717264235 294.94427740162973,599.255266648032 292.299647992452,589.8912277915463 292.3505060687573,584.3519574749564 293.6050098082594,579.4960283215493 300.5386864480631,566.5305127303086 302.8612136255019,563.5091293691013 305.6075597773855,561.2676172678509 309.04896876409805,559.8837950358692 317.93221168324203,559.922775540295 326.2560136977306,558.0712615658285 329.10407659228036,557.8763709139109 346.1246415193766,562.2031886333788 351.9902944262338,561.4040533045606 363.2299700053517,557.9543273905417 368.0784578455847,554.85569498761 370.078882791268,549.6529152692397 373.3338114764534,544.762580662333 380.82692872588336,543.554708889337 395.0333365359914,544.8210268520319 406.0187208484762,541.1975244159613 414.18994863400917,535.334435993258 416.71590870676715,543.9053773216204 418.90281424902173,550.3543710744127 417.93650696369707,553.2772463595142 416.4107590687626,554.699795605855 410.13824007628176,555.1480076339199 400.11916275409385,560.3905410694011 397.52539142122276,563.0803078574892 395.9996435262883,565.9457096555341 394.47389563135516,572.3790535065297 394.0670298407387,575.4791561472161 394.0670298407387,578.3065206642971 394.5247540026882,580.783079896152 395.745351964611,583.2403027903196 398.18654877351787,585.6781858431028 401.7974854680395,587.2775247883569 430.24420627579855,590.7690052586657 432.7023559735061,590.6519671234812 434.68582773536235,590.2813483039376 436.66930008729196,591.2371618544511 438.24590635355946,592.2125071623525 443.9081263650974,600.0747330142212 444.00420453601697,600.2081564562742Z" name="Quthing" name_en="Quthing District" gn_name="Quthing" admin="Lesotho" adm0_a3="LSO" iso_3166_2="LS-G" iso_a2="LS" postal="QT" type="District" type_en="District" wikidataid="Q839060"/></svg>