<?xml version="1.0"?><svg fill="#3498db" stroke="#ecf0f1" stroke-width="1" width="800" height="1152" viewBox="0 0 800 1152" xmlns="http://www.w3.org/2000/svg"><path d="M408.8702269347104,86.17289242572245 401.8370291265937,109.0268497559274 396.90329303249604,130.73168147256172 390.4999336369728,175.10102075291024 392.2844776680788,176.24253190940294 398.3729173494729,175.67177928407693 400.68232553941306,175.9979239458789 396.90329303249604,181.1345337213861 387.4557148119566,199.55822047062173 398.4778895717824,205.91579184496766 405.09119544334357,218.87379222953507 411.3895805851967,251.7885006716573 408.55530722066726,269.29912631857 412.9641781402637,282.0833857091958 430.49468553367524,308.78490430563096 445.9257312131272,353.0495028449109 454.0086603860853,366.79553120877245 464.9258629236016,345.1586381892918 482.3513970789506,373.38297603766847 515.7328431040918,453.8497346545997 531.5837807200409,469.93279335189163 566.0149591256608,485.2816056478925 580.8161653769117,494.8628802638588 585.6449282330626,503.4687514985855 589.7432396824418,514.3815099816629 589.3722932301879,514.4289074749391 570.9495136729454,516.7828315873429 563.3914505927576,520.1106657586627 557.5654437492678,526.1977928354022 551.581976915767,539.2225915924005 549.692460688996,546.6063705977878 551.8968959824317,553.2187050798938 555.2035493792371,555.8959253901321 560.5571771660486,559.2625996301276 560.3997171759769,566.0766142079011 559.612419052634,571.5517155895459 539.7200162709838,605.5290292121016 507.4407877333867,590.8533523663465 486.4461677616715,571.2272764283944 477.1560493581996,560.2766283386384 449.28569049399937,553.299833634981 439.2082730537663,553.6649145844788 405.14450222503734,563.115837431604 395.6969229180786,560.7227975612465 386.5642635912018,556.3421190786256 371.8680295197108,546.6063705977878 360.05855492930294,544.0505294432787 350.29605655567735,544.2128075764598 333.29041508194683,552.3262753383017 323.84283577498707,563.764785453466 321.63840048155026,570.2945050194937 319.11904612150715,580.7976530404854 308.5167626567472,594.8266059157537 303.47805393660144,605.8938564387824 290.88128122284866,620.120796817794 288.8343068329018,629.2797450929926 288.20446778615303,651.4835641200509 284.58289623610005,668.4966733372551 283.1657590660657,685.6679312479235 283.4806790460913,702.2685074684356 248.3146901139938,713.6843501060647 222.80622653324158,726.0698028337441 207.37518039277978,730.3597164042739 163.54891119048358,731.8166116493702 143.69343434522423,738.3661670883555 143.2882820351485,734.8099915327309 137.4097888299082,725.5019291696941 130.79648295834699,725.0162574353803 124.28815134042613,727.2017462874455 118.61960359555886,726.1494829770261 112.53116391416373,722.7497585551333 98.35979607559328,718.459413576588 91.85146242639891,713.1973378144797 92.27135537862036,709.5541484340001 90.06692042656746,687.6913213661803 88.49232388725353,680.3213152636416 64.55845709831772,633.006584052978 57.84017900435995,623.0375457197129 44.92848697525094,615.0937949609569 34.0112844378207,613.2293240812311 23.723921328563822,608.2031314539663 13.016664251505574,590.3655501318692 6.823252347743619,570.6582364103734 5.353629046434865,551.9193551116292 9.867471172760881,536.9086726827782 21.939378313123772,528.793548219268 12.176879362788135,519.7035719898362 13.961422378228185,514.0217820668342 15.850938631729704,510.3689774791806 17.32056193303952,505.6606551529549 17.215588694978052,496.56789634142535 43.8787556104658,499.3283134755053 34.43117738992636,485.0379985328006 11.966933902329039,467.9022929545023 0,462.1353758633293 4.0939512054959835,447.18807107673376 39.259939230382614,386.14959505318495 43.353891451630595,376.1479053481121 45.76827186399706,368.178130106824 49.54730335533413,359.9634994586566 57.52525929023078,349.38889590528254 64.66343033632182,344.5891640166852 79.67458306363945,341.090858998815 88.07243093506078,333.19874396329925 99.19957994864475,311.5522023724091 95.10562975884342,302.8430061775657 87.96745871266528,294.0513938934558 89.12216229984591,272.312172612448 95.42054845727795,263.92420482196803 115.99527670706733,254.8022458661486 123.34339321370457,246.98254612652025 125.86274787979954,234.51822032457338 125.86274787979954,219.68868741598615 124.70804327695292,201.4329447257634 130.79648295834699,191.65126131514964 145.59769022517685,178.77010677127882 151.79110314454635,169.80091318190256 154.31045781075602,159.03646727773167 156.304947302234,133.42394740922157 159.97900555559568,123.38864271601882 176.77470129835228,108.04753714134738 214.56501824303263,89.51979919568889 229.68114420841277,73.76355070577083 237.76407338131352,51.06221695602316 241.96299680917633,29.416072366906306 250.5707911566643,14.791187455802648 272.19524975563024,12.503237048460061 287.8362419111191,0 294.34457454470595,7.109939672507788 297.7037130838513,22.226540180130225 303.8971270189165,33.827489828884936 312.8684540347076,38.19081695616677 317.3336832069478,40.362448755735834 328.7757509189663,41.99609854391534 351.8698338348496,38.320335016056504 360.6875736427967,32.847197385251114 367.1959052606304,25.82139223075135 375.06888897312945,24.759294135170414 388.19052544694557,37.4217871436658 392.599396366541,51.96060023399683 391.4446917636944,66.904876277817 393.7540999537227,79.39699171049273 408.8702269347104,86.17289242572245Z" name="Diekirch" name_en="Diekirch District" gn_name="District de Diekirch" admin="Luxembourg" adm0_a3="LUX" iso_3166_2="LU-D" iso_a2="LU" postal="DI" type="District" type_en="District" wikidataid="Q208747"/><path d="M589.7432396824418,514.3815099816629 595.827319119838,530.5789512767618 596.8770504847081,535.8537551736798 605.0649508643097,536.5840840079134 620.286051083361,527.3327327850643 629.2087641292835,527.5762050335431 646.4243528242615,538.4504490505411 675.6068754215103,566.2781356217137 692.8224631008212,577.2279122155131 710.5629179859665,582.0939705343895 759.2704364525545,582.0939705343895 790.5524207637924,591.3386189013742 794.5413977155323,591.5818817819119 800,597.5010873574483 799.6850792701177,597.1767605162231 797.480645333819,599.3659463477859 797.3756710800607,612.5808024382429 795.9060477787509,613.6346474779169 791.0772849226287,647.7551056759428 790.9723127002321,658.8551161305437 793.7016128267862,665.8221733048489 793.2817208902594,671.8975707983211 783.4142497175283,680.5642935002901 782.6794370512933,694.5747451576003 784.9888452413206,707.3681496318635 789.8176080974727,718.6213195785002 797.0607523816262,728.3349390909927 788.2430115579845,724.8543682528268 783.5192219399238,727.2017462874455 780.055110162803,734.8099915327309 786.9833347328273,742.8221032183176 788.9778242244212,746.2209242085023 714.3419494773035,794.5971108038206 698.5959840837531,816.6716182048996 700.3805270991921,821.8456617123094 706.888859732778,826.2918241289937 713.0822726521485,832.3543525935879 714.0270297632615,842.699943280875 711.2977296367085,849.7309088485116 703.634693415941,861.0437318836497 693.3473292910755,882.2103346024086 666.8941078359597,914.8373284178554 651.568034378933,938.8947748024633 645.7945144116692,956.085517796079 645.7945144116692,1005.537611486544 643.8185376600024,1020.5500222762851 637.1867210798738,1070.913306535176 640.3359131429535,1118.1164532830328 640.2621668862189,1129.5997296863916 619.9711323848978,1127.4569414440618 592.9930457552788,1112.6404593463874 544.5950199451906,1076.4344354793195 540.5073143943278,1050.4453752626252 528.0680025840065,997.5545019876313 527.1232444706503,976.4200921359771 534.2089294075793,963.1879210968483 566.8555630662154,931.4697181723695 574.5710861364165,927.4333732248033 592.993865693658,923.3564448734566 595.5132200537022,913.8696728418015 593.7811629035838,906.3601530926032 588.5849941934258,900.384304274163 583.0739073300201,895.296385935863 579.1374167133024,889.6427408710616 581.1843911032491,884.1502271610524 585.2783417099803,879.0612184562822 606.5878816617794,861.3277933489585 589.2148341535354,828.8798243974304 579.6097957699805,787.643168872562 572.2091917663857,778.4224890432918 558.5102018626825,768.9579938459366 544.6012659144782,765.0747813738234 466.92117101447866,763.1331004119298 513.1093355002239,689.6362056018675 521.4546976171739,681.8614328664735 534.3663884841743,673.6808606308175 541.4520725076841,674.9768522696684 556.6206856359116,674.3288599317166 568.4301593129022,637.6272021474409 566.3831849229555,632.9673281108604 560.7146371560609,626.6861736637934 555.8333875125677,623.5251363383043 539.7200162709838,605.5290292121016 559.612419052634,571.5517155895459 560.3997171759769,566.0766142079011 560.5571771660486,559.2625996301276 555.2035493792371,555.8959253901321 551.8968959824317,553.2187050798938 549.692460688996,546.6063705977878 551.581976915767,539.2225915924005 557.5654437492678,526.1977928354022 563.3914505927576,520.1106657586627 570.9495136729454,516.7828315873429 589.3722932301879,514.4289074749391 589.7432396824418,514.3815099816629Z" name="Grevenmacher" name_en="Grevenmacher District" gn_name="District de Grevenmacher" admin="Luxembourg" adm0_a3="LUX" iso_3166_2="LU-G" iso_a2="LU" postal="GR" type="District" type_en="District" wikidataid="Q208284"/><path d="M76.94528293705672,1001.1019536878551 101.08909620214628,989.5680313197139 124.39312457848865,964.6390840420585 134.0506492750958,940.2669486930004 116.83506159581346,930.8226579530276 128.27712930783196,920.0046727379354 136.3600584807901,904.3400767356854 149.3767217165426,868.3153679272116 157.45965088950177,858.7813008880073 167.5370685382135,849.4076584918445 173.20561628308184,835.8299819011374 167.5370685382135,813.5993610510842 160.18895101599634,807.3736178480291 139.82417025794064,805.0287237977086 132.89594568791514,799.7726647089811 129.32685965703612,788.2889277573192 130.79648295834699,782.7081724534171 133.84070381460802,777.6932296491624 134.36556898922603,767.5005474979647 135.94016552859838,758.8437801749538 140.87390060703007,753.2608545899247 144.65293311406285,746.7873795300263 143.69343434522423,738.3661670883555 163.54891119048358,731.8166116493702 207.37518039277978,730.3597164042739 222.80622653324158,726.0698028337441 248.3146901139938,713.6843501060647 283.4806790460913,702.2685074684356 283.1657590660657,685.6679312479235 284.58289623610005,668.4966733372551 288.20446778615303,651.4835641200509 288.8343068329018,629.2797450929926 290.88128122284866,620.120796817794 303.47805393660144,605.8938564387824 308.5167626567472,594.8266059157537 319.11904612150715,580.7976530404854 321.63840048155026,570.2945050194937 323.84283577498707,563.764785453466 333.29041508194683,552.3262753383017 350.29605655567735,544.2128075764598 360.05855492930294,544.0505294432787 371.8680295197108,546.6063705977878 386.5642635912018,556.3421190786256 395.6969229180786,560.7227975612465 405.14450222503734,563.115837431604 439.2082730537663,553.6649145844788 449.28569049399937,553.299833634981 477.1560493581996,560.2766283386384 486.4461677616715,571.2272764283944 507.4407877333867,590.8533523663465 539.7200162709838,605.5290292121016 555.8333875125677,623.5251363383043 560.7146371560609,626.6861736637934 566.3831849229555,632.9673281108604 568.4301593129022,637.6272021474409 556.6206856359116,674.3288599317166 541.4520725076841,674.9768522696684 534.3663884841743,673.6808606308175 521.4546976171739,681.8614328664735 513.1093355002239,689.6362056018675 466.92117101447866,763.1331004119298 544.6012659144782,765.0747813738234 558.5102018626825,768.9579938459366 572.2091917663857,778.4224890432918 579.6097957699805,787.643168872562 589.2148341535354,828.8798243974304 606.5878816617794,861.3277933489585 585.2783417099803,879.0612184562822 581.1843911032491,884.1502271610524 579.1374167133024,889.6427408710616 583.0739073300201,895.296385935863 588.5849941934258,900.384304274163 593.7811629035838,906.3601530926032 595.5132200537022,913.8696728418015 592.993865693658,923.3564448734566 574.5710861364165,927.4333732248033 566.8555630662154,931.4697181723695 534.2089294075793,963.1879210968483 527.1232444706503,976.4200921359771 528.0680025840065,997.5545019876313 540.5073143943278,1050.4453752626252 544.5950199451906,1076.4344354793195 542.815902971715,1075.1031694628596 514.998031453438,1063.9834117869477 486.1304285702887,1060.9211626548824 427.76538540712227,1067.367859499556 434.3786902631046,1081.7097890873972 405.72103385602304,1084.368388231562 398.4778895717824,1087.2685731371034 393.1242615411292,1096.7739557135214 393.2292347791344,1106.7613810384764 390.91982658916453,1115.1369178372306 378.63797398831383,1119.8074888281333 368.77050281566875,1134.7835888527898 353.8643212950817,1140.3384867970026 267.2615146770254,1145.5709926349014 249.62603302994276,1151.4470669740879 235.6646106517443,1106.8419187715003 216.557163512377,1087.5867966866538 152.10602285867552,1072.2025196456168 126.59755953045445,1060.195875064624 108.85710566088919,1043.5929563605855 76.94528293705672,1001.1019536878551Z" name="Luxembourg" gn_name="District de Luxembourg" admin="Luxembourg" adm0_a3="LUX" iso_3166_2="LU-L" iso_a2="LU" postal="LU" type="District" type_en="District"/></svg>