<?xml version="1.0"?><svg fill="#3498db" stroke="#ecf0f1" stroke-width="1" width="800" height="1200" viewBox="0 0 800 1200" xmlns="http://www.w3.org/2000/svg"><path d="M334.0320408688071,1078.8054896817484 334.0609713369863,1078.7718004103428 334.764947840299,1079.050939315208 335.71001228949285,1079.2675118576615 336.40434530340843,1079.0365011607064 336.9443821315096,1078.0498842125278 337.1758264694828,1077.039188566283 337.1372523933994,1076.0284779061783 336.8093729244853,1075.0514433396215 337.69657620029864,1076.5290222187314 337.214400427067,1078.5311625270251 335.8257343992279,1079.7439689146363 334.0320408688071,1078.8054896817484Z" name="Railik Chain" admin="Marshall Islands" adm0_a3="MHL" iso_3166_2="MH-L" iso_a2="MH"/><path d="M403.272471880389,1200 409.15501557917054,1198.0251281738028 410.25437609567183,1197.0689082831018 413.0702822274334,1193.4745757209785 411.9323476348488,1196.3577424976963 409.90720964795963,1198.5777125960944 406.9948683852611,1199.8846803640602 403.272471880389,1200Z" name="Railik Chain" admin="Marshall Islands" adm0_a3="MHL" iso_3166_2="MH-L" iso_a2="MH"/><path d="M510.50834851418324,1054.9541079417418 512.8517224805935,1053.6541907970538 513.7292822670097,1052.9031157463073 514.4429022597274,1051.834263500402 515.1661658603252,1050.3128040834144 516.2365959086472,1046.7401241170273 517.0080770747177,1041.202563653053 518.2328033088462,1038.1591110376467 520.6629689168161,1036.0112714741474 523.5270924955549,1034.2341928681476 525.7065266682546,1032.211441568404 527.5966554481234,1029.841851327857 526.0440497450688,1034.1619528026033 519.380381509323,1038.640679640637 517.8759932532457,1043.2491085929253 517.3166694463505,1046.778644641773 515.8026378193753,1051.627231601002 513.4592638529651,1055.2092737898538 510.50834851418324,1054.9541079417418Z" name="Railik Chain" admin="Marshall Islands" adm0_a3="MHL" iso_3166_2="MH-L" iso_a2="MH"/><path d="M411.8551994826979,876.3830320910376 420.4186399877097,876.3830320910376 418.66352041486124,878.2181056502976 415.84761428311157,878.1070372782615 410.46653345485885,876.8273189037893 404.5068417224216,875.7359118359807 402.0477456462605,874.8473157775027 402.53956490890107,873.147350677828 404.2946844817337,874.7410694988655 406.93700733039157,875.4992763249107 409.5407561029661,876.2478135859074 411.8551994826979,876.3830320910376Z" name="Railik Chain" admin="Marshall Islands" adm0_a3="MHL" iso_3166_2="MH-L" iso_a2="MH"/><path d="M390.4080242033348,864.9654917046321 388.88434896847536,863.9414608656296 387.84284938834446,861.8546935672559 387.6692661052408,859.5359640108463 388.71076568537165,857.8161718613543 389.17365436131405,859.400701547058 389.896917961912,863.3424899974159 390.4080242033348,864.9654917046321Z" name="Railik Chain" admin="Marshall Islands" adm0_a3="MHL" iso_3166_2="MH-L" iso_a2="MH"/><path d="M192.1952356487585,415.2956455616659 191.0187269801104,417.42467015624993 188.77178826313235,418.65026450297586 186.17768286145574,418.5965541273643 184.0946838196971,416.9363734457423 188.36676064205943,416.57014630587975 192.1952356487585,415.2956455616659Z" name="Railik Chain" admin="Marshall Islands" adm0_a3="MHL" iso_3166_2="MH-L" iso_a2="MH"/><path d="M454.12272169025056,1074.2139739401218 454.35416602822374,1072.8999923732392 454.8459852908564,1073.1165845236144 454.12272169025056,1074.2139739401218Z" name="Railik Chain" admin="Marshall Islands" adm0_a3="MHL" iso_3166_2="MH-L" iso_a2="MH"/><path d="M436.4750909494112,844.7177639943667 436.71617877677744,844.0074254044279 436.774039831647,843.5483576955372 436.06041983894124,842.6930308795373 434.78747592084113,842.2194539181174 433.26380068597774,842.1373023278935 433.92920323170614,841.9343391127717 434.84533709420583,841.8038622772555 435.7711144460985,841.8763494894324 436.4750909494112,842.2581134506123 436.9090490386792,843.2825797189494 436.96691009355266,843.6208422795977 436.9090490386792,844.2393738102566 436.83190088651645,845.1236673247192 436.4750909494112,844.7177639943667Z" name="Railik Chain" admin="Marshall Islands" adm0_a3="MHL" iso_3166_2="MH-L" iso_a2="MH"/><path d="M251.15568077707854,756.3827201945758 251.86930088829524,757.6365411402388 250.91459294971227,757.2202182754855 251.15568077707854,756.3827201945758Z" name="Railik Chain" admin="Marshall Islands" adm0_a3="MHL" iso_3166_2="MH-L" iso_a2="MH"/><path d="M290.2504869157762,707.9606327736113 290.1444082954303,707.2724537029835 290.0961906114587,706.6908855885673 290.4240701988799,706.1626211863121 291.2726993986218,705.6682761684826 291.4269955844283,706.4000986385427 291.24376881193155,706.933206573558 290.2504869157762,707.9606327736113Z" name="Railik Chain" admin="Marshall Islands" adm0_a3="MHL" iso_3166_2="MH-L" iso_a2="MH"/><path d="M30.56993970975738,359.942971671738 30.878532081386243,360.0359055982502 31.360707854629783,360.27557607782865 31.804309433278977,360.76469408622216 32.17076297828835,361.6206332436236 30.56993970975738,359.942971671738Z" name="Railik Chain" admin="Marshall Islands" adm0_a3="MHL" iso_3166_2="MH-L" iso_a2="MH"/><path d="M0,352.48783940470446 0,350.96627616934137 0.5400368281011546,350.6727187777405 0.7907681448605052,351.2647233582492 0,352.48783940470446Z" name="Railik Chain" admin="Marshall Islands" adm0_a3="MHL" iso_3166_2="MH-L" iso_a2="MH"/><path d="M763.4191488641063,1019.3558312791243 763.8820375400566,1019.837542457948 764.344926215999,1020.4926637665208 765.6178700156039,1021.5475874318053 765.8493143535771,1022.0292819009775 765.0585462087047,1022.0244649875857 763.8434634639733,1022.0100141268155 763.2069915049193,1021.5186857243408 763.0719822978989,1020.6275408473047 763.4191488641063,1019.3558312791243Z" name="Ratak Chain" name_en="Ratak Chain" admin="Marshall Islands" adm0_a3="MHL" iso_3166_2="MH-T" iso_a2="MH" wikidataid="Q700048"/><path d="M785.3484999166972,901.1994234251708 786.3032077367731,900.4464110429344 786.7950269994097,899.6595983543681 786.717878847243,898.8631198207335 786.0235458333235,898.0714567154074 787.6243692203495,898.8824284819839 787.0264713373829,900.5332976428067 785.2617082751414,901.9717329527662 783.2655008749424,902.1455010923239 783.7283895508888,901.7786566380415 784.2298521844035,901.5566179736892 785.3484999166972,901.1994234251708Z" name="Ratak Chain" name_en="Ratak Chain" admin="Marshall Islands" adm0_a3="MHL" iso_3166_2="MH-T" iso_a2="MH" wikidataid="Q700048"/><path d="M799.5823266428082,1024.986804700615 797.0364389251032,1024.741152473899 794.1723152278653,1025.2758059708444 791.597497041977,1025.2613559742617 789.9388126000854,1023.3731897608054 790.1895439168447,1023.5128774601294 790.9320944962367,1023.8018854852339 792.0796726967135,1024.0571747692322 795.5899118423946,1024.1775939598533 799.5823266428082,1024.986804700615Z" name="Ratak Chain" name_en="Ratak Chain" admin="Marshall Islands" adm0_a3="MHL" iso_3166_2="MH-T" iso_a2="MH" wikidataid="Q700048"/><path d="M767.2186934026182,916.2236946554945 764.0941947807327,915.8135141522927 759.1663591390292,912.1362293792624 755.8104162976656,911.3640647468148 750.3039697517817,912.1941413810249 747.7773690128628,911.1034566444591 745.9643883851606,907.3196731146107 747.1408970538128,908.8737589658797 748.4138409719129,909.9837930486073 749.9760901643605,910.5532799704961 757.6716144908441,910.2057971715204 759.253150780589,910.5532799704961 764.5377964778888,914.7325531445739 767.2186934026182,916.2236946554945Z" name="Ratak Chain" name_en="Ratak Chain" admin="Marshall Islands" adm0_a3="MHL" iso_3166_2="MH-T" iso_a2="MH" wikidataid="Q700048"/><path d="M724.1893335183883,899.8768177677242 721.0262609389146,901.7110796933305 712.3278112268824,902.990199180604 708.7404240475456,904.8871016628485 705.4230551637504,904.8871016628485 701.5077883970083,904.322381953437 684.7666480292636,896.8549760255117 681.7771586144103,894.518483123704 683.5129912084568,892.6646640870919 683.541921676636,893.8136532860393 683.7444355464299,894.5474485800821 684.3230463321154,895.899150332021 704.3815555836235,903.9314186174241 705.6930735778109,903.9121117654647 708.7597110263279,903.3329014563453 711.3055987440368,902.4399401806239 724.1893335183883,899.8768177677242Z" name="Ratak Chain" name_en="Ratak Chain" admin="Marshall Islands" adm0_a3="MHL" iso_3166_2="MH-T" iso_a2="MH" wikidataid="Q700048"/><path d="M771.4329090516119,906.3929920820341 771.6932839762753,906.0647887610505 771.8668671408799,905.7751959653382 772.098311478853,905.5724801107694 772.4647650238505,905.4807750475156 771.6932839762753,907.0156077129062 770.6903584722198,908.3814756856609 769.4945627062825,909.5783918943764 768.1058966784394,910.6015412983028 768.8195167896442,909.491519817032 771.4329090516119,906.3929920820341Z" name="Ratak Chain" name_en="Ratak Chain" admin="Marshall Islands" adm0_a3="MHL" iso_3166_2="MH-T" iso_a2="MH" wikidataid="Q700048"/><path d="M659.9828167688358,687.3299290739312 659.1534745478959,688.6729687149373 658.4880721206508,688.4741820096783 658.4205675763922,688.4499397384825 658.3434194242413,688.4160004167256 658.2855583693719,688.3675156760639 658.2566277826816,688.3044854673857 658.7484470453143,687.2329570925991 659.1341875690979,686.9711315801804 659.78994650695,686.8935534373328 659.9828167688358,687.3299290739312Z" name="Ratak Chain" name_en="Ratak Chain" admin="Marshall Islands" adm0_a3="MHL" iso_3166_2="MH-T" iso_a2="MH" wikidataid="Q700048"/><path d="M587.5214520044156,621.5025650857744 587.3478687213118,619.4823177855596 587.9554100936756,619.5211696637238 588.3315071280741,620.5507303166469 587.5214520044156,621.5025650857744Z" name="Ratak Chain" name_en="Ratak Chain" admin="Marshall Islands" adm0_a3="MHL" iso_3166_2="MH-T" iso_a2="MH" wikidataid="Q700048"/><path d="M662.7022877696485,522.9385553136262 662.6830007908624,521.5022994719487 663.1651764455949,521.4341368597377 663.1844634243811,522.8801324569102 662.7022877696485,522.9385553136262Z" name="Ratak Chain" name_en="Ratak Chain" admin="Marshall Islands" adm0_a3="MHL" iso_3166_2="MH-T" iso_a2="MH" wikidataid="Q700048"/><path d="M441.8272411909895,0.03961311650263688 442.17440775719683,0 441.4222136884118,0.9407950157621973 440.18784384637917,2.1192173117317554 439.04990913530736,2.8767467645096927 440.35178364008976,1.3963258695038225 441.8272411909895,0.03961311650263688Z" name="Ratak Chain" name_en="Ratak Chain" admin="Marshall Islands" adm0_a3="MHL" iso_3166_2="MH-T" iso_a2="MH" wikidataid="Q700048"/></svg>