<?xml version="1.0"?><svg fill="#3498db" stroke="#ecf0f1" stroke-width="1" width="800" height="873" viewBox="0 0 800 873" xmlns="http://www.w3.org/2000/svg"><path d="M547.1147404173975,0 560.0110777491179,8.48415005113942 572.9074150156969,16.951843086392238 585.7936534338392,25.4181795956082 598.683258199932,33.86818209657511 611.5795955316543,42.316919240180056 624.4692002326111,50.74944410066496 637.3588049987042,59.18079402128473 650.2517759824683,67.59978892736844 663.1447470313814,76.01395819300119 676.0343517323329,84.4158845623505 688.9273227812405,92.80935658027876 701.8202937650047,101.19442576333047 712.7372403217638,108.29211241845624 723.6575530961888,115.38383535807539 734.5778658706192,122.47333777625025 743.8999147804415,128.51106704207933 745.4981787101914,129.5458052550612 753.3820789819192,134.65540743245072 764.6928838197533,142.3326121740636 776.0003223747726,149.99925855362864 787.3060777883837,157.6627895268728 798.6135164085518,165.31584667041594 784.1871907053543,165.3269278579623 769.7659144915118,165.33431528464857 755.3379056469076,165.34170263357095 740.9166294330652,165.34909004769568 726.4919869364154,165.36017112136994 712.0673443746241,165.3675585912714 697.6393355951615,165.37494591193047 683.2146930333647,165.3823332977919 683.8475595438526,171.07797948897195 684.4736933584301,176.7588390959861 685.0998272381488,182.44153876831493 685.7326936834897,188.12424151509595 686.36219378088,193.7940699399712 686.9883276606007,199.46577488107047 687.6178278231268,205.13384592774287 688.2473279205171,210.80013602833236 688.8670136430595,216.56524395934775 688.8297523463095,216.5914089634628 409.9611849873275,410.3707682750918 306.3713805327096,422.0848326327169 265.5329789687267,406.6465804837459 263.90200133223584,406.0959304202024 263.76567752073,406.0563085255236 261.925924229533,377.21770938987385 260.8512294193214,359.7367682469616 259.7765346091059,342.2242378110426 258.92822430489423,337.6839084419268 255.76052566507397,328.66207365339346 255.07548138013698,324.1751702081745 255.93557380447456,319.44647565607505 258.04625078170204,314.9806363311637 263.6191786202851,307.1262363474923 264.8630305424042,305.5225654870972 271.38694122297187,301.0137269123207 279.5401463997163,295.392370432192 286.55722161633753,290.53806434276123 290.64728943366964,287.71280723509716 294.62458579963754,286.34085415993263 305.59875962020834,284.7718784010599 307.94507834860974,284.07021800017554 322.23170214251286,277.23490438255305 328.86670106790217,275.42540762367395 329.73857561237304,274.2942919111158 330.0011478866134,271.88017270260286 330.0011478866134,266.1753712502642 330.0011478866134,260.8342890674207 330.0011478866134,255.48460207428585 330.0011478866134,250.131775569711 330.0011478866134,244.7794573105867 330.0011478866134,239.42031478342184 330.0011478866134,234.05982592586702 330.0011478866134,228.69981462748507 330.0011478866134,223.33293525909448 330.0011478866134,217.96283969205584 330.0011478866134,212.5895145249224 330.0011478866134,207.2147848738103 330.0011478866134,201.83496205993046 330.0011478866134,196.4555504545352 330.0011478866134,191.06733619594328 330.0011478866134,185.6776660271782 330.0011478866134,180.28468611772405 330.0011478866134,174.8920725158031 330.0011478866134,169.49243485469387 330.0011478866134,164.08759973120098 330.0011478866134,158.68494302167048 330.0011478866134,153.2807627870995 330.0011478866134,147.86764649403764 330.0011478866134,142.44742163070143 330.0011478866134,137.02747918593286 330.0011478866134,131.60781231177992 330.0011478866134,126.18099312270627 330.0011478866134,120.75071370245206 330.0011478866134,115.32067534052354 330.0011478866134,109.8834358489428 330.0011478866134,104.4426942764364 330.0011478866134,99.00215906288561 330.0011478866134,93.55064844033036 336.56208793869524,93.54692355072513 343.1263943387333,93.54692355072513 349.6806018251931,93.54692355072513 356.24490822523103,93.54692355072513 362.80584827731843,93.54692355072513 369.3701546773565,93.54692355072513 375.93109479457974,93.54692355072513 382.4920348466615,93.54692355072513 389.056341246705,93.54692355072513 395.6139150811155,93.54692355072513 402.178221416012,93.54692355072513 408.7391614680939,93.54692355072513 415.30010158532275,93.54692355072513 421.8610417025478,93.54692355072513 428.4219817546297,93.54692355072513 434.9862881546732,93.54692355072513 441.5472282718965,93.54692355072513 448.10480204116556,93.54692355072513 454.66910844120906,93.54692355072513 461.23004849329095,93.54692355072513 467.7943549584758,93.54692355072513 474.3519286626015,93.54692355072513 480.91286877982486,93.54692355072513 487.4771751798628,93.54692355072513 494.03811529709344,93.54692355072513 500.59905534917533,93.54692355072513 507.1599954663985,93.54692355072513 513.7209355184859,93.54692355072513 520.2852419185239,93.54692355072513 526.8428156877928,93.54692355072513 533.4037558050218,93.54692355072513 539.9714284878744,93.543198659471 545.4972279762163,93.543198659471 546.7713767042221,93.18187323629445 547.2174128900402,92.23564846744036 547.2174128900402,88.97146985080441 547.2140466072275,87.97631271935626 547.2140466072275,85.16910704271193 547.208997117865,80.80170779705405 547.2022644870997,75.12924747706347 547.1955318563253,68.4217887394693 547.1854328776058,60.9273572649391 547.1753340291691,52.9020752952657 547.1686013984001,44.60665978913167 547.1618687676312,36.3065768655893 547.1517697889043,28.257099617406958 547.1450372232824,20.722016323990545 547.1349382445574,13.966030849205318 547.1248393309737,8.254559579654604 547.1248393309737,3.8421373539117343 547.1214729830251,1.0021465157449883 547.1147404173975,0Z" name="Tiris Zemmour" name_en="Tiris Zemmour Region" gn_name="Tiris Zemmour" admin="Mauritania" adm0_a3="MRT" iso_3166_2="MR-11" iso_a2="MR" postal="TZ" type="Wilayat|Région" type_en="Region" wikidataid="Q859567"/><path d="M1.583000616146319,462.6617918466089 0,455.1904409284215 0.24405752334369563,453.1271642672061 1.7689964054583038,446.82013807247375 2.2015673297386975,444.60459054328993 4.966991851165282,436.6562122459653 6.219259480312876,429.99430416630986 7.350340016216821,423.96394034537275 7.969741200017866,423.3890899545999 15.527109302924698,423.3890899545999 18.223524440408045,423.3890899545999 25.83138724150453,423.3854970665946 37.65387136627964,423.3854970665946 52.990784192012,423.3854970665946 71.14529924847709,423.3783111476856 91.40039236858587,423.37471825583924 113.06260349522626,423.37471825583924 135.4250072446083,423.3675323987806 157.78741112427863,423.3675323987806 179.4462558378195,423.3639395030934 181.45833771138138,423.36358269312035 189.4324700418839,436.4768560539828 80.86725793005313,436.0390769352171 97.89405878841131,464.70273494310703 55.61992565452439,543.7552854913567 51.99777505382066,550.3829497545906 49.634624696920014,553.2880600056365 49.37401387511354,552.9364257351398 50.91668554244005,550.2757851157205 51.28777496821643,548.9396322428528 51.870915457215794,548.0338628952007 52.006098003503,547.5669711235076 51.807300099164806,547.111243186835 51.3725953804751,546.8456261341727 50.9431919253402,546.8148700704311 50.74969528455287,547.0776919324145 50.41306420214808,547.0497324638244 46.78964131411471,551.0192641811434 44.92889305195726,552.5144552848576 47.598086090356226,546.8428301381939 46.675663822035176,547.3488950973842 44.03562786345694,549.554618194923 43.107904331584756,550.5944251900014 42.66259708579291,551.2484468803924 42.27295317243954,552.0114230131686 42.14572252147877,552.824647075077 42.461148549675606,553.621045296924 42.48765493257943,554.0485616640782 41.931020826483625,555.347774325724 41.771982529068154,556.004307378864 41.60764290295654,556.2026565381552 41.22330031829905,556.3199881146691 40.78594496783745,556.3451304428198 40.44136192496122,556.261322482383 40.13388785723583,556.0517997616217 40.09147768367532,555.9177031400926 40.11268273788314,555.7249364033147 39.996054679169646,555.3226297239393 39.88737851578245,554.7694340428699 39.91123426691071,553.0873251667939 39.996054679169646,552.5144552848576 40.61100281462397,551.4412919960353 42.31271277936582,549.6384772372398 42.66259708579291,548.464392207023 42.906455795467316,547.032956720951 43.53730778671992,546.3227611033914 44.406717224091715,545.8026674462659 45.374200297748835,544.9665511027107 51.595249035941684,535.5327380616804 51.98754351592942,535.1716736380755 52.42754949817013,534.8917705414323 52.788036396840965,534.5166890463813 52.931170838458286,533.8672636117856 53.01068998716609,532.4955046021809 53.21478915505896,531.9747506226591 53.62563812262041,531.7787615020876 53.752868773580914,531.5155704973035 54.89794463222736,530.2667261665775 55.20011743640148,529.8550799507024 55.21867192397506,529.1185583260519 55.05963362655959,528.5024180558094 54.733605071260754,527.9730695093701 54.272393969670894,527.5025157673484 54.78131657351373,527.0459469881098 55.109995760588,526.4969185249839 55.24782893865445,525.8638203887248 55.20011743640148,525.1522410754815 54.16901906983484,525.7377565790774 53.82708665873772,526.0935328721014 53.636240714867284,525.0009543546772 54.56926551029047,523.308640046823 54.272393969670894,522.3334774092601 53.06900408166594,521.5880349070947 52.24465544962641,522.17374407409 51.764889860462965,523.1909527105861 51.595249035941684,523.7401493788723 50.52439106245218,524.3901827761969 50.05787863216999,524.0735765548453 50.02076972216048,523.2413903174295 50.26462843183843,522.3334774092601 50.62511533050899,521.568417284083 51.020060442272296,520.9826752508773 54.85553445866685,517.0778468890403 55.9369949592619,515.398306015431 56.49097843358201,513.3510973013315 56.204709485205896,511.6513361893604 54.23528499451992,508.1668223557376 53.418888322951695,506.28942654075473 53.93311225548714,506.325911200058 54.399624620631535,506.2866200286304 54.821076115294986,506.121034090611 55.20011743640148,505.77582119608695 56.64206483567118,503.53587539430316 57.19869894176685,502.1630438415355 57.4213525972333,500.80688260869795 57.25436233934625,499.5544556650179 56.81700698888466,498.5153344336342 54.95095746317253,495.6417740568295 54.55336165449233,495.4254529824136 53.62563812262041,495.3692649717073 53.00538872361495,495.07146350190516 52.703215919440694,494.4252616373514 52.507068712019404,493.77340060152324 52.24465544962641,493.4839838603568 51.20825575436716,492.84049494356003 49.37401387511354,488.29280349031114 48.774969595457364,487.6658663215933 48.20243163356354,487.26100810388573 47.767726914877514,486.83082916266653 47.598086090356226,486.14756762740086 47.778329507120844,485.9113680966247 48.149418867759564,485.77639456174944 48.41183213014889,485.5908031108449 48.28460147918811,485.20554981790133 48.10170736550659,484.92433412586996 47.68025587083946,484.07501687811265 47.4019388177936,482.76434617485523 44.94744747438937,476.32674032017184 44.3059929560349,475.37539412325117 43.35176310640049,474.99257946655 42.816334119653966,474.1283799763337 42.73151364225384,472.40821263440745 42.44789532565302,471.15521142085584 41.33197648168611,471.68740343353016 39.996054679169646,470.7835056102125 39.996054679169646,470.2681642406627 42.94356477061447,469.4317361499307 43.807672944439354,469.02335455035075 42.461148549675606,468.84873133971917 40.16039424013598,469.23740484855705 39.108090754220186,469.0177216027733 38.21747619749544,467.9079684981111 38.70254305021355,467.4347381658131 37.772168886562255,465.4965221953258 37.334813536100654,465.17532930032775 35.95118023133135,464.5977205021261 35.49527039329236,467.6150189420101 36.00684362891062,474.3113598035159 35.10032521638772,476.92339842383234 34.440316275601,475.8482634711827 33.592111892433074,475.091099314545 31.948716022191217,474.0467417948839 31.410636338527656,473.44991910500323 30.57568524452732,471.83100611106795 29.96603837262386,471.00033560257606 29.15229233283134,470.4117865134671 27.108649956992377,469.3331627937887 26.61032994539315,468.84873133971917 26.55996781136447,468.0600736111489 26.87009251086911,467.73332645827406 27.28359211020599,467.6150189420101 27.500944502117903,467.4347381658131 27.482390014544187,466.84316993269425 27.108649956992377,466.27410580644073 27.018528281179034,465.76135790932716 26.711054213453643,464.7245154482576 25.968875427038675,463.8876402509389 24.16644119423975,462.44760571598266 23.919931787645037,461.91775779204335 23.938486275218615,460.6324820077806 23.699928763953878,460.08280869060366 22.607865736256695,458.8790627737689 21.870988213392728,455.6166844220195 21.473392404712524,454.8354776752993 20.78952764765594,453.99215908425396 20.338919073171894,452.9682378554798 20.0685539805938,451.87650696213296 19.941323329633025,450.8298033595857 19.657705013032487,451.16555008937553 19.244205348554132,451.5012859080979 19.053359404683704,451.7777659378656 18.107081450379404,450.84391055110757 17.730690761048486,449.7942799064036 17.558399239610303,448.6627028258987 17.23237068431133,447.47455353698774 16.818871084974447,446.9806267172031 16.2224774370937,446.4951439712443 15.68439775343014,445.84591594144143 15.451141570861687,444.8494118839779 15.10125732957579,444.1718465853404 13.54268180645113,442.02027888620364 13.187496236469357,441.05729127017514 13.054964321957717,440.08009068788664 12.726285134879499,438.97003531360326 11.896635304430164,437.0066640459835 10.656136441278043,435.45829973362885 9.768172516328857,435.98951694659337 8.071763815141557,439.1592899488336 5.283292086249717,442.9690575392438 4.628584343872664,443.5252944662169 4.2548442863208535,444.33841887500455 4.739911139035155,445.57774450874393 5.4714873983444425,445.2220536741041 5.551006547052244,446.4076417417466 5.140157579490928,448.93925936195546 5.002324401428153,451.19094225893 4.739911139035155,451.7777659378656 4.111709844703398,452.198114157483 2.6008458238318495,452.65229664700905 2.0680674688607574,453.19672495208783 2.0230066635246846,453.80317854245664 2.3225287707821742,454.3278025009545 2.958682025585511,455.0498218938446 3.427845087646814,456.15531584982824 3.4702552612039126,456.61214352630054 3.4039893365185554,457.4580672601519 2.7837398723718962,460.3844279295287 2.22975646319299,461.9064841664421 1.583000616146319,462.6617918466089Z" name="Dakhlet Nouadhibou" name_en="Dakhlet Nouadhibou" gn_name="Dakhlet Nouadhibou" admin="Mauritania" adm0_a3="MRT" iso_3166_2="MR-08" iso_a2="MR" postal="DN" type="Wilayat|Région" type_en="Region" wikidataid="Q859573"/><path d="M45.81950760868202,528.4856137818981 47.08386215782106,525.7573666169925 47.89495756583815,524.7123830921118 48.48870064708098,525.5836766670639 46.51927615639501,534.8469853494038 44.87322965437786,539.162308810269 42.25704938178259,543.0871533862011 41.135829274264815,541.6074596906548 40.92377814590023,541.1654706634448 40.93703136992294,540.6115604991234 41.09606966733841,539.9792851536607 41.10402156266852,539.2910146446821 40.682570068001525,538.585911889269 40.205455110613656,537.3546708183547 40.65076242154657,536.0673152541098 42.52741447436069,533.2289972950425 42.66259708579291,532.9294471104096 42.58837920063638,530.933167763692 42.66259708579291,530.32273123312 43.18742348029256,529.0317407007598 44.022374639434226,527.9646669644436 44.96335133018752,527.6201561056397 45.81950760868202,528.4856137818981Z" name="Dakhlet Nouadhibou" name_en="Dakhlet Nouadhibou" gn_name="Dakhlet Nouadhibou" admin="Mauritania" adm0_a3="MRT" iso_3166_2="MR-08" iso_a2="MR" postal="DN" type="Wilayat|Région" type_en="Region" wikidataid="Q859573"/><path d="M49.525100277198895,534.3375410546371 50.26462843183843,534.1807841467023 50.781502996149165,534.7434189288468 50.01546845860935,535.9777543711372 48.94461048511998,536.9908683509325 48.138816340653754,537.919939708795 47.06265710360957,539.8813631769557 44.73009514761907,543.1794527504983 44.52334534795049,543.1794527504983 44.8467232063327,541.9962832787564 47.073259630715384,537.849982251364 49.525100277198895,534.3375410546371Z" name="Dakhlet Nouadhibou" name_en="Dakhlet Nouadhibou" gn_name="Dakhlet Nouadhibou" admin="Mauritania" adm0_a3="MRT" iso_3166_2="MR-08" iso_a2="MR" postal="DN" type="Wilayat|Région" type_en="Region" wikidataid="Q859573"/><path d="M39.346648200343594,534.130397581122 39.83966701352948,534.2367690065612 39.87942655531441,534.9421536446376 39.71243636256884,536.321999820997 39.29893669809062,537.2931050583541 38.885437098753734,537.8303940717359 38.38976771893362,537.3938487854464 38.0610885318554,535.918979683827 38.43747922118632,534.5726721750341 39.346648200343594,534.130397581122Z" name="Dakhlet Nouadhibou" name_en="Dakhlet Nouadhibou" gn_name="Dakhlet Nouadhibou" admin="Mauritania" adm0_a3="MRT" iso_3166_2="MR-08" iso_a2="MR" postal="DN" type="Wilayat|Région" type_en="Region" wikidataid="Q859573"/><path d="M40.51027854656334,473.19935601045967 41.072213916213556,473.3485684418922 41.35053096925983,473.70892179138156 41.23920417409706,475.97773580075193 40.84425899719256,476.2141595056284 39.990753415618514,475.85952197433255 39.53749420935536,474.6181956384223 39.871474659984436,473.5878670036376 40.51027854656334,473.19935601045967Z" name="Dakhlet Nouadhibou" name_en="Dakhlet Nouadhibou" gn_name="Dakhlet Nouadhibou" admin="Mauritania" adm0_a3="MRT" iso_3166_2="MR-08" iso_a2="MR" postal="DN" type="Wilayat|Région" type_en="Region" wikidataid="Q859573"/><path d="M181.45833771138138,423.36358269312035 199.70471530588634,423.3603466061246 217.8524977967236,423.3567536383474 233.19277690526326,423.3531607388256 245.0203104542707,423.3531607388256 252.62649011395524,423.3531607388256 255.3212220448835,423.3495677684877 264.8630305424042,423.3495677684877 264.1510557343876,412.0866098737812 263.76567752073,406.0563085255236 263.90200133223584,406.0959304202024 265.5329789687267,406.6465804837459 306.3713805327096,422.0848326327169 409.9611849873275,410.3707682750918 688.8297523463095,216.5914089634628 688.8670136430595,216.56524395934775 688.9104911717503,216.96958751506241 689.3817747392302,221.3677000015128 690.415232226705,231.02642226436632 691.4554223449489,240.67478863711455 691.9233394993296,245.05584232461712 692.8423423940343,253.6013218231368 693.7613452887332,262.13879420905783 694.6837145313939,270.6683125346488 695.6027174260928,279.18810612659934 696.5250866036101,287.7036979951728 697.4407232155019,296.2078497801558 697.6418984805358,298.0612385663438 697.6124577161311,298.1316458736015 697.1596888031651,299.21437133004747 593.2450353915023,532.598308502961 592.3664282676106,534.5501389660373 395.2672375632511,535.5081496393954 393.8752679740663,535.5152588595301 369.9004012933592,555.2503945550138 368.6178368024427,556.3059362663986 367.1097294394841,567.9368337770945 366.7865636513139,570.4245472519635 351.9798447912164,562.4172255926284 338.1123267830846,572.0171718819671 308.71096670108045,591.215371520287 301.2007268674971,599.5220465258924 287.4140003210529,614.6367262222581 249.94695924549467,584.3041141609863 186.26645451614843,584.3041141609863 186.3354639128629,565.3829823283284 186.40447330957736,554.9541150795848 190.65107458413348,438.3120938041625 189.4324700418839,436.4768560539828 181.45833771138138,423.36358269312035Z" name="Adrar" name_en="Adrar Region" gn_name="Adrar" admin="Mauritania" adm0_a3="MRT" iso_3166_2="MR-07" iso_a2="MR" postal="AD" type="Wilayat|Région" type_en="Region" wikidataid="Q366626"/><path d="M141.27228941241424,744.8128547472976 140.07051648145085,744.6277852408399 139.39388790354778,743.7722404804589 138.8986331931107,742.7913764535266 139.96284707677998,741.4428278260114 146.33190743346503,737.3014723588502 155.24758209008436,732.3950760622059 160.31388004649253,730.2820146766763 162.28822143909767,728.500756277407 163.63474587868106,726.6405674902986 164.07068316145583,726.3153559517149 179.85868156820416,714.5443721004908 203.40266053135474,679.5801417918984 218.0646279225141,666.2269823777966 236.33864707686587,652.6355376234424 287.4140003210529,614.6367262222581 299.81380678494327,633.9361164436659 298.0313451211722,652.7727426928195 297.10897595797394,664.1956659754578 297.3362018817271,664.1956659754578 295.509978237233,687.1633149178331 304.3179309058751,696.4104403090512 310.7896637439028,701.8478065308434 309.7713546577076,702.3856302725686 309.0442315025126,703.1336392042111 308.9331431767862,704.3685431321286 308.31879151619574,705.109426366997 305.77554355401793,705.5717990895715 303.6514013030108,706.4211887786103 302.44289565685983,707.6610180505266 300.4399406276739,707.9061673498577 298.98232803811476,709.1213359048136 297.26045986808714,712.2987725644261 295.53690870493557,713.0811902925307 294.17018647315865,713.4172472357155 292.96673027505517,714.0473296078211 292.2429733990329,714.5758741333638 291.43169250297757,714.9661426320446 290.6187283794641,714.7613844028598 289.7552696583018,714.7613844028598 286.8501432581148,715.6311460258647 286.27618724049455,716.248867428284 285.54738085783777,716.8525600295042 283.57977214074185,717.3197454882796 278.91406509643514,722.7077413483893 278.2071398506005,723.9389583415527 277.683678430629,725.339670821172 277.7813014639243,727.7560143658341 277.3857599412832,730.0967335477135 277.2309096348338,732.6030423684339 274.14736873966393,737.058643370679 272.90183367112843,739.7137878622129 271.89362359819523,743.237987023849 270.31650689710574,746.4487374936248 264.80753898241363,748.5591187221542 258.68590251742216,749.1839624258828 255.56364908957678,752.9323867168158 255.20513693073678,758.3402031014016 254.02356175228462,760.1155671366706 227.4297050957596,767.2773417887772 224.65586487207202,768.5112518816461 223.8917122944997,771.2365952068171 223.55171487613816,774.1738941156758 222.30449663872815,775.7520287996851 220.4058972597631,776.8057549826153 219.06433759135894,777.2975620291443 219.4346639426539,776.1665082292097 219.5676332211851,775.3025911300606 218.94486568942233,775.229434261812 218.34061284341303,775.2607872648471 217.76665680329032,775.4210347489073 217.21458179687704,775.7415237886581 216.72310046737323,776.2152759763951 215.56677261495798,777.8941721111798 215.12241957054638,778.381778129115 214.0721305387244,779.1897713485886 213.00500996255354,779.8061810878935 212.49164759934015,779.9942325505739 211.96313676804473,780.046468566201 211.41274490303988,779.9071720650429 210.82195725342683,779.538028982455 210.30522860740058,779.0365350034772 209.89453858654517,778.444469041562 209.58483802721258,777.8001317028387 209.0344461622076,775.98536893332 208.71128034133523,775.4384528242394 208.28207563473387,774.9751238362297 207.2553508431637,774.1947433841043 206.71842423969835,773.8777006044713 204.16339421805748,773.1286130037649 203.05419471587032,772.5258277224284 202.81182033393122,771.4491076420014 203.1450851335286,770.2398698109189 203.12152095841265,769.6718031198671 202.83538450905453,769.0653733202265 202.19410229153098,768.225386865303 202.06113301300712,767.7862022395854 202.18232023654653,767.2145430148424 202.59301012711722,766.17573226155 202.5475649182899,765.7051028629842 202.15707285488097,765.248401740699 201.55786956337727,764.917196276386 200.2769881394593,764.4186289888121 199.69798267511555,764.0420759901026 198.56016963873836,762.678723574215 198.11918287713962,762.2707360758935 195.9563280603214,761.0187971038591 192.08675359121176,757.5099341253363 189.87508728274796,754.9282545731785 188.331633714878,753.8326291176461 187.86876598471292,753.4034256432301 186.7629328304801,751.951704656289 186.23442193404145,751.6376088691331 185.49215038528715,751.5049883782275 183.9301820665168,751.396796901603 183.2518704123487,751.0791974541957 182.91355618853208,750.5556647185156 182.82771526023998,749.3479679649711 182.60722191201225,748.824364705444 181.9760386080722,748.524155824122 179.47991899166237,748.7475677339661 178.87061665629042,748.4717931333332 178.7595284766175,747.9551361406099 179.10289218979293,746.6703853144744 179.12982264772353,745.9301986323944 178.85715145989948,745.4274059586716 178.3538880102696,745.0817245161993 174.22510754973246,743.450959962696 172.94759253891195,743.5312807985041 172.32314186574268,743.775732586994 170.61473907205578,744.8023792067245 169.9700905065761,745.0991834547128 169.29009564586028,745.2842461442992 168.59326930593326,745.3645554693425 167.88802719382895,745.3505887045836 165.24715624390333,744.7988873129209 164.55201298023565,744.8163465697271 161.82361789546465,745.588022444107 161.10322738041978,745.6124639036291 160.38620314818982,745.4867644333095 158.55492998955157,744.6173095487487 157.98265709083523,744.4566808804676 157.33632544909622,744.4741406042715 155.13475805421592,745.0502984614574 154.38407073328446,745.1410845937673 143.2584129484364,744.3379540995619 141.27228941241424,744.8128547472976Z" name="Brakna" name_en="Brakna Region" gn_name="Brakna" admin="Mauritania" adm0_a3="MRT" iso_3166_2="MR-05" iso_a2="MR" postal="BR" type="Wilayat|Région" type_en="Region" wikidataid="Q12632"/><path d="M138.8986331931107,742.7913764535266 138.83844661431996,742.6721702391753 137.98676989701616,741.7606116689294 137.24618148966292,741.3833959601885 135.79193519804102,741.9876342478872 135.1220393160446,742.4346823509362 134.7012504467488,743.0598248502131 134.49590550146706,744.0062114690487 134.35115410280994,744.4427130572415 134.03135456475783,744.8582487023876 133.6273971746675,745.1620351794224 133.1662125859145,745.3575720550839 132.6814638220381,745.4029641458804 132.21354660251598,745.2493288158624 131.5335518069359,744.5998499527645 131.0218725199874,743.8246224513433 130.43276807691868,743.1680866895446 129.49356735505802,742.8852071540814 128.5644655467754,743.1401482120168 127.9989252788244,743.8071617731727 127.86763914170135,744.680163707795 128.25476492229592,745.5845307646124 129.30842023693242,746.6145236565343 129.52386416093915,747.0439538391836 129.50029998582878,747.5466830906398 129.2208961672341,747.9306991478508 128.79674094998953,748.209976340044 127.4232860972953,748.7266230747846 120.42809191438364,749.8296640611223 119.37780288256153,749.8680593698106 116.29426202963243,749.3793834209947 114.20378287955931,749.4526860556066 113.18715700158018,749.6725912474801 110.44361357901185,750.8174337161992 109.5279769671145,751.047786084164 108.56857828780399,751.0687269610117 107.76403005101868,750.7231974583854 107.31967694146913,750.0914478404537 106.94601648755595,749.4038176564887 106.33334786937127,748.8976704401716 105.34701873213002,748.8104016415996 104.40108531435152,749.2362677183952 103.59317072961024,749.9553209838507 102.01100458367817,752.2239148206096 101.3848707039593,752.8136837288649 100.6106192079119,753.197542443937 99.64785424578646,753.2917605941738 96.8504498422212,752.7159723419543 95.85738813935255,752.873008077679 95.08650286097628,753.3510827423792 93.64572176574535,754.673547374917 92.74691676334403,755.2457591888116 91.78415186636728,755.570233871116 90.78435746758639,755.6260566584549 89.76436524165126,755.3643852448424 88.22596109799674,754.6316772349937 87.6738861567267,754.4676845174712 85.55984283154336,754.3490501526388 82.61432074650047,753.3824884948885 81.57413062826227,753.330145576555 79.96840030721235,753.6197739149969 79.4196916487496,753.6197739149969 77.14406538056207,753.0684275939188 76.22506255100639,753.1731154787129 73.64310194115741,754.3246253010182 73.16171952523725,754.4188351496263 72.75102956951952,754.3804534750021 71.90945183093524,754.0454808071295 71.36747573810575,753.9163744483184 70.87936069142191,754.0001193027305 70.41817603752187,754.2408826208398 69.95362516594852,754.5723609090057 68.39838954308853,754.7921787566119 66.92731157682925,754.6212096956662 65.60771770513962,753.9826724550744 64.50356769231864,752.8136837288649 63.7158509347316,751.6410988351707 63.234468453669834,751.142019964187 62.635265097030384,750.7755511102417 61.81388525074196,750.6149995420687 61.02953477597515,750.7546096210414 60.28221373786366,751.1036284592495 58.36678279233438,752.4682010603012 57.70361954110696,752.7787868659199 56.96303106861755,752.9113943072626 56.232541639990934,752.8590494756355 54.07810259534825,752.4472624598905 52.59355949783963,752.7473796422173 51.206639318464305,753.5953476147628 50.004866322363256,754.7642655566549 49.10269497200568,756.0307646017759 48.61121364250922,757.2971395178685 48.27121621214109,759.9899546483821 45.60509788055168,771.4072914960306 45.32569406195686,772.1982912018899 44.915004171393534,772.8847148057486 43.89837822826557,773.553681929329 41.4948321709111,774.1285482809855 40.54553247032545,774.9472539354435 40.07424896798309,776.3023609291082 39.78474623581578,780.8648063652859 38.65366576506053,783.5806281078292 37.75486069751788,786.556946828966 37.36773498207036,787.3296360974751 37.21288466982959,794.6609913252206 36.57328552857093,798.3721082703433 35.10032521638772,800.898718998844 36.078410882291855,789.5541348678536 35.95118023133135,783.595869454574 35.304424384280594,770.0194072330083 35.95118023133135,765.6033431958351 36.41239133292094,764.4009487558008 38.21747619749544,760.955116045408 38.76085707956839,757.5715438665 39.31218992211306,756.5744297991815 39.99870531094494,754.7942663092592 39.996054679169646,747.5419546370953 40.51557981011802,744.589291393738 45.732036499506314,731.2663180584698 47.12097113296836,728.9898624561467 48.080502311295234,724.4136872650262 49.19377045834511,722.1828180850198 52.31622270300764,717.750198251517 57.887864962374294,705.6509694654494 58.26955691525622,703.9877477505252 59.186677854884934,702.7325982050033 65.285797205668,683.5666864992168 67.23931777541436,675.2554114070098 67.73233658860052,666.2273144499558 68.33869284441373,660.3499531659767 84.66613991544486,660.3394334693465 84.76039661098382,641.3933918222742 84.68970404539114,625.8288149019231 67.15963967642563,626.0209879538318 66.51381274201553,625.9748992173786 65.9086972364489,619.6196866862512 65.18242230583549,617.1831438284278 61.83201514215564,609.7425275081105 60.289343474829266,601.2759818480102 59.162822103756675,598.4987894721478 59.74861322453174,596.876128024351 59.64258769292012,595.0054657985233 57.10327593726103,585.5221362308345 56.72688524792984,584.6221292609661 183.63231619618443,584.3111920906103 186.26645451614843,584.3041141609863 249.94695924549467,584.3041141609863 287.4140003210529,614.6367262222581 236.33864707686587,652.6355376234424 218.0646279225141,666.2269823777966 203.40266053135474,679.5801417918984 179.85868156820416,714.5443721004908 164.07068316145583,726.3153559517149 163.63474587868106,726.6405674902986 162.28822143909767,728.500756277407 160.31388004649253,730.2820146766763 155.24758209008436,732.3950760622059 146.33190743346503,737.3014723588502 139.96284707677998,741.4428278260114 138.8986331931107,742.7913764535266Z" name="Trarza" name_en="Trarza Region" gn_name="Wilaya du Trarza" admin="Mauritania" adm0_a3="MRT" iso_3166_2="MR-06" iso_a2="MR" postal="TR" type="Wilayat|Région" type_en="Region" wikidataid="Q859581"/><path d="M222.27919676160178,780.9065924523344 221.82474473847608,780.8265023753337 221.68167654636872,780.7394472435199 221.25415504630402,780.3633628722904 221.07405735240314,780.2658577629893 220.67514951682426,780.1126339835554 220.5169329217709,780.0186093970774 220.4327751348871,779.9211017408882 220.33178580364898,779.6808119122521 220.2594101368911,779.5658891663004 219.96485791536318,779.3499710170614 219.28991260914003,779.0852922584172 218.98189506092925,778.8937450984317 218.77318383283463,778.1867378874256 219.06433759135894,777.2975620291443 220.4058972597631,776.8057549826153 222.30449663872815,775.7520287996851 223.55171487613816,774.1738941156758 223.8917122944997,771.2365952068171 224.65586487207202,768.5112518816461 227.4297050957596,767.2773417887772 254.02356175228462,760.1155671366706 255.20513693073678,758.3402031014016 255.56364908957678,752.9323867168158 258.68590251742216,749.1839624258828 264.80753898241363,748.5591187221542 270.31650689710574,746.4487374936248 271.89362359819523,743.237987023849 272.90183367112843,739.7137878622129 274.14736873966393,737.058643370679 277.2309096348338,732.6030423684339 277.3857599412832,730.0967335477135 278.78277903709903,732.5244000364264 277.5153629489119,735.1123497656073 276.62329047400186,737.9356010483044 276.5088359276862,740.9573231396113 276.83031866414524,742.5796748600467 278.276149247315,743.6361009999358 280.26732209435704,744.7046614080892 281.2822649013866,746.747249239061 281.55325292303,748.3775942697717 282.0413680309115,749.8960377029125 283.07482551983605,750.7354679165275 283.0462118246755,752.0407515543056 282.3325539033318,753.5744653216354 281.0685041528975,754.7172164989285 281.03820734744227,755.8842884029982 281.34454168117543,757.0896286808913 282.20968357121217,757.0163695512591 283.32056618407154,757.082651641697 284.14699548285273,757.4594066761625 285.08114676960764,757.2797517475617 286.53034374911743,755.8842884029982 288.15963821673023,755.3190829498814 300.5678604664245,757.4384760849435 303.02695062915836,758.1710250554374 302.94615916747085,760.3039018854107 303.4460563403292,761.3815427711255 303.6396192380377,763.6934606347068 304.0031807863416,764.7847662229916 304.1176353912409,767.5213445024224 302.787942523265,772.1669853080859 303.1296231105009,774.1843460455757 305.69811837150326,773.9474354100685 308.1420601315076,771.7732327904791 309.33036786830183,771.1024323446359 310.6449123335481,770.7312994629158 311.7945075376667,771.0292520663021 312.8313313057643,771.713994612117 314.32092392823694,772.0676771535789 315.3510151379923,773.168736032148 315.75497238785005,778.5037312705666 316.5224913031788,779.8271302415603 318.81663226336855,779.8044942715233 319.87028760307004,780.4435102372415 320.9491903001794,780.7882525582212 321.2437424517688,780.3877934959245 321.69314496839485,779.9107088155412 324.58648930360897,780.8387444094536 326.86716491277656,783.223827531395 327.6212185942577,784.2491069994768 328.8600209872803,784.6094155985357 330.3277326486888,784.5171636033301 329.73189555282994,789.4108553625516 330.67951213201974,792.1110125125391 326.1417249264597,793.5896039681527 321.76215436510944,795.720227476033 318.4547538253555,795.2645634772102 315.5243801263441,796.0663130833841 314.1004305628257,797.3653586036005 313.30261490062526,799.0328910703853 311.9291599933428,800.9557736338253 300.8304327022639,811.0073240752506 299.28529603409146,814.4030762643097 298.8089629325995,817.0791310709611 297.69471404056713,818.1955906054454 296.2758139836835,818.9577866485596 292.7142569938941,823.4120517827802 287.033607201145,832.6405991124083 285.04748368498326,837.0453669689956 282.3607399373336,846.4196045955764 281.8443862672354,845.9217161500368 280.2033096509439,845.3966726969034 280.1275676362316,845.2164552741956 279.9272721151693,844.6082042471095 279.88351011288614,844.0796455889617 280.23528959823693,842.377724381654 280.22182433669906,841.8265487421504 280.05855825228673,841.3117518247374 279.71687774566095,840.8506717645558 279.12440695464164,840.4398470472009 278.4679763341793,840.2526317211888 277.77956576642765,840.2526317211888 276.3875961628385,840.5421209509697 275.76482856593253,840.5299868266123 275.18582310158865,840.3254380245257 274.6185997573783,839.8764601474927 273.1290071053638,838.3872755568452 272.73683183540703,837.5498643879273 273.3999951517758,837.0487805559216 275.6251266566379,837.2793853249007 276.70571249434647,837.1042647770208 277.05749204483493,836.1731409743498 276.63501996899146,835.0754791477837 275.80522435053865,834.1997151583411 271.9255509678508,831.5547454534951 271.13446786231515,830.703044397881 270.59754125884245,829.6708719454762 270.3501174526895,828.576164495507 270.34001847396274,826.3274912163641 270.2171481741639,825.8069126626892 269.92427902889546,825.3036679977869 269.2695315498377,824.4411680067155 269.0540876909725,823.9847326088116 268.79151541673207,822.1275957254293 268.59121989566404,821.5443681347843 268.18053000509525,821.0461749406651 267.14707251762576,820.567059146593 266.12708029168493,820.7059350554742 265.16936481892213,821.2388581484737 264.3075891880349,821.9331892401513 263.3229432573433,822.5424359747988 262.3887919596982,822.6621991683076 260.39443544022345,822.1484604541303 260.02059219758723,821.8602861899863 259.79168301204646,821.2440657197442 259.67049585364856,820.6729521731006 259.66208008147123,820.0879266574535 260.0290079697682,817.5600511227634 259.87584079893026,816.6137137301467 259.4062404379999,815.8236018770392 258.7094140329296,815.1827962433106 257.89476681741934,814.7069482684516 256.3950753169701,814.3005538242887 255.91874226012763,814.1077727758527 254.713602916065,813.2376189523923 254.24568576168423,813.0465597439946 253.29638599595165,812.9944522579987 251.3422425375072,813.3383582049088 250.3626460310348,813.3661481728416 249.74661113004282,811.6951735270667 249.65235436443226,811.1288714294426 249.7230469549251,810.5312755626965 249.96205498890808,809.9857726731145 250.94670098474117,808.4464325895049 251.0611555123701,807.9529728217035 250.98709670421144,807.4594949966054 250.70769288561675,806.8999667618193 249.96542133686245,805.8121219402921 249.52780085807822,805.3428966070876 249.00602265755165,804.9362214716193 248.00959460673425,804.3522563409922 247.55345950733803,803.994217543818 247.2168284249316,803.5353578548718 247.13098749663587,802.9617612956093 247.27573883014972,802.3916168523924 247.49286589556473,801.8214482702673 247.63761729422185,801.2547324309573 247.61910254332514,799.9543247556157 247.3060356360363,798.8068016974553 246.72703017169258,797.7704693145245 245.54713814415416,796.3932057190284 245.26941753211455,795.9897380611318 245.1297155576786,795.5375615841568 245.1297155576786,794.9844941643622 245.37882263552817,793.8469817901254 245.41921835499284,793.2729708456649 245.27615016287987,792.7128516210871 244.89575694791108,792.1944594627838 243.25131411394815,790.9418851074287 242.6790412152318,790.3503507238972 242.18755982059196,789.706592383143 241.76845409270445,789.0071222792366 240.8629164595397,786.7379411235917 240.77370918329163,786.2193161286604 240.70806614729892,785.0392818407718 240.5448000628885,784.5205904215949 240.15262479292966,784.0366923112041 238.3600642123535,782.8286102481551 238.03858153288942,782.4351765126122 237.51512019095458,781.526404079869 237.19195430494634,781.1677526193464 236.21067465706213,781.1433778942758 233.83574226419333,782.0730677418272 233.1742621543723,781.6204179323731 233.2937662364996,780.5757822819226 234.38613406405688,778.5280564834022 234.26663011220856,777.587667642269 233.83574226419333,777.5005911941086 233.46376495168093,777.5145234806807 233.10356969415858,777.6259810404307 232.21654668160568,777.9882118481455 228.78627583268664,778.7196089568096 226.81025127539672,779.5763367116465 226.31708667420168,779.7260842669577 226.08817755380224,779.7504616088294 224.86452352398615,779.7574265650044 224.48917986352322,779.8375231956787 222.70503505511863,780.7916804453763 222.27919676160178,780.9065924523344Z" name="Gorgol" name_en="Gorgol Region" gn_name="Gorgol" admin="Mauritania" adm0_a3="MRT" iso_3166_2="MR-04" iso_a2="MR" postal="GO" type="Wilayat|Région" type_en="Region" wikidataid="Q859831"/><path d="M286.03039392644865,849.0178599985329 284.2883279789133,848.2781047915802 282.3607399373336,846.4196045955764 285.04748368498326,837.0453669689956 287.033607201145,832.6405991124083 292.7142569938941,823.4120517827802 296.2758139836835,818.9577866485596 297.69471404056713,818.1955906054454 298.8089629325995,817.0791310709611 299.28529603409146,814.4030762643097 300.8304327022639,811.0073240752506 311.9291599933428,800.9557736338253 313.30261490062526,799.0328910703853 314.1004305628257,797.3653586036005 315.5243801263441,796.0663130833841 318.4547538253555,795.2645634772102 321.76215436510944,795.720227476033 326.1417249264597,793.5896039681527 330.67951213201974,792.1110125125391 332.65721980379396,792.457191587932 333.93473484666316,793.9200902367337 335.1567057266653,794.6419135335259 336.82639589583175,794.1792554205979 338.6408375339402,793.9340053203365 340.4182498082474,794.146207838742 341.8001203841664,794.149686506737 341.61329016196345,793.0555904495224 341.9802180480238,791.9701028604766 342.8655578474246,791.5925969348568 343.8081249199797,790.9732552457513 344.27435900820984,789.8701990894571 343.71050188668823,788.3650932928756 342.9934776275917,786.9276888356053 342.658529715865,785.3595919202 343.20555526578244,784.2961043368587 343.97812362915863,784.7921771357454 344.7035636154754,785.4657618698352 348.1237355912503,785.0393361735446 348.95689750695715,785.7285725412427 350.0997600941501,785.9635312792963 351.0692576344077,785.7633814810819 352.0286563371539,785.93742499199 356.57822560768693,788.9967364993472 363.5481724496947,790.0946453326926 362.4945171685767,791.6952378279112 360.8012626937098,792.5893982630871 360.06740692159275,793.4295760819613 359.5910739372642,794.4401548454306 359.69711269777594,795.2106480625533 359.8906755954881,795.8228367254582 359.0928598747005,797.4853443891302 357.5914851872511,798.5808172607765 357.2110920673395,799.4432218386082 357.17237947608413,800.3716358825035 356.81891682387493,801.9970753549678 356.228129234647,803.6848908990963 353.730326480654,806.4447356506417 352.93251081845364,809.7825606519691 352.54370191273813,813.2133567735171 350.97668416633064,816.3046747156552 350.4276497806301,819.1469765707353 348.7784304748411,818.895230407011 348.7784304748411,821.1919895149078 348.62358016260225,821.9262461603989 346.9673551433627,823.7382858851563 346.13251003554933,825.8797948387095 345.10241889603054,830.6683508000265 342.92441567625883,835.3529373646759 342.6551108363965,836.4263018803139 342.2814502521986,839.6164277027257 341.05274679816137,843.2044471687757 340.8877975723444,844.6082042471095 340.94502483615423,845.2389825954976 341.1470034334874,846.1712348374011 341.0864098868554,846.8608537098922 340.3289898700192,849.5635561306613 340.1741395577784,851.5867781965745 340.05968503015123,851.9262630180054 340.70265045422263,852.3991033653309 341.13017195428176,852.239759684886 341.4735356674516,851.9262630180054 341.88759190597665,851.9262630180054 342.6483781404842,852.5463214393492 343.1297606215479,853.2979757535006 343.30480882608987,854.2522074395033 343.16679005819805,855.473045249648 343.16679005819805,855.4834349534729 342.6854075771344,856.5327509558275 342.34541021192246,857.7256909317715 342.01214541233065,860.1406976800023 342.0660063933332,860.549217385786 342.24442081554287,860.8677161529778 342.6955065558613,861.4821909059234 342.69887283867405,861.913172801344 342.3285786675755,862.1416399038188 341.8707603616241,862.2662567245678 341.61155437020216,862.373564852937 341.38937788056046,862.6816383920315 341.0561130809704,863.0347032806775 340.7161157157567,863.4864059561957 340.4636423550981,864.1007677685168 339.94859678533686,864.9867867948002 338.9790992575896,865.8277618208697 337.7907914578757,866.4610560418031 335.1684351936979,867.0268444138973 334.23596703746114,867.8348275531297 332.694196610992,869.9575127067274 331.55301722665877,870.7480332436644 330.27718535724654,871.1026289547835 328.97442296476044,871.0974398554366 327.76255105507573,870.8033853543511 327.281168574014,871.1562500070224 326.9378048608387,872.206144115472 326.41266031235796,873 325.69226979731866,872.6229671524915 322.94199374397397,870.1720127424063 321.95229832392556,869.6444061233101 320.5620119268841,869.8796692129159 317.75787489254253,870.8725751427088 316.3558063102266,871.055926591521 314.92175784576074,870.8172233654507 313.79236051641567,870.2861807850364 310.1803088321857,867.4576590930035 306.0818252426766,865.5266777217818 304.9355963689809,864.5645502678959 302.7373952569135,861.9495201113124 301.83859025451204,861.4129556180905 301.80156081786026,860.6911578790191 300.28335463165206,855.3449055229696 299.97365400717797,854.6920675198897 299.41148002204545,854.0530537514569 298.7163368235248,853.6685924973693 297.1913980065458,853.3152945633278 296.4996210256967,852.9082982257194 295.3618079241763,852.0492376995944 291.77332041506224,849.930806395308 290.9317427416194,848.8688725857847 290.4183802481287,848.3560667299586 289.810761184448,848.142969647056 288.80928364426615,848.2954296370823 286.74910136522834,848.9243099422661 286.0773282572732,849.0117508341795 286.03039392644865,849.0178599985329Z" name="Guidimaka" name_en="Guidimaka Region" gn_name="Guidimaka" admin="Mauritania" adm0_a3="MRT" iso_3166_2="MR-10" iso_a2="MR" postal="GD" type="Wilayat|Région" type_en="Region" wikidataid="Q768119"/><path d="M697.6418984805358,298.0612385663438 698.3630924581569,304.7024419366276 699.2820953528613,313.1929821943061 700.2044645303788,321.674066465256 701.1234674250777,330.1457512579492 702.0391039718261,338.61171657569605 702.9614732144812,347.0738192347472 703.8804761091857,355.5248650986787 704.802845286703,363.96852903017174 705.7218481814076,372.40847283900405 706.6408510761065,380.8375208437894 707.5598540359542,389.2629430089692 708.4822232134717,397.6739734966436 709.4012261081706,406.0814777000977 710.3202290028695,414.48549608956097 711.2392318975742,422.87888272830486 712.1616011402348,431.26528601111323 713.0806040349338,439.6447547791745 713.9996068644949,448.01733797116435 714.4439599740444,452.084622232107 715.4269227633351,461.01267011363956 716.4065192046642,469.9330101104439 716.8508723142118,473.98452787595744 717.6756185084489,481.4469292039072 718.6148192303151,490.0820965857067 719.5472873865536,498.71375870733937 720.4864881084181,507.3348319895485 721.4223226126129,515.9524998708241 722.361523399615,524.5579107298681 723.2939914907159,533.1600179212564 724.2264596469546,541.7570888575656 725.1656604339566,550.3491713431156 725.1656604339566,550.3562709299268 726.1486231580985,559.7999797329576 726.5694120925358,563.8070796251077 726.9834683310552,567.8074162674069 727.4008908523948,571.8080864608675 727.818313438876,575.80555188952 728.4814766901035,582.1627791971396 729.1446399413364,588.5128761638023 729.8111695405202,594.8594051355851 730.4709664437916,601.2023869921447 731.1307634773532,607.5453740604286 731.7939267285807,613.8813216200834 732.4638226105773,620.2137839218111 733.1236195138542,626.5463073949851 733.7867827650817,632.8665727796835 734.4533123642653,639.1939864493476 735.116475615493,645.5109505034321 735.7796388667259,651.8245334240704 736.4192380079771,657.9659636080086 737.0689359976724,664.1007141849504 737.715267704551,670.2358350496423 738.3548667806626,676.3713392940995 739.004564770356,682.4967120526501 739.6475301944218,688.6225052295962 740.2904956184951,694.7417202688853 740.940193608183,700.8613888411223 741.5865253150691,706.978021856684 742.2294906739916,713.091637542916 742.8724560980594,719.1987551896111 743.5221541528941,725.3063926394244 744.1651195769618,731.4145629579604 744.8080849358844,737.5127975658097 745.4577829255796,743.6150934151595 746.1041146324584,749.7109869579124 746.3868847990036,752.4333032614921 746.9591576325821,753.5116001991615 747.5246978353862,754.5898069592329 750.0898268357467,756.3726631421208 752.4866402623323,758.0262082649837 755.3749350184146,760.0213442777616 757.9434303667311,761.8034526970101 760.6129149159974,763.6480783955293 763.2218059837769,765.4540934953114 763.5348728259243,765.7922577549925 763.8479397983544,766.1373852983302 763.9152660408911,766.5696534666471 763.9792259354773,767.0019072394148 763.612298047186,768.9991522906255 762.4206239646629,775.3757475910761 761.2323161649474,781.7527325319533 760.0372757344683,788.1266424202698 758.8523342827087,794.4974976133669 757.6269971114917,801.0322116752534 756.4050262230766,807.5602771642374 755.1796890518578,814.0904050579032 753.9610844462574,820.6174017910047 753.8971245516766,820.9454925512526 753.8512407841097,821.1978732449469 753.8365309399089,821.278783079686 753.7759373281355,821.6068580039316 753.708611150742,821.936660845886 753.708611150742,821.9522828928732 753.708611150742,821.9679049220636 753.708611150742,821.9783195759135 753.708611150742,821.9922058135298 753.708611150742,822.0095635571795 753.708611150742,822.0199782465642 753.708611150742,822.0303927936894 753.708611150742,822.0442790457494 753.708611150742,822.0512221329184 753.6985121720151,822.0616366563152 753.688413258439,822.0651082295295 753.6850469756242,822.0720513061563 753.6816806276681,822.0824659480924 753.6715817140919,822.0859374488599 753.664849148457,822.0963520130683 753.6581164525521,822.1032950738759 753.6446511910182,822.1032950738759 753.6278197118069,822.1032950738759 753.6210870810436,822.1032950738759 753.604255536691,822.1032950738759 753.5907902751568,822.1032950738759 753.5773250136172,822.1032950738759 753.567226100041,822.1032950738759 753.5503944905452,822.1032950738759 753.5268303154348,822.0963520130683 753.5066324882677,822.0894089487515 753.4864345959645,822.0824659480924 753.4662367688029,822.0755228095612 753.4460388764998,822.0703155541229 753.4258409841967,822.0616366563152 753.4056431570368,822.0546936415955 753.3820789819192,822.0477505561827 743.141761003063,822.0442790457494 734.4028176660756,822.0408074672565 730.30265093516,822.0408074672565 725.8759519702801,822.0408074672565 721.1462851419742,822.0390717112684 716.1304817340255,822.0338643748174 707.4151026372972,822.0303927936894 700.9960215446434,822.0280029867431 698.0904212703365,822.0269212788592 688.237229006941,822.0234497631517 677.9497826778568,822.0199782465642 667.3156063527844,822.0147708356799 656.4154914055212,822.0095635571795 645.340328253714,822.0095635571795 634.1776410973516,822.0026204489191 623.0149539409821,821.999148927058 611.9431570719896,821.9956773371407 601.0430421898676,821.9922058135298 590.4054995168391,821.9887342890321 580.1146869049421,821.9835269334549 570.2648609243648,821.9783195759135 560.9368132745858,821.9783195759135 552.2248004606703,821.9713764518333 546.6636546770792,821.9679049220636 541.455971585383,821.9679049220636 536.6253153607031,821.9679049220636 532.2120817224933,821.9679049220636 526.2151748636244,821.9619555411801 526.2268334341139,821.952337107764 526.3699016170067,821.8343034789148 526.7115822042427,821.4194417916823 529.0713661648069,819.0359136371588 528.4098860685735,797.6592348770018 524.7624881690455,789.760584453952 522.0290436469119,783.8417898176625 534.9556777513632,766.3500895882885 533.3448979656454,761.6221687613911 542.6813614437266,752.1733665776093 546.8438049188387,747.4804064664705 557.8179787675035,735.339490951441 572.7256868814854,718.9468845953379 561.5882470577346,706.6733674897067 552.5900977705496,696.7469503672799 516.6698765320383,701.3782865596147 516.8499741958992,700.9910944366344 592.3664282676106,534.5501389660373 593.2450353915023,532.598308502961 697.1596888031651,299.21437133004747 697.6124577161311,298.1316458736015 697.6418984805358,298.0612385663438Z" name="Hodh ech Chargui" name_en="Hodh Ech Chargui Region" gn_name="Hodh ech Chargui" admin="Mauritania" adm0_a3="MRT" iso_3166_2="MR-01" iso_a2="MR" postal="HC" type="Wilayat|Région" type_en="Region" wikidataid="Q12621"/><path d="M526.2151748636244,821.9619555411801 525.2135211916271,821.9609618598937 517.2149432766747,821.9582511114425 514.9698368648262,821.9574902603088 503.675863571341,821.9540186598468 504.0831872442384,815.8201287861016 504.97189333305624,811.2278891835535 504.7699146054405,809.0545448824901 503.20458006899867,808.3630321551271 501.9354808303553,809.1657396934042 497.95650125783766,813.941041002488 497.0004689916245,815.7263541899165 496.99037001290503,817.6833306655413 498.0305601311434,821.9331892401513 498.811544257956,825.6559411891 482.6414694658204,826.3188150740382 479.46872133664505,826.9729812506567 478.1726916400712,827.5316875046622 474.48321479971895,829.7003636781467 471.99214473780927,830.3179403392978 464.44824183129896,829.6396453521675 456.8774084017166,830.7446766809505 454.2281216796102,830.6683508000265 452.7099154282643,830.2155910432161 450.34003252474696,828.7010800670869 449.0103397394772,828.0608759416718 448.5087593661124,828.0227056359801 447.31035265282054,828.2447858606196 446.74144610205485,828.2413158468411 441.17020140488574,826.0134111926484 440.2646637717135,825.8867359877972 437.13062828573607,826.1279384253361 435.3296518678413,825.7791479514655 428.6845540288757,825.6680884120825 427.70159123959047,825.843353765361 426.43249200094164,825.5778518343488 425.35527251119464,825.7479125424051 423.1909590895571,826.4890021406535 423.18742086716645,826.4663630586091 417.83835270697125,792.1979929825454 415.9851984776074,789.6283496579861 411.85473491824524,786.3864465111808 410.5570220831865,785.008006390953 410.8010795785436,784.5780847996873 410.8010795785436,782.6946199182278 411.5719647730452,781.5577965516613 411.62077631898285,779.6582301210263 411.97255580231365,777.8210840254363 411.7806760734832,775.5569495936937 410.7590007081153,773.5397998936185 408.9378265116649,772.0816152355779 406.751407480869,771.2993202261008 406.52418149853224,770.2015892373886 407.08803856147404,769.255375755207 406.24814397025796,767.6816867006253 406.45012265377034,766.6638289109221 406.8574462999644,765.6877262495012 407.16209746481934,763.8032926185132 407.5845694551594,763.0728051001555 408.12317921927684,762.4207362438383 408.6567395353432,760.9647958161834 408.5439680993221,759.5296192644728 407.7343702549778,759.0343331372 405.06488568151116,758.2181160812905 404.4555834103883,756.6832096128076 405.3493389955894,755.8825439657187 406.49556786195507,755.5441213486401 407.84714174958236,755.5563326638742 411.22523479634543,753.6826385407445 411.821071833617,752.4909390306798 413.2753181440071,751.5190030034962 413.3190801833136,749.831463849519 414.82887065656314,749.7110415380664 415.6485673970023,748.7563492432568 415.69401254660363,747.8993346270278 415.33045099829974,747.2744284339923 414.38283447769356,747.4716786421039 413.3207633521918,747.8679154819314 412.5717591187581,746.9916396399094 410.6899913699844,748.0005735644226 409.6262370756008,747.6881266784933 408.5809975217031,747.5188087259094 406.6504181684045,746.6058497765423 405.2803295988748,744.6732344277825 404.3108320586173,742.6355541514577 404.4875633261383,740.361768677199 403.7806380217202,739.2072570317646 402.7976752476114,738.082337079628 401.58243698453464,737.5285744660296 400.36046610452877,737.4220116985513 399.85047003557565,736.5694773385044 399.5205715133127,735.5561449476322 398.1370177099355,733.8577581567904 396.76861230928404,732.9333347083289 396.3343581368039,731.4827801661166 396.9773236097221,730.6053761708715 397.47217127594564,729.631770812165 396.5817820284975,728.0025183846265 396.79049332893555,726.8066669776505 396.76187969235843,725.6159478201263 396.41851593624426,723.7833140304562 396.4235654428788,721.897940515084 397.46375549014556,713.7515449363696 397.0799960910611,712.0327043452563 395.9994102250771,710.9946337079359 395.4507015648648,709.6150736146814 396.4908916121316,703.7992765271678 397.04969928560575,702.5660674647453 397.4132608339133,701.2696637768321 396.5363368203163,698.8148829082309 397.0076204151774,696.3648705326739 396.6979197436914,693.980984611687 392.3217155200938,684.9793826873557 391.0357847500081,678.1092787612608 390.0410397937553,675.9061603877732 390.1841079766518,673.679812826413 390.96340907412076,671.4741296369252 411.77394345655773,677.5054360574662 439.6200678571276,685.3723439792765 479.3459035807891,682.7862852845597 479.84075136417994,683.168789994307 516.6698765320383,701.3782865596147 552.5900977705496,696.7469503672799 561.5882470577346,706.6733674897067 572.7256868814854,718.9468845953379 557.8179787675035,735.339490951441 546.8438049188387,747.4804064664705 542.6813614437266,752.1733665776093 533.3448979656454,761.6221687613911 534.9556777513632,766.3500895882885 522.0290436469119,783.8417898176625 524.7624881690455,789.760584453952 528.4098860685735,797.6592348770018 529.0713661648069,819.0359136371588 526.7115822042427,821.4194417916823 526.3699016170067,821.8343034789148 526.2268334341139,821.952337107764 526.2151748636244,821.9619555411801Z" name="Hodh el Gharbi" name_en="Hodh El Gharbi Region" gn_name="Hodh el Gharbi" admin="Mauritania" adm0_a3="MRT" iso_3166_2="MR-02" iso_a2="MR" postal="HG" type="Wilayat|Région" type_en="Region" wikidataid="Q850435"/><path d="M401.66654219421054,848.3127545953428 399.52556841109646,845.0206394131051 397.1051908093949,842.6394385855663 395.31094702226903,839.144889888314 393.183438500689,837.0903937257207 376.7154452042052,824.9496503967707 375.49684066375164,823.5647292568475 369.4610450950109,814.7937830410619 367.8149190544909,813.3696219568533 366.28998017237615,812.7269638719654 362.56684024333174,811.9557340673541 361.9811020830812,812.0200048894955 361.7892223341906,812.0808012951604 361.9003106441481,812.363935486981 362.0719925007359,812.5723739661382 362.29416905551153,812.7408594541005 362.56684024333174,812.9076059370783 362.7149578596603,813.2428296437034 362.76545255784816,813.5849924134621 362.7149578596603,813.9306202870625 362.56684024333174,814.2640819797488 361.987834713852,814.9222975693335 361.22704847934244,815.2835211042528 359.4933983039844,815.7992900202787 358.40944611831975,816.4227018679935 356.0866916301831,818.895230407011 354.1813595330959,819.8848110854016 352.44097679211586,819.7528710990109 350.7005940511284,819.1886398795849 350.4276497806301,819.1469765707353 350.97668416633064,816.3046747156552 352.54370191273813,813.2133567735171 352.93251081845364,809.7825606519691 353.730326480654,806.4447356506417 356.228129234647,803.6848908990963 356.81891682387493,801.9970753549678 357.17237947608413,800.3716358825035 357.2110920673395,799.4432218386082 357.5914851872511,798.5808172607765 359.0928598747005,797.4853443891302 359.8906755954881,795.8228367254582 359.69711269777594,795.2106480625533 359.5910739372642,794.4401548454306 360.06740692159275,793.4295760819613 360.8012626937098,792.5893982630871 362.4945171685767,791.6952378279112 363.5481724496947,790.0946453326926 356.57822560768693,788.9967364993472 352.0286563371539,785.93742499199 351.0692576344077,785.7633814810819 350.0997600941501,785.9635312792963 348.95689750695715,785.7285725412427 348.1237355912503,785.0393361735446 344.7035636154754,785.4657618698352 343.97812362915863,784.7921771357454 343.20555526578244,784.2961043368587 342.658529715865,785.3595919202 342.9934776275917,786.9276888356053 343.71050188668823,788.3650932928756 344.27435900820984,789.8701990894571 343.8081249199797,790.9732552457513 342.8655578474246,791.5925969348568 341.9802180480238,791.9701028604766 341.61329016196345,793.0555904495224 341.8001203841664,794.149686506737 340.4182498082474,794.146207838742 338.6408375339402,793.9340053203365 336.82639589583175,794.1792554205979 335.1567057266653,794.6419135335259 333.93473484666316,793.9200902367337 332.65721980379396,792.457191587932 330.67951213201974,792.1110125125391 329.73189555282994,789.4108553625516 330.3277326486888,784.5171636033301 328.8600209872803,784.6094155985357 327.6212185942577,784.2491069994768 326.86716491277656,783.223827531395 324.58648930360897,780.8387444094536 321.69314496839485,779.9107088155412 321.2437424517688,780.3877934959245 320.9491903001794,780.7882525582212 319.87028760307004,780.4435102372415 318.81663226336855,779.8044942715233 316.5224913031788,779.8271302415603 315.75497238785005,778.5037312705666 315.3510151379923,773.168736032148 314.32092392823694,772.0676771535789 312.8313313057643,771.713994612117 311.7945075376667,771.0292520663021 310.6449123335481,770.7312994629158 309.33036786830183,771.1024323446359 308.1420601315076,771.7732327904791 305.69811837150326,773.9474354100685 303.1296231105009,774.1843460455757 302.787942523265,772.1669853080859 304.1176353912409,767.5213445024224 304.0031807863416,764.7847662229916 303.6396192380377,763.6934606347068 303.4460563403292,761.3815427711255 302.94615916747085,760.3039018854107 303.02695062915836,758.1710250554374 300.5678604664245,757.4384760849435 288.15963821673023,755.3190829498814 286.53034374911743,755.8842884029982 285.08114676960764,757.2797517475617 284.14699548285273,757.4594066761625 283.32056618407154,757.082651641697 282.20968357121217,757.0163695512591 281.34454168117543,757.0896286808913 281.03820734744227,755.8842884029982 281.0685041528975,754.7172164989285 282.3325539033318,753.5744653216354 283.0462118246755,752.0407515543056 283.07482551983605,750.7354679165275 282.0413680309115,749.8960377029125 281.55325292303,748.3775942697717 281.2822649013866,746.747249239061 280.26732209435704,744.7046614080892 278.276149247315,743.6361009999358 276.83031866414524,742.5796748600467 276.5088359276862,740.9573231396113 276.62329047400186,737.9356010483044 277.5153629489119,735.1123497656073 278.78277903709903,732.5244000364264 277.3857599412832,730.0967335477135 277.7813014639243,727.7560143658341 277.683678430629,725.339670821172 278.2071398506005,723.9389583415527 278.91406509643514,722.7077413483893 283.57977214074185,717.3197454882796 285.54738085783777,716.8525600295042 286.27618724049455,716.248867428284 286.8501432581148,715.6311460258647 289.7552696583018,714.7613844028598 290.6187283794641,714.7613844028598 291.43169250297757,714.9661426320446 292.2429733990329,714.5758741333638 292.96673027505517,714.0473296078211 294.17018647315865,713.4172472357155 295.53690870493557,713.0811902925307 297.26045986808714,712.2987725644261 298.98232803811476,709.1213359048136 300.4399406276739,707.9061673498577 302.44289565685983,707.6610180505266 303.6514013030108,706.4211887786103 305.77554355401793,705.5717990895715 308.31879151619574,705.109426366997 308.9331431767862,704.3685431321286 309.0442315025126,703.1336392042111 309.7713546577076,702.3856302725686 310.7896637439028,701.8478065308434 317.0812989766566,707.8536357737935 327.5673576002691,711.7456243751034 336.8684748248473,714.672129804551 347.11889173890273,711.0839147260556 358.9817716661412,712.1132255658574 361.8027402083008,708.5015097461473 361.8448190787329,704.0585150408151 362.36323099207345,694.5945289684557 364.05816851864773,690.8111007098585 362.98936483480026,687.0685982439472 365.59993896623087,685.9494828187494 365.25657526870384,683.363546938255 362.62243694873996,682.7371553487562 364.57658043198836,681.4983140817521 366.6502280267632,680.1944111001989 368.6615988417492,679.6450802778826 369.0958528970622,677.5809180357096 368.1297216945574,675.7077723275461 368.481501177892,675.2670931442703 368.45625382048405,674.7245618135214 367.79645695170876,673.5849907776211 366.564387058441,671.8692856693067 364.1137127400946,669.2961477878999 363.7619331981801,668.4494386686573 361.6579888565298,665.0918774033786 363.1442151412533,665.1885236870494 360.6750260238374,660.4835812820173 359.06256306924513,657.6108446279216 358.7292982678131,656.9285998593767 357.3625760946197,655.6360958046625 358.28662836811264,653.6170463287953 360.35859279400927,652.5124035631158 360.44948321037884,649.1820215427408 364.10193061653797,649.4389147377457 364.4570764376252,647.3167389533373 366.353992647712,647.2005889102734 370.4861393759525,647.3220183900855 372.3005810140572,647.6475840790492 372.9822589024837,647.4575252287742 373.56294759561314,648.0664067469124 375.0727380688662,648.2300603172139 376.70708204311,647.119635189328 380.5025976907491,645.9052632528899 382.29852458837144,646.0548666332104 382.87248060599165,644.681965151193 385.13969103989143,641.6170017377501 383.49188183179666,640.0005764362018 385.2625613720111,638.6780413323432 387.27393218699706,636.192821615851 389.3694608014272,634.6883998498723 394.13447398932004,632.6974740874771 396.02634075135944,632.8349117139101 398.0494936313223,631.4322670157765 390.96340907412076,671.4741296369252 390.1841079766518,673.679812826413 390.0410397937553,675.9061603877732 391.0357847500081,678.1092787612608 392.3217155200938,684.9793826873557 396.6979197436914,693.980984611687 397.0076204151774,696.3648705326739 396.5363368203163,698.8148829082309 397.4132608339133,701.2696637768321 397.04969928560575,702.5660674647453 396.4908916121316,703.7992765271678 395.4507015648648,709.6150736146814 395.9994102250771,710.9946337079359 397.0799960910611,712.0327043452563 397.46375549014556,713.7515449363696 396.4235654428788,721.897940515084 396.41851593624426,723.7833140304562 396.76187969235843,725.6159478201263 396.79049332893555,726.8066669776505 396.5817820284975,728.0025183846265 397.47217127594564,729.631770812165 396.9773236097221,730.6053761708715 396.3343581368039,731.4827801661166 396.76861230928404,732.9333347083289 398.1370177099355,733.8577581567904 399.5205715133127,735.5561449476322 399.85047003557565,736.5694773385044 400.36046610452877,737.4220116985513 401.58243698453464,737.5285744660296 402.7976752476114,738.082337079628 403.7806380217202,739.2072570317646 404.4875633261383,740.361768677199 404.3108320586173,742.6355541514577 405.2803295988748,744.6732344277825 406.6504181684045,746.6058497765423 408.5809975217031,747.5188087259094 409.6262370756008,747.6881266784933 410.6899913699844,748.0005735644226 412.5717591187581,746.9916396399094 413.3207633521918,747.8679154819314 414.38283447769356,747.4716786421039 415.33045099829974,747.2744284339923 415.69401254660363,747.8993346270278 415.6485673970023,748.7563492432568 414.82887065656314,749.7110415380664 413.3190801833136,749.831463849519 413.2753181440071,751.5190030034962 411.821071833617,752.4909390306798 411.22523479634543,753.6826385407445 407.84714174958236,755.5563326638742 406.49556786195507,755.5441213486401 405.3493389955894,755.8825439657187 404.4555834103883,756.6832096128076 405.06488568151116,758.2181160812905 407.7343702549778,759.0343331372 408.5439680993221,759.5296192644728 408.6567395353432,760.9647958161834 408.12317921927684,762.4207362438383 407.5845694551594,763.0728051001555 407.16209746481934,763.8032926185132 406.8574462999644,765.6877262495012 406.45012265377034,766.6638289109221 406.24814397025796,767.6816867006253 407.08803856147404,769.255375755207 406.52418149853224,770.2015892373886 406.751407480869,771.2993202261008 408.9378265116649,772.0816152355779 410.7590007081153,773.5397998936185 411.7806760734832,775.5569495936937 411.97255580231365,777.8210840254363 411.62077631898285,779.6582301210263 411.5719647730452,781.5577965516613 410.8010795785436,782.6946199182278 410.8010795785436,784.5780847996873 410.5570220831865,785.008006390953 411.85473491824524,786.3864465111808 415.9851984776074,789.6283496579861 417.83835270697125,792.1979929825454 423.18742086716645,826.4663630586091 423.1909590895571,826.4890021406535 423.01905263123365,826.5478635060228 421.7331219133847,826.7369991713606 419.0131426007854,826.7075011020186 415.08465772645735,826.1036448475013 414.03100241182267,826.1574377361992 413.3139781144493,826.8584611126544 413.06823738455586,828.1372161689721 413.1490289537737,830.9181429092743 412.63398331886924,832.3300774401357 412.13240301064576,832.8330659615352 411.07874769600926,833.434893868607 410.35835705068155,834.5257485674936 409.81301474018056,834.631534358725 409.1565841197164,834.631534358725 408.44965880107,834.8812550161402 407.39600348643336,835.9165074333101 406.9280862017624,837.0106350129425 406.2985861043777,839.4829425605703 405.56473026265184,840.6166591707438 403.81088226013384,842.2806635799508 403.24870834013706,843.3604271591902 402.24891400650483,847.181393597887 401.66654219421054,848.3127545953428Z" name="Assaba" name_en="Assaba Region" gn_name="Assaba" admin="Mauritania" adm0_a3="MRT" iso_3166_2="MR-03" iso_a2="MR" postal="AS" type="Wilayat|Région" type_en="Region" wikidataid="Q738546"/><path d="M56.72688524792984,584.6221292609661 54.86613698577239,580.1600408321349 52.008748635278565,575.4033579327898 48.16002146000304,570.9264369844338 46.932775755732166,569.7797215792281 46.67036255848418,569.6346299857994 46.43975700768734,569.1602787817994 45.89902675738982,569.0179695082516 45.25492160725992,568.9482093584967 44.70623939649054,568.680326425878 43.60092314477091,567.943615151721 41.05631012555688,567.1929008010118 39.996054679169646,566.5705229189377 39.51363845823064,565.7778478227176 38.42687662893917,562.8801945399433 38.21747619749544,561.6516736663166 37.54951529623713,560.3448246166658 36.29046194551143,559.2528729784436 35.548283159096336,558.2306415199395 36.436247084045654,557.1580346928685 40.22135896641167,558.1803653930492 43.86598697379419,557.6524523828136 47.03084939201354,555.8255107971563 49.37401387511354,552.9364257351398 49.634624696920014,553.2880600056365 51.99777505382066,550.3829497545906 55.61992565452439,543.7552854913567 97.89405878841131,464.70273494310703 80.86725793005313,436.0390769352171 189.4324700418839,436.4768560539828 190.65107458413348,438.3120938041625 186.40447330957736,554.9541150795848 186.3354639128629,565.3829823283284 186.26645451614843,584.3041141609863 183.63231619618443,584.3111920906103 56.72688524792984,584.6221292609661Z" name="Inchiri" name_en="Inchiri Region" gn_name="Inchiri" admin="Mauritania" adm0_a3="MRT" iso_3166_2="MR-12" iso_a2="MR" postal="IN" type="Wilayat|Région" type_en="Region" wikidataid="Q850022"/><path d="M68.33869284441373,660.3499531659767 68.85620732789754,655.3314378889038 68.13523366083159,642.9867671119873 66.51381274201553,625.9748992173786 67.15963967642563,626.0209879538318 84.68970404539114,625.8288149019231 84.76039661098382,641.3933918222742 84.66613991544486,660.3394334693465 68.33869284441373,660.3499531659767Z" name="Nouakchott" name_en="Nouakchott" gn_name="District de Nouakchott" admin="Mauritania" adm0_a3="MRT" iso_3166_2="MR-NKC" iso_a2="MR" postal="NO" type="District" type_en="District" wikidataid="Q3688"/><path d="M366.7865636513139,570.4245472519635 367.1097294394841,567.9368337770945 368.6178368024427,556.3059362663986 369.9004012933592,555.2503945550138 393.8752679740663,535.5152588595301 395.2672375632511,535.5081496393954 592.3664282676106,534.5501389660373 516.8499741958992,700.9910944366344 516.6698765320383,701.3782865596147 479.84075136417994,683.168789994307 479.3459035807891,682.7862852845597 439.6200678571276,685.3723439792765 411.77394345655773,677.5054360574662 390.96340907412076,671.4741296369252 398.0494936313223,631.4322670157765 396.02634075135944,632.8349117139101 394.13447398932004,632.6974740874771 389.3694608014272,634.6883998498723 387.27393218699706,636.192821615851 385.2625613720111,638.6780413323432 383.49188183179666,640.0005764362018 385.13969103989143,641.6170017377501 382.87248060599165,644.681965151193 382.29852458837144,646.0548666332104 380.5025976907491,645.9052632528899 376.70708204311,647.119635189328 375.0727380688662,648.2300603172139 373.56294759561314,648.0664067469124 372.9822589024837,647.4575252287742 372.3005810140572,647.6475840790492 370.4861393759525,647.3220183900855 366.353992647712,647.2005889102734 364.4570764376252,647.3167389533373 364.10193061653797,649.4389147377457 360.44948321037884,649.1820215427408 360.35859279400927,652.5124035631158 358.28662836811264,653.6170463287953 357.3625760946197,655.6360958046625 358.7292982678131,656.9285998593767 359.06256306924513,657.6108446279216 360.6750260238374,660.4835812820173 363.1442151412533,665.1885236870494 361.6579888565298,665.0918774033786 363.7619331981801,668.4494386686573 364.1137127400946,669.2961477878999 366.564387058441,671.8692856693067 367.79645695170876,673.5849907776211 368.45625382048405,674.7245618135214 368.481501177892,675.2670931442703 368.1297216945574,675.7077723275461 369.0958528970622,677.5809180357096 368.6615988417492,679.6450802778826 366.6502280267632,680.1944111001989 364.57658043198836,681.4983140817521 362.62243694873996,682.7371553487562 365.25657526870384,683.363546938255 365.59993896623087,685.9494828187494 362.98936483480026,687.0685982439472 364.05816851864773,690.8111007098585 362.36323099207345,694.5945289684557 361.8448190787329,704.0585150408151 361.8027402083008,708.5015097461473 358.9817716661412,712.1132255658574 347.11889173890273,711.0839147260556 336.8684748248473,714.672129804551 327.5673576002691,711.7456243751034 317.0812989766566,707.8536357737935 310.7896637439028,701.8478065308434 304.3179309058751,696.4104403090512 295.509978237233,687.1633149178331 297.3362018817271,664.1956659754578 297.10897595797394,664.1956659754578 298.0313451211722,652.7727426928195 299.81380678494327,633.9361164436659 287.4140003210529,614.6367262222581 301.2007268674971,599.5220465258924 308.71096670108045,591.215371520287 338.1123267830846,572.0171718819671 351.9798447912164,562.4172255926284 366.7865636513139,570.4245472519635Z" name="Tagant" name_en="Tagant Region" gn_name="Tagant" admin="Mauritania" adm0_a3="MRT" iso_3166_2="MR-09" iso_a2="MR" postal="TG" type="Wilayat|Région" type_en="Region" wikidataid="Q843903"/></svg>