<?xml version="1.0"?><svg fill="#3498db" stroke="#ecf0f1" stroke-width="1" width="800" height="704" viewBox="0 0 800 704" xmlns="http://www.w3.org/2000/svg"><path d="M711.8680249586563,455.6806100243018 760.1103324258938,476.17129900852365 745.8778951121222,486.52711252299514 743.4095027902855,494.8684696984347 729.2162474085432,494.8684696984347 721.1939718936683,497.90160496977524 720.4552439079602,478.945810387698 711.6362347156613,475.15259943562717 700.5139589343478,465.3723221984795 711.8680249586563,455.6806100243018Z" name="Kalkara" name_en="Kalkara" gn_name="Il-Kalkara" admin="Malta" adm0_a3="MLT" iso_3166_2="MT-21" iso_a2="MT" wikidataid="Q533257"/><path d="M688.987905538541,448.5299340355904 700.1909601608675,450.72051892368876 711.8680249586563,455.6806100243018 700.5139589343478,465.3723221984795 692.001059524976,473.3855827824764 682.3167914176748,478.9437587804438 663.1867495164619,463.01778730012455 674.9116144521693,453.91666638249126 688.987905538541,448.5299340355904Z" name="Valletta" name_en="Valletta" gn_name="Il-Belt Valletta" admin="Malta" adm0_a3="MLT" iso_3166_2="MT-60" iso_a2="MT" wikidataid="Q23800"/><path d="M681.6142643945112,387.5715993842494 686.7812433193192,397.30513570207864 689.1576491788003,422.8670005812717 688.987905538541,448.5299340355904 674.9116144521693,453.91666638249126 675.5382646292719,445.517447593387 654.4161868850439,440.936015212078 645.0976249398257,433.68186774120784 652.2418560146234,412.6815411939007 681.6142643945112,387.5715993842494Z" name="Sliema" name_en="Sliema" gn_name="Tas-Sliema" admin="Malta" adm0_a3="MLT" iso_3166_2="MT-56" iso_a2="MT" wikidataid="Q39526"/><path d="M662.9277620175726,372.7412753805762 676.2571608235268,377.47940928591265 681.6142643945112,387.5715993842494 652.2418560146234,412.6815411939007 645.0976249398257,433.68186774120784 636.0896803504563,438.6452610380561 629.8773032192378,431.77283734684954 623.6649279638252,427.5729085334406 622.4582752681275,419.0252194513718 629.8634522336243,412.9565239089961 630.4805507831288,403.8531371435728 626.7779613624142,399.30128803477135 627.395059911792,392.4733222831655 642.205413842908,389.43859665355404 662.9277620175726,372.7412753805762Z" name="San Giljan" name_en="St. Julian's" gn_name="Saint Julian" admin="Malta" adm0_a3="MLT" iso_3166_2="MT-48" iso_a2="MT" wikidataid="Q669979"/><path d="M586.7192714241469,331.24939919424816 615.4890717076775,355.87757811057156 662.9277620175726,372.7412753805762 642.205413842908,389.43859665355404 627.395059911792,392.4733222831655 626.7779613624142,399.30128803477135 609.4992151094615,400.8185832905232 601.476939594578,398.5426361128151 599.0085472726322,387.16252294294975 591.6033703071266,380.33414487334244 581.7298010197974,375.78176549374194 582.9639981185576,359.08882017829217 586.7192714241469,331.24939919424816Z" name="Pembroke" name_en="Pembroke" gn_name="Pembroke" admin="Malta" adm0_a3="MLT" iso_3166_2="MT-40" iso_a2="MT" wikidataid="Q775756"/><path d="M531.0730966101246,290.16480699133075 545.3851040687366,295.8602995616531 586.7192714241469,331.24939919424816 582.9639981185576,359.08882017829217 581.7298010197974,375.78176549374194 566.3023485392948,376.5405010127472 557.0458778013435,380.33414487334244 552.1090931575524,384.8864234611627 549.64070083572,399.30128803477135 550.2577975093009,409.16349560355246 558.2800730242978,417.50806158388843 552.1090931575524,426.6108301746446 555.8116807024655,435.71318904482274 548.4065037369598,439.50571429616235 536.0645421276762,441.78119788639106 524.3396771920867,435.71318904482274 521.8712848702544,428.88645966977367 521.2541881965602,421.3009324837303 520.0199910977957,413.71512144506187 518.1686973253413,406.88764519587363 513.8490093552531,400.0599370940946 505.20963716667535,398.5426361128151 497.8044602011785,389.43859665355404 494.71896932984606,384.8864234611627 497.8044602011785,381.09286551515464 497.8044602011785,373.50553483284887 493.48477223108586,363.6415776618419 495.33606787934616,353.0183148869356 502.12414629546515,340.8767541372999 515.0832064541311,319.62725495229006 531.0730966101246,290.16480699133075Z" name="Naxxar" name_en="Naxxar" gn_name="In-Naxxar" admin="Malta" adm0_a3="MLT" iso_3166_2="MT-38" iso_a2="MT" wikidataid="Q44397"/><path d="M463.45749919665735,276.63257253397353 510.75747940680895,282.0798883097027 531.0730966101246,290.16480699133075 515.0832064541311,319.62725495229006 502.12414629546515,340.8767541372999 495.33606787934616,353.0183148869356 493.48477223108586,363.6415776618419 497.8044602011785,373.50553483284887 497.8044602011785,381.09286551515464 494.71896932984606,384.8864234611627 497.8044602011785,389.43859665355404 505.20963716667535,398.5426361128151 499.0386554241284,406.1290219000201 493.48477223108586,410.6807164346691 487.93089091372275,406.1290219000201 485.4624985918948,397.7839836340899 479.90861539884355,393.2319971090123 471.8863398838466,387.16252294294975 460.77857349763065,384.8864234611627 444.11692579418246,387.9212178118865 439.79723782408985,391.7146469002705 442.26563014592216,394.7493381715332 450.28790566080136,393.990669071755 456.45888740334834,396.2666654755992 458.9272797251806,403.8531371435728 466.33245669080407,408.4048808946904 473.73763365630094,411.43932025092005 475.58892742875094,416.74948066344854 471.26924133446425,420.5423635659669 463.2469658194673,425.0937318440459 458.31018117579833,429.644997112465 451.52210275967934,428.88645966977367 442.26563014592216,425.0937318440459 434.86045318029875,419.0252194513718 433.6262579573488,409.16349560355246 431.1578656355165,395.5080021020118 426.22108099172976,388.67990751122693 410.79362851134493,387.16252294294975 404.0055482193066,385.6451246144028 403.3884496699243,378.05796807144577 408.9423328630933,372.74678785725655 412.0278237343036,365.1591421089207 408.3252361893992,360.60641669684173 396.600371253801,357.5712098930512 392.2806851595143,345.4299242362912 393.5148803825907,334.0468032235107 399.6858621250199,329.49337285990606 416.34750982859026,324.18090892529966 429.9236685366385,315.07350006773885 450.9050042103014,309.00166477269835 463.45749919665735,276.63257253397353Z" name="San Pawl il-Bahar" name_en="St. Paul's Bay" gn_name="Saint Paul's Bay" admin="Malta" adm0_a3="MLT" iso_3166_2="MT-51" iso_a2="MT" wikidataid="Q39521"/><path d="M328.07150819452823,385.08018559562584 322.5122005395395,330.2028141962298 310.6301712423782,289.492195362427 288.7332900212532,263.07807423535013 315.2132401325371,239.3754882159192 341.8629309867125,223.08486502681788 371.05877261484426,213.58139174169162 403.98896690381724,210.44827728801778 403.98896690381724,229.45507315583134 384.9777200283347,233.00559490704376 372.75620507369763,239.27106561750892 345.7670264762481,263.07807423535013 463.45749919665735,276.63257253397353 450.9050042103014,309.00166477269835 429.9236685366385,315.07350006773885 416.34750982859026,324.18090892529966 399.6858621250199,329.49337285990606 393.5148803825907,334.0468032235107 392.2806851595143,345.4299242362912 396.600371253801,357.5712098930512 392.2806851595143,362.88279344771286 378.7045264514748,364.40036131778845 371.2993494859692,370.47052282550294 354.6376999065929,378.05796807144577 341.0615430743506,382.6102959008281 328.07150819452823,385.08018559562584Z" name="Mellieħa" name_en="Mellieħa" gn_name="Il-Mellieha" admin="Malta" adm0_a3="MLT" iso_3166_2="MT-30" iso_a2="MT" wikidataid="Q755979"/><path d="M331.67833623407205,450.1244105534682 331.67833623407205,420.6761112861473 328.07150819452823,385.08018559562584 341.0615430743506,382.6102959008281 354.6376999065929,378.05796807144577 371.2993494859692,370.47052282550294 378.7045264514748,364.40036131778845 392.2806851595143,362.88279344771286 396.600371253801,357.5712098930512 408.3252361893992,360.60641669684173 412.0278237343036,365.1591421089207 408.9423328630933,372.74678785725655 403.3884496699243,378.05796807144577 404.0055482193066,385.6451246144028 410.79362851134493,387.16252294294975 426.22108099172976,388.67990751122693 431.1578656355165,395.5080021020118 433.6262579573488,409.16349560355246 434.86045318029875,419.0252194513718 442.26563014592216,425.0937318440459 451.52210275967934,428.88645966977367 458.31018117579833,429.644997112465 460.1614749482571,437.23020726626675 450.9050042103014,440.26421168673676 439.79723782408985,440.26421168673676 424.9868838929695,442.5396843898687 412.0278237343036,444.0566534269002 405.8568438675669,451.6413223870679 399.0687635756376,452.3997717084256 391.04648806075846,448.60748958551375 384.25840964463947,452.3997717084256 376.2361341296381,452.3997717084256 370.0651523870955,459.22570304981195 365.12836774342657,463.01778730012455 357.72319077792093,462.25937570779627 349.08381858935195,453.1582204753702 341.0615430743506,455.4335473121145 331.67833623407205,450.1244105534682Z" name="Mġarr" name_en="Mġarr" gn_name="L-Imgarr" admin="Malta" adm0_a3="MLT" iso_3166_2="MT-31" iso_a2="MT" wikidataid="Q691220"/><path d="M377.96044547265996,541.8306667338518 374.28389470374333,536.0305191457778 367.66390769736864,528.3144779754366 338.1285804117699,512.36009950738 331.67833623407205,500.15883960716843 331.67833623407205,450.1244105534682 341.0615430743506,455.4335473121145 349.08381858935195,453.1582204753702 357.72319077792093,462.25937570779627 365.12836774342657,463.01778730012455 370.0651523870955,459.22570304981195 376.2361341296381,452.3997717084256 384.25840964463947,452.3997717084256 391.04648806075846,448.60748958551375 399.0687635756376,452.3997717084256 405.8568438675669,451.6413223870679 412.0278237343036,444.0566534269002 424.9868838929695,442.5396843898687 439.79723782408985,440.26421168673676 450.9050042103014,440.26421168673676 460.1614749482571,437.23020726626675 466.33245669080407,444.81513365481703 471.8863398838466,450.1244105534682 478.67441829996557,456.9504191082731 477.44022307701124,466.051402771726 475.58892742875094,472.87687090419956 468.1837504631363,475.15197472095747 458.9272797251806,475.15197472095747 448.436611888347,475.9103377110848 442.26563014592216,482.7354713793663 443.49982724468236,493.35188376510496 456.45888740334834,497.90160496977524 461.3956720470173,502.4512210038463 471.8863398838466,502.4512210038463 478.05731975058325,503.2094811110726 477.44022307701124,513.8248157211663 481.1428106218022,516.8576652987888 485.4624985918948,543.3931493700493 478.05731975058325,553.2482962837274 465.0982595919173,555.5224940439558 448.436611888347,552.4902269593962 442.8827286953044,544.9093582833198 441.648533472228,538.0863328518192 436.7117469527575,532.7793764303324 425.6039824423518,532.7793764303324 404.0055482193066,535.811940418101 389.19519428830404,535.0538031279932 377.96044547265996,541.8306667338518Z" name="Rabat" name_en="Rabat" admin="Malta" adm0_a3="MLT" iso_3166_2="MT-46" iso_a2="MT" wikidataid="Q44381"/><path d="M428.79070130843235,605.616701934444 412.8156169408697,596.810086028256 377.96044547265996,541.8306667338518 389.19519428830404,535.0538031279932 404.0055482193066,535.811940418101 425.6039824423518,532.7793764303324 436.7117469527575,532.7793764303324 441.648533472228,538.0863328518192 442.8827286953044,544.9093582833198 448.436611888347,552.4902269593962 447.2024147895911,560.8288509803685 438.56304260101774,575.9891019343928 431.1578656355165,582.8108430916739 428.79070130843235,605.616701934444Z" name="Dingli" name_en="Dingli" gn_name="Dingli" admin="Malta" adm0_a3="MLT" iso_3166_2="MT-07" iso_a2="MT" wikidataid="Q905641"/><path d="M511.4674371764837,649.0304637094006 502.4400599415765,646.212549343646 428.79070130843235,605.616701934444 431.1578656355165,582.8108430916739 438.56304260101774,575.9891019343928 447.2024147895911,560.8288509803685 448.436611888347,552.4902269593962 465.0982595919173,555.5224940439558 478.05731975058325,553.2482962837274 485.4624985918948,543.3931493700493 492.86767555751385,542.6350429356155 499.0386554241284,547.1836479378615 511.3806170334208,552.4902269593962 524.3396771920867,558.5547154611568 537.2987373507483,554.0063650580255 543.4697190931819,547.9417395480638 546.5552099645099,541.8769313418637 558.8971715736758,539.6025817348935 567.536545638055,541.1188168931047 574.324624054174,547.1836479378615 578.0272115990871,549.4579142047905 583.5810947921296,546.4255557772595 590.3691750841723,552.4902269593962 597.1572535002913,552.4902269593962 598.3914505990559,562.3449262886809 588.5178794359164,570.6831445090561 581.1127024702973,579.0210151662309 572.4733302818418,580.5369558165298 570.6220346335815,585.8426536220414 564.4510547668448,588.8744185116097 561.9826624450125,596.453632226589 557.0458778013435,606.3061827715621 549.64070083572,608.579779135421 543.4697190931819,610.0954950203728 536.0645421276762,616.9160811308298 537.9158359001306,624.494239825448 536.0645421276762,629.0409963762016 526.8080695139147,629.0409963762016 518.7857958747236,634.3454190740616 511.4674371764837,649.0304637094006Z" name="Siġġiewi" name_en="Siġġiewi" gn_name="Is-Siggiewi" admin="Malta" adm0_a3="MLT" iso_3166_2="MT-55" iso_a2="MT" wikidataid="Q919908"/><path d="M563.123631543396,665.1542931982616 511.4674371764837,649.0304637094006 518.7857958747236,634.3454190740616 526.8080695139147,629.0409963762016 536.0645421276762,629.0409963762016 537.9158359001306,624.494239825448 536.0645421276762,616.9160811308298 543.4697190931819,610.0954950203728 549.64070083572,608.579779135421 557.0458778013435,606.3061827715621 568.7707408611315,608.579779135421 578.6443101484607,612.3690509191362 590.9862717577444,610.0954950203728 593.454664079581,617.6739102892168 587.28368421284,620.7051961111877 586.6665856634577,626.009835975875 590.9862717577444,629.798779926561 586.0494871140841,634.3454190740616 579.8785072473387,639.6496998239794 567.536545638055,654.0463304653522 563.123631543396,665.1542931982616Z" name="Qrendi" name_en="Qrendi" gn_name="Il-Qrendi" admin="Malta" adm0_a3="MLT" iso_3166_2="MT-44" iso_a2="MT" wikidataid="Q282203"/><path d="M654.9741133813053,682.7136608092337 602.9280710956781,677.5778670088426 563.123631543396,665.1542931982616 567.536545638055,654.0463304653522 579.8785072473387,639.6496998239794 586.0494871140841,634.3454190740616 590.9862717577444,629.798779926561 586.6665856634577,626.009835975875 587.28368421284,620.7051961111877 593.454664079581,617.6739102892168 590.9862717577444,610.0954950203728 602.7111366933426,609.3376396554531 610.7334122083396,608.579779135421 619.9898829462952,612.3690509191362 625.5437661393377,619.1895577497984 616.9043920750806,628.2832122791771 617.5214906244629,633.5876526239402 624.3095690405819,640.407443476116 631.0976493325024,642.6806550323045 640.3541200704581,638.1342039706518 648.376395585455,632.8298833237327 655.7815725509563,636.6186990220755 661.335455744121,638.8919533220533 668.7406327096265,632.0721111737182 678.6142019969558,630.5565606267992 681.6996928682926,641.1651819754085 686.0193789625793,654.0463304653522 684.1680851901249,658.5924225376854 674.9116144521693,660.107762237365 663.1867495164619,656.3193904721518 657.6328663234107,656.3193904721518 656.3986711003429,662.3807538781831 660.7183571946252,672.2300811981597 658.2499648727929,676.7757608284724 654.9741133813053,682.7136608092337Z" name="Żurrieq" name_en="Żurrieq" gn_name="Iz-Zurrieq" admin="Malta" adm0_a3="MLT" iso_3166_2="MT-68" iso_a2="MT" wikidataid="Q44417"/><path d="M743.9145009475504,632.5961992094368 727.6893693302549,650.5893975288179 717.3350296630301,672.1596236197217 717.3350296630301,703.7292679212023 683.8956068880136,690.2893311597935 674.729471193481,684.6630436366933 654.9741133813053,682.7136608092337 658.2499648727929,676.7757608284724 660.7183571946252,672.2300811981597 656.3986711003429,662.3807538781831 657.6328663234107,656.3193904721518 663.1867495164619,656.3193904721518 674.9116144521693,660.107762237365 684.1680851901249,658.5924225376854 686.0193789625793,654.0463304653522 681.6996928682926,641.1651819754085 678.6142019969558,630.5565606267992 687.253576061335,629.798779926561 692.1903607051219,623.7364363229495 694.041654477454,616.9160811308298 699.5955376706187,614.6425788544193 709.4691069579567,612.3690509191362 712.5545978292847,604.7904360693269 719.9597747947903,604.7904360693269 728.5991488591695,608.579779135421 738.4727181464988,619.9473783557455 743.9145009475504,632.5961992094368Z" name="Birżebbuġa" name_en="Birżebbuġa" gn_name="Birzebbuga" admin="Malta" adm0_a3="MLT" iso_3166_2="MT-05" iso_a2="MT" wikidataid="Q258028"/><path d="M797.2245685221736,600.0542032317916 788.7969441034708,630.4759484818269 760.1103330471678,614.6338905292873 743.9145009475504,632.5961992094368 738.4727181464988,619.9473783557455 728.5991488591695,608.579779135421 719.9597747947903,604.7904360693269 712.5545978292847,604.7904360693269 711.3204026062169,592.6640610212039 724.279462764883,593.4219814273187 729.2162474085432,588.8744185116097 741.5582090178356,590.3902849940022 753.9001706270014,597.2115360684863 760.6882490431203,589.6323531788873 771.7960154293363,594.9378113790629 783.5208784892377,596.453632226589 797.2245685221736,600.0542032317916Z" name="Marsaxlokk" name_en="Marsaxlokk" gn_name="Marsaxlokk" admin="Malta" adm0_a3="MLT" iso_3166_2="MT-28" iso_a2="MT" wikidataid="Q781921"/><path d="M786.9367266865098,519.7685009433008 791.682580534772,527.4802930223631 800,590.0345415223196 797.2245685221736,600.0542032317916 783.5208784892377,596.453632226589 771.7960154293363,594.9378113790629 760.6882490431203,589.6323531788873 757.6027600477117,584.3267552140454 756.9856614983294,579.0210151662309 759.4540538201661,572.9571430530827 756.3685629489559,564.6190213039703 749.5804845327148,550.9740751387657 755.1343677258794,545.667458457671 761.3053475926205,544.9093582833198 766.8592307856674,538.0863328518192 769.3276231074997,530.5049240336806 786.9367266865098,519.7685009433008Z" name="Marsaskala" name_en="Marsaskala" gn_name="Marsaskala" admin="Malta" adm0_a3="MLT" iso_3166_2="MT-27" iso_a2="MT" wikidataid="Q534571"/><path d="M777.1110383945703,503.80127457727207 786.9367266865098,519.7685009433008 769.3276231074997,530.5049240336806 766.8592307856674,538.0863328518192 761.3053475926205,544.9093582833198 755.1343677258794,545.667458457671 749.5804845327148,550.9740751387657 732.9188349534562,549.4579142047905 726.7478550867196,542.6350429356155 717.4913824729537,541.8769313418637 712.5545978292847,538.8444587209908 715.0229901511213,530.5049240336806 718.7255795718316,524.4395881523424 720.5768733441726,518.3740717968509 715.6400887005036,516.0994566127008 716.2571872498859,507.75897945157004 721.1939718936683,497.90160496977524 729.2162474085432,494.8684696984347 743.4095027902855,494.8684696984347 750.8146797557912,506.2424906642884 760.6882490431203,510.791920439714 777.1110383945703,503.80127457727207Z" name="Żabbar" name_en="Żabbar" gn_name="Haz-Zabbar" admin="Malta" adm0_a3="MLT" iso_3166_2="MT-64" iso_a2="MT" wikidataid="Q39518"/><path d="M760.1103324258938,476.17129900852365 777.1110383945703,503.80127457727207 760.6882490431203,510.791920439714 750.8146797557912,506.2424906642884 743.4095027902855,494.8684696984347 745.8778951121222,486.52711252299514 760.1103324258938,476.17129900852365Z" name="Xgħajra" name_en="Xgħajra" gn_name="Ix-Xghajra" admin="Malta" adm0_a3="MLT" iso_3166_2="MT-63" iso_a2="MT" wikidataid="Q520962"/><path d="M23.444252545727554,118.64953586669216 2.7158915168478246,105.2517513242964 9.166135694536948,77.5592796450696 1.5276896300544303,49.54941754747118 0,27.807720760010547 16.326508189809523,41.39138433038302 38.53976372820208,51.11820213563878 47.42506406770258,47.47070223021591 51.374088108212945,56.58932982844905 58.77850537047028,60.84454785112747 55.32311027291303,72.39396962444226 48.4123200778029,79.0801736559714 48.4123200778029,88.80516260395105 34.59073968769171,103.3917603701683 23.444252545727554,118.64953586669216Z" name="San Lawrenz" name_en="Saint Lawrence" gn_name="Saint Lawrence" admin="Malta" adm0_a3="MLT" iso_3166_2="MT-50" iso_a2="MT" wikidataid="Q537308"/><path d="M54.36615210779757,134.80290481060726 36.6645448639287,127.1940096515188 23.444252545727554,118.64953586669216 34.59073968769171,103.3917603701683 48.4123200778029,88.80516260395105 48.4123200778029,79.0801736559714 55.32311027291303,72.39396962444226 58.77850537047028,60.84454785112747 73.58734177067743,62.06030816483108 80.00450489864907,69.35471287142839 93.8260852887559,71.78612288458324 99.74961947377443,79.6879982771331 102.71138750418447,88.80516260395105 108.14129274613208,91.8441244677638 108.63492168908085,96.70636948022275 108.14129274613208,112.50784682859296 97.77510745346035,109.46919816422245 89.3834341811027,108.25372534229737 81.48538797589224,111.90011939403384 68.15743465292826,121.01581904493248 54.36615210779757,134.80290481060726Z" name="Kerċem" name_en="Kerċem" gn_name="Ta' Kercem" admin="Malta" adm0_a3="MLT" iso_3166_2="MT-22" iso_a2="MT" wikidataid="Q674679"/><path d="M103.03408149484686,151.74144875821753 77.74241370343209,144.85056273364233 54.36615210779757,134.80290481060726 68.15743465292826,121.01581904493248 81.48538797589224,111.90011939403384 89.3834341811027,108.25372534229737 97.77510745346035,109.46919816422245 108.14129274613208,112.50784682859296 112.0903167866381,118.58500601556197 119.98836299185291,121.01581904493248 118.50747803879946,125.87735439741088 113.07757279673842,135.60007386287947 104.68589764857484,145.32232200323526 103.03408149484686,151.74144875821753Z" name="Munxar" name_en="Munxar" gn_name="Il-Munxar" admin="Malta" adm0_a3="MLT" iso_3166_2="MT-36" iso_a2="MT" wikidataid="Q587462"/><path d="M187.78541670187846,153.1652610301048 159.38892498229407,159.4761162771234 120.68745991636875,156.55109087896213 103.03408149484686,151.74144875821753 104.68589764857484,145.32232200323526 113.07757279673842,135.60007386287947 118.50747803879946,125.87735439741088 125.91189717686707,127.70040179048189 141.70798958717455,127.70040179048189 151.08691886974597,130.13110201996855 157.99770906486046,136.81538094281498 167.87026729026718,139.8536152698713 177.24919657272082,145.32232200323526 183.66635782488655,144.71469631134025 187.78541670187846,153.1652610301048Z" name="Sannat" name_en="Sannat" gn_name="Sannat" admin="Malta" adm0_a3="MLT" iso_3166_2="MT-52" iso_a2="MT" wikidataid="Q602037"/><path d="M243.0296751906641,129.94955697139702 196.05346984622278,151.3277260664434 187.78541670187846,153.1652610301048 183.66635782488655,144.71469631134025 184.6536138349825,141.67653331250466 193.0452889831461,133.16943760931738 194.03254311755828,121.62351654344792 198.47519422520713,116.76187806036162 202.42421826571749,108.25372534229737 211.30952048102827,114.33101346220583 220.19482082053312,116.1541635188626 236.48454217390716,116.1541635188626 241.42082034870757,122.23121450966606 243.0296751906641,129.94955697139702Z" name="Għajnsielem" name_en="Għajnsielem" gn_name="Ghajnsielem" admin="Malta" adm0_a3="MLT" iso_3166_2="MT-13" iso_a2="MT" wikidataid="Q761675"/><path d="M285.38912956245804,75.38244449319654 314.1947810744249,105.87870477333166 288.7332900212532,124.37299845203725 252.0687451573245,125.83574985854933 243.0296751906641,129.94955697139702 241.42082034870757,122.23121450966606 236.48454217390716,116.1541635188626 253.76151766169338,113.72329386258298 258.69779583648943,107.03824515221386 259.191422903641,94.88304026505993 260.67230785668573,88.80516260395105 268.0767251189474,86.98176383465133 275.48114425701067,82.11928295062516 285.38912956245804,75.38244449319654Z" name="Qala" name_en="Qala" gn_name="Il-Qala" admin="Malta" adm0_a3="MLT" iso_3166_2="MT-42" iso_a2="MT" wikidataid="Q1088033"/><path d="M220.00002001101234,28.571905901354064 273.6261407209693,62.92774950638162 285.38912956245804,75.38244449319654 275.48114425701067,82.11928295062516 268.0767251189474,86.98176383465133 260.67230785668573,88.80516260395105 259.191422903641,94.88304026505993 258.69779583648943,107.03824515221386 253.76151766169338,113.72329386258298 236.48454217390716,116.1541635188626 220.19482082053312,116.1541635188626 211.30952048102827,114.33101346220583 202.42421826571749,108.25372534229737 202.9178453328647,96.70636948022275 205.87961336327473,89.41295773829192 207.3604964405179,77.86451657459342 213.77765956848955,74.82534277026303 213.77765956848955,46.254853404798276 220.00002001101234,28.571905901354064Z" name="Nadur" name_en="Nadur" gn_name="In-Nadur" admin="Malta" adm0_a3="MLT" iso_3166_2="MT-37" iso_a2="MT" wikidataid="Q929969"/><path d="M184.36899678616007,11.778830941492354 206.40780742754438,19.86305081079905 220.00002001101234,28.571905901354064 213.77765956848955,46.254853404798276 213.77765956848955,74.82534277026303 207.3604964405179,77.86451657459342 205.87961336327473,89.41295773829192 202.9178453328647,96.70636948022275 202.42421826571749,108.25372534229737 191.0707769629498,99.74521157668681 183.17273075773934,96.09859414780877 173.79380147528573,97.92190999840462 161.94673122956053,100.35297354491773 149.1124068494319,97.92190999840462 150.09966285965,91.23633670428617 145.65701175187465,85.15834617017674 139.73347756697825,76.6488521205723 145.1633846847318,76.04101828368516 147.63152377218873,71.1782719915201 144.66975574177866,62.66818440112605 145.65701175187465,54.15773544712599 153.06143088994224,45.64692507064265 162.93398723966087,40.78344355143036 175.27468455252452,40.17549861766816 177.24919657272082,35.31188429612384 176.75556762977206,26.800273416691805 175.76831349547766,20.112324814763035 184.36899678616007,11.778830941492354Z" name="Xagħra" name_en="Xagħra" gn_name="Ix-Xaghra" admin="Malta" adm0_a3="MLT" iso_3166_2="MT-61" iso_a2="MT" wikidataid="Q605343"/><path d="M104.12383715778665,7.263738619341753 152.25970740397287,0 184.36899678616007,11.778830941492354 175.76831349547766,20.112324814763035 176.75556762977206,26.800273416691805 177.24919657272082,35.31188429612384 175.27468455252452,40.17549861766816 162.93398723966087,40.78344355143036 153.06143088994224,45.64692507064265 145.65701175187465,54.15773544712599 144.66975574177866,62.66818440112605 147.63152377218873,71.1782719915201 145.1633846847318,76.04101828368516 139.73347756697825,76.6488521205723 128.38003626421056,76.6488521205723 116.53296789429567,67.53113716036798 115.54571188419534,52.94192719263981 110.60943370939928,46.254853404798276 103.6986435142848,48.68654136859322 99.25599240662723,46.86277758458061 97.28148038631315,33.48799877809732 97.77510745346035,17.68028773059083 104.12383715778665,7.263738619341753Z" name="Żebbuġ" gn_name="Iz-Zebbug" admin="Malta" adm0_a3="MLT" iso_3166_2="MT-65" iso_a2="MT"/><path d="M61.157822854231526,13.747119662362916 104.12383715778665,7.263738619341753 97.77510745346035,17.68028773059083 97.28148038631315,33.48799877809732 99.25599240662723,46.86277758458061 103.6986435142848,48.68654136859322 110.60943370939928,46.254853404798276 115.54571188419534,52.94192719263981 116.53296789429567,67.53113716036798 106.16678260174172,66.92327336307655 96.78785144336439,68.13899680422844 93.8260852887559,71.78612288458324 80.00450489864907,69.35471287142839 73.58734177067743,62.06030816483108 72.10645869343426,45.03899720218295 67.66380758578106,32.88003170916475 60.259390323523725,23.760325085706185 61.157822854231526,13.747119662362916Z" name="Għasri" name_en="Għasri" gn_name="L-Ghasri" admin="Malta" adm0_a3="MLT" iso_3166_2="MT-16" iso_a2="MT" wikidataid="Q1017339"/><path d="M0,27.807720760010547 24.78251556664959,19.235828230134203 61.157822854231526,13.747119662362916 60.259390323523725,23.760325085706185 67.66380758578106,32.88003170916475 72.10645869343426,45.03899720218295 73.58734177067743,62.06030816483108 58.77850537047028,60.84454785112747 51.374088108212945,56.58932982844905 47.42506406770258,47.47070223021591 38.53976372820208,51.11820213563878 16.326508189809523,41.39138433038302 0,27.807720760010547Z" name="Għarb" name_en="Għarb" gn_name="L-Gharb" admin="Malta" adm0_a3="MLT" iso_3166_2="MT-14" iso_a2="MT" wikidataid="Q1026487"/><path d="M108.63492168908085,96.70636948022275 108.14129274613208,91.8441244677638 102.71138750418447,88.80516260395105 99.74961947377443,79.6879982771331 93.8260852887559,71.78612288458324 96.78785144336439,68.13899680422844 106.16678260174172,66.92327336307655 116.53296789429567,67.53113716036798 128.38003626421056,76.6488521205723 139.73347756697825,76.6488521205723 145.65701175187465,85.15834617017674 150.09966285965,91.23633670428617 149.1124068494319,97.92190999840462 147.13789670504588,110.6846613084082 139.73347756697825,111.29239242691565 132.82268737186376,110.6846613084082 127.39278025411024,115.54644944494414 126.8991531869674,107.03824515221386 119.49473404889979,102.7840076134922 115.54571188419534,96.70636948022275 108.63492168908085,96.70636948022275Z" name="Victoria" name_en="Victoria" gn_name="Ir-Rabat" admin="Malta" adm0_a3="MLT" iso_3166_2="MT-45" iso_a2="MT" wikidataid="Q752348"/><path d="M108.14129274613208,112.50784682859296 108.63492168908085,96.70636948022275 115.54571188419534,96.70636948022275 119.49473404889979,102.7840076134922 126.8991531869674,107.03824515221386 127.39278025411024,115.54644944494414 119.98836299185291,121.01581904493248 112.0903167866381,118.58500601556197 108.14129274613208,112.50784682859296Z" name="Fontana, Gozo" name_en="Fontana" gn_name="Il-Fontana" admin="Malta" adm0_a3="MLT" iso_3166_2="MT-10" iso_a2="MT" wikidataid="Q1002742"/><path d="M118.50747803879946,125.87735439741088 119.98836299185291,121.01581904493248 127.39278025411024,115.54644944494414 132.82268737186376,110.6846613084082 139.73347756697825,111.29239242691565 147.13789670504588,110.6846613084082 149.1124068494319,97.92190999840462 161.94673122956053,100.35297354491773 173.79380147528573,97.92190999840462 183.17273075773934,96.09859414780877 191.0707769629498,99.74521157668681 202.42421826571749,108.25372534229737 198.47519422520713,116.76187806036162 194.03254311755828,121.62351654344792 193.0452889831461,133.16943760931738 184.6536138349825,141.67653331250466 183.66635782488655,144.71469631134025 177.24919657272082,145.32232200323526 167.87026729026718,139.8536152698713 157.99770906486046,136.81538094281498 151.08691886974597,130.13110201996855 141.70798958717455,127.70040179048189 125.91189717686707,127.70040179048189 118.50747803879946,125.87735439741088Z" name="Xewkija" name_en="Xewkija" gn_name="Ix-Xewkija" admin="Malta" adm0_a3="MLT" iso_3166_2="MT-62" iso_a2="MT" wikidataid="Q919921"/><path d="M460.1614749482571,437.23020726626675 458.31018117579833,429.644997112465 463.2469658194673,425.0937318440459 471.26924133446425,420.5423635659669 475.58892742875094,416.74948066344854 473.73763365630094,411.43932025092005 466.33245669080407,408.4048808946904 458.9272797251806,403.8531371435728 456.45888740334834,396.2666654755992 450.28790566080136,393.990669071755 442.26563014592216,394.7493381715332 439.79723782408985,391.7146469002705 444.11692579418246,387.9212178118865 460.77857349763065,384.8864234611627 471.8863398838466,387.16252294294975 479.90861539884355,393.2319971090123 485.4624985918948,397.7839836340899 487.93089091372275,406.1290219000201 493.48477223108586,410.6807164346691 499.0386554241284,406.1290219000201 505.20963716667535,398.5426361128151 513.8490093552531,400.0599370940946 518.1686973253413,406.88764519587363 520.0199910977957,413.71512144506187 521.2541881965602,421.3009324837303 521.8712848702544,428.88645966977367 524.3396771920867,435.71318904482274 520.637089647178,440.26421168673676 520.637089647178,448.60748958551375 524.9567757414646,463.01778730012455 517.5515987759677,462.25937570779627 510.14642181034435,456.9504191082731 498.42155687475486,451.6413223870679 485.4624985918948,453.1582204753702 478.67441829996557,456.9504191082731 471.8863398838466,450.1244105534682 466.33245669080407,444.81513365481703 460.1614749482571,437.23020726626675Z" name="Mosta" name_en="Mosta" gn_name="Il-Mosta" admin="Malta" adm0_a3="MLT" iso_3166_2="MT-32" iso_a2="MT" wikidataid="Q39520"/><path d="M524.9567757414646,463.01778730012455 520.637089647178,448.60748958551375 520.637089647178,440.26421168673676 524.3396771920867,435.71318904482274 536.0645421276762,441.78119788639106 548.4065037369598,439.50571429616235 552.7261898312465,447.8490236585116 547.1723066380863,463.77619603315287 534.2132483552263,464.5345996016106 524.9567757414646,463.01778730012455Z" name="Lija" name_en="Lija" gn_name="Lija" admin="Malta" adm0_a3="MLT" iso_3166_2="MT-24" iso_a2="MT" wikidataid="Q782049"/><path d="M498.42155687475486,451.6413223870679 510.14642181034435,456.9504191082731 517.5515987759677,462.25937570779627 524.9567757414646,463.01778730012455 534.2132483552263,464.5345996016106 547.1723066380863,463.77619603315287 552.7261898312465,472.1184964794376 560.1313667967522,476.66869784243573 571.8562317323417,478.9437587804438 570.0049379598873,487.2854303336041 565.0681533162227,494.11017816046007 541.6184253208409,495.6267583786974 528.6593651621749,496.3850418964486 521.8712848702544,503.2094811110726 511.3806170334208,505.4842419851354 500.2728525230151,503.967738361093 489.7821846861815,500.93469452313377 478.05731975058325,503.2094811110726 474.3547322056832,491.07698573786405 474.97183075505677,482.7354713793663 475.58892742875094,472.87687090419956 477.44022307701124,466.051402771726 478.67441829996557,456.9504191082731 485.4624985918948,453.1582204753702 498.42155687475486,451.6413223870679Z" name="Attard" name_en="Attard" gn_name="Attard" admin="Malta" adm0_a3="MLT" iso_3166_2="MT-01" iso_a2="MT" wikidataid="Q44557"/><path d="M456.45888740334834,497.90160496977524 443.49982724468236,493.35188376510496 442.26563014592216,482.7354713793663 448.436611888347,475.9103377110848 458.9272797251806,475.15197472095747 468.1837504631363,475.15197472095747 475.58892742875094,472.87687090419956 474.97183075505677,482.7354713793663 474.3547322056832,491.07698573786405 466.9495552401776,491.07698573786405 459.5443782746807,493.35188376510496 456.45888740334834,497.90160496977524Z" name="Mtarfa" name_en="Mtarfa" gn_name="L-Imtarfa" admin="Malta" adm0_a3="MLT" iso_3166_2="MT-35" iso_a2="MT" wikidataid="Q656837"/><path d="M456.45888740334834,497.90160496977524 459.5443782746807,493.35188376510496 466.9495552401776,491.07698573786405 474.3547322056832,491.07698573786405 478.05731975058325,503.2094811110726 471.8863398838466,502.4512210038463 461.3956720470173,502.4512210038463 456.45888740334834,497.90160496977524Z" name="Mdina" name_en="Mdina" gn_name="L-Imdina" admin="Malta" adm0_a3="MLT" iso_3166_2="MT-29" iso_a2="MT" wikidataid="Q207277"/><path d="M485.4624985918948,543.3931493700493 481.1428106218022,516.8576652987888 477.44022307701124,513.8248157211663 478.05731975058325,503.2094811110726 489.7821846861815,500.93469452313377 500.2728525230151,503.967738361093 511.3806170334208,505.4842419851354 521.8712848702544,503.2094811110726 528.6593651621749,496.3850418964486 541.6184253208409,495.6267583786974 565.0681533162227,494.11017816046007 562.5997591185845,500.93469452313377 558.8971715736758,507.00073648639255 560.7484653461345,517.6158711283339 565.6852499897947,522.9232273522118 576.1759178266284,524.4395881523424 582.3468995691753,529.7467667553466 582.3468995691753,538.0863328518192 583.5810947921296,546.4255557772595 578.0272115990871,549.4579142047905 574.324624054174,547.1836479378615 567.536545638055,541.1188168931047 558.8971715736758,539.6025817348935 546.5552099645099,541.8769313418637 543.4697190931819,547.9417395480638 537.2987373507483,554.0063650580255 524.3396771920867,558.5547154611568 511.3806170334208,552.4902269593962 499.0386554241284,547.1836479378615 492.86767555751385,542.6350429356155 485.4624985918948,543.3931493700493Z" name="Żebbuġ" name_en="Żebbuġ" gn_name="Haz-Zebbug" admin="Malta" adm0_a3="MLT" iso_3166_2="MT-66" iso_a2="MT" wikidataid="Q179243"/><path d="M583.5810947921296,546.4255557772595 582.3468995691753,538.0863328518192 582.3468995691753,529.7467667553466 576.1759178266284,524.4395881523424 565.6852499897947,522.9232273522118 560.7484653461345,517.6158711283339 558.8971715736758,507.00073648639255 562.5997591185845,500.93469452313377 565.0681533162227,494.11017816046007 570.0049379598873,487.2854303336041 571.8562317323417,478.9437587804438 584.1981933416254,489.56037353279 597.7743520496736,491.07698573786405 605.1795290151748,494.8684696984347 616.2872954013865,497.1433248617585 626.7779613624142,512.3083726413092 619.9898829462952,516.0994566127008 618.7556877232188,522.1650415158488 611.9676074312982,529.7467667553466 597.1572535002913,552.4902269593962 590.3691750841723,552.4902269593962 583.5810947921296,546.4255557772595Z" name="Qormi" name_en="Qormi" gn_name="Qormi" admin="Malta" adm0_a3="MLT" iso_3166_2="MT-43" iso_a2="MT" wikidataid="Q39578"/><path d="M566.3023485392948,376.5405010127472 581.7298010197974,375.78176549374194 591.6033703071266,380.33414487334244 599.0085472726322,387.16252294294975 601.476939594578,398.5426361128151 609.4992151094615,400.8185832905232 626.7779613624142,399.30128803477135 630.4805507831288,403.8531371435728 629.8634522336243,412.9565239089961 622.4582752681275,419.0252194513718 618.1385891738452,414.4737138131019 612.584705980794,419.7837940924292 602.0940381439602,423.5766197620248 589.7520765346766,422.8180617346738 584.1981933416254,420.5423635659669 582.3468995691753,408.4048808946904 577.4101149255064,400.0599370940946 575.5588192772504,387.9212178118865 566.3023485392948,384.12771713809934 566.3023485392948,376.5405010127472Z" name="Swieqi" name_en="Swieqi" gn_name="Is-Swieqi" admin="Malta" adm0_a3="MLT" iso_3166_2="MT-57" iso_a2="MT" wikidataid="Q220667"/><path d="M558.2800730242978,417.50806158388843 550.2577975093009,409.16349560355246 549.64070083572,399.30128803477135 552.1090931575524,384.8864234611627 557.0458778013435,380.33414487334244 566.3023485392948,376.5405010127472 566.3023485392948,384.12771713809934 575.5588192772504,387.9212178118865 577.4101149255064,400.0599370940946 582.3468995691753,408.4048808946904 584.1981933416254,420.5423635659669 581.1127024702973,426.6108301746446 573.0904269554181,420.5423635659669 566.3023485392948,418.2666419484318 558.2800730242978,417.50806158388843Z" name="Għargħur" name_en="Għargħur" gn_name="Hal Gharghur" admin="Malta" adm0_a3="MLT" iso_3166_2="MT-15" iso_a2="MT" wikidataid="Q1018111"/><path d="M618.1385891738452,414.4737138131019 622.4582752681275,419.0252194513718 623.6649279638252,427.5729085334406 629.8773032192378,431.77283734684954 636.0896803504563,438.6452610380561 630.4985416827741,449.71700399862164 609.6870831701964,450.8623212982315 601.9216136319758,453.53470373782005 581.7298010197974,447.8490236585116 581.1127024702973,426.6108301746446 584.1981933416254,420.5423635659669 589.7520765346766,422.8180617346738 602.0940381439602,423.5766197620248 612.584705980794,419.7837940924292 618.1385891738452,414.4737138131019Z" name="San Ġwann" name_en="San Ġwann" gn_name="Saint John" admin="Malta" adm0_a3="MLT" iso_3166_2="MT-49" iso_a2="MT" wikidataid="Q39507"/><path d="M558.2800730242978,417.50806158388843 566.3023485392948,418.2666419484318 573.0904269554181,420.5423635659669 581.1127024702973,426.6108301746446 581.7298010197974,447.8490236585116 573.7075255047918,450.88286790017975 565.0681533162227,453.1582204753702 552.7261898312465,447.8490236585116 548.4065037369598,439.50571429616235 555.8116807024655,435.71318904482274 552.1090931575524,426.6108301746446 558.2800730242978,417.50806158388843Z" name="Iklin" name_en="Iklin" gn_name="L-Iklin" admin="Malta" adm0_a3="MLT" iso_3166_2="MT-19" iso_a2="MT" wikidataid="Q304589"/><path d="M565.0681533162227,453.1582204753702 573.7075255047918,450.88286790017975 581.7298010197974,447.8490236585116 601.9216136319758,453.53470373782005 609.3764639385504,459.6428744550872 611.5507966847724,465.75085970232243 605.9596580169723,471.8586618063999 601.9216136319758,474.1490377720152 600.6791385809448,480.6382985880027 597.7743520496736,491.07698573786405 584.1981933416254,489.56037353279 571.8562317323417,478.9437587804438 573.0904269554181,469.84335835743224 570.0049379598873,460.7425462503534 565.0681533162227,453.1582204753702Z" name="Birkirkara" name_en="Birkirkara" gn_name="Birkirkara" admin="Malta" adm0_a3="MLT" iso_3166_2="MT-04" iso_a2="MT" wikidataid="Q39583"/><path d="M552.7261898312465,447.8490236585116 565.0681533162227,453.1582204753702 570.0049379598873,460.7425462503534 573.0904269554181,469.84335835743224 571.8562317323417,478.9437587804438 560.1313667967522,476.66869784243573 552.7261898312465,472.1184964794376 547.1723066380863,463.77619603315287 552.7261898312465,447.8490236585116Z" name="Balzan" name_en="Balzan" gn_name="Balzan" admin="Malta" adm0_a3="MLT" iso_3166_2="MT-02" iso_a2="MT" wikidataid="Q789794"/><path d="M616.2872954013865,497.1433248617585 605.1795290151748,494.8684696984347 597.7743520496736,491.07698573786405 600.6791385809448,480.6382985880027 601.9216136319758,474.1490377720152 605.9596580169723,471.8586618063999 611.5507966847724,473.3855827824764 623.0436913762126,476.8211131835441 632.051635965582,485.60053342138224 619.626883578833,490.56264587658774 616.2872954013865,497.1433248617585Z" name="Santa Venera" name_en="Santa Venera" gn_name="Saint Venera" admin="Malta" adm0_a3="MLT" iso_3166_2="MT-54" iso_a2="MT" wikidataid="Q585420"/><path d="M626.7779613624142,512.3083726413092 616.2872954013865,497.1433248617585 619.626883578833,490.56264587658774 632.051635965582,485.60053342138224 641.0595805548336,486.74564644797516 651.9312367828553,480.6382985880027 655.9692811678431,486.3639420614829 652.863094478042,490.56264587658774 643.4396109417947,496.3850418964486 639.1199248475081,513.0665956095179 626.7779613624142,512.3083726413092Z" name="Ħamrun" name_en="Ħamrun" gn_name="Il-Hamrun" admin="Malta" adm0_a3="MLT" iso_3166_2="MT-18" iso_a2="MT" wikidataid="Q343001"/><path d="M618.7556877232188,522.1650415158488 619.9898829462952,516.0994566127008 626.7779613624142,512.3083726413092 639.1199248475081,513.0665956095179 643.4396109417947,496.3850418964486 652.863094478042,490.56264587658774 657.0157696498343,493.35188376510496 661.335455744121,502.4512210038463 660.7183571946252,518.3740717968509 655.164474001574,534.2956629827038 645.908003263627,545.667458457671 637.8857277486213,545.667458457671 629.2463555600524,538.8444587209908 622.4582752681275,537.3282041276403 622.4582752681275,530.5049240336806 618.7556877232188,522.1650415158488Z" name="Marsa" name_en="Marsa" gn_name="Il-Marsa" admin="Malta" adm0_a3="MLT" iso_3166_2="MT-26" iso_a2="MT" wikidataid="Q267431"/><path d="M597.1572535002913,552.4902269593962 611.9676074312982,529.7467667553466 618.7556877232188,522.1650415158488 622.4582752681275,530.5049240336806 622.4582752681275,537.3282041276403 629.2463555600524,538.8444587209908 637.8857277486213,545.667458457671 645.908003263627,545.667458457671 648.9934941348373,557.0386093086179 648.9934941348373,567.6511057348877 648.376395585455,576.7470850979656 652.0789850060563,586.6005996991045 652.0789850060563,591.9061377630835 652.6960816797504,601.7589107502291 657.6328663234107,606.3061827715621 666.8893389371722,613.1268948794881 673.6774173532912,621.4630110158281 678.6142019969558,630.5565606267992 668.7406327096265,632.0721111737182 657.0157696498343,620.7051961111877 649.6105926842196,610.8533498377197 639.7370215210801,605.5483108461071 637.8857277486213,596.453632226589 633.5660416543391,594.179896677326 627.395059911792,585.8426536220414 621.8411767187451,582.8108430916739 614.4359997531261,588.1164809919426 603.3282352427204,585.0847046924143 595.3059597278412,580.5369558165298 586.0494871140841,587.3585429237952 578.6443101484607,590.3902849940022 570.6220346335815,585.8426536220414 572.4733302818418,580.5369558165298 581.1127024702973,579.0210151662309 588.5178794359164,570.6831445090561 598.3914505990559,562.3449262886809 597.1572535002913,552.4902269593962Z" name="Luqa" name_en="Luqa" gn_name="Luqa" admin="Malta" adm0_a3="MLT" iso_3166_2="MT-25" iso_a2="MT" wikidataid="Q475585"/><path d="M557.0458778013435,606.3061827715621 561.9826624450125,596.453632226589 564.4510547668448,588.8744185116097 570.6220346335815,585.8426536220414 578.6443101484607,590.3902849940022 586.0494871140841,587.3585429237952 595.3059597278412,580.5369558165298 603.3282352427204,585.0847046924143 614.4359997531261,588.1164809919426 617.5214906244629,594.9378113790629 614.4359997531261,599.4852373943436 610.7334122083396,608.579779135421 602.7111366933426,609.3376396554531 590.9862717577444,610.0954950203728 578.6443101484607,612.3690509191362 568.7707408611315,608.579779135421 557.0458778013435,606.3061827715621Z" name="Mqabba" name_en="Mqabba" gn_name="L-Imqabba" admin="Malta" adm0_a3="MLT" iso_3166_2="MT-33" iso_a2="MT" wikidataid="Q1017953"/><path d="M625.5437661393377,619.1895577497984 619.9898829462952,612.3690509191362 610.7334122083396,608.579779135421 614.4359997531261,599.4852373943436 617.5214906244629,594.9378113790629 614.4359997531261,588.1164809919426 621.8411767187451,582.8108430916739 627.395059911792,585.8426536220414 633.5660416543391,594.179896677326 637.8857277486213,596.453632226589 639.7370215210801,605.5483108461071 625.5437661393377,619.1895577497984Z" name="Kirkop" name_en="Kirkop" gn_name="Kirkop" admin="Malta" adm0_a3="MLT" iso_3166_2="MT-23" iso_a2="MT" wikidataid="Q597464"/><path d="M631.0976493325024,642.6806550323045 624.3095690405819,640.407443476116 617.5214906244629,633.5876526239402 616.9043920750806,628.2832122791771 625.5437661393377,619.1895577497984 639.7370215210801,605.5483108461071 649.6105926842196,610.8533498377197 657.0157696498343,620.7051961111877 668.7406327096265,632.0721111737182 661.335455744121,638.8919533220533 655.7815725509563,636.6186990220755 648.376395585455,632.8298833237327 640.3541200704581,638.1342039706518 631.0976493325024,642.6806550323045Z" name="Safi" name_en="Safi" gn_name="Safi" admin="Malta" adm0_a3="MLT" iso_3166_2="MT-47" iso_a2="MT" wikidataid="Q658903"/><path d="M712.5545978292847,604.7904360693269 709.4691069579567,612.3690509191362 699.5955376706187,614.6425788544193 694.041654477454,616.9160811308298 692.1903607051219,623.7364363229495 687.253576061335,629.798779926561 678.6142019969558,630.5565606267992 673.6774173532912,621.4630110158281 666.8893389371722,613.1268948794881 671.8261235808368,608.579779135421 671.8261235808368,604.0325584410123 672.443222130337,595.6957232288986 674.9116144521693,589.6323531788873 679.2313005464558,586.6005996991045 680.4654976452161,578.2630405617989 681.6996928682926,574.4731293522082 680.4654976452161,566.1350680746704 682.9338899670483,561.5868912135817 692.8074592545041,564.6190213039703 701.4468314430775,575.9891019343928 711.3204026062169,592.6640610212039 712.5545978292847,604.7904360693269Z" name="Għaxaq" name_en="Għaxaq" gn_name="Hal Ghaxaq" admin="Malta" adm0_a3="MLT" iso_3166_2="MT-17" iso_a2="MT" wikidataid="Q426385"/><path d="M753.9001706270014,597.2115360684863 741.5582090178356,590.3902849940022 729.2162474085432,588.8744185116097 724.279462764883,593.4219814273187 711.3204026062169,592.6640610212039 701.4468314430775,575.9891019343928 692.8074592545041,564.6190213039703 682.9338899670483,561.5868912135817 686.0193789625793,557.7966638119983 694.041654477454,552.4902269593962 698.361342447551,549.4579142047905 700.2126362200011,542.6350429356155 705.14942086367,541.1188168931047 712.5545978292847,538.8444587209908 717.4913824729537,541.8769313418637 726.7478550867196,542.6350429356155 732.9188349534562,549.4579142047905 749.5804845327148,550.9740751387657 756.3685629489559,564.6190213039703 759.4540538201661,572.9571430530827 756.9856614983294,579.0210151662309 757.6027600477117,584.3267552140454 760.6882490431203,589.6323531788873 753.9001706270014,597.2115360684863Z" name="Żejtun" name_en="Żejtun" gn_name="Iz-Zejtun" admin="Malta" adm0_a3="MLT" iso_3166_2="MT-67" iso_a2="MT" wikidataid="Q44392"/><path d="M712.5545978292847,538.8444587209908 705.14942086367,541.1188168931047 700.2126362200011,542.6350429356155 698.361342447551,549.4579142047905 694.041654477454,552.4902269593962 690.9561654820454,544.9093582833198 692.8074592545041,538.8444587209908 687.253576061335,532.7793764303324 677.3800067740059,529.7467667553466 688.4877712844116,517.6158711283339 695.8929501257144,517.6158711283339 707.6178131856244,516.8576652987888 715.6400887005036,516.0994566127008 720.5768733441726,518.3740717968509 718.7255795718316,524.4395881523424 715.0229901511213,530.5049240336806 712.5545978292847,538.8444587209908Z" name="Fgura" name_en="Fgura" gn_name="Il-Fgura" admin="Malta" adm0_a3="MLT" iso_3166_2="MT-08" iso_a2="MT" wikidataid="Q44388"/><path d="M694.041654477454,552.4902269593962 686.0193789625793,557.7966638119983 682.9338899670483,561.5868912135817 680.4654976452161,566.1350680746704 665.6551418384076,563.1029608143227 655.7815725509563,561.5868912135817 648.9934941348373,557.0386093086179 660.1012605210533,549.4579142047905 666.8893389371722,545.667458457671 669.9748298085046,537.3282041276403 677.3800067740059,529.7467667553466 687.253576061335,532.7793764303324 692.8074592545041,538.8444587209908 690.9561654820454,544.9093582833198 694.041654477454,552.4902269593962Z" name="Tarxien" name_en="Tarxien" gn_name="Tarxien" admin="Malta" adm0_a3="MLT" iso_3166_2="MT-59" iso_a2="MT" wikidataid="Q744001"/><path d="M680.4654976452161,566.1350680746704 681.6996928682926,574.4731293522082 680.4654976452161,578.2630405617989 665.6551418384076,577.5050654083634 648.376395585455,576.7470850979656 648.9934941348373,567.6511057348877 648.9934941348373,557.0386093086179 655.7815725509563,561.5868912135817 665.6551418384076,563.1029608143227 680.4654976452161,566.1350680746704Z" name="Santa Luċija" name_en="Santa Luċija" gn_name="Saint Lucia" admin="Malta" adm0_a3="MLT" iso_3166_2="MT-53" iso_a2="MT" wikidataid="Q1087776"/><path d="M680.4654976452161,578.2630405617989 679.2313005464558,586.6005996991045 674.9116144521693,589.6323531788873 672.443222130337,595.6957232288986 671.8261235808368,604.0325584410123 671.8261235808368,608.579779135421 666.8893389371722,613.1268948794881 657.6328663234107,606.3061827715621 652.6960816797504,601.7589107502291 652.0789850060563,591.9061377630835 652.0789850060563,586.6005996991045 648.376395585455,576.7470850979656 665.6551418384076,577.5050654083634 680.4654976452161,578.2630405617989Z" name="Gudja" name_en="Gudja" gn_name="Il-Gudja" admin="Malta" adm0_a3="MLT" iso_3166_2="MT-11" iso_a2="MT" wikidataid="Q1018153"/><path d="M677.3800067740059,529.7467667553466 669.9748298085046,537.3282041276403 666.8893389371722,545.667458457671 660.1012605210533,549.4579142047905 648.9934941348373,557.0386093086179 645.908003263627,545.667458457671 655.164474001574,534.2956629827038 660.7183571946252,518.3740717968509 661.335455744121,502.4512210038463 669.3577312590089,495.6267583786974 677.3800067740059,488.0437475912134 688.4877712844116,500.93469452313377 682.3167914176748,512.3083726413092 688.4877712844116,517.6158711283339 677.3800067740059,529.7467667553466Z" name="Paola" name_en="Paola" gn_name="Paola" admin="Malta" adm0_a3="MLT" iso_3166_2="MT-39" iso_a2="MT" wikidataid="Q846589"/><path d="M674.9116144521693,453.91666638249126 663.1867495164619,463.01778730012455 655.3480445802305,457.7340927596036 637.3321554016052,457.35233332473797 630.4985416827741,449.71700399862164 636.0896803504563,438.6452610380561 645.0976249398257,433.68186774120784 654.4161868850439,440.936015212078 675.5382646292719,445.517447593387 674.9116144521693,453.91666638249126Z" name="Gżira" name_en="Gżira" gn_name="Il-Gzira" admin="Malta" adm0_a3="MLT" iso_3166_2="MT-12" iso_a2="MT" wikidataid="Q632097"/><path d="M655.7815725509563,469.84335835743224 663.1867495164619,463.01778730012455 682.3167914176748,478.9437587804438 677.3800067740059,488.0437475912134 669.3577312590089,495.6267583786974 661.335455744121,502.4512210038463 657.0157696498343,493.35188376510496 652.863094478042,490.56264587658774 655.9692811678431,486.3639420614829 651.9312367828553,480.6382985880027 655.7815725509563,469.84335835743224Z" name="Floriana" name_en="Floriana" gn_name="Il-Furjana" admin="Malta" adm0_a3="MLT" iso_3166_2="MT-09" iso_a2="MT" wikidataid="Q832807"/><path d="M663.1867495164619,463.01778730012455 655.7815725509563,469.84335835743224 645.908003263627,472.1184964794376 637.8857277486213,471.3601191959516 637.3321554016052,457.35233332473797 655.3480445802305,457.7340927596036 663.1867495164619,463.01778730012455Z" name="Ta' Xbiex" name_en="Ta' Xbiex" gn_name="Ta' Xbiex" admin="Malta" adm0_a3="MLT" iso_3166_2="MT-58" iso_a2="MT" wikidataid="Q1017348"/><path d="M682.3167914176748,478.9437587804438 692.001059524976,473.3855827824764 704.2752105804523,483.6937014815116 688.4877712844116,500.93469452313377 677.3800067740059,488.0437475912134 682.3167914176748,478.9437587804438Z" name="Isla" name_en="Senglea" gn_name="L-Isla" admin="Malta" adm0_a3="MLT" iso_3166_2="MT-20" iso_a2="MT" wikidataid="Q846593"/><path d="M721.1939718936683,497.90160496977524 716.2571872498859,507.75897945157004 715.6400887005036,516.0994566127008 707.6178131856244,516.8576652987888 695.8929501257144,517.6158711283339 688.4877712844116,517.6158711283339 682.3167914176748,512.3083726413092 688.4877712844116,500.93469452313377 704.2752105804523,483.6937014815116 721.1939718936683,497.90160496977524Z" name="Cospicua" name_en="Cospicua" gn_name="Bormla" admin="Malta" adm0_a3="MLT" iso_3166_2="MT-06" iso_a2="MT" wikidataid="Q757225"/><path d="M655.7815725509563,469.84335835743224 651.9312367828553,480.6382985880027 641.0595805548336,486.74564644797516 632.051635965582,485.60053342138224 637.3321554016052,479.11143265591954 637.8857277486213,471.3601191959516 645.908003263627,472.1184964794376 655.7815725509563,469.84335835743224Z" name="Pietà" name_en="Pietà" gn_name="Tal-Pieta" admin="Malta" adm0_a3="MLT" iso_3166_2="MT-41" iso_a2="MT" wikidataid="Q744070"/><path d="M632.051635965582,485.60053342138224 623.0436913762126,476.8211131835441 611.5507966847724,473.3855827824764 605.9596580169723,471.8586618063999 611.5507966847724,465.75085970232243 609.3764639385504,459.6428744550872 601.9216136319758,453.53470373782005 609.6870831701964,450.8623212982315 630.4985416827741,449.71700399862164 637.3321554016052,457.35233332473797 637.8857277486213,471.3601191959516 637.3321554016052,479.11143265591954 632.051635965582,485.60053342138224Z" name="Msida" name_en="Msida" gn_name="L-Imsida" admin="Malta" adm0_a3="MLT" iso_3166_2="MT-34" iso_a2="MT" wikidataid="Q585187"/><path d="M704.2752105804523,483.6937014815116 692.001059524976,473.3855827824764 700.5139589343478,465.3723221984795 711.6362347156613,475.15259943562717 720.4552439079602,478.945810387698 721.1939718936683,497.90160496977524 704.2752105804523,483.6937014815116Z" name="Birgu" name_en="Birgu" gn_name="Il-Birgu" admin="Malta" adm0_a3="MLT" iso_3166_2="MT-03" iso_a2="MT" wikidataid="Q752346"/></svg>