<?xml version="1.0"?><svg fill="#3498db" stroke="#ecf0f1" stroke-width="1" width="800" height="1208" viewBox="0 0 800 1208" xmlns="http://www.w3.org/2000/svg"><path d="M121.22504893495527,1145.0680229316897 121.88824644558986,1144.6826494089357 122.39265034127037,1143.8229983159006 123.08387032881996,1142.9633863212835 124.29817578680031,1142.5780557091541 126.11029312900837,1142.854702442743 131.2570801730535,1144.3565702318554 132.63017947555753,1145.0680229316897 133.21865057240672,1146.411951106223 132.57413463651855,1148.5070889495605 133.02249357838252,1149.663467388976 133.83514414616323,1150.8199167465236 134.70383955297424,1152.8562309208146 135.67528396527186,1154.5961689408473 135.97418984999837,1156.0000997172617 136.55332015946428,1156.7515423934633 137.0203607908628,1156.8504186523326 138.37477840383224,1156.632891617681 138.82313734569524,1156.7515423934633 127.02326924843318,1163.9674995515654 125.6674263663947,1158.0948448756915 127.51630308940476,1155.876764119453 124.18832504991272,1152.4849111632213 124.92787565654191,1150.7892136416351 124.6813587876684,1149.224089875671 121.22504893495527,1145.0680229316897Z" name="Rivière du Rempart" name_en="Rivière du Rempart District" gn_name="Riviere du Rempart District" admin="Mauritius" adm0_a3="MUS" iso_3166_2="MU-RR" iso_a2="MU" type="District" type_en="District" wikidataid="Q1053565"/><path d="M111.2957664727664,1159.9356195419346 111.37049300133897,1157.6711118398882 113.10788381497446,1154.4775316364028 114.52768716913029,1150.1280154876165 115.22824805884076,1148.8233562826529 115.73265183974176,1148.0919959842367 118.89918690969205,1145.5423396171611 119.68381500055679,1145.1866010471965 121.22504893495527,1145.0680229316897 124.6813587876684,1149.224089875671 124.92787565654191,1150.7892136416351 124.18832504991272,1152.4849111632213 127.51630308940476,1155.876764119453 125.6674263663947,1158.0948448756915 127.02326924843318,1163.9674995515654 126.53023551067847,1165.1422510874374 124.55810035323164,1166.4476169218601 124.38684024201643,1167.5359220806731 122.70922373343845,1167.6225239567707 120.36731327267367,1169.1891813230284 118.39517811522013,1169.9725591327292 117.31436383295137,1169.6147846091828 117.77888594303442,1166.4476169218601 117.40911053649864,1161.4877101596733 116.54630149543462,1159.9216962184128 114.45090790354239,1160.443686316777 111.91926940734403,1160.0360199524478 111.2957664727664,1159.9356195419346Z" name="Pamplemousses" name_en="Pamplemousses District" gn_name="Pamplemousses District" admin="Mauritius" adm0_a3="MUS" iso_3166_2="MU-PA" iso_a2="MU" type="District" type_en="District" wikidataid="Q934126"/><path d="M107.85834788022031,1164.7028561458642 108.97924523487782,1164.2082731416397 110.94081563422432,1162.1806195588172 111.2957664727664,1159.9356195419346 111.91926940734403,1160.0360199524478 111.95195087513655,1161.160511073683 112.67458511875755,1161.9659127356597 113.47328601620528,1161.3215886195155 114.233953586743,1161.4826675475813 114.5382206149529,1163.1338063359192 113.43525268928855,1164.180945229137 113.13098566107865,1165.2684206501617 112.1801511462923,1165.9128802711832 111.00111646357283,1165.5100904108826 109.44174789236571,1165.2281426050201 108.03383733685317,1165.4297163652366 107.85834788022031,1164.7028561458642Z" name="Port Louis city" name_en="Port Louis" admin="Mauritius" adm0_a3="MUS" iso_3166_2="MU-PL" iso_a2="MU" type="City" type_en="City" wikidataid="Q3929"/><path d="M100.44174376472947,1205.6404155274492 98.0131328487649,1206.740856400136 91.4091793010538,1200.7933081097622 89.95201268260831,1199.0986074204086 89.44760890170635,1197.4734261050312 91.26906703128233,1196.7599769883868 94.10867373960649,1197.3446069556198 95.67793003612702,1197.0473351262567 96.36915002367179,1195.4718746011633 96.96696190790045,1192.0538830622095 96.83619065506842,1190.8057301862307 95.58452193280705,1190.1024428839198 96.50926217865607,1187.1311005887203 96.6213519715183,1180.4176156042793 97.15377822932662,1176.7351383354278 97.93840632019231,1174.6170534140126 100.54449265542505,1169.4515166982098 101.49725549297433,1168.442325597711 101.73077575127952,1168.0663663323585 104.27147634531433,1165.949262988899 105.37369212522447,1165.4150784948927 107.85834788022031,1164.7028561458642 108.03383733685317,1165.4297163652366 108.65776096884883,1168.0141759796663 107.64194967978445,1169.7914632250206 107.37781576281294,1171.694133259691 106.96966050610935,1174.6346313061792 107.06466093445516,1176.1953147504937 107.32221978689805,1180.4271960551719 107.42517652124806,1182.1191190171946 107.79495182456026,1184.2096477309672 108.68141363240048,1185.0449835594632 108.90427783772331,1185.2550002234555 108.41124409997532,1186.0390531803937 106.80888424583301,1186.0390531803937 106.06933363921151,1186.8231390937046 106.6856258113953,1189.3062963256739 107.42517652124806,1191.2669182333004 106.31585050808405,1192.1819460250056 107.30191808681131,1193.4892068511585 109.52057011313836,1194.0121369468254 110.62989612630334,1194.6658204236985 110.50663769186562,1196.4962566649237 109.1507947065978,1195.7117617794754 106.6856258113953,1196.4962566649237 104.34371535063052,1197.4115426876147 101.63202958655451,1199.5037948680792 99.53663609788876,1200.1576722796078 99.53663609788876,1202.6426171847936 100.76922054548857,1203.8198130097346 100.44174376472947,1205.6404155274492Z" name="Rivière Noire" name_en="Rivière Noire District" gn_name="Black River District" admin="Mauritius" adm0_a3="MUS" iso_3166_2="MU-BL" iso_a2="MU" type="District" type_en="District" wikidataid="Q873740"/><path d="M127.03758540901606,1204.9169167811647 122.14978918080429,1206.4731756242113 112.41666382742584,1208 108.97924523487782,1207.7223861428843 103.6176196220544,1205.9973081440992 100.44174376472947,1205.6404155274492 100.76922054548857,1203.8198130097346 99.53663609788876,1202.6426171847936 99.53663609788876,1200.1576722796078 101.63202958655451,1199.5037948680792 104.34371535063052,1197.4115426876147 106.6856258113953,1196.4962566649237 109.1507947065978,1195.7117617794754 110.50663769186562,1196.4962566649237 112.3555143116521,1196.7577623087882 113.09506502150487,1194.273607527049 113.34158189037935,1193.2277472252933 115.06720007573387,1193.4892068511585 116.05326765445535,1194.273607527049 117.28585210205613,1194.0121369468254 120.49057170711043,1193.8814030398935 122.8324821678752,1194.404344200467 124.92787565654191,1196.7577623087882 126.4069770762417,1200.8115727039064 126.7767523795587,1203.5582073679661 127.03758540901606,1204.9169167811647Z" name="Savanne" name_en="Savanne District" gn_name="Savanne District" admin="Mauritius" adm0_a3="MUS" iso_3166_2="MU-SA" iso_a2="MU" type="District" type_en="District" wikidataid="Q1053600"/><path d="M143.93256109434364,1182.120512196116 143.67101839023823,1184.0216042681768 144.31553444090878,1185.8832785130369 141.51329099687425,1186.814185410963 138.31873356479426,1189.3199433417526 136.36650395282243,1192.1826655576378 137.25388104917474,1194.1937691980581 137.337948365121,1195.0557376775396 137.9544419388785,1196.0960976367548 138.03850925482476,1196.7599769883868 137.63685436461932,1197.8797080842555 136.9829975265789,1198.1076262642164 136.2544142747464,1198.0679881023605 135.6285799136143,1198.424734372054 134.08734597921773,1201.1996630146912 133.20930978502534,1202.428693049139 131.77082485611442,1203.4099933731184 127.03758540901606,1204.9169167811647 126.7767523795587,1203.5582073679661 126.4069770762417,1200.8115727039064 124.92787565654191,1196.7577623087882 122.8324821678752,1194.404344200467 120.49057170711043,1193.8814030398935 117.28585210205613,1194.0121369468254 123.44877434006668,1186.8231390937046 127.39304455174344,1186.9538234043264 129.9814719846063,1186.169731869362 131.33731486664476,1184.9936566200295 133.67922532740954,1184.8629861953823 138.11652927684102,1184.4709804289746 141.44450731633304,1181.8578194475986 143.93256109434364,1182.120512196116Z" name="Grand Port" name_en="Grand Port District" gn_name="Grand Port District" admin="Mauritius" adm0_a3="MUS" iso_3166_2="MU-GP" iso_a2="MU" type="District" type_en="District" wikidataid="Q911635"/><path d="M138.82313734569524,1156.7515423934633 140.10282854486587,1157.8392099625214 140.43909769387432,1158.62039192534 140.06546528058294,1162.5465700240225 140.95284237693525,1163.8126162285203 142.13912535800543,1164.7622069442955 143.24134113790788,1168.2246640053593 145.44577258294188,1170.856559628245 145.9501763638429,1172.1429591522594 145.74467846766072,1175.0624251190088 145.16554815819288,1178.3981025028384 143.93256109434364,1182.120512196116 141.44450731633304,1181.8578194475986 138.11652927684102,1184.4709804289746 133.67922532740954,1184.8629861953823 131.33731486664476,1184.9936566200295 132.56989931425227,1180.4207372298558 126.90001081399642,1175.7183334636072 130.59776415679775,1172.061727255903 126.65349394511426,1169.0586215431658 124.31158348434948,1168.0141759796663 124.38684024201643,1167.5359220806731 124.55810035323164,1166.4476169218601 126.53023551067847,1165.1422510874374 127.02326924843318,1163.9674995515654 138.82313734569524,1156.7515423934633Z" name="Flacq" name_en="Flacq District" gn_name="Flacq District" admin="Mauritius" adm0_a3="MUS" iso_3166_2="MU-FL" iso_a2="MU" type="District" type_en="District" wikidataid="Q911651"/><path d="M0,0.7074814388351138 0.1587937297335783,0.3961878965439253 0.4016548901996627,0.16979429526362044 0.7846280908647444,0.02829903221693213 1.3170543486749842,0 2.139045703836101,2.613033888219973 5.100082992388501,7.2452689264862515 5.18415019355046,9.575764573085442 2.7929025418755415,6.735788127879484 0.6445159358795136,3.367736110076217 0.046704051657582416,1.8677810983250747 0,0.7074814388351138Z" name="Agaléga" name_en="Agaléga" gn_name="Agalega Islands" admin="Mauritius" adm0_a3="MUS" iso_3166_2="MU-AG" iso_a2="MU" type="Dependency" type_en="Dependency" wikidataid="Q196042"/><path d="M797.9574859362426,1105.9973744816168 799.9844419620008,1106.4904416086413 799.4893789684812,1108.8573399592917 797.1728578453702,1111.4612658368414 793.6513719368779,1112.6844441850196 791.1013304406831,1113.0987641567876 789.2798723111072,1114.1247382119475 787.5518221700668,1115.4763457494794 785.3473907250348,1116.8280487506677 782.0594250748543,1113.345387597587 781.4335908285017,1113.0987641567876 781.7698599775034,1110.8497059709243 782.6946003381444,1109.8633602386856 784.0676995258574,1109.2518513920127 787.9628178476412,1106.8355960536867 791.6337566984934,1105.5832080374628 795.4354669169552,1105.0309998548366 797.9574859362426,1105.9973744816168Z" name="Rodrigues" name_en="Rodrigues" gn_name="Rodrigues" admin="Mauritius" adm0_a3="MUS" iso_3166_2="MU-RO" iso_a2="MU" type="Dependency" type_en="Dependency" wikidataid="Q208668"/><path d="M124.38684024201643,1167.5359220806731 124.31158348434948,1168.0141759796663 126.65349394511426,1169.0586215431658 130.59776415679775,1172.061727255903 126.90001081399642,1175.7183334636072 132.56989931425227,1180.4207372298558 131.33731486664476,1184.9936566200295 129.9814719846063,1186.169731869362 127.39304455174344,1186.9538234043264 123.44877434006668,1186.8231390937046 120.98360544486513,1185.1243279626985 119.87427943170113,1183.0336965000283 120.36731327267367,1181.4658768581612 118.39517811522013,1178.8531374735508 117.28585210205613,1177.2856696219337 115.06720007573387,1177.024437804498 112.3555143116521,1174.5429176799096 110.7531545607401,1170.4948293391278 110.38337915419952,1168.2752818799222 112.60203118052657,1167.491974993573 114.08113249700854,1168.1447284745893 116.4230429577733,1169.319742013764 117.31436383295137,1169.6147846091828 118.39517811522013,1169.9725591327292 120.36731327267367,1169.1891813230284 122.70922373343845,1167.6225239567707 124.38684024201643,1167.5359220806731Z" name="Moka" name_en="Moka District" gn_name="Moka District" admin="Mauritius" adm0_a3="MUS" iso_3166_2="MU-MO" iso_a2="MU" type="District" type_en="District" wikidataid="Q911643"/><path d="M123.44877434006668,1186.8231390937046 117.28585210205613,1194.0121369468254 116.05326765445535,1194.273607527049 115.06720007573387,1193.4892068511585 113.34158189037935,1193.2277472252933 113.09506502150487,1194.273607527049 112.3555143116521,1196.7577623087882 110.50663769186562,1196.4962566649237 110.62989612630334,1194.6658204236985 109.52057011313836,1194.0121369468254 107.30191808681131,1193.4892068511585 106.31585050808405,1192.1819460250056 107.42517652124806,1191.2669182333004 106.6856258113953,1189.3062963256739 106.06933363921151,1186.8231390937046 106.80888424583301,1186.0390531803937 108.41124409997532,1186.0390531803937 108.90427783772331,1185.2550002234555 108.68141363240048,1185.0449835594632 110.06781435313749,1184.2230556203688 112.41520301930493,1187.2470121628774 118.26411903670305,1184.7523608069853 117.79351661512877,1183.3269960260136 115.30604656932101,1181.1178961915448 113.2891789450808,1178.6953137084338 111.40676915557351,1175.2757330247302 110.06219080822432,1171.7143356010617 107.37781576281294,1171.694133259691 107.64194967978445,1169.7914632250206 108.65776096884883,1168.0141759796663 110.38337915419952,1168.2752818799222 110.7531545607401,1170.4948293391278 112.3555143116521,1174.5429176799096 115.06720007573387,1177.024437804498 117.28585210205613,1177.2856696219337 118.39517811522013,1178.8531374735508 120.36731327267367,1181.4658768581612 119.87427943170113,1183.0336965000283 120.98360544486513,1185.1243279626985 123.44877434006668,1186.8231390937046Z" name="Plaines Wilhems" name_en="Plaines Wilhems District" gn_name="Plaines Wilhems District" admin="Mauritius" adm0_a3="MUS" iso_3166_2="MU-PW" iso_a2="MU" type="District" type_en="District" wikidataid="Q1053595"/><path d="M107.06466093445516,1176.1953147504937 106.96966050610935,1174.6346313061792 107.37781576281294,1171.694133259691 110.06219080822432,1171.7143356010617 111.40676915557351,1175.2757330247302 107.06466093445516,1176.1953147504937Z" name="Beau Bassin-Rose Hill" name_en="Beau Bassin-Rose Hill" admin="Mauritius" adm0_a3="MUS" iso_3166_2="MU-BR" iso_a2="MU" type="City" type_en="City" wikidataid="Q813337"/><path d="M108.65776096884883,1168.0141759796663 108.03383733685317,1165.4297163652366 109.44174789236571,1165.2281426050201 111.00111646357283,1165.5100904108826 112.1801511462923,1165.9128802711832 113.13098566107865,1165.2684206501617 113.43525268928855,1164.180945229137 114.5382206149529,1163.1338063359192 114.233953586743,1161.4826675475813 113.47328601620528,1161.3215886195155 112.67458511875755,1161.9659127356597 111.95195087513655,1161.160511073683 111.91926940734403,1160.0360199524478 114.45090790354239,1160.443686316777 116.54630149543462,1159.9216962184128 117.40911053649864,1161.4877101596733 117.77888594303442,1166.4476169218601 117.31436383295137,1169.6147846091828 116.4230429577733,1169.319742013764 114.08113249700854,1168.1447284745893 112.60203118052657,1167.491974993573 110.38337915419952,1168.2752818799222 108.65776096884883,1168.0141759796663Z" name="Port Louis" name_en="Port Louis District" gn_name="Port Louis District" admin="Mauritius" adm0_a3="MUS" iso_3166_2="MU-PL" iso_a2="MU" type="City" type_en="City" wikidataid="Q960645"/><path d="M107.32221978689805,1180.4271960551719 107.06466093445516,1176.1953147504937 111.40676915557351,1175.2757330247302 113.2891789450808,1178.6953137084338 107.32221978689805,1180.4271960551719Z" name="Quatre Bornes" name_en="Quatre Bornes" admin="Mauritius" adm0_a3="MUS" iso_3166_2="MU-QB" iso_a2="MU" type="City" type_en="City" wikidataid="Q1341194"/><path d="M108.68141363240048,1185.0449835594632 107.79495182456026,1184.2096477309672 107.42517652124806,1182.1191190171946 107.32221978689805,1180.4271960551719 113.2891789450808,1178.6953137084338 115.30604656932101,1181.1178961915448 110.06781435313749,1184.2230556203688 108.68141363240048,1185.0449835594632Z" name="Vacoas-Phoenix" name_en="Vacoas-Phoenix" gn_name="Plaines Wilhems District" admin="Mauritius" adm0_a3="MUS" iso_3166_2="MU-VP" iso_a2="MU" type="City" type_en="City" wikidataid="Q676724"/><path d="M110.06781435313749,1184.2230556203688 115.30604656932101,1181.1178961915448 117.79351661512877,1183.3269960260136 118.26411903670305,1184.7523608069853 112.41520301930493,1187.2470121628774 110.06781435313749,1184.2230556203688Z" name="Curepipe" name_en="Curepipe" gn_name="Plaines Wilhems District" admin="Mauritius" adm0_a3="MUS" iso_3166_2="MU-CU" iso_a2="MU" type="City" type_en="City" wikidataid="Q1002525"/></svg>