<?xml version="1.0"?><svg fill="#3498db" stroke="#ecf0f1" stroke-width="1" width="800" height="5816" viewBox="0 0 800 5816" xmlns="http://www.w3.org/2000/svg"><path d="M358.1352830830033,5807.299182818036 365.204144157961,5812.3235787741005 360.20719039417736,5812.202509212172 358.50091435762755,5810.870740588198 358.1352830830033,5807.299182818036Z" name="Addu" name_en="Addu Atoll" gn_name="Seenu Atholhu" admin="Maldives" adm0_a3="MDV" iso_3166_2="MV-01" iso_a2="MV" postal="S" type="City" type_en="City" wikidataid="Q353375"/><path d="M388.8482629733143,5799.369125729587 386.6544790698342,5802.27479326145 385.1919562179215,5804.9383245297995 383.1200489067787,5806.935973175972 379.3418648102393,5808.025600726534 379.9512492695007,5803.848697928549 382.1450331729808,5801.851050273665 388.8482629733143,5799.369125729587Z" name="Addu" name_en="Addu Atoll" gn_name="Seenu Atholhu" admin="Maldives" adm0_a3="MDV" iso_3166_2="MV-01" iso_a2="MV" postal="S" type="City" type_en="City" wikidataid="Q353375"/><path d="M329.0676416819014,5788.230755438059 331.078610696888,5795.737044992189 328.7629494523177,5794.586886704924 328.3363806303904,5792.952451636786 328.7629494523177,5790.894275601409 329.0676416819014,5788.230755438059Z" name="Addu" name_en="Addu Atoll" gn_name="Seenu Atholhu" admin="Maldives" adm0_a3="MDV" iso_3166_2="MV-01" iso_a2="MV" postal="S" type="City" type_en="City" wikidataid="Q353375"/><path d="M415.7221204709361,5765.469841854015 406.2157223079049,5778.303105972715 405.8500917821275,5770.675783510272 408.22669132289155,5763.774885523914 411.882998078253,5760.86924804086 415.7221204709361,5765.469841854015Z" name="Addu" name_en="Addu Atoll" gn_name="Seenu Atholhu" admin="Maldives" adm0_a3="MDV" iso_3166_2="MV-01" iso_a2="MV" postal="S" type="City" type_en="City" wikidataid="Q353375"/><path d="M420.78001253090724,5737.987427421148 419.19561233784793,5751.789145018021 414.4424132563073,5746.704295951064 412.9798904043883,5740.771980920543 414.99085941941877,5734.839673798132 421.2065813528345,5729.996981289614 421.99878144939237,5732.1761920698145 421.572211878612,5733.931668521422 420.840950827101,5735.687145718897 420.78001253090724,5737.987427421148Z" name="Addu" name_en="Addu Atoll" gn_name="Seenu Atholhu" admin="Maldives" adm0_a3="MDV" iso_3166_2="MV-01" iso_a2="MV" postal="S" type="City" type_en="City" wikidataid="Q353375"/><path d="M309.01889057699435,5746.220024735999 314.6252288000394,5751.304873186214 319.561243518864,5759.174293721535 323.15661197808186,5768.436016856189 324.8628887634785,5777.152953126098 319.25655054043347,5777.152953126098 307.0688606069606,5749.912592556292 304.26569149546,5736.05034781155 314.6252288000394,5730.965519190535 314.6252288000394,5736.474084246687 309.9939063108048,5736.897819981708 309.2626445104344,5739.016501545586 309.87202896965823,5742.224792036216 309.87202896965823,5742.285325689016 309.01889057699435,5746.220024735999Z" name="Addu" name_en="Addu Atoll" gn_name="Seenu Atholhu" admin="Maldives" adm0_a3="MDV" iso_3166_2="MV-01" iso_a2="MV" postal="S" type="City" type_en="City" wikidataid="Q353375"/><path d="M561.7915907744468,5511.112154843675 567.7635587744287,5517.891659033634 569.2870199224913,5521.463006747217 568.860451100564,5526.487108833567 563.9853746778894,5522.249914346176 561.9134673667465,5518.557503227813 561.4259594998225,5514.925624901767 561.7915907744468,5511.112154843675Z" name="Gnaviyani" name_en="Gnaviyani Atoll" gn_name="Gnaviyani Atholhu" admin="Maldives" adm0_a3="MDV" iso_3166_2="MV-29" iso_a2="MV" postal="Gn" type="Atoll" type_en="Atoll" wikidataid="Q1811116"/><path d="M307.49542942888166,5130.5555303742285 310.05484460694845,5132.855707911242 312.7970746734962,5134.429513700963 314.13772093312167,5136.759955811565 313.10176690313,5141.330042387729 313.04082860697383,5141.3905731655805 310.05484460694845,5139.211459006608 309.2626445104344,5137.425796110799 308.9579522808132,5136.72969041009 308.897013984657,5136.336238695486 308.409506117733,5133.7636732184965 307.49542942888166,5130.5555303742285Z" name="Gaafu Dhaalu" name_en="Gaafu Dhaalu Atoll" gn_name="Gaafu Dhaalu Atholhu" admin="Maldives" adm0_a3="MDV" iso_3166_2="MV-28" iso_a2="MV" postal="GDh" type="Atoll" type_en="Atoll" wikidataid="Q2640183"/><path d="M392.5045704775164,5121.657471094196 398.8421697521163,5123.322074896928 398.7812307071697,5123.352340336924 395.2468005440641,5127.528980611039 393.96709332943533,5127.4684497556 393.4795854625552,5124.86561594132 392.5045704775164,5121.657471094196Z" name="Gaafu Dhaalu" name_en="Gaafu Dhaalu Atoll" gn_name="Gaafu Dhaalu Atholhu" admin="Maldives" adm0_a3="MDV" iso_3166_2="MV-28" iso_a2="MV" postal="GDh" type="Atoll" type_en="Atoll" wikidataid="Q2640183"/><path d="M263.5588055751499,5099.382020530767 263.5588055751499,5099.563614370997 266.24009734555403,5107.160274978133 266.24009734555403,5107.251071449229 263.0712977082259,5106.070714280195 262.8275445235888,5105.223278175598 262.5228522940051,5104.406107492483 262.8275445235888,5103.28628170876 263.1931750493725,5102.166455043505 263.1931750493725,5101.924330240441 263.5588055751499,5099.382020530767Z" name="Gaafu Dhaalu" name_en="Gaafu Dhaalu Atoll" gn_name="Gaafu Dhaalu Atholhu" admin="Maldives" adm0_a3="MDV" iso_3166_2="MV-28" iso_a2="MV" postal="GDh" type="Atoll" type_en="Atoll" wikidataid="Q2640183"/><path d="M519.9268742318578,5088.00214997268 519.8659351868548,5088.0324155286735 512.7970748607063,5091.876149934578 513.8939671868416,5087.45736845846 515.8439979056845,5086.730993547232 517.8549661718682,5087.366571783958 519.9268742318578,5088.00214997268Z" name="Gaafu Dhaalu" name_en="Gaafu Dhaalu Atoll" gn_name="Gaafu Dhaalu Atholhu" admin="Maldives" adm0_a3="MDV" iso_3166_2="MV-28" iso_a2="MV" postal="GDh" type="Atoll" type_en="Atoll" wikidataid="Q2640183"/><path d="M223.76599634369745,5073.111445027685 224.6800730325488,5074.47340039318 226.32541152180184,5074.92738595888 226.81291863987278,5075.351105152197 227.1176108695066,5075.593230714225 225.533211425244,5077.288108699143 225.533211425244,5077.348639889719 221.93784296603863,5075.47216830603 221.75502732870459,5074.322072361369 223.76599634369745,5073.111445027685Z" name="Gaafu Dhaalu" name_en="Gaafu Dhaalu Atoll" gn_name="Gaafu Dhaalu Atholhu" admin="Maldives" adm0_a3="MDV" iso_3166_2="MV-28" iso_a2="MV" postal="GDh" type="Atoll" type_en="Atoll" wikidataid="Q2640183"/><path d="M204.8141375649257,5000.170762066629 204.87507586108185,5000.291825808846 206.88604487606847,5006.889813186826 206.94698392106517,5007.07140859735 204.38756874299838,5005.013321754379 203.96099917223052,5003.25789416833 204.57038363144804,5001.6235305309865 204.8141375649257,5000.170762066629Z" name="Gaafu Dhaalu" name_en="Gaafu Dhaalu Atoll" gn_name="Gaafu Dhaalu Atholhu" admin="Maldives" adm0_a3="MDV" iso_3166_2="MV-28" iso_a2="MV" postal="GDh" type="Atoll" type_en="Atoll" wikidataid="Q2640183"/><path d="M191.77330923879524,4930.982224217419 191.52955530531128,4937.701361252086 188.84826353495728,4934.614191004419 188.84826353495728,4932.979805838503 191.77330923879524,4930.982224217419Z" name="Gaafu Dhaalu" name_en="Gaafu Dhaalu Atoll" gn_name="Gaafu Dhaalu Atholhu" admin="Maldives" adm0_a3="MDV" iso_3166_2="MV-28" iso_a2="MV" postal="GDh" type="Atoll" type_en="Atoll" wikidataid="Q2640183"/><path d="M620.4753197396743,5011.7323682771785 620.4143814435307,5011.792900033773 616.879951280469,5016.998642293839 616.8190129843254,5017.089439852242 615.2346127912598,5013.760186264469 614.8080439692949,5012.943006271702 615.3564901324,5011.7323682771785 617.7330896731265,5011.9744952998635 620.4753197396743,5011.7323682771785Z" name="Gaafu Alifu" name_en="Gaafu Alif Atoll" gn_name="Gaafu Alifu Atholhu" admin="Maldives" adm0_a3="MDV" iso_3166_2="MV-27" iso_a2="MV" postal="GA" type="Atoll" type_en="Atoll" wikidataid="Q1116203"/><path d="M604.3875683685656,4922.295758280596 604.4485066647593,4922.447090186073 606.3985373835521,4929.014907369705 603.2297377462742,4927.743717241226 602.7422306281907,4926.321195742982 603.6563073170482,4924.565742308036 604.3875683685656,4922.295758280596Z" name="Gaafu Alifu" name_en="Gaafu Alif Atoll" gn_name="Gaafu Alifu Atholhu" admin="Maldives" adm0_a3="MDV" iso_3166_2="MV-27" iso_a2="MV" postal="GA" type="Atoll" type_en="Atoll" wikidataid="Q1116203"/><path d="M526.4472883948948,4822.808771953039 525.9597805279772,4824.77613814509 525.9597805279772,4826.501366011632 525.5941500021996,4827.530449238951 525.4722726610906,4827.530449238951 524.1316271502807,4827.4093802446705 523.2175504614733,4824.927474306759 523.7659966245409,4823.868123279019 525.3503960687533,4823.504917420021 526.4472883948948,4822.808771953039Z" name="Gaafu Alifu" name_en="Gaafu Alif Atoll" gn_name="Gaafu Alifu Atholhu" admin="Maldives" adm0_a3="MDV" iso_3166_2="MV-27" iso_a2="MV" postal="GA" type="Atoll" type_en="Atoll" wikidataid="Q1116203"/><path d="M515.3564900387605,4732.550895954115 514.8689821718804,4734.518313069781 514.8689821718804,4736.243586084265 514.4424133499593,4737.393767573464 513.7720898457326,4737.2121604673885 513.040828794184,4737.060820460511 512.1876904014825,4734.518313069781 512.9189522018467,4733.610274381412 512.9798904980279,4733.580006494996 513.6502132533952,4733.398399170662 514.259597712619,4733.247058981874 515.3564900387605,4732.550895954115Z" name="Gaafu Alifu" name_en="Gaafu Alif Atoll" gn_name="Gaafu Alifu Atholhu" admin="Maldives" adm0_a3="MDV" iso_3166_2="MV-27" iso_a2="MV" postal="GA" type="Atoll" type_en="Atoll" wikidataid="Q1116203"/><path d="M500.97501545304846,4669.592859231799 500.97501545304846,4669.7139333625955 500.54844588227434,4671.166826249457 500.4875075861244,4671.408975115816 500.4875075861244,4672.952673376904 500.3656309938247,4673.558044753672 500.2437536526781,4674.1936844870515 499.6343691934167,4674.496370060156 498.96404643806187,4674.8293240792755 498.9031081419057,4674.859592556924 497.9280924080702,4672.317032623736 498.41560027498167,4671.106289215583 499.817184830757,4670.410111746193 500.97501545304846,4669.592859231799Z" name="Gaafu Alifu" name_en="Gaafu Alif Atoll" gn_name="Gaafu Alifu Atholhu" admin="Maldives" adm0_a3="MDV" iso_3166_2="MV-27" iso_a2="MV" postal="GA" type="Atoll" type_en="Atoll" wikidataid="Q1116203"/><path d="M109.75015219016086,2687.3402684327916 109.87202953130745,2687.461560510421 110.7251679239588,2689.068672369255 112.24862907207151,2690.16029382523 112.55332130166147,2691.160944807211 112.49238300550533,2691.160944807211 109.50639825667066,2692.5557898115912 107.25167605704694,2691.160944807211 107.19073701210034,2691.160944807211 107.67824487897425,2690.16029382523 109.01889113859973,2689.068672369255 109.75015219016086,2687.3402684327916Z" name="Alifu Dhaalu" name_en="Alif Dhaal Atoll" admin="Maldives" adm0_a3="MDV" iso_3166_2="MV-00" iso_a2="MV" postal="ADh" type="Atoll" type_en="Atoll" wikidataid="Q2316922"/><path d="M81.53564918176046,2682.6098778283217 81.59658747790407,2682.7311699968536 82.32784852946521,2683.7924785369974 82.63254150789574,2684.3079707065244 84.46069488559215,2685.4299226500743 85.3747715744059,2686.3092890067865 83.54661819674708,2687.0976849585095 79.64655675906107,2687.0976849585095 79.34186452943979,2686.248642496259 79.34186452943979,2686.1879967256286 80.8043873813525,2684.611201081992 81.53564918176046,2682.6098778283217Z" name="Alifu Dhaalu" name_en="Alif Dhaal Atoll" admin="Maldives" adm0_a3="MDV" iso_3166_2="MV-00" iso_a2="MV" postal="ADh" type="Atoll" type_en="Atoll" wikidataid="Q2316922"/><path d="M182.38878766802,2656.531494607325 169.95734305230408,2664.1125226875697 169.8354664600043,2664.173171161765 172.88238875614203,2658.714839745454 176.0511883934138,2656.3495493590876 179.34186462302918,2656.106954873673 182.38878766802,2656.531494607325Z" name="Alifu Dhaalu" name_en="Alif Dhaal Atoll" admin="Maldives" adm0_a3="MDV" iso_3166_2="MV-00" iso_a2="MV" postal="ADh" type="Atoll" type_en="Atoll" wikidataid="Q2316922"/><path d="M192.50457029031878,2606.6462072704726 193.41864697916384,2608.2838382136683 194.39366271300563,2608.981346053745 194.94210812727655,2609.4059155242 195.24680110570708,2610.46733913592 192.26081635687243,2611.832024049347 189.945155112252,2610.46733913592 190.31078638687626,2609.4059155242 191.59049360146744,2608.2838382136683 192.50457029031878,2606.6462072704726Z" name="Alifu Dhaalu" name_en="Alif Dhaal Atoll" admin="Maldives" adm0_a3="MDV" iso_3166_2="MV-00" iso_a2="MV" postal="ADh" type="Atoll" type_en="Atoll" wikidataid="Q2316922"/><path d="M5.789153111526027,2526.063693152873 5.789153111526027,2526.215344760238 6.886045437673834,2528.7630798915025 8.714198815370246,2530.4918948765953 9.445459866925116,2532.1297155803695 9.384521570775235,2532.1297155803695 7.31261425960115,2534.980726607321 5.728214815382411,2534.01017062441 3.6563075042396496,2532.766644488266 3.6563075042396496,2530.6132154847605 5.057891311168185,2528.5810995691277 5.789153111526027,2526.063693152873Z" name="Alifu Dhaalu" name_en="Alif Dhaal Atoll" admin="Maldives" adm0_a3="MDV" iso_3166_2="MV-00" iso_a2="MV" postal="ADh" type="Atoll" type_en="Atoll" wikidataid="Q2316922"/><path d="M200.3656307129813,2520.937860429519 201.40158474297297,2522.5757045686205 202.92504589108566,2523.6979291395 202.92504589108566,2524.7594912909162 200.06093848339134,2526.12435350191 197.80621553492077,2524.8504819957834 198.1109077645546,2523.758589710421 199.45155402412996,2522.6666963262473 200.3656307129813,2520.937860429519Z" name="Alifu Dhaalu" name_en="Alif Dhaal Atoll" admin="Maldives" adm0_a3="MDV" iso_3166_2="MV-00" iso_a2="MV" postal="ADh" type="Atoll" type_en="Atoll" wikidataid="Q2316922"/><path d="M195.42961599415045,2492.3962326673222 196.40463097919553,2494.094812909639 197.5015233053308,2494.8834384231714 197.86715383110825,2495.186755554877 198.1109077645546,2496.2180331745844 195.06398546837303,2497.5526243981403 194.75929323878307,2497.370635256218 192.87020081608995,2496.2180331745844 193.23583209072046,2495.186755554877 194.57647760149285,2494.094812909639 195.42961599415045,2492.3962326673222Z" name="Alifu Dhaalu" name_en="Alif Dhaal Atoll" admin="Maldives" adm0_a3="MDV" iso_3166_2="MV-00" iso_a2="MV" postal="ADh" type="Atoll" type_en="Atoll" wikidataid="Q2316922"/><path d="M194.5155393053054,2444.13644081388 195.42961599415045,2445.7744823628927 196.03900045341183,2446.2598275740747 196.89213884606943,2446.957510752262 197.1358927795471,2447.9888660071333 194.1499087795718,2449.3235593672252 191.9561241272386,2447.9888660071333 192.32175540186287,2446.957510752262 193.60146261645406,2445.7744823628927 194.5155393053054,2444.13644081388Z" name="Alifu Dhaalu" name_en="Alif Dhaal Atoll" admin="Maldives" adm0_a3="MDV" iso_3166_2="MV-00" iso_a2="MV" postal="ADh" type="Atoll" type_en="Atoll" wikidataid="Q2316922"/><path d="M593.4186473536091,2365.65704780038 593.2967700124689,2365.748062278379 587.9341864716669,2370.875160025177 586.1060330940143,2371.9673175968774 587.385740308593,2369.5099610689804 589.0920170940021,2368.205433901016 593.4186473536091,2365.65704780038Z" name="Kaafu" name_en="Kaafu Atoll" gn_name="Kaafu Atoll" admin="Maldives" adm0_a3="MDV" iso_3166_2="MV-26" iso_a2="MV" postal="K" type="Atoll" type_en="Atoll" wikidataid="Q1468407"/><path d="M616.5143207546915,2245.263893558693 616.6361973469913,2252.849865581427 616.6361973469913,2252.9105528083555 613.8330289842874,2250.483052888144 612.248628791228,2249.026547982915 612.1267521989283,2247.3576314782617 614.3205361024084,2246.4473115922488 616.5143207546915,2245.263893558693Z" name="Kaafu" name_en="Kaafu Atoll" gn_name="Kaafu Atoll" admin="Maldives" adm0_a3="MDV" iso_3166_2="MV-26" iso_a2="MV" postal="K" type="Atoll" type_en="Atoll" wikidataid="Q1468407"/><path d="M762.2790980797279,1998.2704535069447 760.8165752278088,2000.0918921608884 758.3790373908887,2000.699036775336 758.2571600497483,2000.7597510503415 762.2790980797279,1998.2704535069447Z" name="Kaafu" name_en="Kaafu Atoll" gn_name="Kaafu Atoll" admin="Maldives" adm0_a3="MDV" iso_3166_2="MV-26" iso_a2="MV" postal="K" type="Atoll" type_en="Atoll" wikidataid="Q1468407"/><path d="M762.2790980797279,1984.6094730533323 762.157221487428,1984.700547907805 760.0853141762477,1987.4934865145583 760.1462524724415,1985.641648369785 762.2790980797279,1984.6094730533323Z" name="Kaafu" name_en="Kaafu Atoll" gn_name="Kaafu Atoll" admin="Maldives" adm0_a3="MDV" iso_3166_2="MV-26" iso_a2="MV" postal="K" type="Atoll" type_en="Atoll" wikidataid="Q1468407"/><path d="M518.098720105302,1968.6408686735056 518.5252896760825,1975.4716031364394 515.9658744980219,1974.1965394840051 515.9658744980219,1972.830395982504 515.9658744980219,1972.7696785791127 517.0018285280136,1971.0695840340907 518.098720105302,1968.6408686735056Z" name="Kaafu" name_en="Kaafu Atoll" gn_name="Kaafu Atoll" admin="Maldives" adm0_a3="MDV" iso_3166_2="MV-26" iso_a2="MV" postal="K" type="Atoll" type_en="Atoll" wikidataid="Q1468407"/><path d="M539.2443635364008,1848.83073061281 539.2443635364008,1849.012925405725 539.2443635364008,1850.8956064230754 539.6709323583218,1852.596086412533 539.4881167210378,1853.7499795879082 537.7818406844692,1854.4787537335785 536.4411944248939,1852.6871831583487 536.9287022918179,1851.5636525286934 538.2084095064029,1850.5008508927317 539.2443635364008,1848.83073061281Z" name="Kaafu" name_en="Kaafu Atoll" gn_name="Kaafu Atoll" admin="Maldives" adm0_a3="MDV" iso_3166_2="MV-26" iso_a2="MV" postal="K" type="Atoll" type_en="Atoll" wikidataid="Q1468407"/><path d="M603.2906767912708,1782.8718289214864 603.2297377462742,1784.9369688337426 603.6563073170482,1786.6376662003518 603.4734916797142,1787.8220769628358 601.7672148943551,1788.399096635358 601.4015843685777,1787.973924661733 600.4265693835828,1786.7287753346668 600.9140765016537,1785.544362039657 602.193784465123,1784.51179398104 603.2906767912708,1782.8718289214864Z" name="Kaafu" name_en="Kaafu Atoll" gn_name="Kaafu Atoll" admin="Maldives" adm0_a3="MDV" iso_3166_2="MV-26" iso_a2="MV" postal="K" type="Atoll" type_en="Atoll" wikidataid="Q1468407"/><path d="M570.9323584117068,1597.7643463373665 562.8884823517415,1598.858062830321 564.716636478291,1595.3642358117138 566.3619742186534,1595.0908047641135 568.37294323364,1596.4883395272543 570.9323584117068,1597.7643463373665Z" name="Kaafu" name_en="Kaafu Atoll" gn_name="Kaafu Atoll" admin="Maldives" adm0_a3="MDV" iso_3166_2="MV-26" iso_a2="MV" postal="K" type="Atoll" type_en="Atoll" wikidataid="Q1468407"/><path d="M563.4369285148091,2436.8562023953573 561.9134673667465,2438.130249935991 560.5728211071712,2439.7683078960113 559.7196834632726,2440.5266660347474 559.1102982552396,2439.0402824155094 559.84156005561,2436.7045295061416 560.9384523817453,2436.279846563036 562.2790978925302,2436.7045295061416 563.4369285148091,2436.8562023953573Z" name="Kaafu" name_en="Kaafu Atoll" gn_name="Kaafu Atoll" admin="Maldives" adm0_a3="MDV" iso_3166_2="MV-26" iso_a2="MV" postal="K" type="Atoll" type_en="Atoll" wikidataid="Q1468407"/><path d="M568.1291893002061,2381.7359725526608 568.06825100405,2381.7966467853757 567.7635587744287,2383.0708072728407 564.3510052036605,2384.678673404619 564.1072520190296,2384.8000212838956 568.1291893002061,2381.7359725526608Z" name="Kaafu" name_en="Kaafu Atoll" gn_name="Kaafu Atoll" admin="Maldives" adm0_a3="MDV" iso_3166_2="MV-26" iso_a2="MV" postal="K" type="Atoll" type_en="Atoll" wikidataid="Q1468407"/><path d="M494.39366224500844,2363.715413809348 494.27178565266485,2363.83676583479 491.71237047461057,2365.71772436909 491.71237047461057,2364.928935962552 494.39366224500844,2363.715413809348Z" name="Kaafu" name_en="Kaafu Atoll" gn_name="Kaafu Atoll" admin="Maldives" adm0_a3="MDV" iso_3166_2="MV-26" iso_a2="MV" postal="K" type="Atoll" type_en="Atoll" wikidataid="Q1468407"/><path d="M552.4680074998653,2234.2488876267394 552.4070692036715,2234.370266663585 551.5539308110077,2235.735773688558 549.8476540256111,2236.1909424867467 549.7257766844644,2236.2212869612868 552.4680074998653,2234.2488876267394Z" name="Kaafu" name_en="Kaafu Atoll" gn_name="Kaafu Atoll" admin="Maldives" adm0_a3="MDV" iso_3166_2="MV-26" iso_a2="MV" postal="K" type="Atoll" type_en="Atoll" wikidataid="Q1468407"/><path d="M682.205971749924,2067.2380161627702 682.0840951575866,2067.298723091096 679.6465573206789,2068.816397872484 677.3308960760961,2068.5128632478127 677.1480804387558,2068.5128632478127 682.205971749924,2067.2380161627702Z" name="Kaafu" name_en="Kaafu Atoll" gn_name="Kaafu Atoll" admin="Maldives" adm0_a3="MDV" iso_3166_2="MV-26" iso_a2="MV" postal="K" type="Atoll" type_en="Atoll" wikidataid="Q1468407"/><path d="M693.906154565282,2051.6967843844436 693.906154565282,2051.818201639421 693.7842779729447,2053.791233517775 694.2717858398687,2055.4303617337378 694.1499084987283,2056.6141745733153 692.4436317133693,2057.2819647028064 691.0420479064408,2055.4303617337378 691.4686167283744,2054.428672886839 692.6873856468094,2053.396627257592 693.906154565282,2051.6967843844436Z" name="Kaafu" name_en="Kaafu Atoll" gn_name="Kaafu Atoll" admin="Maldives" adm0_a3="MDV" iso_3166_2="MV-26" iso_a2="MV" postal="K" type="Atoll" type_en="Atoll" wikidataid="Q1468407"/><path d="M713.711151736749,2046.1419022631721 713.6502134406054,2046.2329661226343 713.0408289813815,2047.993535595812 713.3455212110154,2049.8148083001174 713.3455212110154,2049.936226714519 713.0408289813815,2051.059341120458 712.0658132475336,2050.8468606150927 710.6032903956208,2050.5433161482893 710.4814138033273,2050.512961767041 709.0188909514021,2047.689989561173 709.9939059364033,2046.9007687917692 711.8220600629089,2046.870414210342 713.711151736749,2046.1419022631721Z" name="Kaafu" name_en="Kaafu Atoll" gn_name="Kaafu Atoll" admin="Maldives" adm0_a3="MDV" iso_3166_2="MV-26" iso_a2="MV" postal="K" type="Atoll" type_en="Atoll" wikidataid="Q1468407"/><path d="M736.1974406786201,2029.02158525111 736.0755633375111,2031.116120562765 736.5630712043912,2032.7553169297125 736.4411946120978,2033.9695329773847 734.8567944190385,2034.6677057668062 733.4552106121099,2032.876738356782 733.8817794340372,2031.7839415635738 735.1005483524723,2030.660787122066 736.1974406786201,2029.02158525111Z" name="Kaafu" name_en="Kaafu Atoll" gn_name="Kaafu Atoll" admin="Maldives" adm0_a3="MDV" iso_3166_2="MV-26" iso_a2="MV" postal="K" type="Atoll" type_en="Atoll" wikidataid="Q1468407"/><path d="M650.517976874618,1859.6408723538289 650.517976874618,1859.8230633687265 650.4570385784743,1861.7664354630442 650.8836074004016,1863.4061501145018 650.7617308080643,1864.5600201381535 649.0554540227052,1865.258413601155 648.5679461557812,1864.6207499117272 647.7148077630735,1863.4668800221218 648.2023156299975,1862.373737619926 649.3601462522889,1861.3413238317273 650.517976874618,1859.6408723538289Z" name="Kaafu" name_en="Kaafu Atoll" gn_name="Kaafu Atoll" admin="Maldives" adm0_a3="MDV" iso_3166_2="MV-26" iso_a2="MV" postal="K" type="Atoll" type_en="Atoll" wikidataid="Q1468407"/><path d="M13.711151830344697,2320.0269997607006 14.076782356128396,2321.817072994478 14.929920748823589,2322.575576593926 15.539305208047374,2323.0913589736897 16.026813074971397,2323.6678209359293 16.39244360074883,2324.0319016951466 16.331505304592685,2324.062242431986 14.808044156530093,2325.1848232711245 10.9689217638408,2323.9105417150267 10.907982718850358,2323.8498617158275 10.725167830356861,2323.00033884894 10.664228785410273,2322.909318710485 12.248628978431984,2321.817072994478 13.711151830344697,2320.0269997607006Z" name="Alifu Alifu" name_en="Alif Alif Atoll" gn_name="Alifu Atholhu" admin="Maldives" adm0_a3="MDV" iso_3166_2="MV-02" iso_a2="MV" postal="AA" type="Atoll" type_en="Atoll" wikidataid="Q775323"/><path d="M213.89396690603579,2124.1783620959877 214.01584424718237,2124.269413980139 215.4174280541485,2125.5137810502615 216.81901260987374,2126.181488972112 217.73308929871882,2126.849196851813 217.8549666398654,2128.306010156635 215.4174280541485,2128.306010156635 214.68616700258735,2127.395501627889 214.62522870644375,2125.938685979219 213.89396690603579,2124.1783620959877Z" name="Alifu Alifu" name_en="Alif Alif Atoll" gn_name="Alifu Atholhu" admin="Maldives" adm0_a3="MDV" iso_3166_2="MV-02" iso_a2="MV" postal="AA" type="Atoll" type_en="Atoll" wikidataid="Q775323"/><path d="M194.94210812727655,2123.905207847424 205.05789149837204,2126.727795138697 204.99695320222216,2126.727795138697 201.88909186109402,2127.4865529941844 201.82815356490028,2127.5169031977694 199.45155402412996,2126.849196851813 194.94210812727655,2123.905207847424Z" name="Alifu Alifu" name_en="Alif Alif Atoll" gn_name="Alifu Atholhu" admin="Maldives" adm0_a3="MDV" iso_3166_2="MV-02" iso_a2="MV" postal="AA" type="Atoll" type_en="Atoll" wikidataid="Q775323"/><path d="M203.83912257989314,1995.5990000587367 203.10786077952906,2007.681151945014 197.7452772387709,2007.0740151108287 196.40463097919553,2006.9525872152533 193.60146261645406,2000.607964604126 203.83912257989314,1995.5990000587367Z" name="Alifu Alifu" name_en="Alif Alif Atoll" gn_name="Alifu Atholhu" admin="Maldives" adm0_a3="MDV" iso_3166_2="MV-02" iso_a2="MV" postal="AA" type="Atoll" type_en="Atoll" wikidataid="Q775323"/><path d="M220.5362584102633,1654.4217392593002 220.5362584102633,1654.4824941883753 213.284582446812,1665.4182879169332 213.16270585452477,1665.5701718419484 213.58927467645208,1658.2189176441557 215.53930539524498,1655.2419324097784 218.0987205733431,1654.6343822248937 220.5362584102633,1654.4217392593002Z" name="Baa" name_en="Baa Atoll" gn_name="Baa Atholhu" admin="Maldives" adm0_a3="MDV" iso_3166_2="MV-20" iso_a2="MV" postal="B" type="Atoll" type_en="Atoll" wikidataid="Q949513"/><path d="M174.2230350157675,1652.082662821052 178.2449722968939,1651.718130612003 178.12309570459414,1651.7788858744755 176.78244944497493,1652.6294610020552 174.34491160805473,1652.1434180385604 174.2230350157675,1652.082662821052Z" name="Baa" name_en="Baa Atoll" gn_name="Baa Atholhu" admin="Maldives" adm0_a3="MDV" iso_3166_2="MV-20" iso_a2="MV" postal="B" type="Atoll" type_en="Atoll" wikidataid="Q949513"/><path d="M170.74954314885565,1550.9144756342487 168.19012797075126,1553.375574177816 168.00731233346107,1553.5274938050616 168.7385741338189,1551.9475306149418 170.74954314885565,1550.9144756342487Z" name="Baa" name_en="Baa Atoll" gn_name="Baa Atholhu" admin="Maldives" adm0_a3="MDV" iso_3166_2="MV-20" iso_a2="MV" postal="B" type="Atoll" type_en="Atoll" wikidataid="Q949513"/><path d="M181.90127980109597,1549.0914314741358 181.84034150495236,1549.2737357542342 181.47471023036567,1550.7929398713304 181.41377193422207,1551.0360113663155 180.3778186530334,1551.3702352173866 179.40280291922292,1551.6740756943968 179.34186462302918,1551.7044595821433 181.90127980109597,1549.0914314741358Z" name="Baa" name_en="Baa Atoll" gn_name="Baa Atholhu" admin="Maldives" adm0_a3="MDV" iso_3166_2="MV-20" iso_a2="MV" postal="B" type="Atoll" type_en="Atoll" wikidataid="Q949513"/><path d="M269.53077357516946,1485.4020369877453 269.53077357516946,1485.5235902229626 268.55575859012436,1487.6203709401213 266.91042084976203,1487.9546393811331 269.53077357516946,1485.4020369877453Z" name="Baa" name_en="Baa Atoll" gn_name="Baa Atholhu" admin="Maldives" adm0_a3="MDV" iso_3166_2="MV-20" iso_a2="MV" postal="B" type="Atoll" type_en="Atoll" wikidataid="Q949513"/><path d="M272.7605122574442,1476.832485799639 272.8214505535878,1476.9236518289267 273.4308350128116,1479.0204708512013 274.5277273389469,1480.7222303804388 274.5277273389469,1481.7858271475134 271.6636199313089,1481.9985463618684 269.8964048497561,1480.1144599332922 270.5057893089674,1479.0812486700595 271.8464348197523,1478.321532464938 272.7605122574442,1476.832485799639Z" name="Baa" name_en="Baa Atoll" gn_name="Baa Atholhu" admin="Maldives" adm0_a3="MDV" iso_3166_2="MV-20" iso_a2="MV" postal="B" type="Atoll" type_en="Atoll" wikidataid="Q949513"/><path d="M304.3875688366066,1455.8637747546659 304.14381490312263,1457.9910778468247 301.82815365850223,1458.3861478785939 301.7062763173995,1458.4165377523539 304.3875688366066,1455.8637747546659Z" name="Baa" name_en="Baa Atoll" gn_name="Baa Atholhu" admin="Maldives" adm0_a3="MDV" iso_3166_2="MV-20" iso_a2="MV" postal="B" type="Atoll" type_en="Atoll" wikidataid="Q949513"/><path d="M313.77209040734425,1447.1417298505917 314.0158443407781,1447.2329024071034 316.08775165196465,1448.0838399318495 318.7690434223187,1449.1779012503803 318.5252894888723,1449.147510775834 316.2096282442519,1448.6916526730226 313.77209040734425,1447.1417298505917Z" name="Baa" name_en="Baa Atoll" gn_name="Baa Atholhu" admin="Maldives" adm0_a3="MDV" iso_3166_2="MV-20" iso_a2="MV" postal="B" type="Atoll" type_en="Atoll" wikidataid="Q949513"/><path d="M131.26142614702448,1398.666059869472 131.200487850837,1398.7572412130137 130.5911026428165,1400.4896877943106 128.82388756126372,1401.1887437752266 128.6410726727702,1401.279924619677 131.26142614702448,1398.666059869472Z" name="Baa" name_en="Baa Atoll" gn_name="Baa Atholhu" admin="Maldives" adm0_a3="MDV" iso_3166_2="MV-20" iso_a2="MV" postal="B" type="Atoll" type_en="Atoll" wikidataid="Q949513"/><path d="M334.73491745229336,1393.7118336997312 334.73491745229336,1395.2619344966918 332.1755030230734,1396.2649386843475 334.73491745229336,1393.7118336997312Z" name="Baa" name_en="Baa Atoll" gn_name="Baa Atholhu" admin="Maldives" adm0_a3="MDV" iso_3166_2="MV-20" iso_a2="MV" postal="B" type="Atoll" type_en="Atoll" wikidataid="Q949513"/><path d="M320.4753202077153,1353.3769711992402 320.353442866575,1353.4681615579407 317.79402768852077,1355.9303010669125 317.79402768852077,1354.775225095371 320.4753202077153,1353.3769711992402Z" name="Baa" name_en="Baa Atoll" gn_name="Baa Atholhu" admin="Maldives" adm0_a3="MDV" iso_3166_2="MV-20" iso_a2="MV" postal="B" type="Atoll" type_en="Atoll" wikidataid="Q949513"/><path d="M200.91407687604894,1312.886538206847 200.3656307129813,1314.8929063298963 198.23278510569492,1315.4704954874555 200.91407687604894,1312.886538206847Z" name="Baa" name_en="Baa Atoll" gn_name="Baa Atholhu" admin="Maldives" adm0_a3="MDV" iso_3166_2="MV-20" iso_a2="MV" postal="B" type="Atoll" type_en="Atoll" wikidataid="Q949513"/><path d="M610.2376597762415,1391.979361615858 610.1767214800916,1392.0401500632083 608.4095063985451,1393.3471034734355 608.3485681023889,1393.3774976077582 605.7891529243346,1392.6480355889878 610.2376597762415,1391.979361615858Z" name="Lhaviyani" name_en="Lhaviyani Atoll" gn_name="Lhaviyani Atholhu" admin="Maldives" adm0_a3="MDV" iso_3166_2="MV-03" iso_a2="MV" postal="Lh" type="Atoll" type_en="Atoll" wikidataid="Q1390048"/><path d="M680.4996949645649,1365.2315947810685 672.4558196534214,1370.5508779020256 668.5557589645822,1371.3107699059522 662.9494207415372,1369.730192492436 662.8275441491998,1369.6694010880515 667.2760510011066,1367.2985240364017 671.84643519416,1365.900308517921 676.2340037499107,1365.2923875227236 680.4996949645649,1365.2315947810685Z" name="Lhaviyani" name_en="Lhaviyani Atoll" gn_name="Lhaviyani Atholhu" admin="Maldives" adm0_a3="MDV" iso_3166_2="MV-03" iso_a2="MV" postal="Lh" type="Atoll" type_en="Atoll" wikidataid="Q1390048"/><path d="M588.1170021090009,1346.5072270554217 588.0560630640105,1346.5376243025553 583.7294335532376,1347.175968264141 583.6075562121036,1347.2063654665656 585.7404025682306,1346.0816646351136 585.8013408643804,1346.0816646351136 586.7763558493817,1346.2640482581114 588.1170021090009,1346.5072270554217Z" name="Lhaviyani" name_en="Lhaviyani Atoll" gn_name="Lhaviyani Atholhu" admin="Maldives" adm0_a3="MDV" iso_3166_2="MV-03" iso_a2="MV" postal="Lh" type="Atoll" type_en="Atoll" wikidataid="Q1390048"/><path d="M707.4344915071457,1327.7820882056328 707.3126141660055,1327.8428852074726 705.6672764256431,1329.0588272650039 702.7422307217988,1328.511653930119 707.4344915071457,1327.7820882056328Z" name="Lhaviyani" name_en="Lhaviyani Atoll" gn_name="Lhaviyani Atholhu" admin="Maldives" adm0_a3="MDV" iso_3166_2="MV-03" iso_a2="MV" postal="Lh" type="Atoll" type_en="Atoll" wikidataid="Q1390048"/><path d="M720.2315658998361,1319.9999843202368 720.1096893074988,1319.9999843202368 715.2955511810053,1320.7903605517147 715.173674588668,1320.7903605517147 717.7940280629222,1319.483199831808 720.2315658998361,1319.9999843202368Z" name="Lhaviyani" name_en="Lhaviyani Atoll" gn_name="Lhaviyani Atholhu" admin="Maldives" adm0_a3="MDV" iso_3166_2="MV-03" iso_a2="MV" postal="Lh" type="Atoll" type_en="Atoll" wikidataid="Q1390048"/><path d="M533.6380253133557,1305.833779829016 533.6989643583461,1305.9857797101179 534.5521027510476,1307.779379660756 536.0146256029666,1309.238573830922 536.4411944248939,1310.3633654727666 535.1005481652746,1310.8801611554684 532.6630103283545,1309.6337711738834 532.5411337360609,1308.6305768967807 533.3942721287186,1307.3537800657894 533.6380253133557,1305.833779829016Z" name="Lhaviyani" name_en="Lhaviyani Atoll" gn_name="Lhaviyani Atholhu" admin="Maldives" adm0_a3="MDV" iso_3166_2="MV-03" iso_a2="MV" postal="Lh" type="Atoll" type_en="Atoll" wikidataid="Q1390048"/><path d="M478.0621569404095,1301.3345488857487 479.28092660769136,1302.428960070152 479.34186490387884,1302.428960070152 481.53564880732137,1302.246558764612 481.59658710350254,1302.246558764612 481.7794027408053,1302.246558764612 483.18098729653053,1302.3681596432016 482.2669106077293,1304.3137744589194 475.13711123656526,1305.2865783378138 475.0152346442718,1305.2865783378138 473.9183423181302,1303.1585667938025 475.0152346442718,1302.5201614423008 477.14808025155816,1302.3377594266497 478.0621569404095,1301.3345488857487Z" name="Lhaviyani" name_en="Lhaviyani Atoll" gn_name="Lhaviyani Atholhu" admin="Maldives" adm0_a3="MDV" iso_3166_2="MV-03" iso_a2="MV" postal="Lh" type="Atoll" type_en="Atoll" wikidataid="Q1390048"/><path d="M498.65935420842175,1256.917415431608 494.27178565266485,1257.5558866327335 494.028031719231,1257.6166931525343 496.22181562270487,1256.0965239278169 498.65935420842175,1256.917415431608Z" name="Lhaviyani" name_en="Lhaviyani Atoll" gn_name="Lhaviyani Atholhu" admin="Maldives" adm0_a3="MDV" iso_3166_2="MV-03" iso_a2="MV" postal="Lh" type="Atoll" type_en="Atoll" wikidataid="Q1390048"/><path d="M638.4521635334825,1239.1918896282857 636.5630711107956,1240.3472628782708 633.8208410442478,1239.921599006759 638.4521635334825,1239.1918896282857Z" name="Lhaviyani" name_en="Lhaviyani Atoll" gn_name="Lhaviyani Atholhu" admin="Maldives" adm0_a3="MDV" iso_3166_2="MV-03" iso_a2="MV" postal="Lh" type="Atoll" type_en="Atoll" wikidataid="Q1390048"/><path d="M507.80012184571933,1230.4656838521773 507.80012184571933,1230.6785196418018 507.9219984380567,1233.2325478467528 506.2766606976567,1234.296722097069 506.09384506036025,1234.3879366574263 507.80012184571933,1230.4656838521773Z" name="Lhaviyani" name_en="Lhaviyani Atoll" gn_name="Lhaviyani Atholhu" admin="Maldives" adm0_a3="MDV" iso_3166_2="MV-03" iso_a2="MV" postal="Lh" type="Atoll" type_en="Atoll" wikidataid="Q1390048"/><path d="M582.2669107013187,1170.289679108246 579.9512494566983,1171.6885072932328 577.8184031005713,1171.0195030047382 577.696526508234,1170.9890937624205 582.2669107013187,1170.289679108246Z" name="Lhaviyani" name_en="Lhaviyani Atoll" gn_name="Lhaviyani Atholhu" admin="Maldives" adm0_a3="MDV" iso_3166_2="MV-03" iso_a2="MV" postal="Lh" type="Atoll" type_en="Atoll" wikidataid="Q1390048"/><path d="M707.4344915071457,1263.758124538799 711.1517365586884,1269.413030777777 712.797075047904,1275.4326914787412 712.1876905886801,1281.7258856763085 709.6282754106259,1287.866985391186 709.6282754106259,1288.018992100681 706.0938452475641,1267.6800831309004 707.4344915071457,1263.758124538799Z" name="Lhaviyani" name_en="Lhaviyani Atoll" gn_name="Lhaviyani Atholhu" admin="Maldives" adm0_a3="MDV" iso_3166_2="MV-03" iso_a2="MV" postal="Lh" type="Atoll" type_en="Atoll" wikidataid="Q1390048"/><path d="M193.41864697916384,1227.0906936565111 193.35770868301395,1227.1819097045875 192.26081635687243,1228.6109623999546 191.89518583109498,1230.1008207655086 191.2858013718712,1231.165002556103 189.76234022380862,1231.6514849348594 188.84826353495728,1228.6413676467464 189.70140192761488,1227.7596123991186 191.52955530531128,1227.6988017820574 193.41864697916384,1227.0906936565111Z" name="Raa" name_en="Raa Atoll" gn_name="Raa Atholhu" admin="Maldives" adm0_a3="MDV" iso_3166_2="MV-13" iso_a2="MV" postal="R" type="Atoll" type_en="Atoll" wikidataid="Q1457965"/><path d="M247.89762377480906,1208.2085167326766 246.73979315248005,1209.6680375380358 246.37416187789336,1211.157960697633 245.76477741868212,1212.2525938517072 244.30225456676314,1212.7086907556006 244.2413162705694,1212.7390970994009 243.4491161740617,1210.1849501656147 243.32723958172434,1209.6984448393555 244.18037797441326,1208.755837696117 245.88665475982245,1208.755837696117 247.89762377480906,1208.2085167326766Z" name="Raa" name_en="Raa Atoll" gn_name="Raa Atholhu" admin="Maldives" adm0_a3="MDV" iso_3166_2="MV-13" iso_a2="MV" postal="R" type="Atoll" type_en="Atoll" wikidataid="Q1457965"/><path d="M240.21937824058992,1043.4335300189164 238.81779368485215,1045.0761188944925 238.3912248628935,1046.8707916201165 237.7209021075261,1048.0875145082962 235.8318096848267,1048.1787683595674 235.1005486333157,1044.4373353395754 236.13650191446052,1043.52478487475 236.19744095945097,1043.52478487475 236.62400978138456,1043.5856221819515 238.08653263330353,1043.7985500716331 240.21937824058992,1043.4335300189164Z" name="Raa" name_en="Raa Atoll" gn_name="Raa Atholhu" admin="Maldives" adm0_a3="MDV" iso_3166_2="MV-13" iso_a2="MV" postal="R" type="Atoll" type_en="Atoll" wikidataid="Q1457965"/><path d="M240.21937824058992,1230.3744677351224 240.1584399444463,1230.4352787310088 239.12248666329518,1231.7122950077194 237.9646560409662,1234.5703664689706 236.74588637367805,1235.5737272193096 235.28336352175907,1232.0163459938603 235.28336352175907,1231.9555359628268 236.01462532212318,1230.9217611659149 238.08653263330353,1230.9217611659149 240.21937824058992,1230.3744677351224Z" name="Raa" name_en="Raa Atoll" gn_name="Raa Atholhu" admin="Maldives" adm0_a3="MDV" iso_3166_2="MV-13" iso_a2="MV" postal="R" type="Atoll" type_en="Atoll" wikidataid="Q1457965"/><path d="M149.1163925996547,1207.2963138610303 148.01950027350688,1208.8470582885686 147.53199240658287,1210.306576973529 146.9835469923558,1211.492432290513 145.5210241404368,1211.9485292354295 144.42413181430152,1208.7862443132744 145.21633116200627,1207.9956700884472 147.04448528851194,1207.9348567425664 149.1163925996547,1207.2963138610303Z" name="Raa" name_en="Raa Atoll" gn_name="Raa Atholhu" admin="Maldives" adm0_a3="MDV" iso_3166_2="MV-13" iso_a2="MV" postal="R" type="Atoll" type_en="Atoll" wikidataid="Q1457965"/><path d="M250.2742233155731,1114.819439074862 250.21328427058893,1114.941091827478 248.99451535210378,1116.400925910036 248.62888482632007,1117.8607550345864 248.08043866325244,1118.9860367110102 246.6179158113397,1119.4726435461782 246.49603921903997,1119.5030571558411 245.64290082634477,1116.400925910036 246.4351009228901,1115.51894342706 248.32419259673637,1115.51894342706 250.2742233155731,1114.819439074862Z" name="Raa" name_en="Raa Atoll" gn_name="Raa Atholhu" admin="Maldives" adm0_a3="MDV" iso_3166_2="MV-13" iso_a2="MV" postal="R" type="Atoll" type_en="Atoll" wikidataid="Q1457965"/><path d="M246.98354633711716,1070.6266762741004 245.88665475982245,1072.0562454529106 245.3382085967548,1073.577058215365 244.91163902597438,1074.6720403375134 243.32723958172434,1075.189114332299 242.41316289291058,1072.0866616867395 243.32723958172434,1071.2654203686734 245.03351636712097,1071.1437551855572 246.98354633711716,1070.6266762741004Z" name="Raa" name_en="Raa Atoll" gn_name="Raa Atholhu" admin="Maldives" adm0_a3="MDV" iso_3166_2="MV-13" iso_a2="MV" postal="R" type="Atoll" type_en="Atoll" wikidataid="Q1457965"/><path d="M226.1425958844615,1000.5110275419564 225.4113348329505,1004.3745365067208 223.15661188447368,1006.6256988364505 223.09567358833007,1006.6561197853349 226.1425958844615,1000.5110275419564Z" name="Raa" name_en="Raa Atoll" gn_name="Raa Atholhu" admin="Maldives" adm0_a3="MDV" iso_3166_2="MV-13" iso_a2="MV" postal="R" type="Atoll" type_en="Atoll" wikidataid="Q1457965"/><path d="M218.46435109908919,968.4455637275128 218.46435109908919,968.5064119405646 217.36745877294138,975.2300191645946 217.36745877294138,975.3212888693342 215.35648975795476,973.37419225703 214.25959818066005,972.3397940101205 214.32053647680993,970.8186142532569 216.39244378794643,969.8754805454713 218.46435109908919,968.4455637275128Z" name="Raa" name_en="Raa Atoll" gn_name="Raa Atholhu" admin="Maldives" adm0_a3="MDV" iso_3166_2="MV-13" iso_a2="MV" postal="R" type="Atoll" type_en="Atoll" wikidataid="Q1457965"/><path d="M208.7751372987616,930.5357581479755 208.8360755949052,930.7487437650876 210.90798290604795,941.0632280802184 208.04387549835988,938.659580299064 207.49542933529224,936.255919257263 208.7751372987616,930.5357581479755Z" name="Raa" name_en="Raa Atoll" gn_name="Raa Atholhu" admin="Maldives" adm0_a3="MDV" iso_3166_2="MV-13" iso_a2="MV" postal="R" type="Atoll" type_en="Atoll" wikidataid="Q1457965"/><path d="M184.8263255049402,852.2101878394217 183.7294331787924,861.2789543820655 180.438756949177,856.5315718987348 180.92626481610102,854.2795886438523 184.8263255049402,852.2101878394217Z" name="Raa" name_en="Raa Atoll" gn_name="Raa Atholhu" admin="Maldives" adm0_a3="MDV" iso_3166_2="MV-13" iso_a2="MV" postal="R" type="Atoll" type_en="Atoll" wikidataid="Q1457965"/><path d="M172.88238875614203,843.0194857505315 172.82145045999215,843.0803518615716 171.48080420036666,844.2976751473777 171.1761119707767,846.0019218810689 170.74954314885565,846.793177009016 169.65265082267024,846.2149524040963 168.49482020037883,845.5758612458427 168.37294360808534,842.4412557418146 169.28702029693667,841.9847574664172 170.93235803729902,842.8064535416129 172.88238875614203,843.0194857505315Z" name="Raa" name_en="Raa Atoll" gn_name="Raa Atholhu" admin="Maldives" adm0_a3="MDV" iso_3166_2="MV-13" iso_a2="MV" postal="R" type="Atoll" type_en="Atoll" wikidataid="Q1457965"/><path d="M198.1109077645546,567.3514078489245 198.1109077645546,567.4427712976341 199.26873838684602,568.9045872350108 199.45155402412996,568.9959503107236 200.79219953495246,569.726856371734 201.09689251338926,570.0009456890862 201.52346133531032,570.4882145170762 200.91407687604894,572.0718359579655 197.44058500913707,571.3713885664752 196.89213884606943,570.2445805553093 197.80621553492077,568.6609515108274 198.1109077645546,567.3514078489245Z" name="Shaviyani" name_en="Shaviyani Atoll" gn_name="Shaviyani Atholhu" admin="Maldives" adm0_a3="MDV" iso_3166_2="MV-24" iso_a2="MV" postal="Sh" type="Atoll" type_en="Atoll" wikidataid="Q2190334"/><path d="M155.57586846654186,490.78088398629654 156.79463738502702,492.3952996346566 158.257160236946,493.18727498723825 158.80560640001363,493.7051041487098 159.04936033349756,493.9183278450802 159.04936033349756,493.9792486650054 158.37903682928334,495.502269686415 154.96648400732434,494.80168101017205 154.84460666617775,494.58845781660864 154.2961612519632,493.67464371769654 155.21023794081455,492.1516152648315 155.57586846654186,490.78088398629654Z" name="Shaviyani" name_en="Shaviyani Atoll" gn_name="Shaviyani Atholhu" admin="Maldives" adm0_a3="MDV" iso_3166_2="MV-24" iso_a2="MV" postal="Sh" type="Atoll" type_en="Atoll" wikidataid="Q2190334"/><path d="M423.7659965309326,766.685923491812 423.70505823475145,766.7772400684152 422.4862885674633,769.5776123666553 419.8049967971093,769.3949797324982 423.7659965309326,766.685923491812Z" name="Shaviyani" name_en="Shaviyani Atoll" gn_name="Shaviyani Atholhu" admin="Maldives" adm0_a3="MDV" iso_3166_2="MV-24" iso_a2="MV" postal="Sh" type="Atoll" type_en="Atoll" wikidataid="Q2190334"/><path d="M424.80194981208376,745.8651408453951 424.6800732197464,745.9260225143773 421.1456430566909,748.300377098516 420.840950827101,748.4830187076989 422.36441197516984,746.6565943297238 424.80194981208376,745.8651408453951Z" name="Shaviyani" name_en="Shaviyani Atoll" gn_name="Shaviyani Atholhu" admin="Maldives" adm0_a3="MDV" iso_3166_2="MV-24" iso_a2="MV" postal="Sh" type="Atoll" type_en="Atoll" wikidataid="Q2190334"/><path d="M401.09689195174,730.2792764932497 401.0359536555964,730.3401598198591 400.00000037444534,732.3493095536226 397.13589296675724,732.8972577704878 401.09689195174,730.2792764932497Z" name="Shaviyani" name_en="Shaviyani Atoll" gn_name="Shaviyani Atholhu" admin="Maldives" adm0_a3="MDV" iso_3166_2="MV-24" iso_a2="MV" postal="Sh" type="Atoll" type_en="Atoll" wikidataid="Q2190334"/><path d="M438.39122505013495,711.6789310162752 438.33028675394746,711.7702610733711 437.2943327239558,713.505518392134 436.7458865608819,715.0581102646127 436.1365021016644,716.1540541228026 434.6739792497454,716.3671533802366 434.55210265744563,716.39759687005 434.73491754588906,714.2057074533866 435.64899423474037,713.2315308653407 436.8677639020285,712.6835552377476 438.39122505013495,711.6789310162752Z" name="Shaviyani" name_en="Shaviyani Atoll" gn_name="Shaviyani Atholhu" admin="Maldives" adm0_a3="MDV" iso_3166_2="MV-24" iso_a2="MV" postal="Sh" type="Atoll" type_en="Atoll" wikidataid="Q2190334"/><path d="M400.0609386705952,700.1407945990632 399.93906132944863,700.2016826009293 396.2827545740558,702.819864450694 397.6234000848282,700.9932280070884 400.0609386705952,700.1407945990632Z" name="Shaviyani" name_en="Shaviyani Atoll" gn_name="Shaviyani Atholhu" admin="Maldives" adm0_a3="MDV" iso_3166_2="MV-24" iso_a2="MV" postal="Sh" type="Atoll" type_en="Atoll" wikidataid="Q2190334"/><path d="M438.8177938720623,687.3540711421389 438.8177938720623,687.4149611368777 436.7458865608819,695.3914892771513 434.73491754588906,692.3470318793139 435.16148711666943,690.672570981287 436.98964049436586,689.3025514974589 438.8177938720623,687.3540711421389Z" name="Shaviyani" name_en="Shaviyani Atoll" gn_name="Shaviyani Atholhu" admin="Maldives" adm0_a3="MDV" iso_3166_2="MV-24" iso_a2="MV" postal="Sh" type="Atoll" type_en="Atoll" wikidataid="Q2190334"/><path d="M261.6087748563132,662.7232246357335 261.4868982640134,662.8145654059203 257.83059075981134,665.2503180834796 257.708714167474,665.3721049794532 258.8056064936156,663.7279741704565 261.6087748563132,662.7232246357335Z" name="Shaviyani" name_en="Shaviyani Atoll" gn_name="Shaviyani Atholhu" admin="Maldives" adm0_a3="MDV" iso_3166_2="MV-24" iso_a2="MV" postal="Sh" type="Atoll" type_en="Atoll" wikidataid="Q2190334"/><path d="M417.0018284344054,649.7525838639838 417.3674589601515,652.1579701120478 418.4643512863369,653.9848357022559 418.6471661747803,655.7812452058089 415.90493610823256,657.7907783876275 412.9798904043883,655.4158746209894 413.5283365675061,653.8021492316938 415.5393055824927,652.1579701120478 417.0018284344054,649.7525838639838Z" name="Shaviyani" name_en="Shaviyani Atoll" gn_name="Shaviyani Atholhu" admin="Maldives" adm0_a3="MDV" iso_3166_2="MV-24" iso_a2="MV" postal="Sh" type="Atoll" type_en="Atoll" wikidataid="Q2190334"/><path d="M332.1755030230734,614.4617108348965 330.46922623767676,616.5932614769351 328.1535649930563,617.0804716913736 328.0316876519473,617.0804716913736 332.1755030230734,614.4617108348965Z" name="Shaviyani" name_en="Shaviyani Atoll" gn_name="Shaviyani Atholhu" admin="Maldives" adm0_a3="MDV" iso_3166_2="MV-24" iso_a2="MV" postal="Sh" type="Atoll" type_en="Atoll" wikidataid="Q2190334"/><path d="M397.13589296675724,608.493305044705 397.13589296675724,608.6151105999094 395.55149277369793,612.6955597642442 392.6264470698537,614.5835137479519 392.32175484022616,614.7662187935139 392.74832441099403,614.4617108348965 397.13589296675724,608.493305044705Z" name="Shaviyani" name_en="Shaviyani Atoll" gn_name="Shaviyani Atholhu" admin="Maldives" adm0_a3="MDV" iso_3166_2="MV-24" iso_a2="MV" postal="Sh" type="Atoll" type_en="Atoll" wikidataid="Q2190334"/><path d="M298.41560008778407,598.2006328695445 298.35466179159033,598.2919896803309 296.9530772358651,600.4236301860575 294.75929333238497,600.7890529316365 294.5155393989073,600.8195047489951 298.41560008778407,598.2006328695445Z" name="Shaviyani" name_en="Shaviyani Atoll" gn_name="Shaviyani Atholhu" admin="Maldives" adm0_a3="MDV" iso_3166_2="MV-24" iso_a2="MV" postal="Sh" type="Atoll" type_en="Atoll" wikidataid="Q2190334"/><path d="M383.54661772870605,584.0705965734692 383.6075560248935,584.1924091547093 384.4606944175511,586.1414104067293 385.25289451410896,586.5068467999444 386.0450946106229,586.8722828434551 387.20292523295194,588.0294952980701 386.53260172873775,590.9529637014781 382.08409487678705,589.9175716053248 382.02315658064344,589.7044020099856 381.41377212141964,588.4558362388303 382.75441838099505,586.4459408834432 383.54661772870605,584.0705965734692Z" name="Shaviyani" name_en="Shaviyani Atoll" gn_name="Shaviyani Atholhu" admin="Maldives" adm0_a3="MDV" iso_3166_2="MV-24" iso_a2="MV" postal="Sh" type="Atoll" type_en="Atoll" wikidataid="Q2190334"/><path d="M329.2504573192417,580.2943775373311 329.00670338575776,580.4770989515806 325.5941498149895,582.7915591294167 325.3503958815557,582.9742785990795 326.5691648000346,581.3907032127149 329.2504573192417,580.2943775373311Z" name="Shaviyani" name_en="Shaviyani Atoll" gn_name="Shaviyani Atholhu" admin="Maldives" adm0_a3="MDV" iso_3166_2="MV-24" iso_a2="MV" postal="Sh" type="Atoll" type_en="Atoll" wikidataid="Q2190334"/><path d="M376.2340034691049,566.6204972235963 374.4667883876022,567.8995897089956 373.4917734025634,569.2091314837719 372.3948810764219,569.9400371352835 370.9323582244966,569.3614038909535 371.541742683758,567.3209533611383 372.76051160219305,566.8336797279778 374.40585009140847,566.9554978205425 376.2340034691049,566.6204972235963Z" name="Shaviyani" name_en="Shaviyani Atoll" gn_name="Shaviyani Atholhu" admin="Maldives" adm0_a3="MDV" iso_3166_2="MV-24" iso_a2="MV" postal="Sh" type="Atoll" type_en="Atoll" wikidataid="Q2190334"/><path d="M251.37111489288034,553.0070372301868 252.34613062671588,554.6516418005659 253.9305300709346,555.3216645611636 254.6617918713363,556.1135069594922 254.11334570826867,557.6971882959449 250.45703820402275,557.0271697300843 250.03046938209542,555.8089522137454 250.8836077747969,554.3470858812206 251.37111489288034,553.0070372301868Z" name="Shaviyani" name_en="Shaviyani Atoll" gn_name="Shaviyani Atholhu" admin="Maldives" adm0_a3="MDV" iso_3166_2="MV-24" iso_a2="MV" postal="Sh" type="Atoll" type_en="Atoll" wikidataid="Q2190334"/><path d="M163.25411325192044,499.70577573928057 164.4728821704056,501.3506134966091 165.93540502232457,502.1425699277417 166.30103629689873,502.5080874288085 166.7276051188323,502.873604573849 166.7276051188323,502.93452393863595 166.0572823634649,504.45750933625646 162.64472879269667,503.75693664124304 162.52285220040943,503.54371853982354 161.9744060373418,502.5690068529396 162.76660538504655,501.1069342008322 163.25411325192044,499.70577573928057Z" name="Shaviyani" name_en="Shaviyani Atoll" gn_name="Shaviyani Atholhu" admin="Maldives" adm0_a3="MDV" iso_3166_2="MV-24" iso_a2="MV" postal="Sh" type="Atoll" type_en="Atoll" wikidataid="Q2190334"/><path d="M272.5586318742554,498.8294963044313 270.62766590131724,502.62992626716925 268.43388199783715,504.42704903008416 268.31200465669053,504.54888799409406 272.5586318742554,498.8294963044313Z" name="Shaviyani" name_en="Shaviyani Atoll" gn_name="Shaviyani Atholhu" admin="Maldives" adm0_a3="MDV" iso_3166_2="MV-24" iso_a2="MV" postal="Sh" type="Atoll" type_en="Atoll" wikidataid="Q2190334"/><path d="M509.3235829937882,3967.7266046818772 509.44546033493475,3967.7568848492674 517.4283973499347,3969.603978236934 513.4064593199677,3974.085441274691 511.7611215795552,3973.782640246964 511.7001825345585,3973.782640246964 510.78610584570714,3970.996867011502 509.3235829937882,3967.7266046818772Z" name="Laamu" name_en="Laamu Atoll" gn_name="Laamu Atholhu" admin="Maldives" adm0_a3="MDV" iso_3166_2="MV-05" iso_a2="MV" postal="L" type="Atoll" type_en="Atoll" wikidataid="Q1996432"/><path d="M535.709932624536,3956.3714647106835 535.7708716694826,3956.522866823862 536.4411944248939,3959.8234375558527 537.842778980663,3962.5789529134013 537.1115171802613,3964.3654929324202 535.9536865579761,3964.486614644942 531.3223640687728,3965.0013801270397 531.6270570472034,3962.094467540863 531.6270570472034,3962.003625909399 531.9317492767933,3961.5797009429507 533.0286408541319,3960.0354007060237 534.734917639491,3958.4608175655612 535.709932624536,3956.3714647106835Z" name="Laamu" name_en="Laamu Atoll" gn_name="Laamu Atholhu" admin="Maldives" adm0_a3="MDV" iso_3166_2="MV-05" iso_a2="MV" postal="L" type="Atoll" type_en="Atoll" wikidataid="Q1996432"/><path d="M574.9542964417238,3941.140285290074 583.18098739017,3941.5036552483625 578.0012187378616,3945.9246505094393 576.0511880190186,3945.8035278543816 575.5027426047915,3943.4416271660903 574.9542964417238,3941.140285290074Z" name="Laamu" name_en="Laamu Atoll" gn_name="Laamu Atholhu" admin="Maldives" adm0_a3="MDV" iso_3166_2="MV-05" iso_a2="MV" postal="L" type="Atoll" type_en="Atoll" wikidataid="Q1996432"/><path d="M623.9488116065861,3929.300419636402 618.5252897696781,3933.6003321230355 609.8110909543079,3940.4135443290093 609.8110909543079,3940.4741059049975 609.5063987247179,3940.171297252951 609.3235830873964,3939.929050132423 608.9579525616127,3939.6565221616474 608.7751369243163,3939.3234325083695 610.4814137097254,3937.234049493062 612.1267521989283,3935.11438224882 615.9049362954803,3932.540495623382 623.8269350142864,3929.3307006810064 623.9488116065861,3929.300419636402Z" name="Laamu" name_en="Laamu Atoll" gn_name="Laamu Atholhu" admin="Maldives" adm0_a3="MDV" iso_3166_2="MV-05" iso_a2="MV" postal="L" type="Atoll" type_en="Atoll" wikidataid="Q1996432"/><path d="M637.7209017331246,3908.92106471366 637.5990251407873,3909.193599112009 635.1005482588766,3915.21962120188 634.673979436943,3916.3703158286175 634.0036566815756,3913.826674332899 634.673979436943,3912.221754392477 635.1614865550578,3911.706968272773 636.1365022888682,3910.798522072487 637.7209017331246,3908.92106471366Z" name="Laamu" name_en="Laamu Atoll" gn_name="Laamu Atholhu" admin="Maldives" adm0_a3="MDV" iso_3166_2="MV-05" iso_a2="MV" postal="L" type="Atoll" type_en="Atoll" wikidataid="Q1996432"/><path d="M424.4972575824562,3892.326641883989 418.4643512863369,3895.0520178011893 418.70810447097404,3891.0547971986193 419.9268741382496,3890.509720622079 421.26751964902826,3891.1456437681613 421.93784315323626,3891.4787458163714 424.4972575824562,3892.326641883989Z" name="Laamu" name_en="Laamu Atoll" gn_name="Laamu Atholhu" admin="Maldives" adm0_a3="MDV" iso_3166_2="MV-05" iso_a2="MV" postal="L" type="Atoll" type_en="Atoll" wikidataid="Q1996432"/><path d="M650.1523463488405,3862.5288121710114 646.9835467115249,3878.2151557034504 644.6069471707984,3885.513175432825 641.2553318961801,3891.963257392575 641.0115779627399,3892.326641883989 647.7148077630735,3868.070535056339 650.1523463488405,3862.5288121710114Z" name="Laamu" name_en="Laamu Atoll" gn_name="Laamu Atholhu" admin="Maldives" adm0_a3="MDV" iso_3166_2="MV-05" iso_a2="MV" postal="L" type="Atoll" type_en="Atoll" wikidataid="Q1996432"/><path d="M647.89762340037,3829.823057784679 647.7148077630735,3837.7875944896628 647.7148077630735,3837.908727422015 646.130408318861,3835.8191774514703 646.2522849111546,3834.123307950166 647.89762340037,3829.823057784679Z" name="Laamu" name_en="Laamu Atoll" gn_name="Laamu Atholhu" admin="Maldives" adm0_a3="MDV" iso_3166_2="MV-05" iso_a2="MV" postal="L" type="Atoll" type_en="Atoll" wikidataid="Q1996432"/><path d="M473.55271179235905,3818.6483910788766 475.50274251119583,3820.283714802119 477.5746498223323,3821.1922267796785 478.0621569404095,3822.3127241709703 474.4058501850167,3824.826267885623 472.2120655327273,3823.372652599913 472.45581946621127,3822.0704544518567 473.49177349620294,3820.556268541301 473.55271179235905,3818.6483910788766Z" name="Laamu" name_en="Laamu Atoll" gn_name="Laamu Atholhu" admin="Maldives" adm0_a3="MDV" iso_3166_2="MV-05" iso_a2="MV" postal="L" type="Atoll" type_en="Atoll" wikidataid="Q1996432"/><path d="M643.510054844613,3792.452629413232 642.5959781557617,3795.7536295389127 640.6459474369562,3795.481070918036 640.585009140775,3795.481070918036 642.0475319926941,3793.9668507565852 643.510054844613,3792.452629413232Z" name="Laamu" name_en="Laamu Atoll" gn_name="Laamu Atholhu" admin="Maldives" adm0_a3="MDV" iso_3166_2="MV-05" iso_a2="MV" postal="L" type="Atoll" type_en="Atoll" wikidataid="Q1996432"/><path d="M525.7769656395337,3787.667677137544 525.7769656395337,3790.9384061418564 525.2285194764536,3789.666457251319 525.7769656395337,3787.667677137544Z" name="Laamu" name_en="Laamu Atoll" gn_name="Laamu Atholhu" admin="Maldives" adm0_a3="MDV" iso_3166_2="MV-05" iso_a2="MV" postal="L" type="Atoll" type_en="Atoll" wikidataid="Q1996432"/><path d="M652.1023763188367,3750.841061551415 648.9335774303679,3758.23070543304 648.9335774303679,3758.3518471834423 648.2023156299975,3755.7775913885425 648.8117000892213,3754.142178650245 650.2742229411402,3752.7793336843897 652.1023763188367,3750.841061551415Z" name="Laamu" name_en="Laamu Atoll" gn_name="Laamu Atholhu" admin="Maldives" adm0_a3="MDV" iso_3166_2="MV-05" iso_a2="MV" postal="L" type="Atoll" type_en="Atoll" wikidataid="Q1996432"/><path d="M661.060329067647,3730.4284380231447 674.3449113272615,3730.6707266115586 674.4058503722581,3730.6707266115586 672.9433275203329,3731.761023507012 670.6276662757188,3733.517611631297 661.1212673638407,3739.453648658973 656.6727605118838,3741.755368937541 656.6727605118838,3738.7267883133372 657.5868372007352,3736.061631263372 661.060329067647,3730.4284380231447Z" name="Laamu" name_en="Laamu Atoll" gn_name="Laamu Atholhu" admin="Maldives" adm0_a3="MDV" iso_3166_2="MV-05" iso_a2="MV" postal="L" type="Atoll" type_en="Atoll" wikidataid="Q1996432"/><path d="M268.7385742274647,3688.3603171482537 266.9713591459119,3689.662666012743 265.81352852362676,3689.7232401683295 264.65569790129774,3689.7838143206313 264.7775744936351,3689.7232401683295 268.7385742274647,3688.3603171482537Z" name="Thaa" name_en="Thaa Atoll" gn_name="Thaa Atholhu" admin="Maldives" adm0_a3="MDV" iso_3166_2="MV-08" iso_a2="MV" postal="Th" type="Atoll" type_en="Atoll" wikidataid="Q2709118"/><path d="M313.77209040734425,3673.368056389828 313.77209040734425,3673.428631436453 313.04082860697383,3675.003585201547 313.04082860697383,3676.6996872002046 312.6142597850528,3677.54773722266 310.4814134289196,3676.820836924277 310.05484460694845,3674.8218603113105 310.72516736235343,3674.1555332246194 312.1876902142787,3674.0343832080034 313.77209040734425,3673.368056389828Z" name="Thaa" name_en="Thaa Atoll" gn_name="Thaa Atholhu" admin="Maldives" adm0_a3="MDV" iso_3166_2="MV-08" iso_a2="MV" postal="Th" type="Atoll" type_en="Atoll" wikidataid="Q2709118"/><path d="M322.4862892227082,3663.6154050803443 323.52224250385933,3665.129797401834 326.5082265038409,3669.491236057176 322.1206579480902,3669.491236057176 321.3284586003792,3668.249439516242 322.0597196519341,3666.038431790821 322.4862892227082,3663.6154050803443Z" name="Thaa" name_en="Thaa Atoll" gn_name="Thaa Atholhu" admin="Maldives" adm0_a3="MDV" iso_3166_2="MV-08" iso_a2="MV" postal="Th" type="Atoll" type_en="Atoll" wikidataid="Q2709118"/><path d="M197.37964671299346,3607.6419741259256 195.85618556491835,3609.489629092858 195.79524651993415,3609.519918406288 193.41864697916384,3609.0352877986397 197.37964671299346,3607.6419741259256Z" name="Thaa" name_en="Thaa Atoll" gn_name="Thaa Atholhu" admin="Maldives" adm0_a3="MDV" iso_3166_2="MV-08" iso_a2="MV" postal="Th" type="Atoll" type_en="Atoll" wikidataid="Q2709118"/><path d="M180.68251088266092,3568.5072843167304 181.35283363802833,3576.9886107895527 178.0012191122568,3574.3836392458184 177.8793417711165,3572.505632817935 179.34186462302918,3570.7487847308275 180.68251088266092,3568.5072843167304Z" name="Thaa" name_en="Thaa Atoll" gn_name="Thaa Atholhu" admin="Maldives" adm0_a3="MDV" iso_3166_2="MV-08" iso_a2="MV" postal="Th" type="Atoll" type_en="Atoll" wikidataid="Q2709118"/><path d="M493.6014628973037,3553.180138897968 493.540523852307,3553.6345045172884 493.29676991886066,3556.0577824407646 492.3217549338218,3557.390583310333 492.13894004537843,3557.602619060951 493.6014628973037,3553.180138897968Z" name="Thaa" name_en="Thaa Atoll" gn_name="Thaa Atholhu" admin="Maldives" adm0_a3="MDV" iso_3166_2="MV-08" iso_a2="MV" postal="Th" type="Atoll" type_en="Atoll" wikidataid="Q2709118"/><path d="M501.2797076826823,3486.8103277538867 506.5813529272467,3496.1102418824744 509.56733692727215,3504.1680777712763 510.2376596826395,3505.9250407829873 510.8470441419009,3515.982079798671 507.5563679122855,3525.584641001008 507.49542961609177,3525.73610058159 500.97501545304846,3492.8992065066614 501.2797076826823,3486.8103277538867Z" name="Thaa" name_en="Thaa Atoll" gn_name="Thaa Atholhu" admin="Maldives" adm0_a3="MDV" iso_3166_2="MV-08" iso_a2="MV" postal="Th" type="Atoll" type_en="Atoll" wikidataid="Q2709118"/><path d="M471.7245584146501,3435.734961072731 472.02925064428393,3444.429474578813 472.02925064428393,3444.4900630926145 470.9323583180986,3443.6418220650585 469.4698354661858,3442.4603406011356 469.4698354661858,3442.3694576380467 469.28701982889567,3440.6123808694324 470.566727792365,3438.4917668925364 471.7245584146501,3435.734961072731Z" name="Thaa" name_en="Thaa Atoll" gn_name="Thaa Atholhu" admin="Maldives" adm0_a3="MDV" iso_3166_2="MV-08" iso_a2="MV" postal="Th" type="Atoll" type_en="Atoll" wikidataid="Q2709118"/><path d="M344.9725774157262,3400.380499468202 343.69287020109743,3402.5617893246044 341.6819011861108,3402.5617893246044 341.5600245938111,3402.5617893246044 344.9725774157262,3400.380499468202Z" name="Thaa" name_en="Thaa Atoll" gn_name="Thaa Atholhu" admin="Maldives" adm0_a3="MDV" iso_3166_2="MV-08" iso_a2="MV" postal="Th" type="Atoll" type_en="Atoll" wikidataid="Q2709118"/><path d="M161.18220594077766,3304.3986573259535 163.07129836347707,3305.3076234946557 165.08226662961684,3305.4288186165436 165.93540502232457,3306.277186246131 164.4728821704056,3309.216167628524 161.9744060373418,3308.8828816620694 161.54783646656136,3307.8527243263834 161.6697138077017,3306.216588744417 161.18220594077766,3304.3986573259535Z" name="Dhaalu" name_en="Dhaalu Atoll" gn_name="Dhaalu Atholhu" admin="Maldives" adm0_a3="MDV" iso_3166_2="MV-17" iso_a2="MV" postal="Dh" type="Atoll" type_en="Atoll" wikidataid="Q2290784"/><path d="M140.58500942160597,3295.4907389637283 141.4381478142761,3303.3078964120864 141.4381478142761,3303.3684941098936 136.68494798392624,3301.065772760643 136.38025575429867,3299.369026853973 138.51310211043187,3297.6722784804147 140.58500942160597,3295.4907389637283Z" name="Dhaalu" name_en="Dhaalu Atoll" gn_name="Dhaalu Atholhu" admin="Maldives" adm0_a3="MDV" iso_3166_2="MV-17" iso_a2="MV" postal="Dh" type="Atoll" type_en="Atoll" wikidataid="Q2290784"/><path d="M252.71176115249958,3260.100578767202 260.1462520043942,3257.5553419744947 260.1462520043942,3257.615942794358 256.97745311591916,3262.6761091714593 255.0274223970824,3263.1306140610327 252.77269944864318,3260.130879834584 252.71176115249958,3260.100578767202Z" name="Dhaalu" name_en="Dhaalu Atoll" gn_name="Dhaalu Atholhu" admin="Maldives" adm0_a3="MDV" iso_3166_2="MV-17" iso_a2="MV" postal="Dh" type="Atoll" type_en="Atoll" wikidataid="Q2290784"/><path d="M242.35222459671684,3102.493706339761 247.16636197440735,3106.8880705883284 243.8147474486421,3108.494280231978 243.4491161740617,3108.1609162537015 242.77879341864417,3107.6154109982294 242.77879341864417,3105.372775369391 242.77879341864417,3105.3121629063517 242.35222459671684,3102.493706339761Z" name="Dhaalu" name_en="Dhaalu Atoll" gn_name="Dhaalu Atholhu" admin="Maldives" adm0_a3="MDV" iso_3166_2="MV-17" iso_a2="MV" postal="Dh" type="Atoll" type_en="Atoll" wikidataid="Q2290784"/><path d="M138.756855295069,3090.674263802352 138.756855295069,3090.765183011701 136.9287019173726,3096.8567625089554 134.97867119856718,3098.8872788737663 134.8567946062298,3096.8567625089554 138.756855295069,3090.674263802352Z" name="Dhaalu" name_en="Dhaalu Atoll" gn_name="Dhaalu Atholhu" admin="Maldives" adm0_a3="MDV" iso_3166_2="MV-17" iso_a2="MV" postal="Dh" type="Atoll" type_en="Atoll" wikidataid="Q2290784"/><path d="M500.73126151956455,3232.8600950805176 500.12187706034075,3234.7690773506124 500.73126151956455,3236.314441727687 500.73126151956455,3237.5870919798535 499.2078003714957,3238.465825768019 499.1468613265428,3238.4961268402953 496.9530774230627,3235.0114876745592 497.56246188228647,3233.678231172343 499.26873866764555,3233.405519227458 500.73126151956455,3232.8600950805176Z" name="Meemu" name_en="Meemu Atoll" gn_name="Meemu Atholhu" admin="Maldives" adm0_a3="MDV" iso_3166_2="MV-12" iso_a2="MV" postal="M" type="Atoll" type_en="Atoll" wikidataid="Q2210716"/><path d="M534.9786715729749,3227.3149311013603 528.5191957060314,3235.0114876745592 529.4332723948827,3230.466285625696 531.3223640687728,3228.3451824368244 533.6380253133557,3227.6179464149427 534.9786715729749,3227.3149311013603Z" name="Meemu" name_en="Meemu Atoll" gn_name="Meemu Atholhu" admin="Maldives" adm0_a3="MDV" iso_3166_2="MV-12" iso_a2="MV" postal="M" type="Atoll" type_en="Atoll" wikidataid="Q2210716"/><path d="M646.8007310742285,3147.6181646029036 646.9226084153687,3147.7090775178867 647.9585616965637,3148.6485126265748 648.6288852007779,3149.193990783209 647.1663623488527,3151.042553160043 647.1663623488527,3150.587988813305 646.8007310742285,3147.6181646029036Z" name="Meemu" name_en="Meemu Atoll" gn_name="Meemu Atholhu" admin="Maldives" adm0_a3="MDV" iso_3166_2="MV-12" iso_a2="MV" postal="M" type="Atoll" type_en="Atoll" wikidataid="Q2210716"/><path d="M505.85009112687635,3139.3147215604276 506.3375989938003,3141.0723915018702 507.3126139787953,3142.40579413824 507.6782452534258,3143.4058441534053 506.2157224015006,3144.0119346218053 506.09384506036025,3144.0422398039173 503.53442988230603,3142.345185143179 503.53442988230603,3141.314828571679 504.93601443803124,3140.496603456792 505.85009112687635,3139.3147215604276Z" name="Meemu" name_en="Meemu Atoll" gn_name="Meemu Atholhu" admin="Maldives" adm0_a3="MDV" iso_3166_2="MV-12" iso_a2="MV" postal="M" type="Atoll" type_en="Atoll" wikidataid="Q2210716"/><path d="M658.5009138895865,3101.4329939029453 658.5009138895865,3101.52391191046 656.8555761492241,3107.8578579060772 656.3071299861565,3106.100117127015 656.6727605118838,3104.675738104068 658.5009138895865,3101.4329939029453Z" name="Meemu" name_en="Meemu Atoll" gn_name="Meemu Atholhu" admin="Maldives" adm0_a3="MDV" iso_3166_2="MV-12" iso_a2="MV" postal="M" type="Atoll" type_en="Atoll" wikidataid="Q2210716"/><path d="M674.7714808979918,3096.3112496980148 674.7105426018481,3096.3718628299052 668.4338816234356,3104.0999246186498 669.1651434237934,3099.4934021143113 671.2979890310799,3097.402274954386 673.43083463841,3096.584006149162 674.7714808979918,3096.3112496980148Z" name="Meemu" name_en="Meemu Atoll" gn_name="Meemu Atholhu" admin="Maldives" adm0_a3="MDV" iso_3166_2="MV-12" iso_a2="MV" postal="M" type="Atoll" type_en="Atoll" wikidataid="Q2210716"/><path d="M695.0639851875734,2988.201480755688 694.698354661796,2991.020342721486 691.5904933206616,2992.9298879874996 695.0639851875734,2988.201480755688Z" name="Meemu" name_en="Meemu Atoll" gn_name="Meemu Atholhu" admin="Maldives" adm0_a3="MDV" iso_3166_2="MV-12" iso_a2="MV" postal="M" type="Atoll" type_en="Atoll" wikidataid="Q2210716"/><path d="M162.34003656307536,3005.2963565878113 163.25411325192044,3006.7512223215767 164.22912823696552,3007.024009391954 164.71663610383942,3007.1755573094133 165.63071279268448,3007.8423692874703 164.4728821704056,3010.085279084003 161.06032934849046,3010.479302812716 160.6946980738599,3009.479088001411 161.6697138077017,3007.6605119379174 162.34003656307536,3005.2963565878113Z" name="Faafu" name_en="Faafu Atoll" gn_name="Faafu Atholhu" admin="Maldives" adm0_a3="MDV" iso_3166_2="MV-14" iso_a2="MV" postal="F" type="Atoll" type_en="Atoll" wikidataid="Q2469227"/><path d="M219.439366084128,2985.655403106385 219.5612434252746,2985.7463343555446 220.41438181792591,2987.231547717891 221.99878126218226,2988.2924117063408 222.36441178796596,2989.4745160746174 219.6831200175618,2991.202203951869 217.36745877294138,2990.1110329512994 217.55027441027545,2988.989550875243 218.70810503256686,2987.5346519690356 219.439366084128,2985.655403106385Z" name="Faafu" name_en="Faafu Atoll" gn_name="Faafu Atholhu" admin="Maldives" adm0_a3="MDV" iso_3166_2="MV-14" iso_a2="MV" postal="F" type="Atoll" type_en="Atoll" wikidataid="Q2469227"/><path d="M267.6416819012793,2914.6649381536117 268.55575859012436,2916.119975834334 268.6166968863181,2916.150289011821 270.2010970793774,2916.6049880176815 271.11517376819114,2917.21125243487 269.77452750860954,2919.5453661080387 266.48385127899417,2919.878810221762 266.1182207532167,2918.908790504361 266.9713591459119,2917.0293728629886 267.6416819012793,2914.6649381536117Z" name="Faafu" name_en="Faafu Atoll" gn_name="Faafu Atholhu" admin="Maldives" adm0_a3="MDV" iso_3166_2="MV-14" iso_a2="MV" postal="F" type="Atoll" type_en="Atoll" wikidataid="Q2469227"/><path d="M259.7806214786105,2879.258150004644 259.84155977480424,2879.3490940221664 260.877513804752,2880.8345151202866 262.3400366566773,2881.986472382049 262.7056671824547,2883.1384278553837 259.96343711595085,2884.805728820887 259.7806214786105,2884.7147847271744 257.708714167474,2883.8053483927965 257.9524681009141,2882.6533939545334 259.0493604270995,2881.1376619023276 259.7806214786105,2879.258150004644Z" name="Faafu" name_en="Faafu Atoll" gn_name="Faafu Atholhu" admin="Maldives" adm0_a3="MDV" iso_3166_2="MV-14" iso_a2="MV" postal="F" type="Atoll" type_en="Atoll" wikidataid="Q2469227"/><path d="M111.15173674588611,2834.9366488175438 112.06581343473745,2836.39184327244 113.71115192399049,2836.7859584180524 114.01584415357418,2837.0588069535015 114.4424129755015,2837.483237391621 113.2845823532226,2839.78728594428 109.87202953130745,2840.0601333562536 109.75015219016086,2840.0601333562536 109.62827559781725,2839.1506418344366 110.4814139905187,2837.301338236954 111.15173674588611,2834.9366488175438Z" name="Faafu" name_en="Faafu Atoll" gn_name="Faafu Atholhu" admin="Maldives" adm0_a3="MDV" iso_3166_2="MV-14" iso_a2="MV" postal="F" type="Atoll" type_en="Atoll" wikidataid="Q2469227"/><path d="M622.669104391995,2798.6164734673994 622.7909809842947,2798.7377463134567 623.4613037397122,2799.3137900032534 624.4972577696537,2800.1930136516257 624.5581960658475,2800.374921395673 624.7410117031377,2802.0727292551933 624.8019499992939,2802.224319393404 622.669104391995,2798.6164734673994Z" name="Vaavu" name_en="Vaavu Atoll" gn_name="Vaavu Atholhu" admin="Maldives" adm0_a3="MDV" iso_3166_2="MV-04" iso_a2="MV" postal="V" type="Atoll" type_en="Atoll" wikidataid="Q2709111"/><path d="M795.7952470815834,2731.6406241291315 795.9171236738769,2731.7315875580744 799.9390617038563,2735.127527479641 800,2735.188169712849 798.5374771480809,2734.61207387365 796.5265081331006,2733.823731233925 796.4046315408009,2733.4902015886423 795.7952470815834,2731.6406241291315Z" name="Vaavu" name_en="Vaavu Atoll" gn_name="Vaavu Atholhu" admin="Maldives" adm0_a3="MDV" iso_3166_2="MV-04" iso_a2="MV" postal="V" type="Atoll" type_en="Atoll" wikidataid="Q2709111"/><path d="M614.8080439692949,2694.314503169654 616.7580746881316,2697.771271665063 616.8190129843254,2697.831916414801 615.0517979027725,2696.9828871979635 614.9908596066226,2696.922242373596 614.8080439692949,2694.314503169654Z" name="Vaavu" name_en="Vaavu Atoll" gn_name="Vaavu Atholhu" admin="Maldives" adm0_a3="MDV" iso_3166_2="MV-04" iso_a2="MV" postal="V" type="Atoll" type_en="Atoll" wikidataid="Q2709111"/><path d="M645.0055253395901,2141.2573208970616 650.0119465123042,2145.911607755092 649.3444236892735,2152.2280790671657 647.341855220188,2164.195938278026 638.997819932327,2185.8039400711327 630.320023232954,2194.7793332091724 618.5680932897258,2201.633428584558 600.6152576081945,2200.098018929875 592.9387451433704,2196.7738460832675 558.895081168915,2184.8066655492653 559.5626039919393,2180.8175502004874 619.4094224462482,2183.5749698148375 625.7880573208795,2179.9788724695127 629.9862618214418,2167.520299181587 635.3264444056742,2150.2334114789014 645.0055253395901,2141.2573208970616Z" name="Mal" name_en="Mal" gn_name="Maale" admin="Maldives" adm0_a3="MDV" iso_3166_2="MV-12" iso_a2="MV" postal="Ma" type="Capital" type_en="Capital" wikidataid="Q9347"/><path d="M530.1645341952844,1025.2125353745432 529.8598412168539,1025.8817676074173 521.08470410534,1042.4905597782592 521.0237658091463,1042.36888558731 520.4753196460787,1042.1559569770636 520.4143813499287,1042.1255385954225 520.2315664614415,1042.064701077951 522.4862886610653,1036.8631121283506 530.1645341952844,1025.2125353745432Z" name="Noonu" name_en="Noonu Atoll" gn_name="Noonu Atoll" admin="Maldives" adm0_a3="MDV" iso_3166_2="MV-25" iso_a2="MV" postal="N" type="Atoll" type_en="Atoll" wikidataid="Q2406322"/><path d="M522.3034737726218,982.3794366784741 522.3034737726218,982.5619736802843 522.547226957259,984.8436753436291 523.7659966245409,986.6690287277472 523.9488115129842,988.3422612513455 523.9488115129842,988.4031065556079 521.08470410534,990.5022435590844 518.1596584014958,988.0988829361206 518.82998190571,986.4560711076199 520.7190735795625,984.8436753436291 522.3034737726218,982.3794366784741Z" name="Noonu" name_en="Noonu Atoll" gn_name="Noonu Atoll" admin="Maldives" adm0_a3="MDV" iso_3166_2="MV-25" iso_a2="MV" postal="N" type="Atoll" type_en="Atoll" wikidataid="Q2406322"/><path d="M572.8823891305435,948.1523843257797 572.8214500855969,948.1828095498612 560.8165750405988,955.5456666588981 560.5728211071712,955.6673661145419 564.716636478291,950.0083233836209 567.8244970705723,947.7872807143048 570.3839122486391,947.6047284137544 572.8823891305435,948.1523843257797Z" name="Noonu" name_en="Noonu Atoll" gn_name="Noonu Atoll" admin="Maldives" adm0_a3="MDV" iso_3166_2="MV-25" iso_a2="MV" postal="N" type="Atoll" type_en="Atoll" wikidataid="Q2406322"/><path d="M557.2821448775433,895.3610985615769 557.2821448775433,895.4828158305758 556.855576055616,897.4302797235009 556.855576055616,897.4911376803415 556.855576055616,899.225590127751 556.855576055616,900.534032194882 555.2102375663629,901.4164672256366 552.8945763217926,898.7082986532254 553.5648998260006,897.5519963759748 555.4539914998469,896.7608401041707 557.2821448775433,895.3610985615769Z" name="Noonu" name_en="Noonu Atoll" gn_name="Noonu Atoll" admin="Maldives" adm0_a3="MDV" iso_3166_2="MV-25" iso_a2="MV" postal="N" type="Atoll" type_en="Atoll" wikidataid="Q2406322"/><path d="M527.9098112468201,851.2972135967386 532.0364975502918,860.6315756928095 525.5941500021996,857.5053990198109 523.9488115129842,855.4360139615983 527.9098112468201,851.2972135967386Z" name="Noonu" name_en="Noonu Atoll" gn_name="Noonu Atoll" admin="Maldives" adm0_a3="MDV" iso_3166_2="MV-25" iso_a2="MV" postal="N" type="Atoll" type_en="Atoll" wikidataid="Q2406322"/><path d="M4.570384193090988,521.0881010367686 4.509445148094281,521.1185599933468 2.985984000031688,522.489179798742 1.767215081546531,524.2252917604002 0.7922000965515765,524.9258263348501 0,523.4942986190096 0.7922000965515765,521.0881010367686 2.0109690149866157,520.6007686252678 3.229737933471773,521.0881010367686 4.570384193090988,521.0881010367686Z" name="Haa Dhaalu" name_en="Haa Dhaalu Atoll" gn_name="Haa Dhaalu Atholhu" admin="Maldives" adm0_a3="MDV" iso_3166_2="MV-23" iso_a2="MV" postal="HDh" type="Atoll" type_en="Atoll" wikidataid="Q2360368"/><path d="M207.61730667643258,410.7214363962644 206.03290648336073,411.8487254314331 205.30164543181212,413.37208320783793 204.57038363144804,414.22516096118227 202.92504589108566,413.493952007107 203.6563069425967,409.9902204870528 204.8141375649257,409.47227456933894 204.87507586108185,409.502741908334 206.21572212066346,410.3558286231643 207.61730667643258,410.7214363962644Z" name="Haa Dhaalu" name_en="Haa Dhaalu Atoll" gn_name="Haa Dhaalu Atholhu" admin="Maldives" adm0_a3="MDV" iso_3166_2="MV-23" iso_a2="MV" postal="HDh" type="Atoll" type_en="Atoll" wikidataid="Q2360368"/><path d="M179.09811068959536,406.05990765672277 180.25594131189305,407.7051600998982 181.71846416380578,408.4363805477948 182.63254085265712,409.1676002918346 181.90127980109597,410.7823708650168 178.42778793418412,410.0816223679134 178.0012191122568,408.8629257622193 178.73248016381166,407.46141937819044 179.09811068959536,406.05990765672277Z" name="Haa Dhaalu" name_en="Haa Dhaalu Atoll" gn_name="Haa Dhaalu Atholhu" admin="Maldives" adm0_a3="MDV" iso_3166_2="MV-23" iso_a2="MV" postal="HDh" type="Atoll" type_en="Atoll" wikidataid="Q2360368"/><path d="M258.4399759678381,393.2632504137898 258.3790369228853,393.3851258779109 258.0743446932515,395.2741832825936 258.56185256017545,396.8585472382268 258.74466819746567,397.9249414279465 258.8056064936156,397.95540972368696 257.0993297082565,398.6257138369758 256.4899452489951,397.6507259037247 255.14929898941975,395.5788690744683 255.57586856018764,394.42106157023136 257.22120630054997,393.99450034488956 258.4399759678381,393.2632504137898Z" name="Haa Dhaalu" name_en="Haa Dhaalu Atoll" gn_name="Haa Dhaalu Atholhu" admin="Maldives" adm0_a3="MDV" iso_3166_2="MV-23" iso_a2="MV" postal="HDh" type="Atoll" type_en="Atoll" wikidataid="Q2360368"/><path d="M269.53077357516946,363.64641651567075 267.9463741309131,364.80432139075003 267.09323573821166,366.29740371369144 266.48385127899417,367.1810618334541 264.7775744936351,366.4497590760805 265.50883629399294,362.9151066739165 266.727605212428,362.3666229558875 266.7885435086217,362.39709421198455 268.1901280643532,363.18934822364224 269.53077357516946,363.64641651567075Z" name="Haa Dhaalu" name_en="Haa Dhaalu Atoll" gn_name="Haa Dhaalu Atholhu" admin="Maldives" adm0_a3="MDV" iso_3166_2="MV-23" iso_a2="MV" postal="HDh" type="Atoll" type_en="Atoll" wikidataid="Q2360368"/><path d="M288.0560635320076,329.1513511025164 282.2669104204816,334.3928619158888 282.63254094625904,329.94367757709364 284.0341255020219,328.81613573560395 285.92321792472126,329.0294549136926 288.0560635320076,329.1513511025164Z" name="Haa Dhaalu" name_en="Haa Dhaalu Atoll" gn_name="Haa Dhaalu Atholhu" admin="Maldives" adm0_a3="MDV" iso_3166_2="MV-23" iso_a2="MV" postal="HDh" type="Atoll" type_en="Atoll" wikidataid="Q2360368"/><path d="M315.3564898515567,297.70069151151046 313.5283364738603,300.7483557169032 312.6142597850528,303.39980282568615 311.21267522927747,305.31980443380513 307.86106070351843,306.29503901399005 307.80012165852173,306.3255149819359 308.409506117733,300.5654970412487 310.35953683658227,298.4626096064912 315.3564898515567,297.70069151151046Z" name="Haa Dhaalu" name_en="Haa Dhaalu Atoll" gn_name="Haa Dhaalu Atholhu" admin="Maldives" adm0_a3="MDV" iso_3166_2="MV-23" iso_a2="MV" postal="HDh" type="Atoll" type_en="Atoll" wikidataid="Q2360368"/><path d="M263.4369289828502,260.425661896139 263.4369289828502,260.4866223668823 263.0712977082259,262.34589337842215 263.1322367532289,262.62021131959074 263.5588055751499,263.90035842952585 263.61974387130607,265.0890625709902 261.9744061309312,265.75961243942476 261.36502167167606,264.8147465236937 259.96343711595085,262.7726096686664 260.63375987131826,261.5229382920267 262.09628272323096,261.157180117377 263.4369289828502,260.425661896139Z" name="Haa Dhaalu" name_en="Haa Dhaalu Atoll" gn_name="Haa Dhaalu Atholhu" admin="Maldives" adm0_a3="MDV" iso_3166_2="MV-23" iso_a2="MV" postal="HDh" type="Atoll" type_en="Atoll" wikidataid="Q2360368"/><path d="M174.95429606727853,257.22525366130316 173.49177321535953,258.38349996622395 172.63863482269568,259.87702243483875 171.84643547499093,260.7914215684471 170.38391262307195,260.15134227075964 170.32297357807525,260.0903824918855 171.05423537843936,256.55468853084597 172.2730042969245,256.0365233635283 173.67458885268732,256.8594910870664 174.95429606727853,257.22525366130316Z" name="Haa Dhaalu" name_en="Haa Dhaalu Atoll" gn_name="Haa Dhaalu Atholhu" admin="Maldives" adm0_a3="MDV" iso_3166_2="MV-23" iso_a2="MV" postal="HDh" type="Atoll" type_en="Atoll" wikidataid="Q2360368"/><path d="M355.45399131264924,240.3388157097042 358.98842147570474,239.94255345033287 359.96343720955275,240.94844828681687 359.96343720955275,241.00941133728577 359.96343720955275,242.86878385729747 360.69469826106376,244.97199771944926 350.4570382976247,268.28940041616335 344.4241320014991,278.5302891699131 334.73491745229336,286.30219736817344 334.6130408599936,286.39363034307166 337.8427787934153,274.29376688045346 350.2132843641909,254.05529790502692 355.45399131264924,240.3388157097042Z" name="Haa Dhaalu" name_en="Haa Dhaalu Atoll" gn_name="Haa Dhaalu Atholhu" admin="Maldives" adm0_a3="MDV" iso_3166_2="MV-23" iso_a2="MV" postal="HDh" type="Atoll" type_en="Atoll" wikidataid="Q2360368"/><path d="M372.0292505506444,207.38661460479196 383.7294333660025,209.18519477383919 377.8793419583203,213.14813634985057 373.61364999490075,214.39797764180238 371.41986609142066,212.69087583643346 372.0292505506444,207.38661460479196Z" name="Haa Alifu" name_en="Haa Alif Atoll" gn_name="Haa Alifu Atholhu" admin="Maldives" adm0_a3="MDV" iso_3166_2="MV-07" iso_a2="MV" postal="HA" type="Atoll" type_en="Atoll" wikidataid="Q2360912"/><path d="M232.84582568483887,199.15570684566447 232.78488738869527,199.1861919652986 231.26142624062012,200.3446275583213 230.34734955177507,201.86887893199378 229.67702604756084,202.72245697864076 228.15356489944813,202.08227382430763 228.09262660330452,202.05178895461773 228.70201106252202,198.45454686919115 230.04265657333826,198.02775257197104 231.44424112907603,198.7898844555302 232.84582568483887,199.15570684566447Z" name="Haa Alifu" name_en="Haa Alif Atoll" gn_name="Haa Alifu Atholhu" admin="Maldives" adm0_a3="MDV" iso_3166_2="MV-07" iso_a2="MV" postal="HA" type="Atoll" type_en="Atoll" wikidataid="Q2360912"/><path d="M344.1194390230686,197.72289950777488 342.5350395788123,198.8813399012765 341.80377852725115,200.3446275583213 341.07251672688705,201.25917917175727 339.36623994152797,200.52753837010866 340.0975017418921,196.960765320848 341.3162706603271,196.50348461816344 342.77879351224607,197.3265903554788 344.1194390230686,197.72289950777488Z" name="Haa Alifu" name_en="Haa Alif Atoll" gn_name="Haa Alifu Atholhu" admin="Maldives" adm0_a3="MDV" iso_3166_2="MV-07" iso_a2="MV" postal="HA" type="Atoll" type_en="Atoll" wikidataid="Q2360912"/><path d="M218.0987205733431,190.65023388457362 217.73308929871882,192.57084206700694 218.22059716564283,194.1865844203522 218.22059716564283,194.24755551540684 218.2815354617927,195.28406551552197 216.69713601758025,195.89377559354185 216.63619772143036,195.89377559354185 214.68616700258735,192.96715731002732 215.29555146181116,191.7477259836105 216.81901260987374,191.2904377744615 218.0987205733431,190.65023388457362Z" name="Haa Alifu" name_en="Haa Alif Atoll" gn_name="Haa Alifu Atholhu" admin="Maldives" adm0_a3="MDV" iso_3166_2="MV-07" iso_a2="MV" postal="HA" type="Atoll" type_en="Atoll" wikidataid="Q2360912"/><path d="M309.5063984438808,191.13800873907562 309.44546014772465,191.19898036111522 307.92199899966204,192.35744217391624 307.1907371992979,193.75978571093958 306.3985378515932,194.61338261347294 305.4844604139013,194.3085265998835 304.7531993623402,194.0341558875228 305.60633775504164,190.46731795285288 306.76416837737065,189.91857033743094 308.1657529331084,190.71120559097704 308.2266912292896,190.74169144027076 309.5063984438808,191.13800873907562Z" name="Haa Alifu" name_en="Haa Alif Atoll" gn_name="Haa Alifu Atholhu" admin="Maldives" adm0_a3="MDV" iso_3166_2="MV-07" iso_a2="MV" postal="HA" type="Atoll" type_en="Atoll" wikidataid="Q2360912"/><path d="M209.56733664646632,184.79688596816206 208.04387549835988,185.89439629761426 207.12979880950854,187.29676479843394 206.52041435028477,188.24183705154712 205.11882979451568,187.66259985807042 204.93601490607227,187.57114075413432 204.8141375649257,187.5406546306292 205.4844610691462,184.065210265181 206.88604487606847,183.45547972584987 208.22669113564382,184.3091023350976 209.56733664646632,184.79688596816206Z" name="Haa Alifu" name_en="Haa Alif Atoll" gn_name="Haa Alifu Atholhu" admin="Maldives" adm0_a3="MDV" iso_3166_2="MV-07" iso_a2="MV" postal="HA" type="Atoll" type_en="Atoll" wikidataid="Q2360912"/><path d="M315.539305488897,157.78486225410725 315.17367496311334,159.79711563507504 315.6002437850406,161.38252020542814 315.78305942233084,162.41912631757037 315.84399771848075,162.48010366928287 314.13772093312167,163.15084709500002 312.1876902142787,160.16297932587935 312.6142597850528,158.91294484583025 314.25959752541513,158.516591957155 315.539305488897,157.78486225410725Z" name="Haa Alifu" name_en="Haa Alif Atoll" gn_name="Haa Alifu Atholhu" admin="Maldives" adm0_a3="MDV" iso_3166_2="MV-07" iso_a2="MV" postal="HA" type="Atoll" type_en="Atoll" wikidataid="Q2360912"/><path d="M396.2827545740558,141.38151147183692 396.2827545740558,141.44249174039675 395.55149277369793,151.869987401765 392.32175484022616,161.99228905414537 388.72638638101455,166.59601031569815 386.53260172873775,160.46786494355365 387.20292523295194,153.63836231227663 389.4576474325757,146.50382966156369 392.6264470698537,141.62543248220737 396.2827545740558,141.38151147183692Z" name="Haa Alifu" name_en="Haa Alif Atoll" gn_name="Haa Alifu Atholhu" admin="Maldives" adm0_a3="MDV" iso_3166_2="MV-07" iso_a2="MV" postal="HA" type="Atoll" type_en="Atoll" wikidataid="Q2360912"/><path d="M180.56063354151433,112.29263213521601 180.56063354151433,112.59755959008568 180.8043874749607,115.00647714799523 179.53504980478408,116.57923706864727 180.56063354151433,112.29263213521601Z" name="Haa Alifu" name_en="Haa Alif Atoll" gn_name="Haa Alifu Atholhu" admin="Maldives" adm0_a3="MDV" iso_3166_2="MV-07" iso_a2="MV" postal="HA" type="Atoll" type_en="Atoll" wikidataid="Q2360912"/><path d="M384.6435100548476,101.86395130966449 381.7794026471971,116.92750116332029 381.17001818793574,117.11045552744585 380.8043876621583,117.11045552744585 380.68251032106184,117.11045552744585 380.56063372871193,117.04947025053437 380.19500320294077,116.92750116332029 379.707495336023,116.62257750867097 379.1590491729491,109.36531464320583 379.707495336023,104.66935795421996 381.35283382527604,102.19938150299052 384.6435100548476,101.86395130966449Z" name="Haa Alifu" name_en="Haa Alif Atoll" gn_name="Haa Alifu Atholhu" admin="Maldives" adm0_a3="MDV" iso_3166_2="MV-07" iso_a2="MV" postal="HA" type="Atoll" type_en="Atoll" wikidataid="Q2360912"/><path d="M155.08836059966794,87.10469586442171 155.08836059966794,89.60527544577117 154.052407318473,91.2824825479405 153.99146827352016,91.31297782852627 155.08836059966794,87.10469586442171Z" name="Haa Alifu" name_en="Haa Alif Atoll" gn_name="Haa Alifu Atholhu" admin="Maldives" adm0_a3="MDV" iso_3166_2="MV-07" iso_a2="MV" postal="HA" type="Atoll" type_en="Atoll" wikidataid="Q2360912"/><path d="M220.84095063985325,59.59712817362831 220.84095063985325,59.74961556200364 222.120657854482,69.90509905693537 219.01279726219443,66.1235123362625 218.95185896601322,63.43978060034551 218.95185896601322,63.37878660728616 220.84095063985325,59.59712817362831Z" name="Haa Alifu" name_en="Haa Alif Atoll" gn_name="Haa Alifu Atholhu" admin="Maldives" adm0_a3="MDV" iso_3166_2="MV-07" iso_a2="MV" postal="HA" type="Atoll" type_en="Atoll" wikidataid="Q2360912"/><path d="M198.53747733532248,38.004280900405085 198.53747733532248,38.095779399199365 197.44058500913707,42.274161065364055 196.89213884606943,39.98673190842729 198.53747733532248,38.004280900405085Z" name="Haa Alifu" name_en="Haa Alif Atoll" gn_name="Haa Alifu Atholhu" admin="Maldives" adm0_a3="MDV" iso_3166_2="MV-07" iso_a2="MV" postal="HA" type="Atoll" type_en="Atoll" wikidataid="Q2360912"/><path d="M170.74954314885565,10.889299924806602 170.74954314885565,10.980804938097316 170.0182813484477,18.026635181185434 165.93540502232457,13.664947809319626 166.0572823634649,12.170370873177676 168.37294360808534,11.71284640863432 170.74954314885565,10.889299924806602Z" name="Haa Alifu" name_en="Haa Alif Atoll" gn_name="Haa Alifu Atholhu" admin="Maldives" adm0_a3="MDV" iso_3166_2="MV-07" iso_a2="MV" postal="HA" type="Atoll" type_en="Atoll" wikidataid="Q2360912"/><path d="M148.9945152585081,0 149.54296142157574,1.1591017658573228 149.54296142157574,2.653727040262669 148.01950027350688,4.209350300217395 148.9945152585081,0Z" name="Haa Alifu" name_en="Haa Alif Atoll" gn_name="Haa Alifu Atholhu" admin="Maldives" adm0_a3="MDV" iso_3166_2="MV-07" iso_a2="MV" postal="HA" type="Atoll" type_en="Atoll" wikidataid="Q2360912"/></svg>