<?xml version="1.0"?><svg fill="#3498db" stroke="#ecf0f1" stroke-width="1" width="800" height="624" viewBox="0 0 800 624" xmlns="http://www.w3.org/2000/svg"><path d="M302.53330905093515,523.9387677293993 302.1991997745518,523.7919715847854 301.88075193994894,523.5130540094102 301.421351735433,523.254148644863 287.125130475421,517.5881944733885 272.8289092154046,511.91954951954375 271.1844652532893,511.56420918613435 263.72443234312533,512.8586120264594 262.32012946129464,513.5665331429243 261.7406586913776,514.3345130955724 260.8949446739254,516.2348831398874 260.1954034901429,517.0614428127438 258.644927724132,518.1683288026469 258.06545705523735,518.4153279610582 256.32704489702616,518.7464323055981 249.09149157484873,518.4260089045451 243.98066427432917,519.3485381639393 241.04676748152005,519.1723151799534 239.8982669702231,518.660986936171 238.76020738644235,517.5741747819577 237.60126594763634,517.0534311645433 235.98292425379816,517.2270148784332 225.93084771967716,519.6858773359565 225.92575479112327,519.670313601534 222.97880685601197,510.6611574668878 218.2281910611058,502.8136228447388 218.01676255464932,502.16120734557734 215.97817417250099,484.69278286721953 215.50050238012687,482.6037870226109 211.65302563972838,474.7800313541385 210.5306273765139,473.47197144051955 207.12949966492255,471.2924273324465 199.97225325441897,459.3845620838393 199.58071895965023,458.34849191264567 199.42410527808318,456.090810499728 199.62770308228946,448.8743943792632 188.35673660004426,416.73817653421173 187.94681166013785,416.00082690991604 188.58639592904504,414.47708294884046 188.9883711332514,412.4662502980569 189.44255087400919,407.3700452293718 189.76621917237017,406.4071481456886 190.5336263344875,405.2148658979391 193.4727435910576,402.2713365425731 193.51972771436147,402.1202253340267 193.55105049690434,401.96641340782855 193.54060951888056,401.6479884849247 193.54582998263868,401.57242859031777 193.53538905512247,401.49956671647186 193.50928678684383,401.4294029727758 193.4727435910576,401.36463602423555 192.8462887483457,399.82360178226037 192.64791142863206,398.37951610096155 192.86195013961716,396.93792711804576 197.37764537997057,385.8438458063269 198.13983207832408,384.6545721184257 199.1056166106684,383.6219528679211 200.290660317753,382.7054824488701 202.48847268048152,381.57262072322857 203.2036753060459,380.9101485209022 203.61087092350132,379.6851360839252 203.58476865522266,373.9014910311083 203.56388680019745,369.3896556464645 203.5273436044069,362.37830467186484 203.5116822636416,359.06723843154407 203.64219365553802,358.6011069003478 204.29997123027803,357.55223000878357 204.52445091929124,357.0074202294909 204.24776669372653,351.8532661957839 204.31041215779138,350.9040195588152 204.60797818787805,349.9818056282813 205.00995339208433,349.81091522625934 205.54766045194083,349.78378950452236 206.22109941795807,349.29551325933147 206.2054380266823,343.78442636812576 206.1897766354152,340.4697497374387 206.17411529464988,333.97281984354476 206.15323343962032,327.4687538954735 206.127131171346,320.9629513295292 206.10624936682692,314.44993573047543 206.09058792504499,307.93238921373467 206.06970612052595,301.41027470595486 206.05797822314906,297.74523219994336 206.04882431600686,294.8835552259862 206.03316297524586,288.35219351459517 206.01228112021627,281.8175183826432 205.99139931569724,275.280862475523 205.97051746066768,268.7326172487066 205.95001983642624,262.30557877492123 206.6988119951876,262.30557877492123 233.15869783861254,262.6286858483738 237.9328057402667,264.0578832056055 231.3184868076464,277.8589597977887 230.9243423090799,279.16274302299473 230.86169682736852,279.47431112167584 230.8382047660461,279.80499890995685 230.86952752961597,280.4636054932758 231.0809560360725,281.66045246738264 231.36547093028847,282.45826259536403 231.50642329820894,283.02925487419526 231.53774601635038,283.3434218691106 231.5142539550308,283.66577324032056 231.44377777107204,283.9607966886572 231.05746392932738,285.03427330074595 230.9948184930387,285.34290854174947 231.53774601635038,291.6498871810541 231.42028570974955,292.2967206129197 229.91418389943928,294.70079401372715 229.63227920902403,295.32285793665073 229.63227920902403,295.95579206828467 229.67143267484133,296.2667868405387 229.82021565416093,296.7714489766801 230.07862828325668,297.3797345690531 230.5954535414481,298.3152703606839 231.3733016325359,298.69982168835537 232.2503383765035,298.90709090351726 237.61957828628152,299.3107071126813 238.2930172714655,299.5970457185499 238.6297366959192,300.2869488968329 239.74169400766297,305.6053834090607 240.08885442901578,306.36296434223925 240.77795472784646,307.07961166051126 249.57181441053544,314.39008004416087 256.2409481226168,323.5337555397674 257.3633463858342,324.59178132720973 258.3969968567944,325.40493928730206 285.4076409257784,342.3593788643447 296.74125288973494,350.97186831833505 301.19169238593025,355.9665477642608 301.42661295370635,356.34063925768436 312.4704895704257,382.9353259623569 312.61144193834616,383.46520078976926 313.4754275724678,384.9789756331982 313.7808242333516,385.3763039354916 314.0705596260172,385.68172258098036 317.5186714148222,388.3192917878875 318.2156024159003,388.73810493879336 318.56015258802984,388.8705003630235 326.3751765792225,390.92105800407336 327.22089060504584,391.3802830921775 327.4479804705745,392.1204022319069 327.4714725318941,392.9658010668262 326.3673459224007,401.3943630994497 329.369108636973,431.24156812517066 322.23796449158687,457.4894999799566 322.1283348872335,458.5041770747195 322.16748830762526,459.48655339288166 319.17355629530323,483.89740263109513 319.30667796097333,485.48542997240787 319.5807519037156,486.8028164252065 321.16255035101165,490.60150408921953 321.3035026735065,491.15286533483925 321.49926982089085,492.3464987810812 321.85948135208963,493.719292214263 322.0656893600966,494.2303685270367 322.13616554405826,496.79611243444896 321.6950369682752,502.3216407401093 321.46794705732094,503.24141655504803 321.28001061218686,503.40450878238266 320.5439261907142,503.8456484951165 320.1132385209793,504.02209979374544 318.41136956328467,504.40440167943314 318.1529569341889,504.4899500338589 317.91020566416546,504.59955796100337 317.6909465008869,504.73322483287103 317.0958144019092,505.36945806713055 316.61031190728767,505.797158517882 313.3788491233859,508.09845438763494 312.6271032974184,508.7425228546166 312.1807542231857,509.3464721213138 312.188584925436,510.14278276118006 312.83853180387484,512.8359461116562 312.83853180387484,513.7762717362823 312.23556900264964,514.6203642022434 310.60678647814,516.2442723750839 309.9620600527252,517.0454612902539 309.7114780804514,517.9053441855335 309.6175098805985,518.7811860773179 309.6253405374204,521.7099843929536 309.6958167213792,522.5455085170113 309.6964273209232,522.5527466493451 306.9498155809155,521.9568688261213 305.97881058481596,522.1597448834451 303.0605752337902,523.7973096643369 302.53330905093515,523.9387677293993Z" name="Tahoua" name_en="Tahoua Region" gn_name="Tahoua" admin="Niger" adm0_a3="NER" iso_3166_2="NE-5" iso_a2="NE" postal="TH" type="Département" type_en="Department" wikidataid="Q871083"/><path d="M200.3965188546139,546.1383810976213 198.80283011682795,557.1853639167825 190.7372241684697,569.842644431082 187.4692181497834,572.9667943287476 176.422731285305,581.253442593856 176.2139130380752,581.7954258555559 176.7150769021397,594.5893229943591 175.3525376293472,601.334495578365 175.32643536106858,603.5626852849555 176.58456545973857,607.3205996857841 176.81948602575324,609.0758825156676 175.96333113129958,610.7805713480794 175.1019557225716,611.6686222860486 174.54336685819604,612.402877785473 174.31366670542468,613.2431147556478 174.60601232226517,616.1557161940718 174.76784644618252,616.6591973878867 175.0549715992634,617.2024065805704 175.22724670121463,617.3746391811484 175.4412854121997,617.5018249745125 176.62632911928722,618.7683197397611 177.24756349823812,619.7088425188226 177.4981454555285,620.7234761018774 177.13793391086654,621.8307463778207 176.52714045942895,622.450567512421 173.93257335624796,623.9999999999999 173.57758232585599,623.7060182569005 173.10774119382245,622.892901634189 172.68488413458513,622.6624658708662 172.5073886193863,622.270451367761 172.40819990901758,621.8175020453792 172.2202634663097,621.4254638651057 171.96446109577167,620.6148634967227 171.7765246530609,620.2121947766968 171.55204496405202,620.0029084741766 171.2701403252411,619.8333577041363 170.9308106356087,619.5339895505965 169.2393825501895,617.1202641426299 168.83218698324606,616.7333931143916 168.26837760460188,616.3412113868483 166.42033585901768,615.6840172213292 164.15465756845904,614.2847252975588 163.59084824032965,614.1018528450084 163.04792071671503,613.7838078850134 162.4527886060384,613.6671896333656 161.7428064442307,614.0912514013647 161.06414706497162,614.4066389523344 160.36460583067722,614.2264184148796 159.7433715022382,613.8076615129862 159.3152939792428,613.4074452832293 158.59487094043362,612.5725196360418 157.44114996538144,610.6294644529183 157.0704975437137,609.6962759742862 156.81991558642764,608.5323522620062 156.69462460778462,607.4372720144255 156.53801089710484,607.1614993905384 155.8541310540862,606.6444108446641 155.69751734341074,606.3712740394892 147.01067701609873,598.453219310027 144.96425795079804,595.4386265894831 144.4683145504873,594.4831562696705 144.2803781077751,594.2150814793526 143.85752104853924,594.0823691844523 142.1817543543915,593.8939155225794 141.58662229422967,593.6736071161304 141.0280333793436,593.3842809260703 140.61561729813013,592.9542615368256 140.29194899976915,591.799511349752 139.9004147230762,591.1676745448906 139.39403039525067,590.6181114167011 138.36560039884722,590.0658704543919 135.94330838224639,587.8991644920662 134.83139186274576,587.4636977252123 133.01728305147435,586.3589295289376 131.9392587070984,586.1331843182617 130.81163999085985,585.6471549427844 130.2582715615,584.4731739167216 130.07555556938712,583.0281302903026 130.0598942557405,581.7290490375741 129.92677254464482,580.9771702058193 129.59005312019113,580.5095488671756 129.13326309448482,580.3421575730707 128.64776064528596,580.4856359563854 128.43372188960606,580.7114782672029 128.21707288469995,581.0595336088381 128.05784899933505,581.4341476467586 127.98998306459964,581.7290490375741 127.84642049287854,582.1514638371449 127.54363399036698,582.1886569565484 127.27739070444653,582.0425405892066 127.23823723862922,581.9229896475566 125.19964885648093,581.9229896475566 125.03259422344021,581.4022660399962 125.03259422344021,580.0100257094192 124.8237759207844,579.3988810663162 124.6749928960392,578.4263048470546 124.39308820562391,574.9127328908595 124.42441096919379,573.5782831022493 124.6906542551114,572.3899221734684 124.80028385946481,571.4088437919942 124.79245315721451,570.7547501223546 124.7063156596091,570.1484872771007 123.83710957246626,566.8348088634646 123.74314132718504,566.2230410493686 123.72747996811285,565.5713432142492 123.81361751114667,564.9435537984672 123.89192435193021,564.6589103185145 124.08769145388901,564.2997716470416 124.41658026694353,563.9060375907532 125.13700332934405,563.2701847095118 125.88091840763862,562.732744466751 127.05813145031703,562.1500485769642 127.26955995677359,562.009026818566 129.01580283330952,560.5561456477363 129.88761912425306,560.0079457961145 130.0598942557405,559.7231918226202 130.1225396920292,559.3213319758974 129.87195771975536,558.4377276428252 129.29770747829932,558.0704281596695 128.50680827736554,557.8335409199464 120.81968545339619,557.0642922758135 120.56649327732454,557.0110553820141 120.44120235932448,556.9311995276909 117.337640742649,549.960495111214 117.2749952155121,549.6408893761713 117.29065662000694,549.3638910921024 117.36113275854306,549.0495971653152 117.5647305627493,548.6607140695568 117.89361937580667,548.1599426188105 118.53051509897405,547.4407143458433 119.00818689134817,547.0357972224019 119.68162587653508,546.689476029386 120.08099082812565,546.5562730632388 120.44903301614926,546.5029914493917 120.74659906563672,546.5402885706067 121.90032004699555,546.8333337192832 122.50328280279527,546.9292378751524 123.12973766533722,546.897269920805 123.42730371482757,546.8439897679667 123.97023123813929,546.6788198946749 124.47922574865774,546.4816787584635 124.72197697325574,546.3378169998314 129.14109379673226,542.9112836972299 130.85079345667714,542.5062187421473 131.5085709919379,542.4982238405422 132.5683237734439,542.6314705052425 132.71710679818622,542.6714441596777 132.912873900145,542.7647156874983 133.55499007633648,543.1617778425257 134.08747673902562,543.3483127077516 134.39287344533497,543.3856193155702 134.70610085389464,543.3856193155702 135.0454305730001,543.2017497830822 135.3899806997041,542.8926297154097 136.3061709094861,541.424203608668 137.08923945359797,539.3105357896345 137.598234009542,536.943223269484 137.58257260504428,536.6392784521414 137.52775782558322,536.3593226620895 137.08140875135058,535.3967590152141 137.00310191056704,535.1327740299108 136.95611783335053,534.8474505349395 137.02659397188663,534.252782918641 137.38680550308547,533.1540384439749 137.64521813218406,531.9645092334687 137.76267839335645,530.9189078656402 137.89057956057988,530.6521584375175 138.09417741021454,530.3774003887545 139.1199971789244,530.0759596276575 140.59999672411436,529.7825145950171 141.330860692563,529.5050691217033 141.79287112586496,528.9394874626116 142.8421829558973,526.5247972833106 143.20239448709611,525.8736822472524 143.69833788776867,525.6415139070907 144.0350573576479,525.5507802558332 147.53015326909212,525.5614548329801 148.36020593584604,525.4653832058674 149.0727982959963,525.2198634018636 149.4512814354935,524.5046250805299 149.69403266009152,523.6879203929313 150.54757738816218,519.352584911655 151.18186290753178,517.9694323537746 152.08500191661676,516.3831490134194 152.60182717480816,515.8249620509343 153.26743541231923,515.8383160776431 154.07399606317625,516.0893696620537 159.294452948212,518.3112301411908 160.06186008782618,518.5195082962267 160.64394107695517,518.4607635693261 169.08541993069275,514.8233648337953 170.69854109613019,513.861752169031 180.0562101142271,505.1823341767623 180.98284118463167,503.94456845527264 181.36654482257853,502.89383534218115 183.1702126369507,495.02235842801326 183.42862526604642,494.2544501065112 183.66354583382252,493.7647815901 185.15920673808463,491.66405534524984 192.06587126716835,485.6996494138141 192.77063292507114,485.33547390065723 193.53804006468536,485.03555590154264 194.04703466605486,484.89094978702076 194.7622372300058,484.8373914902478 196.11694585719863,484.89094978702076 196.50848006111624,484.8427473265644 200.40555117337726,482.9921549258958 201.22777313788092,482.45379307469983 201.90121203221386,481.82433273715486 202.45719075622262,480.1822148594255 202.85655570781603,479.77499715686236 203.33683770399085,479.55262870590263 204.6837155835078,479.1293128446747 206.19764809606835,477.47072688736563 207.12949966492255,471.2924273324465 210.5306273765139,473.47197144051955 211.65302563972838,474.7800313541385 215.50050238012687,482.6037870226109 215.97817417250099,484.69278286721953 218.01676255464932,502.16120734557734 218.2281910611058,502.8136228447388 222.97880685601197,510.6611574668878 225.92575479112327,519.670313601534 225.93084771967716,519.6858773359565 219.91435787165705,521.1573436193794 217.17883849957965,522.2371571820274 214.81397149865947,523.9174156994903 206.86843601467424,531.5123627327113 205.45891266908836,532.2098508575651 203.93975973612655,532.4992366460029 200.67175366692976,532.6045873826248 200.56734454331627,544.9536871430308 200.3965188546139,546.1383810976213Z" name="Dosso" name_en="Dosso Region" gn_name="Dosso Region" admin="Niger" adm0_a3="NER" iso_3166_2="NE-3" iso_a2="NE" postal="DS" type="Département" type_en="Department" wikidataid="Q850055"/><path d="M679.5938610645144,520.6701276859211 667.1013076586638,520.1375046161295 667.0472327501535,520.1466754132342 665.5821546751916,520.3951423109934 665.1175340069161,520.7635678846228 665.1436363257053,521.6512135425587 664.3762291130774,522.1917775693502 662.3611327798092,524.0828930830768 662.0113621626633,524.5512886382143 661.7398984008582,525.0703724062815 661.7242370600987,525.2785334666376 661.9800394306324,525.6441408666523 662.0531258222135,525.9363519488638 661.9121735028095,526.3446350606276 661.5885051539381,526.4206863090039 661.2335140730341,526.3953359116423 661.014254898291,526.4820606262965 660.5444137662573,527.1958476668402 660.6488228898752,527.4466637947561 661.3640255154368,527.5400514365114 660.4400046426439,528.7300137955025 659.2184177397659,529.1768865645072 657.8558784669763,529.4303294539768 656.5037801216957,530.0399046445046 656.6812756368945,529.625076734727 656.7909052747766,529.1048544432624 656.6812756368945,528.6926625467299 656.1905527003419,528.5966157876991 655.9086480110234,528.8073840097381 655.5327751256019,529.6704283692704 655.1569022401789,530.0399046445046 655.1725635809385,529.4836851962058 655.1569022401789,529.3022747463597 654.3268495634834,529.5810587991028 653.3767264224134,529.63041223905 652.807696580014,529.419658267056 653.0843808560892,528.9181025642525 653.0843808560892,528.5966157876991 651.6905188512642,528.7126721751944 650.3958455568079,529.1875579649665 645.8540479976698,531.4643505962978 644.4601859928448,531.7310822162293 643.0506626472588,531.4163382704492 642.8418443495186,532.257860054384 642.3824441450013,532.3005346798265 641.7351074977688,531.988472714584 640.9520389948963,531.7710914318747 640.9520389948963,532.1551734404105 641.3696755398635,532.2738630435388 641.7246665702569,532.4832339528415 642.0431144553688,532.7952832989977 642.3615623404821,533.2100031487131 641.6985643019826,533.7567183679189 640.29426136964,535.3233887274664 640.2577181738495,535.4700454759394 640.3308046159425,535.8873409586317 640.29426136964,536.0286581966252 640.1428681227197,536.0579880074721 639.7043497227229,535.9939956492582 639.5738383308324,536.0286581966252 639.3545791055772,536.1486433189692 638.6811401900719,536.3886099865638 638.5401878706692,536.5739143582459 638.7385651903816,537.181799712024 639.0570131260052,537.5643787597762 639.0778949305244,537.764328199891 638.3679127687182,537.8229794495876 638.2582831813464,537.6363609581612 637.971158078776,537.2817779559656 637.6735919981818,537.0564924468559 637.5326396787792,537.2631154115894 637.4647737004458,537.2871101136545 637.1254440613238,538.1415573097833 635.8255503031095,539.7329901633051 634.995497626414,540.3793676969234 633.852217528369,540.6392419307398 633.2623058814504,540.911104394598 632.9125353148123,542.0997662459607 632.4687964510559,542.368931643552 631.70138928894,542.2196921677705 631.2002254753888,541.8585784299067 630.7669274886354,541.4055056694599 630.2292204792849,540.9937281215595 630.1665749647111,541.8292625009029 630.0673863048514,542.1344116432925 629.7332770789785,542.4861899747494 629.3835064618341,542.7406900134516 629.0232949171766,542.8579448187237 628.8510198152253,542.5608083289266 628.5899969809321,542.7406900134516 626.7471756485927,544.4807438862968 626.6010028654306,545.3173749318357 625.9432252906862,546.2618476563399 625.5986751878105,547.0277637043722 626.4026255457168,547.3274570996541 626.0841776606051,548.4662263577852 625.8127138987956,549.0162612938622 625.4055182308298,549.4730514487258 625.0244248816487,549.5902427956366 623.881144834114,549.7979882632093 623.6514447318576,549.9857552928687 623.218146846125,552.7340220845197 622.9884466933537,553.3437786574449 622.2836849953054,553.6859216901007 621.4588528328785,553.5181795499913 620.4930683005429,553.1786946392705 619.3341268617327,552.9923068730317 617.9415453108475,552.9431599869794 616.1653095029045,552.8804728845562 615.3404772899628,552.6394938673542 614.8601952809322,552.931064566864 614.4895428087567,552.6714471435921 614.1136699233352,552.2187679737087 613.6125061097754,551.9365009306621 613.1322240502286,552.0030739271451 612.8189966288747,552.2507223220574 612.5945169903734,552.5170055113728 612.4065805476655,552.6394938673542 612.004605343455,552.5675986595392 611.9158575606024,552.3732132791469 611.8949757560833,552.0882868424569 611.7018188496173,551.7434372869305 611.127568593966,551.4265401597728 608.5799856140889,550.529065186094 607.73949200988,550.7008420871572 606.6797392814442,551.4292031721675 605.9645367063887,551.5517021607368 604.288770062753,551.6928408118879 601.3183300236385,550.975147559304 600.3264432230199,550.4811270155462 597.998119417886,548.6393634404153 590.971384443965,544.3448525680773 585.3907159609057,542.0731159059449 570.1208795234232,538.2055384652838 545.52208652465,538.3361657048689 536.3445232607897,537.2631154115894 531.4790574032947,537.6550229349596 530.1099884720401,537.9488689633879 530.1008975347083,537.9323248982932 529.9573349629873,537.6710604869194 528.3259421892514,531.7617976253431 528.4982173207417,530.9109054967325 528.8688697125631,529.6811409977078 537.6157453180383,520.5967516239796 537.9837875060621,520.0307518711433 538.1795546534463,519.6462839915431 538.2813535555495,519.2404433571311 538.359660396333,518.6263162902765 538.3674910985804,517.2430796495099 538.2813535555495,516.2202358704012 538.312676273691,515.7688748543735 538.5710889027895,515.3629023484198 559.0822641419563,496.45636458535586 560.0950328008204,495.7714882330053 560.7528103815066,495.696577441647 561.4654027416598,495.90525635551904 563.4961604669833,497.0636234111266 564.1069539250303,497.33380326211164 564.5376415947653,497.35252837413685 565.1562657550628,497.224127066133 574.3677619522123,494.3400730579176 587.0560825433645,486.12807644636666 587.7060293763778,485.80140233825085 588.2071932754999,485.70500489270097 592.3783383305033,485.92189795611455 593.0831000338317,485.82817923638424 593.7356571614939,485.50149651613964 597.1524462321574,483.0858969739928 597.4813349543608,482.60646544220907 597.2150916684433,482.2207628977929 595.176503286295,481.5109288499758 594.5892018441419,481.19483757544253 594.2368210151906,480.7260420026018 593.9601367777964,480.1768567842685 593.6704014305592,479.3811609326515 593.5372797648863,478.6657906494518 593.686062835054,477.438570939611 593.8661685779435,476.784713988769 594.1350221130874,476.1576189526998 594.620524607709,475.6859347309302 595.983063846301,474.7961131010795 597.4343509225728,474.0938549300326 598.3192183233623,473.98663607590953 598.4131865686436,473.8526111429257 598.2800649029705,322.7748415039645 599.3215460307525,322.2307796481466 600.12288618316,321.4772021413585 610.3810840519695,314.50443092046686 648.9211072322975,296.46319916471515 778.1744000431305,296.4359199458668 778.5946468068172,296.4359199458668 778.6148368659883,296.4359199633525 778.5763344493929,296.8914300443722 778.3727366154106,299.29975619011 778.1691387814284,301.7074536996553 777.9655409979524,304.11179885497063 777.761943163973,306.520970381751 777.5583453299909,308.9240690023628 777.349527082761,311.3292713182176 777.1459292487774,313.73385436176625 776.9475518785532,316.14054206204895 776.7439540950772,318.54389132542855 776.5403562105831,320.94662677488435 776.3367584271115,323.3460303216789 776.1331606436396,325.7502638913042 775.929562759147,328.1484505322299 775.7259649756753,330.5487500961897 775.5171467284483,332.94572782552484 775.3135488439499,335.3475375566643 775.1099510604781,337.74602902355423 774.9063532265003,340.14392146345864 774.7027553925137,342.5385021774924 774.4991576090421,344.93520273199067 774.3007802388179,347.3313098536425 774.0971824048343,349.7241125874073 773.8883641576044,352.119038671945 773.7787345197224,353.44779255267196 773.6051116233623,354.06886139772973 773.4550662213657,354.60555924162776 772.7920681828618,355.5734229101264 771.0745378796802,357.4275498397649 768.2450502104803,360.4817581661969 765.4103421280328,363.54585396660053 762.5756339950791,366.6008754234581 759.7409259126314,369.6576622084576 756.9062177796777,372.7108030511842 754.0715096467195,375.7684206239742 751.2420220280317,378.82239974224683 748.4073138950764,381.87274684923545 745.5726058126303,384.9248739134576 742.7378976796707,387.9733779449641 739.908410060987,391.0263692303352 737.078922391787,394.07574502272695 734.2442143093439,397.12421125554664 731.4095061763858,400.1690726325782 728.5695776301844,403.221127875864 725.7348694972263,406.2614920254767 723.7824186280259,408.36521476511393 720.8224195669395,411.5442645955607 718.0660182893206,414.50133996966844 716.6251722116979,416.53064465256136 715.1216806195015,418.65654683503953 713.6077480997916,420.777978975598 712.1042565075951,422.9043705380081 710.6007649153986,425.0262957092156 709.0868323956843,427.14645013957664 707.5833408034821,429.268873032601 706.0746287475318,431.39087308241545 704.5659167420877,433.5084161008767 703.0572046861315,435.62688534102284 701.5537130939351,437.7476258484342 700.0450010379789,439.8679486118617 698.5362889820243,441.98516658154097 697.0327973898263,444.106001877813 695.5188648701121,446.2237353428934 694.0153732779199,448.34508662620885 692.5066612724758,450.45796668475447 691.0397128760699,452.50866828341645 689.7345986035855,455.3161778799903 688.0849342282226,458.8557607736749 687.333188457381,460.47014238137103 687.0617246450611,461.46441979944706 686.9990791809976,462.5686207723338 687.2026770149798,463.6284431176181 687.9126591262756,465.84301142861096 687.9753046408553,466.8998398062676 687.526345363847,468.1161415800389 686.7589381512234,468.52243997564676 685.7931536188834,468.6055751062797 684.7803850137457,468.8402274517379 684.2766108925448,469.2237058306624 682.6634897634871,471.03231321199826 681.6663824486042,471.73074099676677 681.4836664696514,471.9988399842596 681.5619732744758,472.26827295770596 682.1049007980905,472.75618494762483 682.2719554362865,473.06312968262574 682.5956237851536,475.04533559146984 682.5381987343336,476.0115178202514 682.146664508151,476.9534995040148 680.4500160094842,478.37503302144296 679.6311561102003,478.53291160532797 678.4349196257041,478.7635455497663 676.3885005098972,478.93234337475945 674.5665610830979,479.6892234082579 673.2771081513745,480.3308574085105 671.6222233122563,482.6399040941071 671.6065619714967,485.6929133261125 672.5723465038367,489.2912042088097 673.2771081513745,491.92762881722433 673.8043743342239,494.30524696845293 674.159365415132,495.95604598751487 674.5247973730374,497.6052724883383 674.8902293814544,499.25560217559547 675.2504409261165,500.90168666276685 675.6106524202667,502.5528866234169 675.9760844286837,504.1971698801686 676.3362959733457,505.8465686395266 676.6965074674929,507.4943994490939 677.0619394759129,509.14066350179615 677.4221510205707,510.7920418508079 677.7823625147222,512.4365105966593 678.1425740088679,514.0847580892421 678.5080060172894,515.7287706475033 678.8682175619472,517.3765619443254 679.2336495198567,519.022790643605 679.5938610645144,520.6701276859211Z" name="Diffa" name_en="Diffa Region" gn_name="Diffa" admin="Niger" adm0_a3="NER" iso_3166_2="NE-2" iso_a2="NE" postal="DF" type="Département" type_en="Department" wikidataid="Q1053302"/><path d="M333.4200036139475,547.979171372918 329.3116428145468,540.4366737948226 321.06593109385614,531.4136708847863 313.97655065586173,524.690069034825 310.604135412541,522.7496675886291 309.6964273209232,522.5527466493451 309.6958167213792,522.5455085170113 309.6253405374204,521.7099843929536 309.6175098805985,518.7811860773179 309.7114780804514,517.9053441855335 309.9620600527252,517.0454612902539 310.60678647814,516.2442723750839 312.23556900264964,514.6203642022434 312.83853180387484,513.7762717362823 312.83853180387484,512.8359461116562 312.188584925436,510.14278276118006 312.1807542231857,509.3464721213138 312.6271032974184,508.7425228546166 313.3788491233859,508.09845438763494 316.61031190728767,505.797158517882 317.0958144019092,505.36945806713055 317.6909465008869,504.73322483287103 317.91020566416546,504.59955796100337 318.1529569341889,504.4899500338589 318.41136956328467,504.40440167943314 320.1132385209793,504.02209979374544 320.5439261907142,503.8456484951165 321.28001061218686,503.40450878238266 321.46794705732094,503.24141655504803 321.6950369682752,502.3216407401093 322.13616554405826,496.79611243444896 322.0656893600966,494.2303685270367 321.85948135208963,493.719292214263 321.49926982089085,492.3464987810812 321.3035026735065,491.15286533483925 321.16255035101165,490.60150408921953 319.5807519037156,486.8028164252065 319.30667796097333,485.48542997240787 319.17355629530323,483.89740263109513 322.16748830762526,459.48655339288166 322.1283348872335,458.5041770747195 322.23796449158687,457.4894999799566 329.369108636973,431.24156812517066 349.441765458732,430.46654468759675 352.1224701079228,430.67645241441573 362.242325812607,436.1299182493326 365.50250115627796,438.02600921348926 366.1916014551086,439.7846376516299 366.45784478645174,447.0393171939808 366.65361193383615,448.0657088384421 368.6765390023406,451.54988390305675 369.27167105589,453.2203899241833 370.87174111148147,461.73280745155716 371.169307160969,462.4438921742692 371.63131759427375,463.09322033501576 372.5396771018084,464.1288469724884 373.035620502478,464.837095670894 374.13191645514956,468.1255700140393 374.8601702197975,468.9032894229055 375.690222841126,469.52810758371635 380.0258123707949,471.94124114007815 380.73840473094805,472.4372098510811 381.17692305750484,472.91707227269444 381.3413674413192,473.659612364348 381.6102210218886,480.0911279372115 381.71201992399176,480.7689041342389 381.9860939121596,481.478784399613 382.64387144742324,481.99576373570886 385.16013171279684,483.18231644207447 385.9588616159809,483.41264872330044 386.60880849441975,483.38050964059585 387.43364066272403,482.8287741711167 392.07201669490456,478.70866056401894 392.84203403831935,478.2370827218329 393.71907082770963,478.0763130947061 396.5172357380758,478.159377708801 396.9635848123084,478.2478006562392 397.1515212574454,478.4139267597285 398.8220674515701,481.0448250995752 399.6207974001797,481.99576373570886 400.05148506991463,482.28772610369265 402.0509200316711,483.22516932380915 402.6225601147521,483.3912226782297 403.5779036995031,483.8518741024112 405.23278853455565,485.172126691126 405.50686256814913,485.2765620568654 405.82792063353065,485.3461851038894 406.85374044766894,485.3970632520786 407.42015998687475,485.6701945147016 408.1484137515227,486.18162865079216 410.75864217132636,488.58854356973734 411.0013934867783,488.7464880143716 412.9929977462845,489.6941093544057 413.63511396790153,490.1009736650087 414.19892330330947,490.58812119336227 414.3946904506938,490.88521755933783 414.58262689582784,491.31077461171566 414.75490198189266,491.82998645952955 415.075960047277,493.6176093449691 415.22474307201935,493.9922258306742 415.54841143205266,494.52737109245066 421.8260108493653,498.90393203959763 422.5777566753357,499.6528115122937 422.82050789993366,500.4818719091388 422.9379681611089,501.37505172255464 422.92230684746227,503.0007845143971 423.00061368824583,503.6585003785133 423.1337353539189,504.30013876537663 423.4939468396921,505.29995523215666 423.68971398707646,507.1656953414019 423.70537534614874,508.9402795460444 423.6192378031177,509.7713559363 423.3843172353416,510.4954937749075 422.77352377729454,510.98179019352267 408.35984225797915,518.2738464685242 408.0935989266332,518.5088275047366 407.9213238405684,518.7171022628223 407.7803715180736,518.9200331560116 407.6002657297613,519.261803763035 407.326191787019,519.9453156004029 407.240054243988,520.2309906875143 407.1539167009542,520.8343566824191 407.240054243988,521.5044311894455 407.42015998687475,521.995617353373 407.85084770203514,522.849806451435 408.56344006218546,523.3943202515893 409.39349268351094,523.8720841454249 411.1345151070228,524.6434059769326 411.8940915443896,525.0757516406127 412.41874750483134,525.5801353434891 412.41874750483134,526.3193262914084 411.24414471137624,530.316045778198 411.24414471137624,531.1109638360019 412.44223956615093,538.3721962114427 412.44223956615093,539.2438946951627 412.12901211216575,540.1075351130455 409.0646039613075,545.7783388498007 408.82528967605987,546.1031283395228 408.77221756250725,546.0780208343791 407.2739464340689,545.6743914101619 406.53786200398827,545.3253679866025 404.8307725778081,543.985133210674 403.43691057297883,543.1217640791887 402.25186686589427,541.9904994039883 401.6723961464891,541.546759545643 400.2785341416642,541.0123850072393 387.4727533144555,539.1932056398635 385.73956167050864,539.3638067901209 384.0168108530584,540.1288171166507 365.6512434483306,551.1935224237757 364.0694450007934,551.7034926830983 362.257946400485,551.6928408118879 356.99050543980616,550.7274739360215 355.8628866825207,550.9431899562493 352.79325803405425,554.5578782547121 350.40228876485685,556.6623063244892 349.32165418138567,557.1933493455787 349.0300160642659,557.2418386562925 348.1209490830253,557.3929837848613 344.3622201277921,557.4116161722063 342.6760125061267,557.2279528978441 341.135977718144,556.6383489634819 339.49675427029723,555.4204567484745 337.66437386546966,553.7205348287118 334.67305207234807,550.278719420274 333.4200036139475,547.979171372918Z" name="Maradi" name_en="Maradi Region" gn_name="Maradi" admin="Niger" adm0_a3="NER" iso_3166_2="NE-4" iso_a2="NE" postal="MA" type="Département" type_en="Department" wikidataid="Q850036"/><path d="M530.1099884720401,537.9488689633879 505.5438274505165,543.2203617488389 503.4347628706362,544.1023762275046 493.8552244025653,549.4703880712084 492.9625262618091,550.3346481563035 492.7484875003093,550.8712850122756 492.55533059383896,552.1308930828426 492.3204100278244,552.6474821811607 491.91843487412854,553.0641996471476 491.714837040142,553.101477156771 491.45903466961266,553.0641996471476 490.92132760975613,553.2532489708271 489.95032266416416,553.8776241989646 488.2588945787493,555.4870112851562 479.58764548292305,565.7174920770734 479.23794502556296,566.1299018372483 478.6584743061578,566.6312912379003 478.1103263187836,566.9916943404502 477.76055570163925,567.1379805320588 476.69036204568573,567.2177722401306 465.96232311683127,565.9623243453984 465.04874312104124,566.0235036914919 462.354987358002,566.7829011682443 460.4808433441364,566.785561004459 445.7561061508752,565.066585159804 443.9841994895161,564.8597160086016 430.6772547477295,560.9273230048885 428.82399258889916,559.8575443059098 427.9573967669235,558.8049748726896 426.5061097112785,556.4040968713266 425.5194433744223,555.320624309724 423.3111900336614,553.6619586643775 422.10526452205914,553.0801757288957 420.74272524926516,552.7899398560362 420.14237272534524,552.7846143573629 418.8894630904348,552.936390003379 418.30999232051914,553.1227786000213 417.7357421153826,553.4116754811748 417.5269237671347,553.5554557632728 417.33376691117195,553.5368177219851 416.8273825833522,553.3411160001256 416.4567301616873,553.1068025209736 411.4137687384846,548.5088449451937 410.1556386398189,547.0011239043351 409.48742013756123,546.41636673333 408.82528967605987,546.1031283395228 409.0646039613075,545.7783388498007 412.12901211216575,540.1075351130455 412.44223956615093,539.2438946951627 412.44223956615093,538.3721962114427 411.24414471137624,531.1109638360019 411.24414471137624,530.316045778198 412.41874750483134,526.3193262914084 412.41874750483134,525.5801353434891 411.8940915443896,525.0757516406127 411.1345151070228,524.6434059769326 409.39349268351094,523.8720841454249 408.56344006218546,523.3943202515893 407.85084770203514,522.849806451435 407.42015998687475,521.995617353373 407.240054243988,521.5044311894455 407.1539167009542,520.8343566824191 407.240054243988,520.2309906875143 407.326191787019,519.9453156004029 407.6002657297613,519.261803763035 407.7803715180736,518.9200331560116 407.9213238405684,518.7171022628223 408.0935989266332,518.5088275047366 408.35984225797915,518.2738464685242 422.77352377729454,510.98179019352267 423.3843172353416,510.4954937749075 423.6192378031177,509.7713559363 423.70537534614874,508.9402795460444 423.68971398707646,507.1656953414019 423.4939468396921,505.29995523215666 423.1337353539189,504.30013876537663 423.00061368824583,503.6585003785133 422.92230684746227,503.0007845143971 422.9379681611089,501.37505172255464 422.82050789993366,500.4818719091388 422.5777566753357,499.6528115122937 421.8260108493653,498.90393203959763 415.54841143205266,494.52737109245066 415.22474307201935,493.9922258306742 415.075960047277,493.6176093449691 414.75490198189266,491.82998645952955 414.58262689582784,491.31077461171566 414.3946904506938,490.88521755933783 414.19892330330947,490.58812119336227 413.63511396790153,490.1009736650087 412.9929977462845,489.6941093544057 411.0013934867783,488.7464880143716 410.75864217132636,488.58854356973734 408.1484137515227,486.18162865079216 407.42015998687475,485.6701945147016 406.85374044766894,485.3970632520786 405.82792063353065,485.3461851038894 405.50686256814913,485.2765620568654 405.23278853455565,485.172126691126 403.5779036995031,483.8518741024112 402.6225601147521,483.3912226782297 402.0509200316711,483.22516932380915 400.05148506991463,482.28772610369265 399.6207974001797,481.99576373570886 398.8220674515701,481.0448250995752 397.1515212574454,478.4139267597285 396.9635848123084,478.2478006562392 396.5172357380758,478.159377708801 393.71907082770963,478.0763130947061 392.84203403831935,478.2370827218329 392.07201669490456,478.70866056401894 387.43364066272403,482.8287741711167 386.60880849441975,483.38050964059585 385.9588616159809,483.41264872330044 385.16013171279684,483.18231644207447 382.64387144742324,481.99576373570886 381.9860939121596,481.478784399613 381.71201992399176,480.7689041342389 381.6102210218886,480.0911279372115 381.3413674413192,473.659612364348 381.17692305750484,472.91707227269444 380.73840473094805,472.4372098510811 380.0258123707949,471.94124114007815 375.690222841126,469.52810758371635 374.8601702197975,468.9032894229055 374.13191645514956,468.1255700140393 373.035620502478,464.837095670894 372.5396771018084,464.1288469724884 371.63131759427375,463.09322033501576 371.169307160969,462.4438921742692 370.87174111148147,461.73280745155716 369.27167105589,453.2203899241833 368.6765390023406,451.54988390305675 366.65361193383615,448.0657088384421 366.45784478645174,447.0393171939808 366.1916014551086,439.7846376516299 365.50250115627796,438.02600921348926 362.242325812607,436.1299182493326 366.3403845252764,424.60629504367415 368.3163274257133,422.4223424088019 388.56909003578454,425.50828946198635 397.19850538008455,425.40866996784615 401.17127308390576,423.3056722376963 402.168380338272,423.10639086517523 403.12372396844574,423.04175821400696 412.3326099617975,423.25989167609913 415.3343726763727,422.9555808561579 424.60068374383735,419.68839915571795 445.2997953827155,408.18456922390294 463.07545119322765,401.4321437431729 545.6239262073921,347.66779090392174 560.4865670047379,343.20088595236865 581.1386946118251,328.99940455567656 598.2800649029705,322.7748415039645 598.4131865686436,473.8526111429257 598.3192183233623,473.98663607590953 597.4343509225728,474.0938549300326 595.983063846301,474.7961131010795 594.620524607709,475.6859347309302 594.1350221130874,476.1576189526998 593.8661685779435,476.784713988769 593.686062835054,477.438570939611 593.5372797648863,478.6657906494518 593.6704014305592,479.3811609326515 593.9601367777964,480.1768567842685 594.2368210151906,480.7260420026018 594.5892018441419,481.19483757544253 595.176503286295,481.5109288499758 597.2150916684433,482.2207628977929 597.4813349543608,482.60646544220907 597.1524462321574,483.0858969739928 593.7356571614939,485.50149651613964 593.0831000338317,485.82817923638424 592.3783383305033,485.92189795611455 588.2071932754999,485.70500489270097 587.7060293763778,485.80140233825085 587.0560825433645,486.12807644636666 574.3677619522123,494.3400730579176 565.1562657550628,497.224127066133 564.5376415947653,497.35252837413685 564.1069539250303,497.33380326211164 563.4961604669833,497.0636234111266 561.4654027416598,495.90525635551904 560.7528103815066,495.696577441647 560.0950328008204,495.7714882330053 559.0822641419563,496.45636458535586 538.5710889027895,515.3629023484198 538.312676273691,515.7688748543735 538.2813535555495,516.2202358704012 538.3674910985804,517.2430796495099 538.359660396333,518.6263162902765 538.2813535555495,519.2404433571311 538.1795546534463,519.6462839915431 537.9837875060621,520.0307518711433 537.6157453180383,520.5967516239796 528.8688697125631,529.6811409977078 528.4982173207417,530.9109054967325 528.3259421892514,531.7617976253431 529.9573349629873,537.6710604869194 530.1008975347083,537.9323248982932 530.1099884720401,537.9488689633879Z" name="Zinder" name_en="Zinder Region" gn_name="Zinder" admin="Niger" adm0_a3="NER" iso_3166_2="NE-7" iso_a2="NE" postal="ZI" type="Département" type_en="Department" wikidataid="Q204367"/><path d="M135.94330838224639,587.8991644920662 135.3429558231813,588.6798567000046 134.14225072482236,588.722342087893 133.62542551999542,588.8258994698946 132.60221593683386,588.7887251564706 132.11671346404077,588.8843161474067 131.5581245491533,589.2507420168752 130.74895372748873,590.217207969658 130.28433305921328,590.5942168451372 129.7570669268744,590.7243089010119 129.2245802802655,590.3658887817494 128.67643234340326,590.57828708975 128.40496858159807,590.8809487637216 128.25879579843595,591.2499742956148 128.1596070880658,591.6535012997989 127.99255250038463,592.0517067292822 127.28779080233643,593.166618572536 126.8283905978205,593.4320600078361 125.04821478005496,592.956916048906 124.69844416291063,593.0232779599453 124.09287117523117,593.4718757443103 123.7848642176312,593.6231745720077 123.53428226034511,593.5966310619692 123.10098437461254,593.3418104931749 122.90260700438847,593.3046487598529 121.10676979535289,593.7930518576817 120.87706969309639,593.9416927279324 120.41766948857473,594.382297056048 120.13054438601004,594.5548189283362 119.74945103682897,594.5813605333946 119.59283727564303,594.3504466387615 119.51453047081434,594.0690978926824 119.37357815141031,593.9523099356421 118.77844604072942,593.931075614504 118.3033844449406,593.8594096596413 117.94839336403818,594.005395487989 117.71347279802356,594.6397518892021 117.42634769545312,595.1758790529753 117.17054532491943,595.0909493958967 116.8834201718385,594.7936916300222 116.50754728641986,594.7061054325804 116.24652440161611,594.8972017619402 115.82888790715644,595.4731283747176 115.70881739227153,595.6058268618104 115.06148069452863,595.6695216394584 113.90253925572263,595.6217505589636 113.20821848518635,595.7093307600686 111.98663158231264,596.2719532654243 111.54289271855626,597.1636085069598 111.58465637810059,598.3311626806089 112.08059977841278,601.1912422124707 113.78246874083341,606.0026632906573 114.0643734301562,606.511820787642 114.42458492430629,606.9281490643508 114.94663064339751,607.3550711280444 115.48433770325833,607.5990206192898 115.96461976280524,607.7130389580356 116.29350852491999,607.9543305373477 116.39791769904396,608.5933348340484 116.36659491650106,609.473573880953 115.99594249483768,609.5531107663394 115.4686763624988,609.3595701865731 114.96229198416279,609.4072927813091 114.61252141752892,609.7758115650945 114.21576667707642,610.5181214478359 113.87643693693354,610.9025160813001 113.43791858744717,611.027110695752 112.96285699165408,610.9608371143347 112.53477951917058,611.0721765235419 112.24765441660445,611.7322416708971 112.31552039493789,612.2941997872128 112.90543204185636,613.1821528624494 113.00462065120416,613.7069459594603 110.37351040274308,611.4724608094529 106.36941990346138,605.8965863668793 102.81950924596418,600.9339130122751 99.0451188994538,595.6695216394584 96.87862921824293,592.6436834146618 95.91284473641196,590.8437801586015 96.03291520079073,589.3542952680707 96.795101949659,588.7170314218663 99.70811693795333,588.1116022971988 99.93781704021416,587.9363413096058 100.30324899811947,587.4317892082196 100.62169688323137,587.256519258417 100.77309007964112,587.3069760457327 101.31601760325574,587.569879146043 101.57182002430136,587.6150235769634 104.5735827449363,587.360088169509 105.31488763877934,587.1688834115018 105.66987871967889,586.6191542658287 105.57069000931305,585.4877555996077 105.57591047306686,585.2301230736707 105.73774464750616,584.6909376533017 105.73774464750616,584.473132431888 105.53414681352251,584.0853237850184 104.89203063004965,583.381395354594 104.60490547697303,582.985585096275 104.19248939575957,582.188615459378 103.94712790223161,581.5350641366675 103.56081408929244,578.4368929617541 103.39897991485886,577.7884690600758 103.05965027573691,577.0921746391573 102.60547048446433,576.5181023078247 101.68144961167295,575.9466625626936 101.14896301557455,575.5213887672758 100.61125595571946,574.9685119780821 100.41809904924918,574.6920647431064 100.12575348292492,573.689894067778 98.80497786968104,572.1452826749157 96.77944060889946,571.597579216399 91.86699062809639,571.1881158369372 91.40236990931047,571.4513438170468 90.54621501485252,572.3925392858904 89.98762609996645,572.7674031240532 89.59087141002871,572.6929629495421 89.23588032912198,572.5201537406982 88.82346424791282,572.6078879245279 88.59898455889962,572.8551356289984 88.25443445601958,573.5436823004756 87.39827951105545,574.8037075965286 86.86579291495418,575.819081871607 86.26021987676422,576.7014892789304 85.40406493179438,577.2649228602667 84.51136679103544,577.3632554710042 78.11630707306684,576.8131148507481 72.94283425797197,576.3612910882244 71.26706761433469,575.9253991755231 69.85232380499068,575.1359723265724 66.38071995232217,572.2090913074475 63.5982164064261,569.8692361716919 59.48449631977712,566.4052029852342 58.18187375510127,565.3072307643462 54.441534997595284,562.153998173125 51.41889042192937,559.6073840010467 48.54241867993314,557.1853639167825 47.01804523270564,556.4253927239342 43.405489010122636,556.1219237897064 41.95420205549857,555.3246176410172 41.50524272798408,554.5019683526853 41.35906994482197,553.5235047374533 41.354372664314425,552.5720602675196 41.33818808979242,549.2932672173068 41.312085821513776,544.4407759940458 41.29120401699469,540.0675114647672 41.95420205549857,538.0002643635535 43.02439571145206,538.1842114676705 47.06502935601382,539.7969630403971 49.77966692357216,540.4779872656442 50.90206521709953,540.945753128328 51.25183578373769,540.836476069683 51.75822016206795,539.0732502735077 51.998361141330214,538.5014470660315 52.26460443938588,538.2215337278873 53.17818438466103,538.4907838544292 54.00301659759703,539.227859206074 54.984462521209906,539.6956725411449 56.3574426710053,539.1532206820993 55.391658138663864,538.0695780728338 54.619030512788406,537.5270544505951 53.76809603157809,537.3111047688004 51.62770866915633,537.0458279802601 50.72456965139451,536.7498842880897 45.22220807418487,534.2060733111018 43.55688230755478,532.981975643679 42.61197957973242,531.4136708847863 42.3509567454406,529.0875133590334 40.309758143893724,526.9143403938118 37.57945913455346,525.2758647293502 35.24591486565997,524.5699707544381 33.34566858352572,524.7541210065187 32.44775002951913,524.7060820725653 31.45586317839002,524.2243478453291 30.850290140200087,523.6491773235078 30.808526531166223,523.3075316677503 30.98080158260123,523.0939982581223 31.017344778391756,522.9031495333999 30.975581118847423,522.5881757903809 30.986022046360773,522.1677530629272 30.83984926319866,521.8100484829533 30.32824447161501,521.7032688956878 23.62517779605074,521.9168270689056 22.29396130580542,521.4563375459412 21.59442002099913,520.1695427543426 21.813679246254218,519.3832484606053 22.304402182806864,518.3058479207557 22.60718867664875,517.3311639564762 22.26263852325679,516.8464627370741 21.291633527162983,516.4885989836796 20.72260373526973,515.8810072910309 20.205778530444203,515.1959271401199 18.50390956801784,514.0794156724504 17.736502405906236,513.3701894751482 17.52655129788745,513.0777258482417 17.12570895446435,512.5193291747707 16.697631481979425,511.5615373843675 16.30087674153123,511.1166788658073 15.247649580156425,510.42330746929775 14.935727211608018,510.04788130374965 14.907014787218204,509.50542954923657 15.320735971737482,508.5727818178195 15.342922879569555,508.1224656016949 14.798690252646255,507.5157809525791 13.912517729464561,507.0547331916111 13.078549742837247,506.4894238749696 12.677879641942493,505.57658566567875 12.57347046781854,504.6596665161167 12.04359412885083,504.205190192959 11.385816554106507,503.88303598099617 10.92119588583105,503.35233121332845 10.915975422077251,502.8978042170947 11.33361196704453,502.0649044445883 11.391037017864614,501.72932133207155 11.17699830687523,501.2921129013336 10.900314030801498,501.0193507403936 10.583171299515925,500.77599873908594 10.269943878156386,500.42165838889815 9.629132797999372,499.4575307867529 9.405958262809635,498.86510766418087 9.623912334241265,498.25660559642444 10.832448102978544,496.38007877530754 11.072589132751277,495.76609571806307 11.338832430802638,494.1634332022387 11.525463770201846,493.69382975611956 12.004440726437197,493.0743521598553 12.05664526298727,492.6448459922225 11.913082686449684,492.35047121388516 9.770085117403386,489.45181583377223 2.4973259893713076,482.8211924616052 1.8036678794153136,482.1885785545181 0.29756603007804056,479.68118597297166 0,477.0580104156021 3.372415192810258,467.4858804619879 3.0383059164297817,465.9073896074019 1.573967777154485,462.89999382676314 1.657495096253193,461.4134334442109 2.276119268578139,460.6029862179453 2.975660452362062,460.0313437487501 3.429840243630341,459.334866185 3.309769728742537,458.15249834040134 3.0226445756659324,455.5685635118296 3.0435263801850154,454.28509568015176 3.450722048149424,453.73863655917216 10.11463532130438,455.42760416010486 11.82433490359287,455.43700153065714 13.428320309471102,455.09197942509167 16.697631481979425,453.93735206123654 18.27942992952086,453.8621628727028 26.120556239372053,456.65858811508735 26.814876959397868,456.59952548309286 28.20873896422712,456.25722460169027 29.649585092355924,455.69206926111207 31.126974416275253,455.13493996734786 38.85325062449347,454.87985936846917 40.226230774288844,454.58986573487596 41.458258604675905,453.981659813686 45.692049206218435,450.0389155458025 49.001818833942906,446.9613514721069 53.04767299277035,443.1921313094631 56.46707225837688,440.0131425072442 57.829611480658926,439.18900670464797 59.53148044307955,438.77893196565435 63.25366625303988,438.64716694480074 68.1295729875405,438.48044152548044 73.01070018579493,438.3110243138934 77.88660702131648,438.1483275973606 82.7625137558171,437.97890521296745 87.64364100458344,437.8121693953297 92.51954773908405,437.64543104684884 97.40589540109657,437.4800349029024 102.28180218610767,437.3106019459058 107.16292938436209,437.14654527570804 112.0388361188627,436.9771071173567 116.91996336763331,436.8117006440498 121.79587010212964,436.6462915737302 126.68221781465408,436.4781903398878 131.5581245491533,436.30874164613437 136.4392517979239,436.14601453558663 141.3151585324202,435.97656060224364 143.8157573889935,435.8904877763377 144.09766207831197,435.20322498175943 144.10288254207006,433.2783856636745 144.20207120192975,432.3218902860245 144.3273621805728,431.8012303038429 144.69279413848244,431.5321453771681 145.50196501065454,431.3437819369545 147.49617948889326,431.30476339156206 153.52058678519413,432.32996237131505 163.02181839793025,433.9536656761834 168.221393481298,434.8400741790614 168.49807770686127,434.93153554683323 169.42209857965264,435.11714585030444 169.89716017544575,429.11815051504004 170.4035445032698,427.72386642944474 174.82527149700834,425.0262957092156 178.7719369454642,420.66349990982053 180.62519910430032,419.6506425687755 184.63973048058344,418.88420037336965 186.54519727698772,417.85635279478356 187.8137683031696,416.3177612894506 187.94681166013785,416.00082690991604 188.35673660004426,416.73817653421173 199.62770308228946,448.8743943792632 199.42410527808318,456.090810499728 199.58071895965023,458.34849191264567 199.97225325441897,459.3845620838393 207.12949966492255,471.2924273324465 206.19764809606835,477.47072688736563 204.6837155835078,479.1293128446747 203.33683770399085,479.55262870590263 202.85655570781603,479.77499715686236 202.45719075622262,480.1822148594255 201.90121203221386,481.82433273715486 201.22777313788092,482.45379307469983 200.40555117337726,482.9921549258958 196.50848006111624,484.8427473265644 196.11694585719863,484.89094978702076 194.7622372300058,484.8373914902478 194.04703466605486,484.89094978702076 193.53804006468536,485.03555590154264 192.77063292507114,485.33547390065723 192.06587126716835,485.6996494138141 185.15920673808463,491.66405534524984 183.66354583382252,493.7647815901 183.42862526604642,494.2544501065112 183.1702126369507,495.02235842801326 181.36654482257853,502.89383534218115 180.98284118463167,503.94456845527264 180.0562101142271,505.1823341767623 170.69854109613019,513.861752169031 169.08541993069275,514.8233648337953 160.64394107695517,518.4607635693261 160.06186008782618,518.5195082962267 159.294452948212,518.3112301411908 154.07399606317625,516.0893696620537 153.26743541231923,515.8383160776431 152.60182717480816,515.8249620509343 152.08500191661676,516.3831490134194 151.18186290753178,517.9694323537746 150.54757738816218,519.352584911655 149.69403266009152,523.6879203929313 149.4512814354935,524.5046250805299 149.0727982959963,525.2198634018636 148.36020593584604,525.4653832058674 147.53015326909212,525.5614548329801 144.0350573576479,525.5507802558332 143.69833788776867,525.6415139070907 143.20239448709611,525.8736822472524 142.8421829558973,526.5247972833106 141.79287112586496,528.9394874626116 141.330860692563,529.5050691217033 140.59999672411436,529.7825145950171 139.1199971789244,530.0759596276575 138.09417741021454,530.3774003887545 137.89057956057988,530.6521584375175 137.76267839335645,530.9189078656402 137.64521813218406,531.9645092334687 137.38680550308547,533.1540384439749 137.02659397188663,534.252782918641 136.95611783335053,534.8474505349395 137.00310191056704,535.1327740299108 137.08140875135058,535.3967590152141 137.52775782558322,536.3593226620895 137.58257260504428,536.6392784521414 137.598234009542,536.943223269484 137.08923945359797,539.3105357896345 136.3061709094861,541.424203608668 135.3899806997041,542.8926297154097 135.0454305730001,543.2017497830822 134.70610085389464,543.3856193155702 134.39287344533497,543.3856193155702 134.08747673902562,543.3483127077516 133.55499007633648,543.1617778425257 132.912873900145,542.7647156874983 132.71710679818622,542.6714441596777 132.5683237734439,542.6314705052425 131.5085709919379,542.4982238405422 130.85079345667714,542.5062187421473 129.14109379673226,542.9112836972299 124.72197697325574,546.3378169998314 124.47922574865774,546.4816787584635 123.97023123813929,546.6788198946749 123.42730371482757,546.8439897679667 123.12973766533722,546.897269920805 122.50328280279527,546.9292378751524 121.90032004699555,546.8333337192832 120.74659906563672,546.5402885706067 120.44903301614926,546.5029914493917 120.08099082812565,546.5562730632388 119.68162587653508,546.689476029386 119.00818689134817,547.0357972224019 118.53051509897405,547.4407143458433 117.89361937580667,548.1599426188105 117.5647305627493,548.6607140695568 117.36113275854306,549.0495971653152 117.29065662000694,549.3638910921024 117.2749952155121,549.6408893761713 117.337640742649,549.960495111214 120.44120235932448,556.9311995276909 120.56649327732454,557.0110553820141 120.81968545339619,557.0642922758135 128.50680827736554,557.8335409199464 129.29770747829932,558.0704281596695 129.87195771975536,558.4377276428252 130.1225396920292,559.3213319758974 130.0598942557405,559.7231918226202 129.88761912425306,560.0079457961145 129.01580283330952,560.5561456477363 127.26955995677359,562.009026818566 127.05813145031703,562.1500485769642 125.88091840763862,562.732744466751 125.13700332934405,563.2701847095118 124.41658026694353,563.9060375907532 124.08769145388901,564.2997716470416 123.89192435193021,564.6589103185145 123.81361751114667,564.9435537984672 123.72747996811285,565.5713432142492 123.74314132718504,566.2230410493686 123.83710957246626,566.8348088634646 124.7063156596091,570.1484872771007 124.79245315721451,570.7547501223546 124.80028385946481,571.4088437919942 124.6906542551114,572.3899221734684 124.42441096919379,573.5782831022493 124.39308820562391,574.9127328908595 124.6749928960392,578.4263048470546 124.8237759207844,579.3988810663162 125.03259422344021,580.0100257094192 125.03259422344021,581.4022660399962 125.19964885648093,581.9229896475566 127.23823723862922,581.9229896475566 127.27739070444653,582.0425405892066 127.54363399036698,582.1886569565484 127.84642049287854,582.1514638371449 127.98998306459964,581.7290490375741 128.05784899933505,581.4341476467586 128.21707288469995,581.0595336088381 128.43372188960606,580.7114782672029 128.64776064528596,580.4856359563854 129.13326309448482,580.3421575730707 129.59005312019113,580.5095488671756 129.92677254464482,580.9771702058193 130.0598942557405,581.7290490375741 130.07555556938712,583.0281302903026 130.2582715615,584.4731739167216 130.81163999085985,585.6471549427844 131.9392587070984,586.1331843182617 133.01728305147435,586.3589295289376 134.83139186274576,587.4636977252123 135.94330838224639,587.8991644920662 M99.3582373141052,525.2096417195082 96.93378852913948,524.6587891928527 94.95831178681603,524.6587891928527 93.15642615732932,525.3871758049892 92.10937157372513,526.694020963699 91.90530225117705,527.8717416187678 91.99509665062098,529.7073314444059 92.89304064505154,531.6344021381099 94.06036779238545,533.2859341439104 95.58687258291772,534.7537749572613 97.29296612691228,535.3958998320161 99.17864851521735,535.6710859103 100.79494765976797,535.8545398589796 102.33653440508951,535.6980892421368 102.66538206249946,536.3846207724628 102.94901320051648,537.3167304606905 103.32307742274492,538.1333179615827 104.38672359206758,537.3220725676758 105.19487318705423,536.680048626292 106.18261158092872,534.662040073139 106.81117233160488,532.4601960960583 107.26014432882161,530.3497222934986 107.34993872826551,528.7895712488814 107.26014432882161,527.4128006939205 106.45199473383208,526.9538423613877 105.19487318705423,527.2292194505295 104.7459011898404,526.6784590009831 104.83569558928144,525.1178347046691 104.38672359206758,524.9342186249241 102.05206925197135,525.1178347046691 99.3582373141052,525.2096417195082Z" name="Tillabéri" name_en="Tillabéri Region" gn_name="Tillaberi Region" admin="Niger" adm0_a3="NER" iso_3166_2="NE-6" iso_a2="NE" postal="TL" type="Département" type_en="Department" wikidataid="Q861914"/><path d="M596.8339575153203,0 601.2870072916061,1.0812209261034225 605.7452775316456,2.1580333937758502 610.2087681849339,3.2346836058886903 614.6618179107037,4.311171629246 619.1148676869893,5.391740521160878 623.5783583402765,6.466490141341586 628.0314081165579,7.542492394893313 632.4844578423317,8.619746875653831 636.9479484956189,9.698253068438841 641.4009982719002,10.77518410379999 645.8592684614293,11.850540902793492 650.3123181871988,12.927149730563432 654.7705884272382,14.003597585258984 659.2288586167717,15.082709253399203 663.6871288568111,16.15459890166353 668.1453990463401,17.231976959524065 673.2771081513745,18.472951246648435 679.20232678782,21.78540857077223 682.0422553340271,24.31918519474302 688.3616184537901,29.939434505614862 694.6835917801777,35.55676332122387 700.995124179049,41.16415676973695 707.3170975054365,46.77008972277372 709.6140985785337,48.81164488992586 710.3501830086186,49.188399235984186 711.1332515114956,49.098429730340214 714.3229507253532,47.36349239899737 722.9680273931166,42.66277237235128 731.6078835971202,37.95904881489528 740.2425192868599,33.25230707627999 748.8875959546233,28.538303328443728 748.892816367871,28.535483848323363 748.9250296088987,28.51932183415072 749.5349326018514,31.93212926314194 750.1405056400414,35.34832163503729 750.7408581639656,38.76292056351202 751.3516516154031,42.17311745752849 751.957224653596,45.583141222825475 752.5627976412754,48.994401198528415 753.1735910927131,52.40408881958384 753.7739436671477,55.80659147987113 754.3847371185852,59.21315348729045 754.9903101062677,62.615353202296184 755.6011035577052,66.01881033453604 756.2066765958951,69.41791878926723 756.8122495330629,72.81549047809497 757.4230429845003,76.21433222882014 757.8354591162243,78.51671784014088 758.2478751974363,80.81840324433033 758.6289685466187,83.00183842966014 758.6498504016485,84.07093288392572 758.6916140106866,86.89127747383237 758.75947998902,90.87659208347117 758.8325663806011,95.4466582861361 758.9056527721821,100.01121100290077 758.9735187000051,103.99250882796511 759.0205028233117,106.80554045326484 759.0361642145833,107.87132307710279 759.0518255553442,109.2856301704933 759.260643853086,110.15305588678096 760.0541533339866,110.94787851053826 762.4399021394302,112.19990791647082 763.4056866717702,112.88021355369118 765.1440987794709,115.00160456337157 766.3448038778313,116.86884286890515 767.1852974820358,118.19236064089188 768.03623191274,119.51008300530103 768.8819459807025,120.83036867138814 769.7276599981592,122.15043186266746 770.5733739650994,123.47027273517942 771.4243084463142,124.78710801831154 772.2648020000083,126.11207250630693 773.1157364812227,127.4284654219749 773.9614505491854,128.7474206767682 774.8019441028825,130.0661553055529 775.6528785840943,131.38466962462883 776.4985926015493,132.70296389622058 777.3443066190015,134.02103859759936 778.1900205859474,135.33889388289188 779.0409550671578,136.65375049780678 779.8814486713625,137.97394762783082 780.7167217613057,139.27169594539106 778.6807436235167,140.44143323999052 777.4330543513479,142.51653005056855 777.0154178063763,145.0020464813519 777.4278339380959,147.4229460848879 778.0281864620201,148.78299276332206 778.7433890875859,149.95133851957533 779.6465281053478,150.97801025325577 783.7550277282414,154.2486114852374 785.1593306100737,155.80438537992788 788.103668330399,159.07025750980685 791.0480060507285,162.33758234542182 793.9871232567897,165.60082206414754 796.9314609771193,168.8627532850725 798.1269456117158,170.1887511860245 798.8421482372815,171.35401210828158 798.9517777741428,172.23684274712969 798.581125352478,173.1527825106403 797.5474748923108,175.04106627978385 795.5219375810186,178.73475929703358 793.4964003202372,182.42541302441603 791.4760835232134,186.1130363474078 789.4557666251691,189.7990186244846 788.6935799773174,191.18791537299597 787.1170019430322,195.3808122939139 786.9342859640755,197.60751855032154 786.730688180608,200.04049044704288 786.5270902961095,202.47827125666328 786.318272048884,204.90983229795512 786.1146742654079,207.34620303879544 785.9110763809139,209.77498368859167 785.7074785974421,212.20857562359373 785.5038808139703,214.6373393003466 785.3002829294776,217.06953797043224 785.096685146006,219.49966651628554 784.8983077757819,221.92772800851506 784.6894894780401,224.35647587237548 784.4858916945683,226.78316129428435 784.2822938100742,229.21191043423306 784.0786960266025,231.6358532379414 783.8750982431307,234.06186285476605 783.6715003586366,236.48856570841696 783.4679025751649,238.9104714884544 783.2643047411827,241.33581993528247 783.0607069071948,243.75637745439397 782.8518886599692,246.18175081136815 782.6482908764974,248.599596131806 782.4446929920034,251.0222588485891 782.2463156722912,253.44014291430477 782.0427178383034,255.86147421620998 781.839120004321,258.28077251609693 781.6355221703388,260.69804063434407 781.4319243868671,263.1160197262805 781.2283265528835,265.5319732420766 781.0195083056536,267.95000903441377 780.81591047167,270.3632872998409 780.6123126376921,272.78001840232224 780.4087148037055,275.1919980305117 780.2051170202338,277.607431967672 780.0015191862501,280.0208532801945 779.7979213522681,282.4336309431694 779.5995440325544,284.84440110616384 779.3959461480616,287.2545321638638 779.1871279008304,289.6653908485088 778.9835300668483,292.0742488602899 778.7799322328646,294.4824732875267 778.6148368659883,296.4359199633525 778.5946468068172,296.4359199458668 778.1744000431305,296.4359199458668 648.9211072322975,296.46319916471515 610.3810840519695,314.50443092046686 600.12288618316,321.4772021413585 599.3215460307525,322.2307796481466 598.2800649029705,322.7748415039645 581.1386946118251,328.99940455567656 560.4865670047379,343.20088595236865 545.6239262073921,347.66779090392174 463.07545119322765,401.4321437431729 445.2997953827155,408.18456922390294 424.60068374383735,419.68839915571795 415.3343726763727,422.9555808561579 412.3326099617975,423.25989167609913 403.12372396844574,423.04175821400696 402.168380338272,423.10639086517523 401.17127308390576,423.3056722376963 397.19850538008455,425.40866996784615 388.56909003578454,425.50828946198635 368.3163274257133,422.4223424088019 366.3403845252764,424.60629504367415 362.242325812607,436.1299182493326 352.1224701079228,430.67645241441573 349.441765458732,430.46654468759675 329.369108636973,431.24156812517066 326.3673459224007,401.3943630994497 327.4714725318941,392.9658010668262 327.4479804705745,392.1204022319069 327.22089060504584,391.3802830921775 326.3751765792225,390.92105800407336 318.56015258802984,388.8705003630235 318.2156024159003,388.73810493879336 317.5186714148222,388.3192917878875 314.0705596260172,385.68172258098036 313.7808242333516,385.3763039354916 313.4754275724678,384.9789756331982 312.61144193834616,383.46520078976926 312.4704895704257,382.9353259623569 301.42661295370635,356.34063925768436 301.19169238593025,355.9665477642608 296.74125288973494,350.97186831833505 285.4076409257784,342.3593788643447 258.3969968567944,325.40493928730206 257.3633463858342,324.59178132720973 256.2409481226168,323.5337555397674 249.57181441053544,314.39008004416087 240.77795472784646,307.07961166051126 240.08885442901578,306.36296434223925 239.74169400766297,305.6053834090607 238.6297366959192,300.2869488968329 238.2930172714655,299.5970457185499 237.61957828628152,299.3107071126813 232.2503383765035,298.90709090351726 231.3733016325359,298.69982168835537 230.5954535414481,298.3152703606839 230.07862828325668,297.3797345690531 229.82021565416093,296.7714489766801 229.67143267484133,296.2667868405387 229.63227920902403,295.95579206828467 229.63227920902403,295.32285793665073 229.91418389943928,294.70079401372715 231.42028570974955,292.2967206129197 231.53774601635038,291.6498871810541 230.9948184930387,285.34290854174947 231.05746392932738,285.03427330074595 231.44377777107204,283.9607966886572 231.5142539550308,283.66577324032056 231.53774601635038,283.3434218691106 231.50642329820894,283.02925487419526 231.36547093028847,282.45826259536403 231.0809560360725,281.66045246738264 230.86952752961597,280.4636054932758 230.8382047660461,279.80499890995685 230.86169682736852,279.47431112167584 230.9243423090799,279.16274302299473 231.3184868076464,277.8589597977887 237.9328057402667,264.0578832056055 233.15869783861254,262.6286858483738 206.6988119951876,262.30557877492123 205.95001983642624,262.30557877492123 205.9496356056367,262.1850524316145 205.9287538011176,255.63129138351567 205.90787194608805,249.0712931388072 205.88699014157328,242.5077609943126 205.8661083370542,235.9379134466416 215.39344216754841,234.01516237867958 224.9207760990693,232.09061020959007 234.44810992956494,230.16837739118193 243.98066427432917,228.24296709175894 249.0131847195081,227.2299266483238 260.07533297525794,224.99586747017958 271.1374811299854,222.76535249178343 276.170001625672,221.74891419696962 282.6799113947717,220.43382963230664 284.95081014908556,219.57671475682153 287.13818158430075,218.04112207164445 291.11616976479337,214.43772223996095 294.30064851489715,211.54618997445587 297.49034767824713,208.65642611865567 300.67482637783473,205.76291776643387 303.85930512793857,202.8711731356415 307.04378382752617,199.97567553342986 310.2282625271181,197.08193690314462 313.41274127722187,194.18581688988047 316.6024404405676,191.28731064204248 319.7764782631537,188.39055630692334 322.96617742650517,185.49002772133244 326.15065617660895,182.5912463856301 329.3325246190659,179.68868215449814 332.5222238329235,176.78786044867388 335.7014820687573,173.88601398675743 338.8859608188554,170.98313953410963 342.07043956895916,168.0764649055708 344.98345445623113,165.41802661545583 346.8889212526383,163.711737789313 350.80426396906313,160.3174836084522 354.4115996773862,157.19351272813233 358.0189353857006,154.07110658409132 361.62627114452977,150.94194020755603 365.22838643959943,147.8171058097863 370.23480461650115,143.4691713647434 376.8543439729725,139.32171199743496 380.2946250430981,137.1651792328001 383.72446523622233,135.0052803483002 387.16474635685984,132.84757355239535 390.6050274774916,130.68649640354462 394.03486767061577,128.5248276579207 397.4751487912533,126.36534916839106 400.9154299118908,124.2052777712175 404.34527010500926,122.04182745947902 407.78555117513633,119.88056541136386 411.22583229577236,117.71870632933823 414.66089295265175,115.55624887113902 418.0959536095341,113.39319158493588 421.53623473016586,111.22674443218574 424.9712953870496,109.06527187420082 428.4115764571752,106.8976165034244 431.84663716456504,104.7293541323718 435.28691823469063,102.56048334897775 438.72197889156865,100.39379523290684 442.16226001220616,98.22370422320871 445.6025410823318,96.05858869409617 449.0376017897217,93.88727247904292 452.4726623960935,91.7181364219414 455.91294351672957,89.54558859159732 459.348004173609,87.3780169597255 462.783064779975,85.20423267608773 466.223345951123,83.03262598756807 469.6584065574906,80.86039833685862 473.0934672648805,78.68474774605593 476.53374833500607,76.5084716196538 479.96880899188403,74.33437074191599 483.40909011252154,72.15964312839972 486.8441507693995,69.98148361536026 490.2792114262832,67.80549741567519 493.7194924964088,65.62888011807655 497.1545532037988,63.451630337795216 500.58961381016485,61.27093975103088 504.02989493080236,59.09241986124297 507.4649555876803,56.91326321308477 510.9000161940521,54.733468305770856 514.3402973652002,52.547413124593696 517.7805784353272,50.366335643373176 521.2104186789575,48.18461560302948 524.6506997490831,45.99943872322231 528.0857604059612,43.81924180953112 531.5208210628405,41.635585197167586 534.961102183481,39.448464867944466 538.4013832536023,37.262100988987726 541.8364439104859,35.07931036231837 545.2767250311177,32.89023293617674 548.7170061012447,30.70190892436554 552.1572872723928,28.514338012711864 555.587127415005,26.324699607638138 559.027408586153,24.13158055715323 562.4676896562743,21.942031791439565 565.8975298493986,19.7518212988591 569.337810970036,17.558124013978958 572.7780920401617,15.36658488027884 576.2079322837919,13.175792390307443 579.648213353919,10.981506830771487 583.0884945250714,8.786551374222805 586.5235551314346,6.592338421084711 589.9586157883168,4.397453397842534 593.3988969089543,2.2004799966663833 596.8339575153203,0Z" name="Agadez" name_en="Agadez Region" gn_name="Agadez" admin="Niger" adm0_a3="NER" iso_3166_2="NE-1" iso_a2="NE" postal="AG" type="Département" type_en="Department" wikidataid="Q389944"/><path d="M96.93378852913948,524.6587891928527 99.3582373141052,525.2096417195082 102.05206925197135,525.1178347046691 104.38672359206758,524.9342186249241 104.83569558928144,525.1178347046691 104.7459011898404,526.6784590009831 105.19487318705423,527.2292194505295 106.45199473383208,526.9538423613877 107.26014432882161,527.4128006939205 107.34993872826551,528.7895712488814 107.26014432882161,530.3497222934986 106.81117233160488,532.4601960960583 106.18261158092872,534.662040073139 105.19487318705423,536.680048626292 104.38672359206758,537.3220725676758 103.32307742274492,538.1333179615827 102.94901320051648,537.3167304606905 102.66538206249946,536.3846207724628 102.33653440508951,535.6980892421368 100.79494765976797,535.8545398589796 99.17864851521735,535.6710859103 97.29296612691228,535.3958998320161 95.58687258291772,534.7537749572613 94.06036779238545,533.2859341439104 92.89304064505154,531.6344021381099 91.99509665062098,529.7073314444059 91.90530225117705,527.8717416187678 92.10937157372513,526.694020963699 93.15642615732932,525.3871758049892 94.95831178681603,524.6587891928527 96.93378852913948,524.6587891928527Z" name="Niamey" name_en="Niamey" gn_name="Niamey" admin="Niger" adm0_a3="NER" iso_3166_2="NE-8" iso_a2="NE" postal="NI" type="Communauté Urbaine" type_en="Capital District" wikidataid="Q3674"/></svg>