<?xml version="1.0"?><svg fill="#3498db" stroke="#ecf0f1" stroke-width="1" width="800" height="544" viewBox="0 0 800 544" xmlns="http://www.w3.org/2000/svg"><path d="M799.9585779256357,5.54226167673615 799.9890654840916,6.042975283524728 800,6.325740295281661 799.9671964628546,6.600207450581337 799.8950286832483,6.903233884950299 799.745225860794,7.290711318030362 799.7189830395408,7.432554555277876 799.726637197503,7.642996979889992 799.7670948926109,7.754784775261569 799.818487093048,7.846565578677299 799.8578513355072,8.000114399142088 799.9562619575258,9.257762350089102 799.9398601889527,9.886479231053382 799.8425430301631,10.445401696850787 799.6129182701402,11.03196031950977 798.7447180095767,12.400180742011239 798.6631896159649,12.629227387471381 798.6594373510253,12.62279881451222 798.6009377117748,12.522567429824901 798.4090370189842,12.284125775337834 798.299145182359,12.194690733760122 798.0886558137277,12.121508744494822 798.3122665871666,11.534892847501315 798.3171871187268,11.465264074544681 798.3040657044046,11.390202489222276 798.2297110295875,11.373018670798265 797.7114151495796,10.725174315931675 797.2171751974148,10.055029041362172 796.8082244431034,9.62183444064226 796.4402781121182,9.234648584176206 796.240176536565,9.044156273511229 795.9892294840805,8.796444194800523 795.5261528921212,8.285337278869171 795.1549262004188,7.886560007909772 795.0942396603673,7.842945102437017 794.994188867833,7.788422958463236 794.7120784551439,7.762069156385446 794.0581946303089,7.978324753786724 794.0007884414589,7.997403140305071 793.9811063152177,7.962879989850753 793.961424208006,7.935623748857301 793.8482520011501,7.66482474308596 793.4874131025257,7.181142422134883 793.3769745264285,7.090189957534521 793.3195683375785,7.069269325386735 793.2867647970152,7.041071038939729 793.1145462304652,6.737190182582563 792.934126781153,6.490537874603078 792.8187676734957,6.50510262588001 792.6252268098613,6.422261859522642 792.2753224342725,6.256552961844561 791.8915210486911,6.603407272595514 791.6974334646137,6.726270029482008 791.556378248754,6.870039437215763 791.3972810965264,7.0719981413178505 791.3267535028687,7.244802606146999 791.3185526105918,7.286633507937058 791.287389250387,7.37756221978064 791.1545349268041,7.658462517704524 791.1118903326351,7.772065533715843 791.0670588281502,7.948343443474176 790.8964804419581,8.256276376319269 790.8128314244635,8.305316019227018 790.5946879125424,8.235388147134264 790.5022912823277,8.183619202317763 790.1217702574629,7.933806632073798 789.9397106277921,7.868387457644628 789.4881152793117,7.824771498712913 789.3962653695403,7.794784084913352 789.2563036135958,7.668460255953258 789.1578930109355,7.542115243221462 789.1086877048476,7.16477178587125 789.182495659222,6.786328940398406 789.2907473345178,6.568820072952871 789.6832963137903,6.044355783974869 789.7111793227929,5.973306421672916 789.7078989715915,5.925025460630476 789.6964177281126,5.8749192975183835 789.6783757822295,5.821165353324947 789.657053485145,5.777430465276903 789.6472124315393,5.703622092696665 789.6258901344548,5.620692931472978 789.7571042681645,5.358175435246902 789.9145612495482,5.088270123710258 789.9675936367954,4.860233960913129 790.006957879763,4.78086114956687 790.1512934373096,4.615702260228326 790.3284325354197,4.450507040156829 790.3579557152665,4.414907714437946 790.3579557152665,4.396651015328124 790.2874281216087,4.36926511806634 790.2595451126055,4.352833093680066 790.2415031572084,4.3318360909711 790.2464236887686,4.159273312456591 790.2710263465698,3.938261992103516 790.2529843911727,3.8405213269404004 790.2152603380778,3.7820535546144787 790.0200792845707,3.7162718515894015 789.9856355731638,3.7190128611125672 789.9561124028312,3.7318041594682163 789.8965193131804,3.7720039289483402 789.8587952410562,3.7866215029881043 789.8259917004929,3.788448677728129 789.7964685206462,3.7793127436214182 789.7603846288807,3.758299717458959 789.7160998543536,3.7089624067934674 789.6554133143015,3.620329842154048 789.6144088909759,3.581949605369271 789.5766848283671,3.5591033049116865 789.3765832528138,3.501527521521954 789.2251402629056,3.4348071871567716 789.1218091191699,3.04990696447133 789.1742947764599,2.8368012009401284 789.288126908886,2.6091254296911575 790.2182522483695,2.5795763420128304 790.3284583587216,2.617042459319417 790.5144311639903,2.784176201490833 790.6160274125491,2.821632112201708 790.7064308608772,2.791379403859382 790.9759192292705,2.5795763420128304 792.5506611877257,2.118301356427071 795.0457963171449,1.7296009409724493 796.0918933454584,1.9077502889079223 796.3105835895722,2.00870680762001 796.4913904862282,2.196882308026949 796.8478383603482,3.656700773479542 796.9029414208146,3.6797239708551603 797.1595150123867,3.8638841699065214 797.1793176744112,3.9077594161227434 797.2301157986901,3.9465976692563025 797.2826358995604,4.029302051064025 797.3558196348804,4.11127825205452 797.6898818979594,4.222722793795146 798.1117646497707,4.463530232061775 798.2994594316295,4.401718393178613 798.3890018863726,4.5037770791319165 798.5164276991532,4.5375540166871895 798.641270552338,4.502339732681668 798.7316740006662,4.401718393178613 798.8039967635605,4.401718393178613 798.8039967635605,4.52246238550276 798.7196202068502,4.59576177465942 798.6774319337853,4.648935265818028 798.6800148933813,4.725096155014243 798.7316740006662,4.873084855606666 798.7540596222861,5.158204106600026 799.0752070979648,5.342719826554964 799.8397619640691,5.540826316835162 799.9585779256357,5.54226167673615Z" name="Groningen" name_en="Groningen" gn_name="Provincie Groningen" admin="Netherlands" adm0_a3="NLD" iso_3166_2="NL-GR" iso_a2="NL" postal="GR" type="Provincie" type_en="Province" wikidataid="Q752"/><path d="M791.9875768527277,0.026027789885014016 792.1348053275327,0 792.7168313309699,0.2573461106097526 792.6694771387125,0.2544550626834776 792.630732808249,0.2761375699554965 792.5980153694032,0.3216688028501871 792.5721858157608,0.3888765067228296 792.1942133030261,0.26168263491311977 792.0073795147516,0.14386448946273409 791.9875768527277,0.026027789885014016Z" name="Groningen" name_en="Groningen" gn_name="Provincie Groningen" admin="Netherlands" adm0_a3="NLD" iso_3166_2="NL-GR" iso_a2="NL" postal="GR" type="Provincie" type_en="Province" wikidataid="Q752"/><path d="M798.6631896159649,12.629227387471381 798.5555509446614,12.931522135287913 798.4637010385368,13.51525054126957 798.3652904270981,15.39689059951658 798.2876553948282,16.01018118107245 798.0952079825466,16.382229699061384 797.7179673053665,16.264074678876064 797.5583234302321,16.196677616952233 797.0367472044197,16.27440836348681 796.4758067255686,16.1045586133702 795.4720185058256,16.12073642532236 795.1177403236909,16.230826216397997 794.9278097685016,16.368822738735833 794.9203809134588,16.364274563642415 794.8088488964755,16.295987902243976 794.7826060678308,16.15130760239571 794.787526599391,16.023678431828767 794.7481623564233,15.976036672652157 794.6874758068574,15.926593941967669 793.9237001358824,15.57590735767088 793.7859252807399,15.571410331795912 793.4770253189621,15.627171707758611 792.9620097901562,15.896027737851224 792.8302489169746,16.036262552134676 792.8072864395315,16.117155435477812 792.8384497997367,16.634665290354835 792.400522595536,16.42267277143904 792.3365556947679,16.410993493335 792.2572804788755,16.410993493335 792.2113555335043,16.461302943982556 792.124426155293,16.516100511476573 792.0637396152409,16.523286794080853 792.0079735972345,16.496337910007554 791.9669691834234,16.452319364252563 791.9161237064923,16.373259203699426 791.8833201659288,16.351695910333937 791.8587175081276,16.347203475687756 791.8029514996356,16.396618743877145 791.7275033649032,16.43704701064074 791.4809301140216,16.51340563596233 791.4104025203638,16.5125073524155 791.3677579166796,16.493642979791638 791.3562766827159,16.46669305629458 791.2709874753481,16.235782683307498 791.1856982870095,16.108167755514014 791.0014517565378,15.921199998404019 790.8407144239521,15.789036269872385 790.7587055868156,15.655050839288469 790.7193413438481,15.646956998133609 790.2086996261596,15.65325221714076 790.1201300771044,15.622674970882448 789.7931881694441,15.396904643380038 789.6258901344548,15.333928794542446 789.5520821705659,15.352822109007851 789.4913956305138,15.407699968812846 789.4061064326605,15.462573879768094 789.343779721765,15.466172042036366 789.2595839743125,15.442783751870603 789.2152991997854,15.406800372070567 789.1874161907821,15.376213164587504 789.1152484072512,15.250252779077337 789.0644029303199,15.208861216861305 788.6980967701776,14.249021697062782 788.8003344635132,14.071506996980867 789.0791645154857,13.935414215715399 789.4618724506671,13.55674900669825 789.5094375763962,13.40793575458347 789.4126671445792,13.25728885230224 789.3022285684822,13.130974857502778 789.221859902189,13.057883550287308 788.6898958874154,12.417806891859218 789.5865258914873,11.726564834868647 789.9397106277921,11.319655866656328 790.0135185821665,11.244579790062078 790.1283309598665,11.15411676270932 790.4104413725563,11.1532120861425 790.6471735603177,11.214728203396065 791.0014517565378,11.45622091239189 791.5071729426661,11.116119066143352 791.5727800142785,11.044641995391547 791.8636380396878,10.56403161250809 791.8915210486911,10.467148358088183 791.9095629945734,10.389270557280977 791.7816292025512,10.122070383793282 791.2086607644526,9.351641404400956 791.1692965214851,9.154829096292458 791.1118903326351,8.979740837794347 791.1217313862406,8.88356103847871 791.0965820175113,8.785553890447442 791.0719793597102,8.734730355658153 790.773467181496,8.606748735790035 790.6078093173502,8.507797685225315 790.5750057863014,8.475113738621962 790.5946879125424,8.235388147134264 790.8128314244635,8.305316019227018 790.8964804419581,8.256276376319269 791.0670588281502,7.948343443474176 791.1118903326351,7.772065533715843 791.1545349268041,7.658462517704524 791.287389250387,7.37756221978064 791.3185526105918,7.286633507937058 791.3267535028687,7.244802606146999 791.3972810965264,7.0719981413178505 791.556378248754,6.870039437215763 791.6974334646137,6.726270029482008 791.8915210486911,6.603407272595514 792.2753224342725,6.256552961844561 792.6252268098613,6.422261859522642 792.8187676734957,6.50510262588001 792.934126781153,6.490537874603078 793.1145462304652,6.737190182582563 793.2867647970152,7.041071038939729 793.3195683375785,7.069269325386735 793.3769745264285,7.090189957534521 793.4874131025257,7.181142422134883 793.8482520011501,7.66482474308596 793.961424208006,7.935623748857301 793.9811063152177,7.962879989850753 794.0007884414589,7.997403140305071 794.0581946303089,7.978324753786724 794.7120784551439,7.762069156385446 794.994188867833,7.788422958463236 795.0942396603673,7.842945102437017 795.1549262004188,7.886560007909772 795.5261528921212,8.285337278869171 795.9892294840805,8.796444194800523 796.240176536565,9.044156273511229 796.4402781121182,9.234648584176206 796.8082244431034,9.62183444064226 797.2171751974148,10.055029041362172 797.7114151495796,10.725174315931675 798.2297110295875,11.373018670798265 798.3040657044046,11.390202489222276 798.3171871187268,11.465264074544681 798.3122665871666,11.534892847501315 798.0886558137277,12.121508744494822 798.299145182359,12.194690733760122 798.4090370189842,12.284125775337834 798.6009377117748,12.522567429824901 798.6594373510253,12.62279881451222 798.6631896159649,12.629227387471381Z" name="Drenthe" name_en="Drenthe" gn_name="Provincie Drenthe" admin="Netherlands" adm0_a3="NLD" iso_3166_2="NL-DR" iso_a2="NL" postal="DR" type="Provincie" type_en="Province" wikidataid="Q772"/><path d="M794.9278097685016,16.368822738735833 794.7448734465263,16.501713731589913 794.8334430052846,16.683598714393575 794.8126674366966,16.83940125634297 794.7645555730462,16.98350127800298 794.7678359309925,17.128022687178955 794.8421906158959,17.239761005937254 795.1888146506478,17.533612502588397 794.6016313399646,17.830937014743302 794.4266791489052,17.846629645956043 794.5567998448412,18.118732912364187 794.5939771820025,18.428372502317476 794.6092855085064,18.733855250355074 794.6737991301503,18.992210129884597 794.8826483110042,19.235708545484403 795.1614783661662,19.372194613819726 795.9990620054615,19.490760954148236 796.5457875998776,19.700108328608884 796.8442997921388,19.748858286353 797.1220364052324,19.730521507603186 797.3866515865383,19.65269709872365 797.4850621979779,19.55965513595199 797.5506692722689,19.44333662708974 797.6173697992111,19.41201706511184 798.2614125629955,20.46051963883983 798.4101219328022,20.904969576033412 798.3204589319747,21.53479430855974 798.1083293931734,22.02811230922731 798.0317878135526,22.288469433060055 798.02522709766,22.60443392120605 798.1192639090818,22.97281915283296 798.1812739256167,23.087239293105664 798.2078334572602,23.136241324787193 798.1783102674812,23.22483976834558 797.7081262526866,23.511489683473396 797.5944073253238,23.644540468141305 797.3461938914305,24.048445186885644 797.1351578158583,24.236090122352444 796.6813755590573,24.435245551348682 796.4758067255686,24.650790407314528 796.2418081761111,25.128771309981516 796.1084071222285,25.250883763663015 795.4831695674307,25.321336797293817 795.4758541356327,25.31572029825164 795.3555744964148,25.22336853888402 794.3228098270736,25.003099924125014 794.4277811416526,24.744558375638167 794.4310614928547,24.65391480389308 794.4195802588905,24.48237340471621 794.4015383225227,24.41303485981419 794.3736553135194,24.364138484757294 794.337571421754,24.340133656862804 794.2342402780182,24.294789145226996 794.1505912605237,24.271671300715468 793.7744440467756,24.36324942367031 793.7317994430921,24.35613695951222 793.6858744977203,24.339244583231263 793.6858744977203,24.284119465165695 793.6760334346001,24.21120593785326 793.6399495523492,24.130281516030706 793.5809031831412,24.108048022245146 793.5169362823724,24.104490622196476 793.2195175450448,24.16674302594968 792.8122069710915,24.116941503838497 792.559619738249,24.145399928495873 792.2490795961132,23.84831282107743 791.7471854911444,23.11488321877651 791.7357042476655,23.09083897056512 791.6728308068126,22.984857136173524 791.3579168535595,22.946557555951802 790.9948910541337,23.09440112590387 790.8374340822647,23.213723788482877 790.7324627676857,23.24488707337301 790.0627238882543,23.25557132648689 789.321910685208,23.107759067673413 789.2202197313454,23.103306441303722 789.1874161907821,23.116664242257364 789.0873654077625,23.200367691043503 789.0119172730301,23.316112656555216 788.9889547955876,23.31967374216176 788.9528709133367,23.311661233507984 788.8659415351253,23.230641153741843 788.8364183457635,23.18701139020078 788.8216567605976,23.147831501709575 788.8216567605976,23.123788294498805 788.8249371117997,23.10686855378248 788.8643013547668,22.995545056089515 788.8446192380403,22.911819042518907 788.7921335712364,22.869061803921436 788.673494121891,22.813830121152865 788.6324896985655,22.78354007115847 788.614447752683,22.72741123680487 788.6324896985655,22.674842350194165 788.6374102301261,22.53048201831475 788.4471497176932,22.033922851996014 788.2306463766162,21.93314504809213 788.1765205484828,21.868033701250347 788.0677221527437,21.71192217457812 788.0398391437404,21.653037477221726 788.0529605580628,21.528115479706106 788.1453571787629,21.148762174767814 788.2437677909384,21.00232577224286 788.2355669081762,20.928203893647844 788.1830812508864,20.80941522722158 788.2044035479709,20.785297976098228 788.2372070885342,20.759393394094705 788.5898450948818,20.64057832555772 788.7462086258647,20.224132173494525 788.7609702205457,20.031023859898394 788.7462086258647,19.977373951863203 788.7243395988229,19.932662778126485 788.5045559065431,19.612453937135527 788.4225470598919,19.400397745606845 788.3290569792771,19.125620799746066 788.2618097368209,19.023561022060182 788.1830812508864,18.955513546967254 787.9955543692128,18.753125771517656 787.9168258737636,18.5918933126216 787.8446580902332,18.477218241704307 787.7724903162169,18.433314619356107 787.6445565241946,18.378655527529336 787.3372967332609,18.54172511932311 786.9994203120798,18.830146946774327 786.6790391068231,18.92775558298937 786.5937499089705,18.905369383774214 786.5265026569997,18.846266673961114 786.3028918835611,18.416290083143174 786.1716777308221,18.2164471576603 786.060943021224,18.203123524210685 785.9124035363685,18.191628812509546 785.6962856521851,17.221332517455156 785.5479857838978,17.090240885881812 785.5479857838978,16.884193894327126 785.6620626041937,16.75304389905103 785.6720807727305,16.741525278434324 786.2094018029456,16.49543960621202 786.3488168289322,16.486456415847915 786.4084099280982,16.52149023373169 786.5806284946482,16.55023470347029 786.6806792776672,16.54394693955394 787.1913209953556,16.368766912633486 787.529197426052,16.180066145017026 787.2962923194499,15.897825783108527 787.0896300319786,15.784540510356438 786.6626373412987,15.658648070758389 786.5724276023707,15.615480133170792 786.542904422524,15.587599543696339 786.5625865487651,15.557919062505862 786.6396748543416,15.485062038863056 786.6823194485105,15.383410277805893 786.7413658177192,15.289842590478472 786.660997151426,14.842537167258618 786.5101008914752,14.399471066563304 786.4362929371008,14.274248826321493 786.3127329466813,14.110257427365108 785.8223200756767,13.710041122088919 785.0470631612236,13.286157631901943 785.441252320854,13.088564721796331 785.5659057616742,13.197743446922498 785.6052700141564,13.216690225000894 785.9043289128133,13.266310464443789 785.9633752820213,13.26270181681626 786.0437439387998,13.247364930948864 786.357017721209,13.059688357735332 786.4084099280982,13.008249616038313 786.4559750538273,12.936951531187216 786.4936991164362,12.869257259762593 786.5199419545961,12.81058397708036 786.5576660172051,12.76815582935581 786.6101516744948,12.735656075636353 786.8233746643704,12.684195241192274 786.8627389073373,12.65710919592593 786.888981735982,12.624604662104057 786.9168647449852,12.630022178964806 786.9731774739199,12.656206319395817 787.0978309242553,12.84037252469887 787.1946013465576,12.92702341566482 787.2470870133621,12.952294721451928 787.6625984700771,12.982980182572732 787.8134947395425,12.808778574218865 787.8233357931482,12.78079423861234 787.833176856269,12.70496056275474 787.8446580902332,12.685098115678361 787.869260757549,12.66433224785975 788.0414793145837,12.615575365239462 788.2454079712965,12.593904634194635 788.6898958874154,12.417806891859218 789.221859902189,13.057883550287308 789.3022285684822,13.130974857502778 789.4126671445792,13.25728885230224 789.5094375763962,13.40793575458347 789.4618724506671,13.55674900669825 789.0791645154857,13.935414215715399 788.8003344635132,14.071506996980867 788.6980967701776,14.249021697062782 789.0644029303199,15.208861216861305 789.1152484072512,15.250252779077337 789.1874161907821,15.376213164587504 789.2152991997854,15.406800372070567 789.2595839743125,15.442783751870603 789.343779721765,15.466172042036366 789.4061064326605,15.462573879768094 789.4913956305138,15.407699968812846 789.5520821705659,15.352822109007851 789.6258901344548,15.333928794542446 789.7931881694441,15.396904643380038 790.1201300771044,15.622674970882448 790.2086996261596,15.65325221714076 790.7193413438481,15.646956998133609 790.7587055868156,15.655050839288469 790.8407144239521,15.789036269872385 791.0014517565378,15.921199998404019 791.1856982870095,16.108167755514014 791.2709874753481,16.235782683307498 791.3562766827159,16.46669305629458 791.3677579166796,16.493642979791638 791.4104025203638,16.5125073524155 791.4809301140216,16.51340563596233 791.7275033649032,16.43704701064074 791.8029514996356,16.396618743877145 791.8587175081276,16.347203475687756 791.8833201659288,16.351695910333937 791.9161237064923,16.373259203699426 791.9669691834234,16.452319364252563 792.0079735972345,16.496337910007554 792.0637396152409,16.523286794080853 792.124426155293,16.516100511476573 792.2113555335043,16.461302943982556 792.2572804788755,16.410993493335 792.3365556947679,16.410993493335 792.400522595536,16.42267277143904 792.8384497997367,16.634665290354835 792.8072864395315,16.117155435477812 792.8302489169746,16.036262552134676 792.9620097901562,15.896027737851224 793.4770253189621,15.627171707758611 793.7859252807399,15.571410331795912 793.9237001358824,15.57590735767088 794.6874758068574,15.926593941967669 794.7481623564233,15.976036672652157 794.787526599391,16.023678431828767 794.7826060678308,16.15130760239571 794.8088488964755,16.295987902243976 794.9203809134588,16.364274563642415 794.9278097685016,16.368822738735833Z" name="Overijssel" name_en="Overijssel" gn_name="Provincie Overijssel" admin="Netherlands" adm0_a3="NLD" iso_3166_2="NL-OV" iso_a2="NL" postal="OV" type="Provincie" type_en="Province" wikidataid="Q773"/><path d="M795.4831695674307,25.321336797293817 795.4228132001067,25.328137534273267 795.2533282722917,25.423140083681034 795.0740022706361,25.61000305033 795.0182362596042,25.70763294825806 794.9318536167232,25.92636726796675 794.8465644159116,26.03415846509403 794.7197240779227,26.09802754547125 794.6081920558573,26.10601080663676 794.5130617917861,26.1512476969507 794.439800559532,26.32995154853067 794.4616695913489,26.591502024717002 794.6300610770952,26.71072157804447 794.8618727318358,26.77940838546571 795.5529339066213,27.166597727578825 795.8262967091196,27.45619684032141 795.8809692675031,27.53898250227245 795.907212088756,27.65451326553031 795.8973710360763,27.863840607721567 795.843791919762,27.916052853018787 795.7628765401256,27.930211494598602 795.6764938866648,28.02533306264688 795.4348411686642,28.46406617954502 795.1888146506478,28.758035623431844 794.9023304375232,28.913152865019924 793.9657894657554,28.943200416676667 792.9127959402934,29.303679105502212 792.3923131565502,29.703717479948473 792.2173609760706,29.783170395246163 792.0019510793238,29.783170395246163 791.3240113257428,29.58231515289464 791.4103939686237,29.96764588410462 791.3666559261495,30.13795936718454 790.9697331330294,30.248686906149974 790.9380230379512,29.98264910580299 790.7663512048392,29.88247492283027 790.3606808011081,29.820686951850384 790.3125689480382,29.76198376492655 790.1955696627291,29.55185116060741 790.1201215357555,29.47855604712735 790.0326454296467,29.467958602604195 789.7024231740475,29.540813196382892 789.3448646233868,29.393772224910037 789.0048012939477,29.117718070160528 788.6636445118603,28.956456345190826 788.3038990664822,29.151733331886014 788.4351132044859,29.251561580351087 788.8298491028883,29.66663663167731 788.9719977568022,29.890860064444773 788.8014193657577,29.848492164922618 788.552112489795,29.784494529480774 788.2087688024103,29.692681707192875 787.7779490300743,29.808770122567058 787.6259593129013,29.88997741419761 787.407269068787,30.05280736464265 787.2027936985282,30.14016525018117 786.7708804629646,30.21692605499321 786.5948348192559,30.341756221317056 786.5587509241632,30.493906813499525 786.7993101895154,30.678651939471916 786.9403654013591,31.008789312483234 786.9217767274886,31.353320333885918 786.7493519932273,31.524846903099757 786.7342583853576,31.52994525909008 786.7003613943937,31.541394950744145 786.4297322156681,31.358179327608987 786.3920081625738,31.322940524704876 786.2028410910269,31.062123002809823 786.1552759652977,30.99602338570459 786.124112614607,30.98632829330327 786.0732671281611,30.985446908207905 785.9682958135814,31.007481062516266 785.8731655526079,31.07269842124416 785.8682450305624,31.301796483070593 784.7802610636575,31.247171627456925 784.0416347614124,30.733331128954916 783.8371593937717,30.679547424020107 783.7365618807947,30.605478459796046 783.6058944580132,30.276490344541745 783.5452079179616,30.202382360569022 783.0722902628816,30.096501333741664 782.3959906905618,30.200617783023617 782.2418140603797,30.14944367859177 782.0389788635824,30.010903481135532 781.8350502068697,30.092971716904728 781.6278412084696,30.24914178370084 781.4107911374347,30.329420238313304 780.9832517167981,30.29766273829795 780.772215627724,30.410572290016017 780.6820059078251,30.743029425694832 780.62842679062,31.028633247376696 780.4922921253501,31.247171627456925 780.3058586845625,31.4039873384147 780.1041169381659,31.505283789309345 778.1676148419053,31.72016410283872 778.0735780218179,31.68758367230042 778.1916707602345,31.40839181517721 778.1933109405925,31.133504193156565 777.8024021321642,30.868214583998586 777.6843094032621,30.906118738724736 777.4278950892597,30.897303980058634 777.0342526500725,30.594896600659283 776.8680480654834,30.413218398021094 776.8467257588843,30.27560814171899 776.8385248856366,30.178560404614128 776.8254034617992,30.013550971576482 776.8532864708025,29.875868827265062 776.8549266511611,29.842327107345863 776.7876794087049,29.739044706318342 777.0932990097659,29.720505352609262 777.9057332758999,29.37700476790433 778.0156251220398,29.30722617283283 778.0254661756453,29.270126088906814 778.0254661756453,29.21800626844671 778.005784058919,29.141145138226356 777.9877421035219,29.045720560439808 778.3589687952237,28.380952346680317 778.4081741013116,28.297815646564416 778.671695838161,27.75632135284194 778.8286060895872,27.7775636406943 779.0828335027884,27.7288825001199 779.2736407356641,27.581049791152346 779.4310977170477,27.547407224323052 780.0253884522314,27.878456533023 780.2446254240676,27.82181655577638 780.5557122866462,27.581935109140733 780.7902575736063,27.527929249418488 781.0679941846934,27.62885512411821 781.1877270939535,27.634166622512634 781.2861376966144,27.58724693389289 781.4955336148452,27.436730393664163 781.6278412084696,27.400424888293806 782.0838103585528,27.49694056397035 782.8989782459308,27.98818452574014 783.2543498925523,28.074893887038293 783.2920739646758,27.994378365863735 783.2969944867214,27.725341934168352 783.282232901555,27.636822388667735 783.2625507753145,27.568655323977165 783.2182660007868,27.490742672882867 783.1460982172558,27.336664722284684 782.9279547053349,27.101060145325864 782.7945536517944,26.861838239255057 782.7010635711796,26.341493241494376 782.71582516586,25.930817273826236 782.6945028687754,25.830553931411178 782.6846618056553,25.73737705696117 782.5944520857564,25.389416084079876 782.4205933388478,25.430256479902074 782.4665182937342,25.55720279599395 782.45995759133,25.62554978278719 782.445195996649,25.693003116978588 782.400911222122,25.776423991957248 782.3599067892818,25.82434250632082 782.3172622046267,25.852737214749688 782.2746176009432,25.85628649440903 782.2385337186922,25.86959609582846 782.1280951330805,25.956546454052823 782.0313247107782,25.991146388912142 781.7360928742514,25.84386398193711 781.7147705771669,25.81369418719603 781.6983688116425,25.776423991957248 781.778737477935,25.707203064285387 781.8295829548663,25.64773904609601 781.8607463150717,25.590933255528256 781.9230730354817,25.406285212470397 782.0050818821329,25.232248996021134 782.1198942598329,25.241129365154006 782.1231746015204,25.221592435041057 782.1231746015204,25.18873372879401 782.1133335574287,25.12834110107882 782.1116933675561,25.01287123702867 782.1641790343606,24.909821851411877 782.165819205204,24.849407101535427 782.1379361962007,24.810312651147587 782.0559273590641,24.71789962368875 781.970638170726,24.663690610877474 781.9279935670419,24.622809130386308 781.834503486427,24.48326234225365 781.7606955320526,24.42548069886181 781.5420052901736,24.37569607615157 781.2910582281746,24.293010875596817 781.227091336921,24.17563580670167 781.2352922196832,24.141842671959733 781.2549743459236,24.11872018459958 781.323861768738,24.062689690821298 781.3599456605034,23.99153395375372 781.3812679575879,23.82251237557232 780.9985600319218,23.5110585631161 780.9395136627131,23.410476253310364 780.9641163205143,23.222627707733043 781.0023214811289,22.928023470298115 781.0647667063184,22.59527184286917 781.0665814802294,22.585599290679056 781.247289622597,22.65105080405868 782.000196640354,22.558083601567507 782.3766501492328,22.427910429866643 782.5819884276679,22.055864245254604 782.696065247963,21.683635951686554 782.8671804784068,21.255347960889967 783.0953341189977,21.031797508600015 783.3805261792518,20.789543598402904 783.6657182299907,20.621784095238688 784.0307640530339,20.47263341676497 784.498479020052,20.24885245511486 784.8977478910866,20.062317940769542 785.1601245796696,19.838416015297863 785.3654628676193,19.59578104137624 785.6050241940458,19.22234493696195 785.7875471103245,18.904779682420276 785.9016239306202,18.47492083024516 785.9130316069411,18.194446785850392 785.9124035363685,18.191628812509546 786.060943021224,18.203123524210685 786.1716777308221,18.2164471576603 786.3028918835611,18.416290083143174 786.5265026569997,18.846266673961114 786.5937499089705,18.905369383774214 786.6790391068231,18.92775558298937 786.9994203120798,18.830146946774327 787.3372967332609,18.54172511932311 787.6445565241946,18.378655527529336 787.7724903162169,18.433314619356107 787.8446580902332,18.477218241704307 787.9168258737636,18.5918933126216 787.9955543692128,18.753125771517656 788.1830812508864,18.955513546967254 788.2618097368209,19.023561022060182 788.3290569792771,19.125620799746066 788.4225470598919,19.400397745606845 788.5045559065431,19.612453937135527 788.7243395988229,19.932662778126485 788.7462086258647,19.977373951863203 788.7609702205457,20.031023859898394 788.7462086258647,20.224132173494525 788.5898450948818,20.64057832555772 788.2372070885342,20.759393394094705 788.2044035479709,20.785297976098228 788.1830812508864,20.80941522722158 788.2355669081762,20.928203893647844 788.2437677909384,21.00232577224286 788.1453571787629,21.148762174767814 788.0529605580628,21.528115479706106 788.0398391437404,21.653037477221726 788.0677221527437,21.71192217457812 788.1765205484828,21.868033701250347 788.2306463766162,21.93314504809213 788.4471497176932,22.033922851996014 788.6374102301261,22.53048201831475 788.6324896985655,22.674842350194165 788.614447752683,22.72741123680487 788.6324896985655,22.78354007115847 788.673494121891,22.813830121152865 788.7921335712364,22.869061803921436 788.8446192380403,22.911819042518907 788.8643013547668,22.995545056089515 788.8249371117997,23.10686855378248 788.8216567605976,23.123788294498805 788.8216567605976,23.147831501709575 788.8364183457635,23.18701139020078 788.8659415351253,23.230641153741843 788.9528709133367,23.311661233507984 788.9889547955876,23.31967374216176 789.0119172730301,23.316112656555216 789.0873654077625,23.200367691043503 789.1874161907821,23.116664242257364 789.2202197313454,23.103306441303722 789.321910685208,23.107759067673413 790.0627238882543,23.25557132648689 790.7324627676857,23.24488707337301 790.8374340822647,23.213723788482877 790.9948910541337,23.09440112590387 791.3579168535595,22.946557555951802 791.6728308068126,22.984857136173524 791.7357042476655,23.09083897056512 791.7471854911444,23.11488321877651 792.2490795961132,23.84831282107743 792.559619738249,24.145399928495873 792.8122069710915,24.116941503838497 793.2195175450448,24.16674302594968 793.5169362823724,24.104490622196476 793.5809031831412,24.108048022245146 793.6399495523492,24.130281516030706 793.6760334346001,24.21120593785326 793.6858744977203,24.284119465165695 793.6858744977203,24.339244583231263 793.7317994430921,24.35613695951222 793.7744440467756,24.36324942367031 794.1505912605237,24.271671300715468 794.2342402780182,24.294789145226996 794.337571421754,24.340133656862804 794.3736553135194,24.364138484757294 794.4015383225227,24.41303485981419 794.4195802588905,24.48237340471621 794.4310614928547,24.65391480389308 794.4277811416526,24.744558375638167 794.3228098270736,25.003099924125014 795.3555744964148,25.22336853888402 795.4758541356327,25.31572029825164 795.4831695674307,25.321336797293817Z" name="Gelderland" name_en="Gelderland" gn_name="Provincie Gelderland" admin="Netherlands" adm0_a3="NLD" iso_3166_2="NL-GE" iso_a2="NL" postal="GE" type="Provincie" type_en="Province" wikidataid="Q775"/><path d="M786.7493519932273,31.524846903099757 786.6866847148008,31.58717824416126 786.6779371041906,31.77033911011267 786.782908431522,31.813040998050464 787.0901682132348,31.805997559482257 787.2115412985596,31.864104063721662 787.4477267638955,32.04323802636163 787.5526980806471,32.151490321343516 787.4105494267342,32.633599471803166 787.6532955973829,32.94311557571047 788.3695061407736,33.25821882305302 788.2459461501514,33.63863128343149 788.1890866864704,33.8814518984706 788.2350116448226,34.089961641394176 788.9391942196556,35.059336615075686 789.365640191975,35.552765285017536 789.4410883295275,36.10804127007222 789.4924805405445,36.41528505019072 789.4542097401542,36.75039968297909 789.3732943605177,37.110288410602855 789.3590794972416,37.42193932401495 789.518723361798,37.612888804250815 789.4574900981006,37.76142088986368 789.424686560954,38.131752494792494 789.367827097273,38.342168218037784 789.2628557805217,38.49099608630598 788.9938667780392,38.67862658552108 788.8834282086228,38.78725685716252 788.3410764036436,39.78863864308079 788.1180123595135,40.06088369151447 788.0097606848155,40.246826278636085 787.9190042419191,40.58245454167885 787.8883875994907,40.95839373573815 787.963835737043,41.269362426409224 788.2120491709364,41.407627147477456 788.7390926494118,41.04539060018382 788.9818388200614,41.12889837807646 788.8976430718989,41.17804196673385 788.6559903644783,41.37588931982919 788.8779609559591,41.58324850083568 788.7205039861212,41.792290175053566 788.1180123595135,42.119428954105594 787.1393735189546,42.88698769795458 786.997224865041,43.050993578578996 786.7938429368508,43.47820006279902 786.6637222409145,43.62127232716972 786.4690879233366,43.64208064265755 786.328032722072,43.51288668765889 786.2022858261514,43.34941240470875 786.0557633722221,43.26701174196699 785.7594380852589,43.423131876898765 785.8195778963064,43.81589481136916 785.9825021293881,44.298122189025264 785.9934366452975,44.720744678061514 786.1377722045075,44.6913071559478 786.4122284702345,44.55536049169323 786.5554705767966,44.514658427961045 786.7019930307249,44.53457673867935 786.9797296438185,44.62636745164538 787.359157215717,44.58047346409925 787.3810262475339,44.667929487940924 787.3165126258909,44.809050579323866 787.2760549202027,44.9484148583028 787.2913632467067,45.18986254644298 787.3186995206087,45.32310249902971 787.3996149108257,45.41220475695938 787.6489217867884,45.56875766764772 787.9944523794704,45.68896191261939 787.9736768003025,45.75640649213798 787.9179107892706,45.84718798994519 787.8982286627511,45.957840594914046 787.9878916635777,46.30180010543516 787.9846113162109,46.434849013883 787.920097694568,46.606742053311535 787.8020049566096,46.74837401345503 787.5636325965556,46.72764899070935 787.4182035846962,46.8105457419126 787.3252602259223,46.978039153898536 787.3351012891818,47.12219267278496 787.358063763068,47.27581185047326 787.3022977520352,47.474263515098336 787.1503080348631,47.61659974119366 786.9895707070789,47.57605814573378 787.034402202202,47.78995588829893 787.1153175924194,47.92964759180877 787.2202889091701,48.00293257156478 787.2891763308297,48.104657893564195 787.2662138675231,48.32185718669314 787.0529908760725,48.36149812168678 786.2853881216649,48.33650732667394 786.1699092468596,48.299849396993984 786.0492026563294,48.26153014877266 785.131797090047,48.28479969485639 785.023545415348,48.20895559112591 784.807042076532,47.970170722209296 784.7009773177119,47.92964759180877 784.6069405062881,48.002070426129464 784.4929011912585,48.1730080483087 784.4407359152601,48.25118788591119 784.3302973458448,48.27359591464898 784.2154849658327,48.25032603279356 784.0230375535518,48.14000000049585 784.1323826808989,47.75718504828583 784.1509713441897,47.56053101065161 783.9858602058099,47.511359705347516 783.757328909016,47.40179139151814 783.6957715653065,47.358787760944686 783.5189565489618,47.23525244443011 783.3472846946892,46.98062896949266 783.3243222313829,46.606742053311535 784.0875511751948,45.75381258355092 784.2100177131681,45.7045265700123 784.3324842511418,45.6604259064422 784.3827830095099,45.61978188356164 784.5194644001789,45.41393478182693 784.7020707597803,45.024578526687435 784.8234438451051,44.820304517083194 784.7206594336518,44.75883864819386 784.6189684642668,44.756241396541554 784.3827830095099,44.820304517083194 784.7993879185699,44.154308616482815 784.9666859516672,43.74524686283213 784.8234438451051,43.550173051766635 784.8485932242896,43.32772886753004 784.9021723300242,43.16508297963733 784.988554972904,43.111727685818416 785.1121149635271,43.217567122478044 785.1919369010952,43.10869110299912 785.249889828005,42.98938699122928 785.3286183129231,42.75896949884406 785.2990951231442,42.69126318169802 785.2826933545708,42.64004547128173 785.2564505227382,42.51849836484914 785.3723563553983,42.53108805618673 785.486075282761,42.513722898865474 785.593233494231,42.47030830668538 785.6905506635994,42.404747653559866 785.4499913876681,42.14679284062588 785.4838883774627,41.954790765222626 785.6325977472694,41.80749890673464 785.6063549154368,41.72667195312808 785.5123181145937,41.51239617925544 785.3318986602897,41.498051054273766 785.0071436573554,41.58064056001335 784.8660884349312,41.46196968980967 784.6452112960994,41.156732296527196 784.4724460103371,41.05321983921971 784.3368580511575,41.03886617926686 783.894010310265,41.13020312121199 783.7124974138917,41.13194276968207 783.5976850338809,41.04974020032286 783.4959940644959,40.932727799056075 783.3527519579338,40.831795790578774 782.7535406892729,40.65078118810515 782.5740414330379,40.497220856024505 782.5764101398734,40.496289588208676 782.7535492379835,40.42664335573908 783.0066831912693,40.35002520993713 783.0985331010413,40.3587321937715 783.1772615869758,40.3239036384542 783.2510695413503,40.24117953558817 783.3101159105582,40.12186702478504 783.4057928824606,39.5546625269326 783.5927730436907,39.223382431304216 783.6649408177071,39.10827285157603 783.8896450510609,38.817806358903674 784.9191293692006,38.50366530387559 785.6708770762539,38.26448315509077 785.9978189934282,38.1806645380877 786.2422053339944,37.97719180520361 786.6265534400192,37.66008633995748 786.369045675616,37.11117643962157 786.007660056549,36.61174785315652 785.7676475080708,35.6417026537418 785.6036298242831,34.57393855251793 785.9830573987477,34.61165994109643 786.3870876310131,34.748494100071106 786.5117410623193,34.75024820923728 786.7971318357252,34.702885412680544 787.3159744361764,34.52393291726944 787.419305579912,34.55112935533582 787.6773600647581,34.729198451633685 787.8413777485458,34.58358837296092 787.8435646398326,34.4467248368229 787.7806912084937,34.3036939002046 787.6511172265982,33.79804584713331 787.6068324520711,33.72339944595932 787.5953512181069,33.66279876915153 787.3865020393487,33.312274910495574 787.2913717878898,33.21648991014096 787.1847602834374,33.151454744541155 787.1322746261475,33.06443960694142 787.2028022388345,32.90005075349046 787.0376910951313,32.7162803039474 786.8966358983015,32.10222037157905 786.733164934957,31.97019480865106 786.3061722347626,31.926181237342114 786.1372340194147,31.81965793642498 786.0470242995159,31.610970158152085 786.0792811006074,31.40574914442317 785.8682450305624,31.301796483070593 785.8731655526079,31.07269842124416 785.9682958135814,31.007481062516266 786.0732671281611,30.985446908207905 786.124112614607,30.98632829330327 786.1552759652977,30.99602338570459 786.2028410910269,31.062123002809823 786.3920081625738,31.322940524704876 786.4297322156681,31.358179327608987 786.7003613943937,31.541394950744145 786.7342583853576,31.52994525909008 786.7493519932273,31.524846903099757Z" name="Limburg" name_en="Limburg" gn_name="Provincie Limburg" admin="Netherlands" adm0_a3="NLD" iso_3166_2="NL-LI" iso_a2="NL" postal="LI" type="Provincie" type_en="Province" wikidataid="Q1093"/><path d="M760.3826222632002,40.17933473342973 760.044745839059,40.13970792960082 759.7999076274879,40.02655079350873 759.7243646361396,39.99163367167819 759.4674036022149,39.70977854360244 759.3176007797592,39.286148591290406 759.3252549271425,38.892818582831 759.3689929801964,38.47397614759907 759.2774375518425,37.823249756781145 760.9860824163401,37.26990338526566 761.1427817253649,37.14048457331325 761.3080908856037,37.12120756816002 761.9779373777727,37.55551147982455 763.0093976526748,37.85064319249246 763.3486258243662,38.151849782597054 763.5742039536834,38.248101028036025 764.0012526141074,38.248101028036025 764.4041936974792,38.36358662849717 764.6599063060461,38.326468153301875 765.6930885575383,37.88159449639716 765.8351511131511,37.714442612436365 765.8919761396281,37.37727693121408 765.9927114051812,37.2272251119536 766.2208724835149,37.23823908979133 766.4679752408676,37.333228050713615 766.6203696242853,37.429581697005986 766.6901094275835,37.53555676804885 766.8089253891501,37.7990548980184 766.9027727694997,37.90222803026075 767.0207277480611,37.942805668856906 767.2764403566277,37.97719182267434 767.3823415413732,38.063838126534165 767.4503593680805,38.09134284863692 767.8162780869999,38.121596918378295 767.9979459560816,37.84857971559217 768.0651028103633,37.78598531502546 768.2717392606619,37.80937284024044 768.5038234930158,37.9453329831552 768.4982171796412,38.01604298808158 768.4194886947221,38.409384357746255 768.3604423363229,38.57739905695203 767.9438374166833,39.146630990654465 767.418980843505,39.55944270758846 766.107932831468,40.21983037932222 765.6257208375364,40.59812231941828 765.3884419301312,40.674280662817985 764.1364402870744,40.68994659293528 764.0052261384901,40.63206812750616 763.8477691686523,40.44491248759142 763.8302739474307,40.26903187985631 763.8477691686523,40.08178814841162 763.7930966102688,39.86095630478048 763.592995029445,39.72938539151428 762.2994422492103,39.299227080559376 762.0293597940798,39.255195308974486 761.7680249495596,39.27045411797262 761.3470462299041,39.36505206951425 761.1775613020893,39.375077881703064 761.022291216389,39.413872263547525 760.9063853943097,39.53329435274226 760.88670327837,39.7280782770867 760.914039552271,39.94154329691699 760.8834229204226,40.100950051234236 760.3826222632002,40.17933473342973Z" name="Zeeland" name_en="Zeeland" gn_name="Provincie Zeeland" admin="Netherlands" adm0_a3="NLD" iso_3166_2="NL-ZE" iso_a2="NL" postal="ZE" type="Provincie" type_en="Province" wikidataid="Q705"/><path d="M769.134725419627,37.9293452742406 768.9225304257485,37.9220305838308 768.8804558007471,37.869214134298645 768.7952182610317,37.671101021633426 768.7668057583728,37.464678948471764 768.7719716669855,37.290553306382066 768.7513080219555,37.159072658421316 768.6436848711991,37.08265212578442 768.5197030010199,37.24374601959182 768.2872369864995,37.313955890585746 767.3358483321213,37.28642335972383 767.1162971050016,37.21345742641578 766.9027727694997,37.08265212578442 766.3207467766424,36.57643255177748 766.1476887481949,36.50546631129858 765.7060033343595,36.45998935597345 765.5587748595544,36.55162955902942 765.2445152584995,37.14599220278204 765.1248383139277,37.320838865156986 764.9621121132851,37.40755907723926 764.5815566515333,37.44885097870185 764.4455209875389,37.53555676804885 764.3318709345849,37.55551147982455 764.2182208922105,37.50390340132182 763.9289298617928,37.19831269118006 763.2909398254636,36.88295901000853 762.8776669248667,36.48548434525933 762.7114967710424,36.46687997559597 762.273255299809,36.6308585247338 762.0347624042497,36.64188104402325 761.4355166983842,36.50546631129858 761.2452389675088,36.40210572011956 761.0842347328768,36.16225559010304 760.9430331496902,35.89198996268716 760.8156073474887,35.69543612856363 760.4677693140037,35.38912575945291 760.3523972950386,35.20693735283233 760.3102090219736,34.93150241712364 760.4212761153315,34.77682895999184 761.5095614167099,34.10529552780308 764.3499516305983,33.797658662201975 764.5850005941353,33.83084789938971 764.7434218691707,33.922110888334316 764.913896938022,34.08041263016955 765.0654303384342,34.28912747223622 765.1635826549709,34.536470906681906 765.0525155616132,34.58137108967409 764.8725696479623,34.70362441649633 764.8019688616588,34.768542007611615 764.8019688616588,34.873503521049564 765.8144874681213,34.97983147665069 766.328495644851,35.18830200977475 766.7650151394942,35.56920137488999 766.9044947460907,35.834063527653385 767.1128531623996,36.418644341559975 767.2695524714245,36.6308585247338 767.5226821203952,36.7045685782999 768.0737126615772,36.62810287869336 768.2812100948817,36.73556602987555 768.4904295047762,36.66737000428204 768.8348235850802,36.68459178464792 768.9514612657066,36.651994041957195 768.9519773395101,36.65305583833322 768.955288346866,36.65986805161664 769.0028534630811,36.90829536391783 768.9651293909576,36.976511335373786 768.9536481569934,37.033353370703125 768.9339660402669,37.08494483184299 768.9405267521857,37.27816342170194 768.9815311659967,37.605038204879236 769.0815819490157,37.689793231653496 769.1209462014978,37.797252664814344 769.1340676158202,37.923039799510335 769.134725419627,37.9293452742406Z" name="Zeeland" name_en="Zeeland" gn_name="Provincie Zeeland" admin="Netherlands" adm0_a3="NLD" iso_3166_2="NL-ZE" iso_a2="NL" postal="ZE" type="Provincie" type_en="Province" wikidataid="Q705"/><path d="M768.598913638538,35.37946532900347 768.2200801427973,35.31114888877227 767.7826996545692,35.11651721404679 767.6199734539265,35.1027116785136 767.2850502078418,35.14274705142725 767.1266289328063,35.11651721404679 766.8717773072449,34.96464267472681 766.0348996782462,34.17924825256434 766.5962620366535,33.91174064880766 766.8769432158574,33.83292217374343 767.8240269446288,33.879937674250336 768.1004031982255,33.964281801999114 768.3485167433698,34.17449908102539 768.3560770706077,34.19135645854912 768.63381367218,34.50814098419305 768.6682574026162,34.55814764789255 768.7420653474759,34.7730514927461 768.7404251766325,34.975620060363696 768.7273037527955,35.0440077490682 768.598913638538,35.37946532900347Z" name="Zeeland" name_en="Zeeland" gn_name="Provincie Zeeland" admin="Netherlands" adm0_a3="NLD" iso_3166_2="NL-ZE" iso_a2="NL" postal="ZE" type="Provincie" type_en="Province" wikidataid="Q705"/><path d="M768.1296766918118,33.72850979611894 767.7120988682651,33.71053006935928 767.5993098088967,33.66696207965427 767.4934086241514,33.59434324851073 767.4090320780208,33.492665343110815 767.3556509941452,33.34462033403282 767.3339908601448,33.21544209147334 767.3358870856309,33.212974639243164 767.3644369754028,33.175823239610565 767.5428073529163,33.022950324189026 767.7798422487913,33.11525410224184 768.0058751628679,33.278798573668155 768.2442327357301,33.372898417774515 768.2530069133107,33.37009837847257 768.248657012471,33.382629865568525 768.1296766918118,33.72850979611894Z" name="Zeeland" name_en="Zeeland" gn_name="Provincie Zeeland" admin="Netherlands" adm0_a3="NLD" iso_3166_2="NL-ZE" iso_a2="NL" postal="ZE" type="Provincie" type_en="Province" wikidataid="Q705"/><path d="M766.5480468719707,32.554102303889486 766.9897322858061,32.677371533062555 767.1903418339065,32.82000667408419 767.2118664619422,33.09412402443664 767.1025213451745,33.2657435743364 766.9286023337219,33.386822998502566 766.7409075518624,33.45946147397519 765.9281375210753,33.618550294911984 765.7404427392158,33.60886756120049 765.3469725006435,33.46222851087656 765.1188114223092,33.30033965547345 765.0172151631712,33.07059253443959 764.9500583194691,32.85185362113378 764.7830271932193,32.7203033419823 764.3680323160321,32.554102303889486 764.297431529728,32.48553388267891 764.2311356690318,32.39409976789605 764.142454197294,32.3213602987199 764.0012526141074,32.31096839217877 763.740374096928,32.62266460968216 763.6783831618385,32.68083385660255 763.2039803091573,32.707839528701435 762.9870120416338,32.64343984980588 762.8458104690262,32.43774014312052 762.8750839652706,31.886858007560058 763.259944352629,31.63657819919716 764.1510640485086,31.50759325283973 764.1949742875846,31.491641998340842 764.3680323160321,31.50759325283973 764.5075119226285,31.583877309854177 765.5217524951015,31.612308506979204 765.7559404756332,31.664314075613238 765.9281375210753,31.79743223822008 766.3233297256588,32.28394875191935 766.3749888435233,32.373317769214 766.4421456872253,32.4647543628001 766.5480468719707,32.554102303889486Z" name="Zeeland" name_en="Zeeland" gn_name="Provincie Zeeland" admin="Netherlands" adm0_a3="NLD" iso_3166_2="NL-ZE" iso_a2="NL" postal="ZE" type="Provincie" type_en="Province" wikidataid="Q705"/><path d="M774.864290164327,37.17280355437026 774.7877485741276,36.87854461249266 774.8347669851281,36.62223340098419 774.900374059421,36.379402518570316 774.8774115749542,36.12380035280321 774.7680664581877,35.9802056757377 774.5909273618302,35.86329632578448 774.3984799495483,35.78972626890547 774.2453967797271,35.77483623872394 773.8965858502567,35.95481115534346 773.0786843269012,36.96075606603229 772.9693392101341,37.04208429217288 772.8271905562211,37.096298311207164 772.6631728704906,37.10722810708671 772.3252964357697,37.02197164552543 772.0202235593541,37.07793592286267 771.8802618001588,37.06481967012193 771.6779733246176,36.91965144594415 771.6976554405575,36.754336194269 771.787318441385,36.54348583881631 771.8015333046601,36.26036550074001 771.7173375670773,36.11898510238529 771.5839365131947,36.09447068808635 771.2712094682383,36.14612516139904 770.7037082840734,36.355334018524715 770.1504219737654,36.678664195288434 770.2783557644033,36.81906703103084 770.2564867431652,36.93976675080655 770.1875993215065,37.07181502935933 770.1799451529648,37.24318166095371 770.2619540064098,37.39528128228738 770.499232913815,37.67842119709603 770.5637465354581,37.844411600810034 770.5112608717916,38.13568194686096 770.3100658488997,38.242642638172946 769.816919360219,38.210774251300656 769.6124439793807,38.140921173827266 769.2297360495359,37.93263404452243 769.134725419627,37.9293452742406 769.1340676158202,37.923039799510335 769.1209462014978,37.797252664814344 769.0815819490157,37.689793231653496 768.9815311659967,37.605038204879236 768.9405267521857,37.27816342170194 768.9339660402669,37.08494483184299 768.9536481569934,37.033353370703125 768.9651293909576,36.976511335373786 769.0028534630811,36.90829536391783 768.955288346866,36.65986805161664 768.9519773395101,36.65305583833322 768.9514612657066,36.651994041957195 769.1568320543438,36.597101095730565 769.2997555929619,36.21050732716823 769.2136570808208,35.84440784380157 768.9932448601156,35.5705810982439 768.6970659550747,35.39740601962413 768.598913638538,35.37946532900347 768.7273037527955,35.0440077490682 768.7404251766325,34.975620060363696 768.7420653474759,34.7730514927461 768.6682574026162,34.55814764789255 768.63381367218,34.50814098419305 768.3560770706077,34.19135645854912 768.3485167433698,34.17449908102539 768.349227921589,34.175101552851515 768.3535328577759,34.17924825256434 768.3044566995076,33.85919589824295 768.1701430015238,33.7305843483525 768.1296766918118,33.72850979611894 768.248657012471,33.382629865568525 768.2530069133107,33.37009837847257 768.6883054522054,33.23117187941069 769.1244780530468,33.19427108877858 769.6907372177161,33.04665017003193 770.1039533733936,32.76363067494018 770.4253437103548,32.172644465940934 771.5196012945812,32.39431768855167 771.9251653050414,32.38200418534068 772.2924685418461,32.271173815152345 772.7286411522022,32.06178381405042 772.9735099703951,31.987867791720856 773.3077044371449,31.983436115277946 773.8375480203571,31.34408399794412 773.9889910197799,31.045378308187008 774.2197092160659,30.79592705221029 774.5225952053969,30.56315011477656 775.1054046971022,30.554331421320693 775.3683797135083,30.47054869636202 775.7773304773343,30.098266151410815 776.050146547346,30.093854114961818 776.5875778236376,30.202382360569022 776.8385248856366,30.178560404614128 776.8467257588843,30.27560814171899 776.8680480654834,30.413218398021094 777.0342526500725,30.594896600659283 777.4278950892597,30.897303980058634 777.6843094032621,30.906118738724736 777.8024021321642,30.868214583998586 778.1933109405925,31.133504193156565 778.1916707602345,31.40839181517721 778.0735780218179,31.68758367230042 778.1676148419053,31.72016410283872 780.1041169381659,31.505283789309345 780.3058586845625,31.4039873384147 780.4922921253501,31.247171627456925 780.62842679062,31.028633247376696 780.6820059078251,30.743029425694832 780.772215627724,30.410572290016017 780.9832517167981,30.29766273829795 781.4107911374347,30.329420238313304 781.6278412084696,30.24914178370084 781.8350502068697,30.092971716904728 782.0389788635824,30.010903481135532 782.2418140603797,30.14944367859177 782.3959906905618,30.200617783023617 783.0722902628816,30.096501333741664 783.5452079179616,30.202382360569022 783.6058944580132,30.276490344541745 783.7365618807947,30.605478459796046 783.8371593937717,30.679547424020107 784.0416347614124,30.733331128954916 784.7802610636575,31.247171627456925 785.8682450305624,31.301796483070593 786.0792811006074,31.40574914442317 786.0470242995159,31.610970158152085 786.1372340194147,31.81965793642498 786.3061722347626,31.926181237342114 786.733164934957,31.97019480865106 786.8966358983015,32.10222037157905 787.0376910951313,32.7162803039474 787.2028022388345,32.90005075349046 787.1322746261475,33.06443960694142 787.1847602834374,33.151454744541155 787.2913717878898,33.21648991014096 787.3865020393487,33.312274910495574 787.5953512181069,33.66279876915153 787.6068324520711,33.72339944595932 787.6511172265982,33.79804584713331 787.7806912084937,34.3036939002046 787.8435646398326,34.4467248368229 787.8413777485458,34.58358837296092 787.6773600647581,34.729198451633685 787.419305579912,34.55112935533582 787.3159744361764,34.52393291726944 786.7971318357252,34.702885412680544 786.5117410623193,34.75024820923728 786.3870876310131,34.748494100071106 785.9830573987477,34.61165994109643 785.6036298242831,34.57393855251793 785.7676475080708,35.6417026537418 786.007660056549,36.61174785315652 786.369045675616,37.11117643962157 786.6265534400192,37.66008633995748 786.2422053339944,37.97719180520361 785.9978189934282,38.1806645380877 785.6708770762539,38.26448315509077 784.9191293692006,38.50366530387559 783.8896450510609,38.817806358903674 783.6649408177071,39.10827285157603 783.5927730436907,39.223382431304216 783.4057928824606,39.5546625269326 783.3101159105582,40.12186702478504 783.2510695413503,40.24117953558817 783.1772615869758,40.3239036384542 783.0985331010413,40.3587321937715 783.0066831912693,40.35002520993713 782.7535492379835,40.42664335573908 782.5764101398734,40.496289588208676 782.5740414330379,40.497220856024505 782.5118879712713,40.444041897527505 782.4779909814766,40.06088369151447 782.4025428439252,39.73417811421421 782.2068150842767,39.47794406779671 781.9586016609633,39.321024058282795 781.7300703535894,39.294867597545036 781.5212211727346,39.39556505313309 781.077279968613,39.70890710645049 780.8564028297812,39.7903813193237 779.6044011867244,39.73766369208226 779.2736700963046,39.82033985297015 779.205291498886,39.83743203857989 779.019404791917,39.78994567170879 779.0139375392532,39.18936095357512 778.8280508217058,38.9530084870921 778.6323230620573,38.93338186284397 778.2233723109595,38.96914553857083 778.0407659513584,38.86795617682322 777.9893737403412,38.75759227491014 777.8811220762228,38.38494280384536 777.8253560651904,38.238277172336325 777.4612368092165,37.8348026018176 777.3934428296262,37.670557603852025 777.4306201773682,37.30437477531597 777.5487129047458,37.0337769506551 777.585890241908,36.75214924791948 777.3781345137021,36.355334018524715 777.0610336687291,36.14437421712204 777.0315104789502,36.10410144891262 776.8685862564483,36.14612516139904 776.8051660768737,36.24811064508073 776.7690821923616,36.4056582033646 776.6958209495267,36.61392154090871 776.5307098217274,36.887728249780125 776.2868701984288,37.21826593111272 776.0200681012446,37.478311494584666 775.791536793871,37.54123368764438 775.3825860427723,37.35288871841674 775.187951725194,37.3004410773966 774.4476852552672,37.275090112363266 774.2235277479102,37.1780493561705 774.2836675695376,36.97474863035074 774.402853749564,36.95725788095416 774.864290164327,37.17280355437026Z" name="Noord-Brabant" name_en="North Brabant" gn_name="Provincie Noord-Brabant" admin="Netherlands" adm0_a3="NLD" iso_3166_2="NL-NB" iso_a2="NL" type="Provincie" type_en="Province" wikidataid="Q1101"/><path d="M767.3339908601448,33.21544209147334 767.3229335553001,33.14948936434958 767.3203506062837,32.95500095338734 767.3522070515438,32.81031387131181 767.4899646921291,32.660059629768405 767.6724935547962,32.583190097258374 768.0323853715176,32.554102303889486 767.9204572951544,32.43774014312052 767.6535518757776,32.24653536188884 766.9174095229117,32.02063057404626 766.7650151394942,31.79743223822008 766.6978582957921,31.231520213417966 766.5196343587321,30.877612731633302 766.2639217501654,30.64436072927994 765.9642988919428,30.438123422173806 765.7645503268471,30.588119692530668 765.4959229414591,30.671438267578154 765.2229906304644,30.67074396837577 765.016354180166,30.729061626574513 764.9776098497024,30.798481622878732 764.9027041377917,30.812364863353373 764.8019688616588,30.808894068308412 764.7038165451222,30.33463662254626 765.0111882715534,30.126231494800862 765.6750078615249,29.923329295223937 765.7654113098529,29.800311020742672 765.9720477601514,29.784324148582524 766.3259126852549,29.864950216915375 766.6203696242853,30.024787129777494 766.6642798739412,30.03382038699442 766.7426295284532,30.024787129777494 766.8528356282261,29.9754497226894 766.9819834175975,29.864950216915375 766.9019117864945,29.708555688969465 766.6324234181006,29.336555802894637 766.5609616487918,29.2781319178826 766.4998316967076,29.207878216701886 766.4757241090764,29.101442007053233 766.4989707137023,28.96785403198435 766.5480468719707,28.8739110087308 766.597123030239,28.806404079151022 766.6203696242853,28.75211583206941 766.5859302194284,28.48897199174521 766.3844596777425,27.816778133472305 766.2665047097615,27.528912241362168 766.3259126852549,27.399232594956096 766.3982354375695,27.284873122717762 766.8907189862634,27.395049007207337 767.2996869612538,27.327411263111713 767.6613007439863,27.092375810144006 769.1723297907612,25.25003759471811 770.4655295764269,23.34856154500803 771.5365951753776,21.40086084017437 771.4401562234245,21.578979057383066 771.9037795453412,21.788643842024346 771.9644660853933,21.812729273371147 772.1536331379103,21.854653970147652 772.3734168397041,21.73957854281648 772.6112424778662,21.796672409099642 772.1667545617473,22.537611576812658 772.1519929670669,22.579496315685322 772.138871552744,22.654348408200196 772.1290304896238,22.81561184942106 772.0776382827346,23.048091774844966 771.9447839591522,23.27426841628535 771.9595455538332,23.401574531329803 772.0792784630933,23.39267270524613 772.1831563272717,23.493257367409083 772.2340018137181,23.51817894033224 772.3061695877338,23.531529431318983 772.5669577033391,23.525299235459624 773.0185530518196,23.404245051109502 773.2432572851734,23.29652627168279 773.6751705169279,23.156736191897966 773.7292963450612,23.193244355631386 773.7555391737059,23.21906616802867 773.8014641285915,23.47278545447504 773.8375480203571,23.55466975665002 773.9496267768129,23.609847703578282 774.2842228372774,23.387331544132007 774.4219976924205,23.62942602827297 774.4744833592243,23.704174928984717 774.5389969804359,23.768239581368473 774.7719020870378,23.86076789194193 775.2874643267725,24.303680431110422 775.1923340753135,24.381919349334648 775.2349786694825,24.572148599971836 775.3022259214528,24.761441767403223 775.3186276869772,24.819197922604282 775.3169875161337,24.860957364833535 775.2940250386905,24.89027642659469 775.2497402736781,24.902714487830142 775.0753347968122,24.819197922604282 775.0228491395224,24.8067585135548 774.9867652477568,24.789876125869036 774.9523215268355,24.764107538418 774.8949153475,24.77654764375556 774.8440698610542,24.793430342206477 774.5914826282111,25.061726015192455 774.527515727443,25.133670052108844 774.6734914748623,25.261553778274795 774.8341110923836,25.320392851547293 774.9684657882774,25.960194729155138 775.4465614789995,25.963643999806568 775.3704102412829,26.080097839699935 774.9539106897207,26.28715884071011 774.6180239499861,26.799121025847732 774.6650480925975,26.90800485322236 775.1487250016213,26.842676433256443 775.1957491442323,27.049530627354898 775.0622133824899,27.132950741785752 774.9851250673988,27.16926893774882 774.9162376445845,27.191413349651068 774.8817939331777,27.24278588876743 774.9769241846367,27.405738006683283 775.3153473357756,27.838631981387515 775.5482524518917,28.196093555142575 775.6187800455494,28.087280141849664 775.8587925940275,28.101435613528007 775.9654040794506,28.057198895518585 776.2622760868209,27.751010673157847 776.6017926978753,27.55448997449406 776.6236617154025,27.527929249418488 777.0621356590752,27.627969860522942 777.168747154013,27.581049791152346 777.3223770447225,27.384485342110356 777.416413855296,27.31186766667783 777.6580665746176,27.24544301656641 777.7515566457178,27.17281209853604 777.8499672578934,27.12320653592939 777.9959429957987,27.15509617639312 778.1249702382216,27.256071342798037 778.2709459666117,27.510221596362594 778.3704500387026,27.634166622512634 778.5700048842979,27.74038923381166 778.671695838161,27.75632135284194 778.4081741013116,28.297815646564416 778.3589687952237,28.380952346680317 777.9877421035219,29.045720560439808 778.005784058919,29.141145138226356 778.0254661756453,29.21800626844671 778.0254661756453,29.270126088906814 778.0156251220398,29.30722617283283 777.9057332758999,29.37700476790433 777.0932990097659,29.720505352609262 776.7876794087049,29.739044706318342 776.8549266511611,29.842327107345863 776.8532864708025,29.875868827265062 776.8254034617992,30.013550971576482 776.8385248856366,30.178560404614128 776.5875778236376,30.202382360569022 776.050146547346,30.093854114961818 775.7773304773343,30.098266151410815 775.3683797135083,30.47054869636202 775.1054046971022,30.554331421320693 774.5225952053969,30.56315011477656 774.2197092160659,30.79592705221029 773.9889910197799,31.045378308187008 773.8375480203571,31.34408399794412 773.3077044371449,31.983436115277946 772.9735099703951,31.987867791720856 772.7286411522022,32.06178381405042 772.2924685418461,32.271173815152345 771.9251653050414,32.38200418534068 771.5196012945812,32.39431768855167 770.4253437103548,32.172644465940934 770.1039533733936,32.76363067494018 769.6907372177161,33.04665017003193 769.1244780530468,33.19427108877858 768.6883054522054,33.23117187941069 768.2530069133107,33.37009837847257 768.2442327357301,33.372898417774515 768.0058751628679,33.278798573668155 767.7798422487913,33.11525410224184 767.5428073529163,33.022950324189026 767.3644369754028,33.175823239610565 767.3358870856309,33.212974639243164 767.3339908601448,33.21544209147334Z" name="Zuid-Holland" name_en="South Holland" gn_name="Provincie Zuid-Holland" admin="Netherlands" adm0_a3="NLD" iso_3166_2="NL-ZH" iso_a2="NL" type="Provincie" type_en="Province" wikidataid="Q694"/><path d="M771.5365951753776,21.40086084017437 772.1763071882974,19.51790641546351 772.268432602636,19.027403157615325 772.268432602636,18.899792143245246 772.4759300359405,18.45545372494616 772.9245033349786,15.082695801953435 773.1121981062583,14.21977109729758 773.1414716025022,13.95651421647831 773.2430678616408,13.410549393914872 773.6899191840887,12.248439831552796 773.7923764262321,11.674188079863626 773.8035692264631,11.34951046054615 773.8457574995281,10.932778511293892 773.9249681476258,10.572137342496589 774.047228041214,10.419561296021193 774.6981328649439,10.520806799557345 774.8031730561044,10.419561296021193 774.8823836936217,10.550037120755293 774.7239624185863,11.085250750627239 774.9710651759392,11.405057325766036 775.405001721566,11.533938790720097 775.8208575711793,11.505458597710888 776.0610724539085,11.368738688504175 776.5105067253729,10.97838092420932 776.7300579524925,10.897149715497543 777.1519407043035,10.841565428902689 777.5669355814912,10.657680505034378 778.6422321594869,9.693766519499547 778.6458579523827,9.71147162367435 778.6671802494673,9.76585470782341 778.7081846727929,9.937135790325819 778.7232378815227,10.00000539199192 778.7240122966961,10.003239541257656 779.4930168495225,12.209040532812406 780.6582165895694,13.51940708524596 780.656994196835,13.537266562887835 780.537172991762,15.285830743094161 780.0065362590591,15.11679146093247 779.6813072996858,15.342168793512496 779.510134163174,15.989754864842833 777.747050838069,17.142775332916074 778.0038105333226,18.294043567234652 778.5173299618885,19.05124222056957 778.7912069803078,19.807685905245783 778.4317433936326,19.807685905245783 777.8326374063255,20.367528951416663 777.8497547104619,20.92695956956041 778.4317433936326,21.54185784605221 778.7569723434913,21.625669077932308 779.1506705669836,21.597733042937833 779.3731956444494,21.597733042937833 779.7326592406398,21.70947108557407 780.6294103565006,22.31665303051562 780.6137406850537,22.319488223202303 780.2548090425926,22.384428963502682 779.6623626528058,22.38520292538231 779.5787136257965,22.417291486229814 779.5311485000667,22.44492222767821 779.3392478072757,22.767503675025328 779.123837926114,23.301868070040797 779.0877540343484,23.503938134786416 779.028707674655,23.63209574884462 778.9548997107661,23.8127257507039 778.8778113956749,23.969296408813438 778.6695089468742,24.113384129853998 778.0817789140947,24.081366985273764 777.6824306244016,24.155738964613157 777.4943340444413,24.243149815088547 777.2166676799047,24.30141811185574 777.1629258053529,23.937168013500727 777.1002269390231,23.674800016250288 777.1802283879773,23.325015378066396 777.3557273057293,23.108649596020513 777.3048818287975,23.002670242300578 777.2769988102802,22.96437155867553 777.2556765227097,22.931415331148475 777.2310738649085,22.900239206260984 777.1949899826583,22.86728020081637 777.1654667932969,22.851245569626492 777.1425043158538,22.826302146918895 777.1261025503294,22.78888547175881 777.1146213163651,22.724738325230927 777.0982195413261,22.672169269421204 777.0621356590752,22.595536675377705 777.1129811360071,22.51444030226403 777.4360959720219,22.38698565786195 777.0080098214273,22.346873127560325 776.8368846957635,22.422639461016686 776.7876794087049,22.346873127560325 776.7368339127445,22.3058670295952 776.6728670214903,22.280014234609425 776.5957787159144,22.279122735756182 776.3333504199511,22.42442210575222 776.1310619435965,22.460074138626467 776.0326513409356,22.452052572661785 775.9834460348477,22.48146457797386 775.9490023139264,22.511766642275347 775.8013864051776,22.794230819298324 775.3809544073879,22.853027210279105 775.1496894716292,22.967043613039202 774.9900455989589,23.132693281515394 774.776822618598,23.24221597891192 774.2842228372774,23.387331544132007 773.9496267768129,23.609847703578282 773.8375480203571,23.55466975665002 773.8014641285915,23.47278545447504 773.7555391737059,23.21906616802867 773.7292963450612,23.193244355631386 773.6751705169279,23.156736191897966 773.2432572851734,23.29652627168279 773.0185530518196,23.404245051109502 772.5669577033391,23.525299235459624 772.3061695877338,23.531529431318983 772.2340018137181,23.51817894033224 772.1831563272717,23.493257367409083 772.0792784630933,23.39267270524613 771.9595455538332,23.401574531329803 771.9447839591522,23.27426841628535 772.0776382827346,23.048091774844966 772.1290304896238,22.81561184942106 772.138871552744,22.654348408200196 772.1519929670669,22.579496315685322 772.1667545617473,22.537611576812658 772.6112424778662,21.796672409099642 772.3734168397041,21.73957854281648 772.1536331379103,21.854653970147652 771.9644660853933,21.812729273371147 771.9037795453412,21.788643842024346 771.4401562234245,21.578979057383066 771.5365951753776,21.40086084017437Z" name="Noord-Holland" name_en="North Holland" gn_name="Provincie Noord-Holland" admin="Netherlands" adm0_a3="NLD" iso_3166_2="NL-NH" iso_a2="NL" type="Provincie" type_en="Province" wikidataid="Q701"/><path d="M775.6038893036558,7.90187757745959 775.6038893036558,8.011330723294376 775.8208575711793,8.011330723294376 775.7468128422739,8.24163108765886 775.6090552122683,8.51546806569629 775.314598273238,8.970689241343099 774.8160878329255,9.382081001688412 774.5784559203722,9.846055486427472 774.2220080462523,9.950945511890607 773.850062435715,9.797529997738497 773.6477309110232,9.352091268894215 773.7131657781351,8.892813758755512 773.9223851880297,8.373199681624524 774.1849856817992,7.946948455285709 774.6843570945379,7.515445043012018 774.9340428114863,6.987715604843512 775.1992262542728,6.552077753797329 775.5315665407616,6.569995461480982 775.5746158074114,6.6731932051168545 775.5987233950432,6.763479609099069 775.5909745268347,6.847307293030668 775.5315665407616,6.931125614068277 775.6813779751626,7.175363333075174 775.7898621089245,7.48752834006667 775.7872791493284,7.764502080788079 775.6038893036558,7.90187757745959Z" name="Noord-Holland" name_en="North Holland" gn_name="Provincie Noord-Holland" admin="Netherlands" adm0_a3="NLD" iso_3166_2="NL-NH" iso_a2="NL" type="Provincie" type_en="Province" wikidataid="Q701"/><path d="M778.6422321594869,9.693766519499547 779.6970129855758,8.74704352801133 779.8528513115955,8.562646624211341 780.0491559446688,8.397508740106767 780.5373345571765,8.283106273586549 780.7525808586888,8.142224362377394 780.9695491262124,7.707970507415041 781.2588401566303,6.506206442718838 781.4740864581427,5.967726068202462 781.8460320686798,5.532931770711534 782.075054140599,5.330515902878631 782.4642194535647,5.1617943474412815 782.6424433906247,4.959996643777305 782.8077525508634,4.719348447601582 782.9988912647447,4.52246238550276 783.2132765832517,4.446280932743121 783.7195358917728,4.360747263705986 784.0888985427139,4.0408080134657185 785.7833174351613,3.3558952490587197 786.1647338799178,3.082330946181471 786.4075317116633,3.0621696449114437 787.1169835278815,2.696291562569804 788.1381119855578,2.6458612780240225 789.288126908886,2.6091254296911575 789.1742947764599,2.8368012009401284 789.1218091191699,3.04990696447133 789.2251402629056,3.4348071871567716 789.3765832528138,3.501527521521954 789.5766848283671,3.5591033049116865 789.6144088909759,3.581949605369271 789.6554133143015,3.620329842154048 789.7160998543536,3.7089624067934674 789.7603846288807,3.758299717458959 789.7964685206462,3.7793127436214182 789.8259917004929,3.788448677728129 789.8587952410562,3.7866215029881043 789.8965193131804,3.7720039289483402 789.9561124028312,3.7318041594682163 789.9856355731638,3.7190128611125672 790.0200792845707,3.7162718515894015 790.2152603380778,3.7820535546144787 790.2529843911727,3.8405213269404004 790.2710263465698,3.938261992103516 790.2464236887686,4.159273312456591 790.2415031572084,4.3318360909711 790.2595451126055,4.352833093680066 790.2874281216087,4.36926511806634 790.3579557152665,4.396651015328124 790.3579557152665,4.414907714437946 790.3284325354197,4.450507040156829 790.1512934373096,4.615702260228326 790.006957879763,4.78086114956687 789.9675936367954,4.860233960913129 789.9145612495482,5.088270123710258 789.7571042681645,5.358175435246902 789.6258901344548,5.620692931472978 789.6472124315393,5.703622092696665 789.657053485145,5.777430465276903 789.6783757822295,5.821165353324947 789.6964177281126,5.8749192975183835 789.7078989715915,5.925025460630476 789.7111793227929,5.973306421672916 789.6832963137903,6.044355783974869 789.2907473345178,6.568820072952871 789.182495659222,6.786328940398406 789.1086877048476,7.16477178587125 789.1578930109355,7.542115243221462 789.2563036135958,7.668460255953258 789.3962653695403,7.794784084913352 789.4881152793117,7.824771498712913 789.9397106277921,7.868387457644628 790.1217702574629,7.933806632073798 790.5022912823277,8.183619202317763 790.5946879125424,8.235388147134264 790.5750057863014,8.475113738621962 790.6078093173502,8.507797685225315 790.773467181496,8.606748735790035 791.0719793597102,8.734730355658153 791.0965820175113,8.785553890447442 791.1217313862406,8.88356103847871 791.1118903326351,8.979740837794347 791.1692965214851,9.154829096292458 791.2086607644526,9.351641404400956 791.7816292025512,10.122070383793282 791.9095629945734,10.389270557280977 791.8915210486911,10.467148358088183 791.8636380396878,10.56403161250809 791.5727800142785,11.044641995391547 791.5071729426661,11.116119066143352 791.0014517565378,11.45622091239189 790.6471735603177,11.214728203396065 790.4104413725563,11.1532120861425 790.1283309598665,11.15411676270932 790.0135185821665,11.244579790062078 789.9397106277921,11.319655866656328 789.5865258914873,11.726564834868647 788.6898958874154,12.417806891859218 788.2454079712965,12.593904634194635 788.0414793145837,12.615575365239462 787.869260757549,12.66433224785975 787.8446580902332,12.685098115678361 787.833176856269,12.70496056275474 787.8233357931482,12.78079423861234 787.8134947395425,12.808778574218865 787.6625984700771,12.982980182572732 787.2470870133621,12.952294721451928 787.1946013465576,12.92702341566482 787.0978309242553,12.84037252469887 786.9731774739199,12.656206319395817 786.9168647449852,12.630022178964806 786.888981735982,12.624604662104057 786.8627389073373,12.65710919592593 786.8233746643704,12.684195241192274 786.6101516744948,12.735656075636353 786.5576660172051,12.76815582935581 786.5199419545961,12.81058397708036 786.4936991164362,12.869257259762593 786.4559750538273,12.936951531187216 786.4084099280982,13.008249616038313 786.357017721209,13.059688357735332 786.0437439387998,13.247364930948864 785.9633752820213,13.26270181681626 785.9043289128133,13.266310464443789 785.6052700141564,13.216690225000894 785.5659057616742,13.197743446922498 785.441252320854,13.088564721796331 785.0470631612236,13.286157631901943 784.9404516662858,13.019079107692681 784.6763831994784,12.738364432708869 784.5741455061434,12.674263801985477 784.3576421650664,12.708571860633377 784.3297093184045,12.713932621576895 784.1831608470445,12.689732465766054 783.9435184559278,12.689732465766054 783.6867587416448,12.746264322849262 783.4299990368766,12.859315373161072 783.0876527638517,13.141868980938222 782.6426025994053,13.480793849167387 780.6741115009713,13.537266562887835 780.6582165895694,13.51940708524596 779.4930168495225,12.209040532812406 778.7240122966961,10.003239541257656 778.7232378815227,10.00000539199192 778.7081846727929,9.937135790325819 778.6671802494673,9.76585470782341 778.6458579523827,9.71147162367435 778.6422321594869,9.693766519499547Z" name="Friesland" name_en="Friesland" gn_name="Provincie Friesland" admin="Netherlands" adm0_a3="NLD" iso_3166_2="NL-FR" iso_a2="NL" postal="FR" type="Provincie" type_en="Province" wikidataid="Q770"/><path d="M775.4592437884469,5.967726068202462 775.9069560939001,5.388662221982004 776.597466231099,4.748805053566099 777.3163888815369,4.328400050542636 777.8493387267057,4.401718393178613 777.8493387267057,4.52246238550276 777.5669355814912,4.52246238550276 777.4343438600976,4.598636107043609 777.126111150661,4.7164745597349516 776.2909554982533,5.532931770711534 776.060211460323,5.878061372309928 775.7898621089245,6.116187268494062 775.4592437884469,5.967726068202462Z" name="Friesland" name_en="Friesland" gn_name="Provincie Friesland" admin="Netherlands" adm0_a3="NLD" iso_3166_2="NL-FR" iso_a2="NL" postal="FR" type="Provincie" type_en="Province" wikidataid="Q770"/><path d="M781.2218177921778,2.2660844008637473 781.3638803583704,2.1579533332678307 782.9325954040478,1.854382050683519 782.6863536402805,2.1961614211062437 782.3867307820578,2.301403855079807 781.7702653737639,2.326630994779393 781.7909290187937,2.3871726974480527 781.8158975894308,2.5168884465214187 781.8365612344606,2.5795763420128304 781.6979426108695,2.653065809581038 781.2579791736249,2.6898078594077157 780.7870202635452,2.8979787288599517 780.4107697274013,2.9944812530493348 778.9445119132874,3.640871898794256 778.6431670890537,3.6336768517653573 778.5140193102621,3.3659720374308275 778.6328352718286,3.061449571979528 779.199363538849,2.8619671459078635 779.3870583101283,2.6898078594077157 779.6281341758632,2.696291562569804 781.0487597637303,2.4044694184088646 781.2218177921778,2.2660844008637473Z" name="Friesland" name_en="Friesland" gn_name="Provincie Friesland" admin="Netherlands" adm0_a3="NLD" iso_3166_2="NL-FR" iso_a2="NL" postal="FR" type="Provincie" type_en="Province" wikidataid="Q770"/><path d="M783.8710692816047,1.6004702731309315 786.4083926946691,1.4951293403697685 786.8397462912795,1.7216661816882095 785.7927882693805,1.9639991739794098 784.7045029680021,1.9639991739794098 784.4324316400126,2.0361069476844635 783.9235893824751,2.2704093261297817 783.6549619970871,2.206253810321191 783.4698501748238,1.9416443567055202 783.5318411099133,1.681269724237636 783.7109260405582,1.5304851402032624 783.8710692816047,1.6004702731309315Z" name="Friesland" name_en="Friesland" gn_name="Provincie Friesland" admin="Netherlands" adm0_a3="NLD" iso_3166_2="NL-FR" iso_a2="NL" postal="FR" type="Provincie" type_en="Province" wikidataid="Q770"/><path d="M789.5604595500158,0.874327059284529 790.6082785549202,0.7804400437081945 790.9035964769558,0.874327059284529 790.9035964769558,0.9956405151977011 790.7589509617469,0.9956405151977011 788.9405501991205,1.584597934490878 788.7304698062206,1.854382050683519 788.6684788711311,1.7425849176842707 788.6650349285292,1.6863194049889907 788.7304698062206,1.6004702731309315 788.6194027128627,1.3572979318688776 788.8854471492343,1.1227097265670607 789.2815003368231,0.9450956322535753 789.5604595500158,0.874327059284529Z" name="Friesland" name_en="Friesland" gn_name="Provincie Friesland" admin="Netherlands" adm0_a3="NLD" iso_3166_2="NL-FR" iso_a2="NL" postal="FR" type="Provincie" type_en="Province" wikidataid="Q770"/><path d="M2.1778620878451047,540.7645500346465 2.2506153422419737,540.817069822434 2.3612519440972144,540.9168547066564 2.4055926746760576,541.0148855231984 2.2833327810877355,541.0577729303783 2.185180464551069,541.1733031137006 2.2618081530526872,541.7360074328799 2.2437274570391903,541.9460083248474 2.152463025705307,542.0151302068434 1.9596023458136473,542.0265045361539 1.88900154892985,542.0929996853997 1.894167468122123,542.1874901024999 2.000068642287652,542.4648188305434 2.026759189515682,542.5693568669221 2.008678493502185,542.6717041901088 1.9630462778352875,542.8085989303804 1.9053602683529967,542.9288684380609 1.849826726963617,542.9800361060354 1.7262753482872408,542.9629803186186 1.6685893388048614,542.9153110301613 1.4468856435917297,542.4407614137972 1.39651801081558,542.2487322188298 1.3767153487909531,542.0527528042928 1.4236390495455513,541.7163190468323 1.430096432666553,541.4979875658497 1.3767153487909531,541.2783264357319 1.2148501311536435,541.0350164316827 1.0168235320696224,540.9177299947185 0.5036763489248066,540.8380774604158 0.2703493619787712,540.7680513858255 0.07060078630342624,540.6332462823159 0,540.4533501557361 0.1489504408161744,540.2436756139709 0.07017029480068802,540.177136774174 0.11537201896511284,540.048869944619 0.1833898562521098,539.9438005713222 0.2849861048104168,539.8811948546734 0.4313535966102504,539.8829460781158 0.5914968376567673,539.967441529149 0.814061515875287,540.2603100765493 0.90446496420334,540.3242205087676 1.0848413693567078,540.369307131903 1.7443560337208976,540.6844554755436 2.0827232224070915,540.7317246697676 2.1778620878451047,540.7645500346465Z" name="Bonaire" name_en="Bonaire" gn_name="Bonaire" admin="Caribbean Netherlands" adm0_a3="NLD" iso_3166_2="NL-BQ1" iso_a2="NL" type="Bijzondere Gemeenten" type_en="Special Municipality" wikidataid="Q25396"/><path d="M57.34505890042431,483.11307187321694 57.486236594454134,483.2006026534589 57.55546150071514,483.3499660318256 57.682388518892914,483.4075299364602 57.89601787993248,483.5567170263745 57.85540143513192,483.70014166169614 57.75151251515238,483.7861642583843 57.51492327227365,483.75141189074645 57.37088845406667,483.4823158087134 57.34505890042431,483.11307187321694Z" name="St. Eustatius" name_en="Sint Eustatius" gn_name="Sint Eustatius" admin="Netherlands" adm0_a3="NLD" iso_3166_2="NL-BQ3" iso_a2="NL" type="Bijzondere Gemeenten" type_en="Special Municipality" wikidataid="Q26180"/><path d="M54.79223775094312,481.7750495124618 54.878336273663955,481.82578617558414 54.94807607696217,481.97035601523646 54.886946124878484,482.09157099090146 54.792668253025525,482.13062755421214 54.65577159544552,482.03051548851477 54.68117066816498,481.84733763477846 54.79223775094312,481.7750495124618Z" name="Saba" name_en="Saba" gn_name="Saba" admin="Netherlands" adm0_a3="NLD" iso_3166_2="NL-BQ2" iso_a2="NL" type="Bijzondere Gemeenten" type_en="Special Municipality" wikidataid="Q25528"/><path d="M784.5741455061434,12.674263801985477 784.6763831994784,12.738364432708869 784.9404516662858,13.019079107692681 785.0470631612236,13.286157631901943 785.8223200756767,13.710041122088919 786.3127329466813,14.110257427365108 786.4362929371008,14.274248826321493 786.5101008914752,14.399471066563304 786.660997151426,14.842537167258618 786.7413658177192,15.289842590478472 786.6823194485105,15.383410277805893 786.6396748543416,15.485062038863056 786.5625865487651,15.557919062505862 786.542904422524,15.587599543696339 786.5724276023707,15.615480133170792 786.6626373412987,15.658648070758389 787.0896300319786,15.784540510356438 787.2962923194499,15.897825783108527 787.529197426052,16.180066145017026 787.1913209953556,16.368766912633486 786.6806792776672,16.54394693955394 786.5806284946482,16.55023470347029 786.4084099280982,16.52149023373169 786.3488168289322,16.486456415847915 786.2094018029456,16.49543960621202 785.6720807727305,16.741525278434324 785.6620626041937,16.75304389905103 785.5479857838978,16.884193894327126 785.5479857838978,17.090240885881812 785.6962856521851,17.221332517455156 785.9124035363685,18.191628812509546 785.9130316069411,18.194446785850392 785.9016239306202,18.47492083024516 785.7875471103245,18.904779682420276 785.6050241940458,19.22234493696195 785.3654628676193,19.59578104137624 785.1601245796696,19.838416015297863 784.8977478910866,20.062317940769542 784.498479020052,20.24885245511486 784.0307640530339,20.47263341676497 783.6657182299907,20.621784095238688 783.3805261792518,20.789543598402904 783.0953341189977,21.031797508600015 782.8671804784068,21.255347960889967 782.696065247963,21.683635951686554 782.5819884276679,22.055864245254604 782.3766501492328,22.427910429866643 782.000196640354,22.558083601567507 781.247289622597,22.65105080405868 781.0665814802294,22.585599290679056 781.0419513441619,22.576677941718177 780.6137406850537,22.319488223202303 780.6294103565006,22.31665303051562 779.7326592406398,21.70947108557407 779.3731956444494,21.597733042937833 779.1506705669836,21.597733042937833 778.7569723434913,21.625669077932308 778.4317433936326,21.54185784605221 777.8497547104619,20.92695956956041 777.8326374063255,20.367528951416663 778.4317433936326,19.807685905245783 778.7912069803078,19.807685905245783 778.5173299618885,19.05124222056957 778.0038105333226,18.294043567234652 777.747050838069,17.142775332916074 779.510134163174,15.989754864842833 779.6813072996858,15.342168793512496 780.0065362590591,15.11679146093247 780.537172991762,15.285830743094161 780.656994196835,13.537266562887835 780.6582165895694,13.51940708524596 780.6741115009713,13.537266562887835 782.6426025994053,13.480793849167387 783.0876527638517,13.141868980938222 783.4299990368766,12.859315373161072 783.6867587416448,12.746264322849262 783.9435184559278,12.689732465766054 784.1831608470445,12.689732465766054 784.3297093184045,12.713932621576895 784.3576421650664,12.708571860633377 784.5741455061434,12.674263801985477Z" name="Flevoland" name_en="Flevoland" gn_name="Provincie Flevoland" admin="Netherlands" adm0_a3="NLD" iso_3166_2="NL-FL" iso_a2="NL" postal="FL" type="Provincie" type_en="Province" wikidataid="Q707"/><path d="M781.0665814802294,22.585599290679056 781.0647667063184,22.59527184286917 781.0023214811289,22.928023470298115 780.9641163205143,23.222627707733043 780.9395136627131,23.410476253310364 780.9985600319218,23.5110585631161 781.3812679575879,23.82251237557232 781.3599456605034,23.99153395375372 781.323861768738,24.062689690821298 781.2549743459236,24.11872018459958 781.2352922196832,24.141842671959733 781.227091336921,24.17563580670167 781.2910582281746,24.293010875596817 781.5420052901736,24.37569607615157 781.7606955320526,24.42548069886181 781.834503486427,24.48326234225365 781.9279935670419,24.622809130386308 781.970638170726,24.663690610877474 782.0559273590641,24.71789962368875 782.1379361962007,24.810312651147587 782.165819205204,24.849407101535427 782.1641790343606,24.909821851411877 782.1116933675561,25.01287123702867 782.1133335574287,25.12834110107882 782.1231746015204,25.18873372879401 782.1231746015204,25.221592435041057 782.1198942598329,25.241129365154006 782.0050818821329,25.232248996021134 781.9230730354817,25.406285212470397 781.8607463150717,25.590933255528256 781.8295829548663,25.64773904609601 781.778737477935,25.707203064285387 781.6983688116425,25.776423991957248 781.7147705771669,25.81369418719603 781.7360928742514,25.84386398193711 782.0313247107782,25.991146388912142 782.1280951330805,25.956546454052823 782.2385337186922,25.86959609582846 782.2746176009432,25.85628649440903 782.3172622046267,25.852737214749688 782.3599067892818,25.82434250632082 782.400911222122,25.776423991957248 782.445195996649,25.693003116978588 782.45995759133,25.62554978278719 782.4665182937342,25.55720279599395 782.4205933388478,25.430256479902074 782.5944520857564,25.389416084079876 782.6846618056553,25.73737705696117 782.6945028687754,25.830553931411178 782.71582516586,25.930817273826236 782.7010635711796,26.341493241494376 782.7945536517944,26.861838239255057 782.9279547053349,27.101060145325864 783.1460982172558,27.336664722284684 783.2182660007868,27.490742672882867 783.2625507753145,27.568655323977165 783.282232901555,27.636822388667735 783.2969944867214,27.725341934168352 783.2920739646758,27.994378365863735 783.2543498925523,28.074893887038293 782.8989782459308,27.98818452574014 782.0838103585528,27.49694056397035 781.6278412084696,27.400424888293806 781.4955336148452,27.436730393664163 781.2861376966144,27.58724693389289 781.1877270939535,27.634166622512634 781.0679941846934,27.62885512411821 780.7902575736063,27.527929249418488 780.5557122866462,27.581935109140733 780.2446254240676,27.82181655577638 780.0253884522314,27.878456533023 779.4310977170477,27.547407224323052 779.2736407356641,27.581049791152346 779.0828335027884,27.7288825001199 778.8286060895872,27.7775636406943 778.671695838161,27.75632135284194 778.5700048842979,27.74038923381166 778.3704500387026,27.634166622512634 778.2709459666117,27.510221596362594 778.1249702382216,27.256071342798037 777.9959429957987,27.15509617639312 777.8499672578934,27.12320653592939 777.7515566457178,27.17281209853604 777.6580665746176,27.24544301656641 777.416413855296,27.31186766667783 777.3223770447225,27.384485342110356 777.168747154013,27.581049791152346 777.0621356590752,27.627969860522942 776.6236617154025,27.527929249418488 776.6017926978753,27.55448997449406 776.2622760868209,27.751010673157847 775.9654040794506,28.057198895518585 775.8587925940275,28.101435613528007 775.6187800455494,28.087280141849664 775.5482524518917,28.196093555142575 775.3153473357756,27.838631981387515 774.9769241846367,27.405738006683283 774.8817939331777,27.24278588876743 774.9162376445845,27.191413349651068 774.9851250673988,27.16926893774882 775.0622133824899,27.132950741785752 775.1957491442323,27.049530627354898 775.1487250016213,26.842676433256443 774.6650480925975,26.90800485322236 774.6180239499861,26.799121025847732 774.9539106897207,26.28715884071011 775.3704102412829,26.080097839699935 775.4465614789995,25.963643999806568 774.9684657882774,25.960194729155138 774.8341110923836,25.320392851547293 774.6734914748623,25.261553778274795 774.527515727443,25.133670052108844 774.5914826282111,25.061726015192455 774.8440698610542,24.793430342206477 774.8949153475,24.77654764375556 774.9523215268355,24.764107538418 774.9867652477568,24.789876125869036 775.0228491395224,24.8067585135548 775.0753347968122,24.819197922604282 775.2497402736781,24.902714487830142 775.2940250386905,24.89027642659469 775.3169875161337,24.860957364833535 775.3186276869772,24.819197922604282 775.3022259214528,24.761441767403223 775.2349786694825,24.572148599971836 775.1923340753135,24.381919349334648 775.2874643267725,24.303680431110422 774.7719020870378,23.86076789194193 774.5389969804359,23.768239581368473 774.4744833592243,23.704174928984717 774.4219976924205,23.62942602827297 774.2842228372774,23.387331544132007 774.776822618598,23.24221597891192 774.9900455989589,23.132693281515394 775.1496894716292,22.967043613039202 775.3809544073879,22.853027210279105 775.8013864051776,22.794230819298324 775.9490023139264,22.511766642275347 775.9834460348477,22.48146457797386 776.0326513409356,22.452052572661785 776.1310619435965,22.460074138626467 776.3333504199511,22.42442210575222 776.5957787159144,22.279122735756182 776.6728670214903,22.280014234609425 776.7368339127445,22.3058670295952 776.7876794087049,22.346873127560325 776.8368846957635,22.422639461016686 777.0080098214273,22.346873127560325 777.4360959720219,22.38698565786195 777.1129811360071,22.51444030226403 777.0621356590752,22.595536675377705 777.0982195413261,22.672169269421204 777.1146213163651,22.724738325230927 777.1261025503294,22.78888547175881 777.1425043158538,22.826302146918895 777.1654667932969,22.851245569626492 777.1949899826583,22.86728020081637 777.2310738649085,22.900239206260984 777.2556765227097,22.931415331148475 777.2769988102802,22.96437155867553 777.3048818287975,23.002670242300578 777.3557273057293,23.108649596020513 777.1802283879773,23.325015378066396 777.1002269390231,23.674800016250288 777.1629258053529,23.937168013500727 777.2166676799047,24.30141811185574 777.4943340444413,24.243149815088547 777.6824306244016,24.155738964613157 778.0817789140947,24.081366985273764 778.6695089468742,24.113384129853998 778.8778113956749,23.969296408813438 778.9548997107661,23.8127257507039 779.028707674655,23.63209574884462 779.0877540343484,23.503938134786416 779.123837926114,23.301868070040797 779.3392478072757,22.767503675025328 779.5311485000667,22.44492222767821 779.5787136257965,22.417291486229814 779.6623626528058,22.38520292538231 780.2548090425926,22.384428963502682 780.6137406850537,22.319488223202303 781.0419513441619,22.576677941718177 781.0665814802294,22.585599290679056Z" name="Utrecht" name_en="Utrecht" gn_name="Provincie Utrecht" admin="Netherlands" adm0_a3="NLD" iso_3166_2="NL-UT" iso_a2="NL" type="Provincie" type_en="Province" wikidataid="Q776"/></svg>