<?xml version="1.0"?><svg fill="#3498db" stroke="#ecf0f1" stroke-width="1" width="800" height="952" viewBox="0 0 800 952" xmlns="http://www.w3.org/2000/svg"><path d="M377.53359600074,45.38461040737632 496.3244074116899,0 499.0378694243593,213.38479686244912 377.53359600074,45.38461040737632Z" name="Anetan" name_en="Anetan District" gn_name="Anetan District" admin="Nauru" adm0_a3="NRU" iso_3166_2="NR-03" iso_a2="NR" wikidataid="Q378813"/><path d="M282.8425645155853,81.56179653751643 377.53359600074,45.38461040737632 499.0378694243593,213.38479686244912 484.3931716470894,311.5786955344324 282.8425645155853,81.56179653751643Z" name="Ewa" name_en="Ewa District" gn_name="Ewa District" admin="Nauru" adm0_a3="NRU" iso_3166_2="NR-09" iso_a2="NR" wikidataid="Q274381"/><path d="M172.73672541225304,123.62830391508619 282.8425645155853,81.56179653751643 484.3931716470894,311.5786955344324 477.12963373634307,360.2813193024491 471.7908034052555,404.4756122290319 172.73672541225304,123.62830391508619Z" name="Baiti" name_en="Baiti District" gn_name="Baiti District" admin="Nauru" adm0_a3="NRU" iso_3166_2="NR-05" iso_a2="NR" wikidataid="Q328727"/><path d="M100.28037452470271,151.31063846653242 172.73672541225304,123.62830391508619 471.7908034052555,404.4756122290319 464.89696455076444,461.5420482358613 100.28037452470271,151.31063846653242Z" name="Uaboe" name_en="Uaboe District" gn_name="Uaboe District" admin="Nauru" adm0_a3="NRU" iso_3166_2="NR-13" iso_a2="NR" wikidataid="Q473764"/><path d="M51.762611366560584,336.15933710739534 100.28037452470271,151.31063846653242 464.89696455076444,461.5420482358613 460.6984569694174,496.29681673792817 454.5641459276007,538.9513147512638 334.72607370930814,501.7374395042558 208.75370447340117,469.0936935887372 51.762611366560584,336.15933710739534Z" name="Nibok" name_en="Nibok District" gn_name="Uaboe District" admin="Nauru" adm0_a3="NRU" iso_3166_2="NR-12" iso_a2="NR" wikidataid="Q378780"/><path d="M0,533.371025893281 51.762611366560584,336.15933710739534 208.75370447340117,469.0936935887372 153.98310122524342,523.4999336565047 0,533.371025893281Z" name="Denigomodu" name_en="Denigomodu District" gn_name="Denigomodu District" admin="Nauru" adm0_a3="NRU" iso_3166_2="NR-08" iso_a2="NR" wikidataid="Q1187200"/><path d="M77.9904797504784,721.3242317034177 0,533.371025893281 153.98310122524342,523.4999336565047 143.0289833814963,599.6687161606309 170.41427799216905,692.1594599231836 77.9904797504784,721.3242317034177Z" name="Aiwo" name_en="Aiwo District" gn_name="Aiwo District" admin="Nauru" adm0_a3="NRU" iso_3166_2="NR-01" iso_a2="NR" wikidataid="Q240017"/><path d="M145.97776646884702,885.1705442000085 77.9904797504784,721.3242317034177 170.41427799216905,692.1594599231836 204.34978982510958,749.7401914293496 175.8913369148256,773.7690170552593 145.97776646884702,885.1705442000085Z" name="Boe" name_en="Boe District" gn_name="Boe District" admin="Nauru" adm0_a3="NRU" iso_3166_2="NR-06" iso_a2="NR" wikidataid="Q378829"/><path d="M400.0473027181289,933.6349082043496 145.97776646884702,885.1705442000085 175.8913369148256,773.7690170552593 204.34978982510958,749.7401914293496 285.43254341061913,681.2781928760163 400.0473027181289,933.6349082043496Z" name="Yaren" name_en="Yaren District" gn_name="Yaren" admin="Nauru" adm0_a3="NRU" iso_3166_2="NR-14" iso_a2="NR" wikidataid="Q31026"/><path d="M720.8097886460649,665.8164766608587 691.8076787555328,755.2945753686728 496.3244074116899,952 400.0473027181289,933.6349082043496 285.43254341061913,681.2781928760163 444.2672802045797,610.5499737927113 597.6249440475056,648.6343992939373 720.8097886460649,665.8164766608587Z" name="Meneng" name_en="Meneng District" gn_name="Anibare District" admin="Nauru" adm0_a3="NRU" iso_3166_2="NR-11" iso_a2="NR" wikidataid="Q327788"/><path d="M786.2090086367884,324.10249653758234 799.704294828145,422.40942698542153 720.8097886460649,665.8164766608587 597.6249440475056,648.6343992939373 444.2672802045797,610.5499737927113 454.5641459276007,538.9513147512638 460.6984569694174,496.29681673792817 464.89696455076444,461.5420482358613 471.7908034052555,404.4756122290319 477.12963373634307,360.2813193024491 484.3931716470894,311.5786955344324 499.0378694243593,213.38479686244912 619.5331937638999,284.1127253185204 786.2090086367884,324.10249653758234Z" name="Anibare" name_en="Anibare District" gn_name="Anibare District" admin="Nauru" adm0_a3="NRU" iso_3166_2="NR-04" iso_a2="NR" wikidataid="Q328733"/><path d="M757.8150196096916,117.26571323776082 786.2090086367884,324.10249653758234 619.5331937638999,284.1127253185204 499.0378694243593,213.38479686244912 757.8150196096916,117.26571323776082Z" name="Ijuw" name_en="Ijuw District" gn_name="Ijuw District" admin="Nauru" adm0_a3="NRU" iso_3166_2="NR-10" iso_a2="NR" wikidataid="Q328738"/><path d="M496.3244074116899,0 757.8150196096916,117.26571323776082 499.0378694243593,213.38479686244912 496.3244074116899,0Z" name="Anabar" name_en="Anabar District" gn_name="Anabar District" admin="Nauru" adm0_a3="NRU" iso_3166_2="NR-02" iso_a2="NR" wikidataid="Q328735"/><path d="M454.5641459276007,538.9513147512638 444.2672802045797,610.5499737927113 285.43254341061913,681.2781928760163 204.34978982510958,749.7401914293496 170.41427799216905,692.1594599231836 143.0289833814963,599.6687161606309 153.98310122524342,523.4999336565047 208.75370447340117,469.0936935887372 334.72607370930814,501.7374395042558 454.5641459276007,538.9513147512638Z" name="Buada" name_en="Buada District" gn_name="Buada District" admin="Nauru" adm0_a3="NRU" iso_3166_2="NR-07" iso_a2="NR" wikidataid="Q202747"/></svg>