<?xml version="1.0"?><svg fill="#3498db" stroke="#ecf0f1" stroke-width="1" width="800" height="1064" viewBox="0 0 800 1064" xmlns="http://www.w3.org/2000/svg"><path d="M444.4983956244803,122.72579711920937 444.01555725535184,125.80155892527047 441.1729618797348,127.27485293562873 438.805698117087,128.11452304038903 437.64763468686425,129.11378606514666 434.6413726656539,131.26896205476177 432.97005909501206,131.9911288995487 431.36181404159163,131.534723933945 430.107442055065,130.9111743400245 430.0156675607998,130.25538306936022 429.95471530820635,129.8198200384944 430.183805326794,127.04906097228856 432.90447421596997,125.69552815454726 433.8971977654375,124.51976345418535 433.28629098141033,123.59587615956399 432.9595476754707,122.47274645965962 432.7517475708261,120.65581140702234 435.49775713059745,118.58019218897056 438.55536191731915,118.9754849237765 440.4552327806819,121.9087288093346 444.4983956244803,122.72579711920937 M435.74201744250104,127.73693062775969 437.7712915661514,127.03760982186029 438.3153007768574,125.19776075881695 436.8389419865843,124.15045123086571 435.95042543230244,124.1631860921147 435.39134652787294,124.74412335158291 435.74201744250104,127.73693062775969Z" name="Musandam" name_en="Musandam Governorate" gn_name="Musandam" admin="Oman" adm0_a3="OMN" iso_3166_2="OM-MU" iso_a2="OM" postal="MU" type="Muhafazah" type_en="Province" wikidataid="Q372144"/><path d="M424.5006476138486,81.94917844998916 424.3296836262041,81.84962174811682 423.7515562635771,80.50420350887948 423.2680315750877,75.48667455871885 423.35212293139193,73.56036554136129 424.4453090377098,72.38819682708251 425.7592347509035,71.37261980469943 426.4845217836375,69.9042473766437 426.01150851468446,68.50536911650835 423.6464421699099,65.33557692050798 423.1944517400338,63.419398613516776 423.6884878480654,61.74106171946054 425.6541206572363,58.98208413616203 426.33736211352453,57.36708759519851 426.75781828479336,47.2775756160408 427.4305483215453,43.93400191633354 427.651287826719,41.8750984652183 427.1362288796156,39.57153400840726 425.5384952457246,35.23088691262824 424.3822406221913,35.0912173850146 419.22114034183875,36.43547386752253 416.86273528500254,36.6388966644874 416.87167489109095,36.60527666833989 417.3351699823428,35.55141456736524 418.2952668698968,31.518460246129752 425.03249863873975,20.86178499457247 427.48240101692045,15.796342136730425 428.5087115179981,14.772919235347217 430.1723277187008,13.868751992811886 430.26337136101284,14.492955431513009 430.1723277187008,16.016619914285336 431.35589547561494,17.856711035057977 431.0413809639428,18.489899051168592 430.5944393269254,20.10025956495623 431.35589547561494,20.10025956495623 432.3325457156997,19.090940111885246 434.98108893445294,18.944123510464504 435.5107975375204,18.21001536343326 436.1315498846138,17.884241630548473 437.46409822110166,18.379781571532764 438.6724960068153,19.64607556178507 438.98701051849343,21.632440056164608 439.698806507893,20.384690024054272 440.4023258210365,20.448915328995977 441.27137896456884,20.912246043850903 442.4632233977518,20.86178499457247 445.2276403893194,18.82483373549098 446.3118877259499,18.558721902770383 449.4156492579832,19.421271534291865 450.09433844062943,19.32033776225845 450.37574624724607,18.375193337031398 449.91225115600025,17.365739708568896 449.1176882005455,16.567298044506842 448.3893388586084,16.24607204282047 446.4029314699707,16.01203084383608 445.16970355376657,16.09004504617494 444.2675435017594,16.63154224496968 443.6881746376991,17.33820801275596 442.68669426711784,18.338487289849816 441.4948498339349,18.96247563418372 440.3609422363056,18.558721902770383 440.34438888377485,17.306087758688182 441.12239848670396,12.56517128689337 441.12239848670396,10.784011023334333 444.1020095696609,13.175667307861957 445.4428344807087,13.657617524437764 445.98909653800894,12.014323187376798 445.5090480942323,11.13291739974644 444.36686382033935,9.99434608934133 442.9598252957688,9.011788660097455 441.7679808625859,8.616908255386655 442.19836914707247,7.569957362143034 442.76118455690425,7.363312273735076 443.3819369039926,7.367904410143438 443.9778591205836,7.005119706654762 445.2276403893194,5.462022825421334 445.7904557991452,4.116255160442334 445.65802867380603,1.6586044804453546 445.98909653800894,0 446.61812556136516,0 448.0086107334118,3.078127093947086 449.5811832917914,2.039915461564147 450.09433844062943,1.5437495015076999 450.8557946910286,2.375276161483065 450.37574624724607,3.2297173273361657 450.334362764224,3.519112067021127 450.55783353187616,3.7947200016974714 450.8557946910286,4.621508641157719 451.8158915785827,3.8222805169024907 452.41181379517377,4.107068575251121 452.91669236945273,4.855755760608467 453.63676503512187,5.462022825421334 455.9956237709905,6.109594874323433 457.23712836345663,6.229001694114698 458.55312324571685,6.16470585996129 458.3379291543275,5.6549199670641075 457.9903078358901,4.35969796503664 457.79166709702645,3.8498408604220633 459.9436084177626,3.078127093947086 460.96991891884704,5.92588970385741 460.7547248274518,7.028081008392164 459.3311328486459,7.1382950277841255 456.7488032434172,7.005119706654762 455.04380355969244,7.634246209096692 451.9979788632128,10.311136039485877 450.3095326337276,11.408363125078534 450.43368308280486,11.412953826241083 450.4088529523025,12.060228090501955 449.53152303079764,13.235338266265055 451.79933812434825,15.612774482208195 452.9580758524748,16.535175768548307 454.33200757028783,17.017001103547237 455.2589976510877,16.548942532427084 456.3184149589246,15.654077442351802 457.42749242605834,15.438382780498562 458.55312324571685,17.017001103547237 456.66603627736794,20.361752265679804 455.73904619656804,20.74710034943701 455.0934637189833,18.558721902770383 454.05059986537407,18.678014123770875 452.92496904571556,18.558721902770383 453.31397384718093,19.673602248999327 453.42157084202375,20.38927754831601 453.2725902624501,20.967294104393858 452.92496904571556,21.632440056164608 454.2078571212157,22.97180302431913 455.747322872836,23.88450903046746 457.0881478855926,25.040205524297807 457.79166709702645,27.089938444138223 456.59982266384435,27.071597681808466 455.50729865094513,26.796484158698195 454.5306483091515,26.264581472617802 453.63676503512187,25.480443847968335 452.171789573288,26.191213839270688 450.93856165707786,25.66845783950131 450.1771055083824,24.29726953951153 450.09433844062943,22.476438300686453 449.4984162240384,22.852550352725014 447.9589505741218,23.577223218281468 447.37958171005556,23.944130768897853 447.32992155077153,22.742469862138694 447.5285622896352,21.825096621007088 448.0086107334118,21.20124584322294 448.7700668821022,20.86178499457247 446.4608683055295,20.47185293339602 443.9364755358536,21.953532781145547 442.4301166926954,24.045028619896364 443.15846603463166,25.480443847968335 442.64531078409067,26.69560776521265 442.52943701127623,28.07112799615347 442.7280777501399,29.524436465362598 443.15846603463166,30.940912269052514 444.0523493086621,28.667141682198864 444.8965725251165,27.447576846812577 445.98909653800894,27.089938444138223 446.6346789138908,27.805205421004064 446.7339993341796,29.116426206559233 446.4525916292607,30.574201951595253 445.98909653800894,31.70180340673706 447.9755039266466,32.535982310086595 457.09642456185543,32.40765056071932 456.2190946403506,33.90172041278759 454.6796288887303,35.230657065876706 451.5344838736698,37.08635933920621 448.57142614323766,38.20881666391965 447.6527127387116,39.20749336207001 448.0086107334118,41.00308708439798 450.57438698610974,39.642672668482454 451.9979788632128,40.90690084080497 452.04763912421157,42.99077808307969 449.7136104171365,44.58437669726273 450.1853821846512,45.71076883708349 451.5344838736698,47.56956197324281 451.9234886751343,48.393572917700034 452.8422020796663,48.83302427219376 455.0934637189833,49.455555107890106 454.29890076352774,49.9865140403367 454.00921638235195,50.343525972002375 453.63676503512187,51.82639451938404 452.1304060902608,51.0300600071808 450.4750665658269,50.55406683110684 448.99353775146824,50.72798941630656 448.0086107334118,51.82639451938404 449.6142899968469,54.49879610008422 448.9190474616818,56.96021881839599 447.2471545847163,59.3388508017619 445.98909653800894,61.735344698720766 445.8732227652004,62.55846705576889 445.98909653800894,65.22868733486706 443.9778591205836,67.17614347546304 442.2894127893905,70.2247516156724 441.15550519176037,71.66425417979352 439.6822530536594,72.54158823300914 439.6822530536594,70.16991034572432 438.275214529088,72.55986547120133 436.83506919775135,76.2056555762648 436.1067197541114,80.30710929814202 436.83506919775135,84.0420714574677 437.3722294379095,85.3730348846497 433.1487530237332,86.59229088398094 431.51948513123494,86.89952021124626 429.9217513956471,86.45896284475924 429.2069757824485,85.61838493663235 428.19788093073197,83.35725570990473 427.2833886514323,82.6092587813977 424.89729946758,82.18015621684961 424.5006476138486,81.94917844998916Z" name="Musandam" name_en="Musandam Governorate" gn_name="Musandam" admin="Oman" adm0_a3="OMN" iso_3166_2="OM-MU" iso_a2="OM" postal="MU" type="Muhafazah" type_en="Province" wikidataid="Q372144"/><path d="M416.91914251429745,185.70462585430502 419.0739807734287,185.62118726618957 421.0185908452255,185.07450778286952 421.93308302281633,183.9292876206223 422.55325596188914,182.02133380310255 424.73962837793664,179.36184111910518 426.4004304273333,175.20750734731897 426.4198243742174,175.19870151816662 427.9350957474036,174.510676110235 431.7402246364138,174.03842313814582 433.56920929671,173.15146502924705 436.9275356357981,169.86188225905926 437.5004750167504,169.30059143328197 440.3490659483114,167.27246892040586 440.88514773447986,166.1689742206783 440.9544866120124,165.4003933740713 441.13507701252047,163.398450833543 441.463274995404,159.7594442857475 441.9891486435463,159.1564839820619 442.4513471097525,158.62651065577668 447.9755039266466,158.00969098862203 450.2267656676724,167.0371712198525 456.7488032434172,180.6283753426669 457.84132725631645,181.76603081097687 458.503463086426,184.35826297458775 459.1821522690731,188.99767747860253 471.1502567601891,211.67382789867978 473.633266046837,214.44581636679894 479.3855707976243,219.57230605740145 490.501175497726,233.14789751504162 492.70277697775896,236.67854193541143 493.63804383652456,238.74594670997942 494.5319271105601,241.92770696773158 504.5384543435349,253.89006087898554 516.6224326074594,264.170791575607 526.1075279136295,271.86853331099417 529.4347603150238,274.00279786156966 543.8858739910858,279.5620791668887 562.5249966375194,284.52982351086195 564.871286018388,285.58088962587175 553.0574299141173,306.2368571496179 539.868517540266,317.453414958356 527.3415421646849,321.53612714119964 497.95165170547796,322.99782272635923 496.16471277766834,320.6670173090235 486.76751598966473,284.8194198748712 456.59978135226874,258.1804424818033 440.79062716512846,251.1863667229569 440.1389199449707,241.57562778458697 430.15308450729225,207.67171005125462 416.6566174089334,190.2221662861489 416.7480994767665,185.6807579142621 416.91914251429745,185.70462585430502Z" name="Al Batnah North" gn_name="Muhafazat Shamal al Batinah" admin="Oman" adm0_a3="OMN" iso_3166_2="OM-BA" iso_a2="OM" postal="BA" type="Mintaqah" type_en="Region"/><path d="M402.42391399102036,158.06433305461968 406.5373569020753,158.69080446045885 406.7966588231042,158.7302947923748 409.56115850006904,160.46856084618702 410.7174131236083,163.76575446214446 411.5594342437934,168.67865275982058 411.96827042128433,171.06343004666078 409.52962424145585,169.30059143328197 408.2156985282622,168.62938548832966 406.7966588231042,168.2836870929308 405.00971973925897,168.82527726978455 404.6838661404189,170.22812644915018 405.40915317315296,171.87852175326836 409.20377064262175,175.31692386137746 412.1995213459986,182.9882939202294 415.31089746087616,185.48020357350052 416.7480994767665,185.6807579142621 416.6566174089334,190.2221662861489 430.15308450729225,207.67171005125462 440.1389199449707,241.57562778458697 440.79062716512846,251.1863667229569 437.3352889350248,262.2145349726918 425.2998986481716,262.2145349726918 410.4326518017237,265.29770071115496 404.76893868251636,269.15070905722814 404.76893868251636,278.393638518481 398.3972615148714,281.4732725937865 394.1494766754661,286.8610218123545 397.6892973749695,303.01202164104086 390.6096560674286,307.62323317165016 377.1583375007785,311.46477351764537 366.5388754022648,317.60909508806003 352.57882773745325,316.209420517895 355.93196629827827,302.511862126916 356.8569698954054,300.6457194562456 361.60812532231665,293.6298044782891 362.0390930148298,292.1622474478928 361.7132394159838,283.7794195378059 361.2507375665722,280.5963602587388 359.62146967407995,278.1700114286861 355.93196629827827,275.9605000986523 354.2291185707202,274.41392260990585 353.33564902879453,272.421132268765 353.7455938822308,270.8055362739576 358.1183387143258,269.98194007484415 362.43852644872464,268.34032369512596 364.4146706774259,267.2562943069149 367.39990996127244,265.6200817210677 370.17492105777444,264.4986512388856 373.0760690870145,263.95792978641646 376.4502302835116,264.04089896214026 379.7613231661922,264.5987826275932 381.32752264316684,264.5587302904382 382.9988361121058,263.9293196200612 384.8278206707,263.6117426685665 387.47669493615314,265.6687130846462 389.36874801197973,265.9004252221855 401.215102269785,261.0651458121652 407.64808268688034,259.48831365913935 408.7728030518114,257.7281194815892 404.9992084214204,250.9514586078875 403.80090811973247,246.25139312964404 402.192663066306,242.27185845612877 399.14435536694697,240.9938121253872 393.44717350383,243.3033801376305 391.7338143567424,243.20882705959824 385.36390245688034,241.8105143749185 384.1445793161087,241.2058727568972 383.98690832815714,239.52649352690733 384.7962865137888,237.58607176304216 388.74857507290693,230.5616071893475 389.40028227058787,228.9497810792325 389.75767002633233,223.57089516314988 389.52641910162396,222.63834291828695 388.7590863907395,221.65694340819397 386.71987374650877,220.2794234302837 386.0681666505366,219.49876801051596 385.7423130517025,217.81102443472417 385.97356397641175,211.79317560925938 384.701683839652,207.102835208426 384.5650355890804,204.75850373809826 385.59515338158957,203.21550938144918 387.024704506277,201.66659451312287 387.6553888648802,197.93583977626258 390.5039798981441,195.31968414001904 390.1676148797737,193.16601320510782 388.64354318520816,189.76957518482018 388.11789071429774,188.58150872484777 387.9076626286731,186.53610702786423 388.34914163901294,182.3868297812626 388.34914163901294,180.29157106420047 387.4977177752368,171.72875581793878 388.55936972463843,168.2836870929308 391.6392116826107,164.37380343697058 394.531476370886,161.7321828698488 394.97132730266196,161.33040453818361 398.5136710083438,159.08200178796992 402.42391399102036,158.06433305461968Z" name="Al Buraymi" name_en="Al Buraimi Governorate" gn_name="Muhafazat al Buraymi" admin="Oman" adm0_a3="OMN" iso_3166_2="OM-BU" iso_a2="OM" postal="BU" type="Muhafazah" type_en="Province" wikidataid="Q852039"/><path d="M326.2898019523419,409.53639888549446 327.38298816036865,393.53641818589705 326.7417924839269,377.51622799131286 326.7417924839269,377.5048741409596 327.09918023967134,374.25160654636755 330.2631134522398,363.68059241755543 339.94411803137757,346.75442367270637 342.1935589646464,340.0171296548794 344.3168628634615,329.0281501103868 345.45209464793487,325.3537993981679 347.35465914328506,322.50481989823544 347.37568198235687,322.4934227208144 351.1702994518248,318.34144493096306 352.57882773745325,316.209420517895 366.5388754022648,317.60909508806003 377.1583375007785,311.46477351764537 390.6096560674286,307.62323317165016 397.6892973749695,303.01202164104086 394.1494766754661,286.8610218123545 398.3972615148714,281.4732725937865 404.76893868251636,278.393638518481 404.76893868251636,269.15070905722814 410.4326518017237,265.29770071115496 425.2998986481716,262.2145349726918 437.3352889350248,262.2145349726918 440.79062716512846,251.1863667229569 456.59978135226874,258.1804424818033 486.76751598966473,284.8194198748712 496.16471277766834,320.6670173090235 497.95165170547796,322.99782272635923 478.43197121530227,410.20490259491 462.25491764345804,458.76050480564606 442.10455282044114,484.79764804183907 370.7636419604176,500.62498669170395 368.32698800512856,501.06371411343997 372.1300425491008,488.7566322845324 372.0774854514217,486.25450505552004 371.0263449215505,483.87034071400456 365.6234823986612,474.9052555055011 357.4035631011272,461.2727145025111 349.1941552231236,447.6222369197226 340.9637245060481,433.95937523575805 332.7543165263416,420.2840416579904 326.2898019523419,409.53639888549446Z" name="Al Dhahira" name_en="Ad Dhahirah Governorate" gn_name="Az Zahirah" admin="Oman" adm0_a3="OMN" iso_3166_2="OM-ZA" iso_a2="OM" postal="ZA" type="Mintaqah" type_en="Region" wikidataid="Q1468596"/><path d="M0.7194340492611372,812.5038835481059 0,810.8033710148062 11.320783891166366,806.8469519578938 28.72767186322502,800.7448026414534 46.12404841575331,794.6405251011812 63.51516920765051,788.5341117492769 80.93256859923868,782.4310888108639 98.33945657130243,776.3176145520915 115.73583312381881,770.2047486683476 133.1532325154189,764.0924863544014 150.54960906793525,757.975281032769 167.95649693829105,751.8614378834191 185.3528734908074,745.7370904538318 202.7597614628652,739.6133180150017 220.1771608544653,733.4901157518251 237.58404882652397,727.3619271110075 254.9699139594989,721.2370721592713 272.37680182985383,715.1099933349298 289.7836897002096,708.9723459320913 305.08829661251815,703.5774763890958 308.35734381705095,693.1830711420778 309.03007375209995,691.0577887778775 310.92212682791467,685.0476680742465 313.8442975945296,675.7054018206159 317.649426483539,663.5687196165275 322.15881946450355,649.2031619982816 327.17276007472526,633.1583666157362 332.54408844071014,615.9854326431031 338.09411063370646,598.2290316651213 342.33673987029056,584.6421293368342 343.6862606911416,586.6530923908517 467.699825884677,792.6219705818066 555.9833763953927,816.1807748731584 531.8018957271553,819.9593049785395 519.2130388889518,823.5505657348675 502.05544505688107,830.6092257870876 495.47547064558853,835.3583322985488 491.1467578736079,837.5173876127515 488.79617581400805,839.3330505369206 487.78641866545433,841.6175693322173 486.94219555070964,842.7206352206692 476.08316852672647,853.5479142220556 474.19608145666365,857.3970987513575 473.76569317217707,862.4427524891555 474.4278290022926,865.9344026107193 474.5188726446046,867.1704150625686 474.19608145666365,868.5234265029355 472.7228293185678,870.5527536865166 472.17656726126677,872.2870411126835 471.2661305329976,874.4156518837056 470.99299960605543,875.5383825523116 470.99299960605543,879.9679395880897 470.0742860998146,884.4484089335477 464.8103065707823,896.7488755166829 466.32494219190534,898.8356695270992 466.0766412937517,901.069401870216 464.6447726386779,903.1470485941213 462.6500885737774,904.7440800023327 458.2303320577759,906.6785095767456 456.0370072540117,907.963689443465 452.92496904571556,913.5187906140727 452.2793865681308,914.024896674203 450.8226878842634,914.4747571344645 450.09433844062943,914.907304889641 445.36834429263024,920.1489810042413 445.0952132639793,920.9446173960139 445.2276403893194,923.3140281436523 444.0689027628965,923.5474937981102 428.1610901995607,921.4980834376513 426.10019262284544,921.8180485158089 423.0626446026269,923.253499457339 420.8113828616011,923.6771958017526 412.15395731765085,922.9508533862065 410.08478296295885,923.2751168983049 403.5048085516663,925.9208956030154 399.7802946725447,926.8589325599959 373.7500812051242,928.0605883383103 363.5200831027885,930.7229738805553 361.24399133297504,930.930416526476 360.4245982470171,931.129213585806 359.9031663202133,931.5743384276484 359.44794800693313,932.0799527392173 358.81064230732005,932.4515921490387 356.94838536775876,932.5077695172091 356.7994047881791,932.4515921490387 353.4556190342609,933.3633737649637 352.5617356585224,933.8300504182575 351.1878039407103,935.5670222911959 349.73110515513923,939.753239247019 348.77928494384287,941.5069384435706 347.264649322719,943.2647925832973 346.8177076857076,944.0983120109103 345.26168858155654,948.4466971197896 344.86440710382914,949.1850023019365 343.46564525551975,950.752185638272 334.055040239136,958.586149967559 331.19130292898757,963.7724770554108 330.49606029211367,965.8992374865928 330.2146525872007,968.3708119758486 330.6284874174529,971.2172534862586 331.7044580778273,972.6403147515985 335.1310108995045,974.5203174719003 337.10914161187935,976.6113873170669 337.87887443683763,978.8229294405437 337.91198124359687,983.6589785002229 337.2084619304602,985.6757932764887 333.0618365448176,991.2855608276113 332.8383656754566,992.2548249268397 332.6645550670902,993.7237053629876 332.78042883989787,995.0460327735207 333.40945776154615,995.618869599117 334.2205741712345,995.9806525285001 334.2536809779997,996.7989459927331 333.75707907998265,998.1512074575829 333.19426367015683,998.7411773244197 330.529167098878,1000.0717729562414 329.5856235638445,1000.6789075621177 328.964871318465,1001.5572812655679 328.5758665170004,1002.4614478759343 328.1454782325138,1004.2954846517073 327.1688278907202,1005.9227240289086 327.49989585663195,1006.4608022514207 326.53152219110115,1007.6230003771165 323.4443141133014,1008.5699251084717 321.88829490744746,1009.4135100156133 321.36686298064285,1010.3603474626007 320.81232424707895,1011.8235509361183 319.9763778085971,1013.1532492410986 318.7348732161301,1013.7470658187176 314.5882478304875,1018.4711351267744 310.0195108366211,1021.7532168722511 309.39048181326484,1021.7532168722511 308.3972781189456,1020.1531095828653 307.2054336857635,1020.8499466006742 305.9639290932906,1022.3639758912283 304.78036133637556,1023.1983625225845 303.1829587491973,1023.473616189879 301.70142983313065,1023.9897065694247 300.30266798482205,1024.290752947096 298.845969199251,1023.9165945760468 297.2568432883407,1025.5808994085696 295.3697563199927,1026.200139551336 291.19830080385367,1026.741958723083 287.80485478893576,1028.0577426502416 286.1164085594446,1028.066342339184 284.9659476092897,1026.741958723083 283.79893330660406,1027.3783619705011 281.9366763670436,1027.1031630460877 280.7862154168827,1027.528859767392 277.31827921388725,1025.2970745631437 276.5650997414537,1026.0840336005988 275.7374299792398,1024.0585176203567 275.2822115642499,1022.2005352845982 274.14002739206666,1020.8413438481842 269.97684855218955,1020.0842847914873 267.0468976285235,1019.0906003597072 265.79711635978856,1018.8626050798532 264.60527192660567,1018.9830557859628 262.51126744141635,1019.4734544341222 261.286316201475,1019.5852980674409 257.6942295493963,1018.8712087037019 256.3616812129084,1018.8626050798532 255.26915720000918,1019.1680321452866 253.1420459080598,1020.110094143091 252.53784701520593,1020.3079644242777 247.74563915197433,1018.9314340702322 245.24607651279996,1018.7593609807822 243.1603488055823,1020.3079644242777 242.20852859429107,1019.8003800965141 241.2153248999718,1019.5809964132766 222.26996441812793,1021.7532168722511 214.2250144432876,1021.7532168722511 212.45380124774806,1022.2177395899085 207.96783121993687,1024.4799797934693 206.8753071053288,1025.2970745631437 206.49457908183504,1026.2431416082034 206.52768588860027,1027.0601628752556 206.74287997998957,1027.8255519489787 206.8753071053288,1028.6382075431034 206.54423924112504,1029.5411188405485 205.1123705860572,1030.818022515644 204.78957939811627,1031.4628918634744 203.66394857845182,1032.5720176119494 201.0981723257547,1033.0878686849771 196.4466683658382,1033.3629837907874 190.3632957508488,1034.6439376991539 188.36861168594234,1034.802976512081 186.5311847751755,1035.421926094675 184.42890361372338,1036.6339793366426 182.32662245227723,1037.446271243712 180.48091896695044,1036.9047470588948 178.59383199859647,1038.12960193052 176.01977906963057,1040.2568009413608 173.7519639760791,1042.6200866921129 172.7835903105483,1044.574955207352 171.94764387207152,1045.7391917075129 170.04400344948309,1046.8904727354793 166.46847014993597,1048.5055901224298 163.14123785024452,1049.3431656925634 146.9023574227058,1049.6738909392197 138.31942216854284,1050.9409042625061 121.70809039377318,1056.2485976421794 113.06721820234263,1060.6920592165907 106.71704706019459,1046.4366274226902 100.34713516032062,1032.1321584437633 93.98773457828521,1017.8282047097779 87.63884551749497,1003.5028238302571 83.69706837791232,994.6432285492422 82.62490490725537,993.1826454850403 80.88001160326164,992.5589920687632 77.05385997688333,992.3401615420623 75.55072891542714,991.3882195862303 75.70840000507646,991.3335088865637 76.24448168955392,991.2623847656142 76.43368703782241,991.2076736022791 73.20668540973631,983.6286821424944 68.85496341671909,973.4018681736852 64.50324142370103,963.1640853831542 60.16728661084526,952.9262540132703 55.81556451613538,942.6828623825577 51.45333120527961,932.4338753070112 47.10160921227345,922.18474818063 42.75514287816658,911.9134781263872 38.39816522623902,901.6502366686218 34.04118757430551,891.3812601378789 29.70523265974602,881.0982578608365 25.342999247198435,870.8121926747795 20.99127725418037,860.5257882341544 16.650066680704583,850.2252355450543 12.298344687687367,839.9242744861738 7.946622694681212,829.6118396084107 3.5949007016648467,819.2989297447274 0.7194340492611372,812.5038835481059Z" name="Dhofar" name_en="Dhofar Governorate" gn_name="Muhafazat Zufar" admin="Oman" adm0_a3="OMN" iso_3166_2="OM-ZU" iso_a2="OM" postal="JA" type="Muhafazah" type_en="Province" wikidataid="Q1207752"/><path d="M392.3312670160051,970.9714412296188 391.95053889080333,969.9665967711303 391.87604860101607,969.7682091624661 391.87604860101607,969.7595835903836 392.42231065831794,968.9401342877242 393.61415509150004,968.3880643758183 395.05430042283666,968.0085070058323 397.098644748736,969.250666643224 397.89320770419073,969.5223781896159 397.8849309262199,969.526691135911 396.36201862883405,970.4409935404838 393.2996405798279,970.4237428963179 392.33954369226785,970.9671287167124 392.3312670160051,970.9714412296188Z" name="Dhofar" name_en="Dhofar Governorate" gn_name="Muhafazat Zufar" admin="Oman" adm0_a3="OMN" iso_3166_2="OM-ZU" iso_a2="OM" postal="JA" type="Muhafazah" type_en="Province" wikidataid="Q1207752"/><path d="M414.62041325176887,963.6689369388889 414.62041325176887,963.6775652770203 414.9100976329497,965.1486433716133 414.93492766174325,965.3082549677588 415.89502465100617,966.5937263395484 417.23584956205394,967.5038564889772 418.7091017001549,968.0085070058323 415.4811897190452,970.0528515895639 413.75963668279564,970.7126880904034 412.15395731765085,970.9714412296188 407.65143393730295,970.7601264186178 406.22784195849795,970.1822330841417 405.35051203699317,967.8963635691379 408.03216206250556,966.2572690979938 411.9222098737317,964.9545193368307 414.62041325176887,963.6689369388889Z" name="Dhofar" name_en="Dhofar Governorate" gn_name="Muhafazat Zufar" admin="Oman" adm0_a3="OMN" iso_3166_2="OM-ZU" iso_a2="OM" postal="JA" type="Muhafazah" type_en="Province" wikidataid="Q1207752"/><path d="M342.33673987029056,584.6421293368342 343.64413292841243,580.4529026372024 349.0049498748551,563.2176655682206 354.02940180292813,547.0863645668802 358.52828346604724,532.6185989625719 362.3334123550575,520.3812802116765 365.2660946429159,510.9367091091591 367.1476361974804,504.8585294484854 367.82036623423824,502.702450807226 368.32698800512856,501.06371411343997 370.7636419604176,500.62498669170395 442.10455282044114,484.79764804183907 609.5617581092182,568.2473383325115 641.8843307847349,584.788275095195 652.7582452141183,590.3487885702218 638.3448667061066,637.4031743455022 636.2869243694937,636.711885033924 633.323866740772,636.9624286060148 630.3277022035816,637.8942409716576 627.0666834157116,640.0038076912472 622.9283347063379,641.0892490957597 621.6371698528652,641.9856724407903 620.991587476985,642.9347729183442 619.2369276339755,648.0088870150845 619.170714020451,649.221169295355 619.8328498505673,650.3718757794253 620.1142575554794,651.355621707355 619.2783111170025,652.1724373238486 618.0285298482618,652.7389144480983 615.5289672090873,653.3141541945545 613.6667102695278,654.2274703245175 611.829283460463,655.430511136741 609.4207644636015,657.7046317174095 608.5434345420916,658.8196258179721 607.9061288424793,660.0398869614561 607.6578279443248,661.4575585866369 607.9806191322657,662.4801373757563 609.4207644636015,664.1038443849575 609.7435556515416,665.1394223683077 608.9986528553718,667.5174949723885 607.1860561768102,668.8818797549126 602.741469632021,670.6935732253473 601.0530233008219,671.776984954821 599.2238731680259,673.2506616487427 597.7671744841576,675.018023131338 597.1795289438354,676.98251098798 596.6249902102664,678.1926596238497 595.4662525838478,679.5780836213873 594.4730488895294,681.4368249350255 594.398558599743,684.0667633362254 596.327029051119,688.4403049373778 596.9395047219446,691.0559918990056 595.2841651975098,694.9765621765047 593.7115926391302,700.8535014946401 593.6536558035774,702.3771393877571 593.4467383884459,705.5596941620694 591.0796028746107,711.2578906415262 589.3828799688592,717.2953445744507 588.1993122119375,719.9721314090249 581.7765949547735,729.490530901013 580.7916679367179,732.3052372582022 581.2137795449477,735.6044924258953 581.9338522106168,736.8366325232876 582.8277355863544,737.8283967807832 583.5974684113135,738.8943695364275 583.9202595992535,740.3708936184123 583.9781964348064,743.638012505342 583.8126625027011,745.2101994764733 583.2995072521593,746.5988440513377 582.5546045577042,749.4107217401443 582.3394103646052,751.5673454043782 583.08431316077,753.6320361125489 588.0172248256002,761.7181649771983 588.7869577522673,763.5024478706255 589.4077099976469,766.4816570588978 589.3911566451212,769.3513304035109 588.9111082013446,772.0592012499391 587.197831841357,776.9898371392766 586.8005503636297,779.1953077036816 587.0405745855154,781.6532485685242 589.0931954859739,787.1257102790405 590.0781225040303,788.8202553944665 592.6356219787566,791.8299533615973 593.2646510021128,793.5545243539476 592.3624910518154,798.0219380317501 592.2631706315308,800.198626480813 596.1118349597298,807.1317516814744 596.1366650902262,808.6981801341484 593.6536558035774,811.2172262174225 592.1721269892137,812.4048378723415 591.7665688352234,812.557089903003 587.206108517619,813.218283760234 586.701229943346,813.7750593829912 586.2460116300599,814.4144595552499 585.136934162933,815.2756557363864 583.8623227636948,816.01068393117 582.8773957456443,816.3238227628563 561.6973269770091,815.2887039141568 555.9833763953927,816.1807748731584 467.699825884677,792.6219705818066 343.6862606911416,586.6530923908517 342.33673987029056,584.6421293368342Z" name="Al Wusta" name_en="Al Wusta Governorate" gn_name="Muhafazat al Wusta" admin="Oman" adm0_a3="OMN" iso_3166_2="OM-WU" iso_a2="OM" postal="WU" type="Mintaqah" type_en="Region" wikidataid="Q958518"/><path d="M763.317676923334,418.8219374585505 765.6517055290942,420.8767399769018 767.9857342361693,422.2137694780203 768.5651031002355,422.7396349899251 768.6644234188146,423.88934390261056 768.0519478496938,424.1656174218747 767.1911712807146,423.93390447944836 766.5455889048386,423.55959154229333 766.5621422573643,425.1013443897712 767.307045053529,425.80087333526933 768.5319962934763,425.93899299380627 770.021801784097,425.80087333526933 777.8515575658391,423.09614334745584 780.5663143981108,424.2012652559876 784.6715563007253,427.2978443958421 785.292308647818,427.3557598664455 786.889711234992,427.13746178637456 787.4525266448178,427.2978443958421 787.7339343497366,427.80571123062435 787.9242984123375,428.97730303143044 788.1974294409894,429.5385654439532 788.1808759867548,429.85036887909024 788.0650023156433,430.3492406593718 788.1477692816985,430.9995308648833 788.8264584643388,431.7834046409893 789.3396137148806,432.0773467509116 789.9851960907624,432.31784046839164 790.6638852734036,432.46926055000256 791.292914296753,432.53160947945247 791.657088967722,431.98827400704323 790.9949531376074,430.8035559504942 789.5217009995098,429.12875692268165 789.9520892839981,427.6497890038094 791.0280599443649,427.62305939095137 793.0641274922925,427.2978443958421 795.7954376770966,428.03290918700486 797.9970392588308,430.86591192825983 799.4702913969335,434.53999847415406 800,437.825872763394 797.9970392588308,455.74306214325054 796.6644909223429,460.5535409945552 794.6284233744153,464.8470022181834 788.8264584643388,473.03054641574346 785.7971871203898,475.60198825136445 784.092187538368,477.44036950591294 783.3307312879688,479.362883730328 783.0576003610274,481.8933064540724 781.1953434214671,487.11264327076265 780.7235716539524,492.3789948496227 779.7303679596332,494.54801004483915 775.699616245097,496.2510707900874 774.4581116526241,498.15348555487896 772.7862187756637,502.130500766937 764.741268800831,513.0143773780082 761.6623373992941,522.8015440033147 759.7255901699465,527.3166145027304 750.207388158719,542.4546715691481 749.4459319083207,545.9429252742023 749.1148640441119,546.9021693341489 748.2954710598686,547.6624500580957 733.9685077311811,554.0305635126214 731.0137267787206,555.8022161930329 719.6332677262258,565.1034339425316 705.8856732616036,579.5699373073577 701.7059410691959,586.0618918046592 700.6713538918555,587.0407474170686 699.2808687198096,588.0327693862196 697.6834661326315,590.3207979922677 694.5631511463696,596.1385834750674 694.2155298279263,597.1344464026362 693.9589522535089,600.963094493902 693.6444377418376,602.0687821616743 693.0485155252456,603.0026103309201 687.1389535186175,607.8074420069364 687.5610651268473,610.0530205972151 685.8477887668597,611.5895200856079 681.5935662846655,613.7201248327822 681.709439955777,613.9226055619208 680.931430454556,615.9032619400331 680.8155566817424,615.9384714244183 680.1120373685997,616.6162386588906 679.6568190553187,617.1839568818583 679.4250715096957,617.7780591333949 679.6733724078495,618.7725812944211 680.3024014312006,619.7846427619859 681.1962848069389,620.6382452608435 682.2225952063138,621.1706240321989 683.728954151174,620.4622484514441 685.4339538348987,618.8605891491914 686.5761381087908,618.213720183245 686.4437109834516,620.3654494103698 685.4339538348987,621.7997762862874 683.579973673304,623.1899839028534 681.7425467625371,623.7178794712936 680.8155566817424,622.5828825610382 680.1865276583861,622.5828825610382 679.6154355722966,624.1049919581976 678.8457026456294,627.030031458887 678.03458633765,628.5561204349657 677.2317467059315,629.2861294444809 674.9887616411686,630.5789564045725 673.8796841740349,631.5682951061516 672.5885194222788,633.6567011476963 671.4711652788831,636.4085903103862 670.701432352216,639.4149144836459 670.4200246473022,642.2624991530234 667.8376950420735,647.4290680328832 666.430656517502,651.2106986087414 666.5548069665793,652.949691648526 665.9837148804838,653.7664276379534 665.4374528231837,657.3622167486216 665.1394916640295,658.1787329474611 664.3118220035192,658.3499328067098 662.954443536529,658.8284050843517 661.580511818716,659.539503059964 660.6204149311619,660.3822460885831 659.9417257485165,663.2788456980242 657.7401241667807,664.4548950549148 654.8763868566382,664.3495806833762 652.2278436378859,663.3929437515665 650.2910965102462,662.4318625686917 648.9254413669888,661.9798277759398 645.5982090673034,661.8569423816532 644.3153208901005,662.0632137665162 641.8985252169701,663.076978005341 640.4252730788743,663.3929437515665 640.7397875905516,662.4318625686917 641.3357098071435,661.9359402482792 640.8391080108353,661.628724273857 637.230467904528,660.6148707161418 635.210953709126,660.3822460885831 633.0341822578876,659.4824408092092 632.7941580360009,657.3622167486216 634.1018762419932,652.949691648526 634.0853228894675,654.3065049233186 634.4991577197197,655.5095399343063 635.2606138684168,656.5588304736453 636.2620943407061,657.4412362384168 636.6510990404627,655.263671336928 635.616511863117,650.4070106004515 636.6097155574355,648.1933705093433 637.9588172464591,646.0497189841346 639.0016811000685,642.9303789654675 639.2665354524506,639.7401268276757 638.3448667061066,637.4031743455022 652.7582452141183,590.3487885702218 641.8843307847349,584.788275095195 630.5004784168805,552.0482403180542 620.7744179154668,517.990750598525 646.9905734977749,508.49369910264426 672.7571340639739,499.15381610566124 696.631949135976,490.4945852476197 719.3325736593835,482.2566818697211 741.3826167101862,470.2897823715004 753.9190469749211,463.56274080105646 758.8780225545154,450.45280935640375 759.8499894950497,435.8193840420866 757.9060555225109,430.0666325238461 757.7783830550654,424.6860580772432 763.317676923334,418.8219374585505Z" name="Ash Sharqiyah South" name_en="Ash Sharqiyah Region" gn_name="Muhafazat Janub ash Sharqiyah" admin="Oman" adm0_a3="OMN" iso_3166_2="OM-SH" iso_a2="OM" postal="SH" type="Mintaqah" type_en="Region" wikidataid="Q1106416"/><path d="M704.5696783793452,635.5909850324747 704.7848724707336,637.8942409716576 705.3890714652963,639.71815317564 708.5176630261165,645.3995395972998 709.4198230781245,647.0512961227694 709.0225416003963,648.2372948490121 708.1203815483899,649.1025804132832 704.2220570609019,651.9967814164444 700.1002617040529,654.2977233440378 698.2462815424632,655.9661432458106 695.8129324151053,659.6667951417012 694.6045346293917,662.1948749787722 693.4209668724715,667.3771016288414 692.5022534679395,669.2108945879295 692.5022534679395,669.2196682039513 692.5022534679395,670.4216126121545 692.5188069221731,670.5181152643786 692.6760641780147,671.509428391697 692.6843408542784,672.2287510432072 692.25395256979,672.9831289605671 688.8273998498175,676.3774033759236 686.9899729390447,678.9073073585683 686.062982858249,679.9200375209631 685.1525461299807,680.2488327252853 683.8613813782229,680.4285713054433 682.7026436500955,680.7179025466539 682.2225952063138,681.3929891005143 681.8749739895852,682.532683245775 681.005920744344,683.7599587065035 679.8885666009467,684.6365283188859 678.7463823270555,684.732948236821 678.729828872821,684.732948236821 678.2001202697485,683.7424267774479 677.7531786327371,682.9271745826287 677.2317467059315,679.5649314405259 677.1324262856419,676.1976208120177 677.3558971550088,674.368989305688 677.3227903482436,674.241810658429 677.0744894500899,673.25504738382 677.7862854394946,664.7269542599538 678.3242707188257,663.353448365204 679.4250715096957,661.8569423816532 679.9878869195225,661.3039467925825 681.8004836997989,659.9257657386669 682.5702165247511,659.644848357241 682.7688572636148,659.4341571947958 682.9674980024785,659.2190738560892 683.4144396394959,657.2217366679988 683.6627406393592,656.6378538334153 685.3842936756088,656.0012659594886 687.0727399050999,655.9310203490032 688.8025697193202,655.6632058542086 690.5986130453571,654.4250561067381 691.4345594838338,653.2834166766308 691.8070109327736,652.7652617869958 692.1877389562674,651.4258870490189 692.25395256979,651.1843487674945 692.6843408542784,647.0512961227694 693.3133698776287,645.0568670565696 694.2569133109533,643.4312709529796 699.1401648164988,636.9624286060148 701.0189752102937,633.0455953552384 702.1611593824769,629.4884153115757 703.0467660819526,628.2174906213056 704.5696783793452,627.8172825672773 705.7946296192865,629.6027497039661 705.7946296192865,629.615942044567 705.6622023922376,631.4627685680105 704.9669598570717,633.4412780203862 704.5696783793452,635.5909850324747Z" name="Ash Sharqiyah South" name_en="Ash Sharqiyah Region" gn_name="Muhafazat Janub ash Sharqiyah" admin="Oman" adm0_a3="OMN" iso_3166_2="OM-SH" iso_a2="OM" postal="SH" type="Mintaqah" type_en="Region" wikidataid="Q1106416"/><path d="M740.4576186832336,389.03922900896964 743.2053020374888,396.0574714749152 743.5777534864294,397.63779411598045 744.3640397656162,399.76248137396647 746.2097432509473,401.2129853178563 749.884596970779,403.221140676108 753.9319019361319,409.6855521598555 754.5029941239353,411.45173357344936 755.8686491654796,413.12406028587765 760.1228716476746,417.1502513180266 763.317676923334,418.8219374585505 757.7783830550654,424.6860580772432 757.9060555225109,430.0666325238461 759.8499894950497,435.8193840420866 758.8780225545154,450.45280935640375 753.9190469749211,463.56274080105646 741.3826167101862,470.2897823715004 719.3325736593835,482.2566818697211 696.631949135976,490.4945852476197 672.7571340639739,499.15381610566124 646.9905734977749,508.49369910264426 620.7744179154668,517.990750598525 595.5500541563498,429.3100094697708 605.5674238792647,408.3808512789943 628.8817219473467,390.0145251487374 635.1360082861366,389.2714552456723 652.048860170075,378.3848674974473 667.427046767883,374.55831672591273 697.9311463218197,395.2234706031995 731.3679280006037,399.63418291455184 738.0847163968941,392.22082462587804 740.4497826679188,389.0502287636464 740.4576186832336,389.03922900896964Z" name="Ash Sharqiyah North" name_en="Ash Sharqiyah North Governorate" gn_name="Muhafazat Shamal ash Sharqiyah" admin="Oman" adm0_a3="OMN" iso_3166_2="OM-SS" iso_a2="OM" postal="SH" type="Mintaqah" type_en="Region" wikidataid="Q4501876"/><path d="M625.7837953402167,298.429365526515 632.0492552398362,301.07642853103437 633.7873617303202,301.4494047426706 635.525468220805,302.20431467440767 639.2665354524506,305.99174176110995 641.1205157157491,307.4740910865362 644.662942208537,308.63291163542357 649.3723831057142,309.2257601650019 654.2970179925787,309.1539011095331 658.4684735087178,308.29605486284527 660.6949052209483,307.46061580079265 661.5887884949848,306.73293569919184 662.3254146148807,304.69792944254624 663.2027445363915,304.6619886303886 665.1394916640295,305.2100775128422 669.4930345665082,305.2999261462848 671.8105098193488,305.75814547428087 673.8796841740349,306.7913311173667 674.7735675497793,308.17478446879653 676.8096350977019,312.5668112479796 677.7035184734463,313.5007291176929 678.2166737239829,313.71175009559187 678.6636153610002,314.19214828312573 679.0691735149956,314.7219143903008 679.4250715096957,315.0810666993997 679.6568190553187,315.0092370237452 680.2196344651504,314.9239387267187 680.9479838070816,314.9194492298819 681.5935662846655,315.0810666993997 683.0419882922718,316.30211744695885 683.8365512477264,317.2357918546682 684.2917695610058,318.0975912861875 685.053225811405,318.0975912861875 685.6822547330532,316.58940830310416 685.922279056647,317.1864163770158 686.1291964717735,317.5499956385142 686.3195605343752,317.99435766864883 686.4437109834516,318.8426470715355 687.1389535186175,318.8426470715355 687.2548272914329,318.3713813837991 687.759705865711,317.33454241044456 688.3059679230121,317.8193075960038 688.6287591109522,317.9539616791019 689.9033705101843,317.33454241044456 692.3532728883658,320.63780311443594 693.0485155252456,322.4506830595968 692.6843408542784,324.11079335952905 693.4954571622579,325.6361310774833 694.5383210158672,330.6685992247581 695.8543159998353,332.8030548897712 701.8135381657484,338.36640164807307 705.4801151076084,340.03812516545446 706.9285371152079,342.01884500918646 708.6666436056961,346.75444536006097 709.6515706237474,348.47894855558786 712.7305020252843,351.4437191496459 714.2782444531666,353.6557065160199 715.1307443458821,360.1553906759725 721.603121762337,366.7595372888924 722.0252332688536,367.6497052480213 722.6128788091819,370.9236253629849 723.0432670936744,371.68832900529145 723.5150388611881,372.21152422768375 726.3539460408342,374.5053134991095 731.7669061494462,377.6704211796707 735.2100123236481,380.2627970023386 737.7261283153592,383.26580499152044 739.5304484193668,386.6702593252339 740.4576186832336,389.03922900896964 740.4497826679188,389.0502287636464 738.0847163968941,392.22082462587804 731.3679280006037,399.63418291455184 697.9311463218197,395.2234706031995 667.427046767883,374.55831672591273 672.1676907993148,349.5788056912119 646.4673036643641,323.2257539841957 624.477442923914,326.1742899386108 624.4353972407469,326.14295606731014 621.8390800324404,315.26310855942563 625.0871044609046,299.52714732855424 624.8978991153181,299.48148585263476 624.9189219111696,299.21607540416164 625.7837953402167,298.429365526515Z" name="Muscat" name_en="Muscat Governorate" gn_name="Muhafazat Masqat" admin="Oman" adm0_a3="OMN" iso_3166_2="OM-MA" iso_a2="OM" postal="MA" type="Muhafazah" type_en="Province" wikidataid="Q544762"/><path d="M564.871286018388,285.58088962587175 570.3381990667258,288.0295979239714 576.3139746868715,289.909583167373 580.5433670385693,290.6920873759067 582.8773957456443,290.8180035793605 589.7553313160902,290.4042747048614 591.6258649319126,290.8180035793605 594.539262401345,294.6399286811881 595.6152330617127,295.4761189751174 598.081688894133,296.1369442035202 600.9785330110356,297.5978435987043 603.5277559112078,297.930458238219 616.787025154086,297.18880682132817 621.2233350226131,297.4585027639588 625.7837953402167,298.429365526515 624.9189219111696,299.21607540416164 624.8978991153181,299.48148585263476 625.0871044609046,299.52714732855424 621.8390800324404,315.26310855942563 624.4353972407469,326.14295606731014 602.266842552642,344.4417660775517 599.1975119803675,351.2424070721025 573.1187142457089,355.4872818593464 569.2294941779412,353.58818765434046 557.4882540062354,352.2404764130865 527.3415421646849,321.53612714119964 539.868517540266,317.453414958356 553.0574299141173,306.2368571496179 564.871286018388,285.58088962587175Z" name="Al Batnah South" name_en="Al Batinah South Governorate" gn_name="Muhafazat Janub al Batinah" admin="Oman" adm0_a3="OMN" iso_3166_2="OM-BJ" iso_a2="OM" postal="BA" type="Mintaqah" type_en="Region" wikidataid="Q4703565"/><path d="M620.7744179154668,517.990750598525 630.5004784168805,552.0482403180542 641.8843307847349,584.788275095195 609.5617581092182,568.2473383325115 442.10455282044114,484.79764804183907 462.25491764345804,458.76050480564606 478.43197121530227,410.20490259491 497.95165170547796,322.99782272635923 527.3415421646849,321.53612714119964 557.4882540062354,352.2404764130865 569.2294941779412,353.58818765434046 573.1187142457089,355.4872818593464 599.1975119803675,351.2424070721025 602.266842552642,344.4417660775517 624.4353972407469,326.14295606731014 624.477442923914,326.1742899386108 646.4673036643641,323.2257539841957 672.1676907993148,349.5788056912119 667.427046767883,374.55831672591273 652.048860170075,378.3848674974473 635.1360082861366,389.2714552456723 628.8817219473467,390.0145251487374 605.5674238792647,408.3808512789943 595.5500541563498,429.3100094697708 620.7744179154668,517.990750598525Z" name="Ad Dakhliyah" name_en="Ad Dakhiliyah Governorate" gn_name="Muhafazat ad Dakhiliyah" admin="Oman" adm0_a3="OMN" iso_3166_2="OM-DA" iso_a2="OM" postal="DA" type="Mintaqah" type_en="Region" wikidataid="Q792550"/></svg>