<?xml version="1.0"?><svg fill="#3498db" stroke="#ecf0f1" stroke-width="1" width="800" height="1144" viewBox="0 0 800 1144" xmlns="http://www.w3.org/2000/svg"><path d="M698.5942173722395,227.870264490684 700.3321490334828,228.2689490475186 701.2011148641006,229.15692240678226 701.4726666583529,230.51605042226788 701.5993907400216,232.30101071783668 700.6942180924907,233.4154625474472 698.5942173722395,236.9852504240776 700.4769767460625,239.9025986529566 699.6080109154371,240.69987181337652 697.4718031557962,240.80859034860316 695.5528369650602,241.5514977299919 692.3304220283658,246.06318478297564 690.3390419813305,247.9565845172029 689.4700761507089,246.8694693324849 690.6286971840318,242.57525119388515 698.5942173722395,227.870264490684Z" name="Peleliu" name_en="Peleliu" gn_name="State of Peleliu" admin="Palau" adm0_a3="PLW" iso_3166_2="PW-350" iso_a2="PW" wikidataid="Q497981"/><path d="M741.3907844191451,178.9287889762636 738.1321626655339,179.87159310092463 738.512335133002,181.73904368752645 740.3045772420879,183.9146697892062 741.3907844191451,185.76391422379982 740.1597495294858,187.28679558323083 737.4442313644051,187.93945168677686 732.9545744987136,188.04822747121366 730.8545737784624,189.24475120738916 725.6045719777937,194.46577742832227 722.2735361454623,195.66222399456134 719.3769834508627,195.13651443177923 717.2226722827652,193.68626664023395 715.8649133114633,191.51085535481548 715.4304303961487,188.80965327905054 715.593361517185,184.82116664184232 716.2450857789277,184.0687748701789 723.3054330971164,191.47459818885736 724.7356061471721,191.25705446920523 727.5597449854725,189.5710734551145 735.380437461067,182.57303945655133 736.9373345928175,180.45177559687906 737.10026571385,177.82279568238155 736.3942310042944,175.3659957769264 736.3218171479915,173.9245235620149 738.1864731133394,174.35968718638603 739.3813009636236,175.06682415644286 740.3045772420879,175.93713935100917 741.0106119516547,177.17007264363633 741.3907844191451,178.9287889762636Z" name="Koror" name_en="Koror" gn_name="State of Koror" admin="Palau" adm0_a3="PLW" iso_3166_2="PW-150" iso_a2="PW" wikidataid="Q189426"/><path d="M743.0563024465363,163.72482237931308 746.8942348280306,164.75844059472774 752.0718227723964,167.10670790640017 755.5114792779773,170.62446988249798 754.370961653081,175.12121894279412 752.0718227723964,175.73769264217742 750.152856581638,173.34430254275452 748.6683733062166,170.11675964032816 747.4735452334963,168.140290326927 744.4864752741411,167.20643998470214 742.314060697587,167.88642897868883 738.1864731133394,171.3316337872989 737.8063004234391,168.02242629903668 738.2045765218145,165.30244571356096 739.833887287391,163.67948811360293 743.0563024465363,163.72482237931308Z" name="Koror" name_en="Koror" gn_name="State of Koror" admin="Palau" adm0_a3="PLW" iso_3166_2="PW-150" iso_a2="PW" wikidataid="Q189426"/><path d="M755.7287206243905,129.49132284719494 751.9994089160972,126.91538229395601 753.7192371688839,125.30991953214254 756.70630735069,121.11019102818196 759.3856184763846,119.29599603282622 759.7476877578731,119.44113297868162 759.9287222873659,118.20746231326387 759.9106188789057,115.15950176385682 768.4127092547519,116.17585495366676 771.3215024305732,113.05247998634376 774.230295606387,116.59229727661847 776.1002340622725,116.800517551683 773.3992118704448,123.67153569987049 770.490418694631,130.33386741731545 767.3738547348853,138.86930188447607 759.2707881594206,127.8355475368351 755.7287206243905,129.49132284719494Z" name="Ngeremlengui" name_en="Ngeremlengui" gn_name="State of Ngeremlengui" admin="Palau" adm0_a3="PLW" iso_3166_2="PW-227" iso_a2="PW" wikidataid="Q975076"/><path d="M746.6588898318793,139.7853222307086 747.944235188171,137.50894699592732 749.7183736663272,135.6769246030492 751.9994089160972,134.53416026139107 752.8683747467226,137.4182536497487 754.8597547937837,137.79916508335546 756.9597557364895,136.20295440839894 758.064066321992,133.14649947696267 757.4666522856486,131.30532378084789 755.7287206243905,129.49132284719494 759.2707881594206,127.8355475368351 767.3738547348853,138.86930188447607 764.0495195910731,148.23658900454222 760.5174136633105,146.15504826366018 758.8552461914223,141.78366664174996 754.4920565277213,139.70198651486672 746.6588898318793,139.7853222307086Z" name="Ngatpang" name_en="Ngatpang" gn_name="State of Ngatpang" admin="Palau" adm0_a3="PLW" iso_3166_2="PW-224" iso_a2="PW" wikidataid="Q430385"/><path d="M751.7689312732666,154.43726124054265 750.7321672095546,150.0147423071129 749.2657873425636,146.84990450870964 747.4735452334963,145.43521579459357 746.2063035269315,145.52590158508767 745.6269928990372,145.1631579115385 745.9528551411321,142.27929687305772 746.6588898318793,139.7853222307086 754.4920565277213,139.70198651486672 758.8552461914223,141.78366664174996 760.5174136633105,146.15504826366018 764.0495195910731,148.23658900454222 761.1407264152518,152.60767850054842 756.1542239996021,155.93789995604158 751.7689312732666,154.43726124054265Z" name="Aimeliik" name_en="Aimeliik" gn_name="State of Aimeliik" admin="Palau" adm0_a3="PLW" iso_3166_2="PW-002" iso_a2="PW" wikidataid="Q405589"/><path d="M770.3925190653359,150.65857912599833 771.9132093865793,159.0190010178506 770.827001987075,162.06557028649286 769.8132084438514,162.74559509937896 768.7088978583414,162.3647818957847 766.1020003664728,162.14717352353793 764.0201030546782,160.8687151038852 762.6261370439864,160.67830501912815 761.5942400923323,161.48527865422463 759.2588943947159,164.60430519289446 758.064066321992,165.23897876190856 755.656306990557,164.8219080816858 754.7149273036288,164.05122936164338 754.3890650615339,162.71839426927139 752.4157884229516,157.19645412912797 751.7689312732666,154.43726124054265 756.1542239996021,155.93789995604158 761.1407264152518,152.60767850054842 764.0495195910731,148.23658900454222 770.3925190653359,150.65857912599833Z" name="Airai" name_en="Airai" gn_name="State of Airai" admin="Palau" adm0_a3="PLW" iso_3166_2="PW-004" iso_a2="PW" wikidataid="Q407967"/><path d="M777.9437825563276,135.52984345590724 776.7649350888205,139.14141280315246 771.5873471444845,145.87957537569085 770.3925190653359,150.65857912599833 764.0495195910731,148.23658900454222 767.3738547348853,138.86930188447607 770.490418694631,130.33386741731545 772.7758991185035,133.4566756106187 773.8147536383963,135.746670064977 775.8924630782753,134.91395112158344 777.9437825563276,135.52984345590724Z" name="Ngchesar" name_en="Ngchesar" gn_name="State of Ngchesar" admin="Palau" adm0_a3="PLW" iso_3166_2="PW-226" iso_a2="PW" wikidataid="Q1070180"/><path d="M777.3985561645612,126.28045677574104 777.199418004135,127.7498495840784 779.6795914143312,130.96973617723233 779.6795914143312,132.37556810530697 778.6476944626733,133.373242895285 777.9437825563276,135.52984345590724 775.8924630782753,134.91395112158344 773.8147536383963,135.746670064977 772.7758991185035,133.4566756106187 770.490418694631,130.33386741731545 773.3992118704448,123.67153569987049 777.3985561645612,126.28045677574104Z" name="Melekeok" name_en="Melekeok" gn_name="State of Melekeok" admin="Palau" adm0_a3="PLW" iso_3166_2="PW-212" iso_a2="PW" wikidataid="Q12898552"/><path d="M784.6218346038123,112.78275026799167 781.7614887261258,120.27566555654153 777.3985561645612,126.28045677574104 773.3992118704448,123.67153569987049 776.1002340622725,116.800517551683 776.9313177982148,110.76193930532473 784.6218346038123,112.78275026799167Z" name="Ngiwal" name_en="Ngiwal" gn_name="State of Ngiwal" admin="Palau" adm0_a3="PLW" iso_3166_2="PW-228" iso_a2="PW" wikidataid="Q1154101"/><path d="M785.0563174324774,91.60705858378552 785.7623522286824,102.18642778061036 784.6218346038123,112.78275026799167 776.9313177982148,110.76193930532473 776.7769259194287,105.01296271385063 779.462350067903,104.245909129896 780.7839022222882,100.53518113093857 779.4893471091635,92.04095790046965 785.0563174324774,91.60705858378552Z" name="Ngaraard" name_en="Ngaraard" gn_name="State of Ngaraard" admin="Palau" adm0_a3="PLW" iso_3166_2="PW-214" iso_a2="PW" wikidataid="Q1154127"/><path d="M779.4893471091635,92.04095790046965 779.0097635216849,88.89397447635204 776.9459698407939,84.48391006567368 776.4390730691802,81.87044002458158 777.3080388998018,80.89036986957055 779.299418946863,81.31688319979655 781.3089024023622,82.5873366365896 782.3951095794118,84.15723027087904 785.0563174324774,91.60705858378552 779.4893471091635,92.04095790046965Z" name="Ngarchelong" name_en="Ngarchelong" gn_name="State of Ngarchelong" admin="Palau" adm0_a3="PLW" iso_3166_2="PW-218" iso_a2="PW" wikidataid="Q1070185"/><path d="M759.9106188789057,115.15950176385682 759.7476877578731,114.88735769087779 762.1011368639199,110.53294565168702 764.7985516205404,107.72968679218424 768.5821735542181,106.20555002413063 774.1580375969594,105.76100525895663 776.7769259194287,105.01296271385063 776.9313177982148,110.76193930532473 776.1002340622725,116.800517551683 774.230295606387,116.59229727661847 771.3215024305732,113.05247998634376 768.4127092547519,116.17585495366676 759.9106188789057,115.15950176385682Z" name="Ngardmau" name_en="Ngardmau" gn_name="State of Ngardmau" admin="Palau" adm0_a3="PLW" iso_3166_2="PW-222" iso_a2="PW" wikidataid="Q1144496"/><path d="M2.443966370828556,1121.4682028102084 6.625864402881718,1118.9290516627036 11.676728265578822,1118.5958985412208 13.559487639401796,1121.1350532957092 10.970693555989762,1124.5745739449712 6.535347138122299,1126.8975726130975 1.6293107655764865,1127.7439308399387 0,1125.411936619469 2.443966370828556,1121.4682028102084Z" name="Hatobohei" name_en="Hatohobei" gn_name="State of Hatohobei" admin="Palau" adm0_a3="PLW" iso_3166_2="PW-050" iso_a2="PW" wikidataid="Q3516752"/><path d="M146.90953560050326,1136.8645998801803 150.22246780193112,1137.6298919932258 151.68884766892583,1140.6910359293693 147.72419120573673,1143.2119491617566 144.08539676220659,1142.3746487376752 143.32505160480463,1139.8897402731293 145.46125914196878,1137.6749092046996 146.90953560050326,1136.8645998801803Z" name="Hatobohei" name_en="Hatohobei" gn_name="State of Hatohobei" admin="Palau" adm0_a3="PLW" iso_3166_2="PW-050" iso_a2="PW" wikidataid="Q3516752"/><path d="M242.31474243940605,624.0517534380408 240.86646598089015,620.7466828946199 242.2785356224893,620.0513435569778 243.72681185855066,621.3607458127781 242.31474243940605,624.0517534380408Z" name="Sonsorol" name_en="Sonsorol" gn_name="State of Sonsorol" admin="Palau" adm0_a3="PLW" iso_3166_2="PW-370" iso_a2="PW" wikidataid="Q866699"/><path d="M673.7200705262966,270.1855820101649 670.5157589980587,266.91584499400716 668.6148962157791,262.47753346644 669.2666204775219,259.09885472964993 673.756277343206,258.93580597958794 676.7252438940861,261.1912936092401 677.7390374373098,264.6876552883433 676.7614509334722,268.1204968920632 673.7200705262966,270.1855820101649Z" name="Angaur" name_en="Angaur" gn_name="State of Angaur" admin="Palau" adm0_a3="PLW" iso_3166_2="PW-010" iso_a2="PW" wikidataid="Q530813"/><path d="M796.0699817048668,0 798.8665354959937,0.03385009655158099 800,3.0667663680963484 797.9455955864894,8.46889226201947 794.194367823233,10.350758941275247 792.2546592226371,7.995034681054401 792.3187539416105,4.705039688336812 796.0699817048668,0Z" name="Kayangel" name_en="Kayangel" gn_name="State of Kayangel" admin="Palau" adm0_a3="PLW" iso_3166_2="PW-100" iso_a2="PW" wikidataid="Q871222"/></svg>