<?xml version="1.0"?><svg fill="#3498db" stroke="#ecf0f1" stroke-width="1" width="800" height="1624" viewBox="0 0 800 1624" xmlns="http://www.w3.org/2000/svg"><path d="M265.45360236185854,1624 210.13337145154597,1616.080846153667 163.77110971014332,1596.437094980428 119.8865849260926,1546.8189526287674 52.451175317646694,1435.5558839549958 69.7848253003169,1433.501657956537 93.87184568166026,1411.9713210486755 100.17499163286246,1386.121761839567 92.29605965488442,1289.909055020238 84.64223943950532,1264.363099420739 45.17254321747776,1190.8632479646435 42.09600749607888,1175.8368796040543 52.00095087028372,1147.4670289530313 54.17703677487638,1127.6577772303383 53.12651244970429,1109.4930544853532 47.42366637631121,1101.5837632216126 22.811384293472067,1086.505263361125 16.058013894914616,1052.1391245416585 14.707339630791703,1014.8776359370377 6.303145951248469,990.9237127761886 12.906440919305808,972.6149659524708 11.480729400934393,951.3337809224003 7.42870753066905,928.8112740067269 6.303145951248469,906.6559547362135 13.656815305565624,851.6834445633816 13.056516349813636,830.4636788922058 0,754.1822467160357 10.580280506277857,710.4236783394914 11.855916594087445,690.41920945868 0,677.9354046087606 24.912432943854796,645.0662334025642 42.512153658881815,642.1685832946077 53.015500948602146,655.0304861200436 55.93309741796976,673.6778102457965 64.10236753218211,681.3931018707913 64.08197922697781,701.1658229832553 88.69426223192806,705.7121800643753 74.06195985539257,664.6234348977117 70.91038687973749,647.0923908437718 69.7848253003169,628.731679217868 71.58572401179508,617.316853807825 74.88737149585461,605.3218507836685 75.4876713737177,592.7464953967192 69.7848253003169,580.1698272550691 62.28108051549963,575.2049903720537 42.02097024187667,571.3157252221457 31.365652481458305,566.2677690333938 41.87089573347995,553.3572754481039 54.026961344368544,549.9639024935428 66.85836500947214,548.3913325144307 79.23954330507078,541.6042103749089 82.24104177227515,535.8100236946063 88.09396235406496,520.2057156267144 91.84583428542575,517.0183794309621 97.92386755192561,519.212268750057 103.77678905581881,528.7738488555868 110.6051957865291,530.9261348266893 115.40759296514993,538.5829910598253 113.68173150792796,555.7160267840827 107.60369824138182,583.2727451381478 107.60369824138182,604.4118365700889 108.50414805819575,612.0226551359854 115.93285466670741,631.2957299090972 120.36006465223691,636.8372026066007 126.96335962034054,642.5851780560481 136.1929658624415,639.814605623249 138.06890182812188,637.1266757966845 137.46860195025877,632.1641862943193 141.22047388167357,608.3827585179827 141.82077375947497,584.0588051974138 145.8727956297943,573.2189984543941 156.37803888181594,562.4195936734014 162.75622116516323,565.6471035230394 170.33500320423673,572.5983688116083 183.09136961509182,573.2189984543941 188.9442901968816,566.143635577447 201.85073111614113,536.4722310073691 208.90425053155374,523.9724579552445 183.39151955399637,533.8233808723356 159.82976087426448,538.044956967158 140.32002498695533,530.098336389873 126.96335962034054,503.1090127709946 125.91283529512218,488.61837398931857 132.66620569368735,440.57973322795385 134.9173288525208,436.0233452346426 143.84678515570948,428.52563751329467 145.8727956297943,423.2645348940083 144.74723405037372,419.0389143310114 140.01987504799678,412.9073573347619 138.96935072283242,408.6399390450309 138.96935072283242,378.0177830735269 151.7257171336875,381.16737902808416 156.07788894290368,373.08601261834303 159.15442374219916,362.10276557911914 167.7086928522965,356.548588310935 174.01183880349097,360.030341820516 179.41453493793324,368.900063665749 182.79121967618727,380.5871960020342 183.09136961509182,392.52181132391024 326.1463947785324,392.6027518841953 326.1463947785324,436.21758850837256 426.58241452129545,436.21758850837256 433.3533820232711,489.77978926241536 457.717167760106,551.6562558435697 494.64497126402927,605.6978491382913 494.35907880684766,686.17672038163 510.2094646541731,789.9729718519397 582.4616702984133,795.5053168885466 639.9737456486179,815.0150907229591 700.9641821306246,916.0276914694587 714.115244284475,928.1047991768453 730.5540725986835,958.5673254017439 707.5397136221932,981.8478244053952 684.7166138295952,997.2761761846948 647.0009590121833,961.5673815181407 625.4023020955458,980.0323641511575 655.2275808278519,1020.4003576811676 633.6841074435176,1039.9380600772267 619.2465271591294,1083.6642402462533 601.6641273575748,1117.906826044927 535.5276233285349,1088.530463242061 536.6078234763753,1169.7963038779787 433.41423996965085,1169.7963038779787 433.341252890513,1538.921783035319 425.6123957868833,1549.5532933777345 427.71344443732005,1556.120569148766 428.08589403388646,1557.4651420266407 365.56368649317744,1607.4577755936034 317.62901530926734,1623.6874109348792 265.45360236185854,1624Z" name="Ar Rayyān" name_en="Al Rayyan Municipality" gn_name="Baladiyat ar Rayyan" admin="Qatar" adm0_a3="QAT" iso_3166_2="QA-RA" iso_a2="QA" postal="RA" type="Baladiyah" type_en="Municipality" wikidataid="Q311272"/><path d="M793.0707701827808,938.918041703275 796.2973804126382,956.9018923190379 798.0982791241163,1040.5991689574073 788.118299417805,1144.8314714971182 792.9957329285786,1156.855745486705 784.9667264422039,1165.5026127644448 770.7846485129696,1226.5898177217114 758.9287319189363,1245.848231276146 726.9627804817259,1281.7645416436308 717.2079125380675,1306.4843591259194 709.854242261647,1310.3502384011656 701.4500485821114,1313.1056323058615 695.3720153156193,1316.9301820084622 690.8697689979447,1325.7303082692356 666.8577858708575,1417.559706176494 665.5821488609369,1422.6547793340217 660.7047153501554,1433.501657956537 649.8993230812864,1441.5951118238415 644.8718141399509,1460.7790111801842 638.6437063650543,1503.0799295395625 626.4876398320623,1518.4771784909126 589.1940285925549,1540.6869222036619 581.3901347908362,1548.1577023176815 576.4376631037569,1571.5523050838356 564.806859194418,1587.2283381665027 552.1255300377652,1599.8662192754741 543.6462991040352,1613.8976925251652 532.9159440893606,1598.8814947539897 536.3676670038585,1584.6841938741202 544.6217852529479,1568.7205605510876 549.4241824315687,1548.1577023176815 542.2956248399123,1536.9513647081421 525.7123492434401,1534.9398641311968 493.2961724368252,1538.1418293868212 491.8704609185001,1520.4889449311813 486.01754033670255,1519.9962706672093 476.6378595861586,1526.8524821157514 464.33171854470817,1531.2862392873835 448.12363014139686,1533.0514867889974 433.341252890513,1538.921783035319 433.41423996965085,1169.7963038779787 536.6078234763753,1169.7963038779787 535.5276233285349,1088.530463242061 601.6641273575748,1117.906826044927 619.2465271591294,1083.6642402462533 633.6841074435176,1039.9380600772267 655.2275808278519,1020.4003576811676 669.0395003596597,1007.8727319033769 684.7166138295952,997.2761761846948 707.5397136221932,981.8478244053952 730.5540725986835,958.5673254017439 758.7621499380725,933.1605863431865 786.7796323059712,938.1637750250947 793.0707701827808,938.918041703275Z" name="Al Wakrah" name_en="Al Wakrah" gn_name="Baladiyat al Wakrah" admin="Qatar" adm0_a3="QAT" iso_3166_2="QA-WA" iso_a2="QA" postal="WA" type="Baladiyah" type_en="Municipality" wikidataid="Q310893"/><path d="M705.12688325927,791.5236057443959 701.6751612668138,844.913338600725 702.8007228462343,867.2037274100868 707.9783062959666,878.5537441713423 719.459035696901,883.5061461495719 773.6360715496739,892.0485670573921 782.0402661513051,901.0442835575506 789.8441599529775,921.0965637825086 793.0707701827808,938.918041703275 786.7796323059712,938.1637750250947 758.7621499380725,933.1605863431865 730.5540725986835,958.5673254017439 714.115244284475,928.1047991768453 700.9641821306246,916.0276914694587 639.9737456486179,815.0150907229591 705.12688325927,791.5236057443959Z" name="Ad Dawhah" name_en="Doha" gn_name="Baladiyat ad Dawhah" admin="Qatar" adm0_a3="QAT" iso_3166_2="QA-DA" iso_a2="QA" postal="DA" type="Baladiyah" type_en="Municipality" wikidataid="Q3861"/><path d="M684.7166138295952,997.2761761846948 669.0395003596597,1007.8727319033769 655.2275808278519,1020.4003576811676 625.4023020955458,980.0323641511575 647.0009590121833,961.5673815181407 684.7166138295952,997.2761761846948Z" name="Ad Dawhah" name_en="Doha" gn_name="Baladiyat ad Dawhah" admin="Qatar" adm0_a3="QAT" iso_3166_2="QA-DA" iso_a2="QA" postal="DA" type="Baladiyah" type_en="Municipality" wikidataid="Q3861"/><path d="M723.7361699053644,548.1430297762238 707.9783062959666,551.8675137021992 695.3720153156193,558.6954354216986 689.0688702864664,554.7228734858015 682.6906870810158,552.3641036802114 684.7917357314525,605.6527636155764 682.8407615894665,621.0805574705035 682.6906870810158,622.44538736005 677.5881408855321,631.3784401169761 669.9343206701607,640.9724646072602 664.7567372204747,650.8138156593035 666.932823125052,660.2409126709911 700.7747114500538,718.9782971396312 706.2524448386906,733.3172919859161 707.9783062959666,747.4893263332519 705.12688325927,791.5236057443959 639.9737456486179,815.0150907229591 606.2034953025274,747.6971294430389 603.80364517897,676.3231383030732 599.0103557013337,620.8372133107957 603.80364517897,559.9194424659848 647.0009590121833,512.2672770150019 699.7976758272702,533.4483505169711 723.7361699053644,548.1430297762238Z" name="Al Daayen" name_en="Al Daayen" gn_name="Baladiyat az Za`ayin" admin="Qatar" adm0_a3="QAT" iso_3166_2="QA-ZA" iso_a2="QA" postal="DA" type="Baladiyah" type_en="Municipality" wikidataid="Q310786"/><path d="M613.656236166951,212.3395600037579 620.8598310128715,213.58456161616093 660.7047153501554,210.3475300761604 683.2159487825655,212.5470606686848 701.6751612668138,218.43994353626806 717.8082114938272,227.40320514050822 733.1158510024203,238.85527655724493 745.4219920438707,251.4263904720057 755.4770099264799,267.1073029397497 762.0803048945373,284.98434179123024 777.9882433588901,396.0025165777893 777.7631315962911,409.8828919182432 775.061783067999,421.69030163735647 767.6330764594796,426.66149334991263 762.2303803250375,423.3059616981304 757.0527959532018,408.5985071619616 749.0237894668271,405.1596016650271 741.7451573667121,409.4271441330274 735.216899652857,419.4531973751073 731.7651767382973,431.13539056466 733.1158510024203,440.57973322795385 741.3699701735591,448.1595225592461 749.3239394057316,447.165479660953 755.4770099264799,441.20104593802444 758.85369466468,433.62081608233524 773.7111097259718,457.0641274112944 761.4800059387236,480.70988720861743 743.0207934545294,487.8730937108617 739.4189960315731,461.45406075174174 726.8877432275237,465.18123605271217 695.3720153156193,482.24193859620857 708.8037179364363,487.7902847313025 722.8357204351009,496.4021348075909 734.0913380734364,506.66930181737786 739.4189960315731,517.0183794309621 736.2674239780214,539.2037953043434 723.7361699053644,548.1430297762238 699.7976758272702,533.4483505169711 647.0009590121833,512.2672770150019 603.80364517897,559.9194424659848 599.0103557013337,620.8372133107957 508.0819267043325,620.5635711813824 494.64497126402927,605.6978491382913 457.717167760106,551.6562558435697 433.3533820232711,489.77978926241536 426.58241452129545,436.21758850837256 326.1463947785324,436.21758850837256 326.1463947785324,392.6027518841953 183.09136961509182,392.52181132391024 196.14788504280205,383.7781647287749 204.7021541528377,369.89475828652684 207.40350175903413,353.3154409178525 204.15304218011232,341.783925492382 204.32096410964232,341.7220210186829 325.420955386633,342.6837693161168 325.420955386633,236.5716482035945 455.0128968862884,236.5716482035945 454.99908524785064,266.09787154483945 503.728141041459,266.09787154483945 503.8716557065969,298.57482862454737 548.3964424620522,298.64344713632914 548.5833888258574,337.72069850053055 613.9575129689432,337.1152232640203 613.5286738685082,216.40630860514804 613.656236166951,212.3395600037579Z" name="Al Khawr" name_en="Al Khor" gn_name="Baladiyat al Khawr wa adh Dhakhirah" admin="Qatar" adm0_a3="QAT" iso_3166_2="QA-KH" iso_a2="QA" postal="KH" type="Baladiyah" type_en="Municipality" wikidataid="Q1156471"/><path d="M204.15304218011232,341.783925492382 202.60110550245497,336.277793524757 196.2979595512065,343.2423817321634 182.941294184584,328.69090499958185 184.59211838766544,306.96402865091744 208.6791387689548,248.68824120761406 212.5060479545101,228.8970154969557 215.05732105230211,182.4971120080782 222.7111412676272,188.22545117548512 225.56256430432376,191.17253326073512 228.2639119104662,197.10798240336004 233.96675798385925,197.10798240336004 254.82716813534532,135.99600225681263 273.2863796974438,109.3326712518169 299.62452323755895,98.24194824255831 313.58148848209083,95.12638915419365 352.3758484941102,79.67200365867079 360.4048549805389,73.85531358995163 365.3573266676182,58.23193036957156 386.89307395110785,36.28922267939311 391.9956201466456,20.951841358760547 408.8040075057166,27.145224062273094 427.71344443732005,21.20124498434306 461.2551828233556,0 534.566768292388,39.78038098854536 549.4241824315687,56.4035276807839 550.9249312041424,76.05738025136203 548.9739579842135,101.52358132393678 549.7243323705273,123.66184307969156 559.4041630599835,133.13060527035984 576.8878875511122,140.10710394271175 582.2905836855467,157.1728761560225 583.1910335023143,178.17991958078676 587.7683170741834,197.10798240336004 602.1004695118144,210.30602920365558 613.656236166951,212.3395600037579 613.5286738685082,216.40630860514804 613.9575129689432,337.1152232640203 548.5833888258574,337.72069850053055 548.3964424620522,298.64344713632914 503.8716557065969,298.57482862454737 503.728141041459,266.09787154483945 454.99908524785064,266.09787154483945 455.0128968862884,236.5716482035945 325.420955386633,236.5716482035945 325.420955386633,342.6837693161168 204.32096410964232,341.7220210186829 204.15304218011232,341.783925492382Z" name="Madinat ach Shamal" name_en="Madinat ash Shamal" gn_name="Baladiyat ash Shamal" admin="Qatar" adm0_a3="QAT" iso_3166_2="QA-MS" iso_a2="QA" postal="MS" type="Baladiyah" type_en="Municipality" wikidataid="Q310872"/><path d="M494.64497126402927,605.6978491382913 508.0819267043325,620.5635711813824 599.0103557013337,620.8372133107957 603.80364517897,676.3231383030732 606.2034953025274,747.6971294430389 639.9737456486179,815.0150907229591 582.4616702984133,795.5053168885466 510.2094646541731,789.9729718519397 494.35907880684766,686.17672038163 494.64497126402927,605.6978491382913Z" name="Umm Salal" name_en="Umm Salal Municipality" gn_name="Baladiyat Umm Salal" admin="Qatar" adm0_a3="QAT" iso_3166_2="QA-US" iso_a2="QA" postal="US" type="Baladiyah" type_en="Municipality" wikidataid="Q990414"/></svg>