<?xml version="1.0"?><svg fill="#3498db" stroke="#ecf0f1" stroke-width="1" width="800" height="696" viewBox="0 0 800 696" xmlns="http://www.w3.org/2000/svg"><path d="M613.752735981697,491.1196820147263 601.2928182617584,488.1646848988155 599.3790403267219,487.19318274686566 593.0472846213764,489.055230698223 589.1993687912297,492.61742677655053 587.5677420489612,494.74816843099995 585.758640342497,497.1106845054524 580.6891635498474,501.76590035212155 575.0292668269608,504.64001004309944 567.618465939707,507.02836646912385 560.0855092319107,508.5666355934294 553.7333947485204,508.8500014071355 548.8471520805222,507.75701986122994 536.5501097071884,501.80638071948965 531.9692573783091,501.3610972361392 530.5644630791248,503.99232231148704 530.360869782347,507.6760586291488 529.5464958073741,510.4287567564979 511.75243048182153,532.6127866480105 505.0338473550468,537.2278295681728 496.2386117346437,537.5112111098082 487.1990636853468,534.0296814247367 478.9738892170286,528.605018834578 472.4996185191675,522.978002648095 460.2840128341483,508.6071168624563 455.47920803645206,504.92337418393805 450.9797935778484,503.34463457254765 447.1929556579055,503.22319352608463 443.8743826356947,503.5470370300398 440.8204816084143,503.1017525068942 433.8809839719593,497.16901125233244 433.1960094714525,496.58341405657563 434.12639332744055,495.5177367256026 434.652098108631,494.39627930544214 435.10364174231114,493.4330285205569 436.0401715027528,485.92409699234304 437.4469525964195,478.58199335806626 437.5874817882511,477.84856710595164 437.7988635575608,477.2364726215215 442.49408301269426,463.6407770863367 444.672532973272,444.4142776282848 444.02103343949875,431.42157492243746 448.2557766887444,423.2861036772272 454.11926753232297,416.9113727871313 456.7252631872372,412.1556651097619 456.76598219597855,407.64283707072684 456.7863417003599,400.5397546186824 457.254606403413,396.75552455921854 459.04622861545994,395.2377922730054 462.8330663117,393.5784091788391 465.27618734889865,392.24281120167905 467.3324809918789,390.0977659054233 470.16242977760834,389.32878949899373 471.5875833911951,391.00839756332965 473.4199242576726,393.41651813628204 476.79957470099885,393.7807726018051 479.22233694244096,393.4772273162516 480.321741320618,393.1332095307406 481.64509847527967,392.8094280749621 483.98642305357134,392.36422863153035 486.57205955841664,391.7976121682058 488.852305977898,391.089342586403 492.3948313932539,390.3406006479345 495.57088856446205,390.0572934576357 496.71101195135896,390.0168210124906 498.0547286104004,389.77398604522114 499.011617520911,388.31697930336924 501.3733012492518,386.3136005053916 504.12181272612185,384.31022818171493 506.3816996412235,383.1365388825852 510.59608338611247,381.315300385226 515.3805290016028,379.6357185507502 520.2056932715022,380.9915247554907 524.3589988575776,386.41478154562094 527.026072671279,390.48225482013237 530.0188957204133,394.20573653536053 532.5841730752094,397.74711234286116 535.2512472432215,393.9831360914607 538.3662266099286,386.9004485851525 540.9722222648428,372.77578641393217 542.153064660481,358.6514402739801 542.3973762327206,354.1187652790685 544.5351071845586,351.69055956599095 550.2153639060633,349.3028327929646 555.5902301878934,346.75323568945504 557.4429302044416,343.45496260139083 557.5854456720865,335.76580107198583 556.7710718749069,329.35148993287044 554.4501071553074,327.0245463363381 552.0069857637978,324.05011850622896 552.271657549042,318.6476187824557 550.7650659179957,313.0023559625304 548.0776329542236,309.19840609206324 547.5686492424309,307.1143360843675 549.1363186779735,305.9812522862096 551.925548809274,303.0473824289043 555.3051992526035,300.7407631202419 557.544727017656,299.4053552060733 557.4225710543693,293.4365181013256 554.3686694921388,281.41806427981686 550.2968012149195,267.9835335150828 548.8920063970893,259.7691691497031 550.3985980281603,255.41923488763788 551.7219551828186,250.92770193914686 549.4009901089067,245.66738224396082 543.7818115461909,239.6180597717511 536.126698844876,230.1698837473221 528.9805695010432,220.94436731137316 523.8500155000957,215.5628663563098 519.9613809906181,208.60338593273414 516.9278389327656,200.63242819398744 515.2787325426744,191.87255747515894 517.355385335727,185.29765856772224 520.4907238525045,182.5058710774962 520.6535984701953,180.705375202914 518.4955083683114,179.55225080878418 514.6475925132842,179.55225080878418 509.94458420665,181.19090136981674 506.3816996412235,182.26310687112718 506.0966687059352,178.66212111340792 505.099061140994,172.63353810649505 503.42959489223375,168.9516729924712 500.02958494452287,161.58799011456307 496.5888559880723,155.21562384181544 492.1912381211111,148.62077883688133 487.2235583835667,140.3671778612652 484.6582813830813,138.32401908347344 482.479831776816,135.370549920682 481.2379115767014,131.38540428712182 479.0187433160055,129.64570192896008 477.878620283421,129.34226581945205 476.2196101505761,128.48754249629226 487.85056270773043,122.29656974065925 503.93444300100873,116.06608371420734 508.20990499074765,112.1012504625776 510.2458391402517,106.15403201182822 512.6482415391246,90.98272341041724 515.457830925483,85.6424789379474 518.5524510848546,83.82194757950582 521.6877895884429,83.29601702255255 524.8231284859808,83.05327957468795 527.7345141267332,82.20370014637507 533.8219577971361,78.60310933958897 551.3513515217328,62.05673853017852 556.5022653966911,55.50299239854011 560.7370082543157,48.42337374762311 561.4903043190849,45.83426801110043 562.3657558103085,40.211074750860355 563.5058789025096,37.8647151172947 564.850842623691,36.76428653004606 566.2747495507248,35.59926930573895 572.871176463009,32.64610568898844 575.2735788618818,30.663849310078106 577.3095130113859,24.717102428810648 579.8544307967669,8.535633831444086 583.173003818976,2.9530796523116383 589.1993687912297,0.8090624815351438 595.7143586212036,1.7799375561265438 602.4329413539577,3.7216908615303077 609.070087004451,4.571208783948879 615.2593273232224,3.033986154363077 620.4306003702643,0.7281561304574146 625.7851071480492,0 631.7793022733629,1.8527686564438148 636.0961984867473,3.187096595194464 632.9719551725149,6.432059920845083 629.9384133173164,10.720118934696742 628.6964935767487,15.12955470400553 629.9994912275646,19.33673858583479 635.7408254267343,23.26076059279831 637.0438234715247,28.600688936971856 636.209090718441,30.90657467887442 634.7228585489563,33.13155656203289 633.66417293304,35.477906101056504 634.3156715614476,37.82426063097115 637.7767599702112,40.13016599762509 640.912098473778,39.64471164690765 643.4773758252368,38.26925967151735 645.1061233812081,37.82426063097115 649.9516465230946,41.303347616995225 651.6211128172075,43.73062405716834 653.1684228969386,53.8443345033314 655.5708252957654,59.54850969748821 662.7373137541715,71.36151050049176 665.0582786767595,79.33131744992306 668.7229603822333,84.06468482314664 669.5169747911714,87.26073157662911 669.130147369719,88.47442298809518 668.234336312416,90.17359331609764 667.2978065169714,92.47961533444528 666.8906195294858,95.39249256571206 669.007991155319,101.66329978951347 674.0978267260779,105.46626111989183 685.7026521267891,110.2402120023041 689.8559579021264,113.15314354393917 695.7601670538854,118.73628690196036 699.3841300212391,120.92100404747474 725.4033694211404,130.5095476279756 733.139919425647,131.60191954116053 740.7950323478218,136.21417136082013 743.0345601880781,146.4502189243977 742.3016240833628,156.64592545602332 741.0800631208828,161.25830820293788 738.9830510611305,163.52404885733156 741.3243755497535,168.62198722288977 747.8393649857991,177.28046159058928 752.7256072597801,182.45940468315138 754.4765106362462,185.45349539660748 758.3040669003349,199.53396192559524 762.0909044263051,208.35460881928427 768.2597855730372,213.1695901332761 777.6250831335581,209.6089285456633 780.4957500361228,217.90367586643765 780.1700005249417,227.97887673501458 775.0801653481573,258.8527092576256 774.9580087397582,263.0610365043359 775.8538201910357,265.08427982743956 779.3556269439217,270.4256683256622 780.3328754775096,274.0270813095216 775.8131014528495,284.7909625022349 777.19753657997,288.91850889684264 780.3328754775096,304.6195939354536 778.1747851135577,311.2562419541626 774.1639947247946,317.12406342241553 771.9448264505962,323.1538089130929 774.9580087397582,330.1548564748691 768.5651755181603,335.13252392157494 766.1627731193321,337.6820758584092 764.2082764461127,340.8386771915473 776.0166951436249,342.7002698869724 777.19753657997,353.0605342311673 772.0059043608445,375.8456092048026 779.3759861160054,374.2672209121208 786.4813970581607,377.7882465459213 792.4874028583308,383.7780840058129 796.7017865438686,389.4441991581626 800,400.8170590441786 786.4406783200405,444.4082696250915 783.0203086494187,461.65137347961206 784.6897745496017,488.4480404732083 783.0203086494187,496.4225254004964 778.9484403504089,503.7494391716121 773.81788604153,507.43317383098895 767.2010995631235,510.34779473041266 761.1136562866933,513.8291685841141 755.6166337284473,515.1650503041781 752.7663259979447,516.7843057696494 749.1830813747351,517.7558614090541 745.9663053949082,516.9867129015888 725.4033694211404,506.906924594051 721.1686261695414,505.57106303213294 716.0787905987826,506.25923375022313 711.5590169680969,509.78106167287046 705.9398381954031,520.3062029591757 701.5218608191132,523.9900516627071 693.2763271787311,524.4353535759972 684.7254031992302,522.0064374605469 676.3373545663111,520.9539108102639 668.7229603822333,525.4069232227783 655.7744189864962,524.9211383719718 642.6630022442151,518.8083817247658 621.2653331233926,501.3610972361392 619.0054461110279,498.2846047553427 616.9695119615238,492.7793451522579 615.0964523706331,490.63392811110276 613.752735981697,491.1196820147263Z" name="Eastern" name_en="Eastern Province" gn_name="Eastern Province" admin="Rwanda" adm0_a3="RWA" iso_3166_2="RW-02" iso_a2="RW" postal="E" type="Province" type_en="Province" wikidataid="Q853152"/><path d="M433.1960094714525,496.58341405657563 430.4982950804065,494.27709406443523 427.34259701076525,492.4959877324649 423.31144705592266,492.61742677655053 422.17132396372165,494.8033310479075 422.2120427018401,498.4465248129552 419.64676535040275,518.4845290078488 422.47671430284055,548.6036808567692 413.9461494954216,578.1982712532324 412.2933759406763,618.3704278612386 412.1138090366253,622.735170355352 409.99643701686375,631.3596068803781 406.2503182290566,639.9032175231333 401.44551343133725,648.0015695456038 396.19280290799077,655.0877428847197 388.13050339225697,663.2268519966856 380.7197028989314,667.5596704975462 372.7592000316335,669.057943894889 362.9663563115418,668.7744867290427 354.1711202971429,666.1423886969022 349.6513462724846,666.1828824467365 346.7196010656528,669.8273298579484 345.41660302086416,678.0476897285134 343.7064183825626,681.6922319151442 339.8788621184723,684.0004573605528 331.06326693196837,685.0938311522752 323.6321064785891,683.9599620277144 307.2437400241467,678.5808608379757 303.0284521606524,677.1973008383019 300.21886277433845,677.0353223503098 288.49188155313414,681.2467865082803 285.56013634630233,683.0285715481009 282.4247978427141,684.243428650322 278.3529291497547,684.0814476453753 269.720568087922,685.2153170747898 262.35048593878673,689.8723112538883 254.85824836312779,692.383058581846 245.6965440994079,687.2400914440481 231.43774050500113,684.5993775391796 223.83061008085141,683.1905521759269 216.76591866476167,684.0004573605528 199.76586774812398,691.3301626932741 190.07482067642042,692.2210742573776 186.59337309561948,684.7698681989203 186.12510819786092,679.8699571629365 182.46042649238714,671.730552909307 181.56461543506106,667.1952261769698 182.90833221801432,663.1053719300811 188.36463603812052,656.4644974507024 189.21972796328456,652.0103054035185 186.8173255644595,647.1512360728871 178.26640197893133,639.174372910755 178.1742695942535,638.8130619357951 185.62026005251408,634.9085647255424 187.59511638663494,634.3214464573098 191.19871960648865,632.4386216661335 196.75682036470837,622.5792211104607 198.05981836932085,608.4484417889682 193.4586068759242,601.7273563116262 191.48375089609272,598.7919713793117 190.95440767991693,596.0387987681173 191.4226727373055,592.4151610517814 192.1759683756733,588.5891145391624 190.54722113565106,586.139651243461 188.5927239515761,582.2934097174542 185.62026005251408,578.3864690445622 183.25857632417325,573.5078964464576 182.40348387256793,567.5565067722272 179.14598939252346,563.204344410014 173.85256006521564,560.7954894612975 166.52319659933036,558.5080998545266 161.75911084253383,555.9373289252073 161.392642598363,553.3058443708945 163.18426481040996,548.1643675654519 166.60463426250223,543.1848757739729 174.91124614327785,538.7721956467476 182.99390489323991,534.3595529035299 184.60229298321462,530.7970792374248 183.42145129620124,526.3845036197142 182.26096875923207,522.7006383106009 185.57954139808353,517.4177775900962 189.52925371204083,511.20390458630146 189.85500330175805,507.601105622784 187.16756998367688,502.13623223153337 184.5615739744733,495.6998961107856 185.62026005251408,490.3970601024095 189.61069137518632,485.66098266775543 195.5759786776933,482.62505678990743 201.41910966260122,481.7345217128742 205.85744653830207,483.07032486573746 210.86584457596297,480.82374887513674 218.19520804187133,475.3389031593258 226.15571082854507,474.04359682451934 232.97609058265738,473.881683875972 237.63837988052882,473.67929240402657 240.0407822633002,474.0233578794887 245.7821167893028,468.0933224888565 255.574960442454,460.4835389095775 260.82767111533457,457.56918096467854 265.1234921690566,453.80482393794443 270.1522497110989,450.6881172063664 272.43249613058356,448.3000025854292 274.06124301631314,445.9928503560599 276.17861517239305,446.7416618660276 278.6624545097082,447.6928561250626 281.55348145422647,446.5595183886904 284.7702576341726,445.62856393181534 287.4780501023029,444.11070653918233 291.69243384716714,441.5809528342099 294.9092100271133,439.88096538000053 294.7666945594683,434.51794044016964 293.3008219371402,429.11448961523763 292.14033940019743,426.6859886289035 292.56788580313406,422.6992210615593 296.17148937729854,416.1221248009347 298.41101714235106,410.6986048488008 298.4313762924233,407.78449490734346 299.8768897646808,405.31560724468466 300.85413817955134,403.41335635257803 302.78827515062176,400.6611740463362 305.51642747744256,396.492451022141 306.1475671525253,392.8499007035854 306.4733167422689,389.4502067070402 306.9212222952728,386.1719479924774 305.7607397583284,383.5412589589358 304.3763044448581,379.1500568271233 304.7631318390781,370.8736355913371 303.35833737556027,362.25332118811355 301.5870743135592,358.30744156287307 305.597864786302,358.30744156287307 311.5224334343801,358.5704997777761 316.08292627334623,357.1338001837996 319.6865298475124,353.9164142492666 320.6027001035925,349.80870653116494 318.8517969002654,346.61159199197846 317.345204914905,342.2408786725249 317.24340881031213,337.8904288651486 318.7703592371166,334.8552481918646 320.80629373002796,329.8371138412571 319.7068889975583,319.436745196371 317.8338298309643,309.8054175023108 317.95598579424933,305.070739203776 319.25898379886183,300.53842858281917 320.3380286726394,289.63267555373227 319.0146715179777,276.4812496093366 317.50808059555624,269.3795802161643 316.3679568543485,265.41400561510955 315.34998978502597,263.9977342739395 317.6913140090069,263.2895996318201 322.1907290434966,262.66239552666553 326.5883469104578,263.47169137176667 333.06261792476084,267.74074327245785 340.45305919514067,270.43167493161343 345.3800199239685,269.5212083433078 348.4135619818177,270.00679045190816 349.8183564453586,273.6284339648214 353.86986557250725,279.9005970863046 359.12257589107537,287.67006221528163 363.76450603889924,294.7921476970904 369.2615286383301,299.97189183951815 371.2363846181385,305.59681292255505 378.7082635516919,310.3314951969653 389.47835561973676,313.97358058504324 397.0723898079536,313.8926452056994 404.89037783560553,312.4762765653293 411.7718353941959,312.6381469975645 416.5359215053048,314.0545159740231 419.24371397343515,315.99696960469913 422.3790528445252,317.6156854391143 425.2904389390893,319.5783834493681 427.7742786307169,321.905300548873 430.991054810663,325.10229569482533 434.77789250688,329.1491465366005 438.6054488575489,331.7391442520157 441.7407873743265,332.3461762809047 442.7791139480073,333.03414653690277 442.5755206758645,333.54000774318934 443.36953496865783,334.8552481918646 444.5503766556729,338.19394762907234 445.6090623794243,341.1684394795992 446.4234361765793,342.4634606047825 447.5635595634762,344.00130131468075 448.74440125049125,346.4294783093666 449.9252432918171,349.38377248007936 451.06536632442464,352.216670001223 450.39350799489324,353.93664949024054 450.27135238591893,354.66511295363995 450.21027387281936,356.16251226451186 449.9252432918171,358.6514402739801 449.1719476534493,361.1201431680504 447.8282309944095,363.1436769070209 451.5539905318591,368.97149049279665 454.11926753232297,375.00171463669085 452.32764567458844,377.99661288892656 450.9432103611379,379.4940672050665 447.7467933312393,380.76892976779743 444.85576674103345,383.682911223956 444.10247110266897,387.4670605538429 446.5048734854371,392.22257473092446 449.88452428307573,394.3069181658104 451.5947091862896,394.549754569504 453.83423695134377,395.2782647095248 456.31807664297133,396.04724925909596 457.254606403413,396.75552455921854 456.7863417003599,400.5397546186824 456.76598219597855,407.64283707072684 456.7252631872372,412.1556651097619 454.11926753232297,416.9113727871313 448.2557766887444,423.2861036772272 444.02103343949875,431.42157492243746 444.672532973272,444.4142776282848 442.49408301269426,463.6407770863367 437.7988635575608,477.2364726215215 437.5874817882511,477.84856710595164 437.4469525964195,478.58199335806626 436.0401715027528,485.92409699234304 435.10364174231114,493.4330285205569 434.652098108631,494.39627930544214 434.12639332744055,495.5177367256026 433.1960094714525,496.58341405657563Z" name="Southern" name_en="Southern Province" gn_name="Southern Province" admin="Rwanda" adm0_a3="RWA" iso_3166_2="RW-05" iso_a2="RW" postal="S" type="Province" type_en="Province" wikidataid="Q853162"/><path d="M178.1742695942535,638.8130619357951 176.82088894158576,633.5056178082103 177.3298721834637,628.889682149352 177.0448414104027,627.0676144952706 172.2400366127032,623.5044801890183 165.03282981012993,619.4150061703192 156.70585829949047,617.431016748207 140.07227563217378,615.3660571332766 131.27703961777655,612.6937686584117 107.35481267160185,602.3286694915943 100.94161988395923,601.3974408607805 78.0169998555088,602.8955051116019 69.0792488485645,611.6005642816842 62.299587811586065,650.7955336198474 56.29358161745304,644.1143431438452 48.210922929660335,640.1461659778931 36.44322297030293,638.8909331866536 31.190512446943274,636.8258802231003 16.491067280795264,627.2700663739154 13.437165859543763,624.1523208847542 16.083880687284026,594.2310888221228 13.437165859543763,585.1214695890809 9.385656732617605,581.0323173604843 4.967679750298686,578.9270242631502 1.4658726034051857,576.5383370859296 0,571.5180825502746 1.4251538652504516,566.3764219587765 8.265893206451477,560.3036617036437 6.881457685378084,555.5264746430428 2.891026468655637,548.4417454562517 1.4251538652504516,540.6688972638525 0.6311394563487185,532.2889254667498 3.583244229225294,522.0064374605469 9.120985131615502,517.2700831720962 19.70784365460637,513.6267622573979 27.93301772891885,511.23837651429994 34.75339750408333,507.23077030788164 40.352216710696126,501.56349895217403 44.91270947351909,494.47949314551505 47.88517341845782,488.6504370097786 49.22888980742682,484.44060170497306 49.697154705159,481.04037342487817 53.748663832052195,477.2758596158423 57.08759602635807,476.1019841559779 68.42774982618089,476.46628977138397 85.95714355077918,471.85176588642497 99.51646562472287,461.20612265553876 109.37038725503969,445.94636589075486 115.55962717984812,427.4085299192781 117.83987375826904,411.0568619503584 117.0254997832533,396.97211844069125 106.5607978687175,335.49674508104164 105.70570594351392,321.17086670154856 107.66020261673651,307.1690301969098 115.0710031100307,289.9301658805239 129.77789484155971,266.55496348020466 139.86868233539593,250.51705423881882 148.17529388602776,234.8576033610095 152.93937994558243,227.9384137660983 171.9550058396422,212.2794233348249 175.94543666239028,207.14075257089348 186.73588848214914,185.04888811249097 191.2963812449276,179.22256124332964 197.48562116972448,176.63309590916398 227.59708882870746,175.41928669920196 228.57433736229524,175.176525145702 229.44978885354195,174.61008166266956 230.26416243451902,173.76041676054402 231.59155949485543,171.68258915520553 233.30184017237954,174.1103344081939 240.34617234866076,183.6387690631764 249.8539854208328,194.72506869638255 258.34383106939623,197.6382813769821 265.79535049856656,199.98504433970155 269.0121266785144,199.90412143842366 271.6181223334269,198.87235427701083 273.1857917689711,199.82319784110913 275.2828040663803,200.47058226978712 281.6756374175115,203.44450860513106 288.9846413790368,207.04560391021528 296.9451445200477,206.60052343812183 304.68169453021864,207.14675826146262 306.3104417702409,219.0021673352862 306.86014413648564,235.04569463149494 306.69726951877004,246.39573181597513 306.2086453113356,254.9336624392237 311.11524653577874,260.80101787335485 315.34998978502597,263.9977342739395 316.3679568543485,265.41400561510955 317.50808059555624,269.3795802161643 319.0146715179777,276.4812496093366 320.3380286726394,289.63267555373227 319.25898379886183,300.53842858281917 317.95598579424933,305.070739203776 317.8338298309643,309.8054175023108 319.7068889975583,319.436745196371 320.80629373002796,329.8371138412571 318.7703592371166,334.8552481918646 317.24340881031213,337.8904288651486 317.345204914905,342.2408786725249 318.8517969002654,346.61159199197846 320.6027001035925,349.80870653116494 319.6865298475124,353.9164142492666 316.08292627334623,357.1338001837996 311.5224334343801,358.5704997777761 305.597864786302,358.30744156287307 301.5870743135592,358.30744156287307 303.35833737556027,362.25332118811355 304.7631318390781,370.8736355913371 304.3763044448581,379.1500568271233 305.7607397583284,383.5412589589358 306.9212222952728,386.1719479924774 306.4733167422689,389.4502067070402 306.1475671525253,392.8499007035854 305.51642747744256,396.492451022141 302.78827515062176,400.6611740463362 300.85413817955134,403.41335635257803 299.8768897646808,405.31560724468466 298.4313762924233,407.78449490734346 298.41101714235106,410.6986048488008 296.17148937729854,416.1221248009347 292.56788580313406,422.6992210615593 292.14033940019743,426.6859886289035 293.3008219371402,429.11448961523763 294.7666945594683,434.51794044016964 294.9092100271133,439.88096538000053 291.69243384716714,441.5809528342099 287.4780501023029,444.11070653918233 284.7702576341726,445.62856393181534 281.55348145422647,446.5595183886904 278.6624545097082,447.6928561250626 276.17861517239305,446.7416618660276 274.06124301631314,445.9928503560599 272.43249613058356,448.3000025854292 270.1522497110989,450.6881172063664 265.1234921690566,453.80482393794443 260.82767111533457,457.56918096467854 255.574960442454,460.4835389095775 245.7821167893028,468.0933224888565 240.0407822633002,474.0233578794887 237.63837988052882,473.67929240402657 232.97609058265738,473.881683875972 226.15571082854507,474.04359682451934 218.19520804187133,475.3389031593258 210.86584457596297,480.82374887513674 205.85744653830207,483.07032486573746 201.41910966260122,481.7345217128742 195.5759786776933,482.62505678990743 189.61069137518632,485.66098266775543 185.62026005251408,490.3970601024095 184.5615739744733,495.6998961107856 187.16756998367688,502.13623223153337 189.85500330175805,507.601105622784 189.52925371204083,511.20390458630146 185.57954139808353,517.4177775900962 182.26096875923207,522.7006383106009 183.42145129620124,526.3845036197142 184.60229298321462,530.7970792374248 182.99390489323991,534.3595529035299 174.91124614327785,538.7721956467476 166.60463426250223,543.1848757739729 163.18426481040996,548.1643675654519 161.392642598363,553.3058443708945 161.75911084253383,555.9373289252073 166.52319659933036,558.5080998545266 173.85256006521564,560.7954894612975 179.14598939252346,563.204344410014 182.40348387256793,567.5565067722272 183.25857632417325,573.5078964464576 185.62026005251408,578.3864690445622 188.5927239515761,582.2934097174542 190.54722113565106,586.139651243461 192.1759683756733,588.5891145391624 191.4226727373055,592.4151610517814 190.95440767991693,596.0387987681173 191.48375089609272,598.7919713793117 193.4586068759242,601.7273563116262 198.05981836932085,608.4484417889682 196.75682036470837,622.5792211104607 191.19871960648865,632.4386216661335 187.59511638663494,634.3214464573098 185.62026005251408,634.9085647255424 178.1742695942535,638.8130619357951Z" name="Western" name_en="Western Province" gn_name="Western Province" admin="Rwanda" adm0_a3="RWA" iso_3166_2="RW-04" iso_a2="RW" postal="W" type="Province" type_en="Province" wikidataid="Q737354"/><path d="M417.69226867718015,163.038532612195 425.97852105574816,162.14841994736696 434.63124168361577,158.95211356151356 461.3834171882094,144.22498143341986 465.45528588119186,143.37534635921398 469.0385301104271,134.8385851131255 474.16908441930605,129.57900946484443 476.2196101505761,128.48754249629226 477.878620283421,129.34226581945205 479.0187433160055,129.64570192896008 481.2379115767014,131.38540428712182 482.479831776816,135.370549920682 484.6582813830813,138.32401908347344 487.2235583835667,140.3671778612652 492.1912381211111,148.62077883688133 496.5888559880723,155.21562384181544 500.02958494452287,161.58799011456307 503.42959489223375,168.9516729924712 505.099061140994,172.63353810649505 506.0966687059352,178.66212111340792 506.3816996412235,182.26310687112718 509.94458420665,181.19090136981674 514.6475925132842,179.55225080878418 518.4955083683114,179.55225080878418 520.6535984701953,180.705375202914 520.4907238525045,182.5058710774962 517.355385335727,185.29765856772224 515.2787325426744,191.87255747515894 516.9278389327656,200.63242819398744 519.9613809906181,208.60338593273414 523.8500155000957,215.5628663563098 528.9805695010432,220.94436731137316 536.126698844876,230.1698837473221 543.7818115461909,239.6180597717511 549.4009901089067,245.66738224396082 551.7219551828186,250.92770193914686 550.3985980281603,255.41923488763788 548.8920063970893,259.7691691497031 550.2968012149195,267.9835335150828 554.3686694921388,281.41806427981686 557.4225710543693,293.4365181013256 557.544727017656,299.4053552060733 555.3051992526035,300.7407631202419 551.925548809274,303.0473824289043 549.1363186779735,305.9812522862096 547.5686492424309,307.1143360843675 544.6776226522251,306.6894291774224 538.2237111422836,304.56489998255006 525.9266682931218,295.8847465902884 512.9374079644041,287.30586688484635 506.4224182956524,283.5020577134024 503.3481575833743,282.1262166941933 501.35294209918123,287.2451678573897 498.62479012669263,293.90188341526544 496.4667000247856,296.6536140628123 492.72058098299755,296.08707977564535 483.07025244317884,297.78668260846047 475.0893905064329,301.3477674386894 472.8905813957845,304.22092922804444 468.61511949211007,309.11747127795513 463.4438464824211,312.1525354638496 458.5983230624527,308.91513358022735 453.3456127439093,305.51587888445454 449.5587750476693,306.8108313252644 446.5659516442243,311.54552162016284 443.32881631423226,316.887262765513 441.5779127566109,320.8531283575826 443.7360032128287,326.80196994198707 445.2833131439948,331.4963313843004 443.81744087600055,332.6294582718771 442.7791139480073,333.03414653690277 441.7407873743265,332.3461762809047 438.6054488575489,331.7391442520157 434.77789250688,329.1491465366005 430.991054810663,325.10229569482533 427.7742786307169,321.905300548873 425.2904389390893,319.5783834493681 422.3790528445252,317.6156854391143 419.24371397343515,315.99696960469913 416.5359215053048,314.0545159740231 411.7718353941959,312.6381469975645 404.89037783560553,312.4762765653293 397.0723898079536,313.8926452056994 389.47835561973676,313.97358058504324 378.7082635516919,310.3314951969653 371.2363846181385,305.59681292255505 369.2615286383301,299.97189183951815 363.76450603889924,294.7921476970904 359.12257589107537,287.67006221528163 353.86986557250725,279.9005970863046 349.8183564453586,273.6284339648214 348.4135619818177,270.00679045190816 345.3800199239685,269.5212083433078 340.45305919514067,270.43167493161343 333.06261792476084,267.74074327245785 326.5883469104578,263.47169137176667 322.1907290434966,262.66239552666553 317.6913140090069,263.2895996318201 315.34998978502597,263.9977342739395 311.11524653577874,260.80101787335485 306.2086453113356,254.9336624392237 306.69726951877004,246.39573181597513 306.86014413648564,235.04569463149494 306.3104417702409,219.0021673352862 304.68169453021864,207.14675826146262 296.9451445200477,206.60052343812183 288.9846413790368,207.04560391021528 281.6756374175115,203.44450860513106 275.2828040663803,200.47058226978712 273.1857917689711,199.82319784110913 271.6181223334269,198.87235427701083 269.0121266785144,199.90412143842366 265.79535049856656,199.98504433970155 258.34383106939623,197.6382813769821 249.8539854208328,194.72506869638255 240.34617234866076,183.6387690631764 233.30184017237954,174.1103344081939 231.59155949485543,171.68258915520553 239.1815546633854,159.80176372933718 252.74087634336627,145.76241746382996 268.4582887812749,134.51491799617244 283.9313891842823,129.05305365087452 299.7709574426626,129.90267443071465 308.03685064912395,129.29580202885248 315.36621366612354,127.31335517496373 323.4895914860536,122.78206377271924 329.5770347624838,118.41262546671624 336.1734616748108,115.01418736983956 345.74235253206666,113.31497314232726 350.4250015092912,114.36686718963935 358.8130501422532,119.42406748307963 361.5412020523071,120.39505318281185 364.79869716426634,118.49354052140954 367.16038082497454,110.76615755472524 370.7232658821278,106.5586036558637 374.3675880215667,104.29300520668879 377.7879572981714,103.2815794036758 381.28674460888305,103.80102702524071 381.33048318319493,103.8075207192544 385.64666391112155,105.99220363719755 396.7221457159267,121.97290706372931 398.47304948636554,130.18588166369364 399.4095792818332,146.28838305431753 403.2371355459219,154.582499119506 409.99643701686375,160.85371211701445 417.69226867718015,163.038532612195Z" name="Northern" name_en="Northern Province" gn_name="Northern Province" admin="Rwanda" adm0_a3="RWA" iso_3166_2="RW-03" iso_a2="RW" postal="N" type="Province" type_en="Province" wikidataid="Q845807"/><path d="M457.254606403413,396.75552455921854 456.31807664297133,396.04724925909596 453.83423695134377,395.2782647095248 451.5947091862896,394.549754569504 449.88452428307573,394.3069181658104 446.5048734854371,392.22257473092446 444.10247110266897,387.4670605538429 444.85576674103345,383.682911223956 447.7467933312393,380.76892976779743 450.9432103611379,379.4940672050665 452.32764567458844,377.99661288892656 454.11926753232297,375.00171463669085 451.5539905318591,368.97149049279665 447.8282309944095,363.1436769070209 449.1719476534493,361.1201431680504 449.9252432918171,358.6514402739801 450.21027387281936,356.16251226451186 450.27135238591893,354.66511295363995 450.39350799489324,353.93664949024054 451.06536632442464,352.216670001223 449.9252432918171,349.38377248007936 448.74440125049125,346.4294783093666 447.5635595634762,344.00130131468075 446.4234361765793,342.4634606047825 445.6090623794243,341.1684394795992 444.5503766556729,338.19394762907234 443.36953496865783,334.8552481918646 442.5755206758645,333.54000774318934 442.7791139480073,333.03414653690277 443.81744087600055,332.6294582718771 445.2833131439948,331.4963313843004 443.7360032128287,326.80196994198707 441.5779127566109,320.8531283575826 443.32881631423226,316.887262765513 446.5659516442243,311.54552162016284 449.5587750476693,306.8108313252644 453.3456127439093,305.51587888445454 458.5983230624527,308.91513358022735 463.4438464824211,312.1525354638496 468.61511949211007,309.11747127795513 472.8905813957845,304.22092922804444 475.0893905064329,301.3477674386894 483.07025244317884,297.78668260846047 492.72058098299755,296.08707977564535 496.4667000247856,296.6536140628123 498.62479012669263,293.90188341526544 501.35294209918123,287.2451678573897 503.3481575833743,282.1262166941933 506.4224182956524,283.5020577134024 512.9374079644041,287.30586688484635 525.9266682931218,295.8847465902884 538.2237111422836,304.56489998255006 544.6776226522251,306.6894291774224 547.5686492424309,307.1143360843675 548.0776329542236,309.19840609206324 550.7650659179957,313.0023559625304 552.271657549042,318.6476187824557 552.0069857637978,324.05011850622896 554.4501071553074,327.0245463363381 556.7710718749069,329.35148993287044 557.5854456720865,335.76580107198583 557.4429302044416,343.45496260139083 555.5902301878934,346.75323568945504 550.2153639060633,349.3028327929646 544.5351071845586,351.69055956599095 542.3973762327206,354.1187652790685 542.153064660481,358.6514402739801 540.9722222648428,372.77578641393217 538.3662266099286,386.9004485851525 535.2512472432215,393.9831360914607 532.5841730752094,397.74711234286116 530.0188957204133,394.20573653536053 527.026072671279,390.48225482013237 524.3589988575776,386.41478154562094 520.2056932715022,380.9915247554907 515.3805290016028,379.6357185507502 510.59608338611247,381.315300385226 506.3816996412235,383.1365388825852 504.12181272612185,384.31022818171493 501.3733012492518,386.3136005053916 499.011617520911,388.31697930336924 498.0547286104004,389.77398604522114 496.71101195135896,390.0168210124906 495.57088856446205,390.0572934576357 492.3948313932539,390.3406006479345 488.852305977898,391.089342586403 486.57205955841664,391.7976121682058 483.98642305357134,392.36422863153035 481.64509847527967,392.8094280749621 480.321741320618,393.1332095307406 479.22233694244096,393.4772273162516 476.79957470099885,393.7807726018051 473.4199242576726,393.41651813628204 471.5875833911951,391.00839756332965 470.16242977760834,389.32878949899373 467.3324809918789,390.0977659054233 465.27618734889865,392.24281120167905 462.8330663117,393.5784091788391 459.04622861545994,395.2377922730054 457.254606403413,396.75552455921854Z" name="Kigali City" name_en="Kigali" gn_name="Kigali Province" admin="Rwanda" adm0_a3="RWA" iso_3166_2="RW-01" iso_a2="RW" postal="K" type="Province" type_en="Province" wikidataid="Q3859"/></svg>