<?xml version="1.0"?><svg fill="#3498db" stroke="#ecf0f1" stroke-width="1" width="800" height="344" viewBox="0 0 800 344" xmlns="http://www.w3.org/2000/svg"><path d="M299.7116471276628,310.19967447411784 303.3587483344928,312.4541548899877 304.4230964462857,313.78221250583914 303.0218675247003,314.7783258740783 302.3041648595061,314.78328179975904 301.7768730920148,314.6048689880987 301.26911071812555,314.5107074310409 300.56117274972934,314.7783258740783 300.2389388951521,315.1995859768212 299.76535281008626,316.4287358091702 299.33082533224893,316.8896907389454 298.48129977017425,316.8351684751389 297.74895014976477,316.02726949281384 297.09960012220523,315.01125660196 296.46489710985077,314.3620323419912 295.5519012285425,314.763458045079 295.2003734035469,314.7783258740783 294.84884557855133,314.614780736602 292.6078556717097,313.1082594965872 292.29538651393045,312.69696340193633 291.62650715276067,310.11049259430337 291.09921544526327,309.03539262009986 289.8737503461859,308.0891641562787 289.25369434903854,307.90586955562094 287.9794060059286,307.8266076792777 287.37887928239354,307.67303879640474 286.641647343581,307.2123407737672 286.4951773715056,306.8408193563451 286.60258867636463,306.469306286957 286.60258867636463,306.00864149797195 286.52935372031885,305.4093010452537 286.58305934275245,304.9338065680484 286.4170600970567,304.46823131908246 285.73841609908084,303.9283784607103 285.2404183620018,303.695603217327 284.60083297124834,303.5123568923979 283.92707135166944,303.42321075069606 283.3216623097373,303.5123568923979 283.0433694407795,303.8095141083473 282.47213674766266,304.84465284589334 282.0913148922549,305.176505169222 281.5542584879534,305.28051997898314 280.85120283796226,305.2904261561648 279.6013261468656,305.176505169222 278.566272005485,304.7901702770207 276.2422825057934,303.50740433003625 275.0509937555293,303.1012981690497 275.3536982765004,302.47234827052233 275.53922685580227,302.22968889928586 274.4455847135972,301.44726010574954 273.4788832098574,301.52649178056544 272.658651618201,301.9672245432087 271.97512530181405,302.22968889928586 270.91565950842426,301.96227243766964 270.1296042055893,301.27889413011576 268.41102374783384,299.1398026941694 268.16202484929437,298.28325205917554 267.8690850251293,297.86737037166466 267.4247929104818,297.4069418221653 267.2978522720186,297.0900951103421 267.64938009701416,296.03068198994504 268.05949592283827,295.3128931019976 269.2605493099105,294.1991429818374 269.69019440934693,293.471532471165 269.89525232225895,293.7140658400628 270.100310235171,293.79821085168123 270.31513278489524,293.8427584048077 270.5494846682256,293.92195437075145 271.4136572455034,294.8376840967526 271.9995369538293,295.2584414112461 272.63912228458884,295.5455523880553 273.3031192673636,295.5950547687623 274.723877582549,295.52080125201 275.29511027567185,295.7881154497138 276.49616372273596,296.8524639635403 277.73627577702257,297.65448250625406 281.0953194180987,299.26358527815285 282.87248787668074,300.6054471118607 285.00118416026834,301.645339933471 286.739293951636,302.97748728592285 287.9794060059286,303.54207235822184 290.6598056490208,304.344410318045 293.1253827423949,305.43901988461295 299.7116471276628,310.19967447411784Z" name="Rennell and Bellona" name_en="Rennell and Bellona Province" gn_name="Rennell and Bellona" admin="Solomon Islands" adm0_a3="SLB" iso_3166_2="SB-RB" iso_a2="SB" postal="RB" type="Province" type_en="Province" wikidataid="Q1051475"/><path d="M257.7773070267159,283.09532526877734 258.8318905017026,283.2288845456102 259.857180006273,283.5306334964846 260.5602356562641,284.14404109044744 260.68717623473543,285.1631375591057 259.2908295715593,284.60905821880567 258.1288348517115,284.3122373089231 257.09378071032893,283.8224940371646 256.13684384340326,282.6798139927181 256.61531224687013,282.6303490407577 257.0156633758962,282.69960002541336 257.396485231302,282.85788904412055 257.7773070267159,283.09532526877734Z" name="Rennell and Bellona" name_en="Rennell and Bellona Province" gn_name="Rennell and Bellona" admin="Solomon Islands" adm0_a3="SLB" iso_3166_2="SB-RB" iso_a2="SB" postal="RB" type="Province" type_en="Province" wikidataid="Q1051475"/><path d="M373.9426062025866,221.33057291187103 374.23554602675165,220.76859548235007 374.0011941434213,220.51226044096273 373.58619605918796,220.41367097873587 373.3225501454454,220.30522318746765 372.52184788740124,218.83630922358728 372.50720093218604,218.03781979619845 373.3225501454454,217.34286554059173 374.63101483737466,218.40255768331602 375.6123633563176,220.09818813699283 375.7148922827817,221.68551462207026 374.35272196841885,222.3756981396595 373.9279591873835,222.2968187655319 373.70337200085316,222.06018256007584 373.683842667241,221.73481260403312 373.9426062025866,221.33057291187103Z" name="Makira" name_en="Makira-Ulawa Province" gn_name="Makira-Ulawa Province" admin="Solomon Islands" adm0_a3="SLB" iso_3166_2="SB-MK" iso_a2="SB" postal="MK" type="Province" type_en="Province" wikidataid="Q1116700"/><path d="M411.9710815613619,254.74453130010346 412.6106669521153,254.44821462125333 413.0354297331547,254.9420784289488 412.97684173232614,255.66314401446436 412.17613947427594,256.0286266413582 411.38031953463286,255.89033502157247 410.6772638846418,255.6730218007246 409.9497965826354,255.6236328024676 409.11003565737286,256.0286266413582 408.66086122431824,255.75204446877686 408.0359229087679,255.64338839758423 407.0203980410056,255.61375498272997 406.20016644934725,255.46558888575512 401.9037152749576,253.79633522752113 400.5171333085815,253.9741181498121 399.19890391985217,255.1988929833944 398.5251423002713,254.83342726334567 397.7634986494516,254.714899430394 396.132800162943,254.74453130010346 395.546920454617,254.61118818047194 395.11727529517873,254.27042700890433 394.7413358181699,253.87534963585904 394.28727906671827,253.53954072238798 391.63617339403834,252.49264725428162 390.6743542086995,251.6927036086792 390.1568271380163,251.4655655645357 389.39518348719463,251.58900983326603 387.6473090590148,252.17661585853432 387.0907233211092,252.06798139544833 386.5243729463934,251.73714399795838 384.01485486739386,251.01129811364265 384.1027367786489,251.12980156653316 383.7609736504513,251.28780740070454 382.9895653628235,251.4655655645357 382.5989788706116,251.32730909054214 381.9838051918673,250.73479312167584 381.76410032374,250.59654218266652 381.1733382370171,250.43360493841902 380.772987107991,250.01392486329073 380.29451870452414,248.94748758410674 379.96252021314075,249.83618098226736 379.91369690911023,250.22623238302438 378.6003498987779,249.25358815660746 377.9021765671898,249.0659775125451 377.0135923378968,249.36220575622505 376.8573577290153,248.98204709934907 376.41794793277285,248.47847254342457 376.1933607462425,248.1526377144688 375.63677500833285,248.38467099191257 375.14365958965686,247.98972246527993 374.865366720705,247.3676959229809 374.967895707155,246.90859471539474 374.4064276508443,246.1977512726159 373.69360730405316,246.1385156038055 372.892905046001,246.25205081527636 372.0970851063599,246.04472613881205 371.6625576285205,245.4622550121454 371.49655838283286,244.7761476963488 371.1743245882475,244.20852447513334 370.2515640101352,243.97654440563937 369.9439771707671,243.59649834672024 369.15303954952907,242.85123620050763 368.3328079578707,242.3034138541054 367.96663317765996,242.5255019971955 367.6785756119041,243.05852462982648 367.0341079627415,242.65875621377793 365.91605416852116,241.52365896438985 365.93070118373026,241.0104206801784 365.66705532998157,240.64524069009516 365.2276455337391,240.41824053590938 364.6857068110326,240.24552494539816 364.80776507110085,239.78660281882628 364.6857068110326,239.3572988775037 364.3634729564554,238.94280811646226 363.86547521937626,238.55793218965502 363.3674774822972,239.15498676146325 362.649774817103,239.3572988775037 361.81001389183444,239.26354418768932 360.96537064816283,239.00695490740299 362.1957180656433,235.2424107839526 361.53660334128773,234.8230791787001 361.46336838524195,234.24096399035358 361.49266241565414,233.5996718545875 361.18507551629216,232.96333464358915 360.81401841767627,232.87454518608558 359.60320033380805,233.14091495398912 358.909909320623,233.17051181738182 359.4664950585286,232.46513237193946 359.9351988251914,231.47863266741854 359.8863755211609,230.6105561392977 358.909909320623,230.27517378823583 359.5250830593592,228.75616449754548 359.9351988251914,228.05095215876565 360.3648439246358,227.75506676413968 360.68707777921304,227.62191991440417 360.56990183754584,227.3359038815553 360.14513905650654,226.92661262362282 359.8180228835262,226.84278302885454 358.87085071339857,226.95619968598666 358.5046758731939,226.92661262362282 358.09456010736164,226.60115856564644 357.826031875218,226.1869523921698 357.44521007980205,225.83685669970654 356.64450782175794,225.6889309253625 355.01380927525145,225.6889309253625 354.31075362525826,225.51142154663683 354.03734307471154,225.0676553479745 353.65652127929764,224.81126187495457 352.81676035402916,224.76195584571298 351.53758969251004,224.86056803349902 351.16653253391036,225.038071323531 350.90288668016166,225.32405231886747 350.5904174623905,225.5705911329059 350.12659607412473,225.6889309253625 349.70183323309953,225.62483009419864 349.2917174672673,225.34377531702694 347.7196069215873,225.13668495984953 347.0751392124328,224.8852211612646 346.58202379375683,224.44146974607816 346.33302495521724,223.5293469856202 346.85055202590246,222.2080798257648 346.58202379375683,221.54748093257797 346.87496367791573,221.26155723713939 347.0214335899992,221.06437101769262 347.1532565468756,220.8967643354451 347.44619637104057,220.75873640372123 347.0263159084023,219.81228633693243 346.997021937986,218.49620773917226 347.49013735666,217.36750887037473 348.6326028028956,216.96336225556234 348.9548366574728,217.13586285468625 349.2917174672673,217.25907848230267 349.62859827705176,217.4611538267891 349.9361851164279,217.7864504222066 353.24640551346545,217.18022040083662 359.6178473490091,220.00945951373834 366.0576417622016,224.0125200165278 369.6022140425695,226.92661262362282 370.72026777679594,226.48281301979543 371.49655838283286,226.96113084739068 372.7073764667031,228.8153443340661 373.59107837759103,229.37756243585284 374.5333682293136,229.47619892333884 375.43659947381775,229.40715331524993 376.1933607462425,229.44660793448207 376.94523970026216,229.76717961098458 378.7175258404431,230.85716464291633 379.0544066502376,231.30600054892702 379.6256393433504,231.8978886203523 380.91945702007456,231.95707849381088 382.3158036832507,231.64633392668304 383.19462327573757,231.09884421739605 385.4307308041823,231.8386989959258 386.45113799034965,231.8978886203523 387.2957812340212,231.5131592469494 387.8230729415186,231.99160596155772 388.70677485240657,233.12611650968822 389.33659554635994,233.58487310494235 390.0396511963511,233.80685613531458 391.99258353743693,233.58487310494235 393.0129907236023,233.79699019066598 393.32057756297644,233.64900122659526 393.59398805353123,232.3714126429362 393.9943391825573,232.0606611500447 394.5362779652497,231.9422809926273 395.1075106583746,231.93241603878744 396.29879940863265,232.4749976691669 397.90508624313003,234.73428075233903 398.5837302411059,235.2424107839526 399.2672565574929,235.64201797381736 399.76525435456585,236.56953460297782 400.9858370752402,239.8359487311217 401.25924756580315,240.24552494539816 401.69865736204554,240.59589260210817 402.09412617266054,240.71926307100296 402.4017130120367,240.98081123397333 402.70929985140685,242.96968643503243 403.21217996688085,243.88276606821663 403.9982352097219,244.5836474149436 406.1318138117126,246.00523596326556 406.74698755045074,246.75556359834212 406.9862217521842,247.7083268502417 407.00086870739943,251.16930291058065 406.8153401280915,251.4655655645357 406.43451833267966,251.59394760702105 405.9951085364352,251.90996872785124 405.60940442262023,252.3000649950789 405.37993485769096,252.67041729742786 405.785168365114,254.18153383211666 407.6892774021753,254.4877232454788 410.0865018579127,254.40376753804358 411.9710815613619,254.74453130010346Z" name="Makira" name_en="Makira-Ulawa Province" gn_name="Makira-Ulawa Province" admin="Solomon Islands" adm0_a3="SLB" iso_3166_2="SB-MK" iso_a2="SB" postal="MK" type="Province" type_en="Province" wikidataid="Q1116700"/><path d="M699.8528409592395,197.95342804605846 699.398784147788,196.8603924498938 699.6624300615285,196.3040508412351 700.3020153922881,196.36313059295836 700.985541708667,197.14103093642822 701.2101289551932,197.92388575862955 701.0538943463097,198.3965679345934 700.5705435644398,198.45073014327255 699.8528409592395,197.95342804605846Z" name="Temotu" name_en="Temotu Province" gn_name="Temotu Province" admin="Solomon Islands" adm0_a3="SLB" iso_3166_2="SB-TE" iso_a2="SB" postal="TE" type="Province" type_en="Province" wikidataid="Q936088"/><path d="M694.9607453797179,192.926950803434 695.7223889705436,192.83834660307872 695.9469762170638,193.00571039190328 695.6930950001273,193.1238503923677 694.9607453797179,192.926950803434Z" name="Temotu" name_en="Temotu Province" gn_name="Temotu Province" admin="Solomon Islands" adm0_a3="SLB" iso_3166_2="SB-TE" iso_a2="SB" postal="TE" type="Province" type_en="Province" wikidataid="Q936088"/><path d="M684.8884794966054,304.41418087034214 684.9651004586518,305.2618388535066 684.8942739650389,306.4419990855311 688.1598579250514,306.21062976273146 688.5018647492041,308.6074983000633 684.0100180087956,308.9163385477415 682.747971278164,309.06765220475984 681.7450389882588,309.03378588244595 680.0350187261124,308.8176742360919 679.1402191099127,307.6024539551788 678.424290589711,306.9299837503008 677.6040589980526,306.61791052054866 677.278551206423,306.16838233832647 676.2348777152622,304.8795555325657 675.4891122182037,303.9588671472876 675.4864213036415,302.96259721614797 675.9676856113164,302.3342006280108 676.561629184222,302.0008982911498 677.785908380277,301.40774474963604 678.9004366222648,301.4051876058999 680.2745376597649,301.47542784443175 681.6466290154976,301.2491826769998 683.0601837212588,301.5425678208579 685.5867912945395,302.4571102030943 684.8884794966054,304.41418087034214Z" name="Temotu" name_en="Temotu Province" gn_name="Temotu Province" admin="Solomon Islands" adm0_a3="SLB" iso_3166_2="SB-TE" iso_a2="SB" postal="TE" type="Province" type_en="Province" wikidataid="Q936088"/><path d="M662.8905560105277,282.68101153206726 661.505397463749,284.167232440753 661.0468941909012,284.21597156225994 660.442818097483,284.3608609784797 659.985346902835,284.2417020692909 659.4847067864031,283.9550474589528 659.4682003146121,283.5483957351839 659.5016484552581,282.99906395877446 659.8666117149734,282.5448736257332 660.0748799712171,282.1362132057955 660.0033792641019,281.299544293155 659.1537911282006,281.8074190781598 658.4628497232547,282.37824235365304 658.1175516837445,281.8507215238561 658.2415114562506,280.47947901054806 659.1118111691394,279.3767721681376 660.1670683776713,278.4134056976025 660.9622147637568,278.14770991718405 661.8810035536457,278.48267661517116 662.8010598985071,279.2256852313741 663.2894241458399,280.0907972809173 663.3381084435775,281.239963225547 662.8905560105277,282.68101153206726Z" name="Temotu" name_en="Temotu Province" gn_name="Temotu Province" admin="Solomon Islands" adm0_a3="SLB" iso_3166_2="SB-TE" iso_a2="SB" postal="TE" type="Province" type_en="Province" wikidataid="Q936088"/><path d="M638.3321571519296,246.880313549056 637.6788607136422,247.56420776388612 637.4371226588917,248.74506911566922 635.1994489849277,249.62134808717886 634.4814591280572,250.26486051482283 633.3815803010458,250.7774710956862 632.7285223392436,251.28994174765003 631.558796242018,251.20880434106826 631.1486804761857,251.32237132907636 629.6013122699064,250.71255357923908 628.845822452067,251.29465263820475 628.3071639058029,251.6927036086792 627.63340222623,251.50012989405818 625.5123257910169,251.8365824216952 622.9676932357432,254.77137571738973 621.1774484670126,257.4681581050245 620.4211438695389,256.7162175653615 620.6031757537633,255.04524740862436 619.8847661182992,254.19256987288833 619.1619502774743,254.05499973107783 617.4647645493195,255.58689091636313 615.6742366685148,255.4824994048747 614.848658884212,254.04653840586326 614.6778784701384,251.6545792467039 614.6420420850709,250.38929189147765 615.7891088974194,249.57696792890275 616.3303110727785,248.75208313413694 617.0180276158304,247.79571054037453 617.5687045965865,247.76243011470447 617.3049803305713,249.8539905590498 618.1900616253987,250.84011166651362 618.7768021888108,251.01281355743367 619.0854134271354,250.22697220438937 619.152379721518,249.30328845446616 619.3328539793868,247.70559691669396 620.3301059695987,246.30778289380217 622.143220542431,244.6239180134831 624.8598162351147,244.4233282394208 629.1303820628636,244.88429836565626 631.0584242391408,244.02768945989598 633.128854930089,244.45324845973474 634.1464316554582,244.9982659785595 634.3124309011479,245.27961958867922 634.5565474212905,245.54616921892458 636.3382721304454,245.3098509773015 638.0233515327737,245.37630659014513 638.3321571519296,246.880313549056Z" name="Temotu" name_en="Temotu Province" gn_name="Temotu Province" admin="Solomon Islands" adm0_a3="SLB" iso_3166_2="SB-TE" iso_a2="SB" postal="TE" type="Province" type_en="Province" wikidataid="Q936088"/><path d="M798.1781029715831,342.51556084538026 798.8176883623365,342.5751342932519 798.9934522448364,343.4439396370768 798.558924826991,343.652460009719 797.5873409448541,344 797.3139303943054,343.4687633427732 797.7826341609641,342.992154934397 798.1781029715831,342.51556084538026Z" name="Temotu" name_en="Temotu Province" gn_name="Temotu Province" admin="Solomon Islands" adm0_a3="SLB" iso_3166_2="SB-TE" iso_a2="SB" postal="TE" type="Province" type_en="Province" wikidataid="Q936088"/><path d="M614.1776982683394,230.36395089986442 613.5967008784165,230.5415063311613 613.1279971117538,230.41327168667976 612.8350572875887,229.83129463147455 612.8887629100203,229.14576870528808 613.0352328221038,228.72657458897567 613.3916429655025,228.44054166588586 614.241168587571,228.6575318127917 614.7635779766654,229.47126709870633 614.6366373382001,230.0680288587617 614.1776982683394,230.36395089986442Z" name="Temotu" name_en="Temotu Province" gn_name="Temotu Province" admin="Solomon Islands" adm0_a3="SLB" iso_3166_2="SB-TE" iso_a2="SB" postal="TE" type="Province" type_en="Province" wikidataid="Q936088"/><path d="M688.5453625585467,302.7942488223594 688.584421225765,303.3390176558013 688.2328934007695,304.2701181577542 687.2466625634174,304.9833366058273 686.1920790884287,305.16164600706594 685.7917279594107,304.47813707531685 686.113961753996,303.46778376218197 686.914664072034,302.6852971579682 688.0034238358422,302.59120312834506 688.5453625585467,302.7942488223594Z" name="Temotu" name_en="Temotu Province" gn_name="Temotu Province" admin="Solomon Islands" adm0_a3="SLB" iso_3166_2="SB-TE" iso_a2="SB" postal="TE" type="Province" type_en="Province" wikidataid="Q936088"/><path d="M644.6043844340825,220.8671867934638 645.4832040265693,220.82775024371688 646.2546123141951,221.36015111800174 645.6589679090712,222.5038778938912 644.5457964932478,223.54906810231628 643.6962708711793,223.66739517545685 643.6230359151335,222.78489027165267 643.7402118567987,221.99116422039577 643.3447430461837,221.95665511485745 643.178743800488,221.54255118958352 643.6083889599242,220.28550545744577 643.8134468128445,219.01375584531138 643.7695058872109,217.84559588315764 644.0087400889444,218.19554339919793 644.0038577705412,221.1136673797954 644.3993265211705,220.97563786545535 644.6043844340825,220.8671867934638Z" name="Temotu" name_en="Temotu Province" gn_name="Temotu Province" admin="Solomon Islands" adm0_a3="SLB" iso_3166_2="SB-TE" iso_a2="SB" postal="TE" type="Province" type_en="Province" wikidataid="Q936088"/><path d="M388.1501891144989,195.81172620712735 387.3006635524223,195.10280035509803 386.485314279171,193.74409695195868 385.89455225244,192.12952738805507 385.19149660244886,187.8968280230013 385.27937857369574,187.09960617935707 385.89455225244,186.20399981046359 386.6122548576484,186.09574245064107 387.38854552367116,186.18431659411274 388.1501891144989,185.86938794464822 388.1941301001264,186.36146617739567 388.0916011736623,186.67640256698695 387.73519097026974,187.09960617935707 387.6277797254046,187.5572666507423 387.53501543575464,187.74919196596215 387.2957812340212,187.92635535329964 387.6668383326351,188.7925102755906 388.42848198345473,193.788401030561 388.42848198345473,194.79265331472536 388.1501891144989,195.81172620712735Z" name="Malaita" name_en="Malaita Province" gn_name="Malaita Province" admin="Solomon Islands" adm0_a3="SLB" iso_3166_2="SB-ML" iso_a2="SB" postal="ML" type="Province" type_en="Province" wikidataid="Q1190896"/><path d="M353.17317055742166,169.31793384117137 352.9095246436811,169.4359353451296 352.2406453425032,169.61293883779473 351.98676412556665,169.7309420312155 351.98676412556665,168.46735964535497 351.59129531494364,167.31201151035484 350.30724227502964,165.15881137336893 350.7466520712721,164.834375919539 351.03470957703604,164.87861682486715 351.53758969251004,165.60614734072905 352.3382919505622,166.4418557344351 354.3986355965071,167.70039790322915 354.8185160591374,168.29036592304908 355.0626325792819,169.25401662430772 356.8642126898792,171.79610751105952 358.3874999315287,174.86965534182934 359.1198495519361,175.73524983451745 359.4420834065154,176.23691798182816 359.8863755211609,177.5796788983441 360.3648439246358,178.228957712808 360.9409589961476,178.84874330274909 361.40966276280835,179.5128202603213 362.1957180656433,180.9148320372188 362.60095151307246,182.0217521779787 362.72300977314273,183.06969253214868 362.63512780189586,185.24938660482945 362.8401857148059,186.25812870984717 363.7141229288958,188.27084430212426 363.86547521937626,189.61932960366948 363.57741765361845,190.98267215140433 363.00130264209855,192.0606157558897 362.4349522673787,192.2771959519422 362.1957180656433,191.04665805347338 359.73014091227935,188.33974280543418 359.16379053756356,186.86339841063503 358.7829687421517,186.19907901967852 358.12873639618306,185.86938794464822 357.4745040502204,186.06621776273695 357.044858950778,187.75903431162294 356.4199205752337,188.7925102755906 355.4434543746958,187.76395548626965 354.3888708997071,186.35162445916444 353.5295807008203,184.8655858026017 353.17317055742166,183.59614329720893 353.17317055742166,179.89651908182324 353.17317055742166,176.36971458602017 353.02670058534426,175.0467057993869 353.0608769341595,174.2794983373274 354.03734307471154,172.53371690964983 353.85181449540363,171.5649953380462 353.37822841033983,170.57173438390663 353.17317055742166,169.31793384117137Z" name="Malaita" name_en="Malaita Province" gn_name="Malaita Province" admin="Solomon Islands" adm0_a3="SLB" iso_3166_2="SB-ML" iso_a2="SB" postal="ML" type="Province" type_en="Province" wikidataid="Q1190896"/><path d="M433.79510074150744,107.51573073181959 433.30686764124056,106.90289038184936 433.57051349499125,106.63814838738661 434.2149812041457,106.66756400159521 434.9326838093461,106.92250103162124 434.722743578031,107.16273270517019 434.4688623610884,107.32452280571717 434.146628566503,107.43238352195327 433.79510074150744,107.51573073181959Z" name="Malaita" name_en="Malaita Province" gn_name="Malaita Province" admin="Solomon Islands" adm0_a3="SLB" iso_3166_2="SB-ML" iso_a2="SB" postal="ML" type="Province" type_en="Province" wikidataid="Q1190896"/><path d="M351.127473866686,181.6970492983818 348.0223114425544,179.52265857602055 347.44619637104057,179.46854777793624 347.2801971253449,178.44046970153585 346.85055202590246,177.52557328233965 344.47285684378136,174.41720012343913 344.1652700044133,173.86148075377213 344.01880009232974,173.2664352036682 343.91627116586767,172.09114806335404 343.71609557135866,171.41747831312287 343.06674554379913,170.38488867024913 340.23987598862533,167.4447503752024 336.12895333353566,165.3603571204146 334.69354806313504,163.6890609748882 331.89109009998066,163.30566493048775 332.2133239545599,162.26856478240413 330.53380210402287,160.37635840903127 329.72333520917056,159.79644367510048 329.26439607931593,159.707983565485 328.2976945755761,159.79644367510048 327.8778141129458,159.5703796119334 327.6874032152349,159.1280873219769 327.78016750488683,158.1354208171702 327.6727562000338,157.69807270275072 326.27640959684953,156.47452919323266 322.8831896069601,154.95625452494886 321.5649602782267,153.5756528751397 317.2050387845954,145.55912456855734 316.15045530961066,142.60280400413276 315.34975305156456,141.17880731209766 315.6719868461499,140.71725602445323 315.7696334542029,140.37355405208032 315.6719868461499,140.02985746117625 315.34975305156456,139.5683306016956 315.3106943843482,138.6894927757772 314.3830514878308,135.65556506750679 313.55305525937035,134.35964655054153 311.07771346919026,129.3877584083642 310.8482439042629,128.5633085857717 310.8140676154415,125.31488136757586 310.7017739921794,124.76534535831333 308.7586062878997,120.51670932881571 309.8131897628864,119.81031652203768 311.5805935846663,118.28968477320899 312.6840003636835,118.00519084505484 312.68888268208656,117.46073829120417 311.24859509328087,114.30709429432956 308.8757822295649,111.18821134349407 308.57307770859984,110.60469398620299 307.7967871025629,110.22222839231796 305.7510904718211,108.21684004342369 305.10174044426356,107.30981460630541 304.354743808651,104.63307101619883 305.5704442109243,103.72618576132969 307.7967871025629,103.98599250754098 310.02312999420354,104.80464785902801 311.2095364260645,105.90276981470522 311.6587108591131,106.07925851663252 312.27876691625437,105.9517943226627 312.928116883818,105.61842968886866 313.30405636082884,105.14780540730692 313.09899850791066,104.61836446453115 311.24859509328087,103.40265692757858 311.4145943389766,102.98109573118444 311.83447480160686,102.56934561725934 312.36664882750733,102.3144563398827 312.88905827659556,102.37327672308238 312.88905827659556,102.75071084741262 314.2854048797778,102.77521976557071 315.02751919698727,103.19677723840476 316.16021994642284,104.80464785902801 316.8925695668323,105.3978233306739 317.5175079423746,105.73608725113391 318.0789759986873,106.24594354843317 318.6599733886082,107.30981460630541 318.92850156076196,108.04523791504599 319.03103054721794,108.55024213720364 319.0700891544404,109.17783566808437 319.2360884001361,109.47202604245504 320.06608468859247,109.98196484104976 320.33461286074424,110.19280824423696 322.3510155210677,113.27722739739083 325.46106032359626,116.61220316696455 327.8778141129458,118.64285463230685 329.29857242813125,120.49708699744147 329.8844521364572,121.6450215730745 330.1236863381906,122.77339044581254 329.65010025312677,124.02938078321137 328.51251712529427,124.73590632468527 327.1601115077395,125.22656221048254 326.03229301672116,125.8251769549634 326.4326441457392,126.62008371138242 326.6914077410767,127.41501884069132 326.6669960290696,128.2050750702188 325.7100592221358,129.84907112161767 325.6954122069267,130.61958292230997 325.9004701198407,131.3901215221395 326.03229301672116,132.26866659583942 326.2861742336557,133.1570633466134 327.4091103462851,134.212387942191 327.6727562000338,134.77197598292344 328.04381335863553,135.3610314341213 328.8933389207082,135.21376610234145 330.32874425110265,134.5510842907542 330.86580065540613,134.7867021989481 332.5062638387208,136.02373774090873 333.03355554621623,136.61282686863026 333.0726142134346,137.035017180188 332.81873299649,137.36393854184507 332.6722630844065,137.74195876009216 333.03355554621623,138.29181802971092 333.51690632807805,138.57166246671184 333.91237513870306,138.54220500413732 334.1760209924518,138.39000863817833 334.2639029636986,138.29181802971092 335.6700142636809,138.95461328757875 337.1737721717162,140.01512770728476 338.55547181968524,141.35557419753468 339.62470224988715,142.8581512668733 338.8435293254472,142.55369911406314 338.233237965106,143.02511071226272 338.0574740826061,143.71260439273925 338.5798834717005,144.05635947668765 339.30246845530183,144.36083282476125 339.99575940848894,145.09747966443132 340.34240491508143,146.05515830130489 340.03481807571126,146.98341060062268 340.5621097832107,147.27810230613056 340.7964616665391,147.6612075261431 340.86481430417575,148.15237811797013 340.8550496673676,148.79582862018057 340.9624609122288,149.4294744027396 341.26516543319985,149.58666072058224 341.66063424381684,149.5964849415968 342.0853970248582,149.8273546224607 342.43692484985377,150.07787556148514 342.85680531248397,150.29401366064283 343.20833313747954,150.65261131459144 343.34503841275694,151.3059621553109 343.13998049984485,151.58106328415062 341.6362225918016,152.75028273982335 342.72986473401465,153.24648355127624 343.1106865294266,153.5560008218222 343.34503841275694,153.98834996373472 344.12621133718886,153.68373940356247 344.82926698718205,153.86552261254613 345.19055950898166,154.41088154141525 344.9855015960716,155.22157618629396 345.4395584075171,155.28053704137574 346.58202379375683,155.63430544653335 346.58202379375683,156.0470427137906 344.9562076256533,156.4253923262631 344.3556809021182,156.45978811507982 344.14574067080105,156.78409373260772 344.19456397483157,157.49168692126932 344.44356287336507,158.19930390100828 344.7657967279423,158.52363626442215 345.1466185233562,158.99540143499672 345.4981463483518,161.17745345605073 346.21584901355203,161.85570516933805 345.40538205870183,162.2980550543036 345.029442581691,161.9195995373636 344.73650275752397,161.31998278068164 344.1652700044133,161.03492510299526 343.60868426650563,161.36913104481303 343.74050722337194,162.017899063013 344.238504960451,162.7404143768206 346.6064354457721,165.18830574040388 347.285079443748,166.14689600500358 349.1745415256001,170.8765915578377 349.7164802483006,171.41747831312287 350.346300942254,171.9190405589476 351.1958265043287,173.06972975161554 352.3529389657653,175.13523154367925 353.0706415709717,179.8866805844584 353.04134760055535,181.18048731919652 352.6702904419476,181.94795562100038 352.025822792785,182.13982724294362 351.127473866686,181.6970492983818Z" name="Malaita" name_en="Malaita Province" gn_name="Malaita Province" admin="Solomon Islands" adm0_a3="SLB" iso_3166_2="SB-ML" iso_a2="SB" postal="ML" type="Province" type_en="Province" wikidataid="Q1190896"/><path d="M307.63567017527834,77.57382245111816 308.3680198556797,79.72843224782387 307.9432570746403,79.8214764901485 307.41108298874593,79.73822633657429 306.2734998609154,78.18101149844394 305.9463836879351,77.44161396409035 306.2149119200788,76.71203157150717 306.8886735996536,76.57493124611892 307.2841423502807,76.92747645836116 307.63567017527834,77.57382245111816Z" name="Malaita" name_en="Malaita Province" gn_name="Malaita Province" admin="Solomon Islands" adm0_a3="SLB" iso_3166_2="SB-ML" iso_a2="SB" postal="ML" type="Province" type_en="Province" wikidataid="Q1190896"/><path d="M265.8770940168191,170.53239828406777 267.1513823599351,170.64057270944235 269.48513649643286,170.55698332254715 270.11007487198316,170.46847735779988 270.6813076250939,170.2177123743238 271.1744230437699,169.88336385602926 272.0166056217218,170.42774545599968 271.6843858047842,171.59880009933664 271.7212991357557,172.26800417130454 270.81692303935506,172.62120402273246 270.26322334445365,172.04493375833715 268.4231619687721,172.24138204454155 266.7239863048347,171.58596825520038 265.8770940168191,170.53239828406777Z" name="Capital Territory (Honiara)" name_en="Honiara" admin="Solomon Islands" adm0_a3="SLB" iso_3166_2="SB-CT" iso_a2="SB" postal="GC" type="Province" type_en="Province" wikidataid="Q40921"/><path d="M271.1744230437699,169.88336385602926 271.57477417279597,169.52443693160555 272.1020658802934,169.40151813729446 272.8637095311131,169.59818852390396 274.24052680068513,170.1439585631916 275.44158024774924,170.4733943357797 276.08604789691185,170.57173438390663 276.7305156060664,170.55698332254715 277.3163953143923,170.31605120033163 278.370978789379,169.49493632026864 278.95685849770496,169.31793384117137 280.236029159218,169.45068560328443 282.1645499082885,170.01120233286247 283.3216623097373,170.1439585631916 283.72201343875736,170.03086987523014 284.2297758726425,169.49493632026864 284.5520096672259,169.31793384117137 284.8840082186031,169.3474341387214 285.40153528929443,169.6768571679414 285.73841609908084,169.7309420312155 290.24968988318864,169.7309420312155 290.484041766521,169.66702359366678 291.09921544526327,169.36218433353616 291.4751549222741,169.31793384117137 291.56791921192604,169.45068560328443 291.83156506567275,169.7309420312155 292.1830928906683,170.01120233286247 293.39879329294763,170.53239828406777 294.6437876656393,172.23866999112488 297.0507768181767,173.07956495516942 298.0272429587287,174.18114050403415 299.7116471276628,176.7828650155168 301.9379900193014,176.4877567188728 304.67697766322823,177.69280933772177 307.19626043902775,179.56201200748973 308.7586062878997,181.2837986939302 309.17848675053193,182.30218159389364 309.4323679674725,183.54202151681193 309.56907324275187,186.0760593406919 309.8717777637169,186.55830083255347 310.52601010967754,186.57798441663465 311.48782929501436,186.2827328088923 312.2494728858421,186.40083291729866 312.8695289429834,186.70592809439736 314.1194056340841,187.5228187496321 316.1162789607954,188.05922897076042 316.61427675786837,188.33974280543418 316.7607466699519,188.9499969860522 316.7070409875244,189.79650960948976 316.863275596414,190.53969864836267 317.61515455042763,190.85962296553674 317.82021246334165,191.15494235270145 317.87880040417633,191.81450478193955 317.8397417969539,193.10908283106667 317.9862117090354,193.6948703278282 318.3084455636126,194.05915032157566 318.7087966926407,194.41359132084693 319.0700891544404,194.9846485239471 318.9724425463874,196.7963877258885 317.4003320007094,197.81064066462355 312.88905827659556,198.7461631314628 310.5455394432897,199.4946132378331 309.2663687217788,200.16430332850547 308.1776089579707,201.02114615205574 303.8420991163567,199.93778790731946 300.0094693302248,198.12575907310207 298.7010046383015,197.87957238057177 296.24030986333054,198.332558205868 295.46401925729566,198.1159115122452 294.9416098682013,197.57430520665517 294.49731775355576,196.90470353001206 293.9700259860665,196.26466439824134 293.7112624507209,196.205584881473 293.0082068007277,196.31389743404358 292.744560946979,196.26466439824134 292.5932087164944,196.04804049091265 292.1977399058774,195.27018332218995 291.9194470369196,194.9846485239471 290.14716089673465,194.27575238876042 289.64916315965957,193.95085014804334 288.71175562633806,193.6407211949187 281.9887859657928,193.34044221467298 276.92580882217237,194.1280689118278 274.24052680068513,194.16745102811572 272.58541666215524,193.9656183378276 271.9165373009855,193.97054105004375 271.36971625988394,194.16745102811572 270.96936513085785,193.95085014804334 269.69019440934693,193.74409695195868 268.3622004438033,193.38966795671524 267.0342064182699,193.2912165950951 265.7306240447437,193.06478033424455 263.6800450955968,191.99170436322004 262.7279905470742,191.6865282339074 261.5659958272203,191.86372673240976 260.60417664188356,192.2870405982732 259.63259275974673,192.355953017555 258.3924807054602,191.45518815832466 255.61931677271195,188.62518197097458 254.540321645708,187.92635535329964 252.89985846239531,187.09960617935707 252.83638814316373,186.8486354950442 252.93403475121673,186.1400294431744 252.89985846239531,185.86938794464822 252.66062426066188,185.61351203553383 252.16262646359093,185.48557533618703 251.85015730581168,185.24938660482945 251.62557005929548,184.7179720965602 251.56698211845884,184.10292660777753 251.44004147998558,183.60106344979368 251.02016107734923,183.38949743116171 250.01440090639102,183.24681463245244 249.82399000868207,182.86797210538205 249.98510687598082,182.33170069079023 249.99487157277883,181.6970492983818 249.43828583487323,180.3392575629775 248.73523018488007,179.10945240304855 247.8759399260074,177.99777276193407 246.89947378545338,176.9894434059046 246.00112485936236,176.33528572677292 245.60565610873323,175.91230774544067 245.4445391814466,175.3368750815015 246.22571210588058,174.9385081083497 246.80182717740038,174.48113342397525 247.1289433503807,173.86148075377213 247.0117674087175,173.23692927746978 246.16224178664896,171.99771808402096 245.89859593289825,171.41747831312287 245.874184280885,170.70941126540092 246.30871175872437,169.11143281954728 246.24524143949276,168.47719264757066 245.96206625213188,167.67089995949115 245.89859593289825,167.03178785523608 245.25901060214073,166.39761149526126 245.02465871881034,166.22063554376086 245.283422254156,165.82244510228273 245.89859593289825,165.15881137336893 246.06947749699702,163.09922380647333 246.4551816708079,162.22432942249358 247.33400120330086,161.85570516933805 248.2665264182193,161.5853847921627 252.0356858851196,159.3492322710417 254.11555886467667,160.06182642542254 256.2344904514562,161.41827942451272 259.4568288772469,164.3329856757958 261.8931120002026,166.09773639784163 262.2788161140176,166.61883363615303 262.5424619677663,167.4840805258645 263.17716498012277,168.521441336326 263.98763193497297,169.4900195759588 264.778569556213,170.1439585631916 265.8770940168191,170.53239828406777 266.7239863048347,171.58596825520038 268.4231619687721,172.24138204454155 270.26322334445365,172.04493375833715 270.81692303935506,172.62120402273246 271.7212991357557,172.26800417130454 271.6843858047842,171.59880009933664 272.0166056217218,170.42774545599968 271.1744230437699,169.88336385602926Z" name="Guadalcanal" name_en="Guadalcanal Province" gn_name="Guadalcanal Province" admin="Solomon Islands" adm0_a3="SLB" iso_3166_2="SB-GU" iso_a2="SB" postal="GC" type="Province" type_en="Province" wikidataid="Q760888"/><path d="M259.2273593123196,154.81376833484552 258.3778337502429,154.42562118976437 257.86518899796476,153.4675668375756 257.7626600115068,152.24918077399505 258.18742279254815,151.0996387029966 258.55359763274475,151.0210397611271 258.8465375169057,151.03086464317443 259.13459502266767,150.9522659551955 259.4568288772469,150.65261131459144 259.9011209918924,151.80212923080032 260.17941380085637,153.17278963474976 260.0475909039759,154.33227039780144 259.2273593123196,154.81376833484552Z" name="Central" name_en="Central Province" gn_name="Central Province" admin="Solomon Islands" adm0_a3="SLB" iso_3166_2="SB-CE" iso_a2="SB" postal="GC" type="Province" type_en="Province" wikidataid="Q293722"/><path d="M284.73753824652573,153.98834996373472 285.40153528929443,153.7918265437033 286.0899439240764,153.32017772389906 286.65141198038714,152.77975967661297 287.01270444219483,152.3376096805888 287.77434809301656,149.3803539081883 288.3895217717608,148.1179957777497 289.4294582915323,148.22114290375941 291.0455097628378,151.08981378921035 291.69974210880645,151.51228766843238 292.6078556717097,151.5417628878344 293.3255583369039,151.64983912225748 293.87726169641456,151.90529417409613 294.3459654630753,152.3376096805888 293.61361584266587,153.0941830243954 292.7250316133748,154.70567603679277 291.9194470369196,155.22157618629396 291.4751549222741,155.63430544653335 290.1911018823601,155.21666280422482 288.97540148008676,154.49931946477403 287.78899510821765,154.0423942118554 286.60258867636463,154.40105515513602 286.85158757489813,155.13804866534014 285.95812096721016,155.6490459479865 284.5813036976381,155.9438576554102 283.3216623097373,156.0470427137906 283.6146021339043,155.57043013963772 283.57066120826676,155.18718247541935 283.18983935286303,154.9267745593407 282.46237205085663,154.81376833484552 282.8090175574491,154.21926734886728 283.3216623097373,153.98343686808545 284.73753824652573,153.98834996373472Z" name="Central" name_en="Central Province" gn_name="Central Province" admin="Solomon Islands" adm0_a3="SLB" iso_3166_2="SB-CE" iso_a2="SB" postal="GC" type="Province" type_en="Province" wikidataid="Q293722"/><path d="M221.20864853035656,147.80855750258578 221.81893995068964,147.72014737093187 223.0492873081782,146.29090112051065 223.66446098692248,145.7850394684285 223.64981403171328,146.05515830130489 223.55216736366037,146.2172312190985 223.40081513317577,146.3645712746573 223.25434522109225,146.57084908733285 223.25434522109225,147.17495972131513 223.14205159783015,147.3272179741493 223.25434522109225,147.80855750258578 222.6684655127643,148.38814400060687 222.52687791908386,148.92845062222042 222.84911171366923,149.20352101499097 223.66446098692248,149.0021298477234 223.4935794228237,150.49050479258386 222.6245245271449,151.47789997414276 219.9441248840466,152.75028273982335 219.9978305064802,151.11928842344014 220.20288841939225,149.98945610253895 221.20864853035656,147.80855750258578Z" name="Central" name_en="Central Province" gn_name="Central Province" admin="Solomon Islands" adm0_a3="SLB" iso_3166_2="SB-CE" iso_a2="SB" postal="GC" type="Province" type_en="Province" wikidataid="Q293722"/><path d="M275.29511027567185,147.80855750258578 274.8557005394233,147.73488238764804 274.51881966963697,147.53350498483235 274.3137618167168,147.20934054790217 274.24052680068513,146.77712882216048 274.723877582549,146.6297859348533 275.80287270955097,146.51191234129897 276.92580882217237,146.168118031534 277.55074719772267,145.33321198184439 277.9608629635549,145.7850394684285 278.2440381509098,145.30374531600643 278.35144945576684,144.92068215111527 278.2538028477138,144.54744765009235 277.9608629635549,144.05635947668765 278.1952148468853,143.79117653484792 278.3563317741719,143.7715334724907 278.7713299183991,144.05635947668765 279.845442726998,144.52780389862124 280.94884950601516,144.4197636158631 282.0034329809999,144.55726950237062 282.87248787668074,145.7850394684285 283.3216623097373,145.7850394684285 283.9075420180633,144.7733519287588 284.9718901298561,144.94032620061446 286.1729435769202,145.7850394684285 287.1982330214967,146.77712882216048 287.5790548769025,148.1130840366158 287.17382136948146,149.82244242806874 286.3242958074068,151.39438713884618 285.36247662207006,152.3376096805888 285.157418709158,151.87581845079825 284.94747847784083,151.68422709452963 284.6301270016606,151.7087899831619 284.14189390139563,151.89055627715555 284.06865894534985,151.17823787469732 283.73177807556954,150.6378742851318 283.18495703446195,150.32839950363615 282.46237205085663,150.28418917875146 282.6088419629401,150.60840031715693 282.87248787668074,151.51228766843238 282.46237205085663,151.51228766843238 281.48590591031063,149.93050993983329 280.74379159310314,149.33123352662486 279.80638405978164,149.6456059334337 278.8982704968764,150.068051179176 277.78509908105303,150.1171732566979 276.69145693884195,149.86173965271348 275.87122534718566,149.44912264427373 275.74916708711737,149.0954572434668 275.7247554351021,148.54532265893096 275.6319911454522,148.02958436834854 275.29511027567185,147.80855750258578Z" name="Central" name_en="Central Province" gn_name="Central Province" admin="Solomon Islands" adm0_a3="SLB" iso_3166_2="SB-CE" iso_a2="SB" postal="GC" type="Province" type_en="Province" wikidataid="Q293722"/><path d="M219.52912673981945,145.48054597688446 219.98806580968017,145.39214549496256 221.20864853035656,145.7850394684285 219.19712824843404,149.8273546224607 218.33783798955335,150.65261131459144 215.4767920855663,151.51228766843238 214.95926501487503,151.15367559859064 214.53938455224278,150.53471554540718 214.07068078558203,150.18594436738795 213.38715446919502,150.65261131459144 211.8589849091465,148.5305871445965 211.9615138356086,147.8527627052813 213.83632890225164,147.80855750258578 213.46527174364388,147.00305659637192 213.66056495975792,146.43333032532055 214.2317977128666,146.2368764531505 215.0276176525097,146.57084908733285 215.0276176525097,145.7850394684285 215.31567515827166,145.8930866061972 216.25308269159518,146.15829544370504 216.1700830387514,145.52474638428157 215.935731155419,144.9697924291731 215.55002704160205,144.4786946284816 215.0276176525097,144.05635947668765 215.88690785139653,144.05635947668765 216.47278755972246,144.35101100168262 216.94149132638324,144.3902982001674 217.2930191513808,144.1742196154477 217.51760639789703,143.69296140192426 217.92283984532617,144.5081601650637 218.01560413497612,145.14167928477096 218.16207404705963,145.65734815161073 218.75771845219163,146.15829544370504 219.06042297315668,146.1484728603722 219.52912673981945,145.48054597688446Z" name="Central" name_en="Central Province" gn_name="Central Province" admin="Solomon Islands" adm0_a3="SLB" iso_3166_2="SB-CE" iso_a2="SB" postal="GC" type="Province" type_en="Province" wikidataid="Q293722"/><path d="M274.24052680068513,145.7850394684285 273.49353022506045,145.21534550030228 273.57652981791034,144.5965570769635 273.9915279621375,143.89921360702274 274.24052680068513,143.049663678931 273.95735161332425,141.45868893525397 274.15264488943217,140.96276082734758 275.0509937555293,140.80563743578267 275.998165925663,142.05283556762674 276.32039978024227,142.84341958997084 276.28134111301785,144.05635947668765 275.44158024774924,143.6978721932068 274.9435824506763,144.13984364239974 274.24052680068513,145.7850394684285Z" name="Central" name_en="Central Province" gn_name="Central Province" admin="Solomon Islands" adm0_a3="SLB" iso_3166_2="SB-CE" iso_a2="SB" postal="GC" type="Province" type_en="Province" wikidataid="Q293722"/><path d="M126.43772343518698,128.37683013233337 127.6387768222572,128.95589993626103 128.50294939954097,130.2318697841623 128.44436139871246,131.49809726290744 126.8478392010172,132.07724878185476 126.32054749352179,131.9103730075807 124.16743955792695,130.80117236839106 121.29662895713184,130.02574658136305 118.11334919855953,128.68108525533756 116.65353227614166,127.61621059441552 116.8292962186374,126.68878069202263 119.07028606549325,127.02245472148336 120.03698756923309,127.05680377599458 120.93045417692105,126.68878069202263 121.29662895713184,127.14022322388011 121.80439139100895,126.35020475424663 122.13638988239434,125.99200687868128 122.48791770738991,125.8251769549634 123.03962112689446,125.92331204596938 123.38626657349307,126.2275336090569 123.64014779043765,126.54157316167509 123.9428523114027,126.68878069202263 124.94373016395583,126.95375671120834 125.56378616110318,127.52788225381015 126.00319595734561,128.11183715225133 126.43772343518698,128.37683013233337Z" name="Western" name_en="Western Province" gn_name="Western Province" admin="Solomon Islands" adm0_a3="SLB" iso_3166_2="SB-CH" iso_a2="SB" type="Province" type_en="Province" wikidataid="Q150325"/><path d="M163.23096911807264,130.80117236839106 164.9056085902047,131.45883328508702 164.8421382709731,132.01835129488674 164.63708041805492,132.48953535656497 164.3099642450746,132.81348026030005 162.9429115523148,133.1570633466134 161.6930348612221,134.1976621718697 160.73609799428837,134.5510842907542 159.59851492644975,132.76439740008902 159.32022205749794,132.45026961313977 158.72457765236595,132.12142192496086 158.72457765236595,131.37048968085242 159.13469347819208,129.81962535881524 159.41786866555296,129.26507049354612 161.18039010893187,127.9253624905504 161.50262396351113,127.3855762477131 161.76138749885675,126.69859453785891 161.93715138135659,125.90368498116621 162.00062170059022,125.04011170319485 162.41073752641432,125.04011170319485 162.41073752641432,126.31585678964522 162.90873526348938,127.19910767868348 163.31885102932563,128.58784533786454 163.465321001401,129.96685462484302 163.23096911807264,130.80117236839106Z" name="Western" name_en="Western Province" gn_name="Western Province" admin="Solomon Islands" adm0_a3="SLB" iso_3166_2="SB-CH" iso_a2="SB" type="Province" type_en="Province" wikidataid="Q150325"/><path d="M152.91948625153194,115.94516894098906 154.1644806242276,115.66070435401413 155.67312085066794,115.66560893246597 156.9327622385667,116.07268865461822 157.45517162765705,116.98496614413448 157.60652391813952,118.27006437709618 157.5137596284896,118.71152719482276 157.0499381802319,119.24129396739659 156.48847012392122,119.40316956387137 155.8147084443464,119.34430558731032 155.23859337282659,119.3982642366763 154.99935917109312,119.87899263442695 154.72106630214333,120.0948331802019 153.55907158228945,120.55104840462619 153.40283697340791,120.9287819951289 153.76412949520352,121.28689890370069 154.94077123025647,121.46350663731167 155.40947499691924,121.75295002180489 155.7463558067117,121.53709358217253 156.00023702364825,121.4487892531215 156.6398223544058,121.34086226424185 155.878178763578,122.35147196678093 155.482709952963,122.69489334472131 154.99935917109312,122.9892587695935 156.361529485456,124.3532022343657 155.84888479316166,125.76138935323281 153.40283697340791,127.9253624905504 152.65584033778933,129.05895628948136 152.3629005136203,129.3975735070798 151.8209617909238,129.7214730587944 150.7761429527432,129.96685462484302 150.30743918608047,130.2318697841623 149.4481489272078,130.354563057103 148.1201549616582,130.07482341192534 146.92886621140013,129.67239701165147 146.40157444391085,129.3975735070798 146.2404575766121,128.9951594716259 145.87428273641342,128.7203443042353 145.17122708642228,128.37683013233337 144.90758123267358,128.07257923989434 144.556053407678,127.44446141234702 144.3070545091385,127.14022322388011 142.55429770256174,125.58965447388066 142.2613578783967,125.24618867974341 142.2613578783967,122.16504539459625 142.6714736442289,120.0654002705678 142.91559022436536,119.7023973219824 143.26711804936093,119.3492109027811 143.53076390310963,118.8488729456402 143.49170523588526,118.00519084505484 145.11263908559175,118.99603000752721 145.76687143155436,119.02546152284017 145.99145867807863,118.00519084505484 146.40157444391085,118.06405139557786 146.6066323568229,118.24063384496019 146.81169026973694,118.8684938439226 147.2950410515988,118.08367155282075 147.1339241243142,117.50488261357248 146.81169026973694,116.87706041983992 146.81169026973694,115.94516894098906 147.1778651099336,115.54299593349877 149.26262034789988,114.71905403629587 149.7215594777545,114.63077636060493 149.89732342024823,114.547403243935 150.0828519395562,114.30709429432956 150.5320264326047,114.71905403629587 150.5320264326047,115.13102128745984 150.02426399871956,115.50375996886339 149.81920608580953,115.95988268281603 149.91685269386855,116.46506159076577 150.30743918608047,116.98496614413448 151.08861211052044,117.31359121111738 151.74284445648107,116.98496614413448 152.32872416480703,116.4013005130922 152.91948625153194,115.94516894098906Z" name="Western" name_en="Western Province" gn_name="Western Province" admin="Solomon Islands" adm0_a3="SLB" iso_3166_2="SB-CH" iso_a2="SB" type="Province" type_en="Province" wikidataid="Q150325"/><path d="M111.02908707621255,118.8684938439226 110.76544122246385,118.8684938439226 110.50179536871313,118.69681160662657 110.19420846935112,118.61342361515129 109.79385734032704,118.8684938439226 109.71085774747513,119.1726197950464 109.79385734032704,120.51670932881571 109.34468290727847,122.25335247774694 109.2714479512327,123.2296600290208 109.58879948740687,124.02938078321137 111.76143669662201,126.35020475424663 112.97713709890137,127.20401477386581 114.3393074132562,127.55241786207814 114.3393074132562,127.9253624905504 113.40189987993267,128.1412806471354 112.28384614570824,128.09220815724763 111.20973333710934,127.82231140072952 110.4090310790632,127.34631961821144 109.71085774747513,126.65933912017043 109.28609496644182,126.40908717998552 108.74903856213835,126.31585678964522 108.2461584466623,126.0705155525221 108.15339415701237,125.49152085054374 108.20221746104289,124.80459750366799 108.15827653540933,124.25998042892091 107.76280772479434,123.5681886185622 106.18093248231634,121.38991993322244 105.4778768323252,120.9287819951289 104.51117532858535,120.61482118174311 103.21247527346222,119.87408714353005 102.0602451904205,118.9665985305467 101.56712977174448,118.21120335110035 101.72824669903711,117.34792542025548 102.11883319124904,116.60729844444873 102.64612489874845,116.00402408598039 103.20271063665407,115.54299593349877 104.80411515275038,114.69453241536223 105.71222871565558,114.03245856140933 106.85469416188916,111.78155103067779 108.5439806492263,110.1290646690338 110.3602077150408,108.97190464814254 111.46849687245498,108.99151705552592 112.55237431786001,109.72209075375304 113.46537019916629,110.86948154342514 114.10495552992582,112.3700022113217 114.3393074132562,114.12073398068206 114.13424956033602,114.5032646656753 113.26031228625423,115.51847342507155 112.63537397070381,117.53431218950102 112.47913936182228,117.81880020162266 112.31314011612658,118.01990598340683 112.20084649286446,118.41721773253299 112.06902353599617,118.64285463230685 111.69796643738229,118.93716709190039 111.42455588683356,118.95678800655628 111.20485101870628,118.8684938439226 111.02908707621255,118.8684938439226Z" name="Western" name_en="Western Province" gn_name="Western Province" admin="Solomon Islands" adm0_a3="SLB" iso_3166_2="SB-CH" iso_a2="SB" type="Province" type_en="Province" wikidataid="Q150325"/><path d="M97.02167969881533,100.69205329449562 97.34879587179564,102.69188951276936 97.79308798644315,103.53991100433134 98.66214288213,103.98599250754098 98.66214288213,104.43208256333715 96.92403309076232,103.42226456028432 96.05497819507548,101.18709485656998 94.94668909765518,99.12857486841072 92.51528829310453,98.63357674926554 92.72522852441965,98.45714426441987 93.1158150166396,98.0111681224132 93.33551988476086,97.81513734762133 92.35417136581792,97.36917336338968 91.30935258762922,96.550777874081 90.86994279138679,95.73731111207378 91.69505670144619,95.31098728760965 92.51040597470146,95.97252754966823 94.06298718676726,96.08033583048173 95.56186277640147,96.38416191725707 96.23562445597429,97.60930675379315 96.32838874562421,98.38363113970944 97.02167969881533,100.69205329449562Z" name="Western" name_en="Western Province" gn_name="Western Province" admin="Solomon Islands" adm0_a3="SLB" iso_3166_2="SB-CH" iso_a2="SB" type="Province" type_en="Province" wikidataid="Q150325"/><path d="M101.97236327916752,101.51549454660841 101.56712977174448,101.51549454660841 101.4499538300793,100.6626452291565 100.99589707862765,100.50090143943761 100.41978200710784,100.5401119708277 99.89249029961043,100.3146524017662 99.65813841628004,99.86864099397236 99.10643499677349,98.18759726333573 98.53520230365866,97.12904241889407 97.86144062408384,96.22734800803671 96.98262109159086,95.48739618747392 95.79133234132678,94.89937153225117 96.23562445597429,94.52206340195274 95.620450777228,94.46326270548424 95.3421579082782,94.31136147067743 95.29821692265075,94.06146164686865 95.38121651550067,93.69886649137273 96.85079813471656,94.20846123154656 98.25202711629777,94.10556137848775 99.550727111421,94.20846123154656 100.74689818008815,95.31098728760965 101.3181309332049,96.57528031804726 101.75754066945545,98.14839065991862 102.00653956798692,99.86373982940566 101.97236327916752,101.51549454660841Z" name="Western" name_en="Western Province" gn_name="Western Province" admin="Solomon Islands" adm0_a3="SLB" iso_3166_2="SB-CH" iso_a2="SB" type="Province" type_en="Province" wikidataid="Q150325"/><path d="M78.1465884539076,87.46211358130722 78.36629332202887,88.46635131196777 78.99611401598226,88.3193870280191 79.99210955013231,90.9305859065015 78.43952827807263,90.87179408309919 76.65259518267645,89.31876163467687 76.906476399611,87.46211358130722 78.1465884539076,87.46211358130722Z" name="Western" name_en="Western Province" gn_name="Western Province" admin="Solomon Islands" adm0_a3="SLB" iso_3166_2="SB-CH" iso_a2="SB" type="Province" type_en="Province" wikidataid="Q150325"/><path d="M137.34973296526888,118.00519084505484 138.16996455692723,118.5055101329177 138.73631493164098,119.25600984988816 138.92184351094085,120.22237627277823 138.58008038275133,121.34086226424185 138.16996455692723,121.34086226424185 138.0381416600468,120.34992014722197 137.59873186380236,119.72201896180913 137.12514577873853,119.31977896564837 136.9005585322143,119.05489313676938 136.69550061930224,118.19158302303252 136.177973548617,117.34792542025548 134.84997952307552,115.94516894098906 133.2681043405914,115.08197718488091 129.99694261077823,114.79752344884962 128.48830238433186,114.12073398068206 125.84696134846408,112.28173355508335 124.43108541167565,110.5899836324511 124.16743955792695,110.3987501922337 124.06979288987404,109.5161548656316 123.58155984960099,108.14819902690154 123.38626657349307,107.30981460630541 123.38626657349307,103.60853837617195 123.83055868814058,104.30462741432673 124.06491057147097,105.01544402499673 124.16743955792695,106.67736925480277 124.48967335251031,107.40296693496799 125.89578465249458,107.7951913349913 126.21801850707183,108.33941377359713 126.40842940477476,108.96209848083451 126.8331921858161,108.86403679630521 127.25307264844837,108.28548126413865 127.44836592455427,107.51573073181959 127.12613206997703,106.89308509332253 125.7102560731867,105.54979638151741 125.1341410616668,103.59873447934214 124.470144078892,102.15760282967892 123.53273654557049,100.76557370974936 122.48791770738991,99.86864099397236 121.75068576857738,99.68729816531486 121.19898234907082,99.8441351211482 120.59357330714072,100.13330612426715 119.66593047061721,100.3146524017662 119.27534397840529,100.06959016507007 118.84569887896087,99.6284845319667 118.41605371952458,99.54026438840054 118.05964357612395,100.3146524017662 117.40052891176225,99.92255405247815 116.90253117468318,99.92255405247815 115.97488827816578,100.3146524017662 115.91630033732913,100.36856648585614 115.43783187387035,100.60382920925304 115.15953900491253,100.69205329449562 113.11384237417072,100.7214614569899 110.89726411934427,100.51070409624715 110.20397316615315,100.69205329449562 109.6815637770568,101.54980526042402 109.28609496644182,102.67718424745881 108.64162725728734,103.75069570556143 107.338044943753,104.43208256333715 106.28346146876629,104.2065854581483 104.23288245962753,103.01540853873848 103.61282646248019,103.19677723840476 103.20271063665407,103.19677723840476 102.82677115964525,97.60930675379315 103.00253510213898,97.23685604058747 103.86670761942887,96.02153126367078 104.23288245962753,95.7569124025548 105.08729034010526,95.7520120332492 105.78546367169332,95.66870675341795 106.37134338001927,95.42369279352836 106.9279291179269,94.89937153225117 107.21598662369287,95.67850733809675 107.63098476792004,95.91372319080916 108.10457085298387,95.7471117251763 108.52445131562014,95.31098728760965 108.709979894922,94.75726776665121 108.71486221332508,93.45877278161302 108.97362574867071,92.84629978369043 108.76856789575054,92.13585086711765 109.10056638713593,91.31763592133765 110.4090310790632,89.74007909282554 111.0046754241973,88.83866469446204 111.90302429030046,86.8155046333593 112.47913936182228,86.02686122415295 115.03748074484426,83.51904823586621 115.97488827816578,82.90682865107497 116.94158978190563,82.53950434727113 118.75781690771402,82.05954220698298 119.66593047061721,81.70692302267364 119.636636440207,81.9909769603191 119.71475377464773,82.05954220698298 119.87587070193233,82.06933729238871 120.07604623644944,82.11831259804603 124.2406745139667,84.4643456306185 125.84696134846408,84.58679622855784 125.42708088583383,85.66928606165709 125.61260946513369,86.43342572147618 125.99831363894455,87.16329970794365 126.21801850707183,88.11363864996287 126.13990123262299,90.40146446286106 126.25707717429019,91.51851240415145 126.6671929401204,92.43472675625361 126.10084256540664,93.54207029613883 126.29613578151465,94.31136147067743 127.66807079267554,95.5314986329515 128.19048018176787,96.48217115419082 128.01471629926803,97.23685604058747 127.72665879350407,97.92295410795558 127.88777566080282,98.63357674926554 128.29789148662894,98.19739889428149 128.64941931162448,98.28561399738992 129.0302411070384,98.55026123088989 129.52823884411748,98.63357674926554 129.90906069952325,98.48654962680317 130.63164562312667,98.0111681224132 131.16870202743013,97.81513734762133 132.34046144408205,97.58970398549235 133.3169276446219,97.57990254723663 134.2592174963465,97.89845026365909 135.98268033250497,99.1383768915949 136.21703221583533,99.38342946315255 136.52950137361256,99.86864099397236 136.66132433048082,100.25093600990742 136.9005585322143,101.51549454660841 137.64267284942778,102.51542651918486 139.1952540614956,103.56932275338009 139.81042774023987,104.43208256333715 139.71278113217883,105.94198943687184 139.81042774023987,106.48616825927621 140.14730861002022,107.03035987242008 141.07983376494477,107.76577428602198 141.44112628674037,108.13349030293992 141.93912402381946,109.14841685544495 142.3297105160394,111.24705428843582 142.6714736442289,112.28173355508335 142.94488419478168,112.48279036718652 143.3354706869956,112.51711735473032 143.70652778560947,112.64952182867862 143.94087966893986,113.1055874503388 143.92135039532155,113.69407269826357 143.70652778560947,114.18939286960584 142.52012141374234,116.17078123822938 142.37365150165883,116.5190133792603 142.2613578783967,117.19096931371467 142.24182854479255,117.75013034810955 142.3150635008303,118.27987460316407 142.4615334129138,118.77038958311357 142.6714736442289,119.24129396739659 138.97554919336832,117.78937025612757 137.34973296526888,117.63731603639143 137.34973296526888,118.00519084505484Z" name="Western" name_en="Western Province" gn_name="Western Province" admin="Solomon Islands" adm0_a3="SLB" iso_3166_2="SB-CH" iso_a2="SB" type="Province" type_en="Province" wikidataid="Q150325"/><path d="M66.18487770724617,88.50554188746747 66.47293527300401,90.06342078601432 66.50222924342035,90.901189976711 66.18487770724617,91.65079788497374 66.65358147390693,92.92959515234918 66.47293527300401,94.40446209460082 65.79429127502613,95.62950433488562 64.75923713365161,96.13424021549571 64.21729841094508,95.39429130808404 62.708658124512844,90.99427726200287 61.82007389521381,89.63719852805919 61.67360398313029,88.29979191431251 62.09348444576857,85.404781760832 61.43925209979991,82.36319060594589 61.4587814334121,81.05557044255897 62.50360021160079,80.47279611045701 63.397066819288746,81.24656681025628 64.14406339491345,82.11831259804603 64.40770930865604,82.75500061067268 64.77388408885881,84.1704668674281 65.57946872530793,85.53703354909842 65.9017025198913,86.57547999709615 66.11652512960337,87.6531604432223 66.18487770724617,88.50554188746747Z" name="Western" name_en="Western Province" gn_name="Western Province" admin="Solomon Islands" adm0_a3="SLB" iso_3166_2="SB-CH" iso_a2="SB" type="Province" type_en="Province" wikidataid="Q150325"/><path d="M95.79133234132678,91.65079788497374 92.76428719164403,91.90067244196088 89.64936007070638,89.35795366337207 87.24237091816897,85.78194611395523 86.33425735526377,82.90682865107497 86.43678634171977,82.14769781673941 86.64184419463993,81.42287239993908 87.18866529573539,80.07122859265307 88.61918824773292,77.87741509645515 88.824246160647,77.39754460653737 89.62983073710022,76.61899912881498 91.47535183332494,75.88454479807994 93.53569547926983,75.3508551302404 94.97598306807352,75.1354240339646 97.76379401602281,76.59451696870356 99.73625569072688,78.7098658439937 100.9861323818216,81.29554046051707 101.56712977174448,84.17536480554661 101.65012942459028,87.03593757796052 101.47924786049151,88.05485367980533 100.57113429758832,90.55334069661548 99.54584479301792,92.28773813946563 98.28620340511917,93.07658779365848 97.02167969881533,91.65079788497374 96.51391732493211,91.84187816815985 96.26491842639061,91.87127525683165 95.79133234132678,91.65079788497374Z" name="Western" name_en="Western Province" gn_name="Western Province" admin="Solomon Islands" adm0_a3="SLB" iso_3166_2="SB-CH" iso_a2="SB" type="Province" type_en="Province" wikidataid="Q150325"/><path d="M77.94153054099354,67.29304699499455 78.39558735243907,68.15940566843611 77.4825914711328,70.08312283084506 75.2757778531105,73.08892214624531 74.15284174048108,74.01912928362113 72.69790713647632,75.52711831392654 71.7604996031548,77.21147488420952 72.185262444182,78.64620683231593 72.74673044049881,79.38074373665832 72.75649513730686,80.02715450312476 72.31708534106242,80.54135708451743 71.55544175023462,80.84988382222363 71.36503085252568,80.63930165018962 70.8670330554527,80.23283418789156 70.19815375427685,80.05653720058187 69.4950981042837,80.47279611045701 69.09474697526564,80.47279611045701 68.96292401839133,79.26321634800031 69.22168755373697,78.05859315682461 69.05080598963819,77.14781976058269 66.22393637447054,76.37907493792468 66.01887846155849,75.38023223000909 66.63405220029465,72.88330217557971 66.39970031696427,72.4035287337819 65.86264391266282,72.00209281123958 65.29629353794704,71.65940877292046 64.96429498656978,71.40484650950653 64.1831220621318,69.78941594299002 63.77300629629958,69.34886212142953 62.75748142853533,69.00621456775156 62.708658124512844,68.93768560867655 62.22530740263685,68.87894662462 62.166719401806304,68.70273062055834 62.23018972103992,68.44819853037596 61.60525134549562,67.07768565361937 61.24395888369391,66.88190417017545 60.453021262455906,67.29304699499455 59.33984978663866,64.57669230364826 59.764612627665855,61.87531061131859 61.361134825361106,59.61459264171597 63.77300629629958,58.229879548086586 64.55417922073956,58.41091552992222 65.11076495864718,58.675132465466724 65.60876269572627,58.71916889689098 66.18487770724617,58.229879548086586 66.3606416497419,58.733847684143036 66.67799318591607,59.17421636546289 67.4152251247266,59.87392888263352 67.56169503681012,60.17730670917653 67.4982247775724,60.441541933589775 67.55193040000599,60.62748689884391 68.4893379333275,60.7449265209639 68.6699841942243,60.92108700050013 68.69927816464262,61.23426412545771 68.68463114944154,61.71382408226116 68.93851236637607,61.95850106603351 69.51950975629896,62.19828675177185 70.10050714621983,62.60935319285191 70.603387201704,64.01877460610544 71.18926691002994,64.41518854132013 72.4049673123113,64.79692639987228 71.96555751606685,65.24718867258854 72.77602447091103,66.10368802608292 74.1333124668708,65.58978489372275 75.48083576602455,66.07432186554618 76.76977112434164,66.87211516313809 77.94153054099354,67.29304699499455Z" name="Western" name_en="Western Province" gn_name="Western Province" admin="Solomon Islands" adm0_a3="SLB" iso_3166_2="SB-CH" iso_a2="SB" type="Province" type_en="Province" wikidataid="Q150325"/><path d="M3.7398654964799345,43.41369153285863 4.696802363407619,43.912482339303196 5.365681664585482,44.562880617810464 5.922267402493103,45.26219891092726 6.610676037281147,45.87839682778545 5.365681664585482,47.017911978800925 4.091393321477512,47.316248177878265 1.0350541413745205,47.07660082555783 0,46.58753135438288 0.38570417380884486,45.4920487856143 2.0603436459429005,43.41369153285863 2.4802241085811745,43.55550364933106 2.817104978361511,43.54572350380836 3.7398654964799345,43.41369153285863Z" name="Western" name_en="Western Province" gn_name="Western Province" admin="Solomon Islands" adm0_a3="SLB" iso_3166_2="SB-CH" iso_a2="SB" type="Province" type_en="Province" wikidataid="Q150325"/><path d="M18.52356347990604,25.258157893406423 20.32026121211438,25.69308409302797 20.774318023559907,25.908106299920462 21.599431933619307,26.92948474611992 21.594549615218245,27.735863040402297 21.243021790222674,28.566701786970402 21.013552225293356,29.597954421020045 20.574142429050926,29.979185617179013 19.568382258092726,30.27244405142856 18.455210842271367,30.37508521583544 17.703331888249714,30.21379208815815 16.7171010509037,31.09358437937854 15.72110551675365,31.078920919467983 14.695816012183261,30.951838151555027 13.611938566778225,31.479724382236675 13.055352828870603,31.196228639935768 12.366944194080551,30.536379298385434 11.93241671624119,30.21379208815815 10.233365592091877,29.69081794576432 9.89160240390847,29.39267826734213 9.989249071955356,28.576476545848028 11.561359617633341,25.258157893406423 12.04959265790638,25.546478953406293 12.235121237214274,24.657091477625556 12.596413759007861,23.5624999677592 13.611938566778225,23.20578978765842 13.406880653866173,22.731812067991214 13.436174684276377,22.360453827704358 13.611938566778225,21.9793280706267 14.363817520793857,22.267615028907386 16.472984470767273,24.060924632801857 18.52356347990604,25.258157893406423Z" name="Western" name_en="Western Province" gn_name="Western Province" admin="Solomon Islands" adm0_a3="SLB" iso_3166_2="SB-CH" iso_a2="SB" type="Province" type_en="Province" wikidataid="Q150325"/><path d="M36.62236411878689,19.106394463039553 37.095950203848716,19.36045151468173 38.23353333168122,19.687797647165752 38.67294312792365,19.893001609144758 38.08218104120075,20.24966935241553 37.44259571044122,20.33761546712108 36.803010379683684,20.200810499560372 36.21224835295467,19.893001609144758 36.06577838087726,20.826210303742513 35.77772087511531,21.73990562991531 35.2992524716464,22.560791202914338 34.537608820824715,23.20578978765842 34.46925618319005,22.741584756718616 34.36184493832488,22.502155744410903 34.234904299859664,22.30181873232867 34.1274930549945,21.9793280706267 33.722259547573465,22.458179201808147 33.2535557809107,22.761130084468085 32.69697010299496,22.88328861989942 32.0817963642588,22.839311473147745 33.03385091278944,22.17966275634363 33.92243514208245,21.35878844118695 34.117728358194476,20.86529827985218 33.83943548923665,20.454877444720953 33.45861369382476,20.039576867993535 33.34143775215756,19.516795416715432 33.546495665071625,18.666685788055936 33.80525920041726,18.39797836637873 34.33255090791267,18.285610548210116 34.74754905214185,18.109731378673153 34.4253151975626,17.753090965741958 33.91267044528242,17.459965271689757 33.717377229170395,17.46485066284476 32.945968941542574,16.33145977891859 32.3307952627983,15.110184363332431 32.496794508485976,13.913385734368163 34.1274930549945,12.921790902670066 35.392016761298336,12.921790902670066 35.392016761298336,13.332101838946883 34.566902791245056,13.537259471876284 33.92243514208245,14.001312089662513 33.5025546794522,14.704732642445583 33.34143775215756,15.588918039442332 33.868729519648866,16.08720044055619 34.898901282626426,16.35100056465025 35.670309570262276,16.70273792715262 35.392016761298336,17.46485066284476 36.28548330899844,18.774169514455036 36.62236411878689,19.106394463039553Z" name="Western" name_en="Western Province" gn_name="Western Province" admin="Solomon Islands" adm0_a3="SLB" iso_3166_2="SB-CH" iso_a2="SB" type="Province" type_en="Province" wikidataid="Q150325"/><path d="M62.239954357852085,71.5957679476869 62.45965928596723,71.79648178507091 63.079715283114574,72.2419744628013 62.84048108138113,73.13787959942695 61.60525134549562,73.74495932393778 60.52625621849365,73.18683708917614 60.589726537725255,72.6532055957374 61.06819494120018,72.06083915706365 61.698015635145545,71.56149985536801 62.239954357852085,71.5957679476869Z" name="Western" name_en="Western Province" gn_name="Western Province" admin="Solomon Islands" adm0_a3="SLB" iso_3166_2="SB-CH" iso_a2="SB" type="Province" type_en="Province" wikidataid="Q150325"/><path d="M250.81510316443718,114.71905403629587 251.51815881442832,115.35662556854086 251.46445319199472,115.74898608426805 250.81510316443718,116.36696767608672 250.2682820633337,116.66125057096663 249.71169638541994,116.73972662576026 249.09164032827871,116.63182212790375 248.35929070786923,116.36696767608672 247.67088207308723,116.00402408598039 247.17288427601426,115.60675460323762 246.30871175872437,114.71905403629587 245.58124439672608,113.57147036707069 245.07836434124192,113.35569185083148 244.2581327495876,113.9294710441332 243.413489505916,112.98298827736924 242.48584660940665,112.48279036718652 241.82673194503292,111.76683992225952 241.7681440041983,110.19280824423696 242.20755380044272,108.60417532603628 242.99360904328375,107.5794670788641 244.194662430354,107.0205544696116 245.89859593289825,106.86366919242697 247.65135273947504,107.26568994373302 248.13958583975,108.2364518085384 247.94917494203904,111.05091184607437 248.31534972224983,112.34057924791666 249.0086407354288,113.18895523949763 250.81510316443718,114.71905403629587Z" name="Isabel" name_en="Isabel Province" gn_name="Isabel Province" admin="Solomon Islands" adm0_a3="SLB" iso_3166_2="SB-IS" iso_a2="SB" postal="IS" type="Province" type_en="Province" wikidataid="Q1139082"/><path d="M178.66889938747153,60.686206672227534 179.54283666155533,61.05810147673214 180.49977346849514,61.92913966256951 181.0954178736211,62.89808248071083 180.91965393112537,63.5636403808022 179.97248176099973,63.66641189158414 179.0790152132956,63.137877055006264 178.3906065185217,62.31084001651183 178.00978472310783,61.50829731242384 177.37996402915442,62.31573363497439 176.23749864291273,62.0563724958922 173.91839146162218,60.686206672227534 174.03556740328938,61.25873124986652 174.77279934210193,62.702333440592504 174.18691963377395,62.69254605534874 172.69292636254482,62.33041455616516 171.23310944012897,62.33041455616516 171.32099141137581,61.9487139077272 171.06711019443927,61.097248639887425 170.37870155965123,60.255598326172226 169.1825304309902,59.87392888263352 168.95794324446587,59.67331002072865 168.65523872349277,59.257397993657875 168.51853344822342,58.82681377301907 168.77241466515997,58.6408819334215 169.3485297366778,58.7044900579454 170.30546654361962,58.97360306420113 170.63746509499688,59.012746965516676 170.74487633986203,59.13017914967103 171.25263877374115,59.23782581792732 171.5944019019367,59.08614200981984 171.23310944012897,58.435379945189815 171.23310944012897,58.08798739293045 171.65298990276725,57.82866927755889 172.22910491428513,57.82377652065277 172.69292636254482,58.229879548086586 173.38133505732677,58.54302362634763 174.86068131334878,58.846385633793524 175.56373696333992,59.77606584945841 176.56461475589916,60.255598326172226 177.73149185414798,60.5785538879036 178.66889938747153,60.686206672227534Z" name="Isabel" name_en="Isabel Province" gn_name="Isabel Province" admin="Solomon Islands" adm0_a3="SLB" iso_3166_2="SB-IS" iso_a2="SB" postal="IS" type="Province" type_en="Province" wikidataid="Q1139082"/><path d="M261.05823339334324,114.92503673037396 262.8256371551272,116.27868360552945 263.5189281683122,117.29887653153575 262.7279905470742,118.00519084505484 262.19093414277074,117.90218532519594 260.27706046890324,116.77896478505056 259.98900290314737,116.7201075715575 259.2908295715593,116.81820301218771 258.99788974739226,116.77896478505056 258.7000675448283,116.46015683976538 258.55847995114783,116.04816557487752 258.3778337502429,115.69013159952887 257.33789723047147,115.28305866488641 256.62507694366815,114.17958447007386 255.3849648893816,113.77744263546144 254.96508442675133,113.37040392065879 254.13020581988388,112.28173355508335 252.24074379803164,110.81554310415962 251.66951104491488,110.19280824423696 251.5376881480405,109.60441288632958 251.66462872651184,109.07486995811432 251.51815881442832,108.69242979215274 250.61004525152512,108.54533914272527 249.92651893514417,108.13839320988356 247.1289433503807,105.66255121229156 242.1343187844091,104.60365798240682 239.99585786401332,103.30952065666816 238.5018645927882,102.69188951276936 237.1641059304406,101.57431291816683 236.1876397898946,101.05965743856338 235.16235028532623,100.82439013587916 234.35676570886898,101.1037703286231 232.33548067015053,99.88334455404339 231.2369562095424,99.55986884278295 230.22143140177405,99.86864099397236 229.6160223598359,98.48164869037214 229.06920131873233,97.72692400717816 228.3807926839443,97.40347801808261 227.54591407708486,97.33486881883546 226.75497645584485,97.07023518017438 226.20815541473726,96.57037983926448 226.12515576189148,95.7569124025548 224.82157344836517,96.19304506272736 223.53263809005009,95.94312538206427 222.31693768776674,95.28648615382569 216.69737480624067,91.20005045299918 216.32631764763894,91.13635854860928 215.40355712951853,91.26864191081519 215.0276176525097,91.20005045299918 214.77373643557317,90.81300234419764 214.72491313154265,90.2789843222093 214.7346777683508,89.78417089016685 214.65656049390796,89.51962132396743 214.17809203044115,89.43633785288253 213.93397551030463,89.66169384906276 213.72891759739258,89.9262449850806 213.38715446919502,89.96543794782056 211.74669128588238,89.14239835893011 211.36098711207353,89.08361092885107 210.4968145347958,89.19628703338655 210.10622810256973,89.14239835893011 210.0964634057697,88.97583426783314 209.832817552021,88.15282864978995 209.6961122767436,87.90789197397211 209.0223505971708,87.59437665953077 208.51458822328556,87.44741770855907 208.1825897319022,87.11431418895383 208.065413790237,86.23259182375952 207.66506266121092,86.53629256652094 206.38589193969997,87.08492293745073 206.27848063484694,85.88970846582494 205.7414242305435,84.96884591409751 204.87236933486466,84.3810796429121 203.7445509038322,84.17536480554661 200.2439196690836,82.52970907242488 199.92168581450636,80.23283418789156 199.42368807742727,79.18976202433392 198.39839857285688,79.46888966380462 196.56752449183526,79.02816326435774 195.69358727774534,78.46502442921114 196.14276171079993,77.6032022650648 195.48364704643024,76.86871854191415 194.8831203229012,76.36928219050466 194.47300455706895,76.36928219050466 193.84318386311557,77.18209559903342 193.2133631691702,76.42803891395535 192.39313157751386,74.2737183873349 191.71936989793906,73.47568826005407 190.81125633503586,72.77070144847562 189.77131987525024,72.4035287337819 188.7411480522788,72.67768384998695 188.1601506623559,71.60066337611501 185.54810365690034,70.15655007810446 184.60093142677678,69.34886212142953 184.30799160261176,68.53630551092597 184.33728557303007,67.89998439833028 184.4984025003167,67.32241458017324 184.60093142677678,66.68612427322037 184.60093142677678,64.194957835913 179.9138937601692,60.28495773706082 176.8233783512387,58.6408819334215 176.2960865837494,57.70635033468599 176.2082046125005,56.67400160082955 176.6232027567297,55.97926893114467 177.63872756450007,56.13582678098012 178.87395730038358,56.879489460376256 184.76693067246646,58.88552940031275 185.26004615113638,59.21825365720402 185.8459258594623,59.23782581792732 186.3780998853608,58.523451997855744 187.0176852761142,57.911846468378165 187.8818577934061,58.229879548086586 188.10156272151926,57.99991677915821 188.27244428561804,57.877597018291546 188.45797286491788,57.80909819541882 188.7411480522788,57.74059955575926 189.18055784852322,58.924673226805155 190.04961274420808,59.69777564523193 192.39313157751386,60.686206672227534 192.62748346084425,60.33389024391463 193.03759922667646,59.91307422513304 193.48677371971692,59.56076848633419 193.85783081833281,59.42376200306276 194.60482745394336,59.67331002072865 194.92217899011953,60.28495773706082 195.11747220623155,61.0287411739801 195.49829400164546,61.71382408226116 196.67005341829736,62.81488894332384 197.39263840189466,63.34341709514485 197.98828280702665,63.5636403808022 198.36910460244056,63.96004717594723 199.31627677256822,65.7072475400884 200.4050365963702,66.34351306417234 201.32779711449064,67.57693523228566 201.84044186677082,68.11535280260466 202.5874385023894,68.56567455332839 204.7454287563853,69.34886212142953 205.8195415649862,69.99501039541157 207.62600399399255,71.53702270126237 208.88564538189334,72.22728780130807 208.27047164315516,73.41693856282876 208.7245284546007,74.47934996895836 209.66193598792222,75.03750137547866 210.51634386840195,74.72415165913544 212.9135683841312,75.70338281786593 213.61662403412035,76.16363485316482 214.02673979995458,76.92747645836116 214.26109168328696,77.80886158631583 214.64191347869885,78.32791431519013 215.4767920855663,78.0145226913981 217.1074905720709,79.28770117156607 218.4647785680327,78.64620683231593 219.57795004384795,78.40626289223277 220.67647450445608,78.48461165957002 221.9947038331915,78.8273905755519 221.2330602423637,79.17507116199448 221.42347114007467,79.72843224782387 222.05329183402003,80.24752568603112 222.6245245271449,80.47279611045701 223.64004933490722,80.57074040089593 224.206399709629,80.85478109107834 224.54328057940734,81.37389849368253 224.8508674187835,82.11831259804603 225.87615692335388,81.36410374831641 226.48156590529211,81.88323200613486 226.96003436875893,82.84805641320658 227.57520804750118,83.35252298360882 229.52814038858705,83.51904823586621 230.3288427066311,83.29374966645004 230.66572351641955,82.52970907242488 231.7788949922348,83.0390667967387 232.23295174369247,83.33293184200757 232.71630252555832,83.76394043274654 233.65371005887985,83.06845312909797 234.2737660560272,83.7345531975682 234.79129312671645,84.98843837916898 235.3967021686546,86.02686122415295 236.37316836919447,86.77141834675305 238.07710181174684,87.7119444308267 238.86315711458178,88.3193870280191 239.01939166347145,88.40756547838771 239.7175649950575,88.69659704761187 239.8493879519338,88.88765378934329 239.99585786401332,89.37265064551043 240.09350447207035,89.51962132396743 242.88131542002165,91.7389886131571 248.43252566391502,95.04147615016177 260.0182969335576,103.73598977206754 260.2819427873063,104.32423586721212 258.99788974739226,105.66255121229156 257.74801305629757,107.38335587769315 257.293956244846,107.72164875270087 256.7666645373486,107.42257794863573 256.0929028577758,107.25588444112965 255.41914117820298,107.33432833743757 254.9064964259208,107.72164875270087 254.9504374115402,108.06975242669506 255.8927272632668,108.73655718203413 256.3907250603398,109.74660704938321 256.95707543505955,109.74660704938321 257.5234258097733,109.46221960193186 258.01165891004626,108.92777680762973 258.5682446479539,109.42789724363173 260.3698247585532,111.92866239335312 260.85317548043116,112.83587007741718 261.01917472611683,113.69897679315244 261.05823339334324,114.92503673037396Z" name="Isabel" name_en="Isabel Province" gn_name="Isabel Province" admin="Solomon Islands" adm0_a3="SLB" iso_3166_2="SB-IS" iso_a2="SB" postal="IS" type="Province" type_en="Province" wikidataid="Q1139082"/><path d="M171.41863801943686,56.95777103975602 170.9304049191619,56.444052787866646 170.4226424852848,55.76400348157275 169.76352782091107,55.15735595574599 167.9717124071138,54.712164044256056 166.70230638240892,53.865831387900975 165.8967217459598,53.679935439599646 165.4524296313143,53.34728288811132 165.3694300384644,52.66242344645258 165.61842887701002,52.07052380806729 166.10177965887186,52.03628206045517 166.68277704879674,52.42272693034112 167.30283304594408,52.66242344645258 167.84477176865062,53.00485087196368 168.18165263842894,53.679935439599646 168.967707881272,53.43533757642012 169.67076353126313,53.72885528999884 171.0475808608291,54.902959627507514 171.78481285963352,54.30611660582837 173.08839517316784,54.40395877182911 174.50915348835122,54.95188179633233 175.59303093375624,55.724864480616226 175.01203354383537,56.028193145533876 174.6116824148153,56.444052787866646 174.50427116994814,57.006697118089996 174.77279934210193,57.74059955575926 172.1070466542189,57.21218770219555 171.41863801943686,56.95777103975602Z" name="Isabel" name_en="Isabel Province" gn_name="Isabel Province" admin="Solomon Islands" adm0_a3="SLB" iso_3166_2="SB-IS" iso_a2="SB" postal="IS" type="Province" type_en="Province" wikidataid="Q1139082"/><path d="M166.49724846949687,48.754178407487075 166.2628965861665,49.29709105777515 166.10177965887186,49.89381881022873 166.0431917180372,50.529691310702766 166.0773680068566,51.17536239797235 165.1887837775656,50.661759109149145 164.88607925660054,50.3536020154053 164.4466694603581,52.44718565570047 163.6166732318876,51.85039924812714 163.09914616120437,51.03840052088653 162.42538448163154,50.39762418247478 161.16574309373078,50.3536020154053 161.16574309373078,49.9818617847487 161.9859746853871,49.1210100293629 162.3960905112112,49.1210100293629 162.96244088592496,49.22372377817314 164.51990447638772,47.741749911601545 165.6672521810325,47.47764458410801 165.6672521810325,49.1210100293629 165.8967217459598,49.01340553445581 166.29219055658282,48.87156395871015 166.49724846949687,48.754178407487075Z" name="Isabel" name_en="Isabel Province" gn_name="Isabel Province" admin="Solomon Islands" adm0_a3="SLB" iso_3166_2="SB-IS" iso_a2="SB" postal="IS" type="Province" type_en="Province" wikidataid="Q1139082"/><path d="M126.20337155185659,48.299314399142496 126.64766360650822,48.754178407487075 126.27660650790237,49.20905039508422 126.14478355102807,49.83512363909517 126.27660650790237,50.529691310702766 126.64766360650822,51.17536239797235 125.00720042319556,49.9818617847487 124.94373016395583,50.88187353638036 124.33343880361463,51.21938595594236 122.47815307058377,51.17536239797235 122.47815307058377,50.803610427524724 122.83944553238548,50.60306220704793 123.36185492147983,50.1872964688707 123.70850042807233,49.9818617847487 121.34056994275328,49.287308713862465 120.67169058158153,48.93514803674084 120.19322217811462,48.8568907735238 118.66017029966102,48.93025696218999 118.04499656092486,48.754178407487075 119.02634507986579,48.049876170421996 120.05651690283725,47.47764458410801 121.63350982691219,47.78087687554835 123.3325609510615,47.580351878357014 124.84120117750588,47.643932817597104 125.82254969644882,48.754178407487075 126.20337155185659,48.299314399142496Z" name="Choiseul" name_en="Choiseul Province" gn_name="Choiseul" admin="Solomon Islands" adm0_a3="SLB" iso_3166_2="SB-CH" iso_a2="SB" postal="CH" type="Province" type_en="Province" wikidataid="Q399063"/><path d="M136.08032694055595,48.524299944826886 136.19262056382007,49.42426138154339 136.9005585322143,51.630276615665835 137.34973296526888,52.44718565570047 135.72391679715932,52.54012903462799 134.8695088566877,52.48631962822114 133.86374868572952,52.06563208413583 133.47316225350343,52.15857409500922 133.05816410927628,52.33956740072255 132.60410735782463,52.44718565570047 132.15005054637308,52.31021706695872 131.76922875095718,51.74767513267508 131.37375994034218,51.62538503483596 130.22152985729645,50.94057106767741 130.84646823284677,49.42915254866188 132.8091652107428,47.07660082555783 135.66532879632877,48.093894512099254 136.08032694055595,48.524299944826886Z" name="Choiseul" name_en="Choiseul Province" gn_name="Choiseul" admin="Solomon Islands" adm0_a3="SLB" iso_3166_2="SB-CH" iso_a2="SB" postal="CH" type="Province" type_en="Province" wikidataid="Q399063"/><path d="M121.29662895713184,44.02984625407381 121.29662895713184,45.496939278871004 121.09157104421779,46.29409408138297 120.31528043818288,46.63643788535507 118.64064096604884,46.70001653587134 117.91805598244551,47.1255082681331 116.38500410399189,49.9818617847487 116.27271048072977,49.27752643372152 116.01394694538413,48.900910474013635 115.6428897867824,48.8568907735238 115.15953900491253,49.1210100293629 114.37348376206947,48.494953852479085 112.9185491580647,48.16725855942425 110.20397316615315,47.927603420968055 109.03709606790231,47.55100690464191 108.23151149145511,46.773376680870385 107.98739491131667,45.65832450379844 108.52445131562014,44.23523437524275 108.01668888173701,44.41617285809754 107.66027873833636,44.69980862053554 106.9279291179269,45.46759657333009 106.4641076696692,45.24752768488817 106.19069717911435,45.433363538337716 106.10769752627257,46.289203439862156 104.965232080037,45.628981618300784 102.82677115964525,44.91009228224807 101.56712977174448,44.23523437524275 98.38873239157515,43.97605441258416 97.84679366886861,44.02984625407381 97.46108949505776,44.61667365548289 96.6115639329831,44.58733199043206 95.76692068931152,43.97116426153656 95.11757066175396,42.15697593324776 94.47310301259135,41.286600850339475 93.6577537393381,40.49448655373276 92.92540411892863,40.13266435626636 92.39323003303426,40.421143773633936 91.22147061638236,40.89543036549867 90.39147432792802,40.993222447088876 90.87970742819293,40.13266435626636 90.32312169028532,39.145012651620924 89.42477282418616,38.352961924811424 88.26766042273736,37.82494117920916 86.96407804921718,37.63426957689158 86.14384645756084,37.326264465478616 85.177144953821,36.553822736935615 79.57222908749404,30.008511360695326 79.3183478705595,29.451328465211684 79.17187795847599,28.70354824862599 78.9082320447334,28.04375916774086 78.35164636681965,27.75541190851857 77.5509440487736,27.545262411852875 77.10665199412198,27.032113427835945 76.49636057378689,25.70285776871728 74.14795942208002,22.448406612889567 73.41560980166855,21.9793280706267 72.83461241174767,21.402763244207595 70.7352101585783,17.841029294755195 69.74897932122626,17.15218656084115 66.89769805404336,15.667079384934167 66.00423150634126,15.383745469971087 65.28652884114902,15.056449478724353 58.59285321101396,9.239026745270158 58.446383238936555,9.033899975491687 57.181859532634725,8.008288244415864 56.78150840360864,7.173174239084166 56.31280463694788,3.9062061230992486 56.332333970560065,2.695226249119446 56.78150840360864,1.8553826926284356 58.78326410872492,0.1855329833335716 59.80855355329942,0 61.19513557966339,0.19529788446223137 62.39618896673562,0.6396054687665641 63.10412693512782,1.4159392931984756 63.51912507935701,1.6112466876760378 63.953652497204494,1.9237411519149779 64.14406339491345,2.455966042451612 64.40770930865604,2.988200593080141 64.97894200177286,2.9979664913279414 65.56482171009883,2.783118266770162 65.82358524544446,2.6463974783708477 68.09875144111358,3.310475825913704 69.69039132039774,4.506831755673154 72.77602447091103,8.008288244415864 73.62066771458261,8.740864329924227 76.33036132809922,10.55773381732571 78.89846740792123,11.24641618600843 82.64321522280623,13.781496773065296 85.14785098340268,14.973404863526115 87.31560587421275,15.373975410542517 88.34089537878113,15.891794542119413 89.08300969599061,16.14093728810914 89.73724198195936,16.526868726616666 90.02041722931415,17.249893715279622 90.25476911264452,17.689580115006876 90.80159015375212,17.757976407896006 91.47535183332494,17.72377827063692 92.07099617845702,17.841029294755195 92.66175820518805,18.33935159894866 93.95069356350312,20.112864755968797 96.23562445597429,21.9793280706267 96.73850451145444,22.858856869765166 96.9093861355471,23.90944169989811 97.02167969881533,26.48965208702099 97.685676741584,29.187403716809847 98.66214288213,31.479724382236675 99.24802259045595,32.24224489600081 99.87296096599823,32.882583122317655 100.4246643855028,33.65003136181211 100.74689818008815,34.75969246011986 101.66965875820247,34.2073004225184 101.97236327916752,33.909111152813246 102.44594936423135,34.960120725600206 103.23688698546935,35.742293944444484 104.27682344525498,36.24094123400851 105.4778768323252,36.402270290816325 106.28834378716937,36.77870850452763 106.86934117709224,37.639158563058785 107.22086900208781,38.665868083097294 107.338044943753,39.4970427298263 107.67492575354748,40.01531768347345 108.46586337478348,40.391806754221534 110.20397316615315,40.95410554725905 110.88261716412903,41.34527695570317 111.61984910293957,41.932044839621746 112.27408144890822,42.65085314745969 112.69884422994353,43.41369153285863 113.07478370695236,43.41369153285863 113.22125367902976,42.41613807506887 113.66554579367526,42.3819089949264 114.29536642763678,42.75354168314266 114.95448115199436,43.0029296561767 116.24341651031145,43.00781968822677 116.84394317385262,42.890460310098625 119.02146276146273,42.09340828955442 120.19322217811462,42.04939997312212 121.00368913296481,42.63618343206678 121.29662895713184,44.02984625407381Z" name="Choiseul" name_en="Choiseul Province" gn_name="Choiseul" admin="Solomon Islands" adm0_a3="SLB" iso_3166_2="SB-CH" iso_a2="SB" postal="CH" type="Province" type_en="Province" wikidataid="Q399063"/></svg>