<?xml version="1.0"?><svg fill="#3498db" stroke="#ecf0f1" stroke-width="1" width="800" height="472" viewBox="0 0 800 472" xmlns="http://www.w3.org/2000/svg"><path d="M23.910991828078604,469.1655281551404 23.737257465884426,470.1124802045658 23.1903161046416,471.28000220177154 22.385990494333985,472 21.530188018393428,471.6432418958619 21.440103543083755,470.7935284287117 22.109302479955982,469.9762726299698 23.08736237338961,469.386048172519 23.910991828078604,469.1655281551404Z" name="Outer Islands" admin="Seychelles" adm0_a3="SYC" iso_3166_2="SC-X02~" iso_a2="SC"/><path d="M102.78637882042685,468.61423623479357 102.78637882042685,467.4273762057501 103.23036652948652,467.1290481722098 103.45557767823158,467.583026936733 102.78637882042685,468.61423623479357Z" name="Outer Islands" admin="Seychelles" adm0_a3="SYC" iso_3166_2="SC-X02~" iso_a2="SC"/><path d="M563.4912210639044,128.3700891361389 564.0960738792113,129.14056975166042 564.2891120857776,129.51939400144883 564.3405888723331,130.0137963816493 564.0059894829651,129.6349681372648 563.8000820995286,129.24330142926993 563.4912210639044,128.3700891361389Z" name="Outer Islands" admin="Seychelles" adm0_a3="SYC" iso_3166_2="SC-X02~" iso_a2="SC"/><path d="M22.778501337765334,440.2996543592323 24.400021814327513,441.4270021298182 25.12713212619498,442.18507249229367 24.72175202682594,442.5219994465239 23.698649856203726,442.936684452308 20.996115834024092,444.9842844578104 19.54832971965146,445.78133506885223 13.705708396531957,445.632291294231 7.309711123729246,447.60232710919 2.1362888165587344,447.8421110141205 0,442.5219994465239 1.8274277809344612,444.7639656677411 5.276376038426471,445.7748549050246 8.944100777165577,445.5674899223212 11.402119885290903,444.1483784835789 12.779125289658477,444.21965634033575 14.915414185285377,443.5457645777714 16.935880093713337,442.63214957895104 17.965416852771305,441.9323800298286 18.454446839023525,442.5219994465239 19.007822867774237,441.9323800298286 19.79284471277327,442.32113868982134 20.66795095402307,442.5219994465239 20.66795095402307,441.9323800298286 19.876494520580348,441.4205230030954 19.406768378708847,440.68191072788727 19.14938420871222,439.7619128376452 19.007822867774237,438.71237567397355 22.778501337765334,440.2996543592323Z" name="Outer Islands" admin="Seychelles" adm0_a3="SYC" iso_3166_2="SC-X02~" iso_a2="SC"/><path d="M6.048528627487154,439.8007854196677 5.906967286549832,439.54163626159317 5.945574896235163,439.3602333357924 5.88122885373733,439.25657509521255 5.456544909982944,439.21122476332744 5.43724114467833,438.8419459796595 5.585237074050744,438.77716075017076 5.8168828112348665,438.80307483949025 8.525851500921725,437.8183571576899 11.569419579972562,438.01270650356946 14.68376836903309,438.56984899808924 17.37343321433857,438.71237567397355 16.07364302934298,439.95627606158826 13.60275474434747,440.25430221775633 11.11899728247847,439.904445722816 9.780599408724754,439.21122476332744 8.776801082483257,439.7619128376452 6.981546322799696,439.5027641275375 6.048528627487154,439.8007854196677Z" name="Outer Islands" admin="Seychelles" adm0_a3="SYC" iso_3166_2="SC-X02~" iso_a2="SC"/><path d="M793.8243383412621,268.44222488953733 794.7509214481349,264.29323896722565 795.5874200796987,262.67629592438215 797.015902428762,261.90328120364427 796.6619991159446,263.63614574093094 795.8319350728206,265.3497671576512 793.8243383412621,268.44222488953733Z" name="Outer Islands" admin="Seychelles" adm0_a3="SYC" iso_3166_2="SC-X02~" iso_a2="SC"/><path d="M516.6730357339919,252.74431805787236 517.0977196777417,253.59441972695313 516.7952932305571,253.51713697353483 516.6987741668078,253.33037090399839 516.6987741668078,253.07276404562768 516.6730357339919,252.74431805787236Z" name="Outer Islands" admin="Seychelles" adm0_a3="SYC" iso_3166_2="SC-X02~" iso_a2="SC"/><path d="M725.4888342489019,162.60478075908605 725.4116189504571,163.51720885201036 725.2700576885873,163.79993691213323 725.2571884326456,163.47222951264723 725.4888342489019,162.60478075908605Z" name="Outer Islands" admin="Seychelles" adm0_a3="SYC" iso_3166_2="SC-X02~" iso_a2="SC"/><path d="M747.3793601685485,0 747.8683900757293,1.627076110177646 747.2892756932335,1.620670237580884 746.7616380972993,0.7943156930867906 747.3793601685485,0Z" name="La Digue and Inner Islands" name_en="La Digue" gn_name="Inner Islands" admin="Seychelles" adm0_a3="SYC" iso_3166_2="SC-15" iso_a2="SC" wikidataid="Q581154"/><path d="M715.7983192364146,55.83139392178888 714.3505331220421,56.13914955050653 713.2502157320524,54.837611145527376 712.7290127245526,52.9462661402587 713.044308348612,51.48452374375314 714.3569677104817,51.91406696757757 715.7725808036034,52.90779869801298 716.5061257829782,54.26058393963285 715.7983192364146,55.83139392178888Z" name="La Digue and Inner Islands" name_en="La Digue" gn_name="Inner Islands" admin="Seychelles" adm0_a3="SYC" iso_3166_2="SC-15" iso_a2="SC" wikidataid="Q581154"/><path d="M760.9905796293556,43.019008951834174 761.9608307325244,43.429066607647755 762.4900586069812,44.42493285759703 762.9898849328562,45.1864890773777 762.4606570584001,45.45010700658119 761.9608307325244,45.91876404649555 761.7550198924586,46.592465151368096 761.1963904694214,46.44600772558481 760.49075330348,45.74301721475386 760.3143440119946,44.77641910997735 760.7259656921276,43.80983699796741 760.9905796293556,43.019008951834174Z" name="La Digue and Inner Islands" name_en="La Digue" gn_name="Inner Islands" admin="Seychelles" adm0_a3="SYC" iso_3166_2="SC-15" iso_a2="SC" wikidataid="Q581154"/><path d="M763.901332938864,41.4373847864576 764.2835530704159,41.52525168137503 765.0479933335189,42.345349017880686 765.1655995278427,42.960429520556545 764.6951747505482,43.077588441550866 764.2835530704159,42.638243692683865 763.7543251959592,41.90600973917989 763.901332938864,41.4373847864576Z" name="La Digue and Inner Islands" name_en="La Digue" gn_name="Inner Islands" admin="Seychelles" adm0_a3="SYC" iso_3166_2="SC-15" iso_a2="SC" wikidataid="Q581154"/><path d="M763.7249236473787,38.7428633918386 763.9895375846068,38.7721510097329 764.0777422303494,39.270042722236404 764.312954618997,39.7679386102251 764.0189391331878,39.797226733800514 763.7249236473787,39.182179175622096 763.7249236473787,38.7428633918386Z" name="La Digue and Inner Islands" name_en="La Digue" gn_name="Inner Islands" admin="Seychelles" adm0_a3="SYC" iso_3166_2="SC-15" iso_a2="SC" wikidataid="Q581154"/><path d="M767.9587466430273,42.75540197115016 768.3409667745791,42.989719228891744 768.2527621288365,43.45835654987233 768.1645574830944,43.985578012654905 767.8705419972853,43.83912713046451 767.7823373515427,43.25332726143916 767.9587466430273,42.75540197115016Z" name="La Digue and Inner Islands" name_en="La Digue" gn_name="Inner Islands" admin="Seychelles" adm0_a3="SYC" iso_3166_2="SC-15" iso_a2="SC" wikidataid="Q581154"/><path d="M769.5497787225961,62.02123581240265 769.888175065646,62.1204186977695 770.2862884104106,62.636172553960726 770.3460054121261,62.99323572122367 769.9279864001226,63.13209424004236 769.470156053643,63.092420342053444 768.9924200399246,62.616335778664684 768.9526087054487,62.31878499916683 769.2113823795456,62.1204186977695 769.5497787225961,62.02123581240265Z" name="La Digue and Inner Islands" name_en="La Digue" gn_name="Inner Islands" admin="Seychelles" adm0_a3="SYC" iso_3166_2="SC-15" iso_a2="SC" wikidataid="Q581154"/><path d="M733.0144015667528,72.08802124061168 732.2371690963726,72.01424257689753 731.459936623452,70.87068654692513 730.7197151937709,69.83781792425447 730.7974867713424,69.52508971213223 730.51978174572,69.42129780368248 730.55449488281,68.93693824694802 731.2140443453283,68.83314752836233 731.5264625791476,68.24500351709095 733.1579798091079,69.38670061565182 732.9740002180806,68.8366071827298 733.3878079754531,68.60849136497836 734.3729394650876,69.83646662363532 734.0952343683568,70.66681362102962 733.2274060832918,71.3587791917216 733.0144015667528,72.08802124061168Z" name="Grand'Anse" name_en="Grand'Anse Praslin" gn_name="Grand Anse Mahe" admin="Seychelles" adm0_a3="SYC" iso_3166_2="SC-13" iso_a2="SC" wikidataid="Q1231388"/><path d="M734.0877225926823,74.44899077433855 733.5695676213792,73.74806717360958 733.1994569199886,73.26849309791254 733.3104901304055,72.60447449049535 733.0144015667528,72.08802124061168 733.2274060832918,71.3587791917216 734.0952343683568,70.66681362102962 734.3729394650876,69.83646662363532 734.7687773831624,69.97454864311516 735.0324889276012,72.05075359137497 735.3821602754816,73.14611648700988 735.1517219315816,74.6637237067076 734.0877225926823,74.44899077433855Z" name="Anse Boileau" name_en="Anse Boileau" gn_name="Anse Boileau" admin="Seychelles" adm0_a3="SYC" iso_3166_2="SC-02" iso_a2="SC" wikidataid="Q569453"/><path d="M734.2168853574855,77.61643949818142 734.0507115331872,77.32656269887457 733.7176119019354,76.47803183575743 733.0144015692937,76.21978598506415 732.4592355172068,76.58870901049592 731.867058394982,76.29357038667341 732.2371690963726,74.85479287791163 733.550260223764,74.8617698127591 734.0877225926823,74.44899077433855 735.1517219315816,74.6637237067076 735.1019152017845,74.9917435519028 735.2060546130585,76.41039627254642 735.518472846878,77.20624224558908 735.553185983972,77.6906760510543 734.2168853574855,77.61643949818142Z" name="Baie Lazare" name_en="Baie Lazare" gn_name="Baie Lazare" admin="Seychelles" adm0_a3="SYC" iso_3166_2="SC-06" iso_a2="SC" wikidataid="Q2494551"/><path d="M736.7895307234793,77.10520552225823 736.903823311063,78.18659230831086 737.4927410561216,78.65472505610086 737.7518185470947,79.76155235114918 736.3083868116705,79.76155235114918 735.0870214970814,79.13434738540822 734.2168853574855,77.61643949818142 735.553185983972,77.6906760510543 735.518472846878,77.20624224558908 736.7895307234793,77.10520552225823Z" name="Takamaka" name_en="Takamaka" gn_name="Takamaka" admin="Seychelles" adm0_a3="SYC" iso_3166_2="SC-23" iso_a2="SC" wikidataid="Q2287379"/><path d="M736.9745860741749,74.4858817800761 736.3083868116705,74.67033701251361 736.0863203908362,75.5557309446005 736.7895307234793,77.10520552225823 735.518472846878,77.20624224558908 735.2060546130585,76.41039627254642 735.1019152017845,74.9917435519028 735.1517219315816,74.6637237067076 735.3821602754816,73.14611648700988 735.518472846878,73.57312837411554 736.9745860741749,74.4858817800761Z" name="Anse Royale" name_en="Anse Royale" gn_name="Anse Royale" admin="Seychelles" adm0_a3="SYC" iso_3166_2="SC-05" iso_a2="SC" wikidataid="Q3241674"/><path d="M736.8319853819779,70.72638447283411 736.4564310922274,72.19868935815884 736.7525196533398,72.67825393266422 736.9745860741749,74.4858817800761 735.518472846878,73.57312837411554 735.3821602754816,73.14611648700988 735.0324889276012,72.05075359137497 734.7687773831624,69.97454864311516 735.0672020646952,70.0786498258819 736.8319853819779,70.72638447283411Z" name="Au Cap" name_en="Au Cap" gn_name="Au Cap" admin="Seychelles" adm0_a3="SYC" iso_3166_2="SC-04" iso_a2="SC" wikidataid="Q2667004"/><path d="M737.0115971443136,70.02225731568365 736.8319853819779,70.72638447283411 735.0672020646952,70.0786498258819 735.2520043750287,69.79835623218423 737.0115971443136,70.02225731568365Z" name="Anse aux Pins" name_en="Anse-aux-Pins" gn_name="Anse aux Pins" admin="Seychelles" adm0_a3="SYC" iso_3166_2="SC-01" iso_a2="SC" wikidataid="Q569458"/><path d="M735.8327708135652,68.91750485561575 736.0493093206975,69.06317932538964 737.0115971443136,70.02225731568365 735.2520043750287,69.79835623218423 735.8327708135652,68.91750485561575Z" name="Pointe La Rue" name_en="Pointe La Rue" gn_name="Pointe Larue" admin="Seychelles" adm0_a3="SYC" iso_3166_2="SC-20" iso_a2="SC" wikidataid="Q2877260"/><path d="M734.1232873185182,67.7554309568347 734.5688665151346,68.06723155983235 735.8327708135652,68.91750485561575 735.2520043750287,69.79835623218423 735.0672020646952,70.0786498258819 734.7687773831624,69.97454864311516 734.3729394650876,69.83646662363532 733.3878079754531,68.60849136497836 733.9216686829002,68.31419653917887 734.1232873185182,67.7554309568347Z" name="Cascade" name_en="Cascade" gn_name="Cascade" admin="Seychelles" adm0_a3="SYC" iso_3166_2="SC-11" iso_a2="SC" wikidataid="Q1928685"/><path d="M732.8293461831263,66.84998665410431 734.1232873185182,67.7554309568347 733.9216686829002,68.31419653917887 732.7761353722167,67.44928930657478 732.8293461831263,66.84998665410431Z" name="Roche Caïman" name_en="Roche Caiman" gn_name="Roche Caiman" admin="Seychelles" adm0_a3="SYC" iso_3166_2="SC-25" iso_a2="SC" wikidataid="Q2718315"/><path d="M732.5222924802484,66.45437896122549 732.8293461831263,66.84998665410431 732.7761353722167,67.44928930657478 732.8455615752885,67.86444307011928 732.7067090980333,68.03742476337317 732.9740002180806,68.8366071827298 733.1579798091079,69.38670061565182 731.5264625791476,68.24500351709095 731.9430201531335,67.41469329569341 732.1512989756802,66.99954293851503 732.5222924802484,66.45437896122549Z" name="Plaisance" name_en="Plaisance" gn_name="Plaisance" admin="Seychelles" adm0_a3="SYC" iso_3166_2="SC-19" iso_a2="SC" wikidataid="Q2199897"/><path d="M731.6306415975561,65.72026622172785 731.9399089618169,65.7040444211161 732.5222924802484,66.45437896122549 732.1512989756802,66.99954293851503 731.9430201531335,67.41469329569341 731.2140443453283,66.2384420454965 731.6306019904217,66.06546609442422 731.6306415975561,65.72026622172785Z" name="Mont Fleuri" name_en="Mont Fleuri" gn_name="Mont Fleuri" admin="Seychelles" adm0_a3="SYC" iso_3166_2="SC-18" iso_a2="SC" wikidataid="Q1945413"/><path d="M734.8795048239241,65.976549462938 735.0755827057498,66.04551813444444 735.2947285736727,66.60876552250718 735.2139906223326,66.82716912420334 734.9602427752641,66.85015902754442 734.637290969904,66.73520960710125 734.4066111089332,66.51680637105932 734.118261282719,66.40185764815594 734.0951932966225,66.05701292143316 734.2566691993018,65.90758087786733 734.5334850324675,65.91907563604437 734.7295629142926,66.05701292143316 734.8795048239241,65.976549462938Z" name="Mont Fleuri" name_en="Mont Fleuri" gn_name="Mont Fleuri" admin="Seychelles" adm0_a3="SYC" iso_3166_2="SC-18" iso_a2="SC" wikidataid="Q1945413"/><path d="M735.0871166987984,65.39031924330683 735.2024566292835,65.41330854616099 735.3985345111091,65.58572862325734 735.6638163512257,65.65469680517974 735.7676222886628,65.85010712299166 735.6292143720799,66.0340233498571 735.421602497207,65.94206515960005 735.1563206570899,65.76964396696623 735.017912740507,65.5627392484702 735.0871166987984,65.39031924330683Z" name="Mont Fleuri" name_en="Mont Fleuri" gn_name="Mont Fleuri" admin="Seychelles" adm0_a3="SYC" iso_3166_2="SC-18" iso_a2="SC" wikidataid="Q1945413"/><path d="M734.5911549977104,63.769597522627244 734.7064949281955,63.67764310457972 735.052514719652,63.574194566776335 735.421602497207,63.65465452392537 735.7445543025664,63.65465452392537 735.894496212197,63.74660890379894 735.7445543025664,64.06845043623734 735.490806455497,64.41328272742255 734.9717767683127,64.6201831347379 734.6488249629533,64.83857884990866 734.4988830533212,64.86156792281105 734.4642810741761,64.63167762452957 734.5450190255161,64.21787749838964 734.4988830533212,63.94201246813803 734.5911549977104,63.769597522627244Z" name="Mont Fleuri" name_en="Mont Fleuri" gn_name="Mont Fleuri" admin="Seychelles" adm0_a3="SYC" iso_3166_2="SC-18" iso_a2="SC" wikidataid="Q1945413"/><path d="M731.4998405279222,65.13039845630321 731.7308363555346,65.47965652070594 731.3688840970649,65.59407909297333 731.3287736511464,65.73609991008188 731.6306415975561,65.72026622172785 731.6306019904217,66.06546609442422 731.2140443453283,66.2384420454965 731.9430201531335,67.41469329569341 731.5264625791476,68.24500351709095 730.4156423344466,67.69146199427415 730.1032241006266,66.5498002562819 729.6172402524573,66.10006118442973 730.5892080199034,65.33897280875543 731.4998405279222,65.13039845630321Z" name="Bel Air" name_en="Bel Air" gn_name="Bel Air" admin="Seychelles" adm0_a3="SYC" iso_3166_2="SC-09" iso_a2="SC" wikidataid="Q815077"/><path d="M731.586093781955,63.5884233233747 731.586093781955,64.21348476218702 731.4998405279222,65.13039845630321 730.5892080199034,65.33897280875543 730.6933473600691,64.71627190908951 730.0685109635326,64.05898412852625 731.1446181422518,63.50548469795404 731.586093781955,63.5884233233747Z" name="English River" name_en="La Rivière Anglaise" gn_name="English River" admin="Seychelles" adm0_a3="SYC" iso_3166_2="SC-16" iso_a2="SC" wikidataid="Q1819963"/><path d="M731.8962663568979,61.448139934251955 732.1620095567366,62.39707874170294 731.8372123124891,62.75017638539444 731.586093781955,63.5884233233747 731.1446181422518,63.50548469795404 730.0685109635326,64.05898412852625 729.9643716233668,63.36711068688674 730.0685109635326,62.67524595239275 730.55449488281,61.672057329739054 731.5264625791476,61.84501954821127 731.8962663568979,61.448139934251955Z" name="Anse Etoile" name_en="Anse Etoile" gn_name="Anse Etoile" admin="Seychelles" adm0_a3="SYC" iso_3166_2="SC-03" iso_a2="SC" wikidataid="Q387293"/><path d="M729.4314690158286,62.672533851387136 729.5619391660821,62.08942270798855 729.5114502273104,60.751694486432605 730.0582555052788,60.59143163276195 730.6050607832465,60.639510440569204 731.1876178239946,60.72725148909408 731.8962663568979,61.448139934251955 731.5264625791476,61.84501954821127 730.55449488281,61.672057329739054 730.0685109635326,62.67524595239275 729.4314690158286,62.672533851387136Z" name="Glacis" name_en="Glacis" gn_name="Glacis" admin="Seychelles" adm0_a3="SYC" iso_3166_2="SC-12" iso_a2="SC" wikidataid="Q3241696"/><path d="M727.9872899651391,64.70948514911817 728.2399735213519,64.59999894864866 728.6100842227431,63.97296954036797 728.912044073582,63.34624250668844 729.3495971942073,63.0384472750365 729.4314690158286,62.672533851387136 730.0685109635326,62.67524595239275 729.9643716233668,63.36711068688674 730.0685109635326,64.05898412852625 729.6866665266367,64.37033003118292 729.8949453491834,64.88924369604572 729.339535226835,65.58113612534925 728.8882645157552,64.71627190908951 728.1940018450392,64.95843256258614 727.9872899651391,64.70948514911817Z" name="Beau Vallon" name_en="Beau Vallon" gn_name="Beau Vallon" admin="Seychelles" adm0_a3="SYC" iso_3166_2="SC-08" iso_a2="SC" wikidataid="Q7479348"/><path d="M725.303393275472,65.84523507853889 725.9305679673763,65.24519949031561 726.420762671939,65.04404402863057 727.3887189081534,64.96884310107447 727.9872899651391,64.70948514911817 728.1940018450392,64.95843256258614 728.8882645157552,64.71627190908951 729.339535226835,65.58113612534925 728.2634281192232,65.99627583793392 728.4022805964784,66.584395721923 727.534452311418,66.96494721132471 725.303393275472,65.84523507853889Z" name="Bel Ombre" name_en="Bel Ombre" gn_name="Bel Ombre" admin="Seychelles" adm0_a3="SYC" iso_3166_2="SC-10" iso_a2="SC" wikidataid="Q3245439"/><path d="M730.7197151937709,69.83781792425447 729.6463941866373,69.72715459766793 728.2769845914913,68.91563036250216 727.5741619767949,68.49252519384231 726.981597136624,68.47298586589896 726.4063451806288,68.26261970268965 726.4434745791872,67.94708285249324 726.8532874112601,67.87465637762548 726.6514425329104,67.63038458360053 726.0170729152403,67.42922039460701 725.238528384462,67.60164679710017 724.5753237841701,67.4004827135975 724.1283815535387,67.07000046451873 724.2581389753353,66.7969948906777 724.8636736103837,66.85446963549127 725.079935980045,66.68204558152262 724.8492561190735,66.27972489345679 725.303393275472,65.84523507853889 727.534452311418,66.96494721132471 728.4022805964784,66.584395721923 728.2634281192232,65.99627583793392 729.339535226835,65.58113612534925 729.6172402524573,66.10006118442973 730.1032241006266,66.5498002562819 730.4156423344466,67.69146199427415 731.5264625791476,68.24500351709095 731.2140443453283,68.83314752836233 730.55449488281,68.93693824694802 730.51978174572,69.42129780368248 730.7974867713424,69.52508971213223 730.7197151937709,69.83781792425447Z" name="Port Glaud" name_en="Port Glaud" gn_name="Port Glaud" admin="Seychelles" adm0_a3="SYC" iso_3166_2="SC-21" iso_a2="SC" wikidataid="Q1808165"/><path d="M723.8977016925672,68.37757232741758 724.1716340274713,68.47815607231807 724.5176538189279,68.73680083784969 724.7771686625204,68.93796983554991 724.7050812059666,69.05292388134177 724.459983853685,68.9523390780349 724.0707115882965,68.89486213079103 723.840031727325,68.7224316520857 723.7246917968394,68.53563258107933 723.8977016925672,68.37757232741758Z" name="Port Glaud" name_en="Port Glaud" gn_name="Port Glaud" admin="Seychelles" adm0_a3="SYC" iso_3166_2="SC-21" iso_a2="SC" wikidataid="Q1808165"/><path d="M726.7667824633961,69.11040099503754 726.9397923591241,69.1822474723003 727.2281421853384,69.35467940382588 727.3867345897554,69.61332832359638 727.3146471332024,69.85760898625658 727.271394659271,70.00130400556161 727.1704722200956,70.03004305493997 726.8532874112601,69.67080602802403 726.6514425329104,69.48400371029804 726.6658600242213,69.32594071071232 726.5649375850464,69.1966167791078 726.6226075502893,69.09603171093856 726.7667824633961,69.11040099503754Z" name="Port Glaud" name_en="Port Glaud" gn_name="Port Glaud" admin="Seychelles" adm0_a3="SYC" iso_3166_2="SC-21" iso_a2="SC" wikidataid="Q1808165"/><path d="M749.2090834569698,39.62707369620669 749.7858593601165,39.42110353678661 750.3263662119983,39.324957487180306 750.9183498504304,39.299318551169485 752.0444056732372,40.32488408637984 753.1096062714075,40.76351390536917 754.2576250043288,40.96876355638348 754.8750575245283,41.730274945332205 755.6688993362123,41.37880692922341 756.6685519879629,41.52525168137503 757.4494737966639,42.4786296757718 756.1754220444841,42.5363203820203 755.9630800726053,43.19015221291599 755.9437762894407,44.02988820493891 754.3274536966152,43.13250676450378 753.8129266083808,42.3636549084081 749.2090834569698,39.62707369620669Z" name="Baie Sainte Anne" name_en="Baie Sainte Anne" gn_name="Baie Sainte Anne" admin="Seychelles" adm0_a3="SYC" iso_3166_2="SC-07" iso_a2="SC" wikidataid="Q803716"/><path d="M751.5232457166618,38.52279064132062 751.7584933749533,38.24497609366988 752.3171227979899,38.24497609366988 753.6107909355496,38.33283825539468 753.963609518521,38.36212567145073 753.8460033241972,38.7428633918386 753.110964609674,38.7428633918386 753.1991692554174,39.21146701004809 753.1697677068363,39.47505817007909 752.2066111864897,39.14516167355695 751.5232457166618,38.52279064132062Z" name="Baie Sainte Anne" name_en="Baie Sainte Anne" gn_name="Baie Sainte Anne" admin="Seychelles" adm0_a3="SYC" iso_3166_2="SC-07" iso_a2="SC" wikidataid="Q803716"/><path d="M755.9437762894407,44.02988820493891 755.2424043491723,44.670916069315844 754.2643443766711,44.64527480603285 753.1575923191737,44.18373422615677 752.4111781629241,43.42091817322134 751.9618720781665,42.44113607721602 750.8918325748696,42.26337048746277 749.9355973629382,42.14032361315189 749.3475663913199,41.55454067543829 749.2839601969987,40.978691463242136 748.7627571894989,39.78645999357512 749.2090834569698,39.62707369620669 753.8129266083808,42.3636549084081 754.3274536966152,43.13250676450378 755.9437762894407,44.02988820493891Z" name="Grand'Anse Praslin" name_en="Grand'Anse Praslin" gn_name="Grand Anse Praslin" admin="Seychelles" adm0_a3="SYC" iso_3166_2="SC-14" iso_a2="SC" wikidataid="Q1231388"/><path d="M747.6422765736272,42.28677025793111 747.9068905108559,42.3746384197274 747.8480874136936,42.75540197115016 747.4364657335614,42.81398119797023 747.407064184981,42.462506712762 747.6422765736272,42.28677025793111Z" name="Grand'Anse Praslin" name_en="Grand'Anse Praslin" gn_name="Grand Anse Praslin" admin="Seychelles" adm0_a3="SYC" iso_3166_2="SC-14" iso_a2="SC" wikidataid="Q1231388"/><path d="M746.3780099846492,43.75125677690421 746.5250177275542,43.89770743939597 746.7014270190389,44.2784808760642 746.4662146303925,44.2784808760642 746.1133960474212,43.956287806918475 746.3780099846492,43.75125677690421Z" name="Grand'Anse Praslin" name_en="Grand'Anse Praslin" gn_name="Grand Anse Praslin" admin="Seychelles" adm0_a3="SYC" iso_3166_2="SC-14" iso_a2="SC" wikidataid="Q1231388"/><path d="M747.9362920594364,32.97348239281162 748.2303075452455,33.03205200800875 748.6125276767973,33.14919140855749 748.3479137395693,33.35418590564855 747.7598827679517,33.29561597839241 747.3482610878187,33.20776119393097 747.4364657335614,33.002767193321944 747.9362920594364,32.97348239281162Z" name="Grand'Anse Praslin" name_en="Grand'Anse Praslin" gn_name="Grand Anse Praslin" admin="Seychelles" adm0_a3="SYC" iso_3166_2="SC-14" iso_a2="SC" wikidataid="Q1231388"/><path d="M729.8949453491834,64.88924369604572 729.6866665266367,64.37033003118292 730.0685109635326,64.05898412852625 730.6933473600691,64.71627190908951 730.5892080199034,65.33897280875543 729.8949453491834,64.88924369604572Z" name="Mont Buxton" name_en="Mont Buxton" gn_name="Mont Buxton" admin="Seychelles" adm0_a3="SYC" iso_3166_2="SC-17" iso_a2="SC" wikidataid="Q3241682"/><path d="M729.339535226835,65.58113612534925 729.8949453491834,64.88924369604572 730.5892080199034,65.33897280875543 729.6172402524573,66.10006118442973 729.339535226835,65.58113612534925Z" name="Saint Louis" name_en="Saint Louis" gn_name="Saint Louis" admin="Seychelles" adm0_a3="SYC" iso_3166_2="SC-22" iso_a2="SC" wikidataid="Q2278695"/><path d="M732.9740002180806,68.8366071827298 732.7067090980333,68.03742476337317 732.8455615752885,67.86444307011928 732.7761353722167,67.44928930657478 733.9216686829002,68.31419653917887 733.3878079754531,68.60849136497836 732.9740002180806,68.8366071827298Z" name="Les Mamelles" name_en="Les Mamelles" gn_name="Les Mamelles" admin="Seychelles" adm0_a3="SYC" iso_3166_2="SC-24" iso_a2="SC" wikidataid="Q2280357"/></svg>