<?xml version="1.0"?><svg fill="#3498db" stroke="#ecf0f1" stroke-width="1" width="800" height="400" viewBox="0 0 800 400" xmlns="http://www.w3.org/2000/svg"><path d="M451.10430108175524,383.4884555277022 444.8833997207912,390.905412331709 433.50803369958174,395.7617476807396 405.4251022475965,400 352.10308194076794,398.9404355958665 325.79755101991935,392.2298664677678 314.599926799019,379.25019098123005 295.93721903657826,349.49394738262686 250.61350112054052,328.83224737646435 196.0472991314604,316.2056134566882 149.30165991674207,311.1726112401591 54.3884623727973,313.644963907721 15.818867349361627,304.28533788120666 0,274.2637840402064 9.420223689471412,240.00368827767556 74.65083105038417,148.25969342988745 84.07105473989213,107.19952760549442 94.91319972808067,84.06440623256229 119.44132793340097,59.25142760995742 148.41295965119204,41.76747349292365 169.3862889780461,38.32365732708616 217.02062845831446,44.50486371964393 266.0768868982872,38.323656884996986 263.5085437314262,59.258970927117886 259.2674557790837,83.13830889708882 257.8537591403062,101.39890002287552 257.8537591403062,126.6826887158397 269.16332832239993,142.1338295169086 284.71398545683616,157.58492333723774 300.26464455544516,170.2266934838571 321.4700862808552,187.0823379213755 322.88378291977887,201.1286652272965 314.4016050510673,210.96107382971636 305.9194291465286,219.38883560405858 310.1605170987249,229.22120778287467 327.12487087197513,234.83969815172227 344.08922464518884,248.88589873622544 362.46727309300724,268.55051434617906 365.29466637070846,296.64269743096804 363.8809697317848,314.90253783995917 369.5357543229047,335.97150660107144 390.7411960484609,358.4449837477766 410.53294309922967,369.68168768927984 435.9794727769821,379.51378430943555 451.10430108175524,383.4884555277022Z" name="South West" name_en="South West Community Development Council" gn_name="South West Community Development Council" admin="Singapore" adm0_a3="SGP" iso_3166_2="SG-05" iso_a2="SG" wikidataid="Q5784126"/><path d="M562.8588178773116,311.1775913664615 540.1520764973017,319.8258395316978 463.72384709966093,371.83321892998265 451.10430108175524,383.4884555277022 435.9794727769821,379.51378430943555 410.53294309922967,369.68168768927984 390.7411960484609,358.4449837477766 369.5357543229047,335.97150660107144 363.8809697317848,314.90253783995917 365.29466637070846,296.64269743096804 362.46727309300724,268.55051434617906 380.8453235049985,254.50436808505532 400.63707055594995,234.83969815172227 400.63707055594995,212.36570043835212 390.7411960484609,196.91477123554267 402.05076523055465,180.0591589620741 424.66990359488835,167.41741501039402 441.63425736810206,153.3709936591684 438.8068660545737,136.51523813304652 430.3246881858621,119.65942659116456 416.1877276903496,104.20821702232303 421.84251228136,85.94763420306252 438.8068660545737,69.09165272826462 458.59861114131576,67.68698648821365 485.45883745784573,69.09165272826462 510.90536909973446,66.28231789862677 526.533118548675,47.8651886642362 587.6189668978617,78.18027727114297 577.3490875538118,91.56628202173749 568.8669096851368,112.63615468698436 564.6258217328309,135.1105888271539 546.2477713208032,142.1338295169086 532.1108108251444,149.15706049988918 516.5601536907448,164.60813304526243 508.0779758220698,185.67770250484187 508.0779758220698,206.74718587200923 512.3190657385485,229.22120778287467 525.042329595247,250.29051712263353 540.592988693856,274.1689628173891 556.1436458282922,299.4519085893127 562.8588178773116,311.1775913664615Z" name="Central Singapore" name_en="Central Singapore Community Development Council" gn_name="Central Singapore Community Development Council" admin="Singapore" adm0_a3="SGP" iso_3166_2="SG-01" iso_a2="SG" wikidataid="Q2544592"/><path d="M710.7296337994711,127.3347831213613 754.1511227420451,137.13374433785125 784.3669361420148,148.25969342988745 792.8984595658264,161.59313622994102 767.6593685270666,203.35926583033373 730.5116948023115,247.77403861688748 685.7211957351587,283.27026834952716 636.6649371403457,297.66295065660137 582.8096936163604,303.57894998165926 562.8588178773116,311.1775913664615 556.1436458282922,299.4519085893127 540.592988693856,274.1689628173891 525.042329595247,250.29051712263353 512.3190657385485,229.22120778287467 508.0779758220698,206.74718587200923 508.0779758220698,185.67770250484187 516.5601536907448,164.60813304526243 532.1108108251444,149.15706049988918 546.2477713208032,142.1338295169086 564.6258217328309,135.1105888271539 561.798430419266,160.39420915863207 580.1764788672306,174.44060928565452 604.2093138703783,182.86843247532542 632.4832368256492,195.51013849233348 643.7928060077795,205.3425577448101 659.3434631422157,205.3425577448101 666.4119443720766,181.46379591023359 666.4119443720766,164.60813304526243 686.2036894587457,156.1802817987078 703.1680432319594,142.1338295169086 710.7296337994711,127.3347831213613Z" name="South East" name_en="South East Community Development Council" gn_name="South East Community Development Council" admin="Singapore" adm0_a3="SGP" iso_3166_2="SG-04" iso_a2="SG" wikidataid="Q1687545"/><path d="M587.6189668978617,78.18027727114297 637.909116638571,103.13764323810814 699.7626603692113,124.8598546875309 710.7296337994711,127.3347831213613 703.1680432319594,142.1338295169086 686.2036894587457,156.1802817987078 666.4119443720766,164.60813304526243 666.4119443720766,181.46379591023359 659.3434631422157,205.3425577448101 643.7928060077795,205.3425577448101 632.4832368256492,195.51013849233348 604.2093138703783,182.86843247532542 580.1764788672306,174.44060928565452 561.798430419266,160.39420915863207 564.6258217328309,135.1105888271539 568.8669096851368,112.63615468698436 577.3490875538118,91.56628202173749 587.6189668978617,78.18027727114297Z" name="North East" name_en="North East Community Development Council" gn_name="North East Community Development Region" admin="Singapore" adm0_a3="SGP" iso_3166_2="SG-02" iso_a2="SG" wikidataid="Q3710534"/><path d="M266.0768868982872,38.323656884996986 326.8639909018984,9.448487063009187 359.3904258663544,0 417.51142891796354,3.3555397684515302 473.49955002173454,21.546055692839744 526.533118548675,47.8651886642362 510.90536909973446,66.28231789862677 485.45883745784573,69.09165272826462 458.59861114131576,67.68698648821365 438.8068660545737,69.09165272826462 421.84251228136,85.94763420306252 416.1877276903496,104.20821702232303 430.3246881858621,119.65942659116456 438.8068660545737,136.51523813304652 441.63425736810206,153.3709936591684 424.66990359488835,167.41741501039402 402.05076523055465,180.0591589620741 390.7411960484609,196.91477123554267 400.63707055594995,212.36570043835212 400.63707055594995,234.83969815172227 380.8453235049985,254.50436808505532 362.46727309300724,268.55051434617906 344.08922464518884,248.88589873622544 327.12487087197513,234.83969815172227 310.1605170987249,229.22120778287467 305.9194291465286,219.38883560405858 314.4016050510673,210.96107382971636 322.88378291977887,201.1286652272965 321.4700862808552,187.0823379213755 300.26464455544516,170.2266934838571 284.71398545683616,157.58492333723774 269.16332832239993,142.1338295169086 257.8537591403062,126.6826887158397 257.8537591403062,101.39890002287552 259.2674557790837,83.13830889708882 263.5085437314262,59.258970927117886 266.0768868982872,38.323656884996986Z" name="North West" gn_name="North West Community Development Council" admin="Singapore" adm0_a3="SGP" iso_3166_2="SG-03" iso_a2="SG"/></svg>