<?xml version="1.0"?><svg fill="#3498db" stroke="#ecf0f1" stroke-width="1" width="800" height="936" viewBox="0 0 800 936" xmlns="http://www.w3.org/2000/svg"><path d="M721.356586378475,0 773.8750468767319,97.8621917024165 785.4444836870146,181.31659237263804 722.5896245842457,210.50361947944813 652.0481164181801,235.6158899237295 589.5684874107556,316.52618828420196 531.1198080634308,230.03547466278695 466.62470758632554,288.6272999719434 436.39263553783235,218.87449108808082 438.4081070079038,151.90429422408073 418.2533855884984,140.74187253409298 363.8356491813165,163.0665024588007 311.00641609496677,136.35581124570095 505.8764021674396,36.36592186120508 721.356586378475,0Z" name="Serravalle" name_en="Serravalle" gn_name="Serravalle" admin="San Marino" adm0_a3="SMR" iso_3166_2="SM-09" iso_a2="SM" wikidataid="Q185412"/><path d="M785.4444836870146,181.31659237263804 797.8172903970128,270.5533565344179 791.2693035454434,346.23668437166987 764.914532172296,375.10971349295227 718.5586816445405,403.0046595313011 696.38849547588,419.7410098797167 637.9398094081607,422.53035700562407 599.6458447602533,475.52554088998426 535.1507510031361,508.9938172817482 472.67112871651227,478.31463320623124 442.43904994760913,436.47690150554934 452.5164072971225,366.7409839493 466.62470758632554,288.6272999719434 531.1198080634308,230.03547466278695 589.5684874107556,316.52618828420196 652.0481164181801,235.6158899237295 722.5896245842457,210.50361947944813 785.4444836870146,181.31659237263804Z" name="Domagnano" name_en="Domagnano" gn_name="Castello di Domagnano" admin="San Marino" adm0_a3="SMR" iso_3166_2="SM-03" iso_a2="SM" wikidataid="Q202202"/><path d="M791.2693035454434,346.23668437166987 782.3706773353725,449.07427464517974 728.3101124933984,552.046134354954 721.356586378475,565.2986171141544 702.0483237881793,587.2050990569021 690.4633677278599,613.9192478035087 643.9862238179375,609.3876246287613 615.7696232395002,620.5414725069219 589.5684874107556,601.0221050527404 605.6922658900181,564.7701961615401 603.6767944203687,536.8826388149811 565.3828297720236,536.8826388149811 535.1507510031361,508.9938172817482 599.6458447602533,475.52554088998426 637.9398094081607,422.53035700562407 696.38849547588,419.7410098797167 718.5586816445405,403.0046595313011 764.914532172296,375.10971349295227 791.2693035454434,346.23668437166987Z" name="Faetano" name_en="Faetano" gn_name="Castello di Faetano" admin="San Marino" adm0_a3="SMR" iso_3166_2="SM-04" iso_a2="SM" wikidataid="Q206356"/><path d="M690.4633677278599,613.9192478035087 686.4852254584681,646.644961519551 692.4105279295202,677.7942749911853 588.6186208887226,853.1444856503882 579.4911300612579,779.4617077957096 585.5375444710346,715.3409759277638 593.5994303504609,676.3076663333616 611.7386802997949,645.6368948704843 615.7696232395002,620.5414725069219 643.9862238179375,609.3876246287613 690.4633677278599,613.9192478035087Z" name="Montegiardino" name_en="Montegiardino" gn_name="Castello di Montegiardino" admin="San Marino" adm0_a3="SMR" iso_3166_2="SM-08" iso_a2="SM" wikidataid="Q206962"/><path d="M588.6186208887226,853.1444856503882 559.1672015377853,902.8917306209725 415.745200878849,923.3859958296151 400.11414235957443,854.7252842088018 369.8820635910933,812.9133359085765 402.1296138296459,771.098516915564 414.2224426487931,704.1888589059796 478.71754312586705,704.1888589059796 537.1662224732075,673.519478015459 589.5684874107556,601.0221050527404 615.7696232395002,620.5414725069219 611.7386802997949,645.6368948704843 593.5994303504609,676.3076663333616 585.5375444710346,715.3409759277638 579.4911300612579,779.4617077957096 588.6186208887226,853.1444856503882Z" name="Fiorentino" name_en="Fiorentino" gn_name="Castello di Fiorentino" admin="San Marino" adm0_a3="SMR" iso_3166_2="SM-05" iso_a2="SM" wikidataid="Q206968"/><path d="M415.745200878849,923.3859958296151 327.46808033730485,936 265.1189891282091,903.7798629428005 104.2645970674585,820.6473001899985 32.392983546821725,668.7628081552948 101.8243177736195,665.1548367051099 174.38130413013536,676.3076663333616 267.09300518564663,718.1289733737569 273.13941959543905,754.3717917116234 273.13941959543905,787.8247842009113 305.386969833976,812.9133359085765 369.8820635910933,812.9133359085765 400.11414235957443,854.7252842088018 415.745200878849,923.3859958296151Z" name="Chiesanuova" name_en="Chiesanuova" gn_name="Chiesanuova" admin="San Marino" adm0_a3="SMR" iso_3166_2="SM-02" iso_a2="SM" wikidataid="Q206980"/><path d="M32.392983546821725,668.7628081552948 0,600.2951749345731 93.76243189375562,587.0793178088733 164.3039400602433,561.9814893596737 214.69074024853623,531.3049763929994 244.9228122966074,492.25990371430913 242.90734082697355,433.6876180884496 285.23224841500826,478.31463320623124 341.6654630126716,508.9938172817482 381.9748924102405,564.7701961615401 410.19149970907216,640.0602255112145 414.2224426487931,704.1888589059796 402.1296138296459,771.098516915564 369.8820635910933,812.9133359085765 305.386969833976,812.9133359085765 273.13941959543905,787.8247842009113 273.13941959543905,754.3717917116234 267.09300518564663,718.1289733737569 174.38130413013536,676.3076663333616 101.8243177736195,665.1548367051099 32.392983546821725,668.7628081552948Z" name="San Marino" name_en="San Marino" gn_name="Castello di San Marino Citta" admin="San Marino" adm0_a3="SMR" iso_3166_2="SM-07" iso_a2="SM" wikidataid="Q1848"/><path d="M0,600.2951749345731 74.91604868963725,353.40638346583034 189.95680338501336,237.01006466639475 231.21646791111095,195.25881563816452 267.09300518564663,224.4550083848834 299.34055542462124,266.3072712839936 305.386969833976,324.8956154691096 269.1084766557181,352.79284646129196 244.9228122966074,338.8443903084598 244.9228122966074,363.9513819440241 242.90734082697355,433.6876180884496 244.9228122966074,492.25990371430913 214.69074024853623,531.3049763929994 164.3039400602433,561.9814893596737 93.76243189375562,587.0793178088733 0,600.2951749345731Z" name="Acquaviva" name_en="Acquaviva" gn_name="Castello di Acquaviva" admin="San Marino" adm0_a3="SMR" iso_3166_2="SM-01" iso_a2="SM" wikidataid="Q206363"/><path d="M231.21646791111095,195.25881563816452 267.22631330883735,158.81760011919644 311.00641609496677,136.35581124570095 363.8356491813165,163.0665024588007 418.2533855884984,140.74187253409298 438.4081070079038,151.90429422408073 436.39263553783235,218.87449108808082 466.62470758632554,288.6272999719434 452.5164072971225,366.7409839493 442.43904994760913,436.47690150554934 472.67112871651227,478.31463320623124 535.1507510031361,508.9938172817482 565.3828297720236,536.8826388149811 603.6767944203687,536.8826388149811 605.6922658900181,564.7701961615401 589.5684874107556,601.0221050527404 537.1662224732075,673.519478015459 478.71754312586705,704.1888589059796 414.2224426487931,704.1888589059796 410.19149970907216,640.0602255112145 381.9748924102405,564.7701961615401 341.6654630126716,508.9938172817482 285.23224841500826,478.31463320623124 242.90734082697355,433.6876180884496 244.9228122966074,363.9513819440241 244.9228122966074,338.8443903084598 269.1084766557181,352.79284646129196 305.386969833976,324.8956154691096 299.34055542462124,266.3072712839936 267.09300518564663,224.4550083848834 231.21646791111095,195.25881563816452Z" name="Borgo Maggiore" name_en="Borgo Maggiore" gn_name="Castello di Borgo Maggiore" admin="San Marino" adm0_a3="SMR" iso_3166_2="SM-06" iso_a2="SM" wikidataid="Q201368"/></svg>