<?xml version="1.0"?><svg fill="#3498db" stroke="#ecf0f1" stroke-width="1" width="800" height="816" viewBox="0 0 800 816" xmlns="http://www.w3.org/2000/svg"><path d="M781.5987837754268,527.8752162015328 781.4870120782186,527.954701204344 774.923560214838,532.6221533231017 769.8791576576812,540.4931436837745 762.7177265673706,549.1599349850903 759.9929388671003,553.5435735259232 755.9310806071377,563.4290801057723 760.4791463968171,562.7337851355601 762.616433601545,565.5451804433328 763.0823822636527,569.9586899202404 762.6265626433116,574.0798945968995 762.1504847434057,574.5635511755075 761.2591041742846,575.0169784280483 760.3778532349565,575.6719269662183 759.9524217199721,576.7399924885023 760.3677238011593,576.901209456275 762.2011311283109,578.2110924823841 762.6265626433116,578.735043290667 763.8319521317821,583.4303904932622 764.1662199187032,586.1810489819504 763.2950980211629,587.3901182312696 761.0362591790106,588.6999353326095 762.0897085326759,591.4404495472049 764.2472544089813,593.8484454562235 765.2905745248845,594.1708529160616 765.3817384489616,596.8508457499155 763.9636333989929,602.8152205607225 763.3660032736411,603.9637468575514 760.661474244945,607.9029435926774 759.9524217199721,610.1394891236964 759.8207404527614,612.1845984039702 760.1550080436704,613.4942645268917 761.380656007703,614.8139970260651 763.9636333989929,616.9195079075374 761.6136304367727,618.1888492256062 760.2968185486646,619.8007010226303 757.1972459143286,628.8671495000581 755.667718072713,631.8589975798701 741.395502669044,651.0482064852472 734.5176927847407,664.9480712155191 726.8700543607434,684.1749064490057 723.6995762778942,688.8982969033402 714.3198236886043,698.2239664426094 711.9698207263693,699.1605430470709 709.0120587930397,699.5835120056755 704.6868379986525,699.633865379396 702.5900683330751,700.7718497653049 700.6148503049156,701.8997586702853 695.3374733186891,715.1825352722094 693.129281057477,716.8843744219429 689.2902677928115,717.2871752006422 682.7062081562768,715.2933062565024 679.8699978603486,715.7867396435512 676.7197784490802,719.5931971162245 673.0276405042783,720.7915153764862 669.2544678732173,721.4964058885332 665.4357132801113,721.5971045233156 661.5865705816304,721.0130527026662 659.3074730679203,719.8751549787598 658.8313949720172,718.3042440148116 659.0491753483798,716.4211529188152 658.7959422477506,714.3467167082914 657.0385047919708,709.9158278409594 658.1628597901779,706.2401479724183 658.6895844669999,706.0286687670236 659.7177107262295,706.0588802038225 660.6546730613852,705.7466964888049 660.9788114145254,704.5382405273045 660.7357077476754,703.450625191404 659.9000383783633,701.3458754549324 659.6164173683732,700.2078933841182 659.4898009160482,696.2903779393163 658.6136143995982,695.4142160877902 655.9647967667279,693.923726798858 651.6800931194852,692.2620223286062 648.3931282141203,692.4030160273481 645.3178403699831,694.0514394461364 641.9863316108343,695.8371911735044 632.297634721085,698.6972904838791 624.7766125533662,695.9983243846826 605.5106411734954,677.3464793325534 604.6800368150926,675.5335912660016 605.3181840875643,672.8545207821754 609.106550771329,669.0372987127425 610.3929747500762,666.4286616584379 609.3293959626201,664.4948275492633 605.8449089604213,664.8977108717237 597.8326146441316,668.0804661128631 593.9125668891633,670.5480799463746 586.3560923892463,676.9234732971429 579.2655665514469,680.3175731718544 577.6144870724363,680.9017162359758 576.0545713214597,680.7305020949618 574.5351729136412,679.1492827459263 575.2239669630503,675.432874732168 574.3021984845699,673.619972435788 567.6067164484174,674.1739162503386 551.9315898514714,686.1488714381345 547.3582005753336,685.8668774134456 545.058844390046,683.0267769205861 541.9592717556872,681.8987849281616 538.4849141873086,682.1707119222117 535.106784965854,683.5404144787726 531.8198200604941,686.7330009444331 530.7309177865485,690.3686733695027 530.2041931097265,693.9337976171704 528.5784367251453,696.9349090479027 522.9870506235736,699.3418155979612 515.9370421289357,699.210896502833 508.3400502858572,698.2441079377986 501.0874554674882,698.1333297922434 489.9350713697327,699.1303308130427 486.1872220291279,698.6267954645398 482.0747171882301,698.6066539990763 474.8069283171918,701.9803233080034 459.3394526628326,705.8272601390263 455.4548574361204,705.0216235007351 453.39860511368,703.3902019090517 451.13976607551393,699.1303308130427 449.6811436824329,697.4183063238199 447.8072190121231,696.4212985119224 433.9604351234402,693.0173439314233 430.6481467315973,691.405988755212 419.9920994013209,682.6843514278172 415.64662013137644,680.2470730578156 410.97700231230425,679.8240719552654 408.62699935004804,680.5794305361171 407.4064162009372,681.677214559341 405.9022116497941,685.1014633887972 403.82570065579097,693.400039414608 403.6940193885589,702.0508174186913 402.6810871820217,705.4546535371054 396.95295519436064,713.9741220606538 395.44875083920994,715.5450580579914 393.1139421256892,716.6124837802232 390.9057496684436,716.4513631766722 389.16857108025823,715.4141469947612 387.37061628134467,714.5984693974295 384.95477288152716,715.1523248718404 382.4021835956104,718.263964271566 379.42416259867423,723.8628109603816 377.09441870004093,729.6327257576535 376.5271764840486,733.24767212487 378.786015326196,734.7379428149055 387.37061628134467,735.2514801935255 391.0019784074262,736.1073738038702 394.709310404899,739.5107836505013 396.5072650078004,747.1733415215131 399.1560830326997,751.3116419919859 404.4334600189049,754.9162452949755 406.1250568410622,756.3963350223092 413.1446774263785,765.4378108366828 419.84015946253595,771.1464869367161 421.31904072322624,773.3463628222563 421.9318647052352,775.8281258945627 421.6127909709999,777.6101503645342 420.9037382500084,779.3871309360811 420.27572041131106,781.8789136840912 420.518824274178,790.5370766165664 421.6127909709999,798.3141230257738 420.57960009288195,805.3309245664262 414.35006671884685,811.7486016508029 401.44530998022515,815.5991498814248 389.09766582776354,813.0572896858266 376.8209269278343,808.1446506560728 364.17953233160506,804.8779073237841 354.73900372758106,805.44166204291 351.6293018554665,805.0792484179665 347.92196966197673,803.528919501959 340.8820906011196,799.0490318223774 337.09372391734996,797.46343907323 333.32561590516764,797.0204784577303 327.572160823056,798.4248628473645 323.9154754065184,798.8074182542285 321.0488770052351,798.223517707108 310.8537139141981,794.5388812533097 310.21050202282976,792.2787485678479 309.0152419681581,790.3910979594273 307.2932570406277,789.0118478054203 303.18075200371624,787.6980306620306 301.52967252470074,786.711405766049 300.1368907652242,785.3774439942712 299.04292387238854,783.7162762043712 291.65358316791543,779.8905230629242 272.4382583689454,779.5784199696344 267.0697174586812,777.3886564412388 248.19878968441742,750.8283398034501 246.77055500466236,745.0185823912764 245.28154450620164,740.7694307795185 243.35190863608454,732.180311178866 240.86516017976965,728.3941678766864 239.11785196177493,727.467763165433 234.59510946258447,726.6319823511042 232.77689599208853,725.7257111397106 231.936162395917,723.983648075758 232.04252017666772,716.9649347037392 229.85458658701333,712.6146505839981 222.84003062058716,706.5321900529414 221.34595569925006,702.9974509159917 222.60705619151747,700.1978228103422 222.95651783513512,698.1736126002919 222.00942626217784,696.2803072132313 218.76297830796184,693.2892591865265 217.8361452105749,691.5771956603362 217.2030627530038,688.8982969033402 217.60823540041176,687.0049229110454 218.57052122203075,684.8496821184575 218.8338835604401,682.7246366780689 217.2030627530038,680.9218591027815 213.20198031174525,683.8425537397738 210.43667526833465,684.7892542643109 209.17050996116666,682.9764202712464 210.20370064325127,676.4098221129683 209.84917438076155,674.9897220803219 204.89593574769657,669.2588806073811 203.9437795558754,667.4962924755041 203.81209828865977,664.1825925468514 204.74399600492373,661.6343361811582 205.27072068176216,659.3378608970919 203.9437795558754,656.8499876494119 199.8717918621222,659.136414568645 198.3118761111619,657.9881677049683 197.13687472805293,650.3129010494554 195.1920448052665,646.7370681387009 190.12738357655192,641.4185453079759 189.10432213222788,638.8700429576137 189.87415047589982,636.9359829225308 191.22135027335258,634.4680180299096 191.66704065592978,632.3525982993148 189.77285731404578,631.4359103956854 183.067245648079,632.4432595673445 182.41896913782054,632.886491804992 181.12241592131122,629.2096528704986 184.50560956563564,622.1882348980527 183.13815109659228,620.9088423278829 180.81853623972225,621.3319491127509 176.88835905098134,623.1553298156375 175.0549517238347,623.5683585625259 172.70494895760694,622.7322262919497 171.83382706004534,620.9088423278829 171.20580902535065,619.0753692596236 169.63576403661668,618.2492939523959 168.83554758756836,616.2344635635064 166.23231172069342,606.1499594594901 168.05558981009423,604.2156156550179 171.1146452972922,601.7976615104144 173.25193230602613,599.0572806233536 172.30990535198194,596.1657378899197 165.79675096794682,595.480628023595 163.29480826292757,594.0499500297392 164.89524116102584,591.5109770099594 165.92843223515754,589.7175569345341 165.80688020572708,588.186084974749 165.23963818574845,586.4833169475797 164.89524116102584,584.1256153219393 165.52325919573696,583.440466342178 168.26830556758972,583.581526420858 168.90645284006303,582.7855421704899 168.70386632035272,581.3144746331511 167.77196860407727,578.8458789360558 167.55925304260043,577.3445554195092 165.72584571544724,573.0118152586176 162.3426518751091,569.9183842773494 160.55989112885834,566.3613846399969 163.5480413635731,560.6478860180683 162.87950598574477,560.2951956321176 162.74782471851273,560.1944266973503 162.7073075713895,560.0231196846187 162.3426518751091,559.4386591459354 161.01571055320375,560.6579627935698 159.30385525548266,561.7865678124875 157.35902513666613,562.4113288613217 155.39393673830608,562.0888716809247 153.21613219041987,560.5068097430194 153.58078788670028,559.227043713333 154.8469531938896,557.6751901799939 155.39393673830608,555.3171560539654 153.28703763892662,550.8126285334151 152.84134725637236,548.666139561101 153.0034166289365,546.2777656701871 154.05686598260348,542.2668440308188 154.310099083249,539.9489370491965 153.61117599205534,537.6209244656238 152.38552783202695,536.0185099016667 151.94996707925904,534.3959258006822 153.57065845290305,531.956984594492 153.85427965890526,530.7375024719528 154.310099083249,523.964699285931 153.70233972012034,521.2282974668325 148.8301355773352,511.2599994390925 142.63099030865513,516.0879875283657 137.39413046957318,516.9749531794992 132.15727082651972,515.3723645435282 125.96825479562317,512.7063931150293 126.18097035710329,516.2391752208221 124.8135118880747,517.9475864821186 119.27277256345525,519.3687309632058 118.78656503374005,520.0238650464136 117.39884789315201,521.3492442069403 115.93009606625075,522.1757116871279 115.25143164664932,521.3089285705066 114.79561202627708,520.3010362250495 113.63073988096313,519.7214956327439 112.0910828015869,519.4392839499977 110.51090857504643,519.3687309632058 109.38655377287269,518.5220930579462 106.88461106785344,517.0455070652323 104.36240988729338,516.5516291124854 102.44796787384993,520.3816677251046 100.64494845604463,520.6537991488841 98.50766144732874,520.0541016880386 92.42049545504786,516.6802263151448 92.37942123511651,516.6574602676278 89.07726208107026,514.8230466068312 83.54665219024805,513.6941678363662 81.88544327743372,513.0087738507926 80.92315745579505,512.1923450889183 80.26475170775961,511.1995229190733 79.41388848177877,508.8862768534473 79.00871544235817,506.8451532715249 79.13026747179028,505.2273579630276 80.12294100675166,501.7044457438309 80.23436360240457,500.3940463606044 79.80893208742019,497.97986274165487 79.77854417805918,496.70975762492475 82.75656478296628,490.9588923895779 83.04018579295477,487.5113094611535 79.82919056298397,483.89732470415925 75.74707382745764,481.5333256865812 74.98737452555223,481.17040634327026 74.57207244434868,480.58570123628544 72.46517334499052,480.3034291302421 71.51301695715236,479.90018231902155 70.6317658218105,478.92734589321265 70.37853272118302,478.25190214532034 70.20633430682612,477.55629278256487 68.64641855586747,474.67805495410846 67.66387425867322,471.2604015078211 66.95482173370034,469.8489616492464 59.47938172405504,465.0903094711166 49.89704261502206,461.13810923610947 46.63540080413078,459.0712340476846 44.43733797669451,455.4516217625755 43.272465635353726,451.3328335901618 42.74574095850874,442.4798745521998 41.91513640410375,438.7338643734589 37.741855744526596,429.8499887203975 27.804990176990184,415.36855020300703 24.614253618593576,411.6521798155807 11.719626117734109,401.5363609327893 6.968974004381085,395.59566623135504 5.034273319361791,388.70155860358375 2.4715547956598747,372.1030115757083 0,363.6946183471365 0.3443970247078341,359.6541876450043 3.069184725001163,355.502671400217 20.137093081436735,338.1387038484546 22.314897433305955,334.824083805871 23.581062740478863,330.96954572765003 23.996365017679725,326.0553666408871 23.449381669280214,322.8212014800357 22.385802685807178,319.8493383803504 21.767914084888403,316.77649902151813 22.54787205838934,313.20405134555875 24.482572351382856,310.20171347007465 26.73128215176537,307.71401441363844 28.58494815049276,305.1556251983631 30.03344130581653,298.6862773159049 33.639480141428756,290.0061856589432 36.96189777102402,284.47486918637463 40.061470405359955,274.5320742562032 43.56621607913454,269.49478960895954 45.13626106787179,266.1028459062925 45.40975284009973,262.39785806011895 43.778931836628374,258.9451622502148 38.52181352199742,252.26162224534292 35.89831898358109,244.2247781758707 32.646806410453664,242.06403607836856 29.37503516574384,240.41316515563975 27.896154101065616,237.72225160858076 29.243354094530428,231.1537677088157 32.39357330980158,226.66519836623766 35.969224236059354,222.84802555392662 38.612977250041105,219.59122162595924 42.60393045353089,212.97132525087423 44.082811518194355,211.58771881074136 46.54423707606907,210.9666058514843 48.438420221940994,211.50692370412904 50.32247413002448,212.43606318212937 52.773770254101954,212.92082876245547 57.57506914439242,212.2593251367023 59.854166658120604,210.48183268211193 62.80179954966236,204.91690950614694 68.05891806030867,199.87695975739564 74.63284826306251,196.65997280253103 81.9968658730686,196.23574888665036 89.69515087800275,199.5739503674347 98.29494568983492,196.4983639530247 102.79236489855612,195.7155671922916 107.82663821793267,195.45295049540454 108.88008757159312,196.09434033699307 111.88849647787062,198.9275278580808 113.18504969439962,199.5739503674347 115.71738050477391,199.3517429291148 119.01953965882016,198.34675484744724 134.52753226430528,196.76097847266448 139.46051222580752,195.45295049540454 141.5572822834139,194.6347948261079 143.01590467651627,193.82673473666583 144.7075013026566,193.17523220015195 147.49306521367805,192.78129909613847 149.2049205113942,193.10452632425537 150.73444815697977,193.7560292270884 152.34501068488734,193.9176417899878 154.310099083249,192.78129909613847 147.15879742673735,186.35698186599743 146.2775464874305,184.1700123298823 146.5206501542624,181.57893413498772 147.1284095173993,179.3615748074574 150.04565430358272,172.76987377636425 151.35233695390733,167.1527587426713 152.63876093265773,164.45018813146348 154.8469531938896,163.29842033727513 158.331440196067,163.4196597288429 160.8131242295055,164.18750523925428 162.48446238010334,166.21318028043973 163.5480413635731,170.10278632427108 166.59696722096174,168.84499208966633 169.6864108135492,167.07193496304697 172.07693072689852,164.80379886277265 173.03921654853065,162.0809697124341 171.57046472163597,158.16584873100902 165.0370516660201,150.2594450554549 163.70521057331047,146.9425202171672 173.32299582510788,145.50035474107423 184.7691303676166,144.87385785413417 263.4030610151185,132.7272536628421 310.4537639958588,135.95097427019965 328.8587429398599,135.25368782957878 332.0798675650641,133.71762221550514 334.61726294568916,131.9996306638246 338.6943152579127,128.6039973025004 342.14334951378834,124.9859234350055 345.1163057021113,123.23748486712381 349.09712939000576,122.05499989963982 360.4217119767122,121.16560166395918 379.7383299722446,122.1964943394396 391.7365125767045,121.34752461142716 393.5344671719903,120.66025862181131 396.97843690258117,113.98952772223548 400.5642170426176,112.93834750507915 401.44546823740086,112.33189293504165 403.0813537933317,109.35011246099167 404.35258365814127,107.98554305581563 409.093106585015,105.2361398776156 411.6963423806741,104.43758766442694 412.3598131716018,103.68957176446925 412.5775935754458,101.65777409765808 410.72392761567255,98.30169166602386 410.66315154962933,97.33123990803972 411.0379364675665,96.48208778951815 413.5702671466489,94.84441961075301 421.5926907647586,92.31710781607119 411.2658462745286,123.42951114675306 405.3503221071646,167.72878363912577 405.18825289153045,174.3157032836322 405.5377144779927,177.77066458796946 414.7959152263535,180.1547336206884 416.8167151033182,180.32646559822558 418.99958401964443,180.1850393534474 428.5515351662591,177.3867847081284 433.06414828618387,176.51799962162067 437.24249392429056,176.25534267618494 441.1878650538975,176.78065618484032 453.66212554961936,180.82145662541419 455.91590011136304,181.91245020059327 458.10383372924497,183.42770300555128 460.5703236407318,185.78135933927533 461.7402603559373,187.8723385221783 462.2720499642468,189.97338391700666 462.46957156190234,192.48853131513525 462.9962964686577,195.38745408241348 464.45998340584794,199.73066313774976 466.47065405599676,201.44770437577225 468.68897570689296,202.16481488718514 477.1520246579738,200.37708134905625 483.11313078672043,197.87219181036042 486.59761795343206,195.8924860335606 488.7045170516292,194.9834269937887 489.4490221859625,194.4581899463927 491.6166971739237,193.79153968746039 492.7562460323926,193.06428087822079 493.58685038794846,191.9935865375908 494.1794157097412,189.55923820817537 494.60484729061335,188.47841282393605 495.50129241376493,187.61980657904323 496.4382546204806,186.47835605534542 497.9779117283599,184.15501782023549 499.04655511768067,183.47821116732825 501.2192949834751,183.08424720804868 502.7184346552336,182.15489172117768 522.5871007127041,213.21386510647554 525.1751425799964,219.1419844764622 527.5150161866851,226.483588510798 530.7867872985469,258.5011071733988 529.338294289725,296.11274290137334 529.4446521408814,297.44501296306294 529.5611392188538,297.6064992574368 529.748531589682,297.6872425107415 532.0630818649089,300.5233157585266 534.6156711739006,304.96402794352747 535.8008019937636,308.0623516008198 536.4338847516656,310.7872059342557 540.3438031467025,379.5578560056802 541.736584967316,386.05393542664694 542.7596465715351,387.9704288553584 544.4259201604818,389.52377993595377 546.3049094517299,390.4315754887621 548.3712911138063,390.885471387547 550.4275437253475,390.7039131851892 552.4534081275839,390.1592374962801 565.1910311648246,383.6128938509985 567.1713139582351,382.0594840416442 575.5786513685493,374.12071123877524 577.7665851627088,372.7891362954016 579.9545187805793,371.8913255679165 582.2032284645029,371.3264082996109 588.6049601025014,370.55973148890405 590.5396609345179,369.93428168187387 592.3831976674786,368.54214241927457 593.9633718589088,366.62540825729576 596.3640211790922,362.58001118463096 597.6149925902602,360.88514954938705 599.0989383336504,359.5938137381522 600.8310525139004,359.3516868607233 602.1985110030407,359.84602854551895 604.5181258035409,361.7426711880892 607.8506731577233,366.90787582368057 609.7245977474207,368.0377410412612 611.6137162654832,367.23069523464034 613.0520802237584,365.6065027157249 613.943460645369,363.598936628236 615.2957250298504,359.3012436978465 616.2883987773309,357.0615526151842 621.4391591804425,348.4253141187415 625.804897189379,336.72120214214306 626.1391648474729,335.0260468522197 626.0834536592646,330.78807348729384 625.7795738579058,328.76994762283914 622.3001515690142,318.4367045099505 621.3834478159418,314.13769598902815 621.1200854507022,311.8468572517334 621.1099562238879,309.4146932320131 621.4087711474151,307.21460863930616 622.4217035248182,304.7924576005197 623.9968131909867,302.6730416167565 630.5859373760927,296.6981357361554 634.2679461404599,292.50949488211717 635.5746287398377,290.3798002970954 636.4660091614353,288.1996052881773 637.2409023287828,283.68770464230494 636.8914407423091,266.4563349004344 637.0737685878755,264.2757606334712 637.7119156947715,262.2162972508414 640.7507126506902,256.2598289475138 641.3989891606913,254.11947404722204 641.9561019241947,249.6771191465823 642.4017921349878,247.58714203166411 643.2526552967437,245.4769384384477 645.5317528374039,241.19584852705992 646.4433918889238,238.89369538809063 646.965051917859,236.55111271893588 647.2385436861922,231.71435482413696 647.7095572284601,229.48272136019858 648.7072953249349,227.42271844468723 651.2852079653999,223.34300822799787 652.055036431195,221.3031052038023 652.2576229066822,219.31366373671725 651.8727085856401,217.1828067563908 651.2649491592015,215.6073634764558 648.9503992365313,211.46668400827042 643.6476986683224,206.69968716119683 630.4593208950154,201.6093071356038 633.751350636798,192.33701786149615 635.7215038508243,181.0639004506653 639.8947847873786,166.0921015363117 640.7101952145678,164.65746114758866 642.1232356651021,162.78836177961 649.0871451207037,156.6959094195343 650.2722757642775,154.95803948343024 652.6779897860134,148.6529989229592 664.2406114064846,126.58274075422688 666.1347948023919,123.72260323756485 668.9507463003425,124.64230177307067 704.6110262793408,137.96196559799054 707.2902320694097,139.36660765106026 718.2096417051647,146.79375710746535 725.2343268742495,149.19864023196467 728.0046967633759,150.4920031584184 729.7823927287409,151.54285001694515 734.3861699477231,156.26144414084277 734.4734815510976,156.3509315939213 732.2487245088075,159.5298407615285 729.9797564288766,167.31440594641387 728.7135911217085,168.6429355256573 725.6950529776459,170.7594610849191 724.8239310800892,172.0071330568152 724.3478529841647,174.21957291584638 723.6995762778942,175.4268008944927 712.9928823667038,187.4479267648601 709.3868437271037,193.13482898698825 708.1814542386364,196.21554767498984 707.6344708902155,199.5739503674347 709.346326383947,207.36611163895984 708.9614120161023,210.24954489994715 708.0396437336241,211.28473709361649 702.8230425661328,214.92551782165972 701.9215329552238,216.84938367929442 702.2659297839327,218.84391243351726 703.5017073777748,221.5958067311393 703.5017073777748,245.72415083723706 704.1398546502382,248.3543225583302 705.7301581145557,249.43464694404358 707.7458932898384,249.99499859407294 709.6400768277344,251.06521325674973 711.9698207263693,254.66955227803737 712.0305969370975,257.9961603262117 711.3620615592462,261.7265074124743 711.5241305398042,266.5217959317424 713.9652974261047,272.9068383083571 714.3198236886043,275.193267121024 714.3198236886043,283.19294497717834 713.3980554061244,286.5592321744414 709.5185247983023,293.7104301407043 708.9614120161023,298.6559987222544 712.3648645280048,319.7181512909037 718.3411648014223,332.1047277030112 720.0732789667362,340.52498247737236 720.2556066188521,345.4891255240284 718.99957074546,348.83377480734123 716.8521543029682,352.4810221291724 717.6321122764314,355.8103818333902 719.9213392239568,358.46877237891835 722.352376480448,360.09808542037536 728.9364361169827,361.86357514683976 730.9623005300604,363.46258652270683 731.7219998319707,367.48778404394636 731.1547578119904,370.4284313890369 728.5211338397605,377.17707981536324 727.7107881529499,380.2133710171973 727.9640212535791,385.0551745628428 729.827816294073,388.32835029822763 736.5232985262426,394.32983587059863 737.759075924089,396.23109914842723 739.865975023447,402.99376394931363 741.1726576737717,404.7688528838975 743.9075748078393,406.9523871134773 745.2243866959491,408.3189717911234 750.0763321671748,417.3300735805477 753.7634054930487,419.3117428992162 754.5940100474702,420.9807638711304 755.2726746631,420.86983245029626 756.7414264899833,423.1590373553062 758.6153509642744,426.98103089242335 760.6006984262476,429.36595003612496 761.7250530324076,430.0819234095955 763.9636333989929,431.0953734109741 770.6489861973881,433.06175101196004 772.7254971913881,434.4281177731313 776.7873556473396,440.4178145004481 778.8132202564574,442.5605413305627 782.8143025016809,456.40442402057425 787.3927562006803,463.3410685488259 787.5041787963315,464.51563283494136 789.6009486579259,464.1425961505047 791.7584943382192,463.48221849547394 793.8248760944356,463.1646312953393 795.5975076029011,463.85525659945324 798.3425539747539,466.6479757218681 799.5175553578678,469.10795136732236 799.2339343478776,472.09213734636603 797.663889359124,476.51287409704275 796.0938443703851,484.7088393347341 796.7319916428601,499.46164105408445 793.5311256506711,507.268499224699 786.4102120995145,514.6214617239294 785.4985730548296,517.2470893381973 785.0326241966886,520.6638779962628 783.7056828748063,524.4887939475859 781.5987837754268,527.8752162015328Z" name="Sipaliwini" name_en="Sipaliwini District" gn_name="Distrikt Sipaliwini" admin="Suriname" adm0_a3="SUR" iso_3166_2="SR-SI" iso_a2="SR" postal="SI" type="Distrikt" type_en="District" wikidataid="Q1130138"/><path d="M144.261811116098,137.74454134012933 143.4818535346425,135.93060505505304 144.15038871647354,133.78315171211491 145.75082161457345,131.68618912071278 155.2825141426663,122.14074930358579 157.29824931797035,119.0177212438969 158.0782070954379,114.44420455603823 158.30105228672898,110.24955061799135 158.9189408876264,107.14136575676504 160.73591672347865,103.06404591218961 163.41580047537113,100.31802746176272 165.1625104575606,98.646505830647 171.44747590697338,96.25857561112947 174.09545616652363,94.13327574037902 175.92990040962573,91.74525127257292 177.1980597708247,88.95119898572246 181.91178375988648,67.81446497826624 182.8449577256032,49.261791952735415 184.1928753276243,42.755672289992155 184.63009357777162,37.865245059583344 186.9671648849962,29.899174435947277 189.23379588577743,24.50222813425653 194.42588389014003,15.970556644990344 195.23941990659964,13.772016754607522 196.34008657006487,12.035456581210141 197.97513462307788,10.904287435664283 202.4575593217423,10.115648382023474 203.81345274784186,9.231409586682835 204.8343609744827,8.347163608194002 205.86324482918175,7.95681841151442 206.7724911266478,7.3832472195771235 209.26095470855316,4.618909590360355 210.3616211760063,3.7027586626772466 212.2837996800096,2.9937321035356934 214.26180914860686,2.6352336253920967 216.36445787271643,0.47417435565597943 217.80211829473504,0 223.2304743573662,1.4315102918812852 235.35813669620603,4.295076298368207 242.53546513870037,5.093813598180429 252.26396215508723,5.103283655566232 267.57138758073535,5.752943423261682 276.02339913417285,6.2374324976794 279.37125197844284,7.508598079656486 285.4497186576482,11.34107284271131 286.95811234258616,11.990336628375154 286.9942529205186,13.881307360455091 287.363973313194,46.55284036002681 287.9210860766975,51.48811803491519 290.93455952486045,58.16252646872885 293.09716981126917,61.49957946987763 293.8923217848167,63.25907616944802 294.2671067027539,67.70825353700893 294.7431847702951,69.79121654381522 299.6761649458286,79.74036948921177 306.852789927454,88.37438973950528 307.31873876816945,89.7088635580471 307.6985882113799,91.70043545172908 307.2427687737595,94.13677795999263 306.665397380345,95.05671118130017 305.6524651792227,95.20834797713377 303.32778550090075,93.81328323954308 302.0413617077245,93.38869490737588 300.81064892646583,93.65153544774722 299.6660355427352,94.6018001148536 298.6581678668845,95.66325663052992 297.5186191846948,96.51241482214012 296.2828418781744,96.66404951292766 294.97109457724406,96.42143387609039 293.8923217848167,96.58317774974168 293.58844198345787,97.77603134628359 294.31775318940976,99.7573539078007 300.81064892646583,106.38847112377452 301.78306404402736,107.96532710880155 302.3199180013309,109.85550421003902 302.13252545422193,112.59469042705769 301.24114503262444,114.46457715047394 300.1623722401857,115.84928519000172 299.20008652572903,116.83979576112452 298.3593527670666,118.0526548066642 298.1922190261576,120.21555505340078 297.447713891839,121.42837908590175 297.0121530841394,122.62097698637568 297.2349980132551,123.46993767340416 298.6176506070429,124.01569477283009 301.73748208264476,124.7231539777854 303.4797254897206,125.42050237550568 304.68005006166123,124.9859234350055 305.1763869354024,124.01569477283009 305.7740169587475,121.10496050143946 306.4881342363327,119.82138479287326 307.3643207295635,119.15432402485293 308.48867548338484,119.03303993602773 309.76497004974686,119.73042216886121 311.3400795396361,121.78211701973436 312.47456387283177,123.91462889977153 313.8268284336037,127.22954652256192 314.8245667063478,129.13962454819205 314.87521319300527,130.9587177269329 313.9787682461444,132.74746515847337 312.5505336909625,133.6569875111805 310.4537639958588,135.95097427019965 263.4030610151185,132.7272536628421 184.7691303676166,144.87385785413417 173.32299582510788,145.50035474107423 163.70521057331047,146.9425202171672 163.5480413635731,146.55108753964421 162.7073075713895,145.3486253625422 160.74221897701082,144.7524421225083 158.51376804420147,144.86359518468936 156.86268836918873,145.8235489293548 156.51829134446612,147.69796239391886 157.53122374704003,149.5875033183953 159.5368294885419,151.9569658298795 159.0202340494821,153.25535104887078 157.72368083295308,154.09398930339935 156.03208401077939,154.31627787989635 154.310099083249,153.8312838286208 153.32755478607115,152.760248478038 152.97302852356503,151.21935571312437 152.66914884201708,137.56264364990963 152.0411308073224,137.0169491063941 150.8053536054865,137.07758184840242 148.8301355773352,136.59757097953755 146.00405471520423,137.74454134012933 144.261811116098,137.74454134012933Z" name="Nickerie" name_en="Nickerie District" gn_name="Distrikt Nickerie" admin="Suriname" adm0_a3="SUR" iso_3166_2="SR-NI" iso_a2="SR" postal="NI" type="Distrikt" type_en="District" wikidataid="Q1147515"/><path d="M763.8134468086047,129.77264992741476 759.9929388671003,134.197486960862 744.5659807518933,145.27789192938772 736.3004535309849,153.74034721522222 734.4734815510976,156.3509315939213 734.3861699477231,156.26144414084277 729.7823927287409,151.54285001694515 728.0046967633759,150.4920031584184 725.2343268742495,149.19864023196467 718.2096417051647,146.79375710746535 707.2902320694097,139.36660765106026 704.6110262793408,137.96196559799054 668.9507463003425,124.64230177307067 675.4031249538378,115.57638782346746 676.4464450116951,113.50436877541541 677.2618556151635,111.42220523218941 677.7835156441004,109.03676813887256 678.1025893738276,106.37836309905133 678.1785591919567,102.23395913378931 677.1554975877393,95.49140247472678 674.2281233607989,88.51592564800416 669.3660486544021,81.45913797885362 665.3244489004661,73.33014231940187 659.2620494458462,64.39161082141545 657.7325215647827,61.07486935344758 656.0510542237469,55.22988166614432 654.5164618174216,52.1353509776318 652.8907056645842,47.90804123061888 652.5868258632253,46.4314783642526 651.9942605414441,41.374604680319614 652.2272350499356,38.94722236241644 653.0274515487565,36.76253160582213 656.8563352478311,32.200836561270876 658.2035352833298,29.41922081525454 656.7854301312544,13.800374873653897 658.1680825487598,9.591797439094798 659.1513209213203,7.196859687381749 665.299218684408,8.297806477072758 704.8500321016011,13.822859369257856 728.9893560723823,19.15048036538212 747.7931467740882,22.859403842413926 764.1324805559268,28.12543644447384 778.2349242029621,32.15109898043323 782.7313596156499,32.63101702992692 785.1667478027655,33.478337075508925 790.1259746743615,33.1275320324769 791.2604632226571,34.72597395072662 793.3149667050111,35.49598187246199 794.4469088308277,37.4731702487783 794.1294861254949,39.51738775135266 798.8773168082306,48.56059806701355 800.0000000000001,52.05050675276853 798.1255298217402,54.23071027974443 793.4540079192185,63.143186407391305 791.2204817827541,66.99201365449589 790.1833421954742,74.78093510025687 787.4538499546694,89.93031913789683 785.348226908747,97.59582259392701 782.8996426432624,102.10891639971884 779.334440262166,106.39101813934012 775.936730578805,109.34382488484859 774.1022863357045,111.30966796625586 773.3047017714028,113.14018013053945 772.1322526911972,116.8807023811386 763.8134468086047,129.77264992741476Z" name="Marowijne" name_en="Marowijne District" gn_name="Distrikt Marowijne" admin="Suriname" adm0_a3="SUR" iso_3166_2="SR-MA" iso_a2="SR" postal="MA" type="Distrikt" type_en="District" wikidataid="Q1140897"/><path d="M286.95811234258616,11.990336628375154 289.0402217875552,12.88654060976533 292.7946723035836,13.864662591289997 302.0252230786103,14.688397961455816 323.30152787022524,19.621466717977682 335.7073590797834,22.88643744573035 345.74670173586094,23.309710490101146 354.96733967296456,25.678676086925513 361.6185001193815,27.568134509821583 367.7330089380088,29.16084761023913 380.94100752748903,32.01215898446727 389.02085270262614,34.690410880583364 393.81178282560404,35.98782464810425 397.849797899484,36.68719123514512 405.4574817375451,39.3199823781983 417.8409085064045,40.50446443722041 421.39449076454224,44.40413814139927 424.2019880937714,46.04461590966258 425.3505097017253,48.65658781105551 425.3505097017253,65.54531322381403 425.4376381578809,65.54531316541605 425.0214662144326,66.45441246591594 422.32200179444277,69.29575810448877 419.3541103076608,70.01366661444928 413.9956987275326,70.62034642307684 412.3648778731559,71.20680028425502 411.22532901468696,71.99547482282703 410.70366898575173,73.00658810263769 410.3187546647097,74.41202015440595 410.4301772174186,75.65566128460271 410.8404148699241,76.97006363029584 411.5393380428601,78.42599914755203 413.05367164298696,80.79185444803205 418.27027281368106,86.41308930992089 419.01984264956684,87.00957069702721 420.47846506148215,88.61702249192561 421.5926907647586,92.31710781607119 413.5702671466489,94.84441961075301 411.0379364675665,96.48208778951815 410.66315154962933,97.33123990803972 410.72392761567255,98.30169166602386 412.5775935754458,101.65777409765808 412.3598131716018,103.68957176446925 411.6963423806741,104.43758766442694 409.093106585015,105.2361398776156 404.35258365814127,107.98554305581563 403.0813537933317,109.35011246099167 401.44546823740086,112.33189293504165 400.5642170426176,112.93834750507915 396.97843690258117,113.98952772223548 393.5344671719903,120.66025862181131 391.7365125767045,121.34752461142716 379.7383299722446,122.1964943394396 360.4217119767122,121.16560166395918 349.09712939000576,122.05499989963982 345.1163057021113,123.23748486712381 342.14334951378834,124.9859234350055 338.6943152579127,128.6039973025004 334.61726294568916,131.9996306638246 332.0798675650641,133.71762221550514 328.8587429398599,135.25368782957878 310.4537639958588,135.95097427019965 312.5505336909625,133.6569875111805 313.9787682461444,132.74746515847337 314.87521319300527,130.9587177269329 314.8245667063478,129.13962454819205 313.8268284336037,127.22954652256192 312.47456387283177,123.91462889977153 311.3400795396361,121.78211701973436 309.76497004974686,119.73042216886121 308.48867548338484,119.03303993602773 307.3643207295635,119.15432402485293 306.4881342363327,119.82138479287326 305.7740169587475,121.10496050143946 305.1763869354024,124.01569477283009 304.68005006166123,124.9859234350055 303.4797254897206,125.42050237550568 301.73748208264476,124.7231539777854 298.6176506070429,124.01569477283009 297.2349980132551,123.46993767340416 297.0121530841394,122.62097698637568 297.447713891839,121.42837908590175 298.1922190261576,120.21555505340078 298.3593527670666,118.0526548066642 299.20008652572903,116.83979576112452 300.1623722401857,115.84928519000172 301.24114503262444,114.46457715047394 302.13252545422193,112.59469042705769 302.3199180013309,109.85550421003902 301.78306404402736,107.96532710880155 300.81064892646583,106.38847112377452 294.31775318940976,99.7573539078007 293.58844198345787,97.77603134628359 293.8923217848167,96.58317774974168 294.97109457724406,96.42143387609039 296.2828418781744,96.66404951292766 297.5186191846948,96.51241482214012 298.6581678668845,95.66325663052992 299.6660355427352,94.6018001148536 300.81064892646583,93.65153544774722 302.0413617077245,93.38869490737588 303.32778550090075,93.81328323954308 305.6524651792227,95.20834797713377 306.665397380345,95.05671118130017 307.2427687737595,94.13677795999263 307.6985882113799,91.70043545172908 307.31873876816945,89.7088635580471 306.852789927454,88.37438973950528 299.6761649458286,79.74036948921177 294.7431847702951,69.79121654381522 294.2671067027539,67.70825353700893 293.8923217848167,63.25907616944802 293.09716981126917,61.49957946987763 290.93455952486045,58.16252646872885 287.9210860766975,51.48811803491519 287.363973313194,46.55284036002681 286.9942529205186,13.881307360455091 286.95811234258616,11.990336628375154Z" name="Coronie" name_en="Coronie District" gn_name="Distrikt Coronie" admin="Suriname" adm0_a3="SUR" iso_3166_2="SR-CR" iso_a2="SR" postal="CR" type="Distrikt" type_en="District" wikidataid="Q1130141"/><path d="M425.4376381578809,65.54531316541605 426.81008923291296,65.54531322381403 427.83897308762187,62.46397006960151 428.17395867911614,59.40642869179635 428.0303934536194,52.78146561540986 427.39232576296314,49.34938698151189 424.0105677277722,41.96726658707102 421.8874990122706,37.155589947099514 424.9059166075049,33.20332779290918 422.937889169913,31.450673911412725 420.53819421666964,31.5612639572067 418.24220183371034,31.66416013436961 415.5150059010725,29.375271843323254 414.8687736245155,25.462379027424078 415.7508721299175,22.529699508683866 418.93327435398305,18.40167753928625 420.2701924144908,16.392260037598277 422.86101802452725,13.696451580283384 424.77043226978594,11.674225622531017 427.63261270353297,9.518934708649223 431.1729238098163,8.176179466183076 435.8005222277622,6.972367192870776 440.56121106012927,6.715290412693998 458.39969281081085,5.943589576727773 468.30043234476557,5.152663422527276 476.3879385449366,5.025200001787785 523.8882162292903,7.380706002112666 535.4570902552222,9.567110157674627 540.9644116806053,13.356991412943062 544.0664252816999,14.653478001856655 548.2263701046737,15.970556644990344 549.6061911990371,16.671531048444823 551.6794899650906,18.359880239445694 551.556963180723,18.716915554599716 538.9307625199021,45.24819088182587 533.41534660196,51.154386801364424 531.7642671176608,52.31738463345527 531.2628655423672,54.582666737422265 531.0704082937058,59.24455163504207 532.2808624450337,66.33307216791792 533.3697646405659,68.33516887349393 533.8458427081055,69.6496571133842 533.795196045159,70.98435258743584 532.8936863967456,72.09658664957021 530.9741798456558,73.00658810263769 527.6669559992241,73.79524996885809 525.408117088488,75.37255724199308 524.9421682477725,76.67685223946411 525.6309621938943,77.82947245825828 526.6793471295751,78.87086460706213 527.4086583355402,80.14478784631224 527.6213740378416,81.55013089803346 527.0288085397714,82.9756766535638 525.8791304544866,84.27988370588058 524.2432450748349,85.73572497117566 523.6658736814122,87.13088885976137 523.144213476206,89.91105503505847 521.8223367721707,92.50918559407972 521.8881775397664,93.79306462415899 522.7542346298923,95.12747518511934 525.6714792774469,97.43232894289986 526.5729891021493,98.65550016696055 526.7147996878757,99.91909290014539 526.3450792952003,101.31408349027684 525.448634348328,102.7090569832626 524.5167366668888,103.92206363655782 524.045723124621,105.11484108084221 523.7570376041888,107.56100707501096 523.1948601391426,108.62234419488378 521.7210436225798,109.52194575519329 518.7987340971919,110.82585073429136 517.1122018783129,110.81574292104817 516.0384936111589,111.91748076438624 515.6383853617484,113.06974555182344 515.0053027801273,114.13103210730459 513.9569180207142,114.51511444537337 512.5945240568489,113.50436877541541 511.4904279329466,112.47339933721136 510.2850386594421,111.84672724624856 508.71499351854686,112.45318399667723 507.5146689465948,113.26178854321502 505.1292133785121,113.88845318177665 445.56879699120077,118.53779482776861 437.8502533507308,116.4961501965817 435.42428052280485,116.35464868404969 426.5965758806027,118.63886533869996 424.8999144349094,118.2750107384786 423.4666153544658,117.22386917313297 423.036119072028,114.07038746730034 422.2207084685596,111.64457417517698 422.2612259046804,108.9559050638957 423.70465438822896,105.7112251792953 425.62922564087285,103.78054695423073 426.7890329529833,101.77907653363475 426.9460374670666,99.80789745533544 424.93536699319856,97.72548690362312 424.1452798974826,95.29932988774478 421.5926907647586,92.31710781607119 420.47846506148215,88.61702249192561 419.01984264956684,87.00957069702721 418.27027281368106,86.41308930992089 413.05367164298696,80.79185444803205 411.5393380428601,78.42599914755203 410.8404148699241,76.97006363029584 410.4301772174186,75.65566128460271 410.3187546647097,74.41202015440595 410.70366898575173,73.00658810263769 411.22532901468696,71.99547482282703 412.3648778731559,71.20680028425502 413.9956987275326,70.62034642307684 419.3541103076608,70.01366661444928 422.32200179444277,69.29575810448877 425.0214662144326,66.45441246591594 425.4376381578809,65.54531316541605Z" name="Saramacca" name_en="Saramacca District" gn_name="Distrikt Saramacca" admin="Suriname" adm0_a3="SUR" iso_3166_2="SR-SA" iso_a2="SR" postal="SA" type="Distrikt" type_en="District" wikidataid="Q1351157"/><path d="M551.6794899650906,18.359880239445694 553.6977993416248,20.009061029102973 555.6598571620519,21.20385561643776 556.273997184446,21.371125747270824 556.1303521904085,22.196799326254343 555.9682829747629,25.089872195634317 556.4544906216881,32.26152569258864 557.9080483320527,37.70316776967503 558.7741054221785,39.715899314512875 559.9389776121222,41.58699835980807 561.3368241342752,43.134423472465045 564.7301470256616,45.30887255299128 573.122290860156,48.0395148593001 573.7097914803946,49.283451650925514 576.0749884185681,52.92416107630839 579.0074271707718,56.11979579417556 582.5678841556257,58.70859651927178 590.3877209456981,61.17599091538181 594.2571222571743,62.87482042918875 595.9487191775926,65.5140222703152 594.6876183633198,66.95999523716492 593.6240396755384,67.4756873820732 583.7783379543921,64.54328886300793 578.8099053968471,64.30060396753164 557.8624663706586,68.33516887349393 551.26827748401,68.51717591476954 532.2808624450337,66.33307216791792 531.0704082937058,59.24455163504207 531.2628655423672,54.582666737422265 531.7642671176608,52.31738463345527 533.41534660196,51.154386801364424 538.9307625199021,45.24819088182587 551.556963180723,18.716915554599716 551.6794899650906,18.359880239445694Z" name="Wanica" name_en="Wanica District" gn_name="Distrikt Wanica" admin="Suriname" adm0_a3="SUR" iso_3166_2="SR-WA" iso_a2="SR" postal="WA" type="Distrikt" type_en="District" wikidataid="Q1147524"/><path d="M556.273997184446,21.371125747270824 557.909045237459,21.801247908812858 559.5839726068928,21.801247908812858 561.6317576972574,22.085655228136016 564.3901406897618,22.3530595633204 566.6350685891938,21.590604413798346 569.1549860065136,20.53477228340066 572.3326533078329,20.242349929487673 575.6871631916141,22.654433345510114 579.5873905630965,25.52890024407198 581.1010169362143,28.4178152057562 578.7500209652703,34.14975839176016 575.8546952882413,37.35617429874141 576.1019466188229,37.236713458610375 572.934898313047,40.00920871147015 570.5139901866752,41.13186904250735 571.8611902221722,45.35944067456702 573.122290860156,48.0395148593001 564.7301470256616,45.30887255299128 561.3368241342752,43.134423472465045 559.9389776121222,41.58699835980807 558.7741054221785,39.715899314512875 557.9080483320527,37.70316776967503 556.4544906216881,32.26152569258864 555.9682829747629,25.089872195634317 556.1303521904085,22.196799326254343 556.273997184446,21.371125747270824Z" name="Paramaribo" name_en="Paramaribo District" gn_name="Distrikt Paramaribo" admin="Suriname" adm0_a3="SUR" iso_3166_2="SR-PM" iso_a2="SR" postal="PM" type="Distrikt" type_en="District" wikidataid="Q1130134"/><path d="M576.1019466188229,37.236713458610375 581.506346003071,35.447222280560034 583.3345877639439,31.083950904915937 583.523434853504,26.71399902070305 584.5483658827269,25.2103025601586 588.8796094141745,25.193811875857477 595.3556351512143,29.71837247409428 599.3276057365591,30.54668992481169 601.8878517352066,29.973240179846947 603.4830206678093,28.953766133870232 604.9984311635877,28.603319862795395 609.3851455812359,31.279427038320062 611.0520971265911,31.574113188526063 612.7190486719463,31.215710939450553 614.6492030000313,30.54668992481169 616.18056514397,29.590938591092513 617.2493283151011,28.284731087573768 618.5653426207921,27.15373405737233 620.8623858366999,26.6599145514303 622.7207575520423,27.058156139086407 624.6907911965479,28.03782430992989 628.1602836886751,30.54668992481169 627.2749648634476,28.953766133870232 625.9429989095884,27.408607634385863 624.4036607455561,26.078479244148323 622.816467833047,25.2103025601586 620.2322941661456,24.700544378746905 618.4470081669884,24.97023889707112 616.6299135464247,26.418684552516186 614.3820405313309,27.77978061427355 609.8954701290686,28.190277141263206 606.8850801057026,26.293144705829512 604.1275223336272,25.682269198127972 601.0142039966778,27.469116000169887 598.0594463753586,27.32895969418136 595.0924323684862,24.88373897312217 592.0456597287676,23.354452123714545 580.6721053823765,20.096679718281923 576.6841831488731,18.192947749375858 573.2864734655137,15.946659775818143 571.8348697584078,13.843709006043207 571.1010919827555,11.788512286423643 569.9559529945216,10.466542701217053 571.2579154231723,8.415192219154763 572.9875229569184,7.307896767302174 578.4069656588108,5.152663422527276 584.5912624481103,4.096839890915087 592.530262684974,3.6160076816277447 598.58585213684,3.5593603821696846 645.6911897111288,5.152663422527276 649.2643681123288,5.997104258991417 657.6548352747808,6.928871866124903 659.1513209213203,7.196859687381749 658.1680825487598,9.591797439094798 656.7854301312544,13.800374873653897 658.2035352833298,29.41922081525454 656.8563352478311,32.200836561270876 653.0274515487565,36.76253160582213 652.2272350499356,38.94722236241644 651.9942605414441,41.374604680319614 652.5868258632253,46.4314783642526 652.8907056645842,47.90804123061888 654.5164618174216,52.1353509776318 656.0510542237469,55.22988166614432 657.7325215647827,61.07486935344758 659.2620494458462,64.39161082141545 665.3244489004661,73.33014231940187 669.3660486544021,81.45913797885362 674.2281233607989,88.51592564800416 599.2660720745578,93.96492150932814 595.3358950496016,93.84361097997306 591.6690802136011,92.67093482878646 592.0489298330923,81.71189575026469 591.8969900205517,79.72014854209176 591.2689721404714,78.87086460706213 590.5092729014906,78.50688401922312 590.5903074211737,77.70814466285724 590.8435405595976,76.80829197154212 590.6004366479897,76.2016456503036 589.4051766013108,76.14098089089222 588.1693994710811,76.66674140327237 587.1463378668523,77.2936066016479 586.5841604018077,77.53626313151923 584.6292012924288,77.25316382511129 583.8846959818179,77.59692713823208 583.8137906889605,77.41493484402135 583.904954611737,75.5343311434098 584.3253214910683,75.10967426510804 586.5841604018077,70.86301738960582 593.6240396755384,67.4756873820732 594.6876183633198,66.95999523716492 595.9487191775926,65.5140222703152 594.2571222571743,62.87482042918875 590.3877209456981,61.17599091538181 582.5678841556257,58.70859651927178 579.0074271707718,56.11979579417556 576.0749884185681,52.92416107630839 573.7097914803946,49.283451650925514 573.122290860156,48.0395148593001 571.8611902221722,45.35944067456702 570.5139901866752,41.13186904250735 572.934898313047,40.00920871147015 576.1019466188229,37.236713458610375Z" name="Commewijne" name_en="Commewijne District" gn_name="Distrikt Commewijne" admin="Suriname" adm0_a3="SUR" iso_3166_2="SR-CM" iso_a2="SR" postal="CM" type="Distrikt" type_en="District" wikidataid="Q952510"/><path d="M593.6240396755384,67.4756873820732 586.5841604018077,70.86301738960582 584.3253214910683,75.10967426510804 583.904954611737,75.5343311434098 583.8137906889605,77.41493484402135 583.8846959818179,77.59692713823208 584.6292012924288,77.25316382511129 586.5841604018077,77.53626313151923 587.1463378668523,77.2936066016479 588.1693994710811,76.66674140327237 589.4051766013108,76.14098089089222 590.6004366479897,76.2016456503036 590.8435405595976,76.80829197154212 590.5903074211737,77.70814466285724 590.5092729014906,78.50688401922312 591.2689721404714,78.87086460706213 591.8969900205517,79.72014854209176 592.0489298330923,81.71189575026469 591.6690802136011,92.67093482878646 595.3358950496016,93.84361097997306 599.2660720745578,93.96492150932814 674.2281233607989,88.51592564800416 677.1554975877393,95.49140247472678 678.1785591919567,102.23395913378931 678.1025893738276,106.37836309905133 677.7835156441004,109.03676813887256 677.2618556151635,111.42220523218941 676.4464450116951,113.50436877541541 675.4031249538378,115.57638782346746 668.9507463003425,124.64230177307067 666.1347948023919,123.72260323756485 664.2406114064846,126.58274075422688 652.6779897860134,148.6529989229592 650.2722757642775,154.95803948343024 649.0871451207037,156.6959094195343 642.1232356651021,162.78836177961 640.7101952145678,164.65746114758866 639.8947847873786,166.0921015363117 635.7215038508243,181.0639004506653 633.751350636798,192.33701786149615 630.4593208950154,201.6093071356038 628.8588878973852,202.7203202066055 627.5977872593915,202.74052016248103 626.2759107316452,201.77090968947505 625.73399189651,200.31647981489328 625.8859317090507,198.80143080067202 626.5392729206042,195.7106748908395 626.5038205385943,187.89254103450085 626.2050054387779,185.90257639319168 625.5769873824285,184.0135959303626 624.0373302745475,182.26601068134087 622.548320005884,180.88206758215816 621.5049997717458,179.1041326516194 621.4695472134583,177.2857635817181 622.3761215634241,173.20443783772075 622.1634058611228,171.13341671168203 621.484741141825,169.06236035358518 620.3654510895561,167.08219575131247 618.8409880863244,165.1222057190234 616.9822572487162,163.40466251866724 606.625024901738,156.3422751023333 604.8321350080064,154.69533587817477 603.6216808566685,152.71493773106175 603.105085353018,150.59304645601884 602.4669380698313,138.76028926181004 601.5856870513387,136.91099939943652 600.2384871921192,135.43558887425894 596.2525988026723,134.8090393065347 537.7405673510549,135.31432154209833 532.6404534346009,136.33498518194662 530.6956233757686,139.12408052483104 530.2803211979914,141.0541772782161 531.1818310226839,142.77203809795694 532.1846338207014,143.98463088795606 532.994979546348,145.1567922751365 533.2684713146828,146.38957046439396 533.1418548336153,147.68296325013944 532.4429314843985,149.46135580241952 525.4688929782504,160.89902701183127 518.9658678380993,167.4863137788806 509.45443395132617,174.4773411076771 502.7184346552336,182.15489172117768 501.2192949834751,183.08424720804868 499.04655511768067,183.47821116732825 497.9779117283599,184.15501782023549 496.4382546204806,186.47835605534542 495.50129241376493,187.61980657904323 494.60484729061335,188.47841282393605 494.1794157097412,189.55923820817537 493.58685038794846,191.9935865375908 492.7562460323926,193.06428087822079 491.6166971739237,193.79153968746039 489.4490221859625,194.4581899463927 488.7045170516292,194.9834269937887 486.59761795343206,195.8924860335606 483.11313078672043,197.87219181036042 477.1520246579738,200.37708134905625 468.68897570689296,202.16481488718514 466.47065405599676,201.44770437577225 464.45998340584794,199.73066313774976 462.9962964686577,195.38745408241348 462.46957156190234,192.48853131513525 462.2720499642468,189.97338391700666 461.7402603559373,187.8723385221783 460.5703236407318,185.78135933927533 458.10383372924497,183.42770300555128 455.91590011136304,181.91245020059327 453.66212554961936,180.82145662541419 441.1878650538975,176.78065618484032 437.24249392429056,176.25534267618494 433.06414828618387,176.51799962162067 428.5515351662591,177.3867847081284 418.99958401964443,180.1850393534474 416.8167151033182,180.32646559822558 414.7959152263535,180.1547336206884 405.5377144779927,177.77066458796946 405.18825289153045,174.3157032836322 405.3503221071646,167.72878363912577 411.2658462745286,123.42951114675306 421.5926907647586,92.31710781607119 424.1452798974826,95.29932988774478 424.93536699319856,97.72548690362312 426.9460374670666,99.80789745533544 426.7890329529833,101.77907653363475 425.62922564087285,103.78054695423073 423.70465438822896,105.7112251792953 422.2612259046804,108.9559050638957 422.2207084685596,111.64457417517698 423.036119072028,114.07038746730034 423.4666153544658,117.22386917313297 424.8999144349094,118.2750107384786 426.5965758806027,118.63886533869996 435.42428052280485,116.35464868404969 437.8502533507308,116.4961501965817 445.56879699120077,118.53779482776861 505.1292133785121,113.88845318177665 507.5146689465948,113.26178854321502 508.71499351854686,112.45318399667723 510.2850386594421,111.84672724624856 511.4904279329466,112.47339933721136 512.5945240568489,113.50436877541541 513.9569180207142,114.51511444537337 515.0053027801273,114.13103210730459 515.6383853617484,113.06974555182344 516.0384936111589,111.91748076438624 517.1122018783129,110.81574292104817 518.7987340971919,110.82585073429136 521.7210436225798,109.52194575519329 523.1948601391426,108.62234419488378 523.7570376041888,107.56100707501096 524.045723124621,105.11484108084221 524.5167366668888,103.92206363655782 525.448634348328,102.7090569832626 526.3450792952003,101.31408349027684 526.7147996878757,99.91909290014539 526.5729891021493,98.65550016696055 525.6714792774469,97.43232894289986 522.7542346298923,95.12747518511934 521.8881775397664,93.79306462415899 521.8223367721707,92.50918559407972 523.144213476206,89.91105503505847 523.6658736814122,87.13088885976137 524.2432450748349,85.73572497117566 525.8791304544866,84.27988370588058 527.0288085397714,82.9756766535638 527.6213740378416,81.55013089803346 527.4086583355402,80.14478784631224 526.6793471295751,78.87086460706213 525.6309621938943,77.82947245825828 524.9421682477725,76.67685223946411 525.408117088488,75.37255724199308 527.6669559992241,73.79524996885809 530.9741798456558,73.00658810263769 532.8936863967456,72.09658664957021 533.795196045159,70.98435258743584 533.8458427081055,69.6496571133842 533.3697646405659,68.33516887349393 532.2808624450337,66.33307216791792 551.26827748401,68.51717591476954 557.8624663706586,68.33516887349393 578.8099053968471,64.30060396753164 583.7783379543921,64.54328886300793 593.6240396755384,67.4756873820732Z" name="Para" name_en="Para District" gn_name="Distrikt Para" admin="Suriname" adm0_a3="SUR" iso_3166_2="SR-PR" iso_a2="SR" postal="PR" type="Distrikt" type_en="District" wikidataid="Q1140891"/><path d="M596.2525988026723,134.8090393065347 600.2384871921192,135.43558887425894 601.5856870513387,136.91099939943652 602.4669380698313,138.76028926181004 603.105085353018,150.59304645601884 603.6216808566685,152.71493773106175 604.8321350080064,154.69533587817477 606.625024901738,156.3422751023333 616.9822572487162,163.40466251866724 618.8409880863244,165.1222057190234 620.3654510895561,167.08219575131247 621.484741141825,169.06236035358518 622.1634058611228,171.13341671168203 622.3761215634241,173.20443783772075 621.4695472134583,177.2857635817181 621.5049997717458,179.1041326516194 622.548320005884,180.88206758215816 624.0373302745475,182.26601068134087 625.5769873824285,184.0135959303626 626.2050054387779,185.90257639319168 626.5038205385943,187.89254103450085 626.5392729206042,195.7106748908395 625.8859317090507,198.80143080067202 625.73399189651,200.31647981489328 626.2759107316452,201.77090968947505 627.5977872593915,202.74052016248103 628.8588878973852,202.7203202066055 630.4593208950154,201.6093071356038 643.6476986683224,206.69968716119683 648.9503992365313,211.46668400827042 651.2649491592015,215.6073634764558 651.8727085856401,217.1828067563908 652.2576229066822,219.31366373671725 652.055036431195,221.3031052038023 651.2852079653999,223.34300822799787 648.7072953249349,227.42271844468723 647.7095572284601,229.48272136019858 647.2385436861922,231.71435482413696 646.965051917859,236.55111271893588 646.4433918889238,238.89369538809063 645.5317528374039,241.19584852705992 643.2526552967437,245.4769384384477 642.4017921349878,247.58714203166411 641.9561019241947,249.6771191465823 641.3989891606913,254.11947404722204 640.7507126506902,256.2598289475138 637.7119156947715,262.2162972508414 637.0737685878755,264.2757606334712 636.8914407423091,266.4563349004344 637.2409023287828,283.68770464230494 636.4660091614353,288.1996052881773 635.5746287398377,290.3798002970954 634.2679461404599,292.50949488211717 630.5859373760927,296.6981357361554 623.9968131909867,302.6730416167565 622.4217035248182,304.7924576005197 621.4087711474151,307.21460863930616 621.1099562238879,309.4146932320131 621.1200854507022,311.8468572517334 621.3834478159418,314.13769598902815 622.3001515690142,318.4367045099505 625.7795738579058,328.76994762283914 626.0834536592646,330.78807348729384 626.1391648474729,335.0260468522197 625.804897189379,336.72120214214306 621.4391591804425,348.4253141187415 616.2883987773309,357.0615526151842 615.2957250298504,359.3012436978465 613.943460645369,363.598936628236 613.0520802237584,365.6065027157249 611.6137162654832,367.23069523464034 609.7245977474207,368.0377410412612 607.8506731577233,366.90787582368057 604.5181258035409,361.7426711880892 602.1985110030407,359.84602854551895 600.8310525139004,359.3516868607233 599.0989383336504,359.5938137381522 597.6149925902602,360.88514954938705 596.3640211790922,362.58001118463096 593.9633718589088,366.62540825729576 592.3831976674786,368.54214241927457 590.5396609345179,369.93428168187387 588.6049601025014,370.55973148890405 582.2032284645029,371.3264082996109 579.9545187805793,371.8913255679165 577.7665851627088,372.7891362954016 575.5786513685493,374.12071123877524 567.1713139582351,382.0594840416442 565.1910311648246,383.6128938509985 552.4534081275839,390.1592374962801 550.4275437253475,390.7039131851892 548.3712911138063,390.885471387547 546.3049094517299,390.4315754887621 544.4259201604818,389.52377993595377 542.7596465715351,387.9704288553584 541.736584967316,386.05393542664694 540.3438031467025,379.5578560056802 536.4338847516656,310.7872059342557 535.8008019937636,308.0623516008198 534.6156711739006,304.96402794352747 532.0630818649089,300.5233157585266 529.748531589682,297.6872425107415 529.5611392188538,297.6064992574368 529.4446521408814,297.44501296306294 529.338294289725,296.11274290137334 530.7867872985469,258.5011071733988 527.5150161866851,226.483588510798 525.1751425799964,219.1419844764622 522.5871007127041,213.21386510647554 502.7184346552336,182.15489172117768 509.45443395132617,174.4773411076771 518.9658678380993,167.4863137788806 525.4688929782504,160.89902701183127 532.4429314843985,149.46135580241952 533.1418548336153,147.68296325013944 533.2684713146828,146.38957046439396 532.994979546348,145.1567922751365 532.1846338207014,143.98463088795606 531.1818310226839,142.77203809795694 530.2803211979914,141.0541772782161 530.6956233757686,139.12408052483104 532.6404534346009,136.33498518194662 537.7405673510549,135.31432154209833 596.2525988026723,134.8090393065347Z" name="Brokopondo" name_en="Brokopondo District" gn_name="Distrikt Brokopondo" admin="Suriname" adm0_a3="SUR" iso_3166_2="SR-BR" iso_a2="SR" postal="BR" type="Distrikt" type_en="District" wikidataid="Q847680"/></svg>