<?xml version="1.0"?><svg fill="#3498db" stroke="#ecf0f1" stroke-width="1" width="800" height="592" viewBox="0 0 800 592" xmlns="http://www.w3.org/2000/svg"><path d="M753.398208922112,457.2061313515862 753.691574733532,458.0094802632996 753.2864505241952,458.7727338161206 752.6997190365197,459.4749839713727 752.2177609708534,460.2016168347969 752.1409271145317,461.0258151033758 752.4063532250991,461.6478731847479 754.6275511640116,465.1430684218567 755.6333766776568,466.2703178110992 756.87668873619,466.8539662690152 758.5111551198403,466.6083122197442 760.0338631731604,465.5507634688252 762.7859134007978,462.54870775513257 764.2736969801099,461.5607507704322 765.4890694053723,461.32203446297774 766.9139888098308,461.32203446297774 768.3249383976485,461.50499239616096 769.5333259821808,461.81689010644203 771.0700038521338,462.7159785046092 773.9827067683218,465.0594381930228 775.6241580602928,465.50372193399807 777.2306848782509,465.1639760532466 778.4390724627832,464.6046956923682 779.6893694296293,464.3119851089809 781.4006696696049,464.7719579226418 785.8430655474335,467.4985832355348 789.5450621573407,468.92367321177124 789.8803372834993,469.52470495942396 788.0502936697083,472.1708817312104 787.5962752373127,473.7403903990053 787.8058222165118,475.05030115579575 789.1469228563207,477.60381200670787 789.7476241606372,479.22188415001034 789.7615939772702,480.60999764448553 789.2097869635954,481.961492305725 786.62537426525,485.2163979733097 786.2831142307741,486.0853758964172 785.9967333276669,500.17467924678743 786.5625101579792,503.4508631442658 788.2179313341614,506.2498804217384 797.4310133076604,516.006815144747 793.0854749380983,515.9884998550016 787.9954862941305,515.9670468960813 787.8074401276199,512.0324139287073 785.169194105417,511.8445948423188 783.2847326609801,513.1593125460773 782.9076446993531,515.9643235555186 782.9013521524334,515.9990347450693 782.5309480832057,518.0422269878296 776.5684419721113,515.9956467748727 776.4671551316253,515.960880150422 773.2208251851036,510.09254053678745 770.488680585627,505.15310925038153 773.7769980197816,496.8086982568796 768.695052894274,495.31846097391735 761.9689490516851,495.31846097391735 764.5099216144388,490.1022333270635 763.0152318716417,488.3136689760286 757.7413346987613,491.21786067189663 753.0008105949023,493.82817344867954 751.8050588006654,491.5926474570519 747.1055479331918,493.35523122943493 741.5711290767338,495.4308623480763 735.3819982001437,497.75192161120344 729.8475793436891,499.82734708198694 724.7059876993138,501.755374900657 719.220822407678,503.8121473202521 712.6441875393695,506.19605233971214 708.0405431315562,508.4904434615828 703.3771111340303,510.81451526545885 698.6813019842928,513.2266063281957 693.3769704160047,515.9511266901749 686.5457390023977,522.6924347843451 679.7214924971031,529.4362790436271 672.8972460593981,536.173981582191 666.0660147133693,542.9160012412214 660.5898536886216,548.3910687085332 655.0228890585043,553.9316463406503 647.4687206139804,561.4659859174479 641.0007039598023,567.9249100369065 636.0274557932565,572.8898685337718 635.6967895475584,573.0824280901826 633.1915867333945,574.541282733973 630.2649140005735,574.9028491724192 619.3964108508884,574.3535454154905 617.8529716938759,574.2772895913339 613.2392222451384,574.049340087648 611.1472449411426,573.6460483010286 609.729310445005,572.903775394539 601.1972561201017,565.9673175898834 599.845678084019,565.4057576031574 598.6512603837101,565.831709185163 594.5511246079478,568.8619574128365 589.242601180078,571.5443656497644 583.5708630603576,573.2444920325636 572.9503239194079,574.1014896512249 560.5346656386721,575.1097059383588 557.5765607846276,575.7980643017372 545.1399478465239,583.3260236951472 544.3401768916989,584.2384916336673 544.2668354557408,585.1092338998599 544.5602011995784,587.5163108014933 544.5462314505279,588.5590583472729 544.3388823224202,589.5092682859579 544.245880730787,589.9354579872708 543.8023396270748,590.5176379722582 542.9816140148868,590.5489191387417 538.7347953672067,589.6956329063257 537.596256798266,589.1099694394348 536.562491718932,588.0481142453477 536.1138539090219,587.334184157471 535.2563155531204,585.9695358420614 534.487976584355,585.5611111745219 533.9518681382144,585.5282805282403 528.6416160270256,585.2030856358074 527.7196093456007,584.7251356066101 527.2516210965756,583.586730144569 527.0455666053291,580.491201274694 526.7906177558668,579.2154002513696 525.8197167838044,577.5988825964322 521.0071212382262,572.2449350360033 519.4075793285771,570.9098475180076 519.0072806147642,570.7248253978918 519.0094946275938,570.713460577649 519.2330114165306,569.5660909190093 520.8814476057807,566.9496536617129 525.3482906640272,554.7020493632738 526.6160498591566,552.2483721503115 527.9047637361557,550.7441131868032 534.9525270257654,545.7354045621189 537.2191267859868,543.526550764251 538.8535931873234,541.4219644036943 540.1772315341054,538.7102254075146 542.6917953032734,528.7438969656102 548.9747120664974,515.065377795925 552.8653009175122,509.4108079799949 554.2098939461591,506.8539290184659 554.9747404725451,504.5910852575617 555.0690366321245,502.4795764690936 554.4054712200489,500.0493912799995 553.3786909575778,497.70264059732733 547.9688866074531,488.3857862214915 547.0154478834703,485.75978331321636 545.4508304216943,479.80366290329687 544.8431442220494,437.4518403247107 546.519519987122,429.9172834202693 680.3257408891678,438.0690453234875 733.0163277416199,422.37072465696764 733.033081568,422.3657319939758 733.155971177967,423.1381288605719 732.4435114081598,424.56834976107115 732.2060248632758,425.33052986830916 732.1780852975919,426.11711103992957 732.5203453320638,426.8496104394642 733.6309443353166,428.0425066491564 733.8404912469305,428.7976388417118 733.6938083750051,429.7550474730078 733.4772765550753,430.52583924854355 733.351548340526,431.2669700924065 733.4702916467589,432.15456376398714 734.1408419666632,433.64546420480434 739.6100179479258,441.3762708644395 740.5739340792582,443.1753661666089 741.1606655669339,447.090546717114 741.8661404284288,448.3908704910035 744.8836168342165,450.6044580013941 750.2969136840994,453.7520677922012 752.902281107395,455.8503341016407 753.398208922112,457.2061313515862Z" name="Eastern Equatoria" name_en="Eastern Equatoria" gn_name="Eastern Equatoria" admin="S. Sudan" adm0_a3="SDS" iso_3166_2="SS-EE" iso_a2="SS" postal="EE" type="Wilayat" type_en="State" wikidataid="Q488519"/><path d="M9.571783593953903,269.4139747140445 9.157202842119093,269.3677812877442 6.817261596974043,268.8243455141096 5.748572043632071,268.41237873015126 3.9464680631111135,267.43239767312747 2.1164244493143327,266.06316801137154 0.6635654115913087,264.3554754498696 0,262.37062495968286 0.24447145320372174,260.15940782553236 1.0547198042926587,257.85329886083093 4.840535178846086,251.50210417201316 5.518070339482752,250.75304719283986 8.256150885647752,248.93908065881064 8.717154158779937,248.29696873156456 8.38187903261497,247.4706205038505 6.54485057808776,246.02839431452387 6.0628925124274256,245.07563779624297 6.32133378225874,244.10529833934183 7.564645840789949,242.31191458605574 7.718313621027336,241.34497863523836 6.49595621986574,240.69916401792784 3.9813925371136913,240.75356753739845 3.2961868383721966,240.8475443417237 3.5972230527326405,240.4183699309177 3.7439059922339437,239.45311615987026 4.152522621933897,238.90553754107617 8.043111350922434,235.94278879902265 10.089686919811868,234.9791175604197 17.472725279512026,230.32523541439315 19.012895569832352,230.00745442144378 25.15960684690044,229.36485734478916 28.473941484477212,228.25695238768958 29.14449173679923,227.88822498414055 29.521676312867335,227.43520941577796 29.521676312867335,220.18933347937082 29.584540420140367,219.74671386477522 29.993157049840036,218.72795545718878 36.118913601958255,208.36227649623623 36.38084729216284,207.7032893697738 36.45418879570546,207.34303538370602 37.75338005319082,194.34385850684086 38.21438332632102,193.11827718320419 38.752220590941434,192.33225353330278 40.71148477207277,190.54206005557086 44.853529997738775,185.89359297293348 45.34596539208675,184.33510016749597 45.47169360663648,183.53294532410888 45.356442720774375,165.40303009342568 45.60789908229105,164.00686796917827 45.83840078644037,163.57374056169616 46.100334544221255,163.30435223083893 46.344805997419606,163.24448773706487 46.983924263686355,163.19694814129488 47.71733862328706,163.06489322088345 48.30407017854698,162.7954987269921 48.8803244051235,162.4521480751315 51.20978825399868,160.52752530915828 53.546237011198116,159.10992404980462 54.429826798245735,158.12195187135026 56.28431748978116,155.59810737998518 57.19584684251643,154.66282012158962 57.765116093191835,153.8860258357511 58.35184764845571,152.64239307012363 58.73950955320579,151.4515397418604 60.51018148009123,147.7904921966684 61.24359590727021,145.78528793184466 61.327414739500746,145.38352000223983 61.348369396868094,144.9605983170829 61.30646001454126,144.57467503634186 61.09691303535143,143.87506147783643 60.54161353373071,142.5903217675709 60.43684004412688,142.24665415584064 60.29015717221375,141.49409101422748 60.3425439508048,140.92832958688646 60.520658808773206,140.20215915051125 63.89785755362074,132.9073649113619 64.56840794111685,132.0927599826607 65.05036593919326,131.65899663135949 65.46945989758254,131.48619413945192 66.53116461018814,131.1723247358844 67.51603539888973,130.78086324905664 68.2389724298028,130.63097743522962 69.97122739473015,130.77028312714964 70.74655120423625,130.6415575583332 72.38101765546683,130.00673557897855 72.76867949264033,129.9961550710305 73.55797311877572,130.09666985405406 74.00849913080448,130.038477071161 74.61618534343769,129.78983373529684 75.09814340909803,129.6734463936889 75.55914674981244,129.62583321541308 76.36590261294984,129.76338208253483 76.73610228070358,129.88505917990994 77.4171299292915,130.18660374774865 77.8047918340396,130.30827834853562 78.20293106747732,130.37705078271168 78.6115476296007,130.38763103241243 78.97825487698117,130.30298820455454 79.62785047193583,130.05963817604876 80.00503504800196,130.02789664729804 80.7384494751866,130.13370146739098 81.12960386788625,130.12841127986962 81.49631104768449,130.0649283807252 82.75359285526473,129.4724123376352 83.09934537769362,129.36660414850795 83.89562391215695,129.27666670742911 84.32868761959357,129.2713763060101 85.1354434827366,129.1867289527677 85.8269485275947,128.9680551543998 86.46606679386173,128.67178393280557 87.47189230751489,128.32789233072123 88.24023120869815,128.18504346550128 89.05746440052344,128.11097322283607 91.774590154147,128.20620628582907 92.53943656738691,128.0845196091306 93.38810188043337,127.84114395027245 93.59764885963112,127.80939909555286 98.58835933075966,126.05630408040035 101.49407733862913,125.33668165348979 101.88173924338486,125.278475763962 104.06452028792349,125.25731000814253 105.6046905106613,125.00684644858795 106.67338006400327,124.7105195628726 107.0645344567049,124.64702038230628 109.77816778996481,124.75285222074056 110.32298989532158,124.68935316788175 110.92019877926717,124.5253131068117 112.3381333429896,123.83209740222335 115.35910216913835,123.03654692194719 116.09251658553772,122.9677506612549 116.34397295783994,123.15473485902821 119.28112308693085,126.80764835949147 119.62687560936003,127.3755481511893 119.76308115259118,127.69300093255136 119.8468999172392,128.06864737042352 120.25551647936257,138.62988086183682 120.38124469391202,139.0070971781264 120.55935961947029,139.29793692597502 120.99940823522721,139.7791359384279 121.52327568321438,140.21273460375602 123.95751308926997,141.64213827761037 124.98429319270258,142.09156133548234 126.82132171481994,142.62733176369863 127.00991396905793,142.72250015074823 127.43948532371736,143.0679225180568 127.68046435654668,143.2935015295745 128.0786035223999,143.82747994303523 132.11587532605648,150.45265265245703 132.91215379292964,151.46739465944663 133.86559709579657,152.46716829739765 134.18346000456958,158.0850231170879 131.9273376156747,181.35155989979296 131.69683593278125,226.17450261038096 135.2940589337364,249.128608063493 135.5455152984994,258.5653757133404 136.99138944146102,267.8689780377393 139.4256268389667,275.4903596844089 143.52576263022277,281.2890729628238 147.4896929589433,284.86160844272047 169.71214964296962,299.3151834842823 172.43975270819854,300.3552972501433 174.7342921050205,300.687985343903 176.6132300379429,300.5969341957767 178.28960580301936,300.20821274138586 180.0532928944932,299.5305637576993 184.26867946641894,297.29087777540855 191.6621952803671,292.2785091208773 232.25493674455714,273.1277551075583 241.8521882123392,270.5966609172042 244.82077033178027,273.7482220475586 253.57634143965794,288.10258970363054 257.8022054436886,293.3994531585419 259.37730021600817,294.91966080237 260.36217099318264,295.6394534398877 261.67183955205127,296.1700914602797 271.89773196212997,297.92130020400674 275.21206660590934,299.336196250771 280.05609418090694,302.3321069790035 285.68941538074705,306.665193394035 294.2354394876012,311.3266776531107 297.0573387731843,312.33659450409095 299.25758201043095,313.56524934414017 300.21102073441403,315.11061918222424 300.0957698929652,316.89215432491216 299.3623555413323,318.6105838894186 299.07946712337764,319.9824542809188 299.61381190609137,321.28427132329784 302.27855086493327,323.38210389025494 303.0538746410839,325.02492167401937 303.3786725443352,327.7155149058509 303.2215122783726,338.6660504710618 302.00613981830435,349.3014476328457 302.6243033892716,357.710297842414 305.3414292047322,373.1972550060629 271.03858939772243,376.0914941524236 270.1759543559491,376.0390962255543 269.2853796775707,375.72994666178727 268.6567387352777,375.4050745231556 257.7498187086277,367.7521687700925 154.42220534632963,379.99315764058247 152.58007955438052,380.26846229351474 152.49781103379937,378.78632665518717 149.23586317482128,376.9420209828047 145.2405008210681,375.46091213877395 142.91452939256197,374.2749285218675 141.7829757319416,373.0923951039689 139.0309255043098,371.1726512994773 136.92847080404422,368.5505050533733 135.85978125070224,368.07531637319215 134.6374239171209,367.755608302148 133.11471586380682,366.81742999264367 132.4232108865273,366.00501864288947 132.17873943332893,365.2624740462664 132.06698096783447,364.49719817426995 131.7875850406276,363.63056224465765 131.75964547493965,363.21820292536944 131.89235853022745,362.80234356074436 131.92728300422834,362.4354043492068 131.62693235207726,362.169807568278 131.23577795937024,362.169807568278 130.79572934361335,362.28163807090704 130.36965054448967,362.3305637829528 130.0204055341095,362.12787097706735 129.3708098715726,360.60064422237525 129.13332332669285,357.0950811781261 128.7142293682996,355.5676094222574 125.67579823756604,355.3229273813767 124.88650461142329,355.10271190141464 124.70489726550335,354.67625839943855 124.66997279149709,354.16240910922266 124.27881846637996,353.687003574073 123.60128317057091,353.4108455643734 122.24621278170969,353.21159075873624 121.56169264516653,353.0333091506399 119.43129837921894,351.83425076444166 119.11697791042924,351.2119806634809 118.95632522187128,349.9429301560009 118.66994438634609,349.40802545625957 117.53839072573166,348.88010379897224 114.49995959499414,348.5934140566329 113.48714917302803,348.2437889269739 112.87247811965648,347.1494362108323 112.8654932113438,346.25084904248405 112.50227838432643,345.69140401114817 110.81891777762083,345.617976093892 110.07153346622042,345.42916064818326 109.00284391287873,344.3556874403568 108.33229359297249,344.0654586299698 107.01913258643245,344.0864391504924 106.47431041349344,343.9360786029713 104.8328591215245,342.6352542099724 103.56859240562397,342.124700386323 99.40559252258468,341.05111047937413 98.33690290166047,340.4705867073543 95.29847177092125,337.7042026397344 94.29264632485032,337.0781461799634 93.18204732160494,336.88577981729014 91.8863485520652,337.3334668441351 90.12615395386543,336.51853150409784 87.49284696488223,334.5178237144867 83.7000466820085,332.6359166858257 82.80597963385577,331.99576135141956 82.07256520667877,331.00926543511883 81.70935044724929,330.02623504179104 81.27628673980531,328.07756940189483 80.7384494751866,327.1084363423593 80.29840085942402,326.7830524007238 79.16684719880365,326.43317317619204 78.63599484250382,326.1357725279902 78.23785554148358,325.67741974727267 77.58825994652919,324.60323678734125 77.16218107982328,324.141360903811 76.26112912335026,323.5360126595396 72.2378272039168,321.4224437611654 70.79195307451265,318.03831394903386 70.49160235476633,316.94284906561415 70.53351180466946,316.0923475654732 71.97240102576716,314.7237923098449 76.43575156095697,313.2116555100098 77.95147470595839,311.8884702014887 78.25182535811683,310.70175192948466 78.04926328724362,309.7005292817141 77.65810896212055,308.75878766679216 77.3996676922912,307.746993311964 77.65810896212055,304.830442423963 77.60921467148104,303.83951684715987 77.24599991205156,302.6909797796821 76.2401743983984,300.8875416034912 75.5486693535423,298.7442755034791 74.89208885027524,297.68308756230175 74.02596143538702,296.8390115290022 72.31466112782675,296.2751124397293 71.90255207775805,295.900340784726 71.5672768164286,295.48703537988735 71.07134900171133,295.17880360567136 69.40894305237532,294.9055953446639 68.45201182936732,294.9090980030804 66.35654210500483,295.3679462161698 65.42056560694274,295.4274908959733 63.367005264905124,294.6674114978478 61.348369396868094,293.1261725269115 58.10039128693904,289.5004177535797 57.520644639993485,289.1851120778085 56.98979235127023,288.80323702076396 56.53577385129783,288.35829328358193 56.16557418354211,287.85728503122465 56.02587621994391,286.64852075978257 54.6428661978063,285.22070847763763 54.48919841757287,282.81340446975844 53.82563300598128,281.72356467103396 48.021181830978996,276.3858666061979 45.86284793175333,275.39916973551004 41.951304410236645,274.95400503685215 39.80694039523438,273.7691997932124 38.44488503047034,273.6114555026321 37.124739115611696,273.59743372154634 33.33892374105629,272.89808894093363 28.59617721106946,273.6465098551808 26.44482828775453,273.57640103604643 24.314434021805255,272.2530628525137 23.650868542629446,272.0988151700826 23.161925636232745,271.8095983225739 22.798710876803543,271.3643735220635 22.526299857911606,270.75962711259047 20.919773039951195,269.21702284749483 18.586816703124466,269.46069019182136 14.228239657526606,270.9594579260398 13.872009738833489,270.76663875395144 12.754425894852014,269.8849114110714 12.244528263498093,269.6219651249325 11.755585357101674,269.5483397798933 10.777699476718404,269.5483397798933 9.571783593953903,269.4139747140445Z" name="Western Bahr el Ghazal" name_en="Western Bahr el Ghazal" gn_name="Western Bahr el Ghazal State" admin="S. Sudan" adm0_a3="SDS" iso_3166_2="SS-BW" iso_a2="SS" postal="WB" type="Wilayat" type_en="State" wikidataid="Q332095"/><path d="M158.37211122439865,407.7631477677098 157.74347028681953,407.35308025384757 157.72251562944624,405.73370255692674 157.49899883361525,403.9885992759698 156.4303092802795,403.2172357129619 153.62237985368367,402.6203769071004 152.3511281618803,401.8070967235253 150.72364661896805,399.6603636450908 149.6060628425688,398.56425635609025 148.29290170085636,397.8224441181327 147.27310650573642,397.40004034287784 146.52572226192618,396.7664248892826 146.06471892121175,395.37173113272485 146.2183867014511,394.1532910546025 146.5955712775175,392.8841815919543 146.49079772033738,391.88736486971817 145.2125612553802,391.4666330363508 145.67356452851237,390.6757825523781 146.3091903744101,390.2148811001053 146.98672560263492,389.8534879682162 147.56647224957456,389.3541654674689 148.87264841538615,386.63220325868446 151.0170124303884,383.7738164509587 152.1136415494183,381.7254744977616 152.6235392483505,381.051397215659 152.58007955438052,380.26846229351474 154.42220534632963,379.99315764058247 257.7498187086277,367.7521687700925 268.6567387352777,375.4050745231556 269.2853796775707,375.72994666178727 270.1759543559491,376.0390962255543 271.03858939772243,376.0914941524236 305.3414292047322,373.1972550060629 303.68251558337715,382.26862266204654 304.10160958542485,385.22666763370376 303.3996271654261,387.6484363714085 303.88158527385724,390.354603407617 302.82337301897303,392.69220717535967 303.68251558337715,394.8306500640883 304.35306595018756,398.7405980458724 303.9025399557268,401.16838124000196 304.1225642672944,403.2225257686384 304.68135620924727,404.84725555880766 307.3426027514985,408.85552909724635 308.61385442399745,411.3855486209079 309.7244534139429,414.86446588496347 311.54751207365535,416.8968754683454 314.5370489357488,418.56284179494384 318.5533659387517,422.8312018262994 320.3589623331858,425.72300501141183 325.30776343908474,432.1999564392293 327.10288252297164,433.81291430828094 329.4078992911191,434.4772582236965 331.29731441302783,435.2723631217133 332.6803245103847,436.1005792796686 333.90617428099983,437.0264162523857 334.95740158114916,438.4090268512316 337.2624183492972,439.7288233987935 339.62331426909316,440.3930629457654 369.207854713876,443.29396259325085 373.9366313866464,443.18413691284354 377.3033528262693,441.2263969174886 378.09963134506864,438.0167402151851 380.2579652185759,431.77621642317246 381.6444676109623,429.2354187539571 386.3837217158371,423.1189970989375 388.943687326114,420.7258662020028 390.0752409371504,418.88730376708963 391.3010907685444,415.79607399294133 392.49900096333397,409.18007967157166 392.51995564519956,406.1246482479005 391.74463186904893,403.4947736421326 391.0182023505897,399.1856754021374 391.23124176820056,393.341609818815 392.03799759754713,392.04279205767824 393.0647777992396,391.3444823291471 406.7516876869551,391.10356207220457 409.7482094430048,390.72646606567554 410.9146875845985,391.2711589286121 412.2138788329235,392.2418076976406 414.55382007085024,394.5112014597894 416.8274047250277,397.38787651360184 423.74943980186714,411.2494556529918 426.69706730021727,414.7911923286719 434.8554295189979,422.2503716488642 442.3118093785508,427.9274588116246 444.9975030800408,430.4927604296637 446.61101479950855,432.5818414242945 448.4585206792393,435.7030378189923 449.8520080263605,437.2739996994411 453.7425968773716,439.9171129963129 458.64948849797764,444.4758766104391 460.66463189343585,447.89938674893983 462.17337014278087,451.2127912428285 462.42482650754386,454.0919652645256 461.6704574132591,456.5248076335239 458.5551923383986,461.2593602299691 457.371251992301,464.15871416083826 456.6692696330772,467.46030942839207 455.61105737819304,487.39147637954596 455.3875405892561,488.77235935785296 455.1570389671413,489.63952442494 454.75889964696285,490.3464775755482 453.9416664462945,491.08301993768134 452.44340562905023,491.95188020140597 443.0557011622923,495.0040724637721 435.33738750587145,498.9195541620887 432.253554605761,501.23490639018144 423.31986855005425,509.92251478029783 420.9380178876101,511.10429231401264 418.7692067643337,511.46978441802946 417.0369517260518,511.06774295745504 415.31866647567904,510.047829907267 410.9565970091165,506.0445401445486 409.45484371450266,505.008849471031 407.93562815461445,504.45008899595535 406.20337311632835,504.3665354336511 404.76797640547164,504.67986045497645 403.02873641245037,505.3813526642296 401.49555106464885,506.44140354343523 399.86108466330785,507.91046462747954 397.3011191138138,510.70746904894816 384.8854608378145,520.3312255661526 382.9754024364929,521.3923812226791 383.31380395336527,520.9871860849776 383.5443056575072,520.2702675130017 382.72707246568194,519.7812950847615 382.0425523291444,519.4976538975093 380.50587452677365,518.570153008489 380.0588409351159,518.3926554674788 378.5570876743277,518.7772326576135 378.0436975550245,518.6780433889639 377.0623192542781,518.0968247358107 375.10654749351977,516.3670481600909 374.32423877569903,515.8188663215495 371.5023394648917,514.5084247849787 370.7060609980202,514.3517958927179 368.6734553809285,514.3152491051018 366.626879879621,513.4450781456814 365.8585409784417,513.2205714870781 365.4394470200541,513.2762631149006 364.3882197037124,513.7966291582786 364.0634219062337,513.5808258802026 363.3649320206412,512.8899006496886 363.0925208665885,512.7089009500985 361.6396618288601,512.4461019877132 360.6268514744762,512.6253624006889 360.0610746441639,513.4659624640832 359.8934371148755,515.8188663215495 359.68389006810145,516.9917937000699 359.74675417537225,517.68091847976 359.6210260284129,518.4239786190575 358.3497743366096,519.5951013420129 357.90274088011654,520.3068097701956 357.46967703750585,521.8693988592329 356.91088511551413,523.2300976156915 356.0726972663178,524.4637414367414 352.60120236055974,527.4407133257849 351.9306520406555,528.4254577319351 351.2391470633799,530.0312795036161 350.24030645804703,531.6422682211498 349.1227226140596,531.8823462913391 347.77463699835226,531.5935565927905 346.112231049014,531.6283505986924 345.35087705614313,532.4233875029532 345.1552998259984,533.6915928947795 344.6558795909143,534.770151122144 342.9550566120437,535.0136932826165 341.4253636504033,534.2778443366416 337.1226658037636,529.9442916354352 336.36131181089866,529.394524435988 333.6791104636875,528.2392973240421 333.48353336871145,528.3193289953585 333.2949411144715,527.3572005452471 332.5615266872883,527.0509857066561 329.2995787607206,524.8882886202895 328.7687264044205,524.3175850049522 324.6685906286576,525.3354510484295 323.187792025241,525.4850842891794 319.9817232300489,525.2240958562438 317.9211779796927,525.4990036526499 317.2157031857782,525.5059633328946 315.5044028782199,524.8117311763585 315.1761125927913,523.5050167304462 315.078324011512,521.9981622830568 314.1004381311287,520.6913714524727 313.17144660897543,520.4077358046798 312.59169996203013,520.7226930938739 312.0049684067722,521.2899591786534 311.08296172534904,521.7545555325526 309.69995170321,521.7545555325526 309.0992503988971,521.8485182441918 306.29830574545906,527.2284513566123 305.2785105503408,528.616836878495 304.265700128373,529.2709999005332 301.4787253591524,529.9268940433976 300.67546191637814,530.4331617208012 300.4170206465409,531.1725468769714 300.25287560520405,531.948454456732 299.7813948682254,532.5590818163932 299.166723747277,532.7417465946722 298.51014324400455,532.6738997667925 297.85356274073723,532.5382057663572 297.21095198651324,532.4999330188821 295.69522884151945,532.8635227637736 294.7208354490821,533.5385053370696 292.1189604461542,536.9376350244975 290.86866354688686,538.1274501991635 289.4297742582129,539.0023988217731 287.9000814317447,539.1728641133993 286.27259988882673,538.6632057656931 285.7103154788877,538.0248210283728 285.490291171008,537.0802751116424 284.88260495837477,535.6590743294196 282.60552782050814,533.9925477927047 279.7591813643762,534.1178001095981 276.78012192054837,534.6796923138571 274.1188752982933,534.330032525798 272.8441311861229,533.4167308160067 271.5938342868556,532.1693945760336 269.71140396205567,529.7911925206487 269.43899287558713,528.4880909990749 268.99195935150965,527.9400473353842 267.89882265284905,527.8600150450194 267.2736741356313,528.2392973240421 266.15609029164955,529.4258404623728 265.4785550634247,529.4884724554067 263.40403999643553,526.5516425505022 263.07574977859116,525.914842209985 262.8766801280813,525.3806890707488 262.7649217301685,524.8256507328466 262.7195199274746,524.1053094113024 262.93605174740253,522.5775933556744 263.2713268735655,521.4135039380575 263.0652723823193,520.6739706140385 259.5833001478736,520.1745615426373 258.8219461550067,520.2754878564119 258.3679277226128,520.1850022497978 257.6764227453373,519.4524103445572 257.3341626432774,519.3306006431313 256.7334612713803,519.647305219353 256.44708043586104,519.8578604665865 256.56582374208625,519.9518269006215 256.50994454313377,520.1084373252494 256.46803516080695,520.4355773923913 256.30738247225463,520.7226930938739 255.89527342218,520.7644552954146 254.74974994492806,520.282448290955 254.37955027717857,520.2267647862312 252.44822566174082,520.5104016421731 251.9208657933866,520.4599387935999 251.14554198388248,520.0040304550215 249.91619967440624,518.6850039894285 249.22469469713067,518.1177069243791 248.6938423408249,517.9436881136177 247.03842123222498,517.5956485089242 246.73807058006656,517.5904279388361 246.24912760608197,516.4958264632364 245.94877702150774,514.8843320874295 245.81606389864365,512.1119449399893 246.3608860715824,508.1854188479576 246.10942971006375,506.7268102418945 245.8440035319138,506.1088892290518 245.39696994025041,505.34126307692713 244.83119310994178,504.65543647860443 244.19556726404406,504.29511224709347 243.58788111899904,504.3229635324459 242.28170495318912,504.6832875431858 241.77879223015353,504.6832875431858 240.8917100227315,503.97830311196094 240.47261606434986,502.8607498207078 239.94176370804408,500.0702273067231 239.05468150062177,498.4703423493368 237.8532788244157,497.7095500051825 231.8881749608498,497.0636497218015 230.52611966366996,496.5883586710424 229.31074723840894,495.58727092246653 228.9475324113975,494.91348260053553 228.66464399624135,493.470113355782 228.41668012267397,492.83459799733174 227.84042589609575,492.17817935922886 225.72749393473268,490.57104376277533 225.252520777385,490.37428308276395 224.80199476536416,490.1270251341121 224.39337813565658,489.8240451529908 224.023178535491,489.4740483241818 224.47719696788116,486.4667454714262 224.35845366165597,485.59429240623905 223.67393352511056,484.7253045415286 221.7111768560339,483.3181685470453 220.60756282868567,480.6657302397415 218.7635493982613,479.1208652935806 214.8974077470111,476.53086871424966 213.51789014524084,474.8203730376493 212.40729120957798,472.82586709455103 210.60518722905306,468.5752450440049 210.32579130184646,467.55781784060775 209.9590840544657,464.2318378703851 209.4107694611656,462.51385955268387 209.27107149756145,461.67575228232784 209.4107694611656,460.6389841938546 212.155834848061,453.26234001421057 212.03010670109379,452.60703638768894 212.17678950543035,451.4183991623613 211.9113633272807,450.8467249618515 211.26176773232604,450.40576313989874 210.75885500929044,450.4475937709651 210.38865534154291,450.6602318143139 210.15116879665752,450.7438924178015 209.89621994719465,450.8031518499159 209.57840705803622,450.96175761933347 209.22217720692166,450.89204086297224 208.81705299758113,450.2523840447821 208.77165119489288,449.7974717941831 209.07549426741838,448.8179109840987 209.18026782459484,447.65007479135147 209.34790535388888,447.2090767842292 209.2920261549288,446.8499995200526 208.12554802030755,446.06385271060907 207.80773506356658,445.76054571676514 207.66454467959906,445.3665916205361 207.63311262595957,444.75822092397283 207.42705806713113,443.71228897974294 206.85778881645572,442.6576119338375 206.05103295331241,441.78769935672165 205.0941017303047,441.30653682431506 203.74601624975782,440.8654656938272 203.41772596432924,440.3633707039607 203.38280142274414,439.64334100613945 202.9008434922446,438.5222988582086 202.29315721202943,438.0811953086969 199.45030324385442,437.00543916812796 198.82864728217191,437.0298488852469 197.59930497268803,437.43086344826713 196.97066403510863,437.41691523721784 196.53061535176383,437.09610380972606 196.02071772040964,436.06914013521344 194.7704208211463,435.11189411201343 193.98112719500327,433.19384101883213 193.25469767614487,432.417873352632 190.30707021836605,433.1397853472833 188.88913572223404,433.0630610292796 188.02999308049968,431.8929961530615 187.3873823938656,430.3619164970006 186.56316429372225,430.2084562860762 185.4316106331016,430.61128805814144 183.86699319746037,430.72638200626847 182.29539092108874,430.02709342827404 181.75056874814408,428.82902962185875 181.35941442302666,425.80492230432657 180.63647732453163,424.9067108085206 179.41761241131934,424.1375452056773 174.59803202501072,422.25380566399264 169.82036102102555,422.4770688129901 167.64805737275086,422.19798966197135 163.68761949301214,420.8322151437154 162.63289968871922,420.00016633119407 161.9623494363955,418.78607325038286 161.41054235513815,417.3329452620906 160.6631581789042,416.1745873804997 159.46175557028235,415.82916614485293 156.730659932432,417.71673024534186 155.66197037908805,418.02375530147685 155.42448383421026,416.5915307262703 155.9623210988287,415.2796254985443 157.0659351261792,414.12294552866985 158.40005079008688,413.17210208192597 159.62939309957073,412.48643214287387 160.7469769435525,411.5739296098389 161.38260278945023,410.3298873221753 161.34767831544934,409.0421787933113 160.46059610803297,407.9830118562887 159.35698201310024,407.71777886824515 158.37211122439865,407.7631477677098Z" name="Western Equatoria" name_en="Western Equatoria" gn_name="Western Equatoria" admin="S. Sudan" adm0_a3="SDS" iso_3166_2="SS-EW" iso_a2="SS" postal="WE" type="Wilayat" type_en="State" wikidataid="Q319979"/><path d="M384.7701554790435,534.3613454401174 382.9436043531977,532.8774400405249 382.15780321500654,530.3983668750856 382.1962201093818,527.4546321311246 382.79692141369134,525.4328866743227 382.8877251542399,524.7386535402517 382.7829516646403,524.140108735085 382.3149634156149,523.0265172738104 382.25908421665315,522.4366513228206 382.66420835841114,521.7649958279616 382.9754024364929,521.3923812226791 384.8854608378145,520.3312255661526 397.3011191138138,510.70746904894816 399.86108466330785,507.91046462747954 401.49555106464885,506.44140354343523 403.02873641245037,505.3813526642296 404.76797640547164,504.67986045497645 406.20337311632835,504.3665354336511 407.93562815461445,504.45008899595535 409.45484371450266,505.008849471031 410.9565970091165,506.0445401445486 415.31866647567904,510.047829907267 417.0369517260518,511.06774295745504 418.7692067643337,511.46978441802946 420.9380178876101,511.10429231401264 423.31986855005425,509.92251478029783 432.253554605761,501.23490639018144 435.33738750587145,498.9195541620887 443.0557011622923,495.0040724637721 452.44340562905023,491.95188020140597 453.9416664462945,491.08301993768134 454.75889964696285,490.3464775755482 455.1570389671413,489.63952442494 455.3875405892561,488.77235935785296 455.61105737819304,487.39147637954596 456.6692696330772,467.46030942839207 457.371251992301,464.15871416083826 458.5551923383986,461.2593602299691 461.6704574132591,456.5248076335239 462.42482650754386,454.0919652645256 462.17337014278087,451.2127912428285 460.66463189343585,447.89938674893983 458.64948849797764,444.4758766104391 453.7425968773716,439.9171129963129 449.8520080263605,437.2739996994411 448.4585206792393,435.7030378189923 446.61101479950855,432.5818414242945 444.9975030800408,430.4927604296637 442.3118093785508,427.9274588116246 434.8554295189979,422.2503716488642 426.69706730021727,414.7911923286719 441.6517363830661,413.54377366853305 447.6901816754835,412.33818478306745 452.64247519797334,409.7925299175938 456.08253805452364,409.9024557776977 468.6553565357024,420.52177994535197 476.88706023219277,424.0730658583444 499.8219766467653,428.2361415682376 504.3202516974206,430.6340125488516 506.8068758299881,430.9008205763454 510.2469386865415,427.87513945694445 546.519519987122,429.9172834202693 544.8431442220494,437.4518403247107 545.4508304216943,479.80366290329687 547.0154478834703,485.75978331321636 547.9688866074531,488.3857862214915 553.3786909575778,497.70264059732733 554.4054712200489,500.0493912799995 555.0690366321245,502.4795764690936 554.9747404725451,504.5910852575617 554.2098939461591,506.8539290184659 552.8653009175122,509.4108079799949 548.9747120664974,515.065377795925 542.6917953032734,528.7438969656102 540.1772315341054,538.7102254075146 538.8535931873234,541.4219644036943 537.2191267859868,543.526550764251 534.9525270257654,545.7354045621189 527.9047637361557,550.7441131868032 526.6160498591566,552.2483721503115 525.3482906640272,554.7020493632738 520.8814476057807,566.9496536617129 519.2330114165306,569.5660909190093 519.0094946275938,570.713460577649 519.0072806147642,570.7248253978918 517.647384730377,570.0962633069046 517.4378377511813,570.0545407392361 517.2911548792684,570.4404734438764 511.91278250338553,576.4568642987326 511.284141633381,577.0252688355193 510.04781448316845,577.5502125628816 506.35830356480807,578.0888444950075 503.0349757236355,578.5740131173035 501.8475428640568,579.1667315527106 501.0582492379197,580.1453124353728 500.99054050912406,580.2045788626945 500.261970703462,580.8423024165634 499.02564355324944,580.5885364576911 490.39230815911776,575.9162664508336 484.80438887162535,572.896821964578 482.15012715768495,572.0571902531634 479.38410711342186,571.6747452695329 476.192008202443,571.6712684467365 474.4283211838725,572.1614930009268 471.9223152691695,574.1087746793942 470.11514594096826,575.5129876238811 469.50745966075675,575.7528693485546 468.2222382198987,576.0049178887085 467.59359734990153,576.2587035807952 465.5120973745861,577.9030694266165 464.59358311353196,578.3237137966511 463.9055705566277,578.417576124391 462.5679623371823,578.3845504988795 461.85899512290274,578.6278968145322 461.1116108790865,579.2814506217074 460.7693508446075,580.0132136145895 460.5598038654117,580.7901588396096 460.25246830494063,581.5809986584238 455.78911776974456,588.0481142453477 454.30831916633196,590.9434079532548 454.0219382632245,592 453.21867482045025,590.5941029656947 453.8962101162573,587.1252758774076 452.9183242358819,585.9313004425861 450.81586953561634,585.105757936742 449.93577223651266,584.4401017369403 449.4747688958042,583.43378251044 449.26522191661235,581.127353378718 448.9928108301382,580.4633911546944 447.7634685882456,579.578676140359 446.70874878395097,580.3434600144836 445.5806876112878,581.6679035091186 444.1417983226098,582.4656840024097 442.25238315707975,582.4587317709178 441.466582018888,582.556063745597 440.2966113963175,582.9940556767964 438.1662171979504,584.1654946423329 437.32104430527244,584.3775331399966 435.98343615340553,584.5443825654088 435.2814537798678,584.5235263872067 434.68773738387176,584.3114884694634 433.98226252237674,583.7466296078744 434.01020215564694,583.4129259480649 434.4083413890846,582.9940556767964 434.7855259651513,582.1667348307209 435.2814537798678,579.5473893068547 435.3233632297715,578.2333276154212 433.70286659517217,568.3647505364609 432.78085984616473,566.6157993224679 432.1242793428974,566.3932649098122 431.44674411467287,566.4662841204777 430.76920895403055,566.6470931673244 430.1196132914939,566.747928778764 428.75755792673186,566.7131578638658 428.156856622415,566.61232232471 425.5968910693908,565.7969377707024 420.1207301798109,562.5561449143568 415.59451546975816,561.1043335981195 411.19752146220816,561.0417396607472 410.07993761822837,560.6574808827753 409.5909946442418,560.0228396631692 409.47923624632955,559.3412441250576 409.47225133800896,558.6300805969448 409.31858362536116,557.8980419328179 408.87853494201664,557.1520826536969 407.25105339909675,555.2358419107 406.64336725405315,553.6847151400239 406.2731675187214,552.1300655094796 405.57467763312553,550.8066646857139 404.0275224344883,549.9562623211124 401.18816095426286,549.3806242716074 400.18233544060575,548.744110883049 399.16952508622217,547.3075796430096 397.6049077181632,544.2900400215611 396.5641577305091,543.0447102145556 394.9855705458135,542.1002571941225 394.18579952341025,541.9645884734056 393.4069832935388,541.9680672009918 392.698016011681,541.8080472383872 392.15668632668957,541.1731805407599 392.0938222194143,540.3539299735613 392.50593126948553,539.639031879373 393.01582890083944,538.9693492868621 393.2358532763011,538.2944395824188 392.5757802850766,536.927197878237 391.0984741020352,535.5442632283969 389.355741808418,534.5457432788731 387.86795822910193,534.3265533418096 384.7701554790435,534.3613454401174Z" name="Central Equatoria" name_en="Central Equatoria" gn_name="Central Equatoria State" admin="S. Sudan" adm0_a3="SDS" iso_3166_2="SS-EC" iso_a2="SS" postal="MY" type="Wilayat" type_en="State" wikidataid="Q487709"/><path d="M674.8634709541203,246.81001420752506 674.5875916420067,248.31802186622517 673.7144792512233,249.86713193187794 672.3174994124531,251.42141056460437 665.6399357790789,257.41134422994526 664.2569257569459,258.2373722953431 662.9996439493656,258.5811044147629 659.178904100804,258.5951342875591 656.8599175806085,258.8634524885105 655.7283639199954,259.1685952663129 654.6457044824307,259.6350709940592 653.940229756108,260.11030650385453 651.1392851026643,262.517915855735 650.8459194264087,262.6090955756108 650.1125049992335,262.724823139173 647.0391493269015,262.33204861576985 645.4011904553018,260.4715497622315 644.0740596321226,258.14968484822134 641.9611276707595,256.37131809609656 640.5885949097319,256.150329082645 639.5932468599268,256.5467048938921 638.6328231489696,257.0886425048021 637.3476017756974,257.31313107906135 636.327806445411,256.87993647301346 635.3080111827109,256.057372777305 634.1694726137772,255.40842352072158 632.7934474999568,255.4680573597535 633.1706320084444,255.97669354434288 633.1426924427567,256.22048449127794 632.507066596857,256.5782743257803 627.9529123211161,257.1167036577724 627.0763075099657,256.9185208536912 626.531485337021,256.9711359302823 626.0250801936239,257.2324557019899 625.0960886038864,257.9532637122764 624.4534778496627,258.16371481899216 617.1123488722837,256.5431971316014 615.9249160127123,256.71507509061934 613.9831140685875,258.41625387526443 614.0459781758659,258.6863276986463 614.2485401791586,259.0809109028026 613.7456274561252,259.5333589854591 612.7258321934208,259.74204356430243 611.7968406036798,260.1874656528735 611.4895050432085,260.66619826175395 611.377746645292,261.18876062193283 611.384731553605,262.33555559550166 611.3078976297006,262.64416457201844 610.972622503534,263.10356438491596 610.9237281453139,263.4700263470682 611.0704110848133,263.68393954800655 611.6780973650326,264.12052751567563 611.7968406036798,264.3554754498696 611.6431728234425,265.1812831780583 611.05644126818,266.45939283276044 610.9237281453139,266.96606110798774 611.1402601004125,267.76724322214807 611.6152332577542,268.4228970244933 612.0902063475174,268.9277744922157 612.5861342298169,269.6850724777233 613.2008052831806,270.0426778724898 614.1088422831367,270.41956071732943 614.0145461222245,271.2977645274185 613.5395729648787,271.6518423242547 612.907439606925,271.8621834693719 612.3067382350338,272.316163934122 611.7898556953593,273.07161227163107 611.5174446764747,273.68857503084234 611.4056862109802,274.37387765852895 611.384731553605,275.32556034373533 611.5942785328007,275.69185270411396 612.5162852142256,276.3508158545084 612.7258321934208,276.71358908751677 612.5442247799133,278.0577351677236 612.013372491188,279.0057820193802 611.1681996660928,279.6874438130922 610.0017215314716,280.22890579508146 607.9761007551176,280.5618380939831 607.696704827917,280.90527991775144 607.5570067967343,281.47825707062674 607.235701419626,282.16686494791634 606.8305772778716,282.80814808952084 602.9958676126768,286.71158805913103 602.1367251061127,287.8748029483911 601.794464936465,288.5544898908023 601.4941143518892,289.9803761323393 601.1658240664678,290.44981622631735 600.844518689352,290.7896299054668 600.543650688974,291.4171175902801 600.5197754592211,291.4079944507289 600.4464339815117,291.3799693975917 592.424277286049,287.91339708300114 590.922524052218,286.9078512095452 589.2880575901021,285.3416483906236 589.0889880211795,283.463487348248 589.5395139548611,281.5536564819909 591.624506350663,277.1482642815365 592.5290508169503,274.60703651899604 593.084350281534,271.8008889347436 593.3358066462969,269.03301080506714 593.0110088646071,265.7160827865299 591.9842286629146,263.54197017528315 590.3148377310163,262.0620675455743 583.2146877671232,258.67059903470965 577.4381761500084,253.73691996244216 573.5371099884544,249.01632815970189 561.5265758658106,228.0041661974657 560.3426354589346,224.98918705716778 557.9398301753993,220.1893883704773 556.5882521920166,218.48034011464418 555.2471515191777,217.6003001641635 553.9549451648091,217.5686813587686 552.4042975517253,218.00080131341772 550.7593537790619,218.76665368943242 542.5136803554451,223.81786336577338 533.5066528828039,228.14814544306387 531.3273643274271,228.695961294979 528.7359667247374,228.7539026747242 525.9978862274072,227.67757593763503 523.7208090958638,225.67931106417814 501.2713432670925,195.75931819272662 500.45061758905825,195.0032741684789 500.0804179054811,194.82392988526993 499.587982486502,194.79931394728158 499.32255633382994,194.94349291427767 496.2352308955748,195.99667579063828 493.23521672293833,196.3922664727728 492.24685352917265,196.22875646399126 490.85685859864236,195.81558097373536 489.6205313959257,195.28107923647244 489.08269419662105,194.74480696018728 488.4750079969763,193.88850414036008 487.0396111645581,193.44891138524167 484.00816493872975,193.09723123030324 473.31079185232437,190.309977640316 465.1524296335477,185.75644845725466 462.1524154609113,184.7327039888867 460.717018689276,184.5216170074321 461.48083018748406,168.53191889316517 461.5027652717862,168.5313136437807 475.97547631493484,167.744442784733 480.7356850819141,165.8149956299467 495.2660215679881,151.43656553641546 509.79635805406923,137.04867321386988 517.1898738776215,127.86759800496677 519.0653192941012,125.99280895597566 523.27022855946,119.44649243563364 527.709132016921,108.19070308028344 528.589229316017,106.9179085162141 544.5113069427317,93.4092185180306 560.4333845694432,79.89147577165551 561.5579533217433,77.74709098428421 561.872273790531,76.04803551653785 557.0596783125393,66.94559915709216 556.0189283248853,62.319362239887745 555.8128737660602,55.1929705696014 556.7663125011229,44.10259659995022 556.4310373749599,37.08986488545144 556.3053092279927,36.29436851582515 555.9909886916191,35.21180158376855 555.7814417124233,34.80427240741132 538.0048733540062,14.85808166583883 560.4578317147601,14.757861858052369 582.9107900691331,14.657641490094306 583.0155635587292,13.004369195441676 582.9736541764115,12.131551312846046 582.8374487007609,11.334979769033902 581.9887833877082,8.941507020453493 581.4963479933622,5.758000418790716 581.4649159397287,4.870635588093564 581.5277800469997,3.9992009545716205 581.7897138047823,2.3538317524366996 581.8106684621575,1.462749236418413 581.765266659462,1.0367180677749965 581.6849403151904,0.6390798345822921 581.705894972558,0.2911392213638745 581.9049646230659,0 614.171706297701,0.3976523662164962 613.7526123644382,6.0490465417383 609.8305915142336,19.32927899066577 609.9004404622427,27.28996648533426 608.9819262687711,36.37409685677997 608.7514245646217,37.10935320994037 607.8713272655257,39.06694358321586 607.0994958763889,40.18825878594339 606.2124137365547,41.270539221675286 605.9609573750378,41.677928229387724 605.6571142349304,42.34213055079418 605.6361595775588,43.34281795745283 608.9871649331167,68.73299581859861 612.3381702886674,94.09021013071664 612.0867139271543,95.36910522350641 611.8352575656373,96.20634902911945 610.0506158221127,99.36778075622011 609.5896124814045,100.40794314791817 609.4953163204923,101.21319371070554 610.2182534189836,101.76413630912006 625.0786263668782,107.23567323020484 625.8015633977952,107.5852086789467 626.3778176243698,108.03182868330127 631.7282503669858,114.54467458236861 646.3633603426555,126.55720321630474 660.9984703183292,138.56289785592134 662.0042957644,139.75798453209603 665.03224956645,147.29361348471923 665.3710172481444,148.43712228973575 665.4757906701582,150.24124219016286 665.4024492341995,151.6417987440795 664.6480801496452,156.1599652610527 664.8995365111662,158.1906358938016 665.4024492341995,159.53257244436273 665.8075733759498,161.08221413916775 665.8075733759498,161.5541288906095 665.7482017566283,161.960883305759 665.5281774487491,162.67928827750885 661.1870625725747,171.37578902187767 659.7691280764292,177.56339612194682 659.3500341180417,182.76770556796453 659.6014904795586,185.77750116564468 660.0939258739122,187.71052861315977 660.3174426697369,188.15550647578584 660.5060349239832,188.48263897080568 660.705104506909,188.67961969752614 660.9146515536828,188.76755699937146 672.3931224513185,188.81503409052982 673.2310547663895,205.789938372001 674.2026889493862,225.45822259858707 675.1743231296828,245.11073079747308 674.8634709541203,246.81001420752506Z" name="Upper Nile" name_en="Upper Nile" gn_name="Upper Nile" admin="S. Sudan" adm0_a3="SDS" iso_3166_2="SS-NU" iso_a2="SS" postal="UN" type="Wilayat" type_en="State" wikidataid="Q487702"/><path d="M600.543650688974,291.4171175902801 600.4917813261889,291.5252943821857 599.597714210452,292.4956408273531 599.3427653609897,293.23476261140155 601.0470807602311,297.7496319393541 601.6198424988563,298.8038128745942 602.7863207010595,299.49723900395844 603.0482543912677,300.0680769369004 603.2543088825064,300.68793060247907 603.4987804032929,301.10466071041253 603.9737534930521,301.31827621332354 605.8037971068471,301.5213845423318 607.2985655268967,302.1832273600204 608.1996175509506,302.31279263914337 608.6117266010212,301.75250605818877 608.9609715438175,301.5914215811561 611.1507374290923,301.10466071041253 611.720006679768,301.2062158005697 613.6478388748457,301.98362559900863 615.8410972480702,302.31979615983875 616.4138589866913,302.48787986079327 617.4546089743533,303.3878112151166 618.5163136193744,304.62385659298485 619.73867095295,305.7162934986619 623.4930542738699,306.6721410865262 624.3487043600702,306.65113383501307 626.0111104445732,305.5552317368033 626.6118117488821,305.2646180437296 629.5314995733903,304.66587423490824 631.2777243549574,304.6028478162694 632.4407100692113,305.03352541994 633.0449038614771,305.50621276308846 634.2847234996397,305.85984778418924 634.9587662399146,306.1889694021861 635.6153467431819,306.79818447105737 636.5513232412435,308.03057945265476 637.2602905231058,308.5452285681724 638.7096570728776,308.95834148547476 643.0961737517475,308.5452285681724 643.808633453973,308.72727903728827 645.6526468844047,309.9315837472373 647.7830411503506,310.5407184917802 648.4256518369923,310.85928372114944 649.3301962814093,311.87796850614274 651.4675753880927,314.8568005718549 654.8762061865799,317.3733401808815 655.5467565064843,317.5483347912382 656.9437363452545,317.7163285432173 657.6492111391636,317.87732169480216 659.6678470072003,319.06024387439993 668.0567109481325,327.6017535414457 669.2162041744372,329.46298944902264 669.6841924234699,331.7473913359995 669.7191168974705,338.0644414827171 669.886754494349,338.4106863795098 670.3198182693695,338.6135351680434 673.4211135073855,341.0336249978251 675.2651268702314,343.3311322421596 676.5643180601328,344.28924983258054 677.8285848436232,344.01300729923156 678.9531536635016,343.4779989249999 679.8751603449264,344.0304911313009 680.5177710315602,345.22635748420754 680.8460613169891,346.61448283206164 680.8460613045155,348.73107578038315 680.8460613169891,349.46046747262676 681.01369891386,350.98823998996863 681.537566294261,351.65596122579865 682.0614337422481,351.82725902525976 682.4805277006354,352.22228937179716 683.151078020544,353.08574501219573 685.9170980648104,355.11319836882836 686.245388350239,355.51867316777845 686.5876483847189,356.6896268638539 687.0556366337516,357.0146897866176 687.5166400420424,357.22091079082327 687.7261869536519,357.4690732280246 697.2954988458459,359.7478812938822 701.6540758914382,362.78137575908113 702.2408074467037,363.67249677756917 702.6948258790999,364.699875826451 702.9812067821996,365.8809712456943 703.078995363479,367.20703064949123 702.9323124915618,367.3957144448851 702.303671553975,367.8342253648288 702.1569886144791,367.90061292614354 702.2268376300708,368.3094176231613 702.5341731905419,368.99948195010455 702.6179920227664,369.28598538364116 703.078995363479,372.0548042843328 703.8613040137211,372.71684002963457 705.0557217816125,372.97536215248596 707.9404851321087,372.97885565130406 709.4142988947943,373.15877181774397 710.5668072803609,373.6129247823175 715.1628708708371,376.64859906832015 715.5749799209115,377.38564189996174 715.90327020634,378.62565263419265 716.7205033981651,379.55301022721716 717.1884916471944,379.8464061040584 717.8660268754189,382.60384977333223 718.5645168285897,385.33312572563506 720.0662700893737,389.18306725381586 720.6180771706313,393.07620947813393 721.1908389092599,394.4378304505091 723.8870099379317,399.04075315035 724.3200737129562,400.7930874235529 724.368968003598,404.772161483683 724.704243129757,406.122848647527 727.0860937572269,410.2461353776794 728.3643302897607,413.55244252967185 729.4888991096506,414.8330083984336 730.7671356421841,416.0036216835447 731.9196440277507,417.4341253120023 732.4574812247928,418.74769605968805 733.033081568,422.3657319939758 733.0163277416199,422.37072465696764 680.3257408891678,438.0690453234875 546.519519987122,429.9172834202693 510.2469386865415,427.87513945694445 509.85927679846435,426.83048051627105 509.3877960613554,426.82699248978366 508.9477474382164,427.10429220090714 508.54960817881715,427.1304524668767 507.9593841228935,426.5653871295254 507.34122061270546,425.7439339783589 506.8592625042704,424.868394653329 506.6601929353513,424.1358556222909 506.4611233056498,422.78585206092686 504.40057806908686,417.5144259525419 503.7300277022761,416.4415559557055 502.9581963427122,415.5064755214508 502.25621404427125,415.10522090709446 501.4634279420591,414.3707386238875 500.87669642427994,412.6853846594583 500.1572517997772,409.57267722768285 498.5437400803095,406.12988334831704 498.25037435181133,403.4424184526186 497.96748593385695,402.2207746891297 497.52743724993934,401.1334754603412 496.9686453079902,400.2660547929524 492.62753052329356,395.09598213335795 491.8522066863643,393.3468469279076 491.6217050034706,390.4855413867698 491.21308843352386,389.21978579014757 490.2386949668926,388.69251893429623 489.00586024154575,388.474276965912 488.1816421469166,387.8404941502203 487.6368200536594,386.8260674544609 487.2386807942596,385.46239185602906 486.77767748925163,382.3122793643181 486.36906085852627,380.9222229845198 485.6007219155527,380.3441797195713 485.14670350450155,380.09794068428016 485.02446776910045,379.5163901912481 484.9616036627165,378.8352818450379 484.67871524476215,378.2903849644472 482.58324547763766,376.2329681279007 482.0558855888802,375.03827940451043 481.7380727011432,373.8365599568351 481.2072203350165,372.9107863580269 480.0442346707881,372.54046947830636 479.1955694169281,372.14743991102273 478.5389888988087,371.2216179275698 477.5052238031597,369.2685702850958 475.947591296119,367.67879270428085 474.89985641255726,366.85417363906845 473.56224821708764,366.3300402435713 473.09076747997864,365.917715949624 472.1373287559916,364.86067375052215 471.63441602646986,364.5199667438609 470.4574605743285,364.0010367092528 470.0802759967985,363.7284640163288 469.8288196320358,363.1064303067196 469.57736326727644,361.6054615830189 469.1582693260076,360.9152367108475 468.4458095954578,360.50109449783423 466.78340361829834,360.13063353939947 466.1163457288529,359.7619157217605 465.1419523230005,359.05767016657796 462.89281476728354,358.0248646156787 458.31421334496173,354.2201411136757 457.8008232441136,353.9702050429241 456.0930153650669,353.5874318843834 455.50628390807054,353.5262576550855 454.9020901250127,353.38992603127343 454.4864886611131,353.0473466856948 452.64247519797334,350.414951726758 452.41197357585855,349.8800552181254 452.21290388537847,349.4168203669695 452.0417738922814,348.1529403330197 451.54933847330625,347.36976305638547 448.3118377238202,345.63201698357096 446.9253352706549,343.78402358633446 446.0661926454688,343.1545962230383 445.7204401819088,342.7716882046606 445.4165970213102,340.6507447967573 444.97654839817125,339.79917831972847 444.3653697211569,339.0087911534821 443.6948194151288,337.69376479841617 443.2338160493422,335.8872583008312 442.11273974885296,334.61057144494885 441.67269112571427,333.5559518455656 441.34789322246695,330.80292138530524 440.67734291643484,329.4403041838148 438.5679033613979,327.1959591564367 438.1173773669368,325.92939437486666 437.9113229040614,325.04416609576845 437.4084101745391,324.8867115859453 436.8007239748906,324.94444502480377 436.2698716087676,324.7100116616383 436.22446970688026,324.4248402805527 436.3432130256944,323.62529572084867 436.2698716087676,323.3646079786053 435.5120100371127,322.6875087850498 435.30595545267977,322.4408098799528 434.97766525439926,322.2221034149153 434.2686979404398,321.57997167305587 433.7972173248886,320.9045807388176 434.1953565235132,320.5913759394615 435.0195746181381,320.5266349059065 435.5120100371127,320.28166740114017 435.7460041365974,319.77947751376104 435.80886824298096,318.95180771115383 435.58884393141335,317.6743848810107 435.00211241363417,316.3899055530002 434.18487921296577,315.3976323220133 432.6516938043817,314.72209694392046 432.5783523874548,314.06229692835393 432.66915606966427,313.2922194603247 432.5783523874548,312.6883941583067 432.13830370353696,312.2543322693472 431.0661217215189,311.4369476881267 430.6924295605756,310.8383342530931 430.82165018993356,310.2764662682874 431.3490101394736,309.86337251626753 431.72619465622466,309.41351366977005 431.17438760822836,308.1566715942127 431.7052399743554,305.0825998989091 431.9357416572485,304.68343619151324 432.25006206761657,304.3928134506697 432.5783523874548,303.8570793250308 432.95204448761865,303.4106264639746 433.4200327473586,302.9641664471974 433.57020805858554,302.491436311438 433.00093874531035,301.9644204198955 433.00093874531035,301.5021790210899 433.51432890693764,301.43914550075743 433.8076946354358,301.33584037280156 434.0521661062386,301.21327436263283 434.4258582064027,301.08195297196664 433.13015937466827,300.677479440928 432.5783523874548,300.65996961417005 432.5783523874548,300.155682406779 433.51782132352434,299.53231482388736 433.0638028516982,299.08404182465006 432.12782639299377,298.64626834712533 431.6144362921457,298.0736501347079 431.6144362921457,296.180599064774 431.46775339750513,295.6937435540757 430.8391125159947,295.26817584782737 430.1301452020358,292.852998659225 426.07890366847147,288.081568379627 426.8437501340786,287.4561761431382 426.0369943047326,286.1790700377646 424.6889087379369,284.6829052446749 423.8123039082505,283.41092507081083 423.72499270341035,282.46303318093214 423.7913492263849,281.4415155108098 423.7319775973671,280.4900499151206 423.26748175421443,279.74882974056186 422.4537410309116,279.68925088540175 421.5945984057252,280.0484744101175 421.00786694872886,280.01342838803714 421.00088199399346,278.7797805387585 419.2337024859287,279.58761602365945 418.3082033985469,277.474224958313 418.08817902620063,274.61755240459905 418.4444088610861,273.18033766073466 419.5480229570753,272.824527350281 419.39784764584783,272.04453247459224 418.89493491632606,271.26276171284076 418.92636696951774,270.90692574075723 420.14173936880707,270.4669445321738 420.06490553528926,269.42743801676676 418.69586528662404,267.2010383074888 419.19179312218984,267.00117910617416 420.5398786889855,266.23153142797156 420.11729220957164,265.5354980151201 419.7994793218383,263.61561240391234 419.1568686524109,262.947564421207 419.61787201819436,261.09412375167335 419.9636244209749,260.74165694134246 420.42462778676145,260.4926476711537 420.8297520008964,260.1506944982757 421.2069365176475,258.3180993141593 421.55268904198977,257.3710615575387 421.6225380423299,256.3959271303016 421.00088199399346,255.11206084870471 420.7459331518649,255.04365634848173 419.89726789800426,255.16643353634984 419.61787201819436,255.11206084870471 419.5550079118107,254.82265594712814 419.68772095775927,253.95617570229788 419.61787201819436,253.67903617205874 417.6481304030622,252.36170546570835 417.3093628334593,252.05648212227197 417.089338521892,251.33550885628347 416.1044676839346,250.32856827602896 415.884443372367,249.71806923255266 416.1114526386701,248.84790743748627 416.48863709464223,248.1461424603553 416.5619785723517,247.58647099765116 415.884443372367,247.14609385482353 415.8739660010409,247.37417855746665 415.91587536478033,247.85314983185447 415.884443372367,248.0742104307912 415.46534943109816,248.0742104307912 415.49678148428984,247.24960951120448 415.6958510532127,246.38813602499482 416.0101715243593,245.55821651436395 416.3873561018893,244.82828592388012 417.6970247215365,243.13673116227753 418.21739965555855,242.13648471650114 418.1929524963234,241.11864923500966 417.7983057142897,240.5869016244168 417.33031745455,240.41842471459367 416.8448669903066,240.36753046592537 416.3873561018893,240.19203219613837 413.69118502907685,237.67525172107395 413.1323930871238,236.93982674588065 412.65392751684084,236.0183208068593 413.4991002933319,235.35832614763657 414.18362044805565,234.61054514014873 414.4630163886405,233.7398609849341 414.0788469171546,232.7287055092811 413.57593418763224,233.19215682464198 413.20573456483373,232.09144575192144 413.3000307244127,229.73361745820335 413.1568402463631,228.55374101681736 412.8599820404954,227.98836354081408 412.046241256414,227.19821788323898 411.7319208460463,226.65563660568904 411.6620718457061,226.23771784315966 411.7423981565935,225.30527681537546 411.7319208460463,224.79953126792896 411.4804644205081,223.7423488269183 410.6946632730314,222.35670317144954 410.34891074869336,221.55056891854386 410.209212808788,220.38434924956712 410.3908202339855,219.28833277207247 410.78197453865386,218.38373058951763 411.2709174194839,217.79528186390732 411.69001142153195,217.62137938556128 412.8006104114777,217.4439623480181 413.1568402463631,217.33153906188616 414.3547504411527,216.0913347046581 414.501433335789,215.98066185366966 414.60620680591177,215.60120807570524 414.7878142311092,214.47159510210236 414.96243664079725,214.0815764645914 415.3326363243707,213.82858801630204 416.2930599423103,213.5123486971891 416.80645010393704,213.1961052166012 417.550341826896,212.39317944158867 417.8297377674851,211.6763214793059 418.1929524963234,209.43951650010828 418.83556328730833,208.19890436056323 419.75756995809945,207.525853990091 420.7284709473646,206.98458819241898 421.5037947235158,206.1463048690281 421.03231404718514,205.64718712819015 421.1964592071043,205.26229690630655 421.6155531483731,204.8668552804594 421.9263811421541,204.33080156313738 421.9263811421541,199.89778689210715 421.76922093697044,198.88872886077442 421.3431420409662,198.52130842137694 420.7494256292302,198.31562082593993 420.07887532320206,197.78469239040268 419.2406874406644,196.08106896255487 420.0020414289059,195.41294751811708 421.25932331348764,194.9399763363471 421.9263811421541,193.81465316322704 422.2546714012096,192.28482973295792 423.0265028215524,191.3598531536946 423.93453964365585,190.66873438605256 424.6504918515673,189.84393729499956 425.40835336243936,187.6419893917119 426.00556225154065,186.88216313669054 427.23141208293464,186.59194506117507 428.17088095822606,186.25071431447265 428.92874252987696,185.45390331461388 429.5958004801007,184.52689412601757 430.2733356800854,183.8021474227389 431.4048893519004,183.24801745724443 432.6586786983382,182.9894188242625 440.9287992811978,183.33773463485716 449.5621347144496,185.3870614191574 452.4643602501409,185.7036793047426 457.83225529730555,185.7036793047426 458.8764977035018,185.48556521340532 459.7356403286882,185.0387767039065 460.717018689276,184.5216170074321 462.1524154609113,184.7327039888867 465.1524296335477,185.75644845725466 473.31079185232437,190.309977640316 484.00816493872975,193.09723123030324 487.0396111645581,193.44891138524167 488.4750079969763,193.88850414036008 489.08269419662105,194.74480696018728 489.6205313959257,195.28107923647244 490.85685859864236,195.81558097373536 492.24685352917265,196.22875646399126 493.23521672293833,196.3922664727728 496.2352308955748,195.99667579063828 499.32255633382994,194.94349291427767 499.587982486502,194.79931394728158 500.0804179054811,194.82392988526993 500.45061758905825,195.0032741684789 501.2713432670925,195.75931819272662 523.7208090958638,225.67931106417814 525.9978862274072,227.67757593763503 528.7359667247374,228.7539026747242 531.3273643274271,228.695961294979 533.5066528828039,228.14814544306387 542.5136803554451,223.81786336577338 550.7593537790619,218.76665368943242 552.4042975517253,218.00080131341772 553.9549451648091,217.5686813587686 555.2471515191777,217.6003001641635 556.5882521920166,218.48034011464418 557.9398301753993,220.1893883704773 560.3426354589346,224.98918705716778 561.5265758658106,228.0041661974657 573.5371099884544,249.01632815970189 577.4381761500084,253.73691996244216 583.2146877671232,258.67059903470965 590.3148377310163,262.0620675455743 591.9842286629146,263.54197017528315 593.0110088646071,265.7160827865299 593.3358066462969,269.03301080506714 593.084350281534,271.8008889347436 592.5290508169503,274.60703651899604 591.624506350663,277.1482642815365 589.5395139548611,281.5536564819909 589.0889880211795,283.463487348248 589.2880575901021,285.3416483906236 590.922524052218,286.9078512095452 592.424277286049,287.91339708300114 600.4464339815117,291.3799693975917 600.5197754592211,291.4079944507289 600.543650688974,291.4171175902801Z" name="Jonglei" name_en="Jonglei" gn_name="Jonglei" admin="S. Sudan" adm0_a3="SDS" iso_3166_2="SS-JG" iso_a2="SS" postal="JG" type="Wilayat" type_en="State" wikidataid="Q488904"/><path d="M449.93577223651266,170.7509505714386 450.87873364288714,170.1965019419942 451.6750121097668,169.45193514199994 452.97769585520314,168.95906412029927 453.8473157580333,168.74254945490458 461.48083018748406,168.53191889316517 460.717018689276,184.5216170074321 459.7356403286882,185.0387767039065 458.8764977035018,185.48556521340532 457.83225529730555,185.7036793047426 452.4643602501409,185.7036793047426 449.5621347144496,185.3870614191574 440.9287992811978,183.33773463485716 432.6586786983382,182.9894188242625 431.4048893519004,183.24801745724443 430.2733356800854,183.8021474227389 429.5958004801007,184.52689412601757 428.92874252987696,185.45390331461388 428.17088095822606,186.25071431447265 427.23141208293464,186.59194506117507 426.00556225154065,186.88216313669054 425.40835336243936,187.6419893917119 424.6504918515673,189.84393729499956 423.93453964365585,190.66873438605256 423.0265028215524,191.3598531536946 422.2546714012096,192.28482973295792 421.9263811421541,193.81465316322704 421.25932331348764,194.9399763363471 420.0020414289059,195.41294751811708 419.2406874406644,196.08106896255487 420.07887532320206,197.78469239040268 420.7494256292302,198.31562082593993 421.3431420409662,198.52130842137694 421.76922093697044,198.88872886077442 421.9263811421541,199.89778689210715 421.9263811421541,204.33080156313738 421.6155531483731,204.8668552804594 421.1964592071043,205.26229690630655 421.03231404718514,205.64718712819015 421.5037947235158,206.1463048690281 420.7284709473646,206.98458819241898 419.75756995809945,207.525853990091 418.83556328730833,208.19890436056323 418.1929524963234,209.43951650010828 417.8297377674851,211.6763214793059 417.550341826896,212.39317944158867 416.80645010393704,213.1961052166012 416.2930599423103,213.5123486971891 415.3326363243707,213.82858801630204 414.96243664079725,214.0815764645914 414.7878142311092,214.47159510210236 414.60620680591177,215.60120807570524 414.501433335789,215.98066185366966 414.3547504411527,216.0913347046581 413.1568402463631,217.33153906188616 412.8006104114777,217.4439623480181 411.69001142153195,217.62137938556128 411.2709174194839,217.79528186390732 410.78197453865386,218.38373058951763 410.3908202339855,219.28833277207247 410.209212808788,220.38434924956712 410.34891074869336,221.55056891854386 410.6946632730314,222.35670317144954 411.4804644205081,223.7423488269183 411.7319208460463,224.79953126792896 411.7423981565935,225.30527681537546 411.6620718457061,226.23771784315966 411.7319208460463,226.65563660568904 412.046241256414,227.19821788323898 412.8599820404954,227.98836354081408 413.1568402463631,228.55374101681736 413.3000307244127,229.73361745820335 413.20573456483373,232.09144575192144 413.57593418763224,233.19215682464198 414.0788469171546,232.7287055092811 414.4630163886405,233.7398609849341 414.18362044805565,234.61054514014873 413.4991002933319,235.35832614763657 412.65392751684084,236.0183208068593 413.1323930871238,236.93982674588065 413.69118502907685,237.67525172107395 416.3873561018893,240.19203219613837 416.8448669903066,240.36753046592537 417.33031745455,240.41842471459367 417.7983057142897,240.5869016244168 418.1929524963234,241.11864923500966 418.21739965555855,242.13648471650114 417.6970247215365,243.13673116227753 416.3873561018893,244.82828592388012 416.0101715243593,245.55821651436395 415.6958510532127,246.38813602499482 415.49678148428984,247.24960951120448 415.46534943109816,248.0742104307912 415.884443372367,248.0742104307912 415.91587536478033,247.85314983185447 415.8739660010409,247.37417855746665 415.884443372367,247.14609385482353 416.5619785723517,247.58647099765116 416.48863709464223,248.1461424603553 416.1114526386701,248.84790743748627 415.884443372367,249.71806923255266 416.1044676839346,250.32856827602896 417.089338521892,251.33550885628347 417.3093628334593,252.05648212227197 417.6481304030622,252.36170546570835 419.61787201819436,253.67903617205874 419.68772095775927,253.95617570229788 419.5550079118107,254.82265594712814 419.61787201819436,255.11206084870471 419.89726789800426,255.16643353634984 420.7459331518649,255.04365634848173 421.00088199399346,255.11206084870471 421.6225380423299,256.3959271303016 421.55268904198977,257.3710615575387 421.2069365176475,258.3180993141593 420.8297520008964,260.1506944982757 420.42462778676145,260.4926476711537 419.9636244209749,260.74165694134246 419.61787201819436,261.09412375167335 419.1568686524109,262.947564421207 419.7994793218383,263.61561240391234 420.11729220957164,265.5354980151201 420.5398786889855,266.23153142797156 419.19179312218984,267.00117910617416 418.69586528662404,267.2010383074888 420.06490553528926,269.42743801676676 420.14173936880707,270.4669445321738 418.92636696951774,270.90692574075723 418.89493491632606,271.26276171284076 419.39784764584783,272.04453247459224 419.5480229570753,272.824527350281 418.4444088610861,273.18033766073466 418.08817902620063,274.61755240459905 418.3082033985469,277.474224958313 419.2337024859287,279.58761602365945 421.00088199399346,278.7797805387585 421.00786694872886,280.01342838803714 421.5945984057252,280.0484744101175 422.4537410309116,279.68925088540175 423.26748175421443,279.74882974056186 423.7319775973671,280.4900499151206 423.7913492263849,281.4415155108098 423.72499270341035,282.46303318093214 423.8123039082505,283.41092507081083 424.6889087379369,284.6829052446749 426.0369943047326,286.1790700377646 426.8437501340786,287.4561761431382 426.07890366847147,288.081568379627 430.1301452020358,292.852998659225 430.8391125159947,295.26817584782737 431.46775339750513,295.6937435540757 431.6144362921457,296.180599064774 431.6144362921457,298.0736501347079 432.12782639299377,298.64626834712533 433.0638028516982,299.08404182465006 433.51782132352434,299.53231482388736 432.5783523874548,300.155682406779 432.5783523874548,300.65996961417005 433.13015937466827,300.677479440928 434.4258582064027,301.08195297196664 434.0521661062386,301.21327436263283 433.8076946354358,301.33584037280156 433.51432890693764,301.43914550075743 433.00093874531035,301.5021790210899 433.00093874531035,301.9644204198955 433.57020805858554,302.491436311438 433.4200327473586,302.9641664471974 432.95204448761865,303.4106264639746 432.5783523874548,303.8570793250308 432.25006206761657,304.3928134506697 431.9357416572485,304.68343619151324 431.7052399743554,305.0825998989091 431.17438760822836,308.1566715942127 431.72619465622466,309.41351366977005 431.3490101394736,309.86337251626753 430.82165018993356,310.2764662682874 430.6924295605756,310.8383342530931 431.0661217215189,311.4369476881267 432.13830370353696,312.2543322693472 432.5783523874548,312.6883941583067 432.66915606966427,313.2922194603247 432.5783523874548,314.06229692835393 432.6516938043817,314.72209694392046 434.18487921296577,315.3976323220133 435.00211241363417,316.3899055530002 435.58884393141335,317.6743848810107 435.80886824298096,318.95180771115383 435.7460041365974,319.77947751376104 435.5120100371127,320.28166740114017 435.0195746181381,320.5266349059065 434.1953565235132,320.5913759394615 433.7972173248886,320.9045807388176 434.2686979404398,321.57997167305587 434.97766525439926,322.2221034149153 435.30595545267977,322.4408098799528 435.5120100371127,322.6875087850498 436.2698716087676,323.3646079786053 436.3432130256944,323.62529572084867 436.22446970688026,324.4248402805527 436.2698716087676,324.7100116616383 436.8007239748906,324.94444502480377 437.4084101745391,324.8867115859453 437.9113229040614,325.04416609576845 438.1173773669368,325.92939437486666 438.5679033613979,327.1959591564367 440.67734291643484,329.4403041838148 441.34789322246695,330.80292138530524 441.67269112571427,333.5559518455656 442.11273974885296,334.61057144494885 443.2338160493422,335.8872583008312 443.6948194151288,337.69376479841617 444.3653697211569,339.0087911534821 444.97654839817125,339.79917831972847 445.4165970213102,340.6507447967573 445.7204401819088,342.7716882046606 446.0661926454688,343.1545962230383 446.9253352706549,343.78402358633446 448.3118377238202,345.63201698357096 451.54933847330625,347.36976305638547 452.0417738922814,348.1529403330197 452.21290388537847,349.4168203669695 452.41197357585855,349.8800552181254 419.74360017018614,349.0864334840087 411.80526226297684,346.58306933251055 390.2638331955258,302.30059117024234 389.4989867906976,301.36560625491904 388.3883878007521,300.8193085237024 387.2428643410238,300.56191449131205 376.91569093819186,299.74594230691844 374.4604988588169,260.19804214317764 373.8318579165239,258.8144034742552 372.7107816768133,257.3447544921332 353.40102783901864,244.08078708513463 336.1308647382605,217.73204472143905 332.3240946754992,216.46551069012042 318.4800245218209,217.58449076663393 319.216931350823,215.70661247796204 320.8618751234864,208.37287509203264 321.96199674211005,206.2886569828864 323.3380218847315,204.9529741994147 326.5021812172831,203.9300715411093 328.01441188321905,203.24811189994807 329.4078992911191,202.09857863089258 329.64887822377744,201.55015777277697 329.6803102769694,201.25836453541982 329.02023740304196,200.84176188994402 328.1191853533418,199.9610712702739 327.5848405706278,199.52159257006582 326.37645300451214,198.8465373079227 325.74781206221917,198.5670165922784 325.06678438486495,198.47208423662155 324.511484920282,198.21892947170207 323.9666627662456,198.0712545819189 323.4742274080457,198.2136554041749 322.9468675192848,198.3138628515995 322.3915680547013,198.47208423662155 321.9724740526535,198.50900240016568 321.5848121645798,198.44571404927976 321.17619559463304,198.14509211244052 320.57898670553146,197.9341270877705 320.0865513473358,197.89720801943224 319.216931350823,197.7003052377348 319.14632255340877,197.6653204220463 318.31156969795836,195.984429488544 318.03331876235643,193.55626228151064 318.1260690967555,190.66080887647036 319.5173237747768,188.04524982356756 323.8765885452357,183.74761616824915 328.98875071229764,179.79446258116917 330.34032868078987,178.694792328498 338.6383888811828,174.30261849649102 346.7548417356478,171.34410748322048 362.34862917830804,167.90287535870436 368.041322022982,162.47327745936252 371.18801906367855,157.49145816420338 371.2927925532781,147.6953460665258 373.34984538327325,146.08837102745395 377.0727965829618,143.81690619378875 395.10780627241735,135.06362522153646 398.1602071522056,133.21062966964317 414.0962545955538,143.39131040346186 430.03230203890195,153.56719747808555 447.9206288564328,169.66844296351033 449.0032882264081,170.44996586326275 449.93577223651266,170.7509505714386Z" name="Unity" name_en="Unity" gn_name="Unity" admin="S. Sudan" adm0_a3="SDS" iso_3166_2="SS-UY" iso_a2="SS" postal="WH" type="Wilayat" type_en="State" wikidataid="Q319965"/><path d="M255.0256534517656,179.2279190651941 261.9193785500942,193.55626228151064 265.1656395105478,197.19841842068362 292.1123646471036,197.43149333751316 319.05908978365943,197.66456593567625 319.14632255340877,197.6653204220463 319.216931350823,197.7003052377348 320.0865513473358,197.89720801943224 320.57898670553146,197.9341270877705 321.17619559463304,198.14509211244052 321.5848121645798,198.44571404927976 321.9724740526535,198.50900240016568 322.3915680547013,198.47208423662155 322.9468675192848,198.3138628515995 323.4742274080457,198.2136554041749 323.9666627662456,198.0712545819189 324.511484920282,198.21892947170207 325.06678438486495,198.47208423662155 325.74781206221917,198.5670165922784 326.37645300451214,198.8465373079227 327.5848405706278,199.52159257006582 328.1191853533418,199.9610712702739 329.02023740304196,200.84176188994402 329.6803102769694,201.25836453541982 329.64887822377744,201.55015777277697 329.4078992911191,202.09857863089258 328.01441188321905,203.24811189994807 326.5021812172831,203.9300715411093 323.3380218847315,204.9529741994147 321.96199674211005,206.2886569828864 320.8618751234864,208.37287509203264 319.216931350823,215.70661247796204 318.4800245218209,217.58449076663393 289.2028196542279,219.71515268362054 289.05613675959137,219.7994619787616 288.0992055582387,220.25261904275192 287.42865525220685,220.37908001588167 286.77905962804437,220.3632724302342 282.32269394112393,219.84161645539967 281.6311889532262,219.6940754057816 270.09213550691726,219.23036894981692 262.3738219720539,219.94700244905408 259.48207368613066,220.6179488998262 257.5507490789259,221.4978794847172 256.16773904234793,222.5569153927083 254.78123652840404,224.44655682583613 253.39822649182972,228.42205492321276 252.50765187423025,238.773961090589 251.61707725663078,241.7258456841616 249.7067073312953,245.37749049668952 247.68457904188082,248.1531602010038 246.245689792876,251.1285103641498 241.8521882123392,270.5966609172042 232.25493674455714,273.1277551075583 191.6621952803671,292.2785091208773 184.26867946641894,297.29087777540855 180.0532928944932,299.5305637576993 178.28960580301936,300.20821274138586 176.6132300379429,300.5969341957767 174.7342921050205,300.687985343903 172.43975270819854,300.3552972501433 169.71214964296962,299.3151834842823 147.4896929589433,284.86160844272047 143.52576263022277,281.2890729628238 139.4256268389667,275.4903596844089 136.99138944146102,267.8689780377393 135.5455152984994,258.5653757133404 135.2940589337364,249.128608063493 131.69683593278125,226.17450261038096 131.9273376156747,181.35155989979296 134.18346000456958,158.0850231170879 133.86559709579657,152.46716829739765 133.88654725294361,152.48913597909012 139.07981972736707,154.4567345340735 151.8324994120302,169.39912807943597 164.5851790966984,184.33158203497374 167.56074605257527,186.27000765667978 169.24061437408028,187.0404073735405 173.15215789560094,187.35700252895649 173.87509499409794,187.29368383195254 199.96718578352102,178.4502183798082 217.46086578798517,178.04376243715907 220.56216095841293,178.58922112010788 230.2222765235679,178.55051156341608 235.7124072973647,179.24375432670828 236.10356162248183,179.20152696091668 237.51101878993808,178.82147700973212 237.8882033660005,178.7827678479974 246.5459859054536,180.0513378712323 253.2200570508776,179.6976936520785 254.33065598653877,179.50239532817736 255.0256534517656,179.2279190651941Z" name="Northern Bahr el Ghazal" name_en="Northern Bahr el Ghazal" gn_name="Northern Bahr el Ghazal" admin="S. Sudan" adm0_a3="SDS" iso_3166_2="SS-BN" iso_a2="SS" postal="NB" type="Wilayat" type_en="State" wikidataid="Q491111"/><path d="M376.91569093819186,299.74594230691844 387.2428643410238,300.56191449131205 388.3883878007521,300.8193085237024 389.4989867906976,301.36560625491904 390.2638331955258,302.30059117024234 411.80526226297684,346.58306933251055 419.74360017018614,349.0864334840087 452.41197357585855,349.8800552181254 452.64247519797334,350.414951726758 454.4864886611131,353.0473466856948 454.9020901250127,353.38992603127343 455.50628390807054,353.5262576550855 456.0930153650669,353.5874318843834 457.8008232441136,353.9702050429241 458.31421334496173,354.2201411136757 462.89281476728354,358.0248646156787 465.1419523230005,359.05767016657796 466.1163457288529,359.7619157217605 466.78340361829834,360.13063353939947 468.4458095954578,360.50109449783423 469.1582693260076,360.9152367108475 469.57736326727644,361.6054615830189 469.8288196320358,363.1064303067196 470.0802759967985,363.7284640163288 470.4574605743285,364.0010367092528 471.63441602646986,364.5199667438609 472.1373287559916,364.86067375052215 473.09076747997864,365.917715949624 473.56224821708764,366.3300402435713 474.89985641255726,366.85417363906845 475.947591296119,367.67879270428085 477.5052238031597,369.2685702850958 478.5389888988087,371.2216179275698 479.1955694169281,372.14743991102273 480.0442346707881,372.54046947830636 481.2072203350165,372.9107863580269 481.7380727011432,373.8365599568351 482.0558855888802,375.03827940451043 482.58324547763766,376.2329681279007 484.67871524476215,378.2903849644472 484.9616036627165,378.8352818450379 485.02446776910045,379.5163901912481 485.14670350450155,380.09794068428016 485.6007219155527,380.3441797195713 486.36906085852627,380.9222229845198 486.77767748925163,382.3122793643181 487.2386807942596,385.46239185602906 487.6368200536594,386.8260674544609 488.1816421469166,387.8404941502203 489.00586024154575,388.474276965912 490.2386949668926,388.69251893429623 491.21308843352386,389.21978579014757 491.6217050034706,390.4855413867698 491.8522066863643,393.3468469279076 492.62753052329356,395.09598213335795 496.9686453079902,400.2660547929524 497.52743724993934,401.1334754603412 497.96748593385695,402.2207746891297 498.25037435181133,403.4424184526186 498.5437400803095,406.12988334831704 500.1572517997772,409.57267722768285 500.87669642427994,412.6853846594583 501.4634279420591,414.3707386238875 502.25621404427125,415.10522090709446 502.9581963427122,415.5064755214508 503.7300277022761,416.4415559557055 504.40057806908686,417.5144259525419 506.4611233056498,422.78585206092686 506.6601929353513,424.1358556222909 506.8592625042704,424.868394653329 507.34122061270546,425.7439339783589 507.9593841228935,426.5653871295254 508.54960817881715,427.1304524668767 508.9477474382164,427.10429220090714 509.3877960613554,426.82699248978366 509.85927679846435,426.83048051627105 510.2469386865415,427.87513945694445 506.8068758299881,430.9008205763454 504.3202516974206,430.6340125488516 499.8219766467653,428.2361415682376 476.88706023219277,424.0730658583444 468.6553565357024,420.52177994535197 456.08253805452364,409.9024557776977 452.64247519797334,409.7925299175938 447.6901816754835,412.33818478306745 441.6517363830661,413.54377366853305 426.69706730021727,414.7911923286719 423.74943980186714,411.2494556529918 416.8274047250277,397.38787651360184 414.55382007085024,394.5112014597894 412.2138788329235,392.2418076976406 410.9146875845985,391.2711589286121 409.7482094430048,390.72646606567554 406.7516876869551,391.10356207220457 393.0647777992396,391.3444823291471 392.03799759754713,392.04279205767824 391.23124176820056,393.341609818815 391.0182023505897,399.1856754021374 391.74463186904893,403.4947736421326 392.51995564519956,406.1246482479005 392.49900096333397,409.18007967157166 391.3010907685444,415.79607399294133 390.0752409371504,418.88730376708963 388.943687326114,420.7258662020028 386.3837217158371,423.1189970989375 381.6444676109623,429.2354187539571 380.2579652185759,431.77621642317246 378.09963134506864,438.0167402151851 377.3033528262693,441.2263969174886 373.9366313866464,443.18413691284354 369.207854713876,443.29396259325085 339.62331426909316,440.3930629457654 337.2624183492972,439.7288233987935 334.95740158114916,438.4090268512316 333.90617428099983,437.0264162523857 332.6803245103847,436.1005792796686 331.29731441302783,435.2723631217133 329.4078992911191,434.4772582236965 327.10288252297164,433.81291430828094 325.30776343908474,432.1999564392293 320.3589623331858,425.72300501141183 318.5533659387517,422.8312018262994 314.5370489357488,418.56284179494384 311.54751207365535,416.8968754683454 309.7244534139429,414.86446588496347 308.61385442399745,411.3855486209079 307.3426027514985,408.85552909724635 304.68135620924727,404.84725555880766 304.1225642672944,403.2225257686384 303.9025399557268,401.16838124000196 304.35306595018756,398.7405980458724 303.68251558337715,394.8306500640883 302.82337301897303,392.69220717535967 303.88158527385724,390.354603407617 303.3996271654261,387.6484363714085 304.10160958542485,385.22666763370376 303.68251558337715,382.26862266204654 305.3414292047322,373.1972550060629 310.8769617676272,377.4660365763889 316.3007359664435,379.6945239044484 318.62670735568224,380.05078837116463 320.8723524948085,379.98267922665804 323.2821426723007,379.62117475609824 325.56969711439126,379.05533376577165 327.8572516780353,378.13145501710153 329.91081202064146,376.8949186242146 331.2868371024846,375.06971915001805 332.04120619676934,373.56407087695 340.3567286815086,346.4467070395504 341.57210114157687,343.9466235485466 345.9970347753056,337.52588495572934 368.1671047242704,313.0506908564563 376.91569093819186,299.74594230691844Z" name="Lakes" name_en="Lakes" gn_name="Lakes" admin="S. Sudan" adm0_a3="SDS" iso_3166_2="SS-LK" iso_a2="SS" postal="EB" type="Wilayat" type_en="State" wikidataid="Q491096"/><path d="M287.42865525220685,220.37908001588167 288.0992055582387,220.25261904275192 289.05613675959137,219.7994619787616 289.2028196542279,219.71515268362054 318.4800245218209,217.58449076663393 332.3240946754992,216.46551069012042 336.1308647382605,217.73204472143905 353.40102783901864,244.08078708513463 372.7107816768133,257.3447544921332 373.8318579165239,258.8144034742552 374.4604988588169,260.19804214317764 376.91569093819186,299.74594230691844 368.1671047242704,313.0506908564563 345.9970347753056,337.52588495572934 341.57210114157687,343.9466235485466 340.3567286815086,346.4467070395504 332.04120619676934,373.56407087695 331.2868371024846,375.06971915001805 329.91081202064146,376.8949186242146 327.8572516780353,378.13145501710153 325.56969711439126,379.05533376577165 323.2821426723007,379.62117475609824 320.8723524948085,379.98267922665804 318.62670735568224,380.05078837116463 316.3007359664435,379.6945239044484 310.8769617676272,377.4660365763889 305.3414292047322,373.1972550060629 302.6243033892716,357.710297842414 302.00613981830435,349.3014476328457 303.2215122783726,338.6660504710618 303.3786725443352,327.7155149058509 303.0538746410839,325.02492167401937 302.27855086493327,323.38210389025494 299.61381190609137,321.28427132329784 299.07946712337764,319.9824542809188 299.3623555413323,318.6105838894186 300.0957698929652,316.89215432491216 300.21102073441403,315.11061918222424 299.25758201043095,313.56524934414017 297.0573387731843,312.33659450409095 294.2354394876012,311.3266776531107 285.68941538074705,306.665193394035 280.05609418090694,302.3321069790035 275.21206660590934,299.336196250771 271.89773196212997,297.92130020400674 261.67183955205127,296.1700914602797 260.36217099318264,295.6394534398877 259.37730021600817,294.91966080237 257.8022054436886,293.3994531585419 253.57634143965794,288.10258970363054 244.82077033178027,273.7482220475586 241.8521882123392,270.5966609172042 246.245689792876,251.1285103641498 247.68457904188082,248.1531602010038 249.7067073312953,245.37749049668952 251.61707725663078,241.7258456841616 252.50765187423025,238.773961090589 253.39822649182972,228.42205492321276 254.78123652840404,224.44655682583613 256.16773904234793,222.5569153927083 257.5507490789259,221.4978794847172 259.48207368613066,220.6179488998262 262.3738219720539,219.94700244905408 270.09213550691726,219.23036894981692 281.6311889532262,219.6940754057816 282.32269394112393,219.84161645539967 286.77905962804437,220.3632724302342 287.42865525220685,220.37908001588167Z" name="Warrap" name_en="Warrap" gn_name="Warrap State" admin="S. Sudan" adm0_a3="SDS" iso_3166_2="SS-WR" iso_a2="SS" postal="WR" type="Wilayat" type_en="State" wikidataid="Q491138"/></svg>