<?xml version="1.0"?><svg fill="#3498db" stroke="#ecf0f1" stroke-width="1" width="800" height="1328" viewBox="0 0 800 1328" xmlns="http://www.w3.org/2000/svg"><path d="M175.28572822595842,1024.493717518982 193.20382532869758,1036.6173909663344 211.70620749550065,1056.35055695689 226.89763750908583,1079.2112958110645 235.2074797245893,1100.7822253025818 238.71319409765218,1121.9339350651437 238.38859092976395,1134.5088598844104 235.2074797245893,1148.9538822238135 228.8452565165945,1164.3016962703284 222.0935096665994,1173.9101905748503 202.5523975220212,1192.224346162463 192.6195394668973,1204.154327610671 169.8323948453877,1241.42740000433 164.9633465288792,1243.2975000822876 157.5623933430643,1245.0063840975802 152.88810724640248,1248.391909470144 158.21159967888494,1262.062977561736 152.30382218233854,1265.3195283707066 143.40969410498974,1267.0606544639195 137.17731264277455,1268.9952383438558 124.84239066642995,1282.7630240446751 123.28429530087573,1285.2134959091898 96.66683313836998,1285.8261138465411 93.0961982912859,1285.2134959091898 84.59159385589156,1313.7163404858818 76.28175243807942,1324.7112122697015 65.82952899522313,1312.2976477329764 60.05159164898193,1326.1621485128144 51.80667070523687,1328.0000000000002 43.626670235512165,1320.4551330121433 38.627780970917094,1306.3649303941759 39.926193642603444,1305.333152845351 43.8214316576208,1291.6621051830568 44.08111435148783,1285.2134959091898 41.48428900815766,1277.1527327201109 38.23825653122543,1273.6704825301194 35.12206580011784,1271.92935687604 32.7200026766335,1268.9952383438558 4.479523876815979,1178.7466775162748 0,1171.0727830282008 3.7004765929070538,1164.0437498690953 5.128730212637466,1157.0791979152689 5.453333380570735,1141.1187503469084 7.336031914012334,1134.831293612341 22.78714462150959,1116.5492817841155 26.033176300660404,1109.391235332092 26.877144856371938,1104.3290098981092 28.824763863880616,1099.3312682506207 56.93540091787433,1071.247125332886 63.102861906069165,1068.2807112211822 93.03127701948328,1058.2206906045776 117.96080286834739,1037.7781672313336 143.73429727292302,1021.5917712472142 175.28572822595842,1024.493717518982Z" name="São Tomé" gn_name="Sao Tome" admin="Sao Tome and Principe" adm0_a3="STP" iso_3166_2="ST-S" iso_a2="ST"/><path d="M798.5887949215862,19.99945722076471 794.3040332646152,23.612234809200114 785.3449847132453,27.192747163085915 776.321015687854,32.41834366800787 771.4519673713472,41.1598903057532 783.267523959912,43.06302469427936 793.7846678768361,48.707901349959926 797.8097476376764,54.67532025483421 790.5386361976862,57.41709994311289 779.0476827770071,60.12661880242643 775.9964125199208,67.02941895990865 776.9053015496535,84.96365788637844 772.8802217888124,100.7043362536401 768.9200625020375,108.6391289827851 763.0772054795123,111.99366317592735 753.1443474243891,113.60641851196655 750.2229181153893,118.15437775830895 750.5475212832785,125.02467696295223 749.6386322535899,133.63670068668173 747.5611722979938,130.63701238722436 745.0941879027076,124.76663796172785 743.7957752310647,122.37977629351339 738.4722827985364,124.70212761061498 733.4084722621845,128.25015912510185 726.3970435160596,115.44495700585446 715.3605342114022,111.67111207783995 703.6748193686146,110.89698950173661 694.7157708172446,106.57479617435376 692.1838659479373,82.0606475165833 692.7681518097376,67.48100341499342 700.1691049955525,68.7067308713032 713.4129152038935,63.22320587234946 719.8400588859546,55.804289172614524 721.7876778934641,45.96610645853412 721.8525983674853,33.03122121091112 726.0724403481705,17.90275280365473 736.7843456872034,5.903093055670275 750.9370457229684,0 765.4792686029974,3.2257364594701237 787.4224454665768,5.225690246071184 796.1867317981018,9.09655982504295 798.5887949215862,19.99945722076471Z" name="Príncipe" name_en="Príncipe Province" gn_name="Principe" admin="Sao Tome and Principe" adm0_a3="STP" iso_3166_2="ST-P" iso_a2="ST" wikidataid="Q2366966"/></svg>