<?xml version="1.0"?><svg fill="#3498db" stroke="#ecf0f1" stroke-width="1" width="800" height="432" viewBox="0 0 800 432" xmlns="http://www.w3.org/2000/svg"><path d="M5.404667869138238,240.00049981922305 0.1525967764037051,218.2286450666704 0,212.94580036016706 0.8138511146278857,207.4890841311136 2.560239616092066,202.17947651579544 5.162867280294164,197.32936849470448 9.088003292858449,193.31196348399905 18.09123016133929,188.53071786558166 22.11809703004811,185.31123585931087 25.161560919753125,180.5815637275432 27.33183055869311,175.6953764437655 30.12096550342833,170.98247051347326 34.9786389028344,166.7032830255694 66.50688885082852,144.6959679647055 73.49244351300032,137.74085661288441 76.99369871614752,135.4570795907373 91.51585299418342,129.94273421905993 96.35657130559532,129.61272929079828 102.3078567404015,131.15852998927554 110.8448150795018,137.7755900433593 115.66010010271715,139.72065330918835 120.45843036596412,137.15038082652418 120.58559451034363,135.283405640362 120.33825614333362,134.7140436551053 123.07827820119368,135.86548328539874 129.01260864724242,139.6080429466729 130.21643010117933,140.62397272651162 130.77595241631067,141.32730069096567 131.17440024181835,142.06535419645584 131.87804227199618,144.79174840521407 132.21714720613159,145.59922830081058 132.700370970105,146.32855788815377 133.8872370592983,147.48331548430036 135.21822256847952,148.50782219651498 136.40508895276426,149.72332114608335 136.43052170479373,149.8014597186838 137.13416373496605,151.1124392513681 137.44783532693302,151.91117061554766 136.48138750393866,157.91875135446665 129.91123589652017,180.38222775217773 124.08711443603065,182.82087209440365 116.88114166724242,184.80817952223137 112.88818513969322,185.4156432080827 111.98108020806013,186.03178041096314 111.2774381778878,186.99502649483378 110.94681151626317,189.13842291694144 110.87051296508878,190.56153596526534 111.65045354642452,196.84374431186538 112.19302049682322,198.79598313648864 112.79493151886665,200.32303398671712 113.56639412277207,201.86740644163584 113.86311064508138,202.6482570605218 113.66812572104544,203.81084229973249 106.98776512805127,213.9436807643024 106.377376718711,215.76536857089076 106.19934715941321,217.10992026349606 108.97152686827638,225.83592546136202 109.31910918970864,227.7007000698591 108.86979556506702,229.02769814443596 107.89487005970084,230.6235347562085 105.40245091826984,233.55493258239724 104.4444807776308,235.36748677375874 103.91886830676177,236.80709300172367 103.73236106510313,239.8943511762193 103.46107729482331,240.7441930232993 99.25618047853298,248.27095701407427 98.65426945647309,249.892411351886 96.79767206657277,257.35760156728503 95.15301467036058,258.0165153169333 92.43170046556183,258.3719798483673 82.52984594894585,257.8084379872933 80.5036957969001,257.3836113387162 79.85091986092571,256.92410238970695 77.46871000013441,254.66119834036442 73.17055897287852,249.72766611475657 72.51778274182917,249.18140332023063 71.16136448062942,248.2449442008641 70.37294621692187,247.88076269624503 69.49127433236579,247.56860559232445 68.32984099519649,247.43853996410084 67.00733287332856,247.43853996410084 65.12530243630184,247.7853813576027 64.03168996791865,248.14089225757303 63.056764757621956,248.59178200151322 62.25986851647859,249.138048932515 61.33580881024085,249.91842331290647 58.87730039829162,252.84042287168117 53.66356705208385,261.0162374208147 52.92192647023611,262.25963020407346 30.713220284819283,252.15881082908757 5.404667869138238,240.00049981922305Z" name="Ahuachapán" name_en="Ahuachapán Department" gn_name="Departamento de Ahuachapan" admin="El Salvador" adm0_a3="SLV" iso_3166_2="SV-AH" iso_a2="SV" postal="AH" type="Departamento" type_en="Department" wikidataid="Q572993"/><path d="M120.33825614333362,134.7140436551053 118.2203400468899,129.83852246826038 117.89819074989401,127.25923118348337 118.83072813676324,124.51483818125517 132.85270338129467,99.81082775006142 139.42285477805197,92.65175703874283 147.69700695631548,86.31749743280558 156.3272189356933,82.38112525535445 191.56018678348653,73.96893727629879 193.67111263008408,71.88312500417526 193.62024703797695,66.6335744548791 192.56902305069784,65.260286673099 188.4065138374236,63.191616376521885 186.97379676083912,61.77480499585977 186.3634086709603,59.58434415885595 185.76997566905916,54.44694078070142 185.34609485971345,52.873486482671 183.43863170974035,49.25702307754863 182.4891385786442,47.97904783062373 180.59015297264074,46.18810803388397 178.32662969344517,45.179598152902855 171.4682391756803,44.275405735263604 169.44208909722764,39.51082517162585 171.38346307944377,36.68497224979217 174.6727777138613,34.3372588006418 176.74979338445954,31.050335820282832 175.80030058147702,27.12844737687216 173.40113528579124,23.797722547786993 171.9938511693171,19.997209872024428 174.13021030414416,14.665728029840235 178.78442100695324,11.230067401716598 183.6081839022244,11.6301778375228 187.19421487356587,15.25716753773277 188.14370800466202,21.493087373878794 192.60293322672462,18.283871803223825 200.7160107564737,8.52491646789173 202.9750957766179,7.566702608516116 206.5401323750085,6.054531302891346 211.74538803154832,6.733025904293264 215.45010560323928,8.681487422838481 219.15482317492476,10.047119421406931 224.31769078333804,8.977231806840297 231.77799184696266,1.2961984844626222 235.1181720735532,0 235.550530426907,6.506861391240708 237.24605333626954,3.9233231163576225 237.6021131374113,3.1578129651564297 247.04814277918894,10.05510967598921 247.113997239599,10.064516040159097 252.1715716752162,10.873150397693783 264.68835759556237,22.510886148577544 266.8671048499569,24.928544254508843 267.27403035782544,25.572080291940296 268.36764253112267,28.111384380361304 269.8257923905957,30.554948042564988 270.5548674678725,31.294088308053706 271.7163008050638,32.207134311979054 276.59092921711965,34.77229815480818 277.3030489296693,35.346186816442774 278.87140747965407,37.44171345000493 284.88203647685526,41.24133575000805 280.65170661346593,53.42142816609687 279.37158690342415,60.193083546861295 276.48072023156044,63.40918810306799 264.2644773130837,68.35476574315167 264.2136112188858,75.0816181486214 264.5272831059277,78.80111797408716 264.40011905069434,80.06987692326348 263.77277557169094,81.64276103239644 257.42304193540735,90.43640164926758 256.2616088932911,91.56594497515009 255.61730975449103,92.04382349902093 254.85432453788795,92.47825613818638 254.04895120451175,92.79104606344553 253.13336888557632,93.05170324198232 252.11605496836205,93.21678548408974 248.74196423746642,93.42531030255321 247.87724742258447,93.5556380589408 246.98709785567854,93.8076040527862 246.19867959197097,94.15514186831065 245.56285872567074,94.58956233820808 244.90160451719652,95.16299368285821 241.06972247930943,102.1307008599225 240.28978189795723,103.20794494292527 239.64548334927966,103.82474684451093 238.89097581504836,104.2504246163954 238.07712450424734,104.55447813757323 231.90542101739504,104.14617708482942 225.60655318023444,125.73099219352979 226.60691143764657,132.9477221678573 230.25228593880556,136.28229716070268 235.16082537542914,137.22011995141784 240.06088653952,137.20275313009836 243.918201329464,136.16072692235184 240.3660804491316,154.75007192079417 239.79808045162844,159.6028728683915 239.88285668515817,160.64457869793063 239.3741995790218,167.08547943979926 239.01813987028171,168.1357633991717 238.2805874057081,169.03847500417643 236.60201957509463,169.7762609733463 235.38124305149455,169.85437904310064 234.29610856055268,169.82833949394916 233.38900333382816,169.92381689117644 232.69383928109713,170.2883662976608 230.07425608444925,174.48056159391191 228.9975989808042,175.17489863892175 228.08201666185232,175.30508600254356 227.25968796374346,175.04471105420916 226.37801607920935,174.97527724292502 225.58959811058224,175.18357788393573 224.89443346770676,175.6435728383056 224.38577665663436,176.2858252534993 223.9873288311212,178.16047709965628 223.5549702761592,187.15990538093473 223.82625404641706,193.21678566144456 223.21586563709326,200.3577389998619 217.45956504541184,215.9909078671661 215.94207229456646,225.34153621469562 200.3093502333735,222.3664587264703 196.12140819165487,220.95260630362992 195.5957963109248,220.30205202774985 195.1464823912137,219.60812170073842 193.16272094608004,214.6983851725777 188.8052267323714,210.63850863802062 181.87053773384105,205.49395730805543 178.69990960935317,203.6026195014907 176.4702968508942,202.62222892456907 175.58014728398825,202.8478066162248 174.94432612261852,203.3163121604055 174.37632612511536,203.94098179160684 173.50313192293106,205.37249657677233 172.45190757133747,207.7322697212646 172.0195493114285,209.58013010614306 172.02802669873083,212.5903989711143 171.81608640996774,213.4058408651609 171.0785339453941,214.16922507364552 169.8916675611039,214.767782860526 167.53489074741705,215.3229624233706 165.9834872671064,215.01067427779284 164.923785528194,214.58561372124868 164.20318813328902,214.01307943182283 163.6436655230937,213.39716592924188 163.23674001522517,212.61642404773175 162.85524725939163,211.57542229797718 162.0753066780394,210.4650050289505 160.57476899685722,208.9294801158121 158.5316637751538,208.54776291080447 157.4719620362359,207.8884286649487 157.04808116362926,207.1683599619082 157.19220087867572,206.32682531148055 157.57369304437577,205.580714899304 158.1332159496406,204.93003119063513 159.3963805900138,203.89760208605344 159.90503740108068,203.3163121604055 160.32891827369832,202.56149617053404 160.59172406653133,201.63314962310554 160.66802261768927,200.68743946905693 160.31196290896565,198.9521601775509 158.85381304949257,196.5921188698097 156.84461855723796,194.74394714958288 155.81882725272686,193.60725596239394 155.0897521754501,192.63541543324263 154.05548318858914,190.24046997321906 153.0805573881315,188.90412736229297 147.756615056359,183.7234111206476 145.8491518673138,182.32620673491448 144.3231814341021,181.58854182861174 143.28043446979436,181.58854182861174 142.28855359967906,181.71871861022743 140.4912993962095,182.19603098341918 137.5495669252009,182.29149298111915 129.91123589652017,180.38222775217773 136.48138750393866,157.91875135446665 137.44783532693302,151.91117061554766 137.13416373496605,151.1124392513681 136.43052170479373,149.8014597186838 136.40508895276426,149.72332114608335 135.21822256847952,148.50782219651498 133.8872370592983,147.48331548430036 132.700370970105,146.32855788815377 132.21714720613159,145.59922830081058 131.87804227199618,144.79174840521407 131.17440024181835,142.06535419645584 130.77595241631067,141.32730069096567 130.21643010117933,140.62397272651162 129.01260864724242,139.6080429466729 123.07827820119368,135.86548328539874 120.33825614333362,134.7140436551053Z" name="Santa Ana" name_en="Santa Ana Department" gn_name="Departamento de Santa Ana" admin="El Salvador" adm0_a3="SLV" iso_3166_2="SV-SA" iso_a2="SV" postal="SA" type="Departamento" type_en="Department" wikidataid="Q671158"/><path d="M252.1715716752162,10.873150397693783 264.8491675998404,12.900079016161866 275.0307829280496,17.718548487929702 291.76559489317395,21.284361854475627 300.0906129916472,27.163232268756143 315.24011077565325,31.667732095908065 318.3513953455035,28.832885589973802 323.07342705654395,19.73629813062351 325.676054720757,17.066246719434254 328.57539904995275,16.26608234024339 330.49981761604465,16.631375800695142 332.1105644291542,18.127321120962307 333.99259494714704,20.65818278655183 335.6287743922478,23.74554300985262 336.34089432258463,27.093662132185468 336.05265552969615,30.519892927216027 334.7640580136045,33.83292574159876 338.50268608943037,37.04147042789146 349.69313768488377,38.34571720925572 354.94078138955007,40.96283717218358 357.034752148137,45.12743325760375 358.3403050803749,55.43793955953169 359.8154098769887,58.4543195844005 368.1404279754675,64.75616234444102 371.16693644904825,68.39795125239797 374.1086688263595,73.36058140705731 375.3464007503386,77.57551729945608 375.53129239452716,79.14545237537067 375.8550573278292,81.89449544188518 376.9232370592913,85.4659377536896 379.8141035164148,87.55137312706528 382.99320909446345,86.84754499694297 386.8844342747902,84.57961025381714 391.47082429744853,82.60705959960788 396.59978107365174,82.71133650162955 404.7213364755115,87.88156168455514 411.5882042091763,96.51808710960348 416.51369861682474,106.56961833363621 418.6670128396624,116.05523062755303 424.43179099393546,115.20400635502499 438.81830325548117,116.28106417656419 442.7264838519157,114.76101848468 446.1090524547244,112.67633479789787 448.9744859516991,112.38099975221725 451.3227853271421,116.21157695071071 451.0515016222973,121.90062490916624 449.0762174640873,127.43292348018775 448.88971018355966,132.165888655513 454.0356223758377,135.52654885813772 461.0720426301276,136.46438128486832 462.5980133469951,137.02012830147854 464.96326781045434,139.04336015736982 466.5909697115416,141.30098033136437 467.3285226020107,144.1055464678218 467.2089579960588,145.83925959901697 452.1029910002292,148.1258045234721 445.30394373930403,151.39025989684978 442.83695764496656,154.71534596224228 440.5988674992272,156.4169005640993 436.6906872052352,158.23127160414762 416.5139633935945,164.82862151096768 411.56303643035324,166.70355406943372 407.09533323106893,167.82328362736544 398.4990317666742,167.03339844892136 388.8175955162626,167.30248107209087 383.4088772460189,166.6861939585535 378.3392636148521,164.73313775721007 372.38797780405974,165.21923631278307 365.36851257199964,161.8946071332668 364.1138256139818,161.11334187011497 362.64719836721736,159.76781039971908 360.91776503252845,157.20689543835357 360.0360928529303,155.36645558510614 359.476570242713,153.82982822799207 359.26462995394996,152.9963899065241 359.1374656036471,152.14557936917967 359.1459432860189,151.24266758773956 359.4002716915496,149.8101421467083 359.4002716915496,149.73200358300028 359.26462995394996,149.1850313950797 358.6627192269815,148.26472026243127 351.4652241405596,139.7382909495448 349.9816415290351,137.11591835960704 349.4729847179627,136.49070339267547 343.93710209743256,132.54825819777798 341.55489223664125,130.42932622558044 339.90175745313223,129.55221010749403 331.4410977263207,126.48656644025446 327.32945482591543,124.42826015875663 326.18497626333436,124.28061582775791 325.18461800593866,124.27193078704713 319.38592929747864,127.28555635570673 310.3233591387846,131.44537866058317 306.5932084040794,130.51616893825818 301.9729083975323,126.87737785807904 299.8958927414276,131.03722252457342 295.3264582389614,130.98511750813594 288.5274109780307,128.02374590427695 286.0095593796397,128.88351095589792 281.7622744465818,131.94037399034178 280.3889008206329,132.61773031714716 278.05755646390054,132.28773673104814 274.93779443362706,130.85485420617024 273.8696147172679,130.53353758976937 268.5117622461691,129.76063449553547 262.594386869778,126.40840391516664 259.20334106922473,125.73099219352979 255.99032512302776,128.14532946557895 252.9977268528962,129.7866877305156 249.12345699329998,130.53353758976937 246.3936648110819,131.57564094989482 245.34244045946633,133.86821851183456 243.918201329464,136.16072692235184 240.06088653952,137.20275313009836 235.16082537542914,137.22011995141784 230.25228593880556,136.28229716070268 226.60691143764657,132.9477221678573 225.60655318023444,125.73099219352979 231.90542101739504,104.14617708482942 238.07712450424734,104.55447813757323 238.89097581504836,104.2504246163954 239.64548334927966,103.82474684451093 240.28978189795723,103.20794494292527 241.06972247930943,102.1307008599225 244.90160451719652,95.16299368285821 245.56285872567074,94.58956233820808 246.19867959197097,94.15514186831065 246.98709785567854,93.8076040527862 247.87724742258447,93.5556380589408 248.74196423746642,93.42531030255321 252.11605496836205,93.21678548408974 253.13336888557632,93.05170324198232 254.04895120451175,92.79104606344553 254.85432453788795,92.47825613818638 255.61730975449103,92.04382349902093 256.2616088932911,91.56594497515009 257.42304193540735,90.43640164926758 263.77277557169094,81.64276103239644 264.40011905069434,80.06987692326348 264.5272831059277,78.80111797408716 264.2136112188858,75.0816181486214 264.2644773130837,68.35476574315167 276.48072023156044,63.40918810306799 279.37158690342415,60.193083546861295 280.65170661346593,53.42142816609687 284.88203647685526,41.24133575000805 278.87140747965407,37.44171345000493 277.3030489296693,35.346186816442774 276.59092921711965,34.77229815480818 271.7163008050638,32.207134311979054 270.5548674678725,31.294088308053706 269.8257923905957,30.554948042564988 268.36764253112267,28.111384380361304 267.27403035782544,25.572080291940296 266.8671048499569,24.928544254508843 264.68835759556237,22.510886148577544 252.1715716752162,10.873150397693783Z" name="Chalatenango" name_en="Chalatenango Department" gn_name="Departamento de Chalatenango" admin="El Salvador" adm0_a3="SLV" iso_3166_2="SV-CH" iso_a2="SV" postal="CH" type="Departamento" type_en="Department" wikidataid="Q522221"/><path d="M467.2089579960588,145.83925959901697 467.16744795353475,146.44115823855506 469.1766426158686,145.6684172413014 477.53557056226055,144.38339225051297 485.8944991648358,144.93908144757518 510.75086620372275,152.85721148045118 525.2051994734943,153.95109895307132 528.3843050515869,155.2793698789802 531.3175598848846,158.15287059842422 531.0632312680175,159.21195822091147 530.9615000837648,160.0279665286329 530.7713141043109,160.19386149267302 530.5037087702842,160.42728697506453 530.4113095121144,160.41504290682911 529.0625141496862,160.23630797907825 529.4219032192797,161.02291565619703 531.0971417721524,164.68946490837268 530.8597688995121,168.60420919574298 529.740723575899,172.69234288215785 529.0625141496862,177.64815280915096 529.9780964485448,180.84192039991413 533.5302175719731,189.65880587661565 533.7506353566027,195.0386920783364 530.8597687870007,199.78482766184356 530.2496453513445,200.331710392449 528.8423612909888,201.63314962310554 530.8685111479651,205.8062839384102 530.4022424536713,209.78833677599522 528.0708983920084,213.13691951190128 524.5611656284601,215.3923598525786 525.2478525889583,220.0505030371774 522.1874337451101,224.72571318345493 519.1863577926067,230.51945951550644 519.2033131573559,230.6148617493487 513.8793708255669,234.19670301982353 510.7765638649456,233.3728073238284 502.5024116748677,232.34943023986307 501.2985902209253,231.94180995721106 500.6542916722477,231.37807660319956 500.2643215291283,230.6495534690976 499.9760823941268,229.84296659377628 499.5691568862583,228.02161002161108 499.09441050958725,227.24968874552314 498.17882789556035,226.77265509327003 495.9068273154197,226.15684343680311 495.1099313693458,225.8099054346816 492.92270672766546,224.50887273122157 489.4299293288333,223.2945564893729 488.6415110651312,222.87821471215946 482.61392729330896,218.4370998410057 481.8678971463745,218.07277811943104 478.2564330796168,217.39617647221567 473.7548194459312,217.16196676102842 471.6015052386521,216.7716156662077 461.12317333723064,216.87570968542795 458.7833515932015,216.66752180879064 457.2319481128908,216.25114467599394 452.5099165080978,212.85064753105962 451.4247817220809,212.9547465284486 450.2463930201625,213.56198833775176 448.60173591902526,215.73066988052395 447.53355649775756,216.8583605913102 446.3890785253154,217.61303654934235 444.4477049018634,217.44822277710287 442.0994054754789,216.84968604278754 439.93761358582793,217.43087411332544 429.73056515960036,221.94143828291334 426.55993703511245,222.94760506318386 424.3048915246295,223.320577662909 420.8968903593271,222.18430747975054 418.9809494879045,221.7419380370784 416.87002310232907,221.6551988888044 415.9459633960913,222.90423632750168 415.3525303514892,223.91906435449792 414.89473904448124,233.54625960138836 403.54321294088646,230.46742199370382 400.593002492453,228.76750397334456 400.2708532181197,227.9262042950827 398.1599271276083,224.72571318345493 394.98929929818985,221.34293630490973 393.6413584242705,219.54740230101393 392.85294016056844,218.07277811943104 392.420581900654,215.8868126568403 392.01365639278544,214.61163782401934 390.3605216092709,211.71422322096757 389.9705514661515,210.30017631475909 389.707745083174,208.79934964093283 388.5378343586969,206.17933895572614 386.9355650792468,204.40948039270526 384.25663869615175,202.596200779829 382.2389662264723,200.45317906434838 375.84684476848514,191.42059766003902 374.29544128817446,188.53966639272818 373.4646349076993,186.4049312493658 373.6341870797058,185.39828733340983 373.89699346268327,184.4784116045145 374.2191427370001,183.68002001758714 374.7108444784148,182.96840321420365 375.23645635913937,182.37827703413572 375.91466563728767,181.85757366104625 380.2721595559268,179.33211161518255 381.52684651392815,178.29933858921706 382.6289366646832,177.12768860114 383.59538478274703,175.6782892981284 383.9853549258884,174.92320222080568 388.8175955162626,167.30248107209087 398.4990317666742,167.03339844892136 407.09533323106893,167.82328362736544 411.56303643035324,166.70355406943372 416.5139633935945,164.82862151096768 436.6906872052352,158.23127160414762 440.5988674992272,156.4169005640993 442.83695764496656,154.71534596224228 445.30394373930403,151.39025989684978 452.1029910002292,148.1258045234721 467.2089579960588,145.83925959901697Z" name="Cabañas" name_en="Cabañas Department" gn_name="Departamento de Cabanas" admin="El Salvador" adm0_a3="SLV" iso_3166_2="SV-CA" iso_a2="SV" postal="CA" type="Departamento" type_en="Department" wikidataid="Q914058"/><path d="M616.738007883802,152.1973985162281 621.6635019633588,152.7183041566758 622.4522008750027,152.89334213950733 630.3869679110784,154.65430426507683 635.6176561996094,154.7758452299654 652.7254833819724,152.7356674599791 661.3726504493279,153.2218423802574 665.1451890292832,156.33849734944616 669.951996508463,168.81252695116478 674.7079387236329,174.49764881071414 680.7524781267643,179.99141929377845 686.1103308878379,186.3612702787744 688.840122696414,194.69161387721834 703.7946353278147,187.24641247788747 708.7031746474854,185.9273734120823 709.4206596186805,186.07232855997057 710.4752607618058,192.66144724630945 711.8995004819526,198.12788945708272 712.5437990306301,207.61081281505173 711.1873804743335,227.99559042685897 711.2721570029491,229.08840981091893 711.5010523613864,229.99040783845925 711.8995004819526,230.7015911705465 713.3830827983857,232.60961209300703 713.8408741054046,233.34678922236907 714.1630233797379,234.14466736055405 714.4173520803436,234.98589960118687 714.7479787419627,237.01522648099692 714.6462477338503,243.42373507637504 713.679799320695,251.21903050753113 711.7045152628472,260.2533132247155 704.1848706070225,279.61887889667065 703.6253482918746,285.9198897689572 701.2177053839899,289.5425252585534 691.0615227569072,300.374769949658 683.9911920207717,299.20495917368703 680.6086236075262,299.43025734859367 667.7565592326048,303.35554177244063 665.3065287981022,303.61548712054264 663.7296922706762,303.3815362855294 663.2464682116388,302.8269829023179 662.7039006711121,301.90849501813113 662.4071844438723,301.23261983580295 661.6272438625256,300.31411335437133 660.550586463811,299.33493910788917 655.6929131214073,296.42333977478654 654.9977490686763,295.90340011215125 654.5060470322086,295.22747335154486 654.1330322537943,294.4822140812826 653.1835395004576,288.4938848695446 652.6748826893853,286.72589739981066 651.462583553071,284.47252234230206 650.0637771750983,282.64377373038013 648.851478038795,281.898395321964 647.6222241278762,281.5083686142897 634.9397119249611,282.52243371742935 633.0576814879673,282.9297897666966 631.4045464093779,283.5624867759413 628.7425753910319,285.1312077588899 626.9707539395698,285.65121871918944 626.4027539420722,285.2612109728596 626.3773208949677,284.6718617667681 626.7588136508067,283.95250326826414 628.7001872742587,281.34369002148435 629.0392919133247,280.53762738620014 629.0901577124641,279.67088362216293 628.5815006063277,278.8041308760599 627.82699307208,278.0587153517047 625.4956490104336,276.56786332705394 624.7580965458545,275.9784487593969 624.2579171220899,275.3196864242816 623.9357678477511,274.53956556788216 623.6899171245922,273.6120788033563 623.5457977046098,272.59789835219897 622.8506330617398,271.3063160694179 621.6552895852386,269.7199812078622 618.5270495775019,267.41410373981665 617.3232281235595,266.2351322330879 616.7382727613183,264.2152360804244 615.6446602929516,262.55940234376146 611.473673911046,258.8228104064038 609.7781510107749,256.8720825317003 608.7608370935661,255.31146492191417 608.2097921657206,246.8835899161106 608.2606576697796,245.9904593168596 608.6167176735892,245.2620729001949 609.1677626014291,244.66375075159692 619.9682440722534,236.91115950923881 621.451826388692,236.10463771175446 623.9696782821579,235.21138325316505 624.732663498761,234.74307080808228 625.3684846601308,234.2053753244405 625.8771414712031,233.57227763597572 626.1314701718088,232.5749212498048 626.122992489437,231.352058436553 625.5719475615915,229.34860260322253 624.6987530643597,228.047629607606 623.9357678477511,227.18897563895962 611.5584498495008,218.7667225185366 609.6933747772287,217.10992026349606 608.5149863703853,215.86078928525762 608.2352252128251,215.01067427779284 608.0063295593128,214.08247743314422 607.853732456986,210.84671305831037 608.1504486842204,208.95550642602407 608.3284788336516,208.33087739043808 608.5319414400594,207.76697200446145 608.9134341958984,207.10763139094584 609.9137927483636,205.85833805256334 610.5072257929821,205.36382104020925 611.2023901407827,204.90400382476687 611.7788681157272,204.33139743981445 612.2705695620505,203.6373233402428 612.6520623178894,202.8998630290248 612.9742115922282,202.04960589856321 613.177674788775,201.11257656782809 613.1268086945605,199.08230787258498 612.0586292732874,196.27975459789292 610.778509268176,193.7634435280214 610.252897387446,192.30568109020896 610.1342107194985,191.177631622029 609.557732744554,188.48760057148164 605.6919405673297,179.4449343995734 603.9104164836291,176.97319376010634 605.2254069913307,174.6538752446686 607.3787212141684,172.27572791076264 611.3038568986191,170.60056507439634 614.2116784437203,171.06926725927258 616.3141270744123,170.58320549250163 617.8824858393899,165.99150843061753 617.2975303815354,165.08876033791924 614.3642755481992,162.3891333564566 613.6860664500834,161.19119785076438 613.3639171530986,154.54144455239341 613.5165142576049,153.41283858291516 616.738007883802,152.1973985162281Z" name="Morazán" name_en="Morazán Department" gn_name="Departamento de Morazan" admin="El Salvador" adm0_a3="SLV" iso_3166_2="SV-MO" iso_a2="SV" postal="MO" type="Departamento" type_en="Department" wikidataid="Q1122836"/><path d="M586.8374598369226,188.40923011024154 589.117938532237,184.2004401943388 592.6700589994216,182.8987056231889 596.6460606041259,182.60364288042413 600.2151364874348,181.3886663020662 602.8092866076288,178.91526138324025 603.9104164836291,176.97319376010634 605.6919405673297,179.4449343995734 609.557732744554,188.48760057148164 610.1342107194985,191.177631622029 610.252897387446,192.30568109020896 610.778509268176,193.7634435280214 612.0586292732874,196.27975459789292 613.1268086945605,199.08230787258498 613.177674788775,201.11257656782809 612.9742115922282,202.04960589856321 612.6520623178894,202.8998630290248 612.2705695620505,203.6373233402428 611.7788681157272,204.33139743981445 611.2023901407827,204.90400382476687 610.5072257929821,205.36382104020925 609.9137927483636,205.85833805256334 608.9134341958984,207.10763139094584 608.5319414400594,207.76697200446145 608.3284788336516,208.33087739043808 608.1504486842204,208.95550642602407 607.853732456986,210.84671305831037 608.0063295593128,214.08247743314422 608.2352252128251,215.01067427779284 608.5149863703853,215.86078928525762 609.6933747772287,217.10992026349606 611.5584498495008,218.7667225185366 623.9357678477511,227.18897563895962 624.6987530643597,228.047629607606 625.5719475615915,229.34860260322253 626.122992489437,231.352058436553 626.1314701718088,232.5749212498048 625.8771414712031,233.57227763597572 625.3684846601308,234.2053753244405 624.732663498761,234.74307080808228 623.9696782821579,235.21138325316505 621.451826388692,236.10463771175446 619.9682440722534,236.91115950923881 609.1677626014291,244.66375075159692 608.6167176735892,245.2620729001949 608.2606576697796,245.9904593168596 608.2097921657206,246.8835899161106 608.7608370935661,255.31146492191417 609.7781510107749,256.8720825317003 611.473673911046,258.8228104064038 615.6446602929516,262.55940234376146 616.7382727613183,264.2152360804244 617.3232281235595,266.2351322330879 618.5270495775019,267.41410373981665 621.6552895852386,269.7199812078622 622.8506330617398,271.3063160694179 623.5457977046098,272.59789835219897 623.6899171245922,273.6120788033563 623.9357678477511,274.53956556788216 624.2579171220899,275.3196864242816 624.7580965458545,275.9784487593969 625.4956490104336,276.56786332705394 627.82699307208,278.0587153517047 628.5815006063277,278.8041308760599 629.0901577124641,279.67088362216293 629.0392919133247,280.53762738620014 628.7001872742587,281.34369002148435 626.7588136508067,283.95250326826414 626.3773208949677,284.6718617667681 626.4027539420722,285.2612109728596 626.9707539395698,285.65121871918944 628.7425753910319,285.1312077588899 631.4045464093779,283.5624867759413 633.0576814879673,282.9297897666966 634.9397119249611,282.52243371742935 647.6222241278762,281.5083686142897 648.851478038795,281.898395321964 650.0637771750983,282.64377373038013 651.462583553071,284.47252234230206 652.6748826893853,286.72589739981066 653.1835395004576,288.4938848695446 654.1330322537943,294.4822140812826 654.5060470322086,295.22747335154486 654.9977490686763,295.90340011215125 655.6929131214073,296.42333977478654 660.550586463811,299.33493910788917 661.6272438625256,300.31411335437133 662.4071844438723,301.23261983580295 662.7039006711121,301.90849501813113 663.2464682116388,302.8269829023179 663.7296922706762,303.3815362855294 665.3065287981022,303.61548712054264 667.7565592326048,303.35554177244063 680.6086236075262,299.43025734859367 683.9911920207717,299.20495917368703 691.0615227569072,300.374769949658 688.9251639143553,303.25156303111396 688.2215218841774,307.48857672253365 688.3995514434862,317.62529247659853 689.6711940613006,322.4506051283872 689.6711940613006,323.53344475489865 689.3405668095206,324.68556978205186 688.1197902859095,326.15818617663757 687.2042079669686,326.94645807749157 686.3140584000627,327.578801801245 684.8898192700549,328.38438364920853 684.2794308607091,328.87812357502605 683.7707737545728,330.22939480312056 683.4994899843094,332.37752299196933 683.6520873817112,340.9781138684528 684.6015804301175,346.8758657307189 684.9237297044562,347.74187171714004 685.3221775299694,348.5472492412769 688.3995514434862,353.4139783689583 688.7810441993253,354.219297897829 689.0608056519604,355.0505874506605 689.196447684635,355.8558904336889 684.9915502781893,379.95927010120346 685.0932818764627,381.34430092558307 685.601938687535,383.3092724793523 685.3730430340283,385.3520993430385 681.0918476665636,399.3215642242482 680.3119070852114,400.1091137817485 678.7859363569357,400.56779253141013 677.6838465012667,400.55048410026353 676.6241444672793,400.3427808288877 673.1737551852258,399.1225120000336 670.3507093821702,397.42622190651304 667.6548279294174,395.4356311754959 666.9681412639721,395.1500207978893 666.1034244491067,398.4388076803192 665.6625885068204,401.0351232830682 663.8568566209791,427.2618772237441 663.8549100471117,427.2894215197592 661.5886604885563,426.8501500953553 659.3457641061202,426.8501500953553 656.9528648779203,427.79484977643784 636.8556527963837,404.53136289331457 635.9824585942214,404.19386127063564 635.04144352324,404.0121287869092 634.0241296060312,403.9602054029603 625.1056788672977,405.34482273868343 624.2918275564912,405.1544392815975 623.681439147151,404.48809348721085 623.6390513254473,402.84384033239274 623.8170811798201,401.7361143219587 624.1392304541424,400.68029829730574 626.5892611837309,396.18859945299045 626.4027539420722,395.2625341437622 625.639768430394,394.2152884726322 623.486454223115,393.055512572007 622.2402449474635,392.0774794923144 621.4772594357909,390.85708577322885 621.400960884633,385.897421567401 621.2992295814291,384.9366133549987 620.9770800120208,383.8805770923481 620.4260350841809,382.8937759043585 619.3493782756108,381.7078674628143 617.9590492849347,381.5260847016968 616.9163026156965,381.6559296592341 613.8389284071047,383.3092724793523 612.1857933285207,384.01041823553237 611.2532556448416,384.1921956634941 610.3037628914994,384.27010019233023 609.4051356422217,384.1056349201539 608.5658518744607,383.81998422578874 607.8791649139405,383.3698657319459 606.6244779559391,382.32246486037326 605.9293139032081,381.8550251936099 605.0985075227329,381.5433972342671 604.1659698390484,381.47414647899575 603.3266857762179,381.5174282833651 602.3687156355788,380.87685585376386 601.0292524440314,379.5956956282318 598.1044750427023,376.15031159315265 596.4343851895302,374.7825049100379 594.9508025780057,373.9341066374418 588.50781532089,373.18958666388306 586.7699040087817,372.73940840594776 584.3113958918855,371.6485810231808 583.5992758842883,371.20705162394086 582.9973654523894,370.7395473378142 580.691454142756,367.80459515603206 577.3936619630348,362.54045904735887 575.6133628292174,358.95579881368167 573.8839294945285,352.92905077880783 573.400705140438,350.36581250301583 573.2057199213326,348.3827100825463 573.2565860155305,346.22635527789475 573.0700781837274,345.1871269742977 572.5783764423127,344.32109316032927 571.2389132507816,343.87941206155756 569.7298981823026,344.42501764390045 569.1364651377005,344.416357200094 568.6956289003612,344.0352997530261 568.3056584621503,342.9614006983839 567.2544347006847,336.78619993696225 567.1781361495104,334.620868765246 566.61861324424,330.1254517271138 566.5931804922105,329.1379849499305 566.6694790433685,328.1245195003677 566.94924049602,327.29294837324403 567.457897307087,326.66926444766335 568.0682854213413,326.4786933207159 568.5430320931039,326.66926444766335 568.9160468714961,326.98976952276087 569.3653604961377,327.52682869189687 569.8994503543036,327.91662768796044 570.5013607862026,327.9772627809085 570.9676297755713,327.45753065722056 571.2728239802524,326.59996566244826 571.416943400213,324.5036564986202 571.3491225314103,322.4506051283872 571.4762865866437,321.43705434739354 571.7475703569235,320.5794241010136 572.179928616816,319.77376278866444 572.6970631102603,319.1586821851622 574.4434518096763,317.5559860685631 574.5112729735483,317.4520263425487 574.9181981863419,316.60301603940843 575.0284074669706,315.86662213836416 574.8927654343124,314.59307800261524 573.5617799251422,310.17449999773015 573.2989738372341,308.4329924197448 573.2904964499319,307.04669005372966 573.9856605026629,304.4213136965966 573.9687054330052,303.61548712054264 573.544824855468,302.37640534702746 569.5773010799647,294.02292277509423 569.3229723793646,293.10433211258254 569.2042857114336,292.1510663291321 569.1364651377005,290.1665034789162 569.2890622400328,289.16986985068786 569.5688233975984,288.30322175036326 569.9248831063385,287.5578964983396 570.4589726694294,286.9338978503152 571.2134807938052,286.53522968513903 572.993779632553,285.94589034865504 573.7313323921961,285.5732172646542 574.2738996376698,284.97520404013574 574.7401686270331,284.2818488507841 575.0707952886743,283.44981501732485 575.1979596389771,282.54843512148483 575.0199297846152,281.34369002148435 574.5960489120087,279.96557772212844 573.6635112283241,277.61666317994496 573.0192126796685,274.78227073432157 573.0361677493262,273.79411005626764 573.2057199213326,272.80593630000067 574.7656010840096,268.4716950742363 574.7910341311141,267.5181296772228 573.6974219577949,266.65991102534775 571.6712718057491,266.0270768045643 563.6768807732533,265.038805199734 561.1335967179024,264.1718900491451 558.2935955501031,262.13460155566054 556.0385500396202,260.0192326738409 553.3002804700942,255.70162232794337 551.2910856827921,253.1785703234651 547.3744274113478,252.94446853703016 533.9713181086083,254.47912249619134 530.1987795521941,248.61779500061454 520.0849850418899,238.51550645867601 519.2033131573559,230.6148617493487 519.1863577926067,230.51945951550644 522.1874337451101,224.72571318345493 525.2478525889583,220.0505030371774 524.5611656284601,215.3923598525786 528.0708983920084,213.13691951190128 530.4022424536713,209.78833677599522 530.8685111479651,205.8062839384102 528.8423612909888,201.63314962310554 530.2496453513445,200.331710392449 530.8597687870007,199.78482766184356 539.6086674792614,199.3510069691276 545.7464605226704,195.62872132819516 551.723178917598,193.11238895500267 564.9397805914931,190.18813422360995 568.0849756654563,190.3616835099879 573.3156642821174,192.42689110302769 575.7148292497005,192.66985339303292 576.1047995549278,191.69800063675137 576.1047995549278,189.71087133070048 576.3421727556981,187.62823473182274 577.3679641109202,186.43069363069222 579.504322917639,186.29184720002044 582.1239059979929,186.74309760221163 584.7350115343056,187.52410163902815 586.8374598369226,188.40923011024154Z" name="San Miguel" name_en="San Miguel Department" gn_name="Departamento de San Miguel" admin="El Salvador" adm0_a3="SLV" iso_3166_2="SV-SM" iso_a2="SV" postal="SM" type="Departamento" type_en="Department" wikidataid="Q930804"/><path d="M753.6175784618752,178.06473858457963 756.7119076156122,180.49477808578519 759.907968609785,189.32905908503298 762.569939738238,193.31196348399905 764.2739401916031,194.34453478273988 768.8603302142615,196.11462425541507 770.8610473326203,197.20789463081232 776.0474265257287,201.65506529196963 785.3408132344105,209.62323554933852 791.1140692608053,211.93950333446912 788.1553814673753,216.8233916018719 781.5343644784284,232.04561239700683 779.8812296172199,237.52661492755144 782.0091105518226,243.08527435279746 780.389886522835,246.69255379530475 777.1005715602874,249.80543228848467 774.2436156072879,253.92395177362656 773.0567496035569,259.84556836253074 773.3280329803266,272.29423761506894 772.582002873963,278.40515008365327 764.7147760889704,297.3502862749336 762.790357522906,306.62185948095333 766.2237917178163,314.28091580795615 769.606360320625,315.49382060762815 776.5580044786344,313.189285524905 781.3309014537124,315.0433151223421 783.8572305656804,317.97155317522254 785.5442762591321,321.9912061593566 786.1292317169922,326.45243560605155 785.3577686505018,330.75749986587255 779.6947220085841,337.175683085503 753.8544821462024,348.94915039435955 753.6275223014266,348.8673249077606 751.0508614220885,347.3671720481591 749.4220912152447,344.61227253220216 746.9255339070296,337.424535413599 737.6869362548158,353.3812499496605 735.2838327301337,362.79012076618073 741.3182924588018,366.96239525880304 745.1766085075582,368.421276340428 756.0706774476189,378.823554395593 762.265344318555,382.9949921958808 762.799367251116,384.95794675690564 762.799367251116,389.0063888295725 760.1159017196463,396.16222650234437 753.5874706799053,401.27314899383026 729.1959708394483,413.49715988005494 722.5874362285733,418.7568663070377 721.4259362518047,424.1116043229793 728.9957120756701,429.3433723350916 717.4207639293955,432 672.202367421813,428.90740435953467 663.8549100471117,427.2894215197592 663.8568566209791,427.2618772237441 665.6625885068204,401.0351232830682 666.1034244491067,398.4388076803192 666.9681412639721,395.1500207978893 667.6548279294174,395.4356311754959 670.3507093821702,397.42622190651304 673.1737551852258,399.1225120000336 676.6241444672793,400.3427808288877 677.6838465012667,400.55048410026353 678.7859363569357,400.56779253141013 680.3119070852114,400.1091137817485 681.0918476665636,399.3215642242482 685.3730430340283,385.3520993430385 685.601938687535,383.3092724793523 685.0932818764627,381.34430092558307 684.9915502781893,379.95927010120346 689.196447684635,355.8558904336889 689.0608056519604,355.0505874506605 688.7810441993253,354.219297897829 688.3995514434862,353.4139783689583 685.3221775299694,348.5472492412769 684.9237297044562,347.74187171714004 684.6015804301175,346.8758657307189 683.6520873817112,340.9781138684528 683.4994899843094,332.37752299196933 683.7707737545728,330.22939480312056 684.2794308607091,328.87812357502605 684.8898192700549,328.38438364920853 686.3140584000627,327.578801801245 687.2042079669686,326.94645807749157 688.1197902859095,326.15818617663757 689.3405668095206,324.68556978205186 689.6711940613006,323.53344475489865 689.6711940613006,322.4506051283872 688.3995514434862,317.62529247659853 688.2215218841774,307.48857672253365 688.9251639143553,303.25156303111396 691.0615227569072,300.374769949658 701.2177053839899,289.5425252585534 703.6253482918746,285.9198897689572 704.1848706070225,279.61887889667065 711.7045152628472,260.2533132247155 713.679799320695,251.21903050753113 714.6462477338503,243.42373507637504 714.7479787419627,237.01522648099692 714.4173520803436,234.98589960118687 714.1630233797379,234.14466736055405 713.8408741054046,233.34678922236907 713.3830827983857,232.60961209300703 711.8995004819526,230.7015911705465 711.5010523613864,229.99040783845925 711.2721570029491,229.08840981091893 711.1873804743335,227.99559042685897 712.5437990306301,207.61081281505173 711.8995004819526,198.12788945708272 710.4752607618058,192.66144724630945 709.4206596186805,186.07232855997057 711.2803693515607,186.44804962676687 716.1210876629781,189.58938577602768 718.3676555260604,190.24019898348996 719.8681936109037,189.48525533973958 724.0900456322344,186.23977942994594 726.6418077043294,185.3633039227715 729.9226444666361,185.56289856685115 736.3401990870282,186.89929911171495 739.5023495770992,186.691030137934 742.6814548270836,184.443427814292 745.3942918757573,181.0068123567364 748.6920840542213,178.27303095975228 753.6175784618752,178.06473858457963Z" name="La Unión" name_en="La Unión Department" gn_name="Departamento de La Union" admin="El Salvador" adm0_a3="SLV" iso_3166_2="SV-UN" iso_a2="SV" postal="UN" type="Departamento" type_en="Department" wikidataid="Q1130688"/><path d="M783.6710136569593,418.6899365800583 783.3776846629186,414.42787182222014 785.7643485505408,412.72791016418586 790.3009527704081,414.2230969604578 793.0969270372681,420.388880997431 793.283517984217,425.49544237418934 794.5312190117224,428.9110874249316 791.748932576008,430.4010681718519 787.5126558025935,428.89748787251773 784.7152090062401,430.1783392579922 784.7422815006664,426.55629775458357 782.995627563268,422.9454776548383 783.6710136569593,418.6899365800583Z" name="La Unión" name_en="La Unión Department" gn_name="Departamento de La Union" admin="El Salvador" adm0_a3="SLV" iso_3166_2="SV-UN" iso_a2="SV" postal="UN" type="Departamento" type_en="Department" wikidataid="Q1130688"/><path d="M770.7146477793361,402.07095581079557 773.2898873133415,403.56244508987015 775.4377884809543,408.4633746820374 773.5083479592743,411.2340546716264 771.3633866010226,413.36549354224104 767.0700250293945,409.5311770080911 765.9942966155684,404.2036562172499 767.9244107341951,402.28488215272233 770.7146477793361,402.07095581079557Z" name="La Unión" name_en="La Unión Department" gn_name="Departamento de La Union" admin="El Salvador" adm0_a3="SLV" iso_3166_2="SV-UN" iso_a2="SV" postal="UN" type="Departamento" type_en="Department" wikidataid="Q1130688"/><path d="M165.8086394251237,313.24631421482906 163.53557243117496,312.8038333047975 142.72942996508513,305.98004654010066 131.7833218058716,308.23883688633083 100.6395113186518,308.62073445887796 95.63648796977408,305.1726236517306 92.32915486319494,292.84857176651025 91.09190328304634,285.15400114107376 86.98586170485305,281.78367857077995 80.226747171183,277.6241880861073 53.63207676281457,262.5825945709413 52.92192647023611,262.25963020407346 53.66356705208385,261.0162374208147 58.87730039829162,252.84042287168117 61.33580881024085,249.91842331290647 62.25986851647859,249.138048932515 63.056764757621956,248.59178200151322 64.03168996791865,248.14089225757303 65.12530243630184,247.7853813576027 67.00733287332856,247.43853996410084 68.32984099519649,247.43853996410084 69.49127433236579,247.56860559232445 70.37294621692187,247.88076269624503 71.16136448062942,248.2449442008641 72.51778274182917,249.18140332023063 73.17055897287852,249.72766611475657 77.46871000013441,254.66119834036442 79.85091986092571,256.92410238970695 80.5036957969001,257.3836113387162 82.52984594894585,257.8084379872933 92.43170046556183,258.3719798483673 95.15301467036058,258.0165153169333 96.79767206657277,257.35760156728503 98.65426945647309,249.892411351886 99.25618047853298,248.27095701407427 103.46107729482331,240.7441930232993 103.73236106510313,239.8943511762193 103.91886830676177,236.80709300172367 104.4444807776308,235.36748677375874 105.40245091826984,233.55493258239724 107.89487005970084,230.6235347562085 108.86979556506702,229.02769814443596 109.31910918970864,227.7007000698591 108.97152686827638,225.83592546136202 106.19934715941321,217.10992026349606 106.377376718711,215.76536857089076 106.98776512805127,213.9436807643024 113.66812572104544,203.81084229973249 113.86311064508138,202.6482570605218 113.56639412277207,201.86740644163584 112.79493151886665,200.32303398671712 112.19302049682322,198.79598313648864 111.65045354642452,196.84374431186538 110.87051296508878,190.56153596526534 110.94681151626317,189.13842291694144 111.2774381778878,186.99502649483378 111.98108020806013,186.03178041096314 112.88818513969322,185.4156432080827 116.88114166724242,184.80817952223137 124.08711443603065,182.82087209440365 129.91123589652017,180.38222775217773 137.5495669252009,182.29149298111915 140.4912993962095,182.19603098341918 142.28855359967906,181.71871861022743 143.28043446979436,181.58854182861174 144.3231814341021,181.58854182861174 145.8491518673138,182.32620673491448 147.756615056359,183.7234111206476 153.0805573881315,188.90412736229297 154.05548318858914,190.24046997321906 155.0897521754501,192.63541543324263 155.81882725272686,193.60725596239394 156.84461855723796,194.74394714958288 158.85381304949257,196.5921188698097 160.31196290896565,198.9521601775509 160.66802261768927,200.68743946905693 160.59172406653133,201.63314962310554 160.32891827369832,202.56149617053404 159.90503740108068,203.3163121604055 159.3963805900138,203.89760208605344 158.1332159496406,204.93003119063513 157.57369304437577,205.580714899304 157.19220087867572,206.32682531148055 157.04808116362926,207.1683599619082 157.4719620362359,207.8884286649487 158.5316637751538,208.54776291080447 160.57476899685722,208.9294801158121 162.0753066780394,210.4650050289505 162.85524725939163,211.57542229797718 163.23674001522517,212.61642404773175 163.6436655230937,213.39716592924188 164.20318813328902,214.01307943182283 164.923785528194,214.58561372124868 165.9834872671064,215.01067427779284 167.53489074741705,215.3229624233706 169.8916675611039,214.767782860526 171.0785339453941,214.16922507364552 171.81608640996774,213.4058408651609 172.02802669873083,212.5903989711143 172.0195493114285,209.58013010614306 172.45190757133747,207.7322697212646 173.50313192293106,205.37249657677233 174.37632612511536,203.94098179160684 174.94432612261852,203.3163121604055 175.58014728398825,202.8478066162248 176.4702968508942,202.62222892456907 178.69990960935317,203.6026195014907 181.87053773384105,205.49395730805543 188.8052267323714,210.63850863802062 193.16272094608004,214.6983851725777 195.1464823912137,219.60812170073842 195.5957963109248,220.30205202774985 196.12140819165487,220.95260630362992 200.3093502333735,222.3664587264703 215.94207229456646,225.34153621469562 219.68917780386533,226.51245365422182 220.48607345485323,226.90275563611553 221.16428302807105,227.39713492223643 221.73228302556873,227.9262042950827 222.1646412854832,228.62006070509662 222.4952685372468,229.44400627748848 222.65634302688144,230.38069200877518 222.19007433257667,231.61224333269814 221.29992476567074,232.9391744810134 218.9431476569144,235.01191715323253 216.87460968315955,236.4948914351048 212.03389170550497,239.28731568173987 210.2535925716876,240.95231595600208 206.3708450297196,245.67829463088862 205.04833690782968,246.72750952103004 203.75973951542704,247.29113152661273 201.46230559309598,247.4992369422658 200.73323081089418,247.70734210336676 199.38528993699128,248.4877311253566 198.7325137059419,249.08602387681833 198.01191631104243,250.32594933956582 197.28284152884063,252.14678326252556 196.3163934107548,256.14379816025445 195.79925891733257,260.0192326738409 196.22313978992273,267.41410373981665 196.13836385146797,268.5237072057466 195.25669167185887,270.15340906939906 193.62898964037382,272.3465183519396 186.49083803545767,279.46286390975655 185.81262846224533,279.93090793876075 185.1513748439101,280.58963150213685 184.40534469696468,281.65571219818077 183.62540411562895,283.3024751059412 183.0150157062887,286.1018924393679 182.5826574463907,290.14050429684767 181.69250758440978,291.4924394964692 180.24283540728652,293.15632820521716 171.94325076027056,300.39210018142643 170.18838437848268,303.2255684751341 166.7125620493137,311.13621140535156 165.8086394251237,313.24631421482906Z" name="Sonsonate" name_en="Sonsonate Department" gn_name="Departamento de Sonsonate" admin="El Salvador" adm0_a3="SLV" iso_3166_2="SV-SO" iso_a2="SV" postal="SO" type="Departamento" type_en="Department" wikidataid="Q212540"/><path d="M321.23436794126053,346.3026656095003 305.55553485641275,336.71527385117963 283.2600751247335,326.90771644991594 259.1756383720616,321.2054072978748 247.9745063441937,321.2054072978748 239.44348897921333,319.19995177178237 192.8305896357037,319.579950602279 172.90702453064992,314.62808766076927 165.8086394251237,313.24631421482906 166.7125620493137,311.13621140535156 170.18838437848268,303.2255684751341 171.94325076027056,300.39210018142643 180.24283540728652,293.15632820521716 181.69250758440978,291.4924394964692 182.5826574463907,290.14050429684767 183.0150157062887,286.1018924393679 183.62540411562895,283.3024751059412 184.40534469696468,281.65571219818077 185.1513748439101,280.58963150213685 185.81262846224533,279.93090793876075 186.49083803545767,279.46286390975655 193.62898964037382,272.3465183519396 195.25669167185887,270.15340906939906 196.13836385146797,268.5237072057466 196.22313978992273,267.41410373981665 195.79925891733257,260.0192326738409 196.3163934107548,256.14379816025445 197.28284152884063,252.14678326252556 198.01191631104243,250.32594933956582 198.7325137059419,249.08602387681833 199.38528993699128,248.4877311253566 200.73323081089418,247.70734210336676 201.46230559309598,247.4992369422658 203.75973951542704,247.29113152661273 205.04833690782968,246.72750952103004 206.3708450297196,245.67829463088862 210.2535925716876,240.95231595600208 212.03389170550497,239.28731568173987 216.87460968315955,236.4948914351048 218.9431476569144,235.01191715323253 221.29992476567074,232.9391744810134 222.19007433257667,231.61224333269814 222.65634302688144,230.38069200877518 222.4952685372468,229.44400627748848 222.1646412854832,228.62006070509662 221.73228302556873,227.9262042950827 221.16428302807105,227.39713492223643 220.48607345485323,226.90275563611553 219.68917780386533,226.51245365422182 215.94207229456646,225.34153621469562 217.45956504541184,215.9909078671661 223.21586563709326,200.3577389998619 223.82625404641706,193.21678566144456 223.5549702761592,187.15990538093473 223.9873288311212,178.16047709965628 224.38577665663436,176.2858252534993 224.89443346770676,175.6435728383056 225.58959811058224,175.18357788393573 226.37801607920935,174.97527724292502 227.25968796374346,175.04471105420916 228.08201666185232,175.30508600254356 228.9975989808042,175.17489863892175 230.07425608444925,174.48056159391191 232.69383928109713,170.2883662976608 233.38900333382816,169.92381689117644 234.29610856055268,169.82833949394916 235.38124305149455,169.85437904310064 236.60201957509463,169.7762609733463 238.2805874057081,169.03847500417643 239.01813987028171,168.1357633991717 239.3741995790218,167.08547943979926 239.88285668515817,160.64457869793063 239.79808045162844,159.6028728683915 240.3660804491316,154.75007192079417 243.918201329464,136.16072692235184 245.34244045946633,133.86821851183456 246.3936648110819,131.57564094989482 249.12345699329998,130.53353758976937 252.9977268528962,129.7866877305156 255.99032512302776,128.14532946557895 259.20334106922473,125.73099219352979 262.594386869778,126.40840391516664 268.5117622461691,129.76063449553547 273.8696147172679,130.53353758976937 274.93779443362706,130.85485420617024 278.05755646390054,132.28773673104814 277.6845416855083,143.6109015223421 275.92967530372044,150.82593558476384 275.82794370544707,152.64043982765966 276.08227240605277,153.8385095932076 278.05755646390054,155.3751367755573 278.8459747276081,156.53843879224198 279.79546777603076,158.30072060989494 281.43164719480166,162.1029436717017 282.40657299523735,163.91717971955342 283.3052002445151,165.11507266136437 284.68705125777177,166.00914021793577 286.2384550331519,166.75563468053528 288.9004260514979,167.5542025331049 289.8838295343109,167.61496297008273 292.91033794376875,167.3719218391062 293.9446069306407,167.4066420479309 294.91953273109283,167.53684261520198 295.8520704147554,167.76252365787786 296.7422199816614,168.08368342507356 297.80192172057923,168.68259962833682 298.9972654921443,169.672103221634 300.7521318739322,170.60083600895396 301.2607886850046,171.2865288283945 301.38795274023795,171.85070180431194 300.523236220431,174.0552765531299 300.0908776654635,175.9386623967501 299.9637136102302,176.35525787789763 299.69242983995036,176.5722332533509 297.2423991103565,176.502801127501 296.3946376602236,176.7371345268404 295.78424925087785,177.32730439349558 295.4451449068869,178.4208420730951 293.8004875106747,197.15610599404462 293.3257411340091,199.0562782303722 292.96120344782776,199.81980470799317 292.2914718520512,200.27965194334178 290.6044266341409,200.90434618010863 289.8838295343109,201.34683496836772 289.20561996108756,201.85873051075285 288.2137390909997,203.11676381715577 287.55248517757855,204.73048702258131 287.15403735208184,206.32682531148055 286.54364923781105,212.1826749478518 285.85696227731285,214.7764576426284 284.78878285602315,217.2400367435498 284.18687242411875,220.3367483656674 283.7969019859298,225.70582342922248 283.5171405332782,227.13693588173814 283.2712898101193,227.9782441261491 281.0077663221895,232.22801166262934 279.57504980490137,236.41684084732478 279.6767811080833,237.76103398763212 280.2702141527019,238.4634742970453 281.1094979204629,238.6889475506116 282.1691996593753,238.7756679514071 283.8138570555875,240.90028542597366 283.4917077812487,244.24752389466175 283.72060343475545,247.43853996410084 284.0766631434955,248.27962805045985 284.5259767681371,248.981973057592 285.06854401360533,249.6322870386604 286.33170865397847,250.56005869255299 286.9505747456741,251.37510189946502 287.3490225711873,252.5022745561326 287.9509332981612,255.1293905964243 288.44263474448445,256.585971485345 289.0699782235044,257.56568009947443 289.782097936032,258.08587430346074 294.50412954085255,260.6000979020541 295.07212983342515,260.98155923746157 296.47941389375336,262.2386345230436 298.67511621780557,265.1428342989498 298.9972654921443,266.4258496752319 298.895534188946,267.45744797266167 297.8188770853009,269.45992327762093 297.0558918686978,271.29764759106865 297.08980230309913,272.33784968713036 297.80192172057923,273.09198795240707 300.31977331897025,274.28819180361324 300.7097437571591,275.0943190423268 300.548668972455,275.83976277774286 300.0145791142891,276.4985207379577 299.3533252008844,277.0185889614495 298.895534188946,278.93414427845215 298.6412054883403,282.07173973505706 299.25159389768055,295.93806284315394 299.0989967953537,296.9952695547559 297.047413891273,302.2897551272334 296.30986172176887,305.17514330969493 296.19117505381587,306.7607623319688 296.3861602729268,308.0084399017691 301.6422814408382,316.46440136903794 303.49887912581346,320.44947886510516 303.9821028897814,321.0818751143854 304.7111779670582,321.48903145639713 305.6691484027722,321.6103117471021 306.70341768472457,321.5583344162907 308.54306000496723,321.1251897698063 311.97649392229914,319.98167599631194 313.9263455231705,319.74777337312725 315.147122046787,319.9123716545191 315.9779281321982,320.14627379072004 318.3940484273853,321.22914466515306 319.53852639982745,326.6865889083623 320.5304072699208,328.08120867573757 321.31882553364477,328.04656005928916 322.69219915957166,328.1245195003677 324.50640902286534,328.5403017895422 327.73638003873094,329.8482695244687 328.7960820726964,331.00030267416616 329.0588881606044,331.9444372296283 328.2196040977519,333.3995956968978 326.6427678654173,335.3311039108091 326.21888699279964,336.01534892106264 325.7102298866632,336.65628189004195 323.1499904665851,341.17731095001847 322.2344081476497,343.17791396711834 321.2425269824704,346.2783161405594 321.23436794126053,346.3026656095003Z" name="La Libertad" name_en="La Libertad Department" gn_name="Departamento de La Libertad" admin="El Salvador" adm0_a3="SLV" iso_3166_2="SV-LI" iso_a2="SV" postal="LI" type="Departamento" type_en="Department" wikidataid="Q930820"/><path d="M421.0295276978063,396.0189023925274 344.4991612500333,360.52663888753324 321.23436794126053,346.3026656095003 321.2425269824704,346.2783161405594 322.2344081476497,343.17791396711834 323.1499904665851,341.17731095001847 325.7102298866632,336.65628189004195 326.21888699279964,336.01534892106264 326.6427678654173,335.3311039108091 328.2196040977519,333.3995956968978 329.0588881606044,331.9444372296283 328.7960820726964,331.00030267416616 327.73638003873094,329.8482695244687 324.50640902286534,328.5403017895422 322.69219915957166,328.1245195003677 321.31882553364477,328.04656005928916 320.5304072699208,328.08120867573757 319.53852639982745,326.6865889083623 318.3940484273853,321.22914466515306 319.10616813991845,318.40498583078073 320.0810939403706,317.7725687687572 322.4293933667551,315.1648762507691 324.10796060722413,311.604066966411 326.89709597587847,303.2948874730867 327.63464844045757,299.67288557030065 327.8126785898889,297.31589516006846 327.1768577235831,295.66942605207726 324.6590058301227,291.2411200625483 323.7010353944306,288.5458843153103 323.0991246674402,285.63388523690514 323.24324408741717,284.0911751975007 323.70951278171646,283.0337950926383 324.4385878589878,282.62643958360684 325.3287371308242,282.4617636405492 326.3714840951374,282.4617636405492 327.38032032999087,282.59177097687177 332.6194861331641,284.3078499732706 333.6283223680066,284.4638553206193 334.6286812155577,284.51585683303387 336.2987710687244,283.2418053308063 346.1667148558696,270.76020428189133 358.0268980656008,259.62042739003965 372.4727537425145,264.8914303299816 378.15275578302703,267.9255634921503 384.3498923169783,269.9020212143454 385.46893783246594,269.8500096978423 386.9355650792468,269.63329522663395 387.5798639229939,269.44258591073105 388.29198363552155,269.10450920340065 388.8006404465885,268.4803635640623 389.52971522879574,266.867964769155 390.0553274046118,266.24380127267347 390.76744711713945,265.83635869095355 391.65759668404536,265.567619028812 395.76923958445064,265.07348158153246 397.58344944773876,264.44930405264523 399.86392771025123,263.09690174351914 402.32243641728644,269.68530658552197 402.43264510777067,275.1983350697535 402.06810771668074,280.8756544281024 402.4241674254153,283.16380148071795 403.04303351711644,284.50719011779574 404.0603471392557,284.61986035777153 405.1115714908658,284.59385933866736 406.1373627953769,284.4638553206193 413.97915672554035,282.0197366022081 415.32709730437375,281.9503985353021 416.81915759825364,282.2017477179796 419.4048300654472,283.16380148071795 420.278024562701,284.2558483229974 428.3656692160288,301.49257219074434 428.6030425518854,302.4283950108975 428.74716167679287,303.40753079004287 428.67934110305976,305.5563882133918 428.27241530012725,307.48857672253365 425.7545637017308,314.3331685311778 425.576533847369,315.13022167348754 425.2967723947393,315.90993965217496 425.06787674123257,316.98420543040487 425.01701123715713,317.50400607188743 425.01701123715713,317.6079660310657 423.7029810927305,324.9454452189256 423.6521152935801,326.4700309173534 424.1268616702457,332.2995677353984 424.5592199301602,334.20511837498145 425.0339666019008,335.59094443359135 427.1788031268081,337.96411544325565 429.1540874797309,339.51443341160086 432.0195213995596,341.2552574849953 434.2830442973449,343.4117471524105 436.46179155172297,346.1830543321029 437.19934401630206,347.8977518354807 437.51301590333304,349.31797867598885 437.4112843050652,350.35715300753947 436.97044836279537,352.2709298461267 436.6906872052352,353.0849207372429 436.25832865024574,353.8036503200288 434.2745666149731,355.3536592039249 433.7319993694994,355.93382258735926 433.31659647433406,356.65252646658263 433.0368350216989,357.51842641461036 432.89271560172193,358.50554030249026 432.8418500976629,359.5878884575958 434.32543241410156,373.276158906675 434.23217879326944,375.1720722608329 433.8082979206738,375.92523080939975 433.2996408145374,376.54852924167085 432.63838690111623,377.16316593113004 431.95170023568204,377.6306329805835 428.92519182622414,379.1368964262111 426.509071531037,380.0977741708593 425.0424442842781,380.92879416236235 423.77927964388294,381.9675571809404 423.2451897857116,382.60812089143514 422.78739847872015,383.3006162536267 422.38895065320696,384.1056349201539 422.075278766176,384.9452694040879 421.8294280430116,385.897421567401 421.0325323920017,395.98088491602675 421.0295276978063,396.0189023925274Z" name="La Paz" name_en="La Paz Department" gn_name="Departamento de La Paz" admin="El Salvador" adm0_a3="SLV" iso_3166_2="SV-PA" iso_a2="SV" postal="PA" type="Departamento" type_en="Department" wikidataid="Q1129788"/><path d="M425.9243161296523,398.28840963586396 421.0295276978063,396.0189023925274 421.0325323920017,395.98088491602675 421.8294280430116,385.897421567401 422.075278766176,384.9452694040879 422.38895065320696,384.1056349201539 422.78739847872015,383.3006162536267 423.2451897857116,382.60812089143514 423.77927964388294,381.9675571809404 425.0424442842781,380.92879416236235 426.509071531037,380.0977741708593 428.92519182622414,379.1368964262111 431.95170023568204,377.6306329805835 432.63838690111623,377.16316593113004 433.2996408145374,376.54852924167085 433.8082979206738,375.92523080939975 434.23217879326944,375.1720722608329 434.32543241410156,373.276158906675 432.8418500976629,359.5878884575958 432.89271560172193,358.50554030249026 433.0368350216989,357.51842641461036 433.31659647433406,356.65252646658263 433.7319993694994,355.93382258735926 434.2745666149731,355.3536592039249 436.25832865024574,353.8036503200288 436.6906872052352,353.0849207372429 436.97044836279537,352.2709298461267 437.4112843050652,350.35715300753947 437.51301590333304,349.31797867598885 437.19934401630206,347.8977518354807 436.46179155172297,346.1830543321029 434.2830442973449,343.4117471524105 432.0195213995596,341.2552574849953 429.1540874797309,339.51443341160086 427.1788031268081,337.96411544325565 425.0339666019008,335.59094443359135 424.5592199301602,334.20511837498145 424.1268616702457,332.2995677353984 423.6521152935801,326.4700309173534 423.7029810927305,324.9454452189256 425.01701123715713,317.6079660310657 425.01701123715713,317.50400607188743 425.06787674123257,316.98420543040487 425.2967723947393,315.90993965217496 425.576533847369,315.13022167348754 425.7545637017308,314.3331685311778 428.27241530012725,307.48857672253365 428.67934110305976,305.5563882133918 428.74716167679287,303.40753079004287 428.6030425518854,302.4283950108975 428.3656692160288,301.49257219074434 420.278024562701,284.2558483229974 419.4048300654472,283.16380148071795 416.81915759825364,282.2017477179796 415.32709730437375,281.9503985353021 413.97915672554035,282.0197366022081 406.1373627953769,284.4638553206193 405.1115714908658,284.59385933866736 404.0603471392557,284.61986035777153 403.04303351711644,284.50719011779574 402.4241674254153,283.16380148071795 402.06810771668074,280.8756544281024 402.43264510777067,275.1983350697535 402.32243641728644,269.68530658552197 399.86392771025123,263.09690174351914 406.2560494633134,256.8200620354447 406.9936022229565,255.70162232794337 407.7820201915891,254.16699183310413 408.9095427992876,249.46754125123064 414.89473904448124,233.54625960138836 415.3525303514892,223.91906435449792 415.9459633960913,222.90423632750168 416.87002310232907,221.6551988888044 418.9809494879045,221.7419380370784 420.8968903593271,222.18430747975054 424.3048915246295,223.320577662909 426.55993703511245,222.94760506318386 429.73056515960036,221.94143828291334 439.93761358582793,217.43087411332544 442.0994054754789,216.84968604278754 444.4477049018634,217.44822277710287 446.3890785253154,217.61303654934235 447.53355649775756,216.8583605913102 448.60173591902526,215.73066988052395 450.2463930201625,213.56198833775176 451.4247817220809,212.9547465284486 452.5099165080978,212.85064753105962 457.2319481128908,216.25114467599394 458.7833515932015,216.66752180879064 461.12317333723064,216.87570968542795 471.6015052386521,216.7716156662077 473.7548194459312,217.16196676102842 478.2564330796168,217.39617647221567 481.8678971463745,218.07277811943104 482.61392729330896,218.4370998410057 488.6415110651312,222.87821471215946 489.4299293288333,223.2945564893729 492.92270672766546,224.50887273122157 495.1099313693458,225.8099054346816 495.9068273154197,226.15684343680311 498.17882789556035,226.77265509327003 499.09441050958725,227.24968874552314 499.5691568862583,228.02161002161108 499.9760823941268,229.84296659377628 500.2643215291283,230.6495534690976 500.6542916722477,231.37807660319956 501.2985902209253,231.94180995721106 502.5024116748677,232.34943023986307 510.7765638649456,233.3728073238284 513.8793708255669,234.19670301982353 519.2033131573559,230.6148617493487 520.0849850418899,238.51550645867601 530.1987795521941,248.61779500061454 533.9713181086083,254.47912249619134 513.3622366271921,269.44258591073105 511.48868357747324,275.3543585501157 506.6394876223719,282.02840359228793 500.0099928285226,286.19722673012285 492.7955423773626,284.5418578779704 483.35147946280756,296.1980329895359 482.91912120291505,298.2864293327014 477.5273580023235,299.1789632817158 475.6453275653188,301.83050969304367 474.8738646663439,312.01993614715633 472.110162344794,321.93083701137624 457.15564956173836,350.2965347042776 455.7653205710404,353.8382877010108 454.9684249200525,358.0899147811246 454.55302172981766,368.4799035831268 453.73917041899466,370.7568622038721 447.9913478047545,376.30613621806395 444.9224512785345,380.82491721019744 442.9471666305422,384.5211255153865 439.86979271702535,387.0226775959928 433.42680545990976,387.94883823241423 429.53557994050044,389.4029753252378 427.05163877650523,392.78720384012155 425.7545637017308,397.512767988922 425.7630413841081,398.1791715410759 425.9243161296523,398.28840963586396Z" name="San Vicente" name_en="San Vicente Department" gn_name="Departamento de San Vicente" admin="El Salvador" adm0_a3="SLV" iso_3166_2="SV-SV" iso_a2="SV" postal="SV" type="Departamento" type_en="Department" wikidataid="Q1130180"/><path d="M656.9528648779203,427.79484977643784 653.8586778505202,429.01639657347965 625.5287583901782,431.4005632573314 595.1428504425356,426.7820280303716 587.2526606622644,429.3433723350916 583.0472295760826,427.91284434081945 578.2810744763311,426.8501500953553 578.2810744763311,424.76559382319635 585.6906434860421,424.27510211002846 586.2113158781235,419.1247604825549 582.2461951772191,412.7476918480991 576.2651376105791,408.5505427080629 577.5601433204989,411.15334603982086 581.4718618593806,416.59034462023396 582.9938274140763,419.98317337625303 571.1385169329006,419.58803198614913 565.3310170489918,420.1875562458274 560.3779537259747,422.27223052160605 563.5420400280157,423.6347335268967 566.1053503668521,423.2532349325199 569.1893330977537,422.36760624488613 573.8219824643703,422.27223052160605 573.8219824643703,424.76559382319635 566.1854539379807,427.91284434081945 557.7612412251319,427.66760839406055 551.1927585638863,423.6211086439673 549.1634711576107,415.4048648553085 552.394310162176,416.84924019585105 553.6492642505747,417.6940517229345 558.1350573435441,413.1156134065075 558.1350573435441,411.04432973061836 552.5278158953053,408.5096600803276 546.3598504334914,399.8693812013271 542.2345229184546,397.3071014587069 543.3426204051196,402.1590092896656 545.1983504567228,406.1248177470031 546.1595916697406,409.6543594561043 544.6776780646469,413.1156134065075 539.9115229648954,410.4174833441215 526.0402756179677,406.94248620423804 520.0458678389069,403.76716129205164 514.6255342858256,394.1177664013633 512.1022758966129,392.550312185681 508.2573103883581,392.236817404227 497.4433446913233,390.0559515682512 492.61043688903106,390.0559515682512 479.3132644242882,392.550312185681 460.76931608923366,393.0409966453383 456.7240921453088,394.84014836174094 458.9269369062348,396.5983711217792 461.33004043091694,397.87953265610054 463.73314362750193,398.2747804701956 465.88258622641064,397.3071014587069 475.14788495962756,399.47414122303235 501.4885689633343,396.6392597992694 504.4256954205994,397.1026605663444 508.65782758778437,399.39236739986933 510.9541264603239,401.5457223795326 515.0394023538561,406.50639730374746 517.8029711283737,408.5505427080629 517.8029711283737,411.04432973061836 511.66170674755733,410.00866794551087 507.189264195095,409.1637759518084 497.4433446913233,406.2610963436752 497.4433446913233,408.5505427080629 524.3314021680926,414.05584954419044 538.3762068696982,418.60698308889783 544.6776780646469,424.76559382319635 542.3813791921074,428.7711639694819 536.5071262775771,427.7902264602984 529.9653446973455,424.37047580603445 525.6531089590376,421.1277100519975 520.8068506162438,418.6751117066818 436.08410370147095,402.9903460471945 425.9243161296523,398.28840963586396 425.7630413841081,398.1791715410759 425.7545637017308,397.512767988922 427.05163877650523,392.78720384012155 429.53557994050044,389.4029753252378 433.42680545990976,387.94883823241423 439.86979271702535,387.0226775959928 442.9471666305422,384.5211255153865 444.9224512785345,380.82491721019744 447.9913478047545,376.30613621806395 453.73917041899466,370.7568622038721 454.55302172981766,368.4799035831268 454.9684249200525,358.0899147811246 455.7653205710404,353.8382877010108 457.15564956173836,350.2965347042776 472.110162344794,321.93083701137624 474.8738646663439,312.01993614715633 475.6453275653188,301.83050969304367 477.5273580023235,299.1789632817158 482.91912120291505,298.2864293327014 483.35147946280756,296.1980329895359 492.7955423773626,284.5418578779704 500.0099928285226,286.19722673012285 506.6394876223719,282.02840359228793 511.48868357747324,275.3543585501157 513.3622366271921,269.44258591073105 533.9713181086083,254.47912249619134 547.3744274113478,252.94446853703016 551.2910856827921,253.1785703234651 553.3002804700942,255.70162232794337 556.0385500396202,260.0192326738409 558.2935955501031,262.13460155566054 561.1335967179024,264.1718900491451 563.6768807732533,265.038805199734 571.6712718057491,266.0270768045643 573.6974219577949,266.65991102534775 574.7910341311141,267.5181296772228 574.7656010840096,268.4716950742363 573.2057199213326,272.80593630000067 573.0361677493262,273.79411005626764 573.0192126796685,274.78227073432157 573.6635112283241,277.61666317994496 574.5960489120087,279.96557772212844 575.0199297846152,281.34369002148435 575.1979596389771,282.54843512148483 575.0707952886743,283.44981501732485 574.7401686270331,284.2818488507841 574.2738996376698,284.97520404013574 573.7313323921961,285.5732172646542 572.993779632553,285.94589034865504 571.2134807938052,286.53522968513903 570.4589726694294,286.9338978503152 569.9248831063385,287.5578964983396 569.5688233975984,288.30322175036326 569.2890622400328,289.16986985068786 569.1364651377005,290.1665034789162 569.2042857114336,292.1510663291321 569.3229723793646,293.10433211258254 569.5773010799647,294.02292277509423 573.544824855468,302.37640534702746 573.9687054330052,303.61548712054264 573.9856605026629,304.4213136965966 573.2904964499319,307.04669005372966 573.2989738372341,308.4329924197448 573.5617799251422,310.17449999773015 574.8927654343124,314.59307800261524 575.0284074669706,315.86662213836416 574.9181981863419,316.60301603940843 574.5112729735483,317.4520263425487 574.4434518096763,317.5559860685631 572.6970631102603,319.1586821851622 572.179928616816,319.77376278866444 571.7475703569235,320.5794241010136 571.4762865866437,321.43705434739354 571.3491225314103,322.4506051283872 571.416943400213,324.5036564986202 571.2728239802524,326.59996566244826 570.9676297755713,327.45753065722056 570.5013607862026,327.9772627809085 569.8994503543036,327.91662768796044 569.3653604961377,327.52682869189687 568.9160468714961,326.98976952276087 568.5430320931039,326.66926444766335 568.0682854213413,326.4786933207159 567.457897307087,326.66926444766335 566.94924049602,327.29294837324403 566.6694790433685,328.1245195003677 566.5931804922105,329.1379849499305 566.61861324424,330.1254517271138 567.1781361495104,334.620868765246 567.2544347006847,336.78619993696225 568.3056584621503,342.9614006983839 568.6956289003612,344.0352997530261 569.1364651377005,344.416357200094 569.7298981823026,344.42501764390045 571.2389132507816,343.87941206155756 572.5783764423127,344.32109316032927 573.0700781837274,345.1871269742977 573.2565860155305,346.22635527789475 573.2057199213326,348.3827100825463 573.400705140438,350.36581250301583 573.8839294945285,352.92905077880783 575.6133628292174,358.95579881368167 577.3936619630348,362.54045904735887 580.691454142756,367.80459515603206 582.9973654523894,370.7395473378142 583.5992758842883,371.20705162394086 584.3113958918855,371.6485810231808 586.7699040087817,372.73940840594776 588.50781532089,373.18958666388306 594.9508025780057,373.9341066374418 596.4343851895302,374.7825049100379 598.1044750427023,376.15031159315265 601.0292524440314,379.5956956282318 602.3687156355788,380.87685585376386 603.3266857762179,381.5174282833651 604.1659698390484,381.47414647899575 605.0985075227329,381.5433972342671 605.9293139032081,381.8550251936099 606.6244779559391,382.32246486037326 607.8791649139405,383.3698657319459 608.5658518744607,383.81998422578874 609.4051356422217,384.1056349201539 610.3037628914994,384.27010019233023 611.2532556448416,384.1921956634941 612.1857933285207,384.01041823553237 613.8389284071047,383.3092724793523 616.9163026156965,381.6559296592341 617.9590492849347,381.5260847016968 619.3493782756108,381.7078674628143 620.4260350841809,382.8937759043585 620.9770800120208,383.8805770923481 621.2992295814291,384.9366133549987 621.400960884633,385.897421567401 621.4772594357909,390.85708577322885 622.2402449474635,392.0774794923144 623.486454223115,393.055512572007 625.639768430394,394.2152884726322 626.4027539420722,395.2625341437622 626.5892611837309,396.18859945299045 624.1392304541424,400.68029829730574 623.8170811798201,401.7361143219587 623.6390513254473,402.84384033239274 623.681439147151,404.48809348721085 624.2918275564912,405.1544392815975 625.1056788672977,405.34482273868343 634.0241296060312,403.9602054029603 635.04144352324,404.0121287869092 635.9824585942214,404.19386127063564 636.8556527963837,404.53136289331457 656.9528648779203,427.79484977643784Z" name="Usulután" name_en="Usulután Department" gn_name="Departamento de Usulutan" admin="El Salvador" adm0_a3="SLV" iso_3166_2="SV-US" iso_a2="SV" postal="US" type="Departamento" type_en="Department" wikidataid="Q1122748"/><path d="M388.8175955162626,167.30248107209087 383.9853549258884,174.92320222080568 383.59538478274703,175.6782892981284 382.6289366646832,177.12768860114 381.52684651392815,178.29933858921706 380.2721595559268,179.33211161518255 375.91466563728767,181.85757366104625 375.23645635913937,182.37827703413572 374.7108444784148,182.96840321420365 374.2191427370001,183.68002001758714 373.89699346268327,184.4784116045145 373.6341870797058,185.39828733340983 373.4646349076993,186.4049312493658 374.29544128817446,188.53966639272818 375.84684476848514,191.42059766003902 382.2389662264723,200.45317906434838 384.25663869615175,202.596200779829 386.9355650792468,204.40948039270526 388.5378343586969,206.17933895572614 389.707745083174,208.79934964093283 389.9705514661515,210.30017631475909 390.3605216092709,211.71422322096757 392.01365639278544,214.61163782401934 392.420581900654,215.8868126568403 392.85294016056844,218.07277811943104 393.6413584242705,219.54740230101393 394.98929929818985,221.34293630490973 398.1599271276083,224.72571318345493 400.2708532181197,227.9262042950827 400.593002492453,228.76750397334456 403.54321294088646,230.46742199370382 414.89473904448124,233.54625960138836 408.9095427992876,249.46754125123064 407.7820201915891,254.16699183310413 406.9936022229565,255.70162232794337 406.2560494633134,256.8200620354447 399.86392771025123,263.09690174351914 397.58344944773876,264.44930405264523 395.76923958445064,265.07348158153246 391.65759668404536,265.567619028812 390.76744711713945,265.83635869095355 390.0553274046118,266.24380127267347 389.52971522879574,266.867964769155 388.8006404465885,268.4803635640623 388.29198363552155,269.10450920340065 387.5798639229939,269.44258591073105 386.9355650792468,269.63329522663395 385.46893783246594,269.8500096978423 384.3498923169783,269.9020212143454 378.15275578302703,267.9255634921503 372.4727537425145,264.8914303299816 358.0268980656008,259.62042739003965 357.7471369080406,249.50222485800563 357.0265398082106,247.83740758424298 356.45006183326615,246.0424864415494 354.84779255381056,244.07409550604004 349.14235776126856,233.24271793671093 348.6591337022311,231.6382620158083 349.21865631242645,224.4047895815543 348.9134621077673,222.93025763219663 348.32850674552054,222.00215580450285 347.4892229777595,221.70724232904652 346.24301340704403,220.8571921716549 344.86963978109515,219.45198643651926 340.71560846886376,213.4058408651609 340.0713096251167,212.91137188777526 339.25745890445467,212.5730492171226 338.29948817367665,212.38219985434955 336.1885620831487,212.27809978362933 333.9080835255668,210.43030426035708 330.9070081632243,207.0035242090905 322.1581095964753,193.3209114701034 321.2679597344944,190.7697943275926 321.84443770943886,190.19708254969106 324.2181698878583,189.155778249037 325.07440902036296,188.55702155797394 325.7102298866632,187.85412773791336 326.2867078616077,186.6045226177422 325.9899913392984,185.8495430294568 323.96384148232215,183.30685594190362 317.1478391517393,172.1544858572465 314.02807653130486,165.7660936846381 313.3668229129751,163.24010147038828 312.9938078395079,160.35811110098746 313.22270349299816,159.845938691078 313.70592725697156,159.36848731119687 314.3163156663118,158.88235125055013 314.9097487109085,158.3354449380173 315.77446552579045,156.98118323521 316.06270407065296,156.1564610250483 316.300077406515,155.23623428610378 316.5713611767948,153.26552226232448 317.0545855309072,151.42498736861825 317.1987046557982,150.04455675303882 317.1987046557982,149.69727503815378 317.25804813729303,149.07216336121382 316.99524204940695,145.83365646188776 315.9864055194785,140.31138029959408 315.85924146425066,138.83523241540618 316.18139073858396,137.76717808190804 317.7667049483709,134.54555765544018 319.2078991480474,130.54222161178646 319.38592929747864,127.28555635570673 325.18461800593866,124.27193078704713 326.18497626333436,124.28061582775791 327.32945482591543,124.42826015875663 331.4410977263207,126.48656644025446 339.90175745313223,129.55221010749403 341.55489223664125,130.42932622558044 343.93710209743256,132.54825819777798 349.4729847179627,136.49070339267547 349.9816415290351,137.11591835960704 351.4652241405596,139.7382909495448 358.6627192269815,148.26472026243127 359.26462995394996,149.1850313950797 359.4002716915496,149.73200358300028 359.4002716915496,149.8101421467083 359.1459432860189,151.24266758773956 359.1374656036471,152.14557936917967 359.26462995394996,152.9963899065241 359.476570242713,153.82982822799207 360.0360928529303,155.36645558510614 360.91776503252845,157.20689543835357 362.64719836721736,159.76781039971908 364.1138256139818,161.11334187011497 365.36851257199964,161.8946071332668 372.38797780405974,165.21923631278307 378.3392636148521,164.73313775721007 383.4088772460189,166.6861939585535 388.8175955162626,167.30248107209087Z" name="Cuscatlán" name_en="Cuscatlán Department" gn_name="Departamento de Cuscatlan" admin="El Salvador" adm0_a3="SLV" iso_3166_2="SV-CU" iso_a2="SV" postal="CU" type="Departamento" type_en="Department" wikidataid="Q1130677"/><path d="M319.38592929747864,127.28555635570673 319.2078991480474,130.54222161178646 317.7667049483709,134.54555765544018 316.18139073858396,137.76717808190804 315.85924146425066,138.83523241540618 315.9864055194785,140.31138029959408 316.99524204940695,145.83365646188776 317.25804813729303,149.07216336121382 317.1987046557982,149.69727503815378 317.1987046557982,150.04455675303882 317.0545855309072,151.42498736861825 316.5713611767948,153.26552226232448 316.300077406515,155.23623428610378 316.06270407065296,156.1564610250483 315.77446552579045,156.98118323521 314.9097487109085,158.3354449380173 314.3163156663118,158.88235125055013 313.70592725697156,159.36848731119687 313.22270349299816,159.845938691078 312.9938078395079,160.35811110098746 313.3668229129751,163.24010147038828 314.02807653130486,165.7660936846381 317.1478391517393,172.1544858572465 323.96384148232215,183.30685594190362 325.9899913392984,185.8495430294568 326.2867078616077,186.6045226177422 325.7102298866632,187.85412773791336 325.07440902036296,188.55702155797394 324.2181698878583,189.155778249037 321.84443770943886,190.19708254969106 321.2679597344944,190.7697943275926 322.1581095964753,193.3209114701034 330.9070081632243,207.0035242090905 333.9080835255668,210.43030426035708 336.1885620831487,212.27809978362933 338.29948817367665,212.38219985434955 339.25745890445467,212.5730492171226 340.0713096251167,212.91137188777526 340.71560846886376,213.4058408651609 344.86963978109515,219.45198643651926 346.24301340704403,220.8571921716549 347.4892229777595,221.70724232904652 348.32850674552054,222.00215580450285 348.9134621077673,222.93025763219663 349.21865631242645,224.4047895815543 348.6591337022311,231.6382620158083 349.14235776126856,233.24271793671093 354.84779255381056,244.07409550604004 356.45006183326615,246.0424864415494 357.0265398082106,247.83740758424298 357.7471369080406,249.50222485800563 358.0268980656008,259.62042739003965 346.1667148558696,270.76020428189133 336.2987710687244,283.2418053308063 334.6286812155577,284.51585683303387 333.6283223680066,284.4638553206193 332.6194861331641,284.3078499732706 327.38032032999087,282.59177097687177 326.3714840951374,282.4617636405492 325.3287371308242,282.4617636405492 324.4385878589878,282.62643958360684 323.70951278171646,283.0337950926383 323.24324408741717,284.0911751975007 323.0991246674402,285.63388523690514 323.7010353944306,288.5458843153103 324.6590058301227,291.2411200625483 327.1768577235831,295.66942605207726 327.8126785898889,297.31589516006846 327.63464844045757,299.67288557030065 326.89709597587847,303.2948874730867 324.10796060722413,311.604066966411 322.4293933667551,315.1648762507691 320.0810939403706,317.7725687687572 319.10616813991845,318.40498583078073 318.3940484273853,321.22914466515306 315.9779281321982,320.14627379072004 315.147122046787,319.9123716545191 313.9263455231705,319.74777337312725 311.97649392229914,319.98167599631194 308.54306000496723,321.1251897698063 306.70341768472457,321.5583344162907 305.6691484027722,321.6103117471021 304.7111779670582,321.48903145639713 303.9821028897814,321.0818751143854 303.49887912581346,320.44947886510516 301.6422814408382,316.46440136903794 296.3861602729268,308.0084399017691 296.19117505381587,306.7607623319688 296.30986172176887,305.17514330969493 297.047413891273,302.2897551272334 299.0989967953537,296.9952695547559 299.25159389768055,295.93806284315394 298.6412054883403,282.07173973505706 298.895534188946,278.93414427845215 299.3533252008844,277.0185889614495 300.0145791142891,276.4985207379577 300.548668972455,275.83976277774286 300.7097437571591,275.0943190423268 300.31977331897025,274.28819180361324 297.80192172057923,273.09198795240707 297.08980230309913,272.33784968713036 297.0558918686978,271.29764759106865 297.8188770853009,269.45992327762093 298.895534188946,267.45744797266167 298.9972654921443,266.4258496752319 298.67511621780557,265.1428342989498 296.47941389375336,262.2386345230436 295.07212983342515,260.98155923746157 294.50412954085255,260.6000979020541 289.782097936032,258.08587430346074 289.0699782235044,257.56568009947443 288.44263474448445,256.585971485345 287.9509332981612,255.1293905964243 287.3490225711873,252.5022745561326 286.9505747456741,251.37510189946502 286.33170865397847,250.56005869255299 285.06854401360533,249.6322870386604 284.5259767681371,248.981973057592 284.0766631434955,248.27962805045985 283.72060343475545,247.43853996410084 283.4917077812487,244.24752389466175 283.8138570555875,240.90028542597366 282.1691996593753,238.7756679514071 281.1094979204629,238.6889475506116 280.2702141527019,238.4634742970453 279.6767811080833,237.76103398763212 279.57504980490137,236.41684084732478 281.0077663221895,232.22801166262934 283.2712898101193,227.9782441261491 283.5171405332782,227.13693588173814 283.7969019859298,225.70582342922248 284.18687242411875,220.3367483656674 284.78878285602315,217.2400367435498 285.85696227731285,214.7764576426284 286.54364923781105,212.1826749478518 287.15403735208184,206.32682531148055 287.55248517757855,204.73048702258131 288.2137390909997,203.11676381715577 289.20561996108756,201.85873051075285 289.8838295343109,201.34683496836772 290.6044266341409,200.90434618010863 292.2914718520512,200.27965194334178 292.96120344782776,199.81980470799317 293.3257411340091,199.0562782303722 293.8004875106747,197.15610599404462 295.4451449068869,178.4208420730951 295.78424925087785,177.32730439349558 296.3946376602236,176.7371345268404 297.2423991103565,176.502801127501 299.69242983995036,176.5722332533509 299.9637136102302,176.35525787789763 300.0908776654635,175.9386623967501 300.523236220431,174.0552765531299 301.38795274023795,171.85070180431194 301.2607886850046,171.2865288283945 300.7521318739322,170.60083600895396 298.9972654921443,169.672103221634 297.80192172057923,168.68259962833682 296.7422199816614,168.08368342507356 295.8520704147554,167.76252365787786 294.91953273109283,167.53684261520198 293.9446069306407,167.4066420479309 292.91033794376875,167.3719218391062 289.8838295343109,167.61496297008273 288.9004260514979,167.5542025331049 286.2384550331519,166.75563468053528 284.68705125777177,166.00914021793577 283.3052002445151,165.11507266136437 282.40657299523735,163.91717971955342 281.43164719480166,162.1029436717017 279.79546777603076,158.30072060989494 278.8459747276081,156.53843879224198 278.05755646390054,155.3751367755573 276.08227240605277,153.8385095932076 275.82794370544707,152.64043982765966 275.92967530372044,150.82593558476384 277.6845416855083,143.6109015223421 278.05755646390054,132.28773673104814 280.3889008206329,132.61773031714716 281.7622744465818,131.94037399034178 286.0095593796397,128.88351095589792 288.5274109780307,128.02374590427695 295.3264582389614,130.98511750813594 299.8958927414276,131.03722252457342 301.9729083975323,126.87737785807904 306.5932084040794,130.51616893825818 310.3233591387846,131.44537866058317 319.38592929747864,127.28555635570673Z" name="San Salvador" name_en="San Salvador Department" gn_name="Departamento de San Salvador" admin="El Salvador" adm0_a3="SLV" iso_3166_2="SV-SS" iso_a2="SV" postal="SS" type="Departamento" type_en="Department" wikidataid="Q1543219"/></svg>