<?xml version="1.0"?><svg fill="#3498db" stroke="#ecf0f1" stroke-width="1" width="800" height="1056" viewBox="0 0 800 1056" xmlns="http://www.w3.org/2000/svg"><path d="M699.1945469522838,147.1449678587389 714.8079305204565,161.95026819815627 732.0322177861996,171.20502323159738 771.9330853063075,181.42082100112768 764.0644358721573,202.26799252633327 767.2242871159141,226.13945064317184 774.3184630767371,250.7046073758112 778.4386616432054,273.6986749888369 776.2701357979222,291.41223957358835 756.4436182372013,343.9591202834569 753.531598193232,363.33845785873797 760.9975212534019,431.9616520660817 765.4894669192772,450.60649137854125 793.8042128126818,507.53253430288163 800,562.1584118818706 797.8934321045493,734.2162996553849 788.2280051234444,729.8651532694026 773.4820316535149,715.0869549978108 763.8785626222425,713.2226225840451 723.6679053530803,713.015477846129 724.9690205005705,733.0421562618101 714.8079305204565,792.11754446227 705.4522920893942,847.0892666159967 694.9194544104663,908.6089121033959 696.1738353765702,949.9280345154673 695.9732218708426,949.9164196081285 678.62501919423,948.9120373591957 676.0227884962272,948.3579011557647 674.1640527454695,947.007212697427 674.4428632159005,943.1630785011886 675.0934206208483,939.6308056053989 674.9075466144654,936.7566308105231 673.3276213341361,935.198389185583 668.4949074117693,934.29808700404 657.9930486947891,933.7440600965631 653.1293561307209,932.8437761840624 649.1330736196471,931.3548675890963 647.7390212674543,927.7539105995137 647.3672743329726,924.7417069454723 648.0178317378878,913.1441312603773 647.1814003265896,911.0671447302814 645.136791108571,909.4748279438115 626.1776828926319,901.8944839129498 620.291685450012,900.2677533067539 614.8084146618194,899.6447592792853 610.0686372034629,898.5026173404409 606.8158491005122,895.7338610996856 595.8493064458452,869.2974400476277 592.2247708692857,865.1113820761217 586.5246474330463,863.0357386722684 581.5060600433834,863.1741130168085 564.0339411828099,867.8098053500014 558.2718593850592,868.3633404073611 552.3858619424393,867.7060177972763 546.9025900759975,865.9416557782098 541.4193192877698,863.3816750163254 514.4366674080195,846.8822903515719 499.7526521735827,835.608084903264 489.2507939957271,823.9206799585203 483.4577330171905,819.0802790882352 478.6250190947885,816.0379025047927 474.9075465150213,815.1390423824909 470.63245407264105,813.6870608296771 467.56553943691114,814.5859034480535 464.21981433078525,816.7984856128492 460.688216296523,817.6282201766184 457.24955472631393,816.2799052973156 453.0673987479818,812.6499476858141 445.2297280123045,804.077035318298 441.9769399093513,799.4107424449602 429.5234084384407,776.8438305427894 427.8505461549388,772.1446882114246 429.7092819056991,766.3057245201004 431.84682866600997,761.9527114607229 439.4676462145211,749.7587137840459 443.37099172241966,740.951255418328 454.18264009061915,727.7247448611238 457.063680719931,722.5452861933645 458.4577330721239,717.2626064128077 457.063680719931,709.3910699283634 457.15661772313877,704.3509585783677 458.1789226016954,699.5873289370204 463.0116359849728,690.4751408881518 464.8703722748577,686.0575091254038 461.71052063595505,683.124069087424 457.528365196745,680.8809276873802 422.8319587652759,682.1922942441405 423.38957916701844,668.8036242182483 427.29292521404153,653.2095226595409 441.2334449621062,618.6173406724957 443.37099172241966,615.307258067647 445.78734895320173,612.5834443987459 448.20370564482414,610.756130837999 483.1789225467243,594.3467727775336 487.4540149891422,590.5207345049671 489.90135140067747,584.7992734593711 488.507299048482,560.711853974163 485.16157394232357,540.3865322456403 482.7142380699128,533.5667167053915 477.60271421619933,524.681212424323 477.0450932753372,520.9620085141867 480.0190714469814,518.3793355126256 485.5333214159624,516.3476948175914 490.644845808798,513.6274476307617 494.45525431348875,510.45968862867284 494.8270017871301,505.0197148787727 494.45525431348875,501.47361323110124 492.5965185627334,494.27863513168916 492.41064509547255,490.4232347810594 493.0612025004229,485.2944785496059 496.1281171361152,478.7893738114784 496.8716115442357,463.16563432918804 496.0351801329425,457.6946444322828 493.52588643811237,449.2308693120766 493.4329499740617,446.37541899501133 494.64112831987165,444.4833117221639 502.54075633884645,439.9424470385852 506.0723549122307,437.2937336177537 508.02402820528823,434.3011434141604 508.11696466937144,428.6602588691893 509.0463325447504,424.01716186056996 513.1355520590017,418.9616670434206 524.5977578321466,408.88607040763975 530.4527760939806,402.38750245517605 536.0289844245057,394.7549712194769 539.8393929291964,384.75132480444483 542.0698766927201,374.30218180690406 543.4639285057884,357.63463666380704 548.3895794313681,340.38669913030344 545.694411730155,334.7871102902041 544.7650438547761,331.35198308862766 545.5085388020537,327.2300340442333 543.9286129826024,314.52208907355805 531.6609544397905,275.7587174012248 535.9360474212979,269.2371364564193 537.6089097048324,252.93560932933877 531.1033340380505,143.23902233897994 532.9620703279329,137.5167278500917 542.2557501599784,141.21732423722844 545.8802857365354,141.90264018339852 549.5977577771756,141.90264018339852 553.2532719954013,141.1145278468742 559.8517852044779,138.44185958046194 563.1045727683065,137.58525576852392 566.6361713417259,137.5167278500917 570.6324538528021,136.38602448145298 573.792304952545,135.04976148170465 577.9338092311486,129.03378107271377 630.4522924641076,163.04706955540482 647.707558404977,168.2570918047834 664.8079303705974,164.2124388718814 699.1945469522838,147.1449678587389Z" name="Lubombo" name_en="Lubombo District" gn_name="Lubombo District" admin="Swaziland" adm0_a3="SWZ" iso_3166_2="SZ-LU" iso_a2="SZ" postal="LU" type="District" type_en="District" wikidataid="Q856657"/><path d="M370.81784340875106,0 386.05947927811246,5.062245391984168 449.5662945012291,46.05121180216153 513.0731103238503,87.06183128926546 568.1226764888539,122.6813181700755 577.9338092311486,129.03378107271377 573.792304952545,135.04976148170465 570.6324538528021,136.38602448145298 566.6361713417259,137.5167278500917 563.1045727683065,137.58525576852392 559.8517852044779,138.44185958046194 553.2532719954013,141.1145278468742 549.5977577771756,141.90264018339852 545.8802857365354,141.90264018339852 542.2557501599784,141.21732423722844 532.9620703279329,137.5167278500917 531.1033340380505,143.23902233897994 537.6089097048324,252.93560932933877 535.9360474212979,269.2371364564193 531.6609544397905,275.7587174012248 511.9273737131868,284.16894335810264 499.56677816720224,286.43471372568615 475.65104146226884,286.74368757508256 471.65475895119266,287.22431557434066 467.1008554992217,288.5975562346705 462.0822681095939,292.47709338536237 459.2941644834547,295.70446822360395 456.13431230543006,303.46445957777473 454.6473240283086,305.76513943907406 452.7576085576404,308.1345685160314 447.27433776944525,312.0150955545987 437.7947839310167,316.65138147202344 435.09961622984366,318.6090088686632 433.6126274135625,321.66575508617774 431.75389112368265,332.79471790431074 430.82452324830126,335.6115644098551 429.7092819056991,337.4666171990496 428.2222930894205,339.18429890518814 423.9472001079157,341.72653930577206 389.06492020918813,354.23284253330354 382.6213018257012,357.63463666380704 379.1826402554921,360.1774906472352 375.1863577444159,361.7238619942913 369.703085877944,362.3080554363108 348.76132626640316,359.45586152480445 346.1590961075224,360.1431269162201 344.2074233535919,362.4455125574486 342.90630746544963,364.40431404716725 341.7910661228098,367.2566928854005 340.7687617833803,368.39080030747033 338.3524045526007,369.8342349483253 332.3115128235434,372.4462333442208 314.43666730857285,377.97984184590473 308.5816485075867,380.7639828624562 304.67830299971826,383.5138512738425 302.2619457689362,386.50444649079867 300.77495695269516,389.28889881555193 300.5890834854368,392.7266344010712 302.07607284080234,401.4591806118144 302.44781977531665,406.6166659758633 301.70432482807155,410.4334306638346 299.65971561005534,413.9752834073867 292.7823924696698,420.7155763216728 290.8307197157017,424.120338941612 290.73778217340697,427.5940416128806 291.7600875910831,431.9621892331827 292.5035819992036,437.2937336177537 291.7600875910831,443.2448667963989 290.2730987748371,449.3340812130535 289.6225408307672,455.59581520283166 291.01659264383807,466.64112158945295 291.20246665021597,471.4933065561859 289.7154778339399,474.5906080120969 286.64856319824753,476.86204280446293 281.78487009508734,478.37637044487974 275.1863574251353,478.0666190959162 267.9372868111059,475.9328110982391 255.3908183369875,466.77876844060904 250.52712577295185,462.40861845893875 247.36727413404924,458.7268763736917 245.32266491603306,457.6946444322828 241.88400334582147,457.0753117619719 234.17024825498555,456.73123997231676 228.8728503949242,457.14412618715096 225.15537835428404,458.2107580504834 220.13679096462113,460.58492934494114 213.97198305156775,460.2408422532355 186.8344368853424,454.0475363775884 183.55067014072796,453.6690729402724 179.926134564171,451.9832130989185 177.13803039890726,449.1620626534493 172.6770639501416,442.2128451719511 167.65847656047868,432.3405445998569 165.98561427697928,429.86407106862566 164.21981499026958,427.9035866325024 75.92985227293376,371.7932255111292 68.58736051288959,368.6995691175105 112.08178432589095,313.80035448109203 152.78810399448247,241.37166719988883 185.06815328019255,164.07533552952188 194.20693918663642,129.12197608942893 201.98265199589562,115.28207436160099 255.0805448401694,67.95735790664382 315.55142531867114,14.16143531046626 332.4039648855953,5.746358190387129 353.1598510938362,0.27362619853398185 370.81784340875106,0Z" name="Hhohho" name_en="Hhohho District" gn_name="Hhohho District" admin="Swaziland" adm0_a3="SWZ" iso_3166_2="SZ-HH" iso_a2="SZ" postal="HH" type="District" type_en="District" wikidataid="Q735570"/><path d="M11.710036926790846,713.4297685625453 7.651796909556787,697.8263938797012 1.6728622467994447,652.0016105334741 0.7434941987213385,559.8844170415342 0,488.9425504327033 12.980173399084519,439.04752831145566 68.58736051288959,368.6995691175105 75.92985227293376,371.7932255111292 164.21981499026958,427.9035866325024 165.98561427697928,429.86407106862566 167.65847656047868,432.3405445998569 172.6770639501416,442.2128451719511 177.13803039890726,449.1620626534493 179.926134564171,451.9832130989185 183.55067014072796,453.6690729402724 186.8344368853424,454.0475363775884 213.97198305156775,460.2408422532355 220.13679096462113,460.58492934494114 225.15537835428404,458.2107580504834 228.8728503949242,457.14412618715096 234.17024825498555,456.73123997231676 241.88400334582147,457.0753117619719 245.32266491603306,457.6946444322828 247.36727413404924,458.7268763736917 250.52712577295185,462.40861845893875 255.3908183369875,466.77876844060904 267.9372868111059,475.9328110982391 275.1863574251353,478.0666190959162 281.78487009508734,478.37637044487974 286.64856319824753,476.86204280446293 289.7154778339399,474.5906080120969 291.20246665021597,471.4933065561859 291.01659264383807,466.64112158945295 289.6225408307672,455.59581520283166 290.2730987748371,449.3340812130535 291.7600875910831,443.2448667963989 292.5035819992036,437.2937336177537 291.7600875910831,431.9621892331827 290.73778217340697,427.5940416128806 290.8307197157017,424.120338941612 292.7823924696698,420.7155763216728 299.65971561005534,413.9752834073867 301.70432482807155,410.4334306638346 302.44781977531665,406.6166659758633 302.07607284080234,401.4591806118144 300.5890834854368,392.7266344010712 300.77495695269516,389.28889881555193 302.2619457689362,386.50444649079867 304.67830299971826,383.5138512738425 308.5816485075867,380.7639828624562 314.43666730857285,377.97984184590473 332.3115128235434,372.4462333442208 338.3524045526007,369.8342349483253 340.7687617833803,368.39080030747033 341.7910661228098,367.2566928854005 342.90630746544963,364.40431404716725 344.2074233535919,362.4455125574486 346.1590961075224,360.1431269162201 348.76132626640316,359.45586152480445 369.703085877944,362.3080554363108 375.1863577444159,361.7238619942913 379.1826402554921,360.1774906472352 382.6213018257012,357.63463666380704 389.06492020918813,354.23284253330354 423.9472001079157,341.72653930577206 428.2222930894205,339.18429890518814 429.7092819056991,337.4666171990496 430.82452324830126,335.6115644098551 431.75389112368265,332.79471790431074 433.6126274135625,321.66575508617774 435.09961622984366,318.6090088686632 437.7947839310167,316.65138147202344 447.27433776944525,312.0150955545987 452.7576085576404,308.1345685160314 454.6473240283086,305.76513943907406 456.13431230543006,303.46445957777473 459.2941644834547,295.70446822360395 462.0822681095939,292.47709338536237 467.1008554992217,288.5975562346705 471.65475895119266,287.22431557434066 475.65104146226884,286.74368757508256 499.56677816720224,286.43471372568615 511.9273737131868,284.16894335810264 531.6609544397905,275.7587174012248 543.9286129826024,314.52208907355805 545.5085388020537,327.2300340442333 544.7650438547761,331.35198308862766 545.694411730155,334.7871102902041 548.3895794313681,340.38669913030344 543.4639285057884,357.63463666380704 542.0698766927201,374.30218180690406 539.8393929291964,384.75132480444483 536.0289844245057,394.7549712194769 530.4527760939806,402.38750245517605 524.5977578321466,408.88607040763975 513.1355520590017,418.9616670434206 509.0463325447504,424.01716186056996 508.11696466937144,428.6602588691893 508.02402820528823,434.3011434141604 506.0723549122307,437.2937336177537 502.54075633884645,439.9424470385852 494.64112831987165,444.4833117221639 493.4329499740617,446.37541899501133 493.52588643811237,449.2308693120766 496.0351801329425,457.6946444322828 496.8716115442357,463.16563432918804 496.1281171361152,478.7893738114784 493.0612025004229,485.2944785496059 492.41064509547255,490.4232347810594 492.5965185627334,494.27863513168916 494.45525431348875,501.47361323110124 494.8270017871301,505.0197148787727 494.45525431348875,510.45968862867284 490.644845808798,513.6274476307617 485.5333214159624,516.3476948175914 480.0190714469814,518.3793355126256 477.0450932753372,520.9620085141867 477.60271421619933,524.681212424323 482.7142380699128,533.5667167053915 485.16157394232357,540.3865322456403 488.507299048482,560.711853974163 489.90135140067747,584.7992734593711 487.4540149891422,590.5207345049671 483.1789225467243,594.3467727775336 448.20370564482414,610.756130837999 445.78734895320173,612.5834443987459 443.37099172241966,615.307258067647 441.2334449621062,618.6173406724957 427.29292521404153,653.2095226595409 423.38957916701844,668.8036242182483 422.8319587652759,682.1922942441405 398.7303475148375,677.9476893184262 386.3387733272218,680.4323068496802 376.7662830247451,686.6442107707193 372.6770640495882,690.0609771444797 369.1454654762014,694.202720461677 364.126878086541,698.9660081161428 358.5506697560511,701.1061339671422 330.45277653365855,703.9021973864958 326.3635570193771,705.6627354286937 324.2260107981857,707.5268798026882 323.7613263213742,710.2541369564789 322.460210972354,713.0850654087933 320.3226647511626,716.1232543898578 314.62254131492074,720.4736032362111 312.3920580905592,723.4430333468073 310.905068735156,726.3435206225544 310.44038479746655,729.278652728696 309.8827643957265,738.430095128359 307.931091102669,738.9826710790044 304.0277455947704,738.0156662931356 276.76628270542943,717.5733420077255 270.44658050590346,713.913649533595 263.5692568263933,712.6707767814485 257.8071755677345,714.5350942396706 252.38586152371215,717.2280806489226 247.36727413404924,718.3674500714833 240.58288799683885,718.3674500714833 232.68325943873953,720.749823559493 200.5890831661512,737.8429879884206 173.79230583190343,758.9126624764629 171.28301159795117,759.4308432974799 170.2607067193595,757.7035862553596 170.53951718982566,754.490992078429 171.19007513386546,750.8294958290318 173.42055781914254,744.5431921203617 174.07111576321245,742.0564486265896 173.60643182552047,739.4661778562123 165.2421193297367,728.5189599422407 163.47632058214907,725.2385599313599 163.19751011171803,722.6488714845204 164.21981499026958,719.5068368193769 165.149182865651,714.9493937734412 165.2421193297367,709.3220250674702 164.49862546073575,699.656364834755 163.47632058214907,695.9285142769639 161.52464728909155,692.7530841438175 156.41312343538306,687.5070160990797 150.8988729272775,686.1265319743978 145.4156021390447,686.1265319743978 124.50482116917266,690.7857654963719 110.81213217166379,691.4070185705135 104.02774549529121,688.4043438267626 97.42923228621213,682.7444557848185 94.82700212733131,680.9499463771514 93.3400133110903,680.9499463771514 92.59651836381263,682.3303340984213 89.99428820492932,683.6417259750074 69.8889600047193,688.7149598631934 61.37964184682446,697.8886578649577 58.33333330837751,688.921498487175 51.45600987214284,697.4121900364254 42.25526661533856,705.2134277309261 32.09417603571998,710.8750115109628 22.11895930559609,712.8083330126399 11.710036926790846,713.4297685625453Z" name="Manzini" name_en="Manzini District" gn_name="Manzini District" admin="Swaziland" adm0_a3="SWZ" iso_3166_2="SZ-MA" iso_a2="SZ" postal="MA" type="District" type_en="District" wikidataid="Q305395"/><path d="M276.83967751823855,997.0239472112263 224.2874839519371,978.9102987820057 215.2416358693332,972.8125591502337 205.97893466273163,963.5283315609739 177.35439902027284,920.3788792327903 115.79925651837891,864.6611134180924 102.35439879548174,841.4173512418445 99.81412645029616,824.7499540387197 106.00991303820501,798.476979140759 106.75340783633062,781.8191753404388 103.22180889379766,768.550886334099 96.84014845652953,758.6703053854466 79.67781854111429,740.5017360284304 71.7472117566413,728.4148266552384 61.37964184682446,697.8886578649577 69.8889600047193,688.7149598631934 89.99428820492932,683.6417259750074 92.59651836381263,682.3303340984213 93.3400133110903,680.9499463771514 94.82700212733131,680.9499463771514 97.42923228621213,682.7444557848185 104.02774549529121,688.4043438267626 110.81213217166379,691.4070185705135 124.50482116917266,690.7857654963719 145.4156021390447,686.1265319743978 150.8988729272775,686.1265319743978 156.41312343538306,687.5070160990797 161.52464728909155,692.7530841438175 163.47632058214907,695.9285142769639 164.49862546073575,699.656364834755 165.2421193297367,709.3220250674702 165.149182865651,714.9493937734412 164.21981499026958,719.5068368193769 163.19751011171803,722.6488714845204 163.47632058214907,725.2385599313599 165.2421193297367,728.5189599422407 173.60643182552047,739.4661778562123 174.07111576321245,742.0564486265896 173.42055781914254,744.5431921203617 171.19007513386546,750.8294958290318 170.53951718982566,754.490992078429 170.2607067193595,757.7035862553596 171.28301159795117,759.4308432974799 173.79230583190343,758.9126624764629 200.5890831661512,737.8429879884206 232.68325943873953,720.749823559493 240.58288799683885,718.3674500714833 247.36727413404924,718.3674500714833 252.38586152371215,717.2280806489226 257.8071755677345,714.5350942396706 263.5692568263933,712.6707767814485 270.44658050590346,713.913649533595 276.76628270542943,717.5733420077255 304.0277455947704,738.0156662931356 307.931091102669,738.9826710790044 309.8827643957265,738.430095128359 310.44038479746655,729.278652728696 310.905068735156,726.3435206225544 312.3920580905592,723.4430333468073 314.62254131492074,720.4736032362111 320.3226647511626,716.1232543898578 322.460210972354,713.0850654087933 323.7613263213742,710.2541369564789 324.2260107981857,707.5268798026882 326.3635570193771,705.6627354286937 330.45277653365855,703.9021973864958 358.5506697560511,701.1061339671422 364.126878086541,698.9660081161428 369.1454654762014,694.202720461677 372.6770640495882,690.0609771444797 376.7662830247451,686.6442107707193 386.3387733272218,680.4323068496802 398.7303475148375,677.9476893184262 422.8319587652759,682.1922942441405 457.528365196745,680.8809276873802 461.71052063595505,683.124069087424 464.8703722748577,686.0575091254038 463.0116359849728,690.4751408881518 458.1789226016954,699.5873289370204 457.15661772313877,704.3509585783677 457.063680719931,709.3910699283634 458.4577330721239,717.2626064128077 457.063680719931,722.5452861933645 454.18264009061915,727.7247448611238 443.37099172241966,740.951255418328 439.4676462145211,749.7587137840459 431.84682866600997,761.9527114607229 429.7092819056991,766.3057245201004 427.8505461549388,772.1446882114246 429.5234084384407,776.8438305427894 441.9769399093513,799.4107424449602 445.2297280123045,804.077035318298 453.0673987479818,812.6499476858141 457.24955472631393,816.2799052973156 460.688216296523,817.6282201766184 464.21981433078525,816.7984856128492 467.56553943691114,814.5859034480535 470.63245407264105,813.6870608296771 474.9075465150213,815.1390423824909 478.6250190947885,816.0379025047927 483.4577330171905,819.0802790882352 489.2507939957271,823.9206799585203 499.7526521735827,835.608084903264 514.4366674080195,846.8822903515719 541.4193192877698,863.3816750163254 546.9025900759975,865.9416557782098 552.3858619424393,867.7060177972763 558.2718593850592,868.3633404073611 564.0339411828099,867.8098053500014 581.5060600433834,863.1741130168085 586.5246474330463,863.0357386722684 592.2247708692857,865.1113820761217 595.8493064458452,869.2974400476277 606.8158491005122,895.7338610996856 610.0686372034629,898.5026173404409 614.8084146618194,899.6447592792853 620.291685450012,900.2677533067539 626.1776828926319,901.8944839129498 645.136791108571,909.4748279438115 647.1814003265896,911.0671447302814 648.0178317378878,913.1441312603773 647.3672743329726,924.7417069454723 647.7390212674543,927.7539105995137 649.1330736196471,931.3548675890963 653.1293561307209,932.8437761840624 657.9930486947891,933.7440600965631 668.4949074117693,934.29808700404 673.3276213341361,935.198389185583 674.9075466144654,936.7566308105231 675.0934206208483,939.6308056053989 674.4428632159005,943.1630785011886 674.1640527454695,947.007212697427 676.0227884962272,948.3579011557647 678.62501919423,948.9120373591957 695.9732218708426,949.9164196081285 696.1738353765702,949.9280345154673 696.5613379821746,962.6969645542821 698.079305654218,1012.3875314160995 701.4250301478871,1022.2325860790154 705.5142500392592,1029.5132253876218 708.5501853833134,1036.6558840007372 710.2850061794875,1044.284730129381 710.594795328997,1053.1629273608585 656.8463443114911,1052.469280129459 599.2565052018299,1051.636911803733 511.9578684263152,1050.4577382089049 445.78686495838326,1049.5560307865894 405.5762076892888,1041.3718049800707 343.9591072375625,1020.1525360463168 298.07930565419923,1004.3460657787476 276.83967751823855,997.0239472112263Z" name="Shiselweni" name_en="Shiselweni District" gn_name="Shiselweni District" admin="Swaziland" adm0_a3="SWZ" iso_3166_2="SZ-SH" iso_a2="SZ" postal="SH" type="District" type_en="District" wikidataid="Q845934"/></svg>