<?xml version="1.0"?><svg fill="#3498db" stroke="#ecf0f1" stroke-width="1" width="800" height="2080" viewBox="0 0 800 2080" xmlns="http://www.w3.org/2000/svg"><path d="M25.76846531004368,19.721630299439365 18.215090381153576,17.788280590693834 9.866065094384746,13.158856020795092 3.055297604113976,6.875011652324527 0,0 20.958892181439342,4.291440994877039 42.28616872641477,8.658152827830989 92.666754674302,18.94829440420308 186.2670729388018,38.054683603947474 222.07832625894912,45.38100183415997 267.99628651733155,54.7743144101192 268.88741495097617,55.364882087018536 269.43906623800535,56.30978428734867 269.65123955728984,57.61975039996038 269.0995886808487,59.46656291613631 268.8025458696338,61.1952403337483 268.2084602472041,62.891682228741686 266.7656809370716,64.54515371749004 273.3854922757639,66.20933915611337 268.4206335664536,83.8482990020501 319.72417452072636,65.84429375923631 345.4820312469229,60.87312861752897 384.9887280127091,60.110793393072264 438.32913389950915,59.12297231403839 427.8053304478824,84.70709991987206 426.6171596135993,92.9620118479737 427.5931571285862,97.43810869360559 431.0303674464217,105.87462209196757 431.6244526582752,110.37171097974225 425.2168146388673,122.61712411552061 424.4105552865766,127.05994236084999 423.7740349181934,136.54600242446517 422.5009945919566,140.8166368412983 417.1966583254546,148.4561965760491 394.87601109596426,169.72001073264045 388.9775892070325,183.60067333425096 392.24506013039604,220.997822336164 391.94801731918113,237.22087123233774 385.92229160291856,260.3348377042927 380.19360787670644,303.05669994585304 380.53308584445114,312.5937449860014 383.8429911032152,318.84066061694244 414.905184917078,339.54010022768017 453.9450998877653,365.5168356043248 477.5815537819736,381.2720660409042 470.24035265347413,392.5274540173076 468.07618358163455,394.16588290587623 465.06332022757107,395.9649189495592 462.58089103068625,395.9970442480455 451.6327409567576,394.2622604788544 448.38648679512164,394.10163139950396 444.2278876555612,394.42288973319 441.6818059167127,395.9649189495592 436.8442511298272,400.6872701584266 434.68008205798753,401.1691332464106 432.77052093847294,400.55877315911096 429.5879189495339,398.0851795191325 427.423749877671,397.2820545494796 418.23663943311067,396.4789242671948 415.3722979384601,397.506929949426 407.73405346040136,401.7152423498925 401.17789407213877,406.1911106843065 398.95007282757894,406.35172490214336 397.3375543191371,405.4201585015072 396.3191221405476,403.62125302590727 395.4279931996224,401.6509945577479 394.3459088483125,399.94841022084006 392.3090437526237,398.79192501928054 389.6993105795648,397.8924299470488 377.1598591419467,397.0893037919077 372.68299950807443,398.8882991771144 370.7734383885597,400.5908973276032 370.6461340431423,402.4862163742113 371.34630683519646,404.681325311424 372.42839155574956,410.39914327274056 371.40995863865027,415.4850080535648 369.5003975191354,419.62850363260657 357.4065109212,436.5009233214368 353.46008470601976,444.54025667099955 351.84756619755467,449.22874920315724 350.70182967354776,454.37733629390056 350.4472217211996,467.03922618375674 350.76548184624477,471.0205684996796 350.70182967354776,472.6901274934302 350.06530942345734,475.0124929108423 348.85592072673006,477.6451709435941 346.6280994821935,481.04831234390525 345.5460147616403,484.01261297329063 344.33662606491316,489.37386976602386 343.1272377374526,492.1988767243549 342.42706531464165,494.7670128404261 342.2361091657706,497.2173968815053 342.6180210942695,499.3681335060332 347.5192280538521,513.1491482179279 348.02844432776845,518.1561852908492 347.5192280538521,521.0875687637199 347.0100117799357,521.3764243372339 343.25454134436006,520.5740459638505 339.11715934952866,521.6652792903145 336.7620341288179,521.1196641063217 333.07021586596255,518.8943863708787 330.7150906452286,518.1561852908492 317.7725101343358,519.4721059489457 312.4893912462543,519.407915214216 306.2302744690646,520.9270934252444 301.39271931293587,522.563935053161 298.1464655205432,522.7565033907076 295.7913402998091,522.1146077360456 294.20003967458285,520.8949980366813 290.7628297333191,515.7810758605161 289.2988327150237,514.3367316447456 287.64387991707713,513.1491482179279 283.8671923367724,511.1591204111297 282.4668478604174,509.68262875578057 281.2574587944702,508.0456301088842 280.4936345682056,506.1090244182037 280.11172227046336,504.0867927030002 280.4936345682056,502.16082973750133 282.40319568772037,498.79032693090494 282.65780400931186,497.18529581718036 281.57571928875876,495.8691559714294 279.666158169244,495.18433064580364 277.31103294850993,494.99172270448554 273.4919107094805,495.18433064580364 266.93575095197474,493.9002725836315 261.9708921889384,494.028678833424 258.76707305527043,493.5792558605276 256.41194783453636,492.64830396929034 253.35665019101484,489.98381986632205 251.4470890715001,489.08494517891756 244.31806123660095,487.8971376499855 242.59945626595731,486.80562989771073 241.45371937270718,485.16835114673 240.88085129533707,483.0066846435876 240.75354694991967,480.5988460063752 241.39006756925346,475.87935635123864 241.45371937270718,473.56770832590774 240.9445030987908,471.18110376503626 239.92607055095806,468.96569691494705 235.57651452401657,462.1587089234322 232.58486942243536,458.2948386438067 230.20414708150335,456.2531394870832 231.6721915935548,449.3889772093336 230.44158601325984,441.0073860411961 227.13167993337817,438.2776343172398 222.61238544084927,437.18571780383377 217.4035272501598,433.83497613296703 213.38284030429475,423.12916005793545 215.53640089090527,393.7800376648576 214.85744577655686,379.82591630525155 217.82787388870548,374.2674114481725 219.00543654971773,367.46621921580083 220.95743240089095,361.1145478545641 231.03567163568954,353.6163897458994 222.65481977624978,346.6855623042807 218.7190023223501,344.8001414982046 200.71608526051602,347.7996618757795 194.98740194489196,347.8639364220837 198.59435083603515,339.475821532347 194.27662107895526,332.86564520183265 187.28550561035357,326.5551271062888 182.681342036529,319.0335279846448 183.25421008067633,315.48686522394985 184.62272889326698,311.0935828619461 184.44238132553576,306.51797954787327 180.38986862815244,302.45659245404795 176.18883411457946,301.4921281968413 172.4651899799293,302.67091676341136 168.61424201798332,304.5569567582518 163.95703470370003,305.76786505981175 160.01060825536513,305.21063436430325 149.11550190561636,300.9348784376911 148.0334169098053,302.1351049010039 146.93011515689957,304.84628956878043 145.19029262497588,307.2895211094758 142.05012552894323,307.6109956972573 140.8619546946601,306.1536388933226 119.94165202927877,267.1953120473431 113.43853593407007,260.2919585108096 91.71197432700949,246.65565447273553 88.32780774955101,242.57090901387494 83.53268761354835,233.35026130586348 80.28643385785594,229.468809918976 76.55218113938189,227.18491642687374 63.71568752226048,222.93869437791412 60.00265197145751,220.4187722087074 57.435352919607155,217.9202464196074 54.50735955341204,215.96857320499382 45.023206351572796,214.74608152529302 40.13260813980425,213.48068234999695 35.623922231169246,211.325184930671 32.01697375060238,208.32244060016322 27.82654782088832,199.74277292560274 28.091764469973548,191.0874357573481 30.606610477056346,180.60741190287985 32.01697375060238,174.72967163283187 34.20236008874284,157.37199446176612 37.321310017116105,150.12996919545574 43.113645246376436,142.78022033278614 51.49449628469855,137.10398307557554 55.037793262158836,133.72386864950306 55.801617457896235,129.31348431113287 53.701100611686115,121.14688049760586 53.382840222188825,117.12240133570408 62.27290780155165,75.38878885653789 64.26733839874838,71.48089723357319 67.5560269003943,68.03454798745126 71.15236679710229,65.74766396020017 74.02731724406138,62.891682228741686 75.00331516962466,57.68417446059794 76.17026924678969,42.96235577427357 74.85479376402304,30.09674178402339 68.6593286532884,20.366073279300448 54.95292377022849,15.135245061147257 47.229810268030704,15.264138613506447 33.29001407681583,18.94829440420308 25.76846531004368,19.721630299439365Z" name="Savanes" name_en="Savanes Region" gn_name="Region des Savanes" admin="Togo" adm0_a3="TGO" iso_3166_2="TG-S" iso_a2="TG" postal="SA" type="Région" type_en="Region" wikidataid="Q279945"/><path d="M225.34942265546596,458.7226388278612 229.9323694722191,457.52385716281316 230.20414708150335,456.2531394870832 232.58486942243536,458.2948386438067 235.57651452401657,462.1587089234322 239.92607055095806,468.96569691494705 240.9445030987908,471.18110376503626 241.45371937270718,473.56770832590774 241.39006756925346,475.87935635123864 240.75354694991967,480.5988460063752 240.88085129533707,483.0066846435876 241.45371937270718,485.16835114673 242.59945626595731,486.80562989771073 244.31806123660095,487.8971376499855 251.4470890715001,489.08494517891756 253.35665019101484,489.98381986632205 256.41194783453636,492.64830396929034 258.76707305527043,493.5792558605276 261.9708921889384,494.028678833424 266.93575095197474,493.9002725836315 273.4919107094805,495.18433064580364 277.31103294850993,494.99172270448554 279.666158169244,495.18433064580364 281.57571928875876,495.8691559714294 282.65780400931186,497.18529581718036 282.40319568772037,498.79032693090494 280.4936345682056,502.16082973750133 280.11172227046336,504.0867927030002 280.4936345682056,506.1090244182037 281.2574587944702,508.0456301088842 282.4668478604174,509.68262875578057 283.8671923367724,511.1591204111297 287.64387991707713,513.1491482179279 289.2988327150237,514.3367316447456 290.7628297333191,515.7810758605161 294.20003967458285,520.8949980366813 295.7913402998091,522.1146077360456 298.1464655205432,522.7565033907076 301.39271931293587,522.563935053161 306.2302744690646,520.9270934252444 312.4893912462543,519.407915214216 317.7725101343358,519.4721059489457 330.7150906452286,518.1561852908492 333.07021586596255,518.8943863708787 336.7620341288179,521.1196641063217 339.11715934952866,521.6652792903145 343.25454134436006,520.5740459638505 347.0100117799357,521.3764243372339 347.5192280538521,521.0875687637199 348.02844432776845,518.1561852908492 347.5192280538521,513.1491482179279 342.6180210942695,499.3681335060332 342.2361091657706,497.2173968815053 342.42706531464165,494.7670128404261 343.1272377374526,492.1988767243549 344.33662606491316,489.37386976602386 345.5460147616403,484.01261297329063 346.6280994821935,481.04831234390525 348.85592072673006,477.6451709435941 350.06530942345734,475.0124929108423 350.70182967354776,472.6901274934302 350.76548184624477,471.0205684996796 350.4472217211996,467.03922618375674 350.70182967354776,454.37733629390056 351.84756619755467,449.22874920315724 353.46008470601976,444.54025667099955 357.4065109212,436.5009233214368 369.5003975191354,419.62850363260657 371.40995863865027,415.4850080535648 372.42839155574956,410.39914327274056 371.34630683519646,404.681325311424 370.6461340431423,402.4862163742113 370.7734383885597,400.5908973276032 372.68299950807443,398.8882991771144 377.1598591419467,397.0893037919077 389.6993105795648,397.8924299470488 392.3090437526237,398.79192501928054 394.3459088483125,399.94841022084006 395.4279931996224,401.6509945577479 396.3191221405476,403.62125302590727 397.3375543191371,405.4201585015072 398.95007282757894,406.35172490214336 401.17789407213877,406.1911106843065 407.73405346040136,401.7152423498925 415.3722979384601,397.506929949426 418.23663943311067,396.4789242671948 427.423749877671,397.2820545494796 429.5879189495339,398.0851795191325 432.77052093847294,400.55877315911096 434.68008205798753,401.1691332464106 436.8442511298272,400.6872701584266 441.6818059167127,395.9649189495592 444.2278876555612,394.42288973319 448.38648679512164,394.10163139950396 451.6327409567576,394.2622604788544 462.58089103068625,395.9970442480455 465.06332022757107,395.9649189495592 468.07618358163455,394.16588290587623 470.24035265347413,392.5274540173076 477.5815537819736,381.2720660409042 512.5474072951139,404.50966635218236 571.3618880216886,443.6193310425804 614.6877069979377,472.4436417450056 619.9496085184628,486.5377675770914 619.9977244097986,489.7208294038556 620.4588246489623,520.2206642193426 621.2226492552877,565.4567528298484 621.7318657963634,597.6016911459342 624.9569019737501,616.921379462804 624.3628163513204,621.9566686940618 623.3868184257104,626.0724265002175 623.5141226636525,634.3784009372857 623.0049065331532,638.600679704583 620.4588246489623,643.8489540821312 613.1600581958864,655.050308518201 611.4626704099397,660.4262099479275 612.7781458927062,668.847682651315 616.9367456603258,678.9570526674528 623.0049065331532,685.1441394315636 630.0490649209676,681.71402638662 634.7593155650399,693.4465881704788 637.5600051039158,735.3467122472412 643.5008617387895,751.8277314746623 651.2857491271947,763.7938977526089 651.2243068814292,763.843160296772 635.1203418955934,776.7542559056543 627.460880272782,780.7266666831944 620.2045484617321,780.4703856283056 563.5118019446528,796.3696355630129 555.5977323695166,796.7540148428357 550.6328736064804,796.4977623513045 530.1793529629462,792.0773315807934 523.8778011577886,792.0773315807934 493.0489985177191,796.3055724977833 479.087985459017,799.5514106571482 478.13320471463794,800.3201508526686 476.9874681906078,801.56934516439 475.969035642775,803.2669511252669 474.2504306721315,807.5909511240244 473.231998493542,812.5020043128288 473.04104234467087,817.3061340834269 473.8048665709121,824.9710603781859 473.741214398215,840.1609379680414 474.6959947733508,844.3984498968288 479.2789416078881,854.0684814956853 478.8970293101225,856.3524798790949 477.36938048837334,858.9779660235545 470.3676566296482,865.0292127359592 464.8723640786999,870.7707297877315 458.95272494052796,875.5409267845066 455.38821102309004,877.5578093852937 452.14195723067405,878.7529858406613 444.7371035602343,879.521308704227 429.39696280066283,882.6585844822615 426.8508818003009,882.754622513373 424.30480043069565,882.5945593410462 421.67384937439783,882.1463810880601 414.9903856407179,879.7133887937782 412.44430427111274,879.2972147021555 407.1611850137879,878.9664094255172 404.4878000372519,878.5609044983777 391.48156735366206,873.7161044508438 390.39948263310896,872.0193197806108 389.57200623414735,869.9063148586565 389.1264421329514,867.5371518142333 387.66244511463276,865.797607337754 385.2436677212016,864.7410640941921 379.9605488331201,865.2853448408482 376.37481740168647,865.1572790300227 373.3831715616419,864.6770307794752 370.51883043623485,863.9086306796686 368.41831316782566,864.4849310390367 366.6997081972054,865.573492413596 365.49031913123486,867.3343840995926 364.47188695264543,869.2339889908236 363.7080623571376,871.2829727766012 362.2440653388422,873.4599874190874 360.2072006123967,875.7009979954324 351.52930644175274,881.7302142409277 350.19261376887476,882.8826733717874 349.2378330244957,884.3232347078825 349.1741808517753,884.5473210672328 348.3467044528137,885.7317700781225 344.209322088739,890.0853397521836 341.34498022484524,891.2484036108643 333.9613444376213,892.5928521038621 331.66987102036427,893.8732677453157 329.9937007084454,895.4737712387347 328.7206602082644,899.7950451100525 328.27509573780173,902.2063675532295 327.70222729118836,904.5749735462891 326.8747512614467,906.655474916214 325.66536256474285,908.2878476926186 309.24313708461824,919.0205187186236 306.95166403660454,921.3248482223593 306.29392627251843,923.341107244164 306.48488242138956,925.4640168838432 307.65183645939203,926.872161195176 309.1794852811645,928.152281289842 310.1342660255435,929.8804257926394 310.1342660255435,932.2805934478137 308.3520088821796,935.4487554516371 306.2302744690646,936.9634760376175 303.49323658134506,937.7634979168773 297.1280333419537,937.8595003142476 294.90021172815045,938.7555195953793 286.68909954194146,946.2434706252045 278.07485717477454,949.5499964680351 266.77005690604864,952.7037132127554 275.8042695114947,939.757868148308 270.66967222887666,919.5749345719372 250.86328072144764,886.0302149984734 250.86328072144764,885.9875327514161 250.778410818906,885.9875327514161 245.27251022754294,873.1715215495414 249.49476190881032,860.5358258322697 256.44344222088216,847.7069186616911 258.60761139131654,834.3965370275147 258.5651770559161,827.9383752078205 261.1643018593547,823.9565885074599 270.45749849901574,815.6830898686266 275.42235720831445,807.2489729850456 275.2950533809952,800.6614784901169 270.2028908443191,785.8732183471675 270.5848031474993,777.725678090276 273.93714315224014,773.76386314634 278.56252471493514,771.0727562739901 282.72112407197824,766.7903753719069 284.4185118578901,761.5894054875471 285.0974669722852,749.4779943283608 288.91658918271287,728.5208950400396 286.37050770906325,718.8210451844487 278.94443701808035,712.3363030432309 266.7232461910831,708.1803559784166 266.4262029692919,707.7530021361042 266.34133388794953,707.3470150122486 266.4262029692919,706.9410267179771 269.14202342682546,702.3148134898122 270.07558660644696,698.0730932571413 269.35419674607493,694.0022041573416 266.7232461910831,690.326549327249 244.93303225979827,682.3979189943881 237.220527752024,681.1369900836992 220.7028243356529,682.0559729015332 211.47327919909839,683.7015789478173 205.24598833685712,686.4157176418287 203.1985148204477,689.6854368362215 201.94669125132899,698.0517242466166 200.3341729573475,701.5669125552256 197.21522343955058,704.1952322615008 178.43787277693255,710.7444509825203 170.79962876670012,712.272202084613 163.1932105079626,711.4388853164877 161.32608373816674,705.9046826299923 164.67842456408363,701.1822761218453 161.7928655332773,694.5791879003904 161.83530027925414,688.6917067431003 178.94708890744363,685.229624147206 185.34411834302756,682.7398634245336 190.59541127969388,679.1280296061807 192.16549482773354,674.8428620785562 188.55854634717835,670.3652032389543 182.75560253402415,670.0659750990213 172.2848428227744,672.0323195230831 168.02015639555356,670.194215986259 163.95703470370003,667.3408319889237 160.95478042942176,664.7225069933558 159.9257391740228,663.5362292741096 159.78782635226838,660.8964580745782 161.70799604131196,649.246666009791 162.71582012905154,646.5959345256883 183.3815143185835,648.9046389731988 193.24757982350957,648.3274663597253 200.58878102257384,643.5389801937155 206.2219862624204,647.2372455615175 213.79657835898158,648.5198574976537 220.44821627042657,646.6386887145813 223.29134055524437,640.9415844060737 219.7692611560315,632.3687643280277 211.6430181829824,630.8080688634773 194.98740194489196,635.0411464012861 182.193342663136,633.6728932898378 175.64779182195048,625.0034105371733 175.35074901073563,612.9122600412188 181.2279537319613,601.1514999352502 192.16549482773354,612.6342899093808 199.0611322205227,616.4509823253095 206.42355099786937,615.5315649274756 210.70945500336097,610.4318923583118 211.8551915022436,603.1936676288502 210.9216283226455,595.6663645553523 209.01206721741414,589.582205005857 206.2750295922561,585.4653531014064 203.3364276422021,582.235943524534 201.18286664500354,577.7766661822216 200.58878102257384,570.0768508498852 209.393979110018,537.9040120092709 209.5212833479252,533.1972373783233 207.66476557251784,516.6045453554692 208.5028506763734,510.82711184454234 211.81275675629007,504.5465458472276 217.07465827681528,498.8648938669755 219.9390001399155,496.318236891017 220.19360779457716,492.92618617260007 217.4035272501598,484.73996713967426 212.4917114601088,474.9372441061574 211.81275675629007,472.15468042197097 212.61901610855733,468.32320855847985 214.00875208888908,465.7545627062083 214.25275115969188,463.12164839156134 211.81275675629007,459.04373956519123 219.00543654971773,457.6737055160631 225.34942265546596,458.7226388278612Z" name="Kara" name_en="Kara Region" gn_name="Region de la Kara" admin="Togo" adm0_a3="TGO" iso_3166_2="TG-K" iso_a2="TG" postal="KA" type="Région" type_en="Region" wikidataid="Q316216"/><path d="M258.0877866769933,971.9681234371233 262.60708116944045,969.8032134229721 264.0498608901493,964.3534740880968 264.643946512579,957.9223139040262 266.7232461910831,952.770789398548 266.77005690604864,952.7037132127554 278.07485717477454,949.5499964680351 286.68909954194146,946.2434706252045 294.90021172815045,938.7555195953793 297.1280333419537,937.8595003142476 303.49323658134506,937.7634979168773 306.2302744690646,936.9634760376175 308.3520088821796,935.4487554516371 310.1342660255435,932.2805934478137 310.1342660255435,929.8804257926394 309.1794852811645,928.152281289842 307.65183645939203,926.872161195176 306.48488242138956,925.4640168838432 306.29392627251843,923.341107244164 306.95166403660454,921.3248482223593 309.24313708461824,919.0205187186236 325.66536256474285,908.2878476926186 326.8747512614467,906.655474916214 327.70222729118836,904.5749735462891 328.27509573780173,902.2063675532295 328.7206602082644,899.7950451100525 329.9937007084454,895.4737712387347 331.66987102036427,893.8732677453157 333.9613444376213,892.5928521038621 341.34498022484524,891.2484036108643 344.209322088739,890.0853397521836 348.3467044528137,885.7317700781225 349.1741808517753,884.5473210672328 349.2378330244957,884.3232347078825 350.19261376887476,882.8826733717874 351.52930644175274,881.7302142409277 360.2072006123967,875.7009979954324 362.2440653388422,873.4599874190874 363.7080623571376,871.2829727766012 364.47188695264543,869.2339889908236 365.49031913123486,867.3343840995926 366.6997081972054,865.573492413596 368.41831316782566,864.4849310390367 370.51883043623485,863.9086306796686 373.3831715616419,864.6770307794752 376.37481740168647,865.1572790300227 379.9605488331201,865.2853448408482 385.2436677212016,864.7410640941921 387.66244511463276,865.797607337754 389.1264421329514,867.5371518142333 389.57200623414735,869.9063148586565 390.39948263310896,872.0193197806108 391.48156735366206,873.7161044508438 404.4878000372519,878.5609044983777 407.1611850137879,878.9664094255172 412.44430427111274,879.2972147021555 414.9903856407179,879.7133887937782 421.67384937439783,882.1463810880601 424.30480043069565,882.5945593410462 426.8508818003009,882.754622513373 429.39696280066283,882.6585844822615 444.7371035602343,879.521308704227 452.14195723067405,878.7529858406613 455.38821102309004,877.5578093852937 458.95272494052796,875.5409267845066 464.8723640786999,870.7707297877315 470.3676566296482,865.0292127359592 477.36938048837334,858.9779660235545 478.8970293101225,856.3524798790949 479.2789416078881,854.0684814956853 474.6959947733508,844.3984498968288 473.741214398215,840.1609379680414 473.8048665709121,824.9710603781859 473.04104234467087,817.3061340834269 473.231998493542,812.5020043128288 474.2504306721315,807.5909511240244 475.969035642775,803.2669511252669 476.9874681906078,801.56934516439 478.13320471463794,800.3201508526686 479.087985459017,799.5514106571482 493.0489985177191,796.3055724977833 523.8778011577886,792.0773315807934 530.1793529629462,792.0773315807934 550.6328736064804,796.4977623513045 555.5977323695166,796.7540148428357 563.5118019446528,796.3696355630129 620.2045484617321,780.4703856283056 627.460880272782,780.7266666831944 635.1203418955934,776.7542559056543 651.2243068814292,763.843160296772 651.2857491271947,763.7938977526089 653.3881448220446,767.0253224029988 686.190160346632,801.3447978867655 711.6934094181433,828.0878235047347 720.1379127806898,842.8931198937022 723.4053837040882,852.8407511497237 725.6119876204995,864.1110695288788 726.2909427348478,915.7876630775306 726.8850283572775,960.8552986446447 727.3942444877887,999.1281852507623 728.0881545931959,1054.3639473072787 728.2429385860327,1066.6821450098525 728.8370242084624,1071.5420740165478 730.9163242975778,1076.156733763307 741.5249968305469,1089.573639456952 743.2648189518943,1093.6016825165402 741.737169739255,1100.8902593667626 728.2429385860327,1123.1375012955136 727.6064182176611,1126.6319927461823 727.6064182176611,1133.7911966488061 725.569553285099,1143.8476258982369 726.7500093082033,1145.5621418863325 575.8602972333998,1143.6988217415706 575.9876008403305,1146.2341363923358 575.7329928880057,1148.023745787724 573.9507361138851,1151.6348614277197 573.5051716434458,1153.6481016557047 573.2505633218542,1171.4359491217604 573.5051716434458,1173.9282197163823 574.0780397208158,1176.1328881874472 576.8150776085355,1181.8308030820074 577.3242935132085,1184.0992622953606 577.7062058109742,1189.243114702659 578.1517699121935,1191.617963937042 579.4248107816177,1195.8989935953596 579.7430712759063,1198.1353070788325 578.9155948769447,1205.0463844807778 579.297507174687,1207.1867350513999 579.9976792282312,1209.1673325186673 581.0161117760872,1210.8604049229543 582.4164566216623,1212.3617938811585 585.4293196064824,1215.119627963871 586.4477521543151,1216.87652461699 587.0842724044056,1219.0167185170824 587.4025328986942,1221.508252110409 587.4025328986942,1229.5362657816984 587.0206206009519,1232.0276374738212 585.0474073087169,1238.6817555640796 584.2199309097552,1243.5044906564797 583.9016704154667,1251.467546635328 581.970892151223,1260.6650326126705 582.225500472791,1270.7029036179806 581.9072403477459,1273.140427399892 581.2707200976555,1275.311815636523 575.6693410845286,1286.7537082099386 575.032820465195,1288.6375532761738 575.2237766140661,1290.6171639570862 576.242209161922,1292.1816779204094 578.4700304064821,1294.746597663679 578.1517699121935,1295.9917932290036 577.8335101563916,1296.5984236328059 577.4515978586259,1297.013485222252 564.9757989629481,1305.7082552107702 552.6060865294488,1309.4116422705722 518.0218138230704,1316.4350805968838 510.48965654569986,1316.8500926595598 503.86984461547365,1316.2116121922413 497.8229015011276,1314.7430973921482 493.62186696435583,1312.859549053328 490.29074385451383,1311.7421796838034 472.9137379992535,1308.230398756773 468.3307915339594,1306.6021841740405 462.3899348818152,1306.5596159197 422.96810738855106,1311.6144795746761 417.09090290910376,1311.5506298537848 415.054037813415,1310.6567278560208 413.0808245212032,1310.2097752419745 411.04395979475765,1310.8163533399781 406.84292525798594,1316.9139407199605 405.3789282396906,1318.137687955908 403.7239754417441,1319.127320098366 399.45928910151855,1320.3084867284217 366.636056024485,1324.649999598579 362.88058595817597,1326.1184272452922 356.45173017682094,1330.2150588497057 353.24791141239626,1332.7368312616625 350.95643799513925,1334.9712820720688 344.59123438650465,1337.652583146746 324.01040939755296,1339.5358526056227 315.65323619375647,1341.0057813148815 311.6191487153367,1313.7531064243908 311.95862586195204,1298.4073266075914 311.74645254270257,1290.5104010353807 307.9697650782167,1275.1411791187486 306.44211627620047,1255.7679547177468 304.27794710573113,1245.6546471170172 306.3148120382583,1242.737640112984 309.5398486262563,1240.2570785808396 311.78888728864433,1234.923210853933 311.06749742830755,1229.2271707280477 308.2243731434897,1225.6923313829973 305.04177130146854,1222.6365502844928 303.34438392610974,1218.3029912869385 303.8111653106322,1212.9684016036765 305.93289973511315,1211.3711846814504 309.07306683115746,1210.9878506502037 312.5102767384399,1209.3480213218832 326.1742472860994,1197.0913654490755 333.04866710064107,1192.5760805923849 351.1682798165352,1184.5675278295464 357.7456568198503,1180.488549836565 360.8433891699061,1174.2154542390676 359.23087128651264,1164.0757357898563 357.7032224844498,1162.6697578454762 352.7807981105516,1161.8815529482147 351.1682798165352,1160.475555223828 350.91367175129704,1158.5263106487484 351.2531493084888,1154.393407412102 350.234717047525,1148.342984040037 350.3620208748442,1143.6132675446759 349.4708924411997,1139.3414873365716 333.7276222150011,1126.3123780486133 328.42328594849914,1110.7037274363918 321.2518233227775,1095.5517302644546 294.34822968712206,1082.9452572192288 283.6546876621527,1075.2295497242228 273.72496983295565,1066.0959590440602 266.7232461910831,1058.0063667934178 250.30102085052457,1046.8358516274127 233.96366500193136,1024.0552963500002 221.93343032650085,998.1898739490963 219.32920816382313,983.0378093232719 218.42195992171156,977.7588398339221 221.21204046612897,973.8450649291027 226.38907290533515,972.8852683949879 231.24784495498577,974.7621989033009 235.63983562013712,984.0398634782877 239.94695638279347,979.2731342960808 242.68399400798654,972.3733744712409 240.4773900915403,970.7523650465737 244.80572843247907,969.3126378465896 248.6142420590129,969.8458721112842 252.7622328322088,971.1149610264482 258.0877866769933,971.9681234371233Z" name="Centre" name_en="Centre Region" gn_name="Region Centrale" admin="Togo" adm0_a3="TGO" iso_3166_2="TG-C" iso_a2="TG" postal="CE" type="Région" type_en="Region" wikidataid="Q515655"/><path d="M319.59687028278415,1420.7515185957627 318.4511333733252,1412.7114235104175 319.3422622175462,1391.1842332683107 315.60800949908383,1367.6543742819392 315.9474866456992,1342.993445690298 315.65323619375647,1341.0057813148815 324.01040939755296,1339.5358526056227 344.59123438650465,1337.652583146746 350.95643799513925,1334.9712820720688 353.24791141239626,1332.7368312616625 356.45173017682094,1330.2150588497057 362.88058595817597,1326.1184272452922 366.636056024485,1324.649999598579 399.45928910151855,1320.3084867284217 403.7239754417441,1319.127320098366 405.3789282396906,1318.137687955908 406.84292525798594,1316.9139407199605 411.04395979475765,1310.8163533399781 413.0808245212032,1310.2097752419745 415.054037813415,1310.6567278560208 417.09090290910376,1311.5506298537848 422.96810738855106,1311.6144795746761 462.3899348818152,1306.5596159197 468.3307915339594,1306.6021841740405 472.9137379992535,1308.230398756773 490.29074385451383,1311.7421796838034 493.62186696435583,1312.859549053328 497.8229015011276,1314.7430973921482 503.86984461547365,1316.2116121922413 510.48965654569986,1316.8500926595598 518.0218138230704,1316.4350805968838 552.6060865294488,1309.4116422705722 564.9757989629481,1305.7082552107702 577.4515978586259,1297.013485222252 577.8335101563916,1296.5984236328059 578.1517699121935,1295.9917932290036 578.4700304064821,1294.746597663679 576.242209161922,1292.1816779204094 575.2237766140661,1290.6171639570862 575.032820465195,1288.6375532761738 575.6693410845286,1286.7537082099386 581.2707200976555,1275.311815636523 581.9072403477459,1273.140427399892 582.225500472791,1270.7029036179806 581.970892151223,1260.6650326126705 583.9016704154667,1251.467546635328 584.2199309097552,1243.5044906564797 585.0474073087169,1238.6817555640796 587.0206206009519,1232.0276374738212 587.4025328986942,1229.5362657816984 587.4025328986942,1221.508252110409 587.0842724044056,1219.0167185170824 586.4477521543151,1216.87652461699 585.4293196064824,1215.119627963871 582.4164566216623,1212.3617938811585 581.0161117760872,1210.8604049229543 579.9976792282312,1209.1673325186673 579.297507174687,1207.1867350513999 578.9155948769447,1205.0463844807778 579.7430712759063,1198.1353070788325 579.4248107816177,1195.8989935953596 578.1517699121935,1191.617963937042 577.7062058109742,1189.243114702659 577.3242935132085,1184.0992622953606 576.8150776085355,1181.8308030820074 574.0780397208158,1176.1328881874472 573.5051716434458,1173.9282197163823 573.2505633218542,1171.4359491217604 573.5051716434458,1153.6481016557047 573.9507361138851,1151.6348614277197 575.7329928880057,1148.023745787724 575.9876008403305,1146.2341363923358 575.8602972333998,1143.6988217415706 726.7500093082033,1145.5621418863325 729.176501765654,1146.3829386209027 731.2558014441933,1150.1858308798649 735.6265745310737,1185.5473191163571 734.9051850812782,1232.7725798180318 733.8867524097265,1298.4073266075914 734.1413604749645,1363.5905693633285 734.4808380321562,1445.1885548521311 734.5141061536806,1452.4280522699546 734.6768828210503,1487.845714365332 734.8627499247601,1528.2786593369121 735.1173584005744,1589.6782944876816 735.3719668763887,1649.3578173906158 735.6690092770156,1709.7189183324278 728.2005038400908,1711.927402376802 697.1807451827812,1711.7150490235015 705.158466750217,1740.9113715196795 709.783848312947,1747.726742539607 710.4411572027904,1748.2169457959112 710.3994829646368,1748.2366251444325 708.5111389898744,1749.1283353868498 704.9466250724132,1752.2174436331482 696.5233388541174,1765.6666933129932 694.0409092879892,1768.8616813832473 691.431176114907,1771.154397674779 683.9838881549858,1775.0392156847918 676.9821642962609,1777.5229108491897 674.542169388834,1777.8731728494329 669.5773106257977,1777.682120793399 664.4851475173441,1776.7268580587886 655.3192549560226,1773.7655132509421 651.4152630303005,1773.5107719806028 646.5140564399612,1773.9565691685204 637.2845113366762,1775.9944867372906 629.2431374161459,1778.9557974888592 600.7694599968106,1799.9596432807652 577.7062058109742,1822.7121474274238 574.1416922627795,1821.1204067237825 561.093024920465,1816.6634645824977 559.4168546085463,1815.5492132679144 558.0165097629477,1814.105983095844 553.1789546068424,1805.7965913831936 552.6060865294488,1805.0643293333562 551.6513057850699,1804.300226995854 549.1052244154646,1803.0267159791397 547.004707516322,1802.3475069362116 544.9678424206332,1801.4560412344097 543.249237450013,1800.3098649164738 541.9125447771116,1798.7816197403847 540.8941118600357,1797.0623295813407 539.6210713598547,1795.6295762791322 537.71151024034,1794.7380799202524 530.5612652607118,1793.7829005972599 528.8426602900681,1792.891396167474 528.2061396707343,1791.4904522395407 529.0972682424164,1788.5823988722982 528.2697918434314,1787.4361472778444 526.3602307239167,1786.9267002858217 459.3346368690269,1783.1376437284516 451.5054369805835,1784.920738214197 447.43170641998586,1786.5446137969006 443.5913670362041,1788.61423935454 441.6818059167127,1790.5246436147004 440.0905049222432,1793.2734702047171 438.56285610047075,1798.1766860329346 437.8626836776832,1803.0903914866933 438.6901604458882,1822.6484779132159 437.0352072786983,1838.5227406138104 434.3618219329424,1847.6371323907779 432.57956478957846,1851.6795874419415 430.54269969391294,1854.5760991097961 427.6783578300192,1857.9500040372736 415.6269062600517,1869.00498083331 411.7441318483253,1873.7577962812395 407.5430973115302,1880.6003803576305 404.93336413847123,1883.8889812365446 403.4057153166988,1885.257447921054 389.062789960231,1894.1681652726013 382.2520222503771,1896.724620124731 365.80857962552346,1899.1113228241668 360.97633420195655,1899.8248654979898 361.14043239174396,1897.3395301159594 363.7289482007475,1892.1099173843056 366.6145072315537,1888.259223572771 366.86911529679173,1884.4296722532247 361.60721377623156,1879.3058103999997 357.8729610577575,1878.5419935302884 346.4155944265093,1878.9026853737973 342.55403788071607,1878.520776536086 338.94708898953786,1871.9963899478068 333.17597092797195,1867.7633818959075 327.7867655800809,1862.8512828840442 325.49529217171596,1854.2680813244901 329.05980631690574,1833.5353114117108 328.63545926778363,1826.871503895796 325.15581461454764,1820.2393065882816 319.17252323366216,1814.583191873885 312.00106060794064,1810.646100663564 304.9569022200912,1809.1603854189116 302.2410821731806,1805.552172889718 290.35936890338667,1783.508790878237 285.3520754480995,1779.666598138431 281.40564899975294,1777.3209129448114 280.0901735169862,1773.393683606921 282.8484283098854,1764.753498495895 291.50510540229266,1750.338176123605 292.4811033278676,1743.4167386863282 287.6435484458881,1734.732740995733 275.9740084953437,1725.7298422269978 271.26375785130637,1719.4445476241704 277.2470492321685,1717.597141364815 283.2727753590075,1717.1512125840286 300.58612872263427,1712.6494007653905 305.8904653997127,1709.7189183324278 313.7408831398643,1695.575517863198 314.03792554045606,1677.6930013095325 312.21323433781305,1659.1927813021775 313.6135789019221,1643.091208238888 323.50086198516556,1618.4475638480862 327.319983785017,1599.367712599816 332.79405862482673,1584.2808950729443 333.3032751658791,1575.3769591359342 326.72589816258727,1548.4074687534257 324.01007811567666,1544.8154819555973 308.90332825784975,1550.3840934481334 300.75586770651825,1551.8506075113937 293.2873622695819,1550.830425029893 280.3447815822593,1539.4167389604402 273.72496983295565,1521.3063779120218 271.6881049004284,1501.0469444689504 273.25818844846816,1477.149304224623 274.7434025045074,1472.0887104831802 277.28948397814537,1467.68715054186 281.4480837457414,1463.6469740331336 286.8372895041739,1461.244088182186 293.41466650748896,1459.4578501552548 298.973610839229,1456.608337727963 301.3075185830062,1451.0793001811996 301.1802147556403,1439.8930935846877 302.45325549246513,1427.1322794247492 307.7151570129903,1418.7521652025143 319.59687028278415,1420.7515185957627Z" name="Plateaux" name_en="Plateaux Region" gn_name="Region des Plateaux" admin="Togo" adm0_a3="TGO" iso_3166_2="TG-P" iso_a2="TG" postal="PL" type="Région" type_en="Region" wikidataid="Q316306"/><path d="M554.9014018984437,2077.6924510666786 555.9580957632583,2063.2712116109087 551.1205408813138,2056.763219640299 517.130354111832,2052.904968347692 511.4865398775853,2050.03243400763 507.07333204472786,2044.9338561519835 501.6841266968718,2036.61263144607 498.5439596008041,2033.019034381265 495.4462272507484,2031.3441218571913 492.39092964663433,2030.0826282559135 489.1234583126946,2027.7080321792073 482.75825462865225,2018.6334379034818 472.02227826831734,1985.7453704620723 440.705476389228,1985.6181341502074 432.3034077726235,1983.3702755090217 426.9990715061565,1979.3728444766675 413.6321441802533,1963.3293339780507 403.320514458499,1956.82886798692 383.0367325721123,1946.8603830229074 374.38005547970505,1938.0156006049094 367.88754796834354,1928.0886285789722 362.96512359443363,1918.3414865865748 360.419042120784,1908.265060985234 360.97633420195655,1899.8248654979898 365.80857962552346,1899.1113228241668 382.2520222503771,1896.724620124731 389.062789960231,1894.1681652726013 403.4057153166988,1885.257447921054 404.93336413847123,1883.8889812365446 407.5430973115302,1880.6003803576305 411.7441318483253,1873.7577962812395 415.6269062600517,1869.00498083331 427.6783578300192,1857.9500040372736 430.54269969391294,1854.5760991097961 432.57956478957846,1851.6795874419415 434.3618219329424,1847.6371323907779 437.0352072786983,1838.5227406138104 438.6901604458882,1822.6484779132159 437.8626836776832,1803.0903914866933 438.56285610047075,1798.1766860329346 440.0905049222432,1793.2734702047171 441.6818059167127,1790.5246436147004 443.5913670362041,1788.61423935454 447.43170641998586,1786.5446137969006 451.5054369805835,1784.920738214197 459.3346368690269,1783.1376437284516 526.3602307239167,1786.9267002858217 528.2697918434314,1787.4361472778444 529.0972682424164,1788.5823988722982 528.2061396707343,1791.4904522395407 528.8426602900681,1792.891396167474 530.5612652607118,1793.7829005972599 537.71151024034,1794.7380799202524 539.6210713598547,1795.6295762791322 540.8941118600357,1797.0623295813407 541.9125447771116,1798.7816197403847 543.249237450013,1800.3098649164738 544.9678424206332,1801.4560412344097 547.004707516322,1802.3475069362116 549.1052244154646,1803.0267159791397 551.6513057850699,1804.300226995854 552.6060865294488,1805.0643293333562 553.1789546068424,1805.7965913831936 558.0165097629477,1814.105983095844 559.4168546085463,1815.5492132679144 561.093024920465,1816.6634645824977 574.1416922627795,1821.1204067237825 577.7062058109742,1822.7121474274238 600.7694599968106,1799.9596432807652 629.2431374161459,1778.9557974888592 637.2845113366762,1775.9944867372906 646.5140564399612,1773.9565691685204 651.4152630303005,1773.5107719806028 655.3192549560226,1773.7655132509421 664.4851475173441,1776.7268580587886 669.5773106257977,1777.682120793399 674.542169388834,1777.8731728494329 676.9821642962609,1777.5229108491897 683.9838881549858,1775.0392156847918 691.431176114907,1771.154397674779 694.0409092879892,1768.8616813832473 696.5233388541174,1765.6666933129932 704.9466250724132,1752.2174436331482 708.5111389898744,1749.1283353868498 710.3994829646368,1748.2366251444325 710.4411572027904,1748.2169457959112 716.5309638895465,1752.758497062553 720.2227822726084,1757.1956730506743 721.0714759603112,1762.9065290309925 717.973743199644,1780.1548372393954 718.2283516754584,1787.1704791291081 720.0106085427825,1794.2495461417684 723.1507756388152,1802.654942203029 725.569553285099,1812.5669020544806 723.9145998345526,1818.9234520100947 720.6887778057056,1823.2355329340696 714.5789684489497,1831.4024928177353 711.1841932876439,1840.6127077189628 713.8151438426358,1845.2282655767865 719.119480109138,1849.5254121089863 723.617557433914,1857.748088883197 723.702426515268,1860.9415785351343 722.9810366549311,1864.3790328194566 722.7264285896931,1868.1665292936125 724.0419044830362,1872.367701957329 726.5031164647204,1875.741307942504 729.728152642142,1878.9875539971847 733.1653625493896,1881.735152335078 736.3903991373526,1883.6446583694437 740.2519556831808,1884.0902075425306 744.2832516234811,1883.7083085462525 747.2536801461827,1884.7479204647223 747.805331022659,1889.4473238238045 748.8661980296113,1892.3008590233674 755.6981835087523,1897.912339686279 758.2866993177207,1901.4128064723627 758.7959158588081,1905.5390372467964 757.7774831872564,1914.3427961787318 758.668611620901,1917.9278323809342 761.3844316678233,1920.1445835454535 770.2108473335381,1924.6734693107276 773.732926732751,1927.3037838002892 784.2991645197433,1944.2409248212587 792.276886087214,1975.0572298098339 799.9999999999999,2005.1692465619365 791.4706271454999,2005.6781452325022 738.7243068811297,2018.1245708164274 730.2373687726064,2022.608921181234 733.1939278796754,2031.1710016524296 733.0602752431313,2031.2043897937585 655.1408279728619,2044.2754790871115 590.0520276506944,2064.055880659899 560.7152889186923,2076.857924378708 557.4408007607506,2077.1249730219474 554.9014018984437,2077.6924510666786Z" name="Maritime" name_en="Maritime Region" gn_name="Region Maritime" admin="Togo" adm0_a3="TGO" iso_3166_2="TG-M" iso_a2="TG" postal="MA" type="Région" type_en="Region" wikidataid="Q316291"/></svg>