<?xml version="1.0"?><svg fill="#3498db" stroke="#ecf0f1" stroke-width="1" width="800" height="568" viewBox="0 0 800 568" xmlns="http://www.w3.org/2000/svg"><path d="M328.0276975745405,2.902954187674376 330.83081366899194,4.111078130079947 333.1921630012292,6.24224816133755 334.6016096770242,8.539445262528888 335.9163920975228,11.779485495257665 336.0846842652661,14.075236879079943 334.06517845598285,13.603650994577361 332.3507021625476,11.959838198074085 329.3740348146539,7.9426482748643075 327.6805950676372,6.207542580021481 327.5754124373619,6.096484148002227 326.38684909178295,3.32651076711086 328.0276975745405,2.902954187674376Z" name="Leninabad" name_en="Khujand" gn_name="Viloyati Sughd" admin="Tajikistan" adm0_a3="TJK" iso_3166_2="TJ-SU" iso_a2="TJ" postal="LE" type="Viloyat" type_en="Region" wikidataid="Q373808"/><path d="M368.0286381604681,107.09422859186667 370.12177178041037,110.3190048569414 368.42833203339967,113.55633140039332 365.0098977197491,116.0863902600125 361.8807155630336,117.14893846364656 356.44803452581664,115.92871117444709 355.0911790125004,116.40859573597953 354.386455623714,117.02555235737665 352.53524198217576,118.00574014441217 352.466873359002,117.80696941043242 352.1250299378045,117.47796006048874 351.62015343460274,117.23804971717593 351.0521673939398,117.3134507101323 350.7050648870305,117.62875749411148 350.07396930891076,118.47865951165154 346.09806722780024,121.8569060862915 344.7096570984127,122.70640623803305 338.20937270481795,124.89829179009973 335.51143913888035,127.4456839839345 335.03285836957133,130.84107934646232 335.1590774444842,134.9193280762041 334.28606198973733,139.5017213720025 332.9186882032224,141.90141358254868 331.15162064553493,143.72639078273414 329.11633737556184,145.01117068622352 326.9232803128243,145.80381547032076 322.60027562304725,145.94730415050694 321.4117123792316,146.55539680251078 320.72802553686466,147.7304704478491 319.8918238856691,150.64699462495227 319.00303097023243,151.7942198644485 316.80471472000295,151.01576155536006 316.0316227080437,149.27422889081015 316.3208747632078,146.9721556077735 317.2727773178825,144.4986476085449 318.5928189258663,142.64648652693066 320.14952122298604,141.53227198706674 321.83244279856893,140.6640456325133 323.45225473492667,139.52223424447016 324.9458475963664,136.58157132791914 323.9150581453091,134.23518781221057 321.53793155591876,132.60672372020016 319.00303097023243,131.80606763682158 310.9039711866875,130.5878382440493 307.0227335644305,128.89025352274672 303.4360069812675,128.43157659442883 301.6058298861342,127.46622448240689 299.97549967657955,125.69271768527072 298.708049434618,123.85036352023333 297.2512704785056,122.2337104737775 295.0161403229556,121.11010145493803 292.67582763889857,120.9251034646446 287.61654484248356,121.25398609013196 285.4129695065483,120.54824405667837 270.903030600765,111.02555555626793 267.3373406657898,110.64827816444799 227.23121744959363,124.9736283420786 225.53777770257702,125.22017984659233 223.92848403942904,125.04211562630296 223.27635191489065,124.40516437489363 222.20348947279513,122.37757716233614 221.38306528230135,122.1240962871851 220.9202618719189,122.70640623803305 220.4890131793718,124.9941745161241 220.19450193672242,125.8570728111901 218.0961091292865,128.9313279753497 216.460519935785,131.94293703402246 215.79786953804282,135.32978718771614 216.61829372853745,139.5290718140932 217.01798760147494,140.31536416030553 217.23887103345942,141.12893326240203 217.32301721909218,141.99711461644068 217.23887103345942,142.90622226158703 219.59496117821226,147.19760721569034 219.71066197992732,148.94637316593693 209.91816244936493,152.42922813476062 205.02717182069497,144.05443709313212 202.02946792638264,140.711902813094 200.6200211488082,140.42475589856915 200.2466230097856,140.70506601305536 200.22032727588177,141.51859976475214 199.77330132618914,142.844706586498 197.81690505436273,147.19077548806231 193.16257531836624,161.3009928559333 192.02660313527633,166.36762057959902 191.69527798729365,171.58129224207937 192.4105196492821,173.99968413014946 193.94092641604746,175.75005875463975 195.72903062190574,177.2822090993218 197.17003201554803,179.05917726615925 197.92734677035412,181.2305521963058 198.29548592544012,183.72120413661915 197.79060932046914,199.39790070406335 199.2316109176498,202.56257395985924 203.2390678183691,200.9260462323452 203.87016329472056,199.96843851949743 204.1226015463257,198.94280318348626 204.49074059964167,198.0936790981186 205.4689387864399,197.6656903213572 206.0369248271028,198.0529190905792 208.50345658607785,200.60685496094484 210.6123676667218,201.32671733434873 214.99848179219168,200.61364632585324 217.23887103345942,200.62043781708786 219.15319421246733,200.33519395229078 221.0149262289854,199.67638204425973 222.75043906882735,198.6167488422938 226.15835510926814,195.6613470251384 227.92542266693863,194.94782954361148 236.79231527494994,194.39056723834528 240.95754607020365,194.8798725995386 244.97552114235756,196.22532583402307 249.22489802147996,198.6507133459576 253.17976355617785,199.85297547326707 261.0474215327526,198.2431307568422 265.20739314051514,198.69147066094865 268.2734657597695,200.09069198157576 269.1254448716481,199.41148537450965 270.71370198839105,197.14256572559452 272.4386965550232,195.60019057054987 274.5423484481752,194.94103392478144 276.7722194162332,194.96142076595345 278.85483476298526,195.44390013537415 282.2680098891438,197.43470398628637 283.9141175593934,198.03933238060785 285.5970390332071,197.48226049397368 286.44901804331136,196.21853117490656 289.2836889573724,190.10801519646267 290.8561688169682,188.90445689017284 291.8343669019853,190.18960654788594 292.29717031237965,192.6370054577 292.3182068587915,194.8798725995386 291.23482614348194,199.60166835695145 291.40311820944925,201.44895245440858 293.1596675956928,202.10763524988943 294.9688081444245,201.67304580073287 304.04606601298656,195.00899040931145 305.3608485352543,194.51289609343496 306.40741534522544,194.63522316236035 308.5268445973031,195.28081137301828 309.5471157751396,195.3011977113223 310.16769308006155,194.8866682643264 310.6725694814933,194.1662933290432 311.29314678640935,193.47304833804418 312.27134497320753,193.11960859409945 313.9542664470264,192.77295268162572 317.2464816857581,191.528959660126 319.00303097023243,191.31141337024926 320.4019595763621,191.882461461753 322.69493998011376,193.90123540132117 323.9781676827711,194.675998571981 325.75575351365126,194.85268962632702 329.4897356163638,194.15949699142269 331.2778397204529,194.39056723834528 333.74963066691487,196.26609407597834 335.1590774444842,199.03110742000155 337.15236975908624,205.31898305076993 333.47097905234426,208.12873435734429 331.845907856339,209.07190982271896 331.40414101546264,209.56042245716515 331.057038438793,210.19137893943108 330.52060715066295,211.67022322692347 330.1735046655163,212.28068497443897 329.2899708922405,212.83684760666918 327.91207892866896,213.26412026363164 322.33740147337767,214.05079170790287 321.80097018524765,214.301698411285 321.5011997864424,214.83739494005002 320.8701042341006,216.43073564942588 320.412559878574,217.00020224643606 319.7972417493594,217.4815093591956 318.53505064467663,217.556075660467 307.95368159392535,220.68053587918692 303.8305238632592,220.85672068125115 302.82077097951725,220.65343012185113 302.33167196077557,220.26716567421946 301.44813818749384,219.35904065651138 300.9274843224918,219.00660962598513 300.2648339238889,218.8574998854713 299.5180376041822,218.9998317974282 298.79227760458593,219.38615027801873 298.0034081870407,220.3620392114884 297.26187085583433,221.98151238588 296.8989910390853,222.54724354234864 296.4098918372907,222.95712249379127 285.60763950339134,228.18569142212272 283.5881337358981,229.7157656921173 283.1095528772065,229.97300971161084 282.6362311900698,229.97300971161084 282.30490603653243,229.34342626868366 282.22601910392984,228.60885727584704 282.1944643491934,227.06166747188863 282.0682452387256,226.38447755067986 281.73691999366514,225.8528481002364 281.2004887970531,225.44309975481806 280.0487393797101,225.37537090241273 278.5183326309585,225.62935114280128 275.70469827437114,226.74339453715024 274.4582845012908,227.56275554247657 273.6378603290134,228.32449189648023 273.22764815134445,228.85259176638905 272.67543953160606,229.1267853919207 272.0285665561354,229.11663014133907 271.19236496072483,228.52422560992179 270.84000330402415,227.86068673333156 270.44556854948917,226.79079762798688 269.4200382426175,226.67228937847835 259.15421701379444,228.09089965671564 258.3180154183831,228.32110663335465 257.45025897671053,229.09631984180868 256.92960511170855,229.7868470535568 255.90407489635567,231.6922950072128 254.76810290213908,233.31313447343848 253.8162003563159,234.1623525765201 252.77489271783497,234.86602718808763 251.63892063209533,235.41404360559844 250.91316081554768,235.6203869524875 250.02962695074203,235.6508306646158 248.58862547770192,235.24490628810005 247.79975596863113,234.79160264187374 247.1844378394182,234.2909126460934 246.5060100176855,233.23531367427182 245.685585845403,231.51631999941273 244.5653911827965,231.5636982164648 243.60297047691813,231.71936762917892 236.49262710132714,235.87408152111922 236.90283918746624,237.1323014334197 237.4603069787604,237.87970991291786 238.75405283818128,239.20866055488682 239.08537799171697,239.96604170564314 239.27470670318326,240.99381559963473 238.76983035283234,246.34042616931535 238.34384084355924,247.79989125971275 237.99673817536652,248.75247174365435 237.4077157208641,249.69819787811105 236.9659487884647,250.27234078632483 234.64667262216702,252.27142764951358 234.59934044430173,253.21678930342645 234.66244995377625,253.7670796000132 234.78866906424412,254.44561298484768 234.97799777570953,255.0498363627422 234.47312124231084,255.7417751673021 233.28981707022893,256.4235365650686 229.8135323150394,257.46295619912803 228.33045774415223,258.1918293004622 227.32070486040945,258.8869040764774 226.51605801973534,259.929417053268 226.0585137557267,260.37135269073053 225.55363731385188,260.65472005089805 224.96461476782557,260.63447977458935 224.38085139334905,260.10821803112236 224.0495262398125,259.55493584677026 223.90752970621236,258.8700339390712 224.00219406194722,258.1040976657571 224.60173485955175,255.75527576130625 224.7437313931468,254.15867715609787 224.66484436902118,252.6934762148054 224.38085139334905,251.35298277258357 223.90752970621236,250.16426976020546 223.197547221268,249.1172635193892 219.59504326408674,245.7964454115553 219.21638602420282,245.59709023414624 218.1277462078583,245.57005883357553 210.47045329255735,246.5836865128685 209.66580645188327,246.51611487881146 208.73494050073623,246.67152906498856 207.76726062330465,247.12086363268858 206.42618258601763,248.33361880375512 205.82664178841395,249.33680702855904 205.4637617886154,250.33650762795682 205.33754267814925,251.18414086814892 205.10088188034157,255.91728297730023 204.70644721733134,256.61590572376923 203.9649098861258,257.12549529062335 202.255692677493,257.2672303506905 192.42112012949707,256.91626323581636 190.71190292085828,257.4224615765162 188.34529466822093,258.4212772491278 180.9246626422507,262.53012048014875 179.56254801028928,263.5553565547941 179.1523358326203,264.0746757577962 178.44235334767595,264.6951223525364 175.33420767231428,266.0977160414341 172.09458380644864,265.43690545339905 169.6017562602948,264.83674008297896 169.17576684255326,264.6378002611993 167.67165567698487,264.25002372976076 167.05633754777537,263.88920805811676 160.6296810739455,262.2265745002117 154.92878441666414,261.734134093766 148.72301140903784,262.202964998185 147.52392972230487,261.936510140121 146.8139472373605,261.4642925914438 146.54573168481727,260.8807329748339 146.22492469133505,260.35448529353505 145.72004824946023,259.9699005666665 144.31586070270126,260.2026774353331 134.65483935151798,263.9397904777258 127.71804726426524,263.56210120241184 126.94495526984635,263.791414383391 126.26652744811621,264.37478837108847 125.68276407363969,265.9493749506901 124.81500772349106,269.4718262187729 124.6099016804215,269.9941795391256 124.57834683416034,270.0582078263774 121.35450029990992,272.3123949125064 119.8872031521576,275.2026029443153 118.78278591267825,276.4419467737038 115.21183680175132,277.87641244412384 113.17655361113174,278.4016536784659 110.26825489880862,278.2669791940151 106.59212327209848,279.72809020425126 105.92947287349381,280.09164842507033 104.99334775079866,280.46192455888684 104.33069744371959,280.5460759592863 103.49449584830909,280.2633237794458 101.49076741241994,279.2668890409483 100.74923008122123,279.03459650287033 99.45022514177617,279.1086614414365 97.80937661416085,279.4722442260463 92.14003480313981,281.7947941979577 90.27830290085166,282.3130802887207 85.2558339737825,282.46115649920176 82.52108654979764,283.1678515831213 82.50486807087728,283.1720424229435 80.60142203212263,280.3608364404425 77.167210257778,272.76373414498136 75.61050796065655,270.8735825795365 75.58947141425071,270.8702130051202 75.57369405532411,270.84999540215284 75.5526575089123,270.84999540215284 74.7585289505472,270.64444673766303 73.92758638507365,270.570313436855 73.096643921371,270.64444673766303 72.29725627728307,270.84999540215284 70.60381642850236,272.0966663415627 68.91037668148572,272.70983154254293 67.23797348088003,272.39314690550174 65.67075280877117,270.8735825795365 64.87136506291831,270.4018260502405 63.15688876949498,269.81209642662446 61.694850625902504,269.79861642809743 60.26436750545802,270.1827880201086 58.907511992141764,270.86010414402347 58.8812163600182,270.86010414402347 58.8812163600182,270.8702130051202 58.87069808680847,270.8735825795365 51.14503644230318,273.48128310761604 48.4102890728015,273.5284439782469 35.399202114173114,271.41607245257876 33.641634914511755,269.6727827541257 33.537470199423396,269.5694536766793 33.53286458125844,269.540487966901 33.027334610506436,266.36057299944565 34.18434323823897,256.2344331219543 33.99501452409578,254.4455074272887 33.98024489539247,254.4203341110952 33.064148515832926,252.85880834634764 32.412016493070524,252.64947857443204 30.71857674605389,253.01073831267024 30.024371528708915,252.88919454190267 29.456385589808374,252.2780752376122 28.646479570753446,250.8193263148821 28.204712706777702,250.31276181168442 24.186737634619544,248.69832169300958 15.908867410138619,248.38755997648497 3.613022215274681,244.00536628596444 0.7520556690909309,241.34529016187338 0.7477306318403831,241.31538947036157 0,236.14457546724182 0.17355135521828233,234.2772743284519 0.3839165139998266,233.36378106068705 0.8677564707940727,232.78180419009664 1.6290564475900948,232.1035719073261 1.8249180094164172,231.9290732028976 2.9082987247199714,231.57036085250064 3.8233873740621855,231.85462460327747 4.496555943226171,231.61097042873524 5.264388971242853,227.2647087750678 6.5528757596161915,222.85539548848476 6.663317373840091,218.0169121887141 7.336485943004076,212.74178951614354 8.609195372456773,207.6875415648723 9.545320451198409,206.49310620442202 11.091504592122492,206.30306794449496 13.71055115992104,206.66277997833376 14.215427663122833,206.54740225193686 14.688749346719266,206.30306794449496 15.109479766051539,205.9161918588953 15.456582272953991,205.4478462377686 14.75185888417613,199.62204496193584 16.766105607735728,197.65889674391858 24.901979296607138,196.38160289987965 34.37367185061466,189.61165172860916 38.1549861318575,188.39442609270006 42.93027585704831,188.49643460813454 77.70364158059962,197.5026417403352 92.93408123408224,197.9713986561426 101.24876526213238,200.94641985625032 106.23967933359164,201.30634456627385 111.29370304428292,200.8309691526093 117.54680817021851,199.17375102642472 119.5557958080672,198.24992389565935 119.53720327713265,198.20720312325713 118.81367679451422,196.54457623005487 118.46189681956498,195.73609325604775 119.83978877752045,193.7653051405844 124.18383001370933,190.9986812327314 126.63458441376883,188.42162849364885 127.9914399270868,185.83023541438754 128.5489075927657,182.6665037251841 129.56917877061323,161.4101291783532 130.6210046663012,158.5721512068975 131.79904984045234,158.66085162406804 132.05580081903742,158.76672086797944 133.15590525200025,159.22032615692856 136.61641255669417,156.14278575827316 138.2888158590682,157.40531889289238 141.00252678393323,161.82619980747756 142.36990046869087,162.52870141686867 143.05358731105693,161.66932300130915 143.27447074305417,160.35963602676804 143.28498901625113,159.69789873635224 143.26395257161957,159.51369511761706 143.98971240503667,157.5281503873117 144.33681501371424,157.31660622176835 145.40441837009206,157.1323538176544 145.7883347823278,156.86620483373662 147.0242303064557,154.3339833145822 147.05052593857928,152.4770226285304 144.7733227919791,147.62799914469724 143.78986551946315,144.7719968840006 143.42698555185893,142.29788225041204 144.1264497531635,141.26566022325883 146.25113819272218,142.73534449171976 148.32323526625768,147.2727565374956 149.87467857942974,152.98909051654513 152.204473092059,156.5863985392557 156.53273686756486,154.77768563781513 156.1908933446033,151.84201773664412 147.2293362777444,139.48804605349747 146.72445987630752,138.16144272664906 146.57194516926512,136.9167189393813 146.78756951554465,134.20097944746522 146.4404669068662,133.19519445661942 144.63132625636533,131.74447573225595 144.41570191009686,130.55361607803943 145.73574351808153,128.11665045584851 147.33451890801976,129.40366990622618 149.6485359599541,133.54415303585654 150.96331848222104,133.12676965318994 154.5710814082456,129.9786614548295 156.63266031034823,129.3146799150895 164.0375148765354,130.4783264815276 166.3515319284689,130.10186913464108 167.18247449394244,128.47949916013727 167.34024828670002,126.54870113640237 167.01418232620935,124.52159964596298 166.3515319284689,122.66530319851555 161.6077970228928,119.24624338086997 137.7823178044759,123.89481131535703 136.81625954404197,124.08324712282459 133.21901478945713,122.69955567828151 128.66460849625503,119.84244617382808 126.03504365525953,116.93643885194172 128.1597319930439,115.44880070132142 132.3057827213134,114.35265812733316 137.9627497968024,112.85683893903322 140.2241755844879,112.65109546516963 146.1196600320805,113.6797655669322 148.5020457071937,113.36431936469657 152.04144001003854,111.33422511494243 154.06620500680873,110.4973626897938 170.6219452522237,107.9314101777767 172.94122149165347,108.31566390494415 176.1593994975127,109.93976655382586 179.65713012974663,111.70461452496147 188.80801580897358,114.44776181560076 193.8725577928686,114.61232381100942 197.69594506516162,112.85683893903322 197.69594506516162,109.71530564329021 190.29109039720356,103.05818573690847 189.87036007963536,99.13021333422792 192.5419980134502,98.79364569337393 196.46004954104563,100.29093094922565 199.73648731908753,99.72776138909192 200.48854298817758,93.2143863399591 199.84166994936288,90.2653115616868 198.73725268764667,87.7416674175922 196.0866514020128,82.9674777740535 195.09793494201762,80.59318683256615 192.92065533997422,73.08763206541087 192.91013706676617,73.08763206541087 188.8185340821833,66.16863856925161 188.8606071749967,63.41056305315775 192.5051840063486,60.90686642987619 198.68466142339955,60.389485599068685 200.14669956699117,59.49951988536008 200.56742988455937,57.69171702475174 199.8679656832667,50.58803187707541 199.9258160332307,45.66941017239185 200.6410576952251,41.6606439913887 202.2082782655486,38.175686800057754 204.80102930298767,34.82772628153675 206.24728998588435,33.61689063330233 207.87236100795892,32.71730507573591 211.18035370738474,31.630760465142075 213.0210489739577,31.838390690319304 214.3779045890389,32.93875016079346 215.65061391671816,34.29497899041223 217.23887103345942,35.270504582958495 220.4890131793718,35.58873784603318 222.79251205986472,37.739970451711116 226.75789576599635,43.914070853553135 227.95697738479183,44.992194633803244 230.5234326883245,46.678226959630635 231.64888639467821,48.03234802980011 233.51061830942794,51.20266735932527 234.5624443068851,52.60442872433213 235.8456719077741,53.77124316586598 238.9801132519697,54.93100071759605 241.70434245004446,54.09571430582994 244.13406040545027,51.93464935229891 248.40447372921614,46.519311530022264 250.4187204527817,44.82633805873502 252.65910969405115,43.706724421685095 271.41842527540655,37.816049497064355 281.04263273999396,30.41256393808994 291.60296519679196,26.223729250170106 298.97100585765776,21.78346857682199 304.6193111393663,15.17781670990836 307.4329456087839,1.0140595360243636 311.2615920685748,0 315.7949618153694,1.8891126250704053 317.04689665533647,3.2575906384371023 319.00303097023243,5.39539555852356 319.26072840931937,5.846597644811268 319.5815352840923,6.24224816133755 322.7896043371862,9.052936095405897 341.3543322204549,30.02492055380951 342.1957929573571,31.201642217005894 341.9959460717836,33.679166246065144 339.9922177231961,32.93183001487588 336.4528233185761,29.851860125499833 334.4227993378591,30.073377025893187 333.4656376974727,31.769181158276698 333.7128168633567,34.073568209132574 335.3063330658106,36.13524219969208 344.61499274134025,38.2932573307451 348.50674873858213,40.547543286407 347.6284739945783,45.05439008047289 347.4036172013548,46.1705213793693 347.3918131018921,46.22911042241656 345.81407425836056,47.22404557116204 345.45645347825354,47.77673901894703 345.2881612087402,48.40538571104169 344.94105870183773,48.92346763820234 343.2686555012329,49.30337506935575 342.41141730363665,49.72470777903115 340.95463844929856,50.87118386951282 339.42949087001415,52.272997884823525 333.24475426548906,57.34667450860101 329.6738052447901,61.77599837980448 328.37480018321304,62.88643165367009 326.83913422895483,63.610552445137195 325.3350231960882,64.03120487910296 323.9150581453091,64.66559384935223 322.5371661873545,66.04454371180836 320.086411685536,70.2076708859516 319.0608814219648,71.55130969955027 318.08268323517933,71.9509168628566 311.0775225419109,73.5904958644961 308.0535229137067,75.54657194716334 306.44422925055875,78.12875916859281 306.60726233257833,80.93044370980323 306.77029521104936,81.55674370694129 306.9491056519956,81.91460956556871 308.29018370461694,83.87573435506268 308.2323332528718,83.82757143315415 308.4532167866314,84.03398170009449 309.32623224138507,85.07971928719782 309.61022531260755,85.64381625323313 308.2323332528718,90.27218707391658 313.30213442426395,92.5270437984637 315.4373410352572,93.14565463345183 317.6672120033263,92.94632911183471 319.5815352840923,92.3551998039827 321.5168950095129,92.14898265814449 323.7678025239827,93.09066867337081 326.4709951756508,97.5159464948927 327.82785058718764,103.66233559684377 329.6475095108974,109.30366898516621 333.74963066691487,112.24645287826651 338.0410805370815,112.52078897674875 342.40615821791295,112.16415045814355 356.910837936211,107.70496721570223 365.93024535303306,106.88835223767879 368.0286381604681,107.09422859186667Z" name="Leninabad" name_en="Khujand" gn_name="Viloyati Sughd" admin="Tajikistan" adm0_a3="TJK" iso_3166_2="TJ-SU" iso_a2="TJ" postal="LE" type="Viloyat" type_en="Region" wikidataid="Q373808"/><path d="M319.665681367961,154.2657195352958 321.1908289472522,154.30667781225316 333.5234881492135,158.42886429290002 337.09443727167394,158.55168193844187 340.3130245979699,157.08458394207847 341.5646974810057,157.40531889289238 342.32727132153633,159.841165565493 342.1642382395218,162.2081492438778 341.11767142954983,163.1629520417279 337.76760584084303,163.82443440789763 334.85404792863704,165.32452394603897 329.6264730662548,169.5302600458376 329.0427095649012,169.06683915355768 326.13441084016927,164.11083440343427 325.1246579355315,162.8356024838808 321.6746689040473,160.43467535794275 320.3178133907293,158.4970963345668 319.5499804644827,156.3065837999094 319.665681367961,154.2657195352958Z" name="Leninabad" name_en="Khujand" gn_name="Viloyati Sughd" admin="Tajikistan" adm0_a3="TJK" iso_3166_2="TJ-SU" iso_a2="TJ" postal="LE" type="Viloyat" type_en="Region" wikidataid="Q373808"/><path d="M418.9738276154227,189.87683559072278 422.3817437576386,191.9640367970035 424.0735170148186,193.44283300875637 424.20140257956814,193.5546091916027 425.67395889460033,195.52544321656774 426.2840180280826,197.63851584954102 425.7370684320512,199.60166835695145 423.1495766838853,203.40448945874815 422.2870794005611,205.4478462377686 424.4012495669211,210.02166518184902 428.61907152465955,211.94822167999473 433.5521352461429,212.1856210526021 443.91262081736824,210.0013120884677 445.93212662665064,209.94703677434666 447.5414202897986,211.39878783048093 448.4565088373708,214.3965283783344 448.71946536217035,217.7864439894176 448.34080803565064,220.42292295701716 447.17328113471433,222.38792345274342 445.8059074499686,223.77671920301674 444.76459972570325,225.40912952863226 444.5542345669277,228.10433556614228 445.31154932173376,230.71074729677045 446.79462380819456,232.80210629736555 448.6563557229443,234.22314400708095 450.61275199477154,234.83885805462788 454.3362158242744,234.40583266596863 458.0491614823486,232.80887361273747 468.10461743593373,225.73422191897953 469.81909372935706,224.840189828804 473.61618536952733,224.0544527745385 477.1818754062769,222.1101387965176 479.0436072192557,221.82557028469543 480.78963833228954,223.18735373692374 481.92561031185295,226.0525302104268 482.5356693435652,229.37717013416352 482.7039615112983,232.14564728082433 483.6190500588696,234.11488226752607 485.73322022521853,235.02153448619998 490.1193344524695,235.74543816432987 490.98183163401427,236.25281293794734 492.53853413467834,237.48392501639648 494.6632224724618,238.59989932267726 494.9787702615298,239.41143093841185 494.9892885347276,240.42236312847857 495.262763230972,241.67657447600044 496.2199248713635,243.82287007306522 497.2478146809818,245.31225990660548 496.8563617226352,248.2863277284099 496.77747479003267,252.09584973981296 496.41459488175883,253.33832871081563 495.68883497368137,254.39160215592744 494.2846472438788,255.2422344586504 490.8083625802072,256.61590572376923 488.3944220581798,257.96912424788206 487.3163004934127,258.84641564740684 486.669427426413,259.8720650729461 486.41698929700374,261.36984610740865 486.5274309843419,262.8707543411211 486.7325371189362,263.90606893486 486.4643214748682,265.05927800172043 485.6438972110661,266.47530062716083 479.8641136211822,272.06308016225836 476.71915411105306,275.701054782197 475.56740469370845,279.1625264328493 475.2203021170379,281.9698032223455 474.82586736250374,283.2755336919731 474.731203006774,285.0857491830182 475.0940830065709,286.86869799597645 476.34049668812736,289.9090043317867 477.4028409212886,291.8288561448253 480.3532126399221,295.0590847988294 477.4343956760267,297.35417663380707 475.61473687157286,300.3271990766202 474.25788131963566,301.85868641476856 471.3548417788674,304.43410039900334 469.4878507050252,305.4714495651578 467.8312248458066,306.0723200029063 462.80875601026054,306.3374961719874 461.21523966051734,306.6160907462983 458.4489374817884,307.4920982558522 457.01319508877333,308.6230652370368 455.79833607043025,310.0223188812829 454.61503189834923,311.1563300831678 452.95314686758167,311.8071493145009 451.3596306093624,312.22982167576794 450.5549837686815,312.96777464928107 449.9554429710778,314.29594104018327 449.2139057314021,315.5769708795462 448.6143648422677,316.11682813993866 448.1094884919228,316.23753724767795 447.7413494120949,316.03300137636944 446.81048336942393,315.2617602175379 446.1793878170881,315.0437890721622 445.4851826637479,315.06726309048 440.8729259143409,316.5828905619586 439.5318478770564,316.85782280351634 437.95410895043955,316.94164195470927 436.49732996274156,316.71029918216124 434.71448508457985,316.83100052360993 433.7362868640436,317.2232688594998 433.02630447062313,317.870307591284 431.9218871396199,319.5195481335418 431.196127323074,320.3172459125639 430.73332388751464,320.9473111399854 430.0233413110464,322.5725471148059 429.29758149449964,323.6681634237371 428.30360594235924,324.2510987470848 427.0256374145416,324.79044888623787 426.4418740400719,325.44365672175536 426.2052131507412,326.62601308915913 426.2367679969973,330.07843133252237 425.8423333339853,331.29032292587516 424.985095052368,331.9999756373568 424.13311612535335,332.2543662450652 420.97763827212043,332.1472552447641 419.55241413068364,332.49870845144414 418.77932204474087,333.0810871933239 417.24891529598926,334.9350834121985 416.74403885412124,335.90209299060587 416.38115894584746,337.16005785000283 416.0498337923049,337.9696149431345 415.65539894624607,338.2706719302759 415.150522595896,337.92947331054575 413.8830723196626,335.848558700937 412.8102097433975,334.6238790296241 411.5322413071097,333.727016167907 410.08072149095983,333.26516475906385 408.2978765212751,333.58310845922654 406.5255498031686,334.4967172383391 403.9065031465418,336.209908593002 402.30772780829744,336.7652893010056 401.1402009678197,336.82550931664485 400.4775506607406,336.4708747466508 399.79912293053263,335.7950242180134 397.95316835985545,333.1312905926567 395.15531133487127,331.1664627965969 394.20866796059624,329.7503228333819 393.64068210077164,327.88858904659503 393.3566890335756,325.34316622409034 392.8044804138372,323.35322889749574 391.67902657967494,321.9291890651046 390.3379485423905,321.00763430294217 389.09153486084,320.77639344852406 387.5453506889604,320.99422920264874 383.92706940016905,321.9258379806048 379.5041413622292,322.12689226732874 376.4591051963352,321.2288157056028 375.54401666832297,319.8815371890466 375.5913488461866,318.35639492812356 376.53799222046166,316.32806792508325 376.9639817297339,314.8459338075293 377.07442341706775,313.39710181752406 377.0113139076,312.03190612753866 377.42152590221355,309.26399670448916 376.97975906133803,307.4920982558522 373.7243578638683,301.52621414111775 373.2668135083408,300.31040502149926 373.18792648421436,299.1784161468599 373.40881004193585,297.98245467401074 373.48769697453844,296.54776743560916 372.8566014222026,295.75809001566563 371.51552329339165,295.30777552328266 369.44868534802885,295.4623635401231 367.3923656542511,295.9429142902168 362.41722890504724,298.1067612273597 358.9777580761422,300.66979080511027 357.8260087503223,301.0459551761521 356.3061202531498,301.2004467640512 353.08753279892437,300.95863255400394 349.9583506203986,301.39523702640923 349.05903942399476,301.28105012737484 348.61727258311157,300.71345353214275 347.5759648531076,297.54568828784056 346.26644166208433,295.86562458898686 344.998991294327,295.59342529519546 343.64213583390773,296.0672484211307 342.06439690729167,296.8535391867964 337.9254618450222,298.2680213581811 336.36350034153935,299.2959882397592 330.75726813151755,304.2158729419024 328.9744230703081,305.25660361351737 326.2870077326578,306.33413964954764 325.9083504927807,306.8611127092956 326.3658947567894,307.6263449399286 329.4161900027075,309.91159426098443 330.53638466531487,311.310652252654 330.9939288377996,312.84366857773216 330.83615497259535,314.5441125344111 328.94286831556997,317.57529037119025 327.785859818196,318.8625690479574 324.47260800824006,321.5639292068935 323.0368656152182,323.0315826147679 322.24273711764795,324.5928024689041 321.8167476083757,326.2240958669004 321.21720681077113,327.4264459982528 320.1127895712918,328.65877626243065 315.1218754904838,333.01080206965185 314.5223346013503,331.02921046085237 314.0174582510053,328.86972930106697 313.5756912270752,327.6575204114241 313.30747567453705,327.0948943605858 312.9603730978665,326.5757743488137 312.51860625699015,326.1236138584604 308.39544852632565,322.9712726748524 307.8274624834575,322.3312931143478 307.55924693091345,321.90573238109044 307.05437039751473,321.51031192016916 306.3917200904425,321.2087085879807 300.3700166227275,321.80520337684504 295.5894676650133,321.6678119012362 294.5323826033984,321.8487659670119 293.7540314374314,322.14699761847004 293.23337757242945,322.5088835368838 290.4881118968587,325.1991280503496 287.5798131845424,328.69895814816306 287.12226882900814,329.0907227583523 286.7278341659979,328.76592768606235 286.44384109880184,327.63742728452473 286.8224984302037,324.5492528220923 287.40626180468024,321.6041420842143 287.48514882880585,319.9519222621627 286.75938892073515,317.9574699539812 285.2289820804597,317.0925146009427 282.6046764353385,315.647388917267 280.3011776006441,313.2461688168193 279.0389864959605,311.4045862312172 275.4364825387792,307.87134002724616 274.67916796749347,306.86782560245325 273.79563419421254,305.96154800565773 272.3441142865439,305.1357505770506 270.44556854948917,304.58517796066775 269.10449042068507,304.71946703218157 267.5109741624598,305.5117326959822 262.72516612471964,307.28736832724456 262.1887349281093,307.61292037125645 261.2263141307062,308.4552747048395 255.11520538728487,314.9029434740012 251.38648250268437,321.6678119012362 250.70805477247302,322.2542244854396 249.7771887298072,322.77023677454144 247.9890845885667,323.33312628932043 247.0739960605536,323.24266418591253 246.4429005082118,322.8841576476754 246.09579802307198,322.36815172542475 245.81180495587085,321.80520337684504 245.1018224709265,320.77639344852406 244.6285007837881,320.36416706136055 244.02895998618357,320.0558231001341 243.35053225597733,319.8815371890466 241.90953078293128,319.7508205957761 241.24688038433428,320.0290101152204 240.64733958672463,320.5384438589952 231.3491983268638,334.3427821008375 230.36574102630254,335.92885984461816 225.83763038104703,340.19051580180076 223.1502150434027,341.7856233469916 220.72049709824816,343.4774077291237 220.35761718997432,343.98889440258336 219.5161564230089,344.90147702026314 219.13749909160026,345.21233630709406 217.21265758831964,346.3019327300712 216.70778114644483,346.7698181228606 215.7611377721706,348.42059703414753 215.3035935081611,348.9084226969286 214.76190314000092,349.35613054077567 214.35169096233793,349.88399716478193 213.70481807839198,351.00644917904805 211.9061956855724,353.01382953408125 209.8551351633436,354.88053754653976 208.55613004084987,356.39299687111554 207.46749031602926,357.2843309411396 206.71017556168977,357.6448463904488 205.68464525481977,357.8918582077679 203.83869068413406,357.7416491330576 202.72901436463138,357.78170508512216 201.7981484134843,357.4111807332059 201.19860761587978,356.783592014274 200.64639899613968,355.3613460389589 200.78839552973471,354.54662800144445 201.18283019274494,353.90548832306393 202.17680574489128,352.9637338751295 202.52390832155587,352.4226828050087 202.75005086778273,351.82481809506265 202.72901436463138,351.14674607364265 201.71926148088176,350.5120524733162 200.7568406834795,350.04435586819716 192.45267488422837,349.76372649221906 192.07401755282652,347.3646671105307 191.96357586548754,347.01043581430673 191.69536022141958,346.37211692235826 191.05900558905273,345.3861456434612 190.61723856512856,344.8379668171872 190.08080736851733,344.30981291410745 189.26038319623314,343.7548845105793 188.47151368716317,343.4272605231655 187.71419902435437,343.27681704403983 187.0988808036218,343.26010093819656 186.68866880900148,343.34702438254277 181.9817477038656,345.5599514877583 168.08186785465216,346.38882741586684 161.229221780027,348.9017403890813 159.17816116627344,350.1111710795071 158.75217165700118,350.5922267429137 158.35773699398925,351.14674607364265 157.05873196302028,353.90548832306393 156.5854102758836,354.72026239877346 155.79654076681277,355.74864583453666 155.0865582818684,356.2093781280071 154.37657579692575,356.48981254766005 150.55318846506398,357.45123799440944 149.48032598032358,357.3177127311991 147.85525496736446,354.7135842753624 147.1926045687615,354.34627660183736 146.27751604074928,354.0457413937921 145.2625039854516,354.1258850209141 144.50518932264194,354.30620582622464 143.874093770301,354.5866978554273 143.41654950629743,355.04414869742857 142.24902266581964,356.73351669459475 141.68103671447628,357.34441782123935 140.90794453700875,357.90187190479884 139.54582999656523,358.60281467451136 138.583409199163,358.7596850424359 137.81031720475005,358.74633448337596 134.33929162110945,358.1588904227382 130.62634597658834,357.07068575873717 129.64814793909989,357.05399449282123 128.9013515278702,357.27097837741996 127.0396195340573,358.9232279789545 125.49343536217852,360.87217083991146 125.09900069916829,361.5495330519262 124.8781172329656,362.26354611027443 124.92544941082919,362.9041092737533 126.23497269337808,367.2667718935804 126.45585615958078,368.59050864236235 126.61363002478674,370.72076261053934 126.56629793844535,372.23398015002226 126.34541438071791,373.7836066969778 126.12453091451522,374.54666138203646 125.80898318411265,375.3896141217271 121.49649683350408,382.39350099556606 119.8872031521576,385.7420507195917 119.69787444069132,386.4142788068118 119.68209710908123,387.0731482397704 120.04497710888576,387.5656061735583 120.70762741595802,387.8783700884432 122.2538114963146,388.36413140265057 122.79024269292496,388.7434069751434 122.90594364333762,389.3821520382449 122.53780447198501,391.71719194591145 122.47469496251729,394.65678247478576 122.2222567415833,397.0736036076214 121.95404109751445,397.97767327068664 121.46494198724378,398.4396457928494 118.29368689393148,399.8952082745904 116.94734968509637,401.7625160443792 115.93759670982371,404.38674943827874 114.31252560534239,410.3101621322698 113.77609440873627,411.11670488360596 113.11344410165721,411.524928501192 111.1675660952133,412.0194194676 110.56802529760877,412.09574799247343 110.00003925474064,411.8800354405743 109.66871419272883,411.4154068931608 109.41627588026412,410.8379077905302 108.99028637099188,410.39978144714956 108.58007428485362,410.09108901059244 106.68678762782821,410.5690599598783 98.91379385363935,411.8169800202771 96.38941155274908,411.5747107007496 94.93789182812395,410.2769696657808 93.90710234969822,409.1018775650226 91.16183658260952,406.9803636973369 91.11851893681127,406.9347815494867 92.20832129889087,406.1335123594103 92.9708951394215,404.5128561559616 93.4336984480339,402.5564036211559 94.19627228856453,400.36362771269694 94.20679056176235,400.35365933106857 94.21730883496527,400.3436910674242 94.21730883496527,400.3270770138863 94.22782710817415,400.31710872191303 95.4479451715935,397.8678891467851 99.41332897950709,391.82351472170654 101.93771119021531,384.71021568919684 103.5995962193864,377.15846325490907 103.14731108221369,372.1872166807558 100.68603840895467,368.2669900337408 92.60801517181645,361.0689404866701 87.3331080291407,358.1053802665171 85.59233610358189,356.3227840197448 81.8267991812648,349.4395513780821 77.84037892872733,345.6200098976741 76.87269901512693,343.788210407395 76.52559650822873,341.9058931030034 76.31523134943612,337.7888715767111 75.73672703557538,335.81499518213695 73.26493608910238,332.0534275830964 72.50762133430054,330.3394659704599 72.23940582554393,327.49332004353977 72.58124924673632,320.04231182072135 72.36036571297585,317.42096840995595 70.99825121571106,312.5651574698605 70.7247764176924,310.18997604894713 71.52416416355463,308.2336817475966 74.09587855280674,306.41123643485884 74.62179160241948,305.61569143692566 74.69541931132115,304.1553349599493 74.2431342759006,302.9533045940126 73.64359341562125,301.8014911834537 73.33856389977323,300.48831523744013 73.68566640667058,297.673255680502 74.82163848800322,296.96767599616794 76.62552005278808,297.0281563839107 79.00790572788848,296.537581822234 80.73290029452156,295.5227487700044 82.2896026934224,294.1414548174459 83.55179374789276,292.3834497736224 84.45636412403036,290.21825445564053 84.5720649257335,287.3495933842163 83.55705293538477,284.7256482176239 82.50486807087728,283.1720424229435 82.52108654979764,283.1678515831213 85.2558339737825,282.46115649920176 90.27830290085166,282.3130802887207 92.14003480313981,281.7947941979577 97.80937661416085,279.4722442260463 99.45022514177617,279.1086614414365 100.74923008122123,279.03459650287033 101.49076741241994,279.2668890409483 103.49449584830909,280.2633237794458 104.33069744371959,280.5460759592863 104.99334775079866,280.46192455888684 105.92947287349381,280.09164842507033 106.59212327209848,279.72809020425126 110.26825489880862,278.2669791940151 113.17655361113174,278.4016536784659 115.21183680175132,277.87641244412384 118.78278591267825,276.4419467737038 119.8872031521576,275.2026029443153 121.35450029990992,272.3123949125064 124.57834683416034,270.0582078263774 124.6099016804215,269.9941795391256 124.81500772349106,269.4718262187729 125.68276407363969,265.9493749506901 126.26652744811621,264.37478837108847 126.94495526984635,263.791414383391 127.71804726426524,263.56210120241184 134.65483935151798,263.9397904777258 144.31586070270126,260.2026774353331 145.72004824946023,259.9699005666665 146.22492469133505,260.35448529353505 146.54573168481727,260.8807329748339 146.8139472373605,261.4642925914438 147.52392972230487,261.936510140121 148.72301140903784,262.202964998185 154.92878441666414,261.734134093766 160.6296810739455,262.2265745002117 167.05633754777537,263.88920805811676 167.67165567698487,264.25002372976076 169.17576684255326,264.6378002611993 169.6017562602948,264.83674008297896 172.09458380644864,265.43690545339905 175.33420767231428,266.0977160414341 178.44235334767595,264.6951223525364 179.1523358326203,264.0746757577962 179.56254801028928,263.5553565547941 180.9246626422507,262.53012048014875 188.34529466822093,258.4212772491278 190.71190292085828,257.4224615765162 192.42112012949707,256.91626323581636 202.255692677493,257.2672303506905 203.9649098861258,257.12549529062335 204.70644721733134,256.61590572376923 205.10088188034157,255.91728297730023 205.33754267814925,251.18414086814892 205.4637617886154,250.33650762795682 205.82664178841395,249.33680702855904 206.42618258601763,248.33361880375512 207.76726062330465,247.12086363268858 208.73494050073623,246.67152906498856 209.66580645188327,246.51611487881146 210.47045329255735,246.5836865128685 218.1277462078583,245.57005883357553 219.21638602420282,245.59709023414624 219.59504326408674,245.7964454115553 223.197547221268,249.1172635193892 223.90752970621236,250.16426976020546 224.38085139334905,251.35298277258357 224.66484436902118,252.6934762148054 224.7437313931468,254.15867715609787 224.60173485955175,255.75527576130625 224.00219406194722,258.1040976657571 223.90752970621236,258.8700339390712 224.0495262398125,259.55493584677026 224.38085139334905,260.10821803112236 224.96461476782557,260.63447977458935 225.55363731385188,260.65472005089805 226.0585137557267,260.37135269073053 226.51605801973534,259.929417053268 227.32070486040945,258.8869040764774 228.33045774415223,258.1918293004622 229.8135323150394,257.46295619912803 233.28981707022893,256.4235365650686 234.47312124231084,255.7417751673021 234.97799777570953,255.0498363627422 234.78866906424412,254.44561298484768 234.66244995377625,253.7670796000132 234.59934044430173,253.21678930342645 234.64667262216702,252.27142764951358 236.9659487884647,250.27234078632483 237.4077157208641,249.69819787811105 237.99673817536652,248.75247174365435 238.34384084355924,247.79989125971275 238.76983035283234,246.34042616931535 239.27470670318326,240.99381559963473 239.08537799171697,239.96604170564314 238.75405283818128,239.20866055488682 237.4603069787604,237.87970991291786 236.90283918746624,237.1323014334197 236.49262710132714,235.87408152111922 243.60297047691813,231.71936762917892 244.5653911827965,231.5636982164648 245.685585845403,231.51631999941273 246.5060100176855,233.23531367427182 247.1844378394182,234.2909126460934 247.79975596863113,234.79160264187374 248.58862547770192,235.24490628810005 250.02962695074203,235.6508306646158 250.91316081554768,235.6203869524875 251.63892063209533,235.41404360559844 252.77489271783497,234.86602718808763 253.8162003563159,234.1623525765201 254.76810290213908,233.31313447343848 255.90407489635567,231.6922950072128 256.92960511170855,229.7868470535568 257.45025897671053,229.09631984180868 258.3180154183831,228.32110663335465 259.15421701379444,228.09089965671564 269.4200382426175,226.67228937847835 270.44556854948917,226.79079762798688 270.84000330402415,227.86068673333156 271.19236496072483,228.52422560992179 272.0285665561354,229.11663014133907 272.67543953160606,229.1267853919207 273.22764815134445,228.85259176638905 273.6378603290134,228.32449189648023 274.4582845012908,227.56275554247657 275.70469827437114,226.74339453715024 278.5183326309585,225.62935114280128 280.0487393797101,225.37537090241273 281.2004887970531,225.44309975481806 281.73691999366514,225.8528481002364 282.0682452387256,226.38447755067986 282.1944643491934,227.06166747188863 282.22601910392984,228.60885727584704 282.30490603653243,229.34342626868366 282.6362311900698,229.97300971161084 283.1095528772065,229.97300971161084 283.5881337358981,229.7157656921173 285.60763950339134,228.18569142212272 296.4098918372907,222.95712249379127 296.8989910390853,222.54724354234864 297.26187085583433,221.98151238588 298.0034081870407,220.3620392114884 298.79227760458593,219.38615027801873 299.5180376041822,218.9998317974282 300.2648339238889,218.8574998854713 300.9274843224918,219.00660962598513 301.44813818749384,219.35904065651138 302.33167196077557,220.26716567421946 302.82077097951725,220.65343012185113 303.8305238632592,220.85672068125115 307.95368159392535,220.68053587918692 318.53505064467663,217.556075660467 319.7972417493594,217.4815093591956 320.412559878574,217.00020224643606 320.8701042341006,216.43073564942588 321.5011997864424,214.83739494005002 321.80097018524765,214.301698411285 322.33740147337767,214.05079170790287 327.91207892866896,213.26412026363164 329.2899708922405,212.83684760666918 330.1735046655163,212.28068497443897 330.52060715066295,211.67022322692347 331.057038438793,210.19137893943108 331.40414101546264,209.56042245716515 331.845907856339,209.07190982271896 333.47097905234426,208.12873435734429 337.15236975908624,205.31898305076993 337.1891015269704,205.42069485125765 337.1943607144624,205.4478462377686 338.2882597029706,206.33700362979505 340.670645378077,207.34822943799827 341.6488435648761,208.27112882279562 342.22734777697866,210.06237136279975 341.98542779857473,211.87360912757157 341.53314266139097,213.6234501879557 341.48055129537465,215.25090641802365 343.026735522829,217.94912804706192 345.7194099012813,219.54869982793602 348.8117781526661,220.09086365529694 351.60963516139384,219.6639122925876 354.7072626002638,217.92879260093346 355.932639851182,217.55596980717567 357.4788239768739,217.51529723886603 358.3833942512321,217.66442896712715 359.20381854350615,217.35260540545295 360.4502322390499,215.92214708957837 362.36981460554387,215.00680654132003 364.58916740218007,216.044185537381 367.09777225397534,217.6440930143384 369.8798518020073,218.4100504652345 373.1510304943323,216.742484859109 375.0127624090803,213.12159242769647 376.51161435623777,208.83432279234003 378.6100071636771,205.18990629084664 381.9653318380956,202.9903311415514 386.1936721708011,201.83601927225953 390.5219358445369,201.59155783346083 396.3174969511145,202.7119517233768 397.574428818098,202.7255314217666 398.6735869940982,201.9039239976964 401.91847005428684,198.18199175220485 403.3384350032908,197.10180143319926 406.86731113470194,195.19247052490766 407.60884832704556,194.59444756889496 409.0077769331872,193.10601460329372 409.7125002201975,192.58942346610598 410.7064757659147,192.23594944030265 413.59899702995847,191.7125104055377 417.11209570066785,190.06721931030498 418.9738276154227,189.87683559072278 M148.39262117661963,323.1236589048019 148.02814380253974,321.09166188471335 147.34474877189544,319.2334445853543 146.29687636716957,317.37485302658274 145.56792161900302,315.39968911317067 144.7022879013175,314.5281587809982 144.33781061876155,315.5158869422417 144.15557193172035,317.3167660616195 144.5656089317994,319.69803401579287 144.01889287067831,321.2077880527009 141.33087237410373,322.5431339441938 139.09844859513476,323.23975951733183 138.73397131257195,324.40068525257675 139.69072437377721,326.72209918540995 137.0482635032061,328.57881044633024 137.6860989078478,329.3329928466238 140.00964203034167,328.346741923836 140.6474773434586,329.85508317756825 139.96408231282027,331.3631782472477 141.01195471754443,332.9290167427274 140.8752757480212,334.842459319475 141.14863377858728,337.6829019102248 143.01658018347555,339.01587035310644 144.97564593188275,338.89996766741376 146.88915205429413,338.4363424141328 147.07139074133448,337.10329062911774 146.8435923367659,334.9584128280425 149.6682918943842,332.40709995749245 152.67523004751726,331.1891797595932 153.31306536063846,329.5070262721964 154.54317645240468,327.6505015061482 152.766349391037,327.24433691034534 152.17407370391757,325.56146519806936 150.397246551026,325.1552087516426 149.34937414630014,324.5748116026476 149.486053207343,323.0656079928159 148.39262117661963,323.1236589048019Z" name="Tadzhikistan Territories" name_en="districts of Republican Subordination" gn_name="Region of Republican Subordination" admin="Tajikistan" adm0_a3="TJK" iso_3166_2="TJ-X01~" iso_a2="TJ" postal="RR" type="Viloyat" type_en="Region" wikidataid="Q633490"/><path d="M627.876978074432,208.895389927642 637.2487471856494,209.91989912672938 640.1307502782569,211.39878783048093 640.0571224675869,213.9625276899188 641.1405032846604,221.44613142709304 641.2667223595777,224.12896527276848 641.0142841079776,226.22861085092987 637.837769772731,235.37334528691943 637.0383820268687,239.25927421092814 637.6063680675368,242.98131205557118 640.0045312033398,247.1950821178774 644.3170176199181,251.44067380195077 645.2531426121168,253.25382086871076 646.1577129882612,257.73281058338296 646.7993268395779,259.8281020135796 647.9352988191405,261.5181561315318 653.9727797005709,266.15829491494014 657.3281044767655,269.8727561091072 658.7901426203571,270.8735825795365 659.8209319696443,273.0736683107744 660.1259614854932,275.25638572130856 659.6000485376538,277.23991696103417 658.1380103940622,278.8392263451125 655.9291759724033,279.566398850103 651.048703515162,279.5865973571152 648.7346865649916,280.6738797410186 647.283166694603,282.1783582301826 645.863201643829,284.25460431632763 645.0322591801383,286.61294611804203 645.3267705245569,288.9605930675737 646.5574068611859,290.890729940852 649.5235559358819,294.2153979829812 650.6384914707959,296.05370188961115 650.9540392598536,298.56691206734945 650.3124254085369,304.27620073951846 650.691082836819,306.29039855099245 654.3409187538929,312.4007931057909 655.0351238694686,314.27236036757614 656.002803783069,319.6736256057392 656.8968557842235,321.7146215362174 658.8322156114073,323.8221716117367 660.578246622683,324.94108853894187 664.2596374611313,326.3881095464655 666.0267049170445,327.39285188333605 669.0980368255541,330.23902861343106 670.6862939422904,331.19983410789644 680.4577569264452,331.51450109929266 682.1511966734619,331.10275368456973 683.4975339135649,328.9499865457138 682.6876278945032,326.92398576570525 681.3938820204249,324.77694461283244 681.3097359365503,322.2809262229409 682.0880871360007,321.6341967665139 686.1060622081537,320.26351655817575 686.8213038701482,319.4322958357781 686.9685594914729,318.3529378621893 686.9475230468353,317.19299012387836 687.1894430252273,316.1469008281597 688.6199262474402,314.0007047643476 690.0714460160538,313.0682952518977 691.8069588558957,313.10183677700746 698.0758415442903,315.29518906589703 700.0532742607602,315.6338711603304 702.3252182198752,315.57015963050287 709.4145250987746,313.10183677700746 711.5286952651244,313.39028908904504 726.0228567102067,320.51823043268536 743.2728021729786,327.1249311896931 745.1240159162937,328.69215663695195 746.6807183151946,330.5202502561725 748.3951946086179,331.93627230105085 750.6986932855733,332.2542616640024 753.0337468839186,332.0534275830964 754.8954789004375,332.4550912540356 756.525809110004,333.6599780026527 758.1351027731521,335.81834093418496 758.1456210463499,335.83841645701614 758.1456210463499,335.8484540725924 759.0607096956903,337.2670061584871 759.7969878023282,337.93605912062196 761.5956100778502,338.9729955019209 762.279297021988,339.748949316686 762.5738082646374,340.8458765701648 762.7105456127659,342.06638972530055 763.4468237193911,345.7537037624286 763.4257872747595,348.2734715919508 762.826246414481,350.645571544683 761.6482014438674,352.7398653006817 757.3357151290573,357.5913333327803 756.3680352154688,359.6640371098308 755.9893778889491,361.9998639188039 756.0104144353567,374.2933234239535 757.9878471518257,389.08929540595665 759.9442434236529,392.72476676197294 767.1176962846416,396.7843120249828 768.3798875426555,400.34036818191345 767.969675294751,408.451094506809 768.2115952731549,411.87661298458977 768.1695222821048,412.71620508103706 768.4955882425962,413.4163606401193 769.642078597131,414.0998745349609 770.50457588045,414.882867987638 770.2942106198883,415.79185462980615 768.5586978818326,418.5713476348769 767.8224196734263,418.97924694826946 767.4016893558572,419.6291960835021 767.6962005985083,421.3367562301545 768.2115952731549,422.30147346211527 768.9478734815492,423.00091430144585 774.1228570796725,425.85780443585605 775.3640116895104,427.12025967375655 775.7426691177993,429.4293522298029 775.3955665091217,430.63171106603784 774.648770129286,431.9597579450767 773.039476466138,434.12529743953064 772.35578952199,435.3105040041289 772.0402417329271,436.48232140229936 771.8509131205583,437.61427760409197 771.5143287850836,438.67329465217057 770.2205829109985,440.6056938379635 768.8111361334335,442.2267504238858 767.6962005985083,444.03274216026256 767.2965067255819,446.46995157530034 768.285223185583,450.9756421416724 770.6413132285667,454.61696866334984 773.712645035308,457.451076830613 782.9371585252057,462.8394829354799 784.7252626292889,464.4435253164024 789.8686915095717,471.2395353374924 792.7717310468065,474.06207450095326 795.9903184748716,476.3399362550235 791.0151817623321,477.97794428325665 788.6275368997337,479.1708423777631 787.3863821881308,481.36511945614194 787.1339439365307,486.0847196396545 786.2504102085683,487.6222820371536 776.7839767402844,491.1705664056649 774.3542587848666,491.5523064057586 772.4609721522654,492.6711116604184 771.5248470582976,494.87543062023644 770.3993932501747,496.93781583588503 768.3272961766323,497.9408878324554 765.3085557359202,496.2240905051815 760.6489668124325,488.28727483723054 757.7669637198302,485.1989441639721 744.7243220433672,477.19028559743884 741.7792094133149,478.8347371009306 731.4397603884971,479.51352563563404 730.5562265587764,479.53329553901915 729.6937292754574,479.32571039084087 726.0228567102067,478.1954450212896 723.8035040153449,477.23313066168885 721.8786625631408,477.39791749716693 720.0905584590449,477.79998524907006 717.1454458289925,477.26279250599885 715.9989555762321,477.2166517058067 714.9892025698242,476.8837730108447 713.5061279815823,474.3917554571154 712.5068933501534,473.7422729330706 711.3498849259532,473.82469712503666 710.1718397518132,474.64889871976504 709.6354086325231,472.9872347269716 708.4363270137464,476.3992654404754 705.9540177940747,476.7387529690185 702.9983868908134,475.95099144302634 700.3057125123611,475.9938419812464 698.6543457563929,477.70770890769217 698.4860535886615,482.076667816425 696.6138034006987,484.27685965148396 694.1314942827961,485.3372492250642 682.8243652426318,487.6091133764004 675.1460359801935,490.40704002071726 673.000310994223,490.85463190631845 667.2678596286457,493.5660609187055 662.9027819478134,494.06285323605846 660.8517213189214,494.67804986621286 656.9810019698673,498.26974092589467 655.5294820994785,498.6051593181184 653.9727797005709,498.22370218713706 651.6797991950501,498.01323650847297 650.6700461886422,498.3815483278066 649.0186795344449,499.66723949360534 647.9247805459316,499.7362872355749 647.2305754303559,499.2069096854401 645.7685372867634,497.2042158211736 645.0007043605151,496.4970885968372 642.9075707405729,496.33263270609945 638.6056026989725,497.67779725104936 636.9752724894179,496.6977207248873 636.533505523661,494.0332438287046 637.8167332263191,491.53914319074454 639.9624581105204,489.6796583345809 642.097664823282,488.90613721167784 646.0104572651554,488.5045395747346 647.4935318533956,487.77372025983 649.2500812396383,486.3086199426746 650.9645575330625,484.28344635895394 651.6377261022316,482.4324219880952 651.6587626486382,477.07163675595706 651.7744634503601,476.02350770351944 652.4265955748857,472.79928999714605 648.7977961024545,472.3607379631567 644.3906453288097,472.45966130644223 637.3223750980852,470.5799422383072 625.1317123299634,466.08689150013026 620.587824309959,466.218876452323 614.2558321858666,469.7158059670556 612.5729106102897,469.22433436224867 610.8584343168646,468.19183134137415 608.4392346346566,467.86853248029973 605.9043341507268,468.1324507275043 603.8427553503941,468.83179861908303 602.2334616872462,470.0357435091021 597.2688431461404,475.3675442343017 596.1644258844242,475.8883631198696 593.9661096342066,475.0510830897003 593.0720576330394,475.3675442343017 589.1908199090082,478.41294102559056 587.5920444172948,480.36688509702526 585.8460134060301,484.0891387979078 584.6784867086271,485.84764282607705 582.6169078065245,487.25026088468235 575.29619922243,487.9844126074944 568.0386001757975,492.37497009041823 565.7982110362998,495.05306994921216 563.2738287238096,495.9346381990509 558.4985388968479,496.8391473664961 554.4490090050784,499.32199428831046 551.4197503929265,503.4904051284569 546.6760153855693,513.3453208593536 542.4371567796558,519.9982004928538 541.8165794747389,522.4455040671832 540.9120092003765,523.6525222955984 525.7446790843491,525.9054337557436 522.3157264975024,527.6300117347805 515.2895291560641,526.3382468599162 510.7140864182202,527.275941167272 500.4167103844509,531.4583815547768 496.3987353123038,534.2172672530216 495.38898240765235,535.3507357888691 493.91642609263295,537.584520944184 492.99081917008783,538.5473118013756 489.53031186538794,540.5348086667037 486.86919230655116,543.4449133802386 457.34443809356395,565.4075476747652 453.37905428565205,567.0597452732796 448.3828810266999,568 443.4392991337718,568 438.6640093068101,566.9422069491674 434.39359598305015,564.6891124145642 430.9646433961967,561.0961320942748 429.59726971145096,558.8939521862026 428.47181600509725,556.5016960866046 427.7039829770865,553.9192216762012 427.0097778614997,548.0848518130059 425.9895066836632,545.5459250419763 420.21498222526066,536.1827342624543 419.3314484972981,533.8962026848355 419.01590070824716,531.1437788679824 419.01590070824716,525.9480601765588 418.65827992812984,524.4494642758134 416.90173054188546,521.7140031411616 416.29167151018004,520.362383094951 416.0813063513925,518.8071276489783 416.29167151018004,511.1387047452976 417.0910592560312,505.91565954119966 417.68008174133075,503.98667954554014 418.38480513011626,502.83962204054023 418.0166659750311,499.779030606709 421.7716846241504,493.36536271509675 421.85583080979507,489.8080239221111 422.4658898415073,488.2082682576822 422.73936453774485,485.534824097622 422.55003582360763,480.1593181916599 421.7822028973593,475.26205840273485 422.0977507881854,473.4389459974297 423.2442410409526,470.5799422383072 424.2329573991778,465.45993805731274 422.80247407520767,455.1521451097714 423.2442410409526,449.5511113261056 423.61238009426773,448.82719529173033 424.8430164308968,447.13453581184206 425.3373746608999,446.0599360949906 425.61084935714433,444.7669475509886 426.09468931393855,440.81743953485596 427.2516978399019,436.82986620197676 427.41999000763326,435.5687135938294 427.1885883024408,434.1650273774782 426.26298148166995,431.4431335452744 426.09468931393855,430.2408784617945 426.93615005083905,427.945237483941 430.6911686999591,425.51316764717393 432.27942591846363,423.23957404737365 432.6791196896268,420.925644016035 432.76326577349977,417.87489333465203 432.5949736057565,415.07528863465154 432.27942591846363,413.52254095439605 433.03674057150226,412.6332447105925 429.9443723201234,408.8162772634542 426.862522240175,406.7113013508439 423.2126862213413,406.4855029305915 410.79588093550194,410.76146544595844 408.94466729396197,412.16201640194953 406.92516158644275,413.28363381313073 404.747881780867,412.34785576857047 400.8876806032415,409.2113225852645 399.8042998879371,409.05861797172594 399.02594868848155,409.29431312330826 398.4895174674402,409.0221013326224 398.11086014092047,407.3753826572304 398.2370792158265,406.01396531410575 399.2678686668838,403.101195447839 399.95155550926347,399.828645287329 402.9808142231837,394.12469449862584 404.36922445434806,388.85309052727183 406.2519929155096,385.19614192468543 406.904124938266,381.4278860069873 408.7500794940942,375.8625963197691 409.30228817583736,372.93373932019307 408.6554151370278,367.19997568192616 406.2362154548138,363.4044142578896 402.7494125179904,361.0756141783642 394.36110067928723,357.57130499123565 388.0764406319677,351.0597914553873 384.15312981510516,348.1598628969148 381.30268154212945,346.7095584119372 380.04049048764887,346.4087755553581 378.8151132367426,346.4555646263448 378.02098457659554,346.81650106141893 377.27418819676666,346.8632879452184 376.2223621993036,346.0010322445404 375.5597119033433,344.92477094475964 374.707732893234,342.56123708645663 374.10293304900694,341.5380778436471 373.07740268366655,340.40444580446103 372.0255766862094,339.48807552444396 370.86330907452236,338.8091003295943 369.56430401295034,338.45119670674126 367.1924365092718,338.53147543841726 366.4508992151598,339.4512849613136 366.78748355063016,342.3907182643785 365.7146211085338,343.7146634170164 363.27438487991316,343.11289363131306 359.07759936681896,341.1000240431949 357.88903602123924,341.300661906604 357.3052727234197,341.8490498231002 356.921356209408,342.44421473376167 356.23241017954905,342.78859037481885 355.32258071769377,342.7317526405065 353.68173233670535,342.16335521106 352.7561254141653,341.98614176176466 349.5375380878583,341.97276714142185 347.8914305193881,342.3539393595257 347.19196621631437,343.26668296544796 345.9297751618389,345.4696021402383 339.976440262502,346.09795643648243 338.0989309888257,347.2843605677324 338.0989309888257,348.1598628969148 340.1236958838267,349.7101679218387 339.3032716933321,351.22681044739187 335.7060269387413,353.90538398997916 334.7646427590447,354.43299170737197 332.4453665196251,354.2927444516339 331.49872315243823,354.82700846471636 331.0674744599022,355.9755718234461 331.0464380152579,357.31760836643764 331.1621388169678,358.6360873071795 331.15162064553493,359.72077120376525 329.77372868758033,364.1249563373555 328.7534575097319,364.64531312011974 327.3650471768112,365.0155492288854 326.1238925669723,365.72929612651313 325.1825083872766,368.9038058109628 322.19006357868795,374.77979293924915 319.5499804644827,381.8873485393869 318.29830758144607,384.05783638537883 317.25699995895593,385.122921740171 313.7859743810582,386.6171648419623 312.7078526497015,387.4057889077318 308.2112968082343,392.0696217153153 303.6411130543381,398.1204842575694 302.79439323171994,398.7585886345375 300.8223382333915,399.8103269494936 300.79074705196876,399.76893560863687 299.0762707633067,397.52232566888966 298.4136203647037,396.4752741395701 298.30317858583913,395.0092051394281 299.40759582531933,392.30252344178797 303.67274999805494,384.7635729790312 304.9349411942624,381.04841694575566 305.17160208359314,379.48667757748467 305.20315674680654,372.30730162885936 304.96649594900055,368.5871746189075 304.6667255502004,366.546473214628 304.65094821859117,365.6160049380658 304.761389905931,364.47196835388627 305.534481900349,361.40271982096675 306.7388226671062,358.39921298027724 306.92815137857247,357.39782811949607 306.9754835564369,356.1492839029422 306.5810488019028,353.9555788989443 306.2181688936281,352.81678473104967 305.83951156222713,351.9651026150762 305.0927150594667,350.9730447995117 304.85605426166074,349.97754017559026 304.85605426166074,348.46737598011316 305.2347115930677,345.6201143480505 306.6283808882442,342.54462417406245 313.5914687417331,336.61139189935915 314.7747728222894,334.90496730150363 315.1218754904838,333.01080206965185 320.1127895712918,328.65877626243065 321.21720681077113,327.4264459982528 321.8167476083757,326.2240958669004 322.24273711764795,324.5928024689041 323.0368656152182,323.0315826147679 324.47260800824006,321.5639292068935 327.785859818196,318.8625690479574 328.94286831556997,317.57529037119025 330.83615497259535,314.5441125344111 330.9939288377996,312.84366857773216 330.53638466531487,311.310652252654 329.4161900027075,309.91159426098443 326.3658947567894,307.6263449399286 325.9083504927807,306.8611127092956 326.2870077326578,306.33413964954764 328.9744230703081,305.25660361351737 330.75726813151755,304.2158729419024 336.36350034153935,299.2959882397592 337.9254618450222,298.2680213581811 342.06439690729167,296.8535391867964 343.64213583390773,296.0672484211307 344.998991294327,295.59342529519546 346.26644166208433,295.86562458898686 347.5759648531076,297.54568828784056 348.61727258311157,300.71345353214275 349.05903942399476,301.28105012737484 349.9583506203986,301.39523702640923 353.08753279892437,300.95863255400394 356.3061202531498,301.2004467640512 357.8260087503223,301.0459551761521 358.9777580761422,300.66979080511027 362.41722890504724,298.1067612273597 367.3923656542511,295.9429142902168 369.44868534802885,295.4623635401231 371.51552329339165,295.30777552328266 372.8566014222026,295.75809001566563 373.48769697453844,296.54776743560916 373.40881004193585,297.98245467401074 373.18792648421436,299.1784161468599 373.2668135083408,300.31040502149926 373.7243578638683,301.52621414111775 376.97975906133803,307.4920982558522 377.42152590221355,309.26399670448916 377.0113139076,312.03190612753866 377.07442341706775,313.39710181752406 376.9639817297339,314.8459338075293 376.53799222046166,316.32806792508325 375.5913488461866,318.35639492812356 375.54401666832297,319.8815371890466 376.4591051963352,321.2288157056028 379.5041413622292,322.12689226732874 383.92706940016905,321.9258379806048 387.5453506889604,320.99422920264874 389.09153486084,320.77639344852406 390.3379485423905,321.00763430294217 391.67902657967494,321.9291890651046 392.8044804138372,323.35322889749574 393.3566890335756,325.34316622409034 393.64068210077164,327.88858904659503 394.20866796059624,329.7503228333819 395.15531133487127,331.1664627965969 397.95316835985545,333.1312905926567 399.79912293053263,335.7950242180134 400.4775506607406,336.4708747466508 401.1402009678197,336.82550931664485 402.30772780829744,336.7652893010056 403.9065031465418,336.209908593002 406.5255498031686,334.4967172383391 408.2978765212751,333.58310845922654 410.08072149095983,333.26516475906385 411.5322413071097,333.727016167907 412.8102097433975,334.6238790296241 413.8830723196626,335.848558700937 415.150522595896,337.92947331054575 415.65539894624607,338.2706719302759 416.0498337923049,337.9696149431345 416.38115894584746,337.16005785000283 416.74403885412124,335.90209299060587 417.24891529598926,334.9350834121985 418.77932204474087,333.0810871933239 419.55241413068364,332.49870845144414 420.97763827212043,332.1472552447641 424.13311612535335,332.2543662450652 424.985095052368,331.9999756373568 425.8423333339853,331.29032292587516 426.2367679969973,330.07843133252237 426.2052131507412,326.62601308915913 426.4418740400719,325.44365672175536 427.0256374145416,324.79044888623787 428.30360594235924,324.2510987470848 429.29758149449964,323.6681634237371 430.0233413110464,322.5725471148059 430.73332388751464,320.9473111399854 431.196127323074,320.3172459125639 431.9218871396199,319.5195481335418 433.02630447062313,317.870307591284 433.7362868640436,317.2232688594998 434.71448508457985,316.83100052360993 436.49732996274156,316.71029918216124 437.95410895043955,316.94164195470927 439.5318478770564,316.85782280351634 440.8729259143409,316.5828905619586 445.4851826637479,315.06726309048 446.1793878170881,315.0437890721622 446.81048336942393,315.2617602175379 447.7413494120949,316.03300137636944 448.1094884919228,316.23753724767795 448.6143648422677,316.11682813993866 449.2139057314021,315.5769708795462 449.9554429710778,314.29594104018327 450.5549837686815,312.96777464928107 451.3596306093624,312.22982167576794 452.95314686758167,311.8071493145009 454.61503189834923,311.1563300831678 455.79833607043025,310.0223188812829 457.01319508877333,308.6230652370368 458.4489374817884,307.4920982558522 461.21523966051734,306.6160907462983 462.80875601026054,306.3374961719874 467.8312248458066,306.0723200029063 469.4878507050252,305.4714495651578 471.3548417788674,304.43410039900334 474.25788131963566,301.85868641476856 475.61473687157286,300.3271990766202 477.4343956760267,297.35417663380707 480.3532126399221,295.0590847988294 477.4028409212886,291.8288561448253 476.34049668812736,289.9090043317867 475.0940830065709,286.86869799597645 474.731203006774,285.0857491830182 474.82586736250374,283.2755336919731 475.2203021170379,281.9698032223455 475.56740469370845,279.1625264328493 476.71915411105306,275.701054782197 479.8641136211822,272.06308016225836 485.6438972110661,266.47530062716083 486.4643214748682,265.05927800172043 486.7325371189362,263.90606893486 486.5274309843419,262.8707543411211 486.41698929700374,261.36984610740865 486.669427426413,259.8720650729461 487.3163004934127,258.84641564740684 488.3944220581798,257.96912424788206 490.8083625802072,256.61590572376923 494.2846472438788,255.2422344586504 495.68883497368137,254.39160215592744 496.41459488175883,253.33832871081563 496.77747479003267,252.09584973981296 496.8563617226352,248.2863277284099 497.2478146809818,245.31225990660548 497.2717507670447,245.3469399234923 498.42875939479,245.25908467072315 502.61502663468036,236.12428068368118 504.93956195981764,229.07251842424452 506.1701982964467,227.07510492153216 507.9793389469493,226.41823249262023 510.19869164180443,226.12025403818774 513.9957833837422,224.18992957764755 515.7733691128524,224.12219149412226 519.1181756158371,224.98242819136297 520.8326519092724,225.0704793704186 522.4945369384367,224.80632327377376 525.681569546893,221.41902801686405 526.7965049800387,220.9311534569094 528.3321708325269,221.37159691992954 530.9091444092642,223.04508740145832 532.5710294384404,223.07896052181647 533.7175196912008,222.34727252228487 535.6633976898192,219.90788695806313 536.7047054140837,218.99972602482885 538.4717729717559,218.46427517064404 540.1757309919814,218.55916749457595 558.982378853643,223.4854285086773 560.528562979329,223.41768504151128 564.9251954797769,222.47599977912424 567.0288473729289,222.63182495314447 573.381876043422,224.0070354358848 575.1699801475112,224.58280087129813 576.6951277267973,224.48119768757016 581.6913008839845,221.83234577599663 582.9850468598396,221.5816471338753 584.2367197428814,221.96108006813765 586.0248238469645,222.8350710263759 589.5905137819346,223.84445986213672 592.8301376546424,223.59381674330996 603.159068406258,220.02987183256553 608.9651475825002,218.93872687194383 609.6698709712857,217.5966421932234 609.8907545050401,215.7526465371855 610.6691056027163,213.71839314510248 613.1619331973593,211.99570192042566 624.2797333198523,209.2414291692308 627.876978074432,208.895389927642Z" name="Gorno-Badakhshan" name_en="Gorno-Badakhshan Autonomous Province" gn_name="Viloyati Mukhtori Kuhistoni Badakhshon" admin="Tajikistan" adm0_a3="TJK" iso_3166_2="TJ-GB" iso_a2="TJ" postal="BK" type="Viloiati Mukhtori|Viloyati Avtonomii" type_en="Region" wikidataid="Q207319"/><path d="M44.560606168384076,503.3162100381311 45.02340957877248,501.4458764724308 46.9429919452656,497.64491043281043 48.11051864265842,493.3291708287409 48.64169077799399,488.7481335617212 48.289329083599526,483.3810347958575 46.269823274316245,473.30376454978665 46.664257959761734,467.94111064567016 49.514706334517705,460.0862326380642 53.85348828145134,452.5618735832662 59.09684060451576,445.91113567309867 64.58737209346675,440.66855631847886 72.00274493286878,430.33361997819696 75.00044892893752,424.45266755679813 79.33397179015428,411.35224463796663 81.13785325317592,409.5067657052356 84.30910850270567,408.4311749491714 89.05284340828176,407.7870894659283 90.60954590895179,407.3089766839887 91.11851893681127,406.9347815494867 91.16183658260952,406.9803636973369 93.90710234969822,409.1018775650226 94.93789182812395,410.2769696657808 96.38941155274908,411.5747107007496 98.91379385363935,411.8169800202771 106.68678762782821,410.5690599598783 108.58007428485362,410.09108901059244 108.99028637099188,410.39978144714956 109.41627588026412,410.8379077905302 109.66871419272883,411.4154068931608 110.00003925474064,411.8800354405743 110.56802529760877,412.09574799247343 111.1675660952133,412.0194194676 113.11344410165721,411.524928501192 113.77609440873627,411.11670488360596 114.31252560534239,410.3101621322698 115.93759670982371,404.38674943827874 116.94734968509637,401.7625160443792 118.29368689393148,399.8952082745904 121.46494198724378,398.4396457928494 121.95404109751445,397.97767327068664 122.2222567415833,397.0736036076214 122.47469496251729,394.65678247478576 122.53780447198501,391.71719194591145 122.90594364333762,389.3821520382449 122.79024269292496,388.7434069751434 122.2538114963146,388.36413140265057 120.70762741595802,387.8783700884432 120.04497710888576,387.5656061735583 119.68209710908123,387.0731482397704 119.69787444069132,386.4142788068118 119.8872031521576,385.7420507195917 121.49649683350408,382.39350099556606 125.80898318411265,375.3896141217271 126.12453091451522,374.54666138203646 126.34541438071791,373.7836066969778 126.56629793844535,372.23398015002226 126.61363002478674,370.72076261053934 126.45585615958078,368.59050864236235 126.23497269337808,367.2667718935804 124.92544941082919,362.9041092737533 124.8781172329656,362.26354611027443 125.09900069916829,361.5495330519262 125.49343536217852,360.87217083991146 127.0396195340573,358.9232279789545 128.9013515278702,357.27097837741996 129.64814793909989,357.05399449282123 130.62634597658834,357.07068575873717 134.33929162110945,358.1588904227382 137.81031720475005,358.74633448337596 138.583409199163,358.7596850424359 139.54582999656523,358.60281467451136 140.90794453700875,357.90187190479884 141.68103671447628,357.34441782123935 142.24902266581964,356.73351669459475 143.41654950629743,355.04414869742857 143.874093770301,354.5866978554273 144.50518932264194,354.30620582622464 145.2625039854516,354.1258850209141 146.27751604074928,354.0457413937921 147.1926045687615,354.34627660183736 147.85525496736446,354.7135842753624 149.48032598032358,357.3177127311991 150.55318846506398,357.45123799440944 154.37657579692575,356.48981254766005 155.0865582818684,356.2093781280071 155.79654076681277,355.74864583453666 156.5854102758836,354.72026239877346 157.05873196302028,353.90548832306393 158.35773699398925,351.14674607364265 158.75217165700118,350.5922267429137 159.17816116627344,350.1111710795071 161.229221780027,348.9017403890813 168.08186785465216,346.38882741586684 181.9817477038656,345.5599514877583 186.68866880900148,343.34702438254277 187.0988808036218,343.26010093819656 187.71419902435437,343.27681704403983 188.47151368716317,343.4272605231655 189.26038319623314,343.7548845105793 190.08080736851733,344.30981291410745 190.61723856512856,344.8379668171872 191.05900558905273,345.3861456434612 191.69536022141958,346.37211692235826 191.96357586548754,347.01043581430673 192.07401755282652,347.3646671105307 192.45267488422837,349.76372649221906 200.7568406834795,350.04435586819716 201.71926148088176,350.5120524733162 202.72901436463138,351.14674607364265 202.75005086778273,351.82481809506265 202.52390832155587,352.4226828050087 202.17680574489128,352.9637338751295 201.18283019274494,353.90548832306393 200.78839552973471,354.54662800144445 200.64639899613968,355.3613460389589 201.19860761587978,356.783592014274 201.7981484134843,357.4111807332059 202.72901436463138,357.78170508512216 203.83869068413406,357.7416491330576 205.68464525481977,357.8918582077679 206.71017556168977,357.6448463904488 207.46749031602926,357.2843309411396 208.55613004084987,356.39299687111554 209.8551351633436,354.88053754653976 211.9061956855724,353.01382953408125 213.70481807839198,351.00644917904805 214.35169096233793,349.88399716478193 214.76190314000092,349.35613054077567 215.3035935081611,348.9084226969286 215.7611377721706,348.42059703414753 216.70778114644483,346.7698181228606 217.21265758831964,346.3019327300712 219.13749909160026,345.21233630709406 219.5161564230089,344.90147702026314 220.35761718997432,343.98889440258336 220.72049709824816,343.4774077291237 223.1502150434027,341.7856233469916 225.83763038104703,340.19051580180076 230.36574102630254,335.92885984461816 231.3491983268638,334.3427821008375 240.64733958672463,320.5384438589952 241.24688038433428,320.0290101152204 241.90953078293128,319.7508205957761 243.35053225597733,319.8815371890466 244.02895998618357,320.0558231001341 244.6285007837881,320.36416706136055 245.1018224709265,320.77639344852406 245.81180495587085,321.80520337684504 246.09579802307198,322.36815172542475 246.4429005082118,322.8841576476754 247.0739960605536,323.24266418591253 247.9890845885667,323.33312628932043 249.7771887298072,322.77023677454144 250.70805477247302,322.2542244854396 251.38648250268437,321.6678119012362 255.11520538728487,314.9029434740012 261.2263141307062,308.4552747048395 262.1887349281093,307.61292037125645 262.72516612471964,307.28736832724456 267.5109741624598,305.5117326959822 269.10449042068507,304.71946703218157 270.44556854948917,304.58517796066775 272.3441142865439,305.1357505770506 273.79563419421254,305.96154800565773 274.67916796749347,306.86782560245325 275.4364825387792,307.87134002724616 279.0389864959605,311.4045862312172 280.3011776006441,313.2461688168193 282.6046764353385,315.647388917267 285.2289820804597,317.0925146009427 286.75938892073515,317.9574699539812 287.48514882880585,319.9519222621627 287.40626180468024,321.6041420842143 286.8224984302037,324.5492528220923 286.44384109880184,327.63742728452473 286.7278341659979,328.76592768606235 287.12226882900814,329.0907227583523 287.5798131845424,328.69895814816306 290.4881118968587,325.1991280503496 293.23337757242945,322.5088835368838 293.7540314374314,322.14699761847004 294.5323826033984,321.8487659670119 295.5894676650133,321.6678119012362 300.3700166227275,321.80520337684504 306.3917200904425,321.2087085879807 307.05437039751473,321.51031192016916 307.55924693091345,321.90573238109044 307.8274624834575,322.3312931143478 308.39544852632565,322.9712726748524 312.51860625699015,326.1236138584604 312.9603730978665,326.5757743488137 313.30747567453705,327.0948943605858 313.5756912270752,327.6575204114241 314.0174582510053,328.86972930106697 314.5223346013503,331.02921046085237 315.1218754904838,333.01080206965185 314.7747728222894,334.90496730150363 313.5914687417331,336.61139189935915 306.6283808882442,342.54462417406245 305.2347115930677,345.6201143480505 304.85605426166074,348.46737598011316 304.85605426166074,349.97754017559026 305.0927150594667,350.9730447995117 305.83951156222713,351.9651026150762 306.2181688936281,352.81678473104967 306.5810488019028,353.9555788989443 306.9754835564369,356.1492839029422 306.92815137857247,357.39782811949607 306.7388226671062,358.39921298027724 305.534481900349,361.40271982096675 304.761389905931,364.47196835388627 304.65094821859117,365.6160049380658 304.6667255502004,366.546473214628 304.96649594900055,368.5871746189075 305.20315674680654,372.30730162885936 305.17160208359314,379.48667757748467 304.9349411942624,381.04841694575566 303.67274999805494,384.7635729790312 299.40759582531933,392.30252344178797 298.30317858583913,395.0092051394281 298.4136203647037,396.4752741395701 299.0762707633067,397.52232566888966 300.79074705196876,399.76893560863687 300.8223382333915,399.8103269494936 300.3331205584558,400.0712187664685 299.8177257820451,400.7523845108908 299.31284938060827,401.9019469940407 298.18739567425456,402.3770139448327 296.9883140554778,402.59626744099177 296.2783314792062,402.9915752562789 295.92071069908724,404.18071980199045 295.89441506696454,405.2767249779121 296.25203584706986,406.3327538721362 297.0514235929338,407.3753826572304 294.66903781604634,408.2651778448395 292.28665203916995,408.66356621072663 289.99893061936,408.1987780509858 287.9531291779591,406.50210592783674 286.76982501986623,409.76900518194816 287.2484057891736,413.7183074034613 288.66837083994756,417.4569959406196 290.3828471333709,420.13652308706145 291.55037383077564,420.68692532057025 294.8951804355237,421.7213289944494 295.58938544933625,422.79871154949905 295.86286024735404,424.63163536773874 296.5412880040032,426.30846397446237 297.4616357390632,427.6669398812625 298.43457463660445,428.56806425950225 297.8718477834276,430.0487684456394 298.0927313171872,431.8339160622065 299.12352066646935,435.5687135938294 299.2444806556713,437.4554146897818 298.9867833183425,438.58063541994807 298.62916243646026,439.61307250991973 298.43457463660445,441.21444985689715 297.1566061214332,443.0834819621763 296.6622479932052,443.4407061643343 296.2415175738721,443.89052463277807 296.2730723934834,444.91245900895154 296.40980974160516,446.0797759311659 296.2783314792062,446.93285106360395 295.7050863528188,447.88833575419085 295.47894383511147,448.15281278824324 294.9582899729848,448.6817443549169 294.6217056375101,448.55612580288033 292.6653094674588,448.6420754586107 292.4654624801162,448.6817443549169 290.98764697759793,452.4098711532674 290.729949640281,453.523396492247 290.0462627979013,453.9396957686966 286.5016093075704,458.36256729548677 283.577533223923,459.5315240804722 280.51671979214956,458.98338716205086 277.4769428050196,457.88041297057333 274.679085796291,457.4147474121087 275.3206995458513,458.36256729548677 272.1547034838008,457.78133706257216 271.208060218395,457.4147474121087 270.8615789770612,457.09207145015125 270.28245329585496,456.5527103465002 269.89327769612635,455.70050434870956 269.3673647482828,455.0530407101233 268.0525823277842,454.7953642246864 265.89633917038003,454.0090772395876 264.7919219086638,452.19177679069065 263.8452786432495,450.14937435169384 262.1728753408763,448.6817443549169 259.774712103305,448.5495141797302 255.50429888131427,450.71785446456727 253.43220170601467,451.29951935664326 252.42244890314518,451.7754004251947 251.3706229056761,452.68413452286154 250.30827863501517,453.23924531805994 249.25119355183517,452.65109120256415 248.49913808628347,452.09925032519686 246.23771229860222,451.4118824154406 245.42780638131222,451.29951935664326 242.91394234203602,451.62999479909934 238.6119741986546,453.483748070024 236.3400302395464,453.9231763200726 222.46644599760575,452.6610041340709 220.43116272762754,453.56304500371465 218.6798726306401,458.93055294038254 216.4710382089811,461.0833054966381 211.95870480506085,464.39072159754306 211.59056575173892,464.99794580352375 210.95947017362002,466.5290336968464 210.56503548818048,467.16581417010923 209.78142510124997,467.88832656897887 208.31938705942667,468.91756418926735 207.7934741115763,469.62345085928865 207.17289680666627,471.64845982660313 206.9625315461036,474.0159182440758 207.03615945853855,478.8874602274969 207.23074725839945,479.33889054949157 208.18264971129898,479.5958995361188 208.47716095394833,480.1593181916599 208.44560613434382,480.8446011667193 208.2036861559416,481.0422697145439 207.93021145969806,481.12133582749135 207.7934741115763,481.5034802680493 207.83554710262564,482.68275962547864 207.99332109892413,483.8783598715898 208.29835051300807,484.9750176915416 208.82426346086356,485.84764282607705 209.68676074417158,487.74738333999125 210.35992941510986,492.1314690558842 211.19613096453023,493.2863984680949 210.37570677403644,496.0892329940986 212.10596042638554,496.8786148261427 213.97295152862728,497.2667035982816 213.66266292705046,498.8945303952121 210.16008242776886,504.76554808693857 208.47716095394833,506.39537932890875 204.36978071220975,509.00384338143175 202.73419131516732,510.9219560322347 201.62977415522116,511.9465430265926 200.42543334894557,512.3931235329858 200.07308193336485,512.4687464963882 197.73275897049322,512.9710201128366 195.71325316121164,513.9264426932036 193.66745171980395,514.1201423189135 184.0327260837768,507.61756973297105 183.49629486273457,507.37445818415085 181.24538734825794,505.81708393703565 180.2987439810753,504.76554808693857 178.47908505736467,500.242620513065 176.64364887652047,498.6972328821624 174.32437263708903,497.1779050152089 172.30486682780574,495.335970164983 170.80601488066193,490.70324278389245 169.22301684963753,488.4650373342848 167.16143794753575,486.57531799463925 165.14719132573256,485.45579474391934 158.19988098244687,484.58642664823935 157.84226010056466,484.4349378398265 157.25323761526423,484.309792888199 156.96924454404862,484.73132690201874 157.5004166793842,486.2460600841079 158.15780788962752,487.0691833292471 159.80917464559485,488.3070264749928 160.2824963291853,488.8600529843677 160.64011710929836,490.70324278389245 160.0984268025282,491.83531080088716 158.96771380691837,492.13805031920816 157.5004166793842,491.46674537338555 156.14882035355313,489.666492525439 155.23373180598097,487.6222820371536 154.08724145144623,485.995816528215 151.95729392616988,485.45579474391934 149.7169046849081,486.1867924426673 149.34876563158616,487.6288664243914 150.5531062343225,491.46674537338555 150.81606286089635,494.18457967538393 150.38481416836032,495.4214965132449 149.17521427636873,495.32939124201744 145.38864090940223,492.8981472410034 144.2000776655925,492.3223218051078 142.86951778439897,492.19728084743275 140.77112507873903,492.41445620856933 136.80574116906902,491.84189214191707 134.96504580072175,491.93403132938096 133.8132964622436,493.2863984680949 134.33395022260282,493.7897852624388 134.61794329381846,494.34249297854336 135.20696577912398,495.8951666955106 132.9034670004002,496.2536930927271 131.66231239055628,498.09216165165617 131.08906726418246,500.14069850311455 130.69463257873613,501.1039832346317 128.85393721039992,501.380128628424 125.04632729702246,502.5733797261627 123.01630311276708,502.83962204054023 122.51668579705134,503.3983779065122 121.11249820696804,505.843370881484 120.20792783083046,506.39537932890875 119.13506538873408,506.48080625819983 114.29666612608044,507.5781466288645 107.9804512591377,508.05121248180524 109.43723021525092,511.0204788660377 108.76932073179785,512.9152020421673 106.77611065641497,513.9231597720307 104.12550916724274,514.2055000793802 102.11652173292646,513.7360226306258 100.13908891469164,512.957886471052 98.1669152839514,512.8068484817155 96.23681464424854,514.2055000793802 95.46898171801212,516.3096576766496 95.55312780188079,518.8727553255808 96.23681464424854,524.2133402962013 95.16395220215387,526.0333123212922 92.71845688781464,526.0136388364116 88.52693046043734,524.6134359047269 85.86581079982541,524.9872806939564 83.98830162791998,526.5382523082476 82.36323050408814,528.2266563780273 80.46994376971178,529.0199395770921 79.2182708866811,529.813156761101 72.48658488965707,535.5996878584423 71.44527716540368,536.2875478522151 70.22515910198263,536.7919471299202 69.42058574860935,536.756748291241 68.95244977430421,536.7362679486587 68.02684285175312,536.0779193992859 67.51144817711163,535.0886739758027 67.10123603098313,533.9715555489622 66.5069543581907,532.9198381505295 63.009633148170295,528.5872477923215 62.105062873807,527.7873721403458 59.69638136302592,526.5185797351227 58.591964203078895,525.5578575728384 56.97215226673311,522.9473534943268 55.89928972285734,520.7068675322074 54.48984304706229,519.1319803921969 49.888104575319716,518.0326863969824 47.358463177111815,516.7429056309865 45.04970510912686,515.0524711417149 43.7980323278543,513.3453208593536 43.68759061186122,511.44083115858285 44.560606168384076,503.3162100381311Z" name="Khatlon" name_en="Khatlon Province" gn_name="Viloyati Khatlon" admin="Tajikistan" adm0_a3="TJK" iso_3166_2="TJ-KT" iso_a2="TJ" postal="KL" type="Viloyat" type_en="Region" wikidataid="Q633511"/><path d="M144.7022879013175,314.5281587809982 145.56792161900302,315.39968911317067 146.29687636716957,317.37485302658274 147.34474877189544,319.2334445853543 148.02814380253974,321.09166188471335 148.39262117661963,323.1236589048019 149.486053207343,323.0656079928159 149.34937414630014,324.5748116026476 150.397246551026,325.1552087516426 152.17407370391757,325.56146519806936 152.766349391037,327.24433691034534 154.54317645240468,327.6505015061482 153.31306536063846,329.5070262721964 152.67523004751726,331.1891797595932 149.6682918943842,332.40709995749245 146.8435923367659,334.9584128280425 147.07139074133448,337.10329062911774 146.88915205429413,338.4363424141328 144.97564593188275,338.89996766741376 143.01658018347555,339.01587035310644 141.14863377858728,337.6829019102248 140.8752757480212,334.842459319475 141.01195471754443,332.9290167427274 139.96408231282027,331.3631782472477 140.6474773434586,329.85508317756825 140.00964203034167,328.346741923836 137.6860989078478,329.3329928466238 137.0482635032061,328.57881044633024 139.69072437377721,326.72209918540995 138.73397131257195,324.40068525257675 139.09844859513476,323.23975951733183 141.33087237410373,322.5431339441938 144.01889287067831,321.2077880527009 144.5656089317994,319.69803401579287 144.15557193172035,317.3167660616195 144.33781061876155,315.5158869422417 144.7022879013175,314.5281587809982Z" name="Dushanbe" name_en="Dushanbe" gn_name="Dushanbe" admin="Tajikistan" adm0_a3="TJK" iso_3166_2="TJ-DU" iso_a2="TJ" postal="DU" type="Viloyati Avtonomii" type_en="Independent City" wikidataid="Q9365"/></svg>