<?xml version="1.0"?><svg fill="#3498db" stroke="#ecf0f1" stroke-width="1" width="800" height="552" viewBox="0 0 800 552" xmlns="http://www.w3.org/2000/svg"><path d="M772.4399734003057,396.8145656582287 771.7890735789905,396.71625504297236 770.6558106448307,396.1409189928229 769.6823668034913,395.1794570870453 768.1219508791642,393.08475285089054 767.0991084152711,392.2065492151731 754.4763024313062,387.4741017552634 753.4011555104536,386.6825117492659 753.0088721957434,386.2264722362079 752.5584728115011,385.55146059356804 751.6169928112151,383.42369100152405 751.1753108177185,383.13894930581523 750.0536710524849,382.8870494731025 749.2051767409544,382.50004922960863 749.0598865952398,383.5076502577165 748.7111902905075,385.36171193491856 747.967304892888,385.9838429684786 745.6542861239635,385.95830239354933 744.6837481170239,386.1717448526684 743.9979786764826,386.5840105619856 743.4284413749979,387.30995702285696 742.844375126426,388.44792135333336 742.844375126426,388.4588620943222 742.8414692920172,388.46250897937034 742.8356576794447,388.46980288297357 742.138265126203,389.8627365813189 741.5745394373034,391.36464718030044 741.3072055961711,392.94446877167877 741.7517933678408,395.96612091285687 741.7837572088977,397.52453182995174 741.4815537485391,398.95327480977176 740.7609147449984,399.944975867511 739.180158148545,401.56404782628624 736.5765591444198,405.14969687386804 734.5831786735806,406.1929302039352 733.8248892154106,406.21249895628085 709.9361620137976,406.82894639457805 705.7750528635244,408.2042955816736 695.5873093438954,413.6966561227484 693.9484367341377,414.9232571944373 692.902347876163,416.70821392655637 692.6466372601916,419.4443374602809 693.715972568468,424.7765188015881 693.9484367341377,427.5175181630928 693.1871164987922,429.88804355342995 691.1247977856209,433.67136343062265 691.0978899477869,433.6715044441183 677.9869091219579,433.7402028669749 666.5322357391674,433.65342574070064 650.9135474474101,433.6100366765573 637.5177979885647,433.6263076329437 624.1249543047431,433.6787358956459 622.5296687947194,433.28822308698244 622.0734577661972,431.42204267688885 621.4109348395529,399.01702449993354 623.636779548628,397.1204658816432 624.6131291620001,396.0790689290353 626.8302564448511,392.63843832605073 634.4202125279793,382.77027932620496 633.7751244032145,379.67340370612385 626.1764509444309,370.379033046716 606.7889367380808,348.3601643189362 603.0259225252508,346.10494710989923 590.112536272462,341.04136048952046 584.3212719741639,338.89339702966316 579.2680814612377,334.4750136335685 561.284069944213,315.2784380417645 515.1631729275799,266.68899579864006 504.4901603601489,255.6562906033191 495.8860792342852,246.82313816519564 493.9508148599968,244.86184990182977 482.719888227781,243.89404785566273 456.7274850284712,245.93446604455144 454.3185748237772,245.70946076317836 453.839117342179,245.2069123491169 453.6211821922282,231.8634171107844 453.22889882117886,208.47790073024873 452.8889199569169,186.37831083494302 452.77559366882616,185.43889318129445 452.51407143831676,184.68153507831587 451.7701859511805,184.40058064580816 440.61190445323194,184.06265474649723 439.86220741603734,183.86900138761266 439.56581558176566,183.40572108614467 439.46120666933354,182.57778380570127 439.15319158323314,134.78235509904246 439.60940261175546,134.69989044751705 480.3807172306182,134.6270135538805 481.1507548447262,133.17500065057277 481.44714672956763,132.0257419178642 481.708668960077,119.20234338330543 481.7086689418513,117.75471521169396 482.0427908650784,117.18172023730573 482.2578202492512,117.354944426717 482.43216834538543,118.02083753208764 482.7459950308917,118.69818376782251 486.070233094792,118.12860350291318 487.0698291646096,118.15939338154226 492.8581876432627,122.27576843073071 495.1421484617604,123.20627620785528 497.28663063466166,123.13322622741589 499.2277067047723,122.152712676321 500.80846324499515,120.41421592186829 501.8777985532748,118.07856956906396 503.25514893447973,117.28950492042294 503.80143978565894,114.66734500546949 504.56276007723443,113.0995298522309 505.8238783193757,112.47919709042529 507.89862131005196,112.71423937052079 513.3673416030808,114.15892020020785 518.2607129820458,116.27315372612127 530.8312145090515,125.53560617374029 531.9296078239792,126.7382702524293 536.0558473550229,133.6756178052985 536.5323989677433,134.90694844048883 536.7241819016107,136.42170880114261 536.8752836599037,141.6526277986615 537.148429057378,142.74408792420888 536.7241819016107,143.2992982219619 537.351835272627,144.76551461983792 539.1214689685416,150.97767846152266 539.7665571210543,154.35203188954185 540.2140507271268,155.92949629048255 540.8300808167526,156.90703915475132 542.6839828106831,158.9302368461611 543.3232593506173,159.9606004704161 544.4826745132518,164.4954347280549 545.2410889704279,166.05438549877945 547.3332667988278,168.84705854430442 547.6645282658338,169.53260115329488 548.1178334844792,171.21177537592456 548.2151582537462,171.3848200098257 548.4839645707141,171.8627290225542 549.6985900247049,172.78000821226246 552.3690224891108,173.57915731648896 557.0183064210249,176.25345726931718 557.5616915502616,176.91515013759698 557.7360396463996,180.02087298449499 558.0847360073625,181.3811467423755 559.5318256270258,184.28661627798107 559.9938481801919,185.61914011902965 560.2001601736134,187.080325481111 560.2437471835847,189.02663399968455 560.4733056273118,190.52093785036038 562.1993522570247,194.26608448519633 562.4201932537704,195.82698610203252 562.1063666244975,197.15260707293208 561.6385323462921,198.48165826319695 561.4031623462231,200.0639366420881 561.5600757170882,201.74407955628544 562.548048561758,205.85499458690842 563.1582670950442,207.80903433530148 567.1944267154995,212.88895332704874 567.801739470613,213.2362372225532 571.0504266272516,216.504044635101 577.6291634603515,221.20953014379052 585.294670383235,226.6861113128968 594.430513432317,233.20194541542827 612.9695332029103,246.3993864216871 620.7803302715106,251.94955152941594 624.348655726225,255.34183217188757 630.3927248770768,263.77889275272474 633.8099485735038,267.29389609996826 640.0399891018751,271.7541569449783 647.8914674585103,277.3658676452132 656.9401363751708,283.8293182765453 658.6255017730823,284.7094663408023 660.2876208331423,285.0220403305138 661.7405220653809,284.7094663408023 666.0934142057524,282.53207676086885 667.7904028288117,282.3310397362179 669.1270719782176,283.16119665419865 670.8265052843878,285.3635845787295 674.0175375227799,289.49643093480904 685.8586826554899,299.4724136034463 693.0825076411097,303.6449272640569 701.3582330972765,306.5618007634829 705.1357762673541,308.9326149859633 712.6211235377573,315.73702761528534 717.9329304599139,320.57436043982915 725.5170749191908,325.70798343372815 731.107838851391,329.4829000749255 740.3599139833065,335.72773874709156 744.1548920473472,336.99126625721135 748.0108919028659,336.678176051469 749.4608873569318,335.86036848927745 752.1807184438842,333.67522617194044 753.7847214344191,333.02281983378333 755.6851162727279,333.19237974909464 761.3514311121926,335.9303661088725 765.0650466563934,336.52714935016337 766.64580319662,337.357741580652 770.1298603533276,340.15424935984566 773.7766425497088,341.1921973737753 775.6131097059092,342.0422754784133 777.263605484588,343.611423654388 779.8788277138649,346.9100435886115 785.5800122287897,349.5801233363389 787.329305308809,350.1055235406331 791.6298929359899,350.13124105687956 793.7801868339247,350.7171983784372 795.8171543147422,351.70344036646344 797.7088317622982,353.0511835969689 797.7204549874498,353.06036319861306 797.7262665437955,353.0640350773392 798.4115891150278,354.99910594196893 798.9321746070408,356.4685429200954 796.8661490071162,360.4941663511876 793.7511287710472,364.5496376157427 791.792617863204,368.0436323788142 791.5775884790307,370.82176745339314 792.0250820851037,376.37358804213903 791.8100527571605,379.1874668897348 790.5779924092099,383.94750208955276 790.3687746376162,386.46726609502434 791.1359065417707,388.46980288297357 792.2430173036763,389.4197363628723 793.1350986251824,390.38043406625997 793.3559396219333,391.50679599892425 792.4667640785942,392.96268768105824 791.4148636080477,394.04295638550417 790.566369240286,395.24683807991806 790.4443255448771,396.5378347553095 791.8362049294124,397.611905611933 790.8976307072919,398.2125611017907 789.9038463062765,399.0752004885359 789.0437287695947,400.03594816212575 788.5671771568743,400.41073764557154 787.9831108520664,400.5162560207984 787.2857182426006,400.16694560758157 786.4401297092455,398.91505876442346 785.8705924639913,398.6366188984374 784.5281117020129,398.80950810241785 780.6517711743619,400.07961438768285 779.1756234918206,399.9340590298 778.0481721702394,399.0842992977083 777.1125037825254,398.1288375578669 776.724756374274,397.93105579726284 776.2204224047927,397.6737945575862 775.6944721695162,397.52453182995174 774.90409387129,396.86372027425426 774.2996869505791,396.71625504297236 772.4399734003057,396.8145656582287Z" name="Chardzhou" name_en="Lebap Region" gn_name="Lebap" admin="Turkmenistan" adm0_a3="TKM" iso_3166_2="TM-L" iso_a2="TM" postal="LE" type="Welayat|Velayat" type_en="Province" wikidataid="Q487389"/><path d="M691.1247977856209,433.67136343062265 685.0973624201413,444.71324883232046 684.1675055887736,446.94987800409655 683.4468665852324,449.70469151364523 683.266706876519,451.1428307235048 683.2783300454397,452.55175903334106 683.5427580521632,453.97472334769833 684.3331363503964,456.63590949194503 684.4871438868585,458.0793815918544 684.2256216583118,460.8536412008801 683.5805335057986,463.42151780934404 682.5838432703771,465.826436773311 678.1699292823018,472.650675620761 677.0192315104184,474.0252487463595 675.1566121257423,475.5286220083794 673.262028900006,476.23172635721215 669.1212603656352,477.19655156585486 668.092606289164,477.6269010830689 667.2324887524813,478.19706112968646 666.5699658184728,479.03605490235896 665.6807902189094,481.8245903647793 665.122876142579,482.2939832852349 664.4254835331137,482.12916299325445 663.4927209797992,481.7421736366194 661.1738905420759,481.36232373463326 659.0817128261327,481.7529237643602 657.0941438554092,482.7382565549735 653.3776225330289,485.56784797256194 652.6686067546398,486.46297916534684 652.1949609200952,487.5655768963342 652.2036783108432,488.8003622039231 652.720911155365,492.07386170417783 652.6947589268879,492.9428842622295 647.3451765511015,490.85771083094426 645.7702316234539,490.5214325817867 644.8906951903374,490.65896446563437 643.9628224739063,490.8040507792616 642.2774570197679,491.3263189578605 636.9947081042584,494.42669491727423 634.7339937922934,495.00938153422004 627.7949374855297,495.4383132303611 626.6587686607398,495.68850767179975 625.6097739683654,496.2710585838583 624.8310189515204,497.0715170319881 623.5001614146963,498.8935485455641 622.666196106489,499.6436188281773 618.1186151978537,501.7718248554363 613.2107148155588,502.7927816911089 600.9714748117948,502.51792759742233 599.7800957518732,502.7785039484278 598.9112608244394,503.6815004154122 598.6729849899672,504.87693670736024 599.0623625265052,505.7581794090591 599.623182437235,506.63927928214844 599.8701756624616,507.85902797052137 600.2275893579457,508.75404960635416 603.1072396501753,511.3491362339078 603.894712113996,512.4110539661943 604.2695605909764,512.7246008050319 605.69921542914,513.2661392254269 605.983984051766,513.6259474289336 605.9374912073855,514.1068421894599 605.6062297403862,514.7337226874158 604.0429079816558,515.887564215919 599.7277912949174,517.2939235696838 598.2371146652758,518.7639826054157 598.1412231983451,519.7888741892468 598.2777958408543,523.3033609959917 598.4579556057939,524.1460750260322 599.3936240497412,524.9068950570603 599.5912185961781,525.6285097081967 599.0158696821219,527.7892299523539 598.7775939038797,530.3930441720545 598.437614989892,531.6714086379039 597.6850122015242,532.459584826175 596.5749956052164,532.750684360165 594.2387304422197,532.9530248643437 593.0996558392568,533.2157014603227 589.3279242255212,535.0292466961282 584.231146687534,539.0694174424525 583.9780120003877,539.1931618789415 580.4594150738012,540.9129332388372 578.9832673912571,542.4014759348898 578.2742515566347,543.3829849348133 577.5419893841724,544.0950895561853 576.6993066289904,544.6193665064387 572.6195599985533,546.3795799509563 571.6897031671823,546.6062063716159 571.1899051603898,546.5247635539487 569.5335977129023,545.8271388573454 568.9291907921952,545.8519290640271 568.3712767158644,546.0148333817672 567.8075510831889,546.0608707096173 567.1944267154995,545.7315184146763 563.5011517872016,542.3235146113586 561.9814170946826,542.4085632794149 560.150761551057,544.1021747208408 554.679135423626,551.5294916501234 553.789959880293,552 553.2000820191422,551.2889154768222 552.1394641016137,548.8153263883618 551.8082025783777,547.7746011985126 551.9011882671421,545.0019153939344 551.8227316379376,543.7975048203772 551.4362598795694,542.5857436522865 550.8376645714372,541.5083986551957 550.0124166539845,540.6506245303284 546.9119254212396,539.2857080090996 545.3631327220697,538.2431799316199 539.5980205812621,532.569636424452 538.1160612861455,531.543585577423 536.4452248915638,530.7197656824378 533.1616680594697,530.6558434979166 526.3969599050739,533.0169203439776 523.0552870596773,533.272494751875 515.471142600404,532.1152155366386 511.75752699997,530.6238820917323 509.17136283358053,527.7465924892141 505.5158633026776,524.3985083901802 505.0439086598132,524.1888829474359 505.05388607612775,524.1781298043585 505.6147059665091,523.5736680820816 506.23654768876406,522.7006363353113 506.7683095254386,522.2258335162384 508.6948565746452,520.9559331428538 509.1772198312716,520.5254518080714 510.92941865937536,518.5220218265994 511.14735391046514,517.8902373120618 511.32170203042523,516.9308527197855 511.7691955821503,511.81603367250875 511.8796161457793,511.44185071236285 512.0190946619742,511.09615411232943 512.4404359855919,510.572221622724 513.6260034238252,509.427948695842 513.7829167419029,509.17838680775 513.8265037718927,508.8931591666128 513.5736989676108,508.5793915109397 513.3034593614427,508.34048812409947 512.4055663818262,507.7752793518729 510.19715647463426,505.32476727754687 509.412589833674,504.62543740861184 508.57281291089953,503.61553184727023 508.2328339960645,503.0908778572215 507.3262235902239,501.239907409965 507.27391918457874,500.8221468748853 507.31750621456854,500.3222202237112 507.7359417631556,499.5008120879448 508.0933554798701,499.1114926101061 508.4769214246953,498.86860022968847 509.5607857255271,498.6381996420454 511.32170203042523,498.6703491607328 512.0481526651128,498.4970967492714 512.3619793518365,498.3577763792343 512.6322189580017,498.16665154071745 512.8588715341795,497.93622111081186 513.3731985689711,497.55393501736296 513.6783078294712,497.4574660178438 513.9485474862076,497.2895344718486 514.4192874910101,496.85717594991894 514.6720922952948,496.68922579471115 514.8551578414799,496.4980421500328 515.0062596094994,496.1567535960781 514.8290056639418,492.76235229206026 514.4105700647855,492.26883398329494 511.89705089708957,492.0989530689569 511.29554980231825,491.6947939929453 510.6417443018976,491.3728757463491 510.24074350462405,487.8179814484118 510.0663953846635,467.0519035998451 509.89204721413415,446.69385185134774 507.2128973527057,440.4069511448978 494.1600325837196,418.64854428430414 492.14340569950855,415.3877510028318 481.708668960077,398.37460115699196 481.5953426214207,397.91411899750227 481.952756388704,397.717537234473 482.3624745616362,397.65200832076425 484.9195807087498,397.53915112649923 486.07899586830587,397.3097886020529 486.90133798919805,397.29158477808727 489.3945165294136,397.7484811449038 489.8129520780007,397.92321989983486 490.20814122407785,398.168936327099 491.3152519274205,399.209918149153 492.1085359946044,400.3525764918752 493.410335546525,402.8153597803935 494.0379889199768,404.42991110211324 494.40412001234665,405.98581079467255 494.43027224045693,409.4703730288433 494.7092292222765,409.94618732431746 495.3368825957283,410.68888002484965 495.8337748286405,411.14461270370435 496.45561655089546,411.4895634088092 496.8130302170402,411.6275373126011 497.59759690856924,411.8254147417774 498.4693376600788,411.9288888770503 499.3091145828533,411.90710495767945 500.0849638481548,411.7836614037552 501.462314208231,411.34613928925756 502.91230965200475,410.42195854026335 503.22613628816015,410.1314163050265 503.95839852347433,409.15071797700597 504.47272560883533,408.19526932579123 504.9085959593052,407.0906561192518 505.10909635794246,406.3092928224954 505.1614007635909,405.864045520807 505.1788356160402,404.9716200004627 505.06550927738294,404.1753976125812 504.9434656136401,403.7899681239205 504.77783481876617,403.41360166960413 504.5250300650535,402.98265616880457 504.2547903577465,402.68988400670287 503.97583337592357,402.4407419486758 503.043070741975,402.01517293109083 500.5731386548391,401.4404179204378 498.9139254367733,401.5186319956765 498.54779429383086,401.59502593714484 496.8827695257067,402.26251638571915 496.1127318610327,402.63714687108376 495.55481774567863,402.9990218370591 495.3194477938455,403.1063065650722 495.12766482143667,403.01175062675776 492.2916015913579,397.8904568309093 491.7511223284592,397.1805401334078 491.4547304436149,396.92021329675663 491.11475162992224,396.7235942519991 490.7573378626352,396.5925108114081 489.91756099043,396.42865182007074 484.92829808440746,396.1154848754076 483.8124699548411,396.326692563396 482.5455401078242,396.2356557977265 481.48201638390253,396.29391951250744 480.8194934066889,396.2611462566273 480.040738315787,396.0790689290353 479.71819425340453,395.9170147556692 479.4566720228952,395.709432448412 475.43504140515284,379.6843628368589 475.33914991894727,376.0154060168105 475.8796291818502,373.9459098651904 477.0739139957384,373.8800819777623 478.01829978037574,373.4704675947634 478.6110834994931,372.68040587478794 478.1490609209153,370.5986037978095 475.3740195732826,362.6698753711063 475.2345410065156,361.7168800385901 475.6616940318994,361.2934739815057 476.5857391890541,361.03868051139796 478.92491018622064,360.7270454931724 479.8838249977064,360.34572547962716 480.4853260924815,359.69301639865193 480.02330356447294,358.1452538673971 475.4873458613701,349.06575112794883 473.2440663504115,345.7850564698834 459.14511270995587,331.1315365175596 458.026378754792,327.8744376000121 451.0727934207705,298.76744249201 454.048335116474,299.0698748629782 455.00143832733545,298.99194918951804 455.88189650506916,298.6357025140824 456.38750611363673,297.485152058812 456.69261542470565,296.2879320300971 457.8694654367143,288.90347817510013 458.15713989533157,287.7897686752753 458.6395030508195,286.8655201894163 459.624570090416,286.4637821008312 463.1231562471387,285.91878093186926 464.0995059616496,285.4053473399702 464.66032580145935,284.12153552504566 464.9915872900692,282.943491378798 468.54247795357276,263.2146784345898 470.34698123789514,260.8915251382433 477.5737120036812,258.70569714624463 481.1681896971754,257.8602803011923 481.7173863863054,256.4384621769321 482.39734416540136,255.27077363790943 482.719888227781,243.89404785566273 493.9508148599968,244.86184990182977 495.8860792342852,246.82313816519564 504.4901603601489,255.6562906033191 515.1631729275799,266.68899579864006 561.284069944213,315.2784380417645 579.2680814612377,334.4750136335685 584.3212719741639,338.89339702966316 590.112536272462,341.04136048952046 603.0259225252508,346.10494710989923 606.7889367380808,348.3601643189362 626.1764509444309,370.379033046716 633.7751244032145,379.67340370612385 634.4202125279793,382.77027932620496 626.8302564448511,392.63843832605073 624.6131291620001,396.0790689290353 623.636779548628,397.1204658816432 621.4109348395529,399.01702449993354 622.0734577661972,431.42204267688885 622.5296687947194,433.28822308698244 624.1249543047431,433.6787358956459 637.5177979885647,433.6263076329437 650.9135474474101,433.6100366765573 666.5322357391674,433.65342574070064 677.9869091219579,433.7402028669749 691.0978899477869,433.6715044441183 691.1247977856209,433.67136343062265Z" name="Mary" name_en="Mary Province" gn_name="Mary" admin="Turkmenistan" adm0_a3="TKM" iso_3166_2="TM-M" iso_a2="TM" postal="MA" type="Welayat|Velayat" type_en="Province" wikidataid="Q487401"/><path d="M501.93010301022827,520.5858791452838 501.2327104569931,519.9739035288225 501.7150736260616,519.1981615216306 501.7615664704393,519.0166646819285 501.2327104569931,518.5504392229783 500.82008647015004,518.3368876229447 500.3435348574296,518.3368876229447 497.39705116114675,518.9063400813994 496.6299193132284,519.1910441716001 495.2641921571689,517.0696424072614 494.49706025302095,515.5136608619437 494.35177016353043,513.6722576819949 494.57261110404846,513.2590140603322 495.3397430082039,512.5072577802114 495.50827954799576,512.0262218528519 495.4675983161877,510.8038429755442 495.50827954799576,510.4188972363082 495.88022224680407,508.7825738067695 495.8685990216492,508.1015185316202 495.50827954799576,507.595128940344 495.8685990216492,506.0471388284795 495.8337294024231,504.9268895075929 495.63032324340094,503.8884903045206 495.37461262743005,501.4148016145615 495.0201047101186,500.1936044488347 494.520306703326,499.03285516611675 493.93914617668736,498.07549646375134 493.03834746443334,496.9714662635427 492.05618617610884,496.06735157461725 490.91711157314694,495.45975895084246 489.5397612481725,495.24172381223747 488.76681778767505,494.8949940688145 489.41771749653066,494.0763378039417 490.56260371207117,493.1359814899263 491.24837309638247,492.4064670906343 491.28324271561235,491.7591194809672 491.08564816916925,490.36759624813686 491.24837309638247,489.53036341575444 491.6028810136972,489.20115940312087 492.13173702714386,488.99360737941447 492.60828863986336,488.64647686412246 492.82331808026663,487.89845984888 492.84656447433554,487.2648907927558 492.9453617194418,486.58470564092113 493.1197099280399,485.9653045816145 493.39866693809336,485.489069278996 493.9914506336465,484.7155449413028 494.1018711039015,484.2893429960008 494.00888547137333,483.9347459259666 493.8635953256589,481.8460902006787 493.0209125704768,477.5336616266532 492.20147632182943,476.17792056427305 492.01550500054026,475.5035093717509 491.9922584939981,473.8924724298462 491.8934612488956,473.16752762329656 491.6668086395713,472.43889553785186 491.43434447390115,472.02966957390106 491.08564816916925,471.60964210676633 490.63815456309965,471.25061827458643 490.0976753244995,471.01723997757205 490.24877708279166,470.53608939771584 490.33595110274774,470.34218075922047 490.5161109239212,470.06566927540416 489.7141094005396,468.07580274399015 490.0395592549679,464.66545225576726 491.24837309638247,459.0618714758358 490.91130001680403,458.0181948820228 490.8183143280397,457.1795070526854 491.06240177509426,456.4414969575698 491.4110980798267,455.9122268992792 491.7133014839513,455.24246316759536 491.93414248069706,454.4645676108586 492.01550500054026,453.60731067298127 491.9225192555459,452.73190209528474 491.7133014839513,452.08696197026876 491.24837309638247,451.0130896842394 490.7892563213894,448.6411560940533 488.50529555912175,448.33106854778504 485.70991356490197,447.8406606784441 479.9448014803328,447.9416306838759 473.2788905148105,448.0606285811861 461.28373790186146,448.28058740392794 453.42063637630855,448.4212121535177 444.48238798613215,448.583466745729 442.62267437962913,447.5485580826236 441.4661649951666,445.5178220337411 439.83310399798745,441.2337829905443 438.6475366068746,439.3234402245448 432.6906415322053,432.07305399376156 430.0928540844314,428.1093441127531 427.98324147452894,423.6246580305255 426.31531085811713,421.3962902509272 424.1998866356361,420.4829313452801 419.58547232294796,419.6600483205391 417.5223525574256,418.4490530917574 413.83198340729706,415.3332702354928 405.73641765984684,412.7021012987508 405.1378223517118,412.6621699761766 404.60896633826565,412.9416827369501 403.95225496059896,413.9779286038117 403.55706581148894,414.40071650874495 403.0223981854674,414.5132122579657 402.26688950646354,413.9198607333909 401.877511969926,412.7565525569309 401.6101781287997,411.42778022912984 401.2091774233383,410.332924908797 400.26769742305186,409.32138850647965 399.4366378930172,409.17608904717514 397.65247519377544,409.8807540768805 397.1875468062033,409.8535136429643 396.71099519348286,409.6156077335661 396.2576899748351,409.2523717688992 395.8915588886054,408.87457981565285 394.9675136698158,408.63118024472305 394.80478874260217,408.1279976601134 394.9733252823883,407.54846060146286 395.04306452084427,407.07606341757537 395.1244270406814,406.8834585279812 395.3278331996998,406.64541816743025 395.3975724943853,406.3037842722843 395.0663109711498,405.82945781569714 394.00859888802404,404.65163452298356 390.4867662776873,401.73138410197515 389.830054956254,400.7636702274896 388.72584997251727,395.90785356669556 388.59218305195816,394.432745637289 388.77815442947735,393.64767306926035 389.12685067797963,392.9535782342963 389.3593149561094,392.3231655949294 389.2024015852377,391.7382351228847 388.8653284494259,390.967338937079 389.0396766580245,389.4015051098411 388.77815442947735,388.46980288297357 387.69138428346747,386.9670601840418 386.56393290566234,385.8926261063196 385.2679449880588,385.55146059356804 382.1122435201879,386.99624380599187 380.90924129134487,386.8831564686845 373.4064592956755,381.4849500294546 371.569992083247,379.58567241675684 370.9481503810398,379.2386143249172 369.3150893838578,378.9920062598464 368.56539237366303,378.749040273629 367.7750140754392,378.1790305577078 365.55498099527654,377.1594344717008 361.1904656297573,376.15791645763954 357.8197347777075,374.27863643978725 357.51171970478265,374.76863087821533 357.3722412278674,375.8215971031726 356.6225441614431,376.75556075643533 356.02976046589,376.95658779553185 355.45441160806325,377.0022746445558 354.2572209355688,376.7720087173446 353.6179443956352,376.7738363203618 353.2169436901733,377.09912953797226 352.8624357166313,377.5212494816708 352.37426093499033,377.8172613085878 351.1073310240404,377.95247088860947 349.8345895567485,377.76244547845585 347.40533870499075,376.764698511053 344.5808986478929,374.26400901186634 343.6626650979054,373.78859578251894 342.5642717267487,373.87271058178277 341.69253102114214,374.50352763183395 341.0183848619815,375.4998800148855 340.5011520174559,376.6824580714985 339.74564333845296,377.85380470987457 338.7692937189343,378.3215387803229 333.6783277372957,378.82576758730465 332.8937611078744,378.61750506680096 331.41180181275166,377.5577950304633 330.7027860343654,377.2215661530259 326.3208358873469,376.56549173989293 325.3619211055575,376.2017825824209 324.40300626753526,375.40482344950016 324.1298608138365,374.60042902668 324.1240492574884,373.6203623161334 323.97875905554105,372.32917169132577 323.781164509098,371.80236165587735 322.89198896576505,370.14475679940136 322.8454961213841,369.5975946011187 322.96753981679916,369.0906402829895 322.9617282042205,368.6001104546187 322.5316694358811,368.12051775986663 321.58437782301604,367.6555268485388 320.6777674981801,367.4468166497522 318.78318427245046,367.28387031001677 315.0753802845922,366.4141266432674 306.25917553359517,362.18601163823865 304.31228790713647,361.6618369393937 303.399865913498,361.7314855657818 302.45257430063293,361.9514225043332 301.5285290818434,362.02289996803074 300.6858464391181,361.67283413448433 300.3545849158817,361.2329273471913 299.84316368393513,360.16049787380786 299.44797459104905,359.7699684322469 298.98304614724964,359.65445412461673 298.06481254103585,359.86897870637256 297.8628731012117,359.84955491992565 297.5882609283159,359.8231408911916 296.8676219810048,359.3665738114504 296.16441775896095,358.75408724663004 295.4089090799571,358.2882555855449 294.5604147684255,358.27358309334375 293.7177320694731,358.4899988643867 290.9746545322161,358.54868634349367 288.10953324330984,357.72333259122695 287.16805324301725,357.5986010804394 286.2149500175802,357.75084655517804 285.33739769939507,358.0186410067564 284.4482220998316,358.1433623970511 276.35846802118436,354.9326624042219 274.9346247955994,353.0438398897123 276.0446413356781,349.28984429894865 276.1841198688163,348.1065130930554 275.90516280253894,346.86225260976204 274.70216062993023,345.15067451339553 274.0512608648389,343.02281917752435 272.2089820960618,341.0339421948574 271.55227071839846,340.0401358836428 270.53523986707745,337.57319480611966 269.23925194948004,335.3740427539598 269.0009761712318,334.74764648771094 268.97772972092673,334.2169922662147 268.8208164062917,333.7544676820064 268.1989747040845,333.350876298802 266.9959724190115,332.9417239518022 266.37994232938286,332.86431316223 265.7639121835214,332.9417239518022 264.78756250777553,333.41722227307287 264.2980362576245,333.94826132364574 264.27909256248984,333.92958923882435 259.48742422950426,329.2044541907702 254.07100839923646,325.51608454962485 253.2225141008038,324.68911231537885 252.03694666257002,322.8500975240786 251.79285928451273,322.2775786382536 251.1129015054158,319.9203426277869 250.7642051643567,319.4768539536425 250.32833481388678,319.3179278641788 249.45368823678024,319.43989486095717 247.82353312298812,320.08664092242554 247.28305380951636,320.21598032547513 246.73095134536243,320.19011269353814 245.98997173439247,319.79469138699193 245.25770949907832,319.51011694093233 244.49929503565954,319.3733677569487 243.39799588237523,319.4787019173443 240.5270630485346,320.34162115731584 239.87325749754513,320.3120589656092 238.96664709170446,320.01273127937725 235.79060499736374,318.4714707007595 234.8839946420919,318.19051948790093 234.29992834919963,318.1295214874689 233.96576103499274,318.16833848686775 233.6606518250624,318.13506677275353 233.34682513833815,317.9613110423467 233.05043325349342,317.7025148530034 232.70173696300355,317.221858760377 232.50123656436676,316.72266804077384 232.4227798800449,315.6150300023065 232.95454181785803,308.99378080081215 233.07658548160416,308.3956317702423 233.29452068212325,307.8326038907435 233.68680400260337,307.3695410259268 234.13139182986717,307.10835497023953 235.1019297920422,306.6970987731918 235.45934350875717,306.38400305936824 235.6336916792865,305.9930696724945 235.66856128305164,305.27226541919015 235.45934350875717,303.76361996447747 235.56395242118927,303.1796875696261 235.80803979924656,302.4566308341031 237.38589055795998,299.7767170876559 237.629977986587,299.2646836606078 237.78107970403994,298.67466819790246 237.85953633779252,297.65775124004847 238.12105856830235,295.90921767712695 255.2565757869005,240.06601908998456 255.65757658417405,239.24373642332426 256.02370762597747,238.92830446676555 257.37781163411296,238.1433932197611 260.9635718508161,236.8098878828844 261.59994265049204,236.34025905415203 262.03581300096243,235.88373746635412 262.340922261462,235.34074169056242 262.227595922802,234.52895629511914 257.4998553484279,216.52107843736388 256.7937453412207,212.1698308850713 256.62811454634954,211.61102470495692 255.96268579410486,210.32704229718513 255.76218549660663,209.75669634855674 255.63142435606707,209.19950692335124 255.6139895541843,208.5534665226909 255.7360332684992,208.03581783363592 256.0934469346444,207.46142890192584 259.08642348279665,205.219919185036 265.83369686812307,201.73089651307106 266.1823931586134,202.62560687066053 266.40032830856325,202.92443811847028 266.63569831096567,203.1476041009569 266.9582424239178,203.34428440229058 269.05332599245355,203.84162378012883 269.393304856716,204.02882220118286 269.68969679212995,204.24815679045375 270.1604367463622,204.75107711027337 270.50913303685206,205.2539462548651 270.72706823737167,205.5015811468307 271.01474269598845,205.72841130200445 271.33728675837136,205.94200021941467 271.729570078851,206.09698816792542 272.2787667679781,206.14612974232583 275.79769355218014,205.6849363034138 276.18997692323,205.55639937155132 276.617129847472,205.2917539381916 278.7005902147558,203.13625689655396 279.9762375385694,202.36080460607488 283.5096933496237,200.99874029471835 306.2911848002616,201.3846966472536 312.90479127002163,200.49922272620057 326.59693256314256,196.47664407680963 332.6700597194271,197.1053288140565 333.7423008695734,196.94816513439514 334.00382304951347,196.61299210915078 334.10843196194605,196.22855662043068 333.9253664157614,194.3495052659409 333.9515186438684,193.95163049490276 334.04741007950423,193.56130297508486 334.2391930013466,193.23158493475216 334.474563003749,192.99849496055748 334.74480271105324,192.86394216790552 335.18939048774774,192.79950706110935 339.6323624796737,192.82982958857588 343.383753491248,193.81520884796984 345.89727260837367,194.8988987476145 368.3039155404152,200.4500250169532 371.0876743142753,204.25571993999688 371.8199364990174,204.91744550312805 375.17904419011484,207.26491215589473 379.3924578308353,208.17940460911274 393.529186850082,208.41744725313586 424.19121466806564,208.45145242068665 424.9147594771556,208.56857959545187 425.2198687376548,208.87083025064265 425.3419124519669,209.70570194646842 425.3419124519669,233.1211727325002 425.48139091759253,234.01588494816963 425.87367428864144,234.69433070794076 429.15432529541425,238.5058196746867 429.4855867840213,238.71049452753022 429.9417977619706,238.80437929992303 431.04019108965787,238.5677863126994 431.7463010968622,238.28986920045728 432.3478022422037,237.95371911697 432.6267592240266,237.72647633132584 432.8795640788811,237.45414687551377 433.56242768357504,236.53187292903598 433.80651506163235,236.2651142583216 434.08547209402496,236.05094565930628 434.63466878315114,235.99082646842947 435.4018006222281,236.0547030479164 436.9564049784344,236.45297399650113 437.72353681751184,236.4980592347971 438.2727334560692,236.44170265600786 439.44958346807834,235.7202812473853 439.77503335605735,235.58124536312044 440.1847515289895,235.63385401927434 440.67292628510455,235.90064635726108 441.3267318866633,236.640826666416 441.62312372093925,237.12169712380296 441.823624119576,237.55744594699507 441.99797229010534,238.24104439436644 442.3553859562506,240.7717976677856 442.8028795079752,242.48514860160066 442.9423580747394,242.80223246970522 443.16901065091713,243.14180879238333 443.47411991141723,243.5038731858204 444.03203397619876,243.96720221892437 444.6073828934361,244.58803346605893 444.7381439834064,244.8599744825414 444.9212095295916,245.641957180534 445.12170992822786,246.31507704623058 445.2873406725335,246.62066985995355 447.0860324067938,246.82313816519564 454.3185748237772,245.70946076317836 456.7274850284712,245.93446604455144 482.719888227781,243.89404785566273 482.39734416540136,255.27077363790943 481.7173863863054,256.4384621769321 481.1681896971754,257.8602803011923 477.5737120036812,258.70569714624463 470.34698123789514,260.8915251382433 468.54247795357276,263.2146784345898 464.9915872900692,282.943491378798 464.66032580145935,284.12153552504566 464.0995059616496,285.4053473399702 463.1231562471387,285.91878093186926 459.624570090416,286.4637821008312 458.6395030508195,286.8655201894163 458.15713989533157,287.7897686752753 457.8694654367143,288.90347817510013 456.69261542470565,296.2879320300971 456.38750611363673,297.485152058812 455.88189650506916,298.6357025140824 455.00143832733545,298.99194918951804 454.048335116474,299.0698748629782 451.0727934207705,298.76744249201 458.026378754792,327.8744376000121 459.14511270995587,331.1315365175596 473.2440663504115,345.7850564698834 475.4873458613701,349.06575112794883 480.02330356447294,358.1452538673971 480.4853260924815,359.69301639865193 479.8838249977064,360.34572547962716 478.92491018622064,360.7270454931724 476.5857391890541,361.03868051139796 475.6616940318994,361.2934739815057 475.2345410065156,361.7168800385901 475.3740195732826,362.6698753711063 478.1490609209153,370.5986037978095 478.6110834994931,372.68040587478794 478.01829978037574,373.4704675947634 477.0739139957384,373.8800819777623 475.8796291818502,373.9459098651904 475.33914991894727,376.0154060168105 475.43504140515284,379.6843628368589 479.4566720228952,395.709432448412 479.71819425340453,395.9170147556692 480.040738315787,396.0790689290353 480.8194934066889,396.2611462566273 481.48201638390253,396.29391951250744 482.5455401078242,396.2356557977265 483.8124699548411,396.326692563396 484.92829808440746,396.1154848754076 489.91756099043,396.42865182007074 490.7573378626352,396.5925108114081 491.11475162992224,396.7235942519991 491.4547304436149,396.92021329675663 491.7511223284592,397.1805401334078 492.2916015913579,397.8904568309093 495.12766482143667,403.01175062675776 495.3194477938455,403.1063065650722 495.55481774567863,402.9990218370591 496.1127318610327,402.63714687108376 496.8827695257067,402.26251638571915 498.54779429383086,401.59502593714484 498.9139254367733,401.5186319956765 500.5731386548391,401.4404179204378 503.043070741975,402.01517293109083 503.97583337592357,402.4407419486758 504.2547903577465,402.68988400670287 504.5250300650535,402.98265616880457 504.77783481876617,403.41360166960413 504.9434656136401,403.7899681239205 505.06550927738294,404.1753976125812 505.1788356160402,404.9716200004627 505.1614007635909,405.864045520807 505.10909635794246,406.3092928224954 504.9085959593052,407.0906561192518 504.47272560883533,408.19526932579123 503.95839852347433,409.15071797700597 503.22613628816015,410.1314163050265 502.91230965200475,410.42195854026335 501.462314208231,411.34613928925756 500.0849638481548,411.7836614037552 499.3091145828533,411.90710495767945 498.4693376600788,411.9288888770503 497.59759690856924,411.8254147417774 496.8130302170402,411.6275373126011 496.45561655089546,411.4895634088092 495.8337748286405,411.14461270370435 495.3368825957283,410.68888002484965 494.7092292222765,409.94618732431746 494.43027224045693,409.4703730288433 494.40412001234665,405.98581079467255 494.0379889199768,404.42991110211324 493.410335546525,402.8153597803935 492.1085359946044,400.3525764918752 491.3152519274205,399.209918149153 490.20814122407785,398.168936327099 489.8129520780007,397.92321989983486 489.3945165294136,397.7484811449038 486.90133798919805,397.29158477808727 486.07899586830587,397.3097886020529 484.9195807087498,397.53915112649923 482.3624745616362,397.65200832076425 481.952756388704,397.717537234473 481.5953426214207,397.91411899750227 481.708668960077,398.37460115699196 492.14340569950855,415.3877510028318 494.1600325837196,418.64854428430414 507.2128973527057,440.4069511448978 509.89204721413415,446.69385185134774 510.0663953846635,467.0519035998451 510.24074350462405,487.8179814484118 510.6417443018976,491.3728757463491 511.29554980231825,491.6947939929453 511.89705089708957,492.0989530689569 514.4105700647855,492.26883398329494 514.8290056639418,492.76235229206026 515.0062596094994,496.1567535960781 514.8551578414799,496.4980421500328 514.6720922952948,496.68922579471115 514.4192874910101,496.85717594991894 513.9485474862076,497.2895344718486 513.6783078294712,497.4574660178438 513.3731985689711,497.55393501736296 512.8588715341795,497.93622111081186 512.6322189580017,498.16665154071745 512.3619793518365,498.3577763792343 512.0481526651128,498.4970967492714 511.32170203042523,498.6703491607328 509.5607857255271,498.6381996420454 508.4769214246953,498.86860022968847 508.0933554798701,499.1114926101061 507.7359417631556,499.5008120879448 507.31750621456854,500.3222202237112 507.27391918457874,500.8221468748853 507.3262235902239,501.239907409965 508.2328339960645,503.0908778572215 508.57281291089953,503.61553184727023 509.412589833674,504.62543740861184 510.19715647463426,505.32476727754687 512.4055663818262,507.7752793518729 513.3034593614427,508.34048812409947 513.5736989676108,508.5793915109397 513.8265037718927,508.8931591666128 513.7829167419029,509.17838680775 513.6260034238252,509.427948695842 512.4404359855919,510.572221622724 512.0190946619742,511.09615411232943 511.8796161457793,511.44185071236285 511.7691955821503,511.81603367250875 511.32170203042523,516.9308527197855 511.14735391046514,517.8902373120618 510.92941865937536,518.5220218265994 509.1772198312716,520.5254518080714 508.6948565746452,520.9559331428538 506.7683095254386,522.2258335162384 506.23654768876406,522.7006363353113 505.6147059665091,523.5736680820816 505.05388607612775,524.1781298043585 505.0439086598132,524.1888829474359 504.66736893491696,524.021631706289 504.02809239498237,523.9185194681844 503.57478723256463,523.658952413118 503.2202793152532,523.250020261035 502.8483365602153,522.7130282447519 502.83090177871844,522.4391775776058 503.0517427754642,521.6957994137935 503.0284963813887,521.3969968638255 502.13932078182575,520.6036680960674 502.01727708641397,520.568090136568 501.93010301022827,520.5858791452838Z" name="Ahal" name_en="Ahal Region" gn_name="Ahal" admin="Turkmenistan" adm0_a3="TKM" iso_3166_2="TM-A" iso_a2="TM" postal="AL" type="Welayat|Velayat" type_en="Province" wikidataid="Q399899"/><path d="M90.50334136537198,33.91275462054332 94.74581297925272,34.504204785924166 98.83137127849135,35.98446457140303 107.56040195330269,41.82657981018103 117.03331796950292,48.15165415282486 122.69382125262622,51.93446211983795 129.36554371826372,56.38682086471551 138.85589462842094,65.13507949374383 140.19256377782352,66.86063229500208 140.75047785415666,68.33668087305776 140.73885462900273,69.60816687034898 140.50639040709976,70.92012535276992 140.4250279434927,72.54062523973658 140.72141984750306,74.05376129652738 141.30839193048038,75.4091553797905 147.16067814747143,83.3338194547535 149.7061610820623,86.77313348646462 153.35584900038288,93.26719191032468 156.924174511333,99.59987216029506 158.65603275361843,101.70505174239965 160.62035521780402,103.43485857863611 164.14218782814362,105.85863160826221 165.03136337147657,106.86560533776478 165.71132114321586,108.13463282131055 167.28626607086292,111.91273659222905 168.23355768373457,113.18814239584685 169.40169034957447,114.07802950477769 170.9766352772253,114.97930645595812 172.72011680089193,115.56851199234168 179.81608642229733,115.16031193803627 183.12870126103945,113.87772292371827 188.35333410701085,113.12264633450299 193.37456079396955,110.675540762819 195.25752079454523,110.51749591139016 199.09899170296688,110.88368934508928 208.22321147066432,111.37318864772317 218.68991200034347,111.94741976417832 230.32383920666422,112.5801401650104 230.33641373773332,112.6218252504204 230.48460968015618,115.56472145730523 230.79843636688042,117.02394843207362 232.3094536425272,121.08359431826533 233.78269548880803,126.0870844045474 234.23600064116073,127.09369301401235 234.5963201834718,127.67182209660747 235.16295167448123,128.19419173780102 235.67727870927627,128.45535544544637 236.16545351596105,128.57057029972202 236.90643312693055,128.5936128483583 237.1243683274506,128.74914778790895 237.42076021229533,129.1350832142605 237.43238341355007,129.7417653051031 237.35102095419765,130.2485555686138 237.0459116431283,131.15834134888908 236.93258535503801,131.6074132414207 236.96745500937288,132.10249550142146 237.1679553574404,132.5821782571255 237.71134044593944,133.20377655336455 238.13849342075397,133.52221890380707 239.28919120465616,134.08999202844166 239.69890932701531,134.38919704173273 240.39630195856478,135.17931657159428 242.09910220662042,137.85556230321535 243.85420686032495,139.67403126362575 244.06342463462036,139.9671454075447 250.5898570443966,156.69327802472424 251.26981482349308,159.22034676969142 251.50518482589592,159.76605248605154 251.89746819694486,160.50056018885678 253.2573837045694,162.17711371339527 254.9340317245181,163.63576251257064 258.17109570129736,167.8338628656123 258.9207927384948,170.02390722597482 261.29483338999245,179.5496883061336 263.7996350808911,186.1885439519219 263.320177700431,188.5468269982945 260.98100670326494,195.62627735286023 262.6140676932233,196.8496985338594 264.24422285758516,197.76611894564022 264.636506228635,198.28484350594871 264.9067458347998,198.72590594680946 265.83369686812307,201.73089651307106 259.08642348279665,205.219919185036 256.0934469346444,207.46142890192584 255.7360332684992,208.03581783363592 255.6139895541843,208.5534665226909 255.63142435606707,209.19950692335124 255.76218549660663,209.75669634855674 255.96268579410486,210.32704229718513 256.62811454634954,211.61102470495692 256.7937453412207,212.1698308850713 257.4998553484279,216.52107843736388 262.227595922802,234.52895629511914 262.340922261462,235.34074169056242 262.03581300096243,235.88373746635412 261.59994265049204,236.34025905415203 260.9635718508161,236.8098878828844 257.37781163411296,238.1433932197611 256.02370762597747,238.92830446676555 255.65757658417405,239.24373642332426 255.2565757869005,240.06601908998456 238.12105856830235,295.90921767712695 237.85953633779252,297.65775124004847 237.78107970403994,298.67466819790246 237.629977986587,299.2646836606078 237.38589055795998,299.7767170876559 235.80803979924656,302.4566308341031 235.56395242118927,303.1796875696261 235.45934350875717,303.76361996447747 235.66856128305164,305.27226541919015 235.6336916792865,305.9930696724945 235.45934350875717,306.38400305936824 235.1019297920422,306.6970987731918 234.13139182986717,307.10835497023953 233.68680400260337,307.3695410259268 233.29452068212325,307.8326038907435 233.07658548160416,308.3956317702423 232.95454181785803,308.99378080081215 232.4227798800449,315.6150300023065 232.50123656436676,316.72266804077384 232.70173696300355,317.221858760377 233.05043325349342,317.7025148530034 233.34682513833815,317.9613110423467 233.6606518250624,318.13506677275353 233.96576103499274,318.16833848686775 234.29992834919963,318.1295214874689 234.8839946420919,318.19051948790093 235.79060499736374,318.4714707007595 238.96664709170446,320.01273127937725 239.87325749754513,320.3120589656092 240.5270630485346,320.34162115731584 243.39799588237523,319.4787019173443 244.49929503565954,319.3733677569487 245.25770949907832,319.51011694093233 245.98997173439247,319.79469138699193 246.73095134536243,320.19011269353814 247.28305380951636,320.21598032547513 247.82353312298812,320.08664092242554 249.45368823678024,319.43989486095717 250.32833481388678,319.3179278641788 250.7642051643567,319.4768539536425 251.1129015054158,319.9203426277869 251.79285928451273,322.2775786382536 252.03694666257002,322.8500975240786 253.2225141008038,324.68911231537885 254.07100839923646,325.51608454962485 259.48742422950426,329.2044541907702 264.27909256248984,333.92958923882435 264.2980362576245,333.94826132364574 264.12503962999324,334.13591530188654 262.9917766396095,336.10535606023274 262.3234420367913,336.8255150014769 260.5044096620901,338.03353482122 259.71984303266925,338.73317265778246 258.7028121813487,339.3001777884555 257.55792596580727,339.11977379232167 255.32626966049588,338.1992471582244 246.86457282681081,336.6155557658154 245.99283212120426,336.33007119455743 244.06919088882057,335.22297774104095 241.86659259015718,333.4319657224141 241.3261132953331,333.328760831204 238.63534021502446,333.7876381705651 234.1255347600189,335.76642279907844 233.21892443518297,335.9303661088725 232.46341575618567,335.5785262686592 231.75439992156274,335.01663781186005 230.9698332921414,334.53760244856124 230.01091845412572,334.3017532215903 224.85602484660745,334.46758586122286 222.81033991880867,335.2487696498323 220.91575669307906,336.57503631759585 217.37067768866447,339.8597578909839 217.01616977135302,340.8315157839392 218.5446218546229,342.58684065247246 218.81195569574913,343.82293698301845 218.61436109307886,345.1433195590225 218.05063546040282,346.26482748089313 217.1672714734184,346.921072273365 212.34945100171143,347.7316123667922 211.43702900807344,347.60296371557683 209.68825436282668,346.88142881603886 209.41459047434967,346.7685073958714 207.14225293723356,346.47807023794854 199.09899170296688,347.94111906061005 198.23306255370892,347.8970131137629 197.448495868058,347.64339651474467 195.92004378479095,346.83468068160244 194.97275217191932,346.5405707315099 192.10763088302008,346.51115884979606 191.28238296556069,346.2317372888389 189.08559633570925,344.95944257443244 185.60444495717437,344.1907655432753 183.9307027281872,344.1870874182052 172.81310243342332,346.52218838734467 169.23896536613074,346.67659865430096 167.87323821007737,347.22986452348766 163.69469422207396,350.4582097310949 162.53237322503662,351.05331312922647 161.3700522279988,352.0009289208032 160.73077574429476,352.0890703621554 158.1678579157474,352.9520428462121 156.947420905408,353.6349741963201 156.43599961722532,354.7583102651337 155.7444186203354,355.02992997952475 152.49573146370022,355.6465273816316 151.40896131769415,356.01351472107586 150.92659814863174,356.55293891129327 150.31056800276934,357.8480612384635 149.90375568473212,358.39279630593 149.29934876402132,358.6238787061859 148.50897046579792,358.75408724663004 147.82901269405912,359.1281894060827 147.53262084627926,360.09266153852406 147.09093890901548,360.8333129320111 144.46409345458792,363.7637141492908 136.01983140239923,369.57197348315987 134.3344659482605,371.4035602237196 133.60220377579873,372.5815826075558 133.29418870286779,373.7008224726706 133.04428964323884,375.1086745072609 132.12024448067555,377.30562542502344 132.17836055020715,378.79471147523026 132.37595515288075,379.1801600722967 133.03847803065975,379.77563127718025 133.29418870286779,380.24136664128804 133.36392794132374,380.73627890624186 133.29418870286779,382.4361548901699 133.11984049426636,383.44194313172306 132.35270870257523,385.2157467304791 132.17836055020715,386.29579279370887 131.91683832165717,386.8028995198451 130.49299509607218,387.99568312619465 127.81965679726413,389.7497112518454 127.11645263144987,390.41324416112775 126.00643609137116,390.8579828338482 124.62327409758852,392.3450309164825 123.7805913986356,392.74223449168 122.53690788176111,392.7604541755516 119.11387257275784,392.0133974451023 117.84113110545934,392.2101934877288 108.32753380122716,397.7174803162027 106.32253004900682,398.380004319677 105.07884658836238,398.3836443700569 103.78285872699455,398.2125611017907 102.55661004784649,398.2708029010942 101.51633274622091,398.96601347662505 100.47605544459816,399.96680933393105 99.45902459327762,400.3998217770468 98.34319649684706,400.4598585616708 83.00085638031108,399.1207656502706 83.00085638031108,399.10357111938936 82.20919680912598,390.26386001528186 81.65549272605716,387.46140652347054 80.60299733459857,384.66032282876694 80.27352051786933,383.2836499662002 80.01268469759628,380.1725835246964 78.00379135469714,370.72449268812744 77.00620873790913,350.35355148365744 77.18467533994176,349.1847573381547 77.95345457897713,346.8290066111553 78.52546293901268,343.3599855593197 79.9165873138036,337.9316977293806 79.69693610265078,335.99142792575407 80.34216151432601,333.7544237481997 80.43825889811586,330.6918337223963 80.14996669050635,325.4507119179074 80.06302141708295,324.88386166808556 79.55965405350408,323.8866345697821 79.31254645501477,323.2294633137948 79.16611229550492,322.52858162510415 79.04713457955827,321.0712549192917 78.19598612228344,316.7171649176881 78.12276907064377,315.15041550318 78.63528854458909,309.3714208948175 79.27136184589457,306.4925961517102 80.14996669050635,304.12006245891905 82.78120516915824,299.93552296184663 83.7421792320095,297.3524144490836 83.18389903752715,295.2066181034812 84.02589538443601,294.5223453331863 84.4651978067412,293.2295783985084 84.79009856828745,291.7726273951422 85.29804198704979,290.59037578157944 85.91581101138854,289.57177967156724 86.58849281039741,288.1430587126004 86.88136112942372,287.1181132116235 86.32765704635771,287.3055473232496 86.24071177293149,285.8029509075318 85.49023675463327,285.0646701121404 83.53168013122689,284.35851513999916 83.5133758542564,284.23544073511994 83.28457253273712,283.60536994557145 83.18389903752715,283.42072974571647 82.91848716207113,283.2536684812443 82.21377286430898,283.0250494081036 82.03988231745934,282.92832280057416 81.76531833163358,282.47104492565035 81.50905856654353,281.89059420606304 81.3305919645142,281.20452117494585 81.23449458072105,280.42158051953356 80.59384516799877,279.02254209211924 79.9623479781068,278.52970673016006 77.77498797694403,278.4534302809655 76.41589610090686,278.0661630162326 75.8942245165946,278.0074834945527 75.30391187959187,278.24806496536064 75.03850000413254,278.6822561029605 74.76393596207672,278.83480094360067 74.15074299292095,278.23046180685435 73.67025596149556,277.1448168956006 72.55827174018056,273.75727863851955 72.2104906464813,273.03485770353285 71.66593867378599,273.545849041343 71.83525316544886,274.68217878646914 72.33862052902774,275.8710873210724 72.78707506170032,276.53147106666444 72.78707506170032,276.9804827255348 71.88101382975206,276.49625279628316 71.0664739264135,275.4072995005454 70.68208427878078,274.06559754329527 71.28154908238334,272.10965548217405 70.82851843829394,270.79058176957074 70.86970304741415,270.07949025255135 71.20375591932685,269.62398637716313 72.78707506170032,268.6011567214615 71.11681064590344,268.43360448317515 71.10308242411689,266.9077409081938 72.36607691636421,263.622184030522 71.20375591932685,264.26946421320713 69.64789316428609,265.463771893784 68.73267976574132,266.60780582556873 69.52433939315976,267.11944898161016 70.0688913096255,275.05209148784036 69.41451378758335,273.9598903097898 68.01881335760943,272.1272799937217 67.38274005630394,271.06676385281196 67.12190423602762,269.7679888214254 67.0578392947577,268.31602065357015 66.67344970335505,267.24000106505207 65.45621587541422,267.11944898161016 65.74908419444053,266.210805494431 65.94127896202306,265.05197365384663 65.84060552304693,264.04880992836524 65.26402110782792,263.622184030522 64.95284851183487,264.10176778987113 64.04678727988708,266.38725393374506 63.538843861127575,267.11944898161016 63.332920871758475,265.4284761699749 63.598332747214506,263.2867425221634 64.69201274779566,259.17429411706667 63.154454269724916,260.65834270598543 64.08339583382383,258.19352153594144 64.30762310016294,257.19782684239624 63.92780956394375,257.38637592404257 62.770064622092676,257.68980722256276 63.38783364642813,256.1341597623933 63.223095266181595,255.54182637858335 62.53668518915282,255.9043072821736 61.61689579165465,257.19782684239624 61.20504975668546,256.6616017679477 60.56897645537669,257.03578682119826 58.12993280054492,257.19782684239624 57.06370918730025,258.09631746368746 56.55118971335445,258.0432962415988 56.592374322474186,256.6616017679477 56.20798467483818,256.6616017679477 55.78241047431908,257.38637592404257 55.16921750516332,258.09631746368746 54.40043826612842,258.58820979091576 53.517257366333645,258.635334698556 53.79182135215613,258.16995713771314 54.29061266055201,256.6616017679477 53.897070902549544,256.6380301093518 53.100835276177705,256.71758398652116 52.71644562854452,256.6616017679477 52.63865252172186,256.74999444797015 52.17189371207926,257.11533439791526 51.95224250092643,257.19782684239624 51.78292800925979,257.03578682119826 51.389386251260625,256.34632184909157 51.18346326189106,256.2078281383833 50.43756435500588,256.4700789206357 49.00067931591175,257.1772038401975 48.11292236093352,257.19782684239624 48.11292236093352,256.6616017679477 48.46070345462948,256.1341597623933 48.31426929512009,255.85126298573877 47.82920620850747,255.7363316213899 47.1473722428988,255.71275561870084 46.50214677499023,255.5771915089563 45.65099837394826,254.9287908574167 45.03780540479251,254.7224640160575 43.90751685027508,254.78141540764557 41.189333154433605,255.60371521135346 40.04989248954879,256.2078281383833 42.072514054228385,257.4953776298099 42.74061979805379,257.68980722256276 41.71558079393214,259.31270606844413 41.34949547949621,260.2490952532493 41.1939092096166,261.4178646670962 41.29915876000955,262.62756405868 41.971840559018425,265.6373053264829 41.82540639950856,267.40465277583365 41.285430538226755,268.26310702059953 40.69969395640794,268.1102422767613 39.31772174821681,257.8518260743888 38.9607885441511,256.97980814960573 36.608690162741794,253.37523581773388 36.41191928374244,252.12791659033778 36.94731908983796,250.720992840254 37.46899073038356,250.0336098302272 39.08891842669706,248.49329357385642 39.3497542469701,247.81445983455154 39.54194907078645,246.8934600069012 39.793632724459215,246.07268284604024 40.928497334160575,245.14545619363352 41.64236374228918,243.76906414520283 43.68786563912178,238.11775282551173 45.211695951642135,235.00562104911884 47.13364402111224,232.92781434410486 49.26151513618808,233.36594249866803 48.080889862180236,234.02010271735185 47.21601323935501,234.79255252139666 45.596085543041504,237.0707310937823 45.36270616633876,237.668211053639 44.84561058097615,239.7736103149973 44.69002431109701,240.0042040710485 43.50024692672224,241.26341315489665 43.82057157685168,243.0895894475001 45.90725808280449,243.37025323349815 52.06206810650285,242.1440798081721 55.6176720378359,242.29773726201103 56.743384537170336,242.68776969237814 57.416066336179206,243.6154518831903 57.91028158939162,244.73789453193777 58.51432239194429,245.72720763377552 59.29682985276575,246.30298641053494 60.2486517490172,246.6129937288764 62.57786979827302,246.75765723298485 63.552572082911304,247.25066275252402 64.07424366722356,247.24180681748862 64.30762310016294,246.50966013709146 64.26643849103992,245.78035922940867 64.08797188901012,245.25177110294268 63.744766850493846,244.92100607003846 63.154454269724916,244.7792429146589 63.88204889964055,242.9270926740991 64.57761103080243,243.17526742709438 65.32808599287108,244.34506821896522 66.22499511444958,245.27539635587115 67.29579478287725,245.24881794755828 68.93402675615748,243.6509012741861 70.0688913096255,243.29639584237086 70.58141083980463,243.49433112040853 71.88101382975206,244.23578022035716 72.36607691636421,244.2830402079636 73.01587838322337,243.60954356643393 72.84656394779007,242.87686539271826 72.247099144188,242.21795414400788 71.63390623126229,241.75696018981753 70.38006384938801,241.2456799911505 68.00966124723921,240.67818640833565 66.99835046490129,239.7736103149973 67.90441169684955,239.46909196907225 68.4306593925786,238.94575016782554 68.4809961120681,238.15915591950824 67.97305269330623,237.0707310937823 67.21800167605413,236.3134260161739 66.46295060256914,236.15366735546996 63.763071127464336,236.45247110698102 63.57087630364751,235.99982076395779 63.538843861127575,234.56171798634648 63.36037725909448,233.81587179903352 62.91192267018902,232.95445837338832 62.30330581245008,232.1994892575426 61.61689579165465,231.79086999904263 61.969252940534076,234.27759927234206 61.969252940534076,235.30745263818346 61.61689579165465,235.30745263818346 59.57139383858869,232.08401324084372 58.107052468391444,230.63589552569195 56.592374322474186,230.2923129353432 56.79829731184046,230.71586386308002 57.36115356150955,232.32976656216596 57.017948522993755,232.0692084765661 56.13019156801504,231.5835866033477 55.79156258468553,231.33779650136321 55.82359508343881,232.72057820305236 56.88066653008369,234.11185587229863 56.97676391387355,235.30745263818346 55.05481584440391,234.01122323860528 54.83516463325061,231.41183096090356 55.79156258468553,225.81765321055977 55.13718506264386,226.19118919506198 54.43704682006516,226.3068017940387 53.74148463266946,226.1822958294235 53.100835276177705,225.81765321055977 53.100835276177705,225.32549158701704 54.96787057097769,224.39440207575842 57.91028158939162,220.26466949029617 59.694947665951666,218.30540694653783 59.388351181372606,217.93127807213807 59.07717864161292,217.17402626753935 58.89413598439307,216.85624306755946 59.388351181372606,216.56814157922105 59.88714248976802,216.40774802115857 61.012854932869104,216.3156678869821 61.82281878102421,216.06021078152068 61.813666614424406,215.51657807994675 61.4658855769585,215.00853958445106 61.20504975668546,214.8659229423415 61.83197089139067,213.9744760653865 62.701423625636,213.14528660436696 63.50681141860482,212.17326449387582 63.92323350876028,210.8293604860997 63.621213079367514,211.00182871976216 63.470202864671364,211.05535213396666 63.346649037308396,211.12076889598478 63.154454269724916,211.32890720973828 62.188904151686906,210.36247672589013 61.35605997138161,210.16916799952983 59.278525575795726,210.32976348495515 58.32670367954427,210.0026190523059 57.0362527999633,208.81282102333427 56.20798467483818,208.28921928385245 55.21497816946699,208.00954576215142 54.231123774462255,207.98871835461122 53.28387793339379,208.25946752905446 52.36408847966227,208.8306700597793 49.998261932699755,211.50433129489036 49.06932031236843,211.8759720081038 48.808484492095396,212.0305663106562 47.92987964748362,212.7172636441777 47.518033668748245,212.86885938411706 47.07873124644212,212.7172636441777 46.07657257447066,212.0305663106562 45.596085543041504,211.8759720081038 44.978316518706045,211.57271524888944 41.31288692555994,208.67002605095462 40.35191286270821,209.04187935967119 39.51449262721663,209.87175529050617 38.69080061351161,210.32976348495515 34.63182926236587,210.8293604860997 34.95215396872536,210.1632199348883 35.2816307854546,209.65165834949855 35.69347676419373,209.22928280891446 36.21514840473933,208.8306700597793 32.320915490076764,210.09184238303945 30.20677259678748,210.36247672589013 28.454138962747848,209.83011604293614 27.54350161938278,207.66737043280628 26.760994214797496,206.89962148122808 25.772563764608826,207.8369733373975 25.763411598009494,208.6105269370264 26.170681577795218,209.58622226613372 27.11792741886321,211.0761666552086 27.323850408229482,211.9502968372064 27.69451183407893,216.08694528479327 28.023988650808175,216.69585874389202 29.62561207015213,218.8398279204234 30.20677259678748,219.30294623103634 32.32549154526023,223.2851699873456 34.078125179300336,224.9340993764678 34.63182926236587,225.32549158701704 34.63182926236587,225.81765321055977 31.950254064227316,224.32915999633784 32.70988113666289,224.88369055202995 34.25659178133296,226.85814809318543 33.87220213369742,227.3116290940558 32.073807891587464,225.53896522831587 31.332485039888567,224.52784918548886 29.726285565361618,220.6831391061343 28.95750632632672,219.6947818903251 26.962341148980304,218.83092139841096 26.294235348921546,217.64620857681103 25.909845757522184,216.11962057703596 25.594097162576205,213.29092494886663 25.10445796455054,212.51215623090567 19.690970848783955,208.16723596076682 17.746142390927496,206.14663571913877 16.913298210619377,204.56290861435667 17.34344852255858,201.3879739482191 17.773598778264436,199.62390229211258 18.23578158895316,198.54488601672205 18.592714793019343,197.22709330148177 18.01613037780033,195.85526139883657 16.492300065279977,193.79083039220646 17.192438307861963,193.1402960674228 16.940754654185906,192.41804273847745 15.75097721358155,191.24191630057635 14.693905766936673,188.41985955494786 14.863220258603313,185.59020738665993 16.808048716459304,172.92798157732588 17.576827955494675,170.49114997697384 18.82609416972209,168.05310633679608 22.20323155525587,163.34451797028657 23.923832690545986,160.13083398481842 24.207548842968738,157.4681835832271 23.704181479393156,157.0352906283773 22.239840109192613,156.67451722346436 21.928667569433387,156.18743078504764 22.05222134055972,155.5108411942529 22.486947707681914,154.14835638791183 22.46864343071566,153.89566836803735 22.20323155525587,153.67004308353685 22.917098019621587,153.21876106493974 23.836887473353105,152.86071435228294 24.207548842968738,152.92991868312976 24.331102670331706,152.22579374776458 24.244157396905482,151.43428404564332 24.04281046272267,150.74499417390248 23.859767805502823,150.35666137265167 25.18225112760702,144.79920953590613 27.310122242679565,139.18712802403644 27.758576775352147,136.62772647179526 26.953188982380034,131.48069573874824 26.925732595044032,128.49690569988599 27.529773453832394,128.95048760711632 28.88886532987004,129.71240961349105 29.437993357752113,130.29284127395573 29.68052490105513,131.15429145913674 29.543242851912186,132.01558859325436 29.300711308605877,132.8525625149608 29.268678866085942,133.61387192792193 29.84526328130496,135.0425151460567 32.298035157923756,138.17620475142175 32.737337580229415,139.4254941998036 33.40544332405482,142.25180736945913 33.87220213369742,143.27997272836313 35.670596432040725,144.53699419853055 35.807878481186485,144.79920953590613 37.23103524226401,144.81729278565356 37.88083676535604,144.6756384943315 38.47572545754178,144.29284993289994 37.59712061292999,145.32661139629974 36.22430051510955,145.8298501749064 35.258750453304415,146.38726963086157 35.601955435584046,147.58023403842301 36.004649303956725,147.99890730182088 36.90613453695157,148.72472322728225 37.35916512480714,149.35106669482937 37.48271895217012,150.01947907033443 37.48271895217012,150.85637076245683 37.661185554203676,151.57273228207885 38.30641096587561,151.87369308578735 40.800367451614136,152.08134529373353 41.87116712004228,151.97601557279359 43.1250094456898,151.4132154734804 45.66472653949818,148.71267740292782 46.57078782767979,148.38140474934656 45.641846207347996,150.35666137265167 45.39016255367523,151.49447940114936 46.0170836883809,151.9399020294312 50.222489199039806,151.4132154734804 50.71212834083212,151.06105621091933 50.80364966944181,150.23624182020316 50.80364966944181,149.30288926313585 50.991268438074705,148.61329799378612 51.819536506966486,147.43866009849708 52.423577365752024,147.03801368397916 53.100835276177705,147.3272053741289 53.16032416226746,147.74891251344738 52.76220629284819,149.11920855594005 52.71644562854452,149.8057175406095 53.20150871515385,151.24767373610734 54.038929006878774,152.39732073557752 55.141761117826846,153.16159569932435 56.40017949865783,153.43538159273993 56.752536647537255,153.59784073285383 57.557924440509375,154.31079179327858 58.12993280054492,154.4461504273174 58.784310378816656,154.29875968536783 59.278525575795726,154.01599768121292 60.047304814831094,153.43538159273993 62.07907854611096,152.4815773275354 62.84785778514586,151.60282919824408 63.154454269724916,150.0857131965147 63.05835682969889,146.91751209106135 63.2642798753018,145.7213720107934 64.65082813867545,142.86089345335378 64.95284851183487,142.7282277014432 65.6667149762006,142.7282277014432 66.18838661674619,142.86390853361542 66.74666675499519,143.19857164428188 67.1905452324843,143.62365113324978 67.38274005630394,144.012521141868 67.54747849278337,144.31093513798427 68.32998589736864,144.61837282508617 68.56336533030803,144.79920953590613 68.59082171764499,145.26935338432736 68.42608333739516,145.72438531959168 68.22016029179224,146.1010351977392 68.1469432401521,146.31797226876645 68.45811577991509,147.87541750006613 68.75098404270805,148.44163781610257 69.3321445693434,148.84518020315778 68.85165753791755,149.89302973086086 68.54963710852195,150.40181790098003 68.1469432401521,150.86239103012088 68.7875925966448,152.14454200488836 69.65704533088636,155.12288758955722 70.48531339977767,156.45804032743246 71.04816964944676,156.80680387030733 71.61102589911258,156.9150357880034 72.07778470875517,157.1615550831728 72.36607691636421,157.9280903187411 72.21964275685151,158.46008531075168 71.43255924084613,160.064736094961 71.24951658363005,160.72267094090725 72.1647299821781,162.52477865428693 74.32920959495405,162.52477865428693 76.878078855366,162.01124566672132 80.12708635835664,162.4887430249964 81.05602797868795,161.62080430860516 81.93463282329974,160.50336914002875 84.35079614598179,159.13326140201735 84.91365233941426,158.98300693161656 85.48108464426635,159.0972007652428 87.02779523270354,159.94756033261265 88.45552810519739,160.1488605604891 89.56751238274856,159.78230766176125 90.61085566383976,159.25346165200014 92.36806535306333,158.80269539438518 92.80736777536899,158.3518876224046 93.09565998297849,157.7687811626605 93.20548558855491,157.1976300104709 92.88973693737557,157.11646099392743 91.4070912902116,156.40993303083928 90.89914787144926,155.90778511618467 94.15273142962336,156.04309954849853 95.80011551327004,155.7905095992377 97.47037992906692,154.8431809327213 100.9070061444571,154.9424335499543 101.06716852575353,155.1349175921088 100.81090876066725,155.60406582529038 100.26178073278518,157.37800072414885 100.08331413075209,157.75675757327443 100.31669350745483,157.99121137887315 102.06017503112801,158.76663231801322 110.54420304785214,158.98300693161656 109.44137093690077,158.3098100636597 108.2424413859295,157.9280903187411 108.94715568369165,156.9691508473813 111.18027634915761,156.39189272785168 112.05430513858593,155.45370267060434 106.46692741973685,155.54392107481445 105.74390884500797,155.4386661447619 105.31375858930211,154.7709960106107 105.17647659638922,153.1826567208843 104.9385211082659,151.85563600567824 103.87687355020799,149.83281459970746 103.51536429095881,147.89348940458063 102.96623626307674,146.68855082107507 102.83353032534684,146.064878017919 102.9387798757398,145.567690344803 103.14470286510607,145.21209469893464 103.2911370246197,144.8383898995232 103.2179199167495,144.29284993289994 102.87013887928359,144.1511803779508 102.30728262961779,144.2295512970095 101.8130674326387,144.0908942196453 101.68036143867923,143.27997272836313 101.90916481643185,142.93325501216677 102.3301629617675,142.87295376319167 102.81522604837683,142.87898390690384 103.2179199167495,142.7282277014432 104.66395706621007,141.04547119281227 105.42358419487853,140.4663235345319 106.50353597367359,140.24309193493463 108.1234636699838,140.973081544648 111.53263349804034,143.7291615865822 112.47072722873858,143.74121974457645 114.04489420451225,144.7600287828623 114.20963264099542,145.82081043871486 113.50949439841673,147.00487605051904 112.47072722873858,148.38140474934656 114.5574137346914,148.91143021522493 121.06458085103912,147.66457400599396 122.95907253317559,146.94161266295023 123.83310132260391,146.77290622934694 124.8261078279751,145.05236951218686 127.1873583759842,143.78643771914048 127.71818212689955,143.349313351434 129.83232502018555,139.8146999880533 130.36314877110135,138.64698919137206 130.587376093671,137.41561043163998 130.37230093770114,136.18693863649617 129.84605324197256,135.1421722100547 128.4503528119982,133.33896839823166 126.65653462506839,130.42282429768298 125.97470065945971,130.02077261235686 125.97470065945971,129.55822079630812 127.24227115065715,129.7486886094404 128.58305874972478,130.41980141058812 131.0037981275936,132.09113371221616 130.63771281315766,131.44442969774445 129.51657642524333,130.5255990348584 129.0452415041839,130.02077261235686 128.5556023623916,129.26192260756915 128.34052720642177,128.84465560537163 128.24900587781207,128.49690569988599 128.331375096052,127.98884363229287 128.57848269454132,127.53819632309781 128.85762279178437,127.32041889928264 129.0452415041839,127.53214709683567 128.11629994008547,126.26466435596434 126.5787414620152,125.8138567049588 124.92678132318176,125.57482085750559 123.6363304436008,124.9423779176072 123.55853733677766,122.73271830529892 121.6137088789212,120.52507830103141 110.36573644581905,111.83007818366085 105.38239958575879,109.6478076717668 104.42600157809052,108.96166055401604 102.36219546052078,106.83580614918156 99.74010909223581,105.35322701356044 98.57778809520129,104.49628269582432 98.31237621974196,104.10422536722754 97.69003114021974,102.84577937030646 96.44534092494244,100.98790634259056 95.99231033708641,100.57427236686492 93.96053660580654,100.14843556942604 92.87600877182565,99.45180688943688 92.01113209276379,98.46601138369213 91.28353746284863,97.3521844655511 90.17612929671756,94.9806385946783 89.553784160962,92.36723382968677 89.3066765624727,89.42316567301712 89.28837228550597,82.94351046730304 88.95889546877626,80.21968434689474 88.3319743340706,77.71740640179249 87.41218488033907,75.29637556823275 84.73518573738446,70.6893627170274 84.30045937026179,69.34557842996864 84.04419966140227,68.73937421327712 83.44931091298695,68.50054536848324 82.80866155649471,68.359692038855 82.38766341115532,68.05959915448221 82.15886008963604,67.15308178042895 82.3190224147024,66.45470086233904 82.61646678890841,65.78379131571036 82.79950944612779,64.97489812369149 82.7537487818213,64.49685131018792 82.456304407612,62.99804759472234 82.38766341115532,62.12429426425016 83.06034526640083,60.35790329986805 83.18389903752715,59.502072099380605 83.14271448464076,58.250256900436014 82.9733999929746,56.74948569531677 82.61646678890841,55.27587550126887 82.03988231745934,54.0751596468172 80.29182479483605,52.345718882516 77.65601026100117,50.63408951431148 74.80054451601299,49.748839951104195 72.36607691636421,50.511148063940816 69.95906570404908,49.158581896375665 52.71644562854452,52.05997801415648 49.42167746125116,53.817165835714206 48.30511712851982,54.0751596468172 43.97615784673129,53.87859421062254 40.83239989413407,52.1982418821689 38.47572545754178,53.23355660784183 36.37073467461941,55.156124621714106 35.01621885376852,56.694233540764635 29.387656582032577,61.201313986291375 28.078901481714936,63.384287486329185 21.580886475733656,77.71435032513307 20.601608135915676,79.21770810374608 19.787068232573816,79.86229611951849 19.366070087237706,80.6686726573996 18.899311277595576,82.4855763516445 18.643051512506005,84.41470934308842 18.82609416972209,85.54374638463453 19.512504246750865,85.35457497236543 21.25598571419117,83.04730282509911 22.10713417146601,82.47336413079303 24.903111030363966,82.74202489582812 26.211866186914953,83.35256129829791 26.925732595044032,84.51846975595424 26.861667653773637,85.52543984363601 25.992214975762124,87.05989939504157 25.772563764608826,87.86811504178036 25.83662870587922,88.62435943833871 26.10204058133854,90.09381624502363 26.15695335600819,90.94114065528883 25.937302144855362,92.62924763006104 22.21238372185614,102.24075706687223 21.928667569433387,103.7577295597861 21.25598571419117,105.88190385991416 21.132431886828197,106.58367834144757 21.24225749240461,107.3157237541088 21.928667569433387,109.17419442501657 22.46864343071566,112.2852258090997 22.848457023164908,116.96165693399399 23.260303001900745,118.19824360208618 26.221018297281876,124.4036771430783 26.541343003644666,125.7049304137763 26.239322574251425,127.24479940645566 25.04496913469413,129.43728495343555 25.003784525573927,131.07570934430137 24.61939487793792,131.07570934430137 24.308222338178698,130.36539038355076 23.411313216596895,129.58543095264673 23.090988566467924,129.05026989227346 22.99946718162771,128.233808763738 23.43876960393384,125.95606232623622 23.44792177053364,124.2311591745118 23.246574836350828,122.68427608608546 22.8530330783479,121.25198460348118 22.2764486068993,119.86168094451924 22.020188898039784,119.47087008341741 21.31089854509417,118.62551986629569 21.132431886828197,118.33461248650578 20.995149893914842,117.44359967830498 21.146160108614755,116.03097742372353 21.132431886828197,115.28812411450511 19.883165672600313,110.91661916672618 19.787068232573816,110.19119126526766 19.086929989995124,109.55369593528235 18.18086875805016,106.71430044385492 17.29768785825209,106.07330707092557 16.54721289618674,105.91836217572416 16.066725864760876,105.47172859006498 15.824194321454568,104.74548077457007 15.75097721358155,103.7577295597861 15.641151608005137,103.0677031861952 15.329979068245441,102.62992590336134 14.391885393777251,101.71472112368006 13.760388147655238,101.27986186924811 12.273166389071628,101.05481443493434 11.72861441637255,100.69289162757538 9.783786014749435,98.1373679958979 8.786203397961435,97.37044595717474 7.742860173099822,96.91388673186144 7.001537321401394,96.11023703379315 6.8917117158249805,94.28630610856268 7.074754373041535,94.10966166385367 8.237075370079364,91.9833273359319 8.438422304264996,91.37693624971715 8.488759079985003,90.51749711379496 8.429270193895249,88.87133284890416 8.516215467321476,88.34383109525646 8.859420505834454,87.55399456901947 8.877724726571124,87.08125025892357 8.708410291137833,86.65421528983636 8.438422304264996,86.36747047080087 8.173010428805677,86.18443292322044 8.044880602492592,86.0563024962774 7.582697848036748,84.55203882243092 7.280677418643977,83.95691578161846 6.8917117158249805,83.49907847081658 6.479865680855796,83.36171880445247 5.564652338540616,83.48992130227192 5.166534525354694,83.24267053404289 4.621982552655615,82.42756823158462 4.3199621232633145,82.06423819776958 3.436781223468069,81.67645226839763 2.581056711006472,80.61369674740605 2.0776893474308924,80.37546055752591 0.7048692496066886,79.97226457043654 0,78.91611935807904 2.31514185185239,76.55259157249301 10.895976602773796,67.98861575256824 18.36970059178912,60.51366996239676 18.387135373289258,60.5058794625671 18.387135373289258,60.49224603834136 30.422969274270216,50.46698100439017 39.21592757496172,47.35293632842571 42.400687105716734,45.4483601674124 54.80265203670016,40.52026183861814 58.52207924970956,39.726126137629606 68.41924247790399,37.922200279526216 77.03204101364881,36.362287435977244 90.50334136537198,33.91275462054332Z" name="Balkan" name_en="Balkan Region" gn_name="Balkan" admin="Turkmenistan" adm0_a3="TKM" iso_3166_2="TM-B" iso_a2="TM" postal="BA" type="Welayat|Velayat" type_en="Province" wikidataid="Q486073"/><path d="M33.30476988507821,276.6459288036232 33.88593035548398,275.228230819537 34.86063258388515,274.2593882922093 36.21514840473933,274.02155310766017 36.48971244679563,274.4854681683454 36.56292949843859,274.7144738884494 36.56292949843859,275.05209148784036 34.929273636575175,276.23210776024877 34.65470959451888,279.13694341610943 35.40976061176769,284.8976630914048 36.087018522196196,290.8976706537267 37.35916512480714,296.7736648903054 37.13036180328786,297.6709908374174 37.15324213544087,298.053840684955 37.35916512480714,298.68796355327294 36.94731908983796,298.68796355327294 36.800884986558145,296.9841268560466 35.16265301327839,290.8098740287968 34.25659178133296,288.86918034488315 33.881354300297225,287.78874384061675 33.780680805090554,287.0507524211937 33.87220213369742,285.14377678979315 33.74864836257062,283.21849700497756 33.22697672202502,279.8936869338799 33.10342289466205,278.23046180685435 33.30476988507821,276.6459288036232Z" name="Balkan" name_en="Balkan Region" gn_name="Balkan" admin="Turkmenistan" adm0_a3="TKM" iso_3166_2="TM-B" iso_a2="TM" postal="BA" type="Welayat|Velayat" type_en="Province" wikidataid="Q486073"/><path d="M57.965194364061745,238.73876371550597 58.61041983197032,238.12958229518955 59.278525575795726,237.79243055800148 59.64003489127825,238.2981496303566 59.94663131962443,238.65300966566787 60.22119536168073,238.69736535236575 60.463726904987034,238.28336328786193 60.710834503473045,239.86821422087064 60.820660109049456,240.27026062563166 61.969252940534076,242.03178865788047 61.67180856632806,242.90050178908288 60.971670323746075,243.7395236890828 60.08391336876784,244.2830402079636 59.278525575795726,244.2830402079636 58.98108125781977,243.72179930264508 58.345007956511,241.4170976730761 57.95146619851136,240.51856720273014 57.64944576911906,239.5489189696457 57.965194364061745,238.73876371550597Z" name="Balkan" name_en="Balkan Region" gn_name="Balkan" admin="Turkmenistan" adm0_a3="TKM" iso_3166_2="TM-B" iso_a2="TM" postal="BA" type="Welayat|Velayat" type_en="Province" wikidataid="Q486073"/><path d="M345.83039377734036,0 347.2019325459686,0.789020370185257 359.30169401660015,15.049394289177975 363.06761407398676,18.542409860117697 367.01950545266624,20.326249351594342 369.52430715545245,20.77603186740101 371.1748029903674,20.679793778821683 372.7962407623922,20.235894929342333 374.4293017595746,19.444236875890287 375.86476821031687,19.29099745780755 377.2188721412163,20.145538623436412 380.7930092085084,23.872277907083664 381.5891990630837,25.15180651106035 382.1238667453357,26.605573806292977 382.79220129192294,32.40049928789817 383.5360867457729,33.75019078254021 385.15171296145525,34.62953566545506 388.0168341941315,34.94284853053538 389.3360684495738,35.39907321838595 391.5793479800429,37.81456909035786 392.985756424131,38.354657288661265 395.8915588886054,38.44075257085607 407.77629103129374,36.61089012804533 412.6580391851081,37.05325325706594 415.16865255669916,36.74790973762675 417.7199471038659,37.033680554006985 419.4924866341865,38.97881291319 421.0558083929168,41.41986073117659 423.02594246968005,43.20290856474409 425.51912100354184,44.18212651819995 426.82092047749114,44.957930081026824 427.50668986180244,45.94460031419995 427.31490687171123,47.21231688320858 426.3908617653817,47.886080712497844 425.240163937265,48.3605873997787 424.31611871847537,49.03418837300059 423.7988859301803,52.535374090595504 424.90309085767996,56.24451900203171 425.07743901005176,59.22222219881868 421.74157772100085,60.519512772378064 421.724142939504,60.519512772378064 421.70670815800764,60.519512772378064 421.68927326404736,60.51366996239676 420.69548886303284,60.801909045430136 420.0620238794379,61.54384992465355 419.9748498594856,62.53876499122888 420.59669156169275,63.60743445883467 421.3986930288466,63.96749688181195 424.31611871847537,63.86240046387147 430.2265210049914,66.09812006280475 431.8828284524789,67.52189633361846 433.1717847197868,69.49494530710871 433.81228124120787,70.47507173738967 434.6549639963937,71.34764878232427 437.316679070045,72.92721012810581 438.107057368274,73.60123043435269 438.7928267525924,74.46935275515295 439.3391176037683,75.50623183479215 439.4437264614499,76.57394351472405 438.7928267525924,77.55020564638812 437.9094627656047,77.67052631655166 436.81106939444703,77.1775803674642 434.86999338056035,75.94693449756879 432.7545691580855,75.27906971906174 430.9936528529159,75.43051235400857 429.44776593191915,76.50018195796034 428.00067631225255,78.56895457244269 428.5120975442052,81.18953841651465 430.24395584272116,84.52574861986783 433.98662939357314,89.83253318127909 434.4980506255253,91.20862677689522 433.725107165026,92.15289025367517 431.4004652271799,93.31748417684562 430.4415503891614,94.16463575112726 429.7092881604663,95.21273081037236 429.2676061669724,96.49256619940941 428.56440200115867,102.48894744728442 428.9537795376962,104.25707114365977 430.5345360779219,105.823904612227 436.6890257552615,108.9907483215736 442.0996299225249,111.77014763276156 445.4936072811079,114.26677242736241 448.5446998913024,117.32799884620873 450.16032599452507,118.4903717439187 452.1188369023621,119.05221329561374 455.4953793669844,118.96755651795077 462.2833339716856,116.69280948251559 473.6101520380469,116.00748122103009 477.5446085789925,116.95844430628746 480.22957010295585,119.74480492055822 480.60151280176325,119.433150973631 480.9676439442258,119.02527724958732 481.7086689418513,117.75471521169396 481.708668960077,119.20234338330543 481.44714672956763,132.0257419178642 481.1507548447262,133.17500065057277 480.3807172306182,134.6270135538805 439.60940261175546,134.69989044751705 439.15319158323314,134.78235509904246 439.46120666933354,182.57778380570127 439.56581558176566,183.40572108614467 439.86220741603734,183.86900138761266 440.61190445323194,184.06265474649723 451.7701859511805,184.40058064580816 452.51407143831676,184.68153507831587 452.77559366882616,185.43889318129445 452.8889199569169,186.37831083494302 453.22889882117886,208.47790073024873 453.6211821922282,231.8634171107844 453.839117342179,245.2069123491169 454.3185748237772,245.70946076317836 447.0860324067938,246.82313816519564 445.2873406725335,246.62066985995355 445.12170992822786,246.31507704623058 444.9212095295916,245.641957180534 444.7381439834064,244.8599744825414 444.6073828934361,244.58803346605893 444.03203397619876,243.96720221892437 443.47411991141723,243.5038731858204 443.16901065091713,243.14180879238333 442.9423580747394,242.80223246970522 442.8028795079752,242.48514860160066 442.3553859562506,240.7717976677856 441.99797229010534,238.24104439436644 441.823624119576,237.55744594699507 441.62312372093925,237.12169712380296 441.3267318866633,236.640826666416 440.67292628510455,235.90064635726108 440.1847515289895,235.63385401927434 439.77503335605735,235.58124536312044 439.44958346807834,235.7202812473853 438.2727334560692,236.44170265600786 437.72353681751184,236.4980592347971 436.9564049784344,236.45297399650113 435.4018006222281,236.0547030479164 434.63466878315114,235.99082646842947 434.08547209402496,236.05094565930628 433.80651506163235,236.2651142583216 433.56242768357504,236.53187292903598 432.8795640788811,237.45414687551377 432.6267592240266,237.72647633132584 432.3478022422037,237.95371911697 431.7463010968622,238.28986920045728 431.04019108965787,238.5677863126994 429.9417977619706,238.80437929992303 429.4855867840213,238.71049452753022 429.15432529541425,238.5058196746867 425.87367428864144,234.69433070794076 425.48139091759253,234.01588494816963 425.3419124519669,233.1211727325002 425.3419124519669,209.70570194646842 425.2198687376548,208.87083025064265 424.9147594771556,208.56857959545187 424.19121466806564,208.45145242068665 393.529186850082,208.41744725313586 379.3924578308353,208.17940460911274 375.17904419011484,207.26491215589473 371.8199364990174,204.91744550312805 371.0876743142753,204.25571993999688 368.3039155404152,200.4500250169532 345.89727260837367,194.8988987476145 343.383753491248,193.81520884796984 339.6323624796737,192.82982958857588 335.18939048774774,192.79950706110935 334.74480271105324,192.86394216790552 334.474563003749,192.99849496055748 334.2391930013466,193.23158493475216 334.04741007950423,193.56130297508486 333.9515186438684,193.95163049490276 333.9253664157614,194.3495052659409 334.10843196194605,196.22855662043068 334.00382304951347,196.61299210915078 333.7423008695734,196.94816513439514 332.6700597194271,197.1053288140565 326.59693256314256,196.47664407680963 312.90479127002163,200.49922272620057 306.2911848002616,201.3846966472536 283.5096933496237,200.99874029471835 279.9762375385694,202.36080460607488 278.7005902147558,203.13625689655396 276.617129847472,205.2917539381916 276.18997692323,205.55639937155132 275.79769355218014,205.6849363034138 272.2787667679781,206.14612974232583 271.729570078851,206.09698816792542 271.33728675837136,205.94200021941467 271.01474269598845,205.72841130200445 270.72706823737167,205.5015811468307 270.50913303685206,205.2539462548651 270.1604367463622,204.75107711027337 269.68969679212995,204.24815679045375 269.393304856716,204.02882220118286 269.05332599245355,203.84162378012883 266.9582424239178,203.34428440229058 266.63569831096567,203.1476041009569 266.40032830856325,202.92443811847028 266.1823931586134,202.62560687066053 265.83369686812307,201.73089651307106 264.9067458347998,198.72590594680946 264.636506228635,198.28484350594871 264.24422285758516,197.76611894564022 262.6140676932233,196.8496985338594 260.98100670326494,195.62627735286023 263.320177700431,188.5468269982945 263.7996350808911,186.1885439519219 261.29483338999245,179.5496883061336 258.9207927384948,170.02390722597482 258.17109570129736,167.8338628656123 254.9340317245181,163.63576251257064 253.2573837045694,162.17711371339527 251.89746819694486,160.50056018885678 251.50518482589592,159.76605248605154 251.26981482349308,159.22034676969142 250.5898570443966,156.69327802472424 244.06342463462036,139.9671454075447 243.85420686032495,139.67403126362575 242.09910220662042,137.85556230321535 240.39630195856478,135.17931657159428 239.69890932701531,134.38919704173273 239.28919120465616,134.08999202844166 238.13849342075397,133.52221890380707 237.71134044593944,133.20377655336455 237.1679553574404,132.5821782571255 236.96745500937288,132.10249550142146 236.93258535503801,131.6074132414207 237.0459116431283,131.15834134888908 237.35102095419765,130.2485555686138 237.43238341355007,129.7417653051031 237.42076021229533,129.1350832142605 237.1243683274506,128.74914778790895 236.90643312693055,128.5936128483583 236.16545351596105,128.57057029972202 235.67727870927627,128.45535544544637 235.16295167448123,128.19419173780102 234.5963201834718,127.67182209660747 234.23600064116073,127.09369301401235 233.78269548880803,126.0870844045474 232.3094536425272,121.08359431826533 230.79843636688042,117.02394843207362 230.48460968015618,115.56472145730523 230.33641373773332,112.6218252504204 230.32383920666422,112.5801401650104 232.36461845484934,112.69112100682608 244.92930842550322,113.37306746178609 250.24111534766317,114.49017273100218 257.1162439723134,115.92277094115717 258.20301411831997,115.29124775673476 259.93487241684204,112.1362459361543 261.0448889569207,110.86056220976901 263.66592279876966,109.54984075539248 264.8631134150336,108.69382460059222 265.4965783423919,107.94179300926663 265.6186220940375,107.43265891703615 265.1885632694675,107.10477892895011 262.36993488117224,106.41422935861455 261.50981734448675,105.98982014037588 260.7136274336843,105.41487901665752 259.48156719819093,104.02547616651938 258.4006086647663,102.18389974975072 257.6451000419929,100.11369816022516 257.3893894260216,98.04260541200121 257.4300706578202,95.39834736294715 257.2208528862255,93.24011125824045 256.5757647337161,91.27829192334708 255.32626966049588,89.22274530515502 254.32086203432976,86.5445683669597 254.3847896602038,84.18079795009805 254.82647165370378,81.76738681412405 254.96595018684246,78.94147148789665 253.72226666996798,73.00879688914735 253.7397015076944,70.10966913969116 255.32626966049588,67.9224999715312 260.72525065883536,65.38801804520884 263.03826948398716,63.632737115468494 265.1420704813171,60.51366996239676 265.1420704813171,60.49419365122792 268.22803271073485,54.70036864086209 272.7494613346624,50.25618845218178 278.038021862744,47.671267816640444 283.4370028610901,47.45253920107414 291.393090075404,48.83895152913995 294.0083123046776,48.315677270220526 297.1175209281708,46.786526851131086 298.2042910741741,46.52869054471768 302.045761982599,46.70644280858127 303.1267205160303,46.46813601545232 304.3645923640928,45.56949448394014 304.19024421172753,44.85241266112715 303.469605208184,44.04141306436974 303.06279283391626,42.85104433375254 303.5219096651403,41.861774945168335 305.6722034506146,41.165643591534014 306.48001653034044,40.26208450873432 308.7697889051867,35.00942488443421 309.25796368683103,33.24287728152891 309.1591664417271,32.06154677061592 307.956164212885,29.472558465925776 307.63652591480576,27.462713911822394 308.5896291402499,26.652651811779247 310.11808127974325,25.97193541758552 311.55354767425257,24.323684981295127 312.04753406847266,23.438493984238402 312.6461293766044,22.678785207845436 313.67478345308217,22.201696289955404 314.92427858252915,21.968042510481794 316.1970200498248,22.007312910307224 317.2663553581012,22.38429158288771 318.07998005040616,23.18919732088585 319.36434474285295,25.102751256873518 320.2651435675676,25.630559421435567 321.1775655049755,25.546192518910072 323.21743882019894,24.66711796098276 324.23446972774906,24.496385899607596 325.46652996323957,24.718140184169183 331.05148233909824,27.354844486531043 332.9576887899823,28.754994983033495 334.4047784096451,30.695694025453502 334.9801273237018,33.39370590185407 334.78834433360447,34.778361891579905 334.4861408170221,36.076476008941995 334.4687060355224,37.25289032766691 335.1312290257648,38.27247393733089 336.0494625757514,38.50727967494829 339.6642808748463,37.95938138352331 340.3616734843177,37.53667369115892 340.55926803075795,36.92015725026961 340.30355741478326,36.25266319617584 339.6642808748463,35.661431539848536 337.39775495030887,32.980384957299385 333.225022574878,26.19950572830681 331.72562849826454,22.657189659673833 329.993770199742,20.00017932219324 328.0120129540577,18.452021162012983 320.96834773338134,15.139848222654477 319.91644720660463,14.193928098851702 319.59680896475544,12.728458126094582 320.1198533656268,11.616757093300908 321.14269588575223,10.843330460661317 323.26393166457285,9.914263113367078 326.2452850363119,8.089056335866598 327.29718550685897,7.756229239304775 328.6687243317215,7.801526627764107 334.73603987665103,10.258748036225604 337.6185959470537,10.931897153082021 340.5069635737988,11.112961767936481 342.8316055678745,10.42409181896982 344.02298462778936,8.207214226826526 344.79011641948756,1.731725672875629 345.83039377734036,0Z" name="Tashauz" name_en="Daoguz" gn_name="Dasoguz Welayaty" admin="Turkmenistan" adm0_a3="TKM" iso_3166_2="TM-D" iso_a2="TM" postal="DA" type="Welayat|Velayat" type_en="Province" wikidataid="Q487672"/></svg>