<?xml version="1.0"?><svg fill="#3498db" stroke="#ecf0f1" stroke-width="1" width="800" height="752" viewBox="0 0 800 752" xmlns="http://www.w3.org/2000/svg"><path d="M327.3114202871486,314.61708708072837 329.3007940920209,314.4552675993525 359.40116173858297,318.1030897207688 425.3352998789093,318.38368805536544 430.16574260510254,314.7135040555363 432.4255314401114,316.4947833514753 437.90127852129115,324.4533876633709 438.47380965992755,329.5609531746819 438.34168705015975,334.66836538880165 434.97990172505536,337.815880958865 430.12072648211523,340.2210187271539 426.40661453828767,342.80427652651093 417.12867309218643,353.22599247912984 413.89901037682597,355.63091378300555 408.731549214747,357.2341762559262 392.64195520830566,358.83742322433636 391.555613523224,361.0938195963661 393.96318028394876,362.1626283571413 396.88455759113776,363.1126755755433 400.45186754358195,363.3501868169116 402.8887946003975,364.53773602823935 405.898253817732,367.1503163141435 406.4561045528416,371.9597350336146 406.2359005438863,382.11251072762775 403.81365286867685,390.810172125556 405.663368894292,400.27914135311215 407.82137134999437,404.37527440641855 412.07865464731594,409.92567679537166 413.26775762414445,413.45765782760645 413.28243802767116,417.55347926223465 412.35757975935377,421.7382393887202 408.7902698069096,426.21967927180947 406.41206334225666,429.840360555294 391.7758180431373,436.7847348026267 375.51005970538523,441.91864501110643 350.97930112190596,442.9572789149189 342.9785445628167,444.76745454646004 335.9466874825301,447.94263573042787 328.81206808860446,448.32840085635866 323.27759990430417,447.171101363893 320.50302561038114,447.171101363893 318.0220573430139,451.6815591002096 294.84188464223115,451.2364534350302 288.0302310599419,407.4027888964163 288.22107528378814,393.09583309180033 284.16931661384433,367.8628307497205 285.3584190797149,357.88735233474193 288.529361202889,352.1571280221873 293.38853593490444,350.70227343183586 308.55327269498224,352.8697052397773 312.19398364311576,352.51341674300005 316.3778654337853,351.3554749167999 320.51770601390314,351.59300192420756 330.3681785986407,353.9385657693599 333.8033654303544,352.8697052397773 337.40003567889886,348.5645058440533 338.0312884316137,342.1510429335129 333.4069976011129,332.6491740410109 329.13503441122725,318.2765928775222 327.3114202871486,314.61708708072837 M371.67850555535466,427.6442186474439 374.36499793910843,426.99130617631596 376.0825913549795,426.27903526970454 376.96340841271194,424.0531701520933 376.81660591038013,420.5807626693177 374.3356371320835,412.5078886115461 373.5282210700023,408.53067296667564 365.483424322244,400.8727899105891 364.83749167699835,406.0077647128276 364.9255735871724,407.4027888964163 365.41002281563476,408.3229053333224 365.58618612499157,409.0352500966064 365.26322031333143,409.7179108379673 364.74940976685764,410.3115269756337 364.29432083445755,411.17226678253843 364.088796718071,412.09236264971776 364.03007561495525,413.16085566898823 364.17687913917445,414.22934209093034 364.26496053839526,415.2681417811657 363.63370829663836,418.5032207971649 362.7235304318857,419.74974901362856 360.580208890668,421.7679178992014 359.9195958418909,422.8066723767366 359.7287521289979,423.90477743950714 360.0517184516207,424.9138411448765 361.44634503391575,425.8338645320593 366.6725272991105,427.5255075657622 371.67850555535466,427.6442186474439Z" name="Tunapuna/Piarco" name_en="Tunapuna-Piarco Regional Corporation" gn_name="Tunapuna/Piarco" admin="Trinidad and Tobago" adm0_a3="TTO" iso_3166_2="TT-TUP" iso_a2="TT" postal="TP" type="Region" type_en="Region" wikidataid="Q1899163"/><path d="M249.19497749957338,343.0511679102896 251.6686635268518,343.07454765884546 258.78918050677714,339.8247239260476 263.1354703575857,334.07308523718945 266.0484090704547,331.71158441846745 268.9613477833237,338.79598955140915 273.1920445529645,338.79598955140915 273.35387463927253,336.8787870042178 273.1920445529645,330.93999744592026 276.6829475351477,330.93999744592026 277.0759632155599,333.8392747252016 278.02382409454674,335.3590376219478 279.36470065393627,336.59821907247675 280.93676280741096,338.79598955140915 276.6829475351477,343.07454765884546 281.39913399559555,341.9523132532034 284.7282068914612,339.2869775365888 286.9475888220462,336.5514572268974 288.33470295480737,335.2187521789996 299.29290102396607,334.8680389297028 300.3563549840778,335.2187521789996 305.02630443934254,330.98676082731333 315.7764354170101,318.40707175583236 319.3829309121725,315.27369626066934 327.3114202871486,314.61708708072837 329.13503441122725,318.2765928775222 333.4069976011129,332.6491740410109 338.0312884316137,342.1510429335129 337.40003567889886,348.5645058440533 333.8033654303544,352.8697052397773 330.3681785986407,353.9385657693599 320.51770601390314,351.59300192420756 316.3778654337853,351.3554749167999 312.19398364311576,352.51341674300005 308.55327269498224,352.8697052397773 293.38853593490444,350.70227343183586 288.529361202889,352.1571280221873 285.3584190797149,357.88735233474193 284.16931661384433,367.8628307497205 288.22107528378814,393.09583309180033 288.0302310599419,407.4027888964163 294.84188464223115,451.2364534350302 277.0787374085213,451.97829540613077 265.95107993680966,467.4078985284351 265.0302446809145,467.4078985284351 265.0774296888834,455.89189941815755 259.320907770913,434.81581189012564 245.70407451739968,417.5698378484004 249.88853428186212,414.0409789686491 246.01069862883023,411.4036236023226 248.33473622734274,399.358982598369 247.40987795906335,396.86562370036347 245.17847450767638,392.5912093912194 237.0896365493616,388.3166896656086 247.16031365401247,370.7128615274417 250.3899763693729,357.4123154332198 249.4210774014617,345.41718802959036 249.19497749957338,343.0511679102896Z" name="San Juan-Laventille" name_en="San Juan-Laventille Regional Corporation" gn_name="San Juan/Laventille" admin="Trinidad and Tobago" adm0_a3="TTO" iso_3166_2="TT-SJL" iso_a2="TT" postal="SL" type="Region" type_en="Region" wikidataid="Q979608"/><path d="M215.68300640733,393.35761852397525 199.466951153018,385.9711285225645 187.30658754000012,383.3999727118272 158.3390299294678,381.43651888438876 154.7325344343101,380.3145352976935 151.93518823442037,377.22904315273746 148.35181124185183,370.54361925090586 177.8742146191044,350.20524033590334 185.54957679759966,347.0023104147604 208.82996856611283,348.96615800143746 234.9770620423166,342.8641298071121 249.19497749957338,343.0511679102896 249.4210774014617,345.41718802959036 250.3899763693729,357.4123154332198 247.16031365401247,370.7128615274417 237.0896365493616,388.3166896656086 228.73655337154923,387.0699346508624 224.03886154539236,387.42615099449506 217.9759034330169,392.32405494808756 215.68300640733,393.35761852397525Z" name="Diego Martin" name_en="Diego Martin Regional Corporation" gn_name="Diego Martin" admin="Trinidad and Tobago" adm0_a3="TTO" iso_3166_2="TT-DMN" iso_a2="TT" postal="DM" type="Region" type_en="Region" wikidataid="Q2679107"/><path d="M246.01069862883023,411.4036236023226 227.20922528528564,398.6159804748024 215.68300640733,393.35761852397525 217.9759034330169,392.32405494808756 224.03886154539236,387.42615099449506 228.73655337154923,387.0699346508624 237.0896365493616,388.3166896656086 245.17847450767638,392.5912093912194 247.40987795906335,396.86562370036347 248.33473622734274,399.358982598369 246.01069862883023,411.4036236023226Z" name="Port of Spain" name_en="Port of Spain" gn_name="City of Port of Spain" admin="Trinidad and Tobago" adm0_a3="TTO" iso_3166_2="TT-POS" iso_a2="TT" postal="PS" type="City" type_en="City" wikidataid="Q39178"/><path d="M264.99377178818094,476.30897230726316 265.0302446809145,467.4078985284351 265.95107993680966,467.4078985284351 277.0787374085213,451.97829540613077 294.84188464223115,451.2364534350302 318.0220573430139,451.6815591002096 320.56174671350163,463.87701392394877 316.6861508419234,477.1397164684521 315.99617749708403,482.8658067183565 312.032500226323,486.45564380982296 297.5136966224582,487.49401266982846 290.6139616409814,485.3579329361139 286.3126381550525,481.79774213186244 280.910292580501,480.75933948381 276.6970504937264,478.0891328703635 272.9682576354522,477.1397164684521 265.04090258297697,476.30897230726316 264.99377178818094,476.30897230726316Z" name="Chaguanas" name_en="Chaguanas" gn_name="Chaguanas" admin="Trinidad and Tobago" adm0_a3="TTO" iso_3166_2="TT-CHA" iso_a2="TT" postal="CH" type="City" type_en="City" wikidataid="Q1444575"/><path d="M266.4978361885421,598.5058025449481 265.58603788224156,593.1749542140095 262.71933617458427,583.882867550761 261.1935110262927,573.1193168011534 260.15317613692054,570.0138761333228 255.18268501161944,565.8576378861612 253.42567426925226,563.3358272836317 253.19448867514333,560.2068647924434 254.74343232603357,559.366239029741 256.68539165732653,558.9692751434067 257.6563710388978,557.2880067427549 257.10152584032795,552.8278992586344 253.79557144704674,541.5954010631386 251.6686635268518,537.6720323321463 250.42026154599793,529.4046478587953 253.6568598633279,518.0772351060621 261.1935110262927,500.2788778988549 264.9849551103429,478.460581697772 264.99377178818094,476.30897230726316 265.04090258297697,476.30897230726316 272.9682576354522,477.1397164684521 276.6970504937264,478.0891328703635 280.910292580501,480.75933948381 286.3126381550525,481.79774213186244 290.6139616409814,485.3579329361139 297.5136966224582,487.49401266982846 312.032500226323,486.45564380982296 315.99617749708403,482.8658067183565 316.6861508419234,477.1397164684521 320.56174671350163,463.87701392394877 318.0220573430139,451.6815591002096 320.50302561038114,447.171101363893 323.27759990430417,447.171101363893 328.81206808860446,448.32840085635866 335.9466874825301,447.94263573042787 342.9785445628167,444.76745454646004 350.97930112190596,442.9572789149189 375.51005970538523,441.91864501110643 391.7758180431373,436.7847348026267 398.0589801644443,442.0966968453189 400.3931464404614,448.2393784095219 402.05201824225406,472.4518963401637 403.8283332721751,477.11004688082005 408.23241907179994,481.73840504794236 408.11497686559693,490.84641902913785 403.4319654429335,503.75110052015543 403.7696116581014,508.7050592734794 404.60638852719796,511.22648227509944 415.64596408879737,514.3411302996924 408.0415753589497,528.2822149761588 405.4138045892696,539.6715599349208 402.0079780536277,572.5304542624532 397.41304803014714,588.186703930946 389.2654889687213,599.9872865320232 384.2154705238413,595.2434274263949 377.28637524629744,592.3081021510563 372.69144522282636,590.9145465333115 367.83226997987674,588.6611144081522 360.580208890668,586.7634659484061 350.6710152028099,585.103006826589 334.40525737602053,585.3995183356641 315.3649252553557,589.0169220818282 295.9429062198769,597.1409861053229 284.56568342116526,598.326949576191 269.4890290821956,599.3053643686184 266.4978361885421,598.5058025449481Z" name="Couva-Tabaquite-Talparo" name_en="Couva-Tabaquite-Talparo Regional Corporation" gn_name="Couva-Tabaquite-Talparo" admin="Trinidad and Tobago" adm0_a3="TTO" iso_3166_2="TT-CTT" iso_a2="TT" postal="CT" type="Region" type_en="Region" wikidataid="Q2679127"/><path d="M249.30205737079459,633.1593798421778 253.84180845225842,629.49816814244 260.7080213354857,621.7019043985968 265.0774296888834,614.2787991622168 267.2274555435124,602.8167327121515 266.4978361885421,598.5058025449481 269.4890290821956,599.3053643686184 284.56568342116526,598.326949576191 276.8144921890095,627.5584702976894 249.89084673738853,633.9022064270428 249.30205737079459,633.1593798421778Z" name="San Fernando" name_en="San Fernando" gn_name="San Fernando" admin="Trinidad and Tobago" adm0_a3="TTO" iso_3166_2="TT-SFO" iso_a2="TT" postal="SF" type="City" type_en="City" wikidataid="Q1023712"/><path d="M231.76097197682063,638.4083320290291 233.45123689402504,638.3444158241449 239.83196008647855,638.1110112112659 246.25892028411994,635.6135626906749 249.30205737079459,633.1593798421778 249.89084673738853,633.9022064270428 276.8144921890095,627.5584702976894 305.1327652448747,639.830729371607 311.3718871775411,645.5219270021684 315.82001469867566,651.450066161042 312.2656054591463,734.361154101865 290.46161030684715,732.4519147222837 241.82015642295465,736.3710304092534 241.21492037837834,736.2595248489149 244.0334122304369,714.9578687487027 246.08865237246707,708.7058719185223 248.98066836163517,703.8463512386923 256.0859274594985,695.5196752854134 258.74305954719,689.9782231252864 261.0478645051957,679.4875237594473 261.29742932117125,669.6185983395023 259.7266389185994,665.5286153421232 256.8199420149324,660.2233544749577 249.71468291706904,655.7774850505646 234.22698034529307,642.2020834474603 231.76097197682063,638.4083320290291Z" name="Penal-Debe" name_en="Penal-Debe Regional Corporation" gn_name="Penal/Debe" admin="Trinidad and Tobago" adm0_a3="TTO" iso_3166_2="TT-PED" iso_a2="TT" postal="PD" type="Region" type_en="Region" wikidataid="Q2056273"/><path d="M164.41921145189917,655.6621942990648 164.71975312193084,655.4054739856465 164.23426286300193,638.1110112112659 171.44725442146776,634.3298137523731 180.04735954451104,634.1897682336567 209.4079328354223,639.231350701633 231.76097197682063,638.4083320290291 234.22698034529307,642.2020834474603 249.71468291706904,655.7774850505646 256.8199420149324,660.2233544749577 259.7266389185994,665.5286153421232 261.29742932117125,669.6185983395023 261.0478645051957,679.4875237594473 258.74305954719,689.9782231252864 256.0859274594985,695.5196752854134 248.98066836163517,703.8463512386923 246.08865237246707,708.7058719185223 244.0334122304369,714.9578687487027 241.21492037837834,736.2595248489149 218.51664615185703,732.4519147222837 213.19937691951054,733.7582959670889 197.01638362833353,740.2434068934581 190.65877893845973,740.8965708168673 179.49251377779078,743.5558568558492 173.7359918598204,744.2090089432185 165.71385100608654,742.9726831933284 160.07292216927908,740.0101335388505 154.89436395246776,736.1844076785102 148.35181124185183,732.4519147222837 137.7866282849264,729.325893266867 126.13487343345517,727.972822625865 76.91545528025321,727.8795072764442 63.43733361045401,729.4658657363217 53.126455318381836,734.411483083154 44.80377279462111,740.8732436355102 33.753100146893395,747.4280811296073 22.124463798011362,751.8600447894338 12.206600618191496,752 0,743.74247205792 5.54845482645068,735.97445695016 23.85835603782263,726.3864511768638 26.56322765917666,724.24016221834 32.80523926791131,722.327143670658 51.23073299226252,718.8743283453163 54.97594007113909,715.2581332442585 60.894292075417546,706.6489679904737 69.77181979774339,699.9293358727842 79.27354879455233,695.3094442607917 123.08322313686732,682.2891168068159 125.7418577530382,681.0057009130851 127.58937788390656,683.5179209896927 134.4744319508987,694.4825180275584 139.89145792894843,694.0083868573386 146.3507838706082,691.8155149021715 158.4473403102215,681.6805450168682 161.89720805642938,676.8795717484116 164.18733261093686,672.9972100843853 169.29607215893262,665.8842699639231 169.9566852077097,662.8315470798599 168.4299355046984,660.0455214118011 165.42047679831705,656.9630606470445 164.41921145189917,655.6621942990648Z" name="Siparia" name_en="Siparia Regional Corporation" gn_name="Siparia" admin="Trinidad and Tobago" adm0_a3="TTO" iso_3166_2="TT-SIP" iso_a2="TT" postal="SI" type="Region" type_en="Region" wikidataid="Q2679119"/><path d="M125.7418577530382,681.0057009130851 147.51954287584903,670.5980245702575 164.41921145189917,655.6621942990648 165.42047679831705,656.9630606470445 168.4299355046984,660.0455214118011 169.9566852077097,662.8315470798599 169.29607215893262,665.8842699639231 164.18733261093686,672.9972100843853 161.89720805642938,676.8795717484116 158.4473403102215,681.6805450168682 146.3507838706082,691.8155149021715 139.89145792894843,694.0083868573386 134.4744319508987,694.4825180275584 127.58937788390656,683.5179209896927 125.7418577530382,681.0057009130851Z" name="Point Fortin" name_en="Point Fortin" gn_name="Point Fortin" admin="Trinidad and Tobago" adm0_a3="TTO" iso_3166_2="TT-PTF" iso_a2="TT" postal="PF" type="City" type_en="City" wikidataid="Q786957"/><path d="M426.713211733252,733.0127114249068 418.76962809755383,733.8049521443207 383.90683698533223,728.1594537548443 371.39969526526426,729.2559072785419 335.21914609626134,736.3710304092534 312.2656054591463,734.361154101865 315.82001469867566,651.450066161042 311.3718871775411,645.5219270021684 305.1327652448747,639.830729371607 276.8144921890095,627.5584702976894 284.56568342116526,598.326949576191 295.9429062198769,597.1409861053229 315.3649252553557,589.0169220818282 334.40525737602053,585.3995183356641 350.6710152028099,585.103006826589 360.580208890668,586.7634659484061 367.83226997987674,588.6611144081522 372.69144522282636,590.9145465333115 377.28637524629744,592.3081021510563 384.2154705238413,595.2434274263949 389.2654889687213,599.9872865320232 393.36128884924534,612.8543672708487 397.0166802008723,615.4039556602941 399.11596104249145,620.2658604082036 403.9017342678692,621.2738000285302 409.2013180397159,627.7956231758977 418.58202179948466,644.1584272747908 426.713211733252,733.0127114249068Z" name="Princes Town" name_en="Princes Town Regional Corporation" gn_name="Princes Town" admin="Trinidad and Tobago" adm0_a3="TTO" iso_3166_2="TT-PRT" iso_a2="TT" postal="PT" type="Region" type_en="Region" wikidataid="Q2228167"/><path d="M505.8110128265582,510.15929037371086 511.6600095774643,541.8055791235513 514.572948290338,549.6520465956391 518.3643923744215,556.9377408673013 528.53655965093,571.9752134892927 549.6438064940413,586.8479828206505 533.2065091062042,604.4975702694779 526.0628736236611,634.1664267295926 525.7623319536247,667.6809674443357 529.9236732155027,696.84942120484 517.7170725973112,694.1894528666734 504.03088383599703,698.3427198161903 491.10760793292286,706.2756614264096 481.05103373754406,714.8381839084035 471.0175780447164,721.5339348130758 458.11742064426943,726.3397931021574 432.5714093718092,732.4519147222837 426.713211733252,733.0127114249068 418.58202179948466,644.1584272747908 409.2013180397159,627.7956231758977 403.9017342678692,621.2738000285302 399.11596104249145,620.2658604082036 397.0166802008723,615.4039556602941 393.36128884924534,612.8543672708487 389.2654889687213,599.9872865320232 397.41304803014714,588.186703930946 402.0079780536277,572.5304542624532 405.4138045892696,539.6715599349208 408.0415753589497,528.2822149761588 415.64596408879737,514.3411302996924 473.500973984348,506.77688835299017 505.8110128265582,510.15929037371086Z" name="Rio Claro-Mayaro" name_en="Rio Claro-Mayaro Regional Corporation" gn_name="Mayaro" admin="Trinidad and Tobago" adm0_a3="TTO" iso_3166_2="TT-RCM" iso_a2="TT" postal="MR" type="Region" type_en="Region" wikidataid="Q2487249"/><path d="M430.16574260510254,314.7135040555363 439.66880784914065,307.5101591858625 472.79770728971084,303.51133173398637 483.03923007402017,299.18500926292757 556.7180864687882,290.95299906168003 580.3221378417624,295.63032652609024 556.1863592046525,337.95429381382206 526.3634147255281,374.7980099347511 515.7982317686027,372.881209327933 509.07073046909426,383.89083252723503 506.0190801725064,401.07004961928 506.64328144698953,417.5698378484004 517.6708355921376,452.48064387766493 519.9595730304807,469.4895294650514 503.5222756426436,483.57667894679963 503.86905431784413,499.6949121040293 505.8110128265582,510.15929037371086 473.500973984348,506.77688835299017 415.64596408879737,514.3411302996924 404.60638852719796,511.22648227509944 403.7696116581014,508.7050592734794 403.4319654429335,503.75110052015543 408.11497686559693,490.84641902913785 408.23241907179994,481.73840504794236 403.8283332721751,477.11004688082005 402.05201824225406,472.4518963401637 400.3931464404614,448.2393784095219 398.0589801644443,442.0966968453189 391.7758180431373,436.7847348026267 406.41206334225666,429.840360555294 408.7902698069096,426.21967927180947 412.35757975935377,421.7382393887202 413.28243802767116,417.55347926223465 413.26775762414445,413.45765782760645 412.07865464731594,409.92567679537166 407.82137134999437,404.37527440641855 405.663368894292,400.27914135311215 403.81365286867685,390.810172125556 406.2359005438863,382.11251072762775 406.4561045528416,371.9597350336146 405.898253817732,367.1503163141435 402.8887946003975,364.53773602823935 400.45186754358195,363.3501868169116 396.88455759113776,363.1126755755433 393.96318028394876,362.1626283571413 391.555613523224,361.0938195963661 392.64195520830566,358.83742322433636 408.731549214747,357.2341762559262 413.89901037682597,355.63091378300555 417.12867309218643,353.22599247912984 426.40661453828767,342.80427652651093 430.12072648211523,340.2210187271539 434.97990172505536,337.815880958865 438.34168705015975,334.66836538880165 438.47380965992755,329.5609531746819 437.90127852129115,324.4533876633709 432.4255314401114,316.4947833514753 430.16574260510254,314.7135040555363Z" name="Sangre Grande" name_en="Sangre Grande Regional Corporation" gn_name="Sangre Grande" admin="Trinidad and Tobago" adm0_a3="TTO" iso_3166_2="TT-SGE" iso_a2="TT" postal="SN" type="Region" type_en="Region" wikidataid="Q290292"/><path d="M723.8319675980288,24.804516210242475 734.5691820171578,20.8495945122844 750.6134637246159,17.476358330831616 757.2947285871011,13.681383940135802 764.2071784755401,12.392947012556334 773.2465357160188,17.71061307914512 777.430995480486,17.195252302679965 788.2504825341096,4.404407146315966 794.4000201324969,0 798.6307169021425,4.263842598805699 799.1855621007029,18.553927610505617 797.2204842668207,36.215675613464725 792.9666689945526,48.676129133488686 786.6321833754612,47.17717728612986 783.1181618906555,47.17717728612986 779.6272589084818,55.819381946190454 774.6336498487514,56.77959852908875 768.9696019411663,54.85915915260941 763.3749101095373,54.999680067862656 762.2652191442423,57.5290318770214 753.7575885997443,68.8637962611575 751.7462737606457,69.3087400249227 738.5686931927278,77.43460562472217 734.4304710016274,80.75977195146473 728.1422218195164,84.55318929359555 718.237897773669,76.24602344765847 710.0226931746021,69.11334260960459 695.6904851587793,63.502986431169944 701.275439808262,58.027894505819994 717.0642973356462,47.713437244901236 728.2135035407163,34.03980833042618 723.8319675980288,24.804516210242475Z" name="Eastern Tobago" name_en="Tobago" gn_name="Eastern Tobago" admin="Trinidad and Tobago" adm0_a3="TTO" iso_3166_2="TT-ETO" iso_a2="TT" type="Region" type_en="Region" wikidataid="Q185111"/><path d="M728.1422218195164,84.55318929359555 720.9523493317997,84.48294122591471 714.0861364485677,83.07798162217239 708.7226302110142,82.86723658790584 674.3684472921842,100.1474296335278 664.2887545942114,102.53560652206217 648.9842666742489,115.74019389419611 639.3900630988662,119.60303835964459 635.3674334207024,110.40229673969081 626.8366843736151,114.68667554330302 618.9301360328606,113.35220877758576 614.283305080185,107.68645748156996 615.6010631369949,98.95332849431236 620.4097241759451,96.54168554900383 628.2931534459553,95.27731480509293 635.6448560199897,92.32707920663188 638.8583364028856,84.83417953770497 644.4992652397216,77.38777193681342 692.5858739250394,45.91242649126881 702.8505152119379,35.79406460521543 708.7226302110142,31.43735408182618 715.9356212013249,27.712977601813865 723.8319675980288,24.804516210242475 728.2135035407163,34.03980833042618 717.0642973356462,47.713437244901236 701.275439808262,58.027894505819994 695.6904851587793,63.502986431169944 710.0226931746021,69.11334260960459 718.237897773669,76.24602344765847 728.1422218195164,84.55318929359555Z" name="Western Tobago" name_en="Tobago" gn_name="Tobago" admin="Trinidad and Tobago" adm0_a3="TTO" iso_3166_2="TT-WTO" iso_a2="TT" type="Region" type_en="Region" wikidataid="Q185111"/><path d="M365.483424322244,400.8727899105891 373.5282210700023,408.53067296667564 374.3356371320835,412.5078886115461 376.81660591038013,420.5807626693177 376.96340841271194,424.0531701520933 376.0825913549795,426.27903526970454 374.36499793910843,426.99130617631596 371.67850555535466,427.6442186474439 366.6725272991105,427.5255075657622 361.44634503391575,425.8338645320593 360.0517184516207,424.9138411448765 359.7287521289979,423.90477743950714 359.9195958418909,422.8066723767366 360.580208890668,421.7679178992014 362.7235304318857,419.74974901362856 363.63370829663836,418.5032207971649 364.26496053839526,415.2681417811657 364.17687913917445,414.22934209093034 364.03007561495525,413.16085566898823 364.088796718071,412.09236264971776 364.29432083445755,411.17226678253843 364.74940976685764,410.3115269756337 365.26322031333143,409.7179108379673 365.58618612499157,409.0352500966064 365.41002281563476,408.3229053333224 364.9255735871724,407.4027888964163 364.83749167699835,406.0077647128276 365.483424322244,400.8727899105891Z" name="Arima" name_en="Arima" gn_name="Arima" admin="Trinidad and Tobago" adm0_a3="TTO" iso_3166_2="TT-ARI" iso_a2="TT" type="City" type_en="City" wikidataid="Q661405"/></svg>