<?xml version="1.0"?><svg fill="#3498db" stroke="#ecf0f1" stroke-width="1" width="800" height="792" viewBox="0 0 800 792" xmlns="http://www.w3.org/2000/svg"><path d="M647.2375819667388,605.452531290767 649.0929678420065,602.7947726355328 649.9519426474517,600.5512788960622 649.5739938174962,598.5839591303622 648.6806598931797,596.06447992338 648.5604035048613,592.6132666984079 648.9555317887019,588.1786750975284 650.4329686229203,591.0257584355759 650.6047635840164,596.2025313930108 652.3570725248508,598.9290994101824 652.7865599275627,600.8964276527785 651.1373281322554,602.8810621046122 647.2375819667388,605.452531290767Z" name="Tuvalu" admin="Tuvalu" adm0_a3="TUV" iso_3166_2="TV-X01~" iso_a2="TV"/><path d="M476.0954242957592,505.3977683219139 474.5664490998713,505.1909193932139 475.03029541037483,502.45021749223713 476.64516829789056,498.88226684420437 478.22568206656325,496.19347558001965 476.0954242957592,505.3977683219139Z" name="Tuvalu" admin="Tuvalu" adm0_a3="TUV" iso_3166_2="TV-X01~" iso_a2="TV"/><path d="M216.87398108300084,320.7553780553122 216.82244251024431,320.27372828978105 216.41013456142457,319.276032649781 216.3414165347617,318.81159162428537 216.95987856354887,320.25652638412055 217.02859637911078,321.1338191025793 216.87398108300084,321.3746459730873 216.87398108300084,320.7553780553122Z" name="Tuvalu" admin="Tuvalu" adm0_a3="TUV" iso_3166_2="TV-X01~" iso_a2="TV"/><path d="M39.90797334457402,131.75071621830236 40.938743322195094,128.9864406523819 41.729000312078384,128.90059472126907 41.625923166551246,130.22262973804163 39.90797334457402,131.75071621830236Z" name="Tuvalu" admin="Tuvalu" adm0_a3="TUV" iso_3166_2="TV-X01~" iso_a2="TV"/><path d="M257.2973395219288,93.50347946596021 256.40400559764055,92.13039645391325 256.0432362215632,91.39237136269219 255.8370821416028,90.79165694378074 258.29375038067855,91.28939156016769 259.94298217598583,92.13039645391325 259.874264149323,93.02289847369866 257.2973395219288,93.50347946596021Z" name="Tuvalu" admin="Tuvalu" adm0_a3="TUV" iso_3166_2="TV-X01~" iso_a2="TV"/><path d="M2.1130781058179036,3.224194132351724 0,0.34299521789443416 0.9792311937635974,0 3.1953864450874465,2.0408360523380034 4.896156813179502,6.156914212776916 2.1130781058179036,3.224194132351724Z" name="Tuvalu" admin="Tuvalu" adm0_a3="TUV" iso_3166_2="TV-X01~" iso_a2="TV"/><path d="M798.2797272907384,787.467309420259 798.1422912374127,791.5674791637987 797.9704962763378,792 797.7128038347007,787.7095069129036 796.5617774687682,784.8031879440075 797.1115214708784,785.0453767708998 798.2797272907384,787.467309420259Z" name="Tuvalu" admin="Tuvalu" adm0_a3="TUV" iso_3166_2="TV-X01~" iso_a2="TV"/><path d="M790.0679274330662,775.5314221035801 791.2189537990057,776.3097898950657 792.3012621382965,779.267663568899 791.9920311239028,779.7347070710845 790.8925433307198,777.0189768305513 789.9820299525181,775.7735801258103 790.0679274330662,775.5314221035801Z" name="Tuvalu" admin="Tuvalu" adm0_a3="TUV" iso_3166_2="TV-X01~" iso_a2="TV"/><path d="M539.9000794295118,382.94348276453934 536.7734107999934,377.05670319812793 536.1893078900704,375.02568036643845 541.0682852493364,379.3287486285981 541.6523881592524,379.5353009043332 542.133414134742,381.359867257116 542.2880296419318,383.44267162967805 541.7211061859152,384.45827139673133 539.9000794295118,382.94348276453934Z" name="Tuvalu" admin="Tuvalu" adm0_a3="TUV" iso_3166_2="TV-X01~" iso_a2="TV"/></svg>