<?xml version="1.0"?><svg fill="#3498db" stroke="#ecf0f1" stroke-width="1" width="800" height="1936" viewBox="0 0 800 1936" xmlns="http://www.w3.org/2000/svg"><path d="M633.1193201864879,836.0117067751677 599.0066627903702,869.0242374211299 555.8812827070269,942.1592405520795 517.7952740903556,968.6437553029155 535.5299801745816,968.6437553029155 517.7952740903556,986.7276541589648 505.5844930472277,968.940216327935 486.6868560019901,957.7733867331852 462.55602606059296,952.9310686339717 434.936400854784,953.5240086004897 434.936400854784,935.4391019888932 470.40581302337546,946.5075238077497 524.482130092286,935.735579539465 524.5790431889747,916.1676934544503 508.7825561665616,898.2793158652873 501.5142334933971,885.8263160188428 521.2840693545683,866.652139539332 587.5711674666467,823.9527792283042 615.2877033872293,801.2180700637302 618.6795879365487,810.6085992634946 619.7456081824878,819.4059066193557 623.0405796352381,827.8077085652006 633.1193201864879,836.0117067751677Z" name="Grenadines" name_en="Grenadines Parish" gn_name="Grenadines" admin="Saint Vincent and the Grenadines" adm0_a3="VCT" iso_3166_2="VC-06" iso_a2="VC" postal="GT" type="Parish" type_en="Parish" wikidataid="Q2545297"/><path d="M43.900665802767584,1877.1072592012167 72.58631125437621,1895.0653425901437 79.07934582648035,1915.98288679397 64.54270047997201,1925.7507405409553 39.5396717224221,1932.2625575608185 9.303452450189395,1929.993296893699 0,1916.9695457163186 9.884916739787453,1904.5375264665659 12.307691758080901,1894.374656140906 7.268322673363757,1885.494341893634 10.175651266322253,1879.0807004542326 27.425801394187292,1872.173628288775 43.900665802767584,1877.1072592012167Z" name="Grenadines" name_en="Grenadines Parish" gn_name="Grenadines" admin="Saint Vincent and the Grenadines" adm0_a3="VCT" iso_3166_2="VC-06" iso_a2="VC" postal="GT" type="Parish" type_en="Parish" wikidataid="Q2545297"/><path d="M334.43973224989935,1571.7391242858378 341.8049656381363,1580.821443080581 346.45669186322107,1603.033068667367 333.76135486373215,1619.913360833114 319.90308928516663,1633.8318438426093 313.1193201865476,1655.0544539621192 299.9394296123737,1669.268252709535 275.61477824099103,1670.5514256943807 254.1974554625668,1662.260100255379 260.0121126485037,1654.8570358347345 287.1471818979518,1648.93452047577 299.7456081825475,1632.9434392871372 295.287703387289,1611.4239158622158 296.4506343481412,1587.7318148785591 317.96486784145856,1573.3186663721663 334.43973224989935,1571.7391242858378Z" name="Grenadines" name_en="Grenadines Parish" gn_name="Grenadines" admin="Saint Vincent and the Grenadines" adm0_a3="VCT" iso_3166_2="VC-06" iso_a2="VC" postal="GT" type="Parish" type_en="Parish" wikidataid="Q2545297"/><path d="M638.4494237977199,1245.475013326138 658.8976370450981,1208.4332719156066 678.4736514765029,1212.5820617972504 657.9285275142116,1260.5873849292748 648.3343429191634,1274.2178293463555 640.678375004571,1275.5018398012432 638.4494237977199,1245.475013326138Z" name="Grenadines" name_en="Grenadines Parish" gn_name="Grenadines" admin="Saint Vincent and the Grenadines" adm0_a3="VCT" iso_3166_2="VC-06" iso_a2="VC" postal="GT" type="Parish" type_en="Parish" wikidataid="Q2545297"/><path d="M528.5527706169388,528.6088023970232 448.89157922774575,472.35661165345454 479.48491985055495,439.65169909341677 527.8862890927388,404.593070784494 571.6036533397667,356.78246731600535 590.3396668945599,348.81365466646594 621.5663568663059,344.0323149497596 618.4436882974954,383.8756227535001 636.0409645902847,399.00116298633657 621.5663568663059,428.4969076806047 568.4809847709562,487.4555404715921 528.5527706169388,528.6088023970232Z" name="Saint Andrew" name_en="Saint Andrew Parish" gn_name="Parish of Saint Andrew" admin="Saint Vincent and the Grenadines" adm0_a3="VCT" iso_3166_2="VC-02" iso_a2="VC" postal="AN" type="Parish" type_en="Parish" wikidataid="Q2305115"/><path d="M772.3610458851539,444.7927803868218 766.4688068935004,471.36757565691084 696.5960004205009,570.6585422847542 654.0520893902271,603.587006348699 594.5487579951117,575.2073290011723 528.5527706169388,528.6088023970232 568.4809847709562,487.4555404715921 621.5663568663059,428.4969076806047 636.0409645902847,399.00116298633657 648.1090418430356,409.3739157464042 679.335731814961,431.68401197497906 707.4397510760064,426.9033490350847 743.3504439010777,433.27755981041724 772.3610458851539,444.7927803868218Z" name="Saint George" name_en="Saint George Parish" gn_name="Parish of Saint George" admin="Saint Vincent and the Grenadines" adm0_a3="VCT" iso_3166_2="VC-04" iso_a2="VC" postal="GE" type="Parish" type_en="Parish" wikidataid="Q2300294"/><path d="M687.2800203731106,1.975721424607101 734.972743563687,9.700330987202815 752.1259829768182,16.233114345632544 761.623256856794,32.56474901921238 776.5475450631141,68.09683622864344 800,176.36226162602128 798.8370666574918,325.3674648066116 772.3610458851539,444.7927803868218 743.3504439010777,433.27755981041724 707.4397510760064,426.9033490350847 679.335731814961,431.68401197497906 648.1090418430356,409.3739157464042 636.0409645902847,399.00116298633657 618.4436882974954,383.8756227535001 621.5663568663059,344.0323149497596 630.9343625727374,320.1250275112498 648.1090418430356,286.65317995852627 679.335731814961,293.0289170781079 685.5810689525621,261.14953044373976 688.7037375212531,214.9213256711465 685.5810689525621,175.06647906940714 684.019734668107,141.58629683972214 691.8264082319539,96.94305399265681 712.1237560712021,93.75411768387339 710.5624217867072,61.86381001513124 687.1424032368976,52.29637413585353 687.2800203731106,1.975721424607101Z" name="Charlotte" name_en="Charlotte Parish" gn_name="Parish of Charlotte" admin="Saint Vincent and the Grenadines" adm0_a3="VCT" iso_3166_2="VC-01" iso_a2="VC" postal="CH" type="Parish" type_en="Parish" wikidataid="Q2075188"/><path d="M455.9552480320314,279.33434706170146 468.952149917784,253.7389077169352 462.74984749039925,244.5373636073574 451.2174438333986,220.49393631039408 515.4694121686314,210.10449353073955 542.9921242777317,155.18578662251824 559.3700779712794,85.11979500144201 590.1877639147663,28.9025432758048 620.9085391433599,9.106437050131793 649.4972738800356,0.7918700977288211 675.0817669271835,0 687.2800203731106,1.975721424607101 687.1424032368976,52.29637413585353 710.5624217867072,61.86381001513124 712.1237560712021,93.75411768387339 691.8264082319539,96.94305399265681 684.019734668107,141.58629683972214 685.5810689525621,175.06647906940714 688.7037375212531,214.9213256711465 685.5810689525621,261.14953044373976 679.335731814961,293.0289170781079 648.1090418430356,286.65317995852627 616.8823518712496,254.77344491765612 584.0943297569189,283.4652852804156 552.3872285769853,305.0445412463183 499.7822676896637,293.0289170781079 455.9552480320314,279.33434706170146Z" name="Saint David" name_en="Saint David Parish" gn_name="Parish of Saint David" admin="Saint Vincent and the Grenadines" adm0_a3="VCT" iso_3166_2="VC-03" iso_a2="VC" postal="DA" type="Parish" type_en="Parish" wikidataid="Q2412394"/><path d="M448.89157922774575,472.35661165345454 429.80012105501424,400.9438827295391 436.1962449123448,318.2445750565187 455.9552480320314,279.33434706170146 499.7822676896637,293.0289170781079 552.3872285769853,305.0445412463183 584.0943297569189,283.4652852804156 616.8823518712496,254.77344491765612 648.1090418430356,286.65317995852627 630.9343625727374,320.1250275112498 621.5663568663059,344.0323149497596 590.3396668945599,348.81365466646594 571.6036533397667,356.78246731600535 527.8862890927388,404.593070784494 479.48491985055495,439.65169909341677 448.89157922774575,472.35661165345454Z" name="Saint Patrick" name_en="Saint Patrick Parish" gn_name="Parish of Saint Patrick" admin="Saint Vincent and the Grenadines" adm0_a3="VCT" iso_3166_2="VC-05" iso_a2="VC" postal="PA" type="Parish" type_en="Parish" wikidataid="Q1864637"/></svg>