<?xml version="1.0"?><svg fill="#3498db" stroke="#ecf0f1" stroke-width="1" width="800" height="1768" viewBox="0 0 800 1768" xmlns="http://www.w3.org/2000/svg"><path d="M786.1251625967752,1739.017968233373 790.9042733368101,1742.7113698086337 794.604229977668,1744.8745201651786 797.6104446299707,1747.3235156920985 800,1751.9362122330567 797.5140916023092,1758.24384363006 795.8953606903282,1761.2857561718884 793.525075878491,1763.7562107108452 790.9042733368101,1765.001706619001 785.6048563421396,1766.0634726099224 783.6970661104094,1767.1865260239463 781.4231343262098,1765.001706619001 778.4361902320753,1763.6337051612952 772.3659487793801,1762.061584380732 765.1587415529557,1758.631725182482 761.8827383758686,1756.1003580363592 761.4973262652545,1750.3033363245215 763.1738690885288,1743.9765940430207 766.0451895968337,1739.7729441731497 769.0899456022693,1738.8751364343734 775.1409162600236,1737.814117676252 781.5772992651724,1737.5692714575007 786.1251625967752,1739.017968233373Z" name="Tafea" name_en="Tafea" gn_name="Tafea Province" admin="Vanuatu" adm0_a3="VUT" iso_3166_2="VU-TAE" iso_a2="VU" postal="TF" type="Province" type_en="Province" wikidataid="Q576417"/><path d="M689.6179602932875,1576.8933234033573 697.2876620997955,1581.0186171394466 700.9490773875203,1583.701303107904 705.9401647410384,1585.5508355468621 704.4948693262121,1588.6200291056298 696.0928844147887,1599.2115798237244 694.4741532660191,1610.1923644974445 692.6627162987153,1615.6635557586849 690.4273258676724,1617.9824297353293 685.8409211829365,1617.5145757741686 675.7431228900628,1614.585529004165 671.8311896357138,1612.693968063072 662.0609915421609,1601.102498590792 659.6328950557951,1599.2115798237244 654.8923254320966,1598.9675967182945 653.0423471116677,1598.2356568823081 652.2715228904079,1596.710825127236 651.5392397855243,1593.9052874773377 649.8626969622104,1591.9130693569623 648.1861541389361,1590.6120827626537 647.4346004758524,1589.7583332849017 646.8372115149509,1587.8069747421296 638.8784506254666,1576.2227493764663 637.8956497907474,1573.6218414983819 637.6258612659313,1569.8833331102142 637.9341909070839,1563.4839799890324 639.2253216197441,1557.410619410279 641.8653949563895,1554.7093866760874 643.7153732768185,1553.3486842206412 643.7153732768185,1550.1400464275564 642.7133016471108,1544.3529613230194 643.6768319236935,1541.4089747864332 644.7752565810388,1539.2366539622567 646.4517994043368,1537.5110619920556 649.0533313878335,1535.8261437096278 653.793901011524,1534.4863793724976 662.9281687910503,1534.3645848925842 666.8401022821957,1532.4159222950964 670.6942236252197,1535.7652442729827 670.9062004754994,1539.1351465187515 669.5187167351777,1543.2768584824212 668.5937275749633,1548.7591923279776 671.8311896357138,1567.5063111954096 673.9124151277941,1571.1023736767077 678.8842319231519,1573.1748276642568 684.7617670837594,1574.7190790160498 689.6179602932875,1576.8933234033573Z" name="Tafea" name_en="Tafea" gn_name="Tafea Province" admin="Vanuatu" adm0_a3="VUT" iso_3166_2="VU-TAE" iso_a2="VU" postal="TF" type="Province" type_en="Province" wikidataid="Q576417"/><path d="M666.8401022821957,1437.7952776518462 664.7588765533111,1444.154558203986 660.0375777245773,1447.2535457177062 655.0850314873878,1449.623517673442 652.2715228904079,1453.8371398117508 647.4924121503731,1450.2312248330554 626.5645324597182,1438.8888419046941 623.7124825095816,1438.139544793997 620.8218914431085,1439.4153830352398 618.8948306531864,1439.2938729825055 611.4756468132946,1437.1472535935022 609.3751505262495,1436.0942359921867 606.9085129235552,1433.7655429843167 601.1658719069377,1429.6147216744193 597.1961267412955,1427.6710664640693 584.130654675659,1423.298177792883 583.7067014486847,1419.0876867724298 587.5993641448655,1407.9967197147446 587.6571760561587,1404.6781042336577 586.7899985704806,1401.8251170828275 585.3254323606658,1399.2555739076033 583.3598304544072,1396.787343797553 582.9358769906364,1394.9666128853169 584.4775256699365,1377.0670128844174 585.9228213215595,1371.8704946695004 589.0639303546566,1366.9778678565444 596.2325962279243,1361.802821931711 605.5595702995621,1359.0942647615038 615.1756034541525,1359.37724014084 623.2114468131379,1363.5816714670825 625.6010021831355,1367.543927535854 626.5645324597182,1372.4568397347632 626.5645324597182,1381.4552402264083 627.8942045255113,1385.985509653713 631.3629137579212,1388.0890171361193 640.9596763543434,1389.181264901662 640.8633233266899,1388.8374058884344 642.0002891003875,1388.2508296488293 643.6382908073253,1387.7249408549424 644.9101507250288,1387.48222502611 645.8736812384,1387.967657855055 645.7195162994215,1390.1926310242739 647.7814714701301,1391.3860750720746 649.0726019459938,1393.024587903705 650.1902973983276,1395.0475323610235 650.6720625366031,1396.787343797553 647.8970950559598,1396.9694213405921 632.8852916422409,1401.0360277898058 638.627932895647,1408.0776649273046 639.3409452055738,1410.465618683461 640.9018644430422,1410.931083454808 648.2439660502373,1414.69546929903 650.6720625366031,1416.4968289914236 657.8407284098708,1420.2212382959488 662.8703571165456,1424.6545333998345 665.8380306524881,1430.3436161774673 666.8401022821957,1437.7952776518462Z" name="Tafea" name_en="Tafea" gn_name="Tafea Province" admin="Vanuatu" adm0_a3="VUT" iso_3166_2="VU-TAE" iso_a2="VU" postal="TF" type="Province" type_en="Province" wikidataid="Q576417"/><path d="M480.4740570570718,1129.416500110538 482.88288298526936,1129.9392122394947 485.2724383552987,1129.557229781016 487.2958521728585,1128.7128592747706 488.56771209055404,1127.727781023746 488.97239499615654,1131.9497008393369 481.9193524719299,1146.2670509349882 480.01156247696457,1152.5424240716939 478.2579371841971,1155.519519331243 475.09755759293967,1156.8270914848144 469.00804558205255,1158.0944681900035 468.50700964881236,1158.6577586145033 467.85180901338225,1159.8245975603074 466.73411379784494,1160.9512304478603 464.98048850507746,1161.474319770984 463.76644026190246,1160.9311118007931 462.263332935759,1159.7843613164914 461.1070963670888,1158.6376410269004 460.91439031176594,1158.0944681900035 444.1104207257395,1162.158369252943 442.2989835216392,1162.1986079379544 438.1558028588503,1159.7843613164914 437.2308136986279,1157.9335295830133 436.7105074440239,1155.519519331243 435.66989446118333,1154.7953422027817 433.1261743889878,1158.0944681900035 432.93346833367286,1156.042543435964 431.9313967039573,1153.548176646794 431.6808787373412,1151.4964658444214 430.64026599129704,1151.8585255173023 430.50537184729916,1151.9792126602626 430.50537184729916,1152.2608174570157 430.06214782536017,1153.0251824627724 428.1158164772698,1152.4619648181176 426.2658381568488,1152.5424240716939 424.74346003573277,1153.347024276326 423.58722370385897,1154.8758057615987 425.0710604718421,1146.2670509349882 423.58722370385897,1146.2670509349882 421.1591272174931,1149.404624606693 417.36281731218537,1151.0539525191427 408.9030207262494,1153.0251824627724 408.9030207262494,1151.4964658444214 413.0076600359212,1148.3989675317666 418.26853591422366,1146.789964142943 422.4887990465216,1144.4972367777723 423.58722370385897,1139.3490944994883 421.62162179760037,1140.5958546274226 420.0028906488308,1140.7165106556479 418.9622779027867,1139.5501824152332 418.2107242397189,1134.3221963902267 417.17011125688623,1133.5179463313095 415.60919225620637,1133.3168861239467 413.75921393576954,1132.6332882720772 409.9436334722935,1130.5423491360025 406.8025244392044,1130.1000477855673 403.9119333727234,1130.884130295857 400.8093656927672,1132.6332882720772 399.13282263269645,1134.4428351234455 395.93390192507877,1139.6909446545076 394.334441571266,1141.199138344562 391.7329093509808,1141.7622107552772 390.1527195553283,1140.7768389181451 389.45897780356967,1138.2632356762274 386.1251627151576,1136.1318132756833 386.8381750250924,1133.0756149450078 392.7157104224885,1120.812751737267 395.4906779031398,1117.797818332608 401.5994604721873,1113.416483483869 404.0468277535178,1110.683394846864 413.4701546160284,1096.6990646355741 419.65601965454533,1091.556517513292 426.82468576460957,1090.3111468379573 428.03873400780833,1091.8377351170252 428.88664069852956,1094.408950102461 430.06214782536017,1095.975857888146 434.20532848816487,1093.4447268912525 450.5275329359158,1090.712875433864 454.3431131626033,1091.3958224723144 457.69619904598,1093.6857808450236 458.25504665374865,1095.2124856836817 459.064411991337,1099.6723729363712 460.0279425046844,1100.596549945155 462.03208552730325,1100.978280949909 463.4195692676249,1102.043126960799 465.770583521294,1105.6597772256198 467.6976443112161,1110.2412933969708 469.00804558205255,1115.0845550484464 471.20489489675106,1119.0037667723311 475.61786384754373,1120.812751737267 477.06315949919826,1123.2650501222706 478.9516789359557,1127.9288155943548 480.4740570570718,1129.416500110538Z" name="Shefa" name_en="Shefa" gn_name="Shefa Province" admin="Vanuatu" adm0_a3="VUT" iso_3166_2="VU-SEE" iso_a2="VU" postal="SE" type="Province" type_en="Province" wikidataid="Q650617"/><path d="M398.9786579305065,1102.284227865512 399.5567760964355,1094.6901858564825 406.9181482618226,1087.6598292140684 415.60919225620637,1084.5668262409145 420.29194973180716,1088.7846112535983 417.2857350795124,1089.829077290442 412.00558864301,1092.8420981292315 408.84520881495615,1093.6857808450236 403.33381520679444,1097.4222834735851 400.8671773673036,1099.5518295789595 398.9786579305065,1102.284227865512Z" name="Shefa" name_en="Shefa" gn_name="Shefa Province" admin="Vanuatu" adm0_a3="VUT" iso_3166_2="VU-SEE" iso_a2="VU" postal="SE" type="Province" type_en="Province" wikidataid="Q650617"/><path d="M426.7668738533163,1069.2656622180648 427.8652985106537,1062.359777311851 430.50537184729916,1061.1553721500366 433.70429255492473,1063.7448833122874 436.4792600355681,1068.4224445245864 438.4448619418267,1077.096307373104 434.70636418460066,1078.3413064621254 429.4647588644665,1074.8473652053483 426.7668738533163,1069.2656622180648Z" name="Shefa" name_en="Shefa" gn_name="Shefa Province" admin="Vanuatu" adm0_a3="VUT" iso_3166_2="VU-SEE" iso_a2="VU" postal="SE" type="Province" type_en="Province" wikidataid="Q650617"/><path d="M442.95418415707724,975.5649953999981 441.6823240025773,977.0876777769604 440.7573348423628,978.7306291686474 439.48547492465934,980.0530479851205 431.62306706283647,982.0367482863953 429.19497033968213,982.2772028488349 426.7668738533163,981.0549059496706 427.9616515383151,978.249759181439 430.7366190189585,975.3245766663067 433.06836247766284,973.7218167435972 442.2989835216392,969.1742936772359 445.53644558239773,969.1141972071157 451.00929807419124,970.5164668294354 449.0244256097644,972.1191133908713 442.95418415707724,975.5649953999981Z" name="Shefa" name_en="Shefa" gn_name="Shefa Province" admin="Vanuatu" adm0_a3="VUT" iso_3166_2="VU-SEE" iso_a2="VU" postal="SE" type="Province" type_en="Province" wikidataid="Q650617"/><path d="M482.7672593994397,945.1620904085513 478.91313781961924,944.8417461853534 476.4850413332614,943.7606005432461 475.79129934469836,941.6784666597604 477.0246181460336,938.2952007276064 476.77410041621397,933.0706483921668 481.22561072016333,929.2877236448255 487.2958521728585,928.7473311871022 491.7088211236432,933.2507954863265 485.3880619411284,943.6805166705423 482.7672593994397,945.1620904085513Z" name="Shefa" name_en="Shefa" gn_name="Shefa Province" admin="Vanuatu" adm0_a3="VUT" iso_3166_2="VU-SEE" iso_a2="VU" postal="SE" type="Province" type_en="Province" wikidataid="Q650617"/><path d="M395.8182783392491,913.2587859601073 392.81206345014994,911.3981099443417 385.83610363220504,904.5762744086649 384.4871610082198,902.2758828445751 385.0267380578123,895.4953953885756 384.4871610082198,892.9754677162252 380.7486632510176,889.7757570793403 378.84087301927167,887.516094911677 378.8986849305966,885.4165074528913 379.9007563234761,882.4772447144113 380.343980345423,873.3807066370154 381.3845933282557,869.5027242881163 382.887700654407,867.7237579188884 384.3908079805584,866.5244933160444 385.64339757688214,864.8655614345635 386.1251627151576,861.7876996199745 386.00953912933585,859.4294753743712 385.6626681350504,857.7707960002003 384.4871610082198,854.073951434255 386.81890446691625,855.592619709724 388.26420011857084,855.432757487386 389.70949577018575,854.5934904147321 391.848533173599,854.073951434255 394.1610060741351,854.6534374221613 395.3172424060089,855.8523969272463 395.9531724832391,857.0513869833937 396.70472614633064,857.5909427061413 398.3619984114367,859.6892739549431 402.48590851607315,868.923053666655 404.8561930911061,871.0218954237373 405.31868767122126,872.7610074308435 405.877535278982,876.5992780505599 406.9181482618226,880.6577945021347 408.9030207262494,882.897128125709 410.7529990466783,882.6571942472924 414.66493230102725,880.1379647934925 416.9966759965281,879.5781545444211 419.0586309304402,879.9580250309516 420.92787980903734,880.8577305748693 422.4887990465216,881.9374005499627 423.58722370385897,882.897128125709 426.07313210154973,886.6162599263662 427.61478054403756,890.4156815625855 429.7152768310826,893.4154450636013 434.0126221960456,894.655404162056 434.78344665409384,895.9753971906131 435.78551828380944,898.8555126703869 438.02090871484444,901.735807684222 442.26044240531064,903.0159963854145 454.80560774271845,902.5759276305737 460.2399191181755,904.4362474103854 464.1711231674812,909.897619786198 461.04928469256026,911.2980757468946 461.6274028584893,914.6393358960084 463.03415715698713,918.5010942444046 462.55239201871166,921.6627751621589 460.06648362104465,920.5421546902573 457.69619904598,921.6627751621589 445.15103347178365,914.539294657947 441.2969118919395,910.4577971612844 437.40424919578254,908.5772286609953 432.8178447478353,907.1368451753456 429.2527822509833,906.5767081513326 419.4055019247256,908.6972625879098 412.39100075361614,912.8186191886691 405.4921231683759,915.4796910268984 395.8182783392491,913.2587859601073Z" name="Shefa" name_en="Shefa" gn_name="Shefa Province" admin="Vanuatu" adm0_a3="VUT" iso_3166_2="VU-SEE" iso_a2="VU" postal="SE" type="Province" type_en="Province" wikidataid="Q650617"/><path d="M428.38560500208587,845.8819873989481 425.14814294133527,844.9430002094991 423.18254079828813,842.1860829291545 420.29194973180716,835.6540354721942 427.1715567588871,834.2558559923284 430.19704196935805,834.1559876414746 433.06836247766284,835.6540354721942 435.86260051647446,839.6490634973328 435.9011418696312,843.3647449895795 433.318880444279,845.7820942647841 428.38560500208587,845.8819873989481Z" name="Malampa" name_en="Malampa" gn_name="Malampa Province" admin="Vanuatu" adm0_a3="VUT" iso_3166_2="VU-MAP" iso_a2="VU" postal="ML" type="Province" type_en="Province" wikidataid="Q740656"/><path d="M400.8093656927672,830.780562062497 403.0640266820021,821.5742729317002 405.78118225132846,819.5375500639767 412.140482787,818.9185633617077 409.9436334722935,822.5926675400607 409.7316568588024,831.1400633648462 408.0743845936964,834.8151227837195 403.9119333727234,837.3319058671434 400.09635314604384,837.2919557340465 398.43908088092985,835.0148625041638 400.8093656927672,830.780562062497Z" name="Malampa" name_en="Malampa" gn_name="Malampa Province" admin="Vanuatu" adm0_a3="VUT" iso_3166_2="VU-MAP" iso_a2="VU" postal="ML" type="Province" type_en="Province" wikidataid="Q740656"/><path d="M393.5250759968812,798.8159001977218 390.26834337796237,799.654171848288 386.81890446691625,801.2708809352102 383.48508937850426,802.2688772177903 380.51741584257763,801.1511228750978 377.78098971505926,798.8159001977218 374.6206098870054,796.8799479863123 371.44095973754804,796.0417254659311 368.4540156434136,796.9996954822842 362.1910681353956,792.5892026315412 359.01141798597786,792.0104806568927 355.5427085167715,793.6069720772908 353.2687769693683,790.6934155189975 345.40636910753744,785.9043962585047 341.6678711135467,782.8316967408964 338.2569735556415,780.7966415892059 334.1523342460014,779.1207790706329 331.60861393701737,777.006084644045 332.9190154446423,773.5549455871435 329.700823942052,770.6825119244688 332.76485050567965,767.4312855186648 338.58457399175074,764.7586641797711 345.5219926933671,763.123253348621 349.0292432789021,760.6901848917986 351.3417161794382,760.1517355598467 361.8634676992863,760.1517355598467 366.79674337830755,757.6191111426475 375.661222869846,748.6064497314811 378.8986849305966,746.6326642300378 380.05492126246247,745.1972348104649 383.71633678696,735.5690059436744 385.83610363220504,734.5724052415027 390.9813556878893,733.2369925457866 395.6641134002865,738.3795314584552 399.42188195244546,746.5130432861683 404.0468277535178,761.8269307864491 404.97181691374016,769.3660376466647 409.46186833401805,773.8940636407556 426.42000285903873,782.8915524723052 428.154357593638,784.9865559883068 428.4434166765906,788.618114402332 426.6512502674866,791.5714547968083 418.5961363503409,797.8778516519719 393.5250759968812,798.8159001977218Z" name="Malampa" name_en="Malampa" gn_name="Malampa Province" admin="Vanuatu" adm0_a3="VUT" iso_3166_2="VU-MAP" iso_a2="VU" postal="ML" type="Province" type_en="Province" wikidataid="Q740656"/><path d="M305.94016485944456,816.4027662505757 308.3682613458183,816.282969797468 310.2182396662393,819.3179088086133 311.7791589036998,823.2316712683491 313.3786192575046,825.7678036938779 307.7901431798814,831.4995674196823 305.94016485944456,832.298474957122 302.87613829582483,832.9575840094913 301.43084264420196,834.6952794087357 300.2360649591794,837.0922063155224 297.7694273564771,839.8488238123501 296.2663197935293,842.1661059117076 296.45902584885215,844.2437667783712 296.3434022630225,846.0817743070709 293.6455172518406,847.5202653797636 289.81066646699276,847.5602239943045 288.1341234069141,845.5223730158217 287.20913424669965,842.7254670945246 285.59040333471864,840.5280153029177 283.3935540200201,839.9087519256392 277.14987730695884,838.8500305070019 275.87801715246684,838.3306665769734 274.41345094265193,836.1334208528876 271.0218239429467,836.093471986289 267.43749112470704,836.7326594083682 265.2984537212938,836.5528869886207 260.8084020642115,834.7352270845732 255.56679674407735,836.6727353555054 250.84549791534363,840.028608873097 248.07053043470026,842.5256945115666 249.66999102530158,843.9840540661963 250.28665030757497,844.9230220155968 251.13455699832002,845.482416141846 253.25432384354121,845.8819873989481 250.94185094300508,848.9588006958356 248.12834234602522,850.0976725743744 241.92320674930838,850.916878121457 236.91284883761412,855.9123455512204 235.52536509730038,855.6325852280612 233.90663394852288,854.4336316134378 232.63477379403088,854.4136493631457 232.09519698120315,857.5909427061413 230.61136021323586,857.5909427061413 228.665028628357,855.0730698569678 222.17083394867964,852.8350744333613 219.2802428822145,847.200596710404 216.10059273278094,844.5833930420009 213.2485427826444,841.1073334801121 212.6896951748757,835.6540354721942 214.28915552868853,835.6540354721942 215.2334152470712,837.2719808029904 216.71725201505433,838.6902257400612 218.58650113044794,839.8088715339362 220.7640796501897,840.5280153029177 220.1474201311278,836.612811133776 218.7599363908061,831.6992930294948 216.71725201505433,827.0259357979343 210.8204462962865,819.1781374556226 209.7991041084106,816.5225630082402 209.4522331141251,812.8888618419307 209.62566861127974,808.3770725857162 209.4522331141251,807.0196275827019 208.35380845678773,805.4626063713577 206.79288921931143,804.6242314947714 205.3090524513283,804.1850888613009 204.59603990459703,803.825793199714 203.88302759467015,798.556438044121 204.13354532449773,783.5100678294833 205.34759356768856,780.3776702981288 202.84241461182955,768.5283001988856 202.68824990967133,767.0922132130513 202.84241461182955,762.7243811942658 202.30283756222914,760.8497264097206 201.22368369984852,760.2713903607215 200.1059884843112,760.0919081492808 199.60495255107895,759.3141598552351 198.35236319155163,755.0068598262937 189.89256636882718,741.7483925601908 186.11552725847616,744.0210120109051 184.88220845713292,745.0975538181189 183.43691304228275,743.2833957646226 179.62133257879879,747.8887002083914 168.73343950650494,755.1265017484676 163.10642207572502,750.0419812876817 159.94604248446763,748.7659511947691 157.4215927336439,750.1017961281907 155.82213237983112,747.6095782296389 155.24401421390215,745.1972348104649 154.93568433597693,742.7052719155631 154.1841306728933,740.0738994764707 152.35342291063264,737.60213561525 150.25292686037614,735.8679901842208 148.46076021447573,733.8947285172827 147.68993599321595,730.7257196917218 148.69200762293153,724.9263765507847 155.80286182166287,711.357443149497 154.78151963378698,695.2032236853959 154.9934962472781,692.056665401925 156.20754449047686,690.0652781118765 156.5929566010909,688.1934486338479 157.4215927336439,686.8394038339605 159.84968945680617,686.2818672191493 167.1147083577354,681.1249544042738 193.13002842957778,691.2999286126394 192.82169878842524,699.9035260600789 207.00486583279462,717.9919955528559 202.84241461182955,726.5405566311396 205.8871706172652,727.736280311583 208.35380845678773,729.4302732700779 209.2787976170022,731.8019635370989 207.69860782135765,734.91124706374 209.7991041084106,736.6852234628061 211.8610590423227,738.957603204445 214.05790835702916,740.9111387156102 218.7599363908061,742.5059204964791 222.3828107989672,745.8551346560861 224.83017784350125,746.6326642300378 225.63954341788605,745.6757065077833 225.27340186544023,743.4628149614173 224.00154171094823,739.1569401308892 225.00361334065587,738.7582673504324 227.23900377169883,741.3098291308115 230.61136021323586,746.6326642300378 230.38011280478798,748.8058265210676 228.54940504252733,751.5174337080782 228.85773492046837,753.4515413336052 234.19569303147549,755.9640040744025 235.4675531859675,756.8015210690288 236.91284883761412,756.8015210690288 237.6644025006819,755.4654891058343 238.3774148106088,754.7675768797725 239.1867803850015,754.2690741365257 240.15031089835682,753.4515413336052 240.80551153377107,756.2631155501755 241.82685372163903,759.015029286036 243.21433746196863,761.5676706935756 245.0065038711043,763.64179208324 247.72365967721123,765.3968885787082 253.21578272720473,766.9725413111385 256.33762120212566,768.5283001988856 261.6563087549645,773.5748935978187 264.7203353185605,777.8838708839941 268.0926917601134,779.6594427757035 274.41345094265193,777.0260341012976 276.6295708155267,778.2230200342825 277.49674806444784,778.562171357977 277.49674806444784,780.3776702981288 275.9165582688033,783.9091141432534 280.1560919592616,788.618114402332 290.4080551910979,796.9996954822842 296.45902584885215,795.9219803926916 299.69648790960275,801.4505187166188 301.7199017271546,813.5676638854804 297.26839142323695,821.7140513992242 296.8058968431297,826.2271179233927 300.4287710144943,828.9431542919668 300.6985595392787,824.2101629938799 301.66209005264983,821.0950360789473 303.3386328759321,818.7588263765116 305.94016485944456,816.4027662505757Z" name="Malampa" name_en="Malampa" gn_name="Malampa Province" admin="Vanuatu" adm0_a3="VUT" iso_3166_2="VU-MAP" iso_a2="VU" postal="ML" type="Province" type_en="Province" wikidataid="Q740656"/><path d="M162.25851538500376,652.7219238798774 157.55648711443828,652.6025346376874 154.28048370054682,651.0107049359827 147.68993599321595,646.076361244809 144.182685407681,644.6836924769954 137.5535963471934,642.9329650641798 134.64373472255213,641.0629385199497 130.6547189987417,634.3791694254488 131.46408457312648,627.8753000440422 136.03121846287382,622.983045660837 143.6045672417441,621.01434812552 160.3699957114419,623.082476894142 168.84906309233463,625.9064078332611 169.6198873135944,630.2619415203592 166.80637871658286,637.7607250814034 168.50219209805707,644.8428526946715 168.8876042086632,650.3142957834494 162.25851538500376,652.7219238798774Z" name="Sanma" name_en="Sanma" gn_name="Sanma Province" admin="Vanuatu" adm0_a3="VUT" iso_3166_2="VU-SAM" iso_a2="VU" postal="SN" type="Province" type_en="Province" wikidataid="Q740640"/><path d="M150.8117744681448,600.8546174845817 155.3210966833874,599.0259346262214 158.57782930231417,599.0656877854589 159.17521802641932,599.9800216610071 155.80286182166287,600.8546174845817 155.80286182166287,602.5243433519848 158.2309583080366,603.180322173509 159.15594746824314,604.4923062906915 158.78980591579736,606.1025159425874 157.4215927336439,607.6928977787298 162.87517466726922,610.6352384536666 163.14496319208527,614.8701296908157 159.67625395967534,617.5941711660467 154.1841306728933,616.0034718945993 153.39403589346531,616.997652949965 152.6232114354408,617.3555631147747 150.8117744681448,617.7134758673286 147.3623357939031,617.1964915566532 144.8764273962361,616.3017241152259 139.48065713711551,612.702933450043 150.8117744681448,600.8546174845817Z" name="Sanma" name_en="Sanma" gn_name="Sanma Province" admin="Vanuatu" adm0_a3="VUT" iso_3166_2="VU-SAM" iso_a2="VU" postal="SN" type="Province" type_en="Province" wikidataid="Q740640"/><path d="M142.71811919786612,460.5176170965409 137.47651411452046,454.67036206402304 136.37808945715136,452.05417743408645 140.55981123629257,453.2631553986215 146.6493232471639,458.00024310599673 150.8117744681448,458.7138168695504 148.7305487392601,460.9933551389894 146.61078189404682,461.98449030071 144.56809751829502,461.806084560564 142.71811919786612,460.5176170965409Z" name="Sanma" name_en="Sanma" gn_name="Sanma Province" admin="Vanuatu" adm0_a3="VUT" iso_3166_2="VU-SAM" iso_a2="VU" postal="SN" type="Province" type_en="Province" wikidataid="Q740640"/><path d="M146.8420293024947,600.0197755829516 137.86192622513448,610.8738141411864 135.8192418493827,612.4245848268927 133.83436914815942,613.4385766399726 131.6375200702494,614.0151694113413 128.97817617543572,614.2139960439117 126.14539678349117,613.7765783588914 122.15638105965697,611.6491934202606 119.95953174494258,610.8738141411864 110.96015810941414,609.8002320973364 100.82381846341538,610.0785659873455 91.74736235839373,612.4245848268927 85.9469096672794,617.7134758673286 88.25938256781554,620.0996266286795 86.33232177789344,620.3780184007477 81.28342251307419,619.3837691958446 78.3542900934365,621.2927450462087 77.17878320340239,623.3211125723674 76.35014707084936,625.468886754104 74.65433345258661,627.6963065545692 69.87522294934817,630.0033830478684 64.55653515971285,629.5260480203663 59.43055366219686,626.8013490846331 55.26810244122388,622.5256644658698 58.23577597716634,617.9123173493757 58.31285844665953,611.8281288597871 55.807679490808454,606.5796251185599 47.636941751060355,602.882148841678 44.20677363498689,599.343961522577 38.96516855164122,590.8771863614372 36.363636568120775,583.5245816670382 34.87979956334913,581.5971861579573 28.61685229212757,575.3982322795616 27.63405122061194,573.1930205142502 26.882497557520413,570.133698338498 23.413788325118386,565.6046550269848 22.623693308893923,563.2608372678684 23.163270358502267,561.0760208143736 25.360119673200806,556.0910227712238 26.593438474567808,548.9420870283395 29.753818065833137,538.9948387163146 30.678807226047596,533.9127697933466 30.466830612556485,522.599058306034 29.194970458056552,516.9629933235935 23.51014135277982,508.74815904635744 22.122657612458134,503.9468648284959 21.15912709910282,493.81007976049403 18.731030612744927,484.50822386501727 18.904466109867855,481.1766267293018 21.15912709910282,477.1512356268418 17.073758347607185,475.78307118946606 14.56857939177195,472.1546371631833 13.296719237279941,467.49554846611306 12.94984824300239,462.935997847301 11.909235496958257,458.7138168695504 6.821795115778746,451.12268911341704 4.856193209520157,447.06001108588583 0.5010359332401602,428.4946523591085 0.8093655743768554,424.5327883280388 2.505178955827311,420.55141845173733 3.353085883368796,414.66905524894764 3.1218384749209207,408.9061703096102 1.6187311487695597,405.36161857696726 8.05511391711405,392.0568374936764 7.592619337014746,386.0391155263717 8.440526264548307,383.1888558553985 15.898251220776611,380.87313331034284 17.343546872423243,378.97312940341345 18.441971529760625,378.1616904007173 21.15912709910282,380.45750169427964 22.122657612458134,382.4367297073892 24.435130512994274,388.8895295908353 25.148142822921177,390.2554076602155 27.11374496597621,391.34417667571574 28.366334325511453,393.9177200767242 29.060076314066556,396.96654241622423 29.252782369389426,399.5403615173621 30.17777152960388,399.99574271938013 35.689165137733916,407.0249538874839 37.77039086661863,413.00547695777993 39.2349570764335,415.79794224552995 44.014067579671945,418.17462620227184 53.64937129245432,425.44399024773935 51.33689839191818,427.8607339808545 52.435323049255565,433.5068430059 56.71339809284674,445.3953959198483 59.045141551551126,456.69204987941146 60.08575429760318,468.8238414024465 59.77742465647441,471.7382759871796 60.99147289964147,473.3442594875373 62.55239213711778,474.59339240554925 63.36175747471404,476.3184354248379 66.59921953546464,506.48633598479285 69.29710478341126,508.470385878349 75.3866165575099,508.5894312665682 85.9469096672794,507.3989894197813 92.03642144137011,507.6172349598003 94.54160039720534,507.37914876303984 96.04470796014523,505.4745002216438 99.05092261244795,500.59416321505626 100.97798340237006,498.59058279049435 103.09775024759125,496.90446209823307 104.83210498219049,494.76217748233546 105.52584673394915,491.3704101870842 106.89405991610259,464.482235019151 106.41229477783504,461.3501616120656 105.14043462334304,457.52453266399283 107.83831963448529,454.0955829107336 112.0971238831197,451.5587029113448 115.35385650203854,450.38940181564124 133.159897954569,452.05417743408645 133.159897954569,453.85774500574837 128.86255258960603,454.5712617621252 126.83913877204627,456.6325872501021 126.33810283879026,459.7247301922644 126.99330347421244,469.874604861936 126.06831431399797,472.3727326786344 123.3126176283193,475.48564872772243 127.24382144082855,475.94169693047996 128.84328179464134,478.83670589132987 129.7875417498205,487.1458919502815 133.83436914815942,499.1063485967963 134.64373472255213,503.7881522497526 140.3671051809935,499.64195676535184 143.31550815876773,498.94765083310705 147.68993599321595,500.59416321505626 146.5529702195183,505.05786793498555 150.8117744681448,524.6631261145391 149.67480869443924,528.5533283972118 147.68993599321595,529.426680119574 146.88057041883118,530.2603481869669 149.32793770016167,533.9127697933466 150.38782100437405,534.5082982685897 154.1841306728933,535.8978922289481 155.80286182166287,537.0890029582429 156.67003907057617,538.4389624867139 158.94397085475995,543.8788713485396 158.40439380518333,548.5250969526563 157.36378105913917,552.5164278626793 155.89921484932432,553.8866593338881 154.1841306728933,550.5505090951002 152.56539976091227,550.5505090951002 154.20340123106155,558.7125536400035 158.40439380518333,571.1070987181313 163.95432876647007,582.4317194963719 169.6198873135944,587.3795961674355 171.64330113114625,588.4129496438053 172.08652515308523,590.8970599283148 171.46986563401538,593.6595359891892 170.50633535744066,595.6867741002487 168.8105217392017,597.0979396527135 167.42303799888,596.9588087492225 165.72722461740577,596.1637833143011 163.0678807225921,595.6867741002487 154.20340123106155,595.6867741002487 150.8117744681448,596.919057273519 146.8420293024947,600.0197755829516Z" name="Sanma" name_en="Sanma" gn_name="Sanma Province" admin="Vanuatu" adm0_a3="VUT" iso_3166_2="VU-SAM" iso_a2="VU" postal="SN" type="Province" type_en="Province" wikidataid="Q740640"/><path d="M394.334441571266,595.6867741002487 395.93390192507877,597.9128561358062 397.4370092512222,598.548897972469 398.59324581989245,599.7414980640717 399.0557403999997,603.4387406063244 397.2057620795708,618.4293088924394 397.5719036320166,622.5256644658698 400.8093656927672,630.2619415203592 400.8093656927672,637.7209405833397 401.5031074445337,641.1226192085273 407.05304240582046,656.8609329103372 408.9030207262494,669.4193935960037 410.039986499955,673.0223368243957 412.85349533373125,678.616383259565 413.75921393576954,682.936780450664 414.3566026598747,692.5943540455243 413.7399431408128,701.1384268534051 410.6951871353851,707.6520533663288 404.0468277535178,711.357443149497 398.7088694057142,711.7359666946627 395.89536057194584,710.0425948869095 394.73912424007204,706.5165874865253 393.8719469911587,696.6570820947496 389.6516838588925,681.8616226196277 387.0501518753721,663.0900042086672 381.3845933282557,649.3791331722953 379.2840970412027,640.7048566418671 378.6674375221408,631.0972933690083 379.82367409080314,620.9745773694957 385.6048562237492,601.8882506578847 386.9345282895503,582.3721094226211 392.1375922565595,581.9548416307024 393.64069958270295,593.281922300431 394.334441571266,595.6867741002487Z" name="Penama" name_en="Penama" gn_name="Penama Province" admin="Vanuatu" adm0_a3="VUT" iso_3166_2="VU-PAM" iso_a2="VU" postal="PM" type="Province" type_en="Province" wikidataid="Q836649"/><path d="M336.00231256643025,564.929306458013 335.23148834517843,569.418558929824 333.2658862021234,572.6764985613711 317.5603412734344,585.6507642735777 312.10675933980116,587.6180603226716 287.3825697438226,587.4988281025545 282.35294127396804,585.8693488389031 274.2592860036973,581.8157529785228 272.87180226337557,579.0738013905864 275.12646348938324,574.8618206202817 304.03237462769073,547.3932845241488 309.1776269202031,545.7055414834617 313.1859132021818,545.0304600363677 324.671195235401,540.5433833987851 344.86679205794496,537.0890029582429 350.91776271569125,538.0816169208325 351.11046877099034,540.4639696645718 345.67615739552537,545.7055414834617 342.5928602737611,549.4186511665522 339.43248068247993,554.422846810438 336.98511363793796,559.8843426991476 336.00231256643025,564.929306458013Z" name="Penama" name_en="Penama" gn_name="Penama Province" admin="Vanuatu" adm0_a3="VUT" iso_3166_2="VU-PAM" iso_a2="VU" postal="PM" type="Province" type_en="Province" wikidataid="Q836649"/><path d="M373.1753144721552,464.60117820587647 373.57999714096127,462.6981191921486 374.21592721819144,461.46909757059035 374.11957419053795,460.14099424849826 372.42376080908747,457.94077896961267 371.76856017365736,455.6217347345504 372.61646686437865,452.66857263333605 374.42790383168256,450.09212610422395 376.54767067689585,448.8634044776171 379.43826174336886,450.56776811147785 381.9819820523608,454.84874313530173 383.8126898146215,459.6652640683567 384.4871610082198,462.935997847301 384.8725731188338,468.5661104161717 387.7438936271387,482.1483201463487 387.84024665479217,484.6470452437208 387.5126464554793,489.7638620949371 387.7438936271387,492.2629588427567 390.5381316659503,500.2172460273668 390.9813556878893,502.9945957916279 390.9813556878893,511.48628981566617 391.7329093509808,513.5895917060326 395.0474538812008,517.5186339502776 395.8182783392491,519.6618758871545 395.0859952343496,536.3147777427381 396.35785515205305,539.8683707607472 395.93390192507877,544.4745173368992 394.334441571266,551.3845257459027 394.12246472098633,558.4940875733721 392.7157104224885,565.7238353166103 389.6516838588925,564.5519097249407 387.1079635499085,564.5519097249407 381.3845933282557,565.7238353166103 382.7528062736206,560.0432315462347 382.40593551613154,553.9462353024378 379.6502385936564,542.3699327880606 381.2496989474613,533.9127697933466 381.1533459198078,507.7958002768135 378.8986849305966,502.26056738550653 373.1753144721552,464.60117820587647Z" name="Penama" name_en="Penama" gn_name="Penama Province" admin="Vanuatu" adm0_a3="VUT" iso_3166_2="VU-PAM" iso_a2="VU" postal="PM" type="Province" type_en="Province" wikidataid="Q836649"/><path d="M235.4675531859675,260.4163470582475 237.87637911416508,261.0877702491978 252.40641715281996,268.157964343951 254.52618399803322,269.836776493239 256.33762120212566,272.187200915462 254.77670196465726,284.98793734160586 254.06368941792599,287.0821728241016 252.71474679394078,288.563992299054 246.62523501987386,298.85881953992765 243.31069048963008,302.2974531166717 240.72842906430165,303.7204001098839 238.1268970807812,303.9575614768193 222.22864586000458,302.6136602291952 218.99118379925397,303.8389806627545 215.58028624134877,303.60181957535474 212.67042461670746,302.37650478145974 210.2615986885099,300.99311800448834 208.54651451207891,300.3607244171908 207.50590176603478,299.0169128961279 208.50797339574243,296.09226229007425 210.89752852898323,291.31040496850204 209.4522331141251,277.99456787427073 210.03035128006204,273.6093557997353 211.6298116338669,271.4958891455976 213.96155532936774,270.13304308549357 219.6078433183159,265.47197225610785 221.30365669979014,265.15598200423557 223.3848821918784,265.5904692859342 227.37389815248528,265.3929747031482 229.45512364457355,264.3857632839688 233.09726837413018,261.1667617995678 235.4675531859675,260.4163470582475Z" name="Torba" name_en="Torba" gn_name="Torba Province" admin="Vanuatu" adm0_a3="VUT" iso_3166_2="VU-TOB" iso_a2="VU" postal="TR" type="Province" type_en="Province" wikidataid="Q822514"/><path d="M220.7640796501897,206.5910401450428 220.60991471123504,201.56055837760232 219.7234669041535,198.44386147959008 217.31464097595594,195.87962194508293 212.6896951748757,192.38850150149491 207.0819483022878,183.8884411985054 205.69446456197406,178.87973236882775 206.07987667258016,172.39274242098145 207.929854993017,167.1879208919868 211.1673170537676,163.18605748802415 215.48393321368732,160.0912165095722 225.73589644554747,155.65623215150683 229.3202295005756,155.59710130247024 232.6733151471559,157.70613675963375 236.91284883761412,162.45668480751186 243.69610260023617,175.29109153234313 246.62523501987386,177.36143311048534 243.67683204207586,181.2459954205784 241.92320674930838,182.33056634046494 243.44558463362006,185.78161371766734 245.3919159817104,187.06348593074262 247.60803585459303,187.65512910386195 249.86269708062446,189.07509852863785 251.13455699832002,189.64704088635685 252.23298165566533,189.37093002335735 252.94599420238868,189.56815189387478 253.25432384354121,191.5601321859536 252.57985264994286,192.50684091371645 251.13455699832002,192.44767129728717 249.40020250051722,192.15182319060597 248.07053043470026,192.38850150149491 244.19713829671159,195.24844260213274 239.91906348991685,197.33925137286604 234.8894350200306,198.56221379750863 228.85773492046837,199.01590030470803 229.66710025805673,199.7062997879845 230.43792471611295,200.10081763711926 230.38011280478798,200.8504093804272 228.85773492046837,202.32989656352066 231.59416104798674,208.01149422232345 228.35669898723614,212.2928055965347 223.3848821918784,212.72687421705913 220.7640796501897,206.5910401450428Z" name="Torba" name_en="Torba" gn_name="Torba Province" admin="Vanuatu" adm0_a3="VUT" iso_3166_2="VU-TOB" iso_a2="VU" postal="TR" type="Province" type_en="Province" wikidataid="Q822514"/><path d="M279.92484478761014,134.19584638590132 282.08315274915196,135.67357272153836 283.2008479646893,139.14145525149195 283.2393890810337,143.0430778793541 282.35294127396804,145.92020503741836 280.31025689822417,146.96467789017285 276.34051173257404,148.28507697558288 271.6384834620086,149.2704694961099 267.6301971799982,149.23105356095837 265.93438356175926,151.87198904351496 263.91096998097214,152.04936977938573 263.54482842852633,149.80258877539785 272.178060511609,138.2350564080935 275.4926050418211,135.3780241699914 279.92484478761014,134.19584638590132Z" name="Torba" name_en="Torba" gn_name="Torba Province" admin="Vanuatu" adm0_a3="VUT" iso_3166_2="VU-TOB" iso_a2="VU" postal="TR" type="Province" type_en="Province" wikidataid="Q822514"/><path d="M191.51129751759672,107.74121493980006 193.28419336854037,110.89227451385895 195.69301929673003,111.97549167471702 198.4679867773734,111.3846435272319 201.35857784384643,109.39549964323209 200.8382715892424,115.69797639607904 198.00549219726616,118.12067688959922 193.59252300967708,118.25855714404206 188.27383545684614,117.66764370905636 185.80719761734738,114.08290017611832 183.8801368274332,110.18327101213933 183.78378379976385,106.28390888757336 186.67437510303333,102.8180329866369 192.82169878842524,101.22301311807537 196.73363204277416,103.48756074888642 196.7529026009424,106.63838515192248 191.51129751759672,107.74121493980006Z" name="Torba" name_en="Torba" gn_name="Torba Province" admin="Vanuatu" adm0_a3="VUT" iso_3166_2="VU-TOB" iso_a2="VU" postal="TR" type="Province" type_en="Province" wikidataid="Q822514"/><path d="M12.94984824300239,41.41221819459601 16.611263767499956,38.1469409764279 21.563810004689472,36.33734827080506 26.285108833415265,36.69139466004778 29.252782369389426,39.9172492555409 28.963723286405124,44.1858806540067 26.053861424967387,47.54986197765325 21.91068076217058,49.14339485423577 17.806041452530472,48.17940066884138 16.01387504339481,46.78262105951384 14.742014888902801,45.346530691650344 13.797755170520102,43.59572865912781 12.94984824300239,41.41221819459601Z" name="Torba" name_en="Torba" gn_name="Torba Province" admin="Vanuatu" adm0_a3="VUT" iso_3166_2="VU-TOB" iso_a2="VU" postal="TR" type="Province" type_en="Province" wikidataid="Q822514"/><path d="M12.94984824300239,21.626656559653355 11.562364502680705,22.29524420638707 11.273305419704329,23.298139525097003 11.388929242322527,24.714021241946263 11.331117331021352,26.582251052758174 10.868622750922048,27.565553774320982 10.251963231828439,28.430874157245736 9.365515424762762,29.178206233565827 8.05511391711405,29.846880307253205 4.239533690426547,27.80154903635391 2.1583081983382812,25.36297852267203 1.4452956516149351,21.862627840243967 1.6187311487695597,16.6714820950079 3.006214889091244,10.025913842847837 3.2374620607505973,7.430807339060857 2.6593438948136927,5.622164658484836 1.3874837403137603,4.42298650799806 0.2697885247843608,2.8699890504565073 0,0 8.035843358945806,2.201622988630261 9.673845065891534,3.341781444203548 10.926434662215298,5.858071301468469 11.909235496958257,11.323509867504029 12.94984824300239,13.368265234372842 12.94984824300239,14.862554606729544 11.793611911136505,16.23890728787385 11.331117331021352,17.73326985656959 11.639446972150123,19.42430504125649 12.94984824300239,21.626656559653355Z" name="Torba" name_en="Torba" gn_name="Torba Province" admin="Vanuatu" adm0_a3="VUT" iso_3166_2="VU-TOB" iso_a2="VU" postal="TR" type="Province" type_en="Province" wikidataid="Q822514"/><path d="M36.03603613201147,94.31177508623979 32.66367992726295,84.74374624519287 36.305824656827525,82.85395405983255 39.832345800530724,86.67297320065674 36.03603613201147,94.31177508623979Z" name="Torba" name_en="Torba" gn_name="Torba Province" admin="Vanuatu" adm0_a3="VUT" iso_3166_2="VU-TOB" iso_a2="VU" postal="TR" type="Province" type_en="Province" wikidataid="Q822514"/></svg>