<?xml version="1.0"?><svg fill="#3498db" stroke="#ecf0f1" stroke-width="1" width="800" height="360" viewBox="0 0 800 360" xmlns="http://www.w3.org/2000/svg"><path d="M247.70664463072788,0 260.63173199866804,0.09892195844516556 273.7504543338487,2.473075477921535 286.60292903521054,8.309703348010045 298.6566626196631,18.697509454461798 333.0025419496829,58.07908551640746 288.7060082042254,60.10560843441405 280.5374549064011,107.42823125187955 258.83872865452025,106.85932984659603 232.9188683003655,106.17976105639393 219.13913052763087,105.81848404923188 247.70664463072788,0Z" name="Gaga'emauga" name_en="Gaga'emauga" gn_name="Gaga`emauga" admin="Samoa" adm0_a3="WSM" iso_3166_2="WS-GE" iso_a2="WS" wikidataid="Q1193143"/><path d="M575.614200451151,212.15119093660005 589.0596640568261,215.1202716904997 589.5810537820385,248.09779573634447 577.3282238353319,245.3108908112955 575.614200451151,212.15119093660005Z" name="Gaga'emauga" name_en="Gaga'emauga" gn_name="Gaga`emauga" admin="Samoa" adm0_a3="WSM" iso_3166_2="WS-GE" iso_a2="WS" wikidataid="Q1193143"/><path d="M552.317560186334,328.0093549108721 539.4838685981184,329.7184004009389 541.9311599014558,291.30195985235133 555.9750496937967,292.59497274055707 552.317560186334,328.0093549108721Z" name="Gaga'emauga" name_en="Gaga'emauga" gn_name="Gaga`emauga" admin="Samoa" adm0_a3="WSM" iso_3166_2="WS-GE" iso_a2="WS" wikidataid="Q1193143"/><path d="M85.41691902477471,36.012193143291185 99.47960840492355,28.294532324556073 106.23260364748072,26.513593145136223 119.39973383221772,25.326312462243965 126.92726656436703,23.446471460039746 142.97470692315028,15.234823607940536 149.87292749888402,12.860458961747531 196.73242182471088,12.860458961747531 208.8587680757418,10.980781443104652 233.98281495615365,2.5225379080867687 247.70664463072788,0 219.13913052763087,105.81848404923188 121.25066559907634,103.25207175551792 89.68639407059538,83.31959786346647 85.41691902477471,36.012193143291185Z" name="Gaga'ifomauga" name_en="Gaga'ifomauga" gn_name="Gagaifomauga" admin="Samoa" adm0_a3="WSM" iso_3166_2="WS-GI" iso_a2="WS" wikidataid="Q1193134"/><path d="M47.053128698224896,93.51200277282716 37.976522176616186,85.09836016627906 36.11279230891915,82.07946917504336 35.4350723029672,75.69546706564964 33.910202140844774,72.4293440337934 30.521602705887744,70.548882972823 22.65521026818373,71.2416815598335 19.53285787218317,70.20248524697836 12.731453590404545,62.136598355545225 3.6306428465964213,48.18319628795611 0,34.92377965411689 9.536488527845552,28.98712593512722 29.868086922115303,28.98712593512722 52.015006739703175,37.2985101199765 72.20137980081626,37.892199201643564 85.41691902477471,36.012193143291185 89.68639407059538,83.31959786346647 74.96219708979311,74.02239292266212 47.053128698224896,93.51200277282716Z" name="Vaisigano" name_en="Vaisigano" gn_name="Vaisigano" admin="Samoa" adm0_a3="WSM" iso_3166_2="WS-VS" iso_a2="WS" wikidataid="Q1193139"/><path d="M103.27968068843309,139.99399649004874 95.19544977455469,136.7759015679431 88.95074438777075,133.21132783150415 76.17088235296738,113.31077466666483 68.47392006546198,104.00500778597925 53.07999549045119,98.06547567890041 47.053128698224896,93.51200277282716 74.96219708979311,74.02239292266212 89.68639407059538,83.31959786346647 121.25066559907634,103.25207175551792 103.27968068843309,139.99399649004874Z" name="Satupa'itea" name_en="Satupa'itea" gn_name="Satupa`itea" admin="Samoa" adm0_a3="WSM" iso_3166_2="WS-SA" iso_a2="WS" wikidataid="Q651573"/><path d="M276.0982697533641,187.58086626881047 254.65021894756183,195.33415692053842 232.9188683003655,106.17976105639393 258.83872865452025,106.85932984659603 276.0982697533641,187.58086626881047Z" name="Satupa'itea" name_en="Satupa'itea" gn_name="Satupa`itea" admin="Samoa" adm0_a3="WSM" iso_3166_2="WS-SA" iso_a2="WS" wikidataid="Q651573"/><path d="M254.65021894756183,195.33415692053842 246.2301829129844,198.37804644084926 154.30231205723217,208.33398103609997 148.51748808178283,204.22273849765511 142.41800802815558,196.09967296780965 137.67396858127475,191.39445450139317 128.01645894247193,186.09508044274705 123.3934412014108,182.43021023500845 121.40868962791397,177.08165152510068 120.17427132178996,171.4856927017276 114.58308171875856,159.3041083818548 113.3002543734131,151.92634360825232 110.32312731058911,144.59847582728926 103.27968068843309,139.99399649004874 121.25066559907634,103.25207175551792 219.13913052763087,105.81848404923188 232.9188683003655,106.17976105639393 254.65021894756183,195.33415692053842Z" name="Palauli" name_en="Palauli" gn_name="Palauli" admin="Samoa" adm0_a3="WSM" iso_3166_2="WS-PA" iso_a2="WS" wikidataid="Q1147216"/><path d="M338.83577436951117,205.65918306726502 335.20513152293466,208.33398103609997 321.0940336984268,208.18537957317622 314.87353312864497,206.84797593102908 308.60462351964173,203.8760123669717 299.2375651420147,195.85202595884624 294.37250398931417,189.85910105482506 288.5150673472865,186.6893930708731 276.0982697533641,187.58086626881047 258.83872865452025,106.85932984659603 280.5374549064011,107.42823125187955 314.57309346897773,178.44181346843 325.4644980443849,188.19156790158826 338.83577436951117,205.65918306726502Z" name="Palauli" name_en="Palauli" gn_name="Palauli" admin="Samoa" adm0_a3="WSM" iso_3166_2="WS-PA" iso_a2="WS" wikidataid="Q1147216"/><path d="M333.0025419496829,58.07908551640746 333.5350360276356,60.652128573037466 332.518456316129,67.53029992322067 333.0025419496829,70.20248524697836 336.12489434568346,72.92420627046756 343.38617944399397,75.89341641635689 345.9276293176429,78.86268788767426 347.9849935577181,85.29632259984429 349.1225949750644,91.82923452287753 349.5824763864189,105.83641384191581 352.3417648546454,117.46886832278192 357.6182989743414,124.54780756320669 361.03110263147795,132.22118451129685 358.0781803857158,145.68772902978105 352.09972203786845,155.14478381610425 345.2741135338904,162.5722345144989 339.70712815301863,171.33713021844383 337.43192591320843,185.4017191911192 339.1988382972653,199.36865492982324 338.83577436951117,205.65918306726502 325.4644980443849,188.19156790158826 314.57309346897773,178.44181346843 280.5374549064011,107.42823125187955 288.7060082042254,60.10560843441405 333.0025419496829,58.07908551640746Z" name="Fa'asaleleaga" name_en="Fa'asaleleaga" gn_name="Fa`asaleleaga" admin="Samoa" adm0_a3="WSM" iso_3166_2="WS-FA" iso_a2="WS" wikidataid="Q1154134"/><path d="M722.7399252116969,263.9714716757723 728.7667920611541,275.2205710422522 727.7986207871586,281.41539730197843 712.1093532492237,282.9388162254928 708.0250766003214,308.02975875116607 728.4464598448324,316.39441566332243 751.5906938320218,312.2120240512576 772.0120770765327,321.97113478136055 781.1690667729074,308.2297933625076 800,330.5873508027649 793.7552952080587,349.72551624042995 795.4737991477167,352.1055773547275 798.1846791715443,358.4526081334502 783.0570010406873,359.0476569359418 740.9657509787634,354.684023370424 715.8174998761918,357.01458342828073 704.1510350365154,355.9732647735273 691.8552586353057,349.72551624042995 682.1493405521041,354.9815393123529 672.2739927254709,354.38650782592106 664.459458833657,284.3326383454348 673.5810236932763,248.46208848253914 699.3343823282138,251.43499948275098 712.2836745131958,256.14223829881234 703.9407999514192,270.3950443700635 710.7479273429402,271.78874074691055 722.7399252116969,263.9714716757723Z" name="Atua" name_en="Atua" gn_name="Atua" admin="Samoa" adm0_a3="WSM" iso_3166_2="WS-AT" iso_a2="WS" wikidataid="Q1154332"/><path d="M712.2836745131958,256.14223829881234 722.7399252116969,263.9714716757723 710.7479273429402,271.78874074691055 703.9407999514192,270.3950443700635 712.2836745131958,256.14223829881234Z" name="Va'a-o-Fonoti" name_en="Va'a-o-Fonoti" gn_name="Va`a-o-Fonoti" admin="Samoa" adm0_a3="WSM" iso_3166_2="WS-VF" iso_a2="WS" wikidataid="Q1154109"/><path d="M727.7986207871586,281.41539730197843 723.8291182418752,285.08286527797435 721.2876683682262,289.19649104844063 724.7004720253826,296.0362836709135 751.349389067917,293.2111110623188 781.1690667729074,308.2297933625076 772.0120770765327,321.97113478136055 751.5906938320218,312.2120240512576 728.4464598448324,316.39441566332243 708.0250766003214,308.02975875116607 712.1093532492237,282.9388162254928 727.7986207871586,281.41539730197843Z" name="Va'a-o-Fonoti" name_en="Va'a-o-Fonoti" gn_name="Va`a-o-Fonoti" admin="Samoa" adm0_a3="WSM" iso_3166_2="WS-VF" iso_a2="WS" wikidataid="Q1154109"/><path d="M589.0596640568261,215.1202716904997 673.5810236932763,248.46208848253914 664.459458833657,284.3326383454348 672.2739927254709,354.38650782592106 653.4672640865366,349.72551624042995 643.8823677091747,350.6180344957229 618.3952563061661,358.4526081334502 612.2715720303196,358.25425890071483 607.0676511720643,356.5683028670369 603.4854173647292,353.19645268550113 602.1299773527854,348.08924797928944 599.6369359235551,342.88306978536195 593.7794992815474,340.4040057428125 581.8467874028946,337.677087389144 571.269514941343,332.02510008813243 561.9024571585585,328.80257906021234 552.317560186334,328.0093549108721 555.9750496937967,292.59497274055707 558.2682664970845,270.3950443700635 552.8225639418988,249.4912696227259 550.0454557536507,208.93894766829283 563.9356165815917,209.57233065909543 575.614200451151,212.15119093660005 577.3282238353319,245.3108908112955 589.5810537820385,248.09779573634447 589.0596640568261,215.1202716904997Z" name="Tuamasaga" name_en="Tuamasaga" gn_name="Tuamasaga" admin="Samoa" adm0_a3="WSM" iso_3166_2="WS-TU" iso_a2="WS" wikidataid="Q1144482"/><path d="M469.91047100004596,222.2476790107666 486.21566043914504,216.35868191264876 536.7784102781467,208.33398103609997 550.0454557536507,208.93894766829283 552.8225639418988,249.4912696227259 558.2682664970845,270.3950443700635 555.9750496937967,292.59497274055707 541.9311599014558,291.30195985235133 539.4838685981184,329.7184004009389 528.8636093960836,331.1327020509154 518.3831538232898,330.7856602646861 509.1613219685045,327.5631681368277 500.61720952482864,321.0192622850751 488.1762071955999,301.33983292495014 481.9315024036386,294.1032647477289 476.2192910947875,296.0362836709135 472.15297105901607,296.0362836709135 461.76933356470505,281.1675991821614 454.7984997275504,276.85597849837677 441.340917686815,275.2205710422522 482.0284355391627,249.4912696227259 469.91047100004596,222.2476790107666Z" name="A'ana" name_en="A'ana" gn_name="A'ana" admin="Samoa" adm0_a3="WSM" iso_3166_2="WS-AA" iso_a2="WS" wikidataid="Q1154121"/><path d="M432.43374112418417,242.76418623156135 439.30775766891935,233.30122755364988 448.8314144579615,229.86123621971794 454.799924903091,243.9174586725826 446.6313716052866,248.09779573634447 432.43374112418417,242.76418623156135Z" name="A'ana" name_en="A'ana" gn_name="A'ana" admin="Samoa" adm0_a3="WSM" iso_3166_2="WS-AA" iso_a2="WS" wikidataid="Q1154121"/><path d="M448.8314144579615,229.86123621971794 469.91047100004596,222.2476790107666 482.0284355391627,249.4912696227259 441.340917686815,275.2205710422522 429.2145714357841,269.7197964964773 427.6412928292628,256.8359501211507 432.43374112418417,242.76418623156135 446.6313716052866,248.09779573634447 454.799924903091,243.9174586725826 448.8314144579615,229.86123621971794Z" name="Aiga-i-le-Tai" name_en="Aiga-i-le-Tai" gn_name="Aiga-i-le-Tai" admin="Samoa" adm0_a3="WSM" iso_3166_2="WS-AL" iso_a2="WS" wikidataid="Q1144488"/></svg>